<?xml version="1.0" standalone="no"?>
<!DOCTYPE svg PUBLIC "-//W3C//DTD SVG 20010904//EN"
 "http://www.w3.org/TR/2001/REC-SVG-20010904/DTD/svg10.dtd">
<svg version="1.0" xmlns="http://www.w3.org/2000/svg"
 width="1024.000000pt" height="1024.000000pt" viewBox="0 0 1024.000000 1024.000000"
 preserveAspectRatio="xMidYMid meet">
<metadata>
Created by potrace 1.16, written by Peter Selinger 2001-2019
</metadata>
<g transform="translate(0.000000,1024.000000) scale(0.100000,-0.100000)"
fill="#000000" stroke="none">
<path d="M5940 7120 c-85 -26 -418 -192 -649 -325 -332 -191 -477 -285 -746
-485 -94 -70 -264 -183 -400 -265 -234 -141 -545 -373 -945 -706 -267 -221
-361 -342 -533 -685 -189 -375 -232 -490 -225 -588 10 -122 28 -146 393 -516
255 -259 341 -339 490 -460 66 -54 198 -162 293 -242 191 -160 287 -218 394
-239 76 -14 132 -6 248 37 115 43 293 159 620 403 19 14 44 33 56 41 12 8 73
54 135 101 63 47 186 134 274 193 196 133 230 159 375 295 270 252 434 384
700 559 113 75 271 188 351 251 81 64 196 151 255 194 217 155 457 350 533
433 128 140 135 269 28 524 -90 216 -233 449 -382 625 -145 171 -535 525 -730
660 -278 195 -395 237 -535 195z m215 -170 c79 -38 301 -191 410 -283 310
-260 527 -480 652 -660 l26 -38 -59 -52 c-32 -29 -88 -79 -124 -112 -36 -33
-104 -94 -150 -135 -107 -95 -194 -173 -200 -181 -18 -22 -81 -49 -115 -49
-35 0 -47 6 -81 43 -23 23 -64 76 -92 117 -66 96 -164 192 -273 266 -47 33
-103 73 -124 89 -39 30 -176 145 -185 155 -9 9 -112 76 -216 139 -115 69 -137
90 -132 122 4 29 39 50 176 105 59 23 117 51 130 62 41 37 21 112 -31 112 -23
0 -191 -67 -278 -111 -61 -30 -110 -76 -121 -111 -13 -46 -8 -103 13 -145 25
-51 83 -98 216 -175 104 -60 184 -118 293 -213 41 -36 122 -98 179 -137 131
-92 170 -129 258 -254 40 -56 88 -117 108 -135 37 -35 111 -68 156 -69 49 0
137 37 191 81 59 49 313 276 398 355 81 77 116 104 132 104 9 0 43 -59 85
-147 114 -237 138 -336 100 -416 -10 -19 -48 -63 -85 -97 -100 -93 -340 -284
-482 -386 -69 -49 -186 -137 -260 -197 -74 -59 -207 -154 -295 -210 -279 -178
-454 -316 -719 -566 -159 -149 -221 -198 -401 -319 -83 -55 -226 -156 -318
-224 -525 -387 -560 -411 -680 -469 -100 -48 -154 -59 -163 -35 -19 50 47 483
100 650 21 68 24 72 76 103 137 79 288 185 368 256 48 43 138 117 201 164 235
178 278 237 269 363 -9 125 -66 201 -323 430 -77 68 -180 163 -230 211 -253
243 -441 403 -510 435 -55 26 -142 32 -206 14 -20 -6 -96 -52 -170 -103 -74
-51 -165 -115 -204 -142 -101 -70 -125 -94 -125 -127 0 -34 32 -68 64 -68 13
0 50 19 82 43 165 121 343 246 371 260 51 27 113 22 159 -12 45 -33 219 -188
419 -374 187 -174 216 -200 315 -286 197 -170 255 -263 217 -353 -15 -36 -39
-57 -198 -175 -46 -33 -118 -91 -159 -127 -167 -147 -318 -253 -442 -312 l-37
-17 -68 59 c-37 32 -115 104 -173 159 -149 141 -210 196 -346 310 -122 103
-174 150 -404 366 -74 70 -163 150 -198 179 -73 59 -73 60 -9 155 118 175 211
270 481 491 115 94 155 125 412 319 144 109 323 232 429 295 100 59 313 203
479 323 199 145 356 245 666 422 187 107 517 276 565 288 46 13 141 1 190 -23z
m-3249 -2432 c43 -40 147 -136 229 -213 83 -78 204 -188 270 -245 178 -153
258 -224 373 -332 56 -54 141 -130 188 -169 75 -63 85 -75 81 -98 -3 -14 -15
-69 -27 -121 -34 -150 -59 -315 -67 -437 -3 -62 -10 -113 -14 -113 -4 0 -31
17 -60 38 -51 36 -73 55 -254 207 -49 42 -99 83 -110 92 -11 9 -45 37 -75 62
-30 26 -85 70 -122 99 -87 69 -663 654 -700 711 -49 78 -43 110 68 354 100
221 109 237 128 237 7 0 48 -32 92 -72z"/>
<path d="M4943 6169 c-18 -5 -70 -35 -115 -66 -46 -31 -146 -98 -223 -149
-261 -172 -275 -187 -282 -291 -8 -107 12 -135 278 -391 124 -119 259 -244
300 -277 136 -109 239 -207 316 -299 100 -120 138 -153 197 -171 103 -31 205
-7 299 69 29 23 117 93 197 155 166 131 258 220 292 282 30 58 33 195 5 248
-28 50 -91 115 -176 179 -42 31 -125 97 -186 147 -138 113 -377 303 -415 330
-15 11 -83 62 -151 114 -68 52 -142 102 -164 112 -43 20 -119 23 -172 8z m148
-142 c20 -12 108 -79 195 -149 176 -140 565 -448 692 -546 44 -35 90 -79 101
-98 29 -49 28 -121 -2 -165 -27 -41 -466 -394 -515 -414 -85 -36 -131 -13
-235 117 -77 96 -184 199 -322 309 -44 35 -149 131 -233 213 -85 82 -170 163
-190 180 -20 17 -58 52 -84 77 -42 40 -48 52 -48 86 0 48 26 86 80 113 41 21
273 176 331 221 103 81 166 96 230 56z"/>
<path d="M2808 4260 c-35 -27 -51 -80 -46 -151 5 -73 26 -99 79 -99 67 0 105
66 97 167 -5 61 -25 87 -74 97 -22 5 -37 1 -56 -14z"/>
<path d="M3080 3962 c-50 -51 -53 -190 -5 -238 46 -46 106 -27 136 43 61 143
-37 289 -131 195z"/>
<path d="M3370 3690 c-36 -39 -56 -123 -41 -176 28 -103 133 -115 168 -19 31
81 21 165 -22 203 -36 31 -71 28 -105 -8z"/>
<path d="M3713 3440 c-34 -14 -54 -54 -60 -121 -7 -71 12 -119 53 -138 36 -16
46 -14 76 14 59 55 63 187 7 236 -24 21 -42 23 -76 9z"/>
</g>
</svg>
