<?xml version="1.0" standalone="no"?>
<!DOCTYPE svg PUBLIC "-//W3C//DTD SVG 20010904//EN"
 "http://www.w3.org/TR/2001/REC-SVG-20010904/DTD/svg10.dtd">
<svg version="1.0" xmlns="http://www.w3.org/2000/svg"
 width="1024.000000pt" height="1024.000000pt" viewBox="0 0 1024.000000 1024.000000"
 preserveAspectRatio="xMidYMid meet">
<metadata>
Created by potrace 1.16, written by Peter Selinger 2001-2019
</metadata>
<g transform="translate(0.000000,1024.000000) scale(0.100000,-0.100000)"
fill="#000000" stroke="none">
<path d="M4945 8183 c-233 -16 -576 -78 -820 -148 -902 -259 -1594 -785 -1864
-1417 -67 -157 -92 -263 -98 -424 -9 -217 29 -348 133 -463 l48 -54 -34 -26
c-116 -87 -222 -217 -261 -320 -39 -105 -24 -218 38 -283 14 -14 52 -38 84
-53 47 -21 59 -31 59 -49 0 -44 32 -115 71 -160 l40 -45 -43 -27 c-145 -91
-248 -239 -282 -406 -20 -94 -20 -143 -2 -229 17 -77 53 -153 96 -202 24 -27
30 -44 30 -79 0 -58 24 -136 56 -183 l25 -38 -29 -66 c-94 -212 -80 -491 38
-723 171 -336 471 -525 965 -607 681 -113 2829 -122 3725 -15 427 51 706 162
900 356 231 233 335 574 263 862 -14 57 -66 170 -96 210 -13 17 -11 26 15 83
17 35 35 93 42 131 9 54 18 74 45 102 19 19 46 60 60 90 23 49 26 67 25 165 0
92 -4 122 -26 183 -52 145 -144 264 -265 343 -40 26 -79 49 -86 52 -8 3 -1 16
20 38 31 33 83 126 83 148 0 6 15 11 33 11 17 0 52 10 77 21 94 42 140 113
148 225 9 147 -45 270 -179 407 l-86 87 61 63 c77 80 123 157 154 260 32 107
36 306 8 437 -138 644 -730 1214 -1586 1526 -291 107 -664 187 -983 214 -117
9 -482 11 -602 3z m745 -188 c388 -52 803 -176 1123 -336 443 -222 800 -540
987 -876 180 -323 215 -650 91 -845 -66 -104 -153 -165 -273 -192 -162 -37
-707 -76 -1493 -108 -420 -17 -1990 -17 -2350 0 -621 29 -1036 63 -1154 93
-185 47 -278 171 -288 384 -14 271 115 580 364 875 470 558 1343 951 2268
1024 126 10 605 -3 725 -19z m2068 -2444 c77 -52 164 -145 197 -211 39 -76 45
-165 15 -202 -26 -33 -47 -35 -125 -7 -71 25 -117 21 -223 -22 -104 -41 -160
-40 -248 7 -38 20 -98 52 -134 71 -169 88 -324 64 -520 -82 -115 -85 -167
-108 -250 -108 -74 0 -133 22 -211 78 -128 92 -252 127 -375 107 -51 -8 -104
-29 -203 -79 -133 -67 -135 -68 -215 -68 -77 0 -86 3 -186 51 -126 62 -191 79
-275 71 -85 -8 -163 -40 -259 -105 -100 -69 -159 -92 -234 -92 -84 0 -135 21
-240 99 -115 86 -166 111 -244 121 -86 10 -149 -5 -246 -56 -110 -58 -143 -58
-237 -3 -95 56 -136 69 -215 69 -76 0 -133 -17 -200 -60 -57 -37 -125 -55
-172 -46 -20 4 -79 35 -131 70 -152 101 -225 108 -365 34 -58 -30 -92 -42
-138 -45 -67 -6 -95 4 -120 42 -14 22 -14 28 0 72 32 96 160 234 275 296 46
26 49 26 102 12 155 -42 733 -83 1479 -106 429 -13 1761 -7 2145 10 841 37
1374 80 1493 120 2 1 29 -16 60 -38z m-5023 -539 c109 -75 165 -96 262 -96 79
-1 84 0 186 53 96 50 108 53 159 49 39 -3 71 -14 114 -40 141 -86 240 -90 382
-16 48 26 104 49 123 53 50 9 111 -16 203 -86 147 -111 240 -145 375 -136 112
7 158 24 287 108 167 108 225 114 373 36 200 -105 356 -101 553 13 85 49 146
70 202 70 61 0 98 -15 199 -81 111 -73 181 -100 282 -106 135 -9 244 29 383
134 155 116 231 130 354 63 192 -104 217 -114 302 -118 68 -4 93 0 159 22 90
30 87 30 87 13 0 -23 -73 -89 -127 -114 -97 -45 -271 -69 -733 -102 -753 -54
-1929 -70 -2955 -41 -684 20 -1219 60 -1345 102 -59 19 -117 65 -139 111 -26
53 -27 76 -3 83 9 4 46 20 82 37 122 58 135 58 235 -11z m4970 -415 c220 -105
364 -378 283 -537 -29 -56 -74 -80 -148 -80 -81 0 -144 33 -211 111 -151 176
-206 209 -344 209 -131 0 -221 -48 -309 -164 -88 -117 -143 -156 -217 -156
-90 0 -153 43 -237 164 -98 140 -151 181 -273 212 -79 20 -158 11 -237 -26
-83 -39 -135 -89 -195 -188 -90 -148 -164 -202 -277 -202 -81 0 -137 26 -199
93 -133 142 -164 169 -229 200 -62 30 -75 32 -172 32 -99 0 -110 -2 -171 -32
-41 -20 -97 -62 -150 -111 -46 -44 -97 -86 -114 -94 -93 -47 -176 -28 -290 68
-117 98 -167 119 -285 119 -128 0 -182 -27 -289 -142 -87 -94 -135 -123 -201
-123 -60 0 -98 24 -190 119 -44 46 -96 89 -126 104 -72 36 -166 51 -239 38
-99 -18 -155 -52 -264 -155 -55 -53 -120 -106 -143 -116 -97 -44 -198 -14
-257 78 -117 182 -9 469 216 574 l66 31 101 -16 c149 -25 245 -34 511 -52
1176 -76 2947 -66 3950 21 180 15 456 51 465 61 13 14 106 -7 175 -40z m-1460
-416 c46 -21 83 -59 147 -151 83 -119 160 -176 280 -206 75 -19 140 -15 223
17 61 23 137 90 229 203 48 58 86 83 143 92 67 10 122 -23 195 -115 103 -131
203 -197 318 -208 88 -8 90 -10 79 -42 -24 -70 -105 -136 -194 -159 -141 -37
-1176 -82 -2260 -98 -830 -12 -2327 28 -2812 76 -136 13 -227 61 -269 143
l-15 27 54 -6 c64 -8 162 15 227 53 25 15 86 66 137 115 50 49 111 97 135 108
98 44 184 14 291 -104 51 -56 84 -83 134 -108 61 -30 76 -33 158 -33 126 0
179 27 300 151 97 100 121 114 193 114 55 0 91 -20 184 -99 34 -30 88 -66 118
-80 49 -23 68 -26 165 -26 102 0 115 2 175 31 44 21 94 58 151 112 98 92 135
112 212 112 83 0 140 -34 226 -135 124 -145 208 -189 366 -189 184 0 286 62
411 251 71 106 85 121 133 146 63 32 110 34 166 8z m1642 -758 c35 -73 37 -85
41 -194 5 -135 -16 -236 -72 -356 -142 -298 -394 -453 -851 -523 -569 -86
-2115 -116 -3160 -60 -641 35 -970 108 -1189 264 -35 25 -97 81 -140 127 -60
64 -88 103 -126 183 -27 55 -57 133 -66 171 -23 95 -24 262 -2 335 29 94 27
93 138 70 135 -27 675 -61 1305 -80 1210 -37 2781 -13 3665 56 214 16 313 33
369 62 20 11 39 20 43 21 4 0 24 -34 45 -76z"/>
<path d="M5421 7799 c-25 -27 -37 -102 -22 -135 15 -33 54 -50 88 -38 62 22
92 117 53 167 -28 35 -89 38 -119 6z"/>
<path d="M6154 7576 c-33 -15 -44 -33 -44 -72 0 -39 17 -61 56 -74 71 -24 134
8 134 67 0 49 -15 71 -58 83 -46 12 -50 12 -88 -4z"/>
<path d="M4458 7550 c-44 -26 -68 -171 -34 -209 29 -32 88 -29 115 5 46 59 51
163 10 197 -23 19 -65 22 -91 7z"/>
<path d="M3775 7445 c-30 -29 -32 -74 -6 -106 16 -21 28 -24 81 -24 55 0 64 3
86 28 29 34 31 66 3 101 -18 23 -28 26 -80 26 -50 0 -64 -4 -84 -25z"/>
<path d="M4923 7366 c-36 -31 -39 -95 -5 -128 33 -34 97 -31 128 5 73 85 -38
196 -123 123z"/>
<path d="M6325 6797 c-123 -41 -187 -116 -221 -263 -21 -91 -21 -177 -1 -208
22 -32 67 -42 106 -22 33 18 44 47 56 151 12 109 52 171 116 181 69 10 121
-52 149 -179 17 -75 46 -107 99 -107 48 0 81 35 81 85 0 42 -44 178 -76 232
-62 106 -202 165 -309 130z"/>
<path d="M3766 6730 c-61 -24 -129 -89 -163 -154 -14 -27 -36 -92 -49 -144
-34 -135 -17 -182 69 -182 44 0 72 31 87 95 28 117 51 174 85 204 57 50 113
51 169 2 29 -26 42 -60 65 -166 24 -113 40 -135 100 -135 51 0 81 32 81 86 0
56 -36 196 -64 252 -31 59 -88 115 -146 141 -60 27 -166 27 -234 1z"/>
<path d="M5505 6363 c-30 -7 -49 -28 -76 -81 -31 -61 -83 -112 -144 -142 -42
-21 -65 -25 -140 -25 -106 0 -159 21 -221 87 -22 23 -55 58 -75 80 -88 92
-189 10 -133 -108 23 -48 132 -147 197 -178 202 -99 426 -65 583 89 99 97 139
204 97 253 -19 22 -56 32 -88 25z"/>
</g>
</svg>
