<?xml version="1.0" standalone="no"?>
<!DOCTYPE svg PUBLIC "-//W3C//DTD SVG 20010904//EN"
 "http://www.w3.org/TR/2001/REC-SVG-20010904/DTD/svg10.dtd">
<svg version="1.0" xmlns="http://www.w3.org/2000/svg"
 width="1024.000000pt" height="1024.000000pt" viewBox="0 0 1024.000000 1024.000000"
 preserveAspectRatio="xMidYMid meet">
<metadata>
Created by potrace 1.16, written by Peter Selinger 2001-2019
</metadata>
<g transform="translate(0.000000,1024.000000) scale(0.100000,-0.100000)"
fill="#000000" stroke="none">
<path d="M5123 6956 c-59 -19 -108 -51 -121 -81 -10 -21 -15 -24 -31 -15 -55
29 -184 -4 -218 -56 -14 -22 -19 -23 -87 -17 -81 6 -165 -12 -208 -46 -25 -20
-26 -20 -63 -1 -165 84 -387 20 -491 -142 -22 -34 -26 -37 -50 -28 -38 15
-125 12 -177 -6 -61 -21 -131 -83 -153 -138 -18 -43 -19 -43 -84 -53 -159 -25
-281 -134 -306 -275 -5 -32 -11 -39 -43 -49 -51 -17 -104 -52 -124 -83 -13
-19 -26 -26 -50 -26 -92 0 -189 -65 -228 -152 -22 -49 -24 -64 -23 -218 3
-324 81 -652 229 -955 194 -396 535 -739 954 -958 66 -35 118 -67 114 -70 -3
-4 -20 -7 -37 -7 -55 0 -243 -48 -302 -77 -32 -15 -67 -40 -78 -56 -26 -35
-26 -89 -1 -118 168 -189 1778 -262 2740 -124 347 50 464 107 435 214 -6 24
-21 48 -38 59 -42 30 -160 69 -263 87 -52 9 -105 18 -118 21 -21 4 -5 16 90
66 586 309 978 802 1129 1420 42 171 63 326 64 473 1 115 -1 135 -21 170 -25
48 -68 90 -104 104 -21 7 -28 18 -33 51 -18 114 -109 210 -232 246 -42 12 -52
20 -62 47 -18 50 -76 112 -129 138 -35 17 -64 22 -118 22 l-72 0 -23 44 c-32
60 -100 118 -163 139 -30 10 -84 18 -127 18 -56 1 -82 6 -103 20 -15 10 -49
23 -74 27 -26 5 -50 15 -54 22 -32 56 -74 97 -130 127 -60 33 -70 35 -159 35
-68 0 -104 -5 -127 -16 l-31 -17 -54 52 c-82 79 -197 106 -310 72 l-46 -13
-37 45 c-61 72 -167 105 -252 78z m124 -112 c52 -25 64 -51 61 -129 -2 -53 0
-69 13 -78 25 -16 68 0 75 27 15 59 111 102 195 85 24 -4 47 -8 51 -9 21 -1
88 -75 88 -96 0 -29 33 -64 59 -64 11 0 33 11 49 25 40 33 78 46 137 47 65 0
127 -25 165 -68 34 -39 38 -70 14 -116 -20 -39 -11 -76 21 -84 35 -9 52 0 77
41 16 29 26 35 47 33 19 -2 27 -10 29 -28 2 -14 9 -31 14 -37 15 -18 59 -16
87 4 16 10 44 16 81 16 74 0 142 -32 181 -86 27 -38 29 -45 23 -99 -6 -54 -5
-58 17 -67 26 -9 65 5 88 33 37 44 151 21 196 -38 14 -18 25 -36 25 -39 0 -4
-16 -13 -36 -22 -33 -13 -35 -17 -32 -52 l3 -38 105 3 c102 3 106 3 151 -26
79 -51 110 -152 74 -239 -14 -32 -14 -39 0 -60 24 -37 82 -26 97 19 11 32 61
-22 73 -78 5 -27 3 -32 -17 -36 -13 -3 -1069 -4 -2346 -3 -1985 2 -2325 4
-2333 16 -16 25 -10 101 12 145 36 75 127 102 235 69 43 -13 51 -13 72 1 30
20 27 65 -5 79 -30 13 -29 21 7 40 38 20 69 19 92 -2 15 -13 25 -15 46 -7 23
8 27 15 26 44 -1 19 -7 49 -14 67 -28 65 27 160 118 204 66 31 161 32 221 0
50 -26 88 -22 100 11 12 34 1 58 -35 80 -43 25 -43 48 1 92 61 62 140 67 223
16 18 -11 40 -20 49 -20 28 0 53 31 53 65 0 37 43 101 88 134 46 32 108 51
169 51 63 0 109 -17 142 -54 32 -34 61 -33 97 5 40 43 82 59 154 59 70 0 130
-25 156 -66 24 -35 48 -46 78 -34 37 14 35 64 -4 109 -27 32 -28 36 -14 52 35
39 88 31 130 -19 22 -27 64 -33 89 -12 9 7 15 29 15 54 0 81 82 120 167 80z
m2227 -1416 c-79 -571 -266 -963 -622 -1310 -191 -187 -449 -356 -697 -458
-159 -65 -149 -57 -155 -125 l-5 -60 -870 0 -870 0 -3 62 -3 62 -72 27 c-101
38 -349 164 -443 225 -472 309 -780 743 -905 1279 -21 89 -49 266 -49 313 l0
27 2350 0 2350 0 -6 -42z m-3334 -1953 c0 -42 29 -85 65 -101 29 -12 171 -14
887 -13 469 0 880 4 912 8 71 9 106 41 106 97 l0 34 58 -6 c200 -22 432 -75
432 -100 0 -34 -341 -94 -720 -126 -212 -18 -1307 -18 -1510 0 -393 34 -720
91 -720 124 0 24 164 66 352 92 144 20 138 20 138 -9z"/>
<path d="M5082 6653 c-21 -8 -34 -51 -21 -74 14 -27 49 -39 74 -26 72 37 22
130 -53 100z"/>
<path d="M5537 6608 c-28 -22 -32 -63 -8 -87 40 -40 102 -22 115 31 12 52 -61
90 -107 56z"/>
<path d="M4595 6551 c-75 -19 -114 -56 -99 -94 10 -26 44 -30 99 -12 66 23 96
15 148 -36 22 -21 46 -39 52 -39 18 0 45 34 45 58 0 28 -56 91 -95 108 -41 17
-114 24 -150 15z"/>
<path d="M4184 6475 c-16 -25 -12 -63 10 -77 45 -30 106 15 87 64 -17 44 -72
52 -97 13z"/>
<path d="M5680 6458 c-55 -29 -68 -48 -52 -82 13 -30 43 -33 82 -11 34 19 100
19 128 -1 13 -9 34 -33 48 -55 51 -81 125 -27 80 59 -52 99 -185 141 -286 90z"/>
<path d="M5115 6456 c-53 -23 -95 -65 -95 -95 0 -15 5 -32 12 -39 17 -17 53
-15 69 4 40 48 134 59 189 22 19 -13 44 -44 57 -70 18 -36 30 -48 46 -48 99 1
46 154 -74 215 -55 28 -152 34 -204 11z"/>
<path d="M4055 6341 c-48 -12 -91 -38 -119 -71 -30 -36 -33 -62 -10 -84 23
-24 43 -20 85 19 48 43 111 50 171 19 43 -22 77 -18 88 12 14 36 -1 58 -57 82
-58 24 -118 33 -158 23z"/>
<path d="M6512 6314 c-40 -28 -21 -104 27 -104 31 0 54 25 54 59 0 50 -41 73
-81 45z"/>
<path d="M6173 6246 c-90 -29 -137 -76 -119 -121 12 -32 49 -34 91 -5 80 56
152 45 200 -29 28 -45 52 -52 78 -23 21 23 21 45 3 80 -43 83 -160 128 -253
98z"/>
<path d="M4685 6233 c-91 -20 -155 -67 -155 -114 0 -22 7 -32 25 -41 22 -10
31 -7 68 20 72 51 134 49 187 -9 42 -47 77 -50 97 -10 35 71 -117 177 -222
154z"/>
<path d="M5674 6196 c-80 -37 -109 -97 -62 -130 20 -14 24 -14 43 -1 55 41 82
55 108 55 44 0 67 17 67 50 0 55 -70 66 -156 26z"/>
<path d="M3601 6099 c-125 -23 -225 -201 -111 -198 18 0 34 12 55 42 21 28 44
46 70 55 36 12 45 11 92 -8 60 -25 90 -20 99 16 15 60 -100 112 -205 93z"/>
<path d="M4216 6096 c-80 -30 -151 -131 -127 -182 9 -21 17 -25 44 -22 26 2
35 10 50 41 31 67 107 94 186 66 27 -10 35 -8 52 7 26 23 21 52 -14 78 -35 26
-136 32 -191 12z"/>
<path d="M5075 6086 c-69 -32 -91 -59 -79 -94 13 -36 41 -38 99 -8 26 15 62
26 79 26 53 0 117 -40 146 -90 29 -50 57 -61 85 -34 36 37 -7 130 -83 178 -85
52 -167 60 -247 22z"/>
<path d="M6532 6054 c-22 -15 -29 -48 -14 -70 4 -7 42 -13 84 -16 87 -4 122
-25 133 -82 15 -68 54 -95 89 -60 48 48 -18 184 -109 225 -51 23 -152 25 -183
3z"/>
<path d="M4660 5920 c-39 -39 -17 -78 53 -94 15 -4 44 -24 65 -46 20 -22 44
-40 53 -40 21 0 49 32 49 56 0 30 -55 89 -102 111 -71 33 -95 36 -118 13z"/>
<path d="M5853 5896 c-63 -30 -79 -65 -45 -98 l21 -21 50 21 c27 12 60 22 73
22 30 0 83 -33 104 -65 21 -32 58 -33 79 -1 15 22 15 27 1 54 -21 42 -79 89
-123 101 -59 17 -104 13 -160 -13z"/>
<path d="M3830 5890 c-24 -24 -25 -38 -4 -68 30 -43 94 -21 94 33 0 53 -52 73
-90 35z"/>
<path d="M3385 5851 c-96 -24 -142 -81 -93 -115 18 -13 25 -13 56 -1 45 19
102 19 129 0 12 -8 31 -31 43 -50 14 -23 29 -35 44 -35 80 0 47 133 -44 177
-55 26 -95 33 -135 24z"/>
<path d="M6342 5848 c-14 -14 -16 -106 -2 -142 7 -20 17 -26 38 -26 40 0 52
17 52 76 0 76 -13 104 -48 104 -15 0 -33 -5 -40 -12z"/>
<path d="M5111 5836 c-73 -24 -131 -93 -131 -156 0 -23 6 -33 24 -42 34 -15
52 -5 76 42 35 68 95 82 174 43 52 -26 90 8 70 62 -9 22 -76 55 -126 60 -24 3
-63 -2 -87 -9z"/>
<path d="M7013 5829 c-21 -22 -16 -64 10 -76 63 -29 90 -33 114 -18 32 21 30
58 -4 80 -35 23 -104 31 -120 14z"/>
<path d="M4333 5808 c-28 -14 -37 -41 -23 -69 10 -17 19 -20 53 -17 23 3 52 1
65 -4 55 -19 88 53 40 86 -26 18 -102 20 -135 4z"/>
<path d="M5570 5813 c-54 -20 -68 -81 -25 -101 58 -27 115 -8 115 38 0 27 -22
60 -40 60 -5 0 -14 2 -22 4 -7 3 -20 2 -28 -1z"/>
<path d="M4050 5803 c-42 -15 -53 -70 -20 -103 37 -37 93 -20 105 31 10 42
-43 87 -85 72z"/>
<path d="M6642 5750 c-71 -29 -15 -124 62 -104 26 6 46 30 46 56 0 39 -62 66
-108 48z"/>
<path d="M2967 5732 c-34 -37 -14 -92 33 -92 21 0 35 8 47 26 15 24 15 29 2
53 -18 32 -59 39 -82 13z"/>
<path d="M6515 4729 c-4 -6 -22 -40 -41 -77 -92 -183 -300 -380 -509 -484 -27
-14 -87 -40 -132 -58 -88 -35 -105 -55 -77 -97 20 -32 51 -29 158 13 283 112
561 359 672 597 28 61 30 80 8 101 -18 18 -69 21 -79 5z"/>
</g>
</svg>
