<?xml version="1.0" standalone="no"?>
<!DOCTYPE svg PUBLIC "-//W3C//DTD SVG 20010904//EN"
 "http://www.w3.org/TR/2001/REC-SVG-20010904/DTD/svg10.dtd">
<svg version="1.0" xmlns="http://www.w3.org/2000/svg"
 width="1024.000000pt" height="1024.000000pt" viewBox="0 0 1024.000000 1024.000000"
 preserveAspectRatio="xMidYMid meet">
<metadata>
Created by potrace 1.16, written by Peter Selinger 2001-2019
</metadata>
<g transform="translate(0.000000,1024.000000) scale(0.100000,-0.100000)"
fill="#000000" stroke="none">
<path d="M5411 7112 c-130 -65 -210 -186 -219 -331 -6 -98 8 -163 59 -274 23
-49 43 -105 46 -125 7 -51 -29 -140 -72 -182 -88 -85 7 -180 99 -99 75 66 123
196 112 309 -4 49 -17 89 -52 160 -93 192 -65 326 88 415 71 42 78 49 78 87 0
29 -40 68 -69 68 -9 -1 -40 -13 -70 -28z"/>
<path d="M4703 7080 c-109 -54 -183 -158 -205 -288 -17 -98 -1 -183 57 -297
36 -71 45 -100 45 -140 0 -60 -26 -119 -74 -173 -22 -24 -36 -50 -36 -66 0
-36 33 -66 72 -66 41 0 110 70 147 149 23 49 26 69 26 156 0 98 -1 103 -42
185 -70 141 -76 214 -27 311 25 51 70 93 124 117 55 25 70 42 70 78 0 38 -29
64 -71 64 -14 0 -53 -14 -86 -30z"/>
<path d="M5527 6752 c-25 -28 -21 -62 18 -143 84 -180 85 -310 3 -475 -36 -73
-32 -112 13 -128 46 -16 76 0 109 57 70 121 96 295 66 437 -18 85 -71 202
-109 243 -31 32 -76 36 -100 9z"/>
<path d="M4827 6732 c-25 -28 -21 -61 19 -136 46 -87 64 -153 64 -241 -1 -89
-13 -145 -51 -219 -36 -71 -36 -114 2 -135 40 -22 75 -7 110 47 98 154 107
409 20 581 -45 88 -76 121 -115 121 -19 0 -40 -8 -49 -18z"/>
<path d="M4035 5820 c-194 -5 -218 -12 -236 -58 -26 -67 31 -535 112 -917 77
-367 207 -768 328 -1014 23 -46 40 -85 39 -87 -2 -1 -100 -5 -218 -9 -119 -4
-231 -13 -250 -19 -20 -6 -41 -23 -50 -38 -14 -26 -13 -31 9 -74 58 -109 273
-261 451 -318 63 -20 87 -21 815 -24 842 -3 840 -3 992 68 97 45 155 84 242
159 115 100 149 173 101 216 -19 17 -50 20 -270 29 l-249 9 36 71 c20 39 62
136 94 215 l57 143 82 34 c45 18 133 63 196 99 383 223 608 519 630 830 15
198 -75 374 -228 449 -99 48 -249 66 -360 44 -10 -2 -13 15 -13 69 0 62 -3 76
-23 95 -22 22 -32 23 -230 29 -244 8 -1797 7 -2057 -1z m2168 -147 c11 -20
-48 -437 -99 -693 -86 -431 -203 -803 -349 -1107 l-64 -133 -624 0 -624 0 -61
128 c-170 355 -301 791 -382 1277 -36 211 -67 482 -61 528 1 4 509 7 1130 7
622 0 1132 -3 1134 -7z m342 -184 c153 -28 246 -126 261 -276 11 -110 -42
-278 -129 -408 -62 -92 -209 -232 -327 -311 -110 -73 -235 -142 -243 -134 -3
3 4 40 16 83 l20 78 82 40 c309 153 471 444 373 671 -35 81 -128 132 -233 126
l-49 -2 3 49 c3 61 12 71 76 83 69 13 83 13 150 1z m-93 -299 c29 -29 30 -33
26 -103 -4 -87 -34 -157 -101 -238 -40 -49 -154 -139 -176 -139 -4 0 3 48 16
106 13 59 34 168 47 243 26 153 31 161 114 161 35 0 49 -6 74 -30z m-514
-1600 c209 0 223 -1 211 -17 -20 -24 -136 -96 -194 -120 -109 -46 -104 -46
-880 -46 -656 0 -747 2 -804 17 -71 18 -171 69 -247 125 l-49 36 405 6 c223 3
614 4 869 2 255 -1 565 -3 689 -3z"/>
<path d="M4538 5454 c-18 -9 -32 -28 -39 -54 -30 -99 76 -170 152 -102 26 24
32 36 32 72 0 36 -6 48 -32 72 -35 31 -71 35 -113 12z"/>
<path d="M5548 5455 c-31 -17 -52 -71 -42 -109 9 -36 59 -76 96 -76 21 0 40
10 65 35 32 32 35 40 30 77 -3 22 -14 50 -25 60 -25 26 -89 33 -124 13z"/>
<path d="M5035 5366 c-16 -7 -43 -28 -60 -46 -43 -46 -79 -62 -120 -54 -28 5
-38 2 -59 -20 -34 -33 -33 -61 3 -97 24 -24 38 -29 77 -29 56 0 117 27 162 71
l32 31 35 -31 c57 -50 94 -65 162 -65 52 -1 65 3 87 23 17 16 26 35 26 56 0
45 -26 65 -84 65 -56 0 -78 10 -131 60 -46 44 -87 55 -130 36z"/>
</g>
</svg>
