<?xml version="1.0" standalone="no"?>
<!DOCTYPE svg PUBLIC "-//W3C//DTD SVG 20010904//EN"
 "http://www.w3.org/TR/2001/REC-SVG-20010904/DTD/svg10.dtd">
<svg version="1.0" xmlns="http://www.w3.org/2000/svg"
 width="1024.000000pt" height="1024.000000pt" viewBox="0 0 1024.000000 1024.000000"
 preserveAspectRatio="xMidYMid meet">
<metadata>
Created by potrace 1.16, written by Peter Selinger 2001-2019
</metadata>
<g transform="translate(0.000000,1024.000000) scale(0.100000,-0.100000)"
fill="#000000" stroke="none">
<path d="M4755 8590 c-224 -23 -450 -73 -560 -126 -65 -30 -130 -99 -144 -151
-13 -48 -30 -596 -20 -641 12 -56 47 -90 129 -123 30 -12 59 -25 63 -29 11
-10 -47 -146 -90 -209 -24 -34 -80 -88 -153 -146 -387 -309 -600 -684 -660
-1165 -46 -369 -15 -2987 41 -3425 50 -397 221 -638 543 -765 431 -170 1334
-209 1961 -85 183 37 290 70 405 127 92 45 117 64 201 148 84 84 101 107 147
200 88 182 112 322 132 770 29 673 34 971 35 1870 0 1036 -3 1113 -51 1345
-78 372 -309 736 -621 977 -123 95 -152 129 -203 233 -51 106 -58 133 -34 141
101 32 168 87 179 147 4 18 1 166 -5 327 -11 279 -13 296 -36 341 -27 54 -66
87 -145 123 -73 34 -266 82 -409 101 -135 19 -570 28 -705 15z m715 -134 c256
-41 392 -88 436 -153 20 -30 22 -49 29 -308 6 -253 5 -278 -10 -295 -38 -43
-248 -109 -456 -144 -237 -41 -591 -45 -819 -11 -223 33 -434 97 -488 148
l-23 22 6 275 c7 262 8 277 30 310 47 75 258 139 559 170 134 14 615 4 736
-14z m284 -1061 c60 -148 122 -232 233 -316 322 -243 537 -575 612 -945 40
-199 45 -328 45 -1229 0 -792 -7 -1174 -34 -1870 -19 -482 -38 -604 -123 -775
-57 -117 -160 -222 -272 -278 -143 -71 -349 -122 -645 -159 -182 -22 -835 -26
-1020 -5 -585 66 -828 182 -960 457 -75 158 -93 272 -110 685 -5 146 -16 405
-22 575 -18 439 -18 2247 0 2411 32 297 123 548 280 768 71 99 251 282 354
359 43 32 98 83 124 114 46 58 111 176 133 246 7 20 18 37 24 37 7 0 55 -9
107 -19 358 -73 867 -67 1157 14 77 21 80 19 117 -70z"/>
<path d="M5615 8304 c-297 -56 -802 -60 -1113 -8 -52 9 -105 13 -118 10 -32
-8 -50 -46 -35 -75 57 -105 1044 -123 1342 -24 49 16 54 21 57 50 2 23 -3 35
-20 47 -26 18 -20 18 -113 0z"/>
<path d="M4296 8028 c-20 -32 -33 -263 -16 -283 15 -18 44 -19 58 -2 5 6 14
68 20 137 8 103 7 129 -4 148 -8 12 -21 22 -29 22 -8 0 -21 -10 -29 -22z"/>
<path d="M4552 8037 c-17 -20 -36 -335 -21 -353 15 -19 55 -18 63 1 3 9 11 88
16 176 8 122 8 164 -1 175 -14 17 -43 18 -57 1z"/>
<path d="M4850 8031 c-7 -13 -9 -87 -8 -208 l3 -188 27 -3 c44 -5 49 18 46
225 l-3 188 -27 3 c-19 2 -30 -3 -38 -17z"/>
<path d="M5164 8037 c-2 -7 -3 -97 -2 -201 3 -167 5 -190 21 -200 12 -8 22 -8
35 0 15 10 17 32 20 193 1 114 -1 189 -8 201 -12 22 -58 27 -66 7z"/>
<path d="M5470 8035 c-10 -12 -10 -48 0 -178 7 -89 17 -168 22 -174 14 -17 43
-16 58 2 9 11 9 50 0 177 -6 90 -16 168 -22 175 -14 18 -43 16 -58 -2z"/>
<path d="M5720 8035 c-16 -20 5 -273 24 -294 18 -17 53 -6 61 19 9 28 -13 261
-26 277 -15 17 -44 17 -59 -2z"/>
<path d="M3990 6498 c-118 -60 -263 -333 -305 -576 -20 -114 -20 -284 0 -322
16 -30 61 -60 90 -60 30 0 72 29 83 57 7 15 16 71 22 123 25 227 85 400 200
575 75 116 77 181 5 210 -44 19 -43 19 -95 -7z m68 -80 c2 -9 -23 -55 -54
-103 -110 -170 -184 -387 -201 -591 -7 -90 -10 -99 -28 -99 -48 0 -43 207 10
390 37 131 123 298 189 369 52 56 78 67 84 34z"/>
<path d="M3702 5420 c-34 -14 -55 -74 -49 -138 11 -102 65 -151 132 -119 42
20 59 67 53 154 -4 57 -8 69 -32 89 -28 25 -64 29 -104 14z m63 -104 c9 -46 3
-81 -14 -81 -18 0 -35 59 -27 92 9 35 34 28 41 -11z"/>
<path d="M3770 2643 c-28 -10 -59 -45 -65 -74 -26 -116 163 -377 334 -462 82
-41 99 -44 141 -22 37 19 50 43 50 90 0 41 -20 64 -126 146 -62 48 -155 161
-192 235 -37 72 -91 105 -142 87z m70 -114 c64 -124 145 -221 250 -299 72 -53
88 -80 48 -80 -39 0 -130 60 -204 134 -101 101 -178 248 -147 279 15 16 34 4
53 -34z"/>
</g>
</svg>
