<?xml version="1.0" encoding="UTF-8" standalone="no"?>
<!DOCTYPE svg PUBLIC "-//W3C//DTD SVG 1.1//EN" "http://www.w3.org/Graphics/SVG/1.1/DTD/svg11.dtd">
<svg width="100%" height="100%" viewBox="0 0 2048 2048" version="1.1" xmlns="http://www.w3.org/2000/svg" xmlns:xlink="http://www.w3.org/1999/xlink" xml:space="preserve" xmlns:serif="http://www.serif.com/" style="fill-rule:evenodd;clip-rule:evenodd;stroke-linejoin:round;stroke-miterlimit:2;">
    <g transform="matrix(0.1,0,0,-0.1,0,2048)">
        <path d="M13798,17376C13629,17346 13487,17281 13394,17190C13344,17142 13354,17154 12576,16155C12285,15781 12019,15439 11984,15395C11950,15351 11859,15234 11783,15135C11707,15036 11521,14795 11370,14600C11016,14142 10608,13610 10015,12835C9906,12692 9710,12438 9580,12270C9213,11796 8744,11184 8330,10640C8286,10582 8162,10420 8055,10280C7947,10140 7804,9953 7737,9866C7670,9778 7577,9657 7530,9596C7483,9535 7332,9337 7195,9155C7058,8974 6923,8796 6895,8760C6867,8724 6708,8515 6542,8295C6376,8075 6133,7753 6002,7580C4587,5709 3817,4659 3714,4460C3675,4386 3673,4278 3709,4210C3747,4139 3844,4050 3935,4005C4013,3966 4018,3965 4120,3965C4223,3965 4226,3966 4300,4005C4346,4029 4401,4070 4440,4110C4510,4179 4861,4582 5259,5049C5327,5129 5453,5276 5539,5375C5625,5474 5711,5573 5730,5596C5749,5618 5846,5730 5945,5845C6044,5959 6141,6072 6160,6095C6207,6152 6521,6514 6815,6850C6947,7002 7107,7186 7170,7259C7301,7411 7555,7703 7835,8025C7941,8146 8121,8353 8236,8486C8351,8618 8607,8908 8805,9130C9003,9352 9228,9603 9304,9689C9380,9775 9484,9890 9534,9945C9585,10000 9697,10126 9785,10225C9975,10439 10352,10859 10499,11020C10558,11084 10659,11196 10725,11270C10972,11545 11753,12400 11896,12550C11935,12591 12072,12740 12200,12880C12328,13020 12485,13191 12549,13260C12700,13424 12842,13580 12961,13716C13014,13776 13106,13879 13165,13945C13334,14135 13816,14685 13915,14800C13964,14858 14029,14934 14060,14970C14116,15035 14562,15570 14675,15708C14959,16055 15002,16120 15051,16280C15081,16377 15084,16569 15057,16670C15036,16750 14970,16888 14928,16944C14776,17143 14551,17284 14271,17357C14151,17388 13919,17397 13798,17376ZM14165,17055C14238,17040 14340,17002 14340,16991C14340,16988 14302,16942 14257,16889C14212,16836 14130,16738 14075,16670C14020,16602 13911,16467 13832,16371C13753,16274 13657,16155 13617,16106C13482,15939 13217,15615 13145,15530C13106,15483 13009,15364 12929,15266C12784,15085 12728,15016 12565,14815C12403,14615 12146,14296 11893,13983C11823,13896 11731,13782 11689,13730C11527,13532 11053,12938 10922,12770C10848,12674 10771,12576 10753,12553L10719,12510L10677,12537C10612,12578 10462,12646 10382,12670L10310,12692L10505,12948C10612,13090 10781,13309 10879,13437C10978,13564 11136,13771 11231,13897C11421,14148 11604,14386 11648,14440C11679,14479 11989,14880 12145,15085C12199,15157 12280,15262 12325,15320C13346,16635 13590,16941 13652,16983C13782,17073 13960,17097 14165,17055ZM14607,16825C14773,16660 14802,16472 14696,16261C14643,16156 14237,15659 13564,14875C13419,14705 13138,14389 12545,13730C12090,13223 11198,12255 11133,12198C11114,12181 11112,12183 11051,12251C10991,12317 10891,12407 10854,12428C10833,12440 10815,12415 11045,12695C11139,12809 11238,12931 11265,12965C11293,12999 11394,13124 11490,13241C11586,13359 11735,13543 11822,13650C11909,13757 12015,13888 12058,13940C12101,13992 12212,14130 12305,14245C12512,14503 12625,14642 12705,14740C12739,14781 12882,14957 13022,15130C13163,15303 13334,15513 13401,15596C13575,15807 14016,16353 14295,16702L14475,16927L14505,16912C14522,16904 14568,16865 14607,16825ZM10343,12524C10458,12477 10610,12400 10610,12389C10610,12385 10546,12297 10467,12194C10388,12090 10304,11976 10281,11940C10208,11832 10216,11836 10155,11876C10090,11917 9947,11981 9867,12004C9831,12014 9810,12026 9813,12033C9822,12060 10206,12569 10218,12569C10225,12570 10282,12549 10343,12524ZM10793,12273C10864,12219 11012,12071 11008,12059C11002,12041 10551,11550 10542,11550C10538,11551 10518,11573 10497,11600C10475,11626 10418,11681 10370,11721L10281,11794L10333,11852C10433,11966 10689,12270 10715,12306C10720,12314 10726,12320 10728,12320C10730,12320 10759,12299 10793,12273ZM9823,11784C9968,11722 10088,11651 10207,11555C10288,11490 10393,11382 10388,11369C10386,11365 10270,11235 10129,11079C9989,10923 9816,10730 9745,10650C9674,10570 9535,10415 9436,10305C9237,10086 9106,9940 9045,9869C9023,9843 8807,9601 8565,9329C8323,9058 8080,8784 8025,8720C7971,8657 7786,8446 7615,8251C7445,8056 7289,7878 7270,7856C7251,7833 7188,7761 7130,7695C7013,7563 6967,7509 6735,7240C6648,7138 6429,6886 6250,6680C5914,6293 5814,6176 5524,5835C5269,5534 5031,5257 4611,4770C4439,4571 4223,4330 4191,4302C4171,4284 4157,4280 4127,4284C4087,4288 4010,4333 4010,4351C4010,4372 4230,4683 4644,5245C4836,5507 6010,7072 6271,7416C6389,7571 6595,7843 6730,8021C7157,8587 7865,9516 8235,9996C8328,10118 8435,10258 8472,10306C8563,10427 8909,10878 8976,10965C9120,11151 9501,11647 9574,11742C9639,11828 9659,11848 9675,11844C9686,11841 9752,11814 9823,11784Z" style="fill-rule:nonzero;"/>
        <path d="M13141,14923C12827,14600 12479,14167 12510,14136C12526,14120 12592,14175 12757,14344C13015,14608 13295,14957 13315,15043C13330,15101 13285,15070 13141,14923Z" style="fill-rule:nonzero;"/>
        <path d="M9706,11108C9652,11052 9553,10943 9486,10866C9420,10789 9344,10703 9319,10675C9273,10624 9171,10506 8997,10301C8943,10237 8866,10147 8826,10100C8253,9427 7937,9010 8000,9010C8027,9010 8336,9339 8545,9589C8567,9616 8637,9698 8701,9771C8832,9923 9024,10153 9155,10315C9204,10376 9266,10452 9294,10486C9592,10843 9839,11168 9840,11203C9840,11207 9832,11210 9823,11210C9813,11210 9761,11164 9706,11108Z" style="fill-rule:nonzero;"/>
        <path d="M16583,15421C16493,15399 16397,15352 16328,15298C16264,15247 15827,14826 15185,14196C14916,13931 14605,13627 14495,13519C14385,13412 13964,13000 13560,12604C13156,12209 12604,11671 12335,11410C11708,10803 11498,10597 10250,9365C10066,9183 9690,8814 9415,8545C8831,7973 6475,5626 5400,4545C4906,4048 4640,3773 4612,3731C4554,3644 4526,3547 4533,3464C4546,3331 4636,3213 4778,3143C4848,3108 4861,3105 4939,3105C5044,3105 5079,3120 5205,3215C5342,3319 5629,3561 5965,3855C6009,3893 6090,3964 6145,4011C6361,4198 6590,4397 6929,4695C7123,4865 7304,5023 7330,5045C7356,5067 7447,5146 7531,5220C7616,5295 7755,5417 7840,5491C7925,5566 8036,5663 8085,5707C8262,5863 8919,6437 9051,6550C9124,6613 9209,6688 9240,6715C9271,6743 9325,6790 9361,6821C9396,6851 9556,6991 9715,7131C9988,7370 10296,7639 10414,7740C10443,7765 10536,7846 10621,7920C10827,8101 11220,8440 11369,8565C11432,8618 12081,9174 12290,9355C12381,9433 12505,9539 12565,9591C12626,9642 12718,9721 12770,9765C12822,9810 13052,10002 13280,10192C13641,10493 14005,10798 14405,11135C14466,11185 14576,11278 14650,11340C14724,11403 14875,11531 14985,11625C15095,11719 15271,11868 15375,11955C15557,12108 15654,12190 15861,12365C15913,12409 16094,12564 16264,12710C16434,12856 16608,13004 16650,13040C17142,13456 17429,13709 17513,13799C17696,13997 17772,14212 17748,14459C17726,14690 17625,14892 17430,15094C17275,15256 17122,15357 16955,15410C16856,15441 16682,15447 16583,15421ZM16933,15077C16976,15057 17036,15021 17068,14997C17136,14944 17210,14874 17210,14861C17210,14856 17092,14747 16948,14619C16607,14314 16435,14161 16149,13905C16019,13790 15860,13648 15795,13590C15729,13532 15646,13458 15610,13425C15574,13392 15462,13291 15360,13200C15259,13109 15106,12972 15021,12895C14846,12738 14536,12459 14265,12216C14166,12128 14058,12030 14025,11999C13992,11969 13944,11926 13919,11904C13832,11829 12965,11045 12893,10977L12851,10937L12803,10976C12730,11036 12691,11063 12613,11109C12573,11132 12540,11153 12540,11157C12540,11160 12672,11291 12833,11449C12993,11606 13298,11906 13510,12115C13722,12324 14067,12661 14275,12865C14484,13068 14943,13516 15295,13860C16465,15002 16503,15038 16615,15092C16670,15119 16682,15121 16765,15118C16845,15115 16865,15110 16933,15077ZM17360,14658C17473,14421 17451,14231 17289,14032C17241,13974 16941,13703 16599,13409C16514,13335 16381,13221 16304,13155C16176,13043 15767,12697 15456,12435C15384,12375 15255,12266 15170,12193C14682,11779 14505,11629 13949,11166C13636,10904 13256,10582 13222,10550C13195,10524 13200,10520 13126,10631C13095,10678 13044,10745 13013,10780L12956,10842L13006,10889C13033,10914 13215,11075 13410,11245C13605,11416 13929,11703 14130,11884C14331,12065 14553,12265 14624,12329C14695,12393 14803,12490 14864,12545C14925,12600 15000,12667 15030,12694C15304,12937 15558,13164 15726,13315C15836,13414 15984,13547 16055,13610C16127,13673 16210,13748 16240,13776C16270,13804 16365,13889 16450,13965C16787,14264 16850,14320 17005,14461C17093,14542 17197,14637 17235,14673C17274,14710 17309,14739 17313,14740C17317,14740 17339,14703 17360,14658ZM12508,10996C12592,10944 12730,10841 12730,10831C12730,10827 12684,10781 12628,10729C12571,10677 12461,10573 12383,10496L12241,10358L12183,10408C12113,10468 11993,10549 11963,10557C11950,10560 11940,10567 11941,10574C11942,10589 12410,11040 12424,11040C12431,11040 12468,11020 12508,10996ZM12907,10655C12990,10557 13075,10431 13064,10421C13059,10416 12961,10334 12845,10237C12730,10141 12613,10042 12586,10019C12553,9990 12535,9980 12532,9989C12523,10016 12429,10148 12368,10220L12304,10294L12510,10464C12623,10557 12740,10655 12770,10682C12800,10709 12830,10729 12836,10728C12842,10726 12874,10694 12907,10655ZM11899,10323C12050,10224 12189,10085 12289,9936L12362,9826L12318,9791C12262,9744 11395,9001 11210,8840C11130,8771 11049,8701 11029,8685C11009,8668 10910,8583 10810,8495C10649,8355 10471,8200 10120,7895C10068,7850 9950,7748 9859,7669C9768,7590 9606,7448 9499,7355C9392,7261 9197,7090 9065,6975C8933,6860 8780,6727 8725,6679C8670,6631 8452,6440 8240,6255C7532,5635 7225,5366 7049,5213C6183,4461 5819,4145 5480,3855C5054,3490 5008,3451 4973,3429C4945,3411 4943,3411 4909,3429C4865,3452 4845,3488 4854,3524C4859,3543 4984,3678 5215,3914C5931,4646 9008,7716 9595,8285C9995,8673 10274,8946 10720,9386C11365,10022 11758,10399 11774,10400C11779,10400 11835,10366 11899,10323Z" style="fill-rule:nonzero;"/>
        <path d="M15704,12992C15555,12895 15175,12584 15011,12425C14868,12286 14842,12254 14859,12237C14868,12228 14883,12232 14923,12253C15118,12355 15789,12948 15790,13018C15790,13039 15765,13031 15704,12992Z" style="fill-rule:nonzero;"/>
        <path d="M11732,9773C11529,9635 10275,8525 9888,8140C9735,7988 9698,7940 9733,7940C9786,7940 10265,8334 10754,8779C11524,9481 11800,9748 11800,9792C11800,9808 11773,9800 11732,9773Z" style="fill-rule:nonzero;"/>
    </g>
</svg>
