<?xml version="1.0" standalone="no"?>
<!DOCTYPE svg PUBLIC "-//W3C//DTD SVG 20010904//EN"
 "http://www.w3.org/TR/2001/REC-SVG-20010904/DTD/svg10.dtd">
<svg version="1.0" xmlns="http://www.w3.org/2000/svg"
 width="1024.000000pt" height="1024.000000pt" viewBox="0 0 1024.000000 1024.000000"
 preserveAspectRatio="xMidYMid meet">
<metadata>
Created by potrace 1.16, written by Peter Selinger 2001-2019
</metadata>
<g transform="translate(0.000000,1024.000000) scale(0.100000,-0.100000)"
fill="#000000" stroke="none">
<path d="M4875 7225 c-129 -20 -248 -69 -346 -141 -71 -51 -163 -155 -204
-229 -20 -36 -40 -65 -43 -65 -4 0 -68 -9 -142 -20 -657 -94 -1154 -288 -1403
-549 -178 -186 -219 -407 -116 -618 l40 -82 -37 -48 c-54 -70 -102 -178 -121
-269 -26 -128 2 -265 81 -397 l34 -56 -43 -85 c-23 -47 -49 -115 -56 -151
l-13 -65 -140 -69 c-338 -165 -506 -371 -506 -619 0 -201 130 -381 395 -549
312 -197 851 -365 1470 -457 465 -69 817 -90 1391 -83 706 8 1201 66 1744 202
532 134 880 295 1091 506 187 186 234 395 135 604 -71 150 -215 277 -444 392
-96 48 -134 72 -137 87 -3 12 -9 42 -15 68 -10 50 -44 129 -80 189 l-22 36 36
55 c113 169 120 401 19 578 -14 25 -42 64 -61 88 l-34 43 35 77 c78 169 77
307 -4 470 -160 325 -736 592 -1513 702 -80 11 -148 20 -150 20 -2 0 -22 31
-44 68 -123 207 -327 338 -575 372 -95 12 -119 12 -222 -5z m308 -273 c120
-43 235 -150 288 -267 18 -39 23 -69 23 -136 1 -79 -1 -88 -28 -123 -50 -66
-53 -66 -471 -66 -352 0 -378 1 -414 19 -74 38 -100 118 -76 232 18 89 52 148
129 224 61 61 141 107 226 132 68 20 250 11 323 -15z m-939 -484 c17 -169 156
-322 324 -357 33 -7 193 -11 430 -11 410 0 446 4 544 57 64 35 143 120 174
188 14 30 31 85 38 122 l12 68 35 -3 c61 -5 321 -53 429 -78 494 -116 865
-322 941 -523 26 -69 22 -166 -9 -227 -162 -317 -933 -580 -1856 -634 -772
-44 -1595 84 -2082 324 -350 173 -479 361 -382 557 96 194 409 369 873 487
180 46 495 104 516 95 3 -1 9 -30 13 -65z m-1312 -1189 c92 -60 258 -145 331
-168 20 -7 37 -16 37 -20 0 -3 -15 -14 -33 -24 -89 -48 -97 -177 -15 -227 42
-25 84 -25 128 0 107 62 157 81 222 81 131 1 212 -47 271 -159 43 -82 74 -107
146 -123 115 -24 259 29 368 136 67 66 68 66 113 61 25 -3 151 -10 281 -16
915 -37 1823 149 2318 475 l73 48 20 -24 c38 -47 70 -130 76 -195 4 -59 2 -71
-31 -137 -178 -357 -1002 -631 -2003 -666 -248 -8 -626 0 -814 19 -590 58
-1133 215 -1430 412 -243 161 -310 352 -190 542 16 25 32 46 34 46 3 0 47 -27
98 -61z m133 -844 c494 -243 1218 -374 2002 -364 l251 4 27 -42 c84 -133 277
-229 412 -204 58 11 89 35 119 91 35 63 114 135 170 154 97 33 209 15 285 -45
77 -60 152 -59 205 4 23 27 26 38 22 89 -4 51 -9 63 -42 97 l-37 38 46 12
c156 39 457 172 600 264 47 31 73 43 81 36 28 -23 57 -115 57 -180 0 -370
-744 -674 -1833 -749 -326 -22 -859 -9 -1190 30 -406 48 -825 155 -1075 274
-205 98 -338 207 -391 321 -38 81 -31 199 17 280 l20 33 52 -35 c29 -19 120
-68 202 -108z m-511 -282 c10 -21 35 -63 56 -95 l39 -56 -20 -38 c-68 -135 46
-264 348 -390 334 -140 837 -243 1443 -296 197 -17 976 -17 1180 0 836 71
1452 225 1741 438 129 96 156 220 63 293 -25 19 -26 23 -12 39 9 9 30 45 47
80 17 34 34 62 36 62 15 0 139 -69 202 -112 239 -165 277 -348 107 -522 -269
-276 -1009 -508 -1909 -600 -528 -54 -1235 -54 -1765 0 -1020 104 -1830 394
-1976 708 -31 67 -32 149 -2 212 31 67 117 155 210 214 68 44 169 97 189 99 3
1 13 -16 23 -36z"/>
<path d="M3800 6281 c-74 -81 -149 -115 -245 -115 -56 1 -82 6 -125 28 -121
61 -220 19 -220 -92 0 -53 34 -101 95 -134 60 -33 164 -58 239 -58 273 0 550
217 471 370 -22 43 -53 60 -109 60 -48 0 -52 -2 -106 -59z"/>
<path d="M5850 5933 c-65 -21 -90 -56 -90 -127 0 -58 33 -99 100 -121 124 -41
200 -128 236 -269 21 -86 54 -116 125 -116 39 0 55 5 81 29 27 24 32 36 36 89
13 177 -161 420 -351 490 -60 22 -115 33 -137 25z"/>
<path d="M4549 5916 c-170 -47 -343 -207 -394 -364 -31 -93 7 -172 91 -188 63
-12 102 16 146 105 58 117 119 170 235 204 71 21 90 33 108 67 35 69 8 147
-61 176 -40 17 -64 16 -125 0z"/>
</g>
</svg>
