<?xml version="1.0" standalone="no"?>
<!DOCTYPE svg PUBLIC "-//W3C//DTD SVG 20010904//EN"
 "http://www.w3.org/TR/2001/REC-SVG-20010904/DTD/svg10.dtd">
<svg version="1.0" xmlns="http://www.w3.org/2000/svg"
 width="1024.000000pt" height="1024.000000pt" viewBox="0 0 1024.000000 1024.000000"
 preserveAspectRatio="xMidYMid meet">
<metadata>
Created by potrace 1.16, written by Peter Selinger 2001-2019
</metadata>
<g transform="translate(0.000000,1024.000000) scale(0.100000,-0.100000)"
fill="#000000" stroke="none">
<path d="M5067 6639 c-265 -28 -505 -163 -678 -380 -55 -69 -77 -89 -96 -89
-14 0 -53 -7 -87 -16 -280 -70 -526 -258 -651 -495 -33 -62 -41 -70 -109 -108
-239 -131 -424 -336 -493 -546 -34 -106 -43 -277 -19 -380 19 -77 79 -197 133
-264 46 -55 152 -143 223 -184 30 -17 94 -68 142 -113 284 -265 672 -429 1188
-500 158 -21 588 -30 776 -15 679 54 1248 264 1562 578 40 40 76 73 81 73 17
0 166 110 218 161 222 217 272 522 133 800 -82 162 -262 329 -476 441 -101 53
-102 54 -163 145 -107 160 -280 299 -462 372 -63 25 -123 40 -266 67 -12 2
-25 14 -29 26 -4 12 -57 72 -118 133 -80 79 -135 124 -196 160 -186 108 -406
157 -613 134z m331 -149 c89 -25 196 -77 277 -135 77 -55 169 -150 161 -164
-4 -6 -22 -11 -39 -12 -18 0 -63 -8 -102 -19 -68 -18 -70 -18 -91 1 -25 23
-77 25 -98 3 -9 -8 -16 -30 -16 -48 0 -25 -6 -35 -25 -44 -49 -23 -161 -102
-223 -157 l-62 -57 -44 40 c-66 61 -156 125 -230 163 -36 19 -66 40 -66 48 0
28 -32 51 -70 51 -20 0 -40 -4 -45 -9 -6 -5 -47 -1 -100 10 -49 10 -100 19
-113 19 l-23 0 28 36 c40 53 157 150 232 191 73 42 202 88 281 102 87 16 283
6 368 -19z m-805 -451 c175 -35 326 -114 450 -233 l59 -56 -21 -28 c-11 -16
-41 -71 -66 -122 l-45 -94 -88 -26 c-48 -14 -114 -38 -146 -53 -151 -70 -320
-215 -415 -356 -46 -67 -125 -226 -137 -275 l-7 -29 -91 7 c-87 6 -170 20
-266 46 -33 9 -58 26 -95 64 -65 69 -80 76 -165 76 -69 0 -73 1 -107 35 -31
31 -35 40 -30 74 2 21 22 64 45 97 51 75 64 103 92 189 108 334 294 541 588
652 143 53 289 64 445 32z m1542 -4 c106 -27 236 -90 323 -157 140 -108 260
-285 325 -479 32 -95 54 -139 106 -208 86 -114 34 -201 -121 -201 -65 0 -93
-15 -129 -71 -17 -27 -45 -57 -62 -67 -67 -40 -214 -75 -372 -87 l-90 -7 -19
53 c-31 88 -106 227 -166 308 -119 160 -295 286 -487 350 -67 23 -226 51 -285
51 -21 0 -38 2 -38 5 0 3 12 29 26 58 109 217 322 387 566 451 131 35 288 36
423 1z m901 -662 c197 -146 305 -332 306 -528 1 -83 -18 -169 -52 -235 -206
-404 -979 -615 -2240 -613 -630 1 -1059 52 -1411 167 -324 105 -499 244 -571
455 -34 97 -32 248 4 349 35 97 80 170 155 252 67 72 200 186 209 178 8 -9
-44 -118 -89 -188 -41 -62 -42 -66 -41 -145 0 -44 1 -89 2 -100 1 -11 -1 -59
-4 -107 -8 -110 11 -174 79 -275 84 -126 230 -238 438 -337 201 -95 253 -105
277 -51 22 48 3 67 -104 109 -190 74 -373 190 -464 294 -53 60 -99 149 -107
209 -6 45 -6 46 18 39 13 -4 53 -10 88 -13 57 -5 68 -10 102 -44 21 -21 56
-47 78 -58 70 -36 216 -69 373 -83 l28 -3 -31 -47 c-98 -150 -1 -318 186 -318
48 0 55 -3 101 -48 31 -32 69 -56 105 -70 233 -87 745 -106 1116 -42 206 35
298 74 354 150 20 27 29 30 74 30 109 0 203 59 226 143 13 50 6 130 -16 163
-8 13 -15 25 -15 28 0 2 26 8 58 11 101 12 255 46 307 67 73 31 132 74 161
117 24 37 28 39 92 44 37 2 76 8 86 13 17 7 18 3 14 -44 -18 -184 -245 -393
-573 -527 -132 -54 -149 -76 -101 -132 l24 -28 74 25 c91 30 252 111 349 175
100 65 256 224 296 300 51 98 67 167 58 255 -4 41 -6 91 -5 110 10 145 8 153
-46 232 -57 81 -79 121 -100 180 l-14 39 38 -22 c20 -13 69 -47 108 -76z
m-1668 -12 c103 -30 217 -90 305 -161 132 -106 212 -218 297 -415 39 -92 73
-154 104 -192 39 -47 46 -62 44 -91 -4 -51 -39 -72 -123 -79 -81 -5 -114 -20
-152 -69 -15 -19 -41 -43 -58 -54 -43 -26 -238 -67 -389 -81 -161 -15 -566 -6
-687 15 -165 28 -198 41 -253 94 -67 65 -82 72 -160 72 -55 0 -69 4 -95 26
-39 33 -41 77 -6 125 51 72 78 123 110 207 18 48 43 108 55 132 68 134 208
290 332 370 68 44 193 95 283 116 88 20 299 12 393 -15z m1262 -1330 c0 -17
-280 -149 -405 -191 -644 -219 -1499 -236 -2075 -43 -58 20 -144 53 -193 73
-89 39 -231 119 -223 127 2 2 67 -9 144 -26 143 -32 351 -60 597 -83 190 -17
977 -17 1190 0 356 29 638 70 840 121 135 35 125 33 125 22z"/>
<path d="M4686 5759 c-30 -24 -34 -63 -10 -97 11 -16 25 -22 54 -22 67 0 93
68 45 115 -30 30 -54 31 -89 4z"/>
<path d="M3982 5704 c-28 -20 -31 -83 -4 -107 26 -23 75 -21 97 3 57 63 -23
153 -93 104z"/>
<path d="M4294 5686 c-35 -16 -74 -60 -74 -86 0 -21 31 -50 53 -50 8 0 29 11
45 25 36 30 51 31 86 4 54 -43 121 -6 92 52 -30 60 -128 87 -202 55z"/>
<path d="M5542 5773 c-52 -44 -24 -123 42 -123 41 0 66 26 66 68 0 61 -63 93
-108 55z"/>
<path d="M5830 5720 c-25 -25 -25 -41 -2 -69 14 -18 32 -22 114 -28 109 -7
128 0 128 47 0 37 -18 50 -81 56 -30 2 -73 7 -97 9 -33 4 -47 0 -62 -15z"/>
<path d="M6246 5708 c-32 -45 -9 -101 46 -114 21 -4 33 0 52 20 49 48 23 116
-44 116 -29 0 -43 -6 -54 -22z"/>
<path d="M5385 5098 c-28 -16 -35 -28 -35 -64 0 -63 79 -88 119 -38 27 35 26
59 -4 89 -26 27 -49 31 -80 13z"/>
<path d="M4650 5030 c-27 -27 -26 -71 3 -98 47 -44 111 -13 111 53 0 62 -70
89 -114 45z"/>
<path d="M5008 5021 c-84 -7 -100 -16 -100 -57 0 -46 25 -56 127 -48 105 7
135 22 135 64 0 32 -24 51 -62 48 -13 -1 -58 -4 -100 -7z"/>
</g>
</svg>
