<?xml version="1.0" standalone="no"?>
<!DOCTYPE svg PUBLIC "-//W3C//DTD SVG 20010904//EN"
 "http://www.w3.org/TR/2001/REC-SVG-20010904/DTD/svg10.dtd">
<svg version="1.0" xmlns="http://www.w3.org/2000/svg"
 width="2048.000000pt" height="2048.000000pt" viewBox="0 0 2048.000000 2048.000000"
 preserveAspectRatio="xMidYMid meet">
<metadata>
Created by potrace 1.16, written by Peter Selinger 2001-2019
</metadata>
<g transform="translate(0.000000,2048.000000) scale(0.100000,-0.100000)"
fill="#000000" stroke="none">
<path d="M13190 16134 c-528 -48 -921 -141 -1410 -336 -344 -137 -665 -307
-1006 -534 -211 -139 -456 -319 -559 -409 l-60 -53 -99 54 c-439 239 -1416
613 -1971 753 -422 107 -709 144 -1090 140 -230 -2 -431 -18 -601 -49 -1173
-207 -2180 -940 -2839 -2065 -695 -1188 -949 -2754 -694 -4280 115 -687 296
-1256 585 -1835 219 -437 454 -801 743 -1150 669 -808 1511 -1437 2486 -1858
482 -208 993 -360 1497 -446 615 -105 1168 -142 1988 -133 472 6 594 11 1000
42 759 59 1345 171 1960 374 789 261 1496 649 2105 1156 474 394 846 796 1212
1310 567 797 947 1720 1132 2755 86 482 119 824 125 1285 8 624 -43 1152 -170
1770 -192 933 -583 1696 -1177 2298 -657 665 -1483 1077 -2392 1193 -115 14
-660 27 -765 18z m650 -379 c1030 -115 1982 -669 2596 -1511 229 -315 459
-775 582 -1164 127 -403 226 -936 284 -1525 21 -207 17 -995 -5 -1210 -56
-537 -129 -933 -257 -1390 -54 -193 -169 -527 -246 -714 -116 -279 -319 -676
-466 -911 -93 -147 -268 -400 -277 -400 -5 0 1 30 12 68 28 93 30 337 3 467
-98 473 -422 912 -960 1298 -66 47 -166 113 -222 147 l-103 62 79 152 c120
230 204 428 285 671 162 489 239 976 230 1465 -16 913 -280 1637 -775 2129
-176 175 -428 340 -656 430 -646 255 -1378 158 -2059 -271 -60 -39 -129 -85
-151 -104 l-41 -33 -68 105 c-116 181 -241 332 -439 530 -203 203 -368 341
-564 472 l-120 80 91 74 c467 374 1043 692 1597 879 305 104 651 179 951 208
149 15 553 12 699 -4z m-6400 -400 c269 -36 560 -101 820 -183 69 -22 166 -52
215 -67 132 -41 546 -193 730 -268 1168 -478 1882 -1043 2254 -1784 148 -297
238 -590 288 -943 25 -179 25 -674 0 -845 -36 -243 -116 -544 -187 -711 l-20
-45 -136 93 c-408 278 -755 615 -968 938 -34 52 -93 147 -131 210 -158 267
-307 466 -495 663 -467 489 -1269 992 -1897 1190 -463 146 -964 143 -1371 -9
-411 -154 -761 -439 -1014 -828 -67 -103 -199 -365 -252 -501 -86 -221 -157
-510 -198 -805 -25 -185 -36 -669 -19 -876 66 -787 317 -1512 717 -2070 30
-42 54 -78 52 -79 -289 -230 -393 -319 -532 -455 -369 -362 -564 -671 -651
-1030 -9 -36 -18 -128 -21 -205 -5 -135 6 -224 41 -332 12 -38 -7 -25 -61 40
-278 339 -421 537 -579 797 -330 546 -547 1076 -705 1725 -63 254 -130 662
-160 960 -18 175 -24 805 -11 1000 47 678 182 1286 411 1855 321 799 830 1477
1435 1913 524 378 1040 581 1685 662 155 19 586 14 760 -10z m6119 -1809 c67
-15 155 -39 195 -53 462 -166 832 -553 1042 -1089 257 -656 277 -1513 54
-2297 -55 -194 -85 -280 -166 -470 -54 -127 -201 -426 -228 -462 -12 -16 -23
-12 -158 53 -184 89 -712 316 -1023 440 -547 218 -1197 520 -1393 647 -1 1 14
45 33 97 89 240 148 475 192 763 25 167 27 203 27 510 1 354 -8 463 -60 725
-38 194 -142 538 -191 634 -15 29 -14 31 13 54 49 40 225 156 319 210 196 112
440 204 644 242 157 29 150 28 371 26 180 -3 220 -6 329 -30z m-6153 -217
c281 -27 601 -133 954 -317 93 -49 290 -162 290 -167 0 -2 -16 -32 -36 -67
-138 -244 -268 -615 -323 -925 -66 -367 -52 -835 35 -1191 35 -146 114 -380
164 -488 l41 -89 -29 -25 c-417 -361 -663 -519 -1362 -873 -544 -275 -793
-410 -964 -522 l-25 -17 -60 81 c-90 122 -214 333 -301 514 -200 415 -312 847
-360 1382 -14 157 -5 610 14 755 90 666 305 1153 668 1506 343 335 800 491
1294 443z m1637 -749 c173 -119 386 -307 535 -470 147 -162 261 -318 382 -520
163 -275 221 -359 356 -520 347 -413 827 -786 1452 -1130 333 -182 964 -463
1662 -740 247 -98 616 -264 856 -386 769 -389 1249 -849 1390 -1333 31 -106
42 -259 25 -356 -17 -98 -77 -218 -142 -283 -64 -64 -183 -126 -289 -149 -93
-20 -325 -23 -430 -4 -329 57 -610 175 -1250 525 -438 240 -740 383 -1660 788
-973 428 -1574 757 -2082 1140 -287 216 -566 493 -744 738 -113 155 -247 398
-320 577 -41 104 -96 301 -123 443 -99 527 -12 1111 241 1628 28 56 55 102 60
102 5 0 42 -22 81 -50z m-208 -2967 c113 -153 366 -421 540 -571 126 -109 338
-270 473 -360 50 -35 92 -67 92 -71 0 -5 -51 -47 -112 -94 -242 -181 -473
-335 -715 -475 -111 -65 -200 -113 -658 -362 -509 -277 -932 -543 -1365 -859
-593 -432 -906 -586 -1299 -642 -101 -14 -280 -6 -366 16 -208 53 -365 205
-410 396 -37 160 -5 352 93 544 177 351 635 803 1162 1147 276 180 467 287
950 528 758 379 1085 580 1410 864 47 41 90 75 95 75 6 0 55 -62 110 -136z
m1603 -1299 c184 -103 598 -314 812 -414 166 -78 708 -320 715 -320 5 0 429
-188 535 -238 182 -84 300 -144 300 -152 0 -17 -246 -164 -428 -255 -740 -368
-1524 -529 -2372 -486 -545 28 -1040 132 -1540 323 -153 58 -469 198 -469 208
-1 14 274 170 1049 595 467 257 873 519 1164 752 44 35 83 63 88 63 6 0 71
-34 146 -76z m2908 -1391 c696 -383 1019 -523 1375 -595 98 -20 145 -23 334
-23 210 0 225 1 330 29 61 15 139 41 174 57 35 16 66 27 69 24 8 -8 -284 -310
-414 -428 -535 -488 -1107 -848 -1794 -1129 -826 -338 -1699 -505 -2875 -549
-285 -11 -1184 -7 -1290 5 -22 3 -112 10 -200 16 -952 67 -1769 282 -2545 670
-470 235 -793 444 -1225 795 -83 68 -98 93 -36 61 60 -32 156 -47 327 -53 319
-11 541 35 881 182 230 99 418 217 833 519 129 95 257 187 283 206 l48 34 167
-83 c611 -306 1241 -491 1927 -567 230 -25 734 -30 965 -10 811 72 1530 302
2200 704 100 59 306 193 326 211 1 1 64 -33 140 -76z"/>
<path d="M13162 15285 c-66 -28 -70 -93 -10 -162 55 -64 67 -72 106 -73 44 0
92 46 92 88 0 51 -79 140 -136 154 -12 3 -35 0 -52 -7z"/>
<path d="M11808 14905 c-104 -58 -27 -223 86 -185 45 15 66 44 66 92 0 76 -87
129 -152 93z"/>
<path d="M14934 14890 c-32 -13 -54 -50 -54 -89 0 -26 9 -43 44 -77 55 -56
101 -60 147 -15 35 35 37 72 9 119 -35 57 -95 83 -146 62z"/>
<path d="M14075 14735 c-37 -36 -36 -77 0 -141 41 -70 121 -83 165 -27 36 47
25 97 -38 166 -34 36 -92 38 -127 2z"/>
<path d="M12694 14567 c-34 -29 -54 -83 -54 -145 0 -33 6 -45 32 -67 26 -22
39 -26 66 -21 48 7 68 29 92 101 32 95 11 141 -67 152 -32 4 -45 0 -69 -20z"/>
<path d="M11709 14281 c-63 -64 -22 -181 64 -181 47 0 93 39 101 85 19 100
-94 166 -165 96z"/>
<path d="M15519 14021 c-61 -62 -24 -171 58 -171 99 0 150 104 84 171 -23 23
-38 29 -71 29 -33 0 -48 -6 -71 -29z"/>
<path d="M16245 13474 c-111 -74 -130 -131 -64 -193 35 -32 76 -27 146 21 89
60 108 120 57 172 -36 35 -86 35 -139 0z"/>
<path d="M15528 13120 c-29 -29 -30 -34 -26 -100 3 -59 8 -74 29 -96 44 -43
123 -31 148 23 16 35 14 119 -4 154 -29 56 -100 65 -147 19z"/>
<path d="M16465 12438 c-54 -31 -57 -75 -15 -179 36 -87 58 -109 112 -109 51
0 88 35 88 83 0 44 -54 177 -81 200 -24 19 -74 22 -104 5z"/>
<path d="M15941 11796 c-90 -50 -53 -186 51 -186 64 1 98 36 98 100 0 42 -15
67 -50 85 -35 18 -67 19 -99 1z"/>
<path d="M16326 10859 c-14 -17 -26 -43 -26 -57 1 -38 34 -108 58 -121 67 -36
142 11 142 88 0 48 -21 96 -49 111 -11 5 -38 10 -59 10 -33 0 -45 -6 -66 -31z"/>
<path d="M16761 10273 c-34 -23 -93 -89 -113 -126 -33 -58 10 -131 78 -131 31
0 45 9 105 71 62 63 69 75 69 109 -1 42 -13 64 -47 82 -30 17 -64 15 -92 -5z"/>
<path d="M15728 9804 c-53 -28 -59 -67 -27 -159 27 -79 52 -105 100 -105 52 0
67 8 85 42 18 35 14 71 -18 156 -16 43 -27 57 -54 68 -41 17 -52 17 -86 -2z"/>
<path d="M16497 9359 c-18 -10 -89 -143 -113 -212 -24 -67 15 -127 83 -127 46
0 67 23 120 132 66 134 69 153 28 193 -26 27 -84 34 -118 14z"/>
<path d="M15787 8790 c-31 -25 -44 -78 -27 -111 28 -54 62 -79 106 -79 75 0
116 78 79 150 -31 61 -107 80 -158 40z"/>
<path d="M7905 14905 c-96 -54 -125 -84 -125 -128 0 -43 22 -73 65 -87 32 -11
40 -8 135 46 56 32 108 67 116 78 17 25 18 60 2 89 -33 62 -86 62 -193 2z"/>
<path d="M6310 14803 c-50 -26 -83 -79 -76 -122 16 -99 137 -104 196 -9 51 82
-34 174 -120 131z"/>
<path d="M7235 14453 c-55 -13 -85 -80 -61 -137 35 -84 150 -96 185 -19 36 79
-40 175 -124 156z"/>
<path d="M8972 14274 c-39 -27 -45 -59 -26 -140 13 -59 22 -79 46 -99 34 -29
46 -30 92 -11 49 20 61 59 46 143 -10 50 -20 75 -41 95 -32 32 -81 37 -117 12z"/>
<path d="M5011 14226 c-49 -27 -65 -99 -36 -156 19 -36 43 -50 87 -50 44 0 74
22 88 66 32 97 -56 186 -139 140z"/>
<path d="M5861 13985 c-33 -29 -57 -112 -45 -159 15 -62 100 -86 149 -43 35
30 59 119 44 164 -21 65 -93 83 -148 38z"/>
<path d="M8299 13901 c-65 -65 -18 -180 73 -181 50 0 66 8 83 41 26 49 19 97
-19 135 -45 45 -95 47 -137 5z"/>
<path d="M9920 13896 c-99 -51 -123 -119 -63 -173 31 -30 74 -29 139 1 82 38
114 100 83 158 -9 17 -64 48 -86 48 -4 0 -37 -15 -73 -34z"/>
<path d="M5204 13557 c-30 -17 -113 -114 -125 -145 -22 -58 23 -122 86 -122
26 0 44 12 103 74 62 63 72 79 72 109 0 49 -8 65 -41 82 -34 18 -67 19 -95 2z"/>
<path d="M9654 13320 c-32 -13 -54 -50 -54 -92 0 -29 8 -45 38 -78 33 -34 45
-40 79 -40 50 0 93 38 93 82 0 41 -33 100 -68 121 -33 19 -55 20 -88 7z"/>
<path d="M4353 13245 c-22 -15 -73 -131 -73 -165 0 -71 81 -115 138 -74 33 23
82 126 82 173 0 31 -6 44 -26 60 -31 25 -90 28 -121 6z"/>
<path d="M10885 12822 c-28 -6 -62 -39 -70 -69 -7 -31 36 -122 78 -165 38 -37
93 -39 131 -3 36 34 35 84 -4 145 -49 76 -86 102 -135 92z"/>
<path d="M10529 12321 c-42 -42 -40 -92 5 -137 49 -49 114 -45 158 10 48 59
-9 156 -92 156 -33 0 -48 -6 -71 -29z"/>
<path d="M4429 12131 c-86 -87 34 -238 126 -158 14 12 30 38 34 58 23 102 -88
171 -160 100z"/>
<path d="M10967 11870 c-30 -24 -51 -80 -42 -112 19 -62 81 -90 138 -63 96 45
71 195 -33 195 -22 0 -48 -8 -63 -20z"/>
<path d="M3642 11633 c-17 -6 -42 -57 -42 -83 0 -31 36 -95 66 -119 37 -29 88
-27 119 3 48 48 42 105 -18 173 -24 28 -36 33 -71 32 -22 0 -47 -3 -54 -6z"/>
<path d="M11177 11410 c-35 -28 -42 -69 -23 -134 19 -64 53 -96 103 -96 39 0
78 33 89 73 9 39 -22 132 -52 156 -34 27 -84 27 -117 1z"/>
<path d="M3895 11165 c-20 -19 -25 -34 -25 -73 0 -80 63 -130 131 -102 41 17
59 47 59 98 0 35 -6 49 -29 73 -39 39 -100 41 -136 4z"/>
<path d="M4429 10587 c-40 -30 -50 -87 -23 -126 24 -34 103 -81 137 -81 18 0
39 10 58 29 54 54 32 129 -52 171 -43 22 -96 25 -120 7z"/>
<path d="M3579 10231 c-23 -23 -29 -38 -29 -71 0 -109 90 -166 161 -102 27 24
31 35 31 75 -3 110 -95 165 -163 98z"/>
<path d="M4347 10000 c-14 -11 -31 -36 -37 -55 -10 -30 -9 -41 7 -73 24 -50
63 -68 114 -53 48 14 74 51 74 104 0 78 -97 125 -158 77z"/>
<path d="M4368 9343 c-16 -10 -33 -32 -39 -50 -13 -41 4 -80 65 -146 36 -40
48 -47 80 -47 50 0 86 36 86 86 0 38 -40 113 -79 148 -28 25 -81 30 -113 9z"/>
<path d="M3606 9039 c-18 -21 -26 -42 -26 -69 0 -27 8 -48 26 -69 50 -59 150
-33 170 43 16 67 -30 126 -100 126 -37 0 -48 -5 -70 -31z"/>
<path d="M5143 8655 c-17 -7 -39 -28 -48 -45 -54 -104 83 -204 166 -121 78 78
-16 210 -118 166z"/>
<path d="M4295 8532 c-40 -8 -65 -42 -65 -90 0 -43 4 -50 68 -114 57 -56 74
-68 101 -68 45 0 70 16 87 56 19 46 3 81 -69 155 -54 55 -81 69 -122 61z"/>
<path d="M4319 7785 c-14 -8 -31 -27 -37 -42 -40 -108 -43 -169 -9 -200 34
-31 62 -36 101 -18 30 14 39 28 65 97 35 91 33 116 -11 153 -33 28 -70 31
-109 10z"/>
<path d="M9098 11894 c-34 -18 -41 -45 -36 -135 3 -63 7 -74 31 -95 43 -37 98
-33 132 8 26 30 27 37 23 107 -5 68 -8 77 -37 103 -35 31 -71 35 -113 12z"/>
<path d="M9781 11134 c-30 -22 -61 -89 -61 -137 0 -73 86 -115 148 -71 50 35
79 145 49 185 -31 40 -96 51 -136 23z"/>
<path d="M9169 10777 c-28 -21 -39 -54 -41 -122 -1 -59 1 -69 25 -92 60 -61
143 -20 158 78 15 97 -15 149 -85 149 -23 0 -48 -6 -57 -13z"/>
<path d="M10345 10305 c-34 -33 -35 -96 -2 -129 34 -34 125 -53 167 -36 30 13
60 54 60 84 0 59 -67 106 -150 106 -41 0 -56 -5 -75 -25z"/>
<path d="M9741 10146 c-93 -52 -48 -226 58 -226 12 0 35 13 53 29 29 26 32 33
31 84 -2 66 -14 92 -53 112 -35 18 -57 19 -89 1z"/>
<path d="M11079 9595 c-27 -14 -59 -78 -59 -116 0 -37 29 -77 64 -89 52 -17
98 6 119 59 10 23 17 50 17 61 0 33 -23 71 -51 86 -35 17 -57 17 -90 -1z"/>
<path d="M10338 9359 c-28 -27 -30 -34 -25 -78 14 -115 67 -176 134 -150 65
24 81 66 63 155 -15 72 -47 104 -102 104 -31 0 -46 -7 -70 -31z"/>
<path d="M12309 9131 c-41 -41 -38 -75 11 -142 52 -69 76 -84 124 -75 46 9 80
56 71 100 -6 33 -68 122 -95 136 -36 19 -80 11 -111 -19z"/>
<path d="M11460 8829 c-68 -30 -90 -56 -90 -101 0 -58 37 -92 93 -86 135 16
203 110 134 186 -26 28 -76 29 -137 1z"/>
<path d="M13655 8755 c-33 -32 -33 -81 1 -146 31 -62 78 -88 126 -68 60 24 73
82 39 162 -24 55 -54 77 -104 77 -27 0 -45 -7 -62 -25z"/>
<path d="M12292 8525 c-76 -64 -33 -175 69 -175 46 0 99 56 99 105 0 83 -102
126 -168 70z"/>
<path d="M13239 8391 c-69 -70 -10 -161 104 -161 34 0 53 6 77 26 28 24 31 32
28 72 -3 40 -8 50 -37 69 -25 17 -48 23 -88 23 -47 0 -59 -4 -84 -29z"/>
<path d="M14509 8031 c-22 -23 -29 -39 -29 -69 0 -84 37 -132 102 -132 65 1
98 51 88 131 -12 95 -98 132 -161 70z"/>
<path d="M13681 7674 c-27 -22 -31 -32 -31 -74 0 -64 28 -99 86 -107 50 -6 79
7 100 49 21 41 11 93 -26 130 -38 37 -87 38 -129 2z"/>
<path d="M15024 7366 c-45 -20 -59 -61 -44 -130 14 -67 44 -96 100 -96 30 0
44 6 64 31 28 33 31 52 16 113 -16 72 -77 108 -136 82z"/>
<path d="M8227 9030 c-34 -27 -41 -62 -23 -124 20 -68 55 -101 108 -101 32 0
45 6 64 28 26 31 30 61 13 121 -23 84 -103 122 -162 76z"/>
<path d="M8872 8695 c-71 -53 -89 -88 -72 -138 14 -46 65 -72 106 -56 43 16
124 81 141 112 30 58 -15 127 -82 127 -24 0 -50 -13 -93 -45z"/>
<path d="M7824 8301 c-28 -12 -54 -50 -54 -79 0 -32 55 -137 82 -156 12 -9 38
-16 56 -16 42 0 92 46 92 85 0 29 -50 135 -73 154 -20 16 -77 23 -103 12z"/>
<path d="M6586 7969 c-31 -36 -33 -67 -7 -117 10 -20 26 -61 36 -91 22 -68 45
-91 91 -91 48 0 73 15 90 56 13 30 12 40 -5 91 -51 151 -76 183 -142 183 -29
0 -43 -7 -63 -31z"/>
<path d="M7492 7810 c-38 -24 -62 -73 -55 -113 6 -32 56 -77 84 -77 60 0 126
56 136 113 5 31 1 40 -25 67 -37 37 -90 40 -140 10z"/>
<path d="M5715 7393 c-30 -7 -63 -42 -70 -73 -10 -44 10 -75 82 -129 52 -40
75 -51 104 -51 52 0 89 37 89 89 0 35 -6 45 -52 86 -80 72 -111 88 -153 78z"/>
<path d="M6653 7165 c-26 -18 -53 -100 -53 -157 0 -76 83 -115 143 -68 29 23
59 103 59 158 0 68 -90 108 -149 67z"/>
<path d="M5889 6931 c-70 -71 -10 -195 87 -177 63 12 101 95 70 154 -32 61
-108 72 -157 23z"/>
<path d="M13233 6445 c-31 -13 -63 -59 -63 -90 0 -29 28 -71 55 -83 60 -27
141 -6 163 43 44 96 -50 176 -155 130z"/>
<path d="M13709 6231 c-78 -79 11 -210 114 -168 75 32 90 106 33 163 -46 46
-104 48 -147 5z"/>
<path d="M12276 5974 c-22 -23 -26 -35 -26 -84 0 -47 4 -62 25 -84 33 -36 101
-37 134 -2 24 26 37 89 27 130 -17 68 -109 90 -160 40z"/>
<path d="M8575 5925 c-19 -18 -25 -35 -25 -66 0 -36 6 -48 44 -85 54 -55 93
-59 137 -15 23 23 29 38 29 71 0 36 -6 48 -39 81 -32 33 -45 39 -80 39 -31 0
-48 -6 -66 -25z"/>
<path d="M7572 5860 c-39 -24 -72 -75 -72 -113 0 -18 11 -39 29 -58 39 -38 87
-39 131 -3 70 59 77 138 17 174 -40 25 -64 25 -105 0z"/>
<path d="M10039 5641 c-25 -25 -29 -37 -29 -81 0 -44 4 -56 29 -81 23 -22 39
-29 68 -29 63 1 93 37 93 114 0 97 -95 143 -161 77z"/>
<path d="M6722 5535 c-56 -47 -46 -137 19 -170 81 -43 175 49 139 136 -25 59
-107 77 -158 34z"/>
<path d="M12961 5355 c-51 -44 -101 -120 -101 -154 0 -43 25 -78 66 -91 48
-16 78 1 141 84 61 78 66 109 27 155 -34 41 -88 43 -133 6z"/>
<path d="M9090 5307 c-41 -32 -120 -143 -120 -169 0 -76 65 -118 134 -87 27
12 111 115 125 153 13 33 2 74 -27 96 -28 22 -88 26 -112 7z"/>
<path d="M11489 5221 c-43 -43 -41 -101 5 -147 38 -38 77 -44 125 -20 27 14
51 53 51 82 0 31 -33 85 -61 99 -45 24 -87 19 -120 -14z"/>
<path d="M7707 5020 c-48 -38 -44 -130 7 -165 33 -24 90 -19 125 11 26 22 31
33 31 71 0 36 -6 50 -29 74 -37 36 -94 40 -134 9z"/>
<path d="M10358 4843 c-9 -2 -42 -34 -72 -69 -58 -68 -69 -102 -46 -145 16
-29 67 -51 101 -44 34 8 134 113 144 152 17 69 -52 126 -127 106z"/>
</g>
</svg>
