<?xml version="1.0" standalone="no"?>
<!DOCTYPE svg PUBLIC "-//W3C//DTD SVG 20010904//EN"
 "http://www.w3.org/TR/2001/REC-SVG-20010904/DTD/svg10.dtd">
<svg version="1.0" xmlns="http://www.w3.org/2000/svg"
 width="1024.000000pt" height="1024.000000pt" viewBox="0 0 1024.000000 1024.000000"
 preserveAspectRatio="xMidYMid meet">
<metadata>
Created by potrace 1.16, written by Peter Selinger 2001-2019
</metadata>
<g transform="translate(0.000000,1024.000000) scale(0.100000,-0.100000)"
fill="#000000" stroke="none">
<path d="M4864 7965 c-490 -72 -890 -344 -1082 -737 -91 -185 -129 -337 -139
-545 l-6 -121 -43 -7 c-24 -3 -70 -19 -102 -36 -232 -115 -281 -451 -95 -650
62 -66 109 -96 207 -130 77 -26 79 -28 93 -70 35 -105 320 -812 485 -1204 323
-765 658 -1458 778 -1610 35 -44 82 -74 119 -75 42 0 106 38 138 83 151 212
499 1047 840 2017 35 102 84 239 108 305 23 66 73 208 110 317 l67 196 70 23
c121 38 238 131 286 226 94 184 56 419 -85 531 -56 44 -93 60 -165 72 l-65 11
0 162 c0 110 -5 191 -17 252 -101 537 -492 904 -1056 990 -115 18 -322 18
-446 0z m466 -81 c313 -52 573 -203 745 -433 106 -140 168 -274 206 -441 22
-98 35 -305 25 -401 -6 -57 -11 -68 -32 -77 -27 -13 -33 -52 -10 -71 11 -9 24
-8 56 5 84 34 201 2 272 -73 39 -41 77 -131 84 -200 12 -110 -48 -248 -141
-325 -43 -36 -121 -73 -184 -88 -75 -18 -221 -8 -289 19 -70 28 -81 27 -142
-14 -68 -46 -136 -65 -232 -65 -132 0 -229 46 -291 138 -29 42 -53 52 -75 30
-7 -7 -12 -22 -12 -35 0 -29 -75 -85 -145 -110 -73 -25 -203 -22 -277 6 -77
30 -154 100 -169 154 -15 53 -31 71 -57 63 -14 -5 -22 -19 -26 -49 -9 -60 -54
-110 -133 -149 -55 -27 -80 -33 -153 -36 -105 -5 -177 14 -253 66 l-51 35 -90
-24 c-268 -70 -503 26 -576 234 -57 162 12 347 155 413 68 32 113 32 125 -1
11 -29 54 -35 64 -10 3 9 1 50 -5 93 -28 200 48 526 171 733 271 457 866 710
1440 613z m-522 -2183 c162 -83 401 -61 515 47 20 19 32 24 41 17 52 -40 119
-78 166 -96 124 -47 292 -31 406 37 l59 35 50 -16 c27 -9 86 -21 130 -27 44
-6 81 -11 83 -13 1 -1 -19 -60 -44 -131 -25 -71 -67 -192 -94 -269 -355 -1031
-741 -1999 -921 -2307 -98 -167 -137 -162 -252 37 l-56 95 39 87 c21 48 43 89
48 91 6 2 29 -15 53 -38 39 -37 69 -46 69 -21 0 5 -25 31 -55 57 l-55 48 52
95 c62 116 95 177 140 256 48 82 110 189 114 194 2 2 38 -20 81 -48 43 -28 84
-51 91 -51 31 0 6 31 -60 76 -40 26 -77 51 -82 55 -5 4 12 42 38 85 25 42 46
83 46 90 0 33 -28 8 -70 -61 -25 -41 -50 -75 -56 -75 -6 0 -62 36 -125 81 -63
44 -122 85 -131 90 -10 5 -18 14 -18 20 0 8 208 265 265 327 10 11 42 -3 176
-77 90 -50 172 -91 182 -91 46 0 3 34 -148 116 -91 49 -165 93 -165 99 0 10
129 155 402 453 l149 162 37 -30 c20 -16 40 -30 44 -30 17 0 6 26 -24 57 l-32
33 69 70 c53 55 65 74 56 83 -9 9 -27 -3 -78 -56 -36 -37 -69 -66 -74 -65 -4
2 -105 98 -224 213 -119 116 -223 211 -231 213 -41 10 7 -46 206 -241 121
-118 220 -218 220 -222 0 -4 -57 -68 -128 -144 -146 -156 -291 -316 -375 -413
l-58 -67 -227 131 c-125 72 -231 134 -235 138 -4 4 8 26 28 50 26 32 33 46 25
54 -8 8 -22 -2 -51 -36 l-40 -46 -127 77 c-70 43 -163 99 -207 126 -44 26 -84
52 -89 56 -5 4 19 46 53 92 33 47 61 90 61 96 0 31 -35 2 -90 -74 -34 -47 -63
-85 -65 -85 -2 0 -52 29 -112 65 -59 36 -111 65 -115 65 -5 0 -8 -8 -8 -17 1
-12 38 -40 109 -82 l108 -65 -44 -70 c-24 -39 -43 -76 -43 -83 0 -29 22 -10
66 57 26 39 49 70 51 70 3 0 51 -29 106 -63 56 -35 150 -93 210 -128 59 -35
105 -69 103 -75 -2 -5 -47 -67 -100 -138 -52 -70 -100 -135 -105 -144 -12 -21
-16 -19 -154 85 -95 71 -127 86 -127 60 0 -12 48 -51 193 -156 l57 -42 -24
-32 c-32 -44 -57 -93 -49 -101 13 -13 24 -4 59 52 20 31 38 59 39 60 2 2 61
-38 132 -90 70 -52 163 -118 205 -147 l77 -54 -31 -41 c-18 -23 -45 -56 -60
-74 -30 -35 -36 -62 -14 -62 11 0 58 54 122 138 9 12 31 0 126 -65 191 -133
180 -123 163 -149 -33 -51 -166 -286 -227 -402 l-65 -123 -112 101 c-101 90
-138 112 -129 76 3 -12 187 -184 213 -199 11 -6 6 -23 -21 -81 -19 -41 -34
-79 -34 -85 0 -35 -27 11 -118 197 -164 338 -328 701 -502 1112 -178 419 -490
1197 -490 1220 0 4 30 10 68 14 37 4 94 14 127 23 l60 16 50 -31 c113 -69 287
-87 410 -43 67 24 161 84 176 113 10 18 14 16 58 -25 27 -25 67 -55 89 -66z
m215 -1066 c125 -71 227 -133 227 -136 0 -3 -35 -46 -77 -96 -43 -49 -105
-122 -138 -161 -57 -69 -77 -83 -90 -63 -5 9 -80 64 -302 223 -46 32 -83 61
-83 64 0 10 223 305 229 302 4 -2 109 -61 234 -133z"/>
<path d="M5742 7488 c-22 -22 -12 -47 31 -77 46 -32 92 -78 126 -129 30 -43
65 -41 69 3 2 24 -8 44 -52 97 -49 59 -125 118 -152 118 -6 0 -15 -5 -22 -12z"/>
<path d="M4527 6976 c-21 -8 -47 -22 -59 -33 -48 -43 -60 -112 -22 -127 19 -7
44 10 44 29 0 24 60 65 94 65 38 0 83 -31 96 -66 13 -33 57 -33 66 0 11 45
-32 103 -99 131 -44 18 -70 18 -120 1z"/>
<path d="M5310 6968 c-46 -23 -90 -77 -90 -109 0 -24 27 -49 45 -42 8 3 22 20
31 38 17 36 50 55 95 55 29 0 45 -12 103 -81 34 -41 70 15 43 67 -20 38 -45
60 -90 79 -50 21 -85 19 -137 -7z"/>
<path d="M4837 6749 c-12 -7 -17 -23 -17 -57 1 -157 193 -231 293 -113 26 32
47 87 47 128 0 21 -24 53 -40 53 -18 0 -40 -33 -40 -61 0 -74 -61 -121 -123
-95 -44 18 -59 39 -65 91 -5 50 -26 70 -55 54z"/>
<path d="M4617 5666 c-3 -8 48 -64 136 -147 78 -74 207 -197 287 -275 289
-280 300 -289 300 -249 0 18 -693 685 -711 685 -4 0 -9 -6 -12 -14z"/>
<path d="M6030 5654 c0 -24 102 -116 114 -104 7 7 -2 23 -25 47 -68 73 -89 86
-89 57z"/>
</g>
</svg>
