<?xml version="1.0" standalone="no"?>
<!DOCTYPE svg PUBLIC "-//W3C//DTD SVG 20010904//EN"
 "http://www.w3.org/TR/2001/REC-SVG-20010904/DTD/svg10.dtd">
<svg version="1.0" xmlns="http://www.w3.org/2000/svg"
 width="1024.000000pt" height="1024.000000pt" viewBox="0 0 1024.000000 1024.000000"
 preserveAspectRatio="xMidYMid meet">
<metadata>
Created by potrace 1.16, written by Peter Selinger 2001-2019
</metadata>
<g transform="translate(0.000000,1024.000000) scale(0.100000,-0.100000)"
fill="#000000" stroke="none">
<path d="M5685 8174 c-121 -20 -287 -95 -411 -187 -38 -28 -120 -101 -182
-162 -62 -60 -115 -112 -117 -114 -3 -2 -69 28 -147 66 -277 137 -446 204
-543 217 -99 13 -198 -34 -274 -129 -38 -48 -134 -203 -231 -372 -51 -90 -69
-113 -86 -113 -12 0 -80 13 -150 29 -472 107 -632 78 -736 -134 -44 -88 -96
-258 -128 -418 -17 -86 -32 -97 -134 -97 -165 0 -313 -46 -378 -118 -60 -66
-89 -203 -65 -299 8 -31 5 -37 -46 -90 -79 -84 -129 -170 -201 -345 -15 -38
-21 -41 -99 -52 -21 -3 -70 -19 -108 -37 -119 -55 -189 -160 -197 -299 -4 -64
-1 -83 21 -132 51 -114 158 -200 322 -259 74 -26 85 -37 95 -86 4 -21 15 -76
24 -123 46 -237 113 -473 208 -740 60 -169 142 -342 227 -481 9 -15 31 -52 49
-83 92 -155 327 -425 466 -535 115 -91 252 -178 366 -233 125 -60 255 -112
310 -123 73 -15 80 -25 80 -124 0 -97 10 -138 49 -193 74 -104 257 -161 716
-222 282 -38 409 -46 720 -46 447 0 692 23 1050 96 381 78 465 144 465 364 0
115 -8 105 121 146 158 50 394 175 550 291 116 86 272 240 361 353 198 254
314 463 436 785 83 219 186 608 223 840 7 44 17 85 23 92 6 6 47 26 91 43 73
29 205 111 205 128 0 4 12 20 26 35 49 53 69 114 68 207 0 67 -5 95 -23 132
-54 112 -159 187 -291 209 -91 16 -93 18 -80 125 5 49 10 155 10 235 0 219
-35 309 -143 372 -67 39 -125 51 -189 38 -68 -14 -113 -38 -216 -111 -81 -59
-105 -69 -116 -51 -3 5 -13 60 -21 122 -9 63 -25 139 -36 170 -26 70 -85 133
-148 155 -25 8 -52 19 -60 23 -8 4 -51 72 -95 152 -206 365 -259 438 -346 478
-85 39 -203 20 -353 -56 -71 -35 -85 -30 -114 47 -34 89 -109 241 -153 309
-127 193 -311 299 -535 306 -55 2 -113 1 -130 -1z m187 -209 c154 -32 273
-129 355 -290 34 -66 114 -255 138 -329 11 -32 31 -69 44 -82 42 -43 80 -33
326 81 86 40 142 48 170 25 46 -37 258 -411 253 -445 -2 -15 -21 -24 -83 -42
-149 -43 -240 -72 -301 -94 -33 -13 -67 -20 -76 -17 -8 4 -27 30 -43 60 -171
330 -370 403 -659 242 -165 -92 -391 -251 -719 -506 -77 -60 -146 -108 -154
-108 -18 0 -25 6 -197 200 -181 202 -246 263 -319 298 -119 58 -230 51 -357
-21 -65 -36 -239 -208 -328 -322 -121 -157 -132 -171 -171 -219 -21 -26 -42
-61 -45 -78 -9 -46 15 -91 61 -112 38 -17 43 -17 74 -2 19 9 40 25 46 36 14
22 181 237 226 290 73 87 206 215 252 241 57 33 92 36 141 13 39 -19 139 -114
243 -234 41 -47 84 -94 95 -106 12 -11 46 -49 76 -84 105 -121 150 -170 381
-415 41 -44 96 -102 121 -129 40 -43 51 -49 94 -53 68 -6 104 23 111 89 l5 47
-104 108 c-260 267 -265 273 -251 296 17 30 576 450 681 512 9 6 42 26 72 46
242 156 337 115 482 -206 51 -113 186 -520 232 -700 9 -33 18 -71 22 -85 22
-81 115 -107 173 -49 17 17 31 41 31 53 0 44 -105 410 -173 604 -15 40 -24 78
-21 85 5 15 37 29 129 57 39 12 90 29 115 37 93 31 277 73 320 73 53 0 83 -18
98 -57 18 -46 51 -446 52 -622 0 -92 3 -109 23 -138 34 -51 103 -56 157 -12
24 20 24 23 22 151 -2 89 1 135 10 145 6 8 55 46 107 85 53 39 116 86 140 104
81 61 154 55 178 -16 15 -44 16 -187 3 -322 -30 -302 -31 -313 -48 -329 -15
-15 -70 -27 -307 -69 -369 -66 -1159 -139 -1830 -171 -296 -14 -1508 -14
-1775 0 -651 34 -639 33 -655 51 -15 17 -14 30 10 166 14 81 29 152 31 156 7
12 7 82 0 104 -8 26 -57 54 -94 54 -19 0 -41 -10 -59 -27 -32 -31 -45 -76 -84
-293 -12 -69 -26 -131 -33 -139 -8 -10 -29 -12 -96 -7 -115 9 -482 52 -600 70
-52 9 -140 22 -195 31 -121 19 -323 64 -348 76 -9 6 -17 19 -17 30 0 28 52
175 86 241 28 56 39 68 66 68 17 0 20 -5 121 -220 29 -63 62 -122 72 -130 25
-21 85 -18 117 5 32 23 52 75 42 107 -3 13 -30 71 -60 130 -47 95 -132 304
-163 399 -6 19 -11 55 -11 78 0 96 31 111 260 124 201 11 244 19 265 50 8 12
27 83 44 157 16 74 41 178 56 230 14 52 30 110 35 127 13 51 44 105 74 127 23
17 41 21 104 19 42 -1 101 -6 132 -12 30 -6 96 -18 145 -26 50 -9 145 -30 213
-46 67 -16 131 -29 142 -29 47 0 67 23 150 173 126 229 222 388 264 436 35 39
59 43 133 20 125 -39 491 -211 500 -236 3 -8 -11 -38 -31 -67 -54 -79 -49
-148 14 -181 69 -35 89 -22 230 155 70 88 256 283 325 341 112 94 244 160 355
178 79 13 81 13 162 -4z m-4071 -2349 c29 -33 101 -71 164 -87 17 -4 75 -19
130 -33 118 -30 330 -68 505 -91 69 -8 170 -22 225 -30 304 -42 669 -71 1350
-105 256 -13 1430 -13 1680 0 104 5 289 14 410 20 121 6 270 15 330 20 61 5
173 14 250 20 77 6 176 15 220 20 235 28 350 42 440 55 55 8 154 22 220 31
131 17 319 55 430 84 126 34 178 58 211 96 36 42 61 42 113 -2 55 -46 54 -137
-2 -196 -54 -57 -117 -86 -297 -134 -347 -94 -1109 -188 -1822 -224 -109 -5
-287 -15 -395 -22 -264 -16 -1545 -16 -1833 0 -118 7 -298 17 -400 22 -298 17
-739 55 -925 80 -38 5 -124 17 -190 25 -148 20 -439 71 -520 91 -302 76 -412
132 -440 222 -20 65 43 166 107 171 4 1 21 -14 39 -33z m6292 -596 c9 -35 -29
-219 -99 -470 -255 -920 -756 -1479 -1494 -1665 -116 -29 -353 -61 -681 -91
-233 -21 -915 -30 -1177 -15 -732 43 -1069 110 -1363 272 -40 21 -75 39 -78
39 -4 0 -16 8 -27 18 -11 9 -49 37 -84 61 -241 165 -470 439 -633 756 -95 187
-176 395 -237 610 -54 192 -78 289 -94 374 -9 47 -14 93 -10 103 7 23 19 23
146 -2 302 -58 1008 -135 1473 -160 105 -6 271 -15 370 -22 249 -15 1641 -15
1895 0 107 7 308 19 445 27 237 15 661 50 715 60 14 3 72 9 130 15 208 19 607
76 700 99 63 16 97 13 103 -9z m-1688 -2387 c13 -12 16 -27 12 -55 -9 -64 -22
-74 -151 -107 -302 -79 -593 -111 -1071 -118 -543 -8 -838 23 -1303 138 -60
15 -90 77 -62 130 13 23 31 24 170 5 661 -89 1698 -83 2305 13 77 13 82 12
100 -6z"/>
<path d="M5635 7741 c-27 -16 -43 -33 -99 -102 -77 -95 -147 -232 -154 -299
-4 -44 -2 -52 26 -80 22 -21 40 -30 64 -30 45 0 96 33 104 67 13 56 74 169
115 212 23 24 52 59 65 79 41 61 27 133 -31 157 -44 19 -54 19 -90 -4z"/>
<path d="M3214 6950 c-12 -4 -31 -21 -43 -36 -39 -50 -26 -96 57 -199 120
-149 163 -185 220 -185 60 0 114 77 93 132 -5 14 -40 54 -76 89 -37 35 -80 87
-97 115 -47 78 -99 107 -154 84z"/>
<path d="M6113 6711 c-36 -16 -182 -169 -257 -270 -35 -48 -46 -72 -46 -100 0
-46 23 -79 66 -97 50 -21 88 -3 130 61 24 38 24 38 85 113 28 34 71 76 96 93
74 52 91 129 39 178 -26 25 -81 35 -113 22z"/>
<path d="M4115 6101 c-33 -14 -56 -47 -61 -88 -4 -31 2 -50 33 -102 73 -124
212 -251 275 -251 16 0 41 11 60 28 27 25 31 36 31 77 0 42 -4 52 -35 79 -19
17 -55 49 -80 71 -25 22 -59 65 -76 96 -17 30 -40 63 -50 72 -23 21 -70 29
-97 18z"/>
<path d="M7254 4628 c-41 -11 -60 -41 -80 -129 -17 -74 -34 -121 -81 -216 -32
-67 -26 -122 17 -153 31 -22 80 -26 111 -10 50 27 151 294 153 402 1 61 -1 69
-24 85 -35 25 -60 31 -96 21z"/>
<path d="M7016 3915 c-41 -22 -55 -44 -56 -88 0 -49 13 -73 50 -92 44 -23 69
-18 106 19 51 51 43 119 -18 156 -40 24 -45 24 -82 5z"/>
<path d="M6759 3617 c-44 -33 -51 -97 -16 -148 19 -29 29 -34 68 -37 57 -4 89
26 96 90 4 37 1 49 -22 76 -22 27 -34 32 -68 32 -23 0 -49 -6 -58 -13z"/>
</g>
</svg>
