<?xml version="1.0" standalone="no"?>
<!DOCTYPE svg PUBLIC "-//W3C//DTD SVG 20010904//EN"
 "http://www.w3.org/TR/2001/REC-SVG-20010904/DTD/svg10.dtd">
<svg version="1.0" xmlns="http://www.w3.org/2000/svg"
 width="1024.000000pt" height="1024.000000pt" viewBox="0 0 1024.000000 1024.000000"
 preserveAspectRatio="xMidYMid meet">
<metadata>
Created by potrace 1.16, written by Peter Selinger 2001-2019
</metadata>
<g transform="translate(0.000000,1024.000000) scale(0.100000,-0.100000)"
fill="#000000" stroke="none">
<path d="M4934 6640 c-29 -11 -72 -39 -97 -60 -41 -37 -48 -39 -74 -29 -45 18
-152 15 -210 -4 -30 -11 -74 -38 -103 -64 -49 -44 -100 -125 -100 -159 0 -13
-5 -15 -27 -8 -16 5 -73 9 -128 8 -89 0 -107 -3 -160 -29 -119 -57 -208 -184
-223 -315 l-7 -62 -59 -19 c-134 -41 -238 -150 -281 -294 l-12 -40 -72 -7
c-86 -9 -144 -33 -190 -79 -112 -113 -96 -310 30 -392 31 -20 51 -41 55 -57
21 -93 77 -242 131 -349 106 -212 245 -386 431 -541 79 -67 259 -190 296 -203
4 -1 1 -24 -8 -50 -40 -118 0 -222 109 -280 40 -22 41 -22 910 -25 635 -2 885
0 924 8 66 15 132 72 157 136 20 51 16 133 -8 182 l-17 32 87 59 c251 169 466
409 591 659 55 109 78 166 116 290 31 99 35 106 80 140 117 88 138 261 46 373
-50 60 -120 91 -221 97 l-87 5 -11 57 c-29 138 -138 272 -263 322 -63 25 -64
27 -85 84 -32 92 -58 136 -112 186 -118 110 -277 144 -422 89 l-47 -18 -28 64
c-36 83 -98 151 -177 194 -60 33 -67 34 -168 34 -80 0 -112 -4 -136 -17 -31
-17 -31 -17 -58 11 -15 16 -51 41 -79 57 -45 24 -65 29 -147 31 -77 3 -105 -1
-146 -17z m216 -169 c36 -19 55 -46 65 -93 8 -41 43 -68 86 -68 31 0 44 7 79
44 72 75 164 80 245 13 37 -30 74 -95 75 -129 0 -16 -4 -16 -46 2 -68 30 -100
27 -124 -12 -41 -68 -33 -117 24 -134 11 -3 60 -24 109 -45 48 -21 96 -39 108
-39 32 0 80 29 127 76 98 98 249 93 340 -11 40 -45 57 -85 66 -155 10 -77 25
-95 88 -110 82 -20 135 -48 177 -97 33 -37 71 -115 71 -145 0 -4 -42 -8 -94
-8 l-95 0 -20 55 c-12 31 -21 62 -21 69 0 7 -9 21 -20 31 -28 25 -117 16 -141
-14 -16 -20 -17 -25 -2 -74 8 -29 16 -56 16 -62 2 -9 -622 -9 -631 0 -2 2 4
19 13 39 20 41 49 62 116 82 31 9 55 24 66 40 15 24 15 28 -3 72 -28 66 -52
73 -147 38 -41 -15 -92 -42 -114 -60 -44 -38 -83 -109 -90 -167 -3 -21 -11
-42 -17 -46 -6 -5 -243 -7 -526 -5 l-515 3 52 24 c58 26 80 57 69 100 -9 37
-50 75 -81 75 -29 0 -234 -100 -254 -123 -7 -9 -14 -28 -15 -44 l-3 -28 -277
-3 c-152 -1 -276 0 -276 3 0 16 36 74 64 103 46 49 98 73 179 79 106 9 133 43
106 133 -8 27 -8 51 0 93 20 96 93 171 178 184 l38 6 -22 -25 c-27 -29 -29
-58 -8 -99 24 -45 55 -53 112 -28 27 12 84 28 127 37 63 14 83 22 99 44 18 23
19 33 10 78 -23 115 31 208 130 226 35 6 40 3 77 -37 34 -38 45 -44 81 -44 44
0 69 22 114 96 43 72 158 101 235 60z m1835 -1123 c32 -38 29 -81 -11 -115
l-25 -23 -1805 0 -1805 0 -24 25 c-35 34 -34 88 1 120 l27 25 1808 0 1807 0
27 -32z m-145 -321 c0 -55 -108 -299 -185 -418 -131 -202 -328 -392 -543 -523
l-60 -36 -885 0 -885 0 -74 41 c-341 193 -595 482 -717 817 -16 43 -31 89 -35
105 l-6 27 1695 0 c1407 0 1695 -2 1695 -13z m-791 -1173 c26 -33 27 -58 1
-84 -20 -20 -33 -20 -873 -20 -755 0 -855 2 -875 16 -28 20 -29 61 0 91 l21
23 853 0 853 0 20 -26z"/>
<path d="M4829 6086 c-37 -13 -75 -29 -86 -35 -37 -19 -37 -92 -2 -130 25 -26
55 -26 114 -1 65 28 110 25 178 -11 36 -18 65 -28 77 -24 32 10 60 54 60 96 0
44 -26 67 -119 105 -72 30 -138 30 -222 0z"/>
<path d="M6215 4841 c-28 -12 -40 -28 -58 -85 -47 -138 -176 -294 -314 -375
-77 -45 -93 -73 -75 -122 29 -74 83 -75 194 -3 145 94 251 215 330 379 51 108
58 152 26 181 -27 25 -74 36 -103 25z"/>
</g>
</svg>
