<?xml version="1.0" standalone="no"?>
<!DOCTYPE svg PUBLIC "-//W3C//DTD SVG 20010904//EN"
 "http://www.w3.org/TR/2001/REC-SVG-20010904/DTD/svg10.dtd">
<svg version="1.0" xmlns="http://www.w3.org/2000/svg"
 width="1024.000000pt" height="1024.000000pt" viewBox="0 0 1024.000000 1024.000000"
 preserveAspectRatio="xMidYMid meet">
<metadata>
Created by potrace 1.16, written by Peter Selinger 2001-2019
</metadata>
<g transform="translate(0.000000,1024.000000) scale(0.100000,-0.100000)"
fill="#000000" stroke="none">
<path d="M4555 8351 c-188 -48 -338 -146 -466 -307 -61 -77 -114 -172 -169
-301 -30 -72 -66 -133 -119 -203 -84 -113 -73 -108 -181 -75 -35 11 -106 19
-195 22 -120 4 -153 2 -229 -16 -293 -70 -531 -285 -626 -566 -17 -47 -33
-111 -36 -142 -6 -50 -10 -57 -48 -81 -217 -137 -343 -244 -418 -354 -75 -111
-94 -174 -107 -348 -33 -470 -37 -811 -11 -1032 88 -733 386 -1371 882 -1884
527 -545 1262 -890 2035 -955 166 -14 493 -6 646 15 708 100 1321 393 1811
866 543 524 862 1183 957 1975 19 153 16 585 -4 890 -20 283 -21 290 -53 362
-88 201 -310 393 -644 559 l-127 63 -7 73 c-20 206 -100 380 -238 515 -82 81
-135 118 -236 165 -118 56 -200 71 -357 66 l-130 -4 -54 111 c-49 98 -65 120
-150 205 -109 108 -202 163 -336 201 -155 44 -377 24 -514 -45 -28 -15 -56
-26 -62 -26 -6 0 -39 25 -72 57 -160 147 -333 213 -557 212 -75 0 -139 -7
-185 -18z m355 -249 c31 -11 74 -29 95 -40 50 -25 145 -100 145 -114 0 -6 -22
-36 -48 -67 -135 -157 -222 -355 -239 -541 -5 -61 -4 -68 21 -97 51 -61 139
-68 189 -15 21 22 30 47 42 113 30 176 85 280 214 410 76 76 112 104 171 132
175 85 320 88 480 9 132 -64 266 -250 291 -403 10 -59 18 -79 40 -100 47 -44
108 -47 174 -8 17 10 62 24 101 30 91 16 197 -3 299 -52 99 -48 210 -160 258
-260 32 -69 63 -176 53 -186 -2 -3 -39 1 -80 8 -112 18 -233 8 -341 -29 l-90
-30 -24 31 c-132 173 -331 270 -515 252 -161 -15 -291 -78 -412 -199 -112
-112 -193 -259 -225 -406 -19 -90 37 -160 129 -160 58 0 106 45 116 108 16
105 124 272 213 331 117 78 253 92 358 39 57 -29 134 -106 163 -164 62 -122
74 -308 33 -504 -27 -125 -23 -158 25 -199 27 -24 44 -31 77 -31 52 0 100 28
115 66 39 102 67 366 53 496 -13 109 -14 107 87 138 208 65 424 -35 530 -245
104 -207 71 -492 -88 -756 -38 -62 -42 -74 -37 -113 7 -51 30 -36 -204 -129
-274 -110 -664 -216 -990 -271 -188 -32 -501 -68 -510 -58 -13 14 -49 169 -49
211 0 23 11 90 24 149 52 229 58 379 21 517 -27 101 -88 214 -154 286 -75 82
-142 126 -245 161 l-81 27 -30 73 c-77 180 -193 306 -356 383 -117 55 -184 68
-324 63 -102 -4 -132 -9 -202 -36 -100 -37 -178 -88 -250 -161 -85 -87 -113
-136 -113 -194 0 -42 5 -54 34 -83 30 -30 40 -34 86 -34 57 0 45 -9 162 123
37 42 72 68 127 95 73 36 78 37 186 37 107 0 112 -1 185 -37 131 -64 231 -193
265 -343 27 -118 60 -147 167 -143 109 4 202 -62 263 -185 65 -132 70 -262 20
-477 -33 -140 -37 -271 -10 -373 12 -47 14 -72 7 -79 -16 -16 -714 -3 -891 16
-226 25 -364 44 -521 72 -171 31 -409 89 -423 103 -17 17 11 167 45 251 26 62
45 88 108 151 104 103 154 123 305 124 102 0 114 -2 175 -31 36 -17 91 -54
124 -82 80 -71 138 -80 199 -32 41 32 54 89 33 143 -13 34 -32 55 -94 101
-219 165 -437 202 -672 117 -234 -86 -401 -286 -454 -543 -9 -42 -16 -89 -16
-103 0 -14 -4 -25 -10 -25 -38 0 -371 138 -500 208 -257 138 -333 223 -360
398 -22 143 19 271 120 377 66 69 67 70 115 69 64 -3 105 12 141 49 28 30 29
33 26 122 -12 364 232 650 589 692 103 13 268 -25 352 -81 21 -14 54 -28 72
-31 67 -11 135 48 135 116 0 22 12 44 44 80 86 97 143 191 206 343 122 296
353 467 610 454 47 -3 110 -14 140 -24z m2857 -1800 c113 -95 182 -188 183
-247 0 -38 -61 -126 -143 -208 -80 -80 -163 -145 -172 -135 -2 2 5 28 16 58
28 73 56 201 64 285 6 67 -7 244 -21 279 -11 28 13 18 73 -32z m280 -879 c7
-353 -17 -583 -92 -868 -119 -457 -320 -842 -621 -1194 -757 -884 -2020 -1231
-3134 -861 -457 151 -830 380 -1160 710 -476 476 -768 1091 -845 1780 -15 136
-20 468 -9 553 l6 45 97 -72 c127 -95 220 -152 388 -235 859 -426 2108 -579
3311 -406 842 122 1590 416 1977 777 34 32 64 53 69 48 5 -5 11 -129 13 -277z"/>
<path d="M2603 7665 c-31 -21 -40 -78 -19 -110 48 -73 156 -44 156 40 0 70
-80 110 -137 70z"/>
<path d="M7494 7641 c-45 -27 -70 -96 -54 -146 33 -101 156 -125 225 -44 46
56 28 162 -35 194 -40 21 -99 19 -136 -4z"/>
<path d="M2113 7309 c-17 -5 -47 -28 -67 -50 -79 -92 -50 -231 58 -280 52 -23
90 -23 141 0 141 64 148 254 12 320 -46 22 -91 25 -144 10z"/>
<path d="M7860 7250 c-26 -26 -28 -100 -2 -122 37 -33 100 -28 128 10 22 28
17 86 -9 110 -30 29 -89 30 -117 2z"/>
<path d="M8087 3428 c-52 -31 -82 -94 -73 -156 8 -59 30 -91 87 -121 85 -45
179 -8 215 84 21 55 15 112 -16 156 -44 60 -142 77 -213 37z"/>
<path d="M1985 3233 c-53 -13 -81 -83 -51 -128 49 -74 156 -43 156 45 0 54
-52 95 -105 83z"/>
<path d="M2353 2970 c-87 -52 -88 -178 -2 -242 63 -47 169 -23 202 47 51 106
-12 215 -123 215 -27 0 -58 -8 -77 -20z"/>
<path d="M7635 2935 c-25 -24 -32 -65 -19 -100 8 -19 55 -45 84 -45 33 0 80
53 80 90 0 71 -94 107 -145 55z"/>
</g>
</svg>
