<?xml version="1.0" standalone="no"?>
<!DOCTYPE svg PUBLIC "-//W3C//DTD SVG 20010904//EN"
 "http://www.w3.org/TR/2001/REC-SVG-20010904/DTD/svg10.dtd">
<svg version="1.0" xmlns="http://www.w3.org/2000/svg"
 width="1024.000000pt" height="1024.000000pt" viewBox="0 0 1024.000000 1024.000000"
 preserveAspectRatio="xMidYMid meet">
<metadata>
Created by potrace 1.16, written by Peter Selinger 2001-2019
</metadata>
<g transform="translate(0.000000,1024.000000) scale(0.100000,-0.100000)"
fill="#000000" stroke="none">
<path d="M4784 7979 c-88 -8 -170 -32 -246 -70 -122 -61 -126 -90 -30 -188
111 -113 160 -234 169 -422 6 -116 -11 -249 -31 -249 -7 0 -23 12 -37 26 -36
39 -174 121 -259 153 -110 43 -214 61 -400 72 -91 5 -191 16 -223 24 -86 22
-123 20 -142 -8 -54 -82 -11 -321 87 -490 22 -38 38 -70 36 -73 -7 -6 -230 34
-366 66 -70 17 -233 66 -362 110 -263 88 -318 100 -372 77 -55 -23 -72 -55
-66 -130 13 -155 167 -336 384 -449 46 -23 84 -46 84 -49 0 -3 -26 -16 -57
-29 -937 -381 -1336 -1319 -1022 -2405 55 -192 168 -444 282 -635 175 -291
467 -596 752 -785 446 -296 967 -444 1719 -486 497 -29 1136 52 1621 204 523
164 890 373 1201 682 366 366 613 849 708 1390 132 753 -117 1542 -630 2000
-236 209 -529 359 -866 440 l-117 29 77 81 c124 131 192 281 192 422 0 79 -19
127 -62 153 -64 39 -115 20 -253 -94 -49 -42 -124 -95 -165 -118 -70 -40 -280
-131 -287 -124 -2 2 1 23 6 47 16 68 13 218 -5 279 -9 29 -29 66 -44 82 -40
40 -75 37 -133 -11 -72 -59 -99 -74 -257 -137 -164 -66 -282 -139 -375 -233
-33 -34 -62 -61 -65 -61 -3 0 -5 84 -5 188 -1 261 -29 392 -130 608 l-42 91
-59 11 c-87 16 -131 19 -210 11z m202 -214 c40 -86 78 -224 95 -343 15 -109 7
-388 -16 -522 l-18 -106 24 -37 c13 -20 28 -37 32 -37 5 0 68 16 140 35 73 19
247 57 387 85 282 56 427 94 570 147 151 56 317 147 430 235 l103 80 -6 -54
c-22 -184 -231 -409 -512 -551 -330 -165 -798 -296 -1300 -363 -235 -31 -698
-44 -928 -25 -401 33 -685 97 -915 207 -136 64 -222 124 -290 200 -54 61 -101
139 -89 150 3 4 109 -27 234 -69 337 -112 490 -149 751 -181 271 -34 480 -31
816 12 l129 17 20 35 c137 244 177 377 177 583 0 195 -52 371 -144 490 -28 37
-33 49 -21 53 55 21 123 32 203 33 l93 1 35 -75z m984 -585 c-6 -25 -20 -66
-31 -91 l-20 -46 -97 -21 c-200 -43 -515 -102 -521 -97 -11 11 186 191 248
227 35 20 121 60 192 88 70 28 151 66 181 83 l53 32 3 -65 c2 -36 -2 -85 -8
-110z m-2030 -20 c294 -18 438 -71 614 -227 l47 -41 -35 -59 -35 -60 -108 -12
c-59 -7 -196 -15 -303 -18 l-195 -5 -51 58 c-66 77 -100 132 -130 210 -23 62
-45 169 -37 178 3 2 19 0 36 -5 18 -5 106 -14 197 -19z m2654 -525 c881 -163
1455 -855 1512 -1820 15 -265 -48 -641 -156 -930 -224 -596 -642 -1056 -1200
-1318 -764 -358 -1730 -475 -2650 -321 -706 118 -1235 426 -1632 949 -228 301
-387 664 -465 1064 -24 124 -27 158 -27 381 -1 218 2 257 22 360 125 618 469
1009 1113 1266 l90 37 147 -36 c584 -144 1193 -153 1882 -26 425 78 882 229
1135 377 39 23 75 41 82 41 6 1 73 -10 147 -24z"/>
<path d="M6370 5565 c-63 -21 -136 -77 -171 -133 -153 -241 11 -548 291 -545
133 1 243 71 302 191 30 60 33 75 33 157 0 76 -4 99 -26 145 -37 80 -81 125
-157 162 -56 28 -79 33 -147 35 -50 2 -97 -3 -125 -12z m77 -160 c30 -21 39
-74 19 -113 -46 -88 -187 -35 -162 61 15 60 92 88 143 52z m170 -197 c11 -13
23 -31 26 -41 9 -24 -16 -83 -41 -96 -89 -48 -176 59 -107 133 32 35 92 36
122 4z"/>
<path d="M3874 5302 c-156 -55 -254 -206 -242 -372 11 -156 115 -280 273 -325
142 -42 306 21 389 147 75 115 84 242 26 366 -36 78 -87 129 -166 168 -75 37
-202 44 -280 16z m80 -157 c35 -32 35 -82 0 -124 -54 -64 -154 -28 -154 57 0
21 6 45 13 54 35 44 101 50 141 13z m141 -169 c81 -34 86 -146 9 -197 -46 -30
-90 -25 -130 15 -29 29 -34 41 -34 79 0 37 6 51 30 76 26 26 40 32 83 40 4 0
23 -5 42 -13z"/>
<path d="M5490 5102 c-14 -11 -23 -33 -27 -62 -3 -25 -10 -51 -16 -57 -16 -22
-55 -14 -90 17 -72 63 -127 58 -177 -15 -51 -74 -82 -69 -135 20 -29 50 -65
64 -101 40 -19 -12 -24 -24 -24 -56 0 -56 20 -98 68 -141 82 -74 178 -72 259
4 l32 31 52 -27 c80 -40 144 -33 203 22 63 59 85 165 45 216 -24 30 -57 34
-89 8z"/>
</g>
</svg>
