<?xml version="1.0" standalone="no"?>
<!DOCTYPE svg PUBLIC "-//W3C//DTD SVG 20010904//EN"
 "http://www.w3.org/TR/2001/REC-SVG-20010904/DTD/svg10.dtd">
<svg version="1.0" xmlns="http://www.w3.org/2000/svg"
 width="1024.000000pt" height="1024.000000pt" viewBox="0 0 1024.000000 1024.000000"
 preserveAspectRatio="xMidYMid meet">
<metadata>
Created by potrace 1.16, written by Peter Selinger 2001-2019
</metadata>
<g transform="translate(0.000000,1024.000000) scale(0.100000,-0.100000)"
fill="#000000" stroke="none">
<path d="M3984 7728 c-41 -19 -271 -428 -379 -672 -164 -371 -232 -691 -222
-1046 6 -215 28 -358 83 -530 94 -296 230 -517 447 -726 136 -132 250 -214
405 -292 185 -94 349 -147 530 -173 l82 -11 0 -873 0 -872 -31 -7 c-17 -3 -47
-6 -66 -6 -69 0 -261 -33 -382 -66 -261 -72 -387 -174 -325 -263 37 -52 24
-51 871 -51 730 0 791 1 823 18 48 24 67 60 55 108 -26 101 -307 208 -655 248
-74 9 -138 16 -142 16 -5 0 -8 393 -8 873 l0 874 99 6 c132 8 332 49 450 93
199 74 411 201 561 337 273 246 466 586 544 957 92 432 45 841 -153 1330 -86
211 -332 668 -387 718 l-25 22 -1077 -1 c-724 0 -1084 -4 -1098 -11z m2183
-245 c39 -65 106 -185 149 -267 l77 -149 -64 6 c-35 3 -158 15 -274 26 -620
59 -1128 47 -1435 -34 -237 -64 -370 -141 -574 -334 -203 -194 -319 -263 -413
-248 -61 10 -65 21 -43 112 21 89 61 209 109 329 62 154 250 511 333 634 l29
42 1017 0 1018 0 71 -117z m-197 -517 c91 -8 236 -23 324 -33 l159 -17 17 -42
c34 -78 91 -266 115 -378 71 -334 56 -673 -46 -981 -41 -126 -147 -333 -226
-444 -87 -121 -243 -277 -364 -364 -170 -121 -389 -217 -599 -263 -122 -27
-449 -27 -570 0 -318 69 -555 199 -785 430 -237 238 -373 492 -446 836 -20 92
-23 135 -23 340 -1 129 3 252 7 273 7 34 11 37 30 30 12 -4 58 -8 102 -7 69 0
91 5 148 31 97 46 139 78 303 229 81 74 172 153 203 173 157 107 332 165 591
197 142 17 833 11 1060 -10z m-830 -4586 c185 -14 418 -63 435 -90 4 -7 -206
-10 -586 -10 -341 0 -589 4 -583 9 31 28 265 79 418 90 159 12 177 12 316 1z"/>
</g>
</svg>
