<?xml version="1.0" encoding="UTF-8" standalone="no"?>
<!DOCTYPE svg PUBLIC "-//W3C//DTD SVG 1.1//EN" "http://www.w3.org/Graphics/SVG/1.1/DTD/svg11.dtd">
<svg width="100%" height="100%" viewBox="0 0 1024 1024" version="1.1" xmlns="http://www.w3.org/2000/svg" xmlns:xlink="http://www.w3.org/1999/xlink" xml:space="preserve" xmlns:serif="http://www.serif.com/" style="fill-rule:evenodd;clip-rule:evenodd;stroke-linejoin:round;stroke-miterlimit:2;">
    <g transform="matrix(0.1,0,0,-0.1,0,1024)">
        <path d="M4845,8239C4812,8235 4745,8226 4695,8220C4574,8205 4507,8192 4365,8158C4238,8127 3972,8043 3955,8029C3950,8024 3941,8020 3934,8020C3923,8020 3808,7969 3700,7917C3530,7835 3246,7649 3115,7535C2922,7367 2898,7343 2773,7204C2666,7083 2536,6908 2448,6765C2385,6663 2240,6374 2240,6352C2240,6345 2234,6326 2226,6312C2169,6205 2086,5897 2050,5660C1992,5276 2001,4833 2075,4473C2108,4314 2173,4089 2201,4038C2206,4028 2210,4016 2210,4010C2210,3987 2303,3787 2376,3654C2659,3138 3115,2713 3685,2435C3814,2372 3973,2305 4015,2294C4032,2290 4050,2284 4055,2280C4061,2276 4076,2270 4090,2266C4104,2262 4130,2254 4148,2249C4356,2190 4466,2164 4633,2135C4920,2087 5335,2089 5635,2141C5799,2169 6178,2273 6255,2310C6274,2319 6368,2359 6500,2415C6669,2486 6945,2658 7145,2817C7213,2871 7368,3011 7415,3061C7713,3377 7910,3724 8044,4170C8078,4282 8100,4365 8111,4418C8116,4441 8125,4481 8130,4508C8176,4724 8201,5131 8181,5330C8159,5539 8148,5608 8108,5780C8087,5871 8072,5923 8059,5955C8055,5966 8040,6007 8026,6045C7973,6196 7856,6437 7772,6569C7752,6601 7715,6660 7690,6699C7585,6867 7412,7112 7279,7280C6984,7653 6601,7929 6161,8087C6070,8119 6040,8129 5910,8164C5847,8181 5597,8223 5464,8239C5359,8252 4934,8252 4845,8239ZM5473,7980C5697,7949 5716,7946 5910,7900C5974,7885 6117,7835 6195,7800C6474,7675 6665,7544 6876,7335C7041,7172 7175,7006 7330,6775C7359,6731 7387,6694 7392,6692C7396,6690 7400,6685 7400,6680C7400,6675 7422,6637 7450,6596C7478,6554 7500,6518 7500,6515C7500,6513 7515,6487 7534,6458C7601,6352 7683,6193 7739,6060C7757,6019 7775,5976 7780,5965C7802,5916 7861,5719 7871,5665C7875,5643 7883,5598 7890,5565C7916,5426 7920,5385 7926,5190C7932,4991 7925,4887 7890,4650C7853,4394 7752,4067 7640,3839C7512,3579 7390,3409 7191,3210C6850,2869 6426,2626 5905,2472C5606,2384 5156,2338 4895,2370C4851,2375 4770,2384 4715,2390C4612,2402 4538,2414 4460,2432C4388,2449 4237,2491 4215,2500C4204,2504 4166,2518 4130,2530C3953,2588 3677,2725 3481,2851C3256,2995 2956,3268 2812,3462C2678,3642 2552,3857 2487,4020C2477,4045 2464,4074 2460,4085C2431,4150 2361,4385 2339,4490C2239,4974 2249,5439 2370,5905C2406,6043 2423,6095 2492,6275C2519,6344 2622,6543 2684,6644C2902,6998 3175,7279 3528,7514C3912,7769 4367,7929 4845,7979C4960,7991 5388,7992 5473,7980Z" style="fill-rule:nonzero;"/>
        <path d="M6199,7201C6113,7184 6070,7122 6070,7016C6070,6964 6076,6938 6096,6897C6133,6825 6225,6737 6286,6716C6406,6675 6520,6717 6560,6818C6578,6863 6568,6965 6541,7015C6473,7142 6321,7225 6199,7201ZM6316,7036C6356,6996 6363,6947 6330,6930C6303,6916 6273,6926 6244,6959C6171,7042 6238,7114 6316,7036Z" style="fill-rule:nonzero;"/>
        <path d="M4005,7058C3918,7035 3835,6953 3810,6866C3787,6784 3839,6687 3926,6645C4094,6566 4320,6693 4320,6866C4320,6937 4301,6979 4254,7017C4191,7065 4096,7081 4005,7058ZM4150,6910C4177,6883 4175,6874 4141,6839C4120,6818 4102,6810 4078,6810C4037,6810 4020,6825 4020,6860C4020,6918 4108,6952 4150,6910Z" style="fill-rule:nonzero;"/>
        <path d="M5951,6011C5864,5989 5784,5895 5773,5802C5759,5682 5841,5565 5955,5542C5987,5535 6023,5530 6035,5530C6071,5530 6148,5568 6183,5604C6238,5658 6253,5701 6248,5790C6245,5858 6241,5874 6215,5911C6157,5993 6047,6035 5951,6011Z" style="fill-rule:nonzero;"/>
        <path d="M4218,5846C4125,5813 4070,5727 4070,5615C4070,5476 4168,5380 4308,5380C4488,5381 4603,5573 4519,5734C4489,5793 4471,5810 4415,5836C4358,5863 4277,5867 4218,5846Z" style="fill-rule:nonzero;"/>
        <path d="M3124,5805C3009,5747 2936,5636 2935,5519C2935,5446 2948,5413 2995,5362C3092,5256 3270,5272 3373,5394C3441,5476 3465,5534 3465,5619C3465,5710 3446,5749 3381,5795C3343,5821 3329,5825 3257,5828C3185,5831 3169,5828 3124,5805ZM3294,5684C3305,5680 3310,5665 3310,5639C3310,5607 3303,5591 3272,5558C3238,5522 3227,5517 3189,5516C3148,5515 3145,5517 3142,5544C3136,5590 3149,5622 3186,5657C3221,5689 3257,5698 3294,5684Z" style="fill-rule:nonzero;"/>
        <path d="M5235,5408C4860,5371 4850,5369 4815,5322C4799,5300 4795,5282 4797,5220C4800,5122 4815,5061 4856,4974C4896,4890 4947,4829 5015,4786C5096,4734 5127,4725 5225,4725C5305,4725 5322,4729 5380,4756C5457,4793 5537,4872 5575,4947C5655,5109 5642,5349 5549,5404C5518,5422 5393,5424 5235,5408ZM5390,5150C5390,5034 5317,4950 5218,4950C5175,4950 5119,4976 5092,5009C5067,5039 5040,5105 5040,5136L5040,5166L5173,5182C5245,5190 5324,5198 5348,5199L5390,5200L5390,5150Z" style="fill-rule:nonzero;"/>
        <path d="M6649,5416C6647,5413 6604,5402 6555,5391C6347,5346 6304,5329 6281,5287C6261,5250 6275,5196 6311,5166C6344,5138 6394,5133 6460,5149C6612,5188 6731,5221 6752,5230C6810,5257 6827,5338 6784,5389C6761,5416 6752,5420 6706,5420C6677,5420 6651,5418 6649,5416Z" style="fill-rule:nonzero;"/>
        <path d="M3648,5130C3561,5103 3546,4983 3626,4945C3655,4931 3692,4929 3876,4932L4092,4935L4116,4963C4163,5017 4159,5075 4107,5114C4081,5134 4065,5135 3877,5137C3766,5138 3663,5135 3648,5130Z" style="fill-rule:nonzero;"/>
        <path d="M7075,4741C6943,4709 6851,4551 6862,4375C6869,4274 6915,4192 6987,4156C7033,4133 7131,4135 7178,4160C7360,4257 7410,4526 7272,4673C7222,4727 7137,4756 7075,4741ZM7165,4550C7192,4521 7191,4440 7164,4404C7136,4366 7117,4356 7087,4364C7034,4377 7028,4497 7078,4553C7098,4576 7143,4575 7165,4550Z" style="fill-rule:nonzero;"/>
        <path d="M3570,4231C3495,4207 3428,4147 3390,4070C3362,4014 3359,3911 3383,3864C3448,3738 3625,3733 3726,3853C3795,3935 3821,4067 3784,4145C3753,4211 3643,4255 3570,4231ZM3644,4114C3692,4095 3628,3985 3573,3992C3549,3995 3545,4000 3542,4031C3537,4088 3593,4134 3644,4114Z" style="fill-rule:nonzero;"/>
        <path d="M5687,4212C5625,4174 5591,4033 5629,3972C5649,3942 5684,3920 5715,3920C5739,3920 5792,3973 5811,4015C5845,4088 5832,4190 5786,4222C5767,4235 5716,4230 5687,4212Z" style="fill-rule:nonzero;"/>
        <path d="M4700,3401C4646,3389 4605,3364 4573,3323C4509,3239 4502,3164 4551,3066C4605,2957 4714,2891 4841,2890C4990,2890 5079,2975 5080,3118C5080,3190 5064,3234 5013,3297C4951,3374 4803,3423 4700,3401ZM4831,3225C4851,3212 4873,3188 4880,3171C4919,3075 4821,3051 4734,3135C4663,3202 4678,3268 4760,3254C4779,3251 4811,3238 4831,3225Z" style="fill-rule:nonzero;"/>
    </g>
</svg>
