<?xml version="1.0" standalone="no"?>
<!DOCTYPE svg PUBLIC "-//W3C//DTD SVG 20010904//EN"
 "http://www.w3.org/TR/2001/REC-SVG-20010904/DTD/svg10.dtd">
<svg version="1.0" xmlns="http://www.w3.org/2000/svg"
 width="1024.000000pt" height="1024.000000pt" viewBox="0 0 1024.000000 1024.000000"
 preserveAspectRatio="xMidYMid meet">
<metadata>
Created by potrace 1.16, written by Peter Selinger 2001-2019
</metadata>
<g transform="translate(0.000000,1024.000000) scale(0.100000,-0.100000)"
fill="#000000" stroke="none">
<path d="M4977 6184 c-33 -8 -91 -29 -129 -47 -68 -33 -72 -33 -112 -19 -22 8
-86 16 -141 19 -128 6 -222 -13 -335 -69 -115 -56 -236 -176 -298 -295 l-43
-83 -42 0 c-162 0 -393 -126 -508 -278 -59 -78 -121 -201 -144 -287 -22 -83
-30 -263 -16 -354 l12 -74 -35 -32 c-19 -17 -38 -44 -42 -60 -23 -93 43 -401
133 -620 42 -102 129 -270 185 -357 105 -163 277 -364 421 -488 l75 -64 -38
-46 c-57 -69 -82 -126 -88 -202 -9 -122 55 -209 184 -252 46 -15 146 -16 1145
-14 l1094 3 49 24 c169 84 194 275 56 441 l-37 45 100 90 c126 112 270 278
365 421 180 268 330 659 358 935 7 75 -7 114 -55 150 -26 19 -28 25 -20 53 22
75 0 222 -47 322 -49 103 -175 208 -302 249 -46 15 -51 20 -57 53 -3 21 -22
70 -42 111 -89 186 -297 311 -519 311 l-81 0 -28 40 c-97 140 -268 230 -436
230 -55 0 -64 3 -107 39 -128 106 -307 146 -475 105z m229 -211 c132 -44 217
-153 245 -318 9 -56 18 -75 41 -97 42 -39 99 -39 139 1 25 26 29 37 29 88 0
32 -6 83 -14 113 -8 30 -13 57 -11 59 11 10 103 -51 149 -99 64 -67 110 -154
136 -257 21 -85 47 -120 96 -129 43 -8 83 13 107 54 20 33 19 68 -4 152 -6 24
72 16 136 -14 114 -52 194 -158 214 -286 14 -83 35 -104 131 -131 121 -33 192
-86 237 -174 27 -51 35 -133 19 -182 l-7 -23 -743 0 -742 0 -12 34 c-31 85
-123 166 -189 166 -79 0 -124 -76 -87 -149 10 -20 20 -39 22 -43 2 -5 -370 -8
-826 -8 l-830 0 -11 44 c-16 65 -14 218 5 290 27 105 72 185 149 262 70 71
160 125 232 139 l33 7 -6 -76 c-8 -88 5 -130 47 -151 69 -36 141 2 154 81 46
293 149 471 317 553 60 29 184 58 196 47 3 -4 -6 -19 -21 -34 -14 -15 -33 -44
-42 -65 -40 -96 63 -187 145 -129 14 10 66 58 115 108 157 156 312 214 451
167z m1714 -1486 c0 -34 -37 -181 -72 -287 -124 -377 -360 -711 -691 -979
l-88 -71 -141 0 c-162 0 -196 -10 -223 -67 -15 -30 -15 -42 -6 -74 21 -69 38
-74 266 -76 l200 -2 33 -40 c22 -26 35 -52 35 -73 l2 -33 -1081 -3 c-871 -2
-1083 0 -1098 11 -24 17 -13 55 27 102 l32 36 147 2 c131 2 149 4 175 23 59
44 56 130 -6 171 -29 20 -47 23 -125 23 l-91 0 -110 89 c-311 250 -550 588
-668 947 -36 108 -80 293 -73 310 4 11 285 13 1781 13 l1775 0 0 -22z"/>
<path d="M4875 5611 c-100 -46 -155 -170 -105 -234 87 -111 309 74 249 206
-22 48 -78 58 -144 28z"/>
<path d="M5425 5348 c-37 -29 -65 -93 -65 -151 0 -127 150 -145 211 -26 30 60
23 143 -15 176 -36 30 -93 31 -131 1z"/>
<path d="M4379 5221 c-95 -95 72 -297 196 -238 43 21 62 71 45 123 -25 73
-113 143 -183 144 -18 0 -39 -11 -58 -29z"/>
<path d="M6259 5181 c-23 -24 -29 -38 -29 -73 0 -67 34 -117 103 -152 53 -27
60 -28 97 -17 64 19 85 76 54 149 -45 109 -161 157 -225 93z"/>
<path d="M5862 5114 c-33 -23 -52 -67 -52 -119 0 -107 84 -169 154 -114 99 78
60 249 -57 249 -13 0 -33 -7 -45 -16z"/>
<path d="M3754 5076 c-45 -20 -74 -62 -74 -108 0 -50 13 -74 50 -93 109 -56
257 55 205 155 -28 54 -113 75 -181 46z"/>
</g>
</svg>
