<?xml version="1.0" standalone="no"?>
<!DOCTYPE svg PUBLIC "-//W3C//DTD SVG 20010904//EN"
 "http://www.w3.org/TR/2001/REC-SVG-20010904/DTD/svg10.dtd">
<svg version="1.0" xmlns="http://www.w3.org/2000/svg"
 width="1024.000000pt" height="1024.000000pt" viewBox="0 0 1024.000000 1024.000000"
 preserveAspectRatio="xMidYMid meet">
<metadata>
Created by potrace 1.16, written by Peter Selinger 2001-2019
</metadata>
<g transform="translate(0.000000,1024.000000) scale(0.100000,-0.100000)"
fill="#000000" stroke="none">
<path d="M3796 7660 c-26 -15 -85 -38 -130 -50 -113 -31 -263 -92 -348 -141
-39 -23 -110 -80 -160 -128 -83 -81 -88 -88 -88 -128 0 -32 5 -46 22 -57 41
-29 66 -20 142 52 39 38 93 84 119 101 74 50 219 115 357 161 134 44 203 79
220 110 18 33 12 78 -12 94 -31 22 -65 18 -122 -14z"/>
<path d="M5140 7563 c-247 -19 -615 -84 -865 -153 -198 -55 -310 -97 -482
-181 -726 -355 -1123 -992 -1225 -1959 -18 -174 -15 -520 6 -673 48 -355 173
-685 358 -952 61 -89 125 -162 243 -280 446 -447 859 -658 1450 -742 180 -25
615 -25 795 0 579 82 1014 300 1422 714 144 147 181 188 283 323 501 662 618
1340 390 2265 -132 538 -315 895 -593 1156 -271 256 -670 422 -1137 474 -118
14 -514 18 -645 8z m466 -163 c517 -32 890 -169 1192 -437 312 -278 535 -808
639 -1518 26 -178 23 -538 -5 -695 -88 -484 -339 -933 -739 -1321 -370 -359
-723 -542 -1188 -618 -461 -75 -938 -42 -1323 91 -308 106 -606 301 -887 583
-233 233 -368 454 -473 775 -141 430 -130 1049 29 1580 257 860 841 1324 1885
1499 178 30 382 53 544 61 80 4 152 7 160 8 8 1 83 -3 166 -8z"/>
<path d="M5330 7250 c-371 -35 -753 -118 -1085 -237 -143 -51 -383 -170 -500
-249 -388 -260 -606 -565 -719 -1006 -56 -215 -70 -341 -71 -603 0 -246 10
-362 51 -569 77 -389 212 -692 426 -958 306 -379 808 -570 1503 -571 121 -1
265 5 320 12 540 67 970 262 1331 603 260 247 478 586 595 928 126 366 149
717 73 1125 -45 245 -101 419 -204 630 -233 478 -638 788 -1146 875 -138 24
-425 34 -574 20z m562 -189 c123 -25 229 -57 325 -101 37 -17 68 -32 70 -34 2
-2 -6 -50 -17 -107 -67 -328 -210 -599 -484 -914 -38 -44 -168 -180 -289 -302
-214 -216 -220 -223 -213 -255 9 -45 36 -70 79 -71 44 -1 100 47 342 294 436
445 626 750 715 1144 13 55 26 104 30 108 13 15 263 -243 327 -338 171 -255
276 -539 327 -886 26 -174 31 -161 -75 -214 -273 -138 -536 -178 -1178 -179
l-413 -1 -24 -28 c-27 -31 -29 -43 -14 -82 19 -51 56 -57 390 -63 609 -10
1009 46 1272 179 32 16 60 29 63 29 20 0 -15 -258 -56 -418 -89 -341 -274
-678 -522 -948 -76 -82 -232 -217 -246 -212 -29 10 -193 164 -259 242 -144
173 -245 343 -468 793 -82 165 -155 299 -167 308 -50 35 -122 -5 -120 -67 1
-42 67 -187 229 -508 216 -427 379 -658 586 -831 l58 -48 -60 -36 c-137 -83
-359 -172 -549 -219 -134 -34 -358 -68 -366 -57 -2 4 3 42 10 86 61 351 87
854 66 1264 -12 240 -17 263 -66 281 -34 13 -80 -5 -94 -37 -9 -20 -11 -103
-5 -332 9 -436 -10 -768 -67 -1133 l-21 -138 -132 0 c-152 0 -339 20 -510 55
-266 54 -459 141 -653 298 l-62 49 20 49 c64 163 160 301 324 464 217 217 469
392 852 592 89 46 172 92 183 101 55 45 23 142 -47 142 -68 0 -534 -256 -761
-418 -326 -233 -591 -524 -670 -737 -9 -25 -19 -45 -22 -45 -13 0 -128 194
-181 304 -101 212 -169 450 -205 716 -24 174 -24 514 0 675 27 188 93 430 143
528 l14 28 87 -74 c167 -140 325 -248 568 -387 248 -143 931 -470 1015 -487
22 -4 34 1 59 25 17 18 30 41 30 55 0 35 -42 82 -89 100 -72 29 -473 218 -645
304 -380 190 -689 391 -881 572 l-56 53 27 36 c210 282 555 515 965 652 l124
42 18 -23 c54 -66 166 -287 236 -461 99 -251 175 -524 261 -937 30 -145 57
-252 66 -262 35 -39 99 -31 130 16 15 24 14 35 -21 228 -117 629 -301 1177
-482 1430 -19 27 -32 51 -30 54 19 18 539 104 707 117 134 10 396 -2 502 -23z"/>
<path d="M5379 6884 c-34 -41 -6 -224 35 -224 38 0 56 99 34 185 -14 55 -42
71 -69 39z"/>
<path d="M5356 6331 c-39 -43 -25 -221 19 -230 31 -6 45 27 45 104 0 112 -28
166 -64 126z"/>
<path d="M4187 6253 c-22 -21 4 -123 42 -165 37 -42 61 -33 61 22 0 88 -66
180 -103 143z"/>
<path d="M6711 6112 c-34 -5 -96 -48 -110 -76 -20 -37 -10 -61 23 -59 65 5
157 99 124 127 -7 7 -24 10 -37 8z"/>
<path d="M4214 5916 c-15 -39 67 -99 110 -83 22 9 20 50 -3 71 -11 10 -38 20
-60 23 -32 4 -42 2 -47 -11z"/>
<path d="M6252 5794 c-57 -28 -105 -78 -100 -103 2 -10 16 -17 39 -19 28 -2
45 4 79 30 63 48 87 83 70 103 -17 20 -28 19 -88 -11z"/>
<path d="M3718 5294 c-29 -29 41 -103 118 -124 39 -11 47 -11 61 3 15 14 15
18 0 41 -31 47 -157 103 -179 80z"/>
<path d="M6235 4796 c-16 -12 -18 -19 -9 -33 19 -32 75 -54 129 -51 46 3 50 5
50 28 0 19 -9 29 -35 42 -53 26 -111 32 -135 14z"/>
<path d="M3382 4735 c-69 -30 -45 -75 40 -75 69 0 118 22 118 53 0 14 -7 28
-16 31 -28 11 -108 6 -142 -9z"/>
<path d="M3860 4737 c-36 -9 -46 -17 -48 -36 -2 -13 2 -28 10 -32 21 -14 126
-10 163 5 90 38 -18 92 -125 63z"/>
<path d="M6511 4697 c-19 -24 2 -53 52 -72 61 -23 102 -17 102 14 0 32 -42 62
-97 68 -32 4 -47 1 -57 -10z"/>
<path d="M6094 4395 c-10 -25 17 -87 59 -132 65 -71 116 -52 78 30 -22 47 -44
75 -81 100 -30 21 -49 22 -56 2z"/>
<path d="M4521 4085 c-31 -35 -65 -130 -59 -162 5 -25 36 -28 60 -6 52 46 88
183 52 197 -22 8 -18 10 -53 -29z"/>
<path d="M5459 4009 c-14 -27 -6 -97 16 -140 12 -22 22 -29 38 -27 20 3 22 9
22 74 0 57 -4 76 -19 93 -24 27 -42 27 -57 0z"/>
<path d="M7265 7236 c-13 -9 -19 -26 -19 -49 0 -31 10 -46 66 -104 70 -73 193
-254 251 -368 47 -95 85 -220 103 -340 18 -121 19 -126 45 -159 51 -65 146 -3
120 78 -6 17 -15 70 -21 117 -14 117 -44 227 -89 330 -53 120 -194 329 -288
427 -69 73 -82 82 -114 82 -19 0 -44 -6 -54 -14z"/>
<path d="M2276 6028 c-12 -16 -16 -47 -16 -106 0 -86 -12 -144 -56 -287 -40
-127 -55 -228 -55 -380 0 -169 27 -319 62 -347 38 -31 82 -21 105 23 13 26 13
38 -2 107 -22 104 -23 332 -1 427 9 39 30 114 46 168 51 164 61 335 25 395
-20 31 -86 31 -108 0z"/>
<path d="M7958 5449 c-26 -15 -38 -73 -38 -184 0 -117 -20 -254 -56 -381 -30
-108 -29 -140 7 -167 35 -25 77 -13 102 31 52 88 97 342 97 541 0 118 -2 133
-20 151 -21 21 -64 26 -92 9z"/>
</g>
</svg>
