<?xml version="1.0" standalone="no"?>
<!DOCTYPE svg PUBLIC "-//W3C//DTD SVG 20010904//EN"
 "http://www.w3.org/TR/2001/REC-SVG-20010904/DTD/svg10.dtd">
<svg version="1.0" xmlns="http://www.w3.org/2000/svg"
 width="1024.000000pt" height="1024.000000pt" viewBox="0 0 1024.000000 1024.000000"
 preserveAspectRatio="xMidYMid meet">
<metadata>
Created by potrace 1.16, written by Peter Selinger 2001-2019
</metadata>
<g transform="translate(0.000000,1024.000000) scale(0.100000,-0.100000)"
fill="#000000" stroke="none">
<path d="M4073 7709 c-94 -8 -156 -21 -183 -38 -33 -22 3 -157 94 -347 128
-267 300 -461 502 -565 41 -21 99 -46 130 -55 30 -9 53 -18 50 -21 -2 -3 -39
-11 -80 -18 -94 -16 -201 -65 -284 -128 l-63 -48 -75 11 c-223 34 -494 -78
-647 -266 -142 -175 -212 -372 -210 -599 1 -250 84 -469 239 -632 l55 -58 -21
-102 c-45 -226 -11 -419 105 -593 78 -117 211 -222 346 -271 l57 -21 11 -87
c31 -240 159 -434 350 -531 l58 -29 16 -83 c22 -112 72 -210 146 -284 241
-244 639 -197 811 95 34 58 56 119 75 214 4 20 11 27 29 27 28 0 117 30 172
58 109 56 225 175 284 293 36 70 68 181 76 264 l6 61 69 16 c241 57 447 260
515 508 26 94 24 299 -3 399 l-20 74 59 71 c150 179 220 375 220 616 0 427
-237 755 -622 861 -25 7 -99 13 -165 13 -118 1 -121 1 -157 31 -123 98 -260
147 -413 148 -79 0 -117 -6 -199 -30 -31 -9 -18 93 20 154 46 75 93 95 223 98
63 2 127 9 157 19 69 21 161 84 222 151 89 97 202 364 202 476 0 53 -23 66
-143 80 -230 27 -493 -38 -670 -165 -69 -49 -174 -150 -209 -202 -13 -19 -25
-34 -28 -34 -3 0 -17 24 -32 53 -127 241 -394 383 -788 417 -128 11 -154 11
-287 -1z m466 -188 c274 -69 422 -186 506 -401 20 -51 22 -66 13 -84 -7 -11
-23 -52 -38 -91 -24 -64 -29 -71 -65 -84 -22 -8 -78 -14 -125 -14 -237 -1
-428 121 -609 392 -57 83 -154 287 -145 302 12 20 362 5 463 -20z m1506 -63
c-33 -108 -96 -219 -160 -283 -73 -74 -111 -88 -261 -95 -118 -6 -137 -9 -188
-35 -114 -58 -191 -179 -205 -324 -5 -44 -6 -90 -4 -103 3 -16 -7 -35 -35 -66
l-40 -44 -22 22 c-21 21 -22 29 -17 99 13 153 77 330 172 476 52 80 196 222
267 264 130 75 251 108 406 110 92 1 93 1 87 -21z m-1085 -793 c0 -28 -11 -30
-61 -14 -63 20 -65 23 -19 29 79 12 80 12 80 -15z m765 -150 c86 -23 148 -60
215 -132 33 -34 63 -63 67 -63 5 0 33 7 63 15 75 20 172 19 257 -4 199 -52
372 -231 439 -456 24 -79 27 -106 27 -230 0 -166 -19 -250 -85 -378 -33 -64
-63 -103 -135 -174 -51 -51 -93 -96 -93 -99 0 -4 15 -41 34 -83 114 -254 35
-547 -189 -701 -64 -44 -166 -80 -258 -90 -110 -13 -120 -24 -112 -115 14
-154 -43 -313 -154 -425 -97 -98 -216 -150 -346 -150 -23 0 -47 -6 -53 -12 -5
-7 -12 -56 -14 -108 -3 -75 -9 -107 -30 -151 -36 -79 -89 -133 -166 -171 -60
-30 -75 -33 -152 -33 -109 1 -187 34 -256 107 -71 76 -98 144 -102 258 -2 52
-9 101 -14 107 -6 7 -29 18 -52 24 -121 32 -244 136 -301 254 -53 109 -60 154
-54 354 1 34 -10 40 -105 61 -105 23 -185 64 -254 130 -169 161 -224 425 -136
646 37 93 33 115 -26 159 -112 82 -202 219 -246 375 -26 90 -26 317 -1 410 63
229 228 411 430 475 115 37 197 34 353 -10 15 -5 36 9 90 63 87 86 168 128
280 144 74 11 90 10 170 -10 107 -27 180 -69 250 -146 44 -49 60 -59 86 -59
26 0 38 8 63 39 123 158 322 228 510 179z"/>
<path d="M4394 5379 c-103 -30 -135 -184 -53 -253 106 -89 249 -22 249 116 0
58 -30 104 -83 128 -46 21 -66 23 -113 9z"/>
<path d="M5743 5370 c-46 -21 -77 -62 -88 -117 -9 -47 28 -121 74 -147 68 -39
161 -16 202 50 26 42 25 119 -1 162 -21 34 -87 72 -125 72 -11 0 -39 -9 -62
-20z"/>
<path d="M4772 5278 c-18 -18 -14 -119 8 -189 51 -163 192 -258 366 -247 182
12 316 154 331 353 7 88 -2 97 -84 93 l-58 -3 -6 -65 c-8 -91 -43 -157 -102
-194 -69 -43 -128 -45 -197 -9 -69 36 -108 95 -116 174 -10 103 -7 99 -72 99
-32 0 -63 -5 -70 -12z"/>
</g>
</svg>
