<?xml version="1.0" standalone="no"?>
<!DOCTYPE svg PUBLIC "-//W3C//DTD SVG 20010904//EN"
 "http://www.w3.org/TR/2001/REC-SVG-20010904/DTD/svg10.dtd">
<svg version="1.0" xmlns="http://www.w3.org/2000/svg"
 width="1024.000000pt" height="1024.000000pt" viewBox="0 0 1024.000000 1024.000000"
 preserveAspectRatio="xMidYMid meet">
<metadata>
Created by potrace 1.16, written by Peter Selinger 2001-2019
</metadata>
<g transform="translate(0.000000,1024.000000) scale(0.100000,-0.100000)"
fill="#000000" stroke="none">
<path d="M4890 6604 c-433 -59 -759 -209 -1039 -480 l-119 -114 -67 24 c-82
30 -107 52 -153 139 -45 87 -89 119 -172 125 -82 6 -159 -30 -198 -91 -27 -44
-27 -45 -95 -49 -160 -12 -267 -138 -236 -278 13 -59 48 -93 121 -120 73 -27
86 -40 168 -172 35 -57 98 -154 139 -217 55 -84 72 -116 61 -119 -51 -17 -202
-102 -267 -151 -126 -93 -217 -207 -264 -330 -24 -61 -32 -202 -16 -272 l9
-37 -134 2 c-124 1 -136 -1 -171 -23 -49 -30 -77 -86 -77 -151 0 -59 17 -97
60 -134 44 -37 87 -46 253 -54 l148 -7 24 -60 c28 -70 92 -134 151 -153 134
-43 1734 -92 2994 -92 825 1 1071 9 1152 40 67 25 129 88 151 153 l14 42 64 6
c35 4 125 7 199 8 120 1 141 4 180 24 107 53 130 189 46 273 -51 51 -91 57
-345 49 -216 -7 -224 -7 -218 11 3 11 16 46 29 79 19 51 22 79 22 185 0 181
-23 256 -197 645 -183 411 -349 651 -592 853 -297 249 -681 403 -1117 451
-132 15 -380 12 -508 -5z m610 -109 c437 -74 772 -238 1051 -515 179 -178 293
-346 421 -624 201 -434 246 -576 235 -737 -6 -91 -39 -172 -87 -212 -28 -24
-36 -25 -237 -32 -216 -8 -1552 2 -1798 14 l-139 6 66 53 c249 197 296 545
117 849 -46 78 -175 211 -262 271 -142 98 -306 165 -494 203 -89 18 -162 23
-423 29 -270 7 -326 11 -393 29 -156 41 -210 80 -302 212 l-53 78 20 26 c11
14 33 32 48 40 68 35 121 7 174 -94 49 -94 80 -117 225 -170 l83 -30 128 122
c189 181 354 292 553 372 139 56 329 104 497 124 111 14 457 6 570 -14z
m-2393 -451 c22 -11 51 -42 83 -88 73 -109 129 -154 240 -195 127 -47 173 -52
510 -61 264 -7 342 -12 415 -28 286 -63 506 -190 644 -373 114 -151 158 -315
126 -471 -41 -206 -177 -345 -390 -402 -122 -33 -257 -32 -1493 18 -227 10
-348 18 -357 26 -29 24 -48 97 -42 166 14 185 213 399 472 510 l64 27 27 -34
c46 -58 222 -227 243 -234 31 -9 61 12 61 42 0 20 -27 54 -113 142 -126 129
-194 217 -311 401 -200 315 -222 342 -294 360 -65 16 -84 32 -84 73 0 44 14
70 55 101 51 38 92 44 144 20z m108 -1699 c921 -37 1192 -46 1660 -56 849 -18
1710 -22 2281 -10 413 9 546 9 566 1 57 -26 57 -103 0 -130 -61 -30 -2322 -23
-3562 10 -1360 37 -1618 47 -1648 66 -35 23 -47 56 -31 90 24 50 48 55 214 49
83 -3 317 -12 520 -20z m439 -270 c1021 -30 1346 -36 2444 -42 617 -3 1122 -9
1122 -13 0 -20 -50 -76 -85 -94 -35 -18 -68 -21 -270 -29 -278 -10 -1950 -2
-2405 12 -949 30 -1334 48 -1395 63 -44 11 -105 68 -105 99 0 17 8 19 96 19
53 0 322 -7 598 -15z"/>
<path d="M3245 5001 c-36 -15 -116 -110 -147 -176 -18 -39 -32 -89 -35 -124
-5 -52 -3 -60 16 -73 22 -15 56 -14 66 3 3 4 10 34 16 66 14 76 41 125 100
188 54 57 64 96 30 115 -22 11 -20 11 -46 1z"/>
</g>
</svg>
