<?xml version="1.0" standalone="no"?>
<!DOCTYPE svg PUBLIC "-//W3C//DTD SVG 20010904//EN"
 "http://www.w3.org/TR/2001/REC-SVG-20010904/DTD/svg10.dtd">
<svg version="1.0" xmlns="http://www.w3.org/2000/svg"
 width="1024.000000pt" height="1024.000000pt" viewBox="0 0 1024.000000 1024.000000"
 preserveAspectRatio="xMidYMid meet">
<metadata>
Created by potrace 1.16, written by Peter Selinger 2001-2019
</metadata>
<g transform="translate(0.000000,1024.000000) scale(0.100000,-0.100000)"
fill="#000000" stroke="none">
<path d="M5274 7418 c-144 -12 -303 -70 -418 -152 -81 -58 -191 -176 -239
-257 -52 -88 -95 -228 -104 -340 l-8 -92 -66 -22 c-195 -65 -334 -204 -391
-390 -27 -86 -29 -216 -4 -290 l16 -50 -27 -20 c-67 -49 -153 -141 -182 -194
-81 -153 -81 -323 0 -469 l30 -54 -51 -54 c-142 -151 -157 -385 -33 -524 47
-52 117 -94 191 -113 l51 -13 70 -142 c141 -285 361 -650 671 -1112 184 -274
214 -310 277 -341 91 -44 229 -24 301 44 13 12 61 85 107 162 309 524 669
1223 734 1427 11 32 18 38 67 54 122 38 230 153 254 271 30 142 -12 287 -113
387 l-53 53 29 51 c76 135 76 315 -1 455 -38 71 -120 148 -203 192 -66 35 -70
39 -64 64 13 53 17 228 6 283 -15 73 -68 180 -120 246 -73 92 -158 146 -401
253 -139 61 -180 158 -119 280 17 35 74 92 123 124 64 42 89 153 46 207 -49
63 -193 92 -376 76z m96 -206 c0 -5 -11 -19 -24 -31 -35 -33 -85 -138 -97
-206 -15 -80 -4 -157 31 -231 51 -106 143 -174 335 -248 139 -54 242 -149 285
-263 18 -49 21 -73 18 -153 -4 -84 -8 -102 -36 -154 -36 -66 -38 -84 -17 -127
17 -31 39 -43 112 -59 65 -15 156 -64 188 -102 49 -58 68 -113 63 -187 -5 -84
-28 -131 -96 -198 -42 -41 -55 -61 -58 -90 -7 -58 13 -83 101 -128 96 -48 135
-96 143 -173 8 -91 -29 -152 -114 -185 -22 -8 -101 -25 -175 -36 -438 -66
-1050 -98 -1536 -81 -285 10 -447 29 -496 57 -130 77 -87 259 80 334 70 32 93
59 93 107 0 28 -11 45 -64 101 -78 80 -105 135 -106 212 0 136 78 234 232 291
69 25 88 44 95 95 3 31 -2 47 -32 93 -45 70 -58 119 -53 200 12 164 154 295
362 335 95 18 110 26 126 65 10 25 11 42 2 82 -17 70 -15 124 7 210 49 192
170 334 355 418 86 39 276 75 276 52z m600 -2796 c0 -13 -103 -243 -113 -252
-22 -21 -420 -59 -782 -74 -223 -9 -620 0 -644 15 -10 6 -143 246 -139 250 2
1 102 -3 223 -8 344 -16 961 11 1320 58 120 15 135 16 135 11z m-240 -499 c0
-7 -6 -21 -14 -32 -7 -11 -37 -66 -65 -122 -29 -57 -55 -103 -57 -103 -3 0
-78 48 -167 106 -189 125 -192 116 38 134 124 10 203 19 258 29 4 0 7 -5 7
-12z m-961 -47 l56 -1 -80 -74 c-44 -41 -83 -75 -86 -75 -8 0 -99 144 -99 155
0 5 34 5 77 1 42 -3 101 -6 132 -6z m382 -182 l111 -73 -33 -28 c-79 -66 -318
-247 -327 -247 -9 0 -119 159 -124 180 -3 10 241 239 254 240 4 0 58 -33 119
-72z m326 -216 c13 -8 -221 -430 -262 -472 -36 -36 -68 -20 -137 70 -31 41
-56 78 -55 82 3 12 418 328 430 328 7 0 17 -4 24 -8z"/>
<path d="M5615 5593 c-35 -9 -77 -45 -91 -79 -63 -151 118 -272 231 -154 23
24 30 41 33 88 4 52 1 61 -24 91 -42 50 -92 68 -149 54z"/>
<path d="M4466 5529 c-37 -29 -56 -70 -56 -121 0 -142 185 -188 260 -65 39 64
14 162 -50 194 -41 21 -123 16 -154 -8z"/>
<path d="M5244 5318 c-12 -5 -32 -30 -45 -55 -13 -24 -35 -51 -50 -59 -60 -30
-136 -8 -159 46 -17 41 -46 60 -93 60 -49 0 -95 -24 -108 -57 -16 -43 14 -127
64 -177 123 -122 329 -128 455 -12 72 66 111 172 82 226 -18 34 -101 50 -146
28z"/>
</g>
</svg>
