<?xml version="1.0" standalone="no"?>
<!DOCTYPE svg PUBLIC "-//W3C//DTD SVG 20010904//EN"
 "http://www.w3.org/TR/2001/REC-SVG-20010904/DTD/svg10.dtd">
<svg version="1.0" xmlns="http://www.w3.org/2000/svg"
 width="1024.000000pt" height="1024.000000pt" viewBox="0 0 1024.000000 1024.000000"
 preserveAspectRatio="xMidYMid meet">
<metadata>
Created by potrace 1.16, written by Peter Selinger 2001-2019
</metadata>
<g transform="translate(0.000000,1024.000000) scale(0.100000,-0.100000)"
fill="#000000" stroke="none">
<path d="M2180 6565 l-25 -27 0 -241 c0 -321 26 -517 106 -797 59 -204 186
-477 307 -659 209 -316 524 -608 865 -805 744 -429 1617 -509 2467 -225 533
178 1030 502 1366 892 404 469 626 1012 660 1613 8 147 2 188 -33 211 -23 15
-115 17 -1047 24 -1857 14 -3604 28 -4126 35 l-515 6 -25 -27z m223 -317 c10
-292 43 -477 128 -727 79 -229 236 -504 397 -694 410 -484 993 -783 1682 -862
199 -23 587 -16 775 14 331 54 624 146 906 286 162 80 239 125 374 220 611
428 987 1079 1022 1768 l6 127 39 0 39 0 -5 -52 c-3 -29 -8 -84 -11 -123 -23
-274 -106 -566 -240 -840 -134 -273 -264 -454 -490 -681 -462 -465 -1088 -770
-1760 -858 -929 -122 -1894 249 -2445 939 -330 414 -510 948 -510 1512 l0 153
43 0 44 0 6 -182z m2142 162 c660 -6 1602 -13 2093 -17 l892 -6 0 -83 c0 -240
-90 -593 -213 -839 -183 -367 -511 -717 -879 -941 -611 -372 -1363 -502 -2078
-358 -69 14 -190 47 -270 73 -316 106 -543 232 -790 439 -406 339 -672 845
-730 1384 -12 111 -14 351 -3 362 4 4 181 5 393 1 212 -3 925 -10 1585 -15z"/>
<path d="M5850 6139 c-66 -91 -91 -223 -50 -267 49 -52 147 -50 190 5 56 71
-13 303 -89 303 -13 0 -33 -16 -51 -41z"/>
<path d="M4592 6105 c-38 -31 -82 -131 -89 -200 -5 -52 -4 -56 30 -90 29 -29
42 -35 76 -35 52 0 92 20 111 56 32 59 4 206 -50 264 -34 36 -40 37 -78 5z"/>
<path d="M3733 5968 c-56 -62 -98 -192 -82 -253 24 -88 171 -97 215 -14 31 61
0 205 -58 266 -27 29 -49 29 -75 1z"/>
<path d="M5342 5814 c-27 -19 -78 -117 -91 -177 -19 -84 16 -141 93 -154 46
-7 101 19 122 58 31 61 0 205 -58 266 -25 27 -36 28 -66 7z"/>
<path d="M6377 5803 c-37 -40 -80 -139 -85 -199 -4 -46 -1 -55 26 -85 28 -31
35 -34 86 -34 49 0 59 4 88 33 29 29 33 38 32 90 0 72 -27 152 -64 192 -35 37
-49 38 -83 3z"/>
<path d="M4144 5545 c-61 -65 -95 -202 -64 -260 7 -14 32 -32 57 -41 40 -16
46 -16 89 1 35 13 49 25 60 51 19 45 18 100 -3 164 -17 53 -69 120 -93 120 -7
0 -27 -16 -46 -35z"/>
<path d="M5782 5385 c-44 -37 -86 -138 -86 -208 -1 -52 2 -61 27 -82 57 -50
144 -40 184 21 37 57 11 202 -48 262 -17 18 -35 32 -39 32 -5 0 -22 -11 -38
-25z"/>
<path d="M4866 5327 c-53 -70 -87 -182 -72 -242 14 -54 112 -83 175 -50 57 29
72 135 31 230 -42 99 -89 121 -134 62z"/>
</g>
</svg>
