<?xml version="1.0" standalone="no"?>
<!DOCTYPE svg PUBLIC "-//W3C//DTD SVG 20010904//EN"
 "http://www.w3.org/TR/2001/REC-SVG-20010904/DTD/svg10.dtd">
<svg version="1.0" xmlns="http://www.w3.org/2000/svg"
 width="1024.000000pt" height="1024.000000pt" viewBox="0 0 1024.000000 1024.000000"
 preserveAspectRatio="xMidYMid meet">
<metadata>
Created by potrace 1.16, written by Peter Selinger 2001-2019
</metadata>
<g transform="translate(0.000000,1024.000000) scale(0.100000,-0.100000)"
fill="#000000" stroke="none">
<path d="M4805 7298 c-111 -11 -350 -58 -469 -93 -330 -96 -636 -259 -886
-472 -329 -282 -571 -684 -635 -1058 -25 -147 -9 -242 50 -301 14 -14 25 -27
23 -28 -2 -2 -20 -13 -40 -25 -78 -47 -118 -119 -118 -213 0 -75 17 -114 68
-160 45 -41 85 -60 169 -82 30 -8 57 -17 60 -19 2 -3 -3 -45 -13 -93 -22 -120
-12 -207 41 -326 5 -13 2 -20 -11 -24 -178 -61 -249 -156 -200 -269 l13 -30
-71 -46 c-156 -100 -325 -339 -326 -459 0 -51 32 -97 75 -109 50 -13 108 2
283 76 9 4 12 -13 13 -63 0 -38 4 -78 8 -89 6 -14 -1 -33 -21 -65 -46 -72 -69
-162 -69 -265 0 -286 135 -521 365 -634 237 -118 710 -173 1611 -187 689 -11
1447 25 1850 87 153 24 306 61 385 93 161 66 302 212 365 380 84 224 68 450
-41 564 -24 25 -42 48 -39 50 2 3 42 -8 87 -23 218 -72 309 -29 295 140 -12
138 -76 291 -160 382 -31 34 -95 86 -145 119 -2 1 10 23 27 49 16 25 32 64 36
86 9 50 -16 127 -53 162 -32 30 -121 73 -174 82 -43 8 -43 8 -22 83 12 41 15
80 12 144 l-5 87 51 17 c82 27 119 49 168 102 72 77 93 167 63 269 -19 65 -62
123 -125 170 l-51 38 40 35 c61 53 84 108 89 209 8 157 -40 335 -144 545 -165
331 -436 612 -798 831 -282 170 -683 299 -1040 334 -128 13 -462 12 -591 -1z
m650 -144 c693 -85 1298 -461 1620 -1005 63 -107 103 -199 141 -325 21 -70 27
-111 28 -195 1 -122 -6 -137 -81 -171 -79 -35 -423 -51 -1478 -70 -881 -15
-2283 8 -2583 42 -95 11 -127 24 -156 63 -19 25 -19 33 -9 115 66 507 481
1034 1031 1311 266 134 609 226 937 252 130 10 398 2 550 -17z m-1905 -1884
c157 -7 688 -14 1180 -17 873 -5 1407 2 2034 29 l284 11 75 -36 c181 -85 238
-212 138 -307 -57 -54 -92 -62 -321 -69 l-205 -6 -95 -47 c-121 -59 -155 -68
-261 -68 -85 0 -111 5 -359 74 -209 58 -327 46 -618 -63 -178 -66 -236 -81
-326 -81 -89 0 -193 29 -369 104 -208 88 -252 100 -372 100 -105 -1 -148 -9
-330 -67 -89 -29 -113 -32 -220 -32 -134 0 -147 4 -245 81 -96 75 -131 85
-319 94 -184 9 -276 30 -331 76 -25 21 -30 33 -30 69 0 57 38 96 142 145 77
36 77 36 170 28 51 -4 221 -12 378 -18z m-165 -454 c18 -8 57 -33 87 -57 143
-114 316 -133 555 -63 181 54 228 64 301 64 95 0 163 -18 301 -80 199 -88 282
-112 408 -118 145 -6 197 5 413 85 272 102 371 110 569 48 181 -57 243 -69
356 -69 127 -1 184 13 315 77 70 34 97 42 155 45 39 1 90 -1 115 -5 41 -8 46
-12 58 -48 35 -103 -27 -236 -129 -279 -95 -40 -696 -102 -1209 -126 -279 -13
-1165 -13 -1435 0 -462 22 -831 60 -941 96 -72 24 -113 59 -141 121 -33 72
-40 152 -19 232 9 36 21 70 27 77 22 26 151 26 214 0z m3730 -507 c73 -13 110
-32 131 -64 14 -21 14 -30 4 -55 -24 -59 -91 -86 -275 -114 -597 -90 -1878
-113 -2835 -51 -409 27 -836 67 -1018 95 -79 13 -156 47 -160 73 -5 27 24 54
85 77 64 24 117 25 167 5 115 -48 400 -84 946 -117 273 -17 1336 -17 1615 0
612 37 1140 103 1225 153 20 11 45 11 115 -2z m-3949 -328 c293 -43 818 -87
1349 -113 330 -16 1336 -16 1620 0 433 25 821 63 979 97 l69 15 60 -33 c84
-44 150 -115 198 -211 43 -88 70 -199 52 -217 -13 -13 -26 -10 -276 80 -222
80 -307 101 -407 101 -96 0 -161 -27 -246 -100 -95 -82 -111 -84 -229 -26
-119 58 -177 71 -245 57 -73 -16 -103 -34 -192 -117 -97 -91 -114 -94 -190
-29 -99 83 -134 100 -213 100 -87 -1 -132 -23 -260 -125 -106 -85 -156 -112
-207 -114 -48 -1 -76 20 -168 130 -173 205 -225 239 -365 239 -69 -1 -104 -6
-150 -24 -224 -86 -239 -87 -325 -15 -150 125 -263 132 -495 29 -55 -25 -111
-45 -123 -45 -32 0 -71 22 -107 60 -96 102 -219 106 -420 15 -116 -53 -249
-105 -268 -105 -17 0 -16 5 13 58 73 129 167 227 277 290 45 25 66 32 93 28
19 -3 98 -14 176 -25z m2 -325 c15 -8 45 -33 67 -56 22 -23 58 -51 80 -61 72
-33 89 -29 330 75 43 18 78 26 123 26 71 0 96 -10 167 -69 119 -98 204 -105
385 -31 85 35 117 44 170 44 87 1 115 -19 255 -181 92 -106 120 -133 173 -160
127 -66 198 -43 442 147 72 55 125 75 162 61 12 -5 52 -33 88 -62 150 -121
217 -118 360 16 122 114 164 121 309 48 156 -78 232 -71 351 32 81 71 128 89
214 82 76 -6 232 -50 255 -72 12 -12 12 -21 3 -53 -16 -52 -84 -114 -156 -141
-113 -42 -420 -82 -861 -113 -254 -17 -1443 -18 -1720 0 -737 47 -1067 82
-1235 132 -140 42 -211 159 -169 280 21 58 141 91 207 56z m4041 -394 c48 -68
52 -201 10 -337 -67 -219 -199 -339 -441 -400 -345 -87 -1090 -132 -2017 -122
-922 10 -1353 56 -1596 172 -174 83 -285 286 -285 519 0 68 5 102 20 134 10
23 22 42 25 42 4 0 19 -9 34 -19 132 -94 575 -154 1486 -203 304 -16 1301 -16
1565 0 695 42 1007 100 1112 206 41 42 61 43 87 8z"/>
<path d="M4669 7031 c-55 -56 -29 -153 45 -167 95 -17 155 98 87 167 -22 21
-39 29 -66 29 -27 0 -44 -8 -66 -29z"/>
<path d="M5729 6997 c-47 -36 -52 -105 -10 -148 57 -56 154 -26 162 51 7 69
-28 110 -93 110 -24 0 -50 -6 -59 -13z"/>
<path d="M5165 6738 c-33 -19 -44 -41 -45 -85 0 -63 34 -98 95 -98 39 0 51 5
71 28 55 64 15 167 -65 167 -20 0 -45 -6 -56 -12z"/>
<path d="M3875 6705 c-19 -18 -25 -35 -25 -70 0 -63 31 -95 94 -95 37 0 48 5
70 31 35 41 35 96 1 133 -34 36 -105 37 -140 1z"/>
<path d="M4535 6487 c-18 -15 -28 -36 -32 -64 -5 -37 -2 -45 25 -73 50 -49
126 -40 157 20 23 44 19 78 -14 111 -38 37 -97 40 -136 6z"/>
<path d="M6337 6329 c-31 -18 -48 -71 -36 -112 30 -108 189 -80 189 33 0 57
-33 90 -92 90 -24 0 -51 -5 -61 -11z"/>
<path d="M5497 6299 c-51 -30 -58 -116 -11 -160 39 -37 98 -33 135 9 38 42 39
89 3 131 -21 26 -33 31 -67 31 -23 0 -50 -5 -60 -11z"/>
<path d="M3994 5970 c-33 -13 -54 -50 -54 -96 0 -35 5 -47 31 -68 42 -35 89
-35 130 2 26 24 32 36 32 72 0 74 -69 118 -139 90z"/>
<path d="M4973 5900 c-25 -10 -53 -58 -53 -90 0 -33 26 -75 55 -88 40 -18 71
-14 103 13 91 77 7 210 -105 165z"/>
<path d="M5939 5881 c-48 -49 -35 -126 26 -156 42 -19 53 -19 92 5 37 22 54
69 41 115 -19 70 -105 89 -159 36z"/>
</g>
</svg>
