<?xml version="1.0" standalone="no"?>
<!DOCTYPE svg PUBLIC "-//W3C//DTD SVG 20010904//EN"
 "http://www.w3.org/TR/2001/REC-SVG-20010904/DTD/svg10.dtd">
<svg version="1.0" xmlns="http://www.w3.org/2000/svg"
 width="1024.000000pt" height="1024.000000pt" viewBox="0 0 1024.000000 1024.000000"
 preserveAspectRatio="xMidYMid meet">
<metadata>
Created by potrace 1.16, written by Peter Selinger 2001-2019
</metadata>
<g transform="translate(0.000000,1024.000000) scale(0.100000,-0.100000)"
fill="#000000" stroke="none">
<path d="M4793 7269 c-115 -15 -189 -64 -235 -157 -22 -44 -23 -58 -23 -243
l0 -196 33 -53 c29 -47 32 -55 18 -65 -8 -5 -48 -31 -88 -57 -171 -109 -312
-260 -389 -416 -99 -202 -114 -359 -114 -1212 0 -609 15 -1098 36 -1225 6 -33
26 -92 45 -132 58 -121 208 -237 340 -262 328 -62 1086 -62 1418 -1 83 16 174
68 249 142 74 72 116 150 136 248 47 234 54 1841 10 2170 -37 270 -204 515
-473 691 -53 34 -96 66 -96 70 0 3 7 12 16 20 8 7 25 31 37 53 20 38 22 55 22
226 0 167 -2 189 -21 231 -48 104 -117 151 -247 168 -90 13 -581 13 -674 0z
m604 -108 c125 -11 168 -30 203 -92 22 -39 25 -58 28 -169 5 -153 -6 -201 -58
-252 l-38 -38 -393 0 c-383 0 -394 1 -423 21 -68 47 -71 56 -71 245 l0 171 29
37 c37 49 81 67 186 76 122 10 418 11 537 1z m219 -706 c187 -105 348 -265
430 -426 33 -67 72 -185 63 -194 -17 -16 -399 -52 -709 -67 -201 -9 -325 -9
-543 1 -322 13 -676 47 -708 66 -14 9 31 149 72 220 86 150 228 290 396 385
75 43 82 45 183 51 58 4 250 5 428 4 l323 -4 65 -36z m-1311 -759 c276 -34
407 -41 815 -41 420 0 575 8 857 44 76 10 141 15 145 12 15 -13 30 -742 23
-1127 -4 -215 -10 -396 -14 -401 -12 -19 -290 -60 -576 -84 -185 -16 -638 -16
-845 0 -165 12 -410 42 -526 63 l-62 11 -6 57 c-16 137 -8 1266 10 1438 5 51
7 53 32 48 15 -3 81 -12 147 -20z m1821 -1804 c-11 -266 -36 -345 -133 -432
-81 -72 -149 -98 -303 -114 -347 -38 -751 -39 -1115 -1 -172 18 -235 41 -324
121 -93 83 -112 154 -125 447 l-7 137 23 0 c13 0 61 -7 108 -15 328 -56 842
-79 1225 -55 192 12 494 46 579 65 33 7 65 13 70 14 5 1 6 -69 2 -167z"/>
<path d="M4752 7047 c-8 -9 -52 -235 -52 -269 0 -15 33 -38 55 -38 37 0 51 33
70 168 14 98 15 125 5 137 -15 18 -64 20 -78 2z"/>
<path d="M4980 7040 c-16 -16 -20 -33 -20 -89 0 -37 -3 -95 -6 -128 -7 -66 7
-93 51 -93 43 0 53 33 57 173 3 118 1 130 -16 143 -27 19 -42 18 -66 -6z"/>
<path d="M5215 7044 c-14 -14 -15 -34 -9 -143 7 -131 19 -171 52 -171 10 0 27
6 37 14 17 12 18 24 12 152 -5 115 -9 141 -24 151 -23 18 -48 16 -68 -3z"/>
<path d="M5442 7048 c-7 -7 -12 -25 -12 -41 0 -41 29 -217 40 -244 12 -29 60
-31 83 -5 16 17 15 27 -4 138 -25 151 -31 164 -67 164 -15 0 -33 -5 -40 -12z"/>
<path d="M4780 6331 c-147 -47 -268 -150 -336 -283 -37 -74 -29 -108 28 -108
23 0 32 8 52 48 60 119 154 200 287 250 82 30 105 58 74 92 -22 24 -34 24
-105 1z"/>
<path d="M5891 3901 c-8 -6 -18 -37 -22 -75 -24 -198 -147 -265 -517 -282
-139 -7 -154 -9 -168 -28 -18 -27 -18 -32 6 -56 17 -17 33 -20 118 -20 426 0
629 114 658 367 6 54 4 63 -15 82 -23 23 -38 26 -60 12z"/>
<path d="M4401 3853 c-55 -38 14 -223 110 -293 49 -35 93 -39 109 -11 17 33
11 49 -27 75 -45 31 -89 95 -104 150 -24 89 -46 109 -88 79z"/>
</g>
</svg>
