<?xml version="1.0" standalone="no"?>
<!DOCTYPE svg PUBLIC "-//W3C//DTD SVG 20010904//EN"
 "http://www.w3.org/TR/2001/REC-SVG-20010904/DTD/svg10.dtd">
<svg version="1.0" xmlns="http://www.w3.org/2000/svg"
 width="1024.000000pt" height="1024.000000pt" viewBox="0 0 1024.000000 1024.000000"
 preserveAspectRatio="xMidYMid meet">
<metadata>
Created by potrace 1.16, written by Peter Selinger 2001-2019
</metadata>
<g transform="translate(0.000000,1024.000000) scale(0.100000,-0.100000)"
fill="#000000" stroke="none">
<path d="M3151 8885 c-177 -50 -291 -175 -308 -341 -11 -104 -5 -121 380
-1019 293 -685 398 -920 419 -937 52 -45 145 0 135 65 -2 18 -35 100 -72 182
-170 381 -655 1518 -684 1604 -14 43 -14 111 0 148 27 73 140 143 230 143 50
0 103 -24 123 -55 16 -24 97 -214 374 -875 476 -1136 459 -1100 513 -1100 46
0 88 39 89 81 0 15 -34 107 -76 205 -41 99 -152 361 -246 584 -165 392 -301
715 -415 985 -31 72 -66 151 -78 176 -28 55 -92 114 -152 141 -59 26 -164 32
-232 13z"/>
<path d="M4840 7113 c-129 -8 -342 -34 -360 -43 -46 -25 -54 -94 -15 -130 29
-27 54 -28 214 -10 281 32 768 31 1046 -1 396 -45 714 -147 849 -270 94 -86
109 -153 53 -235 -126 -182 -548 -309 -1267 -381 -222 -22 -857 -25 -1055 -5
-530 54 -873 139 -1016 253 -54 43 -72 81 -67 140 6 60 40 106 119 162 32 23
63 54 68 69 27 76 -46 141 -118 103 -45 -23 -159 -132 -186 -179 -33 -56 -62
-170 -77 -301 -16 -144 -16 -667 0 -855 51 -578 153 -1109 328 -1710 169 -579
186 -645 228 -871 80 -434 45 -768 -120 -1144 -68 -154 -58 -228 43 -327 162
-159 539 -293 1012 -360 135 -19 200 -22 486 -23 217 0 366 5 435 13 409 52
683 123 915 237 194 96 287 181 316 289 15 57 6 96 -45 195 -148 287 -209 540
-209 866 0 312 30 493 188 1127 194 779 267 1232 296 1828 9 185 9 290 0 453
-23 419 -61 591 -159 720 -152 200 -574 341 -1161 387 -123 9 -606 11 -741 3z
m1887 -950 c12 -135 9 -720 -5 -868 -50 -510 -118 -885 -266 -1481 -172 -691
-206 -891 -206 -1220 0 -340 69 -630 219 -921 37 -71 47 -101 41 -114 -38 -71
-235 -184 -430 -248 -493 -160 -1181 -201 -1710 -100 -245 47 -438 108 -595
187 -104 53 -195 125 -195 153 0 7 16 46 35 87 126 265 183 554 172 872 -11
300 -50 487 -241 1156 -206 724 -289 1134 -348 1724 -13 135 -18 743 -6 756 5
4 16 0 25 -8 10 -9 45 -29 78 -46 337 -167 1067 -265 1747 -234 791 37 1364
164 1623 361 22 17 43 31 47 31 3 0 10 -39 15 -87z"/>
<path d="M3479 5729 c-46 -17 -52 -49 -39 -210 22 -274 75 -650 136 -964 53
-272 136 -641 149 -662 31 -47 116 -36 142 18 11 23 6 56 -36 245 -70 312
-126 601 -161 838 -32 218 -70 566 -70 640 0 74 -57 119 -121 95z"/>
<path d="M4823 5560 c-12 -5 -29 -20 -39 -34 -14 -23 -15 -34 -4 -92 32 -169
-42 -323 -189 -392 -63 -29 -170 -40 -240 -24 -71 17 -120 -12 -121 -71 0 -16
4 -37 10 -47 30 -56 236 -75 361 -32 164 56 282 176 331 335 17 58 20 86 16
185 -6 134 -10 147 -49 167 -32 17 -44 18 -76 5z"/>
<path d="M5751 5277 c-48 -28 -63 -85 -36 -137 19 -37 43 -50 90 -50 81 0 126
103 72 165 -27 32 -90 42 -126 22z"/>
<path d="M5492 4176 c-125 -41 -223 -116 -292 -222 -63 -96 -84 -175 -78 -291
6 -110 31 -167 108 -244 239 -240 705 -88 812 264 17 56 20 86 16 156 -9 152
-81 261 -215 324 -59 27 -79 31 -172 34 -91 3 -116 0 -179 -21z m246 -151
c102 -30 156 -105 156 -215 1 -123 -83 -242 -214 -304 -57 -27 -76 -31 -150
-31 -68 0 -93 5 -126 22 -159 84 -163 276 -10 428 55 55 103 82 181 101 68 17
103 17 163 -1z"/>
<path d="M4461 3796 c-59 -33 -67 -102 -17 -152 50 -50 121 -42 152 17 48 93
-44 185 -135 135z"/>
<path d="M4480 2859 c-71 -14 -185 -75 -238 -128 -56 -56 -115 -164 -131 -239
-6 -29 -11 -91 -11 -138 0 -77 2 -87 25 -109 30 -31 82 -33 113 -5 26 25 24
13 26 130 2 80 7 104 29 152 47 98 149 168 266 183 31 4 61 15 72 26 28 28 25
84 -6 114 -26 27 -61 30 -145 14z"/>
<path d="M5799 2531 c-63 -64 -15 -171 77 -171 41 0 94 59 94 105 0 53 -44 95
-100 95 -33 0 -48 -6 -71 -29z"/>
<path d="M6000 1844 c-177 -69 -480 -132 -750 -155 -169 -15 -552 -6 -710 16
-148 20 -293 50 -400 83 -121 36 -163 39 -190 12 -30 -30 -25 -96 10 -122 57
-42 385 -120 625 -150 168 -20 646 -17 810 6 331 45 732 154 770 209 23 32 19
80 -8 105 -31 29 -75 28 -157 -4z"/>
<path d="M4890 6654 c-25 -2 -103 -9 -175 -14 -329 -28 -689 -97 -970 -187
-146 -47 -171 -59 -185 -93 -21 -51 12 -110 62 -110 16 0 93 20 171 44 261 81
571 142 902 178 193 21 824 18 1000 -5 187 -25 335 -52 478 -87 143 -36 151
-36 182 -5 33 32 34 83 1 114 -42 40 -343 105 -676 146 -119 15 -679 28 -790
19z"/>
</g>
</svg>
