<?xml version="1.0" standalone="no"?>
<!DOCTYPE svg PUBLIC "-//W3C//DTD SVG 20010904//EN"
 "http://www.w3.org/TR/2001/REC-SVG-20010904/DTD/svg10.dtd">
<svg version="1.0" xmlns="http://www.w3.org/2000/svg"
 width="1024.000000pt" height="1024.000000pt" viewBox="0 0 1024.000000 1024.000000"
 preserveAspectRatio="xMidYMid meet">
<metadata>
Created by potrace 1.16, written by Peter Selinger 2001-2019
</metadata>
<g transform="translate(0.000000,1024.000000) scale(0.100000,-0.100000)"
fill="#000000" stroke="none">
<path d="M4711 7173 c-99 -35 -197 -182 -236 -353 -9 -41 -18 -80 -20 -85 -1
-6 -32 -8 -81 -4 -154 11 -346 -19 -461 -72 -128 -61 -145 -127 -68 -276 25
-48 42 -90 37 -93 -4 -4 -41 -19 -83 -34 -265 -94 -281 -245 -34 -337 33 -12
70 -26 83 -30 l23 -9 -29 -42 c-60 -87 -108 -196 -144 -323 -26 -92 -35 -345
-18 -482 50 -400 258 -848 575 -1238 155 -190 411 -421 578 -520 119 -71 176
-89 282 -90 80 0 97 4 155 31 93 44 172 108 299 239 339 353 628 870 751 1341
62 240 80 529 46 739 -25 151 -93 335 -157 426 -10 14 -21 38 -25 55 -19 79
-74 150 -160 205 -35 23 -64 43 -64 44 0 1 26 19 58 40 87 58 168 144 181 192
34 125 -65 189 -309 198 -75 3 -104 8 -102 17 57 220 6 311 -166 295 -90 -9
-207 -40 -323 -88 -52 -21 -98 -39 -101 -39 -3 0 -18 19 -31 43 -42 69 -110
145 -173 193 -94 71 -189 90 -283 57z m158 -147 c48 -25 156 -150 210 -244 29
-50 59 -93 66 -96 7 -2 60 20 118 49 119 62 258 111 340 121 56 7 57 6 57 -18
0 -14 -13 -72 -30 -129 -16 -57 -30 -111 -30 -120 0 -38 27 -44 204 -44 165 0
246 -9 246 -25 0 -10 -162 -130 -220 -162 l-45 -26 -115 25 c-103 23 -139 26
-345 26 -190 1 -256 -3 -383 -21 -369 -55 -720 -176 -899 -312 -49 -36 -54
-38 -90 -29 -108 29 -173 51 -173 58 0 13 107 58 195 81 150 41 159 65 65 194
-32 45 -66 98 -75 119 -14 35 -14 37 7 51 33 21 123 43 236 57 94 11 179 6
318 -17 45 -8 60 13 68 93 15 147 66 282 131 348 29 28 43 35 76 35 22 0 52
-6 68 -14z m766 -809 c177 -42 271 -84 345 -153 60 -56 80 -98 57 -121 -50
-50 -351 -7 -580 83 -98 39 -163 52 -178 37 -5 -5 -18 -43 -30 -84 -44 -159
-110 -239 -197 -239 -81 0 -207 81 -291 186 -64 81 -82 82 -154 16 -241 -222
-599 -406 -665 -340 -20 20 -14 81 14 136 87 174 327 320 680 412 100 26 358
73 459 84 89 9 481 -3 540 -17z m-127 -367 c258 -79 481 -97 583 -46 l30 15
24 -52 c63 -143 89 -287 89 -492 0 -165 -10 -238 -55 -425 -117 -476 -424
-1010 -780 -1356 -162 -157 -253 -191 -383 -145 -200 70 -555 399 -787 731
-313 446 -474 999 -397 1363 5 26 12 47 15 47 3 0 16 -9 30 -19 115 -91 440
37 765 300 l26 22 74 -62 c198 -167 388 -185 518 -50 41 43 95 134 114 193 4
11 12 16 21 12 9 -3 59 -19 113 -36z"/>
<path d="M5705 5221 c-49 -30 -68 -58 -73 -109 -6 -66 19 -117 69 -142 96 -49
199 2 215 105 17 117 -113 207 -211 146z"/>
<path d="M5244 5093 c-43 -96 -89 -133 -169 -133 -63 0 -117 30 -151 85 -16
25 -36 45 -44 46 -97 8 -127 -54 -71 -143 74 -117 228 -167 372 -121 41 13 69
32 114 78 46 45 65 73 78 114 33 103 19 131 -63 131 -40 0 -41 -1 -66 -57z"/>
<path d="M4353 5079 c-75 -15 -117 -66 -117 -140 0 -83 58 -141 143 -142 42
-1 57 4 88 30 44 34 67 92 58 141 -14 73 -97 127 -172 111z"/>
<path d="M4356 4431 c-23 -26 -36 -76 -36 -144 0 -70 10 -92 50 -105 36 -13
86 1 100 28 24 44 4 181 -31 219 -24 26 -60 27 -83 2z"/>
<path d="M5413 4382 c-35 -22 -63 -158 -44 -215 22 -67 115 -71 149 -7 18 34
10 125 -16 184 -18 39 -25 46 -49 46 -15 0 -33 -4 -40 -8z"/>
<path d="M4738 4049 c-23 -13 -48 -100 -48 -166 0 -65 30 -103 80 -103 50 0
80 38 80 100 0 130 -50 206 -112 169z"/>
<path d="M5098 3763 c-24 -27 -40 -87 -41 -155 -2 -54 1 -62 26 -84 37 -32 81
-31 114 2 23 23 25 31 21 97 -5 95 -31 151 -74 155 -19 2 -36 -3 -46 -15z"/>
</g>
</svg>
