<?xml version="1.0" standalone="no"?>
<!DOCTYPE svg PUBLIC "-//W3C//DTD SVG 20010904//EN"
 "http://www.w3.org/TR/2001/REC-SVG-20010904/DTD/svg10.dtd">
<svg version="1.0" xmlns="http://www.w3.org/2000/svg"
 width="1024.000000pt" height="1024.000000pt" viewBox="0 0 1024.000000 1024.000000"
 preserveAspectRatio="xMidYMid meet">
<metadata>
Created by potrace 1.16, written by Peter Selinger 2001-2019
</metadata>
<g transform="translate(0.000000,1024.000000) scale(0.100000,-0.100000)"
fill="#000000" stroke="none">
<path d="M6760 6466 c-121 -16 -167 -26 -304 -68 -178 -54 -317 -128 -619
-326 -88 -57 -194 -121 -236 -142 -305 -152 -655 -189 -1275 -134 -249 23
-608 22 -751 0 -183 -29 -254 -45 -400 -94 -241 -79 -485 -215 -657 -366 -280
-246 -448 -557 -488 -910 -23 -195 16 -397 114 -597 66 -132 111 -195 226
-310 207 -207 448 -331 770 -396 102 -20 165 -26 345 -30 194 -4 260 -1 565
27 287 27 407 33 710 37 366 5 415 3 1000 -37 437 -30 681 -25 985 21 498 74
882 253 1155 535 393 408 548 1050 404 1684 -116 511 -470 915 -924 1053 -187
57 -428 78 -620 53z m465 -115 c414 -90 720 -347 895 -749 106 -245 154 -560
130 -851 -27 -326 -111 -582 -271 -822 -76 -113 -252 -293 -359 -366 -429
-292 -1022 -405 -1825 -348 -854 61 -1041 60 -1845 -5 -311 -26 -623 -24 -775
4 -117 22 -300 83 -406 136 -325 163 -557 449 -624 769 -66 318 21 645 254
950 183 239 502 447 852 554 321 99 594 117 1109 71 257 -23 650 -23 795 0
299 47 465 115 770 317 91 60 209 134 263 164 161 91 410 175 577 195 112 14
357 4 460 -19z"/>
<path d="M2937 5013 c-17 -17 -5 -74 26 -119 39 -58 110 -105 171 -111 42 -5
46 -4 56 21 20 54 -42 150 -123 191 -48 23 -115 33 -130 18z"/>
<path d="M2399 4811 c-71 -74 -101 -192 -61 -241 18 -22 19 -22 50 -6 63 33
122 146 122 236 0 75 -45 79 -111 11z"/>
<path d="M2720 4665 c-10 -12 -9 -20 4 -40 20 -31 40 -32 60 -3 30 42 -31 83
-64 43z"/>
<path d="M3212 4548 c-34 -34 6 -90 48 -68 35 19 20 80 -20 80 -9 0 -21 -5
-28 -12z"/>
<path d="M2888 4429 c-24 -13 -23 -42 1 -63 38 -34 86 8 61 54 -12 22 -35 25
-62 9z"/>
<path d="M2330 4281 c-20 -50 9 -129 74 -196 46 -47 60 -55 90 -55 29 0 39 5
47 24 17 37 -12 123 -62 180 -70 79 -128 97 -149 47z"/>
<path d="M3266 4117 c-26 -19 -18 -71 12 -75 13 -2 30 2 38 8 20 18 17 57 -5
70 -25 13 -24 13 -45 -3z"/>
<path d="M2840 4001 c-16 -31 4 -63 37 -59 34 4 52 32 37 56 -16 26 -60 28
-74 3z"/>
<path d="M1810 4922 c-51 -25 -80 -74 -80 -136 1 -28 7 -62 15 -76 21 -37 18
-49 -12 -56 -85 -18 -113 -47 -113 -117 0 -30 7 -53 21 -71 12 -15 20 -28 18
-30 -2 -1 -19 -8 -37 -16 -73 -29 -103 -110 -67 -179 18 -37 89 -71 143 -71
23 0 42 -2 42 -4 0 -2 -16 -30 -35 -62 -44 -73 -48 -132 -10 -169 46 -47 113
-22 219 77 61 59 67 67 57 87 -20 37 -52 24 -150 -61 -68 -59 -91 -46 -52 30
22 42 55 75 124 121 47 32 62 66 33 77 -8 3 -55 -1 -103 -9 -101 -18 -164 -11
-196 21 -19 20 -19 22 -4 46 28 43 84 52 185 33 85 -16 87 -16 107 3 30 30 11
48 -78 77 -159 50 -200 143 -64 143 35 0 54 -7 90 -35 52 -40 81 -44 97 -15 9
17 2 29 -54 89 -74 79 -110 142 -100 174 23 77 125 87 205 19 35 -29 61 -22
67 17 11 75 -175 140 -268 93z"/>
</g>
</svg>
