<?xml version="1.0" standalone="no"?>
<!DOCTYPE svg PUBLIC "-//W3C//DTD SVG 20010904//EN"
 "http://www.w3.org/TR/2001/REC-SVG-20010904/DTD/svg10.dtd">
<svg version="1.0" xmlns="http://www.w3.org/2000/svg"
 width="1024.000000pt" height="1024.000000pt" viewBox="0 0 1024.000000 1024.000000"
 preserveAspectRatio="xMidYMid meet">
<metadata>
Created by potrace 1.16, written by Peter Selinger 2001-2019
</metadata>
<g transform="translate(0.000000,1024.000000) scale(0.100000,-0.100000)"
fill="#000000" stroke="none">
<path d="M4658 7603 c-46 -54 -49 -152 -8 -280 36 -113 38 -186 9 -316 -32
-142 -12 -247 46 -247 33 0 61 41 46 69 -16 29 -14 70 10 174 27 120 22 240
-15 347 -30 87 -33 145 -9 194 16 34 16 37 -2 56 -22 25 -57 26 -77 3z"/>
<path d="M4014 7146 c-16 -12 -20 -29 -23 -100 l-3 -86 58 -123 59 -122 0
-191 0 -190 28 -43 c25 -37 32 -42 60 -39 43 4 60 47 31 79 -17 20 -19 35 -16
190 4 198 -4 238 -76 369 -45 83 -46 87 -44 167 2 72 -1 84 -17 93 -26 13 -33
13 -57 -4z"/>
<path d="M5123 6838 c-72 -79 -97 -209 -69 -359 30 -158 19 -225 -49 -300 -19
-22 -35 -43 -35 -47 0 -19 33 -52 54 -52 27 0 87 60 117 119 31 60 37 185 15
300 -9 46 -16 104 -16 130 0 49 26 117 53 140 20 16 22 62 5 79 -19 19 -53 14
-75 -10z"/>
<path d="M4453 6538 c-30 -56 -23 -149 16 -238 66 -145 72 -203 41 -340 -33
-146 -25 -239 25 -262 21 -9 28 -8 44 6 17 16 19 27 14 87 -4 50 -1 85 12 131
12 41 19 96 19 158 0 98 -4 112 -75 296 -22 57 -22 66 -10 113 15 61 5 81 -40
81 -22 0 -33 -8 -46 -32z"/>
<path d="M4860 5931 c-7 -15 -3 -36 21 -93 29 -68 31 -79 26 -155 -5 -67 -3
-86 10 -98 8 -9 23 -15 31 -13 32 6 43 48 39 153 -3 89 -7 107 -35 163 -26 50
-37 62 -57 62 -14 0 -29 -8 -35 -19z"/>
<path d="M3985 5705 c-455 -63 -787 -202 -862 -362 -26 -56 -26 -517 0 -678
58 -349 179 -663 361 -933 49 -71 72 -114 64 -116 -7 -2 -67 -16 -133 -31
-304 -69 -533 -192 -594 -318 -14 -29 -21 -63 -21 -100 0 -117 69 -198 244
-289 249 -128 634 -217 1146 -265 228 -21 812 -24 1030 -5 554 49 910 127
1178 259 124 62 198 120 240 192 35 60 38 155 5 217 -31 58 -117 132 -215 184
-76 40 -80 44 -57 53 136 50 308 155 431 261 355 305 494 811 316 1148 -38 72
-128 165 -194 200 -143 77 -340 78 -487 1 -28 -15 -55 -29 -58 -31 -3 -1 -8
46 -11 105 -3 65 -12 123 -21 146 -38 90 -196 194 -387 255 -170 54 -422 104
-592 118 -92 7 -113 -2 -106 -48 5 -34 39 -45 217 -68 450 -59 781 -200 781
-332 0 -96 -246 -217 -572 -282 -291 -59 -468 -76 -843 -83 -433 -8 -757 17
-1069 83 -326 69 -566 190 -566 286 0 45 82 122 180 170 135 65 378 131 585
158 180 24 179 24 192 50 10 20 10 29 -1 45 -17 25 -53 27 -181 10z m-650
-683 c173 -86 478 -157 880 -204 175 -21 890 -17 1080 5 432 51 754 135 920
241 30 20 58 36 62 36 11 0 -8 -283 -27 -401 -11 -63 -33 -168 -49 -232 -119
-458 -397 -897 -748 -1181 -74 -59 -81 -72 -63 -107 26 -47 99 -9 240 127 l85
81 130 6 c80 4 175 15 245 31 l115 24 94 -41 c342 -149 358 -299 46 -455 -320
-160 -925 -255 -1610 -255 -590 1 -1071 62 -1440 185 -200 67 -358 165 -391
244 -27 66 14 136 119 201 120 75 295 138 507 183 l95 20 120 -127 c132 -139
255 -243 287 -243 27 0 58 27 58 50 0 10 -33 44 -72 76 -496 401 -818 1072
-818 1707 l0 108 28 -19 c15 -11 63 -38 107 -60z m3507 26 c64 -30 139 -95
175 -152 63 -98 91 -254 73 -397 -46 -362 -281 -665 -655 -844 -195 -94 -370
-145 -550 -161 l-80 -7 28 34 c28 34 159 215 188 258 l15 24 47 -18 c83 -31
221 -1 384 84 368 193 561 635 364 833 -116 116 -288 97 -427 -48 -35 -36 -64
-60 -64 -52 0 7 7 63 15 123 8 61 15 137 15 170 l0 61 53 39 c86 64 155 86
267 82 77 -2 106 -8 152 -29z m-107 -397 c17 -9 40 -36 53 -61 60 -119 -8
-317 -163 -474 -135 -138 -318 -233 -466 -243 -44 -3 -79 -3 -79 1 0 3 27 61
59 128 57 116 151 379 166 461 8 39 14 44 32 26 22 -22 58 -4 108 58 63 78 96
104 154 119 52 14 92 10 136 -15z"/>
<path d="M3154 3225 c-33 -50 2 -83 149 -134 105 -37 287 -74 492 -101 567
-74 1283 -74 1885 1 302 37 489 81 610 141 64 32 65 34 65 73 0 38 -2 40 -33
43 -20 2 -43 -4 -60 -16 -82 -57 -324 -111 -647 -146 -353 -38 -425 -41 -900
-41 -426 0 -506 3 -705 23 -379 38 -628 88 -754 152 -71 36 -81 37 -102 5z"/>
<path d="M4350 5449 c-501 -40 -845 -134 -792 -217 13 -20 41 -17 110 13 207
87 729 143 1212 131 438 -11 769 -57 949 -133 67 -28 92 -25 99 11 6 27 -15
43 -98 75 -148 56 -387 98 -690 121 -157 12 -637 11 -790 -1z"/>
<path d="M5595 5214 c-208 -44 -594 -68 -975 -61 -322 6 -467 17 -663 48 -71
11 -135 18 -143 15 -21 -8 -17 -53 5 -65 31 -17 235 -49 416 -66 285 -26 804
-21 1105 11 104 11 315 46 333 55 9 6 17 21 17 34 0 36 -26 44 -95 29z"/>
</g>
</svg>
