<?xml version="1.0" standalone="no"?>
<!DOCTYPE svg PUBLIC "-//W3C//DTD SVG 20010904//EN"
 "http://www.w3.org/TR/2001/REC-SVG-20010904/DTD/svg10.dtd">
<svg version="1.0" xmlns="http://www.w3.org/2000/svg"
 width="1024.000000pt" height="1024.000000pt" viewBox="0 0 1024.000000 1024.000000"
 preserveAspectRatio="xMidYMid meet">
<metadata>
Created by potrace 1.16, written by Peter Selinger 2001-2019
</metadata>
<g transform="translate(0.000000,1024.000000) scale(0.100000,-0.100000)"
fill="#000000" stroke="none">
<path d="M5131 7247 c-14 -6 -34 -27 -44 -45 -28 -48 -94 -239 -127 -367 -16
-60 -33 -109 -38 -108 -5 1 -60 38 -122 83 -147 105 -239 159 -283 167 -29 4
-40 1 -61 -20 -44 -44 -30 -98 62 -251 23 -37 42 -70 42 -71 0 -7 -147 -35
-262 -50 -361 -48 -596 -178 -793 -440 -61 -81 -159 -281 -189 -385 -85 -302
-78 -642 19 -936 170 -510 595 -916 1146 -1092 285 -91 550 -109 894 -61 603
85 1083 355 1357 764 166 247 252 510 265 806 13 313 -52 604 -186 833 -130
222 -309 379 -517 455 -103 37 -165 50 -327 65 -75 7 -131 17 -130 22 12 66
33 246 33 285 0 40 -5 55 -25 74 -53 54 -88 33 -270 -159 -77 -80 -144 -145
-149 -143 -5 2 -16 34 -23 73 -18 90 -92 312 -136 407 -46 99 -80 123 -136 94z
m83 -442 c43 -152 66 -260 73 -351 l6 -71 -34 -7 c-19 -3 -60 -20 -92 -36 -56
-28 -60 -29 -89 -14 l-31 16 6 102 c10 154 96 511 118 489 4 -4 24 -62 43
-128z m456 -202 c-14 -96 -49 -251 -58 -257 -4 -2 -38 6 -77 19 -69 22 -70 23
-70 58 0 31 13 49 105 150 58 63 106 113 108 112 2 -2 -2 -39 -8 -82z m-868 2
c40 -30 76 -55 80 -55 10 0 9 -85 -1 -120 -6 -23 -12 -16 -64 70 -31 52 -66
110 -78 128 -11 17 -19 32 -16 32 3 0 39 -25 79 -55z m-262 -211 c64 -19 160
-64 160 -75 0 -4 -30 -17 -67 -29 -127 -41 -173 -74 -173 -126 0 -83 65 -96
201 -41 211 87 270 89 412 11 37 -20 60 -14 125 35 149 113 356 57 604 -165
50 -45 67 -54 98 -54 56 0 91 51 71 104 -11 28 -104 119 -183 178 l-49 37 43
32 c185 136 382 138 587 5 267 -174 428 -481 460 -879 53 -653 -345 -1240
-999 -1475 -470 -169 -973 -186 -1349 -45 -266 99 -473 233 -657 426 -246 257
-384 578 -401 932 -22 474 203 907 558 1069 174 79 411 105 559 60z"/>
<path d="M4418 5334 c-33 -17 -60 -65 -61 -109 -3 -102 94 -164 188 -119 84
40 97 157 24 219 -36 29 -106 34 -151 9z"/>
<path d="M5719 5333 c-108 -67 -56 -243 71 -243 68 0 130 61 130 128 0 47 -28
100 -61 117 -37 20 -107 19 -140 -2z"/>
<path d="M4885 5088 c-27 -21 -27 -23 -22 -104 10 -171 105 -283 255 -301 92
-11 198 45 252 132 29 47 50 128 50 196 0 46 -4 59 -25 79 -20 19 -31 22 -62
17 -43 -7 -61 -26 -67 -71 -3 -17 -8 -47 -11 -66 -8 -52 -41 -99 -81 -116 -32
-14 -39 -13 -72 3 -46 23 -68 61 -81 143 -16 100 -73 138 -136 88z"/>
</g>
</svg>
