<?xml version="1.0" standalone="no"?>
<!DOCTYPE svg PUBLIC "-//W3C//DTD SVG 20010904//EN"
 "http://www.w3.org/TR/2001/REC-SVG-20010904/DTD/svg10.dtd">
<svg version="1.0" xmlns="http://www.w3.org/2000/svg"
 width="1024.000000pt" height="1024.000000pt" viewBox="0 0 1024.000000 1024.000000"
 preserveAspectRatio="xMidYMid meet">
<metadata>
Created by potrace 1.16, written by Peter Selinger 2001-2019
</metadata>
<g transform="translate(0.000000,1024.000000) scale(0.100000,-0.100000)"
fill="#000000" stroke="none">
<path d="M6178 7713 c-13 -16 -35 -44 -48 -63 -150 -225 -333 -334 -626 -374
-60 -8 -221 -17 -359 -20 -852 -20 -1429 -138 -1765 -361 -90 -60 -198 -176
-243 -263 -50 -96 -68 -170 -65 -270 l2 -84 -125 -57 c-660 -301 -1093 -809
-1220 -1428 -28 -139 -36 -397 -15 -523 32 -197 100 -376 191 -507 66 -94 136
-173 148 -166 6 3 7 2 4 -4 -7 -12 117 -119 209 -181 317 -213 751 -330 1374
-372 621 -41 2066 -41 2720 0 706 45 1175 198 1523 499 193 167 362 415 447
656 151 429 101 925 -134 1319 -186 313 -552 610 -924 751 -44 16 -71 32 -68
39 35 79 56 141 61 186 14 119 -37 263 -124 348 -24 24 -89 74 -145 112 -273
185 -435 362 -601 653 -37 64 -75 122 -85 127 -10 6 -38 10 -62 10 -35 0 -49
-6 -70 -27z m108 -277 c21 -36 42 -62 47 -59 6 3 7 2 4 -4 -13 -21 126 -197
263 -331 88 -86 173 -154 360 -285 100 -70 125 -114 125 -217 0 -58 -6 -87
-24 -128 -27 -61 -16 -59 -152 -19 -169 50 -337 80 -460 81 -112 1 -116 0
-152 -27 -20 -15 -64 -63 -97 -107 -94 -124 -154 -160 -262 -160 -67 0 -126
21 -166 59 -12 12 -43 53 -68 91 -54 83 -100 124 -174 159 -49 23 -67 26 -170
26 -104 0 -120 -3 -173 -27 -85 -40 -126 -76 -207 -183 -118 -156 -202 -215
-334 -237 -96 -16 -174 7 -253 73 -165 140 -311 139 -435 -2 -62 -70 -123
-104 -208 -118 -145 -24 -309 29 -409 131 -138 142 -127 335 28 502 245 261
818 399 1771 426 406 11 530 30 703 105 131 56 187 95 297 206 58 59 106 107
107 108 0 0 18 -28 39 -63z m-838 -1101 c49 -21 75 -47 132 -131 101 -148 190
-198 355 -198 167 0 262 50 382 201 40 51 79 94 86 94 128 15 524 -81 782
-188 564 -234 926 -628 1026 -1116 64 -315 15 -665 -131 -935 -16 -30 -27 -59
-24 -64 3 -4 1 -7 -4 -6 -5 2 -35 -33 -67 -77 -112 -155 -213 -252 -375 -359
-266 -175 -581 -273 -1030 -320 -734 -77 -2617 -72 -3255 9 -401 51 -712 152
-944 306 -343 227 -501 521 -501 934 0 546 295 1049 820 1400 100 67 286 167
381 205 l56 22 79 -79 c116 -118 250 -177 429 -189 168 -12 311 42 417 156 61
65 68 70 107 70 36 0 49 -7 102 -56 223 -205 587 -150 800 122 116 149 130
163 181 188 61 30 138 35 196 11z m-3731 -1857 c-3 -8 -6 -5 -6 6 -1 11 2 17
5 13 3 -3 4 -12 1 -19z"/>
<path d="M2603 5402 c-121 -43 -233 -174 -233 -273 0 -49 21 -64 85 -63 105 3
214 75 264 176 33 65 40 122 18 151 -18 26 -75 30 -134 9z"/>
<path d="M6093 5316 c-123 -40 -207 -143 -239 -295 -63 -299 85 -555 321 -555
52 0 84 6 122 23 190 85 273 399 167 638 -65 147 -234 234 -371 189z m56 -142
c58 -48 47 -135 -21 -170 -25 -13 -38 -14 -68 -5 -48 14 -70 40 -77 90 -5 36
-2 44 30 76 44 44 91 48 136 9z"/>
<path d="M4065 5308 c-102 -19 -197 -109 -246 -236 -31 -79 -38 -255 -14 -338
55 -189 178 -292 335 -281 189 13 320 190 320 432 0 238 -120 403 -310 428
-19 3 -57 0 -85 -5z m54 -134 c96 -81 17 -230 -105 -200 -15 4 -40 21 -56 38
-22 23 -28 40 -28 74 0 36 6 49 35 79 46 46 106 49 154 9z"/>
<path d="M7632 5054 c-66 -46 25 -209 137 -242 88 -27 141 -8 141 50 0 122
-190 254 -278 192z"/>
<path d="M2365 4781 c-46 -21 -111 -88 -131 -137 -30 -72 -9 -134 47 -134 64
1 163 80 195 156 17 41 18 106 2 122 -17 17 -67 14 -113 -7z"/>
<path d="M5327 4546 c-8 -8 -17 -32 -20 -54 -8 -48 -42 -100 -86 -129 -26 -18
-48 -23 -93 -23 -98 0 -173 53 -200 141 -15 51 -48 68 -86 43 -21 -14 -24 -22
-20 -58 25 -217 331 -325 500 -176 76 66 119 192 84 245 -18 28 -56 33 -79 11z"/>
<path d="M2306 4304 c-10 -10 -16 -33 -16 -64 0 -90 95 -189 181 -190 39 0 53
11 62 47 26 107 -159 276 -227 207z"/>
</g>
</svg>
