<?xml version="1.0" standalone="no"?>
<!DOCTYPE svg PUBLIC "-//W3C//DTD SVG 20010904//EN"
 "http://www.w3.org/TR/2001/REC-SVG-20010904/DTD/svg10.dtd">
<svg version="1.0" xmlns="http://www.w3.org/2000/svg"
 width="1024.000000pt" height="1024.000000pt" viewBox="0 0 1024.000000 1024.000000"
 preserveAspectRatio="xMidYMid meet">
<metadata>
Created by potrace 1.16, written by Peter Selinger 2001-2019
</metadata>
<g transform="translate(0.000000,1024.000000) scale(0.100000,-0.100000)"
fill="#000000" stroke="none">
<path d="M4786 7069 c-14 -11 -26 -30 -26 -41 0 -13 37 -57 99 -117 83 -80
161 -183 161 -213 0 -4 -21 0 -46 9 -32 11 -67 14 -115 11 -307 -22 -475 -418
-317 -744 39 -81 120 -167 194 -206 99 -53 158 -63 394 -62 208 0 217 1 289
27 154 55 257 160 308 312 23 68 27 97 26 195 0 168 -40 274 -140 372 -92 90
-246 132 -350 95 -24 -8 -43 -11 -43 -7 0 19 42 100 89 175 56 87 60 106 31
135 -48 48 -112 6 -175 -114 -22 -42 -43 -76 -46 -76 -3 0 -23 24 -43 54 -70
102 -198 216 -241 216 -12 0 -34 -9 -49 -21z m183 -499 c24 -11 65 -36 91 -55
26 -19 52 -35 57 -35 5 0 40 20 77 45 80 52 134 69 189 61 88 -14 158 -73 204
-171 26 -55 28 -69 28 -180 0 -109 -2 -125 -26 -176 -50 -106 -132 -177 -236
-204 -70 -18 -365 -21 -445 -4 -157 33 -267 157 -287 323 -16 140 26 274 110
350 75 67 156 83 238 46z"/>
<path d="M4175 6310 c-481 -86 -811 -242 -902 -428 -41 -83 -39 -177 4 -261
17 -33 28 -63 23 -66 -5 -3 -18 -31 -30 -63 -33 -86 -30 -168 10 -248 l31 -63
-25 -49 c-49 -96 -51 -205 -5 -299 l22 -45 -22 -46 c-46 -101 -46 -203 -1
-292 19 -37 19 -42 5 -63 -8 -12 -20 -38 -25 -58 -8 -29 -22 -43 -68 -72 -88
-55 -155 -125 -193 -202 -29 -60 -34 -79 -34 -145 1 -60 6 -87 27 -133 92
-198 400 -368 873 -482 391 -94 742 -130 1265 -129 379 0 565 12 859 55 885
128 1389 441 1271 788 -37 110 -105 190 -214 251 -43 25 -55 37 -60 63 -3 18
-14 46 -24 62 -18 30 -18 31 7 85 36 79 35 182 -2 265 l-27 60 19 39 c11 21
26 63 32 92 15 65 1 144 -37 213 l-24 44 31 63 c43 86 44 174 4 262 l-27 61
28 57 c37 75 39 174 6 247 -86 193 -397 343 -892 433 -132 23 -136 24 -160 5
-29 -21 -37 -67 -18 -94 9 -12 47 -23 133 -38 533 -90 882 -285 824 -460 -33
-97 -166 -194 -367 -268 -345 -127 -811 -193 -1367 -194 -423 0 -726 29 -1056
103 -385 87 -645 221 -690 357 -57 173 288 371 799 457 145 24 172 38 172 85
0 29 -39 72 -64 70 -6 -1 -56 -9 -111 -19z m-675 -893 c215 -124 616 -224
1105 -274 239 -24 800 -24 1045 1 502 50 934 165 1134 301 35 23 41 25 54 11
8 -8 17 -37 20 -65 6 -69 -28 -126 -111 -184 -205 -146 -553 -246 -1048 -303
-192 -22 -747 -30 -962 -15 -581 42 -1058 166 -1266 331 -82 65 -111 152 -75
221 14 28 17 29 37 16 12 -7 42 -25 67 -40z m-4 -372 c416 -238 1302 -354
2124 -279 507 46 900 145 1130 283 36 22 69 37 74 34 4 -3 17 -24 27 -47 50
-114 -58 -237 -298 -340 -228 -97 -579 -171 -993 -207 -204 -18 -719 -15 -932
5 -653 62 -1119 220 -1235 420 -18 30 -16 100 4 141 9 19 17 35 18 35 1 0 37
-20 81 -45z m-48 -374 c98 -69 295 -147 507 -201 371 -95 798 -137 1285 -127
690 15 1219 127 1553 329 43 25 49 22 66 -40 32 -112 -98 -242 -345 -343 -244
-100 -602 -170 -1019 -200 -217 -15 -736 -6 -935 15 -617 69 -1065 230 -1161
419 -23 45 -23 123 1 152 16 19 16 19 48 -4z m138 -467 c199 -92 468 -165 774
-208 396 -57 973 -63 1400 -15 415 46 772 145 987 274 48 29 91 51 95 48 4 -2
12 -22 19 -45 10 -37 8 -46 -18 -97 -105 -206 -578 -370 -1248 -433 -184 -17
-777 -17 -950 0 -544 55 -960 172 -1157 327 -93 73 -134 168 -99 233 11 21 12
21 68 -15 31 -20 89 -51 129 -69z m-253 -192 c46 -51 154 -124 251 -171 225
-110 563 -192 976 -237 196 -21 730 -30 935 -15 775 56 1309 237 1461 497 14
24 31 44 38 44 22 0 95 -70 123 -118 55 -94 31 -186 -76 -285 -225 -208 -767
-362 -1471 -418 -188 -15 -714 -15 -900 0 -539 44 -938 132 -1237 271 -208 98
-327 208 -334 311 -6 86 20 139 106 210 l48 40 29 -53 c16 -29 39 -63 51 -76z"/>
<path d="M5828 6006 c-42 -32 -42 -103 1 -125 78 -42 154 64 85 118 -30 24
-61 26 -86 7z"/>
<path d="M4251 5984 c-45 -57 -8 -134 62 -134 72 0 111 77 67 133 -18 22 -29
27 -65 27 -35 0 -48 -5 -64 -26z"/>
<path d="M3795 5865 c-19 -18 -25 -35 -25 -65 0 -52 13 -76 50 -95 43 -22 76
-18 112 14 28 25 33 36 33 76 0 39 -5 51 -28 71 -40 34 -108 34 -142 -1z"/>
<path d="M6175 5808 c-32 -18 -44 -40 -45 -79 0 -45 33 -79 77 -79 45 0 62 9
78 41 22 42 18 67 -14 100 -31 30 -63 36 -96 17z"/>
<path d="M5710 5693 c-56 -22 -83 -89 -56 -141 20 -38 44 -52 88 -52 88 0 136
111 73 170 -23 21 -78 34 -105 23z"/>
<path d="M4156 5611 c-23 -25 -23 -76 -1 -101 24 -26 86 -27 108 -2 23 25 22
85 -1 105 -25 23 -85 22 -106 -2z"/>
<path d="M4750 5587 c-87 -44 -31 -175 59 -137 60 24 63 112 5 139 -31 14 -33
14 -64 -2z"/>
</g>
</svg>
