<?xml version="1.0" standalone="no"?>
<!DOCTYPE svg PUBLIC "-//W3C//DTD SVG 20010904//EN"
 "http://www.w3.org/TR/2001/REC-SVG-20010904/DTD/svg10.dtd">
<svg version="1.0" xmlns="http://www.w3.org/2000/svg"
 width="1024.000000pt" height="1024.000000pt" viewBox="0 0 1024.000000 1024.000000"
 preserveAspectRatio="xMidYMid meet">
<metadata>
Created by potrace 1.16, written by Peter Selinger 2001-2019
</metadata>
<g transform="translate(0.000000,1024.000000) scale(0.100000,-0.100000)"
fill="#000000" stroke="none">
<path d="M4950 7381 c-131 -40 -374 -249 -628 -539 -69 -79 -130 -141 -136
-138 -275 120 -419 126 -707 30 -20 -7 -68 74 -154 259 -32 70 -71 139 -86
153 -32 31 -92 41 -143 24 -86 -28 -193 -188 -235 -350 -22 -86 -20 -86 -124
-46 -140 53 -347 71 -476 41 -158 -38 -193 -115 -125 -277 47 -112 111 -198
245 -331 l129 -127 -53 -78 c-97 -142 -131 -271 -126 -480 l4 -132 -107 -44
c-413 -168 -607 -374 -584 -618 7 -75 26 -141 128 -433 166 -478 408 -1104
442 -1139 47 -51 292 -141 561 -206 868 -210 2195 -279 3360 -174 810 72 1566
236 1879 407 58 31 59 33 91 117 17 47 68 180 112 295 116 302 204 546 295
819 63 187 81 255 85 315 10 136 -33 246 -132 345 -58 58 -172 139 -261 185
l-61 32 -5 102 c-6 121 -29 189 -92 275 -108 147 -325 218 -506 166 -109 -31
-100 -34 -100 32 -1 201 -102 428 -257 576 -139 132 -312 215 -546 263 l-27 5
15 38 c40 95 126 201 204 251 53 34 71 64 71 117 0 105 -98 163 -198 117 -90
-41 -248 -246 -318 -412 l-36 -87 -117 -11 c-64 -6 -157 -21 -206 -32 l-91
-22 -149 147 c-233 228 -455 420 -581 500 -104 66 -183 86 -254 65z m233 -359
c91 -73 268 -232 442 -396 l90 -85 -36 -36 c-35 -36 -37 -36 -77 -25 l-40 13
1 55 c1 67 -22 92 -87 92 -60 0 -109 -37 -121 -91 -6 -25 -9 -26 -103 -32
-245 -16 -471 -130 -628 -319 l-57 -69 -24 83 c-29 101 -72 195 -119 260 -41
58 -44 50 58 170 181 213 350 378 469 457 l61 41 39 -23 c22 -12 81 -55 132
-95z m-1990 -308 c38 -74 67 -136 65 -138 -1 -1 -28 -23 -59 -49 l-57 -47 -14
23 c-49 74 -56 100 -48 172 9 80 31 175 39 175 3 0 37 -61 74 -136z m-593
-155 c110 -28 232 -92 280 -147 22 -24 40 -48 40 -52 0 -3 -47 -30 -105 -59
l-105 -52 -61 47 c-119 91 -268 261 -252 287 7 12 111 -1 203 -24z m1315 -14
c238 -61 387 -245 414 -511 5 -49 6 -125 2 -170 l-8 -81 -73 -84 c-76 -89
-157 -215 -167 -262 -7 -33 -32 -53 -173 -137 -326 -196 -547 -269 -782 -257
-127 6 -202 27 -297 82 -287 168 -349 552 -129 799 60 68 142 122 323 215 130
66 176 97 416 280 97 74 162 106 251 126 85 18 152 18 223 0z m2385 -135 c0
-113 36 -160 122 -160 38 0 54 6 79 28 29 26 32 34 36 103 6 104 2 99 75 83
157 -33 289 -99 391 -195 127 -118 186 -246 194 -419 16 -332 -177 -598 -502
-692 -108 -31 -330 -33 -447 -4 -43 10 -78 22 -78 25 0 3 13 38 29 77 50 123
66 213 65 369 0 111 -5 158 -23 225 -46 174 -146 334 -279 445 -59 49 -69 62
-59 74 19 22 125 67 202 85 103 23 106 24 153 25 l42 1 0 -70z m-775 -155
c116 -30 219 -89 309 -178 133 -133 190 -271 190 -457 0 -216 -94 -396 -267
-510 -168 -110 -443 -133 -757 -64 -118 26 -139 28 -377 29 -238 0 -253 1
-280 21 -15 11 -36 36 -46 55 -36 68 4 217 85 322 18 23 75 87 128 143 64 68
116 135 160 208 145 241 234 332 387 396 141 59 322 73 468 35z m2250 -683
c72 -39 108 -96 113 -176 5 -76 -9 -126 -51 -172 -89 -102 -237 -103 -334 -2
-82 85 -84 212 -5 300 74 82 183 102 277 50z m-533 -419 c46 -93 149 -185 255
-226 160 -63 360 -26 482 88 l50 46 76 -42 c142 -78 235 -172 235 -239 0 -25
-27 -130 -36 -139 -2 -3 -15 6 -28 18 -32 30 -94 38 -138 17 -20 -10 -72 -61
-124 -121 -49 -58 -93 -105 -99 -105 -5 0 -54 29 -107 64 -122 80 -158 88
-233 51 -40 -19 -84 -57 -166 -146 -62 -65 -115 -119 -119 -119 -4 0 -47 26
-96 59 -146 96 -217 132 -276 138 -96 10 -150 -28 -281 -192 -44 -55 -83 -101
-87 -103 -4 -2 -45 24 -91 57 -219 157 -304 187 -401 141 -46 -21 -183 -139
-280 -240 l-47 -49 -93 92 c-108 108 -187 163 -270 189 -147 45 -277 7 -461
-135 l-77 -60 -98 95 c-105 102 -134 122 -203 137 -88 20 -181 -16 -400 -155
l-121 -77 -41 41 c-80 77 -222 192 -272 219 -40 22 -62 28 -115 27 -76 0 -130
-24 -332 -150 l-121 -75 -131 129 c-146 144 -194 175 -272 175 -59 0 -139 -39
-257 -124 -37 -27 -69 -49 -71 -49 -3 0 -52 56 -110 124 -102 120 -147 156
-195 156 -28 0 -90 -26 -113 -47 -11 -10 -22 -13 -27 -7 -17 19 -52 164 -45
186 13 45 77 119 139 163 62 45 243 136 342 173 l53 20 50 -63 c109 -137 277
-238 471 -281 105 -24 308 -24 424 0 175 36 415 134 585 239 41 25 78 43 81
39 4 -4 12 -24 19 -45 18 -57 102 -142 174 -177 93 -44 177 -54 342 -42 147
11 253 4 374 -24 374 -88 736 -42 966 121 l64 46 66 -21 c165 -51 344 -75 474
-65 275 20 484 109 645 274 22 22 41 41 42 41 1 0 12 -21 25 -47z m919 -934
c-65 -178 -180 -489 -257 -691 l-48 -127 -91 -35 c-423 -162 -1117 -279 -2005
-338 -296 -20 -1268 -17 -1575 5 -619 44 -1025 100 -1380 188 -165 42 -359
106 -383 127 -28 25 -400 1018 -386 1031 3 3 33 -24 67 -60 34 -36 97 -102
139 -148 l78 -82 64 -202 c99 -308 103 -321 127 -339 26 -22 77 -23 106 -3 43
30 39 64 -38 320 -39 132 -73 247 -76 256 -3 12 26 39 101 94 l106 77 140
-132 c110 -104 142 -140 149 -169 126 -489 147 -560 173 -588 28 -30 62 -36
102 -19 27 11 37 23 46 53 10 33 5 69 -45 302 -45 214 -53 267 -43 276 19 17
272 172 312 191 l35 17 167 -138 c92 -76 179 -144 193 -151 31 -17 99 -18 138
-3 15 5 96 55 179 109 83 55 167 106 186 115 34 13 38 13 62 -6 15 -11 71 -72
126 -135 80 -90 109 -116 139 -125 58 -17 100 -5 167 51 214 178 278 213 351
190 53 -17 91 -47 224 -177 112 -108 177 -153 224 -152 50 1 93 33 244 182 88
86 166 157 172 157 6 0 76 -43 156 -96 l144 -96 -6 -56 c-9 -93 -35 -434 -35
-465 0 -36 49 -87 84 -87 40 0 73 20 90 54 10 20 24 116 40 279 24 246 24 247
53 275 16 15 75 84 131 154 l103 127 97 -61 c53 -34 116 -73 139 -87 23 -14
43 -32 43 -39 0 -7 -25 -122 -55 -257 -30 -134 -55 -252 -55 -263 0 -29 36
-70 69 -77 19 -4 41 0 60 9 27 14 34 29 60 114 27 88 114 404 123 443 2 9 62
78 135 154 l132 138 71 -53 c38 -28 70 -55 70 -60 0 -4 -38 -125 -85 -268 -91
-279 -100 -327 -63 -362 24 -22 77 -27 108 -10 21 11 25 21 140 358 65 191 88
246 104 253 12 6 64 61 116 124 52 63 96 111 98 106 1 -4 -24 -82 -57 -172z"/>
<path d="M5108 6910 c-50 -27 -78 -69 -78 -118 0 -80 79 -121 161 -84 61 27
90 62 96 114 4 37 1 49 -22 76 -23 28 -33 32 -73 32 -26 -1 -63 -9 -84 -20z"/>
<path d="M3474 6241 c-104 -28 -173 -66 -402 -219 -150 -100 -241 -301 -215
-477 21 -146 111 -279 233 -344 66 -35 193 -71 252 -71 83 0 138 48 138 119 0
74 -34 100 -160 126 -47 9 -99 25 -117 36 -45 28 -89 81 -103 125 -16 49 -8
140 18 190 26 51 96 116 161 148 28 15 84 48 125 74 90 59 146 76 229 70 105
-9 189 -63 231 -151 38 -77 43 -132 17 -215 -41 -135 -21 -202 63 -217 71 -14
119 24 156 122 61 164 25 377 -87 519 -116 146 -348 217 -539 165z"/>
<path d="M6830 6133 c-30 -11 -60 -47 -66 -79 -9 -47 29 -166 66 -207 24 -27
35 -32 75 -32 40 0 51 5 76 33 34 38 38 84 13 159 -35 105 -95 151 -164 126z"/>
<path d="M6580 5727 c-43 -21 -65 -81 -65 -179 0 -77 3 -89 24 -112 52 -56
138 -38 171 36 24 53 27 175 5 217 -22 44 -87 62 -135 38z"/>
<path d="M5191 6076 c-32 -34 -37 -93 -12 -133 26 -41 93 -90 142 -103 75 -20
139 29 139 106 0 54 -29 89 -102 127 -72 36 -135 37 -167 3z"/>
<path d="M4895 5831 c-87 -36 -82 -160 8 -202 72 -32 154 -23 196 22 29 31 29
106 1 142 -32 41 -147 61 -205 38z"/>
<path d="M4670 5531 c-45 -14 -89 -41 -100 -60 -5 -11 -10 -36 -10 -56 0 -71
42 -105 131 -105 123 0 198 84 157 175 -22 48 -103 69 -178 46z"/>
<path d="M4094 3656 c-38 -17 -44 -31 -44 -108 0 -167 43 -257 117 -245 74 12
91 55 73 188 -16 123 -26 148 -66 165 -40 17 -41 17 -80 0z"/>
</g>
</svg>
