<?xml version="1.0" standalone="no"?>
<!DOCTYPE svg PUBLIC "-//W3C//DTD SVG 20010904//EN"
 "http://www.w3.org/TR/2001/REC-SVG-20010904/DTD/svg10.dtd">
<svg version="1.0" xmlns="http://www.w3.org/2000/svg"
 width="1024.000000pt" height="1024.000000pt" viewBox="0 0 1024.000000 1024.000000"
 preserveAspectRatio="xMidYMid meet">
<metadata>
Created by potrace 1.16, written by Peter Selinger 2001-2019
</metadata>
<g transform="translate(0.000000,1024.000000) scale(0.100000,-0.100000)"
fill="#000000" stroke="none">
<path d="M5935 6894 c-663 -33 -1391 -141 -2010 -299 -365 -93 -508 -148 -549
-211 -10 -14 -30 -26 -53 -30 -73 -13 -209 -45 -293 -70 -96 -29 -149 -57
-215 -114 -34 -29 -55 -40 -80 -40 -18 0 -64 -10 -101 -21 -382 -118 -686
-555 -769 -1105 -20 -131 -19 -401 0 -524 77 -476 316 -822 701 -1014 296
-147 591 -165 834 -50 l97 45 76 -15 c129 -27 227 -21 517 33 63 12 178 32
255 46 1267 229 1680 317 2454 525 359 96 584 165 666 205 48 23 98 60 159
116 l88 83 82 -2 c166 -6 314 55 424 173 78 83 124 171 154 289 28 108 21 322
-12 436 -47 158 -128 303 -264 473 -40 51 -124 169 -186 262 -181 270 -356
433 -604 559 -221 113 -504 171 -714 146 l-94 -12 -67 36 c-128 67 -275 91
-496 80z m302 -188 c82 -22 148 -57 297 -156 77 -51 226 -136 330 -190 335
-171 439 -241 596 -399 194 -195 303 -417 332 -676 30 -271 -75 -573 -268
-770 -85 -87 -129 -111 -305 -164 -673 -202 -1425 -381 -2194 -522 -209 -38
-564 -103 -790 -145 -405 -74 -538 -93 -569 -81 -13 5 -9 15 23 58 85 112 153
283 193 482 19 96 23 144 23 342 0 247 -8 331 -56 561 -58 284 -145 523 -301
832 -88 175 -98 199 -98 248 0 66 26 122 72 158 57 42 446 151 826 230 420 87
990 168 1387 195 202 14 444 12 502 -3z m739 -121 c221 -56 418 -169 588 -339
80 -80 128 -141 228 -291 70 -104 159 -228 197 -275 88 -107 142 -201 188
-326 31 -86 36 -115 40 -215 7 -140 -11 -228 -63 -316 -39 -67 -110 -134 -169
-162 -44 -20 -145 -44 -153 -36 -3 2 12 41 32 85 106 231 131 522 67 772 -74
290 -261 558 -526 758 -117 88 -178 124 -427 255 -115 60 -208 113 -208 117 0
12 103 -2 206 -27z m-3694 -492 c4 -76 8 -85 124 -318 66 -132 141 -301 167
-375 165 -462 209 -931 123 -1304 -61 -262 -227 -479 -420 -546 -86 -31 -174
-40 -285 -29 -250 23 -467 132 -649 324 -144 152 -243 346 -294 575 -20 92
-23 131 -23 320 0 188 3 229 24 325 76 358 252 654 479 806 187 125 417 118
515 -16 59 -81 200 -381 263 -558 31 -91 35 -85 -66 -119 -78 -26 -148 -28
-183 -5 -14 9 -45 53 -69 98 -52 99 -130 187 -203 229 -67 38 -182 64 -249 55
-146 -19 -215 -102 -285 -347 -122 -419 -113 -726 29 -1013 227 -461 752 -665
1065 -415 395 315 370 1125 -61 1990 -92 183 -131 235 -217 291 l-59 38 69 20
c84 25 174 49 189 50 7 1 13 -28 16 -76z m-626 -720 c66 -22 142 -100 188
-192 20 -39 52 -89 71 -110 79 -88 219 -109 365 -57 41 15 81 28 89 29 9 1 20
-20 31 -63 10 -35 17 -67 14 -71 -2 -4 -17 -9 -34 -12 -35 -8 -149 -61 -235
-112 -50 -29 -70 -35 -118 -35 -73 0 -116 21 -205 102 -137 125 -234 170 -364
170 -67 1 -78 3 -78 18 0 25 69 239 91 282 35 69 88 84 185 51z m-79 -546 c27
-14 85 -58 129 -98 51 -47 105 -85 154 -108 70 -34 82 -36 170 -36 104 0 92
-4 280 97 47 26 96 48 110 50 25 3 25 2 34 -102 10 -120 -6 -347 -27 -366 -15
-15 -98 -41 -155 -50 -66 -10 -122 17 -220 108 -129 120 -266 178 -420 179
-89 1 -156 -21 -210 -66 -22 -19 -42 -35 -45 -35 -3 0 -13 32 -22 71 -20 90
-29 238 -18 309 8 52 10 55 48 67 56 18 133 9 192 -20z m132 -502 c88 -21 149
-56 244 -141 44 -40 105 -85 135 -99 72 -36 167 -51 224 -37 23 6 44 9 47 7 6
-7 -28 -55 -76 -106 -26 -28 -68 -58 -106 -75 -55 -25 -73 -29 -152 -28 -71 1
-105 7 -165 29 -143 53 -279 162 -375 301 l-39 57 49 44 c73 64 110 72 214 48z"/>
<path d="M5444 6166 c-29 -29 -34 -41 -34 -81 0 -40 5 -52 34 -81 29 -29 41
-34 81 -34 40 0 52 5 81 34 29 29 34 41 34 83 -1 74 -41 113 -120 113 -34 0
-48 -6 -76 -34z"/>
<path d="M4032 5944 c-83 -58 -55 -200 43 -218 43 -8 98 14 121 48 20 32 23
95 6 128 -29 53 -122 76 -170 42z"/>
<path d="M7110 5623 c-64 -21 -90 -56 -90 -124 0 -33 6 -47 34 -75 29 -29 41
-34 81 -34 40 0 52 5 81 34 28 28 34 42 34 75 0 60 -22 96 -70 115 -43 17 -46
17 -70 9z"/>
<path d="M5963 5175 c-83 -36 -95 -160 -19 -206 89 -54 193 8 183 109 -5 49
-28 79 -74 98 -40 17 -49 17 -90 -1z"/>
<path d="M4754 4511 c-67 -42 -67 -151 -1 -191 19 -12 50 -20 75 -20 99 0 150
132 77 200 -34 32 -109 38 -151 11z"/>
</g>
</svg>
