<?xml version="1.0" standalone="no"?>
<!DOCTYPE svg PUBLIC "-//W3C//DTD SVG 20010904//EN"
 "http://www.w3.org/TR/2001/REC-SVG-20010904/DTD/svg10.dtd">
<svg version="1.0" xmlns="http://www.w3.org/2000/svg"
 width="2048.000000pt" height="2048.000000pt" viewBox="0 0 2048.000000 2048.000000"
 preserveAspectRatio="xMidYMid meet">
<metadata>
Created by potrace 1.16, written by Peter Selinger 2001-2019
</metadata>
<g transform="translate(0.000000,2048.000000) scale(0.100000,-0.100000)"
fill="#000000" stroke="none">
<path d="M12830 14629 c-351 -28 -777 -113 -1110 -221 -318 -103 -621 -234
-842 -363 -281 -164 -461 -298 -649 -482 l-116 -114 -92 69 c-506 380 -1385
689 -2295 807 -355 46 -857 65 -1196 45 -928 -56 -1800 -284 -2370 -622 -464
-276 -755 -571 -946 -963 -231 -473 -341 -1139 -347 -2095 -2 -283 11 -967 18
-980 1 -3 5 -131 9 -285 3 -154 8 -323 11 -375 3 -52 7 -198 10 -325 13 -527
45 -853 111 -1125 173 -709 555 -1185 1239 -1545 296 -156 685 -292 1101 -384
226 -50 547 -105 729 -125 77 -8 163 -18 190 -21 28 -4 255 -8 505 -10 498 -4
663 6 1015 60 389 59 666 125 995 235 480 160 898 379 1250 655 l108 85 99
-73 c705 -526 1650 -844 2758 -927 219 -17 778 -14 1005 5 709 59 1198 182
1695 425 270 133 441 250 634 435 307 296 477 580 611 1025 62 204 116 457
370 1730 145 724 211 1223 257 1925 12 186 8 755 -6 880 -63 554 -283 1001
-683 1391 -276 269 -610 480 -1093 691 -682 299 -1568 517 -2320 573 -161 11
-501 11 -655 -1z m625 -394 c766 -62 1699 -311 2401 -640 355 -167 716 -428
912 -660 149 -177 254 -360 325 -569 55 -162 55 -216 2 -341 -199 -461 -742
-800 -1635 -1020 -940 -231 -2058 -177 -3050 147 -442 145 -832 336 -1105 543
-109 82 -130 95 -160 95 -35 0 -65 -33 -65 -72 0 -39 33 -72 197 -195 360
-270 833 -495 1388 -658 355 -105 913 -203 1268 -223 200 -11 675 -7 827 7
714 65 1380 265 1858 557 187 115 263 175 426 338 l159 159 -6 -324 c-4 -178
-9 -340 -11 -359 -2 -19 -7 -84 -11 -145 -9 -158 -41 -496 -65 -681 -47 -367
-85 -570 -364 -1941 -121 -599 -173 -780 -286 -1012 -109 -224 -202 -352 -371
-516 -322 -311 -731 -514 -1321 -655 -544 -129 -1342 -172 -1983 -105 -930 97
-1844 445 -2403 913 l-52 44 57 62 c164 175 322 501 402 827 51 209 98 529
120 824 46 630 -9 2174 -110 3030 -73 627 -197 1015 -420 1315 l-69 92 47 57
c369 439 965 780 1713 980 444 118 930 162 1385 126z m-6005 -270 c664 -67
1243 -209 1759 -431 425 -183 799 -463 981 -734 265 -394 369 -940 435 -2290
3 -63 7 -153 10 -200 23 -413 29 -644 30 -1075 0 -529 -6 -641 -50 -947 -56
-389 -113 -600 -220 -813 -101 -202 -197 -330 -399 -530 -237 -236 -451 -387
-776 -549 -525 -261 -1119 -415 -1850 -482 -255 -23 -789 -23 -1035 -1 -450
42 -883 125 -1270 242 -964 292 -1486 781 -1659 1555 -61 274 -88 567 -106
1130 -40 1314 -42 1423 -37 1885 5 467 12 605 43 865 22 190 76 480 88 480 6
0 29 -28 51 -62 22 -34 80 -104 129 -155 512 -537 1571 -930 2698 -1004 191
-13 667 -7 838 11 369 37 664 89 995 176 784 206 1385 508 1783 896 90 88 93
91 90 131 -2 32 -9 45 -29 56 -40 22 -71 7 -174 -84 -312 -277 -704 -492
-1195 -656 -462 -153 -880 -240 -1410 -291 -205 -20 -801 -17 -1020 5 -399 40
-674 94 -1082 211 -476 137 -935 362 -1200 590 -207 178 -338 404 -338 586 0
128 168 390 386 600 219 211 468 369 819 518 433 184 1155 341 1760 381 200
13 768 5 955 -14z"/>
<path d="M15738 13168 c-25 -19 -39 -64 -29 -90 11 -30 35 -50 95 -82 106 -56
200 -11 162 77 -27 65 -183 130 -228 95z"/>
<path d="M16126 12918 c-35 -50 -27 -64 107 -181 117 -102 203 -245 233 -388
46 -218 -70 -439 -313 -596 -95 -61 -115 -90 -92 -131 34 -61 85 -52 229 42
143 93 246 219 303 370 29 76 31 89 31 221 0 133 -1 144 -32 224 -44 117 -99
205 -184 296 -141 151 -241 202 -282 143z"/>
<path d="M11866 9190 c-168 -66 -243 -289 -151 -445 94 -162 332 -188 468 -51
118 118 122 320 9 434 -80 79 -216 105 -326 62z"/>
<path d="M14893 8910 c-92 -19 -178 -86 -217 -169 -29 -64 -29 -187 1 -252 30
-66 86 -124 151 -156 46 -22 70 -27 127 -27 42 0 85 7 108 17 59 26 121 82
153 139 26 48 29 62 29 148 0 87 -3 100 -30 149 -63 114 -196 176 -322 151z"/>
<path d="M11309 8481 c-71 -28 -109 -53 -131 -89 -71 -115 -23 -235 125 -306
178 -87 431 -86 545 1 38 29 72 93 72 138 0 105 -135 220 -302 260 -89 21
-251 19 -309 -4z m298 -145 c68 -21 147 -75 151 -103 11 -78 -260 -82 -400 -6
-60 33 -72 52 -52 81 35 50 182 64 301 28z"/>
<path d="M13003 8450 c-13 -5 -32 -24 -44 -42 -43 -69 6 -209 113 -324 47 -50
80 -74 142 -104 216 -103 443 -72 600 83 64 64 126 169 126 214 0 66 -69 121
-135 109 -36 -7 -60 -31 -99 -99 -118 -206 -443 -168 -531 63 -14 37 -34 75
-45 85 -22 20 -95 29 -127 15z"/>
<path d="M16280 8407 c-36 -18 -49 -52 -56 -150 -7 -82 -6 -86 19 -111 34 -34
76 -34 107 -1 17 19 25 43 33 108 12 97 2 137 -39 156 -31 14 -33 14 -64 -2z"/>
<path d="M15059 8106 c-66 -19 -148 -66 -175 -101 -45 -59 -48 -148 -7 -204
113 -151 502 -200 680 -85 74 49 103 138 69 217 -15 36 -88 107 -135 132 -97
50 -321 71 -432 41z m262 -139 c66 -16 136 -54 156 -84 13 -19 12 -23 -8 -42
-73 -67 -400 -45 -453 31 -51 73 143 133 305 95z"/>
<path d="M16187 7872 c-9 -10 -35 -72 -57 -137 -23 -66 -68 -176 -102 -244
-195 -398 -479 -674 -881 -855 -54 -24 -107 -52 -118 -62 -25 -23 -24 -69 2
-95 30 -30 73 -22 212 38 477 207 840 609 1007 1115 55 165 60 202 30 233 -28
30 -70 33 -93 7z"/>
<path d="M5035 13446 c-124 -39 -168 -104 -110 -161 17 -18 35 -25 62 -25 49
0 156 51 178 84 23 35 12 82 -25 101 -34 18 -52 18 -105 1z"/>
<path d="M4554 13231 c-193 -94 -397 -281 -472 -432 -23 -46 -49 -113 -58
-149 -21 -82 -21 -217 0 -300 32 -124 131 -271 194 -287 32 -8 76 26 80 61 2
18 -12 48 -47 102 -198 296 -69 614 348 861 63 37 120 74 128 81 19 20 16 59
-7 82 -30 30 -76 25 -166 -19z"/>
<path d="M4412 12007 c-34 -37 -29 -79 15 -117 51 -45 117 -73 153 -65 33 7
70 48 70 76 0 28 -46 75 -102 103 -65 33 -108 33 -136 3z"/>
<path d="M5133 9226 c-131 -41 -213 -153 -213 -292 0 -99 23 -158 85 -220 65
-65 129 -89 224 -82 199 15 333 209 277 403 -24 80 -108 166 -186 189 -64 19
-129 20 -187 2z"/>
<path d="M8119 9179 c-231 -35 -325 -333 -161 -508 63 -67 126 -94 217 -94
191 0 331 169 296 357 -31 169 -178 272 -352 245z"/>
<path d="M6239 8561 c-38 -38 -37 -71 1 -149 150 -298 587 -351 818 -98 109
119 117 243 17 262 -45 8 -69 -7 -109 -69 -45 -69 -91 -111 -149 -137 -148
-65 -335 -9 -405 122 -40 75 -64 98 -107 98 -27 0 -44 -8 -66 -29z"/>
<path d="M4650 8464 c-222 -60 -281 -260 -110 -375 91 -61 262 -90 412 -71
201 25 305 125 269 259 -21 79 -141 164 -269 192 -73 15 -236 13 -302 -5z
m311 -148 c25 -9 61 -30 80 -46 28 -24 32 -31 23 -47 -23 -38 -74 -57 -163
-61 -102 -5 -184 9 -249 41 -77 38 -65 77 34 118 40 16 66 19 139 15 50 -2
111 -11 136 -20z"/>
<path d="M8377 8395 c-149 -38 -237 -124 -237 -233 0 -82 76 -164 183 -198 70
-22 246 -29 334 -14 171 28 290 136 269 243 -17 84 -83 150 -192 189 -77 28
-270 35 -357 13z m284 -145 c50 -14 103 -52 107 -76 10 -71 -269 -114 -397
-61 -92 37 -94 72 -8 116 79 39 198 48 298 21z"/>
</g>
</svg>
