<?xml version="1.0" standalone="no"?>
<!DOCTYPE svg PUBLIC "-//W3C//DTD SVG 20010904//EN"
 "http://www.w3.org/TR/2001/REC-SVG-20010904/DTD/svg10.dtd">
<svg version="1.0" xmlns="http://www.w3.org/2000/svg"
 width="1024.000000pt" height="1024.000000pt" viewBox="0 0 1024.000000 1024.000000"
 preserveAspectRatio="xMidYMid meet">
<metadata>
Created by potrace 1.16, written by Peter Selinger 2001-2019
</metadata>
<g transform="translate(0.000000,1024.000000) scale(0.100000,-0.100000)"
fill="#000000" stroke="none">
<path d="M4770 8388 c-624 -13 -1141 -67 -1375 -143 -168 -55 -288 -142 -323
-236 -12 -32 -29 -56 -52 -71 -19 -13 -46 -44 -60 -68 l-25 -45 0 -305 c0
-294 1 -306 22 -346 22 -42 72 -89 142 -136 79 -53 101 -147 55 -243 -10 -22
-75 -99 -145 -171 -229 -239 -332 -437 -399 -774 -65 -328 -84 -718 -77 -1628
5 -672 12 -849 42 -1121 73 -649 310 -960 835 -1100 734 -196 2611 -201 3383
-10 426 105 654 300 787 674 63 178 96 397 122 810 17 275 17 1547 0 1795 -51
751 -148 1031 -478 1370 -126 130 -154 175 -154 251 0 78 23 114 102 165 79
51 121 109 138 190 7 33 10 149 8 311 l-3 258 -30 54 c-16 30 -44 63 -61 73
-20 12 -35 32 -44 59 -28 84 -122 163 -260 217 -326 128 -1133 192 -2150 170z
m1175 -267 c520 -40 799 -86 918 -149 26 -14 46 -30 44 -36 -9 -27 -186 -74
-384 -101 -404 -55 -703 -70 -1418 -70 -625 0 -759 5 -1125 41 -367 35 -640
92 -640 134 0 18 101 61 203 85 190 45 525 83 927 104 219 12 1297 6 1475 -8z
m1110 -829 c-27 -70 -604 -151 -1305 -183 -290 -13 -1247 -7 -1480 10 -567 42
-940 95 -1049 150 l-41 21 0 210 c0 116 4 210 8 210 5 0 35 -10 68 -23 377
-148 1465 -219 2564 -166 578 27 1038 96 1200 179 l35 18 3 -206 c1 -114 0
-212 -3 -220z m-233 -431 c3 -91 7 -105 43 -176 31 -61 66 -106 170 -215 73
-76 154 -171 180 -211 110 -166 173 -369 205 -659 62 -575 59 -1966 -7 -2510
-49 -410 -175 -644 -412 -764 -236 -120 -731 -190 -1542 -217 -610 -21 -1360
18 -1779 92 -477 84 -665 217 -777 551 -88 263 -117 663 -117 1643 0 394 4
707 12 835 45 735 107 921 421 1253 167 178 210 261 211 410 0 65 -3 63 95 47
226 -37 678 -74 1130 -91 661 -26 1666 21 2075 95 41 8 78 14 81 15 4 1 8 -44
11 -98z"/>
<path d="M3405 6211 c-31 -13 -52 -41 -90 -123 -125 -272 -193 -678 -183
-1101 l3 -149 37 -34 c32 -29 45 -34 88 -34 41 0 56 5 82 29 31 27 33 33 35
107 23 619 54 825 157 1057 26 56 46 116 46 132 -1 85 -96 148 -175 116z"/>
</g>
</svg>
