<?xml version="1.0" standalone="no"?>
<!DOCTYPE svg PUBLIC "-//W3C//DTD SVG 20010904//EN"
 "http://www.w3.org/TR/2001/REC-SVG-20010904/DTD/svg10.dtd">
<svg version="1.0" xmlns="http://www.w3.org/2000/svg"
 width="1024.000000pt" height="1024.000000pt" viewBox="0 0 1024.000000 1024.000000"
 preserveAspectRatio="xMidYMid meet">
<metadata>
Created by potrace 1.16, written by Peter Selinger 2001-2019
</metadata>
<g transform="translate(0.000000,1024.000000) scale(0.100000,-0.100000)"
fill="#000000" stroke="none">
<path d="M4945 7290 c-1144 -59 -1799 -182 -2283 -429 -438 -224 -721 -563
-807 -966 -19 -91 -19 -245 0 -320 33 -125 119 -238 234 -309 l52 -32 -63 -33
c-180 -94 -331 -228 -386 -342 -58 -119 -62 -240 -13 -337 25 -49 111 -127
156 -142 19 -6 35 -13 35 -15 0 -2 -20 -36 -45 -76 -93 -150 -132 -291 -106
-372 21 -63 41 -72 268 -122 19 -5 23 -12 23 -44 0 -113 60 -294 137 -414 236
-368 804 -552 1943 -629 252 -17 1117 -17 1380 0 890 58 1570 186 2093 393
444 177 674 401 755 737 l26 108 132 21 c152 25 204 47 228 97 38 81 10 149
-115 281 -49 51 -89 96 -89 99 0 4 9 16 20 28 33 36 62 111 68 175 15 192
-117 369 -390 523 -32 17 -58 33 -58 33 0 1 9 26 20 55 11 29 20 67 20 85 0
25 6 37 28 49 52 31 140 118 178 175 80 121 111 274 93 461 -16 176 -94 388
-200 543 -62 92 -196 227 -295 297 -324 231 -764 347 -1564 413 -167 13 -1257
20 -1475 9z m1230 -190 c845 -41 1326 -147 1660 -364 267 -174 439 -470 452
-777 6 -133 -9 -204 -58 -275 -127 -186 -510 -338 -1152 -459 -367 -69 -707
-110 -1222 -147 -246 -18 -1446 -18 -1720 0 -1137 74 -1816 212 -2014 410
-218 219 -21 756 389 1056 394 290 991 449 1950 520 206 16 541 35 675 39 231
8 857 6 1040 -3z m1747 -1877 c-33 -46 -134 -138 -184 -167 -160 -93 -466
-173 -853 -222 -105 -14 -211 -18 -425 -18 -284 -1 -351 5 -520 41 -95 20 -76
28 95 37 432 22 1047 115 1470 223 165 42 358 102 395 124 32 18 42 10 22 -18z
m-5416 -123 c345 -97 988 -185 1564 -215 160 -8 252 -16 246 -22 -7 -7 -126
-32 -236 -48 -266 -39 -561 -43 -886 -10 -430 43 -673 126 -785 268 -42 53
-49 73 -21 62 9 -3 63 -19 118 -35z m-272 -111 c117 -183 380 -298 816 -359
519 -72 1050 -42 1395 80 105 37 160 64 233 114 l53 35 359 1 c351 1 361 1
389 -20 52 -36 183 -97 266 -124 204 -64 349 -86 626 -93 239 -6 416 5 674 42
457 66 761 176 930 336 l53 50 97 -58 c218 -130 316 -274 260 -383 -17 -32
-61 -60 -95 -60 -28 0 -78 26 -113 58 -21 20 -38 27 -68 27 -55 0 -94 -43
-104 -111 -23 -173 -177 -259 -325 -184 -41 21 -71 52 -94 97 -25 50 -55 73
-96 73 -51 0 -78 -24 -112 -99 -51 -115 -94 -155 -182 -172 -82 -15 -151 29
-205 131 -43 81 -65 100 -116 100 -54 0 -78 -18 -105 -82 -50 -117 -110 -175
-205 -199 -110 -28 -213 32 -281 162 -41 78 -57 90 -116 91 -53 1 -84 -24
-111 -87 -64 -153 -187 -237 -349 -238 -69 -1 -84 3 -152 37 -87 43 -130 89
-174 186 -38 84 -62 105 -119 105 -48 0 -41 5 -139 -111 -61 -74 -130 -107
-230 -112 -73 -4 -88 -1 -140 22 -74 34 -96 54 -150 138 -48 74 -66 88 -117
88 -46 0 -80 -29 -102 -87 -40 -109 -107 -182 -194 -211 -19 -7 -66 -12 -105
-12 -123 0 -210 58 -260 172 -29 64 -56 88 -104 88 -58 0 -91 -25 -122 -95
-60 -134 -174 -215 -302 -215 -161 0 -269 86 -320 255 -27 89 -53 115 -112
115 -37 0 -49 -5 -73 -32 -91 -104 -142 -147 -194 -162 -88 -27 -151 -18 -217
31 -49 37 -72 91 -79 190 -8 106 -28 138 -90 138 -31 0 -51 -10 -102 -50 -57
-45 -68 -49 -124 -53 -76 -4 -120 20 -144 75 -41 99 38 235 199 345 66 44 140
88 148 87 3 0 22 -27 44 -60z m-104 -626 c0 -31 65 -136 108 -174 152 -133
354 -139 546 -16 33 21 51 27 54 19 9 -28 92 -130 128 -159 207 -163 497 -147
687 39 l59 58 46 -39 c111 -92 214 -126 357 -119 106 6 183 31 263 85 30 21
66 54 80 73 14 19 29 39 33 43 4 5 28 -8 54 -28 197 -150 444 -154 647 -9 l48
34 72 -74 c226 -228 567 -228 800 1 l57 56 47 -42 c180 -158 448 -151 612 16
l52 54 50 -44 c72 -65 148 -91 254 -85 109 6 190 43 266 123 l52 56 37 -25
c207 -143 497 -84 597 121 20 41 31 52 43 48 9 -4 43 -9 76 -12 l60 -6 94 -94
c51 -52 89 -98 85 -102 -9 -8 -168 -30 -679 -96 -324 -42 -467 -58 -770 -85
-524 -46 -752 -78 -980 -134 -399 -99 -665 -222 -920 -427 -55 -44 -81 -60
-91 -53 -237 165 -417 253 -665 322 -288 81 -536 115 -1131 152 -381 24 -665
51 -907 86 -229 33 -431 70 -443 82 -19 19 58 177 152 310 48 68 70 82 70 45z
m6004 -451 c8 -13 -20 -106 -52 -175 -106 -226 -318 -369 -777 -526 -587 -201
-1380 -311 -2360 -328 -913 -15 -1712 69 -2161 228 -344 121 -522 300 -574
578 -5 29 -8 56 -5 61 2 4 28 3 57 -1 238 -37 504 -63 1003 -99 424 -31 606
-49 769 -76 385 -65 717 -203 921 -383 105 -93 120 -93 233 10 163 149 337
258 544 339 337 133 605 185 1248 245 475 44 859 88 1045 119 103 17 103 17
109 8z"/>
<path d="M5193 6939 c-71 -21 -95 -99 -45 -149 77 -76 252 -31 252 65 0 71
-104 114 -207 84z"/>
<path d="M6403 6870 c-40 -24 -54 -77 -29 -115 54 -82 218 -81 252 1 20 47 0
94 -49 117 -48 23 -134 22 -174 -3z"/>
<path d="M4035 6731 c-54 -24 -77 -53 -78 -95 -2 -86 104 -118 210 -62 35 17
63 61 63 96 0 12 -13 35 -29 51 -25 24 -38 29 -78 29 -26 0 -66 -9 -88 -19z"/>
<path d="M3250 6657 c-36 -18 -55 -82 -40 -137 20 -73 74 -107 135 -84 25 10
45 58 45 109 0 100 -64 151 -140 112z"/>
<path d="M5533 6490 c-69 -29 -53 -163 27 -217 41 -28 80 -29 108 -3 47 44 40
121 -16 181 -39 41 -81 55 -119 39z"/>
<path d="M6334 6431 c-44 -20 -54 -35 -54 -85 0 -54 61 -96 140 -96 143 0 178
152 43 189 -53 15 -82 13 -129 -8z"/>
<path d="M4735 6398 c-32 -17 -45 -39 -45 -78 0 -91 154 -147 229 -84 56 47
33 135 -44 164 -35 13 -115 12 -140 -2z"/>
<path d="M7243 6403 c-46 -9 -70 -92 -42 -146 17 -32 60 -77 91 -93 92 -48
166 30 123 127 -20 43 -86 109 -109 109 -8 0 -20 2 -28 4 -7 2 -23 1 -35 -1z"/>
<path d="M2842 6313 c-47 -23 -107 -96 -122 -147 -14 -52 -1 -91 41 -115 33
-19 69 -9 116 32 90 79 121 183 67 226 -32 25 -58 26 -102 4z"/>
<path d="M3800 6157 c-63 -32 -108 -150 -78 -207 16 -29 55 -45 90 -37 64 16
131 140 109 200 -19 50 -71 69 -121 44z"/>
</g>
</svg>
