<?xml version="1.0" standalone="no"?>
<!DOCTYPE svg PUBLIC "-//W3C//DTD SVG 20010904//EN"
 "http://www.w3.org/TR/2001/REC-SVG-20010904/DTD/svg10.dtd">
<svg version="1.0" xmlns="http://www.w3.org/2000/svg"
 width="1024.000000pt" height="1024.000000pt" viewBox="0 0 1024.000000 1024.000000"
 preserveAspectRatio="xMidYMid meet">
<metadata>
Created by potrace 1.16, written by Peter Selinger 2001-2019
</metadata>
<g transform="translate(0.000000,1024.000000) scale(0.100000,-0.100000)"
fill="#000000" stroke="none">
<path d="M4877 7317 c-11 -7 -24 -41 -32 -81 -19 -92 -48 -138 -169 -265 -163
-173 -215 -295 -203 -479 6 -92 26 -158 90 -290 45 -92 53 -102 88 -102 28 0
59 30 59 57 0 7 -25 64 -55 126 -67 138 -85 225 -67 319 21 106 64 177 187
307 78 84 120 138 142 183 56 115 65 206 23 228 -25 13 -43 13 -63 -3z"/>
<path d="M5217 6973 c-156 -247 -191 -460 -112 -685 14 -39 32 -80 42 -90 20
-23 66 -23 88 -1 21 20 16 47 -21 133 -26 59 -29 76 -29 180 0 100 4 125 28
197 16 45 48 112 72 150 64 98 60 153 -12 153 -27 0 -37 -7 -56 -37z"/>
<path d="M4038 6888 c-33 -27 -79 -104 -98 -166 -52 -167 1 -328 164 -498 34
-35 69 -64 79 -64 10 0 29 11 43 25 34 34 26 54 -55 140 -154 163 -181 340
-70 459 21 24 39 52 39 63 0 43 -66 69 -102 41z"/>
<path d="M3930 5869 c-614 -17 -897 -58 -975 -139 -39 -41 -42 -110 -8 -154
13 -16 21 -31 18 -35 -8 -14 15 -513 29 -612 77 -539 276 -884 655 -1137 l84
-56 -84 -13 c-201 -29 -299 -89 -299 -184 0 -53 34 -95 103 -128 120 -56 86
-54 1140 -58 1089 -4 1091 -4 1216 59 74 37 103 75 103 134 0 88 -116 159
-297 182 l-60 7 85 52 c47 29 117 78 157 111 l72 59 133 6 c336 14 582 111
778 307 184 184 263 374 264 635 0 205 -42 334 -148 451 -79 87 -165 126 -295
131 -63 3 -114 0 -148 -10 l-51 -14 -4 45 c-3 35 1 49 19 68 46 49 36 129 -19
169 -66 46 -263 85 -528 105 -372 27 -1329 37 -1940 19z m1255 -109 c503 -10
738 -22 905 -46 121 -17 242 -52 237 -68 -11 -34 -193 -79 -407 -101 -306 -32
-577 -40 -1275 -40 -873 1 -1220 19 -1445 76 -88 22 -160 53 -160 68 0 25 162
62 345 80 121 12 634 31 910 34 110 1 250 3 310 4 61 1 322 -2 580 -7z m-1970
-299 c208 -43 420 -58 1008 -72 811 -19 1660 16 1965 82 52 11 95 19 97 17 6
-6 -25 -326 -45 -465 -24 -161 -66 -343 -106 -453 -142 -395 -435 -685 -814
-805 l-81 -25 -589 0 -589 0 -83 26 c-350 111 -646 407 -777 777 -65 185 -93
339 -110 597 -14 215 -19 349 -13 354 2 3 12 1 21 -3 9 -5 61 -18 116 -30z
m3455 -97 c145 -43 235 -173 261 -377 17 -132 -15 -306 -79 -432 -124 -246
-354 -406 -662 -459 -97 -16 -200 -27 -200 -20 0 3 18 28 39 57 22 29 57 81
79 117 l39 65 59 7 c226 25 466 234 519 450 56 228 -61 412 -272 426 l-73 5 0
62 c0 73 5 79 81 99 72 20 144 19 209 0z m-150 -294 c50 -25 85 -72 101 -133
34 -135 -65 -319 -228 -424 -58 -37 -167 -82 -177 -72 -3 3 12 58 34 123 43
127 82 294 100 421 6 44 13 86 15 93 7 20 110 15 155 -8z m-2601 -1407 l86
-28 640 0 640 0 82 26 82 26 10 -28 c11 -31 21 -35 122 -44 106 -9 219 -48
219 -75 0 -5 -15 -17 -32 -26 -84 -44 -85 -44 -1126 -44 -1080 0 -1097 1
-1160 55 l-27 23 47 21 c68 29 113 40 198 47 82 7 120 24 120 54 0 25 -5 25
99 -7z"/>
</g>
</svg>
