<?xml version="1.0" standalone="no"?>
<!DOCTYPE svg PUBLIC "-//W3C//DTD SVG 20010904//EN"
 "http://www.w3.org/TR/2001/REC-SVG-20010904/DTD/svg10.dtd">
<svg version="1.0" xmlns="http://www.w3.org/2000/svg"
 width="1024.000000pt" height="1024.000000pt" viewBox="0 0 1024.000000 1024.000000"
 preserveAspectRatio="xMidYMid meet">
<metadata>
Created by potrace 1.16, written by Peter Selinger 2001-2019
</metadata>
<g transform="translate(0.000000,1024.000000) scale(0.100000,-0.100000)"
fill="#000000" stroke="none">
<path d="M4597 8498 c-90 -87 -97 -96 -97 -132 0 -37 8 -47 131 -170 146 -145
205 -218 254 -316 38 -77 82 -208 86 -265 l4 -40 -45 -3 c-87 -5 -266 -33
-363 -58 -429 -108 -684 -340 -823 -747 -39 -113 -58 -187 -109 -417 -88 -395
-178 -585 -470 -995 -277 -387 -402 -678 -450 -1043 -52 -394 47 -806 276
-1144 88 -130 276 -316 406 -402 282 -187 576 -280 928 -293 177 -7 316 5 621
53 258 40 325 41 534 13 453 -62 853 -4 1217 176 375 185 620 467 747 856 54
167 70 270 70 464 0 206 -17 315 -80 504 -73 220 -178 412 -412 755 -196 286
-271 411 -337 566 -72 167 -96 243 -184 582 -101 384 -203 594 -375 763 -95
94 -174 151 -291 207 -47 22 -85 43 -84 47 0 3 32 21 72 40 109 52 219 166
281 291 71 145 88 225 90 410 1 181 -10 235 -52 251 -60 23 -324 -17 -477 -72
-177 -64 -351 -198 -425 -328 -19 -33 -38 -61 -41 -61 -3 0 -11 23 -18 52 -17
73 -77 203 -126 273 -55 77 -141 159 -230 218 -113 75 -114 75 -228 -35z m209
-101 c138 -106 234 -264 280 -463 28 -121 44 -337 26 -348 -12 -7 -18 9 -27
77 -11 80 -51 202 -94 284 -59 112 -126 196 -246 309 -58 54 -105 103 -105
108 0 14 72 86 86 86 7 0 43 -24 80 -53z m1270 -134 c22 -206 -74 -472 -212
-591 -58 -50 -165 -104 -251 -128 -55 -15 -71 -16 -152 -4 -50 8 -91 17 -91
20 0 11 40 28 134 60 141 47 214 97 288 198 l40 54 -23 24 c-12 13 -25 24 -29
24 -3 0 -30 -23 -60 -52 -81 -76 -158 -122 -257 -152 -104 -33 -162 -64 -198
-108 l-27 -33 5 100 c5 108 34 208 84 294 40 69 158 182 241 230 130 76 309
129 439 130 l61 1 8 -67z m-686 -838 c339 -60 596 -208 750 -432 110 -158 173
-318 260 -663 113 -443 200 -635 479 -1050 270 -403 342 -528 418 -724 61
-160 84 -280 90 -471 4 -144 2 -188 -16 -286 -109 -607 -543 -1009 -1226
-1136 -44 -8 -163 -17 -265 -20 -157 -4 -211 -2 -355 18 -218 29 -339 28 -540
-5 -256 -41 -302 -47 -455 -55 -409 -23 -757 65 -1060 267 -116 78 -300 263
-379 382 -117 175 -178 317 -227 525 -27 112 -29 134 -29 330 1 180 4 225 23
315 56 259 170 513 341 760 250 362 306 450 371 584 100 207 130 297 205 636
71 317 130 472 236 625 155 225 440 366 839 415 111 13 428 4 540 -15z"/>
<path d="M5495 6786 c-70 -31 -100 -101 -72 -169 43 -101 191 -101 234 0 28
69 -2 139 -74 169 -39 17 -50 17 -88 0z"/>
<path d="M4448 6694 c-78 -42 -76 -178 2 -219 115 -60 235 60 175 175 -29 55
-117 77 -177 44z"/>
<path d="M5226 6429 c-2 -8 -9 -33 -15 -56 -7 -25 -25 -53 -46 -72 -30 -26
-44 -31 -85 -31 -64 0 -111 39 -135 110 -9 28 -20 50 -24 50 -4 0 -28 -7 -54
-16 -52 -18 -52 -16 -21 -116 20 -62 84 -121 155 -142 66 -20 92 -20 158 0 93
27 158 109 175 221 7 46 7 46 -66 59 -28 4 -39 3 -42 -7z"/>
</g>
</svg>
