<?xml version="1.0" standalone="no"?>
<!DOCTYPE svg PUBLIC "-//W3C//DTD SVG 20010904//EN"
 "http://www.w3.org/TR/2001/REC-SVG-20010904/DTD/svg10.dtd">
<svg version="1.0" xmlns="http://www.w3.org/2000/svg"
 width="1024.000000pt" height="1024.000000pt" viewBox="0 0 1024.000000 1024.000000"
 preserveAspectRatio="xMidYMid meet">
<metadata>
Created by potrace 1.16, written by Peter Selinger 2001-2019
</metadata>
<g transform="translate(0.000000,1024.000000) scale(0.100000,-0.100000)"
fill="#000000" stroke="none">
<path d="M5157 7320 c-225 -38 -441 -171 -548 -336 -25 -38 -51 -66 -63 -68
-434 -84 -804 -217 -1089 -393 -179 -111 -372 -286 -422 -383 -9 -16 -19 -30
-24 -30 -16 0 -94 -70 -139 -124 -55 -66 -127 -208 -142 -282 -17 -82 -8 -226
18 -294 12 -30 39 -82 61 -114 l38 -59 -35 -46 c-53 -70 -100 -175 -113 -257
l-13 -74 -125 -41 c-329 -110 -576 -282 -660 -459 -23 -48 -26 -68 -26 -155 0
-90 3 -106 29 -160 20 -42 30 -79 33 -123 7 -127 84 -273 210 -399 302 -300
903 -496 1773 -577 395 -37 497 -41 1165 -41 1152 0 1731 56 2250 216 527 163
900 456 932 733 4 30 16 63 29 81 93 123 108 280 38 418 -88 177 -345 337
-716 447 -56 17 -102 31 -103 33 -1 1 -7 24 -14 50 -11 47 -11 48 29 104 78
109 109 253 77 363 -14 49 -14 61 -1 110 38 146 -5 331 -107 460 -33 42 -39
56 -39 99 0 144 -121 348 -288 487 -223 186 -515 329 -847 414 -82 22 -190 46
-240 54 -89 15 -91 16 -130 63 -124 149 -268 234 -459 274 -95 20 -250 23
-339 9z m329 -155 c283 -64 491 -315 433 -522 -46 -166 -363 -296 -719 -295
-269 1 -442 60 -514 176 -58 92 -43 245 35 367 16 25 57 73 92 106 167 160
423 224 673 168z m713 -361 c274 -61 572 -186 757 -316 177 -125 309 -277 348
-402 78 -249 -147 -502 -597 -670 -457 -171 -1078 -251 -1742 -225 -132 5
-248 12 -257 15 -15 4 -18 17 -18 64 0 276 205 503 534 593 69 19 105 22 246
21 153 0 171 -2 239 -27 41 -15 123 -59 184 -98 130 -85 175 -101 287 -102 68
-1 95 3 133 20 97 45 153 111 178 212 l16 66 82 41 c45 23 94 52 108 65 43 40
73 116 73 185 0 150 -80 246 -260 310 -41 15 -90 39 -108 55 -64 56 -142 29
-142 -49 0 -53 23 -71 163 -126 145 -57 161 -67 187 -120 23 -48 25 -83 8
-120 -15 -34 -45 -53 -123 -77 -95 -29 -114 -50 -131 -139 -26 -134 -72 -180
-183 -180 -79 0 -114 15 -237 98 -107 72 -191 106 -309 127 -351 61 -760 -81
-942 -328 -141 -192 -177 -390 -123 -682 40 -218 30 -325 -37 -413 -29 -39
-113 -82 -159 -82 -97 0 -195 63 -240 157 -55 111 -45 271 37 606 92 378 90
458 -17 599 -44 59 -54 79 -54 111 0 34 7 46 43 81 23 22 69 57 100 76 94 56
140 148 123 248 -3 20 -21 67 -41 104 -72 138 -34 214 123 244 l62 12 0 -93
c0 -257 149 -395 485 -450 175 -29 421 -14 605 35 118 32 286 119 351 181 105
102 149 252 113 382 -7 22 -3 22 135 -9z m-2051 -202 c-1 -60 4 -76 41 -146
62 -118 56 -135 -84 -228 -172 -115 -200 -261 -78 -421 29 -39 56 -82 60 -95
10 -42 -5 -193 -30 -295 -14 -54 -26 -100 -29 -102 -8 -8 -216 44 -348 88
-363 119 -590 300 -590 469 0 214 301 490 745 684 95 41 287 112 307 114 3 0
6 -30 6 -68z m-1158 -911 c43 -86 168 -198 315 -284 133 -78 391 -172 588
-216 49 -10 91 -21 94 -24 2 -3 -2 -47 -11 -98 -9 -51 -16 -107 -16 -125 0
-18 -4 -35 -10 -39 -13 -8 -273 56 -404 100 -246 82 -422 180 -543 300 -109
108 -138 168 -138 280 0 84 18 153 56 215 l22 35 13 -53 c8 -28 23 -70 34 -91z
m4470 -19 c24 -77 25 -109 5 -187 -90 -346 -733 -605 -1700 -686 -171 -15
-781 -18 -926 -6 l-96 9 -12 101 c-7 56 -15 115 -18 130 l-5 28 43 -8 c74 -13
780 -9 934 5 612 57 1092 189 1413 388 127 80 258 207 298 292 16 34 17 35 31
16 7 -10 23 -47 33 -82z m-12 -538 c-59 -120 -206 -235 -425 -332 -493 -221
-1302 -345 -2036 -312 -133 6 -262 13 -287 16 l-45 6 35 74 35 74 40 -6 c176
-23 806 -20 1085 6 726 68 1299 247 1560 487 30 28 56 47 58 42 2 -5 -7 -30
-20 -55z m-4510 -118 c31 -65 143 -179 237 -242 200 -132 498 -242 871 -319
66 -13 147 -37 180 -52 56 -26 68 -27 224 -29 91 -1 212 -7 270 -13 286 -30
832 -24 1165 15 584 67 1133 226 1423 410 29 19 55 34 59 34 11 0 -6 -98 -23
-131 -122 -238 -715 -470 -1414 -553 -311 -38 -825 -49 -1140 -26 -777 57
-1424 217 -1743 430 -191 128 -257 293 -183 458 16 34 34 62 40 62 7 0 22 -20
34 -44z m210 6 c175 -99 447 -194 734 -257 l76 -17 21 -66 c11 -36 19 -68 17
-69 -1 -1 -60 13 -132 32 -250 66 -450 146 -592 238 -66 43 -216 176 -199 177
4 0 38 -17 75 -38z m-493 -339 c-57 -133 -55 -245 5 -362 51 -101 193 -217
375 -309 402 -202 965 -323 1830 -394 231 -19 832 -16 1045 5 545 54 948 154
1264 314 260 132 386 266 418 444 12 72 -2 169 -37 240 -16 34 -19 49 -10 49
23 0 224 -70 299 -104 182 -83 315 -185 364 -280 172 -334 -506 -693 -1608
-850 -642 -92 -1388 -109 -2165 -50 -662 49 -1253 153 -1695 296 -382 124
-600 248 -689 392 -33 54 -36 66 -36 130 1 84 15 116 89 194 91 97 224 176
430 258 126 49 131 50 121 27z m312 -266 c323 -215 929 -373 1703 -444 242
-22 876 -25 1070 -5 382 39 625 82 885 157 342 98 604 227 751 370 49 48 55
52 64 35 6 -10 10 -47 10 -82 -1 -153 -109 -269 -365 -393 -565 -273 -1480
-370 -2512 -265 -867 89 -1494 280 -1725 527 -61 67 -88 121 -88 180 0 97 4
98 73 29 34 -34 94 -83 134 -109z m-662 -717 c534 -259 1367 -423 2440 -480
243 -13 930 -13 1145 0 380 23 673 57 991 115 441 81 756 177 1035 315 74 37
134 64 134 60 0 -17 -141 -148 -210 -196 -373 -256 -944 -397 -1800 -444 -739
-40 -1349 -38 -1925 5 -1054 80 -1706 301 -1964 664 -40 56 -39 69 2 41 17
-12 86 -48 152 -80z"/>
<path d="M5576 6679 c-15 -17 -26 -43 -26 -59 0 -16 11 -42 26 -59 66 -79 189
0 149 97 -26 61 -106 73 -149 21z"/>
<path d="M4900 6637 c-65 -33 -61 -135 6 -163 50 -21 97 -5 118 40 9 19 16 39
16 45 0 25 -26 64 -51 77 -34 17 -56 18 -89 1z"/>
<path d="M5255 6628 c-33 -18 -45 -40 -45 -83 0 -94 123 -127 165 -44 23 43
18 77 -14 110 -31 31 -70 37 -106 17z"/>
</g>
</svg>
