<?xml version="1.0" standalone="no"?>
<!DOCTYPE svg PUBLIC "-//W3C//DTD SVG 20010904//EN"
 "http://www.w3.org/TR/2001/REC-SVG-20010904/DTD/svg10.dtd">
<svg version="1.0" xmlns="http://www.w3.org/2000/svg"
 width="1024.000000pt" height="1024.000000pt" viewBox="0 0 1024.000000 1024.000000"
 preserveAspectRatio="xMidYMid meet">
<metadata>
Created by potrace 1.16, written by Peter Selinger 2001-2019
</metadata>
<g transform="translate(0.000000,1024.000000) scale(0.100000,-0.100000)"
fill="#000000" stroke="none">
<path d="M5181 7094 c-92 -105 -191 -402 -191 -575 0 -65 -2 -67 -65 -45 -145
50 -414 12 -608 -85 -106 -54 -179 -108 -277 -209 -267 -271 -360 -645 -279
-1123 46 -268 159 -564 307 -802 275 -442 661 -748 846 -671 30 12 42 13 53 5
20 -17 124 -5 209 24 104 36 267 118 368 186 505 338 899 879 1024 1406 24 98
26 130 26 295 0 159 -3 196 -22 263 -93 335 -324 572 -658 673 -79 24 -106 27
-244 28 -138 1 -162 -2 -215 -22 -32 -12 -61 -22 -63 -22 -10 0 11 108 35 183
27 87 64 166 119 258 71 118 41 153 -204 240 -108 38 -123 37 -161 -7z m159
-168 c19 -7 35 -17 34 -22 0 -5 -19 -47 -42 -94 -49 -101 -89 -234 -103 -345
-22 -172 -24 -180 -39 -183 -10 -1 -21 15 -32 50 -37 113 15 417 98 581 16 30
31 32 84 13z m-463 -612 c67 -23 127 -67 174 -127 123 -160 120 -160 230 -47
157 162 295 188 489 92 106 -52 232 -178 282 -282 20 -41 44 -102 53 -135 25
-92 30 -272 11 -382 -65 -372 -338 -874 -672 -1233 -236 -254 -506 -460 -604
-460 -57 0 -177 80 -314 210 -280 266 -511 692 -598 1105 -20 95 -23 138 -23
310 1 184 3 208 27 297 89 326 322 561 640 643 113 29 235 33 305 9z m1334
-243 c107 -114 164 -216 206 -372 24 -89 24 -304 -1 -419 -57 -269 -220 -591
-433 -855 -107 -133 -315 -334 -444 -430 -164 -122 -177 -121 -57 4 277 289
467 559 623 883 188 393 237 727 148 1013 -19 62 -77 178 -110 222 -47 61 -6
34 68 -46z"/>
<path d="M4740 6152 c-50 -50 -67 -169 -31 -213 16 -20 23 -22 47 -14 70 25
110 188 58 239 -22 23 -42 20 -74 -12z"/>
<path d="M5556 6078 c-32 -46 -7 -148 36 -148 36 0 48 19 48 75 0 56 -20 95
-50 95 -10 0 -26 -10 -34 -22z"/>
<path d="M4275 6007 c-36 -36 -65 -116 -65 -179 0 -68 51 -95 101 -52 54 48
89 205 54 244 -26 29 -52 25 -90 -13z"/>
<path d="M5306 5907 c-45 -45 -44 -147 2 -147 52 0 95 84 70 138 -17 36 -42
39 -72 9z"/>
<path d="M5782 5899 c-39 -15 -62 -67 -62 -140 0 -52 4 -70 20 -87 24 -26 38
-27 66 -7 32 22 54 77 54 134 0 84 -27 119 -78 100z"/>
<path d="M4949 5877 c-30 -22 -49 -75 -49 -132 0 -72 12 -95 50 -95 37 0 64
34 80 100 23 98 -23 171 -81 127z"/>
<path d="M4401 5606 c-19 -7 -49 -29 -65 -50 -25 -31 -30 -46 -30 -90 0 -90
56 -146 147 -146 60 0 99 21 126 70 69 123 -49 264 -178 216z"/>
<path d="M4055 5590 c-23 -25 -33 -114 -15 -135 34 -41 90 9 90 81 0 23 -3 49
-6 58 -9 22 -47 20 -69 -4z"/>
<path d="M5353 5550 c-55 -25 -83 -70 -83 -135 0 -89 58 -148 146 -148 51 0
108 33 130 76 22 41 15 138 -12 168 -22 25 -90 59 -119 59 -11 0 -39 -9 -62
-20z"/>
<path d="M5823 5459 c-89 -33 -50 -288 41 -265 36 9 60 79 53 155 -8 89 -42
129 -94 110z"/>
<path d="M4672 5287 c-26 -28 -28 -74 -7 -138 35 -103 130 -169 242 -169 35 0
79 6 97 14 116 48 208 223 152 285 -29 32 -89 29 -115 -5 -12 -15 -21 -36 -21
-46 0 -11 -15 -35 -34 -54 -67 -67 -164 -33 -181 64 -12 70 -87 98 -133 49z"/>
<path d="M4140 5282 c-44 -36 8 -97 94 -108 59 -9 96 13 96 56 0 24 -7 33 -40
50 -50 25 -120 26 -150 2z"/>
<path d="M5473 5187 c-48 -18 -67 -40 -59 -72 9 -35 46 -48 128 -43 78 4 121
29 126 72 3 22 -2 29 -32 41 -42 18 -118 18 -163 2z"/>
<path d="M4109 5083 c-42 -10 -52 -111 -16 -164 45 -68 97 -38 97 56 0 69 -37
118 -81 108z"/>
<path d="M5441 4844 c-12 -15 -28 -49 -36 -77 -55 -187 59 -280 131 -107 22
51 28 150 12 180 -20 38 -79 40 -107 4z"/>
<path d="M4351 4686 c-46 -49 -47 -184 -3 -260 14 -24 26 -32 54 -34 48 -4 69
26 75 112 7 83 -11 160 -44 186 -34 26 -55 25 -82 -4z"/>
<path d="M4803 4593 c-27 -41 -25 -152 3 -190 29 -38 69 -38 98 0 28 38 30
149 3 190 -25 38 -79 38 -104 0z"/>
<path d="M5151 4394 c-32 -41 -46 -123 -30 -174 17 -53 38 -68 75 -55 40 15
66 73 67 150 1 49 -4 69 -18 85 -26 28 -69 26 -94 -6z"/>
<path d="M4564 4205 c-22 -34 -15 -125 13 -163 50 -68 111 -18 99 82 -10 91
-75 138 -112 81z"/>
<path d="M4832 4067 c-32 -39 -19 -140 20 -153 48 -15 80 91 42 144 -17 24
-46 29 -62 9z"/>
</g>
</svg>
