<?xml version="1.0" standalone="no"?>
<!DOCTYPE svg PUBLIC "-//W3C//DTD SVG 20010904//EN"
 "http://www.w3.org/TR/2001/REC-SVG-20010904/DTD/svg10.dtd">
<svg version="1.0" xmlns="http://www.w3.org/2000/svg"
 width="1024.000000pt" height="1024.000000pt" viewBox="0 0 1024.000000 1024.000000"
 preserveAspectRatio="xMidYMid meet">
<metadata>
Created by potrace 1.16, written by Peter Selinger 2001-2019
</metadata>
<g transform="translate(0.000000,1024.000000) scale(0.100000,-0.100000)"
fill="#000000" stroke="none">
<path d="M4895 6744 c-388 -39 -700 -141 -999 -326 -257 -159 -521 -427 -680
-689 -193 -319 -305 -730 -267 -979 24 -154 112 -279 245 -345 l70 -36 201
-502 c111 -276 211 -520 223 -543 26 -51 90 -110 151 -138 l46 -21 1160 -3
c796 -2 1176 1 1211 8 65 14 149 71 187 127 26 40 68 146 323 823 84 224 108
279 131 295 108 79 179 184 203 300 27 130 8 356 -47 545 -135 467 -470 902
-900 1169 -237 147 -536 255 -813 295 -107 15 -372 27 -445 20z m465 -189
c219 -39 472 -132 655 -240 526 -309 904 -880 932 -1407 10 -183 -38 -297
-148 -352 l-53 -26 -1717 0 -1717 0 -53 28 c-64 33 -113 93 -134 164 -21 73
-19 219 5 340 84 409 310 777 656 1068 277 233 653 394 1024 440 113 13 439 5
550 -15z m1294 -2262 c-14 -38 -75 -198 -136 -358 -60 -159 -128 -339 -150
-400 -51 -140 -65 -163 -110 -186 -36 -18 -76 -19 -1184 -19 -1258 0 -1190 -3
-1232 59 -10 14 -101 233 -201 486 -101 253 -185 466 -188 473 -4 9 322 12
1610 12 l1616 0 -25 -67z"/>
<path d="M5112 6082 c-13 -2 -32 -18 -43 -35 -41 -65 2 -212 83 -281 118 -101
310 -81 406 43 59 77 39 161 -39 161 -28 0 -42 -9 -84 -55 -48 -52 -54 -55
-98 -55 -39 0 -53 5 -83 33 -31 28 -37 41 -43 94 -4 34 -13 68 -19 76 -14 17
-46 24 -80 19z"/>
<path d="M4263 6010 c-32 -13 -43 -41 -42 -107 1 -69 13 -106 55 -166 81 -114
260 -131 368 -35 57 49 86 112 86 183 0 47 -3 57 -25 71 -17 11 -35 14 -57 10
-44 -9 -57 -23 -64 -68 -10 -57 -52 -98 -101 -98 -68 0 -113 54 -113 135 0 25
-8 44 -25 60 -25 26 -45 30 -82 15z"/>
<path d="M5688 5550 c-37 -28 -54 -110 -38 -184 35 -169 208 -266 374 -210 27
9 70 37 101 65 89 82 105 162 41 205 -38 24 -71 11 -112 -47 -42 -58 -77 -79
-132 -79 -77 0 -124 63 -120 159 3 49 -1 64 -17 80 -32 31 -67 35 -97 11z"/>
<path d="M3604 5479 c-15 -16 -19 -36 -19 -88 2 -150 119 -266 270 -264 70 1
120 20 170 65 74 64 103 171 56 209 -48 39 -97 18 -134 -57 -20 -38 -77 -68
-116 -59 -47 10 -80 54 -91 120 -5 32 -17 66 -26 76 -24 27 -85 25 -110 -2z"/>
<path d="M3872 4237 c-13 -13 -22 -36 -22 -53 0 -16 38 -186 84 -379 89 -370
95 -385 151 -385 27 0 71 33 80 59 3 11 -19 124 -50 253 -31 128 -70 291 -86
362 -16 72 -37 138 -46 148 -24 27 -84 24 -111 -5z"/>
<path d="M4328 4243 c-9 -10 -18 -27 -21 -38 -3 -11 24 -182 62 -379 64 -339
69 -360 95 -383 32 -27 53 -29 84 -7 46 32 45 45 -18 392 -33 180 -62 342 -65
360 -4 18 -15 42 -26 53 -25 25 -90 26 -111 2z"/>
<path d="M4770 4240 c-14 -14 -20 -33 -20 -67 0 -72 30 -643 36 -680 5 -35 45
-73 76 -73 11 0 33 14 50 31 l31 30 -6 87 c-3 48 -12 212 -18 365 -11 247 -15
282 -32 303 -24 31 -88 33 -117 4z"/>
<path d="M5232 4236 c-17 -22 -20 -49 -26 -233 -3 -114 -9 -279 -13 -365 l-6
-157 32 -31 c26 -26 37 -31 59 -25 60 14 66 31 73 203 23 552 23 588 0 611
-31 31 -93 29 -119 -3z"/>
<path d="M5661 4243 c-19 -16 -29 -64 -81 -382 -33 -200 -58 -372 -55 -382 8
-25 53 -59 77 -59 11 0 32 12 47 28 26 26 30 45 84 372 32 190 57 359 57 377
0 57 -81 85 -129 46z"/>
<path d="M6123 4241 c-13 -12 -26 -43 -33 -78 -6 -32 -25 -119 -40 -193 -16
-74 -45 -211 -65 -303 -20 -93 -33 -177 -30 -188 9 -27 45 -59 66 -59 32 0 67
22 78 49 9 23 76 318 141 630 22 103 22 103 3 130 -26 35 -88 41 -120 12z"/>
</g>
</svg>
