<?xml version="1.0" encoding="UTF-8" standalone="no"?>
<!DOCTYPE svg PUBLIC "-//W3C//DTD SVG 1.1//EN" "http://www.w3.org/Graphics/SVG/1.1/DTD/svg11.dtd">
<svg width="100%" height="100%" viewBox="0 0 1024 1024" version="1.1" xmlns="http://www.w3.org/2000/svg" xmlns:xlink="http://www.w3.org/1999/xlink" xml:space="preserve" xmlns:serif="http://www.serif.com/" style="fill-rule:evenodd;clip-rule:evenodd;stroke-linejoin:round;stroke-miterlimit:2;">
    <g transform="matrix(0.1,0,0,-0.1,0,1024)">
        <path d="M4921,6783C4853,6759 4788,6688 4759,6607C4741,6556 4731,6541 4720,6546C4670,6565 4591,6579 4565,6574C4475,6555 4418,6495 4399,6399L4388,6343L4337,6357C4212,6391 4055,6351 3956,6260C3875,6185 3822,6043 3833,5934L3838,5882L3682,5754C3323,5461 2998,5187 2993,5173C2987,5157 2995,5027 3041,4460C3057,4259 3070,4080 3070,4063L3070,4030C3070,4030 2958,3920 4923,3920C7037,3920 6889,4059 6911,4078C7019,4171 7101,4385 7131,4649C7146,4789 7137,5140 7115,5240C7083,5390 6992,5542 6861,5662C6782,5735 6657,5829 6560,5887C6487,5931 6479,5939 6464,5984C6441,6050 6370,6126 6316,6142C6294,6148 6259,6164 6240,6177C6189,6211 6087,6240 6017,6240C5973,6240 5951,6245 5937,6258C5925,6268 5902,6275 5875,6275L5832,6275L5826,6321C5797,6536 5546,6675 5323,6597L5252,6573L5235,6616C5181,6758 5046,6829 4921,6783ZM5091,6641C5142,6584 5164,6499 5158,6388C5152,6283 5125,6219 5060,6155L5011,6107L4951,6133C4838,6182 4736,6188 4635,6153C4598,6140 4595,6140 4578,6162C4506,6254 4482,6384 4529,6434C4592,6501 4684,6464 4773,6336C4795,6304 4832,6302 4860,6330C4885,6355 4885,6370 4859,6427C4835,6480 4839,6529 4873,6599C4904,6661 4953,6693 5010,6687C5047,6683 5061,6675 5091,6641ZM5542,6500C5628,6476 5711,6378 5726,6283C5733,6233 5709,6141 5680,6115C5661,6098 5659,6098 5619,6135C5596,6155 5548,6186 5511,6204C5450,6232 5437,6235 5344,6235L5243,6234L5253,6270C5258,6289 5265,6339 5269,6380L5275,6455L5329,6483C5389,6513 5471,6519 5542,6500ZM4340,6239C4395,6214 4445,6168 4471,6118L4490,6080L4446,6026C4386,5952 4358,5875 4355,5775L4352,5695L4314,5683C4136,5629 3956,5753 3942,5939C3937,6020 3949,6066 3996,6135C4052,6218 4130,6259 4235,6259C4274,6259 4311,6253 4340,6239ZM5432,6120C5492,6103 5560,6049 5591,5995C5618,5946 5618,5944 5604,5890C5587,5826 5586,5788 5600,5741C5608,5711 5606,5700 5585,5664C5533,5575 5432,5518 5326,5517C5274,5516 5189,5540 5157,5564C5139,5578 5139,5580 5156,5627C5168,5659 5174,5705 5174,5765C5174,5847 5171,5862 5140,5929L5106,6003L5158,6050C5186,6077 5229,6105 5252,6113C5303,6131 5380,6134 5432,6120ZM6134,6109C6337,6034 6400,5763 6253,5600C6131,5464 5938,5453 5802,5575C5731,5639 5705,5702 5706,5810C5706,5875 5711,5906 5727,5942C5766,6026 5843,6094 5930,6121C5980,6136 6078,6130 6134,6109ZM4895,6039C4954,6011 5017,5949 5043,5892C5076,5820 5074,5692 5038,5624C4983,5519 4882,5457 4765,5456C4604,5456 4474,5577 4462,5740C4457,5818 4469,5869 4509,5932C4585,6052 4763,6101 4895,6039ZM6655,5691C6792,5586 6910,5459 6958,5363C7031,5221 7057,4896 7019,4610C6993,4419 6925,4247 6843,4165C6788,4110 6701,4066 6615,4048C6538,4031 3207,4029 3191,4045C3186,4051 3179,4090 3175,4132L3168,4210L4886,4212L6605,4215L6652,4239C6766,4295 6815,4403 6845,4660C6863,4808 6864,5019 6849,5162L6838,5265L6785,5330C6755,5366 6662,5464 6576,5549C6434,5690 6422,5704 6431,5727C6436,5740 6440,5766 6440,5784C6440,5802 6443,5819 6446,5823C6453,5830 6571,5756 6655,5691ZM3928,5701C3990,5630 4074,5585 4173,5568C4229,5559 4251,5560 4312,5575C4359,5586 4385,5589 4388,5582C4401,5542 4481,5453 4533,5419C4618,5364 4683,5347 4790,5352C4863,5355 4888,5361 4941,5388C4976,5405 5020,5433 5039,5450L5073,5482L5144,5448C5211,5417 5221,5415 5325,5415C5428,5415 5439,5417 5500,5447C5536,5464 5585,5499 5609,5523L5652,5568L5708,5513C5886,5335 6159,5340 6328,5525L6388,5590L6539,5434C6622,5348 6690,5274 6690,5269C6690,5264 6642,5260 6584,5260C6526,5260 6169,5253 5791,5245C5414,5237 4754,5224 4325,5215C3896,5207 3465,5198 3368,5194C3270,5191 3190,5192 3190,5197C3190,5201 3248,5253 3318,5312C3651,5591 3856,5759 3865,5759C3871,5760 3899,5733 3928,5701ZM6748,4975C6753,4705 6722,4480 6670,4395C6658,4376 6630,4352 6606,4341C6564,4320 6563,4320 4862,4320L3161,4320L3156,4363C3153,4386 3141,4533 3130,4690C3119,4847 3107,4998 3104,5026L3099,5078L3212,5084C3274,5087 3469,5092 3645,5095C3821,5098 4300,5107 4710,5115C5120,5123 5714,5134 6030,5140C6346,5146 6630,5152 6660,5154C6690,5155 6722,5156 6730,5156C6743,5155 6745,5126 6748,4975Z" style="fill-rule:nonzero;"/>
        <path d="M5427,6434C5414,6421 5420,6382 5436,6376C5458,6367 5482,6389 5478,6414C5475,6435 5441,6448 5427,6434Z" style="fill-rule:nonzero;"/>
        <path d="M4176,6144C4154,6123 4156,6067 4178,6047C4203,6024 4263,6025 4283,6048C4304,6071 4305,6124 4284,6144C4275,6153 4252,6160 4230,6160C4208,6160 4185,6153 4176,6144Z" style="fill-rule:nonzero;"/>
        <path d="M5362,6014C5342,5978 5375,5941 5413,5955C5450,5970 5436,6030 5395,6030C5382,6030 5367,6023 5362,6014Z" style="fill-rule:nonzero;"/>
        <path d="M5970,6040C5927,5997 5958,5927 6020,5927C6036,5927 6059,5935 6070,5945C6095,5968 6096,6021 6072,6043C6047,6066 5994,6064 5970,6040Z" style="fill-rule:nonzero;"/>
        <path d="M4737,5972C4697,5929 4729,5860 4788,5860C4846,5860 4877,5917 4846,5965C4825,5996 4762,6000 4737,5972Z" style="fill-rule:nonzero;"/>
        <path d="M3750,5440C3709,5399 3740,5330 3799,5330C3836,5330 3873,5373 3864,5404C3849,5456 3786,5476 3750,5440Z" style="fill-rule:nonzero;"/>
        <path d="M4208,5426C4199,5404 4200,5397 4215,5380C4250,5342 4294,5364 4288,5417C4286,5440 4280,5446 4253,5448C4226,5451 4218,5447 4208,5426Z" style="fill-rule:nonzero;"/>
        <path d="M5864,5042C5845,5029 5841,5003 5856,4981C5875,4955 5902,4954 5925,4980C5960,5019 5908,5072 5864,5042Z" style="fill-rule:nonzero;"/>
        <path d="M4906,4974C4880,4949 4886,4893 4915,4874C4980,4832 5059,4922 5002,4973C4979,4994 4926,4995 4906,4974Z" style="fill-rule:nonzero;"/>
        <path d="M3366,4938C3344,4907 3346,4874 3370,4850C3394,4826 3411,4825 3450,4845C3474,4858 3480,4867 3480,4895C3480,4938 3458,4960 3415,4960C3391,4960 3376,4953 3366,4938Z" style="fill-rule:nonzero;"/>
        <path d="M5361,4886C5343,4864 5365,4828 5393,4832C5424,4836 5425,4894 5394,4898C5383,4900 5368,4894 5361,4886Z" style="fill-rule:nonzero;"/>
        <path d="M6190,4820C6165,4795 6164,4748 6188,4727C6213,4705 6263,4706 6283,4728C6320,4769 6289,4840 6235,4840C6221,4840 6201,4831 6190,4820Z" style="fill-rule:nonzero;"/>
        <path d="M4000,4758C3977,4733 3975,4718 3991,4687C4007,4658 4019,4650 4052,4650C4079,4650 4120,4689 4120,4715C4120,4722 4111,4739 4099,4754C4073,4787 4029,4789 4000,4758Z" style="fill-rule:nonzero;"/>
        <path d="M4342,4678C4323,4659 4328,4633 4352,4616C4371,4603 4377,4602 4395,4614C4420,4630 4426,4656 4410,4675C4395,4693 4358,4694 4342,4678Z" style="fill-rule:nonzero;"/>
        <path d="M5690,4665C5670,4644 5668,4636 5676,4608C5696,4538 5792,4548 5798,4622C5804,4688 5737,4715 5690,4665Z" style="fill-rule:nonzero;"/>
        <path d="M4950,4562C4877,4539 4888,4440 4963,4440C4996,4440 5030,4472 5030,4503C5030,4539 4983,4573 4950,4562Z" style="fill-rule:nonzero;"/>
        <path d="M3587,4522C3535,4465 3613,4383 3673,4431C3724,4470 3698,4540 3633,4540C3617,4540 3596,4532 3587,4522Z" style="fill-rule:nonzero;"/>
    </g>
</svg>
