<?xml version="1.0" standalone="no"?>
<!DOCTYPE svg PUBLIC "-//W3C//DTD SVG 20010904//EN"
 "http://www.w3.org/TR/2001/REC-SVG-20010904/DTD/svg10.dtd">
<svg version="1.0" xmlns="http://www.w3.org/2000/svg"
 width="2048.000000pt" height="2048.000000pt" viewBox="0 0 2048.000000 2048.000000"
 preserveAspectRatio="xMidYMid meet">
<metadata>
Created by potrace 1.16, written by Peter Selinger 2001-2019
</metadata>
<g transform="translate(0.000000,2048.000000) scale(0.100000,-0.100000)"
fill="#000000" stroke="none">
<path d="M10270 18341 c-88 -27 -185 -114 -253 -228 -161 -266 -302 -767 -371
-1318 -31 -242 -66 -680 -66 -822 0 -40 -4 -73 -8 -73 -4 0 -24 16 -43 36 -84
88 -269 216 -378 261 -74 30 -185 32 -240 4 -85 -44 -131 -135 -131 -260 0
-218 75 -603 206 -1060 36 -123 63 -225 61 -227 -1 -2 -25 3 -52 11 -67 21
-171 19 -220 -4 -22 -10 -55 -33 -73 -51 -55 -54 -67 -86 -66 -175 0 -71 4
-89 38 -160 118 -249 171 -499 146 -693 -29 -231 -122 -409 -325 -621 -237
-247 -546 -472 -1365 -996 -575 -367 -814 -538 -1165 -829 -144 -120 -473
-446 -608 -604 -264 -307 -481 -636 -663 -1006 -252 -510 -390 -1020 -435
-1610 -16 -217 -6 -642 20 -841 92 -689 337 -1310 741 -1875 234 -329 608
-704 983 -988 311 -236 739 -486 1127 -657 550 -243 1221 -445 1824 -548 77
-13 141 -28 143 -33 2 -5 -13 -18 -33 -29 -63 -34 -169 -158 -218 -256 -54
-106 -66 -167 -42 -215 31 -65 120 -93 186 -59 29 15 60 60 60 88 0 8 14 41
30 75 66 130 233 242 444 297 144 37 145 36 85 -38 -103 -127 -161 -293 -163
-467 -2 -156 34 -210 139 -210 40 0 52 5 81 34 34 34 34 35 34 127 0 209 79
369 243 492 72 54 136 92 143 85 2 -2 10 -44 19 -93 22 -130 29 -313 16 -442
-13 -127 -4 -167 43 -198 62 -41 161 -23 191 35 36 70 45 339 19 557 -9 74
-14 136 -11 139 11 11 101 -37 161 -86 104 -85 168 -184 206 -322 25 -90 45
-119 98 -138 86 -30 172 33 172 126 0 88 -73 274 -144 367 -20 26 -36 49 -36
52 0 23 147 -17 257 -70 117 -57 196 -129 267 -244 46 -74 59 -89 98 -105 41
-17 50 -17 89 -5 61 20 92 67 86 131 -6 67 -74 176 -173 277 -46 47 -82 86
-81 87 1 1 63 12 137 24 878 143 1756 452 2450 863 1121 664 1866 1616 2146
2742 97 390 129 674 121 1085 -7 359 -32 575 -103 894 -74 331 -178 632 -323
931 -246 508 -526 900 -936 1310 -395 395 -801 701 -1610 1210 -510 321 -643
410 -891 596 -479 360 -721 672 -779 1006 -22 127 -20 332 6 456 19 93 73 251
144 417 51 118 44 223 -21 299 -69 80 -170 105 -294 73 -41 -11 -77 -18 -79
-16 -2 2 13 70 34 151 100 393 213 697 406 1087 48 98 93 202 100 231 33 150
-75 279 -235 279 -187 -1 -531 -204 -770 -453 -31 -34 -61 -61 -65 -61 -4 0
-11 73 -15 163 -3 89 -11 218 -16 287 -5 69 -19 251 -30 405 -78 1062 -104
1229 -204 1330 -64 64 -179 92 -266 66z m-1 -956 c41 -446 58 -665 101 -1330
16 -253 31 -482 33 -509 4 -42 -2 -60 -44 -140 -56 -107 -137 -293 -168 -388
-21 -62 -41 -89 -41 -54 0 21 -53 134 -116 249 l-57 102 6 440 c7 538 26 787
88 1152 51 302 155 720 175 701 1 -2 12 -103 23 -223z m952 -1545 c-81 -197
-165 -448 -220 -660 -47 -179 -118 -497 -127 -564 -6 -43 -13 -52 -103 -130
-82 -72 -214 -211 -305 -321 l-25 -30 -36 36 -36 36 35 175 c120 586 326 1026
665 1421 70 81 209 212 217 205 2 -2 -27 -78 -65 -168z m-1939 -207 c220 -231
437 -571 553 -868 71 -181 144 -388 139 -396 -3 -5 -16 -9 -30 -9 -65 0 -165
-77 -225 -173 -18 -29 -34 -54 -36 -56 -5 -7 -53 42 -73 74 -40 65 -301 936
-364 1210 -25 111 -56 269 -56 287 0 13 48 -23 92 -69z m1876 -1395 c-26 -102
-48 -282 -48 -389 0 -365 115 -697 342 -987 33 -42 67 -107 104 -194 196 -466
505 -917 958 -1398 39 -41 215 -223 392 -405 476 -489 612 -642 812 -912 469
-636 738 -1337 812 -2113 15 -156 15 -559 1 -700 -30 -284 -78 -519 -153 -750
-169 -520 -407 -951 -777 -1405 -368 -452 -845 -859 -1396 -1190 -125 -75
-456 -241 -620 -310 -90 -38 -133 -50 -240 -65 -174 -26 -479 -60 -484 -55 -2
3 9 15 25 27 160 126 387 378 569 633 429 603 755 1398 885 2160 30 172 30
203 1 226 -30 25 -73 24 -96 -1 -12 -13 -26 -66 -42 -157 -140 -806 -458
-1574 -902 -2183 -208 -285 -411 -499 -626 -657 l-99 -73 -116 -1 c-252 -4
-533 1 -675 12 l-150 11 -110 61 c-291 160 -509 329 -795 616 -366 368 -626
715 -867 1156 -184 335 -351 767 -413 1065 -28 137 -36 156 -71 171 -37 15
-74 0 -91 -35 -14 -32 7 -141 68 -356 171 -596 462 -1154 868 -1665 301 -379
607 -671 945 -904 41 -28 68 -51 60 -51 -43 0 -509 90 -654 126 -171 43 -385
139 -714 321 -640 353 -1227 907 -1604 1512 -334 536 -518 1091 -583 1756 -28
290 -10 738 42 1040 40 237 135 571 228 809 60 153 206 457 273 571 357 601
648 942 1458 1710 634 600 936 959 1125 1335 18 36 67 106 108 155 247 295
354 573 353 922 0 75 -7 173 -17 228 -9 53 -13 99 -10 102 14 15 216 -217 270
-310 33 -56 46 -143 46 -314 0 -352 -93 -687 -300 -1077 -133 -252 -308 -522
-662 -1021 -197 -279 -474 -697 -595 -900 -227 -379 -464 -888 -563 -1210 -77
-246 -160 -621 -160 -716 0 -82 128 -96 145 -16 2 12 13 81 25 152 83 520 336
1146 713 1765 157 258 295 462 668 995 466 664 644 982 772 1380 68 210 96
404 93 643 -1 131 -1 132 22 132 76 0 139 64 177 182 35 106 121 287 140 294
22 9 69 -28 210 -167 72 -70 143 -133 158 -138 16 -6 47 -11 71 -11 68 0 123
42 197 151 77 114 298 339 418 427 46 34 87 62 91 62 3 0 -2 -33 -12 -72z
m747 -1833 c195 -166 441 -335 1065 -730 822 -520 1186 -791 1560 -1165 868
-866 1304 -1948 1242 -3087 -28 -515 -135 -945 -346 -1388 -539 -1130 -1612
-1956 -3130 -2409 -65 -20 -126 -36 -134 -36 -9 0 60 46 153 103 419 254 731
500 1085 856 272 273 454 497 639 783 375 582 588 1193 642 1847 17 202 6 640
-20 836 -97 719 -364 1393 -779 1965 -222 304 -407 514 -847 961 -547 555
-772 815 -1002 1159 -82 124 -213 347 -213 364 0 11 19 -2 85 -59z m-3455 -99
c0 -8 -122 -159 -211 -261 -159 -183 -361 -388 -644 -654 -799 -753 -1138
-1144 -1467 -1697 -488 -818 -690 -1730 -592 -2676 37 -357 130 -734 265
-1073 65 -163 226 -482 318 -628 340 -542 807 -1017 1386 -1407 44 -29 74 -55
68 -57 -6 -2 -67 19 -134 48 -478 199 -943 476 -1339 798 -144 117 -454 430
-576 581 -460 571 -724 1191 -810 1900 -25 201 -25 658 -1 855 75 607 265
1154 575 1652 181 291 387 546 662 824 378 380 762 668 1600 1199 287 182 556
361 740 494 134 97 160 113 160 102z"/>
<path d="M10713 13154 l-26 -26 6 -177 c12 -349 91 -660 277 -1086 29 -66 182
-379 340 -695 386 -769 516 -1065 661 -1497 78 -232 134 -444 184 -696 37
-185 48 -207 102 -207 42 0 73 30 73 70 0 39 -60 320 -112 520 -80 313 -251
779 -425 1160 -42 91 -203 420 -359 732 -156 312 -317 646 -358 742 -164 385
-246 724 -246 1020 0 115 -1 124 -23 144 -31 29 -62 28 -94 -4z"/>
<path d="M8080 8364 c-87 -18 -131 -37 -200 -84 -72 -49 -118 -102 -163 -188
-52 -99 -70 -172 -71 -282 0 -241 129 -427 363 -518 56 -22 82 -26 171 -26
179 -1 305 54 423 185 105 115 144 233 135 407 -7 119 -35 203 -101 295 -59
83 -102 118 -202 167 -118 58 -227 72 -355 44z m52 -233 c111 -70 117 -227 12
-307 -51 -39 -135 -45 -199 -14 -68 33 -99 90 -93 175 3 53 9 71 34 101 64 80
163 98 246 45z m237 -486 c31 -16 41 -33 41 -71 0 -38 -18 -64 -55 -80 -89
-37 -160 76 -89 141 31 28 62 31 103 10z"/>
<path d="M12155 8252 c-196 -108 -492 -276 -568 -324 -55 -35 -77 -71 -77
-124 0 -29 8 -44 38 -73 32 -32 67 -48 247 -110 116 -40 294 -104 397 -142
104 -38 204 -69 224 -69 53 0 104 53 104 108 0 82 -40 104 -480 267 -63 24
-116 47 -117 52 -2 4 18 21 44 37 97 58 320 184 388 219 39 19 83 48 98 64 73
78 22 193 -85 193 -23 0 -89 -30 -213 -98z"/>
<path d="M5956 7821 c-25 -28 -35 -82 -36 -189 0 -85 2 -95 25 -117 30 -31 69
-32 99 -2 18 18 24 39 30 98 3 41 9 97 12 124 5 42 2 55 -16 78 -27 34 -87 38
-114 8z"/>
<path d="M9498 7500 c-34 -26 -48 -75 -48 -165 0 -232 134 -398 351 -435 118
-20 240 17 334 102 l49 45 41 -39 c22 -22 69 -53 104 -71 56 -27 77 -32 160
-35 80 -3 105 0 154 18 156 59 247 198 250 385 3 158 -19 205 -98 205 -31 0
-47 -6 -65 -25 -21 -22 -22 -29 -15 -82 13 -85 8 -149 -16 -202 -28 -63 -63
-98 -122 -117 -128 -43 -269 49 -292 191 -12 77 -16 85 -45 100 -73 38 -143 0
-153 -84 -25 -210 -267 -296 -399 -142 -49 57 -62 112 -55 222 5 82 4 91 -16
115 -31 35 -84 42 -119 14z"/>
<path d="M7455 7299 c-321 -38 -499 -174 -450 -344 42 -146 283 -246 595 -245
312 1 561 105 600 250 30 111 -59 230 -215 286 -135 49 -369 72 -530 53z m314
-140 c159 -25 301 -98 301 -153 0 -65 -167 -136 -367 -156 -175 -18 -356 5
-470 61 -60 29 -103 68 -103 94 0 56 139 128 298 155 70 12 268 11 341 -1z"/>
<path d="M12505 7293 c-196 -27 -364 -112 -409 -207 -18 -38 -21 -112 -6 -150
30 -80 145 -154 306 -197 115 -31 365 -38 505 -14 260 43 403 154 386 301 -18
167 -264 276 -610 273 -78 -1 -155 -4 -172 -6z m349 -138 c176 -28 296 -92
296 -156 0 -58 -117 -117 -288 -145 -249 -41 -572 20 -633 119 -23 38 -14 63
34 98 111 81 379 119 591 84z"/>
<path d="M5955 7125 c-21 -21 -25 -33 -25 -89 0 -76 22 -246 51 -396 33 -171
77 -324 146 -510 99 -265 285 -619 342 -649 32 -17 68 -13 96 12 43 37 37 78
-28 178 -148 228 -304 611 -370 909 -30 132 -67 376 -67 436 0 60 -18 103 -51
119 -40 21 -66 19 -94 -10z"/>
<path d="M6630 6323 c-18 -23 -21 -37 -17 -78 16 -154 214 -586 287 -625 53
-28 124 10 123 67 0 16 -31 82 -71 152 -76 131 -139 281 -168 396 -21 83 -48
115 -98 115 -26 0 -40 -7 -56 -27z"/>
<path d="M14355 10065 c-43 -42 -35 -80 42 -186 219 -306 435 -749 537 -1107
102 -353 155 -732 156 -1110 0 -106 1 -114 25 -137 31 -32 75 -32 112 -1 l28
24 -1 194 c-2 461 -86 919 -251 1365 -92 251 -317 670 -468 874 -84 112 -131
134 -180 84z"/>
<path d="M15096 7218 c-24 -22 -36 -64 -83 -280 -4 -21 1 -34 25 -58 60 -59
121 -30 148 71 31 117 44 208 33 236 -21 55 -79 70 -123 31z"/>
</g>
</svg>
