<?xml version="1.0" standalone="no"?>
<!DOCTYPE svg PUBLIC "-//W3C//DTD SVG 20010904//EN"
 "http://www.w3.org/TR/2001/REC-SVG-20010904/DTD/svg10.dtd">
<svg version="1.0" xmlns="http://www.w3.org/2000/svg"
 width="1024.000000pt" height="1024.000000pt" viewBox="0 0 1024.000000 1024.000000"
 preserveAspectRatio="xMidYMid meet">
<metadata>
Created by potrace 1.16, written by Peter Selinger 2001-2019
</metadata>
<g transform="translate(0.000000,1024.000000) scale(0.100000,-0.100000)"
fill="#000000" stroke="none">
<path d="M4810 7293 c-385 -29 -738 -151 -1035 -358 -410 -285 -755 -799 -895
-1335 -13 -47 -26 -88 -29 -92 -4 -4 -42 -17 -84 -28 -158 -40 -311 -151 -396
-285 -36 -56 -46 -66 -83 -75 -153 -38 -334 -118 -453 -201 -375 -259 -377
-651 -5 -1119 324 -406 826 -686 1350 -750 118 -14 3475 -14 3608 1 375 41
728 191 1036 439 281 227 471 480 557 743 76 231 39 422 -108 564 l-64 62 37
16 c20 8 40 15 44 15 14 0 89 78 104 109 48 93 60 300 26 456 -40 182 -123
298 -238 331 -100 29 -185 1 -285 -94 -33 -31 -62 -51 -67 -46 -5 5 -22 49
-39 98 -43 125 -114 246 -195 333 -71 76 -196 166 -280 202 -46 20 -48 23 -42
54 4 17 9 91 13 163 4 105 2 148 -12 210 -34 157 -104 249 -212 280 -67 19
-103 14 -205 -32 -100 -45 -176 -57 -276 -45 -96 12 -168 34 -380 117 -351
137 -531 192 -765 234 -189 34 -442 47 -627 33z m358 -208 c284 -13 517 -74
987 -257 316 -124 478 -151 647 -108 42 10 99 31 127 45 80 40 103 31 137 -50
19 -47 29 -218 17 -285 -9 -44 -10 -45 -44 -43 -32 2 -262 56 -374 87 -389
111 -502 130 -780 131 -222 0 -245 -2 -439 -47 -294 -67 -606 -257 -803 -490
-312 -368 -442 -825 -387 -1356 l7 -62 -59 0 c-32 0 -99 5 -149 10 -49 5 -180
17 -290 25 -218 17 -280 31 -400 92 -168 85 -273 197 -321 343 -79 241 130
834 437 1244 213 284 471 480 797 606 91 36 281 85 387 101 85 12 313 27 355
23 14 -2 80 -6 148 -9z m880 -685 c173 -19 262 -38 552 -118 80 -22 188 -50
240 -62 466 -106 663 -248 758 -550 36 -115 36 -119 5 -132 -18 -7 -155 -14
-393 -18 -393 -8 -454 -14 -645 -70 -111 -32 -255 -99 -349 -162 -169 -115
-376 -374 -376 -473 0 -86 117 -133 171 -69 8 11 35 53 59 94 135 234 392 394
730 457 78 14 143 17 365 15 149 -1 315 3 370 9 199 20 333 73 437 171 91 86
108 98 137 98 34 -1 54 -17 78 -65 45 -87 67 -317 39 -394 -24 -66 -49 -76
-209 -77 -89 -1 -170 -7 -217 -18 -196 -42 -432 -205 -650 -447 -90 -101 -92
-104 -87 -144 8 -53 53 -95 104 -95 34 0 47 11 182 149 203 206 358 315 468
327 135 15 264 -144 224 -277 -28 -94 -117 -172 -296 -259 -184 -89 -366 -145
-680 -209 -314 -63 -609 -96 -1175 -133 -310 -20 -1504 -17 -1850 5 -458 29
-754 62 -1039 114 l-143 26 5 51 c10 85 62 173 134 227 74 56 143 84 266 106
109 19 340 21 502 5 289 -29 372 -35 524 -36 l165 -1 24 35 c26 38 26 51 -3
175 -11 45 -18 137 -22 255 -4 158 -2 203 15 305 27 157 61 263 132 410 97
204 236 373 419 510 276 208 654 305 1029 265z m-3225 -1196 c17 -193 94 -341
245 -470 37 -31 67 -61 67 -66 0 -6 -40 -25 -89 -43 -206 -78 -327 -208 -372
-400 -10 -38 -20 -73 -24 -78 -3 -4 -53 7 -111 24 -390 117 -619 278 -619 435
0 60 43 137 98 177 60 44 161 95 196 99 l27 3 4 -120 c7 -205 43 -283 127
-272 86 11 111 60 88 168 -17 81 -8 217 20 299 44 125 134 232 244 289 88 47
92 45 99 -45z m-1004 -862 c167 -215 547 -372 1181 -486 92 -17 352 -51 465
-61 39 -3 102 -10 140 -15 74 -10 457 -33 810 -50 527 -25 1504 0 1995 50 269
28 597 76 765 111 484 102 834 265 990 459 36 44 40 47 43 26 4 -32 -49 -171
-97 -254 -264 -453 -775 -792 -1301 -862 -122 -17 -3530 -17 -3650 0 -479 65
-962 360 -1229 750 -93 135 -171 305 -171 372 0 29 12 21 59 -40z"/>
</g>
</svg>
