<?xml version="1.0" standalone="no"?>
<!DOCTYPE svg PUBLIC "-//W3C//DTD SVG 20010904//EN"
 "http://www.w3.org/TR/2001/REC-SVG-20010904/DTD/svg10.dtd">
<svg version="1.0" xmlns="http://www.w3.org/2000/svg"
 width="1024.000000pt" height="1024.000000pt" viewBox="0 0 1024.000000 1024.000000"
 preserveAspectRatio="xMidYMid meet">
<metadata>
Created by potrace 1.16, written by Peter Selinger 2001-2019
</metadata>
<g transform="translate(0.000000,1024.000000) scale(0.100000,-0.100000)"
fill="#000000" stroke="none">
<path d="M5860 8405 c-65 -18 -143 -70 -184 -121 -51 -64 -121 -213 -224 -469
-54 -137 -102 -259 -106 -270 -7 -19 -8 -19 -28 5 -30 37 -92 165 -118 243
-38 116 -101 165 -195 154 -78 -8 -111 -46 -160 -181 -21 -57 -83 -125 -144
-155 -22 -12 -104 -43 -183 -70 -181 -62 -224 -81 -297 -130 -120 -82 -192
-192 -214 -326 l-12 -75 -55 0 c-116 -1 -222 -44 -304 -124 -80 -78 -126 -182
-126 -288 0 -51 0 -50 -75 -63 -95 -16 -212 -97 -260 -179 -64 -109 -84 -267
-50 -383 15 -51 15 -52 -10 -89 -35 -52 -52 -117 -71 -274 -24 -191 -24 -673
0 -905 72 -709 298 -1395 587 -1786 166 -224 334 -368 560 -480 46 -23 86 -43
88 -45 2 -2 -17 -27 -42 -56 -59 -70 -77 -108 -77 -161 0 -56 25 -90 85 -113
118 -45 296 49 370 195 24 49 27 51 58 46 181 -31 451 -42 632 -26 72 7 140
15 152 17 16 4 23 0 28 -18 12 -37 81 -130 120 -161 129 -103 294 -108 340
-11 29 62 9 137 -60 217 -20 23 -34 47 -33 54 2 8 38 29 81 48 486 210 849
743 1052 1544 87 344 132 845 106 1196 -20 276 -66 547 -106 628 -14 28 -14
35 1 74 12 31 15 64 12 125 -10 182 -112 304 -291 349 -38 9 -47 15 -42 28 4
9 11 50 17 91 22 148 -30 298 -142 411 -78 78 -149 120 -250 148 -128 36 -337
24 -430 -24 l-29 -15 -58 76 c-32 42 -62 81 -67 88 -6 9 31 112 112 312 150
372 161 398 168 391 4 -3 24 -43 44 -88 67 -143 91 -149 197 -47 93 90 126
163 131 287 4 108 -12 169 -69 255 -85 128 -273 194 -429 151z m188 -100 c157
-47 250 -227 197 -384 -19 -57 -97 -152 -113 -136 -11 12 -81 202 -97 264 -18
72 -37 77 -128 34 -73 -34 -77 -38 -77 -69 0 -38 12 -49 56 -46 l32 2 -70
-167 c-59 -142 -199 -495 -221 -556 -4 -10 -11 -17 -17 -15 -16 6 -200 179
-200 189 0 19 228 585 265 660 53 104 100 165 152 196 76 44 138 52 221 28z
m-980 -478 c12 -13 33 -55 46 -93 69 -204 148 -316 376 -535 100 -95 197 -195
217 -223 35 -49 35 -50 18 -78 -15 -27 -15 -31 -1 -53 21 -32 44 -31 87 0 200
144 484 127 651 -39 78 -78 111 -150 116 -256 7 -136 -24 -206 -108 -248 -38
-18 -52 -60 -29 -88 16 -20 34 -18 96 12 45 22 63 26 108 21 201 -21 314 -219
224 -393 -34 -66 -90 -106 -203 -144 l-94 -31 -64 46 c-123 91 -212 124 -353
132 -119 6 -199 -10 -312 -62 -42 -19 -80 -35 -85 -35 -5 0 -31 18 -59 40
-111 87 -232 125 -373 117 -101 -5 -168 -26 -259 -81 l-56 -34 -40 28 c-111
81 -218 114 -345 108 -112 -6 -183 -30 -281 -97 l-73 -50 -64 34 c-93 49 -170
69 -268 68 -128 -1 -226 -38 -333 -126 -57 -46 -80 -46 -182 1 -85 40 -139 92
-177 170 -31 62 -33 73 -33 172 0 95 3 110 27 156 52 98 144 160 265 179 36 6
42 4 48 -14 15 -48 89 -52 101 -6 4 16 -2 37 -17 62 -35 56 -33 159 4 234 51
105 149 173 265 185 77 8 110 0 122 -31 5 -14 21 -30 35 -37 22 -10 29 -9 47
9 21 21 21 22 3 84 -19 71 -16 133 11 214 13 37 36 69 88 121 82 82 137 111
336 179 264 91 346 156 405 320 30 83 72 106 113 62z m-304 -2008 c39 -12 100
-43 147 -75 44 -29 90 -54 103 -54 13 0 41 13 63 29 202 146 409 134 606 -37
27 -23 56 -42 65 -42 9 0 61 22 114 49 227 114 420 90 625 -79 26 -22 57 -40
69 -40 26 0 212 64 264 90 19 10 44 27 54 39 11 12 23 21 27 21 23 0 74 -346
90 -610 33 -552 -85 -1207 -306 -1705 -114 -257 -242 -451 -405 -615 -112
-112 -204 -179 -339 -247 -251 -126 -605 -185 -982 -163 -494 28 -787 133
-1048 376 -372 346 -649 1034 -757 1879 -21 166 -30 713 -15 887 13 139 35
266 49 280 4 4 28 -11 53 -34 53 -51 133 -94 246 -134 l82 -28 25 19 c13 11
50 41 82 68 76 61 149 89 245 95 93 5 163 -13 267 -69 41 -21 82 -39 91 -39
10 0 40 17 67 39 139 110 279 144 418 100z m-300 -3476 c34 -9 62 -17 64 -19
7 -5 -20 -47 -56 -86 -56 -62 -138 -97 -186 -78 -38 14 -32 41 20 102 25 29
51 63 57 76 12 26 22 27 101 5z m1286 -8 c0 -8 20 -39 45 -70 75 -92 79 -125
14 -125 -47 0 -124 37 -160 77 -42 46 -70 91 -60 97 12 8 121 34 144 35 9 1
17 -6 17 -14z"/>
<path d="M4580 7099 c-57 -26 -80 -47 -80 -74 0 -48 39 -57 107 -24 56 27 139
23 183 -9 34 -26 85 -29 94 -6 17 45 -7 78 -84 113 -61 28 -159 28 -220 0z"/>
<path d="M5199 6741 c-94 -29 -155 -101 -117 -139 15 -15 65 -16 74 -1 12 20
88 49 129 49 22 0 60 -9 84 -20 67 -31 101 -22 101 25 0 66 -164 118 -271 86z"/>
<path d="M4369 6467 c-68 -19 -109 -52 -109 -87 0 -49 31 -57 102 -25 73 33
131 29 189 -11 24 -16 47 -24 66 -22 23 2 29 8 31 35 8 79 -157 144 -279 110z"/>
<path d="M5568 6317 c-26 -8 -63 -26 -83 -41 -31 -24 -36 -33 -33 -64 3 -32 7
-37 31 -40 17 -2 36 3 47 13 27 24 110 47 145 39 16 -4 47 -15 69 -26 47 -24
83 -17 92 18 18 72 -147 135 -268 101z"/>
<path d="M4050 4274 c-84 -36 -124 -106 -118 -205 3 -58 8 -74 34 -106 46 -57
98 -83 167 -83 89 0 151 39 192 119 13 25 16 52 13 102 -3 57 -8 74 -34 106
-60 75 -169 104 -254 67z m50 -100 c10 -11 11 -23 4 -42 -17 -48 -84 -38 -84
12 0 43 53 63 80 30z"/>
<path d="M5935 4259 c-45 -13 -105 -67 -126 -113 -93 -204 165 -390 331 -240
49 45 70 90 70 153 0 68 -18 108 -68 153 -58 53 -132 69 -207 47z m23 -101 c7
-7 12 -21 12 -33 0 -12 -5 -26 -12 -33 -7 -7 -21 -12 -33 -12 -12 0 -26 5 -33
12 -7 7 -12 21 -12 33 0 12 5 26 12 33 7 7 21 12 33 12 12 0 26 -5 33 -12z"/>
<path d="M4540 3760 c-25 -25 -25 -55 1 -132 93 -276 411 -434 708 -351 144
39 276 145 336 267 63 129 63 201 0 201 -32 0 -45 -18 -65 -92 -18 -69 -88
-162 -158 -210 -272 -186 -668 -47 -733 257 -7 31 -19 56 -32 65 -28 19 -33
19 -57 -5z"/>
<path d="M3870 3757 c-24 -8 -41 -23 -53 -47 -43 -86 40 -162 144 -131 47 14
69 44 69 94 0 45 -32 81 -81 91 -38 7 -36 8 -79 -7z"/>
<path d="M6091 3653 c-62 -12 -102 -73 -82 -127 27 -70 140 -86 193 -27 38 42
37 83 -1 122 -16 16 -36 29 -44 29 -9 0 -21 2 -29 4 -7 2 -24 1 -37 -1z"/>
<path d="M6429 7547 c-41 -27 -59 -60 -59 -107 0 -118 147 -173 227 -86 28 31
33 43 33 87 0 46 -4 55 -39 90 -33 34 -45 39 -83 39 -30 0 -56 -8 -79 -23z
m96 -107 c0 -18 -6 -26 -23 -28 -24 -4 -38 18 -28 44 3 9 15 14 28 12 17 -2
23 -10 23 -28z"/>
</g>
</svg>
