<?xml version="1.0" standalone="no"?>
<!DOCTYPE svg PUBLIC "-//W3C//DTD SVG 20010904//EN"
 "http://www.w3.org/TR/2001/REC-SVG-20010904/DTD/svg10.dtd">
<svg version="1.0" xmlns="http://www.w3.org/2000/svg"
 width="1024.000000pt" height="1024.000000pt" viewBox="0 0 1024.000000 1024.000000"
 preserveAspectRatio="xMidYMid meet">
<metadata>
Created by potrace 1.16, written by Peter Selinger 2001-2019
</metadata>
<g transform="translate(0.000000,1024.000000) scale(0.100000,-0.100000)"
fill="#000000" stroke="none">
<path d="M4696 6764 c-132 -32 -285 -144 -351 -258 -45 -77 -75 -173 -82 -257
l-6 -78 -96 -42 c-121 -53 -349 -166 -466 -232 -268 -151 -575 -371 -603 -432
-6 -14 -17 -107 -23 -208 -16 -259 -1 -785 37 -1272 25 -327 40 -397 92 -431
23 -15 48 -16 226 -11 443 13 1943 154 2956 278 422 51 527 71 582 110 147
105 298 1141 258 1781 -11 185 -32 357 -50 414 -49 150 -647 398 -1120 465
-62 9 -96 19 -125 39 -106 72 -211 87 -450 63 -108 -10 -127 -15 -195 -51
l-76 -39 -53 49 c-122 112 -287 153 -455 112z m251 -155 c68 -26 142 -92 168
-150 16 -35 17 -45 6 -72 -52 -127 -61 -164 -61 -248 0 -86 0 -87 -35 -117
-89 -79 -198 -117 -312 -110 -140 9 -261 98 -293 215 -21 72 -8 182 28 256 34
68 72 113 72 84 0 -8 12 -29 26 -46 77 -92 217 29 143 123 -11 14 -27 26 -35
26 -8 0 -14 4 -14 9 0 8 35 24 100 45 41 13 152 5 207 -15z m844 -76 c107 -48
169 -139 176 -258 5 -82 -11 -142 -58 -221 -37 -61 -47 -67 -41 -25 5 38 -23
89 -56 102 -38 15 -88 2 -112 -28 -20 -25 -27 -84 -14 -118 11 -27 62 -48 103
-40 l36 7 -20 -22 c-29 -32 -152 -89 -220 -101 -111 -20 -225 8 -293 74 -197
188 -53 557 249 642 73 20 190 15 250 -12z m447 -127 c207 -47 463 -139 634
-228 146 -76 159 -89 174 -179 7 -41 18 -168 25 -282 14 -225 4 -546 -26 -837
-31 -301 -109 -698 -156 -797 -18 -37 -25 -43 -70 -52 -117 -25 -515 -73
-1559 -186 -755 -82 -1952 -177 -1972 -157 -4 4 -11 36 -14 70 l-7 62 29 0
c53 0 603 39 984 69 418 34 1166 92 1480 116 532 40 718 64 827 107 186 73
296 406 344 1038 22 289 -4 752 -45 816 -62 93 -435 274 -732 353 -37 10 -43
15 -48 47 -4 19 -10 42 -13 50 -7 20 20 18 145 -10z m117 -308 c161 -63 375
-176 375 -198 0 -6 -15 -10 -33 -10 -19 0 -68 -9 -109 -19 -202 -52 -329 -169
-409 -375 -44 -114 -62 -146 -106 -188 -50 -49 -99 -68 -172 -68 -86 0 -146
26 -310 135 -155 102 -214 129 -319 145 -82 13 -181 -4 -258 -43 -91 -47 -178
-161 -229 -298 -20 -56 -69 -117 -103 -130 -34 -13 -87 6 -111 40 -11 15 -34
63 -51 107 -76 193 -178 279 -345 291 -101 8 -173 -8 -345 -77 -222 -88 -328
-107 -450 -79 -55 12 -150 50 -150 60 0 25 194 168 414 304 171 105 607 325
645 325 5 0 23 -23 41 -50 80 -125 246 -210 410 -210 100 0 242 46 336 109
l31 21 34 -45 c45 -59 130 -118 209 -146 77 -26 204 -31 290 -10 143 34 299
141 381 263 34 50 51 88 94 215 5 14 94 -12 240 -69z m430 -445 c11 -124 -1
-545 -19 -698 -39 -336 -112 -593 -189 -673 -62 -64 -139 -75 -1002 -142 -209
-16 -699 -54 -1090 -85 -390 -30 -768 -60 -840 -65 -71 -6 -188 -12 -260 -13
l-130 -2 -12 175 c-32 488 -43 1070 -20 1070 6 0 41 -10 77 -22 50 -16 92 -21
180 -22 140 -1 196 13 405 97 130 53 161 61 231 65 67 4 87 1 120 -16 63 -32
106 -88 154 -202 52 -122 99 -178 175 -203 153 -53 281 23 361 214 47 110 94
174 158 214 43 26 58 30 125 30 93 -1 151 -25 322 -137 62 -42 132 -85 154
-96 128 -64 275 -69 388 -14 115 57 173 136 263 357 21 53 43 85 88 130 86 86
172 122 293 124 l61 1 7 -87z"/>
<path d="M4743 6302 c-79 -62 -25 -186 73 -168 70 14 100 111 49 161 -29 30
-89 33 -122 7z"/>
<path d="M5524 6355 c-28 -19 -48 -69 -40 -100 26 -103 186 -77 186 30 0 70
-87 112 -146 70z"/>
</g>
</svg>
