<?xml version="1.0" standalone="no"?>
<!DOCTYPE svg PUBLIC "-//W3C//DTD SVG 20010904//EN"
 "http://www.w3.org/TR/2001/REC-SVG-20010904/DTD/svg10.dtd">
<svg version="1.0" xmlns="http://www.w3.org/2000/svg"
 width="2048.000000pt" height="2048.000000pt" viewBox="0 0 2048.000000 2048.000000"
 preserveAspectRatio="xMidYMid meet">
<metadata>
Created by potrace 1.16, written by Peter Selinger 2001-2019
</metadata>
<g transform="translate(0.000000,2048.000000) scale(0.100000,-0.100000)"
fill="#000000" stroke="none">
<path d="M10070 18679 c-456 -23 -895 -129 -1378 -330 -855 -357 -1621 -1019
-2045 -1765 -459 -810 -605 -1696 -441 -2684 103 -625 373 -1298 711 -1771
247 -347 586 -677 938 -915 479 -324 1085 -552 1686 -635 l86 -12 7 -105 c8
-108 -2 -5377 -10 -5400 -2 -7 -4 -651 -4 -1431 0 -1367 0 -1421 19 -1480 80
-256 383 -398 685 -321 260 66 408 257 446 572 7 66 11 1251 13 4138 l2 4045
90 18 c784 156 1439 473 1989 963 339 301 605 634 890 1112 269 453 414 799
505 1212 50 223 63 351 68 645 7 390 -22 637 -117 1010 -57 222 -89 322 -160
500 -165 416 -413 830 -701 1175 -128 153 -435 452 -601 585 -371 298 -827
546 -1263 688 -459 150 -923 210 -1415 186z m580 -309 c415 -45 839 -169 1211
-356 314 -157 715 -431 880 -601 89 -91 256 -419 350 -684 228 -649 235 -1456
17 -2094 -59 -173 -129 -333 -205 -465 -70 -123 -172 -274 -180 -266 -2 2 9
46 25 98 104 324 152 625 152 942 0 652 -229 1313 -628 1816 -113 143 -349
374 -487 476 -356 265 -724 422 -1171 500 -181 32 -543 44 -737 25 -429 -42
-811 -159 -1180 -362 -769 -423 -1342 -1132 -1592 -1971 -142 -476 -184 -926
-130 -1413 70 -636 304 -1181 711 -1655 276 -321 627 -595 1035 -808 201 -106
355 -171 569 -242 416 -138 819 -216 1240 -239 215 -12 584 -5 780 14 249 24
249 21 1 -59 -1052 -338 -2217 -211 -3140 341 -272 163 -468 319 -695 554
-224 231 -406 490 -567 804 -363 707 -523 1521 -448 2280 65 661 289 1251 670
1765 152 206 348 417 554 599 394 348 898 637 1414 812 357 122 637 178 996
203 89 6 457 -3 555 -14z m-168 -916 c147 -19 386 -78 524 -129 235 -88 516
-253 704 -412 468 -398 775 -976 866 -1633 27 -192 25 -550 -5 -740 -80 -520
-295 -952 -651 -1310 -330 -332 -724 -513 -1290 -591 -157 -22 -536 -17 -705
9 -272 42 -470 101 -680 201 -223 107 -370 208 -539 371 -244 235 -409 527
-483 855 -34 153 -43 449 -19 610 69 444 260 824 576 1143 215 216 456 373
735 477 522 195 1026 132 1327 -167 73 -72 94 -101 132 -180 64 -133 80 -200
79 -343 0 -145 -22 -238 -87 -370 -104 -210 -302 -373 -530 -436 -111 -30
-246 -25 -328 13 -69 32 -136 96 -168 163 -35 71 -39 180 -11 256 40 105 127
180 226 194 28 4 64 15 81 26 92 56 80 215 -20 263 -100 47 -301 -22 -429
-149 -115 -114 -178 -272 -178 -445 0 -258 125 -459 355 -570 122 -59 196 -73
351 -67 101 4 150 11 220 31 352 104 638 373 755 710 52 151 63 217 63 386 0
135 -3 168 -26 252 -100 376 -376 650 -781 777 -153 48 -298 64 -511 58 -255
-7 -470 -54 -720 -157 -444 -184 -847 -538 -1109 -976 -337 -564 -414 -1247
-204 -1824 236 -651 822 -1147 1578 -1336 661 -166 1377 -95 2048 201 569 251
1071 683 1422 1221 151 233 309 582 394 869 144 492 168 1133 61 1661 -14 70
-24 129 -21 131 6 6 73 -111 144 -252 234 -467 358 -929 393 -1460 36 -555
-67 -1055 -324 -1580 -242 -494 -544 -931 -867 -1256 -135 -136 -135 -136
-275 -206 -377 -190 -771 -303 -1250 -359 -214 -26 -759 -26 -970 -1 -950 113
-1706 450 -2271 1012 -439 437 -719 1014 -788 1625 -33 292 -30 574 10 845 79
540 274 1011 598 1443 139 186 400 450 567 575 423 315 890 509 1379 571 151
20 500 20 652 0z m-1 -10940 c-2 -3294 -5 -4053 -16 -4114 -31 -176 -107 -264
-251 -291 -109 -20 -226 28 -273 112 l-24 42 7 2281 c4 1255 7 3117 7 4139
l-1 1857 192 1 c106 1 227 5 268 9 41 3 79 6 84 5 6 -1 9 -1498 7 -4041z"/>
<path d="M8526 17674 c-54 -55 -24 -144 48 -144 49 0 65 8 82 42 23 44 11 94
-26 113 -42 22 -74 18 -104 -11z"/>
<path d="M8153 17440 c-38 -15 -173 -109 -271 -188 -188 -152 -502 -504 -502
-563 0 -49 41 -89 91 -89 27 0 69 44 144 150 117 164 359 387 569 526 39 25
63 49 69 67 13 40 -7 83 -45 96 -17 6 -31 11 -32 10 -1 0 -11 -4 -23 -9z"/>
<path d="M7115 16285 c-54 -53 -18 -155 55 -155 90 0 130 114 58 164 -34 24
-85 20 -113 -9z"/>
<path d="M8860 14939 c-80 -14 -137 -45 -206 -113 -81 -81 -107 -146 -107
-271 -1 -119 25 -188 101 -267 225 -236 616 -118 672 204 47 267 -186 493
-460 447z m60 -208 c37 -27 53 -83 36 -125 -40 -96 -167 -102 -211 -11 -50
107 79 207 175 136z"/>
<path d="M11534 14937 c-148 -38 -262 -164 -282 -314 -20 -145 20 -266 118
-356 193 -179 498 -121 623 118 31 57 32 65 32 175 0 110 -1 118 -32 176 -41
79 -125 156 -201 184 -70 27 -188 34 -258 17z m103 -222 c33 -33 35 -39 30
-82 -13 -117 -162 -143 -212 -37 -35 75 17 154 102 154 38 0 50 -5 80 -35z"/>
<path d="M9870 14278 c-45 -23 -60 -72 -50 -159 21 -184 103 -306 253 -374
169 -78 363 -45 494 82 59 57 98 133 118 228 34 161 10 230 -78 230 -68 0 -93
-28 -101 -114 -11 -124 -51 -200 -129 -245 -60 -34 -115 -41 -182 -21 -110 32
-178 126 -191 264 -5 53 -12 75 -28 90 -28 27 -75 35 -106 19z"/>
</g>
</svg>
