<?xml version="1.0" standalone="no"?>
<!DOCTYPE svg PUBLIC "-//W3C//DTD SVG 20010904//EN"
 "http://www.w3.org/TR/2001/REC-SVG-20010904/DTD/svg10.dtd">
<svg version="1.0" xmlns="http://www.w3.org/2000/svg"
 width="1024.000000pt" height="1024.000000pt" viewBox="0 0 1024.000000 1024.000000"
 preserveAspectRatio="xMidYMid meet">
<metadata>
Created by potrace 1.16, written by Peter Selinger 2001-2019
</metadata>
<g transform="translate(0.000000,1024.000000) scale(0.100000,-0.100000)"
fill="#000000" stroke="none">
<path d="M5126 8769 c-104 -14 -182 -36 -274 -80 -331 -154 -651 -565 -922
-1184 -301 -689 -496 -1624 -503 -2414 -1 -105 -5 -191 -9 -191 -4 0 -12 9
-18 19 -15 29 -194 186 -290 254 -227 162 -503 265 -763 283 -108 8 -127 1
-127 -46 0 -36 10 -43 113 -80 218 -79 471 -291 635 -533 183 -269 291 -535
418 -1032 31 -121 76 -285 101 -365 192 -623 490 -1038 914 -1274 l66 -36 46
-124 c65 -173 111 -330 140 -476 30 -145 57 -343 57 -411 0 -78 17 -90 143
-102 136 -12 302 3 328 30 12 13 20 49 29 128 31 298 90 548 197 832 45 120
47 122 87 138 133 52 313 180 457 324 240 241 403 518 541 921 37 110 53 171
163 635 60 253 102 379 175 530 89 185 202 333 309 404 43 28 57 43 59 64 4
35 -13 57 -46 57 -45 0 -226 -110 -376 -230 -43 -34 -79 -60 -81 -58 -1 2 3
46 11 98 32 242 43 660 24 990 -60 1039 -335 1961 -739 2480 -198 255 -443
417 -671 444 -109 13 -126 14 -194 5z m234 -125 c150 -34 345 -161 476 -312
152 -176 323 -470 427 -737 311 -797 438 -1895 324 -2805 l-22 -175 -205 -201
c-223 -218 -366 -337 -632 -525 -257 -182 -349 -258 -493 -403 -170 -172 -309
-369 -368 -519 -12 -31 -25 -56 -30 -54 -4 1 -23 37 -41 79 -112 258 -344 597
-646 943 -195 223 -272 323 -407 528 -69 106 -143 215 -165 244 l-38 52 0 255
c0 1017 275 2135 708 2876 123 211 232 358 358 483 176 175 335 262 526 286
72 10 135 5 228 -15z m-2553 -3424 c179 -85 326 -192 481 -350 117 -119 227
-262 384 -501 131 -197 171 -248 454 -581 306 -359 492 -648 612 -948 l42
-105 -20 -109 c-24 -133 -26 -329 -5 -431 8 -38 15 -71 15 -72 0 -10 -53 1
-132 27 -346 111 -650 399 -859 812 -106 210 -176 414 -289 843 -129 487 -209
698 -362 954 -112 186 -305 406 -426 486 -81 54 -42 44 105 -25z m3941 -612
c-24 -37 -93 -214 -131 -334 -19 -62 -65 -239 -101 -395 -100 -432 -160 -615
-276 -849 -105 -213 -227 -385 -382 -536 -127 -124 -223 -195 -353 -259 -182
-89 -364 -135 -531 -135 l-82 0 -11 33 c-71 228 -28 563 106 832 53 105 173
281 251 366 152 167 259 255 669 552 215 155 337 260 584 505 225 221 260 254
268 246 2 -2 -3 -14 -11 -26z m-2018 -2596 c112 -25 365 -23 485 5 50 12 91
20 92 19 2 -1 -24 -83 -56 -182 -33 -98 -71 -232 -85 -297 -29 -126 -66 -369
-66 -428 l0 -37 -70 -7 c-38 -4 -101 -4 -139 0 l-69 7 -7 66 c-25 250 -82 514
-159 740 -25 73 -46 135 -46 138 0 4 10 3 23 0 12 -4 56 -14 97 -24z"/>
<path d="M4154 6611 c-65 -29 -89 -72 -89 -156 0 -57 4 -76 23 -103 56 -78
175 -95 250 -35 165 134 10 382 -184 294z"/>
<path d="M5910 6608 c-165 -84 -105 -328 80 -328 95 0 175 80 174 174 -2 81
-34 130 -107 161 -51 21 -95 19 -147 -7z"/>
<path d="M4737 5792 c-50 -55 30 -149 172 -203 157 -59 367 -19 479 92 32 32
42 50 42 74 0 66 -62 77 -107 19 -59 -75 -193 -117 -309 -95 -84 15 -129 38
-177 90 -42 45 -74 52 -100 23z"/>
</g>
</svg>
