<?xml version="1.0" encoding="UTF-8" standalone="no"?>
<!DOCTYPE svg PUBLIC "-//W3C//DTD SVG 1.1//EN" "http://www.w3.org/Graphics/SVG/1.1/DTD/svg11.dtd">
<svg width="100%" height="100%" viewBox="0 0 1000 1000" version="1.1" xmlns="http://www.w3.org/2000/svg" xmlns:xlink="http://www.w3.org/1999/xlink" xml:space="preserve" xmlns:serif="http://www.serif.com/" style="fill-rule:evenodd;clip-rule:evenodd;stroke-linejoin:round;stroke-miterlimit:2;">
    <g transform="matrix(0.139751,0,0,-0.139751,-112.875,2808.7)">
        <path d="M5945,18195C5633,18138 5396,17974 5256,17718C5186,17591 5150,17453 5130,17230C5116,17077 5096,16984 5060,16903C5018,16812 4980,16761 4851,16626C4786,16560 4719,16484 4702,16458C4682,16429 4658,16407 4642,16403C4608,16393 4294,16393 4285,16402C4281,16406 4286,16449 4295,16497C4318,16611 4318,16797 4295,16905C4249,17123 4139,17290 3966,17404C3803,17513 3657,17554 3445,17554C3234,17553 3072,17510 2839,17391C2439,17188 2253,17090 2165,17037C1557,16671 1261,16110 1380,15548C1461,15169 1751,14881 2160,14774C2278,14743 2432,14720 2527,14720L2598,14720L2717,14602C2862,14457 2983,14371 3165,14280C3323,14202 3454,14155 3615,14117C3836,14065 3934,14055 4230,14055C4523,14055 4602,14063 4830,14116C5220,14207 5585,14412 5834,14681C5880,14731 5905,14750 5923,14750C5966,14750 6133,14797 6238,14838C6742,15036 7139,15490 7321,16080C7497,16648 7428,17247 7136,17675C6944,17958 6669,18138 6346,18195C6240,18213 6043,18213 5945,18195ZM6332,17986C6598,17934 6819,17781 6979,17535C7090,17364 7171,17139 7201,16915C7218,16784 7208,16490 7182,16370C7097,15976 6927,15643 6680,15387C6577,15279 6468,15192 6364,15134C6301,15099 6109,15018 6103,15024C6101,15026 6110,15047 6124,15071C6137,15095 6155,15136 6165,15163C6175,15189 6188,15210 6194,15210C6201,15210 6246,15231 6296,15256C6525,15372 6733,15595 6856,15853C6909,15965 6916,16003 6884,16008C6866,16010 6859,16001 6840,15953C6757,15743 6576,15509 6405,15391C6322,15334 6221,15276 6215,15282C6212,15284 6215,15302 6220,15321C6269,15491 6276,15715 6236,15871C6209,15977 6160,16092 6109,16167C6061,16238 5953,16347 5887,16392C5803,16449 5657,16517 5565,16541C5426,16577 5226,16578 5080,16543C5058,16538 5061,16543 5102,16588C5200,16693 5273,16838 5305,16990C5313,17028 5329,17135 5340,17227C5371,17488 5401,17575 5507,17715C5612,17853 5747,17935 5945,17980C6044,18003 6230,18005 6332,17986ZM3605,17335C3718,17312 3853,17239 3930,17161C4046,17043 4110,16874 4110,16688C4109,16611 4090,16487 4076,16473C4073,16470 4044,16481 4013,16499C3892,16566 3693,16658 3635,16673C3370,16743 3052,16697 2795,16552C2623,16455 2447,16267 2360,16085C2213,15776 2228,15383 2402,15036L2452,14937L2386,14944C2216,14961 2035,15029 1893,15129C1691,15271 1569,15517 1568,15780C1568,15952 1608,16107 1698,16285C1804,16496 2034,16721 2285,16862C2430,16943 2865,17167 2979,17220C3243,17340 3422,17373 3605,17335ZM3560,16483C3596,16474 3699,16429 3790,16383C4103,16224 4201,16196 4450,16195C4651,16195 4698,16203 4945,16285C5050,16320 5171,16353 5215,16360C5435,16393 5679,16315 5844,16159C5936,16072 5981,16003 6021,15890C6125,15596 6048,15267 5802,14951C5626,14725 5383,14534 5131,14425C4845,14301 4579,14248 4240,14248C4037,14247 3918,14259 3734,14295C3136,14415 2688,14785 2515,15304C2428,15562 2447,15800 2571,16042C2606,16109 2634,16145 2721,16232C2819,16330 2836,16343 2941,16394C3165,16503 3363,16531 3560,16483Z" style="fill-rule:nonzero;"/>
    </g>
    <g transform="matrix(0.139751,0,0,-0.139751,-112.875,2808.7)">
        <path d="M5715,17691C5628,17651 5535,17522 5494,17385C5483,17348 5476,17290 5476,17233C5475,17145 5476,17140 5504,17111C5527,17087 5542,17080 5573,17080C5647,17080 5687,17122 5725,17240C5740,17286 5758,17310 5836,17386C5909,17458 5930,17486 5936,17515C5963,17659 5846,17752 5715,17691ZM5858,17627C5874,17612 5880,17595 5880,17566C5880,17518 5855,17479 5794,17430C5735,17383 5695,17325 5664,17243C5633,17162 5616,17140 5580,17140C5541,17140 5530,17158 5530,17225C5530,17352 5588,17496 5674,17585C5749,17661 5806,17674 5858,17627Z" style="fill-rule:nonzero;"/>
    </g>
    <g transform="matrix(0.139751,0,0,-0.139751,-112.875,2808.7)">
        <path d="M6947,16293C6944,16288 6935,16259 6927,16228C6914,16178 6914,16169 6927,16159C6938,16149 6944,16150 6954,16161C6967,16175 6990,16254 6990,16284C6990,16300 6955,16307 6947,16293Z" style="fill-rule:nonzero;"/>
    </g>
    <g transform="matrix(0.139751,0,0,-0.139751,-112.875,2808.7)">
        <path d="M3630,17167C3582,17151 3554,17099 3564,17045C3570,17016 3583,16996 3613,16970C3635,16951 3690,16898 3735,16852C3805,16780 3822,16768 3858,16763C3894,16758 3903,16761 3931,16789C3961,16819 3962,16824 3958,16883C3953,16961 3923,17026 3863,17085C3788,17158 3698,17190 3630,17167ZM3756,17090C3823,17052 3876,16989 3897,16924C3912,16875 3912,16870 3896,16846C3873,16811 3853,16813 3816,16856C3772,16908 3698,16980 3656,17013C3617,17045 3610,17073 3637,17102C3660,17128 3697,17124 3756,17090Z" style="fill-rule:nonzero;"/>
    </g>
    <g transform="matrix(0.139751,0,0,-0.139751,-112.875,2808.7)">
        <path d="M2307,16730C2258,16699 2255,16694 2270,16670C2278,16657 2284,16658 2316,16675C2370,16704 2400,16729 2400,16746C2400,16769 2357,16762 2307,16730Z" style="fill-rule:nonzero;"/>
    </g>
    <g transform="matrix(0.139751,0,0,-0.139751,-112.875,2808.7)">
        <path d="M2072,16565C2025,16544 1928,16448 1880,16375C1806,16261 1770,16117 1801,16057C1849,15963 1939,15955 2029,16036C2067,16070 2086,16098 2110,16158C2128,16200 2163,16276 2188,16325C2218,16385 2233,16429 2234,16456C2236,16553 2161,16604 2072,16565ZM2158,16508C2190,16467 2174,16421 2026,16130C1986,16052 1924,16023 1876,16061C1849,16082 1848,16087 1853,16143C1868,16311 2096,16584 2158,16508Z" style="fill-rule:nonzero;"/>
    </g>
    <g transform="matrix(0.139751,0,0,-0.139751,-112.875,2808.7)">
        <path d="M3528,16330C3518,16324 3510,16310 3510,16300C3510,16282 3517,16280 3573,16280C3646,16280 3689,16262 3779,16195C3861,16135 3921,16104 3999,16084C4080,16064 4105,16068 4105,16100C4105,16122 4100,16125 4052,16132C3979,16143 3910,16174 3822,16237C3781,16267 3729,16300 3707,16312C3660,16336 3554,16346 3528,16330Z" style="fill-rule:nonzero;"/>
    </g>
    <g transform="matrix(0.139751,0,0,-0.139751,-112.875,2808.7)">
        <path d="M3020,16287C2901,16237 2817,16158 2758,16040C2729,15983 2725,15965 2725,15893C2725,15813 2726,15810 2759,15776C2779,15755 2808,15738 2827,15734C2922,15716 2993,15770 3069,15919C3114,16006 3188,16100 3213,16100C3229,16100 3260,16167 3260,16202C3260,16229 3252,16249 3231,16272C3206,16301 3196,16304 3139,16307C3089,16310 3063,16305 3020,16287ZM3173,16239C3226,16210 3223,16197 3140,16119C3083,16066 3059,16032 3012,15944C2950,15828 2912,15790 2858,15790C2778,15790 2755,15893 2810,16009C2851,16096 2955,16199 3030,16228C3092,16252 3141,16255 3173,16239Z" style="fill-rule:nonzero;"/>
    </g>
    <g transform="matrix(0.139751,0,0,-0.139751,-112.875,2808.7)">
        <path d="M5595,16071C5524,16042 5517,15966 5574,15873C5604,15825 5614,15796 5622,15734C5634,15640 5650,15606 5690,15585C5736,15561 5775,15566 5814,15600C5908,15683 5876,15923 5758,16025C5702,16072 5641,16089 5595,16071ZM5708,15991C5769,15946 5814,15848 5814,15759C5814,15681 5791,15637 5748,15632C5709,15627 5689,15660 5680,15742C5671,15822 5661,15850 5618,15919C5587,15968 5584,15990 5602,16008C5622,16028 5665,16021 5708,15991Z" style="fill-rule:nonzero;"/>
    </g>
    <g transform="matrix(0.139751,0,0,-0.139751,-112.875,2808.7)">
        <path d="M2783,15143C2735,15126 2844,14925 2958,14818C3055,14727 3228,14629 3265,14644C3296,14656 3277,14680 3208,14718C3025,14819 2919,14923 2842,15077C2808,15143 2802,15150 2783,15143Z" style="fill-rule:nonzero;"/>
    </g>
    <g transform="matrix(0.139751,0,0,-0.139751,-112.875,2808.7)">
        <path d="M5570,14974C5515,14904 5398,14801 5310,14745C5177,14659 5074,14617 4860,14563C4822,14553 4808,14524 4836,14513C4858,14505 4966,14527 5065,14560C5245,14621 5404,14721 5543,14862C5639,14961 5666,15000 5647,15019C5628,15038 5616,15032 5570,14974Z" style="fill-rule:nonzero;"/>
    </g>
    <g transform="matrix(0.139751,0,0,-0.139751,-112.875,2808.7)">
        <path d="M4520,14501C4494,14497 4485,14490 4485,14475C4485,14457 4491,14455 4554,14457C4620,14458 4645,14469 4637,14495C4633,14507 4569,14510 4520,14501Z" style="fill-rule:nonzero;"/>
    </g>
</svg>
