<?xml version="1.0" standalone="no"?>
<!DOCTYPE svg PUBLIC "-//W3C//DTD SVG 20010904//EN"
 "http://www.w3.org/TR/2001/REC-SVG-20010904/DTD/svg10.dtd">
<svg version="1.0" xmlns="http://www.w3.org/2000/svg"
 width="1024.000000pt" height="1024.000000pt" viewBox="0 0 1024.000000 1024.000000"
 preserveAspectRatio="xMidYMid meet">
<metadata>
Created by potrace 1.16, written by Peter Selinger 2001-2019
</metadata>
<g transform="translate(0.000000,1024.000000) scale(0.100000,-0.100000)"
fill="#000000" stroke="none">
<path d="M4830 7189 c-563 -65 -1062 -373 -1268 -784 -56 -113 -73 -175 -81
-294 l-6 -103 -63 -24 c-79 -30 -162 -84 -208 -138 -114 -132 -213 -465 -245
-826 -15 -175 -7 -608 15 -745 64 -400 231 -661 511 -799 103 -51 197 -79 346
-103 91 -14 231 -17 1094 -20 1326 -6 1434 2 1680 124 137 68 214 132 304 253
147 198 212 421 231 796 31 614 -84 1166 -279 1347 -54 49 -133 96 -211 123
l-35 12 -2 90 c-9 387 -409 815 -929 995 -125 43 -297 82 -426 96 -112 13
-319 12 -428 0z m450 -174 c147 -22 200 -35 200 -50 0 -7 -43 -118 -96 -247
-238 -579 -348 -844 -357 -855 -12 -16 -113 -17 -122 -3 -4 6 -2 91 4 188 6
97 18 317 26 487 8 171 17 352 21 403 l6 92 112 0 c61 0 154 -7 206 -15z
m-490 -15 c0 -65 -62 -1135 -66 -1139 -8 -8 -505 -2 -699 10 -233 13 -270 21
-321 73 -85 85 -83 200 6 381 149 303 516 562 935 660 111 26 145 30 145 15z
m957 -114 c97 -41 239 -128 336 -205 261 -208 421 -518 348 -676 -37 -80 -97
-112 -235 -126 -92 -9 -968 -30 -975 -23 -6 5 36 110 246 617 103 246 190 447
194 447 4 0 43 -15 86 -34z m-2155 -1072 c124 -112 304 -128 1433 -128 1159 0
1345 17 1477 132 l35 32 54 -16 c68 -20 154 -70 170 -100 34 -64 -106 -151
-311 -194 -145 -30 -301 -40 -816 -51 -629 -14 -1647 0 -1834 26 -198 26 -303
55 -394 109 -85 50 -98 97 -39 145 31 25 148 79 177 80 5 1 26 -15 48 -35z
m3302 -369 c99 -346 112 -946 30 -1285 -77 -312 -253 -506 -530 -584 -49 -14
-125 -31 -169 -37 -117 -18 -2070 -25 -2260 -9 -389 33 -597 160 -730 443 -91
196 -110 325 -110 752 0 389 18 541 91 768 17 50 24 56 44 33 23 -29 109 -77
188 -106 113 -41 254 -68 449 -85 358 -32 2053 -28 2363 5 271 29 487 98 566
181 15 16 31 26 35 22 4 -5 19 -48 33 -98z"/>
<path d="M4276 6587 c-40 -32 -48 -109 -17 -149 65 -82 196 -35 196 69 0 38
-5 49 -33 74 -42 38 -103 40 -146 6z"/>
<path d="M5723 6308 c-72 -19 -98 -116 -47 -177 65 -78 184 -29 184 76 0 73
-64 121 -137 101z"/>
<path d="M3342 5283 c-15 -13 -30 -56 -51 -146 -42 -174 -41 -196 10 -223 33
-17 70 -11 94 16 17 19 75 253 75 302 0 59 -81 91 -128 51z"/>
<path d="M3259 4779 c-20 -20 -21 -29 -16 -98 7 -95 11 -107 49 -120 38 -13
93 8 103 39 4 12 4 56 0 96 -5 60 -11 77 -28 89 -31 22 -83 19 -108 -6z"/>
<path d="M3942 4657 c-154 -56 -166 -285 -18 -357 58 -27 142 -25 183 7 56 41
86 90 91 147 6 69 -10 116 -53 157 -55 55 -131 72 -203 46z"/>
<path d="M6015 4651 c-104 -48 -143 -162 -90 -267 32 -63 80 -96 149 -102 136
-11 237 107 206 240 -29 117 -156 179 -265 129z"/>
<path d="M3310 4407 c-52 -26 -54 -50 -12 -213 22 -82 44 -159 51 -171 24 -45
120 -38 142 11 10 20 6 46 -21 143 -18 65 -39 141 -46 169 -10 38 -20 54 -39
62 -33 15 -44 15 -75 -1z"/>
<path d="M4515 4195 c-32 -31 -31 -58 2 -125 83 -167 308 -290 528 -290 121 0
209 21 305 71 130 67 260 214 260 292 0 39 -40 77 -83 77 -38 0 -52 -12 -105
-90 -77 -113 -188 -170 -343 -178 -183 -8 -327 61 -416 200 -15 24 -34 49 -42
56 -25 21 -79 15 -106 -13z"/>
</g>
</svg>
