<?xml version="1.0" standalone="no"?>
<!DOCTYPE svg PUBLIC "-//W3C//DTD SVG 20010904//EN"
 "http://www.w3.org/TR/2001/REC-SVG-20010904/DTD/svg10.dtd">
<svg version="1.0" xmlns="http://www.w3.org/2000/svg"
 width="1024.000000pt" height="1024.000000pt" viewBox="0 0 1024.000000 1024.000000"
 preserveAspectRatio="xMidYMid meet">
<metadata>
Created by potrace 1.16, written by Peter Selinger 2001-2019
</metadata>
<g transform="translate(0.000000,1024.000000) scale(0.100000,-0.100000)"
fill="#000000" stroke="none">
<path d="M4775 6816 c-53 -17 -119 -61 -149 -100 -24 -31 -25 -32 -91 -28 -55
4 -75 10 -115 37 -139 94 -347 65 -461 -63 -42 -47 -47 -50 -109 -56 -145 -14
-451 -71 -655 -122 -379 -95 -683 -233 -795 -360 -80 -91 -168 -371 -216 -684
-22 -144 -26 -556 -6 -700 44 -316 139 -584 286 -805 82 -123 264 -304 386
-384 285 -187 658 -299 1195 -360 733 -83 1513 -80 2216 9 606 77 1003 220
1272 459 233 208 390 473 475 806 57 223 67 313 67 605 0 198 -5 293 -17 377
-35 232 -93 447 -154 578 -121 259 -640 459 -1504 582 -194 27 -195 28 -229
62 -83 82 -233 109 -337 60 -31 -14 -70 -23 -105 -24 -40 0 -72 -9 -108 -27
l-51 -27 -51 35 c-96 65 -232 82 -329 41 -34 -15 -35 -15 -78 24 -61 53 -135
79 -225 78 -40 0 -90 -6 -112 -13z m224 -118 c27 -13 56 -39 78 -69 38 -54 59
-60 101 -31 87 61 217 54 298 -15 12 -10 34 -37 48 -60 21 -34 32 -43 54 -43
32 0 52 16 52 43 0 10 14 32 31 49 29 30 32 30 93 24 53 -5 67 -3 87 12 76 59
180 52 252 -16 42 -40 51 -60 57 -132 5 -60 7 -65 30 -68 57 -6 75 -15 116
-58 24 -24 48 -44 54 -44 6 0 29 18 53 39 73 68 161 74 246 18 37 -25 81 -95
81 -130 0 -33 38 -40 90 -18 61 26 110 27 159 1 59 -30 91 -73 91 -124 0 -54
13 -66 74 -66 90 0 147 -53 156 -144 l5 -51 48 -12 c65 -16 96 -37 113 -78 31
-75 18 -87 -171 -149 -333 -110 -798 -192 -1385 -242 -251 -21 -1058 -30
-1342 -15 -714 39 -1311 139 -1710 287 -90 34 -98 39 -98 63 1 35 32 101 60
126 18 16 36 20 97 20 l75 0 26 39 c46 67 74 81 152 79 79 -3 94 9 79 61 -44
152 96 285 241 231 25 -10 60 -19 77 -22 35 -6 40 0 62 82 14 54 70 118 127
146 41 19 57 21 134 16 95 -6 100 -4 100 47 0 34 54 112 98 141 21 14 63 30
93 37 74 15 154 -8 213 -62 41 -38 44 -39 98 -33 55 6 56 5 73 -26 14 -27 21
-32 48 -29 22 2 35 10 43 28 40 86 52 105 82 128 70 54 173 61 261 20z m1379
-200 c45 -6 82 -15 82 -20 0 -4 -8 -8 -17 -8 -10 0 -33 -9 -51 -20 l-33 -21
-30 26 c-17 14 -36 25 -44 25 -7 0 -18 7 -25 15 -16 19 3 20 118 3z m-2778
-64 c-17 -15 -39 -43 -50 -64 l-19 -37 -73 5 c-40 2 -92 -1 -115 -7 -106 -29
-195 -130 -208 -237 -7 -49 -9 -53 -39 -60 -48 -10 -98 -39 -134 -77 -30 -31
-38 -34 -73 -30 -29 4 -52 -1 -95 -22 -62 -30 -106 -87 -127 -162 -6 -24 -15
-43 -19 -43 -10 0 -83 47 -131 84 -46 35 -87 102 -87 142 1 49 35 108 91 158
105 92 393 215 673 288 137 35 379 86 414 87 22 1 22 0 -8 -25z m3231 -10
c292 -65 465 -117 630 -189 373 -164 447 -337 209 -490 -77 -50 -90 -54 -90
-25 0 56 -71 142 -136 165 -30 10 -40 20 -45 42 -18 86 -102 167 -196 187 -24
6 -34 15 -43 39 -22 65 -57 104 -122 137 -58 29 -70 31 -146 29 -75 -3 -85 -1
-94 16 -16 31 -60 76 -93 96 -26 16 -27 19 -9 19 12 0 73 -12 135 -26z m-4418
-695 c315 -335 1667 -572 3009 -528 1189 38 2135 247 2408 531 22 23 43 39 46
35 9 -9 53 -216 70 -332 21 -145 29 -436 15 -590 -29 -335 -118 -604 -276
-840 -168 -251 -382 -415 -688 -529 -450 -168 -1262 -251 -2186 -226 -971 27
-1563 154 -1923 410 -162 115 -337 320 -428 500 -197 391 -242 973 -119 1518
12 50 24 92 28 92 3 0 23 -18 44 -41z"/>
<path d="M5091 6439 c-72 -36 -91 -67 -66 -105 20 -31 40 -30 87 2 81 56 175
38 231 -45 19 -27 36 -41 51 -41 52 0 61 53 20 117 -66 101 -203 132 -323 72z"/>
<path d="M4047 6345 c-55 -18 -137 -91 -137 -123 0 -25 25 -52 49 -52 10 0 28
11 40 24 60 64 153 74 238 26 42 -24 58 -28 73 -20 29 16 35 49 13 79 -46 64
-181 96 -276 66z"/>
<path d="M5834 6286 c-53 -24 -104 -75 -104 -105 0 -52 51 -69 86 -30 63 71
182 61 230 -20 21 -36 45 -46 74 -31 45 24 8 119 -67 170 -30 20 -51 25 -112
28 -49 1 -87 -3 -107 -12z"/>
<path d="M4573 6200 c-26 -11 -43 -40 -43 -74 0 -27 41 -66 70 -66 33 0 70 39
70 73 0 38 -7 50 -37 66 -25 13 -30 13 -60 1z"/>
<path d="M5057 6096 c-21 -8 -56 -26 -77 -40 -47 -31 -55 -74 -18 -100 20 -14
26 -13 77 17 46 26 67 32 116 32 69 0 126 -28 150 -75 33 -63 73 -78 100 -36
15 22 15 28 0 63 -20 48 -57 87 -114 121 -54 31 -173 41 -234 18z"/>
<path d="M6508 6066 c-65 -24 -88 -44 -88 -75 0 -46 23 -57 78 -38 84 28 108
30 156 8 45 -19 86 -68 86 -102 0 -22 35 -51 56 -47 10 2 25 14 32 28 31 55
-31 170 -113 210 -58 28 -156 36 -207 16z"/>
<path d="M3650 6057 c-33 -11 -35 -15 -35 -57 l0 -45 40 2 c59 3 118 14 133
25 18 15 15 52 -6 71 -22 20 -81 21 -132 4z"/>
<path d="M5830 5890 c-23 -23 -24 -29 -11 -63 9 -24 14 -25 93 -25 88 0 98 5
98 50 0 39 -33 58 -102 58 -45 0 -63 -5 -78 -20z"/>
<path d="M4205 5848 c-78 -29 -148 -105 -161 -174 -8 -42 8 -64 47 -64 24 0
32 7 50 46 46 96 133 126 234 80 71 -32 80 -32 101 -1 15 23 15 27 0 50 -38
57 -191 93 -271 63z"/>
<path d="M7025 5820 c-26 -29 -24 -79 4 -102 32 -25 67 -23 96 7 30 30 31 54
4 89 -26 33 -77 36 -104 6z"/>
<path d="M3355 5784 c-22 -8 -52 -26 -67 -41 -66 -63 -2 -126 71 -72 68 50
187 26 230 -47 25 -42 62 -46 86 -10 14 21 14 28 2 58 -42 101 -201 156 -322
112z"/>
<path d="M4745 5758 c-29 -16 -35 -28 -35 -70 0 -41 27 -68 68 -68 30 0 72 43
72 73 0 50 -63 88 -105 65z"/>
<path d="M6320 5745 c-99 -31 -153 -110 -94 -137 22 -10 32 -9 63 9 91 52 170
50 232 -8 51 -47 67 -53 90 -33 31 28 24 62 -24 109 -67 68 -168 90 -267 60z"/>
<path d="M5197 5635 c-32 -32 -20 -66 33 -89 19 -8 49 -24 65 -36 38 -25 57
-25 80 0 27 30 10 68 -46 102 -59 37 -110 46 -132 23z"/>
<path d="M5746 5619 c-50 -39 -22 -122 42 -122 43 0 72 28 72 70 0 65 -61 93
-114 52z"/>
<path d="M3887 4447 c-85 -27 -146 -108 -147 -193 0 -27 10 -61 28 -95 49 -94
162 -133 258 -90 156 71 164 284 14 361 -51 26 -107 32 -153 17z"/>
<path d="M6231 4445 c-124 -39 -180 -195 -108 -304 29 -44 113 -91 161 -91 98
0 185 67 204 155 24 112 -36 215 -143 244 -49 13 -59 13 -114 -4z"/>
<path d="M5222 4225 c-15 -31 -33 -51 -57 -62 -32 -15 -40 -16 -78 -3 -32 12
-47 25 -65 58 -21 37 -28 42 -58 42 -28 0 -36 -5 -45 -27 -14 -38 24 -109 79
-148 40 -27 51 -30 121 -30 68 0 83 3 119 28 47 31 82 90 82 141 0 35 -12 46
-54 46 -16 0 -28 -12 -44 -45z"/>
<path d="M6659 4156 c-104 -37 -144 -91 -137 -183 9 -102 92 -156 244 -157 82
-1 96 2 149 29 67 35 95 76 95 143 0 79 -53 140 -146 168 -58 17 -157 17 -205
0z m198 -106 c43 -19 62 -52 50 -84 -19 -48 -168 -67 -242 -31 -32 16 -41 26
-43 50 -3 40 7 54 54 70 55 20 132 18 181 -5z"/>
<path d="M3405 4117 c-142 -48 -196 -139 -144 -244 36 -72 94 -98 220 -98 86
0 101 3 155 30 47 24 64 39 82 75 44 85 6 181 -85 222 -57 25 -174 33 -228 15z
m194 -111 c42 -22 50 -60 21 -91 -59 -63 -260 -54 -276 12 -20 79 152 132 255
79z"/>
</g>
</svg>
