<?xml version="1.0" standalone="no"?>
<!DOCTYPE svg PUBLIC "-//W3C//DTD SVG 20010904//EN"
 "http://www.w3.org/TR/2001/REC-SVG-20010904/DTD/svg10.dtd">
<svg version="1.0" xmlns="http://www.w3.org/2000/svg"
 width="2048.000000pt" height="2048.000000pt" viewBox="0 0 2048.000000 2048.000000"
 preserveAspectRatio="xMidYMid meet">
<metadata>
Created by potrace 1.16, written by Peter Selinger 2001-2019
</metadata>
<g transform="translate(0.000000,2048.000000) scale(0.100000,-0.100000)"
fill="#000000" stroke="none">
<path d="M9410 14874 c-278 -35 -524 -150 -766 -357 -61 -52 -130 -117 -153
-145 -65 -77 -79 -80 -188 -38 -234 91 -530 89 -784 -3 -273 -100 -515 -319
-698 -631 -70 -119 -51 -110 -225 -104 -116 5 -172 3 -242 -10 -268 -47 -489
-165 -669 -359 -138 -147 -250 -345 -331 -580 -25 -73 -44 -113 -58 -121 -12
-7 -62 -18 -113 -25 -183 -23 -390 -102 -523 -201 -81 -60 -191 -174 -241
-250 -130 -197 -194 -397 -219 -689 -5 -62 -14 -119 -20 -126 -5 -7 -49 -29
-98 -48 -286 -119 -464 -305 -557 -580 -50 -151 -68 -361 -45 -545 8 -64 8
-87 -2 -106 -7 -13 -54 -55 -104 -94 -255 -197 -374 -440 -377 -767 -2 -135
12 -225 55 -370 17 -55 30 -110 30 -123 0 -15 -29 -53 -89 -115 -98 -102 -135
-151 -183 -247 -157 -312 -146 -668 31 -1022 27 -54 49 -107 49 -118 0 -11
-29 -62 -64 -113 -120 -173 -199 -359 -232 -547 -24 -140 -15 -381 19 -510 31
-118 61 -186 123 -281 92 -140 218 -244 368 -305 124 -50 220 -67 381 -67 204
0 339 27 674 134 138 44 174 51 350 70 108 11 374 44 591 74 582 80 805 101
1330 125 273 13 929 13 1215 0 520 -23 892 -39 1000 -45 1168 -61 2321 -55
3600 20 244 14 350 21 685 45 623 45 842 54 1390 54 662 1 885 -14 1460 -99
91 -13 228 -31 305 -39 164 -18 165 -18 422 -134 321 -145 486 -188 688 -179
327 14 574 225 666 568 19 70 23 109 23 234 0 171 -11 215 -106 434 l-50 114
55 116 c94 199 112 277 112 486 -1 134 -5 174 -23 243 -54 198 -129 340 -279
525 -35 43 -63 83 -63 91 0 7 18 55 41 106 63 147 83 241 82 400 0 159 -24
268 -91 413 -62 132 -124 219 -258 357 -67 69 -124 136 -128 148 -5 13 2 63
16 120 19 82 23 123 23 262 -1 154 -3 171 -29 250 -92 279 -264 479 -578 672
-121 74 -152 108 -145 157 3 20 11 94 18 165 34 359 -81 677 -334 928 -178
176 -353 267 -698 362 -31 9 -62 22 -68 30 -6 7 -16 61 -21 119 -11 125 -38
237 -83 345 -165 391 -629 642 -1185 642 -141 0 -150 5 -182 92 -35 96 -103
226 -154 294 -94 125 -250 251 -390 314 -281 128 -672 143 -1029 41 -81 -24
-103 -18 -143 36 -197 267 -393 405 -673 476 -74 18 -114 21 -296 22 -196 0
-218 -2 -330 -29 -158 -37 -283 -84 -431 -162 -67 -35 -130 -64 -141 -64 -10
0 -59 30 -108 66 -131 96 -222 138 -385 175 -83 20 -338 33 -420 23z m375
-289 c138 -38 302 -139 340 -209 18 -33 18 -37 2 -68 -9 -18 -62 -94 -117
-168 -80 -107 -118 -171 -186 -310 -128 -264 -138 -282 -166 -303 -18 -13
-101 -34 -274 -67 -318 -61 -559 -117 -804 -186 -295 -84 -300 -85 -321 -73
-63 33 47 417 186 652 87 148 254 344 397 465 183 154 350 236 572 278 90 17
289 11 371 -11z m1680 -15 c174 -45 349 -157 442 -283 52 -72 93 -148 93 -175
0 -23 -56 -75 -172 -159 -107 -78 -220 -184 -333 -313 -138 -156 -136 -156
-394 -130 -304 31 -507 40 -845 40 -296 -1 -321 0 -338 17 -24 25 -13 63 62
219 121 251 333 472 616 644 114 69 305 135 460 160 96 15 317 4 409 -20z
m-3357 -465 c81 -19 180 -70 193 -99 9 -18 2 -40 -36 -127 -106 -234 -148
-363 -200 -602 -28 -130 -42 -166 -79 -194 -13 -11 -102 -53 -198 -93 -191
-82 -564 -268 -758 -379 -145 -83 -165 -90 -188 -67 -15 15 -17 42 -16 204 0
208 18 318 75 476 41 114 142 312 214 421 82 125 266 306 365 362 87 49 236
101 324 113 78 11 223 4 304 -15z m4913 -1 c178 -31 326 -100 432 -202 94 -90
173 -230 202 -356 25 -105 16 -115 -153 -181 -170 -66 -333 -150 -447 -230
-86 -61 -139 -85 -184 -85 -24 0 -104 25 -208 64 -235 89 -500 174 -763 246
-123 34 -239 68 -257 75 -76 32 -59 71 100 229 133 133 251 223 372 283 73 37
257 105 344 128 176 45 399 57 562 29z m-2221 -734 c1031 -65 2138 -463 3020
-1083 293 -207 502 -380 749 -622 646 -633 1092 -1352 1379 -2225 85 -257 97
-300 157 -540 154 -614 239 -1262 252 -1910 7 -382 -13 -595 -83 -874 -39
-156 -75 -208 -152 -222 -24 -5 -140 8 -327 35 -295 42 -445 59 -730 83 -216
18 -1273 18 -1560 0 -518 -32 -860 -54 -1110 -72 -527 -38 -1115 -63 -1785
-75 -530 -10 -1380 13 -2580 69 -606 29 -1291 33 -1720 11 -561 -29 -754 -49
-1475 -151 -321 -45 -516 -52 -561 -19 -130 97 -210 620 -185 1207 19 443 67
824 167 1328 207 1049 603 1928 1214 2700 338 428 713 790 1165 1126 618 460
1355 807 2153 1015 486 127 867 194 1247 218 192 12 577 12 765 1z m-4116 -63
c38 -25 40 -53 17 -194 -32 -193 -41 -300 -41 -502 0 -233 -3 -240 -133 -342
-287 -226 -427 -346 -662 -569 -77 -73 -157 -144 -178 -158 -36 -24 -38 -24
-57 -7 -25 22 -55 114 -77 235 -27 146 -24 441 5 580 106 497 373 837 745 945
96 28 147 34 254 31 75 -2 108 -7 127 -19z m7686 -22 c433 -88 697 -349 717
-709 8 -161 -7 -180 -162 -196 -153 -16 -295 -45 -465 -95 -161 -47 -220 -54
-273 -31 -18 7 -156 96 -307 197 -151 102 -351 229 -445 283 -241 140 -312
185 -319 201 -8 21 26 57 106 112 192 132 405 212 655 248 120 18 385 12 493
-10z m-9058 -1066 c36 -19 50 -70 60 -204 13 -187 34 -333 69 -476 35 -144 39
-211 14 -259 -10 -19 -59 -89 -109 -155 -184 -241 -297 -404 -519 -752 -58
-91 -73 -93 -121 -15 -92 146 -178 363 -211 532 -22 117 -31 398 -16 530 38
332 177 567 416 707 151 88 345 131 417 92z m9959 -14 c340 -60 605 -195 755
-383 54 -68 138 -234 160 -317 35 -127 28 -427 -11 -522 -19 -44 -42 -47 -160
-23 -149 31 -276 48 -436 60 -79 6 -161 16 -182 22 -54 16 -112 71 -234 222
-183 224 -283 333 -517 564 -149 146 -226 229 -224 240 10 51 267 133 493 156
69 7 268 -4 356 -19z m-10975 -1296 c15 -14 43 -84 83 -208 45 -138 87 -239
161 -391 80 -163 100 -213 100 -247 0 -33 -24 -98 -99 -271 -55 -125 -132
-309 -171 -409 -40 -100 -78 -187 -86 -193 -23 -20 -52 -1 -130 90 -115 133
-189 242 -254 375 -199 406 -211 766 -35 1034 55 83 125 147 209 192 116 62
178 70 222 28z m11429 -64 c166 -13 395 -74 567 -152 402 -182 632 -442 655
-742 10 -127 -37 -314 -85 -340 -17 -9 -42 -3 -134 32 -179 69 -351 124 -512
162 -165 40 -215 61 -244 102 -11 16 -73 138 -139 273 -65 135 -163 323 -217
419 -53 95 -99 185 -102 200 -9 42 26 62 96 55 19 -2 71 -6 115 -9z m-12038
-1177 c12 -13 45 -63 74 -113 84 -145 183 -285 283 -402 125 -147 153 -187
160 -231 4 -25 -5 -84 -30 -187 -19 -82 -64 -288 -98 -456 -35 -168 -66 -311
-70 -318 -16 -25 -55 -8 -136 56 -230 183 -373 370 -500 658 -80 180 -95 245
-95 420 0 137 3 156 27 223 51 142 143 263 252 334 68 43 104 48 133 16z
m12573 -42 c367 -84 719 -274 911 -493 212 -243 267 -544 146 -805 -36 -79
-69 -118 -99 -118 -10 0 -84 31 -166 69 -197 92 -238 109 -441 176 -177 60
-219 83 -246 136 -8 15 -51 169 -94 341 -44 172 -104 393 -135 492 -31 98 -56
184 -56 192 0 16 28 33 55 34 11 0 67 -11 125 -24z m-12923 -1291 c12 -9 50
-50 85 -93 106 -130 226 -251 376 -381 100 -85 149 -135 159 -160 14 -32 14
-56 -1 -241 -9 -113 -21 -313 -26 -445 -14 -324 -16 -342 -45 -361 -23 -15
-28 -14 -97 21 -306 155 -568 414 -708 700 -71 144 -99 238 -107 365 -8 129
14 235 74 360 37 77 60 109 123 173 66 66 82 77 112 77 18 0 43 -7 55 -15z
m13378 -86 c135 -48 326 -142 430 -211 221 -147 365 -324 441 -543 27 -75 28
-90 29 -245 0 -156 -2 -170 -29 -254 -33 -101 -81 -180 -112 -184 -14 -2 -45
19 -95 64 -173 156 -333 259 -608 390 -85 41 -170 86 -189 101 -57 43 -69 86
-97 344 -13 129 -31 279 -39 334 -27 183 -30 223 -15 241 34 41 83 34 284 -37z
m-38 -1124 c204 -77 463 -244 619 -400 213 -212 314 -415 314 -630 0 -220 -98
-399 -265 -481 -161 -79 -340 -54 -685 98 -189 83 -258 123 -266 154 -7 28 -8
24 39 204 65 251 85 409 96 778 6 190 12 277 21 287 18 21 50 19 127 -10z
m-13485 -238 c20 -12 83 -58 140 -103 125 -98 214 -158 374 -252 207 -121 213
-130 255 -366 16 -89 49 -230 74 -315 53 -182 55 -176 -64 -216 -153 -51 -289
-76 -436 -82 -235 -9 -360 32 -490 161 -119 117 -181 271 -192 477 -12 217 47
425 168 599 49 70 69 94 94 108 28 16 35 15 77 -11z"/>
<path d="M12310 12200 c-120 -14 -247 -102 -287 -198 -37 -89 -33 -215 12
-300 48 -94 96 -132 313 -247 574 -302 952 -646 1387 -1263 109 -153 200 -220
333 -241 154 -25 317 57 379 191 29 61 46 168 37 237 -48 403 -543 1007 -1159
1418 -152 102 -347 212 -472 267 -262 116 -405 152 -543 136z m253 -189 c642
-230 1329 -783 1635 -1318 147 -257 168 -434 65 -535 -66 -64 -140 -75 -230
-34 -68 32 -110 76 -220 231 -410 579 -830 949 -1422 1256 -172 89 -241 162
-241 253 1 71 58 146 135 175 53 19 180 6 278 -28z"/>
<path d="M8072 9560 c-112 -29 -187 -74 -277 -165 -182 -181 -237 -422 -154
-673 27 -81 105 -199 171 -256 252 -220 658 -203 886 38 242 256 241 648 -3
891 -157 158 -403 223 -623 165z m425 -244 c87 -41 129 -133 109 -241 -9 -44
-56 -100 -109 -127 -89 -45 -213 -4 -264 87 -46 81 -22 205 50 259 67 51 136
58 214 22z m-417 -563 c38 -26 49 -45 50 -80 1 -109 -127 -153 -187 -64 -28
42 -29 66 -3 109 32 51 94 67 140 35z"/>
<path d="M11801 9565 c-289 -66 -492 -320 -494 -620 -1 -111 14 -176 63 -280
70 -146 192 -257 353 -318 77 -30 90 -31 217 -31 127 0 140 1 217 31 104 40
177 88 250 167 73 77 105 131 139 232 74 221 23 459 -134 626 -84 90 -163 141
-266 174 -102 33 -250 41 -345 19z m75 -260 c61 -36 97 -100 98 -174 0 -94
-58 -170 -151 -197 -175 -51 -322 141 -230 299 60 103 179 133 283 72z m332
-555 c67 -41 68 -123 2 -168 -46 -31 -94 -25 -132 18 -40 44 -38 92 6 136 40
40 75 44 124 14z"/>
<path d="M9525 8880 c-11 -4 -31 -20 -45 -35 -22 -23 -25 -38 -29 -111 -7
-180 52 -330 183 -459 140 -138 266 -189 471 -189 108 0 129 3 205 30 108 38
181 86 263 174 110 116 167 260 167 420 0 93 -10 122 -53 154 -44 32 -102 28
-137 -10 -25 -28 -27 -40 -32 -135 -7 -131 -32 -200 -98 -272 -161 -176 -445
-185 -622 -19 -88 82 -128 177 -128 305 0 79 -17 120 -60 142 -32 17 -55 18
-85 5z"/>
<path d="M4663 7580 c-88 -36 -117 -447 -48 -685 46 -158 143 -308 251 -387
111 -81 271 -142 404 -154 57 -5 68 -3 93 16 20 16 27 30 27 56 0 43 -27 71
-77 79 -201 30 -285 67 -394 175 -126 124 -177 255 -186 475 -4 110 -2 146 18
235 28 131 27 149 -6 177 -28 24 -46 27 -82 13z"/>
<path d="M4510 6433 c-16 -20 -20 -36 -16 -58 9 -42 70 -129 130 -181 57 -50
192 -122 246 -130 64 -10 108 47 84 110 -3 9 -47 36 -98 60 -91 44 -142 88
-219 189 -24 31 -34 37 -67 37 -30 0 -43 -6 -60 -27z"/>
</g>
</svg>
