<?xml version="1.0" standalone="no"?>
<!DOCTYPE svg PUBLIC "-//W3C//DTD SVG 20010904//EN"
 "http://www.w3.org/TR/2001/REC-SVG-20010904/DTD/svg10.dtd">
<svg version="1.0" xmlns="http://www.w3.org/2000/svg"
 width="1024.000000pt" height="1024.000000pt" viewBox="0 0 1024.000000 1024.000000"
 preserveAspectRatio="xMidYMid meet">
<metadata>
Created by potrace 1.16, written by Peter Selinger 2001-2019
</metadata>
<g transform="translate(0.000000,1024.000000) scale(0.100000,-0.100000)"
fill="#000000" stroke="none">
<path d="M4800 6359 c-30 -5 -97 -30 -148 -55 -72 -35 -111 -63 -169 -120 -55
-53 -84 -74 -102 -74 -47 0 -188 -56 -267 -105 -100 -62 -203 -160 -270 -256
-50 -71 -56 -76 -104 -87 -141 -33 -299 -150 -390 -288 -171 -262 -229 -627
-217 -1377 6 -403 14 -479 55 -520 53 -53 41 -52 1532 -51 1282 1 2122 13
2366 34 158 13 176 28 194 174 30 240 37 1034 10 1215 -14 100 -24 109 -285
268 -71 43 -332 204 -580 357 -582 361 -653 405 -940 581 -132 82 -286 177
-342 212 -149 93 -223 113 -343 92z m301 -332 c209 -127 391 -238 398 -244 3
-2 -5 -13 -16 -26 -30 -33 -43 -62 -43 -97 0 -139 201 -173 241 -39 7 21 13
39 14 39 1 0 98 -59 216 -131 118 -73 277 -170 354 -217 127 -77 432 -266 689
-426 55 -34 101 -67 103 -73 4 -11 -86 -17 -517 -33 -328 -12 -1005 -30 -1136
-30 l-93 0 1 50 c2 80 -46 130 -125 130 -82 0 -135 -62 -124 -145 l6 -43 -402
-6 c-558 -10 -1274 -12 -1281 -5 -10 10 31 229 59 314 43 130 99 227 170 293
106 99 148 112 324 102 50 -4 56 -2 82 28 33 36 37 72 14 116 -19 36 -13 46
71 129 129 128 237 178 386 181 119 2 139 15 148 98 5 52 6 53 65 89 63 38
136 67 171 68 12 1 113 -54 225 -122z m1979 -1699 c-1 -262 -14 -636 -23 -645
-21 -20 -2468 -49 -3234 -37 l-451 7 -6 29 c-10 52 -17 581 -9 702 l8 119 305
-2 c566 -4 3195 56 3245 74 6 2 45 4 88 4 l77 1 0 -252z"/>
<path d="M4896 5990 c-94 -63 -196 -103 -298 -116 -89 -11 -92 -15 -147 -126
-100 -206 -235 -320 -444 -373 -44 -11 -84 -27 -88 -35 -5 -8 -23 -49 -42 -90
-45 -99 -95 -164 -193 -249 -114 -98 -129 -148 -64 -212 43 -44 103 -41 167 7
113 85 221 209 276 318 23 46 28 50 110 81 114 42 185 86 273 168 79 73 128
135 184 230 l35 59 85 25 c139 40 335 148 373 207 33 50 9 119 -53 151 -50 26
-80 18 -174 -45z"/>
<path d="M4394 5221 c-64 -39 -73 -151 -15 -203 108 -97 264 31 196 162 -30
58 -120 78 -181 41z"/>
<path d="M6301 5178 c-86 -46 -91 -178 -9 -228 85 -52 188 9 188 111 0 42 -5
55 -33 85 -26 29 -42 37 -77 40 -26 3 -55 -1 -69 -8z"/>
<path d="M3832 4324 c-32 -22 -52 -67 -52 -115 0 -35 6 -48 39 -80 34 -34 44
-39 86 -39 42 0 52 5 86 39 33 32 39 45 39 80 0 84 -45 131 -125 131 -30 0
-60 -6 -73 -16z"/>
<path d="M6788 4322 c-30 -18 -58 -67 -58 -101 0 -68 63 -131 130 -131 67 0
130 63 130 131 0 35 -31 89 -61 104 -38 20 -108 18 -141 -3z"/>
<path d="M5401 4084 c-59 -49 -59 -145 -1 -196 24 -23 40 -28 80 -28 43 0 56
5 86 33 62 57 53 166 -17 202 -46 24 -112 19 -148 -11z"/>
</g>
</svg>
