<?xml version="1.0" standalone="no"?>
<!DOCTYPE svg PUBLIC "-//W3C//DTD SVG 20010904//EN"
 "http://www.w3.org/TR/2001/REC-SVG-20010904/DTD/svg10.dtd">
<svg version="1.0" xmlns="http://www.w3.org/2000/svg"
 width="1024.000000pt" height="1024.000000pt" viewBox="0 0 1024.000000 1024.000000"
 preserveAspectRatio="xMidYMid meet">
<metadata>
Created by potrace 1.16, written by Peter Selinger 2001-2019
</metadata>
<g transform="translate(0.000000,1024.000000) scale(0.100000,-0.100000)"
fill="#000000" stroke="none">
<path d="M3633 6245 c-66 -18 -116 -43 -171 -87 l-43 -34 -67 17 c-181 48
-363 -2 -490 -135 -165 -171 -198 -418 -86 -644 27 -57 58 -98 117 -157 l79
-79 -19 -76 c-14 -57 -18 -112 -17 -230 0 -147 2 -160 32 -250 104 -312 378
-519 801 -605 642 -132 2194 -112 2819 35 320 76 588 286 707 556 58 131 86
322 67 454 l-9 65 62 67 c120 127 178 296 157 458 -5 47 -20 111 -32 143 -50
132 -173 245 -313 289 -86 27 -230 29 -317 5 l-54 -15 -49 43 c-55 50 -130 90
-208 110 -71 19 -269 19 -519 0 -796 -60 -1366 -45 -2084 55 -241 33 -287 35
-363 15z m398 -168 c632 -98 1246 -111 2080 -47 309 24 377 25 454 5 59 -16
96 -35 149 -79 25 -21 27 -26 16 -46 -10 -18 -17 -21 -45 -16 -49 9 -63 -1
-97 -68 -39 -78 -72 -114 -120 -127 -56 -15 -98 -3 -185 52 -67 42 -84 49
-129 49 -60 0 -88 -18 -134 -85 -39 -56 -86 -85 -139 -85 -49 0 -84 16 -164
76 -61 45 -109 61 -154 50 -14 -4 -56 -36 -92 -70 -79 -75 -97 -86 -150 -86
-57 0 -83 13 -149 73 -103 95 -164 96 -266 7 -32 -28 -70 -57 -86 -65 -37 -19
-93 -19 -129 0 -28 14 -111 101 -111 116 0 4 -16 17 -36 29 -51 32 -104 24
-184 -28 -35 -23 -83 -49 -106 -58 -83 -31 -155 5 -201 102 -13 29 -33 60 -44
70 -32 29 -104 29 -188 0 -143 -50 -203 -28 -234 83 -10 34 -26 70 -36 80 -18
18 -18 19 11 41 16 12 48 30 71 41 54 25 167 21 398 -14z m-653 -104 c52 -26
56 -32 72 -83 23 -76 44 -113 82 -145 79 -67 160 -80 283 -46 39 11 77 22 86
26 11 4 25 -11 52 -56 21 -34 36 -63 35 -64 -2 -2 -43 1 -93 6 -168 15 -323
11 -414 -11 -158 -38 -324 -150 -402 -271 -18 -27 -38 -49 -45 -49 -22 0 -103
100 -136 168 -31 64 -33 72 -33 182 0 106 2 120 28 172 92 187 305 262 485
171z m3798 -78 c69 -20 155 -84 192 -142 67 -105 79 -244 32 -366 -21 -57 -75
-137 -95 -144 -6 -2 -20 16 -32 39 -99 205 -327 338 -576 338 l-90 0 40 43
c35 38 48 62 67 120 3 10 10 15 16 12 5 -3 41 13 80 36 127 75 254 98 366 64z
m-965 -262 c28 -15 46 -30 41 -35 -5 -5 -41 -8 -80 -6 l-72 3 26 33 c14 17 28
32 31 32 3 0 27 -12 54 -27z m-1715 -29 c30 -32 31 -48 2 -40 -13 3 -44 6 -70
6 -27 0 -48 3 -48 8 0 8 70 51 84 52 5 0 19 -11 32 -26z m1144 -16 l35 -22
-55 -7 c-69 -7 -77 -3 -49 27 27 29 26 29 69 2z m-563 -13 l28 -24 -62 -1
c-35 0 -63 3 -63 6 0 9 44 43 57 44 7 0 25 -11 40 -25z m-962 -130 c775 -61
1241 -60 2160 6 231 16 438 27 460 24 151 -22 248 -68 333 -159 109 -118 158
-261 149 -446 -8 -179 -71 -328 -196 -462 -177 -190 -391 -275 -816 -322 -308
-35 -559 -48 -1016 -53 -772 -9 -1293 31 -1553 118 -292 98 -478 272 -542 509
-24 87 -24 262 -1 350 55 208 194 372 366 430 131 44 165 44 656 5z"/>
<path d="M4481 5266 c-32 -18 -50 -53 -51 -99 0 -31 7 -46 34 -73 28 -28 42
-34 76 -34 34 0 48 6 76 34 29 29 34 41 34 81 0 38 -5 52 -29 76 -24 23 -38
29 -73 29 -24 -1 -54 -7 -67 -14z"/>
<path d="M5677 5269 c-25 -15 -47 -63 -47 -105 0 -54 53 -104 110 -104 34 0
48 6 76 34 29 29 34 41 34 81 0 38 -5 52 -29 76 -25 24 -37 29 -78 29 -26 0
-56 -5 -66 -11z"/>
<path d="M3296 5047 c-27 -20 -33 -139 -12 -237 17 -80 61 -180 96 -217 29
-32 77 -31 92 2 10 21 6 36 -25 102 -47 104 -57 143 -57 238 0 57 -5 87 -16
103 -17 25 -51 29 -78 9z"/>
<path d="M4900 4983 c-27 -35 -20 -66 27 -115 76 -78 206 -105 304 -61 67 30
129 92 129 131 0 69 -60 81 -129 27 -25 -20 -55 -38 -68 -41 -33 -9 -91 2
-117 21 -104 77 -113 79 -146 38z"/>
<path d="M6971 4993 c-16 -13 -24 -36 -31 -84 -5 -37 -14 -79 -20 -93 -25 -65
6 -118 58 -100 22 7 31 22 49 74 13 39 22 90 23 127 0 53 -3 64 -22 77 -28 20
-31 20 -57 -1z"/>
<path d="M6774 4616 c-71 -31 -43 -136 36 -136 28 0 70 44 70 73 0 29 -27 63
-55 71 -11 3 -34 -1 -51 -8z"/>
<path d="M3600 4533 c-31 -11 -50 -37 -50 -68 0 -41 18 -63 57 -71 61 -12 107
66 66 114 -20 23 -50 33 -73 25z"/>
<path d="M6509 4377 c-69 -34 -141 -69 -160 -77 -25 -11 -35 -22 -37 -43 -7
-62 41 -73 145 -31 133 53 233 123 233 161 0 14 -35 53 -47 53 -5 0 -65 -28
-134 -63z"/>
<path d="M3746 4321 c-14 -16 -16 -26 -9 -48 11 -32 59 -48 176 -59 57 -6 70
-4 87 11 23 21 25 44 7 69 -9 12 -41 21 -122 31 -61 8 -113 15 -116 15 -3 0
-14 -9 -23 -19z"/>
</g>
</svg>
