<?xml version="1.0" standalone="no"?>
<!DOCTYPE svg PUBLIC "-//W3C//DTD SVG 20010904//EN"
 "http://www.w3.org/TR/2001/REC-SVG-20010904/DTD/svg10.dtd">
<svg version="1.0" xmlns="http://www.w3.org/2000/svg"
 width="1024.000000pt" height="1024.000000pt" viewBox="0 0 1024.000000 1024.000000"
 preserveAspectRatio="xMidYMid meet">
<metadata>
Created by potrace 1.16, written by Peter Selinger 2001-2019
</metadata>
<g transform="translate(0.000000,1024.000000) scale(0.100000,-0.100000)"
fill="#000000" stroke="none">
<path d="M4310 6779 c-92 -11 -243 -47 -325 -76 -178 -64 -371 -185 -471 -296
-49 -54 -139 -184 -149 -216 -3 -9 -33 -31 -68 -47 -107 -50 -238 -144 -330
-236 -75 -76 -96 -91 -150 -109 -99 -34 -394 -182 -492 -247 -277 -185 -459
-396 -532 -617 -24 -72 -27 -95 -28 -225 0 -109 4 -161 18 -209 68 -246 291
-497 624 -703 473 -293 1235 -522 2003 -602 326 -34 448 -40 790 -40 512 0
907 36 1374 125 1065 203 1854 646 2043 1148 121 321 33 641 -251 909 -84 80
-210 176 -278 212 -41 21 -44 26 -66 104 -27 97 -85 221 -143 308 -97 144
-303 314 -484 399 -453 212 -1034 217 -1448 13 -84 -41 -195 -113 -233 -151
-16 -17 -18 -17 -28 1 -34 59 -135 182 -187 230 -196 177 -454 286 -769 325
-97 13 -324 12 -420 0z m430 -93 c170 -23 335 -72 467 -140 137 -70 293 -208
377 -335 l48 -71 -31 -39 c-51 -65 -118 -200 -146 -295 -14 -50 -27 -91 -28
-93 -4 -3 -119 15 -122 19 -35 53 -110 140 -172 199 -185 177 -418 291 -715
351 -99 20 -143 23 -348 23 -249 0 -371 -16 -515 -65 -32 -11 -60 -18 -63 -16
-8 9 89 126 144 173 128 111 329 213 509 258 174 44 406 56 595 31z m2243
-285 c295 -64 527 -181 702 -355 185 -184 278 -401 279 -646 0 -174 -34 -268
-138 -378 -199 -210 -646 -349 -1059 -328 -107 5 -328 31 -332 39 -1 1 -11 49
-24 107 -43 198 -130 365 -268 510 -144 151 -307 249 -528 315 -49 15 -92 29
-94 31 -2 2 9 43 24 91 109 356 401 562 900 637 17 2 122 3 235 1 162 -3 225
-8 303 -24z m-2578 -211 c197 -39 366 -106 519 -207 69 -46 256 -220 256 -240
0 -5 -41 -10 -94 -11 -102 -2 -263 -23 -366 -49 -571 -141 -970 -549 -1007
-1030 l-6 -84 -46 6 c-79 11 -283 63 -363 94 -106 41 -170 75 -256 134 -197
135 -273 303 -244 534 14 111 59 252 107 338 155 278 500 473 945 535 118 16
431 5 555 -20z m-1595 -495 c0 -3 -8 -22 -19 -43 -29 -58 -69 -192 -77 -260
l-7 -61 -73 -56 c-274 -206 -350 -514 -194 -781 80 -136 291 -312 520 -432
579 -305 1574 -489 2455 -453 610 25 1136 112 1595 264 526 173 887 425 1021
712 61 130 48 324 -29 431 l-29 39 25 53 c36 80 52 146 59 255 3 53 8 97 10
97 20 0 176 -123 254 -200 142 -141 222 -275 255 -429 56 -264 -74 -548 -357
-786 -612 -514 -1854 -828 -3164 -802 -547 11 -993 68 -1501 192 -326 80 -598
177 -869 310 -711 349 -993 811 -770 1260 124 250 387 470 779 652 87 40 116
50 116 38z m2547 -66 c170 -23 369 -88 495 -162 227 -133 394 -352 463 -608
64 -241 32 -428 -97 -559 -159 -162 -520 -309 -898 -367 -177 -27 -485 -24
-655 6 -362 64 -677 215 -784 377 -97 146 -106 366 -25 570 150 381 544 663
1031 738 108 17 363 20 470 5z m-2636 -539 c45 -227 259 -411 617 -530 120
-40 296 -80 351 -80 25 0 32 -5 37 -27 41 -187 162 -322 389 -436 414 -207
963 -252 1475 -122 277 70 538 193 679 320 85 77 141 191 161 333 10 65 16 82
29 82 9 0 70 -7 136 -15 431 -52 866 34 1160 230 45 29 101 75 125 101 l43 47
19 -23 c34 -42 61 -155 55 -229 -20 -208 -252 -449 -602 -624 -276 -138 -575
-236 -955 -311 -738 -147 -1540 -160 -2270 -35 -691 118 -1225 328 -1523 600
-274 249 -286 533 -33 784 l80 80 8 -45 c5 -25 13 -70 19 -100z"/>
<path d="M5155 6103 c-5 -13 9 -31 53 -70 32 -29 78 -77 102 -108 42 -55 75
-70 86 -40 9 23 -52 109 -124 175 -67 62 -104 75 -117 43z"/>
<path d="M5941 5854 c-77 -88 -115 -199 -67 -199 14 0 29 19 51 62 17 34 48
82 69 108 66 81 17 108 -53 29z"/>
<path d="M7441 5641 c-17 -32 -14 -101 5 -108 26 -10 45 26 42 77 -3 50 -28
67 -47 31z"/>
<path d="M7170 5557 c0 -18 11 -27 49 -44 37 -15 55 -31 74 -64 46 -79 59
-148 60 -338 2 -180 7 -200 42 -171 12 10 15 44 15 172 0 181 -17 285 -58 362
-32 58 -99 106 -149 106 -28 0 -33 -4 -33 -23z"/>
<path d="M4657 5923 c-13 -12 -7 -53 7 -53 8 0 56 -21 106 -47 91 -46 116 -49
127 -16 6 16 -78 71 -150 99 -64 25 -79 28 -90 17z"/>
<path d="M3293 5613 c-23 -9 -9 -76 20 -95 34 -22 50 39 21 80 -16 23 -20 24
-41 15z"/>
<path d="M3527 5558 c-70 -38 -157 -129 -157 -164 0 -48 29 -40 85 23 33 36
77 72 115 92 49 26 61 37 58 54 -5 33 -36 31 -101 -5z"/>
<path d="M5750 5285 c-10 -12 -9 -20 4 -40 9 -14 20 -25 25 -25 4 0 36 -38 71
-85 54 -73 65 -83 81 -74 23 12 24 21 3 62 -31 61 -136 177 -160 177 -6 0 -17
-7 -24 -15z"/>
<path d="M4361 4946 c-7 -9 -11 -38 -9 -73 2 -47 6 -58 22 -61 26 -5 36 15 36
74 0 64 -23 92 -49 60z"/>
<path d="M5543 4853 c-30 -12 -12 -42 40 -66 62 -29 137 -102 178 -174 40 -69
55 -81 76 -60 15 15 14 21 -12 73 -61 120 -223 251 -282 227z"/>
<path d="M4550 4825 c-137 -71 -206 -224 -217 -475 -4 -112 -2 -138 10 -155
13 -16 20 -18 33 -9 15 9 17 25 15 115 -5 252 68 419 215 486 38 17 54 30 54
44 0 27 -53 25 -110 -6z"/>
</g>
</svg>
