<?xml version="1.0" standalone="no"?>
<!DOCTYPE svg PUBLIC "-//W3C//DTD SVG 20010904//EN"
 "http://www.w3.org/TR/2001/REC-SVG-20010904/DTD/svg10.dtd">
<svg version="1.0" xmlns="http://www.w3.org/2000/svg"
 width="1024.000000pt" height="1024.000000pt" viewBox="0 0 1024.000000 1024.000000"
 preserveAspectRatio="xMidYMid meet">
<metadata>
Created by potrace 1.16, written by Peter Selinger 2001-2019
</metadata>
<g transform="translate(0.000000,1024.000000) scale(0.100000,-0.100000)"
fill="#000000" stroke="none">
<path d="M5025 6633 c-335 -17 -670 -117 -888 -265 -222 -150 -349 -399 -318
-623 16 -110 43 -176 107 -261 l37 -49 -11 -85 c-6 -47 -27 -188 -46 -315 -56
-366 -68 -501 -64 -675 6 -215 36 -292 146 -377 96 -73 160 -85 833 -152 698
-70 856 -83 1068 -84 185 -2 186 -2 248 27 96 44 171 138 202 253 19 70 39
244 71 628 17 204 33 375 35 382 2 7 28 24 57 39 78 39 188 154 232 241 107
214 84 481 -61 700 -55 83 -169 200 -260 265 -147 106 -372 203 -574 247 -52
11 -129 29 -173 41 -126 32 -244 50 -403 60 -81 5 -155 9 -163 8 -8 -1 -42 -3
-75 -5z m468 -147 c109 -21 240 -58 337 -97 260 -104 479 -319 546 -538 69
-225 -32 -472 -238 -581 l-65 -34 -7 -101 c-21 -317 -64 -749 -91 -920 -28
-178 -68 -256 -155 -305 -63 -34 -165 -37 -440 -11 -485 47 -941 92 -1058 106
-196 24 -282 67 -329 164 -26 51 -28 68 -31 189 -3 81 2 189 13 280 15 139 95
685 114 789 9 47 9 49 -28 88 -87 92 -121 177 -121 298 1 217 141 401 405 535
127 64 361 130 537 151 118 15 509 6 611 -13z m977 -418 c223 -225 274 -520
128 -738 -47 -71 -132 -138 -208 -166 -28 -10 -55 -23 -59 -29 -4 -5 -13 -91
-20 -190 -14 -215 -57 -692 -71 -790 -26 -182 -102 -277 -233 -292 l-52 -6 26
29 c91 99 125 272 179 909 11 132 23 268 26 302 l5 61 59 36 c153 95 269 311
270 501 0 136 -48 285 -136 415 l-55 82 40 -31 c22 -18 67 -60 101 -93z"/>
<path d="M4550 6169 c-57 -11 -140 -52 -170 -84 -20 -21 -22 -30 -14 -53 14
-40 50 -40 121 0 49 28 68 33 123 33 53 0 74 -6 117 -30 51 -29 52 -29 73 -10
81 73 -93 174 -250 144z"/>
<path d="M5639 6100 c-26 -4 -56 -13 -68 -19 -54 -29 -26 -109 34 -96 125 27
180 11 267 -77 61 -62 84 -70 113 -38 27 30 11 67 -53 130 -83 80 -192 117
-293 100z"/>
<path d="M4495 5939 c-37 -21 -55 -53 -55 -97 0 -55 29 -98 74 -110 47 -13 80
-5 113 30 23 24 28 38 28 78 0 40 -5 55 -26 76 -30 30 -101 42 -134 23z"/>
<path d="M4992 5928 c-28 -28 -5 -128 41 -176 33 -36 71 -52 121 -52 80 0 131
31 168 103 27 54 21 99 -15 111 -36 13 -59 -1 -69 -42 -11 -42 -54 -75 -88
-67 -37 10 -49 23 -62 69 -6 22 -16 47 -21 54 -12 15 -59 16 -75 0z"/>
<path d="M5654 5861 c-90 -39 -83 -184 10 -210 49 -13 82 -3 116 36 62 70 24
166 -71 178 -19 3 -44 1 -55 -4z"/>
</g>
</svg>
