<?xml version="1.0" standalone="no"?>
<!DOCTYPE svg PUBLIC "-//W3C//DTD SVG 20010904//EN"
 "http://www.w3.org/TR/2001/REC-SVG-20010904/DTD/svg10.dtd">
<svg version="1.0" xmlns="http://www.w3.org/2000/svg"
 width="1024.000000pt" height="1024.000000pt" viewBox="0 0 1024.000000 1024.000000"
 preserveAspectRatio="xMidYMid meet">
<metadata>
Created by potrace 1.16, written by Peter Selinger 2001-2019
</metadata>
<g transform="translate(0.000000,1024.000000) scale(0.100000,-0.100000)"
fill="#000000" stroke="none">
<path d="M4946 7249 c-271 -35 -505 -149 -704 -343 -178 -173 -281 -365 -333
-619 -26 -127 -27 -169 -39 -1152 -9 -716 -9 -806 5 -853 20 -66 66 -119 130
-148 49 -23 55 -24 392 -24 l343 0 2 -563 3 -562 33 -67 c116 -237 430 -289
616 -102 54 54 80 100 101 181 12 47 15 149 15 585 l0 527 328 -2 c319 -2 328
-1 368 20 56 30 98 81 119 144 17 49 17 105 6 943 -6 490 -16 934 -22 986 -12
104 -40 251 -65 335 -25 86 -35 94 -144 105 -76 7 -109 16 -167 45 -143 70
-210 170 -222 327 -9 110 -18 131 -69 151 -191 76 -486 113 -696 86z m365
-165 c52 -9 97 -19 101 -23 4 -4 -5 -38 -22 -77 -133 -318 35 -643 369 -711
95 -20 186 -6 288 42 40 18 75 30 77 26 3 -4 12 -59 20 -122 18 -141 44 -1848
28 -1889 -5 -14 -20 -34 -32 -45 -22 -20 -34 -20 -1039 -17 -1117 4 -1051 0
-1070 66 -8 31 -1 922 13 1631 5 242 15 309 70 456 178 476 676 751 1197 663z
m254 -193 c10 -60 67 -170 116 -225 70 -79 189 -146 302 -170 39 -9 34 -19
-22 -46 -43 -19 -61 -22 -133 -18 -98 5 -160 32 -226 99 -65 66 -95 138 -96
229 -1 73 24 170 44 170 5 0 11 -18 15 -39z m-218 -3291 c1 -308 -2 -525 -8
-557 -25 -129 -151 -207 -277 -172 -60 17 -132 87 -150 145 -9 30 -12 182 -12
568 l0 526 223 -2 222 -3 2 -505z"/>
<path d="M5258 5083 c-9 -2 -33 -26 -52 -53 -39 -54 -86 -76 -141 -66 -25 5
-47 22 -81 61 -41 48 -51 55 -83 55 -55 0 -76 -20 -76 -72 0 -50 30 -98 90
-144 50 -38 101 -53 180 -53 106 -1 185 43 248 139 17 25 23 86 9 106 -17 26
-55 37 -94 27z"/>
<path d="M4353 5065 c-45 -19 -73 -69 -73 -128 0 -40 5 -53 33 -83 82 -89 223
-45 234 73 11 114 -88 184 -194 138z"/>
<path d="M5710 5063 c-19 -10 -45 -33 -57 -52 -57 -85 7 -204 110 -204 85 0
143 60 141 145 -3 94 -109 155 -194 111z"/>
</g>
</svg>
