<?xml version="1.0" standalone="no"?>
<!DOCTYPE svg PUBLIC "-//W3C//DTD SVG 20010904//EN"
 "http://www.w3.org/TR/2001/REC-SVG-20010904/DTD/svg10.dtd">
<svg version="1.0" xmlns="http://www.w3.org/2000/svg"
 width="2048.000000pt" height="2048.000000pt" viewBox="0 0 2048.000000 2048.000000"
 preserveAspectRatio="xMidYMid meet">
<metadata>
Created by potrace 1.16, written by Peter Selinger 2001-2019
</metadata>
<g transform="translate(0.000000,2048.000000) scale(0.100000,-0.100000)"
fill="#000000" stroke="none">
<path d="M1277 18399 c-45 -12 -57 -28 -57 -74 0 -69 69 -184 259 -435 441
-584 939 -1099 1550 -1607 l26 -21 -22 -29 c-230 -297 -414 -652 -495 -953
-25 -95 -31 -140 -35 -261 -5 -126 -3 -157 16 -229 68 -270 238 -457 729 -804
275 -194 495 -325 657 -390 154 -62 224 -77 397 -83 134 -5 175 -2 283 17 70
12 128 20 130 18 2 -2 -3 -48 -12 -103 -22 -146 -13 -422 17 -525 30 -104 64
-163 131 -225 72 -66 143 -107 239 -137 66 -20 95 -23 230 -22 170 0 254 15
490 88 63 20 118 36 121 36 4 0 9 -28 13 -62 46 -419 225 -773 494 -976 144
-107 308 -180 512 -226 221 -49 488 -59 688 -25 40 7 74 10 76 8 2 -2 0 -35
-5 -74 -12 -102 -11 -366 2 -470 17 -140 71 -338 125 -460 73 -163 149 -273
278 -401 239 -239 556 -394 941 -461 183 -31 499 -21 714 23 31 6 34 5 27 -12
-17 -44 -38 -166 -44 -259 -20 -287 42 -544 179 -746 60 -89 215 -246 328
-333 205 -157 541 -336 886 -473 320 -127 463 -158 691 -150 l141 5 -64 -151
c-103 -241 -117 -288 -117 -392 -1 -81 2 -97 31 -158 53 -111 131 -215 258
-342 147 -148 196 -177 308 -183 107 -6 173 6 584 108 196 49 358 88 360 87 1
-2 -9 -43 -22 -92 -177 -640 -105 -936 290 -1197 151 -99 522 -280 785 -383
464 -181 711 -212 974 -124 204 68 427 218 632 425 l92 93 98 -83 c126 -105
509 -411 684 -546 74 -57 167 -129 206 -159 40 -31 159 -123 265 -205 691
-532 931 -748 998 -897 26 -57 27 -134 2 -175 -75 -123 -283 -140 -405 -33
-71 63 -88 116 -95 304 -6 137 -10 166 -29 202 -56 106 -228 186 -403 187
-178 1 -273 -109 -315 -362 -44 -268 21 -578 166 -792 200 -295 577 -490 947
-490 147 0 220 12 353 56 326 109 557 331 655 631 106 322 50 708 -144 998
-154 229 -315 377 -906 830 -473 362 -1494 1155 -1534 1191 -11 10 -4 23 40
75 304 359 450 667 450 942 -1 233 -88 421 -428 926 -300 445 -468 628 -673
731 -139 70 -227 92 -385 97 -118 4 -154 2 -225 -15 -112 -27 -215 -74 -340
-157 -56 -37 -103 -65 -105 -63 -2 2 9 82 24 178 41 252 54 382 50 511 -4 101
-7 121 -33 173 -35 72 -149 209 -260 313 -181 169 -324 215 -491 158 -65 -22
-228 -101 -329 -159 -44 -25 -83 -46 -87 -46 -4 0 -10 26 -14 58 -51 491 -166
998 -305 1342 -122 305 -333 577 -573 739 -209 142 -487 190 -728 128 -187
-49 -338 -124 -587 -291 -62 -42 -114 -76 -116 -76 -2 0 -6 46 -10 103 -38
570 -285 1032 -732 1368 -220 165 -428 257 -694 306 -146 27 -457 24 -617 -5
-66 -12 -123 -22 -125 -22 -2 0 -4 71 -4 158 -2 242 -38 413 -129 610 -118
252 -366 496 -626 616 -220 101 -511 166 -746 166 -57 0 -64 2 -59 17 22 56
49 282 50 408 1 122 -2 149 -22 207 -112 325 -441 453 -953 372 l-36 -6 0 128
c-1 201 -40 338 -145 513 -171 282 -580 665 -1028 961 -212 140 -399 225 -572
261 -84 17 -125 20 -223 16 -157 -7 -248 -32 -410 -112 -206 -103 -354 -216
-623 -479 l-163 -159 -23 19 c-629 506 -1286 967 -1815 1273 -260 150 -451
222 -534 200z m1060 -910 c506 -354 1083 -789 1083 -818 0 -3 -36 -42 -79 -85
-72 -72 -82 -78 -98 -66 -76 59 -354 306 -556 495 -212 198 -630 650 -585 632
10 -3 115 -75 235 -158z m2743 -188 c161 -55 387 -190 641 -382 332 -250 595
-526 693 -724 48 -95 66 -173 66 -277 0 -100 -9 -152 -52 -294 l-31 -102 -71
-27 c-117 -46 -285 -127 -401 -195 -430 -252 -717 -622 -920 -1186 l-47 -129
-157 -57 c-204 -73 -298 -91 -462 -86 -70 1 -130 6 -134 9 -3 4 7 28 23 55 37
64 86 185 103 254 14 60 18 220 7 261 l-8 26 108 6 c120 6 238 36 358 91 155
72 314 195 314 244 0 63 -67 81 -122 33 -104 -91 -289 -184 -428 -215 -93 -21
-237 -22 -314 -1 -131 35 -305 123 -544 276 -414 265 -593 466 -609 684 -11
144 28 256 135 392 90 117 291 343 303 343 5 0 9 -7 9 -15 0 -30 39 -91 83
-132 55 -51 121 -68 198 -52 67 14 119 62 160 145 27 54 33 79 37 158 4 86 3
95 -17 115 -24 24 -58 27 -87 6 -17 -11 -22 -29 -27 -94 -10 -128 -51 -201
-112 -201 -62 0 -107 63 -118 167 l-5 42 282 284 c314 316 450 430 626 521
146 76 188 86 335 83 92 -3 135 -8 185 -26z m2206 -1792 c96 -30 94 -40 -11
-54 -93 -12 -279 -57 -405 -97 -462 -149 -783 -356 -1069 -693 -186 -218 -350
-536 -444 -860 -78 -268 -117 -531 -117 -789 l0 -159 -41 7 c-95 15 -192 83
-211 149 -17 60 -14 307 6 457 53 395 152 704 326 1015 280 501 728 818 1395
988 122 31 185 43 320 61 56 8 188 -6 251 -25z m-4305 -76 c41 -128 124 -247
263 -380 l105 -100 -16 -52 c-11 -39 -14 -87 -11 -188 3 -128 4 -136 27 -154
30 -25 63 -24 87 2 17 19 19 38 19 159 0 76 3 141 7 145 3 4 46 -20 95 -53
193 -130 363 -226 518 -292 104 -45 111 -49 124 -86 7 -22 13 -78 13 -129 0
-111 -33 -220 -101 -334 -39 -63 -51 -76 -70 -73 -64 7 -389 197 -606 354
-391 284 -527 423 -586 595 -34 97 -32 234 5 358 30 99 97 265 108 265 3 0 12
-17 19 -37z m4549 -112 c15 -29 11 -123 -8 -231 l-18 -94 -114 -13 c-144 -16
-243 -36 -390 -78 -713 -206 -1166 -680 -1304 -1365 -35 -175 -50 -342 -43
-492 l6 -127 -37 -10 c-20 -5 -75 -19 -122 -31 -47 -12 -92 -23 -102 -26 -56
-17 -20 496 57 791 181 695 546 1170 1110 1445 287 139 663 244 897 249 47 1
59 -2 68 -18z m-70 -482 c0 -6 -7 -35 -15 -63 l-16 -53 -82 -22 c-117 -32
-296 -104 -406 -162 -360 -192 -623 -458 -800 -808 -101 -200 -155 -375 -189
-613 l-17 -121 -65 -19 c-36 -10 -68 -18 -72 -18 -5 0 -8 72 -8 161 0 800 419
1378 1184 1634 189 63 486 114 486 84z m540 -403 c181 -10 409 -87 566 -191
210 -140 357 -358 416 -619 25 -108 28 -361 6 -461 l-13 -59 -121 -61 c-225
-113 -437 -270 -585 -434 l-66 -73 -73 37 c-42 21 -95 59 -125 88 -93 94 -126
196 -150 479 -25 291 -53 361 -223 558 -153 178 -173 295 -66 390 74 65 207
100 379 100 131 0 238 -21 332 -65 165 -77 262 -231 209 -333 -32 -61 -116
-112 -185 -112 -45 0 -71 -26 -71 -69 0 -51 20 -66 84 -64 125 4 256 93 296
201 32 84 25 186 -19 267 -39 73 -61 98 -131 154 -71 56 -174 107 -269 133
-111 31 -381 31 -493 0 -101 -27 -170 -64 -230 -120 -79 -73 -93 -109 -93
-228 0 -95 2 -104 37 -175 22 -44 71 -114 118 -169 143 -167 170 -238 189
-498 24 -312 67 -431 205 -559 34 -32 90 -73 124 -91 34 -18 62 -35 62 -37 0
-2 -28 -48 -62 -102 -99 -157 -209 -397 -247 -541 -14 -50 -23 -55 -124 -76
-261 -53 -531 -38 -784 46 -337 111 -542 385 -614 823 -8 47 -13 157 -13 270
0 167 3 205 27 316 75 355 236 645 478 864 199 179 511 333 789 390 83 17 262
33 315 28 17 -1 73 -4 125 -7z m1985 -1501 c359 -54 669 -244 898 -550 71 -95
182 -306 218 -415 72 -220 91 -449 57 -678 l-11 -74 -56 -41 c-156 -114 -285
-213 -362 -281 l-87 -74 -20 20 c-18 18 -25 19 -71 9 -223 -48 -427 57 -533
274 -14 28 -44 104 -68 170 -92 260 -176 397 -328 532 -273 243 -357 354 -357
473 0 130 110 213 345 262 79 17 121 19 250 15 99 -3 177 -11 215 -21 142 -39
246 -116 261 -191 14 -77 -53 -173 -152 -216 -57 -26 -74 -44 -74 -81 0 -39
25 -68 60 -68 74 0 212 107 259 200 88 177 22 334 -186 437 -128 64 -205 78
-423 77 -168 0 -194 -3 -285 -27 -312 -84 -449 -251 -391 -477 36 -141 97
-224 289 -398 77 -70 165 -156 194 -192 67 -80 137 -216 198 -385 66 -182 107
-255 191 -344 112 -119 273 -191 427 -191 l60 0 -47 -52 c-187 -211 -373 -467
-476 -655 l-45 -82 -108 -26 c-204 -48 -292 -58 -492 -59 -160 0 -206 3 -291
22 -283 61 -498 170 -677 342 -304 291 -401 706 -296 1260 72 382 213 688 426
922 147 163 297 272 517 378 340 165 678 229 971 185z m2634 -1413 c101 -39
128 -64 151 -138 53 -173 3 -381 -156 -644 -154 -256 -378 -538 -739 -929
-285 -310 -379 -415 -448 -503 -102 -128 -168 -175 -289 -203 -221 -51 -712
-5 -998 93 -66 23 -69 33 -45 154 104 512 509 1061 1105 1502 100 74 384 271
636 442 170 115 342 204 454 234 99 26 249 23 329 -8z m358 -265 c198 -215
358 -638 467 -1237 39 -217 56 -372 56 -518 l-1 -137 -140 -95 c-471 -318
-778 -658 -1140 -1263 -24 -40 -32 -45 -102 -66 -263 -78 -483 -65 -777 46
-444 168 -789 362 -980 552 -108 108 -165 186 -221 305 -39 83 -77 212 -65
223 3 3 23 1 43 -5 21 -6 63 -18 93 -26 l55 -16 -3 -100 c-4 -114 17 -224 49
-259 26 -28 72 -27 99 1 24 26 25 56 5 105 -21 49 -36 154 -29 193 l7 32 56
-7 c94 -11 90 -6 84 -93 -6 -87 15 -221 44 -280 16 -33 22 -37 58 -37 32 0 42
5 54 27 13 23 14 35 3 85 -23 105 -33 187 -27 228 l6 40 174 -3 c232 -6 329 9
478 73 15 6 17 1 17 -38 0 -61 32 -160 75 -232 58 -97 137 -168 323 -292 189
-126 233 -169 283 -280 39 -86 71 -102 114 -58 34 33 32 69 -11 155 -50 100
-122 168 -300 285 -169 111 -264 200 -311 290 -39 75 -57 162 -49 229 11 81
48 131 321 426 430 465 624 695 812 965 220 315 323 555 323 751 0 41 4 74 9
74 5 0 26 -19 48 -43z m1482 -1819 c75 -57 201 -183 201 -202 0 -9 -24 -28
-52 -42 -120 -61 -412 -223 -543 -302 -452 -275 -780 -566 -1042 -927 -190
-262 -328 -538 -491 -975 -43 -118 -87 -239 -96 -267 -10 -29 -22 -55 -27 -59
-15 -9 -123 109 -199 216 -111 156 -107 135 -47 286 104 264 310 640 527 964
325 485 573 712 1175 1079 163 99 491 270 519 271 11 0 44 -19 75 -42z m256
-420 c-29 -284 -81 -596 -140 -830 -19 -74 -31 -87 -213 -232 l-72 -59 -62 18
c-182 51 -365 -84 -399 -295 -6 -40 -6 -73 0 -97 10 -33 8 -38 -41 -97 -80
-95 -205 -290 -259 -404 -34 -70 -57 -105 -72 -111 -23 -9 -860 -221 -871
-221 -15 0 -1 45 88 283 192 514 374 831 663 1158 118 133 163 177 297 288
179 149 420 312 666 451 143 81 393 210 408 210 10 0 12 -15 7 -62z m1074
-681 c40 -14 99 -43 130 -63 119 -78 274 -262 490 -583 224 -332 343 -543 370
-653 59 -246 -104 -562 -523 -1013 -119 -128 -194 -222 -313 -389 -162 -228
-277 -347 -437 -455 -79 -54 -195 -115 -203 -107 -3 2 1 38 7 78 20 115 15
283 -10 379 -11 45 -26 91 -31 101 -6 11 -9 21 -7 22 2 1 39 12 83 24 168 48
329 143 481 285 49 47 101 106 114 131 l25 45 -21 28 c-38 50 -56 44 -167 -64
-337 -324 -592 -383 -1067 -248 -210 60 -436 152 -573 232 -255 149 -372 322
-370 548 0 103 19 160 103 322 124 240 278 407 660 713 140 112 305 245 365
295 312 257 460 357 575 390 83 23 225 15 319 -18z m-1747 -635 c-42 -43 -80
-76 -84 -75 -14 6 14 62 49 98 35 37 91 68 105 59 4 -3 -28 -39 -70 -82z
m-372 -1285 c0 -26 68 -154 110 -206 24 -30 65 -75 91 -101 l49 -45 -12 -40
c-19 -62 -15 -278 5 -355 21 -75 40 -100 78 -100 29 0 69 33 69 56 0 7 -7 43
-16 81 -16 71 -24 239 -11 260 5 8 35 -3 100 -37 l92 -49 -5 -48 c-15 -142 7
-306 47 -354 30 -35 53 -37 90 -5 l27 24 -18 88 c-18 93 -19 241 -1 237 6 -2
82 -27 170 -57 180 -61 370 -104 502 -114 l88 -7 30 -80 c28 -77 29 -86 29
-245 -1 -132 -5 -178 -20 -230 l-19 -65 -65 -3 c-118 -6 -294 38 -557 138
-540 207 -884 426 -953 607 -38 99 -20 278 56 561 15 56 31 102 36 102 4 0 8
-6 8 -13z m2831 -820 c58 -45 190 -147 294 -227 103 -80 232 -180 287 -223 54
-43 232 -179 394 -302 162 -124 334 -256 382 -293 48 -38 168 -131 267 -207
435 -335 633 -532 733 -730 63 -126 77 -193 77 -370 -1 -149 -3 -165 -29 -240
-79 -228 -250 -383 -497 -451 -95 -27 -298 -24 -404 4 -380 103 -623 425 -602
797 10 169 22 190 95 164 l32 -11 -6 -71 c-8 -87 10 -230 37 -302 28 -76 111
-188 172 -234 120 -90 245 -131 398 -131 166 0 299 50 408 154 105 102 151
205 151 345 0 176 -73 322 -254 510 -79 81 -258 239 -401 352 -223 177 -334
264 -550 429 -132 101 -269 207 -305 235 -36 28 -128 101 -204 161 -225 176
-628 499 -671 536 l-39 35 58 77 c32 42 62 76 65 76 3 0 54 -37 112 -83z"/>
<path d="M4921 16974 c-26 -33 -56 -130 -66 -210 -7 -67 8 -170 32 -219 72
-142 252 -174 361 -64 53 53 89 127 102 214 16 102 -4 155 -59 155 -46 0 -71
-34 -71 -93 0 -99 -65 -207 -125 -207 -98 0 -133 164 -69 326 29 73 29 79 4
104 -30 30 -83 27 -109 -6z"/>
<path d="M5920 16040 c-36 -36 -25 -92 22 -116 25 -13 35 -13 59 -3 79 32 59
139 -26 139 -22 0 -43 -8 -55 -20z"/>
<path d="M4747 15849 c-71 -42 -84 -281 -23 -415 71 -154 246 -199 362 -92 83
77 131 220 122 370 -3 59 -8 73 -27 89 -13 11 -36 19 -51 19 -46 0 -57 -24
-63 -140 -6 -121 -26 -187 -69 -230 -105 -106 -212 79 -164 285 16 66 16 70
-2 95 -21 27 -57 36 -85 19z"/>
<path d="M3722 15745 c-30 -38 -47 -120 -47 -225 1 -113 25 -180 85 -234 64
-58 134 -69 224 -36 67 26 117 78 159 169 26 55 32 81 35 156 4 81 2 92 -17
109 -49 45 -111 8 -111 -67 0 -159 -125 -302 -198 -224 -11 12 -25 35 -31 50
-15 40 -13 155 4 202 21 58 19 91 -7 109 -34 24 -73 20 -96 -9z"/>
<path d="M4600 14200 c-43 -43 -13 -130 44 -130 33 0 65 29 72 65 13 67 -69
112 -116 65z"/>
<path d="M3017 14908 c-24 -19 -38 -66 -31 -104 13 -68 79 -89 122 -38 21 24
23 34 18 73 -3 24 -14 53 -23 63 -19 21 -62 24 -86 6z"/>
<path d="M3693 14425 c-23 -16 -31 -67 -15 -91 13 -19 50 -34 86 -34 45 0 78
31 74 67 -6 53 -101 90 -145 58z"/>
<path d="M7816 14018 c-10 -16 -16 -58 -18 -131 -3 -104 -2 -110 21 -128 30
-25 66 -24 91 1 17 17 20 35 22 113 0 50 0 101 -1 111 -5 54 -86 78 -115 34z"/>
<path d="M8146 13978 c-23 -36 -86 -208 -86 -234 0 -54 71 -83 109 -45 22 22
81 171 88 224 7 48 -16 77 -63 77 -24 0 -38 -7 -48 -22z"/>
<path d="M6893 13816 c-103 -34 -195 -116 -272 -245 -100 -166 -156 -368 -167
-606 -18 -363 116 -712 343 -896 354 -285 799 -193 898 186 45 173 0 314 -170
541 -127 169 -144 216 -165 468 -13 151 -22 204 -49 281 -61 173 -172 274
-310 281 -39 2 -83 -2 -108 -10z m153 -137 c63 -30 115 -106 148 -219 9 -30
23 -131 32 -224 24 -262 63 -373 183 -521 132 -161 162 -226 162 -347 0 -62
-5 -89 -24 -132 -55 -120 -152 -186 -286 -194 -297 -17 -559 234 -648 623 -26
111 -23 390 6 523 54 254 176 448 314 499 46 17 66 15 113 -8z"/>
<path d="M6749 13339 c-27 -27 -22 -76 11 -101 17 -12 58 -22 131 -30 96 -11
109 -10 133 5 19 13 26 26 26 51 0 51 -23 64 -145 81 -136 19 -131 19 -156 -6z"/>
<path d="M6812 12986 c-56 -19 -109 -39 -117 -46 -36 -30 -2 -110 46 -110 40
0 224 62 247 83 27 25 28 61 2 87 -27 27 -57 25 -178 -14z"/>
<path d="M6924 12673 c-49 -42 -94 -84 -101 -92 -30 -39 2 -101 51 -101 26 0
87 45 174 126 58 55 67 89 32 124 -34 34 -60 25 -156 -57z"/>
<path d="M7182 12513 c-22 -20 -92 -181 -92 -213 0 -50 79 -79 114 -42 20 23
86 184 86 211 0 23 -44 61 -70 61 -10 0 -27 -8 -38 -17z"/>
<path d="M9952 12420 c-31 -13 -40 -40 -51 -160 -12 -124 -3 -150 52 -150 58
0 74 29 86 154 9 94 9 113 -4 133 -9 13 -19 23 -24 23 -5 0 -15 2 -23 4 -7 3
-23 1 -36 -4z"/>
<path d="M9598 12403 c-8 -10 -18 -26 -21 -36 -7 -20 25 -194 42 -226 25 -45
105 -35 117 15 11 43 -27 215 -53 242 -26 26 -64 29 -85 5z"/>
<path d="M8761 11989 c-248 -43 -420 -359 -438 -805 -20 -487 172 -848 485
-913 74 -15 100 -14 178 10 58 18 77 30 129 82 72 74 99 138 100 239 0 79 -22
111 -76 111 -42 0 -59 -25 -59 -87 0 -71 -16 -121 -52 -162 -56 -63 -117 -81
-202 -59 -115 30 -205 112 -271 250 -56 114 -82 210 -96 349 -28 285 61 637
195 771 71 70 112 88 195 83 105 -6 199 -65 288 -182 52 -68 149 -265 183
-371 72 -222 136 -333 281 -491 96 -105 146 -175 181 -251 17 -38 22 -67 22
-138 0 -49 -2 -105 -4 -123 -6 -62 65 -97 109 -53 27 27 45 123 38 206 -11
139 -75 263 -227 434 -131 149 -182 227 -227 348 -125 339 -165 421 -273 555
-122 154 -291 226 -459 197z"/>
<path d="M8616 11568 c-39 -56 -3 -97 115 -132 48 -14 100 -26 116 -26 56 0
83 65 46 108 -21 23 -173 72 -226 72 -26 0 -40 -6 -51 -22z"/>
<path d="M8789 11226 c-2 -2 -40 -12 -84 -21 -102 -21 -125 -35 -125 -80 0
-42 29 -65 82 -65 62 0 182 29 202 50 27 27 25 78 -3 102 -21 16 -61 24 -72
14z"/>
<path d="M8811 10875 c-85 -70 -96 -86 -92 -125 3 -21 39 -50 63 -50 24 0 85
41 156 105 58 52 68 89 32 125 -35 35 -62 25 -159 -55z"/>
<path d="M12214 11218 c-22 -10 -44 -47 -44 -74 0 -25 47 -64 78 -64 65 0 97
89 46 129 -29 23 -48 25 -80 9z"/>
<path d="M11336 10751 c-51 -56 -66 -260 -27 -363 43 -113 152 -174 263 -147
42 10 64 23 109 68 67 68 98 144 106 268 5 78 5 82 -20 107 -29 29 -53 33 -83
11 -17 -11 -22 -29 -28 -96 -11 -134 -66 -229 -132 -229 -74 0 -119 106 -95
223 24 113 25 136 6 157 -23 26 -76 26 -99 1z"/>
<path d="M10981 9986 c-56 -60 -83 -267 -47 -365 38 -102 123 -163 231 -164
147 -2 250 128 262 331 6 97 -7 122 -63 122 -44 0 -60 -26 -68 -109 -8 -87
-24 -134 -58 -175 -38 -46 -90 -50 -137 -10 -56 47 -65 130 -26 253 21 67 24
85 14 103 -7 13 -17 26 -23 30 -22 15 -63 7 -85 -16z"/>
<path d="M10440 9720 c-30 -30 -27 -83 6 -109 35 -27 59 -26 89 4 48 47 20
125 -45 125 -17 0 -39 -9 -50 -20z"/>
<path d="M12827 10020 c-43 -34 -62 -109 -62 -246 0 -114 2 -123 30 -179 41
-80 94 -117 174 -123 74 -5 123 10 173 56 94 85 155 305 96 346 -55 39 -101 7
-111 -74 -12 -102 -79 -200 -137 -200 -12 0 -34 13 -50 28 -50 50 -63 142 -34
242 25 90 27 99 20 123 -5 21 -42 47 -65 47 -5 0 -20 -9 -34 -20z"/>
<path d="M12112 9387 c-40 -42 -55 -104 -56 -223 -1 -104 1 -114 29 -169 43
-83 102 -120 194 -120 74 1 109 15 160 67 69 70 111 173 111 276 0 61 -23 92
-70 92 -38 0 -56 -28 -65 -100 -20 -156 -117 -246 -189 -174 -48 49 -58 133
-26 224 11 30 19 69 20 86 0 60 -66 85 -108 41z"/>
<path d="M10863 8568 c-33 -16 -46 -62 -28 -103 32 -78 135 -44 135 45 0 45
-63 80 -107 58z"/>
<path d="M11491 8224 c-12 -15 -21 -34 -21 -44 0 -10 9 -29 21 -44 28 -35 80
-36 114 -1 30 30 31 54 4 89 -16 20 -29 26 -59 26 -30 0 -43 -6 -59 -26z"/>
<path d="M15273 7933 c-14 -21 -17 -46 -16 -117 1 -146 43 -228 137 -272 164
-77 327 40 352 252 6 44 3 55 -15 73 -26 26 -72 27 -93 4 -9 -10 -21 -42 -27
-71 -13 -63 -25 -88 -59 -124 -31 -33 -60 -35 -96 -7 -45 35 -59 76 -61 171
-2 101 -11 118 -66 118 -31 0 -42 -5 -56 -27z"/>
<path d="M15623 7152 c-38 -24 -61 -171 -43 -274 29 -167 153 -263 294 -227
61 15 137 83 171 152 24 50 55 181 55 233 0 30 -41 74 -68 74 -42 0 -62 -31
-73 -110 -6 -41 -20 -96 -31 -123 -41 -94 -117 -125 -171 -69 -47 49 -59 131
-36 245 15 72 -3 107 -54 107 -17 0 -37 -4 -44 -8z"/>
<path d="M14409 7140 c-56 -33 -89 -256 -55 -374 61 -208 332 -249 447 -68 65
102 96 295 55 341 -27 29 -81 28 -100 -1 -7 -13 -16 -54 -18 -93 -12 -181
-124 -281 -213 -192 -61 61 -69 145 -28 266 25 76 26 81 9 105 -17 28 -64 35
-97 16z"/>
<path d="M14732 5480 c-32 -30 -30 -82 4 -109 35 -28 69 -26 99 4 34 33 33 77
-1 104 -34 27 -74 27 -102 1z"/>
</g>
</svg>
