<?xml version="1.0" standalone="no"?>
<!DOCTYPE svg PUBLIC "-//W3C//DTD SVG 20010904//EN"
 "http://www.w3.org/TR/2001/REC-SVG-20010904/DTD/svg10.dtd">
<svg version="1.0" xmlns="http://www.w3.org/2000/svg"
 width="1024.000000pt" height="1024.000000pt" viewBox="0 0 1024.000000 1024.000000"
 preserveAspectRatio="xMidYMid meet">
<metadata>
Created by potrace 1.16, written by Peter Selinger 2001-2019
</metadata>
<g transform="translate(0.000000,1024.000000) scale(0.100000,-0.100000)"
fill="#000000" stroke="none">
<path d="M5778 7108 c-8 -7 -59 -112 -113 -233 -54 -121 -108 -241 -121 -267
l-23 -46 -50 18 c-152 58 -426 77 -622 44 -252 -43 -468 -152 -635 -318 -127
-128 -198 -249 -238 -407 -22 -88 -24 -90 -65 -111 -54 -26 -115 -97 -135
-155 -9 -26 -16 -78 -16 -117 0 -81 26 -147 81 -210 36 -42 27 -4 118 -491 18
-93 90 -477 162 -852 71 -376 129 -685 129 -687 0 -3 7 -12 16 -20 14 -14 100
-16 803 -16 619 0 791 3 798 13 6 6 19 62 31 122 12 61 59 306 106 545 136
696 233 1199 247 1279 11 63 19 81 55 124 24 27 50 70 59 95 19 59 19 156 -1
215 -20 60 -92 140 -144 161 -29 11 -41 23 -46 43 -42 189 -103 313 -217 438
l-45 50 180 267 c130 192 179 273 176 290 -2 19 -38 41 -216 131 -117 59 -223
107 -236 107 -12 0 -29 -6 -38 -12z m322 -271 c0 -4 -60 -95 -132 -202 -73
-107 -138 -202 -144 -211 -10 -17 -17 -14 -81 26 -39 25 -78 50 -86 55 -13 8
0 43 82 225 53 118 100 221 104 227 6 9 41 -4 132 -50 69 -34 125 -65 125 -70z
m-925 -327 c261 -26 487 -126 654 -289 104 -104 194 -259 208 -363 l6 -38
-977 0 -978 0 7 33 c52 243 259 465 535 576 97 39 215 68 315 79 110 13 117
13 230 2z m999 -843 c103 -58 102 -221 -1 -291 -95 -65 -209 -57 -370 25 -133
69 -158 69 -290 4 -156 -76 -260 -105 -378 -105 -132 0 -252 33 -425 118 -105
51 -121 56 -185 56 -67 1 -75 -1 -160 -50 -114 -66 -173 -86 -255 -87 -215 -3
-308 227 -135 334 29 18 73 19 1095 19 l1065 0 39 -23z m-1502 -378 c183 -86
288 -112 458 -112 162 -1 234 16 398 93 60 27 119 50 132 50 13 0 48 -14 79
-31 111 -63 177 -82 284 -83 70 -1 97 -4 97 -13 0 -7 -13 -81 -30 -165 -16
-84 -72 -373 -125 -643 -52 -269 -119 -609 -148 -755 l-53 -265 -697 -3 c-553
-2 -699 0 -702 10 -6 15 -108 543 -195 1008 -136 725 -150 800 -150 812 0 10
24 13 93 14 107 2 170 21 286 88 84 48 97 54 126 55 10 1 77 -26 147 -60z"/>
<path d="M4802 6344 c-15 -10 -22 -25 -22 -48 0 -41 15 -56 60 -56 45 0 60 15
60 56 0 34 -28 64 -60 64 -9 0 -26 -7 -38 -16z"/>
<path d="M5239 6347 c-26 -20 -39 -53 -39 -101 0 -90 82 -138 145 -83 44 38
47 135 5 177 -23 23 -85 27 -111 7z"/>
<path d="M4470 6130 c-30 -30 -27 -83 6 -109 35 -28 69 -26 99 4 50 49 20 125
-50 125 -22 0 -43 -8 -55 -20z"/>
<path d="M5561 6091 c-25 -25 -28 -73 -5 -95 24 -24 80 -20 98 6 32 45 13 93
-40 104 -25 5 -37 1 -53 -15z"/>
<path d="M4830 6050 c-41 -41 -13 -110 44 -110 19 0 40 8 49 18 37 41 6 112
-48 112 -14 0 -34 -9 -45 -20z"/>
<path d="M4597 5036 c-32 -30 -41 -63 -34 -123 14 -123 154 -133 185 -12 29
115 -74 207 -151 135z"/>
<path d="M5706 4869 c-30 -36 -35 -102 -11 -149 18 -35 66 -51 108 -37 67 23
84 160 24 202 -12 8 -38 15 -58 15 -29 0 -43 -7 -63 -31z"/>
<path d="M5062 4837 c-40 -42 -22 -120 28 -127 61 -9 100 20 100 75 0 69 -81
102 -128 52z"/>
<path d="M5424 4540 c-35 -14 -54 -50 -54 -103 0 -38 5 -53 25 -72 58 -59 145
-10 145 80 0 71 -59 119 -116 95z"/>
<path d="M4396 4478 c-34 -48 -7 -108 48 -108 19 0 40 8 49 18 22 25 21 75 -1
95 -27 25 -78 22 -96 -5z"/>
<path d="M4720 4462 c-42 -42 -42 -101 -1 -143 35 -35 61 -37 96 -6 39 33 46
104 14 140 -38 42 -73 45 -109 9z"/>
<path d="M5609 4080 c-34 -20 -31 -88 5 -112 21 -14 63 -8 81 12 52 57 -19
139 -86 100z"/>
<path d="M5120 4042 c-38 -38 -47 -90 -26 -147 28 -73 105 -94 154 -42 26 27
41 92 31 135 -17 82 -102 110 -159 54z"/>
<path d="M4537 3799 c-44 -26 -61 -122 -31 -180 8 -17 30 -37 50 -45 29 -12
39 -12 67 0 78 32 90 187 18 226 -25 13 -81 12 -104 -1z"/>
<path d="M5445 3665 c-51 -51 -21 -147 51 -161 24 -4 37 0 62 21 27 23 32 34
32 71 0 85 -88 127 -145 69z"/>
</g>
</svg>
