<?xml version="1.0" standalone="no"?>
<!DOCTYPE svg PUBLIC "-//W3C//DTD SVG 20010904//EN"
 "http://www.w3.org/TR/2001/REC-SVG-20010904/DTD/svg10.dtd">
<svg version="1.0" xmlns="http://www.w3.org/2000/svg"
 width="1024.000000pt" height="1024.000000pt" viewBox="0 0 1024.000000 1024.000000"
 preserveAspectRatio="xMidYMid meet">
<metadata>
Created by potrace 1.16, written by Peter Selinger 2001-2019
</metadata>
<g transform="translate(0.000000,1024.000000) scale(0.100000,-0.100000)"
fill="#000000" stroke="none">
<path d="M4835 7184 c-170 -19 -382 -62 -577 -118 -619 -178 -1294 -572 -1573
-918 -78 -97 -162 -236 -199 -330 -59 -151 -92 -361 -82 -533 7 -127 24 -203
67 -295 l30 -65 -43 -34 c-77 -62 -212 -206 -246 -263 -18 -31 -45 -89 -60
-130 -23 -64 -27 -89 -27 -193 0 -115 1 -123 33 -186 17 -37 49 -82 69 -99 49
-43 135 -82 195 -88 42 -4 48 -7 48 -27 0 -13 9 -53 21 -91 18 -57 31 -77 83
-130 34 -34 88 -75 122 -92 283 -143 872 -218 1789 -229 998 -12 1922 44 2633
157 414 67 629 168 720 339 46 85 62 166 62 315 0 118 1 128 18 121 158 -61
331 -37 420 59 56 61 75 126 70 240 -3 80 -8 101 -40 167 -68 143 -194 252
-416 356 -64 30 -119 57 -121 59 -2 2 4 22 13 45 59 148 64 444 10 677 -58
250 -191 432 -385 526 -126 61 -235 91 -479 131 -327 55 -435 97 -660 255
-236 165 -341 220 -553 289 -278 91 -612 121 -942 85z m595 -170 c144 -21 285
-58 403 -105 139 -55 206 -94 447 -261 200 -139 361 -199 665 -248 253 -41
361 -71 465 -128 65 -36 91 -58 123 -105 26 -37 28 -49 24 -98 -6 -69 -25
-107 -85 -168 -229 -234 -933 -364 -2227 -411 -352 -13 -1078 -13 -1320 0
-735 39 -1136 155 -1183 341 -23 92 17 170 162 315 186 185 427 348 757 513
406 203 822 328 1234 370 120 13 405 5 535 -15z m2275 -1191 c25 -128 31 -380
11 -466 -22 -95 -60 -163 -125 -227 -214 -209 -715 -301 -2031 -372 -327 -18
-1684 -18 -1875 0 -677 63 -947 133 -1051 273 -14 19 -35 66 -47 104 -35 114
-29 353 14 519 l11 39 46 -45 c193 -186 535 -274 1237 -319 228 -14 1048 -14
1395 0 1159 49 1794 150 2138 342 82 45 213 164 232 209 7 17 16 30 20 30 4 0
16 -39 25 -87z m305 -918 c151 -92 242 -215 243 -333 0 -74 -23 -116 -75 -137
-78 -31 -166 -12 -325 70 -174 90 -279 102 -422 48 -61 -22 -122 -59 -274
-167 -147 -104 -265 -119 -530 -65 -263 52 -398 50 -618 -11 -59 -17 -172 -43
-251 -59 -233 -46 -263 -65 -483 -303 -79 -86 -121 -105 -209 -94 -78 9 -148
52 -265 160 -177 166 -245 191 -425 155 -129 -26 -196 -19 -286 31 -160 88
-179 95 -275 95 -83 -1 -102 -5 -245 -55 -148 -51 -160 -54 -255 -54 -78 0
-123 6 -205 28 -147 40 -192 34 -363 -43 -189 -85 -284 -98 -377 -51 -54 28
-82 78 -88 160 -10 142 39 251 173 386 49 50 109 104 133 119 l42 28 80 -37
c193 -88 591 -156 1089 -186 781 -46 2232 5 2981 106 463 63 715 145 895 292
l60 48 106 -46 c59 -26 135 -64 169 -85z m-312 -505 l44 -20 -4 -182 c-3 -160
-6 -189 -25 -229 -73 -161 -238 -232 -703 -303 -354 -54 -728 -89 -1245 -116
-1578 -82 -2809 11 -3059 230 -44 39 -61 70 -71 126 -6 42 -6 42 32 54 21 7
84 34 140 62 57 27 120 52 140 55 24 3 76 -5 143 -24 91 -24 122 -28 230 -27
133 1 123 -2 380 90 92 32 157 29 228 -12 122 -70 152 -84 212 -98 82 -20 156
-20 245 -1 141 30 169 20 301 -105 168 -161 282 -215 432 -209 63 3 90 10 143
36 65 32 107 71 226 210 84 98 145 126 378 172 55 11 152 35 215 52 102 28
130 32 245 32 109 0 154 -5 285 -33 330 -70 461 -42 730 157 47 35 108 72 135
83 67 26 166 26 223 0z"/>
<path d="M5413 6740 c-25 -10 -149 -191 -158 -230 -3 -16 2 -37 15 -57 17 -28
25 -33 59 -33 23 0 47 7 58 18 36 32 143 207 143 234 0 53 -64 91 -117 68z"/>
<path d="M4343 6673 c-11 -10 -47 -61 -81 -113 -79 -122 -81 -172 -9 -199 46
-18 71 1 148 115 58 87 72 115 71 144 -2 43 -31 70 -77 70 -18 0 -42 -8 -52
-17z"/>
<path d="M5852 6433 c-8 -3 -45 -52 -83 -110 -80 -122 -89 -166 -43 -202 57
-45 87 -27 175 106 76 115 86 156 49 193 -19 19 -67 26 -98 13z"/>
<path d="M4847 6389 c-9 -6 -47 -56 -84 -112 -53 -80 -67 -110 -67 -141 -1
-58 52 -92 109 -69 20 7 152 203 161 237 16 64 -60 119 -119 85z"/>
<path d="M3749 6293 c-48 -53 -131 -185 -136 -218 -10 -61 61 -105 118 -75 27
15 159 217 159 245 0 70 -92 101 -141 48z"/>
<path d="M6198 6093 c-14 -16 -49 -63 -77 -107 -58 -90 -65 -129 -28 -164 23
-22 80 -30 103 -14 26 17 144 217 144 244 0 67 -92 94 -142 41z"/>
<path d="M5180 6067 c-36 -18 -163 -220 -163 -259 0 -55 65 -94 114 -68 21 12
152 202 163 238 11 32 -12 82 -41 93 -32 12 -43 11 -73 -4z"/>
<path d="M4228 6033 c-47 -54 -138 -208 -138 -235 0 -58 78 -100 122 -65 9 6
46 56 82 111 72 108 83 149 46 186 -26 26 -91 27 -112 3z"/>
</g>
</svg>
