<?xml version="1.0" standalone="no"?>
<!DOCTYPE svg PUBLIC "-//W3C//DTD SVG 20010904//EN"
 "http://www.w3.org/TR/2001/REC-SVG-20010904/DTD/svg10.dtd">
<svg version="1.0" xmlns="http://www.w3.org/2000/svg"
 width="1024.000000pt" height="1024.000000pt" viewBox="0 0 1024.000000 1024.000000"
 preserveAspectRatio="xMidYMid meet">
<metadata>
Created by potrace 1.16, written by Peter Selinger 2001-2019
</metadata>
<g transform="translate(0.000000,1024.000000) scale(0.100000,-0.100000)"
fill="#000000" stroke="none">
<path d="M5052 8547 c-6 -7 -27 -50 -46 -95 -76 -178 -223 -346 -451 -517
-288 -216 -400 -320 -485 -449 -148 -224 -192 -460 -130 -701 21 -82 20 -95
-9 -95 -10 0 -55 -18 -100 -41 -141 -70 -251 -194 -303 -341 -18 -51 -22 -85
-23 -178 0 -134 22 -220 79 -310 20 -30 36 -58 36 -61 0 -4 -23 -24 -51 -45
-168 -128 -218 -390 -112 -586 25 -45 99 -124 150 -159 l23 -16 -39 -42 c-123
-133 -152 -316 -75 -471 59 -118 178 -203 337 -240 l72 -17 22 -59 c12 -32 69
-189 126 -349 234 -646 794 -2131 831 -2204 62 -118 237 -131 309 -23 27 42
249 609 453 1160 35 94 94 252 130 350 71 190 277 758 367 1012 l55 155 63 35
c183 102 296 309 261 478 -18 86 -65 173 -123 227 -27 26 -49 48 -47 49 2 2
29 20 61 40 161 106 240 306 192 490 -25 95 -68 157 -170 240 l-30 24 21 29
c91 123 126 304 89 462 -43 179 -193 339 -370 393 -38 11 -73 22 -77 24 -3 2
0 25 8 51 27 86 35 146 35 253 0 261 -120 488 -381 726 -217 197 -281 259
-352 344 -112 133 -193 275 -238 413 -6 20 -20 42 -30 47 -26 14 -66 12 -78
-3z m67 -259 c73 -167 209 -325 543 -631 186 -170 282 -310 329 -482 31 -114
24 -278 -16 -385 -34 -91 -42 -152 -23 -168 8 -6 45 -16 83 -22 185 -28 345
-170 384 -341 32 -137 -7 -276 -109 -394 -61 -70 -54 -112 22 -151 70 -36 123
-88 155 -152 23 -47 28 -70 28 -132 -1 -143 -83 -255 -240 -330 -71 -34 -84
-44 -90 -69 -9 -41 8 -67 58 -92 67 -34 120 -83 147 -135 21 -42 25 -63 25
-139 0 -81 -3 -95 -29 -139 -104 -178 -362 -272 -604 -221 -95 20 -157 44
-221 88 -29 20 -62 37 -72 37 -10 0 -48 -26 -83 -58 -124 -113 -280 -172 -451
-172 -176 0 -330 57 -445 166 -82 77 -105 81 -184 29 -157 -105 -372 -121
-541 -41 -120 57 -176 132 -183 248 -7 120 43 213 155 285 89 57 83 102 -21
151 -80 38 -149 105 -184 180 -22 47 -26 72 -27 142 0 73 4 93 28 141 31 64
103 136 168 169 52 27 59 35 59 73 0 20 -13 44 -41 75 -97 111 -139 267 -108
402 41 177 190 323 375 366 115 26 120 40 69 182 -71 198 -48 397 69 606 75
133 193 248 461 447 222 164 379 327 452 466 16 29 31 53 34 53 3 0 15 -23 28
-52z m447 -4043 c40 -19 79 -35 86 -35 7 0 37 -28 67 -61 l54 -60 -115 -117
c-63 -64 -141 -148 -175 -186 -33 -38 -66 -66 -71 -62 -6 4 -55 59 -109 123
-156 185 -182 217 -183 229 0 5 24 16 52 24 73 18 214 92 268 140 25 21 47 39
48 40 2 0 37 -16 78 -35z m-1082 -20 c96 -78 289 -145 421 -145 39 0 74 -3 78
-6 3 -3 -78 -99 -181 -213 -103 -113 -203 -225 -223 -249 -20 -23 -39 -42 -44
-42 -14 0 -345 255 -345 266 0 21 234 424 246 424 3 0 25 -16 48 -35z m-245
-92 c-75 -127 -100 -165 -105 -160 -2 2 -20 50 -39 106 -24 72 -30 103 -22
106 7 2 33 6 60 10 26 3 71 14 100 24 28 10 53 15 55 10 2 -4 -20 -47 -49 -96z
m1621 38 c0 -16 -28 -20 -40 -5 -10 12 -8 14 14 14 14 0 26 -4 26 -9z m208 -3
c-3 -7 -18 -50 -34 -95 -16 -46 -33 -83 -39 -83 -5 0 -23 18 -39 40 -17 22
-33 40 -38 40 -28 0 14 47 81 92 30 21 75 24 69 6z m-168 -229 c42 -49 59 -76
55 -88 -4 -9 -47 -128 -96 -266 -49 -137 -93 -253 -97 -257 -7 -7 -272 292
-272 308 0 9 113 137 211 239 43 44 87 92 99 108 12 15 25 27 30 27 5 0 37
-32 70 -71z m-710 -119 c73 -85 139 -162 147 -171 12 -15 7 -25 -49 -91 -35
-41 -105 -129 -157 -196 -52 -67 -99 -122 -103 -122 -11 0 -81 44 -265 168
l-142 95 18 26 c37 51 403 452 411 449 4 -2 67 -73 140 -158z m-825 -253 c50
-38 94 -73 99 -78 8 -7 -91 -129 -105 -129 -3 0 -10 15 -16 33 -6 17 -29 83
-51 144 -22 62 -35 110 -28 106 6 -3 52 -38 101 -76z m1161 -137 c185 -214
188 -218 173 -238 -8 -9 -56 -68 -108 -130 -88 -106 -95 -112 -115 -99 -11 8
-91 56 -176 107 -85 51 -161 98 -168 105 -11 10 6 36 89 141 134 171 190 236
199 232 4 -2 52 -55 106 -118z m-566 -282 c0 -4 -24 -41 -53 -81 -29 -39 -82
-114 -116 -164 -35 -51 -66 -93 -70 -93 -3 0 -55 40 -115 89 l-110 89 -47 128
c-39 104 -46 131 -36 144 7 8 41 50 76 92 l63 77 204 -136 c112 -75 204 -140
204 -145z m333 -191 c102 -62 145 -93 139 -101 -42 -52 -160 -218 -207 -289
-32 -48 -63 -86 -68 -84 -23 7 -346 253 -347 263 0 11 27 50 172 257 l70 98
46 -27 c26 -15 114 -67 195 -117z m317 -56 c-6 -12 -16 -19 -21 -15 -6 4 -4
13 7 25 21 24 29 18 14 -10z m-66 -97 c9 -3 16 -12 16 -18 0 -29 -170 -461
-181 -458 -8 2 -110 67 -137 87 -3 3 240 348 266 378 17 20 15 19 36 11z
m-924 -44 l45 -39 -17 -28 c-18 -31 -38 -42 -38 -21 0 7 -11 39 -24 71 -13 31
-21 57 -17 57 3 0 26 -18 51 -40z m308 -236 c95 -69 172 -129 170 -133 -2 -4
-47 -75 -102 -158 l-98 -151 -42 26 c-40 25 -43 31 -117 228 l-76 203 36 55
c20 31 41 56 46 56 6 0 88 -57 183 -126z m342 -247 c41 -29 75 -57 75 -63 0
-23 -131 -354 -140 -354 -5 0 -55 34 -110 75 -55 41 -103 75 -107 75 -5 0 -8
4 -8 9 0 13 198 311 207 311 4 -1 42 -24 83 -53z m-222 -433 c59 -42 110 -80
115 -83 10 -10 -40 -133 -60 -148 -25 -19 -57 -16 -77 6 -20 22 -116 266 -116
294 0 27 13 20 138 -69z"/>
<path d="M4477 7548 c-9 -7 -30 -44 -47 -81 -45 -102 -38 -147 22 -147 30 0
50 28 62 86 4 17 18 46 32 65 28 38 30 52 8 73 -19 19 -54 21 -77 4z"/>
<path d="M4218 6106 c-21 -8 -49 -21 -63 -30 -53 -35 -91 -164 -55 -186 37
-23 90 3 90 44 0 10 13 31 29 47 54 54 141 28 155 -45 8 -42 27 -58 63 -54 62
7 56 107 -10 174 -60 60 -132 77 -209 50z"/>
<path d="M5592 6107 c-92 -34 -155 -164 -102 -212 31 -28 69 -11 87 39 7 22
20 47 29 57 38 42 123 22 144 -34 27 -72 45 -87 85 -69 26 12 27 16 23 67 -10
123 -140 197 -266 152z"/>
<path d="M5135 5903 c-109 -33 -212 -34 -333 -3 -135 35 -153 14 -112 -122 80
-264 452 -272 550 -12 31 85 24 167 -14 163 -6 -1 -47 -12 -91 -26z m-145
-130 c52 3 105 9 118 12 35 11 27 -13 -18 -56 -68 -65 -165 -66 -238 -3 -56
48 -56 65 1 52 23 -5 85 -7 137 -5z"/>
</g>
</svg>
