<?xml version="1.0" standalone="no"?>
<!DOCTYPE svg PUBLIC "-//W3C//DTD SVG 20010904//EN"
 "http://www.w3.org/TR/2001/REC-SVG-20010904/DTD/svg10.dtd">
<svg version="1.0" xmlns="http://www.w3.org/2000/svg"
 width="1024.000000pt" height="1024.000000pt" viewBox="0 0 1024.000000 1024.000000"
 preserveAspectRatio="xMidYMid meet">
<metadata>
Created by potrace 1.16, written by Peter Selinger 2001-2019
</metadata>
<g transform="translate(0.000000,1024.000000) scale(0.100000,-0.100000)"
fill="#000000" stroke="none">
<path d="M5776 7568 c-10 -16 -16 -61 -18 -151 -3 -119 -2 -130 17 -143 23
-17 64 -11 83 13 6 9 12 40 12 68 0 29 3 86 6 126 6 63 4 78 -10 92 -25 25
-72 22 -90 -5z"/>
<path d="M4079 7506 c-188 -66 -209 -81 -209 -144 0 -17 72 -245 161 -507 88
-262 159 -478 157 -480 -2 -1 -37 -12 -78 -24 -103 -31 -214 -85 -253 -125
-45 -44 -57 -93 -51 -196 2 -47 14 -301 24 -565 11 -264 29 -667 40 -895 11
-228 29 -624 40 -880 44 -1018 39 -963 98 -994 113 -58 545 -117 972 -132 471
-16 1133 55 1317 142 66 32 58 -83 113 1684 11 349 27 858 36 1130 20 609 19
644 -19 693 -15 20 -47 48 -70 61 -65 38 -240 93 -362 112 l-110 18 -63 67
c-74 80 -137 121 -237 154 -152 51 -330 20 -440 -76 l-36 -32 -58 31 c-67 36
-157 62 -216 62 -61 0 -154 -27 -208 -60 -27 -17 -52 -28 -57 -25 -4 2 -13 24
-19 49 -14 55 -256 837 -277 894 -15 41 -53 72 -86 72 -7 0 -56 -16 -109 -34z
m216 -508 c237 -763 295 -951 292 -955 -2 -2 -37 0 -78 3 l-75 7 -63 181 c-34
99 -132 384 -216 631 -84 248 -156 458 -160 468 -4 9 -6 17 -4 17 2 0 40 13
84 29 44 17 83 30 86 30 3 1 63 -185 134 -411z m1300 -503 c66 -31 162 -120
190 -175 9 -19 24 -43 33 -52 19 -22 80 -24 96 -3 22 29 302 -43 387 -100 l39
-25 0 -94 c0 -51 -3 -141 -7 -200 -7 -128 8 -116 -198 -151 -593 -99 -1670
-88 -2126 22 l-66 16 -7 96 c-3 53 -6 144 -6 202 l0 106 39 27 c45 31 160 73
224 82 l44 6 26 -73 c37 -105 37 -104 0 -100 -52 4 -86 -43 -67 -93 8 -22 57
-33 224 -50 291 -30 666 -41 976 -28 253 11 596 42 646 58 36 11 36 97 -1 109
-10 3 -74 -1 -142 -9 -266 -32 -432 -41 -796 -41 -204 0 -374 3 -378 6 -9 9
-105 327 -105 348 0 25 78 80 139 98 104 30 228 -9 297 -93 30 -36 42 -44 70
-44 36 0 56 21 68 72 8 34 62 76 129 100 78 28 193 20 272 -17z m-1548 -910
c559 -107 1637 -105 2178 5 50 10 93 15 96 11 3 -3 2 -116 -2 -251 -5 -135
-15 -472 -24 -750 -36 -1179 -56 -1776 -60 -1787 -4 -12 -180 -55 -296 -73
-307 -47 -722 -67 -1041 -51 -251 12 -462 33 -598 57 -114 20 -230 54 -230 68
0 26 -61 1380 -70 1561 -20 381 -50 1090 -50 1163 0 41 4 71 9 68 5 -3 44 -13
88 -21z"/>
<path d="M4403 5185 c-45 -19 -66 -65 -61 -133 4 -47 10 -60 37 -84 45 -41 92
-39 137 6 21 21 35 45 36 63 4 86 -14 126 -67 149 -41 17 -42 17 -82 -1z"/>
<path d="M5783 5184 c-17 -9 -39 -31 -47 -49 -61 -129 65 -256 160 -161 30 30
34 40 34 84 0 63 -12 97 -42 116 -37 24 -71 27 -105 10z"/>
<path d="M4955 4922 c-50 -6 -58 -19 -53 -88 6 -91 44 -149 127 -191 100 -52
206 -39 284 35 62 58 97 183 64 227 -14 19 -27 20 -204 20 -103 0 -201 -2
-218 -3z m305 -126 c0 -20 -54 -63 -89 -71 -51 -11 -141 40 -141 79 0 3 52 6
115 6 92 0 115 -3 115 -14z"/>
<path d="M6000 4150 c-13 -8 -16 -64 -20 -372 -3 -200 -3 -370 -2 -379 5 -22
47 -41 76 -33 13 3 28 15 33 27 6 13 11 167 12 370 2 303 0 352 -14 373 -16
25 -57 32 -85 14z"/>
<path d="M5820 3062 c-72 -15 -86 -21 -99 -43 -13 -24 -13 -29 2 -53 21 -31
40 -32 152 -11 96 19 125 35 125 73 0 56 -32 62 -180 34z"/>
<path d="M6166 7194 c-49 -64 -90 -124 -93 -134 -3 -9 7 -30 20 -46 21 -25 28
-27 50 -19 34 13 200 230 200 261 0 35 -21 54 -57 54 -29 0 -40 -11 -120 -116z"/>
<path d="M6526 6941 c-129 -51 -149 -69 -128 -116 16 -36 52 -40 109 -15 26
12 77 33 113 46 75 29 100 49 100 79 0 27 -29 55 -56 54 -10 0 -73 -22 -138
-48z"/>
</g>
</svg>
