<?xml version="1.0" standalone="no"?>
<!DOCTYPE svg PUBLIC "-//W3C//DTD SVG 20010904//EN"
 "http://www.w3.org/TR/2001/REC-SVG-20010904/DTD/svg10.dtd">
<svg version="1.0" xmlns="http://www.w3.org/2000/svg"
 width="1024.000000pt" height="1024.000000pt" viewBox="0 0 1024.000000 1024.000000"
 preserveAspectRatio="xMidYMid meet">
<metadata>
Created by potrace 1.16, written by Peter Selinger 2001-2019
</metadata>
<g transform="translate(0.000000,1024.000000) scale(0.100000,-0.100000)"
fill="#000000" stroke="none">
<path d="M6225 7313 c-345 -27 -745 -105 -969 -186 l-69 -26 -136 34 c-609
152 -1258 158 -1851 19 -314 -74 -604 -196 -806 -340 -344 -245 -554 -656
-554 -1081 0 -233 53 -356 198 -455 l44 -30 -74 -40 c-157 -85 -268 -191 -331
-316 -37 -75 -41 -93 -45 -172 -6 -122 13 -177 87 -251 38 -38 74 -62 110 -76
l53 -20 3 -229 c3 -291 24 -412 99 -578 147 -321 448 -529 904 -621 905 -183
2874 -185 4017 -4 387 61 666 140 890 252 275 137 462 345 549 612 40 125 56
240 56 417 l0 158 25 10 c40 15 125 100 150 151 112 221 -19 499 -332 704 -57
36 -103 68 -103 69 0 2 25 20 55 40 31 20 83 64 115 97 245 249 222 760 -51
1149 -72 103 -225 252 -339 332 -289 200 -681 326 -1170 373 -129 13 -415 17
-525 8z m505 -244 c801 -72 1321 -391 1476 -904 24 -80 27 -107 28 -235 0
-180 -17 -235 -99 -316 -394 -384 -2452 -620 -4270 -489 -473 34 -901 98
-1260 186 -328 81 -483 164 -514 276 -14 49 -14 242 0 319 40 226 145 436 292
584 76 75 71 75 273 35 157 -32 298 -82 459 -162 145 -73 185 -78 233 -30 35
36 42 112 13 149 -31 39 -304 170 -446 213 -177 54 -169 48 -100 80 555 251
1335 312 2059 159 383 -81 776 -239 1075 -433 134 -87 167 -97 221 -64 34 20
50 52 50 99 0 52 -11 67 -102 132 -118 83 -235 152 -393 228 -75 37 -133 70
-128 74 22 21 352 80 548 99 132 12 452 13 585 0z m1012 -1949 c-103 -96 -286
-175 -522 -224 -384 -81 -870 -92 -1213 -27 -26 5 -50 11 -53 13 -2 3 44 8
103 12 558 35 1275 148 1626 255 50 16 99 29 107 29 8 1 -13 -25 -48 -58z
m-4972 -89 c386 -79 888 -138 1353 -157 92 -4 167 -10 167 -14 0 -3 -39 -14
-87 -23 -241 -47 -483 -62 -745 -47 -398 23 -645 76 -848 181 -72 37 -170 112
-170 129 0 4 42 -3 93 -15 50 -13 157 -37 237 -54z m5361 8 c167 -110 253
-222 254 -331 0 -51 -3 -60 -34 -92 -48 -50 -131 -70 -253 -63 -83 5 -138 16
-337 72 -106 29 -168 -10 -196 -125 -46 -187 -134 -280 -267 -280 -80 0 -160
43 -262 139 -53 50 -96 82 -116 86 -71 16 -126 -16 -165 -95 -50 -99 -130
-152 -233 -153 -90 0 -160 36 -253 132 -82 87 -123 107 -182 90 -39 -10 -73
-45 -112 -114 -100 -176 -268 -245 -417 -172 -71 35 -114 85 -173 199 -47 90
-71 115 -115 119 -56 5 -72 -4 -164 -90 -100 -94 -151 -121 -231 -121 -96 0
-157 39 -263 167 -31 38 -53 55 -82 63 -62 17 -100 -5 -150 -84 -83 -132 -190
-196 -303 -183 -74 9 -125 40 -202 123 -60 65 -76 76 -111 81 -56 7 -93 -14
-155 -91 -91 -114 -190 -169 -304 -170 -57 -1 -80 4 -127 27 -69 34 -107 76
-153 167 -25 50 -44 74 -67 86 -46 24 -104 21 -136 -5 -147 -118 -209 -148
-293 -138 -114 14 -195 95 -214 217 -21 141 -68 169 -194 116 -72 -31 -145
-40 -191 -23 -40 14 -80 68 -80 107 0 50 57 145 125 209 58 54 194 141 220
141 6 0 25 -23 44 -51 72 -105 218 -214 374 -277 146 -59 386 -114 632 -144
163 -19 615 -16 775 6 319 43 529 115 662 224 l46 39 390 6 390 7 82 -54 c136
-91 294 -145 530 -181 152 -23 445 -30 640 -16 413 30 706 98 944 219 101 51
121 66 216 163 58 59 108 107 111 108 4 1 49 -26 100 -60z m-251 -689 c47 -11
128 -23 181 -27 l96 -6 6 -61 c7 -79 -6 -232 -28 -321 -78 -313 -314 -518
-747 -649 -651 -196 -2129 -292 -3419 -221 -917 51 -1332 140 -1562 334 -125
107 -217 254 -257 416 -24 95 -38 281 -30 420 l5 100 31 -55 c121 -214 388
-280 634 -157 l65 33 75 -77 c111 -112 220 -159 375 -159 141 0 272 52 376
148 l58 53 48 -34 c136 -97 268 -131 403 -103 100 21 188 66 260 132 l59 55
53 -43 c176 -143 403 -150 601 -18 l57 39 29 -42 c103 -149 296 -248 457 -233
135 12 278 86 376 195 l52 58 45 -34 c226 -173 525 -161 693 29 l36 41 43 -37
c51 -43 165 -102 215 -112 32 -6 48 -24 21 -24 -6 0 -162 -25 -346 -55 -208
-34 -343 -60 -358 -70 -14 -9 -31 -32 -39 -51 -32 -76 23 -154 107 -154 30 0
841 130 908 146 13 3 37 19 53 36 40 43 40 104 -2 152 l-30 34 53 30 c92 52
178 165 217 285 9 28 16 36 28 33 10 -3 55 -15 102 -26z"/>
<path d="M4061 6716 c-49 -27 -65 -94 -34 -146 53 -90 193 -50 193 55 0 81
-87 131 -159 91z"/>
<path d="M6615 6688 c-68 -39 -66 -146 4 -182 37 -20 64 -20 99 -2 93 48 61
196 -42 196 -23 0 -50 -6 -61 -12z"/>
<path d="M5544 6489 c-43 -12 -66 -41 -71 -92 -9 -80 65 -135 141 -103 45 19
71 69 62 119 -11 58 -70 92 -132 76z"/>
<path d="M4799 6361 c-50 -51 -36 -137 28 -170 84 -43 180 49 143 139 -16 39
-51 60 -100 60 -33 0 -48 -6 -71 -29z"/>
<path d="M7044 6301 c-35 -15 -64 -60 -64 -101 0 -74 75 -125 142 -97 45 19
60 39 65 91 5 37 1 47 -23 75 -31 34 -82 48 -120 32z"/>
<path d="M2784 6259 c-40 -11 -64 -38 -70 -80 -17 -107 107 -169 179 -89 71
80 -5 198 -109 169z"/>
<path d="M3784 6144 c-61 -30 -74 -116 -25 -165 79 -79 210 11 167 114 -14 36
-59 67 -93 67 -10 0 -32 -7 -49 -16z"/>
<path d="M2730 3893 c-31 -11 -70 -57 -76 -88 -9 -47 18 -103 58 -119 34 -14
369 -49 846 -87 257 -21 275 -21 308 -6 59 29 80 105 44 164 -26 43 -53 49
-310 68 -186 14 -674 56 -810 70 -25 2 -52 1 -60 -2z"/>
</g>
</svg>
