<?xml version="1.0" standalone="no"?>
<!DOCTYPE svg PUBLIC "-//W3C//DTD SVG 20010904//EN"
 "http://www.w3.org/TR/2001/REC-SVG-20010904/DTD/svg10.dtd">
<svg version="1.0" xmlns="http://www.w3.org/2000/svg"
 width="1024.000000pt" height="1024.000000pt" viewBox="0 0 1024.000000 1024.000000"
 preserveAspectRatio="xMidYMid meet">
<metadata>
Created by potrace 1.16, written by Peter Selinger 2001-2019
</metadata>
<g transform="translate(0.000000,1024.000000) scale(0.100000,-0.100000)"
fill="#000000" stroke="none">
<path d="M4915 7244 c-252 -129 -295 -154 -295 -175 0 -10 -1 -19 -2 -19 -2 0
-28 7 -58 15 -77 21 -176 19 -251 -4 -120 -38 -206 -117 -267 -247 -24 -53
-27 -70 -27 -169 0 -105 2 -114 33 -177 125 -254 495 -219 496 47 1 102 -57
167 -149 169 -55 1 -92 -24 -101 -70 -4 -20 -2 -46 4 -59 14 -29 57 -43 84
-26 27 17 33 8 22 -31 -7 -24 -20 -38 -47 -52 -36 -17 -40 -17 -82 -1 -86 32
-130 111 -123 218 10 157 140 281 295 281 51 0 74 -6 130 -35 77 -39 95 -67
137 -213 67 -230 73 -541 15 -771 -25 -99 -36 -112 -75 -92 -33 17 -176 63
-239 77 -158 35 -385 30 -559 -14 -451 -115 -770 -478 -883 -1006 -26 -123
-26 -469 1 -590 99 -451 355 -781 750 -965 164 -77 309 -113 486 -122 l114 -6
66 -54 c69 -57 248 -151 339 -177 355 -103 748 -41 1049 167 70 48 74 49 123
43 154 -21 422 63 619 191 510 335 797 1111 660 1783 -87 425 -337 728 -711
858 -237 83 -526 81 -779 -5 -82 -28 -241 -105 -279 -134 -36 -29 -46 -24 -64
34 -32 103 -38 203 -31 475 l7 263 53 48 c71 65 116 85 189 85 105 0 190 -58
239 -164 80 -173 -43 -355 -200 -295 -54 20 -84 63 -84 117 0 45 11 54 33 27
24 -28 72 -25 104 7 22 22 25 32 20 67 -7 49 -40 83 -92 93 -116 21 -204 -66
-205 -202 -1 -238 300 -350 487 -180 82 73 124 233 93 353 -29 118 -120 233
-222 281 -61 28 -161 45 -222 37 -59 -8 -157 -49 -182 -76 -28 -31 -39 -22
-53 39 -40 175 -173 422 -228 422 -4 0 -67 -30 -138 -66z m161 -209 c86 -182
107 -328 97 -693 -4 -168 -2 -263 7 -327 7 -49 13 -98 14 -109 1 -17 -7 -18
-99 -17 -55 1 -127 -3 -159 -9 -33 -5 -61 -8 -63 -6 -2 1 6 59 18 127 18 107
21 150 16 314 -7 261 -40 426 -118 594 -22 46 -37 87 -34 90 17 16 261 138
269 134 5 -3 28 -47 52 -98z m1269 -1124 c381 -100 638 -409 710 -856 19 -117
19 -362 0 -490 -96 -635 -477 -1116 -968 -1220 -114 -25 -114 -24 -66 47 82
120 157 293 198 456 52 203 69 502 42 712 -45 344 -165 663 -341 901 -67 90
-222 236 -303 284 -36 22 -66 43 -67 46 0 9 142 73 218 98 114 39 207 51 357
47 100 -3 163 -10 220 -25z m-1970 -140 c50 -10 102 -24 118 -30 l27 -11 -103
-102 c-306 -303 -480 -787 -481 -1333 0 -343 70 -643 202 -859 23 -37 42 -70
42 -73 0 -12 -143 8 -225 32 -183 53 -365 162 -506 304 -142 142 -235 293
-297 486 -48 149 -57 213 -57 420 1 207 13 281 77 465 108 305 325 544 594
651 173 68 423 89 609 50z m883 -37 c42 -9 111 -29 152 -45 351 -135 626 -570
706 -1119 23 -159 15 -461 -16 -605 -110 -513 -391 -808 -840 -881 -324 -53
-621 30 -841 234 -226 211 -339 533 -340 972 -1 487 150 934 412 1214 120 129
264 207 433 235 86 15 252 12 334 -5z"/>
<path d="M6180 5820 c0 -5 7 -10 15 -10 8 0 15 5 15 10 0 6 -7 10 -15 10 -8 0
-15 -4 -15 -10z"/>
<path d="M6280 5821 c0 -5 12 -11 28 -15 15 -3 37 -8 50 -12 13 -4 22 -2 22 4
0 6 -17 16 -37 21 -46 13 -63 14 -63 2z"/>
<path d="M6510 5695 c0 -10 7 -15 18 -13 21 4 19 22 -2 26 -10 2 -16 -3 -16
-13z"/>
<path d="M6590 5627 c0 -18 28 -42 37 -33 9 8 -9 38 -25 44 -7 2 -12 -3 -12
-11z"/>
<path d="M6677 5534 c-8 -8 3 -34 14 -34 11 0 12 27 0 34 -4 3 -11 3 -14 0z"/>
<path d="M3437 5191 c-20 -33 -21 -41 -7 -41 8 0 40 51 40 65 0 14 -18 2 -33
-24z"/>
<path d="M3342 4975 c-7 -14 -12 -32 -12 -40 0 -27 15 -15 32 25 12 30 13 40
4 40 -7 0 -18 -11 -24 -25z"/>
<path d="M3300 4799 c0 -11 5 -17 10 -14 6 3 10 13 10 21 0 8 -4 14 -10 14 -5
0 -10 -9 -10 -21z"/>
<path d="M3276 4669 c-9 -47 -7 -89 4 -89 6 0 10 17 10 38 0 20 3 47 6 60 4
12 2 22 -4 22 -5 0 -12 -14 -16 -31z"/>
<path d="M3266 4473 c-12 -12 -6 -33 9 -33 8 0 15 6 15 14 0 17 -14 28 -24 19z"/>
<path d="M3283 4248 c6 -46 20 -79 30 -67 8 8 -17 119 -27 119 -5 0 -6 -22 -3
-52z"/>
<path d="M3320 4085 c0 -30 30 -89 40 -79 7 7 4 25 -7 52 -18 42 -33 55 -33
27z"/>
<path d="M3390 3925 c0 -12 24 -55 32 -55 11 0 10 17 -2 41 -9 17 -30 27 -30
14z"/>
<path d="M3502 3778 c18 -26 38 -35 38 -16 0 18 -20 38 -38 38 -12 0 -12 -3 0
-22z"/>
<path d="M3637 3684 c-9 -10 2 -24 19 -24 8 0 14 7 14 15 0 15 -21 21 -33 9z"/>
<path d="M3740 3620 c0 -5 5 -10 10 -10 6 0 10 5 10 10 0 6 -4 10 -10 10 -5 0
-10 -4 -10 -10z"/>
<path d="M5379 5596 c16 -19 44 -21 39 -3 -3 6 -15 14 -28 15 -21 3 -22 2 -11
-12z"/>
<path d="M5506 5513 c-8 -9 44 -63 61 -63 7 0 13 3 13 8 0 12 -67 62 -74 55z"/>
<path d="M5590 5397 c0 -3 9 -16 20 -29 11 -12 28 -34 39 -48 11 -14 23 -22
27 -17 10 10 -48 91 -69 95 -9 2 -17 1 -17 -1z"/>
<path d="M5700 5204 c0 -9 5 -14 12 -12 18 6 21 28 4 28 -9 0 -16 -7 -16 -16z"/>
<path d="M5548 4790 c-25 -15 -41 -72 -28 -104 11 -30 69 -59 97 -49 93 33 79
164 -18 163 -19 0 -42 -5 -51 -10z"/>
<path d="M4615 4748 c-32 -17 -45 -39 -45 -75 0 -47 37 -83 85 -83 87 0 120
116 44 155 -33 18 -57 18 -84 3z"/>
<path d="M5450 4158 c-11 -18 -20 -39 -20 -47 0 -31 -76 -154 -117 -190 -56
-50 -100 -71 -177 -84 -54 -9 -71 -8 -134 12 -60 18 -82 31 -132 79 -39 37
-73 83 -98 132 -37 71 -40 75 -76 78 -47 4 -76 -19 -76 -61 0 -54 76 -181 150
-250 223 -211 558 -167 723 95 100 160 105 268 11 268 -28 0 -38 -6 -54 -32z"/>
</g>
</svg>
