<?xml version="1.0" standalone="no"?>
<!DOCTYPE svg PUBLIC "-//W3C//DTD SVG 20010904//EN"
 "http://www.w3.org/TR/2001/REC-SVG-20010904/DTD/svg10.dtd">
<svg version="1.0" xmlns="http://www.w3.org/2000/svg"
 width="2048.000000pt" height="2048.000000pt" viewBox="0 0 2048.000000 2048.000000"
 preserveAspectRatio="xMidYMid meet">
<metadata>
Created by potrace 1.16, written by Peter Selinger 2001-2019
</metadata>
<g transform="translate(0.000000,2048.000000) scale(0.100000,-0.100000)"
fill="#000000" stroke="none">
<path d="M14445 16993 c-112 -9 -366 -38 -680 -78 -648 -82 -1230 -139 -1885
-184 -329 -23 -362 -25 -890 -51 -217 -11 -559 -29 -760 -40 -201 -11 -664
-36 -1030 -55 -1018 -53 -1162 -62 -1780 -106 -284 -19 -1102 -85 -1445 -114
-645 -56 -962 -126 -1225 -267 -115 -62 -156 -93 -270 -204 -67 -64 -132 -117
-180 -144 -265 -152 -559 -392 -725 -590 -137 -164 -274 -411 -339 -611 -104
-320 -132 -571 -123 -1104 7 -411 29 -674 122 -1510 74 -654 118 -1125 260
-2740 254 -2895 355 -3677 562 -4310 146 -447 370 -777 689 -1014 301 -223
611 -328 1124 -381 58 -6 294 -14 525 -17 421 -5 682 3 1410 42 416 23 1206
53 1545 59 168 4 429 8 580 11 1313 24 2304 85 3775 229 83 9 267 27 410 41
143 14 436 41 650 60 674 59 869 84 1103 141 359 87 616 227 852 464 152 151
237 269 329 455 146 293 226 616 275 1110 23 230 30 417 29 805 -1 486 -37
1234 -93 1975 -84 1086 -73 964 -289 3170 -44 446 -98 1010 -121 1255 -72 790
-116 1148 -195 1581 -22 124 -90 398 -126 509 -17 52 -58 151 -91 220 -33 69
-87 199 -120 290 -103 285 -203 467 -335 611 -264 288 -565 432 -1011 484
-113 13 -410 18 -527 8z m625 -381 c265 -57 427 -138 586 -296 223 -222 363
-566 443 -1091 51 -337 96 -908 121 -1520 5 -137 12 -308 15 -380 3 -71 10
-335 15 -585 27 -1276 66 -2006 161 -2985 16 -170 38 -382 49 -470 10 -88 55
-484 99 -880 116 -1042 141 -1367 135 -1765 -7 -439 -62 -732 -180 -960 -159
-307 -377 -438 -879 -528 -248 -45 -1357 -206 -1660 -241 -143 -17 -415 -44
-605 -60 -190 -17 -370 -33 -400 -36 -30 -3 -255 -18 -500 -35 -872 -59 -1421
-105 -2260 -190 -1896 -192 -2650 -244 -3495 -245 -532 0 -624 6 -868 56 -362
73 -567 219 -707 503 -160 324 -252 808 -295 1541 -15 257 -25 547 -30 875 -3
201 -7 442 -10 535 -3 94 -6 386 -7 650 -6 1627 -66 2500 -308 4485 -136 1113
-158 1592 -90 1968 69 383 280 696 565 840 229 115 426 153 1105 212 600 52
696 60 1080 90 510 40 889 64 1750 110 201 11 599 33 885 50 286 16 657 36
825 45 1701 86 2017 111 3170 250 757 91 660 83 950 80 200 -3 262 -7 340 -23z
m-10895 -1409 c-14 -37 -44 -203 -59 -328 -51 -423 -22 -935 114 -2035 156
-1252 243 -2237 265 -2980 3 -107 8 -224 10 -260 5 -73 11 -522 26 -1765 12
-1114 28 -1464 85 -1955 32 -280 57 -430 104 -620 96 -385 220 -633 407 -811
222 -211 506 -316 986 -366 225 -23 906 -23 1337 0 750 41 1694 119 2520 207
173 19 519 52 1035 99 278 26 892 77 1095 90 85 6 295 20 465 31 789 51 1303
104 2065 211 562 79 1063 158 1215 191 223 48 404 120 555 221 89 59 234 206
295 297 92 140 187 366 225 543 7 31 17 57 22 57 11 0 10 -7 -6 -140 -63 -493
-219 -862 -475 -1119 -217 -219 -488 -342 -896 -410 -173 -28 -241 -36 -730
-81 -443 -41 -753 -71 -1405 -134 -1418 -138 -2228 -182 -3920 -211 -561 -10
-1256 -38 -2015 -81 -368 -21 -1301 -30 -1510 -15 -590 43 -886 158 -1173 456
-318 328 -491 783 -616 1615 -83 552 -184 1515 -306 2915 -28 319 -61 699 -75
845 -13 146 -38 427 -55 625 -40 464 -74 833 -105 1115 -48 435 -136 1318
-161 1610 -21 249 -29 704 -15 875 45 552 211 911 570 1230 103 92 141 115
126 78z m12388 -2730 c32 -333 103 -1063 127 -1293 28 -269 71 -728 140 -1490
85 -938 165 -2350 131 -2315 -5 6 -14 66 -21 135 -13 142 -97 904 -164 1485
-89 767 -147 1396 -186 2000 -35 550 -63 1564 -43 1552 6 -4 13 -37 16 -74z"/>
<path d="M13808 15950 c-243 -20 -378 -67 -431 -152 -35 -56 -43 -127 -56
-463 -15 -383 5 -673 70 -1000 20 -99 38 -164 55 -192 102 -175 481 -219 1234
-142 323 32 475 67 571 128 130 82 159 196 159 631 0 376 -23 591 -82 780 -78
246 -158 324 -376 366 -180 35 -905 62 -1144 44z m887 -379 c72 -6 154 -16
183 -22 47 -9 55 -15 72 -49 30 -60 68 -221 85 -365 24 -207 18 -660 -10 -705
-9 -15 -148 -43 -300 -60 -443 -49 -909 -52 -951 -7 -22 23 -56 179 -79 359
-28 220 -21 811 11 834 51 39 611 47 989 15z"/>
<path d="M11700 15834 c-25 -2 -133 -11 -240 -20 -205 -16 -431 -50 -563 -84
-153 -40 -222 -93 -254 -198 -16 -50 -18 -99 -18 -392 0 -339 13 -524 51 -775
30 -189 89 -424 118 -468 119 -177 469 -201 1196 -82 250 41 508 96 563 119
46 20 123 89 144 130 64 123 79 278 63 646 -28 652 -75 889 -202 1007 -93 85
-234 114 -573 118 -132 1 -260 1 -285 -1z m548 -379 c51 -9 65 -26 86 -110 24
-99 36 -197 51 -450 16 -252 19 -501 9 -578 -6 -41 -10 -48 -38 -56 -86 -28
-501 -105 -716 -133 -124 -16 -515 -17 -530 -2 -31 31 -89 342 -115 608 -16
173 -20 580 -6 618 6 17 22 27 57 36 137 34 440 69 691 80 155 7 437 0 511
-13z"/>
<path d="M9165 15614 c-124 -13 -363 -50 -520 -79 -215 -41 -457 -81 -540 -90
-153 -16 -217 -60 -252 -172 -16 -51 -18 -99 -17 -408 0 -512 39 -894 121
-1187 30 -111 109 -168 283 -205 121 -26 547 -26 740 0 367 50 725 127 851
183 107 48 162 133 196 299 36 179 19 731 -33 1080 -20 134 -37 203 -74 307
-73 201 -203 266 -545 273 -93 1 -188 1 -210 -1z m302 -368 c40 -3 81 -9 92
-15 74 -40 148 -685 121 -1064 -12 -172 -14 -184 -38 -191 -251 -77 -669 -146
-977 -161 -133 -7 -341 7 -358 24 -17 17 -55 184 -71 311 -28 222 -53 759 -40
869 l6 60 42 6 c22 4 176 33 341 65 422 82 648 112 775 103 19 -1 67 -4 107
-7z"/>
<path d="M5990 15360 c-206 -15 -406 -33 -445 -40 -193 -30 -305 -108 -351
-241 -53 -153 -63 -539 -24 -924 30 -293 94 -624 146 -754 30 -76 115 -120
309 -158 122 -24 480 -24 685 1 465 55 713 124 835 229 91 78 121 184 135 474
28 585 -58 1207 -182 1319 -38 35 -105 64 -207 91 -151 39 -419 40 -901 3z
m787 -349 c30 -7 54 -19 58 -28 15 -42 47 -206 61 -321 32 -265 28 -848 -7
-913 -22 -41 -324 -110 -628 -144 -218 -24 -591 -18 -619 9 -2 3 -19 65 -37
138 -66 267 -102 629 -92 911 7 185 16 251 39 273 20 21 97 30 478 59 184 13
353 27 375 29 74 7 320 -1 372 -13z"/>
<path d="M14535 13410 c-291 -25 -808 -110 -873 -144 -34 -18 -85 -72 -105
-111 -30 -61 -41 -183 -41 -480 1 -401 24 -669 85 -969 37 -180 59 -242 101
-283 43 -42 124 -77 223 -99 193 -43 957 -6 1300 62 128 26 247 63 280 88 95
73 135 293 135 747 0 510 -67 900 -177 1029 -59 69 -211 125 -403 149 -113 15
-412 21 -525 11z m445 -370 c133 -14 188 -28 205 -54 19 -28 51 -166 70 -297
31 -213 28 -814 -4 -902 -19 -52 -406 -102 -871 -113 -221 -6 -380 2 -397 20
-12 12 -63 279 -77 406 -26 224 -38 485 -32 660 4 90 11 169 17 176 5 7 22 14
37 17 322 56 511 82 652 90 126 7 311 6 400 -3z"/>
<path d="M12210 13170 c-177 -11 -702 -57 -849 -76 -391 -49 -474 -128 -501
-473 -17 -217 19 -688 86 -1113 54 -346 61 -366 166 -417 195 -96 721 -80
1318 40 158 32 390 93 430 114 35 18 74 63 98 111 41 81 47 149 46 519 -2 596
-42 951 -127 1114 -71 138 -306 202 -667 181z m284 -370 c33 -5 64 -14 69 -19
14 -14 36 -131 53 -281 17 -145 32 -824 20 -903 l-7 -45 -82 -22 c-124 -34
-402 -86 -592 -111 -185 -25 -594 -34 -614 -14 -44 44 -132 895 -117 1130 8
139 15 157 58 172 51 17 610 81 843 96 116 8 314 6 369 -3z"/>
<path d="M9510 12943 c-50 -5 -213 -28 -450 -62 -242 -35 -429 -56 -635 -71
-82 -6 -167 -15 -188 -21 -46 -12 -112 -69 -137 -119 -48 -94 -73 -507 -51
-835 19 -286 73 -660 117 -813 28 -98 107 -150 287 -189 115 -25 634 -25 847
0 314 38 603 95 713 142 51 21 124 89 149 139 54 105 72 235 71 526 0 343 -34
659 -99 918 -68 274 -132 352 -315 381 -60 10 -232 12 -309 4z m255 -437 c58
-190 91 -446 101 -776 6 -176 -5 -413 -20 -427 -8 -8 -208 -55 -315 -72 -204
-35 -380 -52 -601 -57 -214 -6 -392 4 -412 24 -25 25 -76 302 -100 537 -14
149 -15 625 -1 670 9 28 14 31 69 37 272 31 532 64 709 89 242 35 429 56 497
58 l47 1 26 -84z"/>
<path d="M6405 12725 c-307 -33 -602 -72 -719 -96 -292 -59 -344 -182 -333
-784 6 -286 22 -498 53 -685 21 -130 70 -334 88 -369 36 -69 118 -108 286
-136 186 -32 681 -12 1039 41 216 31 472 92 533 126 79 43 124 155 149 369 18
158 7 623 -21 819 -35 258 -87 465 -135 539 -54 85 -155 146 -290 176 -124 28
-396 28 -650 0z m528 -356 c40 -6 79 -15 88 -20 24 -12 67 -174 95 -364 21
-139 31 -652 14 -768 l-12 -87 -37 -10 c-121 -34 -351 -71 -601 -96 -171 -17
-594 -25 -642 -12 -24 7 -28 17 -51 115 -28 119 -51 290 -67 487 -19 243 -7
629 20 646 28 17 612 99 805 113 118 8 322 6 388 -4z"/>
<path d="M14580 10740 c-146 -10 -309 -23 -363 -29 -54 -6 -138 -11 -187 -11
-49 0 -101 -5 -117 -11 -109 -41 -158 -187 -172 -514 -18 -412 24 -947 105
-1345 20 -95 35 -123 86 -160 174 -127 664 -143 1303 -44 297 46 420 82 477
141 93 96 112 209 112 668 0 660 -55 1025 -180 1192 -32 42 -99 81 -183 106
-96 29 -517 32 -881 7z m762 -358 c73 -31 118 -371 118 -892 -1 -261 -10 -443
-23 -457 -10 -9 -258 -54 -402 -72 -332 -42 -598 -49 -772 -20 l-62 11 -16 71
c-40 178 -71 515 -81 887 -5 192 4 402 19 416 7 8 246 32 527 54 271 20 645
22 692 2z"/>
<path d="M12375 10494 c-27 -3 -147 -13 -265 -24 -118 -11 -312 -27 -430 -35
-360 -26 -432 -45 -514 -135 -96 -106 -122 -269 -113 -710 3 -157 12 -346 21
-420 33 -295 99 -636 138 -713 89 -177 618 -219 1308 -106 342 57 505 111 576
192 94 108 108 202 101 677 -9 581 -38 859 -107 1044 -42 112 -131 177 -287
212 -67 15 -329 26 -428 18z m352 -379 c35 -11 64 -119 82 -310 28 -285 37
-865 14 -977 -5 -24 -15 -30 -82 -52 -238 -78 -685 -134 -976 -122 -211 8
-225 12 -241 59 -77 223 -128 751 -105 1106 12 193 20 231 49 231 15 0 450 39
822 73 69 7 412 0 437 -8z"/>
<path d="M9605 10303 c-91 -11 -531 -55 -725 -73 -382 -34 -466 -56 -541 -137
-47 -51 -71 -101 -96 -199 -26 -101 -26 -682 0 -939 34 -332 104 -676 151
-743 50 -70 132 -108 301 -137 321 -55 953 -8 1400 105 189 48 251 71 303 115
105 91 147 305 146 760 0 362 -35 647 -109 890 -43 143 -85 225 -136 269 -41
35 -131 69 -223 86 -55 9 -401 12 -471 3z m422 -371 c36 -20 87 -183 117 -372
44 -278 46 -738 5 -937 l-10 -53 -67 -19 c-122 -37 -336 -76 -587 -108 -107
-13 -208 -17 -430 -17 -161 0 -303 5 -320 10 -29 10 -31 16 -61 135 -58 228
-94 562 -94 867 0 156 14 369 25 380 10 11 116 25 373 52 158 16 366 39 462
49 96 11 193 22 215 24 79 9 350 1 372 -11z"/>
<path d="M6680 10014 c-30 -2 -202 -13 -382 -24 -484 -30 -558 -46 -638 -137
-85 -97 -110 -218 -117 -566 -10 -505 51 -1055 135 -1227 45 -92 133 -137 345
-177 117 -22 611 -25 782 -5 304 37 560 95 680 155 107 53 164 138 190 283 34
189 29 560 -11 884 -32 259 -107 586 -152 660 -62 102 -233 147 -577 154 -110
2 -225 2 -255 0z m363 -365 c65 -5 128 -14 141 -19 25 -9 51 -84 85 -255 43
-213 56 -364 56 -675 -1 -196 -4 -304 -12 -321 -9 -21 -27 -30 -100 -52 -217
-67 -371 -87 -718 -94 -292 -5 -461 8 -490 39 -16 16 -48 170 -69 328 -28 213
-39 422 -33 652 6 230 14 300 39 324 21 21 95 31 415 54 455 32 520 34 686 19z"/>
<path d="M15130 8043 c-128 -5 -470 -33 -585 -49 -125 -17 -296 -57 -360 -84
-55 -24 -111 -74 -135 -120 -30 -59 -41 -148 -47 -395 -11 -423 34 -912 117
-1294 24 -107 28 -116 67 -153 126 -120 588 -152 1108 -77 255 36 525 105 612
155 69 40 121 117 148 221 38 142 38 806 0 1153 -25 228 -75 391 -145 479 -65
83 -233 142 -456 161 -114 9 -154 10 -324 3z m386 -378 c103 -24 112 -31 134
-101 23 -77 45 -223 61 -411 11 -141 7 -692 -7 -775 -6 -35 -10 -39 -63 -58
-124 -47 -356 -90 -587 -111 -186 -16 -549 -9 -567 11 -26 28 -77 315 -102
575 -32 332 -29 774 5 795 31 19 304 60 535 79 175 15 523 12 591 -4z"/>
<path d="M12345 7784 c-491 -44 -786 -94 -900 -151 -53 -27 -115 -84 -138
-126 -22 -42 -22 -46 -22 -477 1 -265 6 -488 13 -570 37 -394 104 -717 163
-784 64 -73 240 -123 469 -133 333 -14 876 70 1316 203 84 25 117 50 148 111
53 105 70 325 56 702 -27 701 -96 1039 -234 1145 -47 35 -118 62 -216 80 -103
20 -437 20 -655 0z m566 -354 c30 -6 59 -17 65 -25 19 -25 52 -172 70 -306 32
-249 55 -813 38 -960 l-7 -59 -91 -29 c-307 -98 -851 -168 -1096 -141 -56 6
-108 14 -115 16 -41 16 -102 378 -125 744 -11 181 -12 581 -1 619 4 16 19 29
46 38 101 35 463 80 855 107 113 7 312 5 361 -4z"/>
<path d="M9720 7524 c-19 -2 -129 -13 -244 -25 -193 -19 -504 -64 -615 -90
-186 -43 -281 -99 -319 -186 -35 -81 -45 -238 -39 -581 6 -338 29 -558 87
-843 53 -258 69 -288 175 -339 101 -49 185 -61 445 -67 521 -11 1195 76 1351
176 61 38 104 123 119 235 22 164 11 692 -21 976 -24 221 -77 448 -130 552
-76 149 -191 190 -549 193 -124 2 -241 1 -260 -1z m447 -373 c36 -9 56 -50 87
-172 33 -131 53 -283 67 -497 14 -220 9 -596 -8 -613 -24 -24 -247 -60 -598
-96 -201 -20 -674 -25 -715 -6 -21 9 -29 24 -44 84 -50 207 -69 337 -87 599
-12 188 -7 518 9 561 9 23 21 28 139 52 204 43 533 84 808 101 81 5 306 -3
342 -13z"/>
<path d="M6665 7259 c-340 -17 -649 -47 -721 -70 -35 -11 -84 -59 -107 -105
-29 -57 -39 -156 -44 -419 -4 -246 -2 -285 36 -705 42 -457 51 -521 75 -568
38 -72 129 -121 276 -149 78 -15 147 -18 385 -18 301 1 418 9 714 51 325 46
445 78 491 130 75 86 84 160 77 671 -6 467 -19 593 -93 887 -30 117 -44 148
-92 199 -77 80 -231 107 -597 105 -132 0 -312 -5 -400 -9z m730 -383 c18 -25
51 -165 70 -306 19 -130 32 -664 21 -802 l-8 -85 -36 -11 c-63 -19 -279 -51
-467 -68 -216 -21 -639 -24 -701 -6 l-41 12 -11 92 c-51 417 -65 591 -66 828
-1 135 2 261 7 281 l7 36 83 11 c45 7 147 16 227 22 80 6 165 12 190 14 25 2
195 3 378 2 313 -1 334 -2 347 -20z"/>
</g>
</svg>
