<?xml version="1.0" standalone="no"?>
<!DOCTYPE svg PUBLIC "-//W3C//DTD SVG 20010904//EN"
 "http://www.w3.org/TR/2001/REC-SVG-20010904/DTD/svg10.dtd">
<svg version="1.0" xmlns="http://www.w3.org/2000/svg"
 width="1024.000000pt" height="1024.000000pt" viewBox="0 0 1024.000000 1024.000000"
 preserveAspectRatio="xMidYMid meet">
<metadata>
Created by potrace 1.16, written by Peter Selinger 2001-2019
</metadata>
<g transform="translate(0.000000,1024.000000) scale(0.100000,-0.100000)"
fill="#000000" stroke="none">
<path d="M4873 7284 c-55 -58 -76 -110 -81 -197 -8 -126 31 -198 146 -273 90
-58 121 -93 138 -151 14 -48 14 -58 -1 -109 -12 -43 -28 -67 -66 -104 -58 -55
-66 -93 -23 -112 54 -25 142 57 185 170 39 105 11 241 -64 312 -18 16 -63 51
-102 77 -109 75 -139 154 -94 253 11 25 33 57 50 72 48 44 35 98 -24 98 -21 0
-40 -11 -64 -36z"/>
<path d="M5456 6860 c-42 -51 -47 -161 -10 -233 9 -16 44 -60 79 -97 65 -69
85 -112 85 -180 0 -40 -29 -108 -53 -129 -20 -16 -22 -62 -5 -79 18 -18 52
-15 79 7 44 34 73 108 77 193 6 110 -14 163 -94 248 -89 93 -115 166 -79 214
21 28 19 63 -4 76 -31 16 -48 12 -75 -20z"/>
<path d="M4467 6570 c-32 -25 -45 -94 -28 -150 6 -21 36 -65 66 -99 51 -57 55
-65 55 -111 0 -43 -4 -52 -30 -72 -21 -15 -30 -30 -30 -49 0 -27 22 -59 41
-59 27 0 71 35 93 73 56 96 43 184 -40 277 -56 63 -74 104 -55 123 18 18 13
65 -8 77 -27 14 -35 13 -64 -10z"/>
<path d="M4585 5844 c-833 -34 -1365 -117 -1508 -235 -21 -17 -46 -47 -56 -67
-62 -123 -72 -464 -20 -715 112 -542 448 -971 974 -1241 56 -29 125 -61 154
-72 l51 -18 0 -80 c0 -93 12 -146 39 -170 42 -38 299 -79 603 -97 369 -22 900
31 976 96 26 22 27 29 32 136 l5 113 98 42 c472 204 837 581 1010 1044 96 258
130 552 93 810 -27 191 -71 240 -272 303 -177 56 -459 96 -924 133 -186 14
-1039 26 -1255 18z m795 -104 c570 -17 1024 -63 1304 -135 96 -24 196 -69 204
-92 4 -14 -51 -44 -135 -72 -55 -18 -65 -19 -95 -7 -82 34 -459 84 -848 113
-290 21 -1182 24 -1500 5 -397 -24 -735 -64 -902 -106 l-88 -22 -77 28 c-78
28 -117 54 -107 70 12 19 104 57 199 81 269 70 773 122 1325 136 157 4 308 8
335 9 28 1 201 -3 385 -8z m354 -295 c272 -17 641 -56 654 -70 16 -16 -434
-57 -833 -76 -316 -15 -1113 -6 -1385 15 -199 16 -447 42 -510 53 l-35 6 28 8
c70 19 548 63 782 72 259 11 1086 5 1299 -8z m1211 -191 c26 -453 -177 -947
-523 -1272 -147 -138 -281 -229 -472 -321 -289 -139 -556 -195 -930 -195 -249
1 -405 18 -605 69 -599 150 -1081 582 -1259 1127 -61 186 -80 307 -80 518 -1
109 3 192 9 202 10 16 14 15 65 -8 323 -152 1545 -231 2605 -168 599 35 1046
106 1145 183 24 19 25 19 32 2 3 -9 9 -71 13 -137z m-2550 -1824 c209 -54 433
-75 705 -67 217 7 339 22 508 62 57 14 105 25 108 25 2 0 4 -29 4 -64 l0 -64
-42 -10 c-24 -6 -108 -21 -188 -33 -126 -20 -185 -23 -455 -23 -316 0 -425 8
-657 50 l-88 16 0 64 c0 74 -5 72 105 44z"/>
</g>
</svg>
