<?xml version="1.0" standalone="no"?>
<!DOCTYPE svg PUBLIC "-//W3C//DTD SVG 20010904//EN"
 "http://www.w3.org/TR/2001/REC-SVG-20010904/DTD/svg10.dtd">
<svg version="1.0" xmlns="http://www.w3.org/2000/svg"
 width="1024.000000pt" height="1024.000000pt" viewBox="0 0 1024.000000 1024.000000"
 preserveAspectRatio="xMidYMid meet">
<metadata>
Created by potrace 1.16, written by Peter Selinger 2001-2019
</metadata>
<g transform="translate(0.000000,1024.000000) scale(0.100000,-0.100000)"
fill="#000000" stroke="none">
<path d="M4895 7263 c-146 -52 -268 -179 -312 -322 -9 -31 -17 -57 -18 -58 0
-1 -32 7 -70 18 -235 65 -511 -28 -676 -228 -45 -54 -101 -159 -119 -220 l-13
-42 -101 0 c-214 0 -413 -95 -533 -253 -42 -55 -44 -56 -76 -47 -48 14 -156
11 -222 -6 -198 -51 -339 -194 -391 -397 -16 -61 -15 -193 1 -283 5 -29 3 -31
-68 -63 -93 -42 -171 -103 -241 -188 -187 -226 -232 -532 -120 -812 21 -52 24
-69 15 -81 -50 -69 -68 -163 -46 -241 28 -98 29 -93 -10 -119 -76 -51 -122
-178 -104 -290 13 -81 39 -133 99 -191 l48 -46 -17 -30 c-25 -46 -22 -178 6
-230 47 -87 130 -143 249 -165 83 -16 164 -7 444 50 693 141 1361 219 2140
251 1033 42 2087 -52 3060 -276 253 -58 427 -9 496 141 42 90 28 208 -37 295
-9 12 -4 27 22 69 29 46 34 65 38 129 4 93 -9 137 -60 202 l-40 51 43 48 c257
288 224 770 -71 1043 -33 31 -75 65 -91 75 -23 13 -30 23 -25 38 71 241 28
451 -124 605 -77 78 -179 133 -281 151 -132 22 -122 16 -136 94 -16 96 -46
171 -103 257 -111 170 -283 272 -483 287 l-81 6 -23 68 c-91 271 -343 423
-599 362 l-61 -14 -71 67 c-71 68 -161 120 -273 158 -83 29 -312 27 -395 -3
l-60 -22 -57 55 c-33 32 -86 68 -125 87 -61 28 -79 32 -173 34 -81 3 -116 -1
-155 -14z m232 -148 c32 -10 69 -31 99 -58 l48 -44 -28 -36 c-78 -102 -72
-238 14 -346 33 -41 34 -66 2 -43 -130 95 -295 85 -391 -24 -44 -50 -54 -46
-66 25 -10 59 -31 107 -71 162 l-34 46 16 54 c64 214 226 319 411 264z m645
-126 c75 -15 185 -70 241 -120 l48 -41 -61 -55 c-63 -57 -132 -148 -169 -220
-22 -44 -81 -87 -89 -64 -13 38 -74 110 -116 136 -41 25 -62 31 -125 34 l-76
3 -42 68 c-54 85 -57 123 -10 167 86 83 256 122 399 92z m681 -224 c71 -18
120 -49 175 -109 42 -45 84 -122 97 -176 5 -22 0 -28 -52 -55 -32 -16 -84 -56
-115 -88 l-57 -58 -41 30 c-60 44 -134 56 -211 37 -33 -9 -64 -16 -68 -16 -5
0 -16 18 -26 41 -21 45 -105 126 -141 135 -13 3 -24 8 -24 11 0 2 13 24 29 47
68 98 193 186 294 206 62 12 77 11 140 -5z m-1961 -26 c70 -27 117 -64 134
-105 20 -48 18 -64 -8 -64 -34 -1 -99 -33 -132 -66 -16 -16 -40 -52 -53 -80
l-23 -52 -38 14 c-107 38 -255 -11 -315 -104 -12 -20 -25 -39 -28 -44 -3 -5
-26 3 -52 17 -28 16 -66 27 -97 30 -28 2 -53 5 -55 7 -9 10 18 119 44 175 41
86 141 190 229 236 128 67 280 81 394 36z m658 -257 c65 -39 68 -46 52 -120
-13 -65 -11 -245 4 -328 l6 -31 -97 -7 c-54 -4 -101 -4 -105 1 -5 4 -20 46
-35 93 -31 99 -43 235 -26 297 28 103 118 146 201 95z m408 3 c16 -13 39 -48
51 -76 l23 -51 -25 -57 c-28 -62 -55 -179 -59 -256 l-3 -50 -80 4 c-44 2 -83
5 -86 7 -15 9 -32 177 -27 271 4 77 10 111 28 148 40 82 120 109 178 60z
m-851 -66 c52 -20 73 -48 73 -100 0 -77 20 -198 47 -282 13 -43 23 -80 21 -81
-2 -2 -32 -10 -68 -19 -36 -9 -75 -20 -87 -23 -19 -5 -27 4 -67 83 -96 193
-101 360 -12 414 36 22 53 23 93 8z m1264 -66 c17 -10 41 -40 55 -69 l25 -52
-35 -66 c-20 -37 -48 -106 -62 -154 -15 -48 -28 -89 -30 -91 -3 -3 -139 27
-208 46 -17 5 -18 12 -12 72 21 205 97 331 199 331 22 0 52 -8 68 -17z m1064
-38 c87 -23 152 -62 226 -136 112 -111 166 -260 156 -429 -7 -107 -12 -120
-47 -120 -26 0 -28 3 -38 65 -19 115 -81 202 -167 235 -32 12 -122 15 -154 5
-16 -5 -20 3 -30 53 -28 142 -143 233 -277 219 -30 -3 -54 -2 -54 2 0 11 62
67 90 82 79 40 194 50 295 24z m-3338 -68 c3 -4 -9 -24 -29 -45 -44 -45 -65
-86 -79 -152 -6 -27 -14 -50 -18 -50 -5 0 -32 4 -60 10 -67 12 -135 -2 -194
-41 -60 -39 -95 -93 -110 -168 l-13 -62 -63 -4 -64 -4 6 80 c13 200 174 381
385 434 57 15 225 16 239 2z m640 -12 c49 -15 52 -17 58 -58 10 -66 45 -166
84 -242 20 -38 37 -73 39 -76 2 -5 -216 -99 -231 -99 -14 0 -101 155 -119 213
-24 77 -20 176 9 216 19 25 77 61 99 61 6 0 33 -7 61 -15z m2053 -61 c17 -15
39 -43 50 -64 16 -31 17 -39 5 -51 -22 -22 -91 -158 -115 -226 -13 -35 -26
-63 -30 -63 -4 0 -41 15 -81 34 -41 19 -87 38 -102 42 -16 3 -31 13 -34 21
-11 28 57 209 95 254 72 84 151 104 212 53z m-2463 -64 c43 -26 59 -53 73
-124 15 -75 52 -162 103 -244 22 -35 37 -66 34 -69 -11 -10 -170 -103 -177
-103 -11 0 -93 90 -129 143 -18 26 -47 78 -64 115 -27 57 -32 78 -32 142 0 57
5 82 19 103 39 57 114 73 173 37z m2844 -66 c36 -18 68 -83 69 -137 0 -32 -9
-50 -53 -103 -30 -35 -75 -104 -101 -154 l-47 -89 -77 53 c-43 29 -86 57 -95
62 -16 9 -15 15 7 82 50 145 117 245 188 281 51 25 69 26 109 5z m-3833 -89
c2 -2 -1 -27 -7 -55 -14 -63 -14 -161 0 -219 8 -35 7 -47 -5 -60 -26 -28 -46
-100 -46 -161 l0 -57 -45 -6 c-79 -11 -143 -55 -192 -133 -12 -18 -14 -18 -38
11 -25 30 -85 147 -85 166 0 6 7 6 19 -1 52 -27 111 5 111 60 0 58 -69 91
-116 55 -29 -22 -34 -18 -34 28 0 103 53 222 128 288 69 61 194 103 272 92 19
-3 37 -6 38 -8z m618 -114 c33 -15 44 -27 59 -67 34 -88 98 -186 182 -275 l34
-36 -48 -38 c-26 -21 -64 -54 -84 -73 -28 -26 -42 -32 -58 -27 -12 4 -66 50
-119 103 -121 120 -163 192 -170 293 -5 67 -4 69 31 104 31 31 41 35 84 35 26
0 66 -9 89 -19z m2060 -17 c277 -41 592 -165 853 -337 565 -371 939 -931 1136
-1702 54 -211 110 -573 92 -592 -4 -3 -89 10 -189 30 -1324 262 -2817 283
-4303 61 -185 -28 -495 -83 -643 -115 -52 -11 -96 -18 -98 -16 -8 7 42 175 92
315 156 430 441 900 808 1332 125 147 370 389 501 494 388 311 824 500 1262
546 116 12 354 4 489 -16z m1523 -60 c53 -44 71 -169 29 -202 -52 -39 -156
-151 -187 -199 l-34 -52 -66 59 c-36 32 -77 67 -90 77 l-23 19 32 65 c45 87
102 171 142 204 72 61 147 72 197 29z m608 -103 c117 -55 197 -157 223 -285
13 -61 8 -151 -11 -205 -10 -29 -12 -30 -77 -28 -49 2 -76 8 -103 24 -20 13
-58 28 -86 34 l-50 12 14 46 c18 58 12 164 -12 211 -9 19 -34 53 -55 75 l-38
40 10 59 10 58 57 -6 c31 -4 84 -20 118 -35z m-4542 -87 c13 -3 35 -33 59 -80
38 -73 129 -178 223 -255 l42 -35 -86 -87 c-47 -48 -88 -87 -90 -87 -2 0 -32
19 -65 42 -153 103 -259 255 -260 370 -1 61 21 109 56 127 23 11 90 14 121 5z
m4255 -110 c61 -37 77 -120 40 -210 -19 -45 -27 -52 -90 -83 -38 -18 -100 -59
-138 -90 l-69 -58 -72 85 c-68 78 -72 86 -61 108 19 35 131 169 166 198 74 61
169 82 224 50z m-4994 -261 c15 -26 47 -69 71 -94 l44 -47 -44 -21 c-90 -44
-139 -114 -158 -228 l-11 -69 -60 -17 c-119 -35 -195 -154 -185 -289 5 -84
-11 -91 -42 -19 -74 173 -66 390 21 554 46 86 166 205 247 245 35 18 70 32 77
32 6 0 25 -21 40 -47z m438 37 c14 -5 34 -27 45 -49 35 -68 114 -153 204 -220
48 -35 87 -67 87 -71 0 -9 -129 -164 -140 -168 -4 -2 -43 16 -86 40 -149 83
-258 224 -258 332 0 61 25 109 68 130 37 18 47 19 80 6z m4770 -194 c54 -23
79 -62 74 -121 -7 -77 -26 -109 -68 -113 -45 -4 -152 -38 -213 -69 -27 -13
-52 -23 -57 -21 -11 4 -110 155 -110 167 0 5 28 32 63 59 127 100 228 133 311
98z m306 -97 c122 -65 236 -199 288 -338 19 -50 26 -92 30 -176 5 -123 -9
-199 -55 -295 l-26 -55 -8 57 c-5 31 -17 75 -28 96 -19 37 -85 105 -110 113
-9 3 -8 15 5 44 23 56 16 194 -13 251 -27 50 -87 105 -142 130 -30 13 -40 22
-35 34 3 8 8 50 11 93 3 42 10 77 16 77 5 0 35 -14 67 -31z m-5305 -85 c38
-65 137 -158 229 -215 44 -26 83 -50 89 -52 11 -3 -111 -177 -125 -177 -6 0
-47 19 -91 42 -116 60 -219 162 -242 241 -32 109 12 203 97 206 9 1 28 -19 43
-45z m5163 -220 c80 -33 121 -103 102 -174 -17 -58 -29 -66 -105 -74 -38 -4
-101 -18 -140 -32 -38 -14 -77 -28 -85 -30 -12 -4 -29 25 -67 112 -29 64 -50
121 -47 126 3 4 24 18 47 30 108 55 224 72 295 42z m-5385 -117 c55 -86 196
-197 302 -237 15 -6 25 -13 23 -18 -19 -42 -84 -145 -94 -149 -20 -7 -105 22
-193 65 -165 82 -258 231 -206 332 21 40 53 60 97 60 34 0 40 -4 71 -53z
m5523 -306 c89 -40 109 -118 53 -205 -28 -45 -32 -48 -63 -43 -31 5 -104 -2
-203 -18 l-41 -7 -32 98 c-17 55 -34 104 -36 111 -6 15 58 49 129 68 73 19
145 18 193 -4z m-5731 -58 c86 -76 168 -125 263 -159 42 -15 81 -31 86 -35 5
-5 -7 -41 -28 -83 -44 -89 -44 -89 -181 -51 -186 51 -306 137 -335 239 -11 39
-10 49 6 83 11 21 30 43 44 50 48 24 75 16 145 -44z m-144 -381 c87 -52 157
-80 260 -106 48 -11 87 -25 88 -31 1 -5 -13 -52 -31 -102 l-33 -93 -71 0
c-171 0 -324 76 -369 184 -25 60 0 142 53 170 36 20 31 21 103 -22z m5989 0
c68 -34 100 -78 100 -139 0 -46 -25 -103 -46 -103 -6 0 -31 7 -55 16 -26 10
-94 19 -164 23 l-120 6 -11 65 c-6 36 -14 82 -18 102 -8 36 -7 37 31 47 106
28 205 22 283 -17z m-7 -395 c157 -78 139 -235 -31 -261 -36 -5 -176 15 -189
28 -2 2 -8 56 -13 119 -5 64 -10 120 -11 124 -4 22 8 25 94 21 76 -2 102 -8
150 -31z m-5913 -83 c30 -8 79 -14 108 -14 60 0 59 3 36 -99 l-16 -71 -45 0
c-95 0 -183 51 -199 114 -10 39 20 101 44 91 9 -4 42 -14 72 -21z"/>
<path d="M4952 6884 c-16 -11 -22 -25 -22 -53 0 -46 27 -74 71 -73 42 1 69 28
69 69 0 62 -65 94 -118 57z"/>
<path d="M6303 6610 c-67 -27 -52 -132 22 -146 74 -14 118 88 59 135 -29 23
-46 25 -81 11z"/>
<path d="M2740 5780 c-26 -26 -26 -81 -2 -103 28 -25 87 -22 106 5 50 71 -43
159 -104 98z"/>
<path d="M4560 5462 c-38 -38 -38 -66 -1 -103 32 -32 47 -35 84 -18 70 32 56
130 -20 145 -27 5 -37 1 -63 -24z"/>
<path d="M3763 4770 c-47 -19 -57 -87 -18 -125 30 -31 66 -32 101 -2 20 17 27
33 27 57 0 24 -7 40 -27 57 -29 24 -47 27 -83 13z"/>
<path d="M6466 4599 c-55 -43 -23 -129 49 -129 46 0 75 29 75 75 0 66 -69 97
-124 54z"/>
<path d="M4156 4380 c-74 -23 -140 -99 -152 -175 -4 -28 0 -63 10 -98 46 -158
239 -208 358 -93 161 155 -1 430 -216 366z"/>
<path d="M6102 4377 c-159 -58 -196 -262 -68 -375 102 -90 264 -56 329 68 25
47 28 64 25 117 -5 83 -42 137 -117 176 -59 29 -113 34 -169 14z"/>
<path d="M4908 4256 c-32 -24 -40 -64 -28 -140 27 -172 156 -286 325 -286 182
0 318 132 332 324 5 70 5 73 -22 94 -57 45 -125 14 -125 -56 0 -94 -48 -168
-127 -198 -39 -15 -52 -16 -91 -5 -93 25 -141 89 -142 188 0 44 -4 55 -26 72
-30 24 -71 27 -96 7z"/>
<path d="M7293 4080 c-73 -30 -48 -144 32 -144 46 0 75 31 75 79 0 51 -57 86
-107 65z"/>
<path d="M7740 5510 c-11 -11 -20 -31 -20 -45 0 -32 42 -75 73 -75 54 0 89 87
49 123 -25 23 -78 21 -102 -3z"/>
</g>
</svg>
