<?xml version="1.0" standalone="no"?>
<!DOCTYPE svg PUBLIC "-//W3C//DTD SVG 20010904//EN"
 "http://www.w3.org/TR/2001/REC-SVG-20010904/DTD/svg10.dtd">
<svg version="1.0" xmlns="http://www.w3.org/2000/svg"
 width="1024.000000pt" height="1024.000000pt" viewBox="0 0 1024.000000 1024.000000"
 preserveAspectRatio="xMidYMid meet">
<metadata>
Created by potrace 1.16, written by Peter Selinger 2001-2019
</metadata>
<g transform="translate(0.000000,1024.000000) scale(0.100000,-0.100000)"
fill="#000000" stroke="none">
<path d="M4752 7184 c-169 -45 -260 -175 -250 -358 6 -102 44 -198 130 -322
154 -223 207 -307 248 -390 53 -109 65 -124 102 -124 21 0 45 16 93 60 72 67
192 149 336 228 244 136 349 263 349 425 0 95 -15 135 -74 193 -105 106 -261
111 -435 14 -62 -34 -71 -36 -71 -15 0 31 -58 143 -96 185 -51 56 -101 87
-171 105 -69 18 -92 18 -161 -1z m161 -127 c36 -16 97 -79 122 -128 9 -17 28
-75 41 -128 36 -141 59 -151 156 -66 86 76 156 109 238 113 52 2 72 -1 98 -17
107 -68 91 -207 -38 -324 -32 -29 -114 -83 -182 -121 -159 -89 -246 -145 -299
-193 -35 -31 -43 -35 -51 -23 -5 8 -26 47 -48 85 -21 39 -89 142 -150 230
-145 207 -174 267 -174 360 0 59 4 78 27 117 52 88 171 132 260 95z"/>
<path d="M5221 5941 c-12 -12 -21 -32 -21 -44 0 -43 28 -55 144 -66 296 -28
502 -88 660 -191 91 -59 121 -104 120 -177 0 -43 -6 -61 -35 -102 -66 -94
-188 -176 -360 -240 -583 -220 -1457 -192 -1824 58 -56 38 -76 58 -99 103 -36
71 -31 107 23 175 74 95 248 193 461 261 108 34 304 77 400 88 75 8 100 25
100 69 0 62 -29 67 -217 35 -432 -74 -788 -249 -878 -433 -51 -106 -87 -531
-66 -785 55 -674 302 -1118 746 -1346 298 -154 716 -179 1059 -66 306 102 528
284 685 563 21 38 39 57 51 57 33 0 183 51 267 91 293 139 492 464 496 809 1
68 -4 137 -12 170 -68 273 -293 420 -561 366 -45 -10 -84 -16 -85 -14 -2 2
-10 56 -18 121 -13 101 -20 125 -48 168 -102 159 -388 284 -754 328 -198 24
-212 24 -234 2z m948 -783 c6 -46 17 -167 23 -270 33 -531 -90 -953 -358
-1223 -159 -160 -342 -256 -580 -304 -349 -69 -691 -8 -949 169 -298 207 -490
586 -545 1075 -12 111 -13 522 -1 529 5 3 15 -2 22 -11 20 -24 139 -99 196
-124 214 -94 442 -137 769 -146 519 -14 987 88 1277 281 30 20 70 52 88 71 19
19 37 35 40 35 3 0 11 -37 18 -82z m427 42 c159 -70 241 -248 214 -466 -38
-303 -212 -544 -472 -652 -40 -17 -85 -33 -100 -37 l-26 -7 23 74 23 73 59 20
c80 27 121 55 187 125 110 119 172 296 163 460 -8 151 -61 246 -163 296 -49
24 -63 26 -129 21 -80 -6 -85 -3 -85 53 0 29 12 37 90 59 51 15 162 5 216 -19z
m-130 -235 c13 -8 35 -36 50 -61 90 -154 -9 -467 -176 -558 l-53 -29 6 39 c19
119 29 326 24 466 l-6 158 27 6 c15 3 32 7 37 8 15 4 65 -11 91 -29z"/>
<path d="M5279 4345 c-147 -76 -206 -89 -412 -90 -206 0 -207 -1 -207 -91 0
-189 109 -369 258 -424 79 -30 214 -25 286 10 168 82 271 280 252 486 -8 88
-22 131 -46 144 -29 15 -39 13 -131 -35z m49 -197 c-3 -43 -13 -93 -25 -120
-27 -59 -95 -133 -148 -161 -56 -29 -155 -29 -211 0 -74 39 -135 128 -149 218
l-7 40 124 1 c131 2 221 20 334 67 89 37 87 38 82 -45z"/>
<path d="M4750 5725 c-298 -34 -588 -108 -765 -198 -132 -66 -174 -114 -145
-166 16 -30 54 -26 108 11 93 64 287 135 483 178 210 45 358 61 610 67 400 9
677 -32 887 -133 87 -42 122 -42 136 -1 14 37 2 54 -65 95 -96 58 -254 105
-459 138 -144 23 -616 28 -790 9z"/>
</g>
</svg>
