<?xml version="1.0" standalone="no"?>
<!DOCTYPE svg PUBLIC "-//W3C//DTD SVG 20010904//EN"
 "http://www.w3.org/TR/2001/REC-SVG-20010904/DTD/svg10.dtd">
<svg version="1.0" xmlns="http://www.w3.org/2000/svg"
 width="1024.000000pt" height="1024.000000pt" viewBox="0 0 1024.000000 1024.000000"
 preserveAspectRatio="xMidYMid meet">
<metadata>
Created by potrace 1.16, written by Peter Selinger 2001-2019
</metadata>
<g transform="translate(0.000000,1024.000000) scale(0.100000,-0.100000)"
fill="#000000" stroke="none">
<path d="M5417 7740 c-15 -12 -43 -55 -63 -95 -33 -67 -54 -92 -54 -65 0 17
-101 90 -124 90 -26 0 -56 -28 -56 -52 0 -9 21 -33 47 -54 66 -54 99 -92 122
-141 29 -59 86 -70 95 -19 27 139 53 209 103 269 28 34 29 49 5 70 -24 22 -44
21 -75 -3z"/>
<path d="M4232 7654 c-26 -18 -28 -43 -6 -129 9 -36 14 -70 11 -78 -2 -7 -30
-21 -61 -30 -67 -22 -85 -46 -61 -84 15 -23 21 -25 58 -18 92 17 90 18 104
-64 17 -103 61 -143 98 -88 13 20 13 32 -1 106 -9 45 -13 86 -9 89 4 4 27 14
53 22 42 13 47 19 50 47 4 41 -22 57 -82 48 -50 -8 -46 -12 -66 90 -13 65 -33
105 -53 105 -7 0 -23 -7 -35 -16z"/>
<path d="M4875 7195 c-13 -14 -31 -41 -40 -60 -18 -40 -22 -41 -52 -20 -61 43
-132 48 -147 10 -10 -26 11 -53 62 -79 26 -13 62 -38 81 -55 36 -32 72 -40 88
-18 6 6 16 29 22 50 7 20 28 59 47 87 19 27 34 58 34 68 0 46 -58 56 -95 17z"/>
<path d="M5692 7068 c-21 -21 -13 -47 27 -98 22 -27 45 -67 51 -87 25 -77 51
-82 113 -20 24 23 74 57 110 75 60 30 67 36 67 62 0 59 -56 60 -159 4 -24 -13
-47 -24 -52 -24 -4 0 -29 23 -55 50 -47 50 -78 62 -102 38z"/>
<path d="M5196 6838 c-8 -13 -18 -44 -21 -70 l-7 -48 -52 0 c-58 0 -76 -12
-76 -51 0 -31 15 -39 71 -39 l39 0 0 -70 c0 -59 3 -71 20 -80 14 -8 26 -8 40
0 20 11 25 23 38 100 l8 45 41 -3 c32 -2 47 2 62 17 39 39 20 69 -50 78 l-41
6 5 50 c4 27 2 58 -4 68 -14 26 -55 24 -73 -3z"/>
<path d="M4627 6532 c-9 -10 -23 -34 -31 -54 l-15 -36 -38 19 c-68 35 -122 17
-109 -35 4 -16 19 -29 44 -39 21 -8 57 -31 81 -51 24 -20 49 -36 56 -36 20 0
39 29 51 79 6 25 20 67 30 93 15 39 16 49 5 62 -18 21 -54 20 -74 -2z"/>
<path d="M5439 6308 c-9 -17 -6 -32 19 -87 16 -36 34 -79 39 -96 6 -24 15 -31
39 -33 25 -2 36 4 63 38 18 23 55 57 82 77 34 24 49 42 49 58 0 52 -51 56
-122 9 -21 -13 -39 -24 -41 -24 -3 0 -16 18 -31 40 -21 32 -32 40 -56 40 -20
0 -33 -7 -41 -22z"/>
<path d="M4755 5894 c-571 -26 -1053 -93 -1333 -186 -153 -51 -192 -81 -192
-149 1 -74 41 -105 200 -152 240 -72 619 -126 1115 -157 206 -13 882 -13 1095
0 608 38 1078 113 1252 201 76 39 102 116 56 174 -76 97 -567 201 -1183 250
-189 16 -823 27 -1010 19z m1026 -128 c219 -18 307 -28 529 -62 246 -38 528
-112 538 -142 9 -27 -146 -74 -388 -116 -818 -143 -2023 -137 -2805 15 -113
22 -293 74 -309 90 -15 14 -4 19 105 55 251 83 660 143 1184 174 214 12 924 3
1146 -14z"/>
<path d="M3099 5459 c-16 -31 -47 -232 -60 -399 -18 -219 0 -574 41 -805 98
-551 329 -1083 619 -1422 134 -155 364 -338 534 -425 108 -54 359 -104 652
-129 248 -21 596 0 854 52 131 26 248 84 403 199 243 182 421 399 599 732 38
71 69 131 69 133 0 2 13 32 29 67 128 279 226 602 280 919 56 326 51 835 -9
1060 -10 35 -14 39 -44 39 -19 0 -39 -7 -46 -15 -13 -16 -13 -17 15 -220 21
-147 24 -481 6 -640 -72 -641 -327 -1294 -667 -1705 -129 -157 -271 -278 -445
-381 -88 -52 -115 -63 -198 -79 -316 -61 -653 -75 -951 -41 -399 46 -493 79
-731 258 -418 314 -729 898 -863 1623 -59 319 -59 776 -1 1085 11 60 11 73 -1
93 -19 29 -69 30 -85 1z"/>
<path d="M7242 5144 c-37 -25 -20 -94 23 -94 29 0 233 -111 285 -156 127 -108
209 -235 252 -391 31 -112 31 -303 0 -427 -26 -102 -82 -227 -141 -314 -154
-227 -443 -414 -798 -517 -48 -14 -95 -33 -105 -42 -25 -23 -23 -59 5 -78 22
-14 32 -13 129 15 450 129 777 373 933 695 91 187 125 364 105 549 -24 227
-109 406 -262 552 -81 77 -158 128 -266 174 -114 49 -134 53 -160 34z"/>
<path d="M4040 4279 c-88 -40 -134 -108 -134 -199 0 -119 99 -220 214 -220
155 0 265 181 194 320 -32 65 -125 120 -198 120 -17 0 -51 -10 -76 -21z"/>
<path d="M5910 4161 c-110 -35 -169 -123 -157 -238 7 -68 38 -118 95 -154 135
-85 297 -9 327 153 15 79 -39 184 -114 222 -34 18 -119 27 -151 17z"/>
<path d="M3863 3765 c-38 -16 -63 -60 -63 -111 0 -28 8 -44 34 -70 29 -29 41
-34 79 -34 127 0 161 167 44 218 -35 15 -54 15 -94 -3z"/>
<path d="M4535 3763 c-54 -53 63 -286 193 -385 66 -51 163 -94 250 -113 91
-19 138 -19 227 0 196 42 355 178 415 355 25 73 20 107 -14 116 -43 10 -65 -4
-76 -49 -35 -139 -157 -261 -308 -307 -243 -75 -514 72 -586 319 -9 29 -21 60
-27 67 -16 19 -54 18 -74 -3z"/>
<path d="M6091 3616 c-33 -18 -50 -53 -51 -103 0 -33 6 -50 29 -75 26 -29 36
-33 79 -33 57 0 86 20 109 73 14 34 12 57 -10 100 -23 47 -104 67 -156 38z"/>
</g>
</svg>
