<?xml version="1.0" standalone="no"?>
<!DOCTYPE svg PUBLIC "-//W3C//DTD SVG 20010904//EN"
 "http://www.w3.org/TR/2001/REC-SVG-20010904/DTD/svg10.dtd">
<svg version="1.0" xmlns="http://www.w3.org/2000/svg"
 width="1024.000000pt" height="1024.000000pt" viewBox="0 0 1024.000000 1024.000000"
 preserveAspectRatio="xMidYMid meet">
<metadata>
Created by potrace 1.16, written by Peter Selinger 2001-2019
</metadata>
<g transform="translate(0.000000,1024.000000) scale(0.100000,-0.100000)"
fill="#000000" stroke="none">
<path d="M5015 7445 c-5 -2 -22 -6 -37 -9 -41 -9 -83 -50 -121 -119 -48 -85
-180 -241 -269 -316 -111 -95 -206 -154 -398 -247 -353 -172 -426 -211 -539
-285 -279 -182 -457 -370 -574 -605 -156 -313 -141 -665 39 -863 l41 -45 -33
-51 c-105 -158 -101 -354 9 -465 37 -38 144 -99 195 -112 16 -4 20 -27 36
-184 41 -410 120 -847 207 -1146 l32 -108 50 -15 c146 -43 496 -102 777 -129
378 -38 865 -38 1240 -1 294 29 659 95 696 126 48 39 181 630 239 1059 20 146
40 276 43 288 5 17 22 29 61 43 104 36 183 104 229 198 24 49 27 68 27 151 0
111 -17 169 -75 259 l-39 60 58 58 c107 107 155 244 155 438 -1 320 -169 636
-475 891 -147 122 -294 212 -589 356 -157 77 -329 169 -383 205 -166 110 -333
286 -452 479 -37 59 -109 102 -150 89z m64 -229 c128 -189 275 -340 437 -447
112 -75 149 -94 464 -248 308 -150 475 -265 642 -439 136 -143 237 -317 278
-477 43 -168 21 -358 -55 -470 -48 -70 -93 -98 -167 -103 -56 -4 -66 -1 -163
48 -88 45 -111 52 -161 53 -77 0 -149 -35 -201 -100 -80 -99 -116 -133 -166
-158 -94 -46 -195 -28 -365 68 -127 72 -188 91 -283 91 -63 0 -86 -5 -140 -31
-69 -33 -91 -52 -187 -161 -52 -60 -71 -74 -114 -87 -80 -24 -158 0 -250 76
-53 45 -135 84 -195 94 -68 11 -144 -11 -227 -65 -116 -76 -135 -83 -201 -83
-101 0 -157 45 -220 178 -39 81 -75 116 -141 135 -38 11 -49 9 -149 -25 -119
-41 -162 -42 -233 -6 -111 57 -181 227 -168 412 25 381 327 747 821 997 55 27
188 93 295 145 107 52 242 126 300 165 172 114 322 267 439 445 25 37 48 67
53 67 4 0 30 -33 57 -74z m1385 -2274 c70 -42 137 -62 205 -62 33 0 41 -5 68
-42 105 -147 118 -272 38 -365 -60 -71 -170 -104 -490 -147 -365 -50 -542 -60
-1080 -61 -526 0 -651 6 -1029 50 -257 31 -406 55 -604 101 -254 59 -325 91
-362 164 -37 72 -24 157 38 250 l37 55 85 1 c70 1 99 7 166 33 45 17 89 29 98
25 9 -3 37 -46 62 -95 57 -110 117 -168 206 -198 120 -41 230 -22 358 59 41
27 88 53 103 59 67 26 123 7 220 -72 85 -69 146 -91 252 -92 82 0 96 3 156 32
64 32 98 63 179 161 53 65 105 92 177 92 55 0 72 -7 224 -83 135 -69 178 -86
238 -95 176 -26 328 47 439 211 54 80 104 85 216 19z m-2889 -676 c352 -83
909 -141 1450 -152 484 -11 1108 29 1443 92 l33 6 -6 -38 c-3 -22 -17 -120
-30 -219 -41 -291 -125 -703 -185 -906 l-20 -66 -77 -16 c-674 -144 -1595
-140 -2323 9 -69 14 -130 30 -137 36 -24 20 -131 512 -173 800 -43 296 -59
468 -42 468 4 0 34 -7 67 -14z"/>
<path d="M5450 6620 c-51 -51 3 -171 143 -317 68 -71 84 -83 113 -83 23 0 38
7 53 26 35 45 27 65 -64 165 -53 58 -97 117 -115 155 -16 34 -36 64 -45 68
-31 12 -65 6 -85 -14z"/>
<path d="M4876 6499 c-14 -11 -26 -25 -26 -30 0 -5 -20 -54 -45 -108 -25 -54
-45 -109 -45 -122 1 -50 53 -84 102 -67 22 8 35 30 77 129 56 131 61 169 31
199 -26 26 -60 25 -94 -1z"/>
<path d="M3912 6289 c-23 -42 -62 -92 -149 -189 -60 -66 -73 -86 -73 -114 0
-41 27 -67 71 -68 29 -1 42 8 96 68 101 109 171 198 183 228 21 56 -13 106
-72 106 -33 0 -41 -5 -56 -31z"/>
<path d="M4420 5873 c-32 -12 -50 -37 -50 -70 0 -26 11 -45 53 -91 97 -106
135 -174 152 -274 11 -67 75 -89 122 -42 23 23 25 31 20 81 -3 32 -20 86 -41
129 -46 97 -159 242 -203 260 -18 8 -34 14 -35 13 -2 0 -10 -3 -18 -6z"/>
<path d="M6120 5843 c-59 -22 -61 -47 -20 -290 32 -191 43 -213 97 -213 29 0
73 41 73 68 0 11 -9 71 -20 133 -11 63 -25 148 -31 189 -8 59 -16 80 -35 98
-25 22 -37 25 -64 15z"/>
<path d="M5370 5763 c-36 -13 -60 -47 -60 -84 0 -48 26 -78 72 -86 32 -5 41
-1 68 25 16 17 30 40 30 52 0 37 -28 77 -61 89 -18 6 -32 11 -33 10 -1 0 -8
-3 -16 -6z"/>
<path d="M3813 5606 c-57 -26 -64 -113 -11 -150 36 -25 76 -20 110 14 26 27
30 36 25 67 -11 65 -64 95 -124 69z"/>
<path d="M5824 3686 c-45 -20 -67 -73 -62 -152 3 -53 9 -69 32 -93 52 -54 109
-48 153 18 48 71 19 206 -48 230 -39 13 -37 13 -75 -3z m42 -153 c-10 -10 -19
5 -10 18 6 11 8 11 12 0 2 -7 1 -15 -2 -18z"/>
<path d="M4111 3677 c-60 -30 -86 -153 -48 -224 35 -66 115 -79 157 -26 62 78
42 216 -35 249 -41 17 -44 17 -74 1z m59 -136 c0 -6 -4 -13 -10 -16 -5 -3 -10
1 -10 9 0 9 5 16 10 16 6 0 10 -4 10 -9z"/>
<path d="M4708 3543 c-25 -30 -29 -54 -17 -112 20 -103 91 -190 187 -233 73
-33 199 -31 273 3 102 48 172 146 186 258 8 72 -12 101 -71 101 -52 0 -61 -10
-70 -75 -12 -99 -86 -165 -184 -165 -60 0 -95 15 -133 57 -36 39 -49 66 -49
105 0 51 -24 78 -69 78 -24 0 -44 -7 -53 -17z"/>
</g>
</svg>
