<?xml version="1.0" encoding="UTF-8" standalone="no"?>
<!DOCTYPE svg PUBLIC "-//W3C//DTD SVG 1.1//EN" "http://www.w3.org/Graphics/SVG/1.1/DTD/svg11.dtd">
<svg width="100%" height="100%" viewBox="0 0 1024 1024" version="1.1" xmlns="http://www.w3.org/2000/svg" xmlns:xlink="http://www.w3.org/1999/xlink" xml:space="preserve" xmlns:serif="http://www.serif.com/" style="fill-rule:evenodd;clip-rule:evenodd;stroke-linejoin:round;stroke-miterlimit:2;">
    <g transform="matrix(0.1,0,0,-0.1,0,1024)">
        <path d="M4593,8372C4380,8317 4216,8159 4159,7955C4136,7873 4141,7709 4169,7617L4193,7538L4107,7277C3767,6248 3421,4823 3346,4140C3313,3844 3306,3686 3305,3220C3305,2826 3308,2720 3323,2600C3373,2187 3475,1966 3654,1884C3807,1814 3980,1879 4173,2079C4264,2174 4349,2295 4400,2401C4431,2468 4461,2592 4479,2727C4491,2821 4507,2859 4559,2913C4608,2965 4634,2977 4747,3000C4915,3034 4995,3069 5161,3182C5295,3273 5421,3383 5605,3571C6053,4029 7163,5275 7432,5621C7480,5683 7499,5699 7533,5710C7645,5743 7777,5829 7853,5918C7948,6030 7991,6147 7991,6295C7991,6548 7842,6807 7519,7115C6941,7667 5958,8187 5199,8345C5047,8377 5002,8382 4845,8386C4693,8389 4654,8387 4593,8372ZM5050,8254C5888,8132 7148,7426 7654,6794C7808,6602 7867,6451 7858,6275C7853,6191 7848,6171 7816,6106C7753,5978 7598,5855 7485,5843L7445,5839L7401,5922C7105,6484 6418,7043 5783,7239C5492,7329 5226,7369 4795,7390C4538,7402 4521,7404 4461,7435C4377,7478 4326,7549 4296,7667C4244,7867 4325,8082 4493,8191C4625,8276 4777,8293 5050,8254ZM4413,7322C4498,7290 4571,7281 4800,7276C5012,7271 5146,7260 5311,7237L5394,7225L5429,7165C5500,7042 5614,6960 5763,6926C5852,6905 6003,6906 6112,6926L6198,6943L6247,6915C6678,6669 7116,6236 7305,5869C7341,5799 7370,5737 7370,5731C7370,5719 7157,5462 6929,5199C6735,4975 6280,4465 6272,4462C6267,4461 6256,4492 6247,4531C6211,4680 6141,4778 6033,4827C5923,4877 5778,4866 5717,4802C5703,4787 5679,4748 5663,4716C5627,4640 5594,4615 5530,4616C5466,4617 5410,4653 5381,4712C5318,4844 5398,5089 5555,5247C5674,5366 5818,5421 5936,5391C5961,5384 6023,5352 6072,5319C6191,5241 6271,5216 6388,5222C6463,5225 6486,5231 6551,5263C6788,5377 6942,5668 6928,5973C6916,6222 6791,6350 6562,6350C6373,6350 6217,6268 6159,6137C6123,6058 6125,5935 6163,5858C6214,5754 6304,5700 6425,5700C6495,5700 6523,5715 6523,5753C6523,5797 6503,5812 6454,5804C6389,5795 6343,5807 6300,5846C6228,5911 6210,6034 6261,6117C6313,6201 6446,6256 6578,6248C6697,6241 6768,6194 6807,6100C6834,6032 6832,5851 6802,5746C6750,5566 6643,5422 6511,5357C6454,5329 6435,5325 6365,5325C6273,5325 6224,5344 6105,5424C6021,5480 5959,5500 5866,5500C5732,5500 5569,5422 5465,5309C5296,5126 5215,4857 5279,4690C5340,4528 5534,4460 5671,4553C5692,4567 5718,4602 5741,4645C5763,4688 5790,4724 5810,4738C5905,4803 6080,4715 6125,4579C6135,4549 6151,4487 6161,4440L6178,4356L6153,4325C6073,4230 5540,3663 5419,3545C5294,3424 5151,3305 5058,3247L5030,3230L4996,3298C4950,3390 4884,3460 4792,3516C4686,3581 4652,3615 4635,3674C4616,3737 4616,3763 4636,3831C4658,3904 4741,3988 4826,4019C4901,4048 5001,4050 5050,4025C5117,3992 5180,3912 5180,3863C5180,3837 5208,3800 5227,3800C5253,3800 5280,3831 5280,3861C5280,3916 5237,4003 5185,4056C5121,4120 5056,4145 4950,4144C4854,4144 4778,4121 4699,4067C4578,3986 4512,3858 4522,3721C4531,3595 4582,3520 4713,3441C4808,3383 4856,3337 4899,3259C4946,3175 4943,3167 4858,3142C4818,3131 4748,3115 4703,3107C4555,3080 4477,3022 4415,2896C4387,2838 4378,2802 4365,2702C4340,2504 4284,2379 4149,2216C3981,2013 3806,1923 3693,1983C3616,2024 3544,2129 3502,2260C3439,2456 3419,2633 3413,3075L3408,3435L3460,3502C3547,3615 3641,3665 3765,3665C3858,3664 3930,3637 3998,3576C4108,3477 4122,3314 4029,3236C3997,3208 3992,3208 3918,3213C3810,3222 3749,3202 3689,3141C3506,2952 3653,2650 3930,2646C4069,2644 4149,2686 4121,2746C4111,2769 4105,2771 4072,2766C3918,2739 3842,2750 3778,2808C3708,2871 3692,2946 3731,3027C3762,3091 3812,3114 3904,3107C4002,3100 4063,3120 4116,3175C4172,3233 4193,3298 4189,3398C4182,3539 4100,3654 3956,3726C3892,3757 3869,3763 3793,3767C3659,3775 3555,3739 3459,3653C3437,3633 3420,3622 3419,3626C3408,3771 3454,4190 3526,4595C3555,4761 3638,5153 3643,5156C3657,5161 3775,5251 3842,5307C4024,5460 4108,5586 4118,5718C4123,5800 4110,5848 4067,5896C4029,5940 3973,5969 3913,5976C3836,5985 3839,5980 3866,6082C3938,6346 4048,6726 4101,6895C4173,7122 4261,7392 4267,7402C4269,7406 4291,7394 4315,7375C4339,7357 4383,7333 4413,7322ZM5685,7156C5803,7122 5888,7092 5985,7050C6048,7023 6032,7010 5934,7010C5798,7010 5680,7046 5606,7111C5553,7157 5531,7190 5553,7190C5560,7190 5620,7175 5685,7156ZM3960,5854C4003,5828 4024,5778 4017,5714C4007,5615 3943,5530 3770,5382C3717,5337 3684,5315 3682,5323C3679,5337 3806,5856 3817,5873C3826,5887 3925,5874 3960,5854Z" style="fill-rule:nonzero;"/>
        <path d="M4585,7079C4505,7051 4426,6997 4377,6936C4335,6882 4270,6757 4270,6728C4270,6704 4297,6680 4326,6680C4346,6680 4356,6693 4389,6758C4441,6861 4497,6922 4573,6960C4645,6995 4716,7006 4779,6992C4841,6977 4862,6990 4858,7038C4855,7070 4850,7077 4820,7087C4764,7106 4653,7102 4585,7079Z" style="fill-rule:nonzero;"/>
        <path d="M4985,6734C4947,6726 4879,6702 4835,6681C4633,6585 4539,6418 4539,6157C4539,6019 4559,5910 4612,5760C4727,5430 4735,5386 4727,5137C4723,4995 4718,4948 4697,4867C4628,4605 4504,4470 4333,4470C4248,4470 4199,4492 4144,4552C4085,4616 4057,4695 4056,4800C4055,4904 4082,4968 4144,5009C4179,5032 4192,5035 4256,5033C4337,5030 4357,5042 4346,5086C4327,5162 4148,5154 4059,5073C3869,4901 3942,4505 4183,4395C4356,4316 4558,4385 4678,4563C4799,4744 4857,5028 4831,5309C4816,5469 4802,5529 4735,5718C4705,5802 4671,5915 4660,5969C4626,6135 4636,6300 4686,6406C4778,6601 5092,6702 5347,6618C5482,6573 5560,6458 5547,6320C5542,6257 5512,6191 5482,6173C5471,6166 5433,6154 5398,6145C5321,6125 5277,6099 5262,6065C5243,6023 5247,5942 5270,5904C5307,5845 5431,5779 5475,5796C5497,5805 5512,5847 5501,5868C5496,5877 5469,5893 5442,5903C5398,5918 5340,5967 5340,5989C5340,6012 5375,6034 5440,6051C5530,6075 5575,6108 5615,6181C5643,6232 5645,6242 5645,6340C5644,6427 5640,6455 5621,6505C5576,6618 5462,6704 5315,6735C5227,6753 5077,6753 4985,6734Z" style="fill-rule:nonzero;"/>
    </g>
</svg>
