<?xml version="1.0" standalone="no"?>
<!DOCTYPE svg PUBLIC "-//W3C//DTD SVG 20010904//EN"
 "http://www.w3.org/TR/2001/REC-SVG-20010904/DTD/svg10.dtd">
<svg version="1.0" xmlns="http://www.w3.org/2000/svg"
 width="1024.000000pt" height="1024.000000pt" viewBox="0 0 1024.000000 1024.000000"
 preserveAspectRatio="xMidYMid meet">
<metadata>
Created by potrace 1.16, written by Peter Selinger 2001-2019
</metadata>
<g transform="translate(0.000000,1024.000000) scale(0.100000,-0.100000)"
fill="#000000" stroke="none">
<path d="M4850 7290 c-14 -14 -20 -33 -20 -65 0 -69 -35 -130 -135 -235 -151
-158 -195 -228 -222 -354 -25 -121 -6 -225 73 -392 24 -52 44 -97 44 -102 0
-17 37 -42 63 -42 26 0 57 31 57 57 0 7 -24 64 -54 126 -65 134 -80 195 -74
291 6 91 47 178 121 258 29 31 81 86 116 124 76 81 121 169 128 254 5 49 2 64
-12 80 -23 26 -59 26 -85 0z"/>
<path d="M5196 6940 c-59 -91 -74 -120 -103 -204 -31 -89 -41 -237 -23 -328
14 -71 56 -185 78 -210 30 -36 102 -13 102 32 0 10 -13 46 -30 81 -40 87 -56
199 -41 290 15 94 42 160 101 254 68 107 66 155 -7 155 -29 0 -37 -7 -77 -70z"/>
<path d="M4022 6885 c-12 -9 -33 -37 -46 -63 -104 -206 -63 -398 128 -598 66
-69 98 -80 129 -46 31 34 20 61 -58 143 -124 133 -166 251 -131 371 8 30 29
72 46 93 16 21 30 45 30 54 0 45 -59 73 -98 46z"/>
<path d="M4075 5869 c-389 -7 -521 -13 -705 -30 -367 -34 -496 -106 -432 -241
19 -39 21 -68 26 -299 10 -441 59 -687 192 -952 113 -225 327 -454 531 -569
29 -16 53 -33 53 -38 0 -4 -27 -11 -61 -14 -155 -18 -300 -82 -326 -144 -45
-107 74 -199 283 -221 43 -4 511 -7 1039 -5 1052 2 1039 1 1149 62 65 36 91
72 90 126 -1 55 -23 87 -82 119 -55 30 -182 67 -229 67 -18 0 -33 4 -33 8 0 5
31 26 70 47 92 51 212 147 299 241 l70 76 63 -20 c260 -84 539 -60 768 66 234
128 374 324 432 602 46 218 -12 448 -149 592 -71 73 -128 110 -224 142 -138
46 -303 44 -445 -4 -29 -10 -55 -16 -58 -13 -16 17 -5 87 19 115 19 22 25 41
25 75 0 63 -33 94 -137 127 -165 52 -410 72 -1023 86 -483 10 -628 10 -1205
-1z m1481 -119 c409 -15 666 -45 745 -86 30 -15 30 -16 12 -29 -55 -38 -232
-76 -443 -95 -630 -55 -2033 -49 -2500 11 -163 21 -337 74 -328 101 16 48 397
92 878 101 379 8 1396 6 1636 -3z m-2384 -280 c108 -25 269 -46 493 -62 248
-18 1681 -18 1960 0 254 16 445 38 560 63 49 10 91 19 94 19 7 0 -9 -309 -24
-434 -51 -434 -182 -734 -429 -982 -150 -150 -308 -246 -504 -308 l-83 -26
-585 0 -585 0 -75 25 c-109 37 -258 115 -349 182 -344 257 -538 659 -560 1163
-13 314 -15 380 -6 380 5 0 47 -9 93 -20z m3682 -92 c203 -67 316 -239 316
-480 0 -119 -20 -208 -69 -313 -76 -160 -185 -271 -346 -350 -122 -60 -187
-76 -336 -82 -122 -5 -240 9 -314 37 l-24 9 51 86 c39 66 55 84 67 79 121 -53
268 -68 381 -39 114 29 188 72 276 160 123 121 174 237 174 394 0 214 -139
362 -355 378 -78 6 -180 -14 -245 -47 -21 -11 -42 -20 -45 -20 -3 0 -5 31 -5
70 0 80 3 83 115 115 130 38 250 39 359 3z m-83 -259 c125 -54 179 -202 130
-358 -26 -84 -59 -137 -128 -202 -131 -126 -307 -169 -465 -114 -74 26 -74 27
-29 170 40 125 81 309 81 365 0 38 37 80 102 115 106 58 211 66 309 24z
m-2840 -1456 l74 -28 640 0 640 0 78 24 78 24 27 -26 c22 -21 44 -28 112 -37
94 -13 186 -42 210 -66 13 -14 13 -17 -5 -30 -11 -8 -42 -22 -70 -32 -46 -15
-136 -17 -1059 -20 -987 -2 -1012 -2 -1090 18 -88 22 -122 44 -96 60 29 19
165 58 225 65 86 10 120 22 135 50 7 14 16 25 20 25 4 0 40 -12 81 -27z"/>
</g>
</svg>
