<?xml version="1.0" standalone="no"?>
<!DOCTYPE svg PUBLIC "-//W3C//DTD SVG 20010904//EN"
 "http://www.w3.org/TR/2001/REC-SVG-20010904/DTD/svg10.dtd">
<svg version="1.0" xmlns="http://www.w3.org/2000/svg"
 width="1024.000000pt" height="1024.000000pt" viewBox="0 0 1024.000000 1024.000000"
 preserveAspectRatio="xMidYMid meet">
<metadata>
Created by potrace 1.16, written by Peter Selinger 2001-2019
</metadata>
<g transform="translate(0.000000,1024.000000) scale(0.100000,-0.100000)"
fill="#000000" stroke="none">
<path d="M7178 7099 c-129 -19 -295 -94 -411 -188 -78 -62 -138 -124 -219
-226 -70 -88 -107 -114 -220 -150 -111 -35 -223 -47 -344 -35 -160 15 -239 34
-689 164 -483 140 -912 151 -1365 36 -154 -39 -261 -79 -405 -150 -212 -105
-376 -250 -510 -449 -69 -102 -72 -105 -154 -147 -299 -155 -517 -452 -606
-827 -52 -223 -57 -433 -15 -650 93 -478 414 -861 889 -1061 307 -130 707
-192 1063 -166 750 54 1389 339 1922 859 216 210 337 363 598 755 189 284 209
311 295 399 107 109 150 131 433 222 336 109 507 234 614 448 59 117 76 185
83 323 12 236 -68 443 -234 606 -85 84 -121 111 -203 152 -163 83 -341 112
-522 85z m337 -183 c111 -35 195 -88 276 -173 82 -86 121 -151 155 -258 105
-330 -53 -648 -391 -788 -33 -14 -118 -44 -190 -67 -280 -90 -357 -132 -481
-261 -88 -92 -140 -163 -333 -453 -222 -334 -309 -445 -494 -635 -241 -246
-481 -425 -758 -566 -409 -208 -810 -305 -1264 -305 -268 0 -450 26 -680 95
-646 196 -1037 750 -975 1383 30 303 143 563 329 751 85 87 157 139 279 200
69 35 87 49 110 87 107 180 213 298 354 395 192 131 423 216 744 271 105 18
169 22 344 22 305 1 455 -26 920 -164 313 -93 424 -114 605 -114 131 0 163 4
250 27 55 15 142 48 193 73 85 43 96 52 144 118 69 95 219 243 293 288 176
107 384 134 570 74z"/>
<path d="M4043 6339 c-53 -16 -103 -49 -118 -80 -20 -38 -19 -46 10 -74 65
-66 275 10 275 100 0 12 -9 30 -20 40 -23 21 -100 29 -147 14z"/>
<path d="M3269 5604 c-24 -7 -43 -49 -35 -77 14 -59 104 -132 174 -143 95 -15
129 69 59 144 -49 53 -148 91 -198 76z"/>
<path d="M2842 5017 c-27 -28 -45 -109 -36 -162 20 -126 107 -167 153 -72 23
48 28 137 10 184 -26 70 -86 94 -127 50z"/>
</g>
</svg>
