<?xml version="1.0" standalone="no"?>
<!DOCTYPE svg PUBLIC "-//W3C//DTD SVG 20010904//EN"
 "http://www.w3.org/TR/2001/REC-SVG-20010904/DTD/svg10.dtd">
<svg version="1.0" xmlns="http://www.w3.org/2000/svg"
 width="1024.000000pt" height="1024.000000pt" viewBox="0 0 1024.000000 1024.000000"
 preserveAspectRatio="xMidYMid meet">
<metadata>
Created by potrace 1.16, written by Peter Selinger 2001-2019
</metadata>
<g transform="translate(0.000000,1024.000000) scale(0.100000,-0.100000)"
fill="#000000" stroke="none">
<path d="M5722 7444 c-18 -16 -36 -75 -101 -349 -44 -181 -98 -411 -120 -510
-23 -99 -45 -182 -49 -186 -4 -3 -101 -14 -216 -23 -391 -32 -1216 -137 -1329
-170 -60 -17 -75 -45 -93 -171 -21 -152 -30 -713 -15 -971 41 -697 192 -1495
382 -2019 22 -60 52 -135 67 -165 27 -55 28 -55 110 -83 374 -126 1052 -108
1541 39 175 54 184 59 219 151 82 217 143 555 184 1023 17 192 17 937 0 1130
-43 494 -109 905 -187 1158 -33 105 -48 116 -157 117 -43 0 -78 2 -78 5 0 6
121 488 141 564 l11 39 186 -7 c103 -4 243 -11 312 -16 69 -5 162 -10 206 -10
115 0 122 7 134 135 5 55 10 130 10 168 0 82 -15 101 -86 110 -62 9 -654 44
-879 53 -157 6 -172 5 -193 -12z m630 -154 c191 -11 356 -20 368 -20 19 0 20
-4 14 -67 -4 -38 -8 -69 -9 -71 -1 -1 -172 7 -380 19 -373 21 -377 21 -403 2
-23 -17 -36 -57 -117 -379 l-92 -359 -65 -3 -66 -3 15 63 c27 120 194 823 198
836 4 9 27 11 97 7 51 -3 249 -15 440 -25z m-359 -1067 c18 -64 57 -237 57
-252 0 -5 -23 -26 -51 -47 -65 -47 -105 -48 -211 -5 -140 57 -220 42 -321 -61
-80 -81 -120 -108 -163 -108 -17 0 -73 21 -125 47 -85 42 -101 47 -164 47 -56
0 -80 -6 -121 -26 -27 -15 -56 -34 -64 -43 -8 -9 -34 -30 -58 -47 -58 -40
-105 -40 -200 1 -128 56 -227 42 -321 -44 -82 -75 -100 -85 -152 -85 -38 0
-58 8 -108 41 -52 35 -61 45 -61 70 0 69 22 324 30 344 6 16 19 24 47 28 21 3
146 21 278 41 530 78 1086 132 1540 149 39 2 89 4 111 5 l41 2 16 -57z m-223
-443 c90 -40 171 -41 249 -5 30 14 57 22 61 18 9 -10 46 -282 65 -473 48 -491
45 -1066 -10 -1565 -28 -254 -107 -638 -148 -725 -9 -19 -31 -30 -102 -52
-122 -38 -350 -84 -520 -104 -277 -33 -667 -17 -897 37 -102 24 -97 19 -154
175 -215 594 -384 1598 -384 2282 0 78 1 142 3 142 1 0 24 -11 51 -25 38 -19
65 -25 115 -25 85 1 132 22 215 99 81 75 120 81 226 35 145 -63 233 -51 347
47 92 80 134 84 252 24 95 -48 145 -59 216 -46 71 13 107 35 173 105 29 30 62
62 74 70 34 24 93 19 168 -14z"/>
<path d="M5720 5227 c-75 -26 -107 -147 -60 -225 41 -67 135 -78 191 -23 78
79 50 223 -49 251 -44 12 -38 12 -82 -3z"/>
<path d="M5263 5125 c-12 -8 -33 -40 -47 -70 -56 -123 -192 -138 -266 -29 -16
23 -37 44 -45 48 -88 33 -127 -60 -62 -146 85 -112 238 -145 365 -79 111 57
188 215 132 271 -24 24 -48 25 -77 5z"/>
<path d="M4353 5045 c-56 -24 -89 -101 -73 -172 28 -123 198 -139 244 -23 21
54 20 85 -5 138 -32 66 -96 88 -166 57z"/>
<path d="M5155 4373 c-80 -9 -155 -27 -209 -50 -173 -73 -317 -226 -377 -403
-26 -79 -37 -233 -20 -309 71 -330 486 -500 826 -338 145 70 254 176 319 312
45 93 60 162 60 265 -1 227 -129 408 -346 488 -43 16 -221 49 -223 41 0 -1
-13 -4 -30 -6z m115 -144 c129 -21 253 -108 308 -216 123 -240 -64 -578 -359
-648 -118 -27 -242 -14 -341 36 -69 35 -151 125 -177 194 -19 51 -22 75 -19
156 3 90 7 103 47 184 75 151 206 254 366 288 87 19 95 19 175 6z"/>
<path d="M5270 4058 c-35 -34 -80 -124 -80 -158 0 -15 7 -20 30 -20 24 0 38
10 70 52 23 28 48 64 56 80 38 73 -17 105 -76 46z"/>
<path d="M4813 3893 c-7 -2 -13 -18 -13 -34 0 -24 6 -33 33 -43 43 -18 142
-27 192 -18 52 9 61 43 18 65 -55 29 -191 46 -230 30z"/>
<path d="M5282 3789 c-29 -11 -28 -35 2 -55 29 -18 119 -44 157 -44 66 0 60
72 -8 89 -59 14 -126 19 -151 10z"/>
<path d="M5086 3708 c-26 -36 -58 -152 -54 -194 3 -34 7 -39 29 -42 38 -4 65
35 79 116 16 92 11 136 -17 140 -13 2 -27 -5 -37 -20z"/>
</g>
</svg>
