<?xml version="1.0" standalone="no"?>
<!DOCTYPE svg PUBLIC "-//W3C//DTD SVG 20010904//EN"
 "http://www.w3.org/TR/2001/REC-SVG-20010904/DTD/svg10.dtd">
<svg version="1.0" xmlns="http://www.w3.org/2000/svg"
 width="2048.000000pt" height="2048.000000pt" viewBox="0 0 2048.000000 2048.000000"
 preserveAspectRatio="xMidYMid meet">
<metadata>
Created by potrace 1.16, written by Peter Selinger 2001-2019
</metadata>
<g transform="translate(0.000000,2048.000000) scale(0.100000,-0.100000)"
fill="#000000" stroke="none">
<path d="M9525 17974 c-325 -55 -676 -237 -920 -480 -74 -72 -190 -210 -213
-249 -7 -14 -12 -14 -47 1 -22 9 -87 27 -145 41 -141 33 -409 43 -550 19 -587
-96 -1055 -501 -1215 -1051 -36 -125 -65 -302 -65 -400 l0 -82 -142 -6 c-110
-4 -164 -11 -230 -30 -265 -75 -466 -239 -579 -473 -42 -86 -79 -214 -79 -273
0 -20 -4 -40 -8 -46 -4 -5 -38 -18 -77 -28 -89 -23 -254 -102 -347 -166 -231
-159 -388 -405 -443 -695 -29 -150 -14 -446 29 -556 4 -10 -10 -26 -42 -47
-72 -49 -194 -171 -238 -237 -36 -54 -39 -66 -43 -139 -13 -287 209 -1953 523
-3922 41 -258 84 -522 95 -585 11 -63 48 -275 81 -470 231 -1348 504 -2865
786 -4367 100 -537 105 -553 180 -605 95 -66 826 -242 1409 -338 1771 -293
3680 -375 5365 -230 407 35 419 38 543 121 254 172 688 537 1244 1046 232 213
263 246 283 299 18 46 72 445 240 1764 102 802 317 2432 421 3195 33 242 73
539 90 660 16 121 61 443 99 715 38 272 81 581 95 685 14 105 50 361 80 570
29 209 63 450 74 535 12 85 28 199 36 252 81 527 177 1274 179 1388 1 71 -3
93 -24 135 -31 64 -101 132 -178 173 -69 37 -195 72 -257 72 l-43 0 -12 82
c-62 428 -389 783 -828 899 l-83 22 8 61 c13 102 8 294 -11 374 -9 40 -30 109
-46 153 -129 353 -454 614 -854 684 -111 19 -315 19 -421 0 -44 -8 -83 -15
-87 -15 -4 0 -28 43 -53 95 -136 277 -305 454 -550 575 -146 72 -258 106 -432
128 -113 14 -149 15 -265 4 -203 -18 -395 -70 -553 -149 -55 -28 -71 -33 -77
-22 -167 287 -229 371 -370 504 -108 101 -275 216 -401 275 -127 60 -308 116
-429 134 -129 19 -390 20 -503 0z m458 -439 c166 -29 332 -105 484 -221 187
-143 347 -380 408 -605 43 -157 79 -209 164 -238 88 -29 155 -7 282 93 369
292 890 302 1194 24 138 -127 219 -280 259 -490 16 -85 33 -123 68 -154 41
-38 85 -54 146 -54 49 0 73 7 153 46 232 113 425 112 659 -2 77 -38 109 -61
171 -124 119 -120 169 -239 169 -405 0 -110 -17 -185 -70 -308 -57 -134 -53
-214 14 -285 55 -60 92 -72 215 -72 130 0 229 -17 338 -59 249 -96 403 -311
403 -562 l0 -89 -78 -78 c-43 -43 -100 -108 -125 -144 l-47 -66 -51 24 c-96
47 -210 67 -344 61 -132 -5 -205 -24 -315 -80 -110 -55 -182 -108 -268 -196
-69 -70 -170 -209 -185 -255 -2 -5 -48 28 -102 73 -303 257 -629 385 -1011
398 -189 6 -315 -6 -477 -47 -302 -76 -576 -230 -799 -447 l-96 -95 -99 87
c-248 218 -535 361 -863 430 -170 36 -450 45 -620 21 -409 -60 -762 -231
-1062 -514 l-86 -82 -101 97 c-133 128 -248 210 -406 287 -240 119 -382 151
-670 150 -167 0 -216 -3 -295 -21 -281 -63 -585 -222 -775 -404 l-85 -82 -108
110 c-118 122 -212 192 -345 259 -186 94 -384 138 -597 132 l-115 -3 -13 90
c-42 278 74 535 303 674 87 53 170 72 320 76 148 3 184 14 232 68 46 52 57 96
47 186 -4 42 -8 119 -8 171 0 82 3 103 26 153 51 109 162 201 282 233 66 18
216 18 282 0 28 -7 88 -27 132 -45 130 -50 231 -40 301 30 63 64 75 136 42
267 -34 136 -44 227 -38 345 24 466 337 835 812 958 74 19 116 23 235 23 179
0 276 -21 430 -95 209 -101 309 -75 406 106 102 189 234 337 405 453 123 83
313 163 469 196 87 19 297 20 403 1z m5555 -3823 c13 -9 -31 -348 -158 -1207
-32 -220 -68 -472 -80 -560 -11 -88 -43 -315 -70 -505 -82 -576 -217 -1547
-260 -1870 -22 -168 -83 -615 -135 -995 -121 -890 -184 -1362 -301 -2285 -36
-283 -85 -657 -109 -830 -24 -173 -58 -430 -75 -570 -34 -282 -77 -592 -88
-648 -6 -30 -29 -56 -127 -146 -234 -213 -510 -456 -518 -456 -4 0 -5 10 -2
22 7 32 45 349 110 923 30 270 69 598 85 730 16 132 41 341 55 465 14 124 46
389 70 590 25 201 65 541 90 755 25 215 64 532 86 705 22 173 51 410 65 525
13 116 45 368 70 560 25 193 70 544 100 780 30 237 70 543 89 680 19 138 43
322 55 410 11 88 45 340 75 560 106 779 235 1771 235 1806 0 3 22 1 49 -4 106
-22 222 51 250 158 44 170 91 258 175 332 27 23 71 51 100 62 52 20 141 27
164 13z m-993 -358 c28 -13 58 -30 68 -38 20 -15 23 14 -49 -426 -68 -412
-333 -2243 -425 -2930 -110 -831 -248 -1974 -339 -2805 -85 -788 -194 -1817
-229 -2170 -6 -55 -26 -255 -46 -445 -19 -190 -51 -509 -70 -709 -19 -201 -36
-365 -38 -366 -7 -6 -206 -172 -226 -189 l-24 -21 6 85 c21 283 83 1064 117
1470 22 261 51 617 65 790 89 1113 106 1316 115 1415 5 61 21 250 35 420 14
171 61 742 105 1270 43 528 90 1100 104 1270 15 171 37 438 51 595 29 340 53
619 100 1190 72 873 95 1122 111 1187 28 117 86 224 162 300 132 133 275 171
407 107z m-1958 -34 c355 -45 657 -234 883 -552 l33 -48 -17 -182 c-32 -348
-116 -1325 -156 -1818 -22 -272 -49 -603 -60 -735 -91 -1075 -196 -2334 -220
-2640 -16 -203 -50 -615 -75 -915 -25 -300 -63 -770 -85 -1045 -35 -450 -86
-1062 -169 -2023 -16 -183 -30 -335 -32 -337 -6 -6 -333 -34 -584 -50 -250
-15 -943 -40 -950 -34 -2 3 2 83 10 179 24 301 70 1075 90 1530 3 63 7 158 10
210 3 52 7 160 10 240 3 80 10 246 15 370 5 124 10 275 10 336 0 61 3 132 6
157 l7 46 119 67 c301 168 515 331 720 550 237 253 379 489 482 796 226 677
105 1378 -334 1928 -78 98 -265 283 -360 357 -160 124 -365 254 -509 323 l-72
35 5 80 c3 44 8 208 11 365 3 157 7 326 10 375 3 50 7 167 10 260 3 94 12 357
20 585 8 228 18 568 22 756 l6 342 74 81 c270 295 695 458 1070 411z m-2512
-54 c185 -37 369 -114 533 -222 102 -69 254 -216 341 -332 67 -88 105 -115
181 -127 l45 -7 -12 -371 c-7 -205 -23 -699 -37 -1099 -15 -399 -26 -771 -26
-825 0 -55 -3 -102 -6 -105 -3 -4 -38 5 -77 18 -194 67 -462 123 -711 149
-168 17 -503 20 -692 5 -302 -24 -681 -94 -934 -171 -74 -23 -142 -42 -150
-43 -17 -1 -20 28 -44 529 -30 607 -45 1117 -46 1535 -1 162 -1 301 -1 308 1
6 12 12 25 12 42 0 89 44 180 165 151 204 310 340 522 449 132 69 337 131 494
150 71 9 337 -3 415 -18z m-2615 -72 c236 -42 491 -209 650 -426 l57 -77 6
-553 c7 -565 34 -1350 62 -1788 2 -41 7 -133 11 -205 l6 -130 -88 -43 c-48
-24 -144 -78 -213 -119 -554 -334 -882 -763 -1025 -1343 -109 -445 -98 -880
33 -1261 68 -200 144 -343 274 -519 91 -122 314 -345 442 -440 191 -143 436
-279 675 -375 83 -34 106 -48 111 -66 3 -13 9 -112 13 -219 23 -661 84 -1473
177 -2368 11 -112 19 -205 17 -207 -7 -7 -600 61 -878 101 -289 41 -740 120
-751 131 -9 10 -42 280 -113 928 -72 654 -81 740 -111 1060 -22 230 -86 883
-190 1930 -14 138 -45 448 -70 690 -24 242 -61 609 -80 815 -20 206 -51 533
-70 725 -48 488 -112 1191 -145 1600 -6 66 -21 248 -35 405 -14 157 -38 456
-55 665 -16 209 -32 392 -35 407 -4 24 1 31 35 48 40 20 67 51 170 196 30 42
91 111 135 153 270 255 606 352 985 285z m-2257 -5 c136 -21 291 -96 397 -192
63 -58 146 -159 208 -253 l52 -81 25 -304 c14 -167 38 -475 55 -684 79 -1002
154 -1842 260 -2925 32 -333 71 -724 85 -870 14 -146 43 -441 65 -656 22 -215
53 -535 70 -710 26 -279 76 -775 190 -1899 36 -345 88 -805 124 -1080 14 -104
24 -190 23 -191 -5 -5 -582 127 -591 136 -10 10 -86 388 -177 880 -118 644
-268 1468 -294 1615 -14 83 -59 337 -100 565 -212 1186 -489 2823 -570 3365
-19 127 -53 343 -75 482 -41 258 -187 1272 -214 1488 -37 292 -126 1087 -126
1126 0 24 141 118 226 151 120 46 232 58 367 37z m5037 -3120 c544 -50 988
-209 1423 -509 152 -105 380 -329 479 -470 334 -475 413 -1010 232 -1572 -46
-142 -162 -369 -254 -497 -87 -122 -280 -325 -395 -418 -410 -329 -924 -549
-1488 -637 -460 -73 -879 -53 -1338 63 -248 62 -412 122 -624 226 -616 302
-995 742 -1112 1291 -25 120 -27 145 -27 369 0 249 7 317 55 510 106 427 314
751 660 1027 154 123 502 316 699 389 289 106 660 190 960 218 63 6 131 13
150 14 86 9 476 6 580 -4z m776 -4734 c-9 -225 -21 -498 -26 -605 -5 -107 -17
-334 -25 -505 -14 -277 -28 -495 -65 -1070 -6 -93 -13 -180 -16 -192 l-4 -23
-258 0 c-423 0 -1009 26 -1467 65 -93 8 -179 15 -191 15 -19 0 -21 12 -43 213
-86 810 -153 1703 -177 2363 l-7 182 114 -28 c254 -62 484 -89 804 -97 355 -8
624 22 967 108 147 37 355 101 388 119 23 13 24 -75 6 -545z"/>
<path d="M9470 17217 c-122 -44 -227 -106 -313 -186 -154 -145 -202 -238 -142
-277 34 -22 70 -6 110 48 44 59 164 168 230 207 31 19 100 52 153 73 128 51
160 90 112 138 -26 26 -69 25 -150 -3z"/>
<path d="M9913 16956 c-186 -69 -308 -201 -343 -370 -23 -111 4 -201 81 -270
47 -43 106 -72 229 -110 245 -78 407 -75 493 9 49 47 65 82 75 154 23 168 -45
359 -174 488 -117 118 -229 148 -361 99z m171 -287 c26 -23 56 -60 68 -83 24
-45 50 -145 42 -158 -16 -26 -181 7 -310 62 -36 16 -44 24 -44 45 0 53 50 114
125 154 55 29 65 27 119 -20z"/>
<path d="M7950 16507 c-82 -23 -141 -60 -205 -128 -69 -73 -100 -139 -111
-234 l-7 -55 -62 -30 c-159 -76 -244 -270 -204 -462 34 -161 160 -283 314
-303 62 -8 175 16 229 49 l39 23 54 -33 c71 -42 137 -57 232 -52 140 8 252 82
314 207 30 62 32 71 32 176 -1 97 -4 117 -27 165 -14 30 -42 75 -62 100 l-38
45 -1 125 c-2 118 -4 129 -34 192 -40 84 -101 146 -186 188 -54 27 -80 33
-149 36 -50 2 -101 -1 -128 -9z m176 -272 c13 -8 31 -29 40 -47 18 -36 21
-129 5 -171 -16 -40 -14 -104 4 -140 9 -18 36 -48 62 -67 52 -39 73 -80 73
-140 0 -74 -39 -119 -103 -120 -53 0 -90 22 -123 75 -35 55 -91 81 -156 72
-36 -5 -51 -14 -93 -61 -77 -85 -127 -96 -181 -42 -32 32 -34 39 -34 98 0 104
40 151 128 148 81 -3 90 -1 126 31 44 38 53 80 36 170 -16 82 -5 131 36 173
47 46 127 56 180 21z"/>
<path d="M11061 16144 c-122 -33 -220 -111 -270 -217 -69 -147 -68 -315 3
-455 30 -59 121 -146 178 -171 43 -18 62 -23 140 -36 34 -5 39 -10 49 -48 22
-86 111 -192 198 -236 141 -72 365 -67 534 14 70 33 176 130 209 191 46 88 60
147 56 242 -2 68 -8 98 -28 138 -24 48 -24 54 -12 95 31 101 -9 251 -91 344
-126 144 -401 189 -565 94 l-34 -19 -61 29 c-109 51 -205 62 -306 35z m157
-273 c21 -11 44 -31 52 -46 37 -70 123 -101 194 -71 21 9 56 35 77 59 59 68
145 85 227 46 44 -22 82 -68 82 -102 0 -10 -9 -45 -20 -78 -24 -69 -19 -100
25 -159 54 -73 52 -149 -7 -216 -65 -74 -175 -113 -282 -100 -98 13 -146 72
-150 185 -4 83 -25 125 -76 151 -47 24 -88 25 -137 5 -50 -21 -84 -19 -124 8
-46 30 -69 80 -69 147 0 64 35 148 71 174 31 22 91 20 137 -3z"/>
<path d="M12928 15491 c-131 -42 -256 -163 -283 -274 -9 -34 -7 -33 -92 -51
-89 -18 -143 -45 -204 -103 -95 -89 -143 -237 -120 -375 21 -128 72 -214 170
-288 78 -59 148 -81 274 -89 l108 -6 18 -53 c64 -189 257 -316 481 -315 148 0
256 42 349 135 176 175 158 492 -39 688 l-66 65 17 55 c20 62 24 182 8 249
-26 113 -114 234 -220 302 -115 73 -281 98 -401 60z m215 -276 c74 -31 132
-103 138 -170 5 -66 -3 -94 -48 -169 -38 -65 -47 -88 -47 -128 0 -74 34 -110
141 -148 41 -15 98 -70 123 -120 40 -78 20 -186 -44 -235 -82 -62 -192 -54
-275 21 -65 58 -83 100 -91 206 -5 66 -11 93 -26 109 -51 57 -131 66 -220 25
-76 -35 -151 -35 -209 -1 -102 59 -114 237 -19 283 29 13 42 14 102 2 84 -16
133 -8 173 28 25 23 32 39 43 107 17 108 45 157 111 193 29 16 106 15 148 -3z"/>
<path d="M9481 15374 c-124 -33 -242 -130 -298 -244 l-32 -64 -78 2 c-240 8
-448 -148 -504 -378 -17 -71 -17 -210 0 -280 46 -185 181 -317 359 -351 109
-20 239 18 349 103 l53 40 48 -31 c119 -76 299 -102 428 -63 206 63 357 231
401 447 27 134 -7 276 -91 379 -19 24 -35 58 -39 80 -9 60 -70 179 -117 230
-116 125 -305 177 -479 130z m222 -270 c65 -33 102 -87 112 -166 11 -79 15
-88 65 -143 77 -85 87 -161 33 -270 -52 -107 -138 -165 -245 -165 -82 0 -135
27 -200 101 -56 63 -89 82 -146 82 -54 0 -96 -26 -143 -86 -51 -65 -112 -112
-165 -127 -103 -29 -184 74 -184 234 0 59 5 82 28 127 23 46 35 58 85 83 79
39 152 40 222 3 60 -32 117 -35 162 -7 41 24 49 40 61 122 13 84 32 124 81
172 67 65 154 80 234 40z"/>
<path d="M6658 14890 c-165 -29 -280 -150 -303 -317 l-7 -52 -64 -30 c-289
-135 -312 -587 -37 -723 65 -32 73 -33 183 -33 109 0 118 2 180 32 l65 32 35
-24 c135 -93 316 -106 466 -35 82 39 174 137 205 217 17 44 22 79 22 143 0
119 -26 184 -108 268 -61 62 -62 65 -68 128 -13 168 -157 324 -347 378 -72 20
-163 27 -222 16z m178 -284 c55 -25 119 -93 127 -132 2 -14 2 -54 -1 -90 -6
-78 6 -99 83 -149 73 -46 97 -86 92 -147 -5 -62 -29 -96 -84 -120 -83 -37
-173 -7 -222 73 -17 26 -44 55 -60 64 -63 32 -162 9 -191 -44 -19 -36 -91 -71
-148 -71 -75 0 -104 28 -110 107 -8 115 56 183 159 169 147 -20 215 85 151
232 -26 59 -23 82 15 112 37 29 122 27 189 -4z"/>
<path d="M10993 14536 c-46 -21 -165 -118 -200 -163 -91 -118 -128 -249 -103
-367 17 -84 59 -133 156 -182 109 -54 214 -79 339 -79 83 0 109 4 150 23 108
49 155 132 155 271 0 196 -111 366 -300 461 -90 45 -151 56 -197 36z m129
-301 c61 -45 99 -110 101 -172 l2 -48 -58 -3 c-60 -3 -154 18 -194 44 -29 18
-30 54 -2 111 18 37 82 104 99 103 3 0 26 -16 52 -35z"/>
<path d="M15124 12895 c-21 -32 -33 -93 -79 -380 -150 -950 -225 -1456 -225
-1513 0 -63 21 -92 65 -92 64 0 60 -13 155 600 99 632 200 1316 200 1347 0 58
-85 85 -116 38z"/>
<path d="M14263 6515 c-37 -26 -39 -37 -138 -712 -75 -507 -140 -983 -161
-1178 -15 -140 -15 -165 -3 -189 26 -54 89 -51 116 5 15 32 51 263 98 639 20
157 54 407 76 555 41 279 109 795 109 828 0 21 -43 67 -62 67 -8 0 -23 -7 -35
-15z"/>
<path d="M11445 8709 c-144 -21 -295 -135 -360 -270 -96 -204 -61 -425 92
-578 105 -105 197 -140 358 -141 141 0 257 49 355 150 148 152 183 405 82 594
-66 125 -212 225 -357 246 -79 11 -87 11 -170 -1z"/>
<path d="M7928 8691 c-218 -70 -361 -279 -345 -506 10 -142 62 -253 161 -342
140 -126 357 -159 540 -83 65 27 93 47 151 104 114 113 150 211 143 390 -3 91
-7 108 -39 176 -89 185 -246 281 -458 279 -64 0 -115 -6 -153 -18z"/>
<path d="M9135 8219 c-45 -40 -59 -92 -51 -189 10 -114 33 -195 84 -300 121
-248 399 -404 692 -387 186 11 329 75 460 207 141 141 210 306 210 502 0 75
-4 99 -20 125 -40 67 -110 87 -179 51 -57 -29 -81 -74 -81 -149 0 -136 -41
-249 -120 -333 -164 -173 -462 -175 -634 -3 -91 90 -136 206 -136 348 0 62 -4
81 -21 103 -29 37 -71 56 -123 56 -36 0 -52 -6 -81 -31z"/>
</g>
</svg>
