<?xml version="1.0" standalone="no"?>
<!DOCTYPE svg PUBLIC "-//W3C//DTD SVG 20010904//EN"
 "http://www.w3.org/TR/2001/REC-SVG-20010904/DTD/svg10.dtd">
<svg version="1.0" xmlns="http://www.w3.org/2000/svg"
 width="1024.000000pt" height="1024.000000pt" viewBox="0 0 1024.000000 1024.000000"
 preserveAspectRatio="xMidYMid meet">
<metadata>
Created by potrace 1.16, written by Peter Selinger 2001-2019
</metadata>
<g transform="translate(0.000000,1024.000000) scale(0.100000,-0.100000)"
fill="#000000" stroke="none">
<path d="M5205 7854 c-16 -2 -73 -9 -125 -15 -656 -75 -1356 -345 -1875 -724
-211 -153 -483 -412 -638 -605 -153 -190 -311 -452 -387 -644 -85 -215 -109
-451 -62 -602 17 -58 23 -102 25 -225 5 -181 24 -265 91 -404 102 -209 306
-362 631 -475 578 -199 1993 -453 3185 -570 282 -28 260 -21 260 -74 0 -127
58 -267 148 -355 194 -190 503 -188 694 4 84 85 130 182 147 308 6 48 7 49 57
66 164 55 287 208 315 391 17 108 6 566 -14 641 -91 326 -823 1924 -1056 2304
-33 54 -86 120 -131 166 l-76 75 4 91 c17 360 -191 574 -620 637 -97 15 -477
21 -573 10z m434 -223 c11 -7 12 -13 4 -23 -32 -41 -18 -124 28 -162 40 -34
113 -36 154 -4 32 25 55 74 55 119 0 29 2 31 28 24 101 -24 196 -96 236 -178
23 -45 26 -63 26 -160 0 -98 -2 -108 -17 -103 -144 41 -265 57 -494 63 -228 6
-351 -2 -564 -38 -907 -152 -1718 -726 -2088 -1477 -34 -70 -75 -167 -91 -217
-16 -49 -33 -94 -37 -99 -5 -5 -18 3 -31 20 -42 54 -93 94 -158 127 -60 30
-72 32 -165 32 -88 0 -107 -3 -157 -27 -32 -15 -58 -23 -58 -19 0 21 52 212
72 261 62 158 228 438 326 550 l39 44 16 -30 c33 -63 116 -89 176 -56 40 22
71 73 71 118 0 40 -37 95 -78 116 -19 9 -36 19 -39 22 -14 14 255 259 417 380
492 366 1179 633 1810 705 52 6 109 13 125 15 67 7 381 5 394 -3z m153 -651
c335 -32 542 -110 626 -236 40 -60 373 -728 507 -1019 196 -423 451 -1017 495
-1149 29 -88 -15 -177 -109 -223 l-56 -28 -220 1 c-444 2 -1465 109 -2190 229
-741 124 -1383 297 -1698 457 l-98 50 7 57 c25 211 136 480 296 721 183 274
478 550 794 741 495 301 1109 450 1646 399z m-3173 -1674 c52 -36 121 -138
167 -246 20 -47 46 -98 57 -114 57 -82 332 -210 687 -321 685 -215 1734 -393
2890 -489 735 -62 843 -58 1023 32 4 2 7 -50 7 -115 0 -97 -4 -126 -21 -163
-41 -91 -104 -134 -221 -150 -81 -12 -115 -29 -122 -63 -3 -12 -7 -67 -9 -122
-4 -116 -23 -171 -82 -230 -72 -71 -167 -97 -258 -71 -74 21 -133 69 -171 136
-30 53 -31 59 -33 192 -1 75 -6 145 -12 156 -16 29 -53 39 -201 51 -74 7 -279
27 -455 47 -934 103 -1921 269 -2549 429 -456 116 -632 191 -773 331 -124 122
-170 234 -180 439 -8 156 17 242 84 287 41 28 119 20 172 -16z"/>
<path d="M5463 6686 c-264 -86 -347 -426 -151 -618 74 -72 143 -101 252 -106
75 -3 101 0 146 17 121 46 205 140 236 261 45 176 -39 351 -205 428 -67 31
-211 40 -278 18z m205 -233 c67 -50 85 -127 46 -194 -59 -100 -220 -96 -269 8
-36 76 2 168 85 202 35 15 108 7 138 -16z"/>
<path d="M4107 5969 c-107 -25 -218 -123 -256 -224 -28 -76 -28 -184 0 -262
29 -78 122 -171 201 -201 198 -74 401 3 486 186 23 49 27 70 27 152 0 112 -18
161 -86 235 -94 102 -236 146 -372 114z m164 -234 c64 -34 89 -128 50 -191
-22 -35 -75 -64 -120 -64 -41 0 -104 32 -124 64 -25 38 -22 115 6 148 45 56
127 74 188 43z"/>
<path d="M6154 5510 c-125 -18 -238 -101 -292 -218 -24 -50 -27 -69 -27 -162
0 -126 17 -172 95 -254 85 -90 223 -138 336 -117 131 25 232 98 287 210 30 61
32 73 32 166 0 87 -3 107 -27 157 -71 153 -235 241 -404 218z m126 -242 c58
-29 95 -97 84 -152 -15 -85 -85 -140 -167 -133 -61 5 -96 30 -125 90 -29 57
-24 109 17 158 49 59 120 72 191 37z"/>
</g>
</svg>
