<?xml version="1.0" encoding="UTF-8" standalone="no"?>
<!DOCTYPE svg PUBLIC "-//W3C//DTD SVG 1.1//EN" "http://www.w3.org/Graphics/SVG/1.1/DTD/svg11.dtd">
<svg width="100%" height="100%" viewBox="0 0 1024 1024" version="1.1" xmlns="http://www.w3.org/2000/svg" xmlns:xlink="http://www.w3.org/1999/xlink" xml:space="preserve" xmlns:serif="http://www.serif.com/" style="fill-rule:evenodd;clip-rule:evenodd;stroke-linejoin:round;stroke-miterlimit:2;">
    <rect id="Artboard1" x="0" y="0" width="1024" height="1024" style="fill:none;"/>
    <g id="Artboard11" serif:id="Artboard1">
        <g transform="matrix(0.114809,0,0,-0.114809,-75.3334,961.891)">
            <path d="M5450,6643C5373,6635 5243,6608 5166,6584C5076,6555 4899,6470 4823,6419C4569,6247 4367,5974 4257,5655C4187,5451 4140,5191 4140,5005L4140,4912L4098,4905C4025,4892 3939,4860 3795,4790C3505,4650 3403,4641 3060,4725C2810,4786 2677,4804 2520,4797C2165,4782 1864,4605 1650,4285C1565,4157 1526,4076 1476,3923C1329,3468 1404,2944 1668,2576C1781,2420 1991,2250 2183,2160C2460,2030 2777,1968 3142,1971L3349,1973L3401,1894C3431,1850 3507,1762 3574,1694C3800,1469 4031,1341 4375,1255C4560,1208 4738,1188 4970,1188C5366,1189 5661,1256 5995,1421C6167,1505 6289,1587 6413,1701L6490,1772L6588,1746C6898,1665 7226,1655 7558,1716C8001,1797 8401,2039 8616,2355C8693,2467 8732,2546 8769,2658C8850,2902 8850,3175 8769,3406C8648,3754 8401,3985 8055,4076C7961,4101 7936,4103 7630,4110C7341,4117 7297,4120 7232,4139C7149,4163 7022,4225 6940,4280C6910,4300 6879,4319 6872,4321C6859,4325 6839,4373 6729,4659C6643,4881 6640,5006 6711,5319C6776,5607 6755,5821 6640,6050C6564,6200 6397,6377 6244,6468C6017,6603 5710,6671 5450,6643ZM5743,6395C6114,6339 6410,6096 6491,5782C6517,5681 6516,5535 6489,5410C6445,5204 6431,5103 6430,4990C6430,4799 6453,4700 6551,4462C6633,4264 6661,4166 6667,4045C6675,3906 6639,3737 6584,3652L6569,3629L6522,3672C6430,3758 6322,3819 6185,3863C6067,3901 5967,3914 5832,3907C5697,3901 5625,3883 5410,3805C5195,3727 5090,3707 4915,3713C4838,3715 4767,3721 4758,3725C4732,3736 4603,3931 4559,4026C4424,4318 4360,4651 4373,4990C4391,5450 4531,5818 4784,6076C5040,6335 5383,6449 5743,6395ZM4154,4648C4157,4635 4164,4589 4170,4545C4203,4315 4292,4021 4373,3878C4384,3857 4392,3838 4389,3836C4387,3833 4364,3836 4340,3842C4315,3847 4237,3852 4165,3852C4060,3851 4016,3846 3937,3826C3550,3727 3273,3418 3174,2975C3143,2838 3144,2571 3176,2413L3183,2380L3029,2380C2851,2380 2732,2397 2592,2441C2427,2494 2280,2576 2152,2688C2093,2739 2087,2742 2072,2726C2057,2711 2059,2707 2100,2664C2243,2516 2480,2396 2730,2343C2794,2330 2862,2326 3007,2325L3198,2325L3210,2286C3216,2265 3224,2242 3226,2235C3234,2215 3066,2207 2915,2220C2428,2261 2040,2458 1843,2763C1775,2868 1715,3003 1685,3120C1649,3262 1638,3536 1664,3675C1712,3931 1825,4148 1999,4321C2083,4404 2108,4422 2200,4468C2349,4541 2407,4554 2570,4554C2717,4554 2755,4548 2995,4490C3192,4443 3275,4430 3382,4430C3536,4431 3694,4472 3853,4551C3943,4597 4118,4670 4137,4670C4144,4670 4152,4660 4154,4648ZM6981,3976C7178,3885 7277,3868 7620,3865C7936,3863 8011,3851 8153,3779C8391,3660 8532,3456 8576,3166C8604,2986 8575,2808 8490,2634C8381,2410 8220,2248 7970,2112C7647,1937 7182,1878 6762,1959C6712,1969 6667,1979 6664,1983C6661,1986 6671,2012 6687,2040C6718,2097 6704,2095 6840,2063C6896,2050 6959,2046 7095,2045C7301,2045 7333,2050 7328,2083C7325,2105 7324,2105 7160,2101C7036,2099 6970,2102 6895,2115C6736,2142 6745,2131 6792,2251C6937,2622 6931,3013 6774,3336L6730,3427L6774,3511C6843,3641 6876,3762 6896,3953C6899,3984 6903,4010 6904,4010C6906,4010 6940,3995 6981,3976ZM6090,3679C6399,3594 6616,3330 6675,2968C6733,2607 6606,2203 6348,1934C6204,1784 6072,1686 5890,1595C5373,1336 4622,1321 4111,1561C3725,1742 3445,2104 3373,2515C3350,2647 3360,2875 3393,2990C3471,3264 3627,3468 3843,3576C4033,3672 4232,3675 4528,3584C4681,3538 4782,3519 4920,3514C5114,3506 5215,3523 5475,3611C5590,3650 5719,3688 5760,3696C5856,3713 5993,3706 6090,3679Z" style="fill-rule:nonzero;"/>
        </g>
        <g transform="matrix(0.114809,0,0,-0.114809,-75.3334,961.891)">
            <path d="M5956,6005C5874,5976 5830,5909 5830,5813C5830,5741 5858,5681 5908,5647C5999,5584 6102,5591 6174,5664C6260,5749 6260,5868 6175,5956C6117,6017 6038,6035 5956,6005ZM6094,5929C6151,5884 6107,5796 6036,5814C5981,5828 5977,5910 6030,5937C6063,5954 6063,5954 6094,5929Z" style="fill-rule:nonzero;"/>
        </g>
        <g transform="matrix(0.114809,0,0,-0.114809,-75.3334,961.891)">
            <path d="M4911,5990C4801,5964 4732,5826 4774,5715C4802,5642 4888,5580 4964,5580C5001,5580 5060,5603 5096,5633C5193,5713 5194,5862 5097,5947C5043,5994 4985,6007 4911,5990ZM5001,5902C5048,5863 5017,5780 4954,5780C4897,5780 4871,5853 4912,5897C4938,5925 4970,5926 5001,5902Z" style="fill-rule:nonzero;"/>
        </g>
        <g transform="matrix(0.114809,0,0,-0.114809,-75.3334,961.891)">
            <path d="M5692,5643C5687,5633 5680,5608 5676,5588C5658,5490 5543,5433 5447,5474C5401,5493 5370,5531 5350,5592C5335,5640 5330,5645 5304,5645C5216,5645 5275,5469 5385,5405C5440,5372 5529,5362 5595,5380C5651,5396 5722,5457 5749,5513C5772,5561 5777,5629 5758,5648C5740,5666 5702,5663 5692,5643Z" style="fill-rule:nonzero;"/>
        </g>
        <g transform="matrix(0.114809,0,0,-0.114809,-75.3334,961.891)">
            <path d="M6052,5488C6033,5463 6000,5390 6000,5371C6000,5348 6025,5336 6038,5353C6043,5360 6060,5389 6074,5418C6095,5460 6099,5475 6089,5486C6075,5503 6065,5504 6052,5488Z" style="fill-rule:nonzero;"/>
        </g>
        <g transform="matrix(0.114809,0,0,-0.114809,-75.3334,961.891)">
            <path d="M6141,5445C6100,5373 6097,5345 6128,5345C6147,5345 6159,5358 6185,5408C6220,5473 6221,5500 6190,5500C6179,5500 6160,5480 6141,5445Z" style="fill-rule:nonzero;"/>
        </g>
        <g transform="matrix(0.114809,0,0,-0.114809,-75.3334,961.891)">
            <path d="M6260,5443C6223,5385 6215,5361 6228,5348C6247,5329 6269,5348 6299,5408C6321,5452 6326,5470 6317,5479C6299,5497 6291,5492 6260,5443Z" style="fill-rule:nonzero;"/>
        </g>
        <g transform="matrix(0.114809,0,0,-0.114809,-75.3334,961.891)">
            <path d="M4704,5403C4663,5339 4656,5307 4682,5302C4702,5298 4782,5414 4777,5440C4771,5475 4741,5460 4704,5403Z" style="fill-rule:nonzero;"/>
        </g>
        <g transform="matrix(0.114809,0,0,-0.114809,-75.3334,961.891)">
            <path d="M4814,5380C4775,5322 4769,5308 4780,5295C4787,5287 4796,5280 4801,5280C4806,5280 4831,5311 4856,5350C4895,5408 4901,5422 4890,5435C4883,5443 4874,5450 4869,5450C4864,5450 4839,5419 4814,5380Z" style="fill-rule:nonzero;"/>
        </g>
        <g transform="matrix(0.114809,0,0,-0.114809,-75.3334,961.891)">
            <path d="M4965,5412C4946,5400 4900,5312 4900,5291C4900,5254 4929,5269 4966,5324C5000,5376 5007,5410 4985,5417C4980,5418 4970,5416 4965,5412Z" style="fill-rule:nonzero;"/>
        </g>
        <g transform="matrix(0.114809,0,0,-0.114809,-75.3334,961.891)">
            <path d="M6230,5236C6210,5181 6197,5073 6203,4991C6209,4894 6243,4772 6266,4763C6299,4751 6302,4776 6280,4866C6261,4942 6259,4970 6264,5065C6268,5125 6272,5193 6273,5215C6275,5246 6271,5255 6258,5258C6246,5260 6237,5252 6230,5236Z" style="fill-rule:nonzero;"/>
        </g>
        <g transform="matrix(0.114809,0,0,-0.114809,-75.3334,961.891)">
            <path d="M2300,4366C2043,4294 1785,3957 1802,3717C1806,3665 1811,3653 1838,3629C1863,3607 1880,3600 1913,3600C1976,3600 2013,3629 2076,3727C2174,3881 2208,3905 2386,3950C2532,3987 2599,4019 2645,4073C2736,4179 2700,4309 2564,4359C2501,4383 2374,4386 2300,4366ZM2557,4298C2582,4286 2609,4263 2621,4243C2640,4213 2641,4204 2631,4171C2606,4086 2554,4054 2373,4009C2310,3994 2238,3971 2213,3959C2150,3929 2071,3847 2027,3768C1987,3697 1950,3660 1917,3660C1795,3660 1881,3953 2059,4143C2205,4300 2413,4365 2557,4298Z" style="fill-rule:nonzero;"/>
        </g>
        <g transform="matrix(0.114809,0,0,-0.114809,-75.3334,961.891)">
            <path d="M7804,3631C7785,3619 7767,3597 7761,3577C7743,3525 7765,3484 7846,3415C7884,3383 7947,3320 7987,3275C8088,3159 8159,3128 8245,3164C8294,3185 8320,3232 8320,3300C8320,3370 8295,3425 8233,3491C8170,3559 8112,3595 8017,3625C7922,3655 7847,3657 7804,3631ZM8053,3547C8174,3487 8260,3387 8260,3306C8260,3257 8252,3241 8218,3224C8162,3195 8108,3223 8022,3326C7994,3360 7940,3414 7903,3445C7866,3477 7829,3513 7822,3526C7811,3547 7812,3552 7831,3571C7864,3604 7959,3593 8053,3547Z" style="fill-rule:nonzero;"/>
        </g>
        <g transform="matrix(0.114809,0,0,-0.114809,-75.3334,961.891)">
            <path d="M8341,2910C8328,2811 8307,2748 8254,2654C8223,2598 8222,2591 8236,2579C8250,2567 8256,2570 8280,2598C8349,2680 8400,2828 8400,2942C8400,2996 8399,3000 8376,3000C8354,3000 8352,2995 8341,2910Z" style="fill-rule:nonzero;"/>
        </g>
        <g transform="matrix(0.114809,0,0,-0.114809,-75.3334,961.891)">
            <path d="M4010,3526C3940,3506 3866,3465 3832,3425C3790,3377 3787,3321 3826,3291C3857,3266 3886,3265 3960,3285C3994,3294 4061,3300 4136,3300C4245,3300 4260,3302 4291,3323C4310,3335 4331,3358 4338,3374C4366,3432 4311,3505 4221,3530C4173,3543 4066,3541 4010,3526ZM4211,3470C4230,3464 4257,3449 4270,3435L4294,3410L4272,3387C4251,3367 4239,3365 4126,3363C4046,3362 3983,3356 3946,3345C3855,3318 3834,3341 3895,3400C3959,3462 4114,3497 4211,3470Z" style="fill-rule:nonzero;"/>
        </g>
        <g transform="matrix(0.114809,0,0,-0.114809,-75.3334,961.891)">
            <path d="M5646,3225C5571,3199 5506,3113 5494,3027C5486,2968 5512,2879 5552,2834C5600,2779 5654,2756 5730,2756C5835,2756 5925,2814 5960,2905C5977,2947 5975,3048 5958,3090C5908,3209 5769,3269 5646,3225ZM5839,3140C5870,3124 5885,3075 5870,3040C5835,2955 5716,2984 5716,3077C5716,3135 5783,3170 5839,3140Z" style="fill-rule:nonzero;"/>
        </g>
        <g transform="matrix(0.114809,0,0,-0.114809,-75.3334,961.891)">
            <path d="M4065,3082C3976,3039 3921,2954 3920,2860C3920,2782 3936,2735 3978,2688C4053,2605 4168,2585 4271,2638C4441,2724 4455,2972 4294,3066C4232,3103 4124,3110 4065,3082ZM4278,2984C4325,2932 4290,2850 4221,2850C4130,2850 4102,2970 4185,3006C4222,3022 4248,3016 4278,2984Z" style="fill-rule:nonzero;"/>
        </g>
        <g transform="matrix(0.114809,0,0,-0.114809,-75.3334,961.891)">
            <path d="M3541,3032C3511,2976 3489,2850 3492,2749C3495,2650 3496,2645 3518,2642C3539,2639 3540,2641 3540,2722C3541,2803 3554,2887 3581,2983C3593,3025 3592,3032 3580,3040C3559,3054 3552,3052 3541,3032Z" style="fill-rule:nonzero;"/>
        </g>
        <g transform="matrix(0.114809,0,0,-0.114809,-75.3334,961.891)">
            <path d="M5217,2803C5213,2800 5210,2775 5210,2749C5210,2722 5205,2690 5199,2677C5172,2617 5086,2623 5017,2691C4995,2712 4974,2730 4970,2730C4966,2730 4946,2710 4925,2685C4882,2632 4844,2610 4797,2610C4752,2610 4729,2637 4723,2697C4716,2754 4706,2770 4674,2770C4637,2770 4625,2733 4639,2664C4675,2482 4791,2380 4960,2380C5098,2380 5203,2446 5262,2569C5298,2644 5313,2767 5290,2795C5277,2810 5229,2816 5217,2803ZM5056,2560C5088,2549 5121,2537 5129,2535C5151,2527 5117,2495 5057,2470C5015,2452 4993,2448 4933,2452C4862,2457 4798,2483 4816,2500C4833,2515 4965,2580 4981,2580C4990,2580 5023,2571 5056,2560Z" style="fill-rule:nonzero;"/>
        </g>
        <g transform="matrix(0.114809,0,0,-0.114809,-75.3334,961.891)">
            <path d="M5987,2713C5983,2710 5980,2700 5980,2691C5980,2669 6068,2560 6086,2560C6116,2560 6111,2591 6074,2642C6024,2713 6003,2730 5987,2713Z" style="fill-rule:nonzero;"/>
        </g>
        <g transform="matrix(0.114809,0,0,-0.114809,-75.3334,961.891)">
            <path d="M5863,2673C5856,2670 5850,2661 5850,2651C5850,2627 5938,2510 5956,2510C5987,2510 5982,2543 5939,2605C5894,2671 5884,2680 5863,2673Z" style="fill-rule:nonzero;"/>
        </g>
        <g transform="matrix(0.114809,0,0,-0.114809,-75.3334,961.891)">
            <path d="M5710,2611C5710,2591 5794,2470 5809,2470C5825,2470 5842,2499 5834,2512C5777,2608 5710,2661 5710,2611Z" style="fill-rule:nonzero;"/>
        </g>
        <g transform="matrix(0.114809,0,0,-0.114809,-75.3334,961.891)">
            <path d="M6460,2565C6442,2517 6443,2476 6463,2472C6483,2468 6513,2528 6508,2563C6503,2596 6472,2597 6460,2565Z" style="fill-rule:nonzero;"/>
        </g>
        <g transform="matrix(0.114809,0,0,-0.114809,-75.3334,961.891)">
            <path d="M3896,2489C3852,2415 3847,2386 3876,2382C3893,2380 3906,2394 3939,2450C3982,2523 3986,2550 3951,2550C3939,2550 3920,2530 3896,2489Z" style="fill-rule:nonzero;"/>
        </g>
        <g transform="matrix(0.114809,0,0,-0.114809,-75.3334,961.891)">
            <path d="M4047,2493C4011,2437 3990,2393 3990,2377C3990,2356 4021,2347 4035,2362C4062,2391 4113,2498 4107,2514C4096,2541 4072,2532 4047,2493Z" style="fill-rule:nonzero;"/>
        </g>
        <g transform="matrix(0.114809,0,0,-0.114809,-75.3334,961.891)">
            <path d="M4202,2488C4197,2481 4180,2451 4166,2422C4145,2380 4141,2365 4151,2354C4157,2346 4169,2340 4176,2340C4195,2340 4255,2463 4247,2484C4239,2503 4216,2505 4202,2488Z" style="fill-rule:nonzero;"/>
        </g>
        <g transform="matrix(0.114809,0,0,-0.114809,-75.3334,961.891)">
            <path d="M6392,2348C6387,2341 6368,2306 6350,2270C6272,2113 6129,1963 5962,1862C5895,1821 5724,1748 5631,1720C5568,1701 5559,1696 5562,1677C5566,1648 5598,1650 5720,1691C5995,1783 6227,1956 6358,2170C6426,2280 6449,2338 6429,2351C6410,2363 6404,2362 6392,2348Z" style="fill-rule:nonzero;"/>
        </g>
    </g>
</svg>
