<?xml version="1.0" standalone="no"?>
<!DOCTYPE svg PUBLIC "-//W3C//DTD SVG 20010904//EN"
 "http://www.w3.org/TR/2001/REC-SVG-20010904/DTD/svg10.dtd">
<svg version="1.0" xmlns="http://www.w3.org/2000/svg"
 width="1024.000000pt" height="1024.000000pt" viewBox="0 0 1024.000000 1024.000000"
 preserveAspectRatio="xMidYMid meet">
<metadata>
Created by potrace 1.16, written by Peter Selinger 2001-2019
</metadata>
<g transform="translate(0.000000,1024.000000) scale(0.100000,-0.100000)"
fill="#000000" stroke="none">
<path d="M4171 7160 c-379 -11 -403 -16 -437 -82 -15 -28 -16 -56 -11 -213 3
-99 11 -208 17 -243 l11 -63 -87 -127 c-129 -190 -245 -368 -336 -515 l-81
-132 -10 -120 c-14 -169 -13 -1516 2 -1905 17 -466 37 -752 55 -794 9 -23 26
-40 43 -47 62 -23 394 -33 1118 -32 407 1 835 5 950 10 l210 9 230 109 c387
184 739 361 759 383 25 29 33 110 47 504 15 446 16 1664 1 1877 l-12 163 -80
112 c-76 106 -186 246 -351 448 l-77 93 11 60 c6 33 11 139 11 235 1 263 7
258 -323 271 -266 10 -1295 9 -1660 -1z m1523 -100 c192 -5 352 -12 355 -16
16 -15 7 -373 -10 -388 -2 -2 -256 -9 -564 -15 -308 -7 -742 -16 -965 -21
-223 -5 -463 -10 -535 -11 l-130 -2 -7 44 c-4 24 -10 121 -14 216 l-7 171 54
7 c164 20 1304 29 1823 15z m249 -533 c-4 -8 -52 -78 -105 -158 -53 -79 -146
-223 -206 -319 l-109 -175 -69 -7 c-88 -8 -2044 -23 -2044 -15 0 11 181 291
303 468 l122 177 250 7 c1299 36 1871 43 1858 22z m265 -188 c73 -90 167 -208
208 -261 70 -92 73 -98 52 -103 -65 -15 -807 -100 -813 -93 -6 5 105 182 298
476 55 84 105 151 111 149 6 -2 71 -77 144 -168z m343 -594 c18 -360 5 -1847
-19 -2185 l-7 -95 -365 -182 c-387 -193 -527 -259 -534 -252 -10 10 -17 387
-26 1404 -5 589 -11 1128 -12 1200 l-3 130 350 41 c193 23 397 49 455 57 168
24 154 35 161 -118z m-1067 -357 c12 -746 27 -2370 22 -2375 -33 -33 -2085
-29 -2117 4 -8 9 -23 220 -40 543 -13 274 -24 1653 -14 1954 l7 238 407 -6
c223 -3 624 -2 891 2 267 5 564 9 661 10 l177 2 6 -372z"/>
<path d="M4814 4701 c-125 -76 -120 -258 8 -320 85 -41 185 -15 236 62 21 32
27 52 26 96 0 72 -23 114 -82 152 -57 36 -138 40 -188 10z m50 -97 c19 -18 19
-20 6 -45 -17 -31 -70 -18 -70 17 0 14 27 44 40 44 5 0 16 -7 24 -16z"/>
<path d="M3897 4696 c-75 -28 -117 -90 -117 -173 0 -62 26 -110 79 -148 87
-61 213 -29 262 67 28 55 23 140 -10 186 -44 62 -144 94 -214 68z m17 -102 c9
-8 16 -19 16 -24 0 -13 -30 -40 -44 -40 -17 0 -36 21 -36 40 0 19 19 40 36 40
7 0 20 -7 28 -16z"/>
<path d="M5016 4314 c-9 -8 -16 -24 -16 -34 0 -38 27 -50 111 -50 66 0 82 3
99 20 25 25 25 42 2 63 -26 24 -173 24 -196 1z"/>
<path d="M4262 4294 c-18 -12 -22 -25 -22 -71 0 -31 5 -74 12 -96 36 -121 194
-165 288 -81 51 46 61 76 58 169 -3 76 -4 80 -30 89 -22 8 -32 6 -48 -9 -16
-15 -20 -30 -20 -86 0 -61 -3 -70 -26 -88 -37 -29 -70 -26 -105 8 -26 26 -29
36 -29 90 0 51 -3 62 -22 75 -12 9 -25 16 -28 16 -3 0 -16 -7 -28 -16z"/>
<path d="M3652 4268 c-7 -7 -12 -24 -12 -38 0 -42 17 -50 110 -50 72 0 90 3
103 18 21 23 22 46 1 66 -19 20 -183 23 -202 4z"/>
</g>
</svg>
