<?xml version="1.0" standalone="no"?>
<!DOCTYPE svg PUBLIC "-//W3C//DTD SVG 20010904//EN"
 "http://www.w3.org/TR/2001/REC-SVG-20010904/DTD/svg10.dtd">
<svg version="1.0" xmlns="http://www.w3.org/2000/svg"
 width="1024.000000pt" height="1024.000000pt" viewBox="0 0 1024.000000 1024.000000"
 preserveAspectRatio="xMidYMid meet">
<metadata>
Created by potrace 1.16, written by Peter Selinger 2001-2019
</metadata>
<g transform="translate(0.000000,1024.000000) scale(0.100000,-0.100000)"
fill="#000000" stroke="none">
<path d="M5964 7722 c-18 -11 -30 -43 -43 -107 l-13 -60 -91 -1 c-238 -3 -531
-138 -729 -335 -79 -79 -100 -118 -78 -144 16 -19 39 -19 123 1 118 29 226 -7
322 -107 33 -34 65 -59 77 -59 12 0 41 18 65 41 48 44 105 73 166 84 28 6 37
4 37 -6 0 -8 -16 -84 -37 -170 l-36 -156 -171 -7 c-94 -3 -362 -11 -596 -16
-1037 -25 -1063 -27 -1083 -51 -22 -27 -18 -40 45 -149 88 -154 141 -318 160
-496 14 -133 4 -239 -41 -429 -58 -249 -63 -382 -20 -563 94 -404 460 -712
889 -748 l77 -7 7 -75 c3 -41 6 -132 6 -201 l0 -127 -102 -12 c-283 -33 -485
-118 -518 -217 -47 -144 177 -235 577 -235 358 0 649 69 743 177 42 47 42 109
0 156 -60 69 -239 120 -470 135 l-115 7 -8 190 c-4 105 -5 195 -3 201 2 6 28
14 56 18 80 11 206 53 300 102 275 141 471 412 521 718 17 108 7 321 -20 416
-74 260 -83 305 -88 436 -9 219 31 393 142 614 54 107 55 113 40 136 -15 23
-21 24 -116 24 l-101 0 7 33 c4 17 20 85 36 150 16 65 29 120 29 123 0 2 9 4
20 4 29 0 127 -98 158 -159 35 -70 53 -82 89 -58 85 55 184 78 267 63 19 -4
60 -24 93 -46 80 -55 113 -51 113 15 0 46 -109 257 -184 356 -109 144 -275
281 -393 324 -26 10 -51 21 -55 24 -4 3 0 31 8 61 8 30 14 67 14 81 0 45 -43
73 -76 51z m44 -305 c142 -58 302 -197 412 -358 33 -48 60 -90 60 -92 0 -3
-35 -3 -77 0 -66 5 -90 1 -153 -20 -41 -14 -77 -21 -78 -16 -2 5 -21 32 -43
59 -130 164 -366 203 -537 89 -24 -16 -45 -29 -48 -29 -3 0 -25 16 -47 36 -60
51 -157 96 -224 103 l-56 6 48 39 c100 83 282 170 418 201 96 22 247 14 325
-18z m-90 -824 c-121 -250 -164 -439 -154 -673 5 -137 15 -185 91 -455 48
-172 43 -326 -16 -510 -68 -212 -237 -409 -439 -510 -304 -153 -673 -119 -953
87 -233 172 -364 459 -343 752 5 71 47 286 73 376 3 10 10 7 26 -13 44 -54
223 -98 483 -117 323 -24 785 41 973 137 84 43 111 77 96 119 -26 71 -126 93
-430 94 -451 0 -977 -66 -1101 -139 l-32 -19 1 146 c2 217 -31 365 -125 565
-28 59 -49 109 -47 111 2 2 204 9 449 16 245 7 636 18 870 25 553 16 582 16
578 8z m-394 -804 c135 -12 162 -20 126 -39 -171 -91 -676 -158 -995 -131
-145 13 -355 49 -355 61 0 16 133 42 350 69 132 17 231 25 530 45 108 7 233 5
344 -5z m-72 -2088 c93 -21 136 -39 158 -67 13 -14 11 -19 -15 -39 -65 -53
-308 -107 -540 -120 -265 -16 -612 53 -564 112 34 40 176 91 329 117 142 24
150 24 355 21 146 -3 210 -8 277 -24z"/>
</g>
</svg>
