<?xml version="1.0" standalone="no"?>
<!DOCTYPE svg PUBLIC "-//W3C//DTD SVG 20010904//EN"
 "http://www.w3.org/TR/2001/REC-SVG-20010904/DTD/svg10.dtd">
<svg version="1.0" xmlns="http://www.w3.org/2000/svg"
 width="1024.000000pt" height="1024.000000pt" viewBox="0 0 1024.000000 1024.000000"
 preserveAspectRatio="xMidYMid meet">
<metadata>
Created by potrace 1.16, written by Peter Selinger 2001-2019
</metadata>
<g transform="translate(0.000000,1024.000000) scale(0.100000,-0.100000)"
fill="#000000" stroke="none">
<path d="M4714 7910 c-37 -14 -43 -32 -41 -126 2 -86 0 -94 -35 -166 -49 -98
-136 -181 -283 -267 -150 -89 -234 -170 -288 -279 -41 -84 -42 -87 -42 -191 0
-58 4 -123 8 -144 6 -27 5 -38 -5 -40 -257 -64 -446 -211 -543 -422 -41 -88
-57 -156 -64 -269 l-6 -88 -61 -22 c-226 -82 -402 -259 -494 -497 -135 -350
-33 -772 243 -1004 l59 -50 -28 -5 c-41 -7 -66 -59 -61 -125 2 -31 36 -133 86
-265 46 -118 112 -291 147 -385 199 -522 487 -1252 526 -1328 23 -45 40 -65
84 -93 157 -100 473 -191 804 -230 280 -34 696 -20 967 32 305 58 587 175 649
268 33 52 259 625 586 1486 171 452 190 509 183 557 -4 24 -17 53 -32 69 l-26
28 24 19 c168 132 267 273 304 430 19 80 19 235 0 316 -35 147 -149 295 -288
375 -58 33 -67 43 -62 60 25 83 35 206 25 304 -35 330 -264 586 -577 644 -59
11 -63 13 -63 39 0 16 -5 52 -11 81 -64 316 -338 546 -687 577 l-74 6 -27 70
c-120 310 -462 563 -861 639 -9 2 -25 0 -36 -4z m157 -151 c318 -103 577 -341
653 -598 23 -79 27 -81 120 -81 352 -1 646 -265 646 -580 0 -91 9 -100 106
-110 143 -15 254 -70 364 -180 122 -121 174 -253 173 -435 0 -83 -5 -115 -30
-188 -37 -110 -33 -119 69 -169 219 -106 339 -330 294 -548 -40 -191 -173
-361 -356 -454 -141 -72 -254 -97 -447 -97 -166 0 -296 19 -441 63 -118 36
-112 37 -212 -47 -87 -74 -276 -168 -405 -201 -136 -35 -343 -44 -465 -20
-233 46 -405 132 -575 286 -39 36 -62 49 -73 45 -71 -28 -237 -76 -332 -96
-158 -32 -386 -33 -505 -1 -134 37 -218 84 -309 176 -93 93 -137 162 -177 278
-38 110 -53 214 -46 319 7 116 29 196 84 309 40 80 61 109 137 185 116 116
204 163 367 199 36 8 50 43 37 97 -14 60 -3 181 23 258 26 76 103 194 160 246
97 87 249 158 389 180 84 13 100 54 53 134 -25 42 -28 55 -28 141 0 85 3 101
30 153 34 69 118 150 202 198 250 141 383 297 414 485 6 41 13 74 14 74 1 0
31 -9 66 -21z m-533 -3497 c82 -70 141 -108 245 -157 96 -46 236 -95 268 -95
11 0 19 -5 19 -10 0 -7 -18 -9 -47 -6 -27 3 -113 8 -193 11 -473 20 -1060 118
-1252 211 -44 21 -41 36 5 23 224 -64 567 -44 827 50 30 11 59 20 63 20 5 1
34 -21 65 -47z m1848 -43 c166 -29 410 -31 524 -5 41 9 91 19 110 22 35 5 35
5 10 -10 -36 -20 -167 -61 -290 -90 -262 -61 -678 -115 -1020 -131 l-125 -6
103 35 c126 43 259 111 364 186 l80 57 57 -17 c31 -10 115 -28 187 -41z m614
-496 c-234 -622 -519 -1354 -554 -1421 -37 -72 -269 -172 -516 -223 -420 -87
-834 -88 -1260 -3 -215 43 -463 137 -516 195 -28 31 -221 516 -555 1392 -87
229 -163 427 -170 438 -6 11 -8 23 -6 26 3 2 44 -10 92 -26 123 -44 423 -116
605 -145 164 -27 351 -48 615 -68 242 -19 903 -15 1160 6 493 40 877 109 1140
204 61 22 113 40 116 41 4 1 -64 -187 -151 -416z"/>
<path d="M4573 7208 c-64 -101 -102 -268 -69 -301 22 -22 69 -22 88 1 8 9 18
42 21 72 4 36 21 83 48 137 41 80 42 83 25 107 -12 20 -25 26 -51 26 -30 0
-39 -6 -62 -42z"/>
<path d="M5073 7119 c-34 -17 -87 -55 -117 -83 -48 -45 -56 -57 -56 -89 0 -26
6 -39 19 -47 37 -19 61 -10 126 49 36 33 82 65 103 71 63 21 82 37 82 73 0 18
-5 38 -12 45 -21 21 -81 13 -145 -19z"/>
<path d="M5798 6837 c-68 -16 -88 -31 -88 -68 0 -55 38 -70 126 -48 33 9 59 9
101 0 73 -14 103 1 103 55 0 30 -5 37 -32 48 -50 21 -146 26 -210 13z"/>
<path d="M5355 6626 c-64 -20 -124 -54 -171 -98 -54 -49 -61 -97 -19 -124 33
-22 68 -12 96 27 22 31 127 89 161 89 26 0 48 29 48 64 0 56 -32 68 -115 42z"/>
<path d="M4498 6428 c-9 -7 -21 -29 -27 -49 -19 -59 -66 -122 -116 -153 -52
-33 -65 -64 -41 -101 36 -54 127 -16 200 84 75 101 96 186 54 215 -27 19 -49
20 -70 4z"/>
<path d="M3927 6278 c-37 -29 -77 -166 -77 -267 0 -67 26 -111 64 -111 41 0
56 29 56 111 1 49 7 92 21 129 11 30 23 68 26 83 10 51 -48 86 -90 55z"/>
<path d="M5523 6218 c-35 -46 -20 -86 46 -127 106 -65 240 -91 274 -53 20 22
22 75 5 89 -7 6 -36 13 -65 16 -60 7 -144 41 -169 68 -20 22 -76 26 -91 7z"/>
<path d="M6236 6148 c-22 -31 -20 -55 7 -82 50 -50 246 -96 282 -66 16 13 20
67 6 88 -4 7 -36 17 -71 22 -35 5 -86 20 -113 34 -60 32 -91 33 -111 4z"/>
<path d="M5086 5804 c-9 -8 -16 -31 -16 -49 0 -48 -36 -138 -76 -190 -19 -25
-34 -56 -34 -69 0 -29 29 -56 62 -56 83 0 211 306 152 364 -8 9 -28 16 -44 16
-16 0 -36 -7 -44 -16z"/>
<path d="M6262 5714 c-33 -22 -27 -58 17 -114 41 -52 81 -143 81 -184 0 -32
22 -48 62 -44 45 4 58 33 46 101 -19 105 -116 257 -164 257 -11 0 -30 -7 -42
-16z"/>
<path d="M4263 5680 c-67 -14 -83 -26 -83 -65 0 -54 32 -70 108 -54 54 11 66
11 127 -10 37 -12 76 -19 87 -15 23 7 41 49 33 75 -9 27 -72 56 -146 69 -71
11 -68 11 -126 0z"/>
<path d="M3452 5554 c-38 -26 -30 -76 21 -128 122 -122 397 -158 397 -51 0 45
-22 58 -101 60 -91 1 -152 27 -220 90 -53 49 -64 53 -97 29z"/>
<path d="M4480 5241 c-70 -53 -153 -91 -200 -91 -20 0 -35 -8 -46 -25 -19 -29
-11 -60 21 -81 73 -48 355 98 355 183 0 32 -12 46 -45 57 -15 4 -38 -7 -85
-43z"/>
<path d="M5769 5238 c-68 -36 -156 -47 -224 -28 -41 11 -48 11 -65 -5 -12 -11
-20 -31 -20 -51 0 -53 40 -69 165 -68 80 0 111 5 154 23 86 35 111 57 111 95
0 63 -45 75 -121 34z"/>
<path d="M6747 5122 c-32 -35 -21 -64 54 -137 39 -39 86 -91 106 -118 40 -54
72 -67 108 -43 53 35 20 100 -123 239 -84 82 -114 94 -145 59z"/>
<path d="M3397 5008 c-13 -13 -45 -66 -70 -117 -56 -111 -62 -164 -22 -183 45
-20 77 0 96 58 9 28 35 80 58 116 43 69 49 94 29 121 -23 29 -64 32 -91 5z"/>
<path d="M4905 5006 c-42 -30 4 -182 86 -286 34 -43 44 -50 74 -50 25 0 39 6
50 24 18 28 13 47 -31 101 -40 50 -57 85 -78 156 -9 31 -23 60 -32 63 -25 10
-49 7 -69 -8z"/>
<path d="M3865 4896 c-23 -17 -24 -66 -1 -100 9 -15 42 -46 74 -71 102 -80
145 -90 178 -40 22 33 10 61 -39 92 -23 15 -68 51 -99 80 -58 55 -81 63 -113
39z"/>
<path d="M6170 4830 c-11 -11 -20 -27 -20 -36 0 -67 130 -153 259 -170 41 -5
52 -3 70 15 11 11 21 32 21 45 0 27 -33 56 -62 56 -35 0 -129 42 -169 76 -47
39 -71 42 -99 14z"/>
<path d="M3625 3716 c-31 -31 -38 -1 70 -301 46 -126 133 -381 195 -565 129
-386 140 -404 207 -346 l28 25 -113 338 c-139 413 -291 846 -300 855 -4 4 -19
10 -34 13 -21 5 -33 1 -53 -19z"/>
<path d="M6462 3717 c-14 -16 -134 -354 -294 -825 -112 -331 -118 -355 -104
-376 18 -29 47 -37 78 -22 19 9 38 57 114 281 83 245 184 534 277 799 36 101
37 126 3 148 -18 12 -63 9 -74 -5z"/>
<path d="M6051 3671 c-12 -12 -21 -28 -21 -36 0 -8 -34 -158 -76 -333 -108
-454 -194 -832 -194 -852 0 -47 92 -70 110 -27 6 12 32 121 59 242 55 243 105
455 181 764 43 177 48 208 37 230 -16 35 -67 41 -96 12z"/>
<path d="M4057 3652 c-23 -25 -22 -33 13 -153 17 -57 94 -324 171 -594 78
-269 148 -498 157 -507 21 -25 55 -22 82 7 l23 24 -92 323 c-178 624 -254 883
-263 901 -12 23 -70 23 -91 -1z"/>
<path d="M4480 3605 c-7 -8 -12 -25 -13 -37 0 -13 38 -203 86 -423 47 -220
103 -483 123 -584 21 -101 44 -190 52 -197 20 -20 59 -17 83 7 23 23 23 24 -6
159 -14 64 -64 304 -195 934 -16 76 -35 143 -42 147 -21 14 -75 10 -88 -6z"/>
<path d="M5592 3607 c-6 -7 -20 -67 -30 -133 -10 -65 -54 -337 -98 -603 l-79
-483 24 -19 c13 -10 32 -19 42 -19 44 0 53 27 97 290 23 140 67 409 98 598 54
329 56 344 39 362 -21 23 -77 27 -93 7z"/>
<path d="M5080 3602 c-8 -3 -23 -12 -33 -21 -17 -14 -18 -28 -13 -156 3 -77
11 -351 17 -610 11 -507 12 -515 64 -515 39 0 65 33 65 83 -5 419 -30 1189
-39 1201 -14 17 -40 25 -61 18z"/>
</g>
</svg>
