<?xml version="1.0" encoding="UTF-8" standalone="no"?>
<!DOCTYPE svg PUBLIC "-//W3C//DTD SVG 1.1//EN" "http://www.w3.org/Graphics/SVG/1.1/DTD/svg11.dtd">
<svg width="100%" height="100%" viewBox="0 0 1024 1024" version="1.1" xmlns="http://www.w3.org/2000/svg" xmlns:xlink="http://www.w3.org/1999/xlink" xml:space="preserve" xmlns:serif="http://www.serif.com/" style="fill-rule:evenodd;clip-rule:evenodd;stroke-linejoin:round;stroke-miterlimit:2;">
    <g transform="matrix(0.1,0,0,-0.1,0,1024)">
        <path d="M5206,7237C5182,7213 5160,7122 5160,7047C5160,7027 5158,7010 5156,7010C5154,7010 5132,7021 5107,7036C5046,7069 4959,7071 4895,7040C4812,7000 4729,6874 4678,6711L4656,6643L4555,6631C4087,6575 3656,6391 3410,6141C3266,5996 3197,5858 3151,5630C3070,5219 3077,4483 3166,4132C3240,3839 3370,3733 3743,3661C4187,3575 5187,3635 6260,3811C6542,3857 6593,3875 6636,3940C6671,3992 6680,4086 6657,4141C6643,4175 6644,4176 6677,4215C6758,4309 6824,4466 6836,4592C6847,4719 6811,4833 6729,4932C6708,4958 6690,4982 6690,4987C6690,4992 6713,5013 6741,5035C6863,5132 6940,5289 6940,5443C6940,5544 6889,5683 6825,5757L6794,5793L6826,5842C6903,5956 6879,6117 6764,6248C6608,6426 6230,6593 5845,6655C5785,6665 5734,6674 5732,6676C5730,6677 5742,6697 5759,6721C5794,6768 5820,6845 5820,6900C5820,6945 5784,7018 5748,7043C5664,7104 5492,7053 5340,6922L5291,6880L5285,6914C5279,6944 5292,7102 5306,7187C5311,7210 5307,7223 5291,7239C5264,7266 5235,7266 5206,7237ZM5057,6919C5160,6869 5303,6663 5317,6543C5334,6396 5222,6307 5020,6307C4912,6308 4831,6332 4790,6375C4740,6428 4756,6577 4829,6750C4869,6843 4905,6897 4943,6920C4984,6945 5003,6945 5057,6919ZM5678,6928C5729,6877 5622,6717 5494,6654C5443,6629 5420,6629 5420,6653C5420,6660 5408,6690 5394,6720L5368,6775L5420,6822C5517,6909 5644,6962 5678,6928ZM5733,6545C6102,6489 6425,6369 6614,6215C6645,6190 6670,6166 6670,6162C6670,6158 6617,6154 6552,6153C6487,6152 6193,6130 5899,6105C5228,6049 5013,6034 4575,6015C4038,5992 3869,5973 3701,5915C3561,5868 3480,5799 3442,5697C3410,5612 3402,5478 3398,4940C3393,4132 3395,4054 3426,3920C3431,3897 3430,3897 3401,3929C3359,3976 3315,4071 3291,4165C3206,4502 3202,5289 3284,5642C3350,5929 3505,6111 3820,6278C4036,6392 4279,6464 4581,6505L4627,6511L4633,6451C4637,6418 4647,6373 4656,6351C4721,6188 5049,6123 5266,6230C5365,6278 5440,6381 5440,6468C5440,6483 5447,6494 5460,6497C5470,6500 5505,6515 5537,6530C5607,6564 5604,6564 5733,6545ZM6717,6024C6747,6016 6752,5983 6730,5934C6707,5880 6678,5865 6570,5852C6436,5834 6386,5831 6035,5815C5643,5797 5558,5791 4945,5740C3838,5647 3833,5646 3746,5570C3698,5527 3672,5464 3654,5347C3633,5207 3621,4796 3631,4555C3645,4226 3675,4094 3750,4026C3810,3972 3869,3958 4065,3953C4416,3943 5646,4013 6312,4080C6420,4091 6515,4097 6524,4094C6562,4079 6547,4015 6499,3989C6487,3983 6371,3961 6241,3940C5023,3742 3920,3693 3661,3825C3527,3892 3512,3987 3528,4656C3534,4897 3536,5179 3533,5281C3522,5657 3555,5732 3767,5800C3916,5848 4041,5861 4595,5886C4933,5901 5330,5926 5675,5955C5870,5971 6393,6017 6450,6023C6510,6029 6694,6030 6717,6024ZM6719,5677C6790,5593 6805,5551 6805,5440C6805,5352 6802,5339 6772,5278C6747,5226 6721,5194 6660,5139C6537,5029 6532,4975 6631,4847C6659,4811 6688,4760 6696,4734C6737,4597 6683,4416 6562,4290L6505,4230L6365,4215C5545,4130 4077,4055 3912,4091C3817,4111 3790,4171 3771,4403C3757,4570 3757,5004 3771,5206C3784,5396 3801,5456 3848,5483C3912,5520 3963,5527 4595,5580C4859,5602 5181,5629 5310,5640C5439,5651 5721,5669 5935,5680C6317,5699 6581,5718 6589,5726C6591,5728 6612,5730 6634,5730C6671,5730 6679,5725 6719,5677Z" style="fill-rule:nonzero;"/>
        <path d="M4957,6792C4931,6763 4934,6685 4962,6666C5013,6630 5060,6663 5060,6734C5060,6769 5055,6782 5038,6794C5008,6815 4977,6814 4957,6792Z" style="fill-rule:nonzero;"/>
        <path d="M4921,6517C4889,6501 4875,6449 4892,6412C4903,6390 4913,6384 4945,6382C4992,6378 5010,6397 5010,6450C5010,6510 4969,6541 4921,6517Z" style="fill-rule:nonzero;"/>
        <path d="M5521,6334C5497,6303 5496,6297 5511,6267C5527,6237 5539,6230 5581,6230C5624,6230 5650,6255 5650,6297C5650,6360 5562,6386 5521,6334Z" style="fill-rule:nonzero;"/>
        <path d="M5776,5240C5708,5219 5661,5143 5644,5028C5639,4986 5641,4978 5663,4956C5716,4903 5763,4933 5775,5026C5790,5151 5866,5154 5886,5030C5895,4972 5930,4936 5968,4945C6011,4955 6022,4978 6016,5038C5998,5191 5897,5276 5776,5240Z" style="fill-rule:nonzero;"/>
        <path d="M4461,5137C4410,5121 4366,5068 4341,4995C4313,4908 4313,4856 4342,4836C4397,4797 4443,4829 4453,4911C4460,4968 4486,5013 4514,5018C4542,5024 4569,4991 4586,4933C4607,4859 4657,4837 4701,4881C4757,4937 4668,5112 4569,5140C4528,5152 4506,5151 4461,5137Z" style="fill-rule:nonzero;"/>
        <path d="M5380,4957C5362,4948 5354,4931 5345,4888C5327,4798 5273,4754 5192,4763C5127,4770 5098,4796 5077,4866C5051,4949 5047,4955 5011,4958C4963,4963 4940,4938 4940,4881C4940,4788 5018,4679 5106,4649C5173,4626 5269,4632 5333,4664C5396,4694 5432,4734 5455,4799C5471,4845 5475,4917 5462,4937C5448,4959 5405,4969 5380,4957Z" style="fill-rule:nonzero;"/>
        <path d="M6103,4832C6071,4812 6065,4717 6093,4683C6105,4667 6172,4666 6188,4682C6208,4702 6203,4804 6182,4823C6163,4841 6123,4845 6103,4832Z" style="fill-rule:nonzero;"/>
        <path d="M5887,4812C5863,4786 5864,4699 5888,4677C5912,4655 5953,4656 5973,4678C5993,4700 5996,4800 5978,4818C5960,4836 5905,4832 5887,4812Z" style="fill-rule:nonzero;"/>
        <path d="M4340,4700C4321,4681 4318,4670 4323,4627C4328,4571 4347,4550 4392,4550C4432,4550 4454,4588 4447,4646C4441,4699 4435,4707 4393,4716C4369,4721 4357,4717 4340,4700Z" style="fill-rule:nonzero;"/>
        <path d="M4136,4684C4113,4661 4114,4568 4138,4547C4162,4525 4203,4526 4223,4548C4243,4570 4246,4670 4228,4688C4211,4705 4154,4703 4136,4684Z" style="fill-rule:nonzero;"/>
    </g>
</svg>
