<?xml version="1.0" standalone="no"?>
<!DOCTYPE svg PUBLIC "-//W3C//DTD SVG 20010904//EN"
 "http://www.w3.org/TR/2001/REC-SVG-20010904/DTD/svg10.dtd">
<svg version="1.0" xmlns="http://www.w3.org/2000/svg"
 width="1024.000000pt" height="1024.000000pt" viewBox="0 0 1024.000000 1024.000000"
 preserveAspectRatio="xMidYMid meet">
<metadata>
Created by potrace 1.16, written by Peter Selinger 2001-2019
</metadata>
<g transform="translate(0.000000,1024.000000) scale(0.100000,-0.100000)"
fill="#000000" stroke="none">
<path d="M6301 7770 c-24 -11 -74 -42 -110 -68 -36 -26 -115 -78 -176 -116
-164 -103 -313 -212 -475 -347 -128 -107 -233 -182 -437 -311 -32 -20 -148
-107 -258 -193 -566 -443 -987 -713 -1645 -1055 -151 -78 -315 -164 -365 -190
-49 -26 -166 -87 -260 -135 -326 -168 -623 -340 -825 -476 -165 -111 -163
-101 -95 -475 25 -136 58 -337 74 -445 16 -109 37 -214 47 -234 25 -53 82 -92
439 -295 594 -339 706 -407 1180 -723 165 -110 336 -217 380 -239 81 -39 82
-39 238 -40 29 0 62 14 130 55 51 30 186 105 302 167 115 62 307 171 425 242
345 209 673 399 955 553 392 213 517 283 690 383 99 58 206 122 238 143 31 22
85 58 120 81 64 43 279 203 402 298 324 250 640 497 790 617 467 371 460 364
460 433 0 22 3 40 7 40 5 0 8 26 8 58 0 83 35 445 70 725 34 275 36 311 15
360 -17 42 -52 70 -155 123 -58 31 -107 71 -225 184 -192 185 -256 221 -458
256 -50 9 -105 23 -122 31 -16 9 -68 51 -114 95 -114 106 -173 134 -324 153
-64 8 -130 21 -146 30 -16 8 -60 42 -98 74 -90 79 -135 100 -272 127 -77 16
-125 31 -146 46 -99 74 -127 88 -174 88 -25 0 -66 -9 -90 -20z m92 -254 c11
-29 129 -75 222 -87 112 -13 150 -32 246 -116 92 -81 135 -99 286 -118 66 -9
128 -22 150 -34 21 -10 74 -54 118 -96 95 -92 171 -132 277 -147 109 -14 184
-35 231 -65 23 -14 101 -83 172 -152 72 -70 154 -142 183 -160 29 -19 51 -37
50 -42 -2 -4 -50 -41 -108 -82 -76 -53 -198 -120 -440 -240 -184 -91 -378
-189 -430 -217 -154 -84 -562 -321 -601 -349 -20 -14 -75 -69 -122 -122 -117
-132 -149 -155 -279 -201 -225 -79 -344 -160 -474 -324 -91 -115 -133 -146
-221 -169 -172 -44 -244 -75 -325 -138 -21 -17 -35 -34 -32 -39 3 -5 1 -7 -3
-6 -5 2 -40 -32 -77 -74 -38 -43 -73 -78 -78 -78 -5 0 -6 -6 -2 -12 4 -7 4
-10 0 -6 -7 6 -208 -157 -397 -323 -101 -88 -145 -113 -270 -150 -57 -17 -126
-44 -154 -60 -54 -31 -328 -292 -318 -303 4 -3 2 -6 -4 -6 -6 0 -18 15 -26 33
-35 72 -147 84 -197 20 l-20 -26 -85 56 c-46 31 -145 115 -220 188 -156 149
-206 179 -345 203 -47 8 -98 19 -114 26 -16 6 -74 54 -128 106 -157 150 -171
158 -332 179 -45 6 -57 14 -151 104 -120 116 -170 143 -315 171 -58 12 -115
23 -128 26 -13 2 -20 9 -17 13 19 31 514 312 890 506 534 275 871 454 1060
562 252 146 720 464 990 672 316 244 409 311 559 406 98 61 197 133 255 185
150 134 340 274 541 396 52 31 109 68 125 81 35 26 51 29 58 9z m1973 -1323
c-17 -110 -37 -301 -51 -488 -9 -115 -19 -219 -23 -231 -7 -21 -264 -230 -657
-535 -110 -85 -310 -241 -445 -345 -501 -390 -646 -484 -1250 -812 -492 -267
-734 -405 -1135 -649 -222 -135 -433 -254 -637 -361 -111 -57 -98 -63 -118 53
-13 77 -80 527 -80 536 0 4 26 11 58 15 86 10 134 37 198 112 99 115 188 203
225 222 20 10 74 28 120 40 150 38 178 56 417 262 65 55 162 136 217 179 55
43 141 125 191 181 108 123 148 147 309 188 176 45 202 63 344 232 134 159
197 202 415 279 61 22 129 51 151 65 22 14 105 92 185 173 l145 147 290 164
c160 91 459 250 666 353 215 107 393 203 415 222 22 19 43 34 47 35 5 0 6 -17
3 -37z m-6356 -1769 c109 -24 156 -54 234 -144 79 -93 117 -114 238 -133 48
-8 97 -21 110 -29 13 -9 66 -58 118 -110 110 -110 163 -139 295 -163 50 -9
109 -25 132 -35 24 -11 94 -68 165 -135 140 -133 230 -201 338 -254 41 -20 78
-40 81 -45 4 -4 9 -34 13 -65 7 -62 48 -330 76 -491 10 -58 17 -106 15 -108
-1 -1 -139 89 -306 201 -408 272 -576 376 -1019 627 -206 117 -401 230 -434
252 -32 21 -62 38 -66 38 -4 0 -17 64 -29 143 -30 194 -71 438 -77 460 -6 20
-12 20 116 -9z"/>
<path d="M6546 6994 c-365 -57 -580 -234 -564 -465 9 -116 74 -193 205 -241
54 -20 80 -21 393 -23 184 -1 363 2 398 7 96 13 165 44 227 99 69 64 104 134
112 226 16 198 -112 351 -332 398 -88 18 -317 18 -439 -1z m444 -245 c65 -28
90 -59 90 -115 0 -48 -33 -97 -79 -117 -22 -9 -302 -17 -645 -18 -116 0 -160
33 -130 97 43 90 158 136 449 178 17 2 83 3 147 1 92 -3 128 -9 168 -26z"/>
<path d="M5165 6593 c-35 -9 -62 -43 -80 -101 -32 -103 -75 -174 -149 -248
-81 -80 -171 -129 -296 -159 -84 -21 -115 -45 -125 -98 -9 -45 19 -106 55
-125 32 -17 137 -10 205 13 263 89 470 294 530 525 35 137 -25 221 -140 193z"/>
<path d="M5620 5919 c-112 -22 -221 -103 -273 -204 -28 -53 -32 -70 -32 -140
1 -70 4 -87 30 -134 52 -95 141 -150 266 -166 104 -13 230 28 298 97 196 197
114 498 -148 548 -61 11 -78 11 -141 -1z m147 -255 c47 -47 10 -119 -76 -145
-82 -24 -162 21 -140 79 14 37 27 50 68 72 54 28 116 26 148 -6z"/>
<path d="M4168 5406 c-110 -39 -193 -109 -266 -224 -111 -173 -164 -446 -118
-607 24 -81 90 -147 173 -171 73 -21 193 -14 281 16 82 29 194 110 255 185 57
71 121 196 142 280 28 109 16 242 -29 341 -77 169 -261 244 -438 180z m191
-241 c47 -40 65 -126 46 -217 -13 -56 -68 -159 -112 -209 -61 -67 -122 -100
-198 -106 -88 -8 -100 6 -92 107 10 124 63 271 129 361 62 84 168 113 227 64z"/>
<path d="M3034 5080 c-63 -13 -161 -66 -216 -118 -124 -116 -143 -282 -44
-377 49 -48 99 -65 189 -65 119 0 237 65 310 170 137 200 -7 436 -239 390z
m47 -247 c-25 -48 -104 -94 -125 -73 -12 12 -14 10 58 58 56 36 82 42 67 15z"/>
<path d="M7919 5723 c-74 -37 -190 -155 -214 -217 -34 -89 4 -152 86 -143 78
10 260 159 295 244 51 121 -35 181 -167 116z"/>
<path d="M6340 4510 c-71 -26 -158 -86 -187 -129 -29 -43 -31 -103 -4 -130 61
-61 241 -12 347 94 40 41 44 49 44 94 0 42 -4 53 -26 70 -34 27 -100 27 -174
1z"/>
<path d="M4429 3377 c-98 -37 -149 -93 -149 -166 0 -48 30 -85 76 -97 56 -14
175 37 209 90 37 56 35 125 -4 160 -26 23 -87 29 -132 13z"/>
</g>
</svg>
