<?xml version="1.0" standalone="no"?>
<!DOCTYPE svg PUBLIC "-//W3C//DTD SVG 20010904//EN"
 "http://www.w3.org/TR/2001/REC-SVG-20010904/DTD/svg10.dtd">
<svg version="1.0" xmlns="http://www.w3.org/2000/svg"
 width="1024.000000pt" height="1024.000000pt" viewBox="0 0 1024.000000 1024.000000"
 preserveAspectRatio="xMidYMid meet">
<metadata>
Created by potrace 1.16, written by Peter Selinger 2001-2019
</metadata>
<g transform="translate(0.000000,1024.000000) scale(0.100000,-0.100000)"
fill="#000000" stroke="none">
<path d="M5558 7270 c-141 -26 -276 -87 -389 -178 -41 -33 -90 -67 -109 -77
-19 -10 -54 -31 -77 -46 -23 -16 -44 -29 -47 -29 -3 0 -14 31 -26 70 -23 77
-45 100 -98 100 -42 0 -82 -38 -82 -77 0 -16 11 -69 25 -118 14 -50 25 -98 25
-108 0 -10 -22 -44 -49 -75 -168 -195 -337 -531 -436 -873 -93 -320 -153 -782
-137 -1066 5 -91 2 -94 -50 -64 -18 11 -60 27 -93 35 -199 52 -421 -31 -552
-207 -264 -355 -171 -900 203 -1197 271 -216 589 -286 902 -199 313 87 588
351 687 659 10 30 19 56 20 58 2 2 40 -17 86 -42 269 -144 562 -150 832 -16
239 119 423 360 478 623 59 287 -28 567 -220 707 -89 66 -156 91 -262 97 -130
8 -213 -16 -323 -94 -27 -19 -51 -31 -55 -26 -3 5 -34 45 -67 89 -281 365
-551 894 -715 1400 -34 103 -39 128 -28 135 21 13 21 13 64 -48 89 -124 257
-270 395 -342 157 -82 272 -112 436 -112 141 0 250 24 382 86 89 42 220 123
243 151 17 21 -43 221 -103 344 -46 93 -63 116 -152 206 -90 89 -112 106 -206
152 -58 28 -132 58 -165 67 -70 19 -270 28 -337 15z m292 -185 c169 -45 327
-170 409 -325 36 -68 74 -178 67 -196 -7 -19 -148 -88 -236 -116 -63 -19 -95
-23 -200 -22 -108 0 -136 4 -205 27 -145 48 -313 161 -412 275 l-47 55 110 -6
c175 -10 348 -61 494 -147 93 -55 172 60 96 139 -63 65 -304 149 -516 179
l-124 18 31 22 c45 32 149 79 213 96 72 19 249 20 320 1z m-957 -614 c119
-367 338 -814 567 -1159 67 -99 69 -104 43 -98 -105 24 -160 28 -227 17 -182
-30 -321 -157 -391 -358 -19 -53 -29 -67 -42 -65 -190 30 -340 -8 -453 -114
l-47 -44 -7 31 c-9 49 -7 321 5 454 46 539 209 1043 445 1378 30 42 58 77 62
77 4 0 24 -54 45 -119z m1372 -1412 c75 -28 156 -104 195 -182 155 -316 -12
-741 -356 -908 -113 -55 -202 -72 -339 -66 -157 7 -283 52 -421 149 l-41 29
-6 102 c-11 198 -72 341 -200 471 l-78 80 27 76 c42 121 113 204 201 236 87
31 258 7 374 -51 54 -28 63 -45 22 -45 -53 0 -142 -33 -182 -66 -44 -38 -77
-110 -66 -143 16 -52 78 -76 127 -50 11 6 26 26 34 44 12 30 19 34 61 40 27 4
101 15 166 26 79 13 138 17 180 13 54 -5 66 -3 89 15 35 28 44 71 23 110 -15
29 -30 37 -85 43 -43 5 -28 31 38 65 78 40 152 44 237 12z m-1420 -440 c125
-47 234 -190 271 -355 20 -90 15 -245 -10 -339 -38 -141 -139 -310 -240 -402
-243 -222 -558 -282 -863 -163 -109 42 -195 100 -290 196 -132 134 -199 268
-224 449 -34 241 80 486 266 572 50 23 73 27 140 27 88 -1 121 -12 199 -68 33
-23 45 -37 35 -40 -57 -18 -95 -27 -173 -41 -49 -8 -98 -22 -107 -31 -44 -40
-27 -120 30 -143 24 -10 45 -10 113 4 123 24 243 62 333 105 68 32 85 46 110
86 98 155 243 206 410 143z"/>
</g>
</svg>
