<?xml version="1.0" standalone="no"?>
<!DOCTYPE svg PUBLIC "-//W3C//DTD SVG 20010904//EN"
 "http://www.w3.org/TR/2001/REC-SVG-20010904/DTD/svg10.dtd">
<svg version="1.0" xmlns="http://www.w3.org/2000/svg"
 width="1024.000000pt" height="1024.000000pt" viewBox="0 0 1024.000000 1024.000000"
 preserveAspectRatio="xMidYMid meet">
<metadata>
Created by potrace 1.16, written by Peter Selinger 2001-2019
</metadata>
<g transform="translate(0.000000,1024.000000) scale(0.100000,-0.100000)"
fill="#000000" stroke="none">
<path d="M6753 6845 c-145 -32 -267 -131 -333 -269 -21 -45 -41 -100 -45 -124
-8 -49 -22 -60 -163 -131 -118 -59 -221 -98 -334 -127 -186 -47 -279 -54 -753
-54 -242 0 -492 -5 -555 -11 -509 -46 -909 -218 -1210 -520 -124 -124 -208
-239 -283 -387 -100 -196 -145 -366 -154 -587 -16 -371 108 -682 368 -930 443
-423 1150 -492 1794 -175 242 119 442 266 661 484 183 183 276 303 553 711
209 310 350 476 536 634 153 130 150 129 235 129 273 0 504 236 503 512 0 106
-21 186 -83 315 -99 205 -270 419 -380 475 -119 61 -247 80 -357 55z m182
-324 c54 -24 105 -78 177 -186 157 -237 183 -362 95 -462 -58 -66 -142 -87
-243 -62 -52 13 -59 9 -234 -130 -158 -127 -251 -214 -362 -340 -121 -138
-188 -227 -393 -526 -190 -278 -314 -433 -460 -580 -303 -302 -608 -477 -977
-557 -145 -31 -400 -32 -536 0 -329 76 -597 291 -702 564 -46 118 -62 208 -62
343 0 550 409 1016 1032 1175 188 48 238 52 825 60 495 6 573 10 675 27 222
39 380 91 562 184 104 54 295 176 318 204 9 11 17 50 21 97 7 95 39 150 109
186 53 27 101 28 155 3z"/>
<path d="M4273 5476 c-297 -117 -512 -306 -645 -570 -46 -91 -108 -273 -108
-317 0 -45 25 -85 61 -98 91 -31 137 3 173 129 34 117 58 172 121 265 109 164
289 311 460 376 110 42 139 73 132 137 -10 92 -84 121 -194 78z"/>
</g>
</svg>
