<?xml version="1.0" standalone="no"?>
<!DOCTYPE svg PUBLIC "-//W3C//DTD SVG 20010904//EN"
 "http://www.w3.org/TR/2001/REC-SVG-20010904/DTD/svg10.dtd">
<svg version="1.0" xmlns="http://www.w3.org/2000/svg"
 width="1024.000000pt" height="1024.000000pt" viewBox="0 0 1024.000000 1024.000000"
 preserveAspectRatio="xMidYMid meet">
<metadata>
Created by potrace 1.16, written by Peter Selinger 2001-2019
</metadata>
<g transform="translate(0.000000,1024.000000) scale(0.100000,-0.100000)"
fill="#000000" stroke="none">
<path d="M5285 7323 c-81 -5 -182 -26 -263 -55 l-83 -30 -79 26 c-239 79 -509
38 -713 -108 -60 -42 -157 -137 -187 -183 -12 -19 -30 -25 -94 -34 -365 -49
-536 -204 -441 -396 27 -53 62 -86 130 -121 l40 -20 178 -893 c97 -492 229
-1155 292 -1474 183 -926 201 -1005 228 -1032 29 -30 96 -48 262 -70 184 -25
771 -25 957 0 151 20 261 43 296 60 50 24 60 54 122 357 91 437 221 1074 310
1515 43 215 117 579 165 810 47 231 102 499 122 596 l35 175 44 23 c80 43 144
132 144 201 0 38 -24 95 -55 129 -72 80 -223 131 -452 152 -128 12 -128 12
-168 49 -44 42 -107 79 -175 106 -25 10 -70 38 -100 63 -60 48 -162 100 -251
125 -60 18 -198 33 -264 29z m228 -168 c26 -9 47 -20 47 -24 0 -4 -23 -13 -52
-19 -111 -26 -238 -109 -289 -191 -34 -53 -36 -74 -9 -101 34 -34 65 -25 125
33 170 168 433 195 612 63 69 -51 166 -176 150 -193 -9 -8 -201 -31 -402 -47
-355 -29 -651 -39 -1020 -33 -324 5 -437 11 -629 33 l-58 6 6 32 c3 17 23 65
43 106 74 149 245 282 414 324 76 19 202 21 282 5 l55 -11 -60 -56 c-59 -55
-148 -169 -148 -191 0 -15 -12 -14 -78 5 -74 22 -203 16 -258 -13 -46 -24 -63
-60 -46 -98 13 -28 43 -32 131 -15 66 12 124 0 208 -42 82 -42 97 -35 154 73
96 179 255 303 464 360 88 24 282 21 358 -6z m837 -355 c145 -23 250 -79 250
-134 0 -39 -57 -75 -193 -120 l-122 -41 -3 -42 c-4 -52 19 -68 79 -58 38 7 40
6 34 -17 -9 -40 -34 -161 -105 -513 -38 -187 -108 -529 -155 -760 -47 -231
-106 -519 -130 -640 -82 -413 -246 -1200 -265 -1274 -10 -40 -22 -77 -27 -81
-4 -5 -51 -15 -103 -24 -283 -47 -851 -50 -1123 -5 -75 12 -80 18 -93 100 l-7
39 29 -10 c109 -37 592 -60 849 -41 190 15 362 36 416 52 64 20 76 98 19 129
-14 8 -53 6 -137 -5 -265 -34 -651 -45 -868 -25 -55 5 -143 12 -196 16 -91 6
-97 6 -111 -15 -9 -13 -19 -18 -22 -13 -3 6 -66 315 -140 689 -186 935 -357
1800 -418 2101 l-51 252 27 21 c29 23 35 68 12 91 -7 8 -53 29 -101 48 -95 37
-155 83 -155 120 0 33 57 81 126 107 70 27 194 56 202 49 3 -3 0 -17 -6 -31
-7 -14 -12 -35 -12 -45 0 -18 -6 -19 -64 -13 -56 5 -66 3 -85 -16 -21 -21 -27
-56 -13 -78 49 -77 788 -135 1431 -113 580 20 1221 91 1287 142 34 27 32 70
-3 98 -28 22 -46 23 -129 5 -25 -6 -32 -3 -36 12 -3 10 -9 26 -13 36 -6 14 -2
17 26 17 19 0 63 -5 99 -10z"/>
<path d="M5900 6454 c-63 -7 -207 -20 -320 -28 -280 -22 -308 -25 -325 -42
-24 -24 -19 -71 10 -90 23 -15 41 -15 232 1 114 9 286 25 380 36 95 10 180 19
188 19 23 0 55 37 55 63 0 34 -30 57 -71 56 -19 -1 -86 -8 -149 -15z"/>
<path d="M4190 6407 c-20 -10 -25 -20 -25 -52 0 -33 4 -42 25 -51 33 -16 376
-34 621 -34 177 0 197 2 212 18 24 26 21 68 -5 86 -18 13 -53 16 -173 16 -159
0 -563 17 -605 25 -14 3 -36 -1 -50 -8z"/>
<path d="M3935 6306 c-15 -22 -14 -37 15 -193 17 -92 34 -176 36 -186 13 -44
87 -46 104 -3 13 36 -52 375 -76 393 -28 20 -62 16 -79 -11z"/>
<path d="M6035 5844 c-138 -24 -442 -53 -654 -64 -454 -22 -902 -6 -1280 47
l-123 17 -19 -23 c-27 -33 -25 -77 6 -97 50 -33 381 -69 776 -84 422 -17 928
9 1304 66 120 19 145 32 145 77 0 69 -34 82 -155 61z"/>
<path d="M4464 5469 c-55 -13 -145 -68 -163 -100 -13 -24 -13 -29 2 -53 22
-33 53 -33 97 -1 71 53 130 63 223 40 34 -9 57 9 57 45 0 63 -99 95 -216 69z"/>
<path d="M5513 5461 c-54 -25 -68 -65 -33 -93 16 -13 29 -16 44 -11 12 5 51 8
87 8 61 0 71 -3 123 -39 50 -34 60 -38 81 -28 13 6 27 23 31 37 5 21 0 33 -26
60 -71 73 -223 106 -307 66z"/>
<path d="M5258 5308 c-9 -7 -19 -33 -22 -57 -9 -58 -37 -95 -86 -115 -112 -45
-240 18 -240 118 0 39 -16 56 -51 56 -38 0 -54 -25 -52 -81 2 -93 78 -181 178
-209 61 -17 169 -9 220 18 81 41 135 122 135 202 0 61 -44 98 -82 68z"/>
<path d="M5143 4080 c-109 -34 -132 -164 -41 -234 70 -52 171 -44 227 19 80
92 24 209 -106 220 -26 2 -62 0 -80 -5z"/>
<path d="M4495 3835 c-62 -22 -95 -65 -95 -124 0 -113 129 -177 240 -118 46
24 80 74 80 117 0 94 -123 162 -225 125z"/>
<path d="M5370 3698 c-104 -54 -103 -179 2 -234 39 -20 122 -18 166 5 98 50
96 183 -3 231 -54 26 -111 25 -165 -2z"/>
<path d="M4875 3587 c-74 -41 -93 -129 -42 -193 67 -85 230 -66 277 32 34 68
12 127 -60 164 -53 27 -124 26 -175 -3z"/>
</g>
</svg>
