<?xml version="1.0" standalone="no"?>
<!DOCTYPE svg PUBLIC "-//W3C//DTD SVG 20010904//EN"
 "http://www.w3.org/TR/2001/REC-SVG-20010904/DTD/svg10.dtd">
<svg version="1.0" xmlns="http://www.w3.org/2000/svg"
 width="1024.000000pt" height="1024.000000pt" viewBox="0 0 1024.000000 1024.000000"
 preserveAspectRatio="xMidYMid meet">
<metadata>
Created by potrace 1.16, written by Peter Selinger 2001-2019
</metadata>
<g transform="translate(0.000000,1024.000000) scale(0.100000,-0.100000)"
fill="#000000" stroke="none">
<path d="M5016 7388 c-24 -21 -26 -31 -31 -131 -8 -190 -36 -250 -153 -329
-153 -102 -221 -207 -226 -347 l-2 -63 -95 -32 c-307 -103 -526 -332 -595
-624 -22 -88 -22 -249 -1 -329 20 -77 58 -154 104 -210 19 -24 32 -47 28 -53
-12 -20 -6 -227 10 -302 27 -134 85 -255 158 -335 39 -43 68 -112 242 -588
123 -337 291 -792 492 -1330 24 -66 51 -128 60 -137 23 -26 87 -24 113 4 11
12 20 25 20 30 0 9 43 120 220 568 385 973 550 1392 550 1398 0 4 20 30 46 57
56 62 127 204 154 310 11 44 23 126 27 181 l6 101 42 42 c60 59 101 148 121
262 74 426 -251 864 -725 973 -34 8 -64 16 -66 18 -2 2 4 35 12 73 20 96 12
266 -17 360 -47 150 -142 283 -264 369 -125 89 -184 105 -230 64z m214 -303
c136 -161 165 -359 83 -567 -47 -120 -16 -157 150 -178 402 -50 721 -416 667
-762 -19 -124 -63 -198 -119 -198 -29 0 -44 12 -118 93 -55 60 -112 88 -190
95 -70 5 -141 -13 -202 -53 -33 -22 -45 -24 -141 -22 -95 1 -110 -1 -160 -25
-88 -43 -131 -91 -170 -193 -13 -33 -32 -70 -43 -82 -40 -45 -128 -39 -160 11
-8 11 -24 51 -36 87 -44 133 -134 199 -273 199 -72 0 -82 -3 -175 -50 -108
-56 -128 -57 -175 -13 -14 14 -39 53 -55 86 -26 57 -28 71 -28 182 0 100 4
131 23 187 82 236 311 418 577 459 86 14 103 22 120 61 11 27 10 41 -7 101
-12 42 -17 82 -14 102 10 53 59 109 153 175 48 34 101 76 116 93 39 43 83 140
98 215 7 34 17 61 21 60 4 -2 30 -30 58 -63z m535 -1741 c25 -25 45 -50 45
-54 0 -14 93 -78 124 -86 l29 -7 -7 -73 c-13 -142 -75 -307 -137 -365 l-31
-29 -697 0 c-804 0 -732 -10 -794 107 -51 98 -79 205 -75 295 l3 73 48 7 c29
4 75 23 115 47 37 22 80 45 96 51 68 25 120 -16 156 -126 43 -128 140 -197
275 -197 56 0 80 5 120 26 75 38 137 112 164 197 26 82 95 118 194 99 70 -12
112 -2 187 45 41 26 66 36 98 36 38 0 48 -5 87 -46z m-86 -856 c-12 -29 -44
-111 -71 -183 -28 -71 -54 -134 -58 -139 -5 -4 -88 51 -186 123 -152 111 -184
131 -215 131 -82 0 -121 -97 -61 -151 15 -14 109 -86 209 -159 l182 -133 -21
-51 c-11 -28 -103 -260 -204 -516 -160 -407 -204 -506 -204 -460 0 6 -82 232
-181 503 -100 271 -228 618 -284 772 -57 154 -106 288 -110 298 -7 16 26 17
609 17 l616 0 -21 -52z"/>
<path d="M4483 6175 c-139 -70 -263 -273 -263 -430 0 -64 27 -95 83 -95 46 0
72 24 88 82 29 109 43 142 84 196 25 35 64 72 94 90 57 35 76 69 66 118 -12
64 -72 79 -152 39z"/>
<path d="M4811 4044 c-42 -35 -43 -89 -3 -126 28 -27 308 -230 341 -248 56
-29 121 14 121 80 0 22 -7 46 -17 58 -19 21 -304 231 -341 251 -34 18 -68 13
-101 -15z"/>
</g>
</svg>
