<?xml version="1.0" standalone="no"?>
<!DOCTYPE svg PUBLIC "-//W3C//DTD SVG 20010904//EN"
 "http://www.w3.org/TR/2001/REC-SVG-20010904/DTD/svg10.dtd">
<svg version="1.0" xmlns="http://www.w3.org/2000/svg"
 width="1024.000000pt" height="1024.000000pt" viewBox="0 0 1024.000000 1024.000000"
 preserveAspectRatio="xMidYMid meet">
<metadata>
Created by potrace 1.16, written by Peter Selinger 2001-2019
</metadata>
<g transform="translate(0.000000,1024.000000) scale(0.100000,-0.100000)"
fill="#000000" stroke="none">
<path d="M4185 7253 c-414 -49 -700 -139 -943 -296 -141 -91 -314 -284 -354
-394 -21 -57 -8 -75 -173 242 -112 215 -123 231 -155 241 -65 21 -120 -17
-120 -84 0 -41 43 -126 284 -556 37 -66 65 -123 64 -127 -2 -4 -27 -25 -55
-48 -124 -97 -219 -272 -268 -491 -26 -117 -32 -444 -11 -590 35 -235 96 -432
201 -645 148 -298 354 -530 607 -683 167 -101 445 -193 631 -208 l78 -7 31
-61 c248 -494 772 -803 1473 -867 212 -19 527 6 765 62 238 55 509 172 677
294 337 241 593 670 699 1170 32 148 44 460 25 608 -45 342 -194 696 -419 997
-290 390 -714 653 -1122 698 l-65 7 -50 75 c-65 98 -218 256 -325 336 -222
165 -522 277 -860 319 -113 14 -522 19 -615 8z m541 -174 c310 -30 572 -116
789 -261 78 -52 271 -232 293 -274 11 -20 8 -21 -106 -33 -591 -62 -1047 -306
-1399 -748 -335 -421 -526 -1027 -483 -1534 10 -124 50 -351 71 -406 13 -36
14 -36 -46 -28 -80 10 -227 51 -324 90 -435 177 -758 611 -877 1178 -31 149
-43 404 -25 539 32 239 115 416 233 499 96 66 117 89 123 127 18 118 29 164
54 223 165 394 695 631 1427 638 88 0 210 -4 270 -10z m1449 -744 c121 -24
199 -52 320 -111 324 -160 604 -450 795 -824 199 -391 254 -754 168 -1125 -63
-274 -251 -588 -452 -755 -391 -324 -1075 -454 -1655 -315 -335 81 -634 280
-826 550 -229 321 -329 810 -259 1265 57 368 200 666 431 897 246 247 557 377
1043 437 76 9 358 -3 435 -19z m-2035 -1242 c-16 -72 -23 -146 -27 -280 -11
-362 44 -644 182 -928 147 -304 367 -525 675 -680 286 -143 661 -212 1015
-185 330 25 607 91 844 202 57 26 106 46 108 44 6 -6 -120 -102 -194 -148
-364 -223 -921 -323 -1413 -252 -619 89 -1041 395 -1244 900 -145 364 -140
858 14 1284 23 63 44 123 47 133 3 10 8 16 10 13 2 -2 -5 -48 -17 -103z"/>
<path d="M3249 6444 c-24 -25 -24 -29 -24 -209 0 -180 0 -184 24 -209 47 -50
140 -27 157 38 3 12 4 100 2 195 -3 168 -4 173 -27 192 -36 29 -101 26 -132
-7z"/>
<path d="M5835 5829 c-42 -24 -45 -37 -44 -193 0 -83 4 -227 7 -319 7 -161 8
-170 31 -188 34 -28 92 -25 123 6 l25 25 6 -29 c12 -56 70 -86 116 -59 l26 14
-3 -41 c-3 -36 0 -45 23 -64 15 -11 36 -21 46 -21 15 0 17 -6 12 -34 -4 -28
-1 -39 20 -60 34 -34 52 -33 253 13 337 78 344 81 344 149 0 45 -13 67 -49 82
-36 14 -48 13 -265 -41 -88 -21 -161 -37 -163 -35 -2 1 27 27 65 56 97 78 200
159 252 198 67 51 80 70 80 111 0 66 -64 105 -122 75 -18 -9 -129 -93 -247
-186 -118 -93 -215 -167 -217 -165 -3 3 82 220 151 384 49 114 47 161 -7 189
-39 20 -93 11 -112 -19 -15 -23 -164 -392 -186 -461 -22 -68 -30 -20 -31 189
-1 273 -10 390 -30 410 -20 21 -79 28 -104 14z"/>
<path d="M5340 5727 c-33 -16 -52 -55 -45 -92 6 -34 290 -461 343 -517 46 -49
99 -53 131 -12 27 34 26 64 0 117 -33 64 -307 469 -335 495 -28 25 -57 28 -94
9z"/>
<path d="M4955 5380 c-33 -13 -47 -37 -49 -79 -1 -49 16 -68 84 -99 30 -13
148 -69 262 -123 213 -102 253 -114 295 -84 12 9 25 31 29 50 11 62 -8 78
-244 192 -337 163 -333 162 -377 143z"/>
<path d="M4811 5034 c-25 -21 -31 -33 -31 -65 0 -52 31 -84 91 -94 24 -4 137
-25 251 -46 171 -32 212 -37 238 -27 65 22 72 121 11 153 -15 7 -63 21 -107
29 -269 53 -395 76 -408 76 -8 0 -28 -12 -45 -26z"/>
<path d="M6287 4819 c-28 -16 -49 -67 -42 -100 13 -56 29 -60 337 -74 156 -7
292 -9 304 -5 74 29 68 148 -9 165 -28 6 -418 25 -506 25 -36 0 -74 -5 -84
-11z"/>
<path d="M5011 4750 c-274 -48 -289 -53 -306 -93 -7 -18 -11 -44 -8 -60 7 -34
47 -67 82 -67 33 0 478 80 509 91 34 13 57 74 41 111 -15 36 -46 58 -79 57
-14 -1 -121 -18 -239 -39z"/>
<path d="M6240 4612 c-38 -38 -41 -88 -7 -119 12 -11 60 -35 107 -53 47 -17
163 -63 258 -101 123 -49 180 -67 198 -63 56 14 83 98 47 143 -19 22 -479 208
-540 218 -26 5 -38 0 -63 -25z"/>
<path d="M5255 4591 c-24 -11 -115 -92 -223 -197 -165 -162 -183 -182 -182
-212 0 -18 5 -42 11 -53 13 -26 63 -47 94 -41 28 5 389 351 411 394 26 50 2
96 -66 124 -3 2 -24 -6 -45 -15z"/>
<path d="M5341 4416 c-31 -32 -201 -412 -201 -448 0 -68 98 -114 147 -69 18
17 203 434 203 459 0 69 -101 109 -149 58z"/>
<path d="M6174 4404 c-21 -20 -25 -33 -22 -63 l3 -37 -48 0 c-41 1 -52 -3 -73
-27 -23 -27 -25 -27 -49 -11 -49 32 -135 -11 -135 -68 0 -19 -1 -19 -26 1 -36
28 -86 27 -121 -3 -28 -24 -28 -25 -25 -128 7 -226 28 -445 45 -472 22 -34 78
-44 112 -22 46 30 48 47 31 270 -20 252 -20 306 -2 223 9 -40 41 -67 79 -67
52 0 77 24 78 73 1 70 16 18 43 -146 28 -173 36 -187 106 -187 49 0 72 15 84
56 3 11 -9 115 -29 230 -19 115 -35 213 -35 217 0 4 30 -30 67 -75 242 -299
231 -288 274 -288 56 0 76 14 90 60 10 34 9 43 -6 67 -39 60 -326 411 -341
417 -35 13 -75 5 -100 -20z"/>
<path d="M5516 4257 c-27 -27 -146 -386 -146 -440 0 -65 84 -109 137 -72 25
17 153 401 153 458 0 69 -94 104 -144 54z"/>
</g>
</svg>
