<?xml version="1.0" standalone="no"?>
<!DOCTYPE svg PUBLIC "-//W3C//DTD SVG 20010904//EN"
 "http://www.w3.org/TR/2001/REC-SVG-20010904/DTD/svg10.dtd">
<svg version="1.0" xmlns="http://www.w3.org/2000/svg"
 width="1024.000000pt" height="1024.000000pt" viewBox="0 0 1024.000000 1024.000000"
 preserveAspectRatio="xMidYMid meet">
<metadata>
Created by potrace 1.16, written by Peter Selinger 2001-2019
</metadata>
<g transform="translate(0.000000,1024.000000) scale(0.100000,-0.100000)"
fill="#000000" stroke="none">
<path d="M2610 6854 c-82 -11 -176 -37 -232 -65 -200 -101 -268 -337 -172
-602 14 -40 28 -79 30 -88 5 -13 -10 -18 -88 -27 -135 -17 -239 -47 -353 -101
-174 -84 -274 -175 -339 -311 -28 -58 -31 -75 -31 -155 0 -82 3 -97 33 -157
45 -92 135 -174 249 -228 48 -23 90 -44 92 -45 2 -2 -16 -25 -40 -50 -105
-111 -178 -256 -200 -396 -40 -256 109 -398 444 -425 l87 -7 0 -103 c0 -211
39 -294 170 -359 352 -176 1422 -430 2585 -615 1166 -184 1921 -243 2245 -175
457 95 907 372 1205 740 265 328 461 778 520 1195 21 152 21 388 0 516 -56
333 -232 603 -474 728 -289 148 -892 290 -1766 415 -447 64 -1249 170 -1510
200 -409 47 -902 76 -1040 62 -81 -8 -81 -8 -237 -113 -65 -43 -122 -78 -128
-78 -6 0 -45 17 -88 39 -166 82 -371 149 -562 182 -112 19 -330 32 -400 23z
m315 -225 c97 -15 251 -54 348 -89 106 -39 207 -83 204 -91 -1 -3 -51 -48
-112 -99 -131 -111 -414 -396 -505 -508 -36 -45 -70 -81 -76 -81 -15 -1 -193
183 -243 252 -136 186 -193 390 -142 503 52 114 242 155 526 113z m1500 -50
c295 -17 659 -57 1195 -130 80 -11 215 -29 300 -40 823 -106 1390 -199 1755
-290 194 -48 259 -69 248 -79 -4 -4 -35 -17 -68 -30 -93 -36 -279 -133 -395
-206 -636 -399 -1084 -978 -1195 -1544 -25 -128 -31 -373 -11 -492 37 -223
126 -426 254 -577 l46 -54 -119 7 c-661 38 -2081 257 -2945 452 -582 132
-1142 302 -1171 356 -6 10 -10 74 -11 141 -1 420 212 947 581 1436 116 154
214 264 396 446 232 232 444 410 672 565 l88 59 105 -5 c58 -2 182 -9 275 -15z
m3909 -711 c243 -186 347 -611 257 -1043 -81 -385 -277 -784 -521 -1062 -277
-316 -684 -546 -1082 -612 l-67 -11 -73 46 c-70 45 -228 193 -228 213 0 6 26
1 58 -10 38 -14 95 -22 173 -26 200 -10 353 24 554 123 148 73 276 166 419
304 259 251 426 522 539 875 46 143 65 243 76 386 27 358 -81 619 -301 729
-47 24 -94 40 -115 40 -92 0 21 48 162 69 97 14 106 13 149 -21z m-5885 -92
c45 -52 108 -116 141 -143 33 -26 58 -53 56 -59 -9 -24 -138 -204 -146 -204
-4 0 -13 13 -20 30 -20 48 -110 130 -184 167 -118 59 -231 57 -224 -5 2 -21
16 -34 68 -62 68 -36 224 -183 217 -203 -6 -19 -155 -45 -263 -46 -299 -3
-511 154 -439 325 23 56 121 145 211 191 124 65 268 99 425 102 l76 1 82 -94z
m5290 -265 c38 -234 -146 -498 -454 -654 -87 -43 -241 -92 -359 -112 -99 -17
-236 -20 -236 -5 0 14 104 164 173 250 69 85 226 250 239 250 4 0 8 -11 8 -24
0 -41 57 -68 105 -50 47 18 32 117 -19 130 -14 3 -26 10 -26 14 0 19 299 243
432 324 l73 45 27 -53 c15 -30 32 -81 37 -115z m266 135 c94 -43 154 -99 192
-179 48 -97 58 -155 57 -322 0 -134 -3 -164 -32 -277 -99 -397 -300 -739 -582
-986 -376 -331 -783 -420 -1077 -238 -62 39 -68 46 -80 92 -16 63 -33 227 -25
236 4 4 39 3 77 -2 111 -15 376 -12 494 5 222 32 440 111 604 218 83 54 86 55
103 36 22 -25 76 -25 98 0 25 27 32 84 12 100 -13 11 -9 20 34 72 28 33 60 78
73 99 17 31 28 40 49 40 37 0 62 48 55 103 -4 29 3 65 23 127 52 153 61 337
24 498 -8 35 -14 65 -14 67 0 2 15 1 33 -2 59 -9 89 45 47 87 -27 27 -46 25
-76 -5 -25 -25 -26 -25 -31 -5 -12 44 -76 167 -114 218 -22 28 -35 52 -29 52
6 0 44 -15 85 -34z m-114 -751 c-90 -377 -414 -631 -898 -704 -122 -19 -486
-11 -508 10 -7 7 22 124 56 227 l31 93 87 -6 c214 -16 506 44 723 148 219 106
427 301 506 473 l17 39 3 -98 c2 -71 -3 -120 -17 -182z m-5580 88 c-55 -111
-135 -332 -162 -447 -28 -117 -33 -121 -154 -113 -103 7 -147 21 -190 59 -31
26 -35 36 -35 77 0 103 69 242 171 342 103 103 220 152 376 158 l32 1 -38 -77z"/>
<path d="M2805 6388 c-11 -6 -23 -16 -27 -22 -9 -13 -10 -88 -2 -110 9 -23 41
-20 47 4 4 15 14 20 41 20 48 0 85 19 92 46 9 34 -4 47 -40 41 -22 -3 -39 1
-55 14 -27 22 -29 22 -56 7z"/>
<path d="M4050 6384 c-76 -33 -122 -110 -100 -169 21 -55 131 -71 189 -27 62
45 90 131 57 174 -28 38 -89 47 -146 22z"/>
<path d="M5103 6101 c-44 -20 -68 -50 -82 -97 -27 -98 78 -164 179 -112 170
87 77 288 -97 209z"/>
<path d="M6634 6096 c-44 -19 -74 -62 -74 -105 0 -122 174 -151 247 -42 54 81
4 162 -99 161 -24 -1 -57 -7 -74 -14z"/>
<path d="M4095 5408 c-132 -72 -112 -241 29 -241 84 0 146 62 146 147 0 39 -5
53 -29 77 -25 24 -37 29 -78 29 -26 0 -57 -6 -68 -12z"/>
<path d="M5819 5313 c-40 -24 -59 -65 -59 -123 0 -47 4 -56 39 -91 35 -35 44
-39 90 -39 44 0 56 5 87 33 31 28 37 41 42 87 6 63 -13 107 -58 133 -36 21
-107 21 -141 0z"/>
<path d="M2840 5007 c-88 -45 -93 -196 -8 -243 33 -19 95 -17 129 3 42 25 73
93 64 141 -10 51 -21 70 -58 92 -36 23 -91 26 -127 7z"/>
<path d="M5011 4282 c-39 -21 -71 -73 -71 -115 0 -80 59 -137 143 -137 40 0
53 5 84 33 31 29 37 41 40 88 3 42 0 61 -17 87 -36 58 -116 78 -179 44z"/>
<path d="M2522 4223 c-19 -7 -42 -58 -42 -91 0 -51 32 -78 133 -111 257 -84
616 -181 668 -181 29 0 43 6 58 26 27 35 29 114 4 136 -10 9 -112 41 -228 71
-115 31 -283 79 -372 107 -155 48 -192 55 -221 43z"/>
<path d="M3553 3945 c-57 -24 -70 -128 -20 -159 31 -19 537 -136 790 -181 73
-14 117 25 117 104 0 64 -21 73 -290 126 -112 22 -218 45 -551 119 -9 2 -30
-2 -46 -9z"/>
<path d="M4641 3738 c-49 -18 -64 -124 -22 -162 40 -37 834 -142 915 -122 36
9 60 58 53 110 -8 55 -33 73 -115 81 -212 21 -623 72 -788 98 -11 2 -31 0 -43
-5z"/>
<path d="M5804 3600 c-33 -13 -54 -50 -54 -95 0 -81 40 -100 231 -112 96 -6
97 -6 114 21 20 29 17 128 -3 148 -6 6 -58 17 -114 25 -57 7 -114 15 -128 17
-14 3 -35 1 -46 -4z"/>
<path d="M7597 4052 c-38 -42 -10 -112 44 -112 35 0 58 20 65 56 12 60 -69
100 -109 56z"/>
<path d="M7291 3954 c-37 -48 -22 -103 34 -124 35 -13 59 -6 85 27 27 34 25
69 -5 98 -34 35 -86 34 -114 -1z"/>
<path d="M6956 3889 c-69 -82 16 -185 113 -135 53 28 67 101 26 141 -18 19
-35 25 -69 25 -37 0 -48 -5 -70 -31z"/>
<path d="M6649 3839 c-50 -18 -63 -85 -24 -124 39 -40 96 -32 120 16 20 38 19
54 -7 83 -28 30 -55 37 -89 25z"/>
</g>
</svg>
