<?xml version="1.0" standalone="no"?>
<!DOCTYPE svg PUBLIC "-//W3C//DTD SVG 20010904//EN"
 "http://www.w3.org/TR/2001/REC-SVG-20010904/DTD/svg10.dtd">
<svg version="1.0" xmlns="http://www.w3.org/2000/svg"
 width="1024.000000pt" height="1024.000000pt" viewBox="0 0 1024.000000 1024.000000"
 preserveAspectRatio="xMidYMid meet">
<metadata>
Created by potrace 1.16, written by Peter Selinger 2001-2019
</metadata>
<g transform="translate(0.000000,1024.000000) scale(0.100000,-0.100000)"
fill="#000000" stroke="none">
<path d="M4980 7344 c-353 -30 -629 -105 -919 -250 -256 -127 -416 -242 -608
-436 -185 -187 -308 -356 -419 -578 -101 -201 -161 -383 -205 -615 -27 -141
-36 -437 -20 -596 70 -675 430 -1266 1001 -1644 623 -412 1405 -506 2115 -254
141 50 385 171 505 251 451 300 783 751 926 1255 65 230 77 329 78 603 1 193
-3 268 -17 355 -92 549 -357 1008 -792 1375 -327 274 -758 459 -1217 519 -86
12 -358 21 -428 15z m560 -149 c599 -120 1115 -459 1439 -946 156 -234 260
-487 316 -767 26 -128 23 -176 -13 -260 -38 -89 -56 -180 -47 -248 12 -98 8
-170 -13 -210 -11 -22 -54 -69 -95 -106 -85 -77 -111 -121 -132 -229 -34 -174
-36 -181 -71 -219 -21 -23 -57 -47 -92 -60 -164 -65 -216 -111 -275 -241 -65
-141 -105 -169 -276 -193 -153 -21 -202 -45 -310 -151 -126 -123 -168 -134
-338 -94 -155 37 -250 18 -408 -82 -68 -43 -73 -44 -151 -44 -80 0 -81 0 -160
52 -159 104 -244 122 -411 84 -168 -38 -196 -30 -323 99 -118 119 -166 145
-314 164 -163 22 -202 52 -265 207 -45 108 -89 150 -227 215 -139 65 -161 92
-176 211 -23 192 -36 222 -144 335 -95 100 -103 126 -79 262 21 117 16 181
-20 283 -30 87 -31 113 -5 236 51 251 122 439 251 662 111 193 320 437 494
577 256 206 617 379 932 448 191 42 275 49 533 46 218 -3 260 -6 380 -31z
m1734 -2592 c-106 -441 -356 -845 -708 -1141 -248 -208 -592 -379 -916 -456
-257 -61 -587 -78 -835 -42 -433 63 -825 237 -1156 514 -313 263 -552 629
-664 1021 -34 118 -31 137 13 91 48 -50 63 -91 73 -202 15 -176 62 -238 246
-329 118 -57 141 -82 187 -197 35 -91 97 -161 168 -192 29 -13 96 -29 148 -37
134 -20 182 -45 265 -136 92 -101 160 -139 266 -145 49 -3 101 1 147 12 91 21
189 21 238 0 22 -9 67 -36 100 -60 90 -63 135 -79 230 -79 87 0 64 -8 293 111
82 43 146 47 256 18 39 -10 103 -18 145 -18 106 0 166 30 271 134 45 44 99 90
120 101 23 11 85 26 147 34 59 8 129 23 155 34 75 32 139 100 186 196 51 106
85 145 153 174 130 58 159 74 195 109 50 49 80 114 94 204 23 148 33 171 107
242 37 36 70 66 75 66 4 0 4 -12 1 -27z"/>
<path d="M5272 6973 c-21 -20 -172 -368 -172 -400 0 -51 89 -83 123 -45 9 10
39 72 66 137 27 66 61 145 75 175 32 69 33 94 1 125 -28 29 -65 32 -93 8z"/>
<path d="M3876 6719 c-18 -14 -26 -30 -26 -51 0 -26 18 -49 108 -140 133 -136
161 -155 203 -138 16 7 34 21 39 31 23 43 12 63 -107 181 -150 148 -167 157
-217 117z"/>
<path d="M6426 6330 c-200 -50 -216 -59 -216 -112 0 -31 34 -68 63 -68 10 0
107 23 215 50 210 54 232 65 232 120 0 36 -29 60 -71 59 -19 -1 -119 -23 -223
-49z"/>
<path d="M3767 6009 c-27 -16 -40 -58 -27 -89 10 -24 38 -37 211 -104 110 -42
203 -76 208 -76 5 0 20 9 35 21 32 25 36 77 7 103 -21 19 -373 156 -399 156
-10 0 -25 -5 -35 -11z"/>
<path d="M4995 6009 c-319 -43 -582 -244 -676 -519 -30 -90 -38 -269 -15 -360
54 -213 201 -386 412 -487 147 -69 223 -86 399 -87 165 0 230 11 363 65 80 31
183 96 243 151 101 93 187 235 215 356 20 85 20 238 -1 317 -56 217 -226 404
-454 500 -140 59 -334 85 -486 64z m340 -133 c33 -9 103 -37 155 -63 161 -80
280 -217 329 -377 12 -37 21 -87 21 -110 l-1 -41 -22 30 c-76 105 -201 202
-325 255 -37 15 -114 38 -171 50 -143 31 -332 25 -466 -15 -169 -50 -328 -153
-411 -266 -38 -52 -39 -53 -42 -26 -6 48 18 135 61 220 80 161 247 289 447
344 74 20 102 23 225 19 87 -2 163 -10 200 -20z m-94 -356 c272 -39 487 -204
539 -411 11 -42 9 -51 -10 -90 -95 -189 -300 -317 -561 -350 -158 -20 -357 21
-497 102 -78 46 -201 171 -237 241 l-29 57 22 68 c85 262 429 433 773 383z"/>
<path d="M6460 5407 c-107 -40 -200 -76 -207 -80 -17 -11 -24 -53 -13 -81 18
-47 50 -53 132 -22 40 15 129 48 198 72 127 46 170 75 170 115 0 25 -43 69
-67 68 -10 0 -106 -33 -213 -72z"/>
<path d="M3142 5347 c-45 -48 -34 -67 125 -228 114 -116 152 -149 173 -149 55
0 93 57 69 103 -7 12 -73 84 -147 160 -117 118 -140 137 -167 137 -20 0 -39
-8 -53 -23z"/>
<path d="M4062 4734 c-30 -21 -29 -47 13 -260 28 -145 39 -182 56 -196 35 -30
87 -19 109 22 17 31 -55 409 -82 433 -25 21 -66 22 -96 1z"/>
<path d="M6028 4188 c-137 -142 -157 -167 -158 -195 0 -41 30 -73 69 -73 24 0
47 19 129 103 203 210 224 236 217 265 -8 35 -40 62 -74 62 -21 0 -58 -32
-183 -162z"/>
<path d="M5018 4320 c-33 -20 -228 -272 -228 -295 0 -35 37 -75 70 -75 36 0
47 11 163 156 102 128 117 163 80 197 -24 21 -64 29 -85 17z"/>
</g>
</svg>
