<?xml version="1.0" standalone="no"?>
<!DOCTYPE svg PUBLIC "-//W3C//DTD SVG 20010904//EN"
 "http://www.w3.org/TR/2001/REC-SVG-20010904/DTD/svg10.dtd">
<svg version="1.0" xmlns="http://www.w3.org/2000/svg"
 width="2048.000000pt" height="2048.000000pt" viewBox="0 0 2048.000000 2048.000000"
 preserveAspectRatio="xMidYMid meet">
<metadata>
Created by potrace 1.16, written by Peter Selinger 2001-2019
</metadata>
<g transform="translate(0.000000,2048.000000) scale(0.100000,-0.100000)"
fill="#000000" stroke="none">
<path d="M8805 14664 c-500 -67 -986 -256 -1610 -625 -505 -298 -1048 -691
-1372 -991 -124 -115 -287 -290 -406 -435 -57 -70 -142 -160 -188 -200 -46
-39 -161 -149 -254 -245 -263 -267 -455 -498 -626 -753 -312 -463 -500 -926
-570 -1400 -25 -170 -38 -543 -21 -596 7 -19 14 -79 16 -135 3 -55 14 -165 26
-245 115 -790 356 -1460 720 -2008 149 -225 260 -361 445 -547 312 -314 607
-521 989 -694 323 -146 708 -252 1054 -290 131 -14 427 -15 515 0 274 44 460
187 699 540 354 521 712 1394 968 2360 29 107 55 198 59 203 4 4 50 -17 102
-46 52 -30 204 -116 339 -192 233 -131 313 -178 615 -355 72 -42 202 -119 290
-170 88 -51 219 -128 290 -170 130 -77 369 -213 542 -309 51 -28 195 -102 320
-165 595 -298 1031 -444 1408 -471 289 -21 573 80 895 320 l97 73 49 -25 c259
-131 836 -479 1065 -644 123 -88 157 -103 207 -89 48 12 77 43 144 155 160
264 451 709 623 950 105 148 396 537 430 575 56 62 68 123 36 176 -69 113
-895 580 -1421 804 -80 34 -146 63 -147 63 -1 1 10 47 23 102 53 218 67 329
67 530 0 214 -13 321 -68 542 -85 345 -218 636 -449 983 -448 676 -1070 1203
-2081 1765 -76 42 -174 113 -315 226 -572 459 -991 735 -1528 1003 -484 242
-902 377 -1333 431 -152 19 -502 18 -644 -1z m642 -299 c404 -56 800 -193
1288 -444 700 -360 1409 -887 2092 -1555 399 -389 709 -757 995 -1181 386
-570 447 -756 363 -1101 -34 -141 -67 -230 -146 -384 -111 -220 -202 -354
-494 -730 -322 -414 -479 -682 -579 -985 -68 -207 -80 -280 -81 -480 0 -161 2
-188 23 -255 25 -77 50 -128 85 -167 11 -13 17 -26 14 -30 -16 -16 -323 66
-507 136 -341 128 -683 297 -1215 599 -221 125 -698 403 -810 472 -269 164
-1017 588 -1138 645 l-108 50 5 35 c2 19 25 155 50 301 113 657 164 1259 172
2034 4 361 1 524 -15 825 -28 553 -18 749 44 869 20 39 35 39 80 -1 98 -85
187 -364 289 -904 152 -802 267 -1251 439 -1724 202 -553 455 -1025 741 -1380
159 -197 240 -256 261 -189 9 27 -16 73 -92 168 -253 317 -448 637 -617 1014
-248 550 -415 1126 -580 1997 -105 555 -189 870 -269 1010 -91 159 -226 226
-343 169 -112 -54 -169 -221 -179 -524 -3 -88 1 -317 9 -510 13 -324 15 -1277
2 -1345 -2 -14 -7 -86 -11 -160 -14 -302 -63 -786 -116 -1150 -69 -471 -104
-653 -194 -1001 -228 -878 -593 -1767 -926 -2254 -72 -105 -174 -238 -188
-243 -4 -1 -17 24 -28 56 -28 81 -84 162 -173 252 -104 104 -211 182 -482 350
-623 386 -1000 674 -1384 1055 -393 390 -654 759 -834 1178 -326 761 -325
1528 3 2327 191 465 533 986 917 1399 256 276 627 579 1075 878 761 507 1357
784 1870 868 226 37 474 40 692 10z m4064 -2302 c524 -403 917 -865 1155
-1358 195 -404 276 -770 246 -1112 -12 -137 -56 -381 -71 -396 -5 -5 -44 2
-86 15 l-79 24 3 215 c4 392 -48 700 -180 1056 -136 369 -544 979 -1067 1596
-30 34 7 16 79 -40z m-8811 -717 c0 -2 -20 -53 -44 -114 -62 -153 -111 -308
-156 -496 -208 -857 -37 -1738 492 -2530 277 -414 669 -814 1197 -1219 102
-78 189 -145 195 -149 6 -4 8 -10 4 -13 -8 -8 -210 102 -383 208 -416 254
-734 505 -1050 828 -384 393 -620 741 -790 1164 -112 277 -136 499 -95 856 56
484 239 938 569 1407 37 52 61 75 61 58z m9555 -1642 c-59 -261 -163 -464
-464 -904 -369 -539 -421 -621 -496 -773 -102 -209 -128 -298 -129 -452 -1
-105 2 -126 22 -170 61 -133 169 -173 328 -124 38 12 90 32 116 45 26 13 53
24 60 24 25 0 138 -54 138 -66 0 -7 -53 -48 -118 -92 -208 -139 -369 -182
-485 -129 -108 49 -172 132 -203 263 -32 137 -5 402 60 597 104 308 256 564
601 1007 294 378 415 567 526 820 58 131 64 141 67 108 2 -20 -9 -89 -23 -154z
m296 -59 c10 -111 7 -351 -5 -362 -5 -5 -149 28 -158 36 -4 4 10 52 32 108 22
56 55 160 72 232 18 72 36 127 40 123 4 -4 12 -65 19 -137z m-14 -605 c527
-159 1125 -432 1646 -752 177 -109 237 -149 237 -161 0 -5 -46 -71 -103 -146
-270 -356 -512 -711 -883 -1293 l-24 -38 -82 53 c-398 256 -938 569 -1308 759
-149 76 -519 242 -565 254 -15 4 -29 13 -32 20 -8 21 124 284 210 420 42 65
124 187 183 269 216 302 318 453 450 672 12 18 18 21 41 13 16 -5 119 -36 230
-70z m-10190 -827 c240 -323 607 -699 943 -964 303 -240 680 -479 1041 -660
320 -160 477 -225 815 -339 257 -87 278 -96 335 -147 60 -55 93 -117 94 -178
1 -105 -42 -132 -219 -142 -279 -14 -672 55 -1031 182 -915 323 -1576 1019
-1965 2065 -60 160 -90 260 -79 260 4 0 34 -35 66 -77z m9183 -784 c0 -24
-130 -39 -147 -16 -13 15 -25 81 -18 89 7 7 165 -63 165 -73z"/>
<path d="M6015 12528 c-383 -387 -693 -924 -829 -1438 -81 -307 -110 -527
-104 -780 5 -189 18 -240 62 -240 47 0 49 13 61 360 8 246 45 455 124 710 51
166 76 229 157 400 151 321 340 604 614 920 45 52 88 108 95 125 17 38 4 65
-32 65 -20 0 -54 -28 -148 -122z"/>
<path d="M12902 11728 c-25 -25 -12 -66 46 -145 258 -349 433 -665 557 -1002
44 -120 70 -157 103 -147 30 10 36 43 22 113 -13 64 -93 284 -145 398 -89 194
-272 489 -412 663 -103 127 -139 152 -171 120z"/>
<path d="M5926 11669 c-55 -43 -182 -353 -207 -508 -14 -81 -7 -117 22 -126
35 -11 58 22 96 144 19 64 64 187 99 274 64 157 74 203 52 225 -17 17 -32 15
-62 -9z"/>
<path d="M12907 10973 c-17 -16 -4 -79 33 -162 77 -177 111 -231 144 -231 22
0 46 29 46 55 0 57 -90 259 -140 313 -27 30 -67 42 -83 25z"/>
<path d="M13822 10097 c-6 -7 -33 -64 -60 -127 -70 -164 -122 -265 -197 -379
-106 -165 -124 -213 -90 -241 40 -33 132 61 243 250 124 210 203 455 160 498
-16 16 -43 15 -56 -1z"/>
<path d="M5240 9070 c-15 -28 15 -106 85 -227 226 -384 564 -770 986 -1124
132 -111 240 -193 521 -399 524 -383 662 -500 819 -691 110 -134 115 -139 144
-139 18 0 26 7 31 25 9 37 -1 64 -55 148 -113 173 -342 376 -801 709 -838 608
-1208 983 -1628 1651 -33 53 -47 67 -67 67 -14 0 -29 -8 -35 -20z"/>
<path d="M13069 8863 c-78 -83 -204 -282 -292 -458 -90 -180 -177 -457 -177
-562 0 -66 13 -93 45 -93 32 0 46 27 83 171 71 271 181 506 384 819 39 59 48
81 46 110 -3 31 -7 35 -33 38 -23 2 -37 -4 -56 -25z"/>
<path d="M12487 8523 c-23 -26 -57 -111 -64 -160 -4 -34 -2 -48 12 -63 10 -11
23 -20 30 -20 45 0 121 192 95 240 -13 25 -52 26 -73 3z"/>
<path d="M7186 7644 c-43 -42 -15 -74 237 -269 204 -158 230 -174 254 -159 38
24 28 59 -35 121 -127 125 -389 323 -428 323 -7 0 -20 -7 -28 -16z"/>
</g>
</svg>
