<?xml version="1.0" standalone="no"?>
<!DOCTYPE svg PUBLIC "-//W3C//DTD SVG 20010904//EN"
 "http://www.w3.org/TR/2001/REC-SVG-20010904/DTD/svg10.dtd">
<svg version="1.0" xmlns="http://www.w3.org/2000/svg"
 width="2048.000000pt" height="2048.000000pt" viewBox="0 0 2048.000000 2048.000000"
 preserveAspectRatio="xMidYMid meet">
<metadata>
Created by potrace 1.16, written by Peter Selinger 2001-2019
</metadata>
<g transform="translate(0.000000,2048.000000) scale(0.100000,-0.100000)"
fill="#000000" stroke="none">
<path d="M11350 16039 c-150 -11 -355 -35 -505 -60 -752 -125 -1321 -360
-1956 -806 -253 -177 -464 -357 -704 -598 -422 -423 -701 -798 -940 -1259
-237 -457 -362 -881 -406 -1376 -14 -166 -7 -532 16 -715 90 -747 383 -1447
844 -2015 328 -405 675 -612 1166 -697 146 -25 625 -25 780 0 347 56 669 163
919 304 409 232 669 535 763 891 22 81 26 120 26 237 1 228 -41 351 -214 621
-229 355 -329 632 -329 906 0 196 35 314 134 452 156 218 471 364 906 418 154
19 619 16 860 -6 444 -40 683 -15 904 95 321 159 560 490 671 927 39 156 55
279 62 472 19 555 -150 1068 -488 1485 -66 81 -221 235 -296 294 -323 253
-741 389 -1325 430 -168 12 -716 12 -888 0z m848 -415 c17 -3 32 -9 32 -13 -1
-3 -26 -22 -56 -41 -73 -46 -191 -161 -242 -237 -100 -148 -167 -317 -204
-523 -30 -164 -30 -463 0 -640 87 -511 300 -941 629 -1267 62 -62 113 -114
113 -116 0 -1 -64 -1 -143 1 -472 13 -908 -66 -1233 -222 -430 -206 -671 -551
-709 -1016 -17 -198 58 -556 159 -760 19 -39 32 -70 29 -70 -3 0 -45 14 -93
30 -299 103 -648 116 -1030 39 -747 -150 -1386 -665 -1461 -1179 -6 -44 -13
-80 -14 -80 -12 0 -195 294 -263 422 -223 421 -354 823 -414 1273 -18 135 -18
655 0 790 90 673 382 1295 897 1915 592 711 1348 1254 2080 1494 380 124 615
169 1095 210 69 6 791 -3 828 -10z m628 -120 c520 -150 944 -668 1080 -1319
24 -115 28 -153 28 -325 1 -223 -13 -320 -70 -489 -45 -135 -82 -211 -155
-321 -100 -150 -231 -251 -384 -296 -81 -24 -246 -24 -340 0 -93 23 -274 113
-357 176 -586 445 -894 1457 -638 2096 78 195 216 356 370 432 159 78 307 93
466 46z m-2624 -4889 c389 -68 683 -284 753 -552 87 -335 -200 -737 -700 -978
-288 -139 -576 -209 -920 -222 -477 -18 -882 112 -1071 344 -82 100 -114 259
-80 393 77 300 364 598 777 805 262 132 491 194 844 229 73 7 313 -4 397 -19z"/>
<path d="M11045 15404 c-257 -30 -280 -35 -300 -74 -23 -45 -19 -78 15 -112
28 -27 35 -30 73 -24 149 25 270 36 395 36 l144 0 29 29 c32 33 36 58 15 100
-23 44 -53 51 -204 50 -75 -1 -150 -4 -167 -5z"/>
<path d="M10128 15180 c-318 -108 -622 -270 -913 -488 -331 -249 -725 -650
-725 -738 0 -12 12 -37 26 -54 23 -27 32 -31 67 -28 37 3 47 10 105 78 94 110
323 340 427 429 337 289 708 504 1100 636 138 47 140 48 155 85 10 24 10 36 0
60 -30 72 -77 75 -242 20z"/>
<path d="M7691 12582 c-23 -22 -34 -53 -59 -157 -78 -326 -97 -484 -96 -785 1
-259 14 -382 65 -607 50 -220 179 -570 228 -619 31 -31 92 -33 121 -4 35 35
35 66 0 149 -202 476 -274 911 -224 1364 16 154 62 400 94 512 27 93 25 111
-9 146 -39 39 -83 39 -120 1z"/>
<path d="M12613 15215 c-140 -39 -244 -128 -312 -267 -160 -326 -126 -830 88
-1307 100 -225 275 -444 437 -551 250 -164 533 -115 689 120 252 378 184 1070
-156 1590 -79 121 -238 282 -334 338 -137 80 -297 110 -412 77z m287 -240 c91
-47 223 -174 293 -283 112 -172 217 -434 254 -635 26 -140 23 -407 -5 -510
-62 -225 -167 -337 -318 -337 -251 0 -560 441 -663 946 -84 413 -9 763 184
851 20 9 56 12 105 10 64 -3 86 -9 150 -42z"/>
<path d="M9745 10353 c-330 -28 -689 -146 -930 -304 -44 -29 -119 -91 -166
-138 -143 -142 -208 -306 -182 -457 22 -125 81 -215 191 -287 130 -86 297
-133 517 -146 669 -39 1395 291 1524 692 28 89 34 150 20 215 -48 233 -267
381 -624 422 -84 9 -260 11 -350 3z m443 -239 c86 -17 200 -67 249 -108 113
-95 91 -255 -55 -402 -228 -230 -668 -384 -1095 -384 -249 1 -419 45 -526 137
-168 143 -67 357 257 541 218 124 482 206 751 232 115 11 325 3 419 -16z"/>
<path d="M15680 11224 c-325 -46 -601 -143 -814 -286 -34 -23 -98 -78 -143
-123 -115 -114 -132 -154 -188 -441 -80 -403 -161 -635 -311 -891 -117 -200
-304 -419 -480 -564 -326 -267 -766 -455 -1259 -538 -333 -56 -323 -56 -1050
-56 -607 -1 -689 -3 -763 -19 -321 -67 -609 -256 -834 -546 -306 -395 -479
-945 -480 -1525 -1 -247 22 -421 83 -631 82 -285 190 -484 360 -659 268 -277
526 -383 1122 -460 575 -74 1421 -96 1927 -50 945 86 1759 317 2493 708 1054
560 1863 1461 2364 2632 262 611 405 1188 444 1790 30 467 -31 678 -275 947
-52 57 -101 108 -109 113 -8 6 -46 36 -85 68 -275 223 -677 405 -1077 487
-220 45 -286 52 -555 56 -197 2 -292 -1 -370 -12z m680 -423 c605 -114 1130
-432 1326 -805 l37 -70 -7 -151 c-26 -617 -190 -1300 -453 -1884 -591 -1318
-1499 -2172 -2839 -2671 -803 -299 -1836 -451 -2709 -400 -275 17 -806 75
-804 89 0 3 32 26 71 51 148 94 347 324 465 535 153 274 263 606 315 950 20
136 17 543 -5 665 -57 315 -174 582 -326 743 l-35 37 235 0 c829 0 1489 165
2070 516 426 258 768 629 984 1069 143 291 219 546 260 870 9 72 18 138 21
147 3 10 30 38 61 63 161 131 391 222 663 261 148 21 523 13 670 -15z m-5440
-2871 c131 -21 281 -115 382 -242 271 -337 348 -908 202 -1492 -43 -169 -92
-305 -170 -466 -228 -470 -533 -741 -833 -740 -140 1 -270 62 -401 190 -202
197 -319 477 -361 865 -20 187 1 478 51 710 54 246 176 538 297 707 182 256
424 428 655 467 74 12 104 12 178 1z"/>
<path d="M17100 9822 l-28 -29 5 -159 c13 -368 -60 -719 -234 -1122 -46 -106
-48 -128 -14 -166 44 -50 116 -35 150 32 49 96 141 344 185 497 65 227 106
612 88 824 -9 96 -12 107 -36 128 -37 32 -81 30 -116 -5z"/>
<path d="M16011 6741 c-8 -5 -93 -87 -190 -183 -189 -187 -305 -285 -508 -429
-654 -465 -1432 -711 -2403 -760 -136 -7 -227 -16 -247 -24 -63 -27 -65 -121
-3 -152 80 -40 757 20 1155 103 694 145 1272 413 1807 839 147 117 495 460
504 498 16 67 -63 141 -115 108z"/>
<path d="M11832 5384 c-55 -38 -47 -124 13 -150 18 -7 94 -22 169 -33 153 -23
187 -18 211 30 34 65 0 123 -76 133 -24 3 -96 12 -160 21 -141 18 -130 18
-157 -1z"/>
<path d="M10589 7596 c-124 -36 -252 -131 -349 -258 -167 -220 -278 -526 -316
-872 -15 -137 -16 -180 -6 -311 24 -317 100 -534 239 -685 189 -204 438 -194
659 25 189 187 314 469 385 872 20 108 23 162 23 353 0 196 -3 238 -23 330
-27 125 -75 257 -122 335 -47 79 -147 169 -218 196 -69 27 -205 34 -272 15z
m186 -216 c165 -80 258 -447 214 -848 -42 -393 -183 -745 -363 -909 -55 -51
-124 -83 -176 -83 -48 0 -129 49 -170 104 -112 149 -160 333 -160 616 0 179
14 297 55 462 71 278 213 518 372 627 77 52 161 64 228 31z"/>
<path d="M4316 10520 c-385 -44 -690 -144 -987 -322 -393 -236 -691 -606 -864
-1072 -52 -141 -112 -383 -131 -533 -20 -154 -23 -489 -5 -643 49 -429 195
-849 428 -1228 303 -494 773 -944 1338 -1281 619 -369 1295 -582 2150 -678
230 -26 988 -26 1180 0 407 55 682 169 930 385 212 184 408 484 508 777 42
124 101 365 122 505 23 145 30 458 16 617 -57 612 -324 1093 -731 1312 -164
88 -318 124 -644 151 -364 31 -534 63 -709 133 -128 52 -222 112 -314 200
-177 170 -258 345 -312 674 -27 158 -47 215 -117 320 -221 333 -680 576 -1259
668 -118 19 -483 28 -599 15z m588 -395 c360 -57 695 -203 893 -388 102 -96
120 -128 133 -238 26 -221 72 -401 141 -544 126 -266 329 -467 603 -600 185
-89 312 -127 541 -160 102 -15 125 -21 114 -28 -116 -80 -264 -231 -341 -347
-105 -159 -207 -400 -263 -619 -94 -376 -96 -822 -4 -1201 82 -338 216 -597
398 -773 50 -48 91 -90 91 -94 0 -11 -555 6 -700 22 -844 92 -1546 304 -2138
643 -375 215 -756 535 -996 837 -347 435 -560 933 -616 1440 -13 117 -13 415
0 530 37 318 144 615 308 850 82 118 267 298 387 378 240 159 548 267 870 306
113 14 460 6 579 -14z m3076 -2027 c331 -100 577 -481 645 -996 19 -146 19
-409 0 -559 -19 -146 -68 -360 -107 -473 -46 -132 -149 -336 -221 -435 -132
-183 -325 -337 -507 -401 -96 -34 -227 -39 -308 -10 -74 25 -190 105 -253 174
-236 258 -369 687 -369 1195 0 388 66 688 212 967 77 147 133 226 233 325 95
96 182 154 288 196 137 52 253 58 387 17z"/>
<path d="M3013 8715 c-37 -26 -46 -85 -38 -240 16 -331 99 -643 247 -935 254
-500 683 -918 1290 -1257 181 -101 520 -263 551 -263 23 0 58 19 74 39 21 27
16 85 -9 108 -13 12 -106 62 -208 111 -679 326 -1115 680 -1427 1158 -208 319
-325 693 -340 1084 -6 154 -8 166 -29 187 -27 27 -79 31 -111 8z"/>
<path d="M7825 7788 c-377 -51 -675 -665 -652 -1343 17 -483 164 -801 415
-895 48 -18 73 -21 153 -18 87 3 104 7 171 40 213 106 392 372 482 718 52 197
60 270 61 520 0 189 -4 252 -18 320 -98 464 -316 698 -612 658z m151 -227
c215 -98 338 -594 259 -1046 -86 -493 -372 -864 -584 -756 -289 148 -337 1013
-83 1516 122 244 271 348 408 286z"/>
</g>
</svg>
