<?xml version="1.0" standalone="no"?>
<!DOCTYPE svg PUBLIC "-//W3C//DTD SVG 20010904//EN"
 "http://www.w3.org/TR/2001/REC-SVG-20010904/DTD/svg10.dtd">
<svg version="1.0" xmlns="http://www.w3.org/2000/svg"
 width="2048.000000pt" height="2048.000000pt" viewBox="0 0 2048.000000 2048.000000"
 preserveAspectRatio="xMidYMid meet">
<metadata>
Created by potrace 1.16, written by Peter Selinger 2001-2019
</metadata>
<g transform="translate(0.000000,2048.000000) scale(0.100000,-0.100000)"
fill="#000000" stroke="none">
<path d="M10035 15463 c-1022 -20 -2110 -196 -3090 -500 -1007 -311 -1723
-661 -2315 -1132 -172 -136 -464 -424 -579 -570 -312 -394 -527 -860 -601
-1299 -44 -259 -47 -419 -14 -782 l5 -55 -51 -30 c-78 -45 -176 -154 -218
-242 -31 -66 -36 -87 -40 -174 -4 -83 -1 -109 17 -162 l21 -64 -20 -78 c-45
-177 -10 -314 113 -443 46 -47 83 -74 152 -108 49 -25 93 -49 98 -53 4 -4 -4
-38 -18 -76 -54 -142 -69 -229 -68 -385 0 -98 6 -169 17 -220 34 -151 40 -128
-66 -233 -72 -69 -103 -108 -127 -157 -54 -113 -62 -210 -25 -336 l15 -51 -42
-87 c-38 -78 -42 -96 -47 -180 -10 -200 72 -344 273 -476 52 -34 95 -65 95
-69 0 -3 7 -67 15 -141 56 -528 236 -919 586 -1270 319 -320 739 -562 1329
-767 676 -235 1509 -403 2605 -528 1064 -120 2557 -134 3690 -35 393 35 952
101 1195 141 419 69 777 141 1051 209 831 208 1469 483 1959 844 580 427 879
935 960 1636 7 58 16 112 21 121 4 8 47 39 96 69 266 162 368 399 279 646 -32
88 -32 90 0 189 22 67 25 92 21 154 -10 136 -69 224 -254 381 l-41 35 20 75
c25 95 35 301 19 397 -7 37 -28 108 -47 156 -20 49 -34 90 -32 91 1 2 32 18
68 37 138 72 226 199 237 341 4 62 1 85 -21 151 -14 42 -26 82 -26 88 0 7 16
52 36 101 59 148 57 264 -8 393 -34 67 -99 146 -172 206 l-70 57 -1 304 c-2
375 -21 515 -112 823 -260 883 -987 1612 -2133 2137 -466 214 -1160 450 -1690
577 -47 11 -160 38 -251 60 -503 121 -1089 208 -1729 257 -204 16 -846 32
-1085 27z m930 -364 c528 -31 1262 -132 1710 -235 1222 -280 2170 -659 2836
-1135 248 -177 482 -391 633 -579 228 -285 398 -624 480 -960 56 -230 61 -282
60 -615 -1 -363 -9 -445 -57 -524 -75 -125 -238 -267 -402 -349 -33 -16 -152
-59 -265 -96 -231 -74 -311 -112 -490 -231 -211 -140 -297 -181 -450 -211 -80
-16 -295 -19 -500 -6 -157 10 -297 -2 -402 -32 -90 -26 -140 -49 -388 -177
-180 -93 -257 -114 -420 -112 -63 0 -173 8 -245 17 -252 31 -370 18 -629 -69
-88 -30 -189 -59 -224 -66 -86 -16 -232 -6 -367 26 -206 49 -240 55 -341 61
-132 9 -226 -6 -434 -68 -314 -93 -439 -99 -729 -34 -221 50 -335 66 -463 66
-137 0 -224 -12 -428 -60 -361 -85 -440 -83 -755 20 -99 32 -220 66 -270 76
-126 23 -287 15 -482 -25 -161 -33 -271 -39 -351 -20 -26 6 -105 38 -177 70
-71 32 -159 66 -195 75 -91 25 -221 22 -354 -6 -178 -37 -226 -27 -392 80
-156 100 -310 123 -534 80 -58 -11 -123 -20 -146 -20 -59 0 -140 26 -214 70
-117 69 -244 127 -320 149 -48 13 -144 26 -270 35 -107 8 -213 21 -236 29
-100 36 -200 97 -369 227 -55 42 -172 124 -261 183 -96 63 -177 124 -203 153
-54 61 -96 150 -129 272 -24 91 -26 111 -26 327 -1 259 12 369 69 591 162 633
573 1182 1240 1655 530 376 1288 709 2205 969 715 203 1428 328 2225 390 371
30 1055 34 1460 9z m5932 -4148 c53 -38 81 -75 94 -124 10 -37 8 -45 -30 -121
-70 -143 -76 -208 -26 -325 14 -33 25 -67 25 -75 0 -29 -63 -86 -133 -121 -47
-23 -115 -44 -192 -60 -231 -49 -308 -86 -450 -216 -54 -50 -121 -102 -148
-116 -110 -55 -117 -56 -362 -58 -204 -2 -238 -5 -305 -24 -109 -32 -178 -73
-288 -169 -136 -119 -166 -140 -246 -164 -63 -19 -84 -20 -230 -14 -226 9
-262 -1 -422 -121 -137 -102 -250 -118 -435 -61 -85 26 -121 32 -199 33 -110
0 -137 -10 -299 -115 -52 -33 -120 -68 -150 -78 -86 -26 -196 -21 -312 16
-179 56 -204 54 -384 -33 -260 -125 -382 -133 -657 -40 -165 55 -253 69 -388
62 -130 -6 -207 -25 -381 -93 -75 -30 -162 -60 -195 -69 -117 -30 -221 -15
-389 56 -93 40 -107 43 -190 44 -82 0 -99 -3 -185 -39 -133 -54 -208 -64 -309
-42 -43 9 -117 32 -165 50 -182 72 -226 71 -396 -5 -145 -65 -227 -83 -345
-76 -113 7 -208 32 -366 98 -317 131 -428 159 -625 159 -143 0 -221 -12 -433
-66 -289 -73 -445 -53 -673 87 -204 125 -239 134 -396 100 -134 -29 -174 -33
-242 -22 -83 14 -166 54 -291 142 -259 181 -407 219 -687 173 -215 -35 -299
-17 -421 91 -138 121 -221 146 -476 142 -138 -2 -154 0 -200 21 -63 29 -95 60
-155 147 -75 111 -123 150 -211 170 -158 35 -205 124 -137 258 44 87 44 161 0
239 -42 74 -42 116 0 164 41 46 83 64 150 64 53 0 55 -1 118 -66 89 -90 163
-148 311 -241 70 -44 171 -114 225 -155 275 -207 376 -251 614 -269 292 -21
343 -35 552 -150 202 -111 281 -126 485 -90 230 40 295 29 457 -79 167 -110
259 -127 456 -86 214 45 264 38 505 -63 222 -94 345 -103 629 -46 269 54 340
49 631 -45 239 -77 313 -92 455 -91 134 0 231 16 447 72 137 36 176 42 295 47
154 5 231 -4 458 -53 344 -75 477 -71 820 26 293 82 381 85 665 19 188 -43
313 -55 437 -40 101 12 220 41 316 79 119 47 212 64 347 65 72 0 171 -6 220
-14 130 -20 341 -19 440 4 97 22 220 72 323 130 302 171 380 188 747 167 447
-26 631 21 975 248 193 128 248 154 490 234 208 69 303 111 416 188 95 64 231
193 296 282 51 69 66 87 79 87 3 0 24 -13 46 -29z m-300 -1107 c52 -34 107
-118 133 -202 51 -163 3 -390 -121 -573 -67 -100 -116 -155 -224 -251 -261
-234 -679 -445 -1250 -631 -627 -205 -1330 -373 -2090 -502 -377 -64 -712
-104 -1210 -144 -430 -36 -528 -41 -1325 -68 -374 -13 -1311 -6 -1650 11 -938
49 -1947 191 -3005 421 -1006 219 -1554 453 -1860 795 -108 121 -184 254 -221
387 -22 79 -30 267 -14 345 14 75 54 168 72 168 7 0 47 -14 88 -32 74 -31 79
-32 275 -37 229 -7 238 -9 352 -107 74 -63 158 -108 240 -129 72 -19 217 -19
319 -1 138 25 170 27 240 16 92 -15 171 -53 320 -155 257 -177 393 -212 648
-165 126 23 135 21 266 -56 185 -110 329 -150 530 -148 130 1 170 8 425 69
127 30 168 36 265 36 169 0 276 -27 510 -128 394 -171 642 -185 923 -53 98 47
108 47 242 -3 241 -90 379 -96 574 -26 158 57 152 57 286 10 288 -99 410 -96
695 19 80 32 168 65 197 73 125 37 261 31 404 -18 151 -52 287 -86 370 -92
158 -11 336 30 510 118 95 47 108 48 263 6 173 -47 356 -33 497 38 26 14 87
51 135 82 114 74 150 78 290 33 74 -24 124 -33 199 -37 154 -8 262 25 414 129
120 82 144 88 333 87 124 -1 178 3 228 16 107 28 206 86 313 184 110 101 141
123 223 153 54 20 80 22 284 23 254 1 279 5 415 70 69 33 116 67 200 140 97
85 205 155 240 155 6 0 29 -12 52 -26z m264 -965 c69 -34 115 -79 124 -119 4
-20 -1 -53 -16 -98 -33 -93 -31 -183 6 -285 32 -92 30 -145 -10 -213 -33 -56
-70 -83 -189 -140 -70 -33 -148 -58 -275 -90 -270 -66 -329 -97 -492 -265 -80
-83 -120 -115 -165 -136 -58 -28 -61 -28 -274 -29 -171 0 -229 -4 -285 -18
-108 -27 -224 -89 -313 -166 -174 -150 -264 -188 -430 -176 -53 3 -126 13
-162 21 -111 25 -217 29 -299 11 -103 -22 -179 -60 -302 -152 -220 -166 -350
-187 -689 -110 -155 36 -172 38 -285 33 -159 -7 -222 -28 -376 -123 -149 -92
-211 -117 -309 -121 -94 -5 -132 4 -295 73 -70 29 -107 38 -169 42 -108 6
-164 -9 -285 -78 -126 -72 -165 -80 -246 -50 -184 66 -211 73 -310 77 -130 6
-205 -10 -387 -83 -136 -55 -147 -58 -228 -58 -76 0 -97 5 -206 47 -127 48
-253 77 -334 77 -71 0 -182 -24 -295 -64 -150 -54 -224 -46 -379 37 -159 86
-289 116 -423 97 -43 -5 -148 -34 -233 -63 -150 -50 -159 -52 -265 -52 -127 0
-154 9 -318 108 -141 85 -192 102 -307 101 -83 0 -109 -5 -205 -38 -140 -48
-198 -58 -277 -45 -84 13 -168 54 -297 142 -127 89 -197 129 -272 157 -180 66
-362 67 -569 2 -65 -20 -106 -26 -175 -27 -104 0 -119 6 -235 96 -123 95 -198
117 -320 93 -105 -20 -176 -18 -224 6 -23 11 -83 58 -134 104 -164 147 -238
174 -522 186 -102 4 -202 13 -223 20 -24 7 -66 38 -110 79 -72 69 -118 97
-192 121 -60 19 -139 75 -170 120 -18 26 -29 57 -32 88 -4 43 0 54 46 126 32
50 53 95 57 124 8 53 -9 136 -36 177 -25 38 -25 71 -1 111 25 41 74 77 135 99
l48 19 36 -45 c67 -84 208 -211 324 -291 427 -298 982 -485 2073 -703 1000
-199 1791 -302 2725 -356 201 -11 1545 -15 1790 -4 74 3 243 10 375 16 1403
59 2536 236 3753 584 778 222 1283 443 1622 708 89 70 233 210 287 280 50 65
48 65 144 16z m-296 -1179 c4 -6 1 -52 -5 -103 -36 -304 -138 -598 -286 -825
-383 -589 -1201 -1040 -2434 -1341 -1076 -263 -2542 -405 -4000 -387 -783 9
-1225 35 -1890 112 -934 108 -1683 259 -2300 464 -611 203 -988 415 -1290 726
-223 230 -369 495 -436 794 -27 119 -45 240 -38 251 2 4 28 0 57 -8 32 -9 126
-17 247 -22 243 -9 261 -16 404 -150 158 -148 258 -185 449 -163 56 7 112 12
124 12 12 0 57 -24 100 -54 219 -150 332 -168 609 -96 172 44 255 50 362 25
81 -19 140 -49 294 -152 190 -126 274 -164 414 -184 95 -15 193 -1 329 46 179
61 199 59 384 -51 176 -104 309 -139 476 -124 96 9 139 20 270 70 209 80 268
76 480 -30 170 -84 245 -104 370 -97 73 4 113 13 210 48 108 39 129 43 205 43
69 -1 102 -8 175 -34 243 -87 232 -84 360 -84 133 0 151 5 355 91 113 47 117
48 220 48 101 -1 110 -3 227 -48 108 -42 131 -47 201 -47 98 0 150 17 270 88
128 76 163 79 302 23 144 -58 203 -71 319 -71 141 0 239 32 407 135 171 105
206 118 324 119 75 0 123 -7 230 -34 115 -29 157 -34 285 -38 242 -6 365 33
560 177 181 135 232 147 455 107 325 -58 480 -22 705 164 125 103 221 155 313
169 35 6 129 7 210 4 282 -11 387 29 558 212 116 123 176 165 286 200 79 26
123 31 133 15z"/>
<path d="M12025 14815 c-19 -18 -25 -35 -25 -65 0 -30 6 -47 25 -65 55 -56
155 -13 155 66 0 76 -101 118 -155 64z"/>
<path d="M10683 14661 c-50 -23 -73 -62 -73 -124 0 -74 58 -127 139 -127 47 0
100 40 121 90 26 64 -18 150 -88 170 -48 13 -50 13 -99 -9z"/>
<path d="M11574 14592 c-33 -21 -64 -76 -64 -112 0 -37 32 -91 64 -111 41 -25
112 -25 150 0 40 27 55 57 56 114 0 40 -5 53 -33 84 -29 31 -41 37 -88 40 -41
3 -61 0 -85 -15z"/>
<path d="M12493 14585 c-67 -29 -94 -126 -53 -193 21 -34 71 -62 112 -62 41 0
105 39 122 74 57 120 -59 234 -181 181z"/>
<path d="M10757 14099 c-22 -13 -47 -61 -47 -93 0 -33 44 -83 80 -91 33 -7 84
15 100 44 5 11 10 38 10 59 0 33 -6 45 -31 66 -32 27 -80 34 -112 15z"/>
<path d="M11783 14080 c-45 -27 -66 -73 -60 -127 5 -50 28 -80 74 -99 42 -18
67 -18 107 1 89 42 89 188 0 230 -43 20 -83 19 -121 -5z"/>
<path d="M4471 12795 c-72 -62 -211 -304 -211 -370 0 -68 73 -108 127 -70 13
9 40 50 61 93 22 42 70 121 106 176 74 109 78 131 30 174 -33 29 -75 28 -113
-3z"/>
<path d="M4141 12122 c-46 -46 -91 -275 -91 -464 0 -373 155 -668 468 -888
160 -112 406 -229 453 -215 43 13 69 45 69 85 0 50 -23 69 -152 125 -337 147
-552 369 -630 651 -19 68 -22 105 -22 269 0 163 3 202 22 278 28 111 28 132
-3 162 -33 34 -78 33 -114 -3z"/>
<path d="M12340 11950 c-222 -35 -393 -184 -456 -395 -27 -89 -24 -230 5 -325
122 -396 627 -517 922 -221 107 107 159 235 159 391 0 163 -56 296 -170 404
-124 116 -298 171 -460 146z m42 -232 c71 -40 104 -119 84 -199 -31 -116 -150
-167 -256 -108 -97 53 -121 187 -47 268 60 65 145 80 219 39z"/>
<path d="M8131 11914 c-202 -54 -355 -208 -406 -409 -19 -75 -19 -192 0 -274
67 -283 349 -465 630 -408 400 83 588 530 364 867 -126 187 -373 282 -588 224z
m86 -221 c43 -20 90 -83 99 -130 9 -50 -13 -112 -55 -154 -36 -36 -104 -64
-132 -55 -8 2 -26 7 -41 10 -62 14 -128 102 -128 171 0 60 45 130 105 163 30
17 112 14 152 -5z"/>
<path d="M10781 11292 c-21 -24 -28 -45 -38 -114 -24 -178 -121 -292 -285
-334 -175 -45 -365 40 -443 200 -14 30 -32 90 -39 135 -15 92 -24 107 -76 122
-30 9 -42 8 -69 -5 -53 -28 -64 -93 -35 -216 39 -168 150 -309 298 -380 104
-49 171 -64 276 -64 191 1 382 104 477 256 64 103 78 144 93 256 8 57 7 81 -4
106 -29 70 -107 89 -155 38z"/>
<path d="M12750 10730 c-83 -11 -195 -42 -251 -71 -159 -81 -186 -252 -54
-340 125 -83 397 -127 615 -99 95 13 221 45 270 70 96 49 145 121 137 203 -10
104 -117 182 -307 223 -83 18 -313 26 -410 14z m394 -159 c129 -34 195 -80
165 -117 -21 -26 -115 -64 -197 -80 -98 -19 -313 -18 -410 1 -97 20 -186 62
-190 92 -6 44 110 101 249 122 96 15 290 6 383 -18z"/>
<path d="M7623 10710 c-167 -17 -302 -68 -366 -139 -97 -107 -60 -230 90 -299
174 -80 426 -101 652 -55 272 54 384 210 254 354 -93 103 -374 165 -630 139z
m237 -140 c146 -15 300 -74 300 -114 0 -27 -69 -69 -155 -93 -72 -21 -315 -28
-416 -14 -147 22 -257 78 -233 118 26 43 155 88 299 103 101 11 101 11 205 0z"/>
<path d="M3771 10474 c-71 -90 40 -204 126 -130 22 19 28 32 28 66 0 34 -6 47
-28 66 -40 34 -98 33 -126 -2z"/>
<path d="M16519 10451 c-74 -75 9 -190 102 -141 23 13 49 61 49 90 0 33 -53
80 -90 80 -22 0 -41 -9 -61 -29z"/>
<path d="M16015 10185 c-61 -60 6 -158 85 -125 36 15 50 37 50 78 0 65 -87 96
-135 47z"/>
<path d="M4182 10093 c-17 -6 -42 -57 -42 -83 0 -32 53 -80 88 -80 83 0 119
106 53 157 -16 12 -75 16 -99 6z"/>
<path d="M15729 10041 c-32 -33 -37 -67 -14 -110 38 -74 155 -42 155 43 0 48
-8 65 -41 81 -42 22 -67 18 -100 -14z"/>
<path d="M15415 9945 c-31 -30 -32 -73 -4 -109 43 -55 139 -18 139 54 0 41
-39 80 -80 80 -19 0 -40 -9 -55 -25z"/>
<path d="M4755 9925 c-50 -49 -17 -135 51 -135 47 0 70 14 83 50 29 85 -71
148 -134 85z"/>
<path d="M5106 9777 c-57 -57 -22 -157 54 -157 16 0 41 11 57 24 22 19 28 32
28 65 0 50 -26 79 -77 88 -30 4 -41 1 -62 -20z"/>
<path d="M14591 9716 c-41 -44 -26 -127 26 -147 77 -29 150 52 111 124 -28 53
-98 65 -137 23z"/>
<path d="M5958 9640 c-26 -27 -30 -36 -25 -68 12 -74 85 -96 139 -42 26 27 30
36 25 68 -12 74 -85 96 -139 42z"/>
<path d="M14125 9625 c-17 -16 -25 -35 -25 -59 0 -48 8 -65 41 -81 40 -21 63
-19 98 11 40 34 44 98 8 132 -33 31 -90 30 -122 -3z"/>
<path d="M6241 9526 c-33 -35 -31 -93 4 -123 51 -44 128 -15 141 54 5 27 1 37
-24 63 -39 39 -88 41 -121 6z"/>
<path d="M7964 9485 c-34 -23 -48 -68 -34 -110 12 -35 51 -65 85 -65 34 0 73
30 85 65 21 64 -20 125 -85 125 -17 0 -40 -7 -51 -15z"/>
<path d="M9951 9396 c-72 -77 29 -191 112 -126 45 36 44 102 -2 137 -28 22
-85 16 -110 -11z"/>
<path d="M13007 9399 c-9 -5 -24 -24 -33 -40 -20 -39 -11 -82 23 -109 72 -57
171 26 137 115 -14 35 -89 56 -127 34z"/>
<path d="M7103 9385 c-34 -24 -47 -76 -29 -118 17 -42 41 -57 91 -57 53 0 85
36 85 95 0 35 -6 52 -25 70 -28 29 -88 34 -122 10z"/>
<path d="M11265 9355 c-50 -49 -17 -145 50 -145 38 0 85 50 85 90 0 41 -39 80
-80 80 -19 0 -40 -9 -55 -25z"/>
<path d="M11704 9350 c-86 -35 -62 -174 29 -174 107 0 121 156 17 178 -14 3
-35 1 -46 -4z"/>
<path d="M12229 9309 c-56 -21 -71 -106 -25 -146 33 -28 75 -30 108 -3 48 37
41 118 -13 145 -32 17 -34 17 -70 4z"/>
<path d="M9670 9290 c-31 -31 -27 -93 6 -119 35 -27 67 -26 100 3 37 31 39 90
5 117 -31 25 -86 24 -111 -1z"/>
<path d="M9029 9251 c-31 -31 -37 -67 -17 -104 42 -79 158 -52 158 37 0 48 -8
65 -41 81 -42 22 -67 18 -100 -14z"/>
<path d="M10500 9232 c-41 -42 -42 -92 -1 -133 16 -16 39 -29 51 -29 38 0 78
28 90 64 21 64 -8 112 -73 123 -31 5 -40 1 -67 -25z"/>
<path d="M8545 9205 c-31 -30 -33 -83 -6 -116 25 -32 82 -31 116 1 52 49 16
140 -55 140 -19 0 -40 -9 -55 -25z"/>
<path d="M16290 9517 c-37 -19 -50 -53 -43 -117 18 -180 -104 -375 -327 -519
-127 -82 -148 -124 -91 -182 41 -41 73 -38 161 17 197 121 341 278 398 434 29
80 42 246 22 304 -18 55 -75 86 -120 63z"/>
<path d="M4137 9364 c-31 -31 -43 -88 -40 -197 9 -317 242 -586 648 -747 41
-16 91 -30 110 -30 61 0 100 62 73 117 -14 30 -16 31 -202 118 -127 59 -228
128 -295 200 -124 134 -185 301 -161 436 9 48 8 64 -4 88 -26 49 -87 57 -129
15z"/>
<path d="M16684 8490 c-59 -24 -70 -95 -24 -142 26 -25 36 -29 63 -24 40 8 77
48 77 86 0 56 -66 101 -116 80z"/>
<path d="M16243 8310 c-28 -11 -53 -59 -53 -100 0 -42 47 -90 88 -90 39 0 88
41 97 80 12 56 -39 121 -93 119 -9 0 -27 -4 -39 -9z"/>
<path d="M3765 8215 c-62 -62 2 -162 85 -134 82 29 57 159 -30 159 -19 0 -40
-9 -55 -25z"/>
<path d="M15845 8025 c-49 -48 -24 -128 42 -141 27 -5 37 -1 63 24 20 21 30
40 30 62 0 41 -39 80 -80 80 -19 0 -40 -9 -55 -25z"/>
<path d="M4254 7970 c-50 -20 -68 -84 -39 -140 25 -47 100 -58 141 -19 79 74
-2 200 -102 159z"/>
<path d="M15320 7770 c-29 -29 -27 -90 3 -118 51 -48 137 -10 137 61 0 67 -92
105 -140 57z"/>
<path d="M4960 7662 c-36 -36 -39 -71 -7 -107 31 -37 82 -37 114 -1 43 51 21
120 -44 132 -27 5 -37 1 -63 -24z"/>
<path d="M14753 7596 c-23 -20 -28 -32 -28 -71 0 -39 5 -51 29 -72 39 -33 100
-27 133 12 75 87 -47 206 -134 131z"/>
<path d="M5525 7535 c-36 -35 -37 -95 -2 -132 15 -17 32 -23 63 -23 55 0 84
24 91 76 11 87 -91 141 -152 79z"/>
<path d="M14364 7470 c-53 -21 -69 -88 -33 -134 38 -49 119 -28 142 36 11 32
-14 79 -49 94 -18 8 -35 14 -36 13 -2 0 -13 -4 -24 -9z"/>
<path d="M13631 7436 c-54 -30 -66 -97 -25 -145 67 -80 194 2 154 100 -13 31
-55 59 -87 59 -10 -1 -29 -7 -42 -14z"/>
<path d="M6402 7417 c-47 -50 -36 -126 22 -153 44 -22 83 -9 114 37 17 25 22
42 18 64 -13 69 -108 101 -154 52z"/>
<path d="M6955 7245 c-50 -49 -17 -135 50 -135 12 0 34 9 49 21 20 16 26 29
26 59 0 73 -75 106 -125 55z"/>
<path d="M13093 7248 c-12 -6 -27 -26 -33 -44 -27 -81 65 -140 125 -79 40 40
30 96 -22 123 -26 14 -41 14 -70 0z"/>
<path d="M12087 7140 c-70 -55 -33 -170 54 -170 59 0 94 36 94 95 0 39 -5 51
-28 71 -35 30 -85 31 -120 4z"/>
<path d="M8583 7112 c-29 -4 -63 -48 -63 -79 0 -31 25 -79 45 -87 30 -11 62
-6 88 14 71 56 20 167 -70 152z"/>
<path d="M11672 7103 c-50 -43 -18 -133 47 -133 66 0 101 80 56 130 -23 25
-75 27 -103 3z"/>
<path d="M11055 7085 c-52 -51 -16 -145 55 -145 44 0 80 39 80 85 0 46 -36 85
-80 85 -19 0 -40 -9 -55 -25z"/>
<path d="M7921 7076 c-12 -13 -25 -42 -28 -65 -5 -35 -2 -44 25 -71 51 -51
121 -38 148 27 18 42 5 94 -29 118 -34 23 -90 19 -116 -9z"/>
<path d="M9976 7009 c-35 -41 -34 -83 3 -120 36 -36 70 -37 110 -3 25 21 31
33 31 65 0 84 -91 121 -144 58z"/>
<path d="M9205 7005 c-63 -62 6 -161 90 -129 8 4 23 20 31 36 42 81 -58 157
-121 93z"/>
<path d="M4330 7047 c-14 -7 -31 -25 -39 -41 -18 -39 6 -126 74 -265 150 -304
431 -547 836 -722 112 -48 149 -52 184 -19 19 18 25 34 25 65 0 53 -23 75
-115 110 -93 35 -285 136 -360 190 -234 169 -394 370 -464 586 -12 37 -30 74
-40 83 -25 22 -72 29 -101 13z"/>
<path d="M15842 7034 c-13 -9 -34 -41 -48 -72 -88 -200 -336 -457 -589 -612
-112 -69 -301 -162 -424 -210 -127 -50 -157 -77 -146 -135 6 -37 47 -75 80
-75 68 0 429 163 589 267 203 131 397 307 518 470 88 117 158 250 158 298 0
67 -82 108 -138 69z"/>
<path d="M5695 5955 c-33 -32 -34 -85 -2 -119 26 -28 192 -86 249 -86 28 0 42
7 62 31 28 33 32 55 15 92 -14 32 -29 39 -146 75 -122 38 -146 39 -178 7z"/>
<path d="M14220 5944 c-41 -13 -109 -33 -152 -45 -89 -24 -119 -50 -121 -103
-1 -49 34 -86 82 -86 37 0 292 69 329 89 52 28 58 106 11 145 -37 31 -52 31
-149 0z"/>
<path d="M13490 5768 c-47 -13 -68 -34 -76 -74 -4 -24 -1 -42 10 -59 25 -38
60 -48 124 -34 68 14 102 45 102 91 -1 73 -64 103 -160 76z"/>
</g>
</svg>
