<?xml version="1.0" standalone="no"?>
<!DOCTYPE svg PUBLIC "-//W3C//DTD SVG 20010904//EN"
 "http://www.w3.org/TR/2001/REC-SVG-20010904/DTD/svg10.dtd">
<svg version="1.0" xmlns="http://www.w3.org/2000/svg"
 width="1024.000000pt" height="1024.000000pt" viewBox="0 0 1024.000000 1024.000000"
 preserveAspectRatio="xMidYMid meet">
<metadata>
Created by potrace 1.16, written by Peter Selinger 2001-2019
</metadata>
<g transform="translate(0.000000,1024.000000) scale(0.100000,-0.100000)"
fill="#000000" stroke="none">
<path d="M6123 7761 c-84 -14 -194 -50 -262 -88 l-64 -35 -111 21 c-241 45
-366 55 -706 56 -209 0 -362 -5 -430 -13 -653 -81 -1034 -254 -1117 -507 -23
-70 -30 -551 -21 -1470 19 -2037 48 -2795 119 -3095 25 -108 94 -250 155 -318
167 -190 464 -314 879 -367 155 -20 507 -23 665 -6 509 57 862 217 1025 465
134 206 167 416 195 1246 11 330 30 1610 33 2228 l2 404 52 18 c218 76 396
274 459 510 25 90 25 291 0 379 -76 276 -281 479 -559 552 -83 22 -238 32
-314 20z m311 -162 c122 -38 219 -110 289 -217 147 -221 121 -518 -63 -724
-54 -61 -169 -144 -181 -131 -8 9 -17 353 -9 353 3 0 19 -9 35 -20 43 -28 83
-26 95 5 5 14 7 31 4 38 -6 16 -112 87 -130 87 -10 0 -14 14 -14 50 0 41 -5
55 -31 85 -51 58 -90 47 -115 -33 -56 -181 -375 -321 -884 -389 -107 -14 -205
-18 -475 -18 -337 0 -400 4 -625 41 -403 66 -694 207 -755 367 -17 45 -17 49
0 94 73 189 518 354 1094 404 262 23 740 2 948 -41 l52 -11 -46 -62 c-96 -129
-148 -291 -141 -435 6 -119 49 -182 125 -182 72 0 103 58 103 193 0 173 54
301 175 415 152 145 353 193 549 131z m-2842 -743 c88 -75 273 -154 495 -210
737 -185 1786 -95 2202 188 30 20 56 35 58 32 17 -16 -3 -2225 -27 -3056 -24
-850 -49 -1081 -134 -1255 -158 -322 -605 -495 -1278 -495 -491 0 -872 103
-1074 292 -130 122 -183 258 -213 543 -35 332 -61 1296 -81 2990 -10 775 -8
1005 7 1005 3 0 23 -15 45 -34z"/>
<path d="M6190 7435 c-15 -18 -7 -98 16 -156 19 -45 47 -58 75 -33 21 19 19
61 -7 146 -19 57 -56 77 -84 43z"/>
<path d="M6524 7271 c-44 -27 -76 -75 -72 -108 2 -23 9 -29 34 -31 25 -2 38 5
72 42 42 46 53 81 30 104 -16 16 -28 15 -64 -7z"/>
<path d="M5922 7158 c-32 -32 -3 -68 77 -99 70 -26 99 -25 113 6 10 22 8 29
-12 50 -40 43 -151 70 -178 43z"/>
<path d="M4010 6045 c-11 -13 -12 -110 -6 -487 6 -416 8 -474 23 -490 21 -23
55 -23 77 0 15 18 16 56 7 491 -7 341 -13 476 -21 487 -16 19 -64 18 -80 -1z"/>
<path d="M5906 5168 c-14 -20 -16 -85 -16 -514 0 -536 -2 -519 57 -512 52 6
53 12 53 531 0 311 -4 485 -10 498 -15 27 -64 25 -84 -3z"/>
<path d="M3857 4328 c-12 -19 -13 -72 -5 -323 6 -180 14 -305 20 -312 14 -18
53 -16 68 2 19 23 3 621 -17 641 -21 21 -51 17 -66 -8z"/>
<path d="M4705 2794 c-278 -28 -431 -56 -593 -109 -59 -20 -134 -50 -167 -68
-49 -26 -61 -37 -63 -60 -5 -38 15 -60 47 -54 14 3 66 22 115 42 364 149 956
185 1496 90 117 -21 140 -21 151 -4 15 24 10 68 -9 78 -28 15 -200 48 -342 66
-118 15 -545 28 -635 19z"/>
<path d="M4742 2509 c-162 -10 -280 -29 -297 -46 -20 -19 -19 -58 1 -77 19
-19 12 -19 159 0 170 22 472 21 672 -1 132 -15 165 -16 178 -5 19 16 20 64 1
79 -23 19 -158 39 -337 51 -178 11 -208 11 -377 -1z"/>
</g>
</svg>
