<?xml version="1.0" standalone="no"?>
<!DOCTYPE svg PUBLIC "-//W3C//DTD SVG 20010904//EN"
 "http://www.w3.org/TR/2001/REC-SVG-20010904/DTD/svg10.dtd">
<svg version="1.0" xmlns="http://www.w3.org/2000/svg"
 width="1024.000000pt" height="1024.000000pt" viewBox="0 0 1024.000000 1024.000000"
 preserveAspectRatio="xMidYMid meet">
<metadata>
Created by potrace 1.16, written by Peter Selinger 2001-2019
</metadata>
<g transform="translate(0.000000,1024.000000) scale(0.100000,-0.100000)"
fill="#000000" stroke="none">
<path d="M5065 6584 c-400 -29 -771 -155 -1065 -362 -121 -86 -313 -272 -400
-387 -64 -86 -150 -227 -171 -281 -9 -25 -12 -26 -62 -20 -191 24 -337 -174
-271 -367 21 -62 95 -130 161 -147 26 -6 54 -14 61 -16 11 -3 12 -21 6 -82
-11 -116 -8 -365 6 -472 37 -281 146 -431 358 -494 139 -41 519 -66 1093 -73
477 -6 831 4 1204 32 476 37 638 82 737 207 119 148 160 322 158 676 l-2 206
53 13 c171 44 273 196 239 358 -23 108 -115 187 -220 187 -28 -1 -59 -4 -69
-7 -16 -5 -28 11 -70 91 -90 171 -157 261 -295 399 -245 244 -520 397 -871
484 -158 39 -433 65 -580 55z m364 -169 c133 -19 243 -45 356 -85 76 -27 199
-83 214 -96 3 -3 -107 -118 -245 -257 -137 -139 -293 -298 -346 -354 l-97
-101 -48 15 c-80 24 -206 20 -285 -10 -36 -14 -78 -33 -91 -42 -24 -15 -27
-15 -64 8 -89 56 -209 78 -314 58 -33 -7 -63 -10 -66 -8 -11 12 153 787 170
803 16 15 137 44 277 65 146 22 399 24 539 4z m-964 -127 c-6 -20 -122 -570
-146 -698 -12 -63 -23 -116 -24 -118 -1 -1 -18 4 -37 12 -102 43 -259 40 -362
-7 l-48 -22 -67 33 c-42 21 -88 34 -128 39 -35 3 -63 8 -63 11 0 9 91 154 124
197 159 210 367 381 615 506 119 60 143 68 136 47z m1761 -192 c89 -67 233
-203 297 -281 33 -41 120 -173 142 -214 l17 -34 -36 6 c-56 9 -155 -11 -218
-45 l-57 -30 -53 26 c-112 54 -243 59 -357 13 l-60 -24 -55 27 c-72 36 -177
54 -245 42 -30 -5 -51 -6 -51 0 0 5 80 91 177 191 98 100 225 230 282 290 58
59 108 107 112 107 3 0 51 -33 105 -74z m-484 -646 c20 -6 59 -26 87 -45 28
-19 55 -35 61 -35 6 0 37 13 68 29 130 66 249 57 358 -25 39 -30 49 -30 88 0
121 91 249 99 349 20 23 -19 48 -34 56 -34 8 0 29 16 47 35 25 28 39 35 69 35
47 0 71 -13 90 -50 45 -88 -15 -197 -125 -226 -65 -17 -120 -1 -193 54 -88 68
-142 64 -230 -17 -75 -69 -127 -78 -198 -33 -24 16 -53 39 -64 52 -60 67 -140
65 -205 -5 -65 -70 -108 -66 -178 14 -77 90 -145 92 -241 6 -61 -55 -107 -73
-153 -61 -13 3 -52 24 -87 47 -77 50 -119 63 -174 54 -53 -9 -90 -32 -146 -89
-80 -81 -134 -81 -224 0 -73 66 -125 87 -202 82 -65 -4 -71 -7 -183 -91 -65
-48 -112 -45 -185 11 -115 86 -174 84 -284 -11 -83 -72 -139 -71 -219 3 -91
84 -141 88 -252 22 -82 -50 -111 -57 -156 -42 -53 17 -86 62 -86 116 0 113 93
165 211 117 39 -15 44 -15 91 2 34 12 68 16 112 13 54 -3 73 -10 122 -43 33
-22 63 -42 67 -44 5 -2 36 11 70 28 125 63 234 65 365 6 l59 -27 52 39 c76 58
136 76 229 71 83 -5 128 -23 196 -77 21 -17 45 -31 52 -31 8 0 37 16 64 36 58
42 152 74 215 74 50 0 156 -31 203 -60 44 -27 57 -25 104 11 85 68 204 95 300
69z m-491 -356 c88 -60 126 -74 204 -74 80 0 134 21 202 76 l43 36 56 -51 c97
-89 196 -94 299 -16 25 19 48 35 51 35 3 0 26 -18 51 -39 111 -98 292 -93 399
10 l31 30 50 -33 c28 -18 59 -38 69 -44 18 -10 19 -26 19 -245 0 -270 -13
-357 -71 -476 -60 -124 -127 -168 -303 -197 -488 -83 -2054 -95 -2530 -20
-123 19 -181 45 -236 106 -90 100 -120 254 -111 568 8 279 10 289 64 319 l44
23 41 -40 c69 -66 119 -87 212 -87 91 0 143 21 208 83 32 31 40 35 55 24 93
-65 157 -91 228 -92 71 0 126 22 202 80 36 28 75 50 88 50 15 0 46 -20 83 -54
76 -70 111 -87 188 -94 87 -7 141 16 225 95 37 34 71 63 77 63 5 0 33 -16 62
-36z"/>
<path d="M5535 6197 c-55 -53 -60 -90 -11 -95 23 -3 38 5 73 40 52 51 57 91
11 96 -20 2 -38 -8 -73 -41z"/>
<path d="M4861 6042 c-28 -15 -67 -40 -87 -55 -67 -54 -24 -113 53 -74 46 24
123 97 123 117 0 37 -34 42 -89 12z"/>
<path d="M5111 5753 c-51 -61 -54 -133 -8 -133 30 0 46 18 74 84 36 86 -8 119
-66 49z"/>
<path d="M4244 6129 c-40 -11 -66 -41 -62 -71 4 -32 42 -34 98 -6 47 24 60 49
40 73 -14 17 -30 17 -76 4z"/>
<path d="M4010 5707 c-30 -10 -35 -17 -35 -42 0 -29 2 -30 45 -33 76 -4 129
42 84 75 -22 16 -48 16 -94 0z"/>
<path d="M6304 5705 c-40 -18 -56 -39 -52 -67 6 -47 106 -24 141 33 27 43 -24
62 -89 34z"/>
<path d="M3639 4573 c-15 -38 -3 -145 23 -204 25 -58 100 -131 154 -150 51
-17 147 -18 168 0 19 16 21 52 4 69 -7 7 -39 12 -72 12 -118 0 -173 59 -198
215 -12 76 -14 80 -40 83 -23 3 -30 -2 -39 -25z"/>
<path d="M6445 4365 c-42 -51 -99 -85 -145 -85 -59 0 -90 -36 -58 -68 22 -22
119 -14 177 14 79 40 140 134 111 169 -21 26 -46 17 -85 -30z"/>
</g>
</svg>
