<?xml version="1.0" standalone="no"?>
<!DOCTYPE svg PUBLIC "-//W3C//DTD SVG 20010904//EN"
 "http://www.w3.org/TR/2001/REC-SVG-20010904/DTD/svg10.dtd">
<svg version="1.0" xmlns="http://www.w3.org/2000/svg"
 width="1024.000000pt" height="1024.000000pt" viewBox="0 0 1024.000000 1024.000000"
 preserveAspectRatio="xMidYMid meet">
<metadata>
Created by potrace 1.16, written by Peter Selinger 2001-2019
</metadata>
<g transform="translate(0.000000,1024.000000) scale(0.100000,-0.100000)"
fill="#000000" stroke="none">
<path d="M4820 7513 c-624 -64 -1156 -345 -1430 -755 -78 -116 -110 -180 -154
-306 -143 -412 -76 -816 188 -1132 306 -366 956 -603 1576 -576 606 26 1135
239 1467 589 250 265 378 618 344 948 -46 438 -311 790 -764 1019 -212 106
-425 169 -697 206 -95 12 -433 17 -530 7z m570 -138 c307 -47 583 -153 803
-310 182 -130 302 -266 388 -440 45 -92 105 -272 95 -283 -3 -2 -26 6 -51 18
-83 40 -155 8 -171 -76 -4 -20 -2 -73 5 -118 25 -183 1 -319 -64 -362 -37 -24
-70 -6 -155 87 -39 44 -84 86 -100 94 -100 52 -211 13 -264 -94 -27 -53 -40
-108 -60 -242 -15 -106 -33 -154 -57 -154 -9 0 -38 26 -63 58 -54 66 -89 87
-143 87 -82 0 -126 -52 -168 -195 -42 -145 -62 -152 -182 -60 -113 86 -162
104 -232 85 -55 -15 -99 -61 -155 -163 -57 -106 -101 -147 -157 -147 -105 0
-186 87 -264 285 -16 39 -38 86 -51 106 -86 138 -224 132 -314 -13 -46 -74
-70 -98 -95 -98 -53 0 -86 81 -105 260 -19 180 -76 260 -185 260 -61 0 -114
-24 -180 -79 -60 -50 -89 -59 -124 -40 -43 24 -54 76 -48 229 12 324 137 595
385 831 279 266 681 437 1152 488 118 13 434 5 560 -14z m1251 -1167 l52 -31
-7 -82 c-31 -410 -311 -778 -761 -1000 -193 -95 -415 -164 -655 -201 -161 -26
-571 -26 -715 -1 -581 102 -990 352 -1171 718 -19 37 -34 73 -34 79 0 5 14 10
30 10 46 0 89 22 155 79 74 63 98 71 130 41 27 -25 41 -80 50 -192 11 -142 47
-228 118 -279 33 -24 50 -29 96 -29 78 0 122 29 186 121 51 75 80 94 110 69 7
-6 35 -62 60 -123 82 -196 141 -273 249 -323 65 -30 162 -32 222 -5 58 26 115
90 165 183 47 86 76 114 111 104 13 -3 55 -29 93 -57 124 -91 182 -107 259
-69 46 22 91 83 107 145 40 160 66 180 122 92 46 -71 87 -100 144 -100 50 0
85 21 121 73 30 44 48 112 66 241 19 131 39 185 77 205 26 13 32 13 58 0 16
-9 48 -39 71 -68 56 -69 86 -96 135 -119 114 -54 228 9 280 156 22 60 31 222
18 318 -9 59 -8 77 4 77 1 0 26 -14 54 -32z"/>
<path d="M4986 7204 c-36 -35 -7 -104 42 -104 29 0 62 34 62 63 0 49 -70 76
-104 41z"/>
<path d="M4481 7096 c-16 -19 -10 -66 10 -79 26 -16 68 0 75 30 4 14 2 33 -3
42 -13 21 -66 26 -82 7z"/>
<path d="M5575 7020 c-27 -29 -10 -74 28 -78 37 -4 57 13 57 49 0 47 -53 65
-85 29z"/>
<path d="M4200 6990 c-11 -11 -20 -29 -20 -40 0 -26 34 -60 60 -60 26 0 60 34
60 60 0 26 -34 60 -60 60 -11 0 -29 -9 -40 -20z"/>
<path d="M5988 6978 c-31 -24 -27 -74 7 -90 53 -24 100 46 57 85 -22 20 -42
21 -64 5z"/>
<path d="M4849 6906 c-58 -20 -93 -51 -163 -140 -80 -103 -101 -113 -197 -97
-87 14 -137 3 -173 -39 -85 -102 -1 -269 178 -355 189 -90 427 -104 687 -40
294 71 469 214 469 383 0 59 -15 95 -55 132 -36 34 -108 33 -188 -4 -95 -43
-128 -34 -268 70 -131 97 -206 120 -290 90z m107 -116 c15 -6 56 -33 91 -61
172 -135 271 -160 398 -100 54 25 66 27 76 15 23 -28 1 -83 -54 -138 -183
-181 -679 -243 -928 -115 -62 31 -131 103 -127 131 2 19 8 23 33 21 139 -11
170 -8 217 19 30 18 70 58 110 110 61 79 116 128 144 128 7 0 25 -5 40 -10z"/>
<path d="M3823 6829 c-30 -11 -38 -45 -19 -74 20 -30 56 -33 79 -7 41 45 -2
103 -60 81z"/>
<path d="M6332 6724 c-33 -23 -27 -75 10 -88 55 -19 93 55 46 88 -28 20 -28
20 -56 0z"/>
<path d="M6042 6668 c-13 -13 -16 -57 -4 -74 26 -38 92 -14 92 34 0 35 -16 52
-50 52 -14 0 -31 -5 -38 -12z"/>
<path d="M3752 6440 c-34 -14 -48 -52 -32 -90 14 -34 49 -48 89 -34 50 18 54
100 6 122 -30 14 -32 14 -63 2z"/>
<path d="M5921 6336 c-16 -19 -10 -66 10 -79 26 -16 68 0 75 30 4 14 2 33 -3
42 -13 21 -66 26 -82 7z"/>
<path d="M3360 6255 c-21 -55 41 -98 83 -57 17 18 19 26 11 49 -8 23 -16 29
-47 31 -32 3 -38 0 -47 -23z"/>
<path d="M5482 6038 c-45 -22 -41 -98 6 -117 30 -12 73 -3 87 19 15 25 8 74
-15 92 -25 20 -44 22 -78 6z"/>
<path d="M4281 6016 c-16 -19 -10 -66 10 -79 26 -16 68 0 75 30 4 14 2 33 -3
42 -13 21 -66 26 -82 7z"/>
<path d="M4900 5871 c-15 -29 -12 -46 10 -66 41 -37 107 14 81 64 -16 28 -76
30 -91 2z"/>
<path d="M3980 5800 c-14 -26 -5 -57 21 -71 44 -23 87 22 66 69 -14 30 -71 31
-87 2z"/>
<path d="M5121 5656 c-38 -46 25 -111 69 -71 22 20 26 55 8 73 -17 17 -63 15
-77 -2z"/>
<path d="M4541 5613 c-48 -60 41 -142 92 -85 24 26 22 88 -2 102 -34 18 -68
12 -90 -17z"/>
</g>
</svg>
