<?xml version="1.0" standalone="no"?>
<!DOCTYPE svg PUBLIC "-//W3C//DTD SVG 20010904//EN"
 "http://www.w3.org/TR/2001/REC-SVG-20010904/DTD/svg10.dtd">
<svg version="1.0" xmlns="http://www.w3.org/2000/svg"
 width="2048.000000pt" height="2048.000000pt" viewBox="0 0 2048.000000 2048.000000"
 preserveAspectRatio="xMidYMid meet">
<metadata>
Created by potrace 1.16, written by Peter Selinger 2001-2019
</metadata>
<g transform="translate(0.000000,2048.000000) scale(0.100000,-0.100000)"
fill="#000000" stroke="none">
<path d="M10075 17600 c-1287 -71 -2613 -312 -3348 -610 -246 -100 -388 -214
-472 -379 -42 -84 -53 -120 -100 -346 -71 -335 -153 -619 -185 -636 -8 -4 -79
-39 -157 -77 -185 -91 -273 -149 -358 -236 -71 -72 -127 -163 -159 -259 -9
-27 -34 -132 -57 -235 -22 -102 -71 -315 -109 -472 -95 -390 -111 -478 -117
-658 -6 -170 3 -234 44 -316 63 -124 290 -285 593 -421 58 -26 109 -50 113
-54 24 -23 227 -1171 227 -1282 0 -25 -13 -45 -64 -99 -155 -165 -212 -370
-187 -667 14 -164 32 -287 105 -734 30 -184 87 -536 126 -784 85 -541 169
-1049 251 -1515 149 -850 158 -889 233 -1045 24 -49 64 -118 90 -152 51 -68
233 -245 302 -295 24 -17 44 -35 44 -39 0 -4 27 -196 60 -426 32 -230 89 -641
125 -913 128 -974 126 -964 197 -1109 34 -73 57 -102 142 -187 118 -118 236
-198 421 -289 509 -248 1278 -420 2155 -481 390 -27 1038 -10 1420 37 635 78
1131 210 1507 403 296 151 497 336 559 515 26 73 47 197 159 941 71 464 228
1462 240 1520 4 17 38 53 99 103 239 197 349 422 446 910 48 243 450 2690 525
3197 66 444 55 643 -45 847 -28 57 -63 105 -115 162 l-76 79 26 154 c66 393
209 1140 222 1160 2 5 68 41 146 80 230 114 404 236 473 329 52 72 75 153 75
270 0 133 -23 263 -140 799 -33 151 -74 349 -91 440 -56 297 -96 387 -235 525
-101 101 -201 165 -375 241 l-108 47 -21 81 c-41 157 -71 304 -111 542 -45
273 -58 323 -107 416 -112 214 -381 376 -885 532 -598 185 -1369 315 -2238
377 -200 14 -1058 20 -1265 9z m1105 -390 c900 -40 1983 -233 2535 -452 242
-96 388 -200 416 -295 29 -102 -29 -173 -216 -263 -365 -177 -1195 -352 -2010
-424 -491 -44 -801 -57 -1335 -57 -1390 0 -2985 162 -3608 367 -190 62 -293
123 -337 199 -34 57 -32 107 4 171 37 64 76 93 206 155 521 249 1980 524 3125
589 107 6 218 12 245 14 133 7 775 5 975 -4z m3004 -1072 c3 -13 30 -142 62
-288 147 -686 143 -659 102 -705 -129 -148 -872 -353 -1733 -479 -185 -27
-608 -77 -855 -101 -528 -51 -1319 -74 -1915 -57 -625 19 -959 43 -1475 108
-698 87 -1185 184 -1586 315 -194 63 -327 124 -409 187 -46 35 -50 41 -53 86
-4 66 16 162 103 481 40 149 81 304 90 345 10 41 21 79 25 83 4 5 30 -7 57
-27 199 -143 568 -244 1244 -340 538 -77 1368 -148 2044 -176 326 -13 1290 -4
1560 14 917 63 1629 174 2182 342 199 60 452 166 518 218 27 21 34 20 39 -6z
m458 -902 c173 -74 259 -132 313 -211 33 -47 40 -71 85 -296 27 -134 72 -350
100 -479 79 -360 111 -538 111 -619 0 -67 -2 -76 -28 -103 -271 -287 -1662
-662 -3015 -812 -1441 -161 -3051 -112 -4608 140 -665 107 -1358 280 -1713
428 -209 86 -397 195 -456 261 -41 47 -47 90 -27 209 25 153 207 940 220 953
2 3 28 -14 57 -36 459 -348 2115 -631 4044 -692 517 -16 1130 6 1850 66 877
73 848 69 861 120 18 70 -33 111 -125 101 -178 -19 -1005 -87 -1221 -101 -870
-53 -1570 -44 -2470 31 -1221 102 -2255 296 -2676 503 -108 53 -214 126 -240
165 -50 77 11 181 156 266 52 30 285 130 304 130 2 0 2 -27 -1 -59 -11 -120
58 -197 272 -301 433 -210 1319 -394 2360 -489 510 -47 917 -64 1475 -64 616
0 1032 19 1625 74 1044 96 2104 325 2455 529 131 76 179 147 180 263 0 37 2
67 5 67 2 0 50 -20 107 -44z m-67 -2228 c-24 -103 -178 -900 -235 -1213 -38
-214 -78 -426 -87 -469 l-17 -79 -80 -38 c-232 -108 -780 -265 -1266 -363
-1095 -221 -2304 -276 -3655 -165 -921 75 -1863 237 -2400 414 -169 56 -340
125 -362 148 -17 17 -28 76 -123 659 -67 414 -112 665 -184 1041 -7 37 -10 69
-7 71 3 2 96 -21 206 -51 380 -102 736 -180 1157 -253 1354 -233 3001 -306
4343 -194 474 39 1129 135 1545 225 178 39 602 140 708 169 290 79 407 112
411 116 2 2 15 4 28 4 19 0 22 -4 18 -22z m-87 -1753 c141 -130 143 -201 27
-935 -97 -617 -163 -1030 -210 -1310 -25 -151 -84 -504 -130 -785 -166 -1006
-206 -1175 -325 -1376 -97 -163 -315 -294 -707 -423 -557 -183 -1336 -307
-2228 -356 -241 -13 -890 -13 -1145 0 -878 44 -1675 173 -2215 357 -183 63
-290 110 -408 182 -224 135 -336 278 -391 497 -46 184 -158 809 -261 1459 -24
154 -71 444 -104 645 -33 201 -83 511 -111 690 -28 179 -72 453 -96 610 -55
343 -69 569 -40 645 18 45 116 145 142 145 8 0 15 -20 19 -47 11 -78 25 -111
55 -133 98 -70 528 -218 871 -299 693 -165 1501 -274 2469 -333 278 -17 1369
-17 1635 0 906 59 1703 194 2421 411 231 70 322 103 464 165 134 59 154 79
176 172 10 41 21 74 25 74 4 0 35 -25 67 -55z m-1042 -5141 c-59 -364 -201
-1269 -291 -1852 -20 -129 -45 -257 -56 -286 -36 -99 -151 -197 -354 -302
-378 -198 -870 -318 -1600 -391 -259 -26 -1090 -26 -1345 0 -751 76 -1379 226
-1785 426 -263 129 -373 231 -423 391 -6 19 -41 256 -77 525 -36 270 -102 756
-145 1080 -44 325 -80 603 -80 619 0 23 4 27 18 22 9 -3 96 -32 192 -65 552
-188 1323 -314 2226 -362 299 -16 1247 -6 1518 15 656 52 1136 124 1591 238
144 36 533 158 610 192 28 12 30 11 33 -9 2 -12 -13 -121 -32 -241z"/>
<path d="M10115 17089 c-1142 -48 -2339 -288 -2591 -521 -70 -64 -78 -133 -21
-189 135 -135 806 -304 1527 -383 411 -45 517 -51 975 -51 443 0 515 4 930 46
659 67 1445 235 1799 383 218 92 285 158 249 249 -31 77 -226 170 -559 266
-185 54 -651 132 -984 165 -363 37 -934 52 -1325 35z m901 -159 c224 -14 555
-47 565 -57 10 -10 54 -612 46 -620 -20 -20 -603 -99 -952 -130 -284 -25
-1063 -25 -1355 0 -368 32 -648 72 -1020 147 -310 63 -650 162 -650 191 0 14
77 59 162 95 168 71 416 137 809 213 324 63 825 124 1279 155 240 17 875 20
1116 6z m1016 -110 c236 -40 513 -120 671 -193 48 -22 86 -45 84 -51 -11 -32
-309 -139 -557 -200 -205 -50 -432 -97 -438 -91 -8 7 -29 245 -37 419 l-8 149
81 -6 c44 -3 136 -16 204 -27z"/>
<path d="M13305 16448 c-142 -27 -433 -125 -549 -186 -103 -54 -130 -111 -81
-170 33 -39 92 -53 224 -53 422 0 875 225 735 365 -51 50 -194 70 -329 44z"/>
<path d="M13618 15693 c-8 -10 -18 -26 -21 -36 -8 -20 66 -415 83 -447 17 -32
55 -42 95 -26 57 24 57 34 3 316 -25 132 -36 168 -54 187 -28 28 -84 31 -106
6z"/>
<path d="M14130 14614 c-80 -24 -228 -65 -330 -90 -102 -26 -195 -53 -208 -61
-55 -34 -50 -109 9 -133 25 -11 45 -8 137 14 174 43 575 157 604 172 79 40 57
145 -29 143 -21 0 -103 -21 -183 -45z"/>
<path d="M12818 5713 c-25 -30 -26 -33 -63 -269 -42 -273 -68 -413 -101 -552
-30 -128 -30 -137 1 -167 49 -50 114 -19 140 68 44 146 145 736 145 842 0 42
-5 60 -20 75 -25 25 -81 27 -102 3z"/>
<path d="M12415 4349 c-153 -154 -329 -253 -605 -342 -69 -22 -135 -49 -147
-60 -30 -27 -31 -79 -2 -108 18 -18 29 -21 75 -16 125 13 445 146 602 251 127
85 272 244 272 298 0 29 -45 68 -77 68 -22 0 -47 -19 -118 -91z"/>
</g>
</svg>
