<?xml version="1.0" encoding="UTF-8" standalone="no"?>
<!DOCTYPE svg PUBLIC "-//W3C//DTD SVG 1.1//EN" "http://www.w3.org/Graphics/SVG/1.1/DTD/svg11.dtd">
<svg width="100%" height="100%" viewBox="0 0 1024 1024" version="1.1" xmlns="http://www.w3.org/2000/svg" xmlns:xlink="http://www.w3.org/1999/xlink" xml:space="preserve" xmlns:serif="http://www.serif.com/" style="fill-rule:evenodd;clip-rule:evenodd;stroke-linejoin:round;stroke-miterlimit:2;">
    <g transform="matrix(0.1,0,0,-0.1,0,1024)">
        <path d="M4820,6846C4755,6828 4707,6801 4605,6725C4445,6606 4397,6590 4198,6590C3984,6590 3889,6560 3789,6460C3704,6376 3659,6279 3640,6138C3626,6035 3604,5993 3520,5904C3405,5783 3360,5700 3339,5571C3311,5400 3379,5225 3535,5066C3572,5028 3614,4981 3627,4962C3661,4911 3658,4841 3618,4743C3589,4672 3586,4655 3585,4560C3585,4462 3587,4451 3615,4402C3633,4369 3672,4325 3715,4288C3753,4254 3789,4220 3794,4212C3799,4204 3812,4156 3822,4106C3877,3851 4041,3724 4269,3759C4411,3781 4493,3769 4548,3717C4561,3705 4601,3651 4637,3597C4746,3431 4849,3374 5019,3382C5130,3387 5184,3412 5315,3516C5458,3630 5471,3639 5544,3657C5604,3671 5617,3671 5714,3656C5973,3616 6157,3656 6295,3782C6357,3838 6389,3888 6422,3976C6441,4028 6444,4057 6445,4220C6447,4465 6453,4481 6586,4570C6681,4635 6752,4715 6800,4813C6874,4964 6897,5149 6865,5335C6837,5493 6778,5616 6660,5761C6632,5796 6596,5848 6582,5875C6557,5922 6555,5933 6554,6075C6553,6244 6543,6294 6492,6393C6443,6488 6362,6566 6258,6619C6107,6695 5966,6707 5746,6661C5540,6617 5429,6636 5202,6752C4996,6858 4925,6875 4820,6846ZM5013,6756C5049,6743 5113,6712 5156,6687C5265,6626 5315,6605 5417,6579C5522,6553 5636,6556 5794,6589C6059,6645 6276,6576 6399,6396C6460,6306 6474,6250 6475,6075C6476,5925 6477,5912 6502,5858C6516,5827 6564,5754 6609,5696C6694,5584 6717,5545 6750,5458C6785,5362 6802,5268 6802,5165C6801,4932 6703,4734 6540,4635C6508,4616 6466,4581 6445,4559C6382,4489 6377,4468 6370,4240C6364,4057 6361,4029 6340,3976C6307,3895 6226,3808 6146,3771C6046,3724 5994,3716 5846,3725C5774,3730 5668,3734 5610,3734C5510,3735 5501,3733 5440,3703C5404,3685 5335,3636 5285,3594C5165,3492 5088,3455 4995,3456C4866,3457 4791,3509 4683,3673C4578,3832 4508,3863 4302,3841C4213,3832 4172,3832 4133,3840C4019,3865 3935,3959 3905,4097C3868,4262 3874,4249 3783,4335C3638,4471 3626,4520 3690,4710C3726,4818 3732,4843 3727,4895C3721,4977 3704,5006 3596,5120C3545,5173 3490,5243 3473,5277C3412,5391 3395,5507 3426,5611C3452,5697 3475,5734 3565,5833C3669,5946 3694,5995 3719,6131C3748,6291 3794,6378 3885,6440C3970,6499 4028,6513 4180,6512C4402,6510 4498,6543 4676,6679C4811,6782 4893,6801 5013,6756Z" style="fill-rule:nonzero;"/>
        <path d="M4944,5989C4872,5977 4756,5934 4685,5893C4261,5646 4128,5107 4394,4707C4446,4630 4559,4522 4646,4468C4889,4318 5178,4301 5438,4421C5811,4593 6009,4992 5913,5380C5840,5679 5583,5920 5268,5984C5186,6001 5029,6003 4944,5989ZM5232,5915C5467,5874 5684,5713 5785,5505C5845,5381 5864,5286 5858,5146C5849,4956 5782,4803 5646,4662C5341,4346 4852,4339 4547,4646C4191,5005 4292,5601 4750,5839C4908,5921 5059,5945 5232,5915Z" style="fill-rule:nonzero;"/>
    </g>
</svg>
