<?xml version="1.0" encoding="UTF-8" standalone="no"?>
<!DOCTYPE svg PUBLIC "-//W3C//DTD SVG 1.1//EN" "http://www.w3.org/Graphics/SVG/1.1/DTD/svg11.dtd">
<svg width="100%" height="100%" viewBox="0 0 1024 1024" version="1.1" xmlns="http://www.w3.org/2000/svg" xmlns:xlink="http://www.w3.org/1999/xlink" xml:space="preserve" xmlns:serif="http://www.serif.com/" style="fill-rule:evenodd;clip-rule:evenodd;stroke-linejoin:round;stroke-miterlimit:2;">
    <g transform="matrix(0.1,0,0,-0.1,0,1024)">
        <path d="M4883,7196C4703,7162 4558,7087 4442,6968C4363,6887 4309,6797 4268,6680C4180,6425 4089,5372 4086,4580C4085,4323 4087,4289 4104,4236C4141,4124 4235,4034 4350,4000C4401,3985 4459,3980 4615,3976C4725,3973 4818,3970 4823,3970C4827,3970 4830,3823 4830,3643C4830,3286 4835,3244 4889,3165C4920,3119 4995,3065 5048,3050C5102,3035 5190,3038 5243,3056C5303,3076 5382,3147 5412,3208C5434,3254 5435,3263 5440,3615L5445,3975L5625,3977C5724,3978 5834,3981 5870,3983C6055,3996 6198,4128 6231,4316C6255,4452 6223,5657 6180,6270C6164,6483 6168,6472 6113,6494C5948,6562 5821,6672 5758,6800C5719,6879 5690,6981 5690,7041L5690,7078L5600,7114C5422,7185 5336,7202 5135,7206C5012,7208 4932,7205 4883,7196ZM5300,7070C5382,7053 5490,7018 5490,7009C5490,7005 5485,6998 5480,6995C5461,6983 5420,6891 5405,6828C5343,6564 5506,6304 5768,6249C5831,6236 5968,6242 6014,6260C6030,6266 6044,6269 6046,6267C6067,6246 6110,5160 6110,4651C6110,4316 6103,4271 6043,4200C6002,4152 5956,4127 5882,4111C5807,4095 4505,4096 4425,4112C4340,4129 4281,4172 4245,4245C4216,4302 4215,4312 4211,4455C4205,4725 4231,5315 4270,5785C4322,6410 4366,6641 4461,6787C4594,6991 4832,7096 5135,7085C5196,7083 5270,7076 5300,7070ZM5609,6822C5624,6779 5653,6717 5673,6684C5733,6585 5855,6474 5968,6416C5987,6406 5999,6396 5996,6393C5993,6390 5966,6382 5935,6374C5860,6357 5775,6371 5697,6412C5536,6498 5478,6691 5556,6878C5564,6897 5573,6910 5576,6907C5579,6904 5594,6866 5609,6822ZM5309,3964C5311,3962 5312,3809 5311,3623C5308,3257 5308,3256 5251,3207C5161,3132 5032,3158 4981,3262C4961,3304 4960,3320 4960,3636C4960,3818 4963,3970 4967,3974C4975,3981 5301,3971 5309,3964Z" style="fill-rule:nonzero;"/>
    </g>
</svg>
