<?xml version="1.0" standalone="no"?>
<!DOCTYPE svg PUBLIC "-//W3C//DTD SVG 20010904//EN"
 "http://www.w3.org/TR/2001/REC-SVG-20010904/DTD/svg10.dtd">
<svg version="1.0" xmlns="http://www.w3.org/2000/svg"
 width="1024.000000pt" height="1024.000000pt" viewBox="0 0 1024.000000 1024.000000"
 preserveAspectRatio="xMidYMid meet">
<metadata>
Created by potrace 1.16, written by Peter Selinger 2001-2019
</metadata>
<g transform="translate(0.000000,1024.000000) scale(0.100000,-0.100000)"
fill="#000000" stroke="none">
<path d="M5005 7251 c-59 -35 -95 -84 -102 -141 -3 -22 -9 -42 -13 -45 -3 -2
-29 3 -56 11 -119 37 -255 -36 -280 -149 -10 -48 -12 -49 -55 -20 -48 32 -136
42 -194 23 -52 -17 -121 -88 -135 -139 -6 -23 -12 -41 -14 -41 -2 0 -20 7 -39
15 -102 43 -226 -6 -279 -108 -17 -35 -20 -53 -15 -124 l5 -82 -29 6 c-84 17
-202 -66 -228 -160 -8 -26 -11 -67 -9 -91 5 -39 137 -344 190 -435 12 -22 17
-43 13 -59 -3 -14 41 -261 105 -585 62 -309 149 -753 196 -987 82 -416 84
-426 114 -452 24 -22 40 -28 78 -28 26 0 187 -7 357 -15 171 -7 520 -22 778
-31 l467 -18 28 21 c15 11 32 35 39 54 7 19 49 192 94 384 161 692 230 984
285 1215 86 357 93 393 88 417 -5 20 62 162 255 538 34 66 41 89 41 138 0 134
-93 231 -220 230 l-55 -1 0 58 c-1 81 -40 143 -115 183 -56 29 -98 32 -181 12
-24 -6 -26 -5 -22 19 8 38 -15 116 -44 155 -34 44 -114 81 -178 81 -50 0 -126
-27 -140 -50 -5 -8 -17 0 -38 25 -39 48 -98 75 -165 75 -60 0 -103 -15 -148
-53 -18 -15 -34 -27 -37 -27 -2 0 -7 19 -10 42 -19 140 -199 216 -332 139z
m158 -112 c44 -20 51 -46 55 -188 2 -74 1 -167 -3 -207 l-7 -73 -63 6 c-47 4
-71 2 -95 -11 -18 -9 -34 -16 -36 -16 -1 0 0 93 2 208 4 159 9 214 20 238 24
49 76 66 127 43z m416 -134 c41 -21 55 -62 46 -140 l-7 -66 -26 18 c-20 13
-45 18 -99 17 l-71 -1 5 56 c6 68 19 98 53 116 33 18 64 18 99 0z m345 -56
c48 -37 49 -46 31 -252 -22 -258 -17 -239 -63 -220 -25 11 -55 14 -94 10 -69
-6 -64 -28 -43 210 18 205 21 215 48 240 42 38 83 42 121 12z m-1096 -16 c13
-8 27 -25 32 -39 11 -27 14 -184 4 -184 -3 0 -28 7 -56 16 -39 13 -59 15 -94
7 l-44 -10 0 81 c0 92 12 119 64 142 33 14 57 11 94 -13z m-409 -134 c45 -16
59 -51 71 -180 5 -63 12 -131 15 -152 l5 -38 -50 7 c-37 5 -63 2 -96 -11 -25
-9 -47 -16 -48 -14 -2 2 -11 73 -20 157 -16 148 -16 155 2 185 17 30 54 57 78
57 6 0 25 -5 43 -11z m1837 -103 c40 -40 42 -59 13 -151 -21 -69 -167 -405
-213 -491 l-27 -49 5 70 c19 271 61 580 82 612 33 52 93 56 140 9z m-685 -27
c35 -38 35 -31 9 -374 -49 -650 -73 -911 -84 -922 -13 -14 -184 -65 -195 -59
-4 3 5 137 20 298 15 161 40 446 54 633 15 187 29 355 31 374 12 80 109 110
165 50z m-1480 -36 c50 -30 65 -93 114 -499 30 -254 30 -254 6 -254 -19 0 -79
130 -175 380 -92 240 -106 319 -63 357 40 37 75 41 118 16z m707 -49 c43 -30
41 -14 87 -629 9 -115 25 -304 35 -419 11 -116 18 -211 17 -213 -5 -4 -105 23
-162 44 l-50 19 -12 179 c-7 99 -22 306 -33 460 -11 154 -23 333 -26 397 l-7
117 31 30 c35 35 83 41 120 15z m381 -48 c15 -8 33 -26 39 -41 30 -64 10 -451
-56 -1120 l-7 -70 -37 -3 c-46 -4 -41 -29 -73 372 -26 324 -34 760 -15 810 11
30 65 66 98 66 13 0 35 -6 51 -14z m1344 -96 c56 -44 52 -61 -103 -371 -78
-156 -144 -285 -145 -287 -6 -6 -186 30 -183 37 7 12 111 230 195 406 49 104
98 192 114 208 36 33 85 36 122 7z m-646 -114 l37 -33 -12 -134 c-7 -74 -18
-178 -24 -231 -10 -95 -11 -97 -39 -103 -36 -8 -41 -16 -68 -100 -21 -66 -96
-215 -108 -215 -3 0 -3 33 1 73 3 39 18 216 32 392 26 334 31 356 77 375 41
16 67 10 104 -24z m-2027 -28 c20 -21 199 -419 200 -444 0 -6 -24 -14 -52 -17
-29 -3 -68 -9 -85 -13 l-33 -6 -91 188 c-104 214 -112 250 -66 290 37 32 97
33 127 2z m649 -23 c24 -23 25 -34 47 -322 12 -164 24 -341 28 -393 l6 -95
-46 50 c-57 63 -107 152 -130 230 -9 33 -20 67 -25 75 -12 23 -43 394 -35 424
4 15 21 36 39 46 39 24 81 19 116 -15z m-215 -607 c97 -278 349 -448 736 -498
208 -27 452 20 595 116 91 60 177 162 234 277 28 56 51 110 51 120 0 22 3 22
190 -11 141 -25 155 -29 153 -47 -1 -11 -90 -396 -198 -855 -108 -459 -206
-879 -218 -932 l-22 -98 -35 0 c-72 -1 -1417 51 -1457 56 l-41 5 -17 92 c-15
83 -105 539 -280 1428 -36 180 -65 335 -65 345 0 17 18 23 143 46 78 14 157
26 175 25 31 -2 34 -5 56 -69z"/>
</g>
</svg>
