<?xml version="1.0" standalone="no"?>
<!DOCTYPE svg PUBLIC "-//W3C//DTD SVG 20010904//EN"
 "http://www.w3.org/TR/2001/REC-SVG-20010904/DTD/svg10.dtd">
<svg version="1.0" xmlns="http://www.w3.org/2000/svg"
 width="1024.000000pt" height="1024.000000pt" viewBox="0 0 1024.000000 1024.000000"
 preserveAspectRatio="xMidYMid meet">
<metadata>
Created by potrace 1.16, written by Peter Selinger 2001-2019
</metadata>
<g transform="translate(0.000000,1024.000000) scale(0.100000,-0.100000)"
fill="#000000" stroke="none">
<path d="M5375 7264 c-246 -52 -400 -236 -430 -514 -6 -49 5 -167 21 -242 6
-27 6 -27 -62 18 -193 126 -394 107 -537 -51 -10 -11 -35 -54 -55 -95 -34 -71
-37 -81 -37 -172 0 -54 -3 -98 -7 -98 -3 0 -30 16 -60 35 -130 86 -320 129
-469 106 -198 -30 -382 -139 -494 -291 -51 -69 -111 -195 -131 -273 l-16 -67
-80 -48 c-212 -126 -365 -292 -430 -468 -18 -48 -22 -81 -23 -179 0 -148 21
-218 102 -339 48 -70 59 -95 79 -185 100 -433 302 -775 583 -986 399 -300
1211 -479 1974 -436 352 20 686 72 931 146 466 142 748 331 946 635 52 81 149
280 185 380 30 85 95 326 95 353 0 10 15 37 34 60 43 54 89 138 112 207 14 42
19 83 18 170 0 104 -3 122 -30 190 -72 181 -245 357 -460 470 l-61 32 -7 65
c-19 186 -125 347 -280 425 -125 63 -260 71 -382 22 -33 -13 -63 -24 -66 -24
-3 0 -9 26 -13 58 -8 74 7 132 46 177 39 44 85 57 152 44 69 -13 100 6 95 58
-5 56 -40 76 -130 76 -88 -1 -149 -24 -203 -79 -61 -61 -79 -112 -83 -242 -4
-100 -6 -112 -21 -106 -150 63 -232 68 -347 18 -8 -3 -10 15 -7 63 10 132 -30
255 -111 341 -147 157 -378 160 -555 5 l-51 -44 -10 26 c-6 15 -15 68 -22 119
-13 106 2 206 46 302 49 108 162 189 301 218 96 20 122 60 70 111 -28 28 -26
28 -120 9z m184 -789 c207 -104 180 -463 -59 -796 -30 -42 -74 -98 -98 -123
l-43 -46 -47 16 c-26 10 -91 19 -145 22 -83 4 -108 1 -169 -19 -39 -12 -91
-37 -115 -56 -24 -18 -47 -33 -52 -33 -17 0 -169 129 -213 182 -95 111 -168
250 -203 384 -21 80 -20 228 2 295 25 77 92 142 169 165 80 23 144 9 244 -53
122 -76 169 -96 225 -96 63 0 104 21 175 88 114 107 214 129 329 70z m-1585
-372 c102 -25 174 -68 262 -158 134 -134 191 -281 181 -465 -10 -199 -110
-377 -271 -486 -103 -70 -262 -110 -407 -101 -249 15 -423 150 -502 390 -27
82 -28 263 -3 357 54 201 192 364 373 440 117 49 234 56 367 23z m2732 -97
c145 -67 234 -217 234 -396 0 -268 -179 -495 -446 -565 -78 -20 -216 -20 -295
0 -277 72 -479 355 -454 635 13 143 62 248 143 305 58 40 129 40 227 -1 101
-42 183 -40 285 5 41 19 89 38 105 42 48 13 144 1 201 -25z m-1086 -449 c0
-71 50 -221 105 -312 20 -32 34 -60 32 -61 -2 -2 -21 5 -42 16 -51 26 -71 25
-90 -4 -27 -40 -5 -61 133 -130 253 -126 392 -167 572 -167 72 -1 141 5 184
15 93 22 227 86 294 142 55 44 152 157 152 175 0 5 5 9 10 9 29 0 -3 -83 -54
-139 -56 -62 -242 -165 -397 -219 -366 -129 -818 -200 -1324 -209 -306 -6
-492 3 -735 33 -139 17 -440 70 -449 79 -3 3 6 9 19 12 67 18 203 98 281 166
93 81 174 138 263 186 77 41 86 49 86 77 0 38 -32 48 -97 29 -30 -9 -57 -15
-58 -13 -2 2 3 28 11 58 8 30 17 90 21 133 l6 78 36 -37 c20 -21 68 -63 107
-94 l71 -57 -15 -34 c-9 -21 -15 -65 -16 -114 0 -66 4 -90 25 -135 68 -147
215 -232 399 -232 191 0 350 100 406 253 37 101 15 237 -52 325 l-34 44 67 80
c38 44 71 80 76 80 4 0 7 -15 7 -33z m1537 -141 c78 -51 213 -164 213 -177 0
-5 -17 -9 -39 -9 -76 0 -119 -66 -85 -132 9 -18 42 -58 73 -89 31 -30 66 -74
79 -97 l23 -42 -25 0 c-14 0 -60 9 -103 21 -124 34 -192 16 -238 -62 -17 -29
-20 -49 -18 -141 4 -156 -16 -168 -166 -98 -110 50 -152 57 -225 36 -98 -29
-144 -84 -181 -218 -26 -96 -74 -111 -165 -54 -119 75 -152 89 -226 94 -118 8
-177 -28 -277 -168 -48 -66 -76 -66 -158 1 -92 74 -136 92 -219 87 -84 -4
-129 -32 -200 -122 -80 -101 -133 -104 -202 -10 -75 102 -133 136 -229 136
-66 0 -108 -19 -197 -91 -102 -81 -115 -79 -187 28 -39 59 -55 75 -107 100
-48 25 -74 31 -123 31 -78 0 -112 -12 -205 -71 -41 -26 -86 -50 -100 -54 -41
-10 -78 10 -97 52 -60 140 -74 162 -120 192 -84 56 -174 55 -299 -2 -105 -48
-118 -51 -152 -33 -37 19 -53 62 -45 125 7 65 -13 144 -46 180 -44 47 -94 57
-210 41 -54 -7 -106 -10 -116 -7 -15 6 -15 9 2 38 10 18 48 65 84 104 73 79
95 127 80 168 -12 31 -34 44 -90 53 -22 4 -41 10 -41 14 0 18 245 220 253 209
11 -14 23 -138 16 -157 -17 -45 -10 -135 15 -188 122 -262 729 -476 1571 -556
167 -15 649 -15 830 1 414 36 829 121 1101 225 337 128 504 279 504 453 0 69
-16 118 -47 146 -18 16 -19 23 -10 58 11 47 11 47 104 -15z m-1866 -23 c176
-79 212 -259 76 -379 -136 -120 -384 -95 -483 48 -38 55 -45 147 -16 204 33
64 102 119 182 145 46 15 191 4 241 -18z m2186 -346 c23 -45 11 -40 -34 12
-23 27 -39 51 -36 55 9 9 52 -33 70 -67z m-4697 57 c0 -9 -73 -94 -78 -90 -6
6 18 48 41 74 19 21 37 29 37 16z m4570 -364 c19 -5 47 -10 62 -10 39 0 35
-17 -20 -85 -68 -85 -191 -185 -312 -255 -350 -201 -837 -335 -1442 -397 -239
-25 -849 -25 -1088 0 -694 72 -1238 237 -1560 473 -85 62 -217 190 -239 232
-11 21 -10 22 31 23 24 0 77 6 118 13 84 16 117 8 124 -26 3 -13 7 -62 9 -111
3 -77 7 -92 33 -129 70 -100 170 -112 330 -39 51 22 103 41 116 41 32 0 89
-38 104 -70 7 -14 27 -56 44 -93 40 -86 85 -119 169 -125 67 -5 117 13 219 80
109 71 187 61 249 -33 95 -140 169 -175 270 -130 23 11 61 37 85 58 77 70 99
83 137 83 49 -1 70 -15 128 -85 64 -76 80 -91 126 -110 92 -38 155 -13 267
105 80 84 88 90 126 90 34 0 50 -8 106 -54 87 -72 136 -96 195 -96 67 0 114
32 171 115 54 79 83 103 134 111 40 7 95 -16 199 -81 31 -20 80 -41 110 -47
51 -10 59 -9 111 14 72 33 110 84 133 178 32 130 92 148 253 76 133 -60 234
-48 294 36 21 30 23 44 23 146 0 155 3 156 185 102z m-4280 -487 c30 -17 112
-56 182 -87 890 -392 2307 -442 3368 -119 200 61 461 180 603 276 32 21 61 36
64 33 10 -9 -67 -228 -118 -334 -179 -380 -431 -590 -889 -741 -324 -106 -662
-159 -1080 -168 -488 -11 -925 46 -1294 168 -445 146 -695 350 -875 715 -44
90 -131 323 -131 353 0 6 26 -6 58 -27 31 -21 82 -52 112 -69z"/>
<path d="M4527 6381 c-66 -79 -87 -220 -52 -351 20 -76 29 -90 61 -90 34 0 38
14 19 91 -25 101 -18 207 20 282 22 45 27 62 18 75 -17 27 -39 25 -66 -7z"/>
<path d="M5402 6378 c-34 -34 6 -90 48 -68 35 19 20 80 -20 80 -9 0 -21 -5
-28 -12z"/>
<path d="M4664 6335 c-7 -29 10 -55 36 -55 26 0 43 26 36 55 -5 20 -13 25 -36
25 -23 0 -31 -5 -36 -25z"/>
<path d="M4860 6270 c-21 -40 12 -80 53 -64 40 15 26 84 -18 84 -14 0 -29 -8
-35 -20z"/>
<path d="M5212 6268 c-7 -7 -12 -21 -12 -33 0 -45 60 -63 80 -24 23 41 -35 90
-68 57z"/>
<path d="M5512 6178 c-16 -16 -15 -53 3 -68 19 -16 45 -10 61 15 26 39 -31 86
-64 53z"/>
<path d="M4652 6143 c-16 -31 3 -63 38 -63 23 0 33 6 39 23 13 32 -4 57 -39
57 -18 0 -33 -7 -38 -17z"/>
<path d="M4970 6125 c-7 -8 -10 -25 -6 -39 11 -45 71 -45 82 0 8 30 -11 54
-41 54 -12 0 -28 -7 -35 -15z"/>
<path d="M5360 6010 c-15 -29 -3 -59 26 -66 30 -8 54 11 54 40 0 46 -59 64
-80 26z"/>
<path d="M4762 5978 c-36 -36 7 -91 54 -69 42 19 26 81 -21 81 -12 0 -26 -5
-33 -12z"/>
<path d="M5174 5945 c-8 -33 12 -57 45 -53 22 3 26 8 26 38 0 32 -3 35 -32 38
-28 3 -33 -1 -39 -23z"/>
<path d="M4563 5883 c-7 -2 -13 -18 -13 -33 0 -53 64 -64 76 -14 10 40 -22 64
-63 47z"/>
<path d="M4944 5866 c-3 -8 -4 -25 -2 -38 2 -18 10 -24 35 -26 39 -4 60 25 43
58 -13 24 -68 28 -76 6z"/>
<path d="M4714 5725 c-13 -52 56 -79 78 -30 14 32 -4 55 -43 55 -22 0 -30 -6
-35 -25z"/>
<path d="M5312 5728 c-27 -27 -6 -68 35 -68 29 0 48 33 33 60 -12 22 -49 27
-68 8z"/>
<path d="M5090 5690 c-25 -25 -25 -35 -1 -59 40 -40 97 8 66 55 -19 29 -38 31
-65 4z"/>
<path d="M4856 5618 c-13 -19 -14 -25 -2 -43 7 -11 21 -21 30 -23 42 -9 64 58
27 78 -28 15 -38 13 -55 -12z"/>
<path d="M3926 6008 c-24 -59 -28 -94 -12 -107 22 -18 50 30 50 87 1 56 -19
67 -38 20z"/>
<path d="M3725 6010 c-4 -6 -1 -35 5 -66 9 -43 15 -54 28 -52 18 3 28 62 18
105 -7 24 -39 32 -51 13z"/>
<path d="M3540 5959 c0 -27 68 -121 84 -116 22 7 16 42 -13 90 -33 51 -71 65
-71 26z"/>
<path d="M4077 5900 c-41 -44 -45 -58 -20 -67 19 -7 97 70 90 90 -8 25 -35 16
-70 -23z"/>
<path d="M3767 5830 c-105 -27 -197 -105 -245 -208 -22 -47 -27 -75 -30 -162
-3 -89 -1 -114 18 -163 48 -128 137 -197 266 -205 87 -5 144 12 213 64 185
142 203 449 36 602 -71 65 -172 93 -258 72z m146 -104 c158 -69 187 -332 52
-470 -54 -56 -101 -76 -175 -76 -49 0 -65 5 -106 33 -133 89 -148 305 -30 444
59 70 181 103 259 69z"/>
<path d="M3784 5590 c-55 -22 -87 -110 -61 -171 20 -47 48 -70 94 -76 66 -9
89 51 28 72 -45 15 -55 24 -55 51 0 36 35 66 72 62 21 -2 34 3 42 15 24 39
-60 72 -120 47z"/>
<path d="M3387 5813 c-24 -23 39 -93 82 -93 31 0 25 24 -16 64 -37 35 -53 43
-66 29z"/>
<path d="M4200 5768 c-38 -26 -50 -55 -26 -64 23 -9 108 44 104 64 -5 26 -40
25 -78 0z"/>
<path d="M4242 5639 c-35 -10 -53 -36 -33 -49 15 -8 101 6 114 19 16 16 -1 41
-25 40 -13 0 -38 -5 -56 -10z"/>
<path d="M3317 5633 c-17 -16 -4 -33 38 -48 72 -28 103 -2 43 35 -33 20 -69
26 -81 13z"/>
<path d="M3294 5455 c-9 -24 5 -35 45 -35 41 0 78 21 67 38 -11 18 -105 15
-112 -3z"/>
<path d="M4211 5447 c-17 -21 11 -39 69 -45 41 -4 50 -2 50 11 0 31 -98 59
-119 34z"/>
<path d="M3348 5326 c-53 -16 -66 -32 -45 -53 16 -16 21 -16 59 -3 49 18 71
45 48 60 -17 11 -14 11 -62 -4z"/>
<path d="M4143 5273 c-8 -19 39 -63 67 -63 47 0 25 49 -31 69 -25 8 -31 7 -36
-6z"/>
<path d="M3426 5157 c-31 -41 -34 -67 -6 -67 26 0 71 50 68 75 -5 33 -34 29
-62 -8z"/>
<path d="M4031 5117 c-9 -11 -9 -21 -3 -34 17 -30 60 -66 71 -58 19 11 12 34
-22 71 -29 32 -34 34 -46 21z"/>
<path d="M3870 5012 c0 -21 6 -47 14 -57 12 -16 16 -17 30 -6 29 24 10 101
-26 101 -14 0 -18 -8 -18 -38z"/>
<path d="M3610 5005 c-22 -68 19 -93 46 -29 18 42 13 64 -15 64 -13 0 -23 -11
-31 -35z"/>
<path d="M6786 5628 c-3 -7 -7 -45 -9 -83 -7 -88 -37 -169 -88 -237 -43 -58
-48 -82 -20 -98 28 -14 46 -4 85 49 82 113 120 246 100 350 -6 26 -11 31 -36
31 -16 0 -30 -6 -32 -12z"/>
<path d="M6952 4058 c-5 -7 -40 -81 -76 -165 -54 -122 -65 -156 -57 -172 14
-26 40 -34 63 -19 19 13 148 294 148 323 0 35 -56 59 -78 33z"/>
<path d="M3162 4028 c-21 -21 -13 -49 49 -167 94 -180 122 -207 163 -162 23
25 20 33 -58 172 -36 63 -71 126 -80 142 -16 29 -52 37 -74 15z"/>
<path d="M6161 3776 c-12 -14 -91 -341 -91 -376 0 -24 41 -53 63 -44 22 8 24
13 83 278 28 129 28 121 8 140 -19 20 -48 21 -63 2z"/>
<path d="M4446 3684 c-9 -8 -16 -20 -16 -25 0 -31 92 -354 102 -361 34 -21 68
0 68 42 0 38 -76 328 -90 345 -16 19 -45 19 -64 -1z"/>
<path d="M6102 6984 c-36 -25 -182 -204 -182 -222 0 -26 29 -62 50 -62 35 0
49 12 134 115 90 108 102 138 68 168 -23 21 -41 21 -70 1z"/>
<path d="M3982 6964 c-41 -28 -29 -61 63 -172 92 -109 121 -127 155 -97 35 32
25 62 -57 162 -103 127 -118 137 -161 107z"/>
</g>
</svg>
