<?xml version="1.0" standalone="no"?>
<!DOCTYPE svg PUBLIC "-//W3C//DTD SVG 20010904//EN"
 "http://www.w3.org/TR/2001/REC-SVG-20010904/DTD/svg10.dtd">
<svg version="1.0" xmlns="http://www.w3.org/2000/svg"
 width="1024.000000pt" height="1024.000000pt" viewBox="0 0 1024.000000 1024.000000"
 preserveAspectRatio="xMidYMid meet">
<metadata>
Created by potrace 1.16, written by Peter Selinger 2001-2019
</metadata>
<g transform="translate(0.000000,1024.000000) scale(0.100000,-0.100000)"
fill="#000000" stroke="none">
<path d="M5806 7484 c-164 -37 -238 -82 -591 -365 -297 -237 -380 -300 -750
-564 -809 -577 -1629 -1244 -1837 -1494 -178 -213 -248 -437 -232 -741 2 -41
9 -165 14 -275 14 -261 38 -550 55 -650 19 -107 57 -180 120 -227 68 -51 124
-68 262 -78 153 -11 219 -33 351 -117 167 -107 358 -172 533 -180 333 -16 579
90 1189 511 236 163 841 592 1130 801 47 33 126 90 175 125 88 62 510 368 690
499 177 129 542 406 635 481 231 187 258 255 247 615 -4 110 -13 272 -22 360
-42 462 -67 557 -183 698 -124 152 -307 261 -517 309 -73 17 -122 21 -263 20
-207 -1 -212 0 -365 105 -119 83 -219 132 -317 157 -94 25 -240 29 -324 10z
m277 -100 c96 -22 182 -62 278 -129 194 -136 223 -145 454 -143 191 2 274 -13
411 -77 207 -95 381 -279 378 -400 0 -22 -10 -61 -22 -87 -44 -99 -130 -171
-627 -518 -429 -301 -563 -398 -960 -695 -372 -279 -511 -386 -1085 -832 -364
-282 -469 -359 -597 -435 -351 -207 -673 -221 -1019 -42 -191 99 -219 112
-287 133 -36 11 -121 25 -187 31 -144 12 -205 34 -255 93 -46 54 -65 114 -65
212 0 149 57 310 155 440 116 154 547 539 955 855 32 25 125 97 206 161 195
152 449 340 714 529 357 254 439 315 745 560 353 282 413 319 580 354 48 10
162 5 228 -10z m1593 -1159 c13 -122 19 -264 19 -440 l0 -260 -27 -50 c-14
-27 -50 -73 -80 -101 -68 -65 -328 -268 -334 -261 -2 1 -10 90 -19 197 -14
165 -58 554 -80 695 -6 38 -4 41 31 65 127 84 357 265 404 317 67 75 62 85 86
-162z m-612 -278 c26 -104 89 -741 84 -852 l-3 -70 -85 -63 c-493 -369 -2242
-1617 -2327 -1661 -20 -10 -21 -8 -27 47 -18 166 -27 324 -32 572 l-5 275 222
170 c122 94 315 242 428 329 670 517 1382 1045 1686 1249 48 33 51 33 59 4z
m-4523 -1781 c44 -37 142 -64 275 -76 66 -5 141 -17 165 -25 24 -8 125 -55
224 -105 270 -135 448 -176 653 -152 225 27 404 100 652 267 l55 37 8 -223 c5
-123 16 -321 26 -439 16 -194 16 -217 2 -233 -23 -28 -246 -161 -351 -211
-178 -84 -309 -116 -468 -116 -170 0 -335 51 -513 156 -194 115 -242 131 -415
143 -105 7 -128 12 -172 36 -64 35 -97 82 -116 165 -24 105 -77 800 -61 800 4
0 20 -11 36 -24z"/>
<path d="M5757 6946 c-94 -34 -152 -98 -179 -199 -15 -58 -4 -82 37 -82 26 0
31 6 52 59 38 98 98 146 182 146 76 0 130 -35 162 -105 49 -106 -11 -258 -112
-285 -43 -12 -63 -42 -48 -72 14 -25 41 -30 87 -14 68 24 109 63 144 134 30
60 33 75 33 157 0 101 -16 144 -77 202 -70 67 -188 92 -281 59z"/>
<path d="M6419 6719 c-19 -37 2 -63 68 -83 72 -22 97 -19 101 12 10 66 -138
127 -169 71z"/>
<path d="M6934 6626 c-43 -19 -64 -53 -64 -104 0 -57 25 -98 75 -122 50 -24
67 -25 112 -3 70 33 91 135 39 191 -46 51 -102 64 -162 38z m90 -92 c20 -19
20 -29 0 -48 -27 -27 -75 12 -60 49 7 20 40 19 60 -1z"/>
<path d="M5013 6605 c-17 -7 -36 -22 -42 -34 -14 -25 -14 -27 4 -44 12 -12 22
-13 51 -5 20 5 58 7 85 3 33 -5 54 -3 64 5 22 18 19 67 -4 80 -28 14 -120 12
-158 -5z"/>
<path d="M6354 6284 c-10 -38 2 -104 24 -133 35 -47 83 -59 96 -25 5 14 -23
114 -46 162 -17 33 -65 31 -74 -4z"/>
<path d="M4559 6157 c-170 -48 -252 -185 -179 -304 64 -105 267 -100 365 9 45
49 55 76 55 142 0 118 -111 189 -241 153z m133 -104 c27 -24 24 -85 -7 -121
-54 -65 -168 -84 -219 -37 -33 30 -33 65 -1 103 54 64 183 95 227 55z"/>
<path d="M5636 6120 c-114 -34 -163 -219 -90 -336 86 -140 308 -140 401 0 65
96 68 189 8 254 -32 36 -36 37 -101 36 -53 -1 -71 3 -86 18 -35 35 -77 44
-132 28z m64 -95 c7 -9 26 -25 42 -36 26 -19 33 -20 78 -8 45 11 51 11 70 -6
64 -58 -36 -205 -140 -205 -81 0 -150 63 -150 136 0 94 61 166 100 119z"/>
<path d="M5090 5825 c-51 -55 -18 -139 55 -139 48 0 85 36 85 84 0 74 -89 109
-140 55z"/>
<path d="M3632 5630 c-27 -11 -39 -37 -25 -58 7 -12 31 -16 104 -18 52 -1 100
3 107 8 19 16 14 45 -10 62 -25 18 -137 21 -176 6z"/>
<path d="M4962 5291 c-55 -26 -81 -80 -82 -166 0 -71 29 -137 73 -169 63 -46
187 -13 268 70 39 40 51 112 26 160 -49 95 -193 148 -285 105z m109 -83 c83
-28 119 -80 83 -119 -29 -32 -92 -60 -127 -57 -40 4 -57 35 -57 105 0 42 4 55
22 67 27 19 35 19 79 4z"/>
<path d="M3971 5268 c-130 -89 -66 -290 89 -275 114 12 166 176 81 260 -42 42
-121 49 -170 15z m111 -85 c10 -9 18 -24 18 -33 0 -24 -38 -70 -57 -70 -25 0
-53 31 -53 58 0 53 54 79 92 45z"/>
<path d="M3471 5091 c-17 -31 1 -56 53 -76 56 -22 93 -14 102 21 10 39 -21 64
-88 71 -50 5 -57 3 -67 -16z"/>
<path d="M2925 4946 c-53 -24 -119 -90 -136 -134 -27 -71 -6 -150 50 -184 52
-33 176 -33 244 0 129 64 131 259 4 321 -56 27 -100 26 -162 -3z m124 -81 c77
-39 40 -156 -54 -170 -47 -8 -106 7 -125 31 -25 29 25 101 95 137 38 20 49 21
84 2z"/>
<path d="M4262 4648 c-25 -25 -14 -69 28 -109 46 -44 83 -57 105 -39 25 21 17
49 -32 106 -47 54 -76 67 -101 42z"/>
<path d="M3510 4541 c-116 -38 -192 -125 -148 -169 20 -20 38 -14 80 24 77 69
159 82 259 41 157 -65 205 -178 104 -247 -46 -32 -58 -63 -33 -88 30 -30 108
8 147 72 99 160 -68 364 -304 373 -44 1 -91 -1 -105 -6z"/>
<path d="M6757 5543 c-56 -63 -79 -195 -41 -234 36 -36 61 -19 66 45 3 31 16
77 32 109 15 30 26 63 24 73 -5 27 -59 31 -81 7z"/>
<path d="M6547 5022 c-17 -19 -23 -94 -11 -126 9 -23 61 -21 74 3 14 27 13
114 -2 129 -17 17 -42 15 -61 -6z"/>
<path d="M5869 4737 c-42 -32 -50 -90 -19 -130 26 -32 62 -41 103 -23 59 24
73 100 27 146 -23 23 -85 27 -111 7z"/>
<path d="M5342 4494 c-47 -33 -9 -107 46 -88 49 17 38 104 -13 104 -6 0 -21
-7 -33 -16z"/>
<path d="M5080 4230 c-24 -24 -25 -38 -4 -68 39 -57 127 6 90 64 -20 30 -58
32 -86 4z"/>
<path d="M4973 3910 c-44 -26 -65 -62 -61 -102 4 -48 39 -50 81 -5 18 20 45
39 60 42 35 9 56 47 37 70 -17 21 -79 19 -117 -5z"/>
</g>
</svg>
