<?xml version="1.0" standalone="no"?>
<!DOCTYPE svg PUBLIC "-//W3C//DTD SVG 20010904//EN"
 "http://www.w3.org/TR/2001/REC-SVG-20010904/DTD/svg10.dtd">
<svg version="1.0" xmlns="http://www.w3.org/2000/svg"
 width="1024.000000pt" height="1024.000000pt" viewBox="0 0 1024.000000 1024.000000"
 preserveAspectRatio="xMidYMid meet">
<metadata>
Created by potrace 1.16, written by Peter Selinger 2001-2019
</metadata>
<g transform="translate(0.000000,1024.000000) scale(0.100000,-0.100000)"
fill="#000000" stroke="none">
<path d="M5870 8085 c-322 -53 -550 -233 -626 -493 -5 -17 -24 -5 -24 15 0 35
-69 143 -135 209 -168 171 -372 246 -660 246 -152 0 -322 -27 -380 -61 -37
-21 -43 -59 -20 -139 81 -279 271 -497 513 -591 89 -34 211 -61 277 -61 25 0
45 -3 45 -7 0 -5 -36 -21 -80 -36 -323 -114 -706 -403 -1000 -755 -524 -625
-821 -1477 -771 -2208 24 -350 85 -592 213 -849 281 -561 838 -947 1538 -1066
159 -27 480 -37 641 -20 704 74 1326 437 1647 963 269 439 359 990 261 1589
-109 672 -472 1382 -949 1860 -229 229 -472 396 -714 489 -67 26 -69 28 -41
35 178 39 237 61 358 134 102 61 202 157 262 251 81 125 145 300 145 397 0 47
-3 54 -27 66 -74 38 -334 55 -473 32z m351 -142 c7 -7 2 -35 -17 -92 -77 -232
-251 -401 -494 -479 -91 -30 -220 -52 -299 -52 l-66 0 6 93 c11 148 56 254
147 349 31 33 81 74 111 92 64 39 181 82 255 96 68 12 343 7 357 -7z m-1550
-41 c233 -62 402 -226 445 -434 8 -39 13 -77 10 -83 -7 -20 -134 -40 -251 -39
-133 1 -222 21 -330 74 -134 66 -222 145 -299 274 -36 59 -92 194 -84 201 2 3
40 11 84 20 109 20 322 14 425 -13z m720 -797 c383 -81 772 -356 1102 -780
381 -489 639 -1102 706 -1680 16 -132 13 -435 -4 -572 -27 -206 -85 -415 -167
-593 -261 -567 -849 -968 -1563 -1065 -142 -20 -455 -22 -590 -5 -885 112
-1530 674 -1689 1470 -166 833 128 1802 765 2525 145 165 344 337 524 455 163
106 400 209 565 244 88 19 262 20 351 1z"/>
<path d="M5980 4365 c-53 -17 -116 -74 -141 -130 -11 -24 -19 -64 -19 -99 -1
-249 337 -328 450 -106 66 131 -1 293 -139 334 -65 19 -91 19 -151 1z m75 -90
c66 -66 -24 -157 -92 -93 -29 27 -29 65 -1 95 28 30 63 29 93 -2z"/>
<path d="M4042 4335 c-120 -61 -166 -202 -106 -323 86 -173 336 -175 424 -2
60 118 14 266 -103 326 -17 10 -61 19 -97 21 -56 4 -73 1 -118 -22z m107 -81
c12 -15 21 -35 21 -46 0 -24 -44 -68 -68 -68 -32 0 -72 38 -72 69 0 69 77 98
119 45z"/>
<path d="M5245 4043 c-658 -16 -684 -17 -707 -41 -20 -19 -24 -35 -27 -107
-12 -294 183 -551 475 -625 206 -53 395 -1 545 149 122 122 179 261 179 437 0
111 -6 146 -32 173 -20 23 -32 23 -433 14z m335 -185 c0 -129 -52 -251 -144
-344 -143 -142 -328 -170 -516 -76 -95 47 -177 128 -223 222 -35 69 -65 195
-54 224 6 14 32 16 194 17 156 1 427 8 691 17 l52 2 0 -62z"/>
</g>
</svg>
