<?xml version="1.0" standalone="no"?>
<!DOCTYPE svg PUBLIC "-//W3C//DTD SVG 20010904//EN"
 "http://www.w3.org/TR/2001/REC-SVG-20010904/DTD/svg10.dtd">
<svg version="1.0" xmlns="http://www.w3.org/2000/svg"
 width="1024.000000pt" height="1024.000000pt" viewBox="0 0 1024.000000 1024.000000"
 preserveAspectRatio="xMidYMid meet">
<metadata>
Created by potrace 1.16, written by Peter Selinger 2001-2019
</metadata>
<g transform="translate(0.000000,1024.000000) scale(0.100000,-0.100000)"
fill="#000000" stroke="none">
<path d="M5072 8643 c-35 -31 -170 -221 -237 -334 -157 -264 -276 -555 -325
-791 -6 -32 -14 -58 -16 -58 -3 0 -38 20 -78 44 -294 178 -636 278 -961 280
-172 1 -225 -14 -225 -66 0 -13 59 -79 163 -181 185 -184 263 -288 362 -480
59 -113 122 -267 109 -267 -2 0 -57 18 -121 40 -65 23 -174 53 -243 68 -114
24 -145 26 -345 26 -189 1 -234 -2 -318 -21 -129 -28 -191 -59 -195 -95 -3
-25 6 -33 85 -84 296 -191 441 -344 613 -644 46 -80 106 -179 134 -220 66 -97
189 -225 285 -297 42 -31 79 -60 83 -63 4 -3 -18 -37 -49 -75 -244 -303 -437
-783 -527 -1310 -47 -277 -60 -429 -59 -720 1 -551 75 -882 260 -1169 54 -84
207 -238 288 -291 305 -199 726 -301 1285 -312 363 -7 652 22 958 98 312 77
556 189 724 333 234 201 368 512 409 951 14 156 6 518 -16 715 -86 761 -353
1444 -714 1823 -41 42 -72 79 -70 80 100 68 232 198 309 305 24 34 78 124 118
200 123 228 191 324 321 453 110 109 202 177 348 260 102 57 80 106 -68 152
-161 50 -240 61 -444 62 -203 0 -292 -12 -455 -59 -46 -13 -88 -22 -91 -20 -9
5 41 127 102 249 100 197 216 354 385 521 61 61 114 119 118 130 17 55 -60 78
-214 62 -349 -35 -739 -196 -1052 -435 -31 -24 -59 -43 -61 -43 -3 0 -8 21
-12 48 -14 96 -77 327 -126 460 -63 170 -192 431 -280 567 -82 126 -112 147
-157 108z m137 -392 c163 -321 258 -608 287 -869 l7 -63 -60 -62 c-115 -121
-268 -335 -317 -445 -20 -44 -40 -54 -48 -24 -19 71 -233 356 -359 477 -68 66
-72 72 -70 110 12 218 188 659 381 953 65 99 76 111 87 97 6 -10 48 -88 92
-174z m1451 -486 c0 -2 -24 -31 -53 -64 -30 -33 -83 -101 -118 -150 -148 -210
-234 -396 -335 -726 -86 -279 -125 -382 -193 -518 -97 -192 -236 -385 -268
-373 -38 15 -262 47 -388 56 -217 15 -498 -13 -719 -72 l-80 -21 -38 44 c-186
212 -282 398 -422 811 -120 359 -236 566 -444 796 -41 45 -73 84 -71 86 7 7
201 -24 289 -46 566 -138 1045 -576 1229 -1123 25 -76 33 -90 51 -90 19 0 27
16 60 115 92 279 239 510 466 730 272 263 531 413 909 525 76 23 125 31 125
20z m406 -866 c147 -16 147 -16 57 -79 -104 -74 -254 -226 -333 -338 -36 -51
-97 -152 -137 -224 -39 -73 -91 -163 -114 -200 -76 -121 -203 -245 -314 -308
l-41 -23 -81 47 c-44 26 -110 58 -144 72 -35 14 -65 27 -67 29 -2 1 34 58 78
126 108 164 200 358 265 554 29 88 56 174 60 192 6 29 14 35 86 63 212 82 462
114 685 89z m-3606 -148 c161 -34 299 -81 452 -153 19 -9 32 -34 58 -111 62
-184 184 -414 301 -570 33 -43 59 -81 58 -85 0 -4 -40 -26 -89 -50 -49 -23
-128 -71 -177 -106 l-88 -64 -36 19 c-57 29 -178 128 -247 204 -72 79 -124
155 -210 310 -81 145 -142 236 -226 334 -65 76 -218 217 -278 256 -16 9 -28
21 -28 26 0 26 374 18 510 -10z m1862 -937 c5 -4 -39 -48 -118 -117 -22 -18
-23 -18 -65 9 -101 63 -149 97 -149 105 0 10 323 13 332 3z m-274 -149 c72
-44 82 -30 -88 -130 -174 -103 -320 -200 -480 -320 l-144 -108 -41 22 c-260
146 -354 183 -369 145 -13 -34 -1 -45 137 -114 169 -86 209 -109 202 -120 -3
-5 -40 -27 -83 -51 -219 -120 -592 -395 -592 -437 0 -12 28 -42 39 -42 4 0 56
38 116 85 146 114 267 197 418 289 193 116 183 113 248 81 61 -31 181 -99 284
-160 154 -92 371 -228 390 -245 11 -9 36 -23 55 -30 85 -32 493 -236 583 -292
107 -65 129 -68 135 -16 3 22 -8 33 -80 79 -89 57 -424 229 -548 280 -41 18
-124 64 -185 104 -151 99 -388 241 -517 310 -60 31 -108 60 -108 65 0 24 394
294 649 445 103 61 116 66 140 55 94 -41 457 -277 602 -391 l34 -27 -115 -118
c-125 -129 -210 -230 -283 -337 -39 -56 -45 -72 -37 -88 6 -10 21 -19 34 -19
18 0 41 23 97 98 117 155 350 412 374 412 23 0 362 -152 507 -227 124 -65 149
-75 162 -64 21 18 20 44 -1 63 -56 48 -401 217 -547 267 -28 10 -51 22 -52 27
-3 11 93 85 188 144 36 22 68 47 71 53 7 19 -11 57 -28 57 -21 0 -141 -73
-232 -142 -42 -32 -81 -58 -85 -58 -5 0 -39 24 -76 54 -37 29 -106 81 -154
114 -101 70 -383 242 -398 242 -20 0 -8 17 59 82 38 38 73 77 76 89 6 19 12
20 58 14 221 -29 449 -107 605 -208 450 -291 794 -1059 877 -1956 26 -279 17
-661 -18 -835 -12 -57 -13 -59 -52 -71 -22 -6 -53 -20 -68 -29 l-27 -18 -51
56 c-101 111 -291 246 -466 332 -51 25 -93 50 -93 56 0 6 75 86 168 177 170
169 367 329 482 390 65 35 83 53 78 77 -7 35 -34 40 -80 15 -213 -117 -503
-358 -665 -552 -31 -38 -62 -69 -68 -69 -6 0 -115 42 -242 94 -127 52 -284
113 -349 135 -66 23 -125 44 -132 46 -19 7 87 134 238 285 113 114 301 279
420 370 25 19 99 82 166 140 220 191 240 208 350 294 60 48 115 91 122 96 17
15 15 45 -3 60 -12 10 -21 10 -42 1 -48 -22 -312 -236 -493 -401 -52 -47 -111
-97 -130 -110 -150 -103 -490 -419 -627 -583 -80 -97 -103 -134 -103 -170 0
-32 10 -39 110 -71 112 -37 640 -248 640 -256 0 -4 -55 -42 -122 -86 -300
-193 -749 -560 -973 -796 -117 -122 -233 -260 -282 -335 -21 -31 -42 -52 -49
-49 -7 3 -40 8 -74 12 -61 7 -62 7 -116 75 -63 78 -146 153 -258 233 -149 107
-289 159 -432 159 l-81 1 -37 57 c-116 179 -188 486 -203 866 -7 191 -19 179
128 135 190 -57 404 -149 712 -304 119 -60 217 -113 217 -118 0 -4 -35 -36
-77 -71 -168 -138 -453 -439 -453 -479 0 -21 20 -40 41 -40 9 0 49 38 89 85
83 98 304 313 409 399 l72 59 37 -12 c56 -20 292 -153 421 -238 125 -82 154
-89 159 -38 3 29 -4 35 -120 112 -97 64 -353 211 -413 237 -31 14 325 260 516
356 70 36 84 52 69 79 -17 32 -44 26 -159 -35 -128 -67 -259 -152 -404 -262
-60 -45 -113 -82 -119 -82 -5 0 -100 47 -211 104 -222 115 -441 215 -600 275
-108 40 -255 81 -293 81 -20 0 -22 4 -18 38 2 20 6 96 8 167 6 146 27 321 58
470 27 136 57 248 66 257 16 16 233 -134 435 -300 70 -57 127 -106 127 -108 0
-2 -48 -28 -107 -58 -222 -112 -553 -330 -553 -364 0 -22 19 -42 40 -42 9 0
50 23 91 52 141 100 349 226 492 299 l144 73 174 -86 c200 -99 384 -208 558
-331 67 -48 128 -87 137 -87 8 0 20 12 26 26 12 25 10 29 -31 63 -142 119
-366 259 -626 391 -88 45 -161 83 -163 85 -10 9 396 262 593 368 77 42 153 83
168 91 22 12 28 22 25 43 -2 19 -9 29 -24 31 -55 8 -583 -296 -807 -465 l-58
-44 -76 63 c-169 140 -222 183 -313 248 -52 37 -125 85 -162 105 -38 20 -68
43 -68 51 0 27 72 230 124 349 237 542 555 809 1096 919 l115 23 55 -52 c30
-28 83 -68 118 -90z m1168 -2658 c149 -73 304 -180 453 -315 l55 -48 -63 -63
c-111 -114 -192 -231 -273 -396 -26 -54 -51 -116 -54 -136 -5 -32 -12 -40 -45
-53 -22 -9 -43 -16 -47 -16 -4 0 -50 42 -102 93 -159 155 -324 271 -517 364
-133 65 -176 75 -192 45 -6 -11 -9 -27 -6 -34 3 -7 61 -40 130 -72 196 -92
406 -238 543 -379 l53 -54 -118 -31 c-141 -37 -345 -75 -503 -94 -129 -15
-663 -18 -772 -5 l-68 9 32 46 c76 111 320 369 493 521 221 195 486 402 690
537 163 109 188 124 206 124 8 0 56 -20 105 -43z m649 -429 c-13 -35 -31 -81
-40 -103 -30 -70 -121 -198 -187 -261 -65 -63 -204 -161 -214 -152 -8 8 89
189 152 282 68 103 172 218 238 262 73 49 79 45 51 -28z m-2969 -387 c44 -17
121 -59 171 -93 103 -70 251 -200 236 -205 -18 -6 -234 68 -308 104 -131 66
-305 194 -305 225 0 20 123 1 206 -31z"/>
<path d="M6147 4183 c-11 -11 -8 -51 5 -59 6 -4 70 -27 142 -51 72 -24 210
-82 306 -129 180 -89 201 -93 208 -47 4 27 -27 50 -156 117 -222 113 -476 198
-505 169z"/>
</g>
</svg>
