<?xml version="1.0" standalone="no"?>
<!DOCTYPE svg PUBLIC "-//W3C//DTD SVG 20010904//EN"
 "http://www.w3.org/TR/2001/REC-SVG-20010904/DTD/svg10.dtd">
<svg version="1.0" xmlns="http://www.w3.org/2000/svg"
 width="1024.000000pt" height="1024.000000pt" viewBox="0 0 1024.000000 1024.000000"
 preserveAspectRatio="xMidYMid meet">
<metadata>
Created by potrace 1.16, written by Peter Selinger 2001-2019
</metadata>
<g transform="translate(0.000000,1024.000000) scale(0.100000,-0.100000)"
fill="#000000" stroke="none">
<path d="M5125 7484 c-315 -7 -903 -57 -1067 -90 -32 -6 -38 -20 -78 -184 -78
-313 -126 -723 -116 -1000 15 -443 105 -767 291 -1046 150 -224 343 -381 580
-469 140 -52 141 -54 170 -191 60 -290 60 -897 1 -1012 -18 -35 -25 -38 -211
-78 -237 -52 -408 -133 -450 -215 -20 -38 -19 -104 2 -141 77 -129 482 -209
913 -180 455 31 773 137 809 269 39 139 -139 244 -504 298 -164 24 -172 29
-194 120 -39 156 -40 739 -2 949 11 64 27 119 38 133 10 14 54 38 101 57 147
59 236 120 368 251 160 160 252 302 329 510 89 238 125 461 125 766 0 274 -24
479 -95 806 -37 168 -101 403 -113 415 -19 18 -599 38 -897 32z m620 -84 c115
-6 214 -15 218 -19 23 -23 123 -444 157 -666 29 -182 52 -545 35 -545 -3 0
-23 9 -43 19 -43 22 -173 51 -226 51 -72 0 -145 -25 -286 -97 -126 -64 -158
-76 -240 -89 -107 -18 -266 -14 -340 9 -25 8 -93 37 -151 66 -170 85 -264 81
-426 -15 -161 -95 -292 -129 -406 -105 -98 21 -97 18 -97 256 0 304 32 578
106 892 19 84 40 153 49 159 15 11 271 44 500 64 320 29 802 37 1150 20z m250
-1251 c22 -6 67 -23 99 -37 l59 -26 -6 -95 c-12 -188 -78 -442 -161 -614 -145
-302 -361 -511 -633 -613 -37 -14 -78 -35 -91 -47 -73 -68 -116 -480 -93 -887
16 -280 42 -385 103 -416 16 -8 102 -28 191 -44 232 -42 336 -77 405 -134 61
-52 33 -104 -84 -157 -82 -37 -254 -82 -409 -105 -169 -26 -597 -26 -735 -1
-190 35 -316 88 -334 140 -26 73 113 155 366 218 68 16 151 37 185 45 100 26
129 70 155 239 16 104 16 536 -1 685 -23 217 -62 362 -109 403 -11 10 -62 34
-113 53 -419 156 -694 509 -805 1031 -30 140 -31 168 -6 157 9 -4 58 -9 107
-12 143 -6 257 29 413 127 74 46 156 65 223 50 24 -6 81 -30 126 -55 120 -65
210 -87 363 -86 188 0 315 36 464 130 92 57 221 78 321 51z"/>
</g>
</svg>
