<?xml version="1.0" standalone="no"?>
<!DOCTYPE svg PUBLIC "-//W3C//DTD SVG 20010904//EN"
 "http://www.w3.org/TR/2001/REC-SVG-20010904/DTD/svg10.dtd">
<svg version="1.0" xmlns="http://www.w3.org/2000/svg"
 width="1024.000000pt" height="1024.000000pt" viewBox="0 0 1024.000000 1024.000000"
 preserveAspectRatio="xMidYMid meet">
<metadata>
Created by potrace 1.16, written by Peter Selinger 2001-2019
</metadata>
<g transform="translate(0.000000,1024.000000) scale(0.100000,-0.100000)"
fill="#000000" stroke="none">
<path d="M5684 7540 c-102 -21 -152 -56 -257 -178 -90 -104 -144 -139 -299
-193 -195 -69 -275 -122 -347 -230 -64 -96 -85 -178 -79 -314 l5 -113 -181
-47 c-213 -56 -956 -261 -1341 -370 -647 -183 -924 -279 -1015 -353 l-25 -20
1 -224 c0 -248 15 -380 64 -576 49 -194 112 -303 207 -359 36 -21 43 -30 39
-47 -4 -12 -14 -46 -22 -76 -22 -75 -30 -302 -14 -382 18 -94 46 -161 96 -229
l45 -61 -21 -89 c-52 -224 -26 -640 49 -787 27 -51 77 -97 135 -123 108 -47
135 -48 1153 -42 686 5 1130 2 1585 -8 883 -20 1578 -18 1770 5 176 20 330 57
415 98 158 77 234 244 297 650 46 292 107 853 138 1258 17 227 17 896 0 1020
-19 136 -57 289 -92 372 -136 319 -498 585 -955 702 -156 40 -265 56 -466 68
l-185 12 -19 64 c-21 76 -76 192 -130 277 -76 119 -222 240 -337 279 -59 20
-161 27 -214 16z m171 -224 c203 -95 382 -452 344 -687 -19 -119 -78 -214
-164 -265 -68 -39 -221 -73 -364 -80 -272 -14 -555 52 -674 155 -18 16 -46 54
-63 83 -26 47 -29 62 -29 138 0 69 5 93 23 127 48 92 107 130 312 202 168 59
231 102 333 226 104 126 175 152 282 101z m847 -641 c400 -47 721 -186 934
-407 193 -199 241 -362 251 -853 8 -382 -17 -817 -78 -1355 -84 -745 -141
-989 -244 -1047 -22 -12 -79 -32 -127 -43 -98 -23 -298 -53 -306 -46 -8 9 53
694 114 1286 102 990 124 1330 106 1605 l-9 140 -69 64 c-161 149 -555 362
-842 456 -42 13 -52 21 -47 34 3 9 11 53 17 99 l11 82 81 0 c45 0 138 -7 208
-15z m-1760 -450 c163 -107 506 -172 783 -147 244 22 409 81 513 182 l50 50
159 -64 c87 -35 199 -82 248 -105 92 -43 241 -127 250 -141 10 -16 -517 -51
-1120 -75 -1039 -41 -1567 -70 -2542 -140 -511 -37 -529 -38 -521 -29 12 12
1355 387 1963 547 l90 24 37 -33 c21 -18 61 -49 90 -69z m2202 -466 c14 -74 2
-389 -29 -740 -8 -92 -15 -176 -15 -187 0 -25 -2 -25 -520 -47 -632 -26 -878
-35 -1325 -45 -574 -13 -2550 -25 -2648 -16 -91 9 -104 19 -148 112 -53 111
-109 416 -109 595 l0 88 42 5 c24 3 144 10 268 16 124 6 486 29 805 50 955 65
1412 90 2405 130 354 14 625 29 895 50 127 9 262 18 301 19 l72 1 6 -31z m-74
-1181 c0 -21 -30 -341 -46 -494 l-7 -61 -91 -7 c-193 -13 -695 -36 -1016 -46
-613 -18 -1808 -49 -2315 -60 -275 -6 -575 -13 -666 -17 l-166 -6 -45 42
c-109 100 -135 305 -65 510 l23 66 949 7 c1360 10 2195 28 2890 63 165 8 327
17 360 18 186 10 195 9 195 -15z m-79 -773 c3 -2 -1 -60 -8 -127 -7 -68 -24
-247 -38 -398 -14 -151 -28 -297 -31 -324 l-6 -49 -572 6 c-314 4 -735 11
-936 17 -214 7 -813 10 -1450 8 -1008 -3 -1088 -2 -1123 14 -51 23 -71 72 -92
223 -20 139 -16 381 7 455 l14 45 116 7 c64 4 455 14 870 22 414 9 888 21
1053 26 165 5 489 14 720 20 488 12 879 27 1155 44 224 15 315 18 321 11z"/>
<path d="M5390 6957 c-47 -16 -80 -68 -80 -124 0 -38 6 -51 34 -79 30 -30 40
-34 86 -34 46 0 56 4 86 34 30 30 34 40 34 89 0 49 -4 59 -31 86 -17 17 -36
31 -42 31 -7 0 -21 2 -32 5 -11 2 -36 -1 -55 -8z"/>
</g>
</svg>
