<?xml version="1.0" standalone="no"?>
<!DOCTYPE svg PUBLIC "-//W3C//DTD SVG 20010904//EN"
 "http://www.w3.org/TR/2001/REC-SVG-20010904/DTD/svg10.dtd">
<svg version="1.0" xmlns="http://www.w3.org/2000/svg"
 width="1024.000000pt" height="1024.000000pt" viewBox="0 0 1024.000000 1024.000000"
 preserveAspectRatio="xMidYMid meet">
<metadata>
Created by potrace 1.16, written by Peter Selinger 2001-2019
</metadata>
<g transform="translate(0.000000,1024.000000) scale(0.100000,-0.100000)"
fill="#000000" stroke="none">
<path d="M4870 6853 c-631 -47 -1186 -244 -1474 -522 -79 -77 -165 -193 -188
-257 -9 -24 -18 -34 -34 -34 -12 0 -66 -11 -120 -25 -122 -31 -305 -119 -429
-206 -110 -79 -258 -223 -314 -307 -50 -75 -109 -194 -117 -239 -8 -40 -14
-45 -94 -72 -175 -57 -371 -215 -437 -351 -80 -166 -66 -359 38 -521 156 -241
520 -473 988 -628 366 -122 794 -196 1091 -191 101 2 126 -1 200 -24 271 -85
759 -134 1225 -122 373 9 663 39 904 92 102 23 118 24 165 13 70 -18 279 -15
401 5 164 27 448 95 644 152 747 221 1194 501 1306 819 34 98 35 250 1 346
-58 166 -196 299 -421 405 -61 29 -96 52 -100 65 -16 49 -134 207 -231 308
-124 129 -200 193 -352 295 -198 132 -519 276 -615 276 -28 0 -35 6 -57 47
-62 116 -181 237 -324 328 -223 142 -599 270 -936 319 -213 31 -526 44 -720
29z m590 -179 c498 -58 947 -233 1148 -448 58 -63 122 -169 122 -203 0 -10
-18 -73 -40 -138 -176 -521 -358 -1188 -445 -1630 -38 -193 -85 -498 -85 -555
0 -70 -6 -78 -79 -94 -397 -89 -1107 -116 -1589 -61 -143 17 -399 64 -466 87
-33 11 -40 18 -43 43 -9 82 -59 333 -104 528 -104 450 -264 983 -447 1485
l-100 274 36 71 c48 93 176 224 295 302 425 276 1158 414 1797 339z m1528
-730 c87 -30 278 -123 379 -185 222 -136 436 -335 559 -521 45 -68 46 -71 40
-128 -22 -196 -108 -512 -237 -880 -44 -124 -90 -253 -102 -288 l-22 -63 -170
-55 c-220 -72 -550 -155 -744 -188 -142 -24 -327 -35 -363 -21 -12 5 -13 20
-6 78 60 530 204 1132 479 2002 81 256 88 275 101 275 5 0 44 -12 86 -26z
m-3733 -251 c192 -530 325 -961 435 -1403 62 -250 132 -599 125 -619 -4 -11
-26 -12 -123 -7 -293 17 -554 62 -826 141 l-55 16 -21 92 c-85 367 -207 726
-381 1118 l-71 159 27 68 c100 253 402 503 720 597 44 13 85 24 91 24 6 1 41
-83 79 -186z m-939 -863 c51 -119 122 -303 158 -410 63 -188 160 -529 153
-537 -5 -4 -180 73 -286 127 -177 89 -390 253 -479 370 -33 43 -72 127 -83
181 -25 118 34 252 155 350 74 60 231 141 266 137 22 -3 34 -26 116 -218z
m5886 177 c281 -159 363 -384 220 -607 -53 -82 -155 -179 -268 -253 -103 -68
-318 -181 -333 -175 -5 2 27 104 71 228 95 268 176 549 209 718 13 67 28 122
34 122 5 0 36 -15 67 -33z"/>
<path d="M4021 6377 c-80 -41 -86 -163 -9 -203 60 -31 134 -9 162 50 20 42 20
59 0 101 -26 54 -100 80 -153 52z"/>
<path d="M4085 5926 c-42 -18 -65 -57 -65 -108 0 -50 19 -82 60 -103 60 -31
126 -10 155 51 47 99 -52 205 -150 160z"/>
<path d="M4108 5404 c-56 -30 -73 -104 -38 -161 24 -40 53 -55 101 -55 70 1
109 46 109 123 0 58 -51 109 -106 109 -22 -1 -51 -7 -66 -16z"/>
<path d="M7404 5131 c-57 -25 -84 -118 -48 -169 20 -29 66 -52 103 -52 38 0
86 41 101 84 13 39 -3 88 -38 119 -24 22 -87 31 -118 18z"/>
<path d="M7313 4813 c-12 -2 -33 -16 -47 -30 -21 -21 -26 -35 -26 -75 0 -41 5
-54 29 -79 43 -43 101 -41 147 5 58 58 42 141 -32 172 -18 8 -37 13 -41 13 -4
-1 -18 -4 -30 -6z"/>
<path d="M2701 5524 c-31 -22 -53 -77 -45 -112 8 -35 49 -79 81 -87 35 -8 89
12 113 42 13 17 20 41 20 70 0 63 -40 103 -102 103 -24 0 -54 -7 -67 -16z"/>
<path d="M2804 4976 c-29 -29 -34 -41 -34 -81 0 -40 5 -52 34 -81 87 -87 218
-3 186 118 -14 51 -51 78 -107 78 -38 0 -50 -5 -79 -34z"/>
</g>
</svg>
