<?xml version="1.0" standalone="no"?>
<!DOCTYPE svg PUBLIC "-//W3C//DTD SVG 20010904//EN"
 "http://www.w3.org/TR/2001/REC-SVG-20010904/DTD/svg10.dtd">
<svg version="1.0" xmlns="http://www.w3.org/2000/svg"
 width="1024.000000pt" height="1024.000000pt" viewBox="0 0 1024.000000 1024.000000"
 preserveAspectRatio="xMidYMid meet">
<metadata>
Created by potrace 1.16, written by Peter Selinger 2001-2019
</metadata>
<g transform="translate(0.000000,1024.000000) scale(0.100000,-0.100000)"
fill="#000000" stroke="none">
<path d="M4610 6704 c-14 -2 -65 -11 -114 -20 -399 -70 -728 -317 -830 -625
-14 -42 -28 -101 -32 -131 l-6 -55 -87 -26 c-289 -87 -504 -236 -590 -412 -31
-63 -60 -173 -61 -227 0 -30 2 -29 -115 -48 -87 -14 -206 -53 -264 -87 -181
-106 -301 -342 -301 -593 0 -119 14 -182 63 -273 58 -111 192 -203 352 -244
90 -23 465 -25 627 -4 l107 14 72 -67 c79 -73 208 -144 314 -172 142 -37 359
-28 515 22 l74 23 34 -27 c140 -111 262 -164 417 -180 242 -26 480 57 662 231
61 58 61 58 100 47 21 -6 85 -13 143 -16 218 -12 465 58 617 173 l34 26 232 2
c186 2 255 6 347 23 199 36 309 78 405 154 139 110 199 237 199 423 -1 85 -5
113 -30 185 -90 258 -298 415 -596 451 -51 6 -117 14 -147 18 l-54 6 -13 60
c-64 317 -342 539 -776 620 -22 4 -29 13 -39 48 -32 120 -133 283 -233 374
-141 129 -339 229 -552 279 -89 21 -141 26 -279 29 -93 2 -181 2 -195 -1z
m366 -219 c210 -34 390 -121 525 -255 101 -100 142 -168 171 -282 19 -76 20
-100 15 -298 -15 -500 -99 -1107 -191 -1377 -45 -132 -94 -211 -191 -310 -98
-100 -161 -137 -285 -169 -92 -24 -236 -22 -321 5 -187 59 -291 189 -412 516
-70 188 -207 619 -307 970 -147 515 -158 575 -120 697 75 244 361 450 698 502
118 19 307 19 418 1z m1079 -757 c304 -100 462 -317 440 -608 -16 -218 -70
-509 -122 -655 -60 -168 -142 -270 -268 -337 -108 -56 -200 -79 -347 -85 -71
-3 -128 -3 -128 -1 0 3 14 36 31 73 109 240 216 901 235 1452 3 98 7 184 10
191 4 15 23 11 149 -30z m-2386 -105 c72 -279 100 -381 156 -568 150 -500 258
-815 341 -994 25 -52 41 -98 37 -102 -17 -17 -159 -39 -252 -39 -161 0 -274
41 -382 138 -123 112 -249 349 -365 687 -99 288 -124 453 -86 553 37 97 127
190 243 252 68 36 255 109 281 110 12 0 20 -12 27 -37z m3188 -553 c93 -13
193 -43 248 -75 132 -77 227 -257 212 -401 -11 -108 -81 -210 -177 -259 -71
-36 -175 -63 -303 -80 -106 -13 -327 -21 -327 -11 0 2 13 35 29 72 78 185 133
425 156 687 l7 77 38 0 c21 0 74 -5 117 -10z m-3931 -127 c28 -127 70 -257
131 -413 25 -63 72 -170 103 -237 50 -105 56 -123 41 -128 -9 -3 -79 -9 -156
-14 -142 -10 -295 -2 -390 19 -96 22 -176 86 -217 175 -39 88 -24 265 34 379
71 141 156 199 338 231 108 19 109 19 116 -12z"/>
</g>
</svg>
