<?xml version="1.0" standalone="no"?>
<!DOCTYPE svg PUBLIC "-//W3C//DTD SVG 20010904//EN"
 "http://www.w3.org/TR/2001/REC-SVG-20010904/DTD/svg10.dtd">
<svg version="1.0" xmlns="http://www.w3.org/2000/svg"
 width="1024.000000pt" height="1024.000000pt" viewBox="0 0 1024.000000 1024.000000"
 preserveAspectRatio="xMidYMid meet">
<metadata>
Created by potrace 1.16, written by Peter Selinger 2001-2019
</metadata>
<g transform="translate(0.000000,1024.000000) scale(0.100000,-0.100000)"
fill="#000000" stroke="none">
<path d="M4040 7249 c-170 -16 -372 -61 -504 -111 l-78 -30 -77 23 c-107 33
-260 33 -346 -1 -75 -29 -120 -58 -164 -104 -19 -19 -38 -33 -43 -30 -15 10
-223 -16 -304 -37 -127 -33 -219 -83 -295 -158 -77 -78 -109 -147 -109 -240 0
-203 162 -337 469 -388 53 -8 97 -17 99 -18 2 -2 -13 -25 -34 -52 -83 -107
-165 -320 -201 -518 -22 -119 -21 -374 1 -515 80 -511 342 -952 718 -1206 172
-115 362 -195 616 -259 96 -24 175 -45 176 -47 2 -2 18 -30 36 -63 134 -241
334 -423 625 -569 386 -192 808 -286 1161 -258 303 24 548 86 1064 266 234 82
368 202 470 418 61 131 100 314 100 473 l0 60 45 28 c88 56 184 205 220 342
106 408 -56 964 -423 1455 -101 135 -353 392 -497 506 -282 225 -591 417 -980
609 -652 321 -1264 470 -1745 424z m536 -208 c444 -75 967 -277 1469 -566 653
-376 1058 -767 1295 -1250 118 -238 176 -444 187 -655 14 -284 -84 -493 -264
-560 -89 -33 -242 -53 -361 -46 -334 19 -631 150 -852 376 -126 128 -253 316
-396 586 -93 177 -132 241 -151 248 -10 4 -56 14 -103 22 -309 54 -545 210
-685 454 -65 113 -57 108 -204 102 -118 -4 -136 -3 -222 22 -176 51 -310 156
-388 305 -23 45 -50 85 -61 91 -12 6 -62 8 -132 4 -230 -13 -442 35 -608 137
l-52 32 -197 2 c-139 1 -216 6 -266 18 -156 36 -252 92 -275 163 -10 30 -9 43
5 80 46 122 271 209 524 202 101 -3 104 -2 120 22 52 80 150 146 203 138 17
-2 9 -11 -36 -42 -32 -22 -98 -78 -147 -125 -74 -71 -91 -93 -96 -123 -5 -32
-1 -41 25 -68 23 -22 40 -30 67 -30 32 0 48 10 118 76 244 226 552 357 957
408 87 11 409 -3 526 -23z m-1590 -880 c18 -18 177 -93 247 -117 111 -38 231
-57 367 -58 l126 -1 55 -80 c98 -143 280 -266 464 -315 44 -11 130 -23 190
-27 l110 -6 40 -65 c85 -138 273 -296 447 -377 92 -42 210 -81 274 -91 84 -12
88 -15 153 -141 92 -174 233 -408 307 -507 258 -342 640 -556 1068 -595 119
-12 309 -1 363 20 34 13 38 -5 24 -114 -32 -250 -162 -459 -333 -536 -89 -40
-521 -184 -658 -220 -236 -60 -356 -76 -580 -75 -185 0 -218 3 -335 27 -156
33 -359 100 -512 168 -196 86 -318 165 -441 283 -99 95 -158 174 -207 278 -20
42 -44 83 -53 91 -9 9 -87 34 -172 57 -331 88 -505 157 -655 260 -246 169
-443 442 -555 766 -177 515 -110 1010 180 1327 52 57 67 65 86 48z"/>
<path d="M4440 6835 c-169 -36 -308 -90 -436 -173 -130 -85 -154 -123 -119
-191 27 -53 87 -56 154 -7 144 105 305 170 491 196 91 13 120 35 120 91 0 51
-8 67 -41 84 -34 18 -82 18 -169 0z"/>
<path d="M5349 6460 c-176 -17 -380 -74 -485 -135 -76 -44 -93 -121 -37 -165
34 -27 76 -25 126 4 131 77 371 122 597 112 155 -6 164 -4 189 43 18 32 6 86
-24 109 -39 31 -216 46 -366 32z"/>
<path d="M6194 5566 c-173 -29 -238 -60 -250 -120 -8 -43 18 -94 51 -102 28
-7 34 -6 180 26 86 19 122 21 255 17 95 -3 184 -11 230 -21 89 -21 121 -13
146 35 24 47 6 101 -41 123 -95 45 -410 68 -571 42z"/>
<path d="M3075 5663 c-47 -12 -86 -73 -110 -175 -18 -76 -19 -134 -4 -194 22
-87 111 -123 165 -68 22 21 25 31 19 62 -20 115 -18 151 15 218 24 49 30 72
25 95 -10 42 -63 73 -110 62z"/>
<path d="M3634 5223 c-12 -2 -32 -15 -45 -29 -20 -22 -24 -37 -27 -124 -3 -55
-1 -116 3 -136 15 -83 99 -112 156 -55 l29 29 0 131 c0 121 -2 132 -22 154
-24 26 -58 37 -94 30z"/>
<path d="M5088 4952 c-60 -60 -68 -73 -68 -106 0 -52 44 -96 95 -96 29 0 43 7
64 31 14 17 43 50 64 73 49 57 51 102 6 140 -52 44 -82 36 -161 -42z"/>
<path d="M4224 4868 c-69 -66 -111 -139 -134 -234 -11 -44 -11 -55 4 -86 27
-56 92 -75 135 -40 13 10 28 42 37 77 21 80 54 135 111 184 40 33 47 45 47 75
0 53 -35 86 -92 86 -40 0 -49 -5 -108 -62z"/>
<path d="M3773 4433 c-13 -3 -32 -16 -43 -30 -18 -23 -20 -40 -20 -160 l0
-135 29 -29 c31 -31 67 -37 104 -17 43 22 46 37 47 184 0 133 -1 142 -22 161
-25 22 -61 32 -95 26z"/>
<path d="M5375 4432 c-34 -7 -65 -43 -65 -76 0 -17 10 -56 21 -86 18 -45 22
-76 21 -168 0 -99 2 -116 19 -133 42 -42 117 -31 143 20 21 42 28 126 16 213
-23 167 -76 246 -155 230z"/>
<path d="M6470 3571 l-32 -31 4 -131 c3 -123 4 -132 27 -150 34 -28 96 -25
126 6 24 23 25 29 25 158 0 152 -5 164 -79 174 -35 5 -44 2 -71 -26z"/>
<path d="M5200 3480 c-28 -28 -32 -54 -28 -195 3 -125 3 -127 31 -151 32 -28
66 -30 107 -9 42 21 52 68 48 207 -3 107 -5 119 -27 142 -31 33 -100 37 -131
6z"/>
</g>
</svg>
