<?xml version="1.0" standalone="no"?>
<!DOCTYPE svg PUBLIC "-//W3C//DTD SVG 20010904//EN"
 "http://www.w3.org/TR/2001/REC-SVG-20010904/DTD/svg10.dtd">
<svg version="1.0" xmlns="http://www.w3.org/2000/svg"
 width="2048.000000pt" height="2048.000000pt" viewBox="0 0 2048.000000 2048.000000"
 preserveAspectRatio="xMidYMid meet">
<metadata>
Created by potrace 1.16, written by Peter Selinger 2001-2019
</metadata>
<g transform="translate(0.000000,2048.000000) scale(0.100000,-0.100000)"
fill="#000000" stroke="none">
<path d="M8865 15680 c-104 -13 -252 -55 -355 -99 -180 -78 -274 -149 -405
-306 -99 -120 -179 -185 -249 -205 -69 -19 -174 -8 -310 34 -158 48 -238 60
-371 53 -267 -13 -444 -123 -613 -381 -96 -147 -117 -169 -190 -203 -46 -22
-64 -24 -130 -20 -42 2 -133 17 -202 32 -280 62 -513 22 -696 -120 -83 -65
-141 -138 -218 -276 -74 -131 -126 -190 -184 -211 -53 -18 -150 -14 -277 11
-314 62 -523 22 -720 -136 -84 -68 -145 -149 -215 -282 -67 -129 -104 -175
-164 -202 -53 -24 -68 -24 -249 7 -318 55 -524 5 -715 -171 -75 -70 -115 -127
-206 -297 -60 -113 -94 -160 -130 -181 -15 -8 -92 -12 -266 -12 -239 0 -247
-1 -333 -28 -287 -89 -461 -259 -537 -522 -42 -143 -35 -311 17 -480 86 -273
261 -452 533 -545 36 -13 73 -27 82 -32 23 -12 23 -47 -2 -128 -41 -133 -54
-205 -54 -305 0 -169 55 -298 176 -418 60 -59 87 -76 223 -142 131 -64 156
-79 161 -101 7 -27 3 -56 -35 -234 -52 -241 -8 -445 126 -590 71 -77 144 -124
278 -180 186 -77 202 -109 164 -313 -34 -188 -33 -362 4 -466 34 -94 71 -151
144 -223 74 -73 148 -116 286 -169 188 -73 213 -119 175 -324 -28 -155 -30
-350 -4 -445 28 -103 83 -197 157 -270 71 -71 147 -116 298 -175 122 -48 156
-69 182 -112 21 -34 22 -46 20 -217 -2 -207 16 -333 70 -496 227 -682 796
-972 1454 -739 225 79 365 183 508 381 63 85 92 112 144 129 50 16 102 6 244
-46 166 -62 225 -75 350 -75 273 0 458 109 637 377 157 235 214 252 477 148
169 -67 227 -78 370 -72 201 8 318 60 461 202 65 65 110 122 161 205 79 127
110 161 165 184 61 26 133 20 284 -24 217 -63 351 -64 526 -4 107 36 176 80
263 168 71 71 89 98 155 226 42 81 90 160 110 180 62 62 137 72 361 50 99 -10
155 -11 210 -3 l74 10 54 -44 c121 -98 267 -147 446 -147 103 0 139 5 248 32
70 18 156 35 190 39 113 10 243 -40 315 -122 16 -18 57 -74 92 -124 145 -211
351 -334 587 -349 101 -6 168 6 348 65 133 43 145 45 230 41 144 -7 208 -47
330 -207 120 -158 214 -237 351 -294 191 -81 379 -84 569 -11 228 88 226 88
315 88 126 0 184 -30 337 -175 139 -132 198 -170 331 -215 135 -44 227 -59
372 -57 315 2 554 144 699 413 91 171 118 355 86 608 -20 163 -12 258 29 347
34 74 66 106 179 181 127 84 220 177 269 269 105 201 117 391 42 640 -44 146
-53 230 -30 307 27 94 69 144 196 235 260 187 353 348 353 613 0 98 -5 133
-33 240 -44 166 -46 260 -7 345 41 89 68 118 192 210 68 50 133 108 160 142
139 175 180 413 110 643 -58 195 -68 242 -62 313 9 102 51 184 133 261 210
194 258 248 306 346 57 116 78 202 78 323 0 108 -16 175 -64 272 -103 206
-336 367 -589 407 -59 9 -103 9 -204 -2 -297 -30 -407 11 -541 204 -163 236
-351 352 -588 363 -91 5 -130 2 -225 -18 -68 -14 -149 -23 -200 -23 -77 0 -93
3 -152 32 -71 35 -107 71 -230 232 -111 146 -236 233 -397 277 -104 29 -275
24 -425 -12 -163 -38 -235 -38 -318 3 -67 33 -106 70 -213 203 -100 124 -208
200 -349 246 -117 39 -279 38 -460 -1 -223 -48 -322 -16 -449 147 -105 134
-218 217 -361 264 -112 37 -292 39 -444 4 -168 -38 -210 -26 -361 104 -140
121 -283 175 -462 176 -180 0 -313 -54 -438 -180 -158 -160 -209 -340 -180
-636 20 -208 -14 -314 -128 -398 -31 -23 -92 -77 -134 -119 -86 -86 -134 -173
-164 -293 -9 -38 -18 -71 -19 -73 -1 -1 -27 22 -58 51 -40 40 -93 74 -198 128
-90 47 -150 84 -163 102 -20 27 -21 42 -21 285 -1 236 -2 262 -21 312 -45 117
-85 183 -158 254 -72 71 -121 100 -307 184 -125 56 -138 85 -144 310 -7 314
-62 463 -235 634 -124 122 -269 181 -475 192 -49 2 -121 1 -160 -4z m246 -356
c74 -21 151 -76 193 -137 61 -89 68 -121 77 -342 8 -221 19 -278 74 -391 61
-126 150 -194 351 -268 87 -32 146 -81 181 -150 23 -44 27 -63 27 -146 0 -52
-3 -151 -8 -220 -7 -103 -5 -137 8 -195 45 -190 137 -287 356 -374 87 -34 141
-80 178 -149 45 -85 50 -159 23 -322 -11 -69 -21 -142 -21 -162 0 -29 -9 -47
-44 -88 -137 -160 -174 -351 -120 -607 13 -63 -11 -32 -85 108 -41 77 -138
248 -217 379 -482 807 -932 1355 -1299 1580 -358 220 -828 296 -1350 220 -657
-97 -1270 -304 -2035 -686 -766 -383 -1417 -819 -1799 -1204 -279 -282 -438
-571 -508 -925 -22 -112 -25 -504 -4 -630 77 -477 235 -920 552 -1555 486
-973 973 -1678 1406 -2037 400 -332 976 -487 1648 -444 829 53 1704 371 2806
1018 l136 80 69 -35 c202 -102 390 -130 617 -93 162 27 279 27 351 2 58 -20
146 -76 146 -92 0 -6 -28 -7 -77 -2 -257 26 -420 -23 -569 -171 -71 -72 -87
-95 -142 -207 -77 -160 -120 -215 -203 -259 -61 -33 -69 -35 -159 -35 -78 1
-114 7 -197 32 -187 58 -321 64 -463 21 -152 -46 -260 -141 -375 -329 -125
-204 -192 -254 -340 -253 -65 0 -93 5 -145 28 -186 79 -260 100 -376 104 -257
9 -414 -83 -588 -347 -46 -70 -98 -140 -117 -155 -105 -89 -235 -104 -394 -47
-168 61 -249 82 -340 88 -213 13 -381 -78 -535 -293 -33 -45 -83 -103 -111
-128 -64 -58 -209 -130 -314 -156 -432 -110 -778 109 -928 586 -43 135 -51
219 -36 371 16 171 6 255 -45 358 -63 128 -181 220 -356 280 -90 31 -125 50
-177 98 -104 96 -119 190 -68 450 30 154 17 286 -39 402 -61 127 -153 206
-299 260 -180 66 -232 102 -273 190 -31 66 -31 141 1 289 29 136 33 257 9 337
-57 190 -160 289 -392 374 -199 74 -244 186 -173 430 45 153 52 270 22 362
-43 134 -122 205 -314 282 -133 54 -187 98 -217 179 -28 73 -23 140 20 282 59
194 51 329 -25 432 -56 76 -115 113 -257 158 -143 47 -203 82 -258 152 -85
106 -124 229 -118 367 3 86 7 103 38 159 39 74 99 130 182 171 84 42 155 54
273 47 55 -3 145 -8 200 -12 180 -11 305 36 421 158 53 57 78 97 142 224 88
178 131 230 225 275 55 26 72 29 157 29 58 0 128 -8 180 -20 127 -30 241 -35
330 -16 195 41 321 154 436 390 77 156 155 229 284 262 77 19 132 15 292 -21
220 -51 348 -42 504 35 105 51 207 156 278 286 99 180 148 234 261 286 75 34
184 31 345 -11 234 -62 391 -53 551 30 108 56 180 129 282 286 47 73 104 150
127 172 53 51 134 82 231 89 77 4 82 4 324 -63 229 -63 380 -53 560 37 103 51
180 123 309 286 99 126 221 201 397 247 113 29 248 33 330 9z m2901 -737 c29
-15 89 -59 133 -99 155 -141 245 -181 410 -181 75 -1 128 6 212 26 132 32 171
33 251 9 83 -26 141 -70 221 -165 132 -158 233 -228 389 -268 114 -29 219 -26
395 13 139 30 153 31 218 20 117 -20 189 -68 287 -192 230 -291 461 -373 816
-289 282 66 399 22 553 -207 110 -163 246 -263 423 -310 85 -23 261 -23 352
-1 129 32 196 38 261 27 124 -23 207 -85 295 -220 185 -283 452 -396 817 -346
144 20 196 13 302 -40 87 -42 162 -114 200 -193 24 -47 28 -68 27 -131 -1
-129 -55 -229 -177 -328 -183 -150 -272 -279 -318 -463 -32 -126 -23 -283 25
-439 49 -155 55 -236 27 -326 -29 -93 -73 -150 -172 -219 -173 -120 -270 -252
-316 -425 -30 -112 -22 -258 21 -422 41 -158 44 -219 16 -312 -26 -83 -100
-166 -203 -226 -42 -25 -106 -77 -152 -124 -131 -132 -187 -273 -186 -472 0
-100 20 -213 54 -309 30 -85 41 -179 28 -247 -26 -133 -86 -210 -242 -314
-102 -67 -188 -152 -232 -227 -15 -25 -41 -87 -58 -139 -29 -82 -33 -109 -37
-233 -3 -98 1 -172 12 -248 20 -134 20 -177 1 -252 -38 -148 -139 -280 -257
-335 -156 -72 -395 -54 -561 43 -25 15 -90 69 -144 120 -112 106 -169 147
-256 187 -203 91 -388 86 -650 -16 -168 -66 -234 -76 -332 -50 -120 32 -183
82 -297 233 -141 189 -296 284 -511 314 -117 16 -225 1 -408 -57 -130 -41
-151 -45 -219 -42 -139 8 -221 62 -343 227 -38 52 -88 114 -111 139 -93 101
-254 189 -390 213 -94 16 -247 6 -376 -26 -226 -54 -298 -53 -413 8 -70 37
-111 82 -182 202 -108 184 -198 276 -340 346 -167 82 -336 99 -589 58 -161
-26 -240 -22 -363 20 -327 109 -494 361 -413 623 25 80 56 124 168 235 49 49
104 115 124 148 78 130 103 291 73 475 -29 182 -30 249 -6 330 24 79 47 105
227 266 124 111 176 216 197 390 9 80 8 108 -13 232 -46 287 -17 376 176 520
145 108 223 215 253 348 18 75 16 225 -4 343 -39 235 1 344 173 464 148 103
241 233 271 375 16 77 14 247 -5 343 -20 106 -15 227 14 292 30 67 71 113 169
191 95 74 148 135 188 215 51 101 59 144 56 306 -7 353 -6 387 16 436 38 83
115 154 194 178 59 18 171 7 231 -22z m-3835 -821 c110 -23 279 -82 366 -129
232 -123 481 -366 762 -742 331 -443 686 -1023 869 -1423 l53 -114 -97 -96
c-111 -111 -157 -190 -186 -319 -20 -90 -15 -232 11 -358 12 -52 16 -106 13
-160 -7 -130 -46 -185 -229 -331 -79 -62 -150 -164 -186 -264 -38 -109 -42
-250 -13 -434 37 -230 18 -295 -129 -449 -139 -147 -193 -242 -226 -399 -29
-137 -13 -332 38 -453 18 -44 73 -134 124 -204 17 -23 16 -24 -7 -43 -88 -71
-562 -328 -859 -465 -570 -263 -1030 -409 -1516 -483 -178 -28 -585 -38 -761
-21 -355 36 -641 133 -868 296 -378 270 -824 871 -1288 1740 -243 453 -423
863 -546 1245 -259 802 -162 1345 329 1827 561 550 1796 1254 2742 1562 387
126 682 193 1027 235 83 10 507 -3 577 -18z"/>
<path d="M12277 13165 c-51 -19 -209 -113 -282 -168 -77 -58 -239 -225 -290
-300 -38 -56 -39 -60 -24 -85 10 -19 24 -28 45 -30 28 -3 38 5 100 80 139 168
261 269 446 369 96 51 115 71 103 107 -4 15 -47 45 -58 41 -1 0 -19 -7 -40
-14z"/>
<path d="M13075 13079 c-397 -40 -712 -178 -989 -432 -331 -303 -717 -983
-1009 -1777 -261 -711 -339 -1231 -247 -1655 84 -390 308 -695 749 -1015 560
-407 1527 -802 2331 -954 334 -63 635 -92 860 -82 675 27 1138 280 1512 826
366 534 729 1481 847 2210 49 301 53 615 11 812 -46 217 -136 429 -252 593
-116 166 -376 410 -603 567 -422 292 -1073 572 -1697 728 -357 90 -629 139
-933 169 -150 15 -478 21 -580 10z m550 -280 c910 -91 1916 -438 2529 -872
486 -344 699 -669 735 -1122 30 -376 -75 -922 -291 -1525 -232 -645 -510
-1148 -781 -1411 -215 -209 -461 -339 -756 -401 -143 -29 -492 -36 -711 -13
-599 61 -1306 273 -1936 579 -1022 497 -1403 967 -1345 1662 18 214 50 378
127 654 171 619 522 1375 839 1809 304 418 617 607 1071 650 110 11 364 6 519
-10z"/>
<path d="M12924 11609 c-65 -19 -127 -72 -162 -140 -31 -59 -34 -70 -30 -139
4 -86 23 -132 75 -183 51 -51 97 -71 181 -75 118 -7 213 44 265 142 33 62 31
193 -3 260 -58 114 -199 172 -326 135z"/>
<path d="M13770 11042 c-35 -35 -50 -87 -50 -172 0 -413 501 -616 791 -320 66
67 109 148 109 203 0 31 -7 46 -34 73 -29 29 -41 34 -83 34 -60 0 -83 -15
-121 -83 -38 -68 -79 -102 -145 -122 -61 -18 -104 -12 -169 23 -85 45 -123
124 -113 233 5 51 3 74 -9 98 -34 64 -127 82 -176 33z"/>
<path d="M15330 10831 c-161 -49 -242 -240 -166 -394 104 -213 420 -201 512
20 10 23 16 65 16 107 -2 161 -121 278 -281 275 -31 0 -67 -4 -81 -8z"/>
<path d="M11586 10258 c-19 -30 -63 -228 -76 -343 -35 -314 35 -635 190 -860
94 -135 256 -295 301 -295 25 0 59 35 59 60 0 13 -34 55 -89 108 -147 145
-224 264 -285 441 -82 236 -83 500 -4 789 18 68 18 75 4 98 -22 33 -79 34
-100 2z"/>
<path d="M15785 8698 c-9 -13 -34 -52 -56 -87 -167 -264 -434 -457 -744 -535
-102 -26 -125 -41 -125 -81 0 -41 33 -59 94 -51 141 16 399 130 546 240 180
135 390 393 390 479 0 53 -75 77 -105 35z"/>
<path d="M10816 11018 c-58 -51 -188 -442 -231 -692 -22 -128 -20 -152 11
-173 24 -15 29 -15 53 -2 30 17 32 22 65 199 33 179 76 326 142 487 30 73 54
140 54 148 0 19 -35 55 -54 55 -8 0 -26 -10 -40 -22z"/>
<path d="M17384 10605 c-19 -12 -22 -28 -28 -139 -8 -144 -27 -282 -56 -403
-15 -63 -17 -89 -9 -104 24 -46 89 -40 108 10 36 93 70 297 78 467 l6 140 -28
22 c-33 26 -43 27 -71 7z"/>
<path d="M16338 7729 c-10 -5 -43 -43 -74 -84 -74 -99 -166 -182 -294 -266
-156 -102 -150 -97 -150 -129 0 -21 8 -35 26 -47 26 -17 28 -16 108 26 111 57
204 128 306 230 142 143 183 218 141 260 -23 23 -37 25 -63 10z"/>
<path d="M7410 13363 c-85 -9 -245 -36 -290 -49 -27 -8 -54 -23 -60 -34 -18
-33 -12 -68 16 -86 24 -16 31 -16 122 4 158 35 257 45 402 39 234 -9 398 -51
615 -157 220 -106 392 -242 536 -424 126 -158 124 -156 158 -156 31 0 61 29
61 61 0 20 -90 148 -164 233 -198 230 -553 446 -861 525 -158 40 -389 59 -535
44z"/>
<path d="M7810 11911 c-141 -30 -228 -152 -218 -305 5 -80 24 -124 77 -179 60
-64 103 -82 201 -82 94 0 146 19 207 77 69 67 100 202 68 299 -23 69 -110 159
-171 177 -58 17 -123 22 -164 13z"/>
<path d="M4121 11554 c-32 -23 -124 -218 -155 -329 -55 -196 -75 -400 -56
-590 13 -137 51 -320 77 -374 15 -30 24 -36 55 -39 31 -3 40 1 54 23 15 23 16
33 5 68 -6 23 -24 96 -38 162 -23 105 -26 144 -27 305 -1 261 34 420 135 622
27 54 49 104 49 113 0 21 -36 55 -58 55 -10 0 -28 -7 -41 -16z"/>
<path d="M6932 11216 c-35 -33 -37 -38 -36 -93 1 -32 5 -84 9 -116 22 -168
-130 -292 -298 -243 -65 19 -120 62 -147 117 -26 50 -55 69 -107 69 -59 0
-112 -47 -120 -106 -15 -113 146 -273 322 -319 213 -55 452 57 545 257 75 160
58 393 -32 448 -50 30 -92 26 -136 -14z"/>
<path d="M4357 11229 c-41 -24 -97 -182 -100 -286 -2 -47 1 -58 22 -74 29 -24
43 -24 70 -1 16 12 25 36 33 87 5 38 23 105 39 147 21 58 26 84 20 102 -14 34
-49 45 -84 25z"/>
<path d="M5243 10811 c-133 -34 -225 -171 -209 -310 33 -288 413 -356 535 -97
88 188 -32 395 -238 411 -31 2 -70 0 -88 -4z"/>
<path d="M5470 8090 c-28 -28 -25 -58 14 -115 100 -148 274 -293 461 -385 161
-79 357 -140 449 -140 32 0 56 25 56 59 0 41 -24 55 -132 79 -267 58 -521 207
-672 391 -114 140 -134 153 -176 111z"/>
<path d="M6012 8054 c-36 -25 -29 -70 16 -111 43 -39 157 -99 208 -109 50 -9
86 17 82 59 -3 34 -6 36 -118 85 -25 10 -65 36 -88 56 -48 40 -67 44 -100 20z"/>
</g>
</svg>
