<?xml version="1.0" standalone="no"?>
<!DOCTYPE svg PUBLIC "-//W3C//DTD SVG 20010904//EN"
 "http://www.w3.org/TR/2001/REC-SVG-20010904/DTD/svg10.dtd">
<svg version="1.0" xmlns="http://www.w3.org/2000/svg"
 width="1024.000000pt" height="1024.000000pt" viewBox="0 0 1024.000000 1024.000000"
 preserveAspectRatio="xMidYMid meet">
<metadata>
Created by potrace 1.16, written by Peter Selinger 2001-2019
</metadata>
<g transform="translate(0.000000,1024.000000) scale(0.100000,-0.100000)"
fill="#000000" stroke="none">
<path d="M4944 7199 c-684 -35 -1324 -240 -1784 -569 -442 -316 -723 -771
-822 -1330 -17 -100 -18 -655 0 -800 38 -314 94 -524 187 -710 268 -534 848
-890 1700 -1044 352 -64 847 -95 1216 -77 672 34 1144 139 1569 350 505 251
807 607 931 1097 76 304 99 780 54 1165 -61 520 -217 859 -539 1166 -346 331
-835 563 -1441 682 -351 69 -679 91 -1071 70z m511 -199 c589 -42 1095 -184
1486 -416 389 -231 647 -530 764 -887 69 -211 93 -424 60 -534 -9 -29 -32 -69
-55 -96 -55 -62 -117 -85 -257 -92 -136 -8 -182 -18 -257 -58 -160 -85 -222
-202 -286 -541 -25 -131 -58 -205 -120 -267 -64 -64 -141 -93 -235 -86 -97 6
-162 34 -309 132 -189 126 -327 163 -490 131 -137 -27 -226 -78 -401 -230
-218 -189 -366 -228 -539 -142 -74 36 -109 69 -246 227 -162 187 -304 263
-495 262 -118 0 -188 -20 -365 -104 -207 -98 -291 -116 -394 -85 -70 21 -121
59 -153 113 -27 47 -28 52 -28 193 -1 130 -3 150 -24 197 -30 67 -102 135
-167 156 -58 20 -107 22 -234 13 -85 -7 -98 -5 -126 12 -48 30 -64 76 -64 179
0 163 47 380 126 583 182 466 547 828 1065 1056 496 218 1159 326 1744 284z
m2361 -2271 c-21 -554 -136 -892 -400 -1176 -329 -354 -914 -587 -1664 -663
-363 -36 -800 -32 -1187 10 -503 56 -925 178 -1247 362 -148 84 -257 169 -374
290 -186 194 -294 393 -353 653 -30 131 -52 275 -59 398 -7 105 -7 108 13 102
74 -25 118 -29 185 -17 94 16 141 15 168 -4 41 -28 46 -52 47 -204 1 -186 17
-233 115 -331 107 -108 212 -145 379 -136 115 6 180 26 345 108 159 79 208 92
310 87 63 -4 93 -11 136 -32 85 -43 112 -68 229 -205 121 -141 186 -197 282
-239 98 -45 158 -55 273 -49 167 8 270 59 475 231 186 156 246 186 370 186 92
0 160 -26 277 -106 178 -122 289 -164 429 -165 157 -1 254 38 360 143 109 110
149 199 190 430 29 159 53 226 101 285 53 65 107 85 249 95 144 9 238 35 297
82 24 19 47 35 52 35 5 1 6 -69 2 -170z"/>
<path d="M5565 6916 c-108 -35 -193 -110 -213 -186 -37 -146 104 -228 289
-170 120 38 199 123 199 212 0 96 -60 151 -169 155 -36 2 -84 -3 -106 -11z
m136 -116 c29 -16 23 -45 -18 -80 -63 -51 -169 -75 -209 -46 -18 14 -17 16 28
60 63 60 153 90 199 66z"/>
<path d="M4222 6794 c-142 -71 -221 -278 -147 -390 32 -50 116 -60 190 -24 50
24 126 104 157 164 14 26 23 67 25 111 4 58 1 76 -17 103 -40 64 -123 79 -208
36z m106 -121 c5 -33 -46 -120 -92 -159 -64 -55 -84 -44 -61 32 32 107 143
199 153 127z"/>
<path d="M6655 6561 c-79 -37 -141 -116 -170 -216 -23 -78 -14 -136 30 -183
33 -36 35 -37 107 -37 66 0 79 3 126 34 28 18 64 47 79 65 73 86 96 218 50
287 -44 66 -140 88 -222 50z m113 -113 c42 -42 -28 -161 -117 -197 -25 -11
-34 -11 -46 -1 -21 17 -19 28 16 99 42 85 113 133 147 99z"/>
<path d="M5125 6343 c-392 -14 -726 -122 -893 -289 -159 -160 -157 -379 5
-523 212 -189 713 -293 1217 -252 386 31 642 116 789 262 91 91 112 138 112
254 0 79 -4 96 -29 144 -104 199 -387 338 -784 385 -132 16 -297 23 -417 19z
m267 -203 c240 -17 421 -60 574 -135 179 -87 241 -209 160 -310 -21 -26 -27
-28 -43 -18 -129 89 -366 163 -608 192 -401 47 -854 -5 -1072 -124 -70 -39
-81 -35 -90 33 -30 223 509 404 1079 362z m97 -476 c170 -23 381 -81 381 -104
0 -12 -86 -36 -195 -54 -320 -55 -733 -43 -1000 28 -118 32 -150 45 -139 55
12 12 142 47 245 66 193 35 487 39 708 9z"/>
<path d="M3412 6244 c-59 -30 -77 -68 -77 -159 1 -68 5 -88 29 -134 33 -63
106 -140 158 -164 20 -9 59 -17 87 -17 95 0 149 79 138 201 -9 101 -86 222
-170 266 -46 23 -126 27 -165 7z m147 -154 c85 -83 95 -229 13 -186 -80 41
-153 198 -106 224 25 14 50 4 93 -38z"/>
<path d="M6942 5779 c-101 -50 -171 -155 -172 -256 0 -67 11 -96 50 -123 69
-49 186 -20 279 69 65 62 95 121 95 191 1 132 -116 187 -252 119z m126 -106
c19 -36 -37 -110 -113 -149 -70 -37 -86 -26 -55 38 23 50 60 89 105 112 39 20
52 20 63 -1z"/>
<path d="M3130 5411 c-59 -31 -75 -63 -75 -144 1 -54 6 -82 22 -112 79 -149
235 -222 326 -152 44 33 60 81 55 160 -11 182 -194 320 -328 248z m144 -139
c50 -47 84 -149 56 -167 -28 -17 -129 77 -151 142 -22 67 34 82 95 25z"/>
<path d="M5823 5035 c-139 -43 -243 -159 -243 -271 0 -67 26 -107 84 -129 123
-47 318 43 387 176 31 62 24 147 -16 189 -47 49 -127 62 -212 35z m115 -117
c22 -22 12 -45 -38 -92 -59 -55 -103 -76 -160 -76 -35 0 -40 3 -40 22 0 31 97
122 151 141 55 19 72 20 87 5z"/>
<path d="M4710 5003 c-148 -77 -77 -302 125 -398 103 -48 184 -43 240 15 24
25 30 41 33 90 6 80 -16 137 -79 201 -89 92 -237 134 -319 92z m147 -123 c23
-10 63 -39 88 -65 39 -38 46 -51 43 -78 -2 -27 -8 -33 -30 -35 -57 -7 -208
107 -208 156 0 44 40 53 107 22z"/>
<path d="M7601 4549 c-24 -70 -6 -169 30 -169 37 0 60 100 39 164 -16 48 -53
51 -69 5z"/>
<path d="M7420 4401 c-15 -28 -12 -150 4 -205 29 -97 79 -108 92 -20 8 53 -10
173 -32 215 -17 34 -48 38 -64 10z"/>
<path d="M2902 3968 c-20 -20 -14 -117 12 -190 31 -87 61 -130 90 -126 20 3
21 8 20 83 -1 90 -28 174 -69 219 -27 29 -36 31 -53 14z"/>
<path d="M7263 3768 c-57 -60 -91 -218 -50 -226 45 -9 109 100 111 188 1 48
-2 55 -19 58 -12 2 -30 -7 -42 -20z"/>
<path d="M3253 3623 c-21 -8 -15 -80 11 -131 30 -58 48 -75 78 -70 20 3 23 8
21 43 -5 80 -69 172 -110 158z"/>
<path d="M6469 3538 c-61 -66 -134 -255 -116 -301 19 -49 90 14 148 131 26 54
33 79 33 132 1 79 -17 90 -65 38z"/>
<path d="M3805 3513 c-24 -24 -13 -81 36 -180 37 -74 103 -153 128 -153 20 0
33 31 28 67 -8 48 -76 189 -112 231 -39 47 -60 56 -80 35z"/>
<path d="M4180 3419 c0 -53 47 -142 103 -197 93 -91 128 -38 60 90 -45 87
-102 148 -138 148 -23 0 -25 -4 -25 -41z"/>
<path d="M6041 3424 c-50 -61 -111 -209 -111 -269 0 -34 19 -46 49 -30 54 27
147 230 139 302 -5 44 -39 42 -77 -3z"/>
</g>
</svg>
