<?xml version="1.0" standalone="no"?>
<!DOCTYPE svg PUBLIC "-//W3C//DTD SVG 20010904//EN"
 "http://www.w3.org/TR/2001/REC-SVG-20010904/DTD/svg10.dtd">
<svg version="1.0" xmlns="http://www.w3.org/2000/svg"
 width="1024.000000pt" height="1024.000000pt" viewBox="0 0 1024.000000 1024.000000"
 preserveAspectRatio="xMidYMid meet">
<metadata>
Created by potrace 1.16, written by Peter Selinger 2001-2019
</metadata>
<g transform="translate(0.000000,1024.000000) scale(0.100000,-0.100000)"
fill="#000000" stroke="none">
<path d="M5156 7325 c-275 -57 -521 -232 -625 -444 l-26 -53 -85 6 c-171 13
-376 -36 -527 -125 -70 -43 -199 -163 -244 -228 -26 -38 -42 -51 -68 -56 -41
-8 -161 -55 -234 -91 -143 -72 -308 -210 -393 -331 -47 -64 -117 -207 -129
-258 -5 -27 -20 -37 -127 -89 -768 -377 -1086 -988 -781 -1499 289 -484 1269
-840 2618 -953 262 -21 881 -30 1142 -15 611 35 1107 122 1568 276 444 147
728 306 950 529 262 262 346 510 278 821 -65 297 -358 601 -786 816 -116 58
-119 60 -167 132 -56 83 -168 194 -258 256 -76 51 -250 137 -320 157 -44 13
-55 21 -67 50 -36 87 -152 221 -248 286 -83 57 -188 104 -292 131 l-90 24 -26
69 c-53 142 -117 241 -225 345 -113 108 -253 187 -409 229 -104 28 -328 36
-429 15z m307 -160 c256 -44 472 -203 572 -417 14 -29 25 -58 25 -64 0 -6 -35
-17 -77 -24 -87 -14 -187 -43 -249 -72 l-41 -19 -84 35 c-126 52 -222 69 -374
69 -101 0 -148 -5 -210 -22 l-80 -21 -25 20 c-37 29 -148 93 -200 115 -25 10
-47 20 -49 22 -2 1 8 22 22 46 79 134 253 263 422 312 124 36 223 42 348 20z
m-921 -519 c89 -23 209 -74 222 -95 4 -5 -17 -26 -46 -45 -29 -19 -83 -66
-120 -103 -173 -176 -258 -378 -258 -612 0 -96 17 -188 46 -245 7 -16 14 -31
14 -33 0 -9 -148 -1 -211 12 -251 53 -440 214 -494 420 -80 310 151 631 510
710 99 22 229 18 337 -9z m923 -166 c211 -66 376 -202 457 -376 31 -65 32 -76
33 -184 0 -108 -2 -119 -31 -180 -79 -166 -282 -311 -532 -377 -85 -23 -118
-26 -267 -27 -191 -1 -246 9 -374 69 -96 46 -189 138 -222 221 -20 51 -24 75
-23 174 1 95 5 128 26 193 82 246 298 444 551 502 93 21 292 14 382 -15z m845
-1 c307 -85 507 -349 462 -611 -34 -199 -179 -354 -397 -425 -62 -20 -107 -27
-201 -31 -109 -4 -264 11 -264 25 0 3 23 31 50 63 119 138 165 255 164 420 -2
178 -64 325 -198 467 -44 47 -64 74 -55 77 111 35 184 46 284 41 44 -3 114
-14 155 -26z m-2788 -377 c-5 -151 8 -216 67 -337 65 -132 185 -247 336 -323
149 -74 367 -114 520 -95 l79 10 46 -35 c56 -44 186 -105 265 -126 246 -65
542 -35 800 79 l100 45 91 -30 c305 -98 651 -41 877 145 147 122 236 307 237
493 0 39 3 72 6 72 16 0 198 -98 250 -136 190 -135 295 -340 264 -515 -75
-425 -735 -738 -1762 -836 -243 -23 -762 -23 -998 0 -598 59 -1064 190 -1359
381 -156 100 -304 273 -350 409 -45 131 -45 286 0 421 48 143 164 289 309 390
51 35 200 115 215 116 7 0 9 -44 7 -128z m-722 -625 c0 -29 -10 -62 -30 -99
-65 -120 -93 -268 -73 -378 8 -41 5 -52 -34 -130 -144 -289 -64 -571 220 -774
274 -196 746 -347 1344 -430 398 -55 761 -80 1198 -80 678 1 1163 89 1640 300
492 219 711 473 667 775 -6 44 -22 102 -35 130 -23 46 -24 54 -12 93 37 123
26 257 -30 372 -31 63 -35 81 -35 148 0 42 2 76 5 76 15 0 161 -90 250 -153
239 -171 405 -382 444 -565 6 -29 11 -94 11 -145 -1 -419 -481 -811 -1275
-1042 -505 -146 -1008 -217 -1655 -231 -866 -20 -1801 106 -2455 330 -490 167
-792 375 -924 633 -52 103 -68 285 -36 408 21 83 93 228 148 301 69 91 240
251 347 324 111 75 289 180 307 180 9 0 13 -15 13 -43z m80 -330 c0 -26 97
-156 174 -232 320 -317 927 -514 1771 -575 77 -5 248 -10 380 -10 1077 0 1977
276 2285 699 27 37 48 57 53 52 16 -16 -9 -147 -41 -214 -221 -469 -1331 -803
-2519 -756 -1166 45 -2004 390 -2118 870 -22 95 -19 199 6 183 5 -3 9 -11 9
-17z m-17 -513 c94 -121 248 -235 452 -334 709 -347 1917 -456 2920 -264 555
107 1003 300 1255 540 42 41 80 74 84 74 14 0 5 -94 -14 -151 -27 -80 -62
-133 -129 -198 -214 -206 -683 -401 -1176 -490 -276 -49 -375 -56 -850 -56
-482 0 -672 11 -1062 61 -893 113 -1474 362 -1570 671 -18 59 -19 170 -2 220
11 34 13 36 23 19 6 -10 37 -52 69 -92z"/>
<path d="M5294 7036 c-44 -20 -64 -52 -64 -107 0 -84 73 -136 154 -109 95 31
102 178 11 216 -42 17 -61 17 -101 0z"/>
<path d="M3975 6166 c-47 -21 -68 -51 -69 -99 -1 -53 16 -88 54 -110 79 -47
180 13 180 107 0 35 -38 86 -75 102 -42 17 -51 17 -90 0z"/>
<path d="M5223 6331 c-35 -22 -60 -83 -50 -123 11 -42 46 -77 88 -88 112 -30
192 107 115 196 -31 37 -107 44 -153 15z"/>
<path d="M4744 5976 c-28 -28 -34 -42 -34 -75 0 -70 28 -107 97 -126 30 -8 85
17 112 51 19 24 22 38 18 78 -6 68 -47 106 -113 106 -39 0 -51 -5 -80 -34z"/>
<path d="M6413 6085 c-81 -35 -83 -169 -3 -210 105 -55 210 58 154 166 -15 30
-66 59 -101 59 -10 -1 -32 -7 -50 -15z"/>
<path d="M3240 5692 c-45 -22 -73 -75 -65 -122 7 -39 51 -86 90 -96 39 -10 96
17 123 56 42 62 17 136 -55 166 -42 18 -51 18 -93 -4z"/>
<path d="M6995 5510 c-33 -13 -65 -55 -71 -92 -12 -70 47 -138 119 -138 53 0
117 65 117 120 0 78 -93 140 -165 110z"/>
<path d="M3420 5403 c-61 -54 -48 -153 24 -187 46 -22 77 -20 117 7 66 44 72
140 12 187 -40 31 -114 28 -153 -7z"/>
<path d="M3973 5139 c-47 -14 -73 -52 -73 -109 0 -87 75 -139 153 -107 139 59
66 257 -80 216z"/>
<path d="M6419 5077 c-57 -38 -69 -127 -23 -178 46 -51 141 -40 181 20 72 107
-51 230 -158 158z"/>
<path d="M4624 5036 c-67 -29 -92 -102 -59 -166 38 -74 150 -78 199 -8 19 26
21 87 4 122 -22 50 -92 75 -144 52z"/>
<path d="M5714 4926 c-29 -29 -34 -41 -34 -81 0 -40 5 -52 34 -81 29 -29 41
-34 80 -34 67 0 107 38 114 108 4 49 2 54 -31 87 -30 30 -42 35 -82 35 -40 0
-52 -5 -81 -34z"/>
<path d="M5007 4880 c-60 -48 -57 -152 6 -190 95 -59 211 31 177 136 -23 68
-126 98 -183 54z"/>
<path d="M2254 4731 c-43 -26 -61 -79 -45 -132 16 -53 52 -79 110 -79 53 0 84
18 106 60 56 108 -66 215 -171 151z"/>
<path d="M7932 4693 c-90 -44 -79 -185 16 -214 82 -24 152 26 152 110 0 53
-18 84 -60 106 -37 19 -67 19 -108 -2z"/>
</g>
</svg>
