<?xml version="1.0" standalone="no"?>
<!DOCTYPE svg PUBLIC "-//W3C//DTD SVG 20010904//EN"
 "http://www.w3.org/TR/2001/REC-SVG-20010904/DTD/svg10.dtd">
<svg version="1.0" xmlns="http://www.w3.org/2000/svg"
 width="1024.000000pt" height="1024.000000pt" viewBox="0 0 1024.000000 1024.000000"
 preserveAspectRatio="xMidYMid meet">
<metadata>
Created by potrace 1.16, written by Peter Selinger 2001-2019
</metadata>
<g transform="translate(0.000000,1024.000000) scale(0.100000,-0.100000)"
fill="#000000" stroke="none">
<path d="M6083 4314 c-27 -10 -49 -27 -62 -47 -24 -40 -41 -130 -41 -223 0
-40 -4 -84 -9 -97 -9 -24 -156 -159 -333 -308 -187 -157 -417 -230 -668 -214
-233 15 -366 50 -740 197 -290 114 -368 137 -495 145 -162 10 -315 -44 -379
-135 -28 -39 -31 -51 -34 -141 -18 -434 413 -909 1013 -1118 277 -96 637 -141
910 -114 463 47 858 214 1121 475 200 199 296 404 298 636 2 199 -46 311 -201
472 -57 58 -103 110 -103 115 0 4 7 53 16 108 10 58 14 115 10 136 -8 47 -40
88 -83 105 -52 22 -171 26 -220 8z m153 -124 c25 -10 26 -13 20 -63 -17 -146
-18 -195 -6 -232 8 -25 45 -70 111 -137 102 -103 138 -159 164 -259 32 -120 9
-283 -60 -420 -53 -106 -89 -155 -184 -249 -388 -385 -1080 -543 -1711 -392
-210 51 -433 148 -610 267 -302 203 -510 514 -514 768 -1 67 0 69 36 102 44
41 88 55 198 62 117 8 201 -15 497 -133 356 -142 504 -183 730 -204 287 -26
552 41 749 191 140 106 391 329 412 368 24 42 41 142 42 239 0 84 10 102 60
102 21 0 51 -5 66 -10z"/>
<path d="M6105 3466 c-21 -15 -25 -67 -5 -90 17 -22 73 -20 93 2 52 57 -25
134 -88 88z"/>
<path d="M5787 3442 c-37 -40 -9 -102 46 -102 35 0 57 25 57 65 0 24 -6 38
-19 45 -30 15 -66 12 -84 -8z"/>
<path d="M6049 3270 c-33 -37 -62 -38 -96 -4 -33 33 -52 18 -23 -19 29 -37
105 -39 138 -4 21 22 30 57 15 57 -5 -1 -20 -14 -34 -30z"/>
</g>
</svg>
