<?xml version="1.0" standalone="no"?>
<!DOCTYPE svg PUBLIC "-//W3C//DTD SVG 20010904//EN"
 "http://www.w3.org/TR/2001/REC-SVG-20010904/DTD/svg10.dtd">
<svg version="1.0" xmlns="http://www.w3.org/2000/svg"
 width="1024.000000pt" height="1024.000000pt" viewBox="0 0 1024.000000 1024.000000"
 preserveAspectRatio="xMidYMid meet">
<metadata>
Created by potrace 1.16, written by Peter Selinger 2001-2019
</metadata>
<g transform="translate(0.000000,1024.000000) scale(0.100000,-0.100000)"
fill="#000000" stroke="none">
<path d="M5578 7350 c-83 -25 -144 -94 -179 -199 -12 -36 -23 -68 -25 -70 -2
-2 -21 8 -41 22 -78 53 -133 71 -219 72 -71 0 -85 -3 -121 -27 -97 -64 -108
-220 -28 -378 13 -26 31 -52 39 -59 25 -21 20 -27 -41 -49 -87 -32 -177 -89
-249 -158 -35 -34 -97 -81 -137 -105 -138 -81 -553 -368 -792 -548 -349 -261
-687 -557 -726 -633 -10 -20 -19 -57 -19 -81 0 -73 36 -104 142 -121 35 -6 37
-10 65 -84 24 -67 28 -91 28 -182 -1 -98 -3 -111 -38 -195 -75 -181 -84 -319
-33 -560 51 -242 52 -307 7 -479 -35 -134 -24 -215 38 -277 92 -92 288 -103
1121 -64 772 37 1465 90 2040 156 249 28 336 45 384 73 73 43 133 152 166 303
64 296 106 1036 97 1711 -6 398 -12 466 -57 587 -86 230 -313 452 -539 526
-36 12 -70 25 -74 29 -4 4 6 36 23 71 24 52 30 77 30 133 0 94 -26 147 -88
184 -42 24 -57 27 -137 27 -78 0 -100 -5 -167 -32 -42 -18 -95 -43 -117 -57
-22 -14 -43 -26 -46 -26 -3 0 -5 30 -5 68 -1 160 -55 321 -127 381 -19 16 -55
34 -79 40 -49 12 -58 13 -96 1z m96 -161 c46 -54 75 -199 76 -372 0 -80 2 -90
25 -112 39 -40 77 -33 185 35 114 72 187 101 259 103 45 1 56 -2 73 -23 41
-50 5 -145 -97 -258 -53 -60 -65 -79 -65 -107 0 -41 18 -55 104 -81 123 -38
180 -132 122 -201 -54 -64 -187 -85 -306 -50 -60 18 -180 86 -191 108 -4 8
-25 52 -47 99 -23 47 -62 109 -87 138 -118 133 -324 231 -487 232 -45 0 -49 2
-94 58 -86 105 -123 227 -82 268 39 40 163 -2 266 -90 44 -38 61 -46 93 -46
46 0 63 21 74 90 21 133 79 240 130 240 14 0 34 -13 49 -31z m-322 -645 c252
-75 419 -302 378 -514 -16 -85 -48 -139 -126 -217 -62 -62 -92 -82 -196 -132
-135 -66 -258 -103 -418 -126 -190 -27 -363 -14 -441 32 -16 10 -39 37 -51 61
-19 41 -20 50 -9 128 29 206 150 460 286 597 168 171 372 231 577 171z m1221
-224 c86 -57 196 -171 245 -253 77 -128 111 -312 82 -438 -31 -136 -121 -257
-227 -307 l-58 -27 -610 -7 c-788 -8 -1376 -34 -2219 -98 -391 -30 -596 -37
-596 -21 0 25 421 380 690 582 165 123 573 409 584 409 4 0 0 -12 -8 -28 -27
-52 -83 -227 -96 -298 -7 -39 -11 -107 -8 -151 5 -95 34 -154 95 -196 198
-137 671 -102 1033 75 114 56 133 70 216 152 96 97 140 170 164 274 10 43 15
52 29 46 131 -56 239 -76 346 -63 117 15 226 84 261 166 21 48 18 151 -5 196
-26 51 -10 48 82 -13z m344 -1302 c-16 -779 -61 -1248 -133 -1413 l-18 -40
-13 110 c-29 240 -26 1168 3 1471 6 58 8 61 51 88 24 16 58 46 75 67 17 22 34
39 36 39 3 0 2 -145 -1 -322z m-310 10 c-22 -403 -28 -714 -17 -966 10 -251
24 -457 35 -528 5 -27 2 -33 -18 -38 -40 -10 -552 -65 -802 -85 -927 -78
-1637 -115 -2095 -109 -286 3 -307 4 -340 23 -31 19 -35 26 -38 66 -2 27 7 81
23 133 33 115 34 266 4 406 -71 328 -68 383 34 650 32 82 31 279 -1 369 -13
35 -22 65 -20 66 2 2 152 14 333 29 933 73 1598 102 2424 104 l484 2 -6 -122z"/>
<path d="M5196 6475 c-16 -16 -30 -102 -24 -150 2 -22 9 -31 25 -33 29 -4 40
19 48 105 7 65 6 72 -13 82 -16 8 -24 8 -36 -4z"/>
<path d="M4804 6335 c-7 -17 33 -91 64 -118 27 -25 56 -18 60 14 4 36 -61 119
-94 119 -13 0 -27 -7 -30 -15z"/>
<path d="M5521 6185 c-45 -49 -52 -87 -17 -93 28 -6 106 75 106 110 0 45 -39
37 -89 -17z"/>
<path d="M5149 6091 c-53 -34 -63 -52 -44 -78 13 -17 16 -17 69 10 59 31 71
48 56 78 -14 25 -27 24 -81 -10z"/>
<path d="M4752 5970 c-69 -50 -49 -114 22 -70 45 27 68 55 64 77 -5 29 -40 26
-86 -7z"/>
<path d="M5391 5818 c-13 -7 -23 -16 -22 -20 0 -5 1 -15 1 -23 0 -11 11 -15
40 -15 55 0 92 18 88 44 -2 17 -11 22 -43 24 -22 1 -51 -3 -64 -10z"/>
<path d="M5090 5786 c-8 -10 -9 -33 -5 -71 9 -65 31 -100 59 -89 16 6 18 15
14 75 -7 89 -35 124 -68 85z"/>
<path d="M4710 5703 c-51 -48 -59 -74 -25 -87 17 -6 89 45 112 80 16 25 16 27
-2 40 -27 20 -28 19 -85 -33z"/>
<path d="M3992 5700 c-17 -7 -22 -16 -20 -32 3 -21 9 -23 63 -26 71 -3 107 15
89 45 -13 21 -94 29 -132 13z"/>
<path d="M3742 5419 c-12 -5 -22 -15 -22 -22 0 -25 27 -38 85 -40 45 -2 60 2
68 15 9 14 8 21 -3 32 -18 17 -97 26 -128 15z"/>
<path d="M5852 4539 c-90 -45 -127 -160 -82 -254 62 -128 249 -141 328 -22 22
34 27 52 27 107 0 57 -4 73 -29 108 -53 78 -158 103 -244 61z"/>
<path d="M3825 4521 c-69 -31 -115 -105 -115 -181 0 -34 32 -100 61 -127 111
-102 286 -45 319 102 11 48 -10 127 -41 162 -55 59 -150 78 -224 44z"/>
<path d="M5236 4267 c-10 -8 -23 -41 -32 -82 -34 -160 -135 -244 -295 -245
-65 0 -85 4 -138 31 -79 39 -126 98 -141 177 -19 99 -23 106 -58 116 -27 7
-38 6 -60 -11 -33 -24 -38 -58 -22 -133 65 -296 442 -423 692 -232 90 68 160
201 162 310 1 35 -4 48 -23 63 -27 22 -60 24 -85 6z"/>
</g>
</svg>
