<?xml version="1.0" standalone="no"?>
<!DOCTYPE svg PUBLIC "-//W3C//DTD SVG 20010904//EN"
 "http://www.w3.org/TR/2001/REC-SVG-20010904/DTD/svg10.dtd">
<svg version="1.0" xmlns="http://www.w3.org/2000/svg"
 width="1024.000000pt" height="1024.000000pt" viewBox="0 0 1024.000000 1024.000000"
 preserveAspectRatio="xMidYMid meet">
<metadata>
Created by potrace 1.16, written by Peter Selinger 2001-2019
</metadata>
<g transform="translate(0.000000,1024.000000) scale(0.100000,-0.100000)"
fill="#000000" stroke="none">
<path d="M5060 7312 c-20 -16 -21 -26 -23 -192 l-2 -174 26 -13 c32 -15 86 -1
93 25 2 10 7 87 11 173 l7 156 -28 22 c-33 26 -55 27 -84 3z"/>
<path d="M6015 6909 c-58 -71 -91 -121 -93 -139 -4 -35 27 -70 62 -70 25 0 29
4 175 174 30 35 51 69 51 83 0 33 -34 63 -72 63 -30 0 -42 -12 -123 -111z"/>
<path d="M3987 6962 c-30 -33 -20 -65 66 -193 78 -118 84 -124 119 -127 28 -2
40 2 52 20 9 12 16 32 16 45 0 12 -37 77 -82 145 -78 115 -85 123 -119 126
-24 2 -40 -3 -52 -16z"/>
<path d="M4699 6567 c-90 -34 -180 -119 -240 -225 -18 -31 -33 -58 -34 -60 -1
-1 -63 -9 -136 -17 -272 -29 -488 -69 -664 -125 -230 -73 -358 -162 -422 -295
-19 -38 -47 -92 -63 -120 -40 -67 -77 -185 -85 -271 -9 -87 9 -208 41 -291
l25 -63 -29 -42 c-84 -122 -124 -253 -123 -397 0 -53 7 -122 15 -154 16 -60
62 -155 94 -195 17 -22 17 -24 -21 -102 -22 -43 -47 -111 -57 -151 -15 -67
-19 -74 -46 -80 -16 -4 -72 -17 -124 -29 -131 -31 -295 -86 -355 -120 -93 -53
-135 -113 -135 -190 0 -53 12 -80 54 -121 194 -188 1131 -409 2091 -493 436
-39 1072 -46 1440 -17 773 62 1411 185 1660 319 93 51 126 97 126 175 0 73
-24 114 -94 160 -97 63 -229 111 -449 162 l-118 28 0 37 c0 48 -34 178 -58
227 l-20 38 58 62 c104 111 149 244 137 407 -8 104 -56 243 -104 297 -12 14
-9 24 21 75 61 103 79 174 79 304 0 104 -3 124 -32 205 -23 65 -32 111 -34
165 -4 124 -58 209 -187 295 -157 104 -412 186 -765 244 -113 19 -275 41 -301
41 -7 0 -15 24 -18 58 -16 135 -67 211 -154 231 -78 18 -300 31 -627 37 -248
4 -317 2 -346 -9z m781 -148 c85 -6 163 -15 173 -21 16 -8 11 -16 -38 -71 -68
-74 -130 -196 -150 -292 -8 -38 -18 -154 -21 -257 -5 -125 -11 -188 -18 -188
-57 0 -939 61 -944 65 -9 8 20 429 34 480 30 111 97 212 182 273 l47 34 290
-5 c160 -4 360 -11 445 -18z m219 -404 c1 -123 -5 -144 -66 -221 -31 -38 -57
-71 -60 -74 -6 -7 7 188 18 257 9 61 43 149 77 201 l17 26 7 -54 c3 -30 6 -91
7 -135z m-1330 68 c-5 -27 -11 -145 -14 -263 -6 -207 -6 -216 14 -248 12 -18
36 -39 54 -47 28 -11 415 -41 933 -71 154 -9 165 -4 266 114 132 153 180 215
194 249 10 22 14 75 14 163 0 117 2 130 18 130 47 0 376 -54 497 -81 159 -35
344 -97 429 -142 68 -36 150 -107 171 -148 19 -36 19 -92 1 -127 -36 -69 -125
-129 -274 -187 -196 -76 -418 -120 -791 -160 -254 -27 -320 -43 -393 -93 -55
-38 -87 -73 -131 -143 -64 -103 -143 -141 -233 -114 -58 17 -85 43 -147 141
-76 120 -165 181 -299 205 -54 10 -83 10 -134 0 -88 -16 -135 -39 -222 -111
-83 -68 -124 -83 -179 -68 -57 15 -81 43 -135 158 -27 58 -59 116 -71 128 -27
30 -95 65 -164 85 -248 74 -431 190 -449 284 -29 156 295 301 836 373 74 10
153 19 176 19 l41 1 -8 -47z m-1086 -533 c27 -27 78 -68 115 -90 62 -36 307
-140 332 -140 6 0 33 -10 60 -21 43 -19 53 -29 76 -78 66 -141 80 -164 124
-205 59 -55 131 -80 210 -73 68 6 124 33 202 98 79 66 111 81 183 86 126 10
205 -34 289 -162 67 -102 92 -127 161 -163 43 -23 62 -27 140 -27 78 0 96 4
140 27 67 36 101 69 158 155 79 119 119 139 315 158 362 36 599 76 802 135
117 35 304 122 364 169 21 17 42 31 47 31 4 0 12 -23 18 -50 27 -128 1 -257
-73 -357 -141 -193 -462 -293 -1117 -349 -240 -21 -835 -24 -1054 -6 -591 49
-1005 137 -1281 272 -220 107 -313 253 -301 469 5 89 22 171 36 171 3 0 28
-23 54 -50z m-13 -615 c159 -122 406 -215 775 -290 436 -89 1025 -130 1528
-106 663 32 1109 124 1331 275 46 32 53 28 90 -54 99 -221 15 -443 -209 -546
-371 -171 -1519 -251 -2415 -168 -445 41 -775 112 -988 214 -130 62 -216 142
-252 235 -33 83 -34 251 -1 339 21 60 67 146 77 146 3 0 32 -20 64 -45z m-7
-774 c239 -132 681 -225 1307 -273 250 -19 954 -16 1219 5 442 36 819 101 994
173 33 13 62 24 64 24 2 0 16 -26 30 -57 31 -68 41 -176 23 -252 -16 -66 -71
-141 -137 -184 -111 -73 -342 -129 -673 -163 -214 -21 -918 -30 -1205 -15
-765 41 -1453 161 -1641 285 -127 85 -156 249 -75 423 17 34 33 63 36 63 3 0
29 -13 58 -29z m-263 -334 c0 -7 15 -44 34 -83 61 -127 160 -194 383 -258 277
-80 644 -141 1088 -181 674 -60 1486 -43 1942 40 292 54 474 156 547 308 16
31 33 57 40 57 23 0 233 -51 296 -71 152 -50 250 -103 250 -134 0 -82 -527
-225 -1110 -300 -475 -61 -822 -80 -1310 -72 -691 11 -1372 94 -2010 243 -371
87 -680 210 -680 271 0 39 156 109 365 163 123 32 165 36 165 17z"/>
<path d="M4753 5988 c-19 -25 -21 -46 -7 -67 21 -29 60 -27 80 4 15 23 15 27
0 50 -18 27 -57 34 -73 13z"/>
<path d="M5038 5969 c-48 -27 3 -115 51 -89 30 15 38 56 16 80 -20 22 -41 25
-67 9z"/>
<path d="M6842 5288 c-6 -7 -13 -31 -17 -53 -11 -56 -41 -113 -84 -158 -61
-65 -81 -71 -221 -72 -142 -1 -203 -16 -263 -66 -29 -24 -37 -38 -35 -57 6
-46 29 -48 87 -9 63 44 100 52 202 44 129 -10 245 32 309 113 42 53 78 135 86
197 6 45 4 52 -14 62 -27 14 -37 14 -50 -1z"/>
<path d="M6805 4588 c-2 -7 -6 -38 -10 -69 -7 -67 -32 -110 -82 -143 -41 -27
-138 -56 -188 -56 -53 0 -277 -47 -291 -62 -17 -17 -7 -56 16 -63 11 -3 65 3
122 14 57 11 144 25 193 31 191 23 296 111 311 258 8 70 -5 102 -42 102 -13 0
-26 -6 -29 -12z"/>
<path d="M3250 4560 c-15 -28 -5 -53 35 -89 55 -48 100 -57 199 -39 47 8 99
13 116 10 33 -5 74 -40 143 -126 47 -56 83 -76 151 -83 43 -4 66 1 146 33 136
54 176 52 317 -14 98 -47 116 -52 176 -52 82 0 127 19 127 54 0 38 -22 49 -71
36 -57 -16 -97 -7 -214 48 -96 45 -104 47 -190 47 -81 0 -98 -3 -164 -34 -60
-27 -83 -32 -118 -28 -50 5 -68 19 -129 99 -49 63 -125 108 -183 108 -20 0
-69 -6 -109 -14 -89 -17 -132 -8 -162 34 -25 35 -55 39 -70 10z"/>
<path d="M3202 3988 c-29 -29 -2 -141 46 -191 33 -35 79 -59 154 -81 70 -20
92 -20 108 -1 26 31 -1 58 -84 84 -86 26 -140 68 -151 117 -14 63 -22 79 -41
82 -11 1 -25 -3 -32 -10z"/>
<path d="M6641 3779 c-37 -11 -105 -52 -116 -70 -14 -22 -99 -69 -125 -69 -15
0 -60 12 -101 26 -108 39 -205 39 -279 0 -74 -38 -102 -65 -98 -95 6 -46 30
-48 94 -6 80 53 140 58 254 20 139 -46 202 -35 310 54 67 56 107 71 173 64 38
-5 47 -2 56 15 16 30 4 50 -37 62 -44 12 -85 12 -131 -1z"/>
</g>
</svg>
