<?xml version="1.0" standalone="no"?>
<!DOCTYPE svg PUBLIC "-//W3C//DTD SVG 20010904//EN"
 "http://www.w3.org/TR/2001/REC-SVG-20010904/DTD/svg10.dtd">
<svg version="1.0" xmlns="http://www.w3.org/2000/svg"
 width="1024.000000pt" height="1024.000000pt" viewBox="0 0 1024.000000 1024.000000"
 preserveAspectRatio="xMidYMid meet">
<metadata>
Created by potrace 1.16, written by Peter Selinger 2001-2019
</metadata>
<g transform="translate(0.000000,1024.000000) scale(0.100000,-0.100000)"
fill="#000000" stroke="none">
<path d="M4855 7206 c-141 -23 -279 -80 -362 -150 -34 -29 -48 -34 -139 -45
-185 -22 -475 -95 -659 -166 -216 -83 -372 -180 -505 -314 -103 -103 -160
-196 -196 -316 -26 -85 -24 -248 3 -332 18 -53 69 -153 104 -203 9 -12 4 -27
-20 -65 -85 -134 -95 -331 -24 -469 l20 -39 -35 -46 c-104 -136 -128 -326 -58
-470 22 -46 22 -47 4 -86 -10 -22 -23 -58 -29 -80 l-10 -40 -97 -28 c-294 -85
-494 -209 -536 -333 -39 -116 -30 -214 33 -349 161 -342 599 -609 1231 -749
702 -156 1627 -175 2456 -51 719 108 1288 334 1590 630 177 174 267 344 268
505 0 90 -16 131 -75 195 -98 107 -351 209 -633 256 l-78 13 -24 55 -25 55 27
65 c21 51 28 88 32 163 5 116 -17 202 -73 287 l-36 55 19 35 c54 98 68 248 32
363 -19 61 -85 177 -109 192 -7 5 -5 19 8 44 46 92 56 142 55 277 0 144 -16
205 -85 322 -45 76 -185 217 -279 280 -255 171 -651 303 -1058 353 -89 11 -97
14 -157 60 -140 106 -381 158 -580 126z m278 -161 c155 -33 292 -129 345 -242
21 -47 26 -73 26 -133 0 -96 -32 -170 -104 -240 -247 -241 -786 -179 -917 106
-51 112 -29 250 56 347 126 143 370 210 594 162z m692 -222 c392 -80 693 -218
876 -402 41 -42 89 -101 106 -131 122 -215 60 -464 -151 -615 -133 -95 -295
-156 -539 -206 -81 -16 -151 -28 -155 -25 -11 7 4 220 18 247 35 67 65 82 227
114 140 28 337 81 365 98 42 27 42 104 -1 126 -29 16 -51 14 -147 -14 -48 -14
-155 -39 -238 -56 -170 -35 -216 -52 -270 -99 -76 -67 -100 -150 -112 -392 -8
-152 -29 -201 -87 -206 -76 -6 -93 30 -106 233 -15 220 -50 293 -169 352 l-57
28 -480 6 c-266 4 -540 13 -615 20 -208 20 -247 18 -301 -13 -52 -30 -67 -51
-94 -122 -22 -57 -49 -86 -83 -86 -35 0 -60 17 -78 52 -23 44 -15 183 16 261
63 165 262 321 518 408 l87 30 24 -33 c115 -154 322 -257 552 -274 325 -24
655 168 710 414 7 28 17 52 23 52 37 0 181 -56 207 -81 31 -29 31 -29 13 -56
-25 -40 -50 -58 -131 -98 -54 -26 -74 -42 -79 -60 -10 -40 4 -73 37 -90 28
-15 35 -15 78 0 67 22 170 93 208 144 45 58 58 110 42 174 -23 97 -116 159
-306 205 l-73 17 -15 52 c-8 28 -15 54 -15 57 0 8 29 3 195 -31z m-1490 10
c-21 -49 -35 -135 -33 -192 l3 -64 -80 -27 c-217 -74 -397 -187 -508 -318 -50
-58 -127 -201 -127 -234 0 -20 -16 -19 -94 9 -80 27 -127 5 -129 -61 -1 -50
23 -70 119 -98 l72 -21 7 -46 c22 -163 106 -251 238 -251 66 0 120 19 160 58
30 28 77 111 77 135 0 8 7 20 16 28 13 11 53 10 232 -6 157 -13 333 -19 635
-21 471 -3 471 -3 510 -78 18 -33 42 -219 31 -238 -7 -12 -189 -20 -517 -21
l-329 -2 -19 -24 c-24 -29 -24 -62 0 -92 14 -18 33 -24 87 -30 99 -11 430 -10
629 1 155 9 171 9 180 -6 27 -45 74 -89 115 -107 55 -25 140 -26 192 -3 49 21
103 76 119 121 8 22 21 37 34 39 204 37 360 71 441 96 136 43 306 128 382 190
35 28 69 49 76 47 6 -3 24 -30 40 -62 43 -84 48 -183 12 -260 -53 -117 -150
-203 -321 -285 -393 -188 -1133 -290 -1886 -260 -963 38 -1512 250 -1537 591
-5 72 13 144 47 188 l18 24 44 -30 c152 -105 393 -187 664 -227 151 -23 427
-48 453 -41 30 7 55 65 43 97 -16 43 -36 49 -198 64 -302 28 -515 69 -678 133
-217 84 -367 228 -411 395 -104 390 317 739 1076 891 97 20 124 19 115 -2z
m2605 -1859 c21 -41 25 -62 25 -139 0 -81 -3 -95 -29 -143 -65 -117 -168 -204
-341 -287 -721 -348 -2325 -382 -3084 -64 -188 78 -333 196 -387 314 -36 78
-32 183 9 268 16 31 32 57 37 57 5 0 44 -25 88 -55 104 -71 199 -116 351 -166
313 -102 701 -155 1211 -166 619 -13 1206 57 1616 193 175 57 338 139 424 213
19 17 39 29 45 27 5 -1 21 -25 35 -52z m14 -550 c11 -29 6 -110 -10 -158 -47
-137 -272 -251 -601 -306 -58 -9 -77 -17 -93 -37 -27 -34 -25 -69 5 -98 30
-31 46 -31 197 1 222 47 346 93 465 176 102 71 155 143 182 248 7 25 14 50 16
57 8 26 316 -57 454 -123 116 -55 171 -107 171 -161 0 -31 -8 -44 -48 -83
-192 -185 -945 -344 -1912 -405 -870 -54 -1780 -33 -2395 56 -446 64 -760 162
-878 271 -40 38 -47 50 -47 82 0 31 8 44 46 82 68 66 267 157 411 188 27 6 29
4 45 -52 45 -153 202 -282 435 -356 77 -25 293 -76 320 -76 25 0 63 47 63 78
0 55 -24 69 -173 102 -76 17 -163 40 -193 50 -230 79 -357 240 -315 398 13 48
20 51 47 20 25 -27 150 -110 220 -144 l56 -27 -30 -13 c-37 -15 -52 -41 -52
-91 0 -54 28 -83 81 -83 30 0 47 7 66 26 22 22 25 32 21 75 -3 27 -2 49 2 49
3 0 55 -16 114 -35 186 -60 484 -115 801 -147 200 -20 906 -17 1105 5 639 71
1086 204 1340 397 36 27 68 49 71 50 4 0 10 -7 13 -16z m617 -752 c-28 -52
-205 -190 -347 -271 -556 -316 -1546 -485 -2601 -443 -326 13 -509 29 -738 67
-604 101 -1023 278 -1272 538 -41 43 -73 81 -70 83 2 2 33 -9 68 -25 148 -69
495 -151 799 -190 678 -87 1623 -104 2455 -46 665 47 1283 150 1605 268 113
42 113 42 101 19z"/>
<path d="M4753 6610 c-12 -5 -29 -23 -39 -41 -13 -27 -14 -39 -5 -70 27 -90
156 -81 175 12 14 74 -58 128 -131 99z"/>
<path d="M4117 5679 c-48 -28 -40 -107 12 -129 74 -30 136 64 78 118 -25 24
-61 28 -90 11z"/>
<path d="M4379 5631 c-28 -29 -31 -36 -26 -74 7 -52 36 -77 89 -77 113 0 119
159 6 177 -32 5 -41 1 -69 -26z"/>
<path d="M3344 5286 c-39 -33 -39 -89 0 -122 37 -32 71 -30 107 5 78 79 -23
190 -107 117z"/>
<path d="M3613 5175 c-48 -34 -36 -126 20 -153 62 -30 140 35 123 102 -15 61
-91 87 -143 51z"/>
<path d="M3384 4648 c-23 -11 -44 -48 -44 -77 0 -35 39 -71 76 -71 85 0 116
108 43 145 -32 17 -46 18 -75 3z"/>
<path d="M3631 4524 c-43 -55 -8 -134 59 -134 67 0 107 93 60 140 -31 31 -93
27 -119 -6z"/>
<path d="M3995 4476 c-29 -13 -55 -51 -55 -82 0 -31 30 -72 61 -83 37 -13 91
6 108 37 42 79 -33 164 -114 128z"/>
<path d="M5965 3875 c-53 -52 -20 -135 54 -135 58 0 90 47 71 105 -18 56 -84
72 -125 30z"/>
<path d="M5700 3843 c-26 -33 -21 -79 11 -105 48 -40 119 -4 119 61 0 47 -24
71 -73 71 -27 0 -41 -7 -57 -27z"/>
<path d="M4970 3850 c-184 -3 -343 -9 -352 -13 -26 -13 -40 -65 -25 -95 22
-47 46 -52 272 -51 324 1 616 13 643 28 32 17 46 58 31 93 -17 42 -37 48 -141
46 -51 -1 -244 -5 -428 -8z"/>
</g>
</svg>
