<?xml version="1.0" standalone="no"?>
<!DOCTYPE svg PUBLIC "-//W3C//DTD SVG 20010904//EN"
 "http://www.w3.org/TR/2001/REC-SVG-20010904/DTD/svg10.dtd">
<svg version="1.0" xmlns="http://www.w3.org/2000/svg"
 width="1024.000000pt" height="1024.000000pt" viewBox="0 0 1024.000000 1024.000000"
 preserveAspectRatio="xMidYMid meet">
<metadata>
Created by potrace 1.16, written by Peter Selinger 2001-2019
</metadata>
<g transform="translate(0.000000,1024.000000) scale(0.100000,-0.100000)"
fill="#000000" stroke="none">
<path d="M4789 8370 c-270 -15 -513 -53 -674 -105 -461 -151 -772 -513 -874
-1020 -49 -243 -65 -701 -65 -1845 0 -931 8 -1274 40 -1710 31 -428 45 -478
156 -525 61 -25 415 -57 868 -78 l245 -12 5 -445 5 -445 26 -66 c71 -184 203
-315 381 -380 349 -128 731 98 803 475 12 61 15 164 15 472 l0 394 38 0 c46 0
541 27 637 35 225 18 394 39 423 51 94 39 124 88 141 229 14 121 38 480 51
750 18 370 24 1552 11 2120 -17 709 -24 873 -44 912 -37 71 -115 106 -185 84
-21 -6 -68 -36 -107 -67 -262 -212 -589 -203 -873 26 -121 97 -220 248 -272
415 -29 91 -37 269 -20 409 17 136 5 192 -54 250 -52 53 -90 63 -262 76 -152
11 -210 11 -415 0z m425 -422 c-4 -84 -2 -166 5 -221 41 -306 200 -583 440
-762 211 -159 413 -223 663 -212 126 5 204 24 326 77 29 12 54 21 56 19 2 -2
9 -278 16 -613 20 -951 7 -1869 -36 -2506 -21 -320 -15 -296 -83 -304 -462
-52 -1657 -76 -2311 -47 -266 12 -615 35 -702 47 -45 6 -46 7 -52 48 -45 323
-71 1459 -56 2486 10 683 22 1023 40 1150 36 253 138 471 297 633 125 127 261
205 453 257 200 55 399 76 738 79 l213 1 -7 -132z m204 -5285 l-3 -408 -29
-63 c-77 -167 -260 -239 -414 -162 -66 33 -118 85 -154 152 -23 43 -23 47 -26
466 l-3 422 316 0 316 0 -3 -407z"/>
<path d="M4340 6358 c-112 -32 -167 -155 -115 -261 57 -119 238 -128 312 -16
39 60 40 147 1 206 -40 61 -126 92 -198 71z"/>
<path d="M5691 6360 c-42 -10 -80 -37 -108 -80 -105 -153 64 -341 234 -259
110 53 128 229 32 302 -29 21 -101 49 -119 46 -3 -1 -20 -5 -39 -9z"/>
<path d="M4671 5726 c-35 -19 -50 -54 -50 -116 -1 -74 25 -125 88 -183 54 -48
124 -77 185 -77 43 0 132 25 163 45 24 16 28 16 83 -9 74 -33 135 -42 199 -26
105 25 188 109 212 214 20 93 -23 166 -98 166 -36 0 -38 -2 -129 -104 -22 -24
-30 -28 -62 -23 -24 4 -44 16 -57 33 -56 73 -82 94 -120 94 -29 0 -43 -7 -64
-31 -70 -83 -89 -99 -121 -99 -22 0 -39 8 -56 28 -84 95 -92 102 -120 102 -16
-1 -40 -7 -53 -14z"/>
</g>
</svg>
