<?xml version="1.0" standalone="no"?>
<!DOCTYPE svg PUBLIC "-//W3C//DTD SVG 20010904//EN"
 "http://www.w3.org/TR/2001/REC-SVG-20010904/DTD/svg10.dtd">
<svg version="1.0" xmlns="http://www.w3.org/2000/svg"
 width="2048.000000pt" height="2048.000000pt" viewBox="0 0 2048.000000 2048.000000"
 preserveAspectRatio="xMidYMid meet">
<metadata>
Created by potrace 1.16, written by Peter Selinger 2001-2019
</metadata>
<g transform="translate(0.000000,2048.000000) scale(0.100000,-0.100000)"
fill="#000000" stroke="none">
<path d="M13315 17693 c-189 -16 -367 -65 -533 -145 -298 -145 -536 -358 -745
-668 -39 -59 -69 -94 -78 -91 -723 182 -1073 237 -1624 256 -295 10 -736 -18
-1012 -65 -267 -46 -545 -108 -756 -169 l-67 -20 -23 32 c-13 18 -57 77 -97
132 -40 55 -125 152 -189 215 -223 222 -461 348 -785 416 -166 35 -430 43
-600 20 -496 -70 -903 -293 -1199 -659 -368 -453 -524 -1115 -406 -1727 87
-451 335 -804 757 -1078 l104 -67 -5 -40 c-3 -22 -21 -128 -40 -235 -95 -526
-165 -1097 -197 -1595 -18 -290 -19 -328 -25 -550 -12 -423 -24 -644 -36 -667
-7 -13 -119 -129 -249 -258 -130 -129 -267 -273 -304 -320 -252 -318 -407
-651 -471 -1015 -23 -125 -30 -376 -16 -510 41 -380 182 -714 421 -1000 75
-90 253 -266 347 -346 35 -28 65 -61 69 -72 8 -25 7 -328 -1 -417 -21 -220
-39 -377 -61 -535 -27 -193 -33 -230 -118 -690 -106 -570 -131 -802 -123
-1120 6 -244 31 -414 96 -640 112 -395 330 -741 624 -991 427 -365 971 -537
1622 -513 608 23 1168 262 1662 709 l113 101 202 -25 c390 -49 419 -51 843
-51 323 1 438 4 539 17 l130 17 93 -84 c361 -327 742 -545 1178 -673 633 -187
1297 -108 1844 220 196 118 440 330 584 508 203 251 357 569 437 905 44 185
62 331 67 565 10 411 -48 767 -227 1390 -183 638 -212 905 -149 1345 15 101
26 123 95 182 74 64 219 225 311 345 148 196 251 391 327 618 69 207 96 353
103 560 8 250 -14 413 -87 633 -144 431 -433 815 -900 1192 -74 60 -141 116
-148 125 -15 17 -13 180 9 773 24 672 -33 1281 -183 1937 -60 264 -60 238 8
290 165 123 377 326 475 455 254 331 377 687 395 1135 24 587 -205 1121 -633
1480 -404 339 -893 504 -1368 463z m338 -478 c286 -43 621 -223 836 -450 186
-197 295 -419 342 -697 40 -231 14 -537 -62 -756 -42 -119 -138 -303 -206
-393 -114 -152 -297 -321 -483 -446 -104 -69 -155 -128 -176 -199 -21 -74 -17
-113 42 -379 161 -734 193 -968 210 -1505 7 -225 -8 -664 -36 -1050 -4 -58 -7
-157 -6 -220 3 -174 34 -228 184 -328 201 -132 457 -359 593 -528 182 -223
317 -501 364 -746 92 -484 -89 -1013 -482 -1404 -172 -172 -362 -300 -609
-413 -288 -130 -520 -188 -794 -198 -577 -21 -1003 249 -1111 705 -18 74 -20
109 -16 232 6 178 30 270 117 445 156 312 457 611 951 942 50 34 80 62 89 82
31 75 -22 161 -99 161 -45 0 -152 -64 -331 -197 -489 -366 -782 -720 -904
-1093 -46 -143 -60 -233 -60 -380 0 -246 71 -467 211 -655 323 -436 983 -587
1683 -385 131 37 308 106 425 165 53 26 93 41 98 36 6 -6 4 -80 -3 -181 -32
-422 12 -741 186 -1358 163 -583 201 -781 211 -1102 9 -301 -20 -527 -98 -763
-202 -617 -690 -1049 -1329 -1179 -101 -20 -144 -23 -355 -23 -156 0 -266 5
-315 13 -386 69 -710 213 -1045 465 -44 33 -143 124 -220 202 -77 78 -156 150
-175 160 -56 29 -140 29 -320 1 -451 -70 -868 -60 -1455 35 -305 50 -325 44
-519 -158 -194 -202 -357 -324 -581 -436 -298 -148 -563 -207 -935 -207 -404
0 -714 81 -1005 263 -407 254 -679 726 -736 1276 -24 236 3 597 71 943 150
756 223 1299 237 1756 4 144 10 205 18 208 7 3 38 -6 69 -20 156 -69 446 -146
648 -172 156 -19 407 -15 553 10 360 61 655 241 826 504 78 119 128 242 160
397 20 93 17 343 -5 445 -63 292 -220 560 -491 839 -173 178 -443 394 -655
523 -117 72 -154 76 -206 24 -29 -29 -34 -41 -34 -81 0 -59 17 -75 201 -196
491 -322 823 -703 936 -1074 25 -83 27 -104 27 -265 l1 -175 -36 -103 c-127
-359 -419 -572 -852 -623 -123 -14 -368 -7 -485 15 -109 20 -289 68 -377 101
-119 44 -364 170 -480 245 -260 169 -504 484 -599 771 -54 161 -69 279 -64
488 8 256 45 404 164 646 122 250 327 497 622 751 169 146 184 162 218 228 50
96 59 185 69 711 3 154 8 321 10 370 3 50 7 153 10 230 7 169 48 638 76 859
39 322 85 597 179 1081 34 174 33 229 -1 297 -31 60 -84 105 -182 154 -140 71
-262 158 -368 265 -264 265 -360 542 -346 989 8 260 50 435 162 668 153 319
404 554 720 673 229 86 524 120 740 85 378 -62 667 -281 844 -637 73 -147 100
-182 164 -214 79 -39 134 -35 307 26 447 155 864 234 1375 260 645 32 1377
-72 2004 -286 128 -43 226 -30 297 41 23 23 64 85 93 140 159 309 384 538 654
664 189 89 424 119 650 85z"/>
<path d="M13300 16505 c-205 -44 -385 -150 -534 -316 -107 -119 -144 -202
-116 -268 8 -19 56 -62 140 -125 276 -205 504 -462 680 -766 85 -146 117 -162
227 -110 132 61 273 191 374 344 68 103 110 206 134 325 24 114 16 297 -15
396 -78 249 -257 427 -505 505 -90 28 -289 36 -385 15z m275 -220 c108 -23
203 -74 271 -148 105 -112 145 -215 145 -372 -1 -141 -40 -261 -132 -397 -44
-65 -175 -198 -195 -198 -7 0 -50 57 -97 128 -47 70 -123 174 -170 232 -95
118 -319 339 -419 415 -37 28 -67 55 -68 61 0 17 134 141 198 181 103 66 241
111 347 112 28 0 82 -6 120 -14z"/>
<path d="M6726 16494 c-262 -58 -458 -239 -545 -500 -121 -362 15 -767 340
-1012 82 -62 184 -112 228 -112 51 0 79 24 131 112 182 308 387 552 654 779
152 130 186 168 186 208 -1 90 -168 285 -341 397 -79 52 -160 88 -254 115 -96
28 -303 35 -399 13z m318 -224 c120 -30 222 -89 323 -186 l88 -84 -25 -21
c-276 -231 -501 -484 -659 -741 -29 -48 -60 -93 -67 -99 -11 -9 -35 11 -118
92 -89 89 -109 116 -144 189 -54 113 -75 196 -75 305 -1 108 14 176 59 272
108 227 361 339 618 273z"/>
<path d="M8480 13357 c-154 -35 -275 -146 -325 -296 -23 -72 -17 -206 12 -273
30 -66 105 -143 172 -175 50 -25 67 -28 156 -28 93 0 105 2 168 33 211 104
303 362 202 567 -65 134 -229 207 -385 172z"/>
<path d="M11659 13360 c-106 -18 -206 -99 -257 -208 -24 -51 -27 -69 -27 -162
1 -96 3 -111 32 -172 40 -87 109 -155 199 -199 64 -31 76 -34 169 -34 90 0
107 3 163 29 88 41 155 115 182 203 77 249 -79 501 -337 543 -64 11 -59 11
-124 0z"/>
<path d="M9974 12886 c-110 -25 -177 -73 -208 -148 -21 -49 -20 -76 4 -140 26
-70 89 -141 171 -194 75 -48 86 -70 75 -152 -16 -112 -87 -207 -196 -262 -62
-32 -178 -39 -248 -16 -66 22 -144 92 -172 154 -43 95 -52 110 -76 121 -43 19
-98 14 -127 -13 -50 -47 -48 -106 7 -222 88 -186 291 -296 515 -280 142 11
261 61 365 157 l56 51 52 -44 c104 -87 191 -129 303 -149 141 -24 303 7 409
80 123 85 234 277 212 365 -18 74 -114 102 -175 51 -17 -15 -37 -47 -47 -78
-24 -72 -110 -157 -183 -182 -78 -26 -187 -17 -264 20 -65 32 -140 107 -164
163 -20 47 -33 150 -22 179 4 12 32 37 61 56 240 155 247 386 14 467 -79 28
-272 36 -362 16z"/>
<path d="M7151 5986 c-56 -31 -69 -116 -23 -166 22 -24 51 -36 149 -64 153
-44 287 -96 383 -148 341 -186 605 -455 778 -796 75 -146 114 -256 147 -414
14 -68 33 -133 41 -146 42 -64 165 -53 194 19 17 39 3 136 -41 294 -149 527
-525 991 -1009 1244 -186 97 -464 192 -559 191 -20 -1 -47 -7 -60 -14z"/>
<path d="M13158 5975 c-221 -62 -492 -202 -703 -364 -104 -80 -295 -272 -372
-376 -181 -241 -308 -513 -363 -775 -11 -52 -20 -117 -20 -143 0 -42 5 -54 34
-83 45 -45 101 -47 146 -6 27 24 34 41 55 142 137 649 607 1164 1250 1370 177
57 174 55 191 97 20 47 12 99 -20 131 -34 35 -93 37 -198 7z"/>
</g>
</svg>
