<?xml version="1.0" standalone="no"?>
<!DOCTYPE svg PUBLIC "-//W3C//DTD SVG 20010904//EN"
 "http://www.w3.org/TR/2001/REC-SVG-20010904/DTD/svg10.dtd">
<svg version="1.0" xmlns="http://www.w3.org/2000/svg"
 width="1024.000000pt" height="1024.000000pt" viewBox="0 0 1024.000000 1024.000000"
 preserveAspectRatio="xMidYMid meet">
<metadata>
Created by potrace 1.16, written by Peter Selinger 2001-2019
</metadata>
<g transform="translate(0.000000,1024.000000) scale(0.100000,-0.100000)"
fill="#000000" stroke="none">
<path d="M3977 7048 c-68 -23 -92 -52 -82 -98 12 -54 58 -62 155 -25 25 9 53
24 63 32 23 21 22 68 -3 93 -25 25 -58 24 -133 -2z"/>
<path d="M5503 7005 c-61 -27 -103 -66 -103 -93 0 -32 38 -72 70 -72 40 0 153
71 164 104 8 21 6 32 -11 54 -26 35 -56 37 -120 7z"/>
<path d="M4773 6845 c-66 -20 -127 -60 -177 -116 -25 -28 -46 -55 -46 -60 0
-18 -27 -9 -51 17 -13 14 -42 37 -65 50 -187 110 -426 77 -542 -76 -34 -44
-36 -45 -84 -42 -103 8 -220 -81 -253 -190 l-11 -40 -90 -2 c-111 -2 -174 -28
-238 -96 -72 -77 -106 -166 -106 -281 l0 -50 -63 7 c-147 15 -313 -71 -377
-196 -20 -40 -21 -40 -78 -40 -173 -1 -304 -159 -304 -370 0 -113 26 -183 102
-282 21 -27 21 -28 3 -28 -65 0 -178 -129 -204 -233 -16 -63 -15 -191 1 -232
11 -28 9 -31 -17 -50 -67 -47 -131 -123 -153 -181 -44 -114 -27 -254 43 -351
27 -39 104 -107 129 -115 5 -2 -3 -28 -19 -58 -23 -45 -28 -67 -28 -125 0 -47
6 -82 18 -106 17 -34 17 -40 3 -74 -20 -48 -20 -138 0 -180 24 -52 82 -103
138 -122 79 -27 170 -22 316 20 223 63 382 91 615 106 83 6 530 13 995 15 465
3 1027 10 1250 17 424 12 1084 7 1370 -11 431 -26 601 -54 838 -135 127 -43
194 -46 267 -11 60 28 77 46 106 110 23 54 22 103 -4 155 -15 30 -14 31 19 56
57 44 87 106 92 195 5 85 -6 129 -43 184 l-24 35 29 53 c41 75 57 172 42 260
-18 105 -72 198 -139 239 -32 20 -33 22 -18 43 9 11 25 41 37 66 38 80 23 229
-31 299 -18 24 -18 24 21 75 126 166 63 399 -114 422 -40 6 -48 10 -48 28 0
36 -56 141 -96 181 -63 62 -134 90 -234 92 l-85 2 -6 75 c-16 191 -157 324
-354 334 -90 5 -164 -8 -226 -37 -47 -23 -46 -25 -52 86 -3 66 -10 94 -35 145
-76 154 -222 237 -392 225 -41 -4 -84 -9 -96 -12 -17 -5 -24 0 -33 23 -22 52
-98 122 -169 155 -59 28 -79 32 -173 35 -160 6 -257 -27 -355 -120 l-52 -49
-43 31 c-59 43 -138 64 -216 57 l-62 -5 -26 43 c-33 58 -97 110 -162 135 -63
23 -175 26 -240 5z m206 -134 c61 -32 101 -84 101 -133 0 -76 51 -98 130 -58
83 42 186 14 242 -65 51 -73 109 -72 147 3 63 124 248 198 396 157 99 -27 177
-107 162 -166 -8 -31 11 -66 44 -79 24 -10 36 -8 86 16 49 24 71 28 143 28 69
1 93 -3 126 -21 109 -58 168 -192 146 -328 -6 -42 -11 -50 -27 -48 -19 3 -86
-10 -117 -22 -11 -4 -23 10 -41 47 -57 116 -157 198 -301 245 -68 22 -99 26
-196 26 -124 0 -205 -16 -296 -59 -28 -13 -55 -24 -60 -24 -5 0 -18 13 -27 30
-10 16 -37 45 -60 63 -160 131 -385 154 -570 60 -48 -24 -132 -101 -172 -156
l-20 -27 -63 20 c-73 23 -187 26 -276 8 l-57 -11 -29 34 c-36 45 -116 88 -182
99 -136 21 -283 -52 -344 -172 -20 -40 -29 -48 -52 -48 -106 0 -279 -115 -337
-223 -15 -29 -27 -38 -55 -43 -97 -17 -190 -133 -190 -239 l0 -32 -93 5 c-153
8 -266 -36 -362 -140 -58 -63 -91 -134 -101 -221 -6 -52 -7 -53 -48 -64 -22
-6 -55 -16 -73 -24 -29 -12 -34 -11 -54 6 -92 84 -111 264 -37 366 55 76 141
102 195 59 14 -11 36 -20 49 -20 32 0 64 45 64 90 0 25 9 50 29 77 75 104 204
139 338 91 51 -18 67 -19 88 -10 43 20 51 53 30 121 -66 219 108 397 299 307
46 -22 59 -24 79 -15 33 15 47 48 40 97 -7 54 12 105 53 142 42 37 73 38 104
5 24 -25 71 -33 97 -17 7 5 20 31 28 58 29 99 112 156 236 162 126 6 202 -37
307 -177 50 -66 110 -47 136 43 34 118 133 196 248 196 38 0 72 -7 97 -19z
m387 -417 c86 -30 162 -91 199 -165 37 -72 93 -83 150 -29 51 48 191 90 298
90 128 0 236 -40 318 -117 55 -52 85 -107 95 -178 12 -92 61 -111 134 -50 76
63 168 55 202 -18 21 -43 54 -55 98 -37 37 15 86 8 146 -22 95 -47 164 -158
164 -264 0 -52 4 -64 25 -84 24 -23 28 -23 83 -12 114 24 176 9 242 -58 83
-82 94 -208 28 -302 -26 -38 -20 -86 14 -111 24 -18 31 -19 90 -8 141 27 270
-43 292 -157 11 -62 -12 -120 -71 -178 -29 -29 -53 -62 -53 -72 0 -29 37 -70
69 -77 39 -8 107 -69 131 -115 49 -96 31 -227 -41 -304 -21 -24 -39 -53 -39
-64 0 -11 18 -42 41 -68 48 -55 59 -81 59 -135 0 -68 -49 -134 -107 -145 -37
-7 -63 -36 -63 -71 0 -12 18 -43 40 -68 47 -55 51 -86 14 -120 -38 -35 -88
-32 -215 10 -205 70 -337 95 -634 119 -470 40 -827 43 -1990 20 -432 -8 -898
-12 -1045 -9 -305 7 -785 -8 -975 -30 -153 -18 -330 -54 -473 -95 -149 -43
-189 -46 -246 -22 -79 36 -94 113 -32 175 36 36 33 70 -9 114 -25 26 -35 45
-35 67 1 50 32 105 75 135 30 20 41 34 43 59 4 38 -34 82 -71 82 -32 0 -109
51 -142 93 -57 75 -67 185 -24 256 20 33 39 41 39 16 0 -29 50 -115 90 -155
46 -46 81 -52 117 -18 33 31 29 62 -17 112 -50 54 -70 101 -70 168 0 55 26
122 60 153 19 17 21 17 67 -19 52 -41 84 -45 113 -16 29 29 25 61 -17 115 -33
42 -38 55 -41 117 -5 85 14 140 65 192 51 50 98 63 176 47 61 -13 62 -13 84
14 28 32 28 40 2 90 -40 73 -5 186 78 254 96 79 252 94 366 36 54 -28 60 -29
85 -14 38 21 49 58 28 99 -31 62 -16 162 29 200 13 11 22 11 56 0 62 -21 91
-6 106 54 57 231 372 311 559 143 22 -19 49 -37 60 -41 34 -10 70 12 90 55 23
52 92 115 159 145 115 53 241 50 341 -7 87 -49 129 -36 149 46 15 68 111 150
208 180 60 19 174 18 233 -1z m-1116 -99 c28 -14 50 -27 50 -29 0 -2 -26 -30
-57 -63 l-58 -59 -40 23 c-22 13 -65 31 -95 40 -30 9 -57 18 -59 20 -11 8 33
53 71 72 59 29 126 28 188 -4z m2946 -219 c63 -29 110 -85 130 -155 14 -46 15
-64 4 -127 -11 -65 -11 -76 4 -98 21 -33 69 -41 125 -22 55 20 121 20 169 1
83 -35 123 -103 131 -220 6 -76 7 -80 34 -89 20 -7 37 -6 60 3 61 24 66 24 97
-7 24 -24 30 -39 30 -72 0 -52 -20 -98 -58 -134 l-31 -29 -63 17 c-35 9 -76
17 -93 18 -24 2 -29 7 -27 23 2 11 5 58 5 105 2 76 -2 92 -29 151 -62 130
-188 209 -336 209 -44 0 -48 2 -54 28 -15 71 -60 157 -112 213 -64 69 -146
114 -246 132 -79 15 -76 24 15 57 78 28 180 26 245 -4z m-4836 -1169 c0 -58
-2 -65 -24 -75 -13 -6 -26 -9 -29 -6 -14 14 30 144 49 144 2 0 4 -29 4 -63z"/>
<path d="M5060 6024 c-230 -22 -464 -64 -638 -114 -497 -144 -934 -401 -1293
-759 -300 -300 -498 -608 -613 -951 -58 -175 -90 -451 -58 -507 17 -30 59 -40
91 -22 25 14 26 18 32 149 7 151 28 255 85 407 110 296 295 574 554 833 437
437 988 712 1630 812 174 27 526 31 700 9 447 -57 869 -207 1218 -434 439
-286 773 -701 916 -1139 55 -168 70 -262 71 -438 0 -135 -3 -165 -23 -229 -13
-41 -21 -84 -18 -96 7 -28 48 -49 80 -41 30 8 47 37 72 131 29 108 27 372 -4
518 -79 370 -277 729 -561 1021 -521 534 -1231 834 -2011 850 -102 2 -205 2
-230 0z"/>
<path d="M4143 5346 c-80 -30 -93 -41 -93 -80 0 -68 40 -83 135 -51 97 32 122
79 70 130 -29 30 -33 30 -112 1z"/>
<path d="M5766 5339 c-31 -25 -35 -68 -7 -93 11 -10 47 -26 80 -37 67 -20 102
-15 120 20 29 53 0 90 -88 115 -72 20 -73 20 -105 -5z"/>
<path d="M3871 4445 c-55 -17 -106 -66 -127 -122 -59 -154 99 -317 251 -259
93 36 135 96 135 193 0 74 -29 128 -90 165 -56 34 -112 42 -169 23z"/>
<path d="M6226 4448 c-59 -16 -121 -83 -135 -146 -18 -84 2 -146 63 -200 129
-113 330 -19 328 154 -1 93 -58 169 -147 193 -46 13 -56 13 -109 -1z"/>
<path d="M4856 4286 c-30 -29 -32 -43 -12 -90 35 -85 120 -145 218 -153 77 -8
139 11 192 58 82 72 109 168 55 198 -40 22 -71 8 -99 -45 -32 -60 -68 -87
-117 -87 -54 0 -99 27 -123 71 -29 56 -33 60 -62 67 -21 5 -33 1 -52 -19z"/>
<path d="M6526 6798 c-41 -59 -8 -100 94 -119 81 -14 97 -9 119 36 29 60 -30
103 -146 104 -43 1 -55 -3 -67 -21z"/>
<path d="M3127 6752 c-24 -26 -21 -75 4 -98 17 -15 36 -19 94 -19 58 0 77 4
94 19 27 24 27 70 1 96 -28 28 -168 29 -193 2z"/>
<path d="M7452 6294 c-27 -19 -30 -74 -4 -97 26 -23 131 -67 162 -67 34 0 60
28 60 67 0 36 -17 52 -94 87 -67 30 -93 32 -124 10z"/>
<path d="M2406 6098 c-58 -43 -73 -70 -62 -113 7 -26 43 -42 81 -36 26 4 111
66 119 87 19 49 -11 104 -58 104 -13 0 -49 -19 -80 -42z"/>
<path d="M1989 5229 c-18 -18 -20 -28 -14 -67 15 -109 40 -152 89 -152 35 0
49 7 63 33 13 24 -13 165 -34 190 -22 24 -78 22 -104 -4z"/>
<path d="M8305 5220 c-33 -13 -48 -37 -42 -67 31 -155 43 -177 99 -175 47 1
72 34 64 87 -11 68 -37 134 -59 150 -24 17 -33 17 -62 5z"/>
<path d="M8410 4393 c-31 -11 -40 -37 -40 -119 0 -62 4 -87 16 -98 43 -44 108
-22 120 40 21 110 -29 201 -96 177z"/>
<path d="M1681 4066 c-7 -8 -17 -43 -23 -78 -19 -118 19 -181 95 -155 31 10
34 19 41 133 4 70 3 84 -13 98 -22 20 -84 21 -100 2z"/>
</g>
</svg>
