<?xml version="1.0" encoding="UTF-8" standalone="no"?>
<!DOCTYPE svg PUBLIC "-//W3C//DTD SVG 1.1//EN" "http://www.w3.org/Graphics/SVG/1.1/DTD/svg11.dtd">
<svg width="100%" height="100%" viewBox="0 0 1024 1024" version="1.1" xmlns="http://www.w3.org/2000/svg" xmlns:xlink="http://www.w3.org/1999/xlink" xml:space="preserve" xmlns:serif="http://www.serif.com/" style="fill-rule:evenodd;clip-rule:evenodd;stroke-linejoin:round;stroke-miterlimit:2;">
    <g transform="matrix(0.1,0,0,-0.1,0,1024)">
        <path d="M4880,7274C4756,7241 4688,7178 4618,7033C4546,6885 4507,6861 4335,6860C4232,6860 4105,6829 4019,6784C3945,6745 3848,6651 3818,6589C3809,6570 3777,6503 3747,6440C3690,6320 3679,6307 3526,6177C3495,6150 3470,6125 3470,6121C3470,6116 3487,6101 3508,6088L3545,6063L3615,6120C3733,6216 3787,6282 3832,6378C3912,6553 3923,6571 3969,6619C4059,6712 4158,6747 4355,6759C4446,6765 4509,6773 4535,6784C4599,6811 4648,6867 4702,6975C4760,7092 4785,7121 4860,7158C4907,7181 4927,7185 5005,7185C5087,7185 5102,7182 5163,7152C5200,7133 5256,7095 5288,7066C5398,6963 5472,6945 5634,6979C5807,7016 5912,7003 6010,6935C6063,6898 6096,6847 6126,6754C6158,6657 6171,6630 6212,6584C6250,6541 6314,6507 6400,6485C6492,6461 6544,6434 6589,6385C6631,6339 6660,6289 6680,6225C6696,6173 6696,6174 6757,6166L6808,6160L6788,6227C6728,6426 6637,6522 6458,6574C6410,6588 6358,6606 6342,6614C6291,6640 6252,6695 6229,6772C6201,6868 6168,6931 6124,6975C6006,7093 5837,7128 5615,7079C5486,7051 5454,7059 5355,7145C5314,7180 5258,7221 5231,7235C5123,7289 4992,7304 4880,7274Z" style="fill-rule:nonzero;"/>
        <path d="M4970,6613C4815,6597 4627,6540 4479,6463C4342,6392 4226,6305 4112,6186C4020,6089 3870,5878 3889,5872C3895,5870 3924,5876 3954,5884C4006,5899 4013,5906 4088,6003C4189,6133 4287,6225 4413,6308C4852,6596 5401,6586 5828,6283C5958,6191 6132,6005 6208,5878C6221,5858 6236,5840 6244,5837C6260,5831 6320,5868 6320,5884C6320,5905 6214,6054 6134,6144C6002,6294 5807,6436 5634,6509C5432,6595 5177,6635 4970,6613Z" style="fill-rule:nonzero;"/>
        <path d="M4887,6373C4884,6368 4865,6272 4845,6158C4804,5932 4804,5920 4861,5920C4893,5920 4893,5918 4919,6060C4965,6302 4971,6351 4959,6366C4947,6381 4894,6385 4887,6373Z" style="fill-rule:nonzero;"/>
        <path d="M5265,6366C5247,6353 5247,6348 5274,6154C5290,6044 5307,5947 5311,5938C5326,5910 5361,5905 5380,5928C5395,5946 5394,5962 5366,6151C5349,6263 5331,6361 5327,6368C5316,6384 5288,6383 5265,6366Z" style="fill-rule:nonzero;"/>
        <path d="M3131,6123C3065,6099 3010,6038 2976,5952C2943,5868 2904,5824 2853,5814C2833,5810 2777,5810 2727,5813C2571,5823 2457,5788 2380,5704C2324,5643 2293,5572 2280,5470C2274,5423 2264,5370 2258,5351C2244,5307 2190,5248 2135,5215C2050,5166 2002,5079 1980,4936C1966,4844 1953,4816 1888,4740C1818,4656 1796,4619 1775,4545C1752,4469 1760,4350 1794,4224C1820,4128 1901,3903 1943,3809L1968,3752L1923,3715C1865,3667 1830,3594 1830,3522C1830,3364 1928,3311 2325,3255C2982,3163 4015,3170 4674,3270C4990,3319 5094,3365 5130,3476C5153,3544 5129,3641 5075,3700L5052,3725L5113,3852C5172,3972 5190,3999 5190,3965C5190,3957 5210,3899 5235,3838L5280,3726L5241,3685C5185,3627 5168,3586 5168,3515C5168,3374 5241,3322 5513,3275C5859,3214 6281,3186 6830,3186C7336,3186 7605,3201 7959,3251C8296,3299 8389,3353 8390,3504C8390,3579 8364,3636 8305,3688C8280,3710 8264,3731 8269,3736C8296,3767 8422,4153 8451,4294C8469,4387 8471,4411 8462,4473C8448,4562 8424,4619 8366,4698C8291,4800 8278,4832 8268,4955C8254,5121 8235,5197 8190,5266C8142,5339 8090,5378 7976,5424C7861,5470 7831,5494 7766,5593C7642,5782 7514,5850 7282,5850C7133,5850 7096,5862 7035,5928C6866,6112 6822,6140 6696,6140C6559,6140 6473,6086 6394,5950C6309,5801 6262,5776 6126,5805C5964,5839 5852,5813 5770,5724C5720,5670 5699,5628 5661,5505C5626,5389 5603,5354 5527,5300C5474,5262 5423,5196 5400,5135C5393,5119 5380,5061 5370,5008C5348,4896 5345,4889 5276,4795C5247,4757 5211,4704 5196,4678L5169,4631L5195,4581C5209,4553 5222,4530 5224,4530C5226,4530 5242,4557 5260,4591C5277,4624 5319,4687 5353,4730C5423,4818 5443,4864 5470,4998C5494,5117 5522,5164 5612,5237C5696,5305 5734,5370 5763,5492C5807,5678 5914,5748 6093,5706C6272,5664 6387,5715 6466,5872C6526,5992 6591,6040 6691,6040C6785,6039 6839,6004 6933,5883C6977,5828 7002,5805 7047,5784C7099,5758 7116,5755 7259,5749C7499,5739 7568,5704 7677,5541C7711,5489 7749,5436 7762,5423C7789,5394 7862,5355 7937,5329C8047,5291 8113,5223 8146,5113C8154,5088 8164,5011 8169,4943C8180,4802 8199,4752 8289,4625C8391,4481 8391,4412 8283,4068C8257,3986 8233,3920 8230,3920C8226,3920 8220,3946 8216,3977C8205,4069 8141,4316 8098,4435C7877,5037 7450,5400 6893,5461C6418,5512 5933,5268 5642,4832C5542,4682 5472,4539 5414,4366C5375,4246 5320,4012 5320,3961C5320,3920 5305,3941 5273,4028C5241,4114 5241,4119 5247,4231C5252,4333 5250,4356 5230,4421C5218,4462 5184,4538 5155,4590C5092,4703 5074,4760 5065,4860C5041,5131 4927,5291 4693,5383C4600,5420 4560,5460 4485,5596C4410,5731 4348,5800 4267,5840C4170,5887 4109,5889 3941,5850C3756,5807 3723,5811 3660,5883C3478,6088 3411,6131 3265,6136C3200,6139 3163,6135 3131,6123ZM3366,6016C3431,5986 3487,5935 3547,5854C3647,5718 3738,5695 3953,5751C4057,5778 4141,5780 4202,5757C4269,5731 4344,5646 4407,5523C4472,5400 4529,5343 4638,5293C4771,5234 4783,5226 4831,5179C4913,5098 4950,5004 4970,4825C4983,4703 4998,4657 5063,4542C5178,4340 5179,4262 5069,3997C5045,3938 5022,3890 5019,3890C5015,3890 5010,3914 5006,3943C5002,3971 4983,4058 4964,4134C4831,4663 4541,5054 4126,5265C3928,5365 3759,5409 3535,5417C3410,5421 3364,5419 3261,5401C3038,5363 2848,5286 2677,5162C2571,5086 2398,4905 2321,4790C2241,4670 2140,4465 2095,4329C2058,4215 2010,4018 2010,3976C2010,3922 1993,3955 1942,4103C1869,4318 1857,4372 1863,4452C1870,4537 1902,4602 1975,4683C2037,4751 2065,4815 2080,4923C2095,5024 2122,5074 2189,5124C2326,5226 2361,5285 2380,5446C2395,5581 2448,5659 2551,5695C2580,5705 2635,5710 2729,5710C2804,5710 2882,5715 2904,5721C2959,5736 3029,5811 3059,5885C3106,6003 3152,6039 3255,6040C3298,6040 3330,6033 3366,6016ZM6998,5344C7159,5311 7317,5244 7458,5148C7563,5076 7722,4915 7798,4803C7868,4699 7975,4485 8014,4369C8074,4190 8128,3935 8146,3744C8152,3674 8152,3674 8196,3646C8247,3614 8290,3548 8290,3501C8290,3426 8203,3389 7935,3351C7370,3271 6556,3262 5880,3331C5537,3365 5343,3405 5294,3451C5244,3498 5271,3592 5349,3647C5387,3675 5387,3675 5394,3760C5402,3870 5435,4059 5466,4183C5618,4785 5990,5201 6490,5331C6646,5371 6837,5376 6998,5344ZM3765,5290C4163,5202 4519,4911 4720,4510C4829,4292 4899,4036 4925,3763C4931,3696 4934,3690 4970,3661C4993,3643 5015,3613 5025,3586C5072,3462 4974,3412 4580,3361C3856,3266 2884,3270 2250,3370C2010,3409 1930,3445 1930,3517C1930,3581 1992,3666 2057,3691C2075,3697 2080,3707 2080,3732C2080,3797 2121,4041 2151,4157C2302,4744 2684,5166 3168,5281C3301,5313 3364,5319 3520,5315C3623,5313 3694,5306 3765,5290Z" style="fill-rule:nonzero;"/>
        <path d="M6759,5154C6748,5141 6746,5088 6748,4906C6750,4779 6753,4667 6756,4658C6763,4634 6806,4624 6827,4641C6841,4653 6842,4681 6837,4898C6833,5064 6828,5146 6820,5156C6804,5175 6776,5174 6759,5154Z" style="fill-rule:nonzero;"/>
        <path d="M6439,5103C6412,5031 6339,4754 6342,4731C6345,4709 6350,4705 6380,4705L6414,4705L6472,4898C6535,5110 6536,5130 6479,5130C6456,5130 6447,5124 6439,5103Z" style="fill-rule:nonzero;"/>
        <path d="M7081,5111C7073,5097 7083,5046 7121,4904C7149,4800 7178,4709 7185,4701C7202,4684 7245,4693 7254,4716C7260,4732 7180,5057 7158,5106C7144,5136 7096,5140 7081,5111Z" style="fill-rule:nonzero;"/>
        <path d="M6075,4305C6024,4287 5965,4224 5949,4172C5891,3978 6138,3835 6280,3981C6358,4061 6356,4176 6276,4256C6216,4316 6151,4332 6075,4305Z" style="fill-rule:nonzero;"/>
        <path d="M7405,4308C7322,4278 7271,4205 7270,4118C7270,4060 7283,4024 7318,3986C7401,3898 7536,3901 7617,3993C7673,4057 7676,4172 7623,4237C7572,4301 7473,4333 7405,4308Z" style="fill-rule:nonzero;"/>
        <path d="M6552,3988C6529,3965 6539,3933 6580,3897C6647,3836 6695,3817 6792,3812C6873,3808 6883,3810 6942,3838C7006,3868 7080,3931 7080,3955C7080,3975 7051,4000 7030,4000C7019,4000 6995,3987 6977,3970C6875,3881 6756,3877 6651,3960C6599,4001 6573,4009 6552,3988Z" style="fill-rule:nonzero;"/>
        <path d="M7675,3866C7558,3814 7592,3650 7720,3650C7771,3650 7815,3689 7825,3743C7841,3826 7751,3900 7675,3866Z" style="fill-rule:nonzero;"/>
        <path d="M5805,3848C5777,3823 5763,3768 5774,3726C5785,3683 5829,3650 5877,3650C5979,3650 6029,3776 5953,3846C5917,3879 5842,3880 5805,3848Z" style="fill-rule:nonzero;"/>
        <path d="M3419,5153C3408,5141 3404,5078 3399,4891C3396,4755 3398,4637 3402,4627C3409,4614 3420,4610 3443,4612L3475,4615L3481,4720C3493,4913 3491,5145 3478,5158C3461,5175 3435,5173 3419,5153Z" style="fill-rule:nonzero;"/>
        <path d="M3081,5136C3063,5114 2982,4737 2991,4719C3002,4697 3035,4689 3054,4704C3063,4710 3088,4797 3116,4919C3162,5115 3163,5123 3145,5136C3121,5154 3096,5154 3081,5136Z" style="fill-rule:nonzero;"/>
        <path d="M3752,5128C3745,5121 3740,5112 3740,5108C3740,5092 3872,4745 3882,4733C3898,4714 3927,4718 3943,4741C3959,4763 3950,4797 3876,4995C3825,5130 3819,5140 3790,5140C3776,5140 3759,5135 3752,5128Z" style="fill-rule:nonzero;"/>
        <path d="M2768,4350C2655,4316 2599,4169 2659,4063C2714,3967 2817,3936 2916,3985C2970,4012 3000,4045 3018,4099C3071,4251 2925,4397 2768,4350Z" style="fill-rule:nonzero;"/>
        <path d="M4110,4347C4030,4309 3990,4249 3990,4164C3991,4068 4045,3995 4135,3970C4192,3954 4256,3967 4306,4005C4386,4066 4404,4201 4344,4277C4288,4348 4181,4380 4110,4347Z" style="fill-rule:nonzero;"/>
        <path d="M3268,4019C3231,3998 3253,3940 3322,3874C3389,3809 3423,3795 3515,3795C3601,3795 3644,3811 3710,3866C3748,3898 3790,3962 3790,3988C3790,4037 3741,4043 3703,3999C3626,3912 3589,3890 3512,3890C3453,3890 3384,3930 3351,3983C3323,4029 3301,4038 3268,4019Z" style="fill-rule:nonzero;"/>
        <path d="M2533,3878C2487,3866 2460,3827 2460,3773C2460,3718 2472,3695 2510,3675C2575,3642 2648,3669 2670,3735C2685,3781 2675,3821 2642,3852C2610,3882 2578,3890 2533,3878Z" style="fill-rule:nonzero;"/>
        <path d="M4403,3870C4300,3808 4380,3632 4495,3670C4549,3688 4575,3724 4575,3782C4575,3825 4571,3835 4542,3861C4503,3896 4451,3900 4403,3870Z" style="fill-rule:nonzero;"/>
        <g transform="matrix(1,0,0,1,-70,0)">
            <path d="M4488,5705C4485,5702 4510,5647 4542,5582C4600,5466 4634,5427 4685,5418C4723,5411 4729,5525 4694,5592C4669,5639 4620,5679 4566,5695C4513,5711 4496,5713 4488,5705Z" style="fill-rule:nonzero;"/>
        </g>
        <g transform="matrix(-1,0,0,1,10284.9,0)">
            <path d="M4488,5705C4485,5702 4510,5647 4542,5582C4600,5466 4634,5427 4685,5418C4723,5411 4729,5525 4694,5592C4669,5639 4620,5679 4566,5695C4513,5711 4496,5713 4488,5705Z" style="fill-rule:nonzero;"/>
        </g>
        <path d="M4952,5338C4916,5302 4959,5244 5055,5199C5140,5158 5231,5158 5315,5199C5392,5236 5433,5278 5428,5316C5423,5360 5383,5360 5327,5317C5235,5247 5140,5247 5042,5316C4992,5352 4971,5357 4952,5338Z" style="fill-rule:nonzero;"/>
    </g>
</svg>
