<?xml version="1.0" standalone="no"?>
<!DOCTYPE svg PUBLIC "-//W3C//DTD SVG 20010904//EN"
 "http://www.w3.org/TR/2001/REC-SVG-20010904/DTD/svg10.dtd">
<svg version="1.0" xmlns="http://www.w3.org/2000/svg"
 width="1024.000000pt" height="1024.000000pt" viewBox="0 0 1024.000000 1024.000000"
 preserveAspectRatio="xMidYMid meet">
<metadata>
Created by potrace 1.16, written by Peter Selinger 2001-2019
</metadata>
<g transform="translate(0.000000,1024.000000) scale(0.100000,-0.100000)"
fill="#000000" stroke="none">
<path d="M4905 7332 c-22 -10 -55 -36 -74 -57 -35 -41 -81 -128 -81 -157 0
-29 -18 -30 -73 -5 -230 109 -443 62 -492 -108 -10 -35 -14 -70 -10 -93 9 -56
58 -135 110 -178 25 -21 45 -42 45 -46 0 -4 -21 -16 -46 -27 -137 -61 -204
-177 -170 -295 18 -61 61 -106 131 -137 44 -20 73 -23 235 -29 250 -9 264 -16
294 -164 19 -94 19 -86 1 -86 -29 0 -180 -63 -248 -104 -137 -82 -263 -234
-321 -387 -126 -336 -42 -793 260 -1399 107 -214 231 -428 315 -541 194 -263
390 -262 560 3 182 284 459 1017 524 1386 57 329 3 589 -165 791 -86 101 -223
192 -360 236 -30 10 -58 20 -62 24 -9 9 31 131 53 163 32 44 131 86 234 98
235 28 291 44 348 98 68 64 89 180 48 261 -34 65 -120 127 -223 160 -21 7 -38
14 -38 15 0 1 20 38 45 82 74 129 94 239 60 322 -70 167 -294 172 -512 11
l-52 -39 -20 37 c-58 113 -130 171 -223 179 -39 4 -64 0 -93 -14z m155 -306
c61 -121 85 -146 139 -146 40 0 72 17 164 88 102 79 200 128 232 116 39 -16
10 -93 -99 -258 -79 -118 -88 -148 -65 -200 14 -30 36 -39 171 -64 113 -21
178 -51 178 -82 0 -25 -45 -39 -165 -51 -361 -35 -454 -109 -551 -437 -2 -8
-16 -12 -36 -10 -32 3 -32 4 -49 88 -24 120 -53 190 -96 232 -76 74 -173 98
-399 98 -106 0 -145 3 -160 14 -42 32 30 79 176 116 122 31 148 45 159 87 18
66 -4 97 -139 193 -41 29 -90 66 -107 83 -37 35 -43 72 -13 82 35 11 152 -26
274 -86 65 -33 128 -59 138 -59 31 0 76 31 87 59 6 14 17 58 25 96 23 109 46
159 70 152 6 -1 36 -51 66 -111z m125 -1281 c230 -48 414 -227 455 -442 20
-101 8 -316 -24 -458 -72 -314 -229 -741 -397 -1082 -101 -204 -136 -235 -204
-181 -56 44 -259 386 -374 631 -318 675 -344 1122 -80 1371 81 77 201 140 304
160 93 19 234 19 320 1z"/>
<path d="M4705 5546 c-83 -36 -132 -114 -101 -161 33 -50 123 -21 173 54 30
44 30 85 1 105 -27 19 -34 19 -73 2z"/>
<path d="M5223 5090 c-28 -11 -43 -40 -43 -83 0 -45 34 -77 84 -77 86 0 121
116 45 155 -31 17 -54 18 -86 5z"/>
<path d="M4697 5050 c-30 -24 -40 -60 -27 -96 15 -38 38 -53 82 -54 28 0 42 7
62 31 14 17 26 39 26 49 0 74 -85 116 -143 70z"/>
<path d="M5392 4870 c-86 -53 -53 -135 43 -109 65 18 106 84 73 117 -18 18
-79 14 -116 -8z"/>
<path d="M4516 4814 c-24 -24 -19 -50 15 -78 53 -45 174 -28 155 21 -3 8 -6
19 -6 24 0 5 -15 18 -32 29 -40 24 -110 26 -132 4z"/>
<path d="M5065 4808 c-11 -6 -29 -19 -41 -29 -20 -19 -21 -18 -54 6 -66 49
-150 20 -150 -51 1 -45 34 -109 75 -140 80 -61 216 -37 272 47 36 55 43 129
14 158 -23 23 -82 28 -116 9z"/>
</g>
</svg>
