<?xml version="1.0" encoding="UTF-8" standalone="no"?>
<!DOCTYPE svg PUBLIC "-//W3C//DTD SVG 1.1//EN" "http://www.w3.org/Graphics/SVG/1.1/DTD/svg11.dtd">
<svg width="100%" height="100%" viewBox="0 0 1024 1024" version="1.1" xmlns="http://www.w3.org/2000/svg" xmlns:xlink="http://www.w3.org/1999/xlink" xml:space="preserve" xmlns:serif="http://www.serif.com/" style="fill-rule:evenodd;clip-rule:evenodd;stroke-linejoin:round;stroke-miterlimit:2;">
    <g transform="matrix(0.1,0,0,-0.1,0,1024)">
        <path d="M5595,7304C5485,7280 5389,7229 5311,7152C5245,7087 5180,6980 5180,6938C5180,6928 5176,6920 5170,6920C5165,6920 5160,6924 5160,6929C5160,6935 5135,6966 5105,6998C5010,7101 4878,7157 4703,7167C4604,7173 4602,7172 4576,7147C4545,7116 4543,7077 4570,7050C4587,7033 4603,7030 4668,7030C4806,7030 4922,6987 5003,6905C5056,6852 5097,6774 5106,6709L5112,6664L5029,6647C4783,6599 4609,6431 4493,6130C4473,6078 4444,6001 4428,5960C4391,5864 4347,5793 4235,5645C4033,5379 3916,5175 3866,4998C3800,4766 3814,4531 3905,4351C4039,4084 4306,3910 4715,3824C4864,3792 5179,3780 5337,3799C5706,3845 5964,3955 6158,4150C6351,4343 6446,4619 6419,4905C6396,5150 6316,5338 6105,5634C5949,5854 5932,5885 5870,6064C5792,6291 5740,6381 5628,6485C5535,6572 5375,6650 5289,6650C5254,6650 5240,6674 5240,6734L5240,6780L5284,6780C5345,6780 5463,6804 5532,6830C5691,6889 5801,7034 5817,7206C5822,7264 5821,7270 5797,7294C5775,7316 5762,7320 5718,7319C5689,7319 5634,7312 5595,7304ZM5680,7176C5680,7154 5633,7072 5601,7037C5556,6988 5500,6958 5415,6935C5348,6918 5320,6916 5320,6928C5320,6933 5337,6963 5358,6996C5412,7079 5475,7124 5590,7161C5643,7178 5680,7184 5680,7176ZM5353,6495C5541,6430 5642,6305 5745,6010C5813,5815 5839,5769 6037,5489C6178,5289 6248,5131 6276,4946C6304,4768 6279,4609 6200,4444C6110,4257 5937,4108 5712,4023C5539,3958 5341,3926 5110,3926C4919,3926 4801,3940 4640,3982C4093,4123 3854,4504 4007,4989C4058,5151 4136,5284 4345,5565C4482,5750 4528,5834 4609,6049C4671,6211 4727,6305 4812,6386C4920,6489 5045,6534 5199,6525C5251,6522 5310,6510 5353,6495Z" style="fill-rule:nonzero;"/>
        <path d="M5694,5200C5656,5175 5635,5130 5636,5073C5638,4977 5737,4912 5818,4954C5869,4981 5893,5016 5898,5072C5905,5160 5851,5220 5765,5220C5742,5220 5712,5211 5694,5200Z" style="fill-rule:nonzero;"/>
        <path d="M4371,5092C4239,5025 4281,4830 4427,4830C4503,4830 4566,4906 4557,4987C4552,5037 4522,5075 4473,5096C4431,5114 4412,5114 4371,5092Z" style="fill-rule:nonzero;"/>
        <path d="M5250,5097C5236,5090 5222,5070 5216,5051C5211,5033 5192,5002 5175,4984C5146,4953 5137,4950 5089,4950C5026,4950 5000,4965 4964,5021C4902,5119 4798,5084 4830,4976C4837,4954 4861,4918 4890,4889C5025,4755 5251,4798 5331,4974C5353,5022 5355,5058 5337,5082C5319,5105 5279,5113 5250,5097Z" style="fill-rule:nonzero;"/>
    </g>
</svg>
