<?xml version="1.0" standalone="no"?>
<!DOCTYPE svg PUBLIC "-//W3C//DTD SVG 20010904//EN"
 "http://www.w3.org/TR/2001/REC-SVG-20010904/DTD/svg10.dtd">
<svg version="1.0" xmlns="http://www.w3.org/2000/svg"
 width="1024.000000pt" height="1024.000000pt" viewBox="0 0 1024.000000 1024.000000"
 preserveAspectRatio="xMidYMid meet">
<metadata>
Created by potrace 1.16, written by Peter Selinger 2001-2019
</metadata>
<g transform="translate(0.000000,1024.000000) scale(0.100000,-0.100000)"
fill="#000000" stroke="none">
<path d="M5010 6529 c-76 -41 -151 -118 -217 -221 l-55 -87 -94 -21 c-157 -36
-307 -105 -422 -194 -68 -52 -186 -175 -231 -239 -50 -73 -108 -204 -133 -297
-12 -47 -23 -87 -24 -88 -1 -2 -22 5 -47 16 -65 29 -115 85 -158 178 -41 88
-58 104 -111 104 -58 0 -104 -61 -128 -171 -13 -57 -10 -257 4 -290 5 -12 -16
-28 -86 -70 -186 -109 -321 -275 -378 -467 -17 -54 -28 -76 -44 -82 -44 -16
-49 -34 -43 -143 28 -450 340 -836 764 -944 63 -17 163 -18 1403 -18 l1335 0
85 23 c399 107 703 477 752 917 13 114 7 151 -25 166 -19 8 -25 23 -34 83 -44
272 -209 494 -459 617 l-81 39 -22 85 c-48 181 -177 324 -293 325 -64 0 -78
-23 -78 -132 0 -102 -15 -141 -65 -174 -31 -21 -37 -15 -60 56 -52 158 -137
292 -263 411 -132 125 -284 207 -453 245 -149 34 -148 33 -164 64 -21 41 -19
99 6 166 45 120 22 174 -75 174 -38 0 -65 -8 -106 -31z m70 -102 c0 -2 -7 -25
-16 -51 -12 -34 -15 -69 -12 -122 8 -126 57 -172 219 -205 297 -60 561 -274
659 -535 39 -105 42 -98 -52 -112 -341 -54 -677 -294 -830 -596 -16 -32 -33
-55 -37 -50 -4 5 -34 49 -66 98 -112 171 -256 297 -442 389 -121 59 -119 53
-78 207 40 147 97 258 198 382 50 62 58 91 29 107 -29 16 -61 -7 -124 -89
-101 -131 -188 -328 -204 -463 -4 -32 -10 -59 -13 -61 -4 -3 -31 2 -61 10 -30
8 -107 19 -170 25 -63 6 -116 12 -117 13 -1 1 4 30 12 65 45 191 191 388 378
509 97 62 177 96 313 133 66 17 131 40 145 50 15 10 46 51 70 91 42 71 166
208 188 208 6 0 11 -1 11 -3z m1273 -859 c47 -59 72 -111 102 -215 15 -51 49
-128 81 -185 94 -167 134 -303 134 -459 l0 -79 -214 0 -213 0 43 86 c47 94 79
216 90 340 7 93 -3 124 -41 124 -33 0 -36 -8 -40 -103 -7 -137 -54 -287 -127
-399 l-30 -48 -519 0 -519 0 26 58 c108 246 341 458 604 550 89 31 167 46 285
57 39 4 91 13 117 21 104 33 185 147 176 246 -3 26 -2 48 3 48 4 0 23 -19 42
-42z m-2819 -81 c10 -41 84 -134 133 -166 77 -51 158 -71 338 -81 187 -10 277
-31 412 -95 123 -58 192 -105 287 -195 94 -89 216 -265 216 -310 0 -7 -171 -9
-547 -8 l-548 3 -32 60 c-41 76 -69 161 -83 250 -12 75 -23 95 -51 95 -31 0
-39 -30 -28 -105 12 -87 34 -164 70 -242 l28 -63 -165 0 -164 0 0 85 c0 110
21 213 71 345 l40 105 -7 127 c-6 127 0 218 16 218 4 0 10 -10 14 -23z m3239
-410 c60 -50 125 -134 165 -214 29 -56 72 -189 72 -220 0 -10 -27 -13 -108
-13 l-109 0 -7 118 c-7 124 -31 246 -65 325 -12 27 -21 51 -21 53 0 8 22 -7
73 -49z m-3465 -134 c-12 -41 -22 -116 -25 -190 l-6 -123 -118 0 -119 0 24 66
c14 37 41 91 61 120 37 53 177 194 194 194 4 0 0 -30 -11 -67z m3754 -483
c-10 -139 -73 -314 -162 -448 -125 -190 -301 -322 -494 -372 -77 -20 -109 -20
-1388 -20 -1450 0 -1376 -3 -1525 65 -94 43 -153 84 -236 164 -124 119 -201
241 -250 397 -27 85 -52 238 -42 254 4 7 714 9 2053 8 l2047 -3 -3 -45z"/>
<path d="M4885 5947 c-16 -12 -17 -23 -11 -98 14 -172 69 -442 97 -475 15 -18
43 -18 58 -1 8 10 3 46 -19 143 -28 124 -60 333 -60 394 0 19 -7 33 -19 40
-25 13 -24 13 -46 -3z"/>
<path d="M5177 5953 c-14 -13 -7 -51 14 -77 24 -31 331 -310 365 -332 40 -27
77 10 50 51 -8 12 -63 66 -123 121 -59 54 -142 132 -184 172 -69 66 -103 84
-122 65z"/>
<path d="M6015 5124 c-38 -31 -98 -76 -131 -100 -34 -24 -65 -51 -68 -60 -8
-21 11 -54 30 -54 38 0 294 198 294 227 0 15 -28 43 -43 43 -7 0 -43 -25 -82
-56z"/>
<path d="M3830 5106 c-28 -34 -8 -58 110 -128 63 -38 143 -83 178 -100 l63
-31 21 20 c29 30 11 56 -65 94 -34 17 -110 60 -168 95 -59 35 -111 64 -117 64
-5 0 -15 -7 -22 -14z"/>
</g>
</svg>
