<?xml version="1.0" standalone="no"?>
<!DOCTYPE svg PUBLIC "-//W3C//DTD SVG 20010904//EN"
 "http://www.w3.org/TR/2001/REC-SVG-20010904/DTD/svg10.dtd">
<svg version="1.0" xmlns="http://www.w3.org/2000/svg"
 width="1024.000000pt" height="1024.000000pt" viewBox="0 0 1024.000000 1024.000000"
 preserveAspectRatio="xMidYMid meet">
<metadata>
Created by potrace 1.16, written by Peter Selinger 2001-2019
</metadata>
<g transform="translate(0.000000,1024.000000) scale(0.100000,-0.100000)"
fill="#000000" stroke="none">
<path d="M4984 7408 c-16 -12 -101 -92 -189 -178 -288 -281 -331 -312 -661
-481 -276 -141 -373 -195 -501 -281 -303 -202 -505 -440 -610 -718 -82 -217
-84 -491 -4 -648 l20 -39 -69 -26 c-252 -93 -401 -344 -349 -587 20 -91 90
-161 188 -186 44 -11 47 -13 66 -70 30 -85 48 -115 98 -165 l45 -44 5 -220 c7
-278 29 -387 107 -533 112 -210 344 -362 652 -427 291 -62 573 -85 1148 -92
1519 -19 2116 124 2306 553 52 118 67 212 67 417 0 185 0 187 22 187 98 0 211
84 263 197 80 174 61 441 -45 633 -42 77 -129 186 -189 239 l-43 38 38 75
c167 333 34 807 -311 1106 -187 162 -400 275 -818 432 -184 70 -403 171 -477
221 -80 54 -167 133 -419 381 -222 219 -244 238 -276 238 -21 0 -47 -9 -64
-22z m290 -397 c121 -121 241 -236 266 -257 125 -104 290 -191 545 -289 409
-156 567 -231 724 -343 172 -123 283 -247 364 -409 101 -199 109 -447 20 -589
l-26 -40 -511 -23 c-974 -42 -1530 -50 -2106 -31 -349 12 -1309 59 -1328 65
-22 8 -80 143 -92 217 -16 90 -7 192 26 306 103 360 392 649 909 909 174 88
398 209 463 250 74 48 205 160 367 317 77 74 144 135 149 135 4 1 108 -98 230
-218z m-1784 -2096 c1162 -70 1881 -78 2940 -30 179 8 400 18 491 21 l166 7
54 -29 c29 -16 90 -65 134 -109 67 -66 89 -96 127 -175 56 -115 69 -169 69
-275 1 -173 -61 -285 -157 -285 -92 0 -197 92 -235 208 -24 75 -40 98 -74 106
-37 9 -72 -9 -134 -72 -192 -191 -466 -162 -551 59 -24 61 -51 89 -87 89 -38
0 -59 -16 -105 -77 -177 -240 -446 -322 -620 -190 -53 40 -82 82 -110 160 -18
49 -27 62 -56 74 -44 18 -66 10 -127 -48 -107 -101 -279 -143 -428 -104 -85
22 -135 51 -165 97 -46 68 -68 88 -102 88 -47 0 -67 -15 -102 -78 -63 -111
-168 -189 -284 -212 -133 -26 -274 48 -303 158 -34 125 -124 132 -207 17 -24
-35 -70 -87 -101 -115 -216 -198 -473 -134 -508 127 -10 76 -20 85 -106 94
-57 7 -78 13 -97 32 -31 31 -40 78 -30 145 25 158 173 290 361 321 75 12 78
12 347 -4z m1194 -814 c174 -58 361 -44 528 39 l60 30 21 -27 c62 -79 105
-116 181 -153 163 -81 319 -76 501 14 59 29 115 67 158 106 l67 62 57 -52
c105 -96 218 -136 362 -128 98 6 179 32 263 83 31 19 58 35 60 35 3 0 20 -23
38 -51 18 -28 59 -71 91 -96 l57 -45 8 -96 c9 -125 -1 -332 -20 -401 -51 -184
-188 -316 -405 -390 -205 -70 -515 -116 -936 -141 -223 -13 -1109 -13 -1328 0
-645 39 -965 139 -1123 352 -100 135 -125 227 -131 479 l-5 197 78 0 c143 1
277 62 390 178 l53 54 23 -31 c33 -45 130 -106 205 -129 173 -53 382 3 517
139 l58 58 55 -33 c31 -18 83 -42 117 -53z"/>
<path d="M5454 6505 c-8 -19 41 -106 88 -160 57 -65 130 -81 172 -39 24 23 20
78 -8 111 -28 33 -113 78 -177 92 -59 14 -69 13 -75 -4z"/>
<path d="M4810 6251 c-21 -40 19 -74 51 -45 23 21 24 28 3 48 -21 21 -41 20
-54 -3z"/>
<path d="M3944 6220 c-48 -11 -133 -61 -180 -106 -48 -48 -68 -101 -53 -142
13 -33 26 -42 63 -42 62 0 127 66 186 192 44 92 41 110 -16 98z"/>
<path d="M4541 5724 c-26 -21 -31 -33 -31 -69 0 -57 7 -73 41 -90 73 -38 149
6 149 85 0 87 -92 130 -159 74z"/>
<path d="M6145 5589 c-20 -37 -23 -150 -6 -201 14 -41 62 -88 91 -88 81 0 113
82 68 177 -23 49 -106 143 -126 143 -6 0 -19 -14 -27 -31z"/>
<path d="M5825 3686 c-116 -51 -83 -256 40 -256 39 0 83 27 101 62 26 50 15
132 -22 168 -35 34 -79 44 -119 26z m42 -148 c-3 -8 -6 -5 -6 6 -1 11 2 17 5
13 3 -3 4 -12 1 -19z"/>
<path d="M4102 3654 c-67 -47 -69 -198 -2 -234 28 -15 91 -15 119 0 35 18 63
90 55 142 -10 61 -58 108 -111 108 -21 0 -49 -7 -61 -16z m67 -111 c0 -5 -4
-17 -9 -28 -8 -18 -9 -17 -9 8 -1 15 4 27 9 27 6 0 10 -3 9 -7z"/>
<path d="M6510 3563 c-27 -10 -50 -48 -50 -85 0 -87 95 -123 153 -58 24 27 28
39 23 69 -9 60 -68 95 -126 74z"/>
<path d="M4764 3510 c-28 -11 -54 -48 -54 -77 0 -73 93 -187 188 -231 48 -23
70 -27 142 -27 104 1 170 28 242 102 105 108 118 218 28 238 -48 11 -69 -3
-114 -74 -53 -82 -93 -105 -171 -99 -66 6 -108 35 -140 98 -36 71 -70 91 -121
70z"/>
<path d="M3627 3412 c-22 -25 -21 -45 3 -67 17 -15 24 -16 45 -7 44 20 27 92
-23 92 -5 0 -16 -8 -25 -18z"/>
<path d="M2815 6968 c-50 -18 -114 -67 -142 -109 l-25 -39 -37 29 c-121 95
-266 93 -371 -5 -84 -79 -113 -183 -86 -308 30 -131 131 -267 341 -455 194
-175 225 -189 282 -128 72 75 255 415 309 572 32 97 43 223 23 292 -17 61 -89
137 -144 152 -49 13 -110 13 -150 -1z m125 -185 c19 -24 21 -37 17 -83 -9
-103 -81 -274 -197 -467 -30 -51 -59 -93 -65 -93 -18 0 -207 173 -268 245
-130 153 -152 281 -61 350 10 8 38 15 62 15 38 0 48 -5 91 -48 32 -32 54 -65
65 -100 18 -54 55 -92 88 -92 60 0 98 53 98 135 0 56 22 107 60 139 42 35 82
34 110 -1z"/>
</g>
</svg>
