<?xml version="1.0" standalone="no"?>
<!DOCTYPE svg PUBLIC "-//W3C//DTD SVG 20010904//EN"
 "http://www.w3.org/TR/2001/REC-SVG-20010904/DTD/svg10.dtd">
<svg version="1.0" xmlns="http://www.w3.org/2000/svg"
 width="1024.000000pt" height="1024.000000pt" viewBox="0 0 1024.000000 1024.000000"
 preserveAspectRatio="xMidYMid meet">
<metadata>
Created by potrace 1.16, written by Peter Selinger 2001-2019
</metadata>
<g transform="translate(0.000000,1024.000000) scale(0.100000,-0.100000)"
fill="#000000" stroke="none">
<path d="M4340 6680 c-69 -3 -130 -8 -137 -13 -14 -9 -45 -88 -79 -202 -73
-238 -73 -499 0 -711 85 -251 269 -458 516 -584 83 -41 209 -84 283 -95 l47
-7 0 -400 c0 -430 -4 -480 -56 -617 -63 -166 -167 -274 -362 -375 -137 -71
-156 -88 -171 -156 -19 -86 19 -140 119 -170 294 -88 902 -87 1183 1 108 34
148 102 112 195 -20 54 -48 75 -186 142 -216 106 -337 267 -383 512 -13 66
-16 160 -16 475 l0 392 43 7 c257 40 538 219 680 434 165 247 218 521 161 823
-22 115 -81 295 -108 326 l-24 28 -748 0 c-412 0 -805 -2 -874 -5z m1491 -247
c52 -136 72 -322 49 -460 -73 -454 -502 -756 -948 -668 -160 32 -353 152 -465
290 -60 74 -131 217 -153 310 -28 112 -23 304 9 429 15 54 32 104 38 112 10
12 130 14 735 14 l724 0 11 -27z m-701 -2628 c44 -76 114 -151 204 -215 l77
-55 -38 -9 c-21 -5 -139 -10 -263 -10 -214 -1 -340 7 -340 22 0 4 18 17 40 30
76 43 174 137 225 216 27 42 53 76 56 76 4 0 22 -25 39 -55z"/>
<path d="M4522 6164 c-39 -27 -55 -70 -47 -131 25 -198 183 -423 297 -423 56
0 98 43 98 100 0 37 -6 47 -62 103 -75 74 -113 146 -132 247 -11 58 -21 80
-41 97 -31 27 -81 30 -113 7z"/>
</g>
</svg>
