<?xml version="1.0" standalone="no"?>
<!DOCTYPE svg PUBLIC "-//W3C//DTD SVG 20010904//EN"
 "http://www.w3.org/TR/2001/REC-SVG-20010904/DTD/svg10.dtd">
<svg version="1.0" xmlns="http://www.w3.org/2000/svg"
 width="1024.000000pt" height="1024.000000pt" viewBox="0 0 1024.000000 1024.000000"
 preserveAspectRatio="xMidYMid meet">
<metadata>
Created by potrace 1.16, written by Peter Selinger 2001-2019
</metadata>
<g transform="translate(0.000000,1024.000000) scale(0.100000,-0.100000)"
fill="#000000" stroke="none">
<path d="M5280 7053 c-460 -31 -812 -110 -1245 -280 -445 -175 -914 -458
-1310 -792 -122 -103 -359 -335 -460 -451 -334 -383 -436 -629 -342 -823 32
-65 114 -145 185 -181 131 -67 351 -103 555 -92 111 6 117 5 117 -14 0 -10 12
-56 26 -102 183 -583 766 -978 1615 -1092 271 -37 539 -43 1074 -26 750 25
1040 68 1368 207 418 176 693 474 824 893 20 63 37 116 39 118 1 2 35 -9 76
-24 64 -25 87 -28 188 -28 102 -1 120 2 165 23 122 61 176 153 183 316 19 445
-412 1159 -988 1637 -510 423 -1092 664 -1708 707 -144 10 -257 12 -362 4z
m590 -296 c226 -42 396 -92 595 -177 294 -125 619 -345 894 -607 l104 -99 -28
-69 c-33 -83 -44 -189 -25 -236 17 -41 51 -53 95 -35 35 15 91 83 101 123 4
13 9 23 13 23 3 0 27 -29 52 -63 203 -272 347 -563 395 -798 27 -137 4 -189
-87 -189 -81 0 -186 42 -459 183 -360 186 -493 250 -670 324 -527 220 -1069
327 -1496 295 -389 -30 -665 -106 -1358 -374 -593 -229 -854 -306 -1176 -343
-299 -35 -557 -1 -631 83 -28 32 -31 40 -27 88 16 195 542 768 1023 1115 571
412 1207 674 1850 763 169 24 174 24 445 21 219 -3 274 -7 390 -28z m-129
-1597 c372 -37 748 -147 1184 -347 109 -49 526 -263 544 -279 12 -10 -58 -225
-104 -319 -177 -357 -491 -576 -959 -670 -229 -45 -423 -60 -1031 -76 -674
-19 -974 5 -1313 102 -503 144 -847 421 -988 797 -40 105 -40 104 79 131 197
45 531 151 767 244 743 293 1043 383 1400 420 79 8 325 6 421 -3z"/>
<path d="M5583 6663 c-41 -62 -3 -205 75 -286 68 -71 125 -85 167 -42 85 84
-57 355 -186 355 -31 0 -42 -5 -56 -27z"/>
<path d="M4524 6552 c-23 -15 -36 -54 -29 -90 21 -112 146 -241 233 -242 13 0
34 12 49 26 22 23 25 32 21 80 -9 107 -129 234 -222 234 -22 0 -46 -4 -52 -8z"/>
<path d="M6637 6409 c-78 -45 -75 -297 4 -363 59 -50 110 -26 135 61 47 163
-43 358 -139 302z"/>
<path d="M5973 6085 c-51 -36 -74 -193 -44 -298 34 -119 140 -156 187 -66 53
103 25 312 -48 363 -28 20 -67 20 -95 1z"/>
<path d="M3393 6051 c-147 -38 -3 -271 167 -271 71 0 103 66 66 139 -15 29
-80 92 -114 110 -30 16 -95 28 -119 22z"/>
<path d="M4880 6023 c-20 -25 -22 -37 -18 -105 11 -196 174 -360 252 -255 17
23 21 41 19 90 -2 76 -22 135 -69 204 -63 92 -141 120 -184 66z"/>
<path d="M6875 5792 c-63 -13 -108 -114 -109 -247 0 -74 3 -97 21 -131 24 -44
38 -54 82 -54 33 0 64 27 93 83 20 36 23 57 23 157 0 90 -4 122 -17 146 -18
33 -59 53 -93 46z"/>
<path d="M3769 5641 c-22 -18 -24 -27 -23 -103 0 -69 5 -93 28 -146 64 -140
180 -185 223 -84 13 31 14 48 5 101 -29 174 -153 297 -233 232z"/>
<path d="M2827 5398 c-62 -48 -28 -178 72 -278 88 -88 169 -112 216 -65 52 51
17 170 -75 266 -75 76 -169 110 -213 77z"/>
<path d="M7500 5311 c-71 -75 -94 -258 -40 -316 47 -50 110 -23 154 68 87 177
-1 367 -114 248z"/>
<path d="M5710 4834 c-57 -48 -75 -97 -75 -204 0 -79 4 -103 23 -142 30 -60
71 -90 131 -95 61 -6 107 24 141 92 21 42 25 64 25 140 0 76 -4 98 -25 140
-32 64 -77 95 -141 95 -37 0 -55 -6 -79 -26z"/>
<path d="M4835 4831 c-65 -29 -105 -116 -105 -225 0 -95 22 -156 71 -201 35
-31 45 -35 93 -35 64 0 103 27 139 94 32 61 32 212 -1 278 -13 27 -37 58 -54
70 -33 23 -110 34 -143 19z"/>
<path d="M6260 4260 c-93 -32 -130 -96 -100 -174 12 -33 78 -66 145 -73 64 -7
152 17 194 53 28 23 31 31 31 84 0 71 -18 93 -94 115 -65 20 -109 18 -176 -5z"/>
<path d="M4135 4234 c-78 -28 -108 -101 -70 -173 41 -81 249 -96 335 -25 27
23 30 31 30 84 0 53 -3 61 -30 84 -17 14 -47 30 -68 36 -52 14 -149 11 -197
-6z"/>
<path d="M5550 4180 c-14 -4 -52 -24 -85 -44 -114 -70 -182 -71 -305 -7 -95
49 -128 56 -171 38 -57 -24 -84 -62 -84 -115 0 -60 21 -89 101 -142 189 -125
418 -123 607 3 74 50 107 96 107 148 0 56 -18 86 -65 109 -44 21 -64 23 -105
10z"/>
</g>
</svg>
