<?xml version="1.0" standalone="no"?>
<!DOCTYPE svg PUBLIC "-//W3C//DTD SVG 20010904//EN"
 "http://www.w3.org/TR/2001/REC-SVG-20010904/DTD/svg10.dtd">
<svg version="1.0" xmlns="http://www.w3.org/2000/svg"
 width="1024.000000pt" height="1024.000000pt" viewBox="0 0 1024.000000 1024.000000"
 preserveAspectRatio="xMidYMid meet">
<metadata>
Created by potrace 1.16, written by Peter Selinger 2001-2019
</metadata>
<g transform="translate(0.000000,1024.000000) scale(0.100000,-0.100000)"
fill="#000000" stroke="none">
<path d="M5435 8208 c-184 -104 -459 -583 -591 -1028 -20 -69 -40 -128 -43
-132 -4 -5 -34 24 -66 63 -160 192 -474 452 -670 554 -101 53 -146 58 -171 20
-31 -48 0 -150 137 -456 138 -307 278 -669 260 -669 -4 0 -63 31 -131 70 -201
114 -424 199 -542 208 -84 6 -102 -6 -95 -59 7 -51 56 -125 233 -346 84 -105
190 -242 236 -305 83 -114 232 -347 226 -353 -2 -2 -46 9 -99 25 -211 62 -511
91 -594 56 -30 -13 -35 -20 -35 -50 0 -48 59 -110 278 -293 293 -243 512 -446
613 -564 l39 -46 -78 -50 c-164 -106 -302 -245 -419 -425 -59 -90 -143 -252
-143 -277 0 -17 -31 -28 -105 -35 -38 -4 -97 -12 -129 -18 l-59 -11 7 -145 c3
-81 11 -151 17 -158 6 -8 37 -19 68 -25 l58 -12 12 -88 c8 -54 10 -123 6 -180
-16 -224 36 -506 129 -702 87 -181 248 -366 417 -479 461 -309 1117 -319 1613
-27 356 211 614 560 708 959 29 124 36 419 14 559 -9 56 -14 107 -10 112 3 5
14 9 25 9 11 0 38 9 61 21 l41 21 -7 146 c-4 80 -9 149 -12 154 -3 4 -56 8
-118 8 l-113 0 -38 73 c-114 218 -271 392 -483 532 l-72 48 27 36 c55 74 151
190 268 324 388 447 464 542 492 616 17 44 17 44 -7 63 -20 16 -34 19 -70 14
-68 -9 -184 -51 -295 -105 -55 -27 -101 -48 -103 -46 -6 6 90 211 266 565 100
201 184 379 187 397 5 24 1 37 -15 53 -29 29 -60 22 -205 -50 -125 -63 -237
-138 -375 -253 -45 -38 -84 -66 -87 -63 -9 8 44 307 76 436 16 63 57 212 91
330 35 118 65 243 68 277 4 60 4 63 -22 74 -23 11 -33 9 -69 -8 -90 -44 -282
-235 -418 -417 l-44 -59 -7 34 c-24 121 -32 263 -33 619 -1 212 -2 395 -3 408
-2 27 -36 62 -59 62 -10 0 -27 -6 -38 -12z m-92 -665 c6 -239 21 -414 52 -610
l15 -92 -54 -103 c-120 -227 -236 -534 -301 -795 -16 -62 -32 -113 -37 -113
-4 0 -8 4 -8 8 0 5 -27 47 -60 93 l-60 84 0 135 c0 575 129 1091 388 1558 25
45 49 82 52 82 4 0 10 -111 13 -247z m-1017 -305 c182 -154 430 -434 420 -474
-12 -47 -37 -278 -44 -400 l-7 -132 -73 67 -73 66 -33 130 c-55 208 -148 464
-261 716 -30 67 -55 124 -55 127 0 6 19 -9 126 -100z m1480 -190 c-45 -153
-108 -493 -129 -706 l-14 -133 -40 -42 c-56 -59 -139 -166 -215 -277 -74 -109
-208 -332 -208 -348 0 -6 -5 -14 -11 -18 -30 -18 36 326 108 566 88 295 272
669 443 904 56 77 78 95 66 54z m-1777 -568 c326 -177 609 -433 804 -726 102
-154 187 -325 213 -429 7 -30 7 -29 -52 21 -123 105 -401 282 -472 300 -16 5
-36 33 -73 108 -110 218 -302 512 -448 686 -62 73 -74 90 -69 90 3 0 46 -22
97 -50z m2142 -102 c-95 -175 -366 -786 -532 -1202 -57 -142 -65 -157 -83
-151 -89 25 -184 46 -263 56 -51 7 -93 16 -93 21 0 22 135 300 204 418 167
287 348 523 557 726 108 104 240 216 247 209 2 -2 -15 -36 -37 -77z m-2105
-768 c228 -61 437 -157 644 -295 120 -79 280 -207 280 -223 0 -4 -41 -13 -91
-20 -50 -7 -137 -27 -193 -46 l-103 -33 -94 104 c-121 133 -441 429 -566 522
-25 18 -26 20 -8 21 11 0 70 -13 131 -30z m1978 -112 c-49 -51 -92 -95 -97
-96 -12 -6 42 112 56 121 57 36 123 73 126 70 2 -1 -36 -44 -85 -95z m-804
-608 c373 -39 736 -271 914 -581 l27 -47 -258 -5 c-277 -6 -349 -15 -472 -65
-64 -25 -146 -93 -182 -151 -13 -20 -18 -22 -35 -13 -68 36 -229 33 -319 -7
l-40 -18 -61 57 c-139 129 -316 153 -772 103 l-54 -6 22 42 c124 244 359 473
600 583 206 95 413 130 630 108z m939 -850 c46 -5 85 -11 87 -13 2 -2 9 -40
16 -85 26 -184 -40 -349 -164 -413 -125 -64 -377 -65 -522 0 -110 48 -179 153
-180 271 0 135 79 211 249 239 71 12 414 13 514 1z m-1608 -75 c102 -36 144
-99 143 -215 -1 -167 -96 -268 -302 -321 -95 -24 -252 -26 -332 -3 -133 37
-217 149 -227 301 -3 44 -3 105 1 135 l7 55 122 23 c265 49 491 59 588 25z
m614 -169 c20 -13 25 -25 25 -57 0 -48 32 -147 67 -206 34 -58 129 -144 195
-175 118 -56 183 -70 344 -76 117 -3 171 -1 235 12 97 20 209 69 262 116 21
18 39 31 42 29 8 -9 -29 -190 -56 -272 -157 -475 -545 -805 -1051 -892 -123
-22 -345 -21 -468 0 -369 64 -657 269 -813 580 -19 39 -47 108 -61 155 -25 81
-59 270 -50 279 2 3 21 -4 42 -13 216 -105 532 -91 767 32 160 84 265 254 265
429 0 31 5 36 53 59 43 21 63 24 114 21 35 -3 74 -12 88 -21z"/>
</g>
</svg>
