<?xml version="1.0" standalone="no"?>
<!DOCTYPE svg PUBLIC "-//W3C//DTD SVG 20010904//EN"
 "http://www.w3.org/TR/2001/REC-SVG-20010904/DTD/svg10.dtd">
<svg version="1.0" xmlns="http://www.w3.org/2000/svg"
 width="1024.000000pt" height="1024.000000pt" viewBox="0 0 1024.000000 1024.000000"
 preserveAspectRatio="xMidYMid meet">
<metadata>
Created by potrace 1.16, written by Peter Selinger 2001-2019
</metadata>
<g transform="translate(0.000000,1024.000000) scale(0.100000,-0.100000)"
fill="#000000" stroke="none">
<path d="M6435 9323 c-505 -44 -940 -161 -1181 -317 -249 -163 -417 -445 -464
-778 -7 -49 -16 -88 -20 -88 -4 0 -45 64 -91 142 -99 172 -181 300 -301 471
-68 96 -99 132 -128 147 -73 37 -155 21 -256 -52 -86 -62 -117 -155 -74 -225
10 -17 50 -69 87 -115 183 -225 467 -678 596 -951 80 -169 166 -420 148 -431
-4 -3 -78 22 -165 54 -458 173 -760 247 -1046 257 -515 17 -941 -206 -1270
-667 -233 -326 -384 -733 -446 -1206 -21 -163 -30 -612 -15 -784 42 -481 158
-895 369 -1318 327 -653 956 -1379 1522 -1756 315 -211 489 -228 728 -73 89
58 211 179 287 286 69 97 127 141 222 171 83 25 163 25 247 0 87 -27 140 -70
206 -166 82 -120 126 -169 208 -235 173 -139 361 -191 522 -144 256 76 688
443 1108 943 467 555 796 1172 950 1777 116 454 157 801 157 1310 0 281 -3
361 -19 460 -65 423 -215 734 -482 1000 -305 303 -671 447 -1139 446 -385 0
-847 -109 -1319 -312 -88 -37 -163 -66 -167 -64 -11 7 -31 225 -27 300 l3 69
112 13 c483 54 904 241 1180 524 193 199 336 469 389 732 23 116 28 316 11
442 -21 151 -12 145 -231 143 -94 -1 -189 -3 -211 -5z m307 -124 c10 -6 13
-55 12 -206 0 -183 -2 -205 -27 -295 -107 -390 -368 -700 -746 -888 -206 -103
-472 -178 -690 -196 l-83 -7 7 24 c39 128 136 270 283 417 116 116 128 138 95
174 -30 33 -67 23 -140 -41 -176 -152 -314 -361 -370 -561 -24 -86 -29 -345
-9 -483 16 -113 15 -147 -8 -147 -6 0 -47 15 -90 33 -77 31 -80 33 -83 67 -11
104 -91 343 -176 521 -133 283 -421 743 -602 964 -99 121 -100 122 -84 142 24
29 102 73 129 73 30 0 56 -25 124 -122 168 -241 315 -486 438 -731 58 -117 76
-137 122 -137 63 0 69 16 61 164 -10 204 27 410 104 566 145 298 351 447 766
555 229 60 484 100 725 115 156 9 226 9 242 -1z m281 -1873 c150 -31 226 -55
342 -110 376 -177 665 -535 780 -967 93 -352 93 -970 -1 -1534 -109 -656 -311
-1155 -698 -1730 -178 -264 -360 -486 -606 -738 -407 -418 -703 -616 -884
-592 -114 15 -273 108 -367 213 -23 26 -66 85 -97 131 -83 125 -167 185 -309
222 -96 24 -150 24 -248 -1 -139 -36 -246 -109 -316 -218 -54 -84 -174 -205
-258 -262 -190 -128 -321 -111 -602 79 -266 178 -568 459 -863 802 -307 357
-577 789 -728 1167 -221 555 -294 1168 -212 1799 62 484 260 948 538 1263 209
236 440 375 730 438 127 27 445 24 591 -6 295 -61 552 -147 1075 -362 283
-116 396 -137 558 -104 95 19 256 81 288 111 29 27 31 64 4 88 -27 25 -55 22
-134 -15 -129 -59 -274 -83 -371 -61 -29 7 -27 9 55 50 321 164 799 311 1140
350 52 6 111 13 130 15 93 11 345 -4 463 -28z"/>
<path d="M2923 6919 c-131 -65 -330 -314 -413 -517 -110 -270 -60 -482 113
-482 190 0 428 398 466 780 21 206 -37 283 -166 219z m47 -160 c0 -64 -37
-230 -75 -335 -47 -132 -108 -237 -182 -311 -94 -96 -139 -82 -136 42 3 113
55 241 161 401 57 85 202 244 222 244 6 0 10 -18 10 -41z"/>
<path d="M3882 5653 c-54 -26 -85 -76 -90 -142 -7 -92 40 -159 125 -180 148
-38 266 122 188 255 -43 74 -147 105 -223 67z"/>
<path d="M6111 5609 c-47 -28 -68 -56 -81 -108 -28 -109 51 -211 163 -211 146
0 227 179 130 285 -53 57 -150 72 -212 34z"/>
<path d="M5295 5165 c-14 -13 -25 -33 -25 -45 0 -26 -32 -90 -57 -112 -30 -27
-89 -48 -135 -48 -91 1 -170 64 -190 152 -12 56 -24 68 -64 68 -91 0 -79 -138
22 -250 20 -22 61 -52 92 -67 49 -24 69 -28 142 -28 78 0 90 3 148 34 89 48
148 131 167 233 6 31 3 41 -19 62 -31 32 -50 33 -81 1z"/>
</g>
</svg>
