<?xml version="1.0" standalone="no"?>
<!DOCTYPE svg PUBLIC "-//W3C//DTD SVG 20010904//EN"
 "http://www.w3.org/TR/2001/REC-SVG-20010904/DTD/svg10.dtd">
<svg version="1.0" xmlns="http://www.w3.org/2000/svg"
 width="1024.000000pt" height="1024.000000pt" viewBox="0 0 1024.000000 1024.000000"
 preserveAspectRatio="xMidYMid meet">
<metadata>
Created by potrace 1.16, written by Peter Selinger 2001-2019
</metadata>
<g transform="translate(0.000000,1024.000000) scale(0.100000,-0.100000)"
fill="#000000" stroke="none">
<path d="M3901 7275 c-180 -41 -293 -99 -415 -214 -144 -137 -239 -330 -254
-520 l-7 -83 -93 -33 c-304 -109 -496 -258 -592 -461 -115 -244 -91 -586 76
-1082 25 -73 61 -170 80 -215 18 -45 34 -84 34 -88 0 -3 -33 -18 -72 -34 -281
-109 -539 -300 -641 -475 -82 -141 -104 -311 -59 -455 112 -364 627 -661 1384
-799 865 -159 2144 -145 3178 35 316 55 523 104 745 176 562 183 835 421 835
728 0 142 -59 266 -189 396 -101 101 -208 174 -381 258 -69 33 -129 64 -135
69 -7 5 -7 77 -2 208 4 109 6 357 5 549 -4 398 3 362 -100 491 -231 292 -673
613 -1228 894 -133 67 -350 166 -457 209 -23 10 -35 23 -44 50 -21 68 -81 163
-139 221 -95 95 -255 160 -395 160 -129 0 -285 -60 -383 -145 l-52 -47 -38 34
c-83 75 -188 131 -307 165 -75 21 -277 26 -354 8z m308 -141 c91 -23 188 -74
253 -133 l54 -50 -30 -94 -31 -95 -60 5 c-36 3 -94 -1 -144 -11 -277 -52 -463
-262 -449 -505 l5 -78 -105 -7 c-58 -3 -140 -6 -183 -6 l-79 0 -19 38 c-57
111 -73 298 -37 432 65 241 274 446 513 504 81 20 232 20 312 0z m956 -34
c123 -42 199 -109 256 -226 56 -114 50 -281 -13 -374 -23 -33 -53 -48 -225
-115 -78 -31 -220 -50 -295 -41 -55 7 -58 9 -58 35 0 111 -103 265 -225 336
-17 10 -17 14 -1 70 32 109 114 220 204 272 107 63 249 80 357 43z m554 -466
c637 -277 1245 -693 1492 -1020 22 -28 39 -53 39 -57 0 -8 -86 -25 -170 -32
-180 -17 -721 38 -1255 126 -319 52 -1268 238 -1320 258 -16 6 -9 12 38 34
119 54 211 137 260 232 l15 30 123 0 124 0 0 -56 c0 -112 91 -186 259 -210
182 -27 448 46 563 153 37 35 63 99 63 158 0 131 -110 211 -313 227 -74 6 -78
7 -72 27 5 18 19 85 31 154 3 12 7 22 10 22 4 0 54 -21 113 -46z m-1207 -32
c112 -49 182 -154 183 -272 0 -53 -5 -73 -27 -111 -37 -63 -89 -106 -173 -145
-90 -41 -168 -57 -276 -57 -70 0 -95 4 -141 25 -90 42 -141 127 -141 236 1
150 124 286 306 337 72 21 207 14 269 -13z m1203 -273 c64 -18 95 -45 95 -84
0 -140 -476 -237 -593 -121 -30 30 -21 70 24 111 47 42 83 59 183 85 81 21
230 26 291 9z m-2457 -89 c11 -36 23 -72 27 -81 5 -13 -11 -24 -69 -52 -269
-128 -323 -383 -191 -892 87 -334 267 -788 343 -868 43 -45 120 -62 572 -122
576 -76 1018 -115 2315 -205 366 -25 909 -60 934 -60 10 0 -11 -112 -44 -240
-36 -139 -36 -138 -53 -145 -39 -15 -600 -23 -977 -14 -843 19 -1589 72 -2325
165 -266 33 -604 84 -611 92 -4 4 -34 84 -69 177 -34 94 -107 280 -162 414
-173 423 -254 660 -303 886 -80 369 -39 593 140 770 39 39 107 91 150 117 87
52 286 139 296 129 3 -3 15 -35 27 -71z m527 -303 c478 -121 1167 -269 1730
-372 826 -151 1451 -210 1708 -160 l37 7 -2 -298 -3 -299 -69 -23 c-171 -57
-350 -32 -456 64 -23 21 -59 63 -80 94 -56 81 -107 130 -168 157 -45 21 -65
25 -125 21 -94 -5 -143 -29 -249 -123 -185 -166 -285 -166 -447 -1 -95 98
-142 121 -241 121 -102 0 -153 -26 -245 -124 -161 -173 -204 -211 -272 -244
-137 -64 -280 -32 -402 90 -31 32 -97 118 -145 190 -135 205 -222 268 -366
267 -95 -1 -162 -26 -250 -94 -216 -167 -278 -195 -418 -188 -65 4 -88 9 -97
22 -17 23 -69 211 -102 366 -36 170 -38 330 -5 411 33 83 107 149 202 180 63
21 201 2 465 -64z m273 -782 c53 -23 116 -88 172 -180 148 -240 272 -344 453
-381 95 -20 183 -8 279 37 90 43 149 92 261 218 102 113 141 141 199 141 45 0
79 -23 168 -112 105 -105 166 -133 285 -133 82 0 97 3 155 32 36 18 106 68
157 112 100 89 123 101 188 101 54 0 84 -24 165 -130 95 -125 167 -177 295
-216 78 -24 255 -24 341 -1 34 10 65 17 69 17 10 0 0 -261 -16 -434 l-12 -129
-121 7 c-202 12 -1113 74 -1481 101 -355 26 -837 65 -945 76 -417 42 -727 80
-1020 126 -187 29 -181 25 -235 133 -37 74 -135 313 -135 329 0 7 25 11 63 11
125 0 270 53 370 134 189 153 253 179 345 141z m-1175 -960 c52 -132 114 -293
137 -357 24 -65 48 -125 54 -133 12 -17 68 -28 341 -69 902 -134 2054 -217
3030 -220 482 -1 656 9 715 39 65 34 96 101 141 308 24 107 55 331 65 465 4
51 10 95 15 97 4 3 51 -18 106 -46 228 -120 374 -242 435 -366 30 -62 33 -75
33 -163 0 -84 -3 -101 -27 -147 -171 -325 -863 -568 -1973 -692 -961 -108
-2042 -82 -2705 65 -385 85 -675 199 -886 350 -103 73 -146 114 -205 199 -127
179 -116 365 32 551 53 66 189 175 293 234 90 51 290 139 297 132 4 -4 49
-115 102 -247z"/>
<path d="M3681 6811 c-31 -33 -66 -77 -78 -98 l-22 -40 55 -36 c63 -43 70 -44
79 -17 7 23 80 118 109 141 19 16 19 17 -24 63 -24 25 -48 46 -53 46 -5 0 -35
-27 -66 -59z"/>
<path d="M5126 6924 l-38 -45 39 -37 c22 -20 53 -56 68 -79 15 -24 30 -43 33
-43 4 0 83 48 110 66 2 1 -14 29 -37 62 -40 59 -105 122 -126 122 -5 -1 -27
-21 -49 -46z"/>
<path d="M4326 6498 c-2 -7 -7 -38 -10 -69 l-6 -56 63 -6 c34 -4 72 -9 83 -13
19 -5 22 -1 28 43 4 26 10 58 13 69 4 19 -1 23 -34 27 -120 18 -133 18 -137 5z"/>
</g>
</svg>
