<?xml version="1.0" standalone="no"?>
<!DOCTYPE svg PUBLIC "-//W3C//DTD SVG 20010904//EN"
 "http://www.w3.org/TR/2001/REC-SVG-20010904/DTD/svg10.dtd">
<svg version="1.0" xmlns="http://www.w3.org/2000/svg"
 width="1024.000000pt" height="1024.000000pt" viewBox="0 0 1024.000000 1024.000000"
 preserveAspectRatio="xMidYMid meet">
<metadata>
Created by potrace 1.16, written by Peter Selinger 2001-2019
</metadata>
<g transform="translate(0.000000,1024.000000) scale(0.100000,-0.100000)"
fill="#000000" stroke="none">
<path d="M5159 8820 c-155 -18 -326 -85 -466 -182 -163 -113 -278 -254 -433
-533 -101 -181 -120 -207 -234 -320 -115 -114 -191 -167 -466 -325 -107 -61
-239 -141 -294 -177 -588 -390 -917 -911 -919 -1453 0 -282 87 -517 262 -702
31 -34 33 -39 19 -55 -8 -10 -28 -40 -45 -68 -150 -250 -90 -524 150 -681 40
-26 73 -49 75 -50 4 -2 21 -114 132 -874 234 -1589 234 -1587 260 -1615 27
-29 76 -46 225 -79 945 -212 2338 -199 3306 30 114 27 165 52 178 87 10 26
141 691 391 1982 45 231 86 444 92 473 11 49 16 57 62 86 69 44 164 149 193
213 71 154 47 323 -66 477 -23 30 -41 58 -41 61 0 3 30 47 66 98 122 169 207
376 235 569 58 411 -73 827 -349 1106 -202 205 -492 358 -778 413 l-61 11 -28
137 c-46 224 -104 366 -214 521 -103 145 -288 294 -449 361 -43 17 -138 49
-212 71 -157 46 -222 80 -284 149 -43 48 -65 91 -86 175 -5 23 -21 53 -35 66
-22 22 -78 40 -110 37 -5 -1 -40 -5 -76 -9z m77 -167 c36 -117 60 -159 128
-228 86 -86 169 -130 336 -176 218 -61 332 -122 469 -253 183 -176 274 -379
326 -720 20 -136 53 -170 136 -138 32 12 46 11 120 -8 373 -95 691 -346 840
-664 117 -250 135 -573 47 -846 -68 -213 -264 -473 -414 -548 -114 -58 -407
-136 -679 -182 -842 -141 -2243 -141 -3009 0 -334 61 -546 133 -677 231 -236
174 -349 402 -349 701 0 380 170 736 507 1059 155 148 324 268 597 424 275
157 420 257 526 364 117 118 159 176 278 384 51 89 107 182 124 207 165 235
398 376 676 409 7 0 15 -7 18 -16z m2274 -3791 c81 -215 -78 -389 -460 -505
-1124 -343 -3560 -295 -4201 83 -180 106 -235 270 -150 442 18 37 41 74 51 83
16 15 22 13 76 -20 142 -86 476 -182 792 -229 860 -128 2071 -124 2902 10 185
29 431 83 572 125 101 30 264 101 303 133 19 15 22 14 58 -27 20 -23 46 -66
57 -95z m-290 -625 c0 -8 -33 -184 -74 -393 -41 -208 -127 -649 -191 -979
-162 -838 -184 -947 -190 -953 -20 -21 -477 -107 -725 -137 -794 -95 -1757
-75 -2405 51 -123 24 -299 66 -307 73 -6 6 -27 137 -133 851 -159 1070 -214
1454 -210 1458 2 2 12 -1 23 -7 34 -18 318 -89 462 -115 384 -70 813 -106
1360 -113 912 -12 1669 64 2223 223 66 19 126 38 135 44 23 13 32 12 32 -3z"/>
<path d="M4910 8363 c-35 -13 -50 -37 -50 -78 0 -52 26 -79 77 -79 71 0 106
86 55 136 -19 19 -60 30 -82 21z"/>
<path d="M5024 7960 c-29 -11 -54 -49 -54 -78 0 -31 52 -82 83 -82 42 0 77 36
77 80 0 63 -53 103 -106 80z"/>
<path d="M4422 7702 c-55 -51 -51 -136 9 -187 57 -47 152 -26 184 41 19 41 19
68 -1 110 -21 43 -59 64 -117 64 -35 0 -51 -6 -75 -28z"/>
<path d="M5528 7664 c-61 -32 -78 -129 -32 -183 14 -17 42 -36 63 -42 32 -10
45 -8 83 9 38 16 48 27 62 64 15 37 15 49 4 83 -24 72 -112 106 -180 69z"/>
<path d="M6082 7567 c-32 -34 -30 -89 4 -116 55 -43 134 -8 134 59 0 69 -91
107 -138 57z"/>
<path d="M3970 7383 c-26 -10 -50 -47 -50 -80 0 -23 8 -38 31 -57 17 -14 37
-26 45 -26 21 0 56 20 71 39 18 23 16 76 -4 100 -19 22 -67 34 -93 24z"/>
<path d="M5105 7225 c-73 -72 28 -178 109 -114 20 16 26 29 26 58 0 74 -83
109 -135 56z"/>
<path d="M5960 7143 c-35 -13 -50 -37 -50 -79 0 -36 5 -47 26 -60 59 -39 128
-7 128 61 0 54 -57 96 -104 78z"/>
<path d="M3591 6982 c-38 -6 -68 -30 -85 -67 -20 -42 -20 -68 0 -111 20 -41
59 -64 109 -64 101 0 158 101 105 187 -27 45 -74 65 -129 55z"/>
<path d="M4651 6824 c-62 -52 -58 -158 8 -197 36 -21 109 -22 139 -1 49 34 66
109 37 164 -32 62 -129 80 -184 34z"/>
<path d="M6514 6786 c-65 -29 -94 -111 -63 -179 24 -52 109 -73 169 -42 58 30
77 112 40 172 -31 52 -93 72 -146 49z"/>
<path d="M5316 6589 c-48 -38 -26 -136 32 -140 40 -3 58 3 80 27 26 29 28 54
7 93 -24 46 -74 55 -119 20z"/>
<path d="M7152 6567 c-49 -52 -13 -137 57 -137 68 0 104 78 60 134 -27 35 -86
36 -117 3z"/>
<path d="M4046 6478 c-24 -22 -30 -40 -27 -80 4 -58 102 -80 140 -32 63 80
-38 179 -113 112z"/>
<path d="M3045 6258 c-73 -67 -52 -175 42 -207 38 -14 45 -13 84 4 56 26 87
89 70 145 -16 54 -51 82 -110 88 -45 4 -52 1 -86 -30z"/>
<path d="M5832 6173 c-82 -40 -83 -176 -2 -218 59 -30 136 -9 166 47 18 32 17
109 -2 136 -35 50 -103 65 -162 35z"/>
<path d="M4569 6071 c-18 -14 -24 -29 -24 -61 0 -50 29 -80 77 -80 41 0 63 14
78 50 15 35 0 84 -31 100 -29 16 -75 12 -100 -9z"/>
<path d="M6621 5958 c-41 -22 -66 -65 -66 -113 0 -56 29 -95 82 -114 82 -29
158 28 158 120 0 41 -5 53 -31 80 -36 36 -103 49 -143 27z"/>
<path d="M3698 5864 c-77 -41 -75 -169 2 -209 16 -8 48 -15 71 -15 33 0 47 6
75 34 30 30 34 40 34 86 0 46 -4 56 -34 86 -28 28 -41 34 -77 34 -24 -1 -56
-7 -71 -16z"/>
<path d="M5315 5785 c-53 -52 -20 -135 55 -135 52 0 84 38 76 90 -11 68 -84
93 -131 45z"/>
<path d="M4812 5387 c-53 -30 -74 -103 -47 -161 42 -88 178 -89 219 -2 28 60
14 125 -36 160 -27 19 -104 20 -136 3z"/>
<path d="M6866 5379 c-20 -16 -26 -29 -26 -59 0 -72 84 -106 135 -55 73 72
-28 178 -109 114z"/>
<path d="M3422 5317 c-39 -42 -26 -105 28 -127 77 -32 141 57 89 124 -27 35
-86 36 -117 3z"/>
<path d="M5783 5313 c-32 -6 -79 -56 -86 -91 -20 -99 80 -181 169 -139 61 29
83 97 54 167 -19 47 -80 74 -137 63z"/>
<path d="M6532 4027 c-6 -7 -42 -300 -81 -652 -39 -352 -89 -802 -111 -1000
l-40 -360 21 -17 c26 -22 43 -23 58 -4 7 8 31 185 56 413 24 219 51 457 59
528 9 72 32 279 51 460 19 182 42 394 51 473 12 112 13 146 4 157 -15 18 -54
19 -68 2z"/>
<path d="M3462 3937 c-7 -9 -5 -55 9 -157 27 -204 184 -1427 212 -1651 13
-102 27 -191 31 -197 10 -17 52 -15 70 4 9 9 14 25 11 37 -3 12 -23 164 -45
337 -149 1169 -208 1619 -215 1630 -9 14 -61 12 -73 -3z"/>
<path d="M4163 3933 c-18 -7 -17 -28 22 -658 19 -308 46 -751 60 -985 15 -234
30 -435 35 -447 6 -15 18 -23 34 -23 53 0 53 -15 12 638 -21 334 -50 798 -65
1032 -14 234 -30 431 -34 438 -8 12 -41 15 -64 5z"/>
<path d="M5765 3906 c-18 -13 -18 -32 -7 -637 7 -343 15 -788 18 -989 4 -201
11 -373 16 -382 11 -22 66 -24 74 -3 5 13 1 329 -23 1633 -5 293 -9 367 -20
378 -18 18 -34 18 -58 0z"/>
<path d="M5023 3844 c-3 -9 -3 -109 0 -223 4 -113 16 -525 27 -916 12 -390 23
-734 26 -762 5 -46 9 -54 31 -59 16 -4 30 -1 41 9 14 15 14 58 3 469 -6 249
-16 577 -21 728 -5 151 -12 380 -16 508 -8 250 -10 262 -60 262 -14 0 -27 -7
-31 -16z"/>
</g>
</svg>
