<?xml version="1.0" standalone="no"?>
<!DOCTYPE svg PUBLIC "-//W3C//DTD SVG 20010904//EN"
 "http://www.w3.org/TR/2001/REC-SVG-20010904/DTD/svg10.dtd">
<svg version="1.0" xmlns="http://www.w3.org/2000/svg"
 width="1024.000000pt" height="1024.000000pt" viewBox="0 0 1024.000000 1024.000000"
 preserveAspectRatio="xMidYMid meet">
<metadata>
Created by potrace 1.16, written by Peter Selinger 2001-2019
</metadata>
<g transform="translate(0.000000,1024.000000) scale(0.100000,-0.100000)"
fill="#000000" stroke="none">
<path d="M4882 7219 c-227 -35 -449 -176 -583 -371 -42 -62 -46 -66 -115 -87
-258 -80 -443 -368 -444 -692 0 -47 5 -110 10 -141 l11 -55 -58 -61 c-105
-110 -170 -252 -193 -418 -27 -206 45 -440 176 -571 202 -202 490 -237 693
-85 l34 26 29 -35 c41 -47 113 -199 138 -289 12 -44 23 -121 27 -187 9 -177
-16 -323 -107 -614 -45 -143 -48 -176 -20 -212 22 -28 127 -97 186 -122 66
-28 187 -62 268 -75 104 -17 308 -8 407 19 158 41 340 140 380 205 27 44 24
71 -17 177 -119 308 -163 563 -130 760 25 156 99 332 181 433 l23 29 64 -18
c122 -35 286 -21 422 36 234 99 411 308 456 537 18 91 8 271 -19 352 -31 90
-89 184 -155 254 l-56 58 0 92 c0 174 -50 297 -170 417 -124 123 -272 186
-460 195 l-95 4 -51 72 c-165 235 -392 362 -664 373 -58 2 -133 0 -168 -6z
m292 -195 c86 -22 177 -69 249 -130 82 -66 125 -120 177 -217 55 -101 72 -113
143 -97 76 17 208 8 279 -19 127 -49 230 -156 269 -282 18 -56 20 -80 14 -186
l-6 -122 63 -50 c241 -189 251 -519 24 -747 -162 -161 -389 -218 -545 -136
-86 45 -115 43 -167 -13 -110 -118 -213 -313 -261 -492 -24 -89 -26 -116 -27
-283 0 -169 2 -196 28 -305 15 -66 49 -185 75 -264 l47 -144 -45 -28 c-53 -34
-130 -64 -220 -86 -80 -20 -271 -22 -356 -4 -73 16 -202 65 -232 89 l-22 17
34 110 c169 535 123 925 -149 1270 -61 78 -109 110 -150 99 -14 -3 -43 -29
-65 -59 -30 -40 -57 -62 -106 -86 -60 -29 -70 -31 -147 -27 -70 3 -93 9 -145
37 -306 163 -327 647 -38 861 33 24 57 51 61 67 4 14 -1 59 -10 99 -26 109
-30 176 -16 261 39 243 175 406 371 444 73 14 86 25 139 119 67 119 212 237
356 289 117 42 251 48 378 15z"/>
<path d="M5305 6042 c-80 -38 -120 -111 -119 -222 1 -138 99 -233 222 -216
119 16 190 134 168 279 -20 131 -158 212 -271 159z m114 -188 c13 -30 -4 -77
-30 -82 -45 -8 -67 74 -28 102 26 18 43 12 58 -20z"/>
<path d="M4544 6010 c-98 -23 -155 -106 -155 -225 0 -131 65 -214 176 -223 94
-8 173 46 204 137 16 48 14 145 -5 189 -38 91 -132 143 -220 122z m73 -196
c15 -24 15 -29 2 -53 -28 -50 -79 -32 -79 29 0 53 48 68 77 24z"/>
<path d="M5297 5156 c-12 -13 -33 -42 -47 -65 -44 -75 -125 -108 -215 -89 -40
8 -59 20 -95 58 -25 25 -52 57 -61 71 -23 33 -88 33 -123 0 -71 -66 16 -217
161 -283 136 -61 280 -44 395 47 118 93 164 210 104 262 -36 31 -90 31 -119
-1z"/>
</g>
</svg>
