<?xml version="1.0" standalone="no"?>
<!DOCTYPE svg PUBLIC "-//W3C//DTD SVG 20010904//EN"
 "http://www.w3.org/TR/2001/REC-SVG-20010904/DTD/svg10.dtd">
<svg version="1.0" xmlns="http://www.w3.org/2000/svg"
 width="1024.000000pt" height="1024.000000pt" viewBox="0 0 1024.000000 1024.000000"
 preserveAspectRatio="xMidYMid meet">
<metadata>
Created by potrace 1.16, written by Peter Selinger 2001-2019
</metadata>
<g transform="translate(0.000000,1024.000000) scale(0.100000,-0.100000)"
fill="#000000" stroke="none">
<path d="M6249 7269 c-116 -17 -100 -8 -746 -422 -252 -161 -537 -343 -633
-404 -548 -347 -1008 -642 -1350 -868 -145 -96 -202 -140 -266 -206 -236 -247
-415 -582 -486 -913 -18 -83 -22 -134 -22 -291 -1 -199 4 -239 51 -395 103
-347 358 -623 699 -759 280 -112 592 -113 876 -2 101 40 174 87 319 206 138
113 679 581 855 739 55 50 185 168 289 261 437 393 1080 1008 1382 1323 155
161 211 226 229 267 92 201 64 535 -68 800 -59 117 -141 231 -237 326 -193
194 -420 305 -691 338 -94 12 -120 12 -201 0z m287 -249 c228 -59 436 -209
568 -412 71 -109 102 -178 131 -293 43 -167 42 -323 -2 -410 -21 -41 -568
-591 -938 -943 -498 -474 -1635 -1486 -1651 -1470 -2 3 1 40 8 84 7 45 12 165
11 279 -1 192 -6 265 -64 815 -29 285 -24 590 15 795 47 245 137 473 258 650
l61 90 276 176 c152 97 428 274 614 393 355 228 399 254 450 267 45 11 177 1
263 -21z m-2047 -1152 c-39 -95 -67 -185 -88 -288 -17 -80 -20 -85 -47 -91
-39 -9 -404 -9 -474 0 l-55 6 160 106 c88 58 225 148 305 199 80 51 161 103
180 116 19 12 38 23 42 23 4 1 -6 -31 -23 -71z m-139 -712 c0 -86 0 -88 -22
-84 -180 39 -193 40 -332 35 -254 -10 -434 -82 -605 -243 -179 -168 -270 -378
-271 -622 0 -328 169 -603 470 -765 226 -122 516 -134 749 -31 30 14 56 22 58
20 9 -8 -50 -163 -73 -194 -56 -73 -183 -107 -394 -107 -153 1 -248 18 -365
68 -139 59 -297 181 -387 301 -291 385 -271 945 51 1403 105 149 269 256 456
298 45 11 138 14 362 12 l303 -2 0 -89z m-135 -298 c112 -29 133 -41 139 -81
4 -29 26 -254 62 -627 7 -80 14 -200 14 -267 l0 -122 -42 -29 c-288 -197 -645
-159 -876 94 -175 190 -211 476 -90 707 43 82 173 213 258 260 171 94 342 115
535 65z"/>
<path d="M6489 6902 c-43 -38 -49 -96 -20 -190 42 -140 180 -245 319 -245 111
0 172 44 172 124 0 18 -9 39 -25 54 -20 21 -34 25 -80 25 -31 0 -70 6 -88 14
-47 19 -93 77 -113 142 -32 99 -102 132 -165 76z"/>
<path d="M5832 6083 c-13 -3 -41 -22 -62 -43 -77 -77 -102 -249 -53 -361 45
-101 150 -179 241 -179 56 0 102 41 102 92 0 43 -7 53 -66 91 -67 44 -94 87
-94 151 0 38 6 61 24 87 36 53 40 79 16 117 -17 28 -58 55 -78 51 -4 -1 -17
-4 -30 -6z"/>
<path d="M5141 4920 c-65 -14 -125 -46 -172 -93 -54 -54 -79 -108 -79 -175 0
-68 29 -102 89 -102 32 0 44 6 67 34 16 18 37 47 46 65 12 21 34 39 65 53 42
19 52 20 88 8 22 -6 59 -14 82 -17 35 -4 46 -1 67 21 30 29 35 81 11 126 -30
59 -166 100 -264 80z"/>
<path d="M4024 4730 c-33 -13 -54 -50 -54 -93 0 -100 140 -134 186 -46 46 90
-38 177 -132 139z"/>
<path d="M3611 4614 c-28 -36 -27 -79 4 -109 34 -35 78 -33 117 5 25 26 29 36
24 63 -8 43 -39 67 -86 67 -30 0 -43 -6 -59 -26z"/>
<path d="M3854 4341 c-33 -14 -64 -61 -64 -96 0 -41 31 -80 75 -95 98 -32 175
99 100 170 -25 24 -80 34 -111 21z"/>
<path d="M3530 4283 c-52 -20 -68 -85 -30 -123 45 -45 130 -13 130 49 0 50
-55 91 -100 74z"/>
<path d="M4188 4250 c-32 -24 -42 -71 -24 -113 18 -45 40 -60 87 -60 53 0 88
34 96 91 5 36 2 45 -25 72 -37 37 -95 41 -134 10z"/>
<path d="M3652 3938 c-7 -7 -12 -21 -12 -33 0 -29 19 -45 52 -45 36 0 56 36
39 69 -13 23 -59 29 -79 9z"/>
<path d="M3959 3912 c-69 -62 -31 -165 62 -165 35 0 48 6 71 32 56 62 25 147
-58 158 -36 5 -46 1 -75 -25z"/>
<path d="M4252 3878 c-30 -30 -3 -82 40 -76 29 4 47 50 28 72 -15 19 -51 21
-68 4z"/>
</g>
</svg>
