<?xml version="1.0" standalone="no"?>
<!DOCTYPE svg PUBLIC "-//W3C//DTD SVG 20010904//EN"
 "http://www.w3.org/TR/2001/REC-SVG-20010904/DTD/svg10.dtd">
<svg version="1.0" xmlns="http://www.w3.org/2000/svg"
 width="1024.000000pt" height="1024.000000pt" viewBox="0 0 1024.000000 1024.000000"
 preserveAspectRatio="xMidYMid meet">
<metadata>
Created by potrace 1.16, written by Peter Selinger 2001-2019
</metadata>
<g transform="translate(0.000000,1024.000000) scale(0.100000,-0.100000)"
fill="#000000" stroke="none">
<path d="M5060 7183 c-754 -30 -1499 -281 -2002 -673 -167 -130 -347 -333
-452 -507 -80 -134 -152 -321 -188 -488 -7 -35 -12 -128 -12 -225 0 -186 12
-251 69 -358 29 -55 31 -64 17 -68 -157 -48 -252 -114 -327 -224 -59 -88 -84
-157 -92 -256 -19 -239 121 -419 350 -452 46 -6 52 -10 55 -32 2 -14 12 -52
23 -85 79 -240 364 -362 964 -414 434 -38 1102 -52 1835 -40 1039 17 1643 65
2018 159 344 87 540 251 583 489 l12 71 37 0 c87 0 241 60 307 120 142 129
191 349 121 541 -62 169 -223 310 -400 352 l-50 12 6 35 c22 128 28 196 22
281 -28 453 -259 839 -691 1159 -398 296 -960 502 -1565 575 -130 15 -456 36
-525 33 -22 -1 -74 -3 -115 -5z m400 -183 c534 -37 1009 -165 1410 -381 578
-310 910 -768 910 -1255 0 -247 -64 -342 -279 -413 -224 -74 -713 -120 -1716
-163 -398 -17 -1839 -17 -2135 0 -435 25 -696 57 -834 103 -110 37 -164 81
-205 169 -25 53 -26 62 -25 230 0 156 3 186 26 271 50 186 119 327 236 484 79
106 222 250 335 339 556 432 1446 673 2277 616z m2455 -2069 c219 -54 361
-262 311 -454 -74 -276 -405 -296 -799 -48 -79 50 -110 58 -142 37 -21 -14
-25 -24 -25 -69 -1 -55 -11 -76 -47 -95 -45 -25 -109 -7 -165 45 -30 29 -91
34 -115 11 -8 -8 -21 -41 -29 -73 -46 -176 -153 -265 -319 -265 -145 0 -295
71 -483 229 -54 45 -81 61 -103 61 -42 0 -64 -14 -78 -50 -6 -16 -16 -44 -22
-60 -14 -38 -60 -64 -98 -55 -33 7 -71 41 -101 92 -40 66 -60 83 -100 83 -44
0 -54 -10 -106 -108 -78 -148 -179 -227 -326 -258 -80 -17 -151 -13 -233 13
-113 35 -192 110 -261 248 -40 80 -69 102 -118 89 -15 -3 -39 -23 -54 -42 -59
-79 -108 -122 -140 -122 -42 0 -72 28 -79 75 -15 101 -65 101 -199 -1 -104
-79 -248 -156 -324 -173 -107 -25 -206 -5 -257 50 -32 36 -60 106 -68 174 -8
70 -26 95 -70 95 -38 0 -53 -12 -94 -72 -43 -64 -76 -88 -122 -88 -44 0 -53 8
-83 70 -30 64 -52 64 -156 -6 -218 -145 -421 -194 -546 -132 -151 75 -159 312
-15 456 68 68 131 96 287 127 12 3 24 14 27 24 5 20 5 20 58 0 162 -62 451
-102 954 -131 286 -17 1649 -17 2060 0 1444 59 1871 126 2079 324 18 17 33 25
40 19 6 -4 34 -14 61 -20z m-425 -738 c90 -43 199 -83 226 -83 14 0 16 -8 11
-55 -23 -221 -248 -348 -742 -419 -776 -111 -2737 -138 -3585 -50 -497 51
-712 145 -745 325 l-7 36 89 31 c48 18 119 50 157 72 37 22 70 40 73 40 2 0
19 -11 36 -24 64 -49 169 -55 249 -15 49 25 51 24 67 -13 21 -48 95 -116 154
-143 151 -69 330 -49 537 62 47 25 100 57 119 71 22 17 38 22 46 16 7 -5 28
-21 47 -36 78 -62 208 -54 289 19 22 20 41 34 42 32 2 -2 20 -28 41 -56 69
-96 165 -164 296 -209 43 -15 83 -19 185 -18 118 0 138 3 215 30 47 17 111 47
142 67 53 35 136 116 170 165 l16 23 46 -35 c107 -81 243 -74 324 18 21 24 37
34 45 29 7 -4 42 -29 78 -55 78 -56 180 -108 274 -140 60 -20 90 -23 205 -23
127 0 139 2 204 29 85 36 180 125 221 206 15 30 28 56 29 57 1 1 20 -4 41 -12
104 -37 240 -3 286 71 12 19 24 33 28 31 3 -1 44 -21 91 -44z"/>
<path d="M5408 6803 c-30 -33 -48 -91 -48 -155 0 -71 22 -128 65 -171 32 -31
45 -26 75 32 46 92 34 193 -34 267 -40 45 -42 45 -58 27z"/>
<path d="M4414 6690 c-104 -24 -184 -132 -184 -246 0 -42 1 -44 30 -44 83 0
177 90 199 192 10 45 5 109 -8 107 -3 -1 -20 -4 -37 -9z"/>
<path d="M6228 6644 c-14 -13 -8 -68 11 -109 23 -51 73 -101 118 -120 41 -17
119 -20 128 -5 11 18 -24 114 -56 153 -17 21 -48 47 -70 57 -43 22 -120 36
-131 24z"/>
<path d="M4865 6374 c-43 -22 -74 -54 -97 -98 -37 -72 -33 -206 6 -206 7 0 35
15 62 33 63 42 104 117 104 191 0 97 -14 112 -75 80z"/>
<path d="M5767 6342 c-21 -23 -22 -66 -1 -86 19 -20 24 -20 52 0 15 10 22 25
22 48 0 54 -40 75 -73 38z"/>
<path d="M3506 6284 c-13 -34 -6 -125 13 -163 36 -69 147 -147 181 -126 15 9
12 107 -5 156 -19 54 -67 105 -120 130 -49 23 -61 23 -69 3z"/>
<path d="M6777 6237 c-13 -9 -18 -23 -15 -42 2 -24 8 -31 31 -33 39 -5 59 15
55 52 -2 25 -8 32 -28 34 -14 2 -33 -3 -43 -11z"/>
<path d="M6070 6032 c0 -111 78 -212 183 -236 70 -16 83 19 47 118 -34 89
-123 156 -207 156 -20 0 -23 -5 -23 -38z"/>
<path d="M5441 5884 c-17 -14 -44 -47 -59 -73 -23 -39 -27 -57 -27 -121 0 -56
5 -83 18 -103 17 -26 19 -27 46 -12 99 50 147 206 95 306 -18 36 -34 36 -73 3z"/>
<path d="M3226 5729 c-33 -47 36 -95 78 -54 21 21 20 31 -4 55 -26 26 -55 25
-74 -1z"/>
<path d="M6902 5725 c-46 -59 -52 -177 -13 -254 22 -43 78 -94 92 -85 5 3 19
24 31 47 29 55 31 165 4 217 -19 36 -75 100 -87 100 -4 0 -16 -11 -27 -25z"/>
<path d="M4349 5678 c-15 -56 -5 -129 23 -180 24 -43 78 -92 115 -102 18 -6
23 -1 33 29 31 94 -6 221 -78 270 -56 38 -79 34 -93 -17z"/>
<path d="M3789 5656 c-9 -18 -8 -31 3 -52 11 -24 20 -29 48 -29 30 0 35 4 38
26 4 31 -32 79 -59 79 -11 0 -24 -11 -30 -24z"/>
<path d="M5790 5402 c0 -22 12 -62 28 -93 36 -71 92 -111 164 -116 78 -6 86 3
65 69 -32 101 -125 178 -215 178 -42 0 -42 0 -42 -38z"/>
<path d="M3311 5416 c-6 -8 -17 -38 -23 -67 -16 -79 8 -155 67 -215 54 -53 78
-56 96 -11 38 89 2 223 -74 278 -46 33 -50 34 -66 15z"/>
<path d="M7790 4725 c-19 -23 -3 -68 38 -107 50 -48 75 -60 128 -60 76 0 92
31 49 94 -45 66 -182 113 -215 73z"/>
<path d="M7485 4607 c-44 -33 32 -132 119 -157 40 -11 52 -10 91 5 53 20 57
39 20 83 -54 65 -183 103 -230 69z"/>
<path d="M6687 4593 c-12 -11 -7 -73 7 -101 31 -59 96 -102 156 -102 43 0 47
30 13 98 -24 48 -36 61 -82 85 -54 27 -82 33 -94 20z"/>
<path d="M2600 4549 c-67 -27 -135 -113 -128 -162 7 -45 99 -40 158 10 38 32
70 92 70 133 0 28 -2 30 -37 29 -21 0 -49 -5 -63 -10z"/>
<path d="M6120 4505 c0 -86 48 -154 123 -177 32 -10 40 -9 55 5 14 15 15 23 4
64 -23 83 -93 153 -154 153 -26 0 -28 -3 -28 -45z"/>
<path d="M5301 4511 c-51 -51 -51 -168 -1 -224 34 -38 54 -32 82 24 30 58 19
148 -25 197 -25 27 -32 27 -56 3z"/>
<path d="M4899 4500 c-70 -37 -120 -125 -105 -184 14 -55 110 -18 153 59 16
27 23 57 23 93 0 60 -10 64 -71 32z"/>
<path d="M2918 4499 c-43 -12 -122 -78 -143 -120 -14 -27 -14 -29 7 -40 13 -7
46 -13 75 -13 41 -1 59 5 95 29 49 35 100 117 82 135 -16 16 -74 20 -116 9z"/>
<path d="M4090 4491 c-72 -22 -129 -73 -157 -139 -18 -43 -4 -62 44 -62 75 0
148 56 179 136 17 45 17 47 -1 60 -21 15 -28 16 -65 5z"/>
<path d="M3715 4444 c-42 -22 -64 -44 -85 -84 -24 -48 -32 -90 -22 -125 11
-41 39 -43 89 -6 67 48 103 155 73 212 -13 23 -17 23 -55 3z"/>
<path d="M6440 4435 c-31 -80 24 -195 110 -231 31 -14 36 -13 47 2 20 28 15
94 -11 150 -25 53 -63 88 -109 99 -23 6 -28 3 -37 -20z"/>
<path d="M5072 4355 c-42 -35 -66 -101 -60 -166 6 -63 27 -87 64 -73 37 12 62
50 72 104 10 58 0 116 -25 141 -20 20 -20 20 -51 -6z"/>
</g>
</svg>
