<?xml version="1.0" standalone="no"?>
<!DOCTYPE svg PUBLIC "-//W3C//DTD SVG 20010904//EN"
 "http://www.w3.org/TR/2001/REC-SVG-20010904/DTD/svg10.dtd">
<svg version="1.0" xmlns="http://www.w3.org/2000/svg"
 width="1024.000000pt" height="1024.000000pt" viewBox="0 0 1024.000000 1024.000000"
 preserveAspectRatio="xMidYMid meet">
<metadata>
Created by potrace 1.16, written by Peter Selinger 2001-2019
</metadata>
<g transform="translate(0.000000,1024.000000) scale(0.100000,-0.100000)"
fill="#000000" stroke="none">
<path d="M4885 7883 c-753 -68 -1426 -382 -1925 -899 -396 -410 -651 -922
-735 -1474 -21 -143 -30 -401 -17 -535 13 -131 99 -545 142 -686 127 -409 340
-758 660 -1080 436 -439 1018 -730 1665 -831 120 -19 181 -22 425 -22 247 0
305 3 430 22 473 74 854 221 1240 477 523 347 894 834 1083 1420 32 98 128
540 157 715 31 192 22 417 -25 673 -44 238 -105 420 -220 652 -141 285 -283
482 -510 711 -233 234 -444 385 -750 539 -338 170 -673 268 -1052 310 -129 14
-453 18 -568 8z m530 -264 c526 -50 1056 -266 1465 -596 561 -452 913 -1183
887 -1838 -14 -354 -162 -619 -412 -740 -98 -47 -165 -62 -360 -80 -189 -18
-282 -43 -368 -99 -79 -51 -149 -127 -199 -218 -99 -179 -115 -203 -161 -254
-99 -109 -209 -157 -362 -157 -126 -1 -175 16 -322 111 -190 122 -286 159
-438 169 -182 11 -330 -37 -540 -178 -188 -126 -291 -152 -439 -114 -162 42
-250 124 -347 322 -52 105 -75 140 -129 194 -113 115 -213 153 -459 175 -171
15 -296 41 -365 76 -218 111 -348 296 -391 557 -23 137 -16 402 15 578 92 526
369 1026 769 1389 581 529 1354 781 2156 703z m2160 -3371 c-17 -55 -80 -199
-118 -268 -134 -248 -341 -513 -531 -684 -391 -350 -873 -574 -1421 -661 -135
-22 -497 -30 -655 -16 -656 60 -1282 364 -1721 836 -189 203 -352 448 -448
674 -17 41 -30 76 -27 78 2 2 32 -12 67 -31 137 -75 235 -99 484 -122 141 -13
167 -18 222 -44 78 -39 101 -66 173 -210 96 -191 193 -295 345 -370 102 -51
176 -70 295 -77 169 -10 318 33 467 135 209 144 259 165 388 166 122 1 184
-20 315 -110 58 -39 128 -83 155 -97 233 -117 546 -95 762 55 126 87 211 191
298 363 22 43 62 102 90 131 69 71 126 91 321 109 163 16 211 24 311 55 63 19
163 67 198 94 28 22 37 20 30 -6z"/>
<path d="M5605 7271 c-43 -26 -60 -49 -91 -115 -33 -73 -38 -172 -10 -224 20
-38 75 -67 109 -56 117 35 192 246 131 366 -26 50 -85 63 -139 29z"/>
<path d="M4343 7200 c-40 -16 -58 -58 -57 -135 1 -110 52 -203 136 -246 47
-24 85 -19 119 17 34 36 39 138 10 214 -24 64 -77 125 -126 146 -39 16 -51 16
-82 4z"/>
<path d="M6684 6661 c-98 -45 -164 -139 -164 -233 1 -56 11 -77 47 -96 50 -27
117 -5 189 61 134 122 141 287 12 287 -24 0 -61 -9 -84 -19z"/>
<path d="M3483 6526 c-144 -65 22 -326 207 -326 69 0 100 29 100 95 0 58 -27
111 -81 159 -73 67 -169 97 -226 72z"/>
<path d="M4918 6174 c-105 -16 -241 -60 -340 -110 -287 -144 -499 -410 -559
-698 -113 -548 299 -1071 921 -1171 207 -33 419 -4 635 86 284 118 518 371
604 653 66 216 44 460 -61 671 -208 416 -697 648 -1200 569z m375 -258 c292
-56 546 -265 631 -520 74 -220 13 -483 -155 -669 -198 -219 -529 -327 -824
-269 -348 69 -601 292 -672 591 -20 88 -13 242 17 331 90 268 327 466 641 535
85 18 269 19 362 1z"/>
<path d="M3032 5730 c-147 -90 54 -293 254 -256 107 21 113 142 12 220 -76 57
-203 74 -266 36z"/>
<path d="M7099 5626 c-118 -42 -179 -132 -139 -207 32 -58 156 -70 259 -24 82
37 121 82 121 138 0 23 -7 50 -14 59 -33 44 -151 62 -227 34z"/>
<path d="M3311 4944 c-114 -30 -184 -117 -149 -184 42 -80 218 -95 318 -27 95
64 99 157 10 202 -42 21 -120 25 -179 9z"/>
</g>
</svg>
