<?xml version="1.0" encoding="UTF-8" standalone="no"?>
<!DOCTYPE svg PUBLIC "-//W3C//DTD SVG 1.1//EN" "http://www.w3.org/Graphics/SVG/1.1/DTD/svg11.dtd">
<svg width="100%" height="100%" viewBox="0 0 1024 1024" version="1.1" xmlns="http://www.w3.org/2000/svg" xmlns:xlink="http://www.w3.org/1999/xlink" xml:space="preserve" xmlns:serif="http://www.serif.com/" style="fill-rule:evenodd;clip-rule:evenodd;stroke-linejoin:round;stroke-miterlimit:2;">
    <g transform="matrix(0.1,0,0,-0.1,0,1024)">
        <path d="M6615,6676C6525,6661 6426,6636 6230,6580C5726,6436 5358,6373 4864,6349C4627,6337 4624,6337 3955,6371C3544,6392 3287,6343 3097,6206C3000,6137 2904,6025 2871,5943C2860,5916 2852,5910 2826,5910C2762,5910 2583,5858 2485,5811C2266,5707 2117,5538 2049,5320C2018,5223 2016,5047 2044,4955C2077,4844 2128,4761 2220,4669C2331,4557 2460,4486 2595,4462C2634,4455 2636,4453 2656,4390C2771,4032 3093,3750 3564,3595C4035,3440 4714,3404 5470,3495C6393,3607 7134,3855 7564,4198C7867,4440 8064,4754 8110,5069C8125,5171 8118,5366 8096,5434L8081,5483L8111,5527C8191,5643 8237,5807 8227,5940C8206,6206 8033,6424 7778,6505C7625,6553 7488,6559 7303,6523L7221,6507L7178,6544C7125,6590 7015,6645 6935,6665C6850,6687 6709,6692 6615,6676ZM6892,6545C6979,6514 7034,6437 6978,6426C6883,6408 6605,6336 6410,6278C5557,6028 5148,5975 4251,5999C3715,6013 3419,5999 3162,5946C3128,5939 3098,5936 3095,5938C3084,5949 3091,5997 3107,6020C3179,6129 3296,6197 3474,6236C3588,6261 3842,6264 4225,6245C4978,6207 5525,6265 6200,6455C6408,6513 6551,6549 6619,6560C6698,6572 6836,6565 6892,6545ZM7663,6375C7803,6346 7957,6235 8014,6122C8077,5997 8085,5847 8035,5713C8020,5673 8004,5640 7999,5640C7995,5640 7979,5656 7965,5674C7926,5725 7816,5795 7725,5827C7650,5853 7635,5855 7485,5854C7303,5853 7264,5845 6905,5732C6619,5642 6561,5625 6364,5576C6106,5513 5865,5465 5623,5431C5260,5379 5113,5368 4690,5363C4301,5358 4220,5361 3710,5396C3425,5416 3284,5408 3135,5365C3000,5326 2919,5278 2819,5180C2749,5111 2725,5079 2692,5010C2640,4905 2621,4832 2613,4712C2606,4606 2614,4610 2502,4660C2149,4822 2075,5234 2346,5520C2491,5672 2659,5743 2911,5759C3003,5765 3032,5770 3056,5787C3134,5841 3510,5889 3862,5890C4053,5890 4123,5881 4051,5865C3999,5854 3933,5803 3882,5735C3824,5659 3803,5641 3735,5608C3681,5583 3669,5559 3690,5519C3700,5501 3708,5498 3746,5503C3811,5510 3875,5555 3950,5644C4025,5732 4065,5759 4128,5760C4205,5760 4263,5716 4329,5608C4386,5513 4494,5454 4598,5462C4681,5468 4741,5502 4817,5588C4951,5737 5029,5739 5181,5596C5298,5486 5391,5458 5505,5497C5565,5517 5633,5583 5674,5660C5715,5738 5755,5785 5790,5800C5841,5821 5902,5808 5967,5761C6065,5691 6120,5669 6196,5669C6324,5669 6405,5731 6475,5885C6529,6005 6573,6042 6660,6043C6707,6044 6732,6034 6833,5975C6921,5925 7080,5930 7116,5985C7131,6008 7131,6012 7116,6035C7099,6060 7097,6061 7017,6054C6938,6048 6933,6049 6875,6080C6750,6148 6735,6154 6669,6158C6541,6166 6433,6086 6376,5940C6328,5818 6258,5767 6165,5784C6146,5788 6093,5816 6048,5847C5950,5914 5894,5934 5825,5925C5723,5912 5650,5857 5596,5753C5536,5637 5492,5600 5416,5600C5353,5600 5316,5621 5236,5705C5157,5786 5106,5812 5012,5818C4946,5822 4934,5820 4875,5791C4824,5765 4798,5744 4754,5690C4685,5604 4642,5576 4581,5576C4516,5577 4476,5602 4427,5671C4358,5771 4298,5831 4245,5856C4218,5869 4200,5880 4205,5881C4211,5882 4357,5881 4530,5880C5218,5877 5633,5936 6350,6143C6860,6290 7038,6333 7134,6331C7180,6330 7225,6336 7264,6350C7298,6361 7343,6374 7365,6379C7427,6393 7588,6391 7663,6375ZM7643,5685C7767,5653 7850,5587 7904,5479C7952,5383 7964,5318 7957,5175C7951,5031 7929,4947 7860,4802C7670,4403 7282,4117 6644,3905C5900,3658 4854,3546 4127,3636C3651,3694 3297,3834 3062,4055C2773,4327 2688,4721 2859,4989C2932,5102 3067,5191 3217,5227C3318,5250 3626,5250 3890,5226C4131,5203 4754,5194 4993,5209C5641,5249 6227,5358 6860,5555C7151,5646 7234,5670 7310,5685C7401,5703 7573,5703 7643,5685Z" style="fill-rule:nonzero;"/>
        <path d="M6333,4246C6251,4181 6172,4158 6079,4171C5966,4187 5881,4181 5763,4149C5675,4126 5624,4118 5542,4116C5444,4114 5429,4111 5360,4080C5257,4032 5182,4031 5089,4078C5012,4115 4999,4117 4977,4092C4937,4048 4965,4006 5062,3960C5172,3908 5272,3910 5398,3968C5446,3989 5475,3995 5580,4000C5673,4005 5727,4014 5791,4034C5888,4064 5936,4067 6095,4056C6195,4048 6210,4050 6263,4070C6335,4097 6442,4177 6455,4214C6478,4281 6402,4301 6333,4246Z" style="fill-rule:nonzero;"/>
    </g>
</svg>
