<?xml version="1.0" standalone="no"?>
<!DOCTYPE svg PUBLIC "-//W3C//DTD SVG 20010904//EN"
 "http://www.w3.org/TR/2001/REC-SVG-20010904/DTD/svg10.dtd">
<svg version="1.0" xmlns="http://www.w3.org/2000/svg"
 width="1024.000000pt" height="1024.000000pt" viewBox="0 0 1024.000000 1024.000000"
 preserveAspectRatio="xMidYMid meet">
<metadata>
Created by potrace 1.16, written by Peter Selinger 2001-2019
</metadata>
<g transform="translate(0.000000,1024.000000) scale(0.100000,-0.100000)"
fill="#000000" stroke="none">
<path d="M4995 7939 c-563 -22 -1095 -92 -1375 -181 -331 -105 -478 -272 -457
-518 10 -109 32 -157 109 -234 76 -76 77 -82 30 -146 -15 -19 -76 -87 -138
-151 -61 -64 -127 -143 -147 -175 -94 -157 -111 -337 -41 -446 l24 -38 -16
-97 c-13 -82 -15 -155 -11 -448 8 -516 59 -1052 153 -1620 72 -439 136 -693
223 -895 123 -282 358 -488 671 -588 237 -76 480 -105 855 -105 435 0 805 48
1090 140 90 28 281 120 335 160 180 134 303 300 381 513 172 472 343 1765 343
2595 0 287 -2 316 -39 475 -6 23 -2 27 43 42 118 42 174 118 180 246 7 124
-43 229 -134 287 -40 25 -45 32 -40 56 3 15 -2 52 -10 81 -23 77 -115 164
-265 247 -62 35 -131 75 -151 89 -39 26 -48 51 -24 71 7 6 26 39 42 74 25 56
28 73 29 172 0 103 -2 113 -29 163 -51 92 -116 136 -252 172 -230 60 -770 83
-1379 59z m885 -149 c314 -18 487 -47 563 -97 107 -68 98 -261 -15 -326 -137
-80 -785 -170 -1708 -237 -459 -34 -1079 -70 -1190 -70 -102 0 -106 1 -142 30
-80 66 -107 203 -60 302 68 140 300 243 682 302 58 9 119 19 135 22 128 22
645 66 910 77 184 8 659 6 825 -3z m578 -590 c26 -58 59 -83 209 -159 56 -29
122 -68 147 -87 49 -37 81 -86 72 -110 -7 -18 -57 -18 -126 1 -196 54 -314 66
-415 40 -148 -38 -254 -118 -398 -302 -90 -116 -157 -168 -236 -183 -104 -20
-190 13 -358 135 -149 108 -234 151 -343 171 -106 20 -198 7 -302 -43 -74 -35
-143 -98 -320 -295 -108 -119 -159 -148 -260 -148 -124 0 -180 50 -233 210
-37 112 -72 162 -136 194 -40 20 -68 26 -113 26 -147 -1 -247 -106 -306 -319
-23 -83 -59 -158 -88 -184 -35 -31 -81 -39 -121 -19 -53 25 -74 72 -67 149 9
111 56 194 186 329 127 133 171 187 197 243 l24 54 187 -7 c326 -13 2095 -10
2357 4 257 12 268 15 268 65 0 40 -19 46 -108 40 -203 -15 -799 -25 -1415 -24
-690 1 -894 8 -650 23 69 4 271 16 450 27 755 45 1462 125 1805 203 33 8 62
14 65 15 3 1 15 -21 28 -49z m227 -466 c76 -19 157 -34 180 -34 93 0 167 -47
205 -132 68 -151 -51 -278 -222 -238 -72 17 -93 29 -214 121 -58 45 -129 91
-157 104 -100 43 -207 55 -307 34 -28 -6 -54 -8 -58 -4 -10 10 102 111 151
137 23 12 69 30 102 40 77 23 137 17 320 -28z m-1644 -164 c61 -18 97 -40 308
-185 118 -81 183 -106 287 -113 105 -6 159 10 294 87 58 33 142 72 187 87 72
23 94 26 170 22 108 -6 167 -33 298 -137 50 -40 121 -85 162 -103 72 -31 73
-32 88 -85 30 -101 36 -148 42 -327 16 -480 -82 -1501 -207 -2141 -66 -340
-126 -531 -214 -690 -51 -91 -196 -237 -292 -294 -290 -171 -756 -251 -1384
-238 -402 9 -629 47 -846 143 -170 75 -337 233 -420 396 -166 327 -309 1142
-385 2193 -14 190 -15 650 -2 735 l8 55 53 7 c67 10 121 37 160 83 43 49 64
92 107 222 47 142 81 198 139 224 85 37 146 -4 186 -128 46 -140 100 -213 193
-260 68 -34 172 -42 252 -18 114 32 177 82 328 257 62 71 135 144 162 163 98
65 212 81 326 45z"/>
<path d="M4350 5804 c-171 -33 -330 -153 -413 -312 -56 -106 -83 -205 -122
-439 -31 -184 -73 -383 -114 -543 -54 -206 -46 -498 21 -725 66 -227 212 -440
372 -545 144 -93 296 -114 536 -71 208 37 316 30 540 -39 148 -45 206 -54 330
-54 148 1 238 21 365 83 204 100 351 282 409 506 29 114 35 228 23 449 -13
253 -3 370 48 596 56 240 58 255 52 400 -3 100 -10 152 -26 200 -47 145 -132
262 -240 335 -167 111 -318 127 -581 65 -138 -33 -153 -35 -315 -34 -185 2
-216 7 -500 89 -109 31 -149 37 -245 40 -63 2 -126 1 -140 -1z m245 -128 c33
-7 115 -30 182 -49 293 -86 535 -96 811 -32 158 36 233 41 317 20 124 -30 194
-80 281 -197 100 -135 124 -339 68 -578 -83 -356 -92 -434 -75 -703 17 -297
-2 -437 -82 -592 -74 -142 -223 -267 -377 -316 -84 -27 -265 -37 -363 -19 -40
6 -124 27 -187 45 -63 19 -142 39 -174 44 -93 17 -242 13 -371 -9 -212 -37
-331 -26 -449 44 -125 73 -243 230 -313 415 -52 139 -65 207 -70 391 -6 193
-1 230 63 505 43 183 49 214 75 385 24 162 51 271 84 347 30 68 103 171 146
207 37 32 118 74 174 92 53 17 185 17 260 0z"/>
<path d="M4398 5473 c-58 -62 -124 -237 -155 -407 -22 -121 -21 -374 1 -474
24 -107 39 -132 81 -132 54 0 62 27 39 137 -14 64 -19 127 -18 233 1 216 29
351 106 505 44 89 50 131 23 151 -28 21 -48 17 -77 -13z"/>
</g>
</svg>
