<?xml version="1.0" encoding="UTF-8" standalone="no"?>
<!DOCTYPE svg PUBLIC "-//W3C//DTD SVG 1.1//EN" "http://www.w3.org/Graphics/SVG/1.1/DTD/svg11.dtd">
<svg width="100%" height="100%" viewBox="0 0 1024 1024" version="1.1" xmlns="http://www.w3.org/2000/svg" xmlns:xlink="http://www.w3.org/1999/xlink" xml:space="preserve" xmlns:serif="http://www.serif.com/" style="fill-rule:evenodd;clip-rule:evenodd;stroke-linejoin:round;stroke-miterlimit:2;">
    <g transform="matrix(0.1,0,0,-0.1,0,1024)">
        <path d="M5010,8244C4913,8233 4817,8216 4745,8199C4145,8050 3724,7615 3586,6999C3518,6694 3476,6002 3477,5195C3478,4413 3495,4281 3612,4154C3713,4044 3875,4012 4475,3980C4580,3975 4675,3970 4688,3970L4710,3970L4710,3180C4710,2638 4713,2374 4721,2338C4746,2221 4823,2113 4921,2056C4990,2017 5089,1999 5173,2010C5325,2032 5438,2126 5501,2285L5525,2345L5528,3158C5530,3787 5533,3970 5543,3970C5603,3970 5981,3993 6122,4005C6436,4032 6527,4058 6624,4150C6688,4211 6725,4287 6740,4389C6781,4676 6778,5573 6734,6250C6712,6601 6695,6672 6618,6757C6573,6805 6538,6826 6438,6863C6219,6946 6056,7087 5970,7268C5953,7302 5927,7358 5910,7393C5890,7434 5868,7464 5844,7480C5771,7530 5722,7581 5692,7637C5653,7712 5643,7752 5632,7885C5614,8090 5541,8181 5358,8225C5296,8240 5077,8252 5010,8244ZM5295,8089C5398,8070 5450,8034 5476,7963C5492,7918 5494,7716 5480,7652C5445,7501 5449,7306 5490,7145C5563,6861 5761,6615 6020,6485C6182,6404 6305,6376 6468,6381L6578,6385L6585,6305C6615,5931 6630,5024 6611,4654C6599,4401 6585,4325 6542,4270C6483,4196 6387,4171 6054,4146C5471,4100 4744,4100 4170,4146C3763,4178 3692,4211 3655,4385C3599,4652 3619,6116 3686,6700C3749,7247 3947,7606 4331,7868C4592,8045 5004,8140 5295,8089ZM5625,7460C5629,7454 5664,7428 5704,7401C5774,7353 5777,7350 5808,7270C5901,7033 6096,6844 6355,6740C6479,6690 6522,6658 6546,6594C6566,6540 6562,6535 6488,6525C6385,6511 6197,6553 6080,6617C5837,6749 5676,6968 5619,7245C5591,7378 5595,7508 5625,7460ZM5378,3163C5375,2367 5375,2354 5354,2310C5323,2244 5282,2200 5225,2174C5127,2128 5003,2154 4931,2236C4854,2323 4858,2281 4853,3158C4850,3588 4851,3947 4854,3955C4859,3968 4899,3970 5120,3970L5381,3970L5378,3163Z" style="fill-rule:nonzero;"/>
    </g>
</svg>
