<?xml version="1.0" standalone="no"?>
<!DOCTYPE svg PUBLIC "-//W3C//DTD SVG 20010904//EN"
 "http://www.w3.org/TR/2001/REC-SVG-20010904/DTD/svg10.dtd">
<svg version="1.0" xmlns="http://www.w3.org/2000/svg"
 width="1024.000000pt" height="1024.000000pt" viewBox="0 0 1024.000000 1024.000000"
 preserveAspectRatio="xMidYMid meet">
<metadata>
Created by potrace 1.16, written by Peter Selinger 2001-2019
</metadata>
<g transform="translate(0.000000,1024.000000) scale(0.100000,-0.100000)"
fill="#000000" stroke="none">
<path d="M4870 6844 c-114 -14 -287 -48 -360 -70 -116 -36 -188 -74 -237 -127
-49 -53 -61 -103 -40 -166 12 -35 13 -51 3 -94 -15 -62 -25 -82 -77 -150 -56
-75 -104 -170 -136 -272 l-28 -90 0 -911 0 -910 38 -76 c41 -85 83 -126 183
-185 55 -32 64 -41 73 -78 14 -56 66 -132 118 -171 61 -46 189 -93 333 -121
173 -33 471 -42 650 -19 232 30 399 89 479 167 42 40 91 127 91 161 0 11 33
39 85 73 136 90 189 171 205 312 4 43 7 445 6 893 -3 730 -5 823 -20 895 -25
115 -70 216 -148 330 -75 111 -99 180 -79 237 59 168 -96 281 -475 349 -97 18
-166 22 -374 24 -140 2 -271 1 -290 -1z m540 -129 c69 -9 170 -27 225 -41 159
-39 275 -105 259 -147 -6 -17 -64 -57 -81 -57 -5 0 -28 17 -50 38 -42 40 -94
61 -218 87 -291 60 -779 40 -990 -41 -44 -17 -95 -60 -95 -81 0 -19 -11 -16
-62 16 -58 37 -62 44 -39 73 45 56 253 124 466 152 150 19 431 20 585 1z m41
-230 c109 -16 212 -46 211 -60 -1 -14 -82 -31 -237 -51 -179 -23 -538 -15
-710 15 -66 12 -123 25 -128 30 -11 11 94 45 188 62 176 30 489 32 676 4z
m-1055 -139 c56 -28 207 -66 347 -88 188 -28 552 -31 727 -5 140 21 308 61
368 87 25 11 46 19 47 18 1 -2 10 -25 20 -52 10 -27 42 -85 73 -129 30 -44 69
-112 88 -151 65 -137 64 -126 64 -1077 0 -958 5 -891 -72 -975 -145 -158 -660
-261 -1123 -225 -380 30 -653 113 -754 228 -75 84 -72 45 -68 1004 3 788 4
859 21 924 26 100 54 158 127 265 58 86 74 115 93 173 7 21 6 21 42 3z m146
-2667 c202 -51 579 -73 839 -50 130 12 349 50 403 71 33 12 33 0 0 -40 -48
-56 -146 -91 -359 -126 -141 -24 -452 -24 -604 -1 -203 32 -338 85 -375 148
-19 32 -19 32 0 25 10 -4 54 -16 96 -27z"/>
<path d="M4533 5505 c-113 -49 -84 -219 38 -232 74 -7 139 53 139 129 0 36
-37 88 -75 104 -42 17 -61 17 -102 -1z"/>
<path d="M5614 5506 c-94 -41 -101 -177 -10 -220 43 -20 80 -20 116 0 82 49
80 178 -4 218 -41 19 -61 20 -102 2z"/>
<path d="M4867 5313 c-12 -12 -7 -99 8 -144 35 -101 130 -169 238 -169 79 0
129 16 177 58 50 42 78 96 90 169 13 80 3 95 -63 91 l-52 -3 -6 -53 c-4 -29
-14 -63 -23 -77 -38 -58 -117 -79 -176 -47 -42 22 -82 94 -74 129 9 36 -12 53
-66 53 -25 0 -50 -3 -53 -7z"/>
</g>
</svg>
