<?xml version="1.0" standalone="no"?>
<!DOCTYPE svg PUBLIC "-//W3C//DTD SVG 20010904//EN"
 "http://www.w3.org/TR/2001/REC-SVG-20010904/DTD/svg10.dtd">
<svg version="1.0" xmlns="http://www.w3.org/2000/svg"
 width="1024.000000pt" height="1024.000000pt" viewBox="0 0 1024.000000 1024.000000"
 preserveAspectRatio="xMidYMid meet">
<metadata>
Created by potrace 1.16, written by Peter Selinger 2001-2019
</metadata>
<g transform="translate(0.000000,1024.000000) scale(0.100000,-0.100000)"
fill="#000000" stroke="none">
<path d="M4646 6889 c-899 -27 -1491 -103 -1716 -220 -102 -53 -102 -54 -139
-249 -78 -406 -101 -912 -57 -1215 65 -439 212 -803 455 -1120 69 -90 225
-249 321 -325 467 -371 1048 -512 1658 -399 140 25 232 52 361 103 482 194
835 521 1083 1004 39 76 72 140 74 144 3 4 41 -11 87 -32 195 -93 381 -102
602 -29 264 87 499 282 629 520 202 370 134 853 -163 1149 -234 234 -593 316
-911 210 -46 -16 -85 -28 -85 -27 -1 1 -12 60 -24 131 -28 158 -41 195 -72
218 -59 44 -244 87 -479 113 -306 32 -1011 43 -1624 24z m1134 -119 c162 -5
349 -14 415 -20 229 -20 464 -68 450 -91 -10 -16 -112 -58 -213 -88 -97 -29
-293 -74 -296 -69 -1 2 -6 16 -11 32 -21 62 -144 98 -398 118 -112 8 -246 8
-531 -1 -210 -6 -516 -11 -681 -11 -519 0 -869 -23 -1000 -67 -77 -25 -125
-59 -132 -93 -3 -17 -11 -30 -19 -30 -7 0 -68 11 -135 25 -138 28 -259 64
-259 76 0 25 193 80 391 113 305 50 641 79 1134 96 579 20 888 23 1285 10z
m930 -297 c47 -269 75 -630 66 -863 -39 -1058 -633 -1884 -1514 -2104 -370
-93 -736 -82 -1086 31 -617 199 -1086 714 -1261 1385 -90 346 -107 706 -55
1143 34 287 51 377 69 369 396 -167 1653 -228 2661 -128 449 44 835 119 1017
198 43 19 81 34 84 35 4 1 12 -29 19 -66z m-846 42 c60 -8 114 -19 120 -25 6
-6 6 -10 0 -10 -5 0 -36 -5 -69 -10 -91 -15 -398 -48 -610 -66 -263 -21 -973
-30 -1250 -15 -255 14 -516 39 -529 51 -10 10 45 27 134 40 144 22 323 30 685
31 209 1 488 5 620 8 451 13 782 12 899 -4z m1533 -185 c302 -72 532 -325 588
-645 64 -371 -109 -723 -460 -932 -239 -142 -502 -165 -710 -61 -33 17 -65 34
-71 39 -7 6 -1 38 21 101 17 51 33 95 35 97 3 2 42 -8 87 -22 298 -95 544 -19
698 214 130 195 162 493 77 716 -28 74 -103 175 -162 218 -148 109 -374 119
-549 24 -30 -16 -58 -26 -62 -22 -4 5 -10 54 -14 111 l-7 102 48 22 c138 61
324 76 481 38z m-22 -344 c141 -70 224 -250 212 -461 -15 -236 -121 -423 -284
-497 -55 -25 -85 -32 -159 -36 -101 -5 -165 6 -257 46 -35 15 -56 30 -53 37
11 31 46 272 56 388 5 70 10 199 10 286 l0 157 68 40 c76 47 123 64 196 73 72
9 149 -3 211 -33z"/>
<path d="M3011 6093 c-18 -16 -24 -41 -41 -188 -23 -198 -29 -350 -15 -364 6
-5 22 -13 37 -16 46 -12 65 19 73 122 3 48 15 162 26 252 18 149 18 166 4 187
-18 29 -54 31 -84 7z"/>
<path d="M2993 5390 c-43 -17 -40 -73 18 -335 47 -212 52 -225 99 -225 29 0
60 27 60 51 0 8 -14 76 -31 150 -17 73 -39 181 -49 238 -10 57 -22 107 -27
111 -15 14 -48 19 -70 10z"/>
<path d="M3158 4709 c-26 -15 -22 -61 8 -122 34 -68 52 -87 81 -87 73 0 80 45
25 146 -32 60 -41 69 -67 71 -17 2 -38 -2 -47 -8z"/>
<path d="M3342 4394 c-22 -15 -30 -57 -14 -80 32 -49 105 -32 110 25 6 60 -46
90 -96 55z"/>
</g>
</svg>
