<?xml version="1.0" standalone="no"?>
<!DOCTYPE svg PUBLIC "-//W3C//DTD SVG 20010904//EN"
 "http://www.w3.org/TR/2001/REC-SVG-20010904/DTD/svg10.dtd">
<svg version="1.0" xmlns="http://www.w3.org/2000/svg"
 width="1024.000000pt" height="1024.000000pt" viewBox="0 0 1024.000000 1024.000000"
 preserveAspectRatio="xMidYMid meet">
<metadata>
Created by potrace 1.16, written by Peter Selinger 2001-2019
</metadata>
<g transform="translate(0.000000,1024.000000) scale(0.100000,-0.100000)"
fill="#000000" stroke="none">
<path d="M4564 7220 c-25 -10 -28 -19 -48 -165 -9 -60 -18 -119 -21 -131 -3
-13 -57 -58 -147 -120 -224 -155 -378 -272 -388 -297 -13 -31 -57 -229 -75
-344 -51 -315 -67 -607 -66 -1218 0 -634 25 -1223 54 -1284 30 -63 454 -242
794 -335 159 -43 377 -86 441 -86 165 0 631 178 871 334 90 58 234 165 243
181 22 38 62 429 73 710 10 280 -19 885 -61 1243 -30 263 -82 506 -153 715
-24 71 -41 100 -88 155 -33 37 -101 116 -153 176 l-94 109 -12 126 c-16 158
-27 197 -57 204 -65 17 -1080 41 -1113 27z m136 -124 c0 -18 -3 -61 -6 -95
l-7 -61 -38 0 c-21 0 -40 4 -43 9 -6 9 12 160 20 173 3 5 21 8 40 8 32 0 34
-2 34 -34z m855 5 l70 -6 8 -75 c4 -41 5 -81 2 -87 -3 -10 -77 -13 -327 -12
-178 1 -368 4 -423 8 l-100 6 3 75 c6 127 -37 114 356 105 187 -4 373 -10 411
-14z m-710 -271 c72 -5 277 -10 457 -10 400 0 392 4 260 -111 -83 -71 -232
-192 -425 -341 -54 -43 -89 -77 -93 -93 -8 -34 90 -280 127 -317 34 -34 49
-35 193 -3 313 67 529 129 556 157 29 32 26 105 -9 206 -50 142 -65 154 -188
133 l-72 -12 -60 48 c-33 26 -60 51 -60 54 -1 4 30 35 69 69 l69 61 134 -95
c73 -52 140 -103 149 -113 18 -20 86 -226 113 -343 l18 -76 -61 -58 c-90 -86
-149 -211 -167 -352 -12 -98 29 -237 87 -291 29 -27 89 -53 123 -53 30 0 85
26 85 40 0 6 4 10 9 10 5 0 12 -66 16 -147 3 -82 9 -156 11 -165 4 -12 -12
-25 -61 -49 -154 -76 -260 -255 -272 -460 -5 -81 -2 -108 16 -168 35 -115 145
-231 254 -267 44 -15 48 -18 43 -42 -3 -15 -10 -73 -17 -129 l-11 -103 -67
-49 c-115 -85 -261 -173 -406 -242 -78 -37 -153 -71 -168 -74 -28 -7 -28 -7
18 58 61 87 127 222 159 326 79 251 17 443 -143 443 -104 0 -193 -75 -267
-227 -50 -104 -55 -148 -17 -153 17 -3 26 4 34 25 57 141 122 239 180 268 15
8 48 15 72 15 73 0 107 -53 107 -169 0 -146 -86 -361 -217 -541 l-68 -95 -75
-21 c-41 -12 -92 -24 -112 -28 l-38 -7 0 233 c0 311 -29 1037 -46 1148 -4 31
-1 37 25 53 85 50 198 180 255 295 128 254 61 543 -147 638 -52 24 -75 29
-143 29 l-82 0 -12 105 c-6 58 -14 112 -16 122 -6 20 -28 30 -50 21 -20 -7
-20 -6 30 -648 46 -591 54 -700 66 -950 16 -343 31 -1018 22 -1027 -17 -17
-341 61 -557 134 -203 68 -427 165 -504 216 -24 17 -41 388 -48 1032 -6 619 1
871 33 1180 23 231 80 534 101 549 5 3 66 48 134 98 69 51 185 136 259 188
l135 94 65 -5 c36 -2 124 -9 195 -14z m671 -396 c13 -9 23 -18 21 -21 -8 -8
-211 -54 -226 -51 -9 2 17 29 64 66 78 62 78 62 97 42 10 -11 30 -27 44 -36z
m309 -160 c22 -73 26 -97 16 -103 -19 -12 -542 -134 -579 -135 -32 -1 -34 1
-72 93 -22 52 -40 95 -40 96 0 1 28 8 63 14 55 11 436 98 527 120 19 5 40 9
46 10 6 1 24 -42 39 -95z m275 -319 c0 -3 9 -63 21 -133 13 -78 21 -180 22
-264 2 -124 0 -139 -19 -165 -29 -39 -80 -43 -122 -8 -95 80 -105 270 -21 436
34 68 119 163 119 134z m-904 -313 c51 -26 110 -91 137 -151 29 -65 35 -198
12 -277 -29 -102 -92 -209 -173 -295 -41 -43 -80 -79 -87 -79 -8 0 -14 34 -19
118 -8 148 -55 651 -62 676 -4 10 0 23 7 28 23 15 140 3 185 -20z m998 -869
c8 -166 -9 -612 -23 -626 -14 -14 -103 38 -153 90 -64 65 -90 129 -96 228 -7
133 37 267 120 363 41 47 113 102 134 102 8 0 14 -52 18 -157z"/>
<path d="M4374 6446 c-50 -22 -102 -45 -115 -51 -33 -14 -34 -59 -1 -63 41 -6
244 84 255 113 10 24 -3 45 -27 44 -11 -1 -62 -20 -112 -43z"/>
<path d="M4665 6450 c-13 -21 5 -59 64 -137 76 -100 124 -146 147 -141 39 7
28 46 -33 115 -32 36 -74 89 -94 117 -34 50 -70 69 -84 46z"/>
<path d="M4205 6122 c-72 -44 -152 -154 -140 -192 11 -36 42 -23 78 33 57 88
128 135 163 106 89 -73 55 -323 -57 -424 -40 -36 -43 -37 -94 -30 -57 7 -71
-1 -60 -34 8 -26 58 -45 102 -38 77 13 148 85 195 198 30 75 33 264 4 323 -36
71 -125 98 -191 58z"/>
<path d="M4062 5743 c3 -33 6 -38 28 -38 22 0 25 4 25 35 0 31 -3 35 -28 38
-27 3 -28 2 -25 -35z"/>
<path d="M4596 5646 c-32 -31 -49 -116 -37 -179 17 -95 88 -126 150 -68 39 37
41 68 4 77 -16 4 -28 3 -30 -3 -2 -6 -10 -19 -18 -29 -15 -19 -15 -19 -30 0
-19 25 -20 116 -2 141 10 12 16 14 21 7 11 -19 44 -14 56 8 9 17 6 25 -14 45
-31 31 -70 32 -100 1z"/>
<path d="M5662 5018 c-18 -18 -15 -39 9 -65 62 -65 8 -244 -59 -202 -26 16
-52 5 -52 -22 0 -48 70 -64 128 -29 45 28 72 89 72 168 0 109 -55 193 -98 150z"/>
<path d="M4233 4885 c-51 -31 -97 -99 -123 -182 -39 -125 -36 -193 6 -193 18
0 28 27 44 110 30 167 112 251 202 209 77 -34 126 -227 99 -385 -21 -117 -59
-184 -107 -184 -17 0 -25 -7 -30 -24 -8 -33 2 -46 35 -46 131 0 218 286 157
515 -46 174 -165 250 -283 180z"/>
<path d="M5512 4888 c-14 -14 -16 -57 -3 -77 5 -8 16 -11 30 -6 16 5 21 14 21
39 0 29 -14 56 -30 56 -3 0 -11 -5 -18 -12z"/>
<path d="M4222 4561 c-8 -5 -12 -23 -10 -47 3 -34 6 -39 28 -39 21 0 26 5 28
33 2 18 -2 40 -9 48 -13 16 -19 17 -37 5z"/>
<path d="M4133 4333 c-18 -7 -16 -78 2 -93 34 -28 65 56 33 88 -13 13 -16 13
-35 5z"/>
<path d="M4743 4048 c-35 -17 -57 -74 -57 -155 -1 -81 18 -119 68 -136 38 -13
81 18 81 59 0 35 -32 46 -52 18 -23 -32 -36 -2 -31 75 4 78 8 87 35 73 10 -5
24 -7 31 -5 20 8 14 51 -10 67 -26 18 -34 19 -65 4z"/>
<path d="M5394 4004 c-9 -34 11 -76 34 -72 13 2 18 15 20 51 3 44 2 47 -22 47
-19 0 -27 -7 -32 -26z"/>
<path d="M5269 3773 c-13 -35 3 -73 30 -73 24 0 37 49 21 79 -15 29 -39 26
-51 -6z"/>
<path d="M6034 5736 c-7 -31 12 -68 34 -64 12 2 18 15 20 46 3 39 1 42 -22 42
-19 0 -27 -7 -32 -24z"/>
<path d="M6014 5527 c-3 -9 -4 -28 -2 -44 4 -38 44 -46 54 -9 3 13 4 33 2 43
-4 22 -46 30 -54 10z"/>
<path d="M5111 5359 c-21 -8 -23 -14 -18 -46 7 -42 23 -56 49 -42 21 11 24 57
6 81 -10 12 -19 14 -37 7z"/>
<path d="M6064 4615 c-8 -31 0 -53 22 -62 26 -10 45 18 38 55 -5 25 -12 32
-30 32 -17 0 -25 -7 -30 -25z"/>
<path d="M6064 4407 c-3 -9 -4 -28 -2 -44 2 -22 8 -28 28 -28 23 0 25 4 25 40
0 34 -3 40 -23 43 -13 2 -24 -3 -28 -11z"/>
</g>
</svg>
