<?xml version="1.0" standalone="no"?>
<!DOCTYPE svg PUBLIC "-//W3C//DTD SVG 20010904//EN"
 "http://www.w3.org/TR/2001/REC-SVG-20010904/DTD/svg10.dtd">
<svg version="1.0" xmlns="http://www.w3.org/2000/svg"
 width="1024.000000pt" height="1024.000000pt" viewBox="0 0 1024.000000 1024.000000"
 preserveAspectRatio="xMidYMid meet">
<metadata>
Created by potrace 1.16, written by Peter Selinger 2001-2019
</metadata>
<g transform="translate(0.000000,1024.000000) scale(0.100000,-0.100000)"
fill="#000000" stroke="none">
<path d="M6045 7563 c-213 -27 -440 -112 -620 -232 -141 -93 -294 -275 -345
-411 -20 -54 -24 -54 -57 -3 -72 111 -300 313 -353 313 -29 0 -75 -32 -192
-133 -50 -42 -58 -54 -58 -83 0 -30 7 -39 63 -81 98 -74 267 -250 333 -348 74
-109 136 -220 128 -228 -3 -3 -31 4 -62 14 -369 129 -817 85 -1169 -114 -704
-399 -910 -1406 -468 -2287 85 -168 210 -343 350 -489 178 -186 359 -319 570
-421 208 -100 358 -140 555 -147 207 -8 357 28 522 124 66 39 71 39 108 13 45
-32 179 -81 260 -96 465 -83 1038 242 1396 791 230 353 359 813 340 1210 -17
359 -108 637 -294 900 -266 377 -727 599 -1190 571 -63 -4 -127 -10 -143 -13
-35 -7 -38 10 -5 25 42 19 222 199 274 275 143 208 202 401 202 664 0 139 -1
145 -25 168 -24 25 -44 28 -120 18z m33 -179 c8 -144 -41 -348 -119 -494 -87
-162 -199 -282 -370 -396 -84 -56 -253 -144 -275 -144 -5 0 -19 27 -32 61
l-24 60 38 46 c20 25 55 59 78 75 80 58 246 132 344 153 42 9 58 44 39 83 -11
24 -18 27 -58 25 -25 -2 -88 -16 -139 -33 -51 -17 -95 -28 -98 -26 -11 11 220
226 296 275 70 46 82 57 82 82 0 33 -23 59 -54 59 -38 0 -206 -119 -296 -209
-100 -100 -162 -184 -229 -310 -52 -100 -55 -101 -86 -23 -54 135 63 365 268
527 142 113 352 206 542 240 39 7 75 12 80 11 6 -2 11 -29 13 -62z m-1336
-340 c115 -93 240 -257 327 -431 44 -89 131 -298 131 -317 0 -13 -59 -51 -67
-43 -2 3 -33 65 -69 137 -124 254 -276 453 -459 596 l-39 32 34 28 c43 37 64
53 69 54 2 0 35 -25 73 -56z m-63 -739 c158 -33 317 -102 428 -186 29 -21 59
-39 68 -39 8 0 42 18 74 40 173 118 431 190 682 190 396 0 766 -184 1005 -499
80 -105 194 -332 229 -456 96 -338 84 -713 -36 -1080 -156 -476 -491 -882
-901 -1093 -164 -84 -308 -122 -466 -122 -153 0 -283 42 -381 124 -24 20 -53
36 -65 36 -12 0 -46 -19 -76 -42 -219 -165 -533 -197 -850 -86 -292 103 -588
317 -812 588 -133 160 -284 436 -347 630 -154 479 -128 974 71 1350 68 129
127 210 223 305 195 196 464 322 765 359 70 9 317 -3 389 -19z"/>
<path d="M4101 5984 c-110 -30 -252 -134 -340 -250 -184 -245 -191 -507 -12
-531 129 -17 400 228 524 475 68 137 63 251 -11 294 -42 24 -101 29 -161 12z
m99 -119 c54 -65 -209 -430 -371 -517 -64 -35 -77 -35 -90 -1 -23 60 34 209
126 325 111 142 292 245 335 193z"/>
</g>
</svg>
