<?xml version="1.0" encoding="UTF-8" standalone="no"?>
<!DOCTYPE svg PUBLIC "-//W3C//DTD SVG 1.1//EN" "http://www.w3.org/Graphics/SVG/1.1/DTD/svg11.dtd">
<svg width="100%" height="100%" viewBox="0 0 1024 1024" version="1.1" xmlns="http://www.w3.org/2000/svg" xmlns:xlink="http://www.w3.org/1999/xlink" xml:space="preserve" xmlns:serif="http://www.serif.com/" style="fill-rule:evenodd;clip-rule:evenodd;stroke-linejoin:round;stroke-miterlimit:2;">
    <g transform="matrix(0.1,0,0,-0.1,0,1024)">
        <path d="M4465,6252C4372,6222 4066,6062 3940,5978C3511,5693 3162,5309 2964,4905C2855,4682 2800,4485 2800,4316C2800,4083 2894,3975 3115,3951C3212,3941 3250,3951 3250,3988C3250,4031 3224,4047 3143,4054C2990,4067 2918,4132 2904,4267C2886,4441 2981,4746 3131,4998C3386,5423 3780,5793 4231,6029C4359,6096 4504,6160 4528,6160C4536,6160 4571,6133 4606,6100C4671,6037 4696,6028 4723,6058C4753,6091 4743,6115 4669,6184C4573,6275 4554,6282 4465,6252Z" style="fill-rule:nonzero;"/>
        <path d="M4446,5975C4154,5810 3878,5584 3688,5352C3478,5097 3317,4767 3260,4474C3234,4341 3222,4114 3239,4082C3252,4058 3291,4052 3308,4073C3313,4079 3320,4153 3323,4235C3329,4400 3349,4512 3401,4663C3470,4864 3608,5110 3753,5290C3937,5518 4233,5758 4517,5911C4612,5963 4627,5979 4610,6011C4593,6043 4551,6033 4446,5975Z" style="fill-rule:nonzero;"/>
        <path d="M4722,5968C4715,5961 4710,5944 4710,5929C4710,5907 4730,5887 4825,5810C4888,5760 4940,5714 4940,5709C4940,5704 4921,5682 4898,5660C4815,5579 4635,5517 4549,5540C4507,5552 4442,5616 4410,5680C4392,5714 4385,5721 4363,5718C4349,5716 4332,5707 4326,5698C4312,5675 4346,5605 4400,5546C4422,5522 4440,5500 4440,5498C4440,5495 4419,5487 4393,5481C4128,5414 3802,5112 3691,4831C3647,4718 3630,4634 3630,4523C3630,4371 3656,4283 3710,4255C3757,4230 4381,4217 5570,4216C6427,4215 6639,4218 6700,4229L6775,4243L6822,4189C6888,4115 6904,4069 6898,3973C6889,3818 6797,3713 6730,3780C6711,3799 6710,3811 6712,3909C6715,4004 6713,4020 6696,4039C6673,4064 6628,4066 6605,4043C6593,4031 6590,4017 6595,3991C6598,3971 6602,3915 6603,3865C6606,3738 6640,3684 6731,3660C6776,3648 6810,3654 6866,3686C6994,3759 7047,4008 6968,4164C6940,4219 6855,4306 6730,4409C6672,4456 6562,4547 6485,4610C6408,4674 6284,4775 6210,4835C6136,4895 6041,4971 6000,5005C5868,5113 5451,5448 5255,5604C5151,5687 5002,5806 4925,5867C4785,5979 4751,5997 4722,5968ZM5117,5582L5203,5513L5205,5439C5208,5263 5299,5151 5475,5105C5541,5088 5629,5085 5677,5099C5706,5107 5713,5104 5782,5047C5823,5013 5921,4933 6000,4870C6078,4807 6184,4721 6234,4679C6343,4589 6533,4435 6613,4372C6654,4340 6667,4323 6660,4316C6635,4291 4178,4302 3831,4329L3747,4335L3732,4375C3722,4402 3717,4451 3717,4525C3717,4623 3720,4646 3749,4730C3820,4940 3936,5097 4127,5242C4260,5344 4455,5428 4595,5444C4744,5462 4872,5516 4961,5599C4991,5627 5019,5649 5023,5650C5027,5650 5070,5619 5117,5582ZM5488,5282C5555,5230 5607,5183 5603,5179C5591,5168 5479,5189 5432,5212C5408,5223 5373,5248 5355,5267C5319,5304 5284,5390 5294,5416C5299,5429 5305,5427 5332,5405C5350,5391 5420,5335 5488,5282Z" style="fill-rule:nonzero;"/>
        <path d="M4490,5216C4379,5191 4290,5127 4242,5035C4220,4993 4216,4972 4215,4900C4215,4827 4219,4807 4243,4758C4359,4522 4741,4441 4934,4612C4960,4634 4993,4676 5008,4704C5031,4748 5035,4767 5035,4845C5035,4925 5032,4941 5005,4993C4951,5101 4831,5186 4692,5216C4612,5232 4564,5233 4490,5216ZM4745,5108C4818,5080 4892,5013 4926,4945C4960,4874 4958,4783 4920,4726C4828,4590 4591,4571 4424,4685C4341,4743 4300,4813 4300,4901C4300,5010 4387,5103 4513,5130C4574,5143 4680,5133 4745,5108Z" style="fill-rule:nonzero;"/>
        <path d="M5833,4745C5733,4718 5672,4657 5663,4576C5656,4513 5675,4466 5726,4422C5829,4331 6020,4332 6116,4424C6240,4544 6166,4716 5976,4749C5900,4762 5898,4762 5833,4745ZM6006,4651C6080,4617 6110,4553 6074,4502C6021,4426 5829,4423 5770,4497C5743,4531 5744,4582 5773,4615C5818,4668 5931,4685 6006,4651Z" style="fill-rule:nonzero;"/>
        <path d="M3346,4039C3316,4015 3313,3990 3338,3967C3355,3951 3460,3950 4600,3948L5843,3945L5841,3853C5838,3713 5861,3651 5932,3614C5968,3595 6024,3596 6061,3616C6078,3624 6094,3630 6096,3628C6098,3626 6092,3571 6083,3507C6064,3377 6071,3308 6111,3244C6170,3148 6325,3146 6404,3241C6462,3310 6502,3435 6516,3591C6521,3654 6520,3669 6505,3683C6462,3726 6423,3689 6409,3594C6384,3409 6360,3338 6308,3295C6275,3267 6262,3265 6226,3281C6167,3308 6167,3415 6225,3700C6270,3922 6272,3961 6240,3995C6223,4013 6206,4020 6180,4020C6123,4020 6104,3991 6077,3868C6044,3720 6011,3675 5967,3718C5944,3741 5941,3789 5950,3938C5957,4049 5966,4045 5663,4053C5527,4057 4955,4060 4394,4060C3376,4060 3373,4060 3346,4039Z" style="fill-rule:nonzero;"/>
    </g>
</svg>
