<?xml version="1.0" standalone="no"?>
<!DOCTYPE svg PUBLIC "-//W3C//DTD SVG 20010904//EN"
 "http://www.w3.org/TR/2001/REC-SVG-20010904/DTD/svg10.dtd">
<svg version="1.0" xmlns="http://www.w3.org/2000/svg"
 width="1024.000000pt" height="1024.000000pt" viewBox="0 0 1024.000000 1024.000000"
 preserveAspectRatio="xMidYMid meet">
<metadata>
Created by potrace 1.16, written by Peter Selinger 2001-2019
</metadata>
<g transform="translate(0.000000,1024.000000) scale(0.100000,-0.100000)"
fill="#000000" stroke="none">
<path d="M1708 6672 c-43 -38 -52 -71 -73 -249 -28 -239 -16 -599 29 -857 63
-359 167 -685 317 -996 173 -356 346 -611 586 -860 350 -363 764 -622 1272
-794 545 -185 1144 -265 1699 -226 520 37 920 137 1321 331 651 313 1095 759
1376 1379 65 144 170 450 214 625 119 477 160 1013 106 1385 -20 138 -38 184
-80 210 l-33 21 -2499 3 c-1591 2 -2616 8 -2823 15 -179 6 -449 15 -600 21
-151 5 -388 13 -525 16 l-251 7 -36 -31z m450 -118 c72 -5 83 -8 78 -22 -61
-185 -60 -180 -60 -347 0 -202 15 -265 124 -495 107 -226 121 -282 140 -540
11 -158 37 -280 87 -405 75 -188 161 -314 311 -456 90 -85 146 -125 432 -309
102 -65 176 -133 385 -348 166 -172 310 -260 510 -311 233 -60 413 -54 721 23
77 19 175 40 219 47 104 16 381 17 470 1 635 -112 1342 128 1675 570 70 92
109 167 174 327 61 152 101 220 191 325 242 282 304 499 239 837 -32 167 -12
298 75 496 50 115 64 185 58 293 -3 68 -12 115 -31 166 -14 39 -26 77 -26 83
0 8 67 11 234 11 l234 0 6 -25 c21 -83 36 -271 36 -447 0 -654 -182 -1359
-479 -1859 -368 -620 -1054 -1088 -1846 -1263 -268 -59 -432 -77 -766 -83
-390 -7 -636 15 -980 87 -662 139 -1163 389 -1615 805 -440 405 -804 1094
-938 1775 -47 242 -60 370 -59 615 0 210 18 423 38 456 6 8 179 5 363 -7z
m772 -25 c487 -19 1533 -27 3065 -24 847 1 1595 1 1662 -2 l121 -4 35 -99 c62
-171 60 -250 -12 -409 -76 -169 -94 -242 -95 -381 0 -69 5 -150 12 -180 49
-209 24 -389 -76 -558 -22 -37 -79 -112 -127 -167 -106 -123 -151 -198 -216
-362 -62 -156 -102 -231 -178 -325 -108 -137 -266 -257 -458 -349 -316 -151
-638 -198 -1035 -150 -306 37 -504 24 -803 -51 -143 -37 -176 -41 -315 -45
-122 -4 -173 -2 -240 12 -242 49 -399 146 -600 371 -145 163 -242 241 -439
359 -151 90 -251 167 -342 262 -93 97 -148 178 -205 297 -76 162 -92 234 -124
573 -14 151 -47 258 -136 444 -94 198 -116 278 -118 429 -1 125 9 179 56 304
l30 78 142 -6 c77 -4 256 -11 396 -17z"/>
<path d="M4514 5881 c-44 -27 -159 -173 -199 -255 -61 -121 -40 -210 56 -236
125 -34 204 93 216 346 8 166 -3 188 -73 145z"/>
<path d="M6703 5853 c-20 -7 -16 -109 8 -199 47 -181 119 -284 200 -284 45 0
102 29 114 58 33 82 25 123 -44 214 -94 124 -233 229 -278 211z"/>
<path d="M5851 5676 c-43 -52 -55 -363 -17 -440 27 -55 92 -83 149 -66 22 6
53 25 69 40 23 24 28 37 28 80 0 61 -28 149 -81 250 -66 128 -116 174 -148
136z"/>
<path d="M3368 5441 c-14 -11 -48 -54 -77 -95 -100 -145 -140 -266 -111 -336
16 -40 72 -73 122 -73 83 0 130 71 149 223 19 158 -2 300 -45 300 -7 0 -24 -9
-38 -19z"/>
<path d="M4961 4934 c-49 -63 -105 -279 -99 -383 4 -58 7 -66 41 -97 30 -28
44 -34 82 -34 61 0 98 21 120 66 42 89 -16 383 -89 457 -23 23 -31 22 -55 -9z"/>
<path d="M4118 4607 c-68 -46 -196 -244 -217 -336 -18 -81 25 -151 104 -165
47 -9 102 17 132 62 32 48 56 171 57 292 1 160 -13 189 -76 147z"/>
<path d="M6110 4575 c-31 -38 16 -318 70 -411 29 -52 75 -84 119 -84 40 0 90
28 111 62 47 78 6 178 -143 351 -76 87 -130 115 -157 82z"/>
</g>
</svg>
