<?xml version="1.0" standalone="no"?>
<!DOCTYPE svg PUBLIC "-//W3C//DTD SVG 20010904//EN"
 "http://www.w3.org/TR/2001/REC-SVG-20010904/DTD/svg10.dtd">
<svg version="1.0" xmlns="http://www.w3.org/2000/svg"
 width="1024.000000pt" height="1024.000000pt" viewBox="0 0 1024.000000 1024.000000"
 preserveAspectRatio="xMidYMid meet">
<metadata>
Created by potrace 1.16, written by Peter Selinger 2001-2019
</metadata>
<g transform="translate(0.000000,1024.000000) scale(0.100000,-0.100000)"
fill="#000000" stroke="none">
<path d="M4755 6999 c-392 -9 -584 -29 -794 -81 -393 -96 -650 -315 -692 -586
-20 -134 22 -268 117 -371 l50 -54 -172 -171 c-102 -101 -189 -197 -213 -235
-78 -122 -103 -260 -100 -543 l2 -167 -45 -53 c-79 -92 -326 -427 -364 -491
-46 -78 -74 -149 -74 -187 0 -39 43 -88 84 -96 18 -3 89 1 157 10 68 9 178 19
245 22 l121 7 6 -124 c3 -70 12 -146 21 -175 36 -116 139 -225 276 -294 260
-130 829 -206 1711 -230 369 -10 813 -1 984 21 183 23 333 77 421 153 45 39
97 127 114 199 7 26 15 47 19 47 4 0 27 -10 52 -21 112 -55 166 -32 200 84 11
40 34 116 51 169 l31 97 53 26 c59 29 85 64 120 159 29 82 73 116 204 156 79
24 103 36 120 59 22 31 26 75 10 115 -13 35 -76 102 -129 138 -25 17 -48 32
-49 34 -2 1 15 28 38 59 23 31 50 75 61 98 39 88 12 195 -62 244 -41 27 -47
37 -28 49 7 4 9 24 6 57 l-6 49 95 112 c107 124 313 394 338 443 22 44 20 77
-6 108 -23 26 -42 30 -345 71 l-43 5 0 141 c0 242 -40 434 -120 569 -56 95
-170 199 -272 248 -164 79 -357 114 -733 131 -244 11 -998 11 -1460 -1z m1375
-143 c523 -9 735 -60 889 -215 123 -123 169 -262 178 -536 10 -319 -25 -385
-405 -769 -314 -317 -401 -369 -692 -408 -132 -18 -1922 -18 -2195 0 -306 20
-427 36 -545 74 -188 59 -277 167 -249 300 18 82 81 163 274 355 243 240 248
256 124 389 -66 71 -84 102 -99 170 -36 159 93 350 312 464 93 49 255 103 370
124 226 42 337 48 998 55 355 3 670 5 700 4 30 -2 183 -5 340 -7z m1353 -1097
c53 -6 97 -15 97 -19 0 -15 -169 -227 -315 -395 -170 -196 -599 -628 -695
-699 -115 -87 -234 -125 -448 -146 -416 -40 -1940 -27 -2487 21 -319 28 -457
87 -514 219 -21 49 -48 226 -37 237 3 3 29 -10 58 -30 145 -100 400 -145 923
-167 705 -28 1848 -20 2095 15 309 44 438 129 843 554 177 186 236 262 279
359 l33 73 35 -5 c19 -3 79 -11 133 -17z m-283 -822 c78 -50 85 -74 45 -142
-35 -60 -228 -259 -359 -370 -188 -160 -347 -236 -596 -284 -480 -93 -1594
-67 -2425 55 -398 59 -770 138 -868 184 -51 24 -97 71 -97 100 0 18 78 131
100 145 6 4 20 -6 32 -22 65 -83 168 -146 293 -177 215 -54 686 -81 1605 -92
500 -7 1028 5 1233 27 211 23 367 79 502 181 38 29 155 139 260 244 104 105
195 191 200 192 6 1 39 -17 75 -41z m121 -513 c8 -10 8 -15 -2 -18 -8 -3 -32
-10 -54 -17 -63 -19 -114 -47 -193 -105 -92 -70 -151 -144 -212 -269 -45 -93
-100 -255 -100 -297 0 -10 -2 -18 -5 -18 -3 0 -82 31 -177 69 -211 85 -241 93
-337 92 -128 0 -185 -28 -328 -163 -86 -81 -97 -88 -134 -88 -54 0 -71 10
-159 95 -169 163 -303 176 -560 55 -143 -67 -183 -80 -249 -80 -73 0 -137 30
-244 113 -210 164 -350 185 -589 91 -113 -45 -172 -53 -217 -29 -18 9 -66 47
-106 85 -133 122 -237 171 -412 191 -109 12 -330 6 -514 -16 -63 -7 -116 -11
-118 -9 -5 5 112 198 144 238 l24 30 45 -42 c92 -85 195 -122 521 -187 543
-109 1126 -174 1765 -196 733 -26 1213 19 1500 140 180 76 263 133 460 314
l125 114 57 -40 c32 -22 63 -46 69 -53z m-3916 -479 c44 -22 104 -65 160 -116
104 -94 155 -120 245 -127 53 -3 79 1 138 22 39 14 105 38 145 52 59 22 84 25
142 22 85 -6 115 -21 255 -123 58 -42 121 -85 140 -95 57 -29 137 -43 214 -38
72 5 121 22 324 113 94 42 178 54 236 35 23 -7 74 -47 131 -100 110 -104 154
-124 247 -118 85 5 135 33 233 128 122 118 192 145 305 116 103 -27 160 -55
160 -80 0 -88 -60 -175 -153 -223 -136 -69 -265 -84 -772 -90 -1006 -13 -1809
68 -2110 212 -146 70 -214 172 -223 331 -2 51 -2 100 2 110 10 25 96 11 181
-31z"/>
<path d="M6194 6545 c-14 -21 -14 -30 -4 -55 14 -33 22 -36 122 -45 145 -12
251 -68 308 -160 18 -29 28 -35 55 -35 37 0 65 28 65 66 0 29 -55 108 -100
144 -83 66 -229 110 -366 110 -57 0 -65 -3 -80 -25z"/>
<path d="M4090 6525 c-142 -32 -265 -119 -319 -227 -36 -71 -38 -98 -12 -122
36 -32 71 -17 108 46 63 108 156 166 308 192 61 10 72 15 83 39 11 22 11 32 0
55 -11 23 -20 27 -58 29 -25 1 -74 -5 -110 -12z"/>
<path d="M6242 5533 c-7 -3 -24 -30 -38 -61 -32 -73 -57 -99 -121 -128 -106
-48 -242 -51 -366 -8 -58 20 -94 12 -107 -22 -28 -72 72 -123 260 -132 215 -9
367 64 436 212 31 67 31 99 -2 125 -27 21 -38 24 -62 14z"/>
<path d="M3552 5458 c-7 -7 -12 -29 -12 -49 0 -70 102 -173 203 -205 69 -22
263 -30 297 -12 36 20 48 60 26 94 -17 25 -21 26 -85 21 -146 -12 -249 25
-312 109 -34 46 -44 54 -72 54 -18 0 -38 -5 -45 -12z"/>
</g>
</svg>
