<?xml version="1.0" standalone="no"?>
<!DOCTYPE svg PUBLIC "-//W3C//DTD SVG 20010904//EN"
 "http://www.w3.org/TR/2001/REC-SVG-20010904/DTD/svg10.dtd">
<svg version="1.0" xmlns="http://www.w3.org/2000/svg"
 width="1024.000000pt" height="1024.000000pt" viewBox="0 0 1024.000000 1024.000000"
 preserveAspectRatio="xMidYMid meet">
<metadata>
Created by potrace 1.16, written by Peter Selinger 2001-2019
</metadata>
<g transform="translate(0.000000,1024.000000) scale(0.100000,-0.100000)"
fill="#000000" stroke="none">
<path d="M5364 8360 c-95 -19 -176 -77 -208 -147 -9 -21 -58 -249 -110 -507
l-93 -470 -104 -17 c-253 -43 -477 -135 -674 -274 -318 -226 -555 -573 -659
-965 -18 -66 -27 -86 -42 -88 -119 -20 -198 -72 -243 -163 -69 -139 -20 -309
111 -380 12 -7 50 -20 83 -29 l60 -17 12 -119 c138 -1344 178 -1698 294 -2589
70 -542 95 -708 108 -732 14 -27 82 -43 321 -77 586 -84 1262 -80 1850 10 192
30 245 42 260 59 6 7 21 91 35 188 32 227 171 1299 190 1464 8 70 25 227 39
348 33 285 100 903 126 1165 31 312 25 287 74 295 88 15 172 77 213 159 22 42
26 64 26 126 0 47 -7 89 -17 113 -38 86 -134 158 -233 173 -40 6 -43 9 -53 48
-106 417 -326 750 -665 1006 -72 54 -244 148 -366 199 l-47 19 34 143 c19 79
67 283 106 453 68 295 70 310 59 361 -28 125 -156 220 -328 245 -78 11 -102
11 -159 0z m211 -171 c55 -24 102 -60 114 -86 10 -21 9 -29 -6 -46 -65 -73
-257 -60 -345 24 -58 55 -50 86 29 115 45 17 163 13 208 -7z m-262 -279 c75
-42 175 -63 265 -56 50 4 72 2 72 -5 0 -19 -301 -1312 -433 -1859 l-23 -95
-176 -3 -176 -2 53 262 c83 407 348 1730 353 1761 2 15 6 27 8 27 2 0 28 -13
57 -30z m-459 -1162 c-35 -178 -88 -442 -117 -588 l-53 -265 -512 -3 c-433 -2
-512 0 -512 12 0 25 48 179 79 254 30 73 123 237 170 302 171 235 391 409 656
519 83 35 281 90 326 91 l26 0 -63 -322z m900 192 c395 -195 686 -549 805
-978 l20 -72 -610 0 c-369 0 -609 4 -609 9 0 9 18 88 176 756 86 363 81 345
90 345 3 0 61 -27 128 -60z m1063 -1230 c83 -50 83 -170 0 -220 -31 -20 -63
-20 -1698 -20 l-1666 0 -34 23 c-85 57 -86 163 -2 218 27 18 90 19 1698 19
1639 0 1671 0 1702 -20z m-231 -472 c-13 -138 -126 -1188 -151 -1410 -48 -420
-198 -1605 -226 -1784 l-11 -71 -107 -17 c-526 -82 -1143 -96 -1686 -36 -170
19 -351 46 -366 56 -9 5 -13 31 -53 329 -113 835 -206 1634 -301 2570 -19 193
-38 369 -41 393 l-6 42 1477 0 1478 0 -7 -72z"/>
<path d="M4405 6679 c-43 -12 -191 -136 -251 -211 -101 -126 -174 -254 -174
-306 0 -48 55 -81 104 -62 18 6 33 25 46 55 53 124 186 285 306 371 64 46 79
71 64 108 -15 41 -50 57 -95 45z"/>
<path d="M5727 6690 c-19 -16 -27 -30 -27 -54 0 -35 15 -53 91 -104 25 -16 75
-58 112 -91 75 -68 103 -75 142 -36 44 43 34 71 -50 153 -138 132 -217 172
-268 132z"/>
<path d="M6086 6319 c-17 -13 -26 -30 -26 -48 0 -30 81 -216 104 -239 21 -21
71 -19 96 3 34 31 24 81 -44 226 -37 78 -80 97 -130 58z"/>
<path d="M4181 4723 c-11 -10 -24 -32 -27 -50 -5 -27 -1 -37 24 -63 38 -38 66
-38 103 -1 36 36 37 73 4 106 -29 30 -74 33 -104 8z"/>
<path d="M5955 4715 c-47 -46 -23 -118 42 -131 67 -13 113 86 63 136 -28 28
-75 26 -105 -5z"/>
<path d="M4052 4580 c-30 -13 -78 -115 -98 -211 -11 -54 -15 -116 -12 -227 l3
-154 28 -24 c34 -29 67 -31 98 -5 23 19 24 22 24 202 0 183 0 184 34 273 36
99 34 128 -15 146 -30 12 -32 12 -62 0z"/>
<path d="M6125 4580 c-54 -21 -55 -53 -10 -179 32 -88 42 -212 27 -320 -12
-83 -4 -112 35 -130 45 -21 77 -9 102 38 21 38 19 320 -2 406 -27 106 -61 171
-99 184 -17 6 -31 11 -32 10 -1 0 -10 -4 -21 -9z"/>
<path d="M4300 4309 c-13 -5 -28 -15 -32 -22 -4 -7 -8 -78 -8 -159 0 -147 0
-147 26 -167 35 -28 69 -26 99 4 24 23 25 29 25 163 0 119 -3 143 -17 160 -22
26 -60 34 -93 21z"/>
<path d="M5848 4293 c-11 -13 -17 -53 -21 -151 -7 -148 -1 -174 44 -193 37
-15 87 4 100 38 5 13 9 83 9 154 0 116 -2 131 -20 149 -26 26 -91 27 -112 3z"/>
<path d="M4715 4128 c-41 -22 -45 -37 -45 -179 0 -163 17 -255 64 -354 80
-166 215 -256 386 -256 121 0 212 42 298 136 102 111 141 230 149 457 l6 156
-26 26 c-29 29 -71 34 -103 11 -12 -7 -31 -42 -44 -76 -45 -125 -156 -204
-285 -203 -130 0 -230 72 -279 203 -32 83 -69 108 -121 79z m157 -368 c77 -60
241 -86 358 -56 36 9 89 30 117 47 29 16 53 25 53 19 0 -5 -12 -39 -26 -75
-104 -260 -384 -274 -502 -24 -52 110 -52 130 0 89z"/>
<path d="M4277 2276 c-38 -39 -30 -107 15 -126 55 -22 670 -66 740 -53 57 11
81 84 40 125 -16 17 -44 20 -228 29 -115 5 -256 14 -314 19 -237 24 -235 24
-253 6z"/>
<path d="M5725 2274 c-66 -7 -216 -17 -332 -22 -186 -8 -216 -11 -233 -27 -30
-27 -24 -91 10 -117 24 -17 37 -18 230 -8 306 15 510 37 540 59 32 23 40 84
14 112 -20 22 -50 23 -229 3z"/>
</g>
</svg>
