<?xml version="1.0" standalone="no"?>
<!DOCTYPE svg PUBLIC "-//W3C//DTD SVG 20010904//EN"
 "http://www.w3.org/TR/2001/REC-SVG-20010904/DTD/svg10.dtd">
<svg version="1.0" xmlns="http://www.w3.org/2000/svg"
 width="1024.000000pt" height="1024.000000pt" viewBox="0 0 1024.000000 1024.000000"
 preserveAspectRatio="xMidYMid meet">
<metadata>
Created by potrace 1.16, written by Peter Selinger 2001-2019
</metadata>
<g transform="translate(0.000000,1024.000000) scale(0.100000,-0.100000)"
fill="#000000" stroke="none">
<path d="M5895 7559 c-144 -21 -275 -66 -400 -138 -87 -49 -241 -209 -285
-294 -31 -61 -38 -67 -60 -63 -77 17 -222 36 -271 36 -46 0 -59 -4 -79 -25
-21 -22 -25 -46 -51 -307 -38 -378 -35 -361 -68 -353 -151 39 -223 43 -339 19
-303 -61 -511 -315 -512 -625 0 -87 27 -204 64 -278 l26 -51 -44 -54 c-90
-110 -136 -242 -136 -388 0 -115 14 -176 62 -278 55 -115 158 -219 273 -276
44 -21 82 -40 83 -41 2 -1 -6 -39 -17 -84 -91 -361 128 -703 489 -763 l36 -6
-4 -103 c-5 -128 8 -195 59 -297 66 -132 201 -251 342 -300 87 -31 258 -38
347 -15 102 26 185 72 263 146 79 74 126 144 165 247 22 58 26 84 26 188 l1
121 75 39 c152 77 273 232 316 404 22 89 15 261 -16 347 l-21 61 45 59 c57 74
100 160 121 243 20 77 23 221 6 305 -19 91 -84 214 -152 288 -32 36 -59 68
-59 71 0 4 20 31 44 61 115 141 160 334 121 519 -16 75 -62 182 -100 232 l-24
31 142 115 c78 63 149 127 157 142 14 26 13 31 -32 115 l-46 88 42 49 c181
209 203 252 151 292 -34 27 -218 86 -352 114 l-113 23 0 30 c0 16 7 89 15 160
19 165 19 152 -10 180 -22 23 -31 25 -122 24 -54 -1 -125 -5 -158 -10z m82
-226 c-3 -16 -11 -88 -18 -162 l-13 -134 27 -23 c16 -13 46 -25 74 -29 90 -12
209 -35 261 -50 l53 -16 -73 -80 c-40 -44 -76 -89 -80 -100 -9 -23 -1 -47 41
-118 18 -29 31 -59 29 -66 -2 -6 -49 -49 -105 -93 l-101 -82 -69 31 c-226 101
-485 70 -672 -83 -30 -23 -59 -47 -66 -52 -9 -7 -24 0 -49 22 -46 40 -134 85
-209 107 l-56 16 4 42 c3 23 12 121 21 217 8 96 17 177 20 179 8 8 126 -19
232 -55 56 -18 153 -58 214 -89 62 -30 123 -55 136 -55 81 0 142 112 97 177
-20 28 -97 71 -212 118 l-93 38 22 38 c86 154 254 270 453 314 33 7 77 14 99
14 37 1 38 0 33 -26z m-142 -1078 c165 -43 288 -179 315 -349 27 -172 -69
-366 -217 -435 l-52 -24 -53 47 c-87 77 -253 145 -355 146 -37 0 -36 -4 -23
98 12 91 -2 204 -35 286 -28 68 -26 74 38 133 105 97 246 133 382 98z m-1465
-29 c0 -2 -20 -33 -44 -69 -94 -141 -123 -289 -94 -490 2 -14 -13 -23 -67 -42
-63 -22 -71 -22 -82 -8 -51 66 -57 275 -11 375 43 93 137 182 233 221 39 15
65 21 65 13z m643 -43 c139 -66 237 -215 237 -363 0 -251 -238 -462 -474 -421
-261 46 -417 310 -326 553 41 111 124 197 237 244 51 22 70 24 158 22 88 -3
108 -7 168 -35z m-453 -927 c76 -37 113 -49 183 -59 72 -9 86 -14 81 -27 -16
-39 -16 -217 0 -283 9 -38 16 -69 16 -70 0 -1 -40 0 -89 1 -145 6 -296 -46
-413 -141 -32 -26 -66 -47 -75 -47 -38 0 -142 60 -194 111 -163 160 -169 413
-13 580 58 61 117 97 197 119 l59 16 77 -76 c61 -61 96 -87 171 -124z m956
170 c286 -76 403 -394 236 -636 -46 -66 -140 -133 -219 -156 -74 -21 -189 -15
-266 15 -165 65 -275 259 -247 436 39 242 270 401 496 341z m557 -229 c139
-142 165 -337 70 -519 -37 -70 -51 -80 -74 -51 -8 9 -37 31 -65 49 l-52 33 34
84 c48 118 60 220 40 328 -8 46 -18 94 -22 107 -11 37 14 26 69 -31z m-1178
-616 c86 -40 158 -108 197 -188 26 -53 32 -80 36 -148 5 -92 -19 -193 -47
-202 -114 -39 -252 -139 -301 -219 -19 -29 -27 -34 -60 -34 -49 0 -147 31
-203 63 -133 78 -216 260 -188 413 51 273 327 427 566 315z m990 -76 c144
-103 209 -265 171 -428 -9 -37 -24 -84 -35 -105 -30 -58 -102 -133 -166 -171
l-57 -35 -21 30 c-11 16 -53 62 -93 102 -83 82 -172 131 -292 159 -56 13 -71
21 -67 32 16 40 16 170 1 241 -9 41 -16 78 -16 82 0 4 35 5 78 2 52 -4 101 -1
151 10 74 16 229 85 252 112 17 21 26 18 94 -31z m-532 -650 c120 -31 213
-104 266 -207 83 -164 48 -355 -89 -481 -83 -77 -147 -101 -270 -102 -88 0
-101 3 -161 33 -163 79 -261 261 -230 426 31 165 143 287 302 330 70 19 112
19 182 1z"/>
</g>
</svg>
