<?xml version="1.0" standalone="no"?>
<!DOCTYPE svg PUBLIC "-//W3C//DTD SVG 20010904//EN"
 "http://www.w3.org/TR/2001/REC-SVG-20010904/DTD/svg10.dtd">
<svg version="1.0" xmlns="http://www.w3.org/2000/svg"
 width="1024.000000pt" height="1024.000000pt" viewBox="0 0 1024.000000 1024.000000"
 preserveAspectRatio="xMidYMid meet">
<metadata>
Created by potrace 1.16, written by Peter Selinger 2001-2019
</metadata>
<g transform="translate(0.000000,1024.000000) scale(0.100000,-0.100000)"
fill="#000000" stroke="none">
<path d="M5022 6995 c-47 -39 -86 -138 -85 -215 0 -76 19 -120 93 -216 84
-109 86 -144 17 -278 -58 -111 -65 -228 -17 -276 22 -22 70 -26 88 -8 7 7 12
42 12 86 0 70 3 80 47 161 40 73 47 95 51 157 6 96 -14 151 -88 244 -81 101
-91 167 -35 251 29 44 32 81 9 103 -22 23 -58 20 -92 -9z"/>
<path d="M5510 6592 c-29 -24 -30 -80 -1 -142 26 -57 26 -106 1 -150 -76 -132
-87 -192 -47 -270 24 -50 65 -72 95 -53 17 10 19 34 10 134 -2 27 7 52 42 109
41 68 45 80 45 140 0 53 -6 77 -33 132 -17 37 -32 74 -32 82 0 15 -29 36 -48
36 -5 0 -20 -8 -32 -18z"/>
<path d="M4571 6517 c-22 -28 -41 -88 -41 -135 0 -38 8 -61 36 -108 77 -125
78 -131 33 -229 -26 -56 -30 -70 -20 -91 16 -35 69 -33 103 4 87 92 97 239 23
336 -53 70 -57 82 -50 147 5 41 3 64 -5 74 -15 19 -64 20 -79 2z"/>
<path d="M4910 5840 c-326 -22 -597 -87 -803 -193 -164 -83 -262 -195 -288
-329 -15 -78 -12 -300 6 -401 33 -187 104 -367 211 -530 79 -122 253 -300 361
-371 277 -181 601 -257 903 -211 284 43 536 169 730 364 120 121 185 207 255
343 104 199 145 359 152 583 6 174 -4 244 -47 332 -94 192 -419 338 -880 397
-145 18 -450 27 -600 16z m645 -154 c355 -58 625 -172 710 -300 23 -35 26 -49
23 -98 -4 -58 -17 -86 -26 -58 -9 29 -102 108 -169 143 -425 223 -1222 257
-1757 76 -148 -50 -298 -140 -333 -200 -23 -38 -30 -37 -42 9 -51 188 296 374
814 437 153 19 642 13 780 -9z m-145 -267 c312 -30 620 -131 725 -239 49 -50
44 -60 -51 -112 -208 -114 -564 -182 -954 -182 -290 0 -464 21 -714 86 -124
33 -310 117 -330 150 -16 26 51 89 144 138 275 142 720 203 1180 159z m-1317
-463 c136 -77 344 -137 607 -178 197 -30 596 -32 800 -5 364 50 625 137 758
253 49 43 52 44 52 21 0 -50 -31 -197 -59 -284 -176 -539 -702 -893 -1236
-834 -479 54 -861 369 -1019 842 -25 74 -56 228 -56 277 0 24 1 24 43 -15 24
-22 73 -57 110 -77z"/>
<path d="M4193 4743 c-7 -3 -13 -17 -13 -32 0 -48 96 -227 152 -283 36 -36
108 -12 108 37 0 10 -18 46 -39 80 -45 70 -71 128 -71 156 0 11 -9 21 -22 24
-76 17 -104 21 -115 18z"/>
</g>
</svg>
