<?xml version="1.0" standalone="no"?>
<!DOCTYPE svg PUBLIC "-//W3C//DTD SVG 20010904//EN"
 "http://www.w3.org/TR/2001/REC-SVG-20010904/DTD/svg10.dtd">
<svg version="1.0" xmlns="http://www.w3.org/2000/svg"
 width="1024.000000pt" height="1024.000000pt" viewBox="0 0 1024.000000 1024.000000"
 preserveAspectRatio="xMidYMid meet">
<metadata>
Created by potrace 1.16, written by Peter Selinger 2001-2019
</metadata>
<g transform="translate(0.000000,1024.000000) scale(0.100000,-0.100000)"
fill="#000000" stroke="none">
<path d="M5236 8837 c-16 -16 -26 -41 -31 -78 -24 -179 -125 -361 -259 -470
-72 -58 -156 -104 -286 -154 -262 -103 -442 -270 -521 -486 -19 -51 -24 -83
-24 -164 0 -55 4 -117 8 -137 l8 -36 -58 -31 c-200 -107 -347 -306 -399 -539
-23 -102 -15 -283 15 -367 12 -33 24 -67 27 -75 3 -10 -10 -23 -40 -39 -96
-50 -197 -173 -236 -286 -79 -225 8 -388 232 -436 26 -6 48 -12 48 -14 0 -15
77 -353 101 -445 40 -152 78 -221 151 -278 32 -25 58 -49 58 -54 0 -4 18 -47
39 -95 22 -49 92 -207 156 -353 560 -1270 962 -2122 1105 -2337 68 -103 102
-133 152 -133 63 0 79 20 166 210 77 168 144 346 289 775 129 382 185 558 399
1255 69 225 187 627 229 781 40 146 46 160 94 219 91 113 101 166 136 703 l7
98 58 29 c157 79 201 253 111 433 -57 114 -166 207 -289 248 -37 12 -68 22
-69 23 -1 1 5 24 13 51 25 84 35 202 24 287 -40 294 -229 508 -528 598 -59 18
-72 25 -67 39 3 9 9 52 12 96 8 108 -15 216 -71 330 -55 114 -109 185 -263
347 -160 168 -249 274 -311 373 -80 126 -89 135 -128 135 -23 0 -43 -8 -58
-23z m104 -264 c0 -15 122 -156 259 -301 156 -164 216 -239 261 -330 68 -138
79 -287 27 -389 -15 -29 -27 -61 -27 -72 0 -33 47 -61 101 -61 64 0 190 -41
264 -85 176 -106 275 -277 275 -477 0 -109 -14 -165 -64 -270 -36 -74 -37 -77
-21 -107 15 -31 16 -31 100 -31 106 0 175 -24 242 -85 94 -84 137 -213 94
-282 -24 -38 -125 -89 -254 -128 -318 -96 -954 -202 -1522 -254 -326 -30 -556
-41 -870 -41 -415 0 -580 23 -621 85 -25 38 -28 97 -9 156 46 143 154 245 277
263 78 12 90 65 33 147 -95 138 -101 365 -15 543 66 137 191 263 318 321 101
47 107 50 116 78 8 21 5 36 -14 74 -32 63 -38 168 -15 249 47 167 197 319 392
399 182 75 223 95 289 138 154 101 272 240 340 400 25 58 44 84 44 60z m1302
-2828 c-3 -86 -21 -333 -28 -380 -10 -73 -36 -150 -61 -184 -33 -43 -100 -73
-246 -111 -335 -88 -826 -160 -1292 -190 -318 -20 -774 -9 -888 21 -55 15
-113 71 -136 133 -15 42 -111 443 -111 467 0 4 186 9 413 12 638 8 1237 67
1847 183 152 29 418 90 452 104 45 18 52 10 50 -55z m-212 -806 c0 -39 -316
-1084 -510 -1689 -197 -613 -417 -1210 -445 -1210 -29 0 -279 485 -518 1005
-183 399 -576 1274 -737 1640 l-17 40 421 0 c361 1 453 4 646 23 415 42 792
103 1040 171 128 35 120 33 120 20z"/>
<path d="M5575 6857 c-71 -40 -104 -142 -71 -220 17 -42 66 -83 115 -98 142
-42 269 117 201 251 -44 87 -156 117 -245 67z"/>
<path d="M4374 6736 c-52 -23 -87 -79 -92 -146 -5 -73 17 -122 71 -158 83 -55
210 -24 250 61 25 52 22 136 -6 178 -44 66 -149 97 -223 65z"/>
<path d="M5236 6448 c-9 -12 -16 -32 -16 -44 0 -30 -41 -86 -75 -104 -40 -19
-112 -18 -153 4 -23 12 -40 32 -54 64 -24 55 -32 62 -74 62 -39 0 -74 -36 -74
-76 0 -46 58 -134 112 -170 121 -81 303 -59 392 47 68 80 89 191 44 223 -33
24 -84 20 -102 -6z"/>
</g>
</svg>
