<?xml version="1.0" standalone="no"?>
<!DOCTYPE svg PUBLIC "-//W3C//DTD SVG 20010904//EN"
 "http://www.w3.org/TR/2001/REC-SVG-20010904/DTD/svg10.dtd">
<svg version="1.0" xmlns="http://www.w3.org/2000/svg"
 width="2048.000000pt" height="2048.000000pt" viewBox="0 0 2048.000000 2048.000000"
 preserveAspectRatio="xMidYMid meet">
<metadata>
Created by potrace 1.16, written by Peter Selinger 2001-2019
</metadata>
<g transform="translate(0.000000,2048.000000) scale(0.100000,-0.100000)"
fill="#000000" stroke="none">
<path d="M15250 18258 c-595 -46 -1176 -656 -1398 -1468 -75 -275 -106 -537
-100 -849 l3 -212 -25 6 c-233 60 -414 85 -616 86 -213 0 -360 -27 -525 -96
-178 -75 -327 -213 -379 -352 -54 -145 -42 -398 36 -741 14 -63 24 -115 21
-118 -2 -2 -45 11 -95 31 -190 73 -380 109 -582 109 -261 0 -452 -57 -659
-197 -152 -102 -305 -274 -359 -404 -24 -57 -44 -185 -37 -236 2 -18 7 -59 10
-92 16 -146 76 -368 172 -639 35 -98 62 -180 61 -182 -2 -1 -28 13 -58 33 -85
55 -324 168 -439 208 -58 19 -161 47 -230 61 -113 23 -142 25 -281 21 -228 -7
-366 -52 -563 -180 -431 -281 -778 -891 -814 -1430 l-6 -93 -166 -1 c-231 -1
-401 -38 -576 -126 -167 -83 -328 -232 -388 -358 -44 -94 -57 -155 -57 -277 0
-300 123 -739 341 -1220 44 -96 79 -178 79 -184 0 -6 -8 -7 -17 -3 -10 3 -57
9 -106 12 l-87 6 -57 71 c-86 108 -248 264 -348 334 -167 118 -389 213 -568
242 -155 25 -352 2 -497 -59 -310 -129 -593 -472 -833 -1007 -185 -413 -337
-1022 -354 -1421 l-6 -152 -102 98 c-165 157 -342 267 -525 326 -121 39 -310
47 -428 17 -203 -52 -399 -182 -583 -387 -413 -462 -716 -1200 -811 -1975 -18
-152 -16 -482 5 -600 34 -198 100 -367 187 -484 82 -110 212 -216 337 -273 53
-24 54 -26 37 -43 -11 -9 -102 -91 -204 -181 -716 -636 -1152 -1124 -1230
-1377 -35 -113 -23 -181 43 -239 117 -103 301 -55 633 165 325 215 497 352
1154 916 74 64 137 116 140 116 3 0 17 -33 32 -73 89 -238 301 -420 598 -515
371 -118 932 -134 1445 -41 415 75 844 223 1154 399 161 91 264 166 378 273
224 214 323 422 323 682 -1 273 -149 601 -390 858 -42 45 -60 73 -60 91 l0 26
168 0 c253 0 451 26 742 96 539 129 982 318 1280 545 90 69 245 223 290 289
55 81 107 189 130 272 26 91 36 260 21 354 -26 167 -100 356 -195 497 -25 37
-45 67 -43 67 1 0 38 -12 82 -26 124 -39 368 -101 490 -123 181 -33 281 -43
455 -42 251 0 369 38 506 164 242 222 374 598 374 1068 0 72 -5 171 -10 222
-6 51 -12 101 -13 112 -2 18 6 21 78 27 416 37 960 229 1320 466 390 255 571
486 621 790 17 105 14 204 -12 326 -13 61 -56 198 -78 249 -7 15 -1 17 55 17
153 1 448 57 654 125 152 49 325 129 396 181 185 136 335 502 340 833 l2 93
31 -5 c17 -3 81 -17 141 -31 266 -61 590 -78 737 -38 176 48 284 141 387 334
160 298 205 781 116 1222 -14 66 -24 121 -22 122 1 2 36 -2 77 -8 93 -13 350
-4 497 17 474 70 997 289 1391 585 329 247 484 475 522 770 40 308 -67 580
-378 958 l-99 120 -5 99 c-5 79 -13 118 -43 202 -42 119 -101 240 -174 356
l-50 80 22 18 c12 10 108 89 212 175 360 296 614 575 952 1047 179 250 215
310 217 354 0 31 -6 47 -28 70 -34 36 -67 43 -120 26 -23 -7 -169 -71 -326
-143 -602 -273 -703 -335 -1218 -749 l-215 -173 -101 98 c-219 210 -429 338
-644 392 -42 11 -89 20 -104 20 -32 0 -33 1 -105 110 -150 229 -328 368 -558
435 -106 30 -259 43 -395 33z m278 -293 c191 -45 361 -189 465 -393 l57 -111
-77 -46 c-378 -225 -893 -865 -1216 -1510 -77 -154 -164 -374 -195 -490 -9
-36 -20 -65 -24 -65 -4 0 -38 20 -76 44 -38 25 -140 82 -228 128 l-159 83 -17
100 c-68 404 3 921 186 1345 202 466 581 836 939 914 85 19 267 19 345 1z
m2921 -262 c-119 -150 -332 -392 -420 -478 -107 -104 -291 -261 -455 -389
l-72 -56 -28 38 c-16 20 -51 61 -78 90 l-50 53 40 32 c21 18 71 59 109 92 193
167 456 364 595 448 105 63 363 197 369 192 2 -3 -2 -12 -10 -22z m-2097 -322
c254 -65 540 -298 866 -705 218 -271 390 -581 423 -758 16 -89 -2 -167 -76
-313 -258 -516 -957 -1019 -1862 -1341 l-123 -43 -16 32 c-31 60 -192 292
-280 402 -124 156 -366 398 -516 518 -72 57 -128 109 -128 118 0 61 117 374
207 553 149 297 353 614 576 891 259 323 456 509 654 613 113 60 152 64 275
33z m1544 -1986 c228 -282 291 -567 179 -812 -102 -224 -371 -452 -774 -657
-286 -145 -570 -236 -850 -271 -176 -23 -464 -17 -559 11 l-63 19 -48 120
c-27 67 -70 164 -96 218 -27 53 -46 98 -44 100 2 2 56 20 119 42 265 88 661
274 925 434 400 243 699 515 905 824 44 65 80 125 80 131 0 6 8 22 17 36 l17
24 63 -70 c35 -38 93 -105 129 -149z m-4463 116 c497 -108 961 -363 1356 -746
240 -233 401 -441 564 -730 162 -287 292 -670 333 -977 19 -147 14 -470 -10
-584 -31 -152 -113 -353 -165 -407 -17 -18 -18 -13 -25 100 -20 335 -81 600
-223 958 -273 690 -802 1348 -1408 1751 -211 141 -444 262 -647 337 -190 71
-442 127 -573 127 -89 0 -96 10 -39 54 68 52 183 104 278 127 113 26 415 21
559 -10z m-701 -286 c221 -33 451 -108 674 -219 344 -172 624 -375 910 -660
379 -380 670 -822 861 -1311 81 -208 112 -313 153 -515 39 -193 50 -290 50
-436 l0 -122 -27 -7 c-41 -10 -289 -7 -358 5 -33 5 -61 10 -62 10 -2 0 -3 60
-3 133 0 751 -308 1513 -829 2050 -450 464 -962 721 -1481 746 l-135 6 -7 45
c-11 79 -21 258 -15 274 8 21 134 22 269 1z m68 -450 c156 -25 433 -120 559
-192 207 -118 363 -231 525 -378 358 -325 635 -753 786 -1214 103 -313 142
-535 144 -816 l1 -180 -30 4 c-16 1 -88 20 -159 40 l-128 37 -3 224 c-3 307
-35 491 -130 756 -147 407 -357 707 -695 990 -278 234 -630 393 -955 434 -49
6 -99 13 -111 16 -17 3 -27 25 -57 136 -21 73 -37 139 -37 146 0 17 171 16
290 -3z m80 -440 c58 -15 134 -38 170 -52 172 -68 387 -194 544 -319 l59 -46
-49 -41 c-27 -23 -76 -67 -109 -98 l-59 -57 -76 68 c-164 147 -478 386 -642
489 -45 28 -70 51 -76 71 -6 15 -8 30 -6 33 6 6 116 -15 244 -48z m-1145 30
c117 -21 291 -70 400 -113 563 -223 1380 -905 1738 -1449 193 -295 312 -578
352 -843 18 -118 19 -360 1 -460 -16 -88 -78 -277 -88 -270 -4 3 -9 86 -11
185 -7 285 -58 477 -217 800 -168 344 -400 652 -712 942 -305 284 -685 553
-1041 738 -373 193 -658 275 -964 279 -79 0 -143 4 -143 8 0 3 21 22 48 40
188 136 402 184 637 143z m-330 -321 c193 -31 348 -83 585 -196 641 -304 1270
-824 1617 -1335 196 -288 326 -573 384 -835 40 -186 35 -558 -9 -618 -47 -62
-302 -162 -526 -205 -149 -29 -309 -45 -435 -44 l-96 0 -33 51 -32 51 37 -7
c189 -31 256 0 260 122 2 66 -5 65 111 16 143 -61 238 -56 317 17 64 59 80
110 79 244 0 131 -21 203 -90 307 -57 85 -121 142 -190 168 -98 36 -158 24
-264 -57 -39 -29 -82 -58 -96 -63 -44 -17 -107 -11 -164 16 -94 43 -132 93
-132 171 0 35 12 64 57 143 76 134 96 199 102 335 8 179 -32 305 -142 444 -64
81 -167 156 -258 188 -79 28 -226 25 -292 -5 -66 -30 -127 -91 -177 -176 -75
-127 -114 -142 -226 -85 -108 53 -124 95 -82 209 40 111 46 162 26 238 -29
115 -130 279 -220 357 -158 139 -390 179 -472 83 -24 -30 -26 -38 -22 -103 4
-58 12 -85 46 -150 23 -44 67 -112 98 -150 77 -96 79 -101 60 -165 -29 -96
-13 -203 48 -342 7 -16 4 -17 -25 -12 -19 4 -37 9 -41 13 -18 17 -207 478
-258 632 -59 174 -120 393 -120 429 0 21 9 25 104 41 133 22 319 -2 516 -67
182 -61 273 -139 328 -285 56 -146 131 -224 261 -270 59 -20 85 -23 241 -24
l175 -1 92 -35 c170 -66 305 -167 413 -311 116 -153 160 -279 160 -456 0 -127
15 -180 63 -230 43 -45 92 -69 178 -87 40 -9 94 -28 122 -42 174 -95 326 -437
301 -682 -5 -56 -3 -70 11 -84 24 -25 52 -21 72 10 29 44 24 259 -9 384 -56
208 -194 411 -328 479 -23 12 -80 30 -126 40 -154 33 -167 52 -175 250 -6 126
-11 156 -36 227 -100 276 -352 525 -623 615 -90 30 -104 32 -272 35 -151 2
-185 6 -234 24 -68 26 -131 85 -158 149 -87 210 -139 271 -298 349 -191 94
-397 138 -598 127 -69 -3 -140 -9 -157 -12 -26 -5 -33 -3 -33 10 0 23 44 108
66 128 60 53 298 68 519 32z m2495 -384 l90 -105 -96 -92 c-53 -51 -98 -93
-99 -93 -1 0 -47 45 -102 101 l-99 101 100 99 c56 54 104 97 108 96 4 -1 48
-49 98 -107z m-2583 -172 c86 -31 206 -154 263 -268 57 -114 63 -178 25 -270
-55 -134 -43 -222 43 -302 56 -52 118 -84 196 -100 116 -25 187 20 286 182 25
40 59 83 77 97 59 45 197 47 289 3 70 -33 182 -150 221 -231 88 -180 84 -351
-12 -514 -97 -166 -113 -237 -75 -337 40 -106 146 -186 276 -206 112 -18 201
10 294 93 43 38 57 45 94 45 79 0 169 -79 221 -193 66 -142 53 -307 -27 -357
-43 -27 -81 -21 -202 30 -133 57 -199 52 -232 -18 -12 -25 -15 -49 -11 -84 l6
-48 -32 0 c-18 0 -64 7 -102 15 -39 8 -91 15 -116 15 -41 0 -50 4 -71 33 -21
27 -26 50 -36 163 -7 85 -20 160 -38 215 -37 118 -121 290 -186 380 l-55 76
98 92 c115 108 130 137 110 224 -17 80 -76 171 -167 262 -97 97 -181 150 -236
149 -45 -2 -111 -48 -236 -168 -83 -80 -84 -80 -110 -65 -174 104 -243 140
-332 175 l-105 42 -47 93 c-63 124 -74 177 -53 264 8 36 15 84 15 105 0 40 -1
42 -133 214 -47 61 -74 112 -86 165 -7 34 -6 43 8 51 22 15 110 4 178 -22z
m2842 -229 c65 -139 118 -278 150 -391 32 -115 77 -356 67 -365 -3 -3 -9 3
-12 13 -52 146 -283 518 -400 644 l-23 25 76 83 c42 45 82 82 88 82 7 0 31
-41 54 -91z m-4218 -325 c148 -25 322 -86 506 -179 156 -78 393 -225 472 -292
l34 -29 -75 -42 c-206 -112 -416 -315 -605 -582 -165 -233 -333 -553 -419
-800 -19 -52 -37 -96 -42 -98 -5 -1 -37 19 -73 46 -271 205 -641 390 -951 478
-51 15 -98 31 -105 36 -25 20 7 274 56 445 116 404 417 795 731 953 155 78
284 96 471 64z m2425 -590 l86 -87 -88 -88 -88 -88 -72 69 c-40 38 -85 76 -99
86 l-26 17 88 89 c48 48 93 88 101 88 7 0 51 -39 98 -86z m-1027 1 c245 -77
512 -253 728 -479 227 -239 343 -478 343 -706 0 -107 -41 -232 -123 -378 -166
-293 -458 -572 -788 -755 -168 -93 -439 -194 -629 -236 l-86 -18 -87 141
c-211 339 -466 640 -750 884 l-39 33 46 137 c86 254 267 589 454 842 104 140
310 349 412 417 84 56 180 106 255 134 65 24 151 19 264 -16z m-2868 -1126
c472 -80 1009 -368 1414 -759 296 -286 501 -556 674 -890 173 -334 272 -639
317 -970 16 -125 18 -417 3 -527 -25 -188 -86 -366 -165 -483 -53 -79 -110
-147 -118 -140 -3 3 1 30 9 60 42 155 59 529 35 745 -28 249 -89 506 -175 741
-81 221 -253 540 -403 749 -290 403 -667 728 -1097 945 -257 130 -508 208
-788 245 -187 24 -505 18 -623 -11 -40 -10 -28 11 54 94 153 156 326 219 608
221 91 1 169 -5 255 -20z m4066 -361 c211 -261 345 -539 359 -745 17 -228 -88
-425 -331 -620 -251 -201 -687 -399 -1064 -483 -106 -23 -296 -50 -356 -50
-44 0 -44 1 -55 43 -36 138 -139 419 -209 571 -22 49 -41 92 -41 95 0 4 39 14
88 24 199 41 486 154 679 268 190 114 312 210 470 370 151 154 285 342 359
504 21 47 42 85 45 85 3 0 28 -28 56 -62z m-4352 -34 c61 -8 149 -24 196 -34
565 -125 1156 -530 1555 -1065 265 -354 470 -802 548 -1195 77 -385 79 -718 6
-1029 -31 -132 -22 -126 -193 -126 -80 0 -149 3 -153 7 -4 4 2 40 14 80 57
197 76 365 69 617 -11 439 -137 859 -372 1241 -358 582 -1041 1100 -1600 1215
-250 51 -510 33 -698 -49 -45 -20 -41 -27 -61 114 -29 206 -29 198 2 204 232
47 447 53 687 20z m14 -389 c544 -104 1228 -622 1571 -1190 63 -104 168 -323
205 -425 39 -109 91 -303 117 -438 20 -104 23 -146 23 -377 -1 -225 -4 -273
-22 -355 -23 -105 -58 -228 -72 -248 -7 -11 -38 -8 -168 18 -89 18 -166 36
-173 40 -9 5 -5 20 13 57 72 141 129 376 143 588 12 185 -25 433 -92 626 -119
342 -291 607 -572 881 -306 298 -594 472 -882 534 -112 24 -318 24 -413 1 -68
-17 -148 -53 -200 -89 -16 -11 -30 -19 -32 -17 -5 6 -82 250 -90 287 -7 32 -6
33 51 58 162 71 379 89 593 49z m14 -390 c217 -38 401 -124 632 -296 437 -325
753 -790 846 -1242 69 -341 28 -713 -106 -953 l-34 -61 -153 54 c-84 29 -159
56 -166 58 -9 3 10 28 51 69 133 130 207 352 207 616 0 390 -191 786 -529
1101 -378 352 -844 459 -1075 249 l-53 -49 -36 77 c-42 89 -107 250 -107 263
0 14 87 67 148 89 108 41 237 49 375 25z m-1833 -306 c138 -22 300 -91 447
-190 97 -65 246 -212 303 -299 23 -36 54 -77 67 -91 l24 -26 -63 -48 c-162
-128 -338 -322 -525 -580 -364 -503 -711 -1136 -843 -1540 -12 -38 -24 -71
-25 -73 -2 -2 -38 14 -81 36 -176 88 -363 149 -531 173 l-82 11 -11 52 c-54
251 -28 576 80 1001 108 422 264 805 438 1075 253 392 503 548 802 499z m1994
-124 c360 -104 737 -463 909 -865 73 -172 103 -337 94 -524 -10 -210 -73 -373
-189 -490 -53 -53 -62 -58 -90 -52 -51 10 -58 22 -58 100 -1 39 -7 106 -15
150 l-14 78 53 52 c92 90 134 215 123 375 -7 117 -29 196 -87 317 -170 359
-470 587 -751 572 -100 -6 -171 -40 -234 -111 l-46 -52 -22 27 c-26 33 -133
222 -149 266 -12 30 -10 34 27 73 103 106 268 137 449 84z m135 -418 c35 -12
63 -24 62 -27 -1 -3 -46 -51 -100 -107 l-98 -102 -57 44 c-31 24 -76 56 -101
72 -25 15 -45 31 -45 34 0 13 67 80 95 94 46 23 166 19 244 -8z m-939 -124
c292 -60 685 -340 922 -657 168 -225 268 -481 268 -686 0 -80 -23 -194 -54
-263 -28 -64 -114 -200 -185 -292 -67 -88 -270 -295 -392 -399 -305 -262 -728
-508 -1123 -655 -140 -52 -331 -111 -358 -111 -4 0 -24 26 -44 58 -166 262
-459 568 -689 722 -27 18 -52 34 -54 36 -6 5 38 133 96 279 153 386 507 994
824 1415 193 257 351 418 521 533 70 47 71 48 132 42 33 -3 95 -13 136 -22z
m1253 -85 c24 -29 63 -78 86 -109 l42 -57 -73 -68 c-40 -38 -93 -89 -117 -113
l-44 -44 -20 29 c-12 16 -53 62 -93 103 l-72 75 111 118 c61 65 116 118 123
118 7 0 32 -24 57 -52z m245 -454 c7 -34 11 -100 9 -157 -4 -88 -8 -105 -38
-165 -19 -37 -41 -68 -49 -69 -10 -2 -35 39 -79 132 l-65 136 95 95 c51 52 98
93 104 91 5 -2 16 -30 23 -63z m-5041 -999 c92 -29 208 -93 309 -171 96 -73
249 -234 336 -353 39 -53 82 -108 95 -122 l23 -25 -72 -50 c-292 -198 -675
-633 -985 -1119 -339 -532 -516 -974 -525 -1313 l-2 -84 -54 7 c-264 33 -447
185 -530 441 -135 414 -16 1190 282 1843 130 286 293 529 481 716 137 137 221
196 332 234 86 30 210 28 310 -4z m4875 -274 c215 -222 328 -452 328 -665 0
-151 -41 -261 -144 -393 -240 -307 -894 -602 -1602 -724 -190 -33 -433 -48
-555 -35 l-65 7 -37 132 c-21 73 -57 175 -81 228 l-43 97 66 17 c443 119 954
383 1351 699 236 188 512 487 617 668 25 43 49 78 52 78 4 0 55 -49 113 -109z
m-3699 -462 c428 -87 903 -460 1181 -929 150 -253 206 -439 206 -686 0 -111
-3 -131 -29 -203 -121 -332 -517 -695 -1016 -932 -326 -155 -718 -281 -1100
-355 -121 -24 -166 -27 -335 -28 -154 -1 -209 3 -264 17 -283 72 -461 229
-517 457 -20 81 -18 314 4 420 30 145 114 377 201 555 340 700 909 1411 1330
1663 67 40 73 42 154 42 46 0 130 -9 185 -21z m1626 -2079 c178 -234 249 -454
206 -645 -29 -132 -84 -224 -205 -345 -316 -317 -911 -559 -1600 -652 -224
-30 -630 -32 -825 -4 -378 53 -571 159 -678 371 -28 56 -59 154 -52 165 2 4
29 -1 59 -11 211 -72 558 -62 927 25 440 104 915 292 1234 489 301 185 611
498 728 735 l31 62 59 -57 c32 -32 85 -92 116 -133z m-3556 -775 c20 -41 48
-91 63 -111 15 -20 23 -38 18 -43 -312 -276 -978 -833 -1154 -965 -151 -114
-441 -309 -448 -302 -14 15 234 318 413 505 113 118 553 535 755 716 166 149
310 275 314 275 2 0 20 -34 39 -75z"/>
<path d="M15125 17592 c-202 -76 -386 -263 -534 -545 -58 -110 -64 -148 -26
-173 38 -25 64 -10 93 54 43 95 148 265 198 323 140 158 280 249 383 249 20 0
58 -7 84 -16 34 -11 51 -13 66 -5 45 25 34 78 -22 108 -49 25 -179 28 -242 5z"/>
<path d="M16943 15662 c-7 -4 -25 -40 -41 -79 -79 -193 -270 -349 -557 -453
-49 -18 -98 -39 -107 -48 -36 -31 -9 -92 41 -92 32 0 203 66 295 113 143 74
273 182 354 295 52 73 91 163 92 209 0 49 -41 78 -77 55z"/>
<path d="M11706 14274 c-19 -19 -20 -44 -3 -67 6 -9 47 -26 90 -37 44 -11 118
-36 165 -56 131 -55 185 -48 168 20 -5 22 -23 35 -89 66 -88 42 -241 90 -287
90 -16 0 -36 -7 -44 -16z"/>
<path d="M9740 12589 c-187 -38 -362 -240 -486 -561 -19 -48 -34 -101 -34
-117 0 -51 45 -77 83 -48 9 6 30 53 48 102 83 238 221 429 354 491 78 37 156
33 241 -11 79 -41 108 -44 129 -11 54 82 -173 188 -335 155z"/>
<path d="M12474 10115 c-17 -12 -22 -28 -27 -95 -15 -227 -204 -396 -516 -462
-109 -23 -121 -30 -121 -67 1 -60 38 -67 182 -35 240 54 443 197 525 370 33
69 38 89 41 170 4 83 2 94 -17 113 -25 25 -39 26 -67 6z"/>
<path d="M6328 9415 c-185 -51 -346 -206 -522 -504 -69 -117 -100 -179 -142
-290 -23 -60 -23 -66 -9 -88 22 -33 74 -29 92 7 7 14 44 90 82 170 137 287
301 489 456 566 72 35 85 39 154 38 46 -1 91 -8 113 -18 68 -29 108 -17 108
34 0 31 -8 43 -40 60 -73 39 -203 50 -292 25z"/>
<path d="M5552 8302 c-24 -24 -56 -127 -48 -157 8 -30 39 -48 67 -40 25 8 57
75 65 137 5 34 2 48 -11 61 -21 22 -50 22 -73 -1z"/>
<path d="M8241 7861 c-17 -17 -19 -29 -14 -88 17 -209 -126 -415 -449 -644
-125 -89 -147 -119 -112 -153 38 -39 102 -6 305 156 226 180 353 377 366 569
3 42 3 93 -1 112 -12 64 -57 86 -95 48z"/>
<path d="M3965 7225 c-254 -46 -468 -233 -626 -547 -56 -111 -50 -164 18 -156
24 3 35 17 83 106 165 306 341 460 566 491 76 11 94 23 94 61 0 51 -37 63
-135 45z"/>
<path d="M3191 6353 c-21 -18 -101 -190 -120 -258 -7 -25 -5 -39 6 -54 16 -24
64 -28 81 -8 19 24 112 255 112 280 0 15 -9 32 -22 41 -28 20 -31 20 -57 -1z"/>
</g>
</svg>
