<?xml version="1.0" standalone="no"?>
<!DOCTYPE svg PUBLIC "-//W3C//DTD SVG 20010904//EN"
 "http://www.w3.org/TR/2001/REC-SVG-20010904/DTD/svg10.dtd">
<svg version="1.0" xmlns="http://www.w3.org/2000/svg"
 width="1024.000000pt" height="1024.000000pt" viewBox="0 0 1024.000000 1024.000000"
 preserveAspectRatio="xMidYMid meet">
<metadata>
Created by potrace 1.16, written by Peter Selinger 2001-2019
</metadata>
<g transform="translate(0.000000,1024.000000) scale(0.100000,-0.100000)"
fill="#000000" stroke="none">
<path d="M4832 7624 c-15 -10 -22 -25 -22 -49 0 -30 7 -38 62 -77 156 -109
157 -292 2 -379 -65 -37 -171 -51 -324 -43 -196 10 -326 -30 -419 -131 -151
-166 -117 -416 67 -485 75 -29 190 -29 292 0 128 35 176 42 217 31 52 -14 77
-34 97 -75 45 -96 -11 -205 -141 -270 -58 -29 -71 -53 -53 -97 19 -44 50 -47
123 -11 90 45 141 93 178 168 28 57 33 76 33 142 0 87 -15 129 -64 186 -78 88
-191 107 -375 61 -195 -48 -290 -33 -330 52 -34 71 5 183 82 236 81 56 103 60
338 68 268 9 324 23 416 106 166 150 131 426 -70 555 -51 32 -77 35 -109 12z"/>
<path d="M5386 7324 c-22 -21 -21 -81 2 -93 9 -5 38 -12 63 -16 104 -15 144
-68 140 -182 -1 -41 -43 -90 -92 -110 -64 -25 -119 -105 -119 -173 0 -69 64
-160 127 -181 34 -11 53 -10 200 7 94 11 144 -28 146 -113 0 -47 -19 -82 -66
-117 -43 -32 -134 -33 -236 -2 -168 52 -289 25 -358 -78 -59 -87 -65 -163 -21
-254 23 -49 55 -66 92 -52 42 16 51 45 27 91 -53 101 5 194 119 191 25 0 74
-10 110 -21 193 -62 353 -19 426 111 25 46 29 63 29 133 0 70 -4 86 -28 128
-32 55 -82 91 -149 109 -39 10 -61 10 -120 -1 -40 -8 -86 -13 -102 -13 -36 2
-66 28 -66 59 0 26 41 73 63 73 23 0 97 70 119 113 50 99 30 240 -44 319 -69
73 -220 115 -262 72z"/>
<path d="M3654 6871 c-75 -45 -158 -176 -189 -296 -19 -77 -19 -240 0 -316 32
-121 94 -230 188 -326 28 -29 47 -53 42 -53 -6 -1 -100 -2 -210 -4 -119 -2
-215 -8 -237 -15 -104 -33 -180 -140 -181 -253 0 -38 7 -80 18 -106 22 -54
102 -126 158 -143 l44 -13 7 -115 c38 -668 212 -1339 483 -1874 72 -141 199
-355 269 -454 l45 -63 863 0 863 0 60 88 c286 415 523 983 638 1527 45 213 84
491 106 745 6 74 14 138 18 141 3 3 26 11 49 18 68 19 146 101 167 174 38 133
-23 262 -149 319 -48 21 -64 22 -278 23 -126 0 -228 2 -228 6 0 3 16 21 36 40
57 54 148 198 171 271 57 172 30 344 -71 456 -47 51 -82 64 -124 46 -48 -20
-45 -64 8 -115 57 -56 82 -111 88 -195 7 -112 -36 -221 -136 -341 -43 -52
-161 -149 -194 -161 -13 -5 -483 -7 -1046 -6 -957 2 -1024 3 -1050 19 -15 10
-66 57 -114 105 -71 72 -94 103 -132 181 -104 214 -76 425 75 571 63 62 73 92
41 121 -24 22 -60 21 -98 -2z m3013 -1151 c44 -27 66 -64 66 -114 0 -49 -24
-91 -67 -114 -29 -15 -160 -16 -1704 -16 -1645 1 -1674 1 -1700 21 -44 33 -65
69 -65 112 0 48 22 85 66 111 31 20 64 20 1702 20 1638 0 1671 0 1702 -20z
m-180 -497 c-24 -454 -136 -974 -304 -1413 -107 -278 -209 -482 -360 -722
l-74 -118 -793 0 -793 0 -30 43 c-101 140 -264 445 -356 662 -63 151 -162 448
-207 620 -64 247 -123 622 -135 855 -3 63 -8 132 -10 153 l-5 37 1536 0 1537
0 -6 -117z"/>
<path d="M4422 4895 c-73 -20 -108 -40 -163 -92 -184 -172 -166 -429 52 -723
76 -104 346 -375 492 -496 159 -130 145 -125 209 -77 255 197 521 468 642 655
158 244 164 481 14 631 -92 92 -235 133 -373 108 -93 -17 -214 -82 -280 -152
-31 -32 -58 -59 -60 -59 -2 0 -25 22 -51 50 -58 62 -131 110 -209 139 -77 29
-202 36 -273 16z m223 -142 c97 -34 178 -109 244 -225 29 -52 36 -58 66 -58
30 0 36 6 74 70 100 168 256 257 402 230 62 -12 105 -37 152 -90 46 -50 60
-99 56 -191 -7 -139 -110 -307 -324 -527 -96 -100 -331 -311 -356 -320 -14 -5
-210 168 -349 307 -149 151 -239 266 -294 381 -39 80 -41 90 -41 175 0 73 4
98 22 131 65 121 203 168 348 117z"/>
<path d="M6637 4078 c-10 -8 -31 -65 -51 -138 -49 -178 -117 -362 -197 -529
-38 -79 -69 -154 -69 -167 0 -44 64 -79 97 -53 25 21 145 277 203 431 53 144
120 375 120 414 0 43 -66 69 -103 42z"/>
<path d="M6122 2957 c-29 -31 -29 -87 -2 -112 28 -26 85 -25 111 2 26 26 28
86 3 114 -25 28 -84 26 -112 -4z"/>
</g>
</svg>
