<?xml version="1.0" standalone="no"?>
<!DOCTYPE svg PUBLIC "-//W3C//DTD SVG 20010904//EN"
 "http://www.w3.org/TR/2001/REC-SVG-20010904/DTD/svg10.dtd">
<svg version="1.0" xmlns="http://www.w3.org/2000/svg"
 width="1024.000000pt" height="1024.000000pt" viewBox="0 0 1024.000000 1024.000000"
 preserveAspectRatio="xMidYMid meet">
<metadata>
Created by potrace 1.16, written by Peter Selinger 2001-2019
</metadata>
<g transform="translate(0.000000,1024.000000) scale(0.100000,-0.100000)"
fill="#000000" stroke="none">
<path d="M4850 7203 c-502 -40 -1041 -200 -1427 -426 -557 -325 -917 -775
-1041 -1302 -22 -94 -26 -134 -27 -270 0 -151 2 -164 29 -241 l28 -80 -45 -65
c-24 -35 -65 -100 -90 -144 -110 -193 -275 -624 -261 -682 29 -119 105 -138
310 -79 65 19 119 34 120 33 0 -1 5 -35 11 -75 6 -40 24 -98 38 -127 l28 -54
-37 -43 c-21 -24 -54 -77 -74 -117 -37 -74 -37 -76 -37 -200 0 -148 17 -203
93 -304 86 -112 241 -191 435 -222 583 -91 3534 -81 4382 16 316 36 500 137
596 327 39 78 52 151 47 257 -5 100 -36 184 -93 260 -49 64 -49 62 -15 116 35
57 60 143 60 205 l0 42 83 -19 c150 -34 230 -21 262 41 30 57 22 105 -44 270
-94 234 -228 478 -324 587 l-29 33 17 43 c93 228 55 541 -105 875 -104 216
-215 370 -395 548 -442 436 -1138 730 -1880 794 -111 9 -510 11 -615 3z m805
-217 c822 -125 1463 -491 1819 -1039 220 -337 301 -783 169 -929 -86 -95 -860
-190 -1858 -228 -348 -13 -1494 -13 -1813 0 -606 25 -1103 77 -1299 135 -95
28 -138 114 -136 275 3 391 240 835 618 1158 381 326 911 550 1495 632 209 29
197 28 530 25 269 -3 325 -6 475 -29z m2067 -2213 c64 -85 124 -185 185 -308
67 -133 119 -262 111 -271 -7 -6 -143 32 -244 69 -155 56 -310 131 -432 208
-95 60 -158 47 -256 -56 -84 -87 -166 -126 -263 -126 -113 -1 -178 25 -272
105 -64 56 -77 63 -116 67 -64 5 -76 -2 -170 -90 -72 -67 -109 -95 -151 -110
-109 -41 -245 -20 -359 55 -110 74 -175 56 -259 -70 -111 -167 -226 -279 -358
-351 -45 -25 -54 -26 -87 -16 -104 31 -253 159 -357 308 -82 117 -102 133
-167 133 -39 0 -62 -7 -106 -34 -99 -60 -158 -79 -246 -80 -106 -1 -174 31
-265 125 -76 79 -94 89 -152 89 -47 0 -64 -9 -148 -81 -30 -26 -80 -60 -110
-75 -49 -26 -65 -29 -150 -29 -84 0 -101 3 -147 27 -28 15 -85 59 -126 97
-115 107 -141 105 -317 -19 -47 -33 -142 -90 -213 -126 -126 -64 -305 -139
-314 -131 -8 9 81 236 148 377 66 136 163 300 178 300 4 0 30 -6 57 -14 189
-56 605 -105 1174 -138 343 -21 1849 -17 2250 5 811 45 1348 108 1570 185 30
11 60 20 65 21 6 0 27 -20 47 -46z m-1235 -564 c71 -53 145 -85 235 -102 l73
-14 -35 -21 c-80 -50 -203 -66 -305 -38 -56 14 -160 63 -175 81 -7 9 11 30 62
73 40 33 77 61 82 61 5 1 34 -17 63 -40z m-2672 -54 l60 -54 -25 -21 c-45 -37
-144 -80 -218 -95 -85 -18 -155 -10 -230 27 -51 24 -46 30 43 43 62 9 173 60
245 113 30 22 57 41 60 41 3 1 32 -24 65 -54z m3689 4 c117 -48 151 -69 171
-109 19 -36 19 -101 1 -144 -21 -50 -83 -114 -138 -142 -281 -142 -1648 -237
-3083 -213 -860 14 -1386 59 -1612 139 -125 44 -198 129 -198 231 0 70 19 100
90 140 l50 28 140 -19 c215 -30 200 -25 229 -73 73 -126 233 -207 406 -207
147 0 305 60 438 164 59 47 78 57 98 52 14 -4 133 -11 265 -15 l239 -9 90 -86
c135 -128 280 -206 384 -206 108 0 270 95 409 239 l88 91 57 0 c31 0 140 5
242 11 l185 12 85 -62 c100 -72 205 -118 310 -137 99 -18 145 -17 238 2 137
28 249 107 314 221 25 45 35 53 66 59 29 5 313 67 331 73 3 0 50 -18 105 -40z
m166 -596 c157 -179 64 -432 -187 -511 -191 -60 -704 -93 -1777 -113 -622 -12
-1755 -6 -2191 11 -604 24 -754 53 -872 168 -64 61 -88 120 -87 212 0 82 19
134 73 200 l29 35 39 -22 c128 -72 446 -121 1038 -160 225 -15 415 -18 1145
-18 984 0 1382 15 1920 70 406 42 766 111 815 156 15 14 21 11 55 -28z"/>
<path d="M5480 6883 c-14 -9 -31 -26 -39 -36 -7 -11 -54 -70 -103 -133 -48
-62 -91 -127 -94 -142 -7 -34 17 -86 45 -102 30 -16 87 -12 110 8 20 16 39 40
172 215 33 45 59 89 59 102 0 81 -87 132 -150 88z"/>
<path d="M4280 6579 c-90 -34 -162 -68 -172 -80 -11 -12 -18 -38 -18 -61 0
-32 6 -46 31 -69 17 -16 42 -29 54 -29 39 0 338 118 358 141 10 13 17 38 17
64 0 36 -5 48 -31 69 -17 15 -42 26 -57 25 -15 0 -97 -27 -182 -60z"/>
<path d="M6135 6361 c-51 -22 -54 -35 -55 -228 -1 -120 2 -189 10 -203 18 -33
70 -51 114 -39 60 16 64 32 68 236 l3 183 -26 25 c-27 28 -82 40 -114 26z"/>
<path d="M3542 6224 c-13 -9 -27 -27 -32 -40 -12 -30 6 -351 21 -380 31 -60
135 -57 171 4 13 23 14 46 8 147 -5 66 -9 144 -9 173 -1 45 -5 58 -30 83 -34
34 -91 40 -129 13z"/>
<path d="M5129 6137 c-24 -18 -34 -42 -94 -213 l-55 -158 18 -36 c12 -23 29
-39 54 -48 33 -13 41 -12 75 4 35 17 41 27 76 119 82 220 91 252 77 285 -7 17
-22 37 -34 45 -25 18 -95 19 -117 2z"/>
<path d="M4268 5854 c-34 -18 -48 -43 -48 -86 0 -43 165 -326 202 -347 56 -32
141 22 141 88 0 40 -170 336 -200 350 -32 15 -63 13 -95 -5z"/>
<path d="M6719 5791 c-47 -48 -41 -81 39 -191 150 -208 175 -230 236 -210 19
6 42 23 52 38 33 50 23 80 -76 218 -115 160 -129 174 -181 174 -31 0 -47 -7
-70 -29z"/>
<path d="M5673 5452 c-46 -36 -53 -111 -13 -147 17 -15 318 -115 348 -115 48
0 92 53 92 110 0 55 -32 75 -199 124 -170 51 -196 54 -228 28z"/>
<path d="M3051 5336 c-68 -38 -64 -147 6 -174 15 -6 102 -14 193 -18 165 -6
166 -6 194 17 19 17 29 37 33 66 5 37 2 46 -24 71 -28 29 -34 30 -149 36 -65
4 -144 9 -174 11 -36 3 -63 0 -79 -9z"/>
</g>
</svg>
