<?xml version="1.0" standalone="no"?>
<!DOCTYPE svg PUBLIC "-//W3C//DTD SVG 20010904//EN"
 "http://www.w3.org/TR/2001/REC-SVG-20010904/DTD/svg10.dtd">
<svg version="1.0" xmlns="http://www.w3.org/2000/svg"
 width="1024.000000pt" height="1024.000000pt" viewBox="0 0 1024.000000 1024.000000"
 preserveAspectRatio="xMidYMid meet">
<metadata>
Created by potrace 1.16, written by Peter Selinger 2001-2019
</metadata>
<g transform="translate(0.000000,1024.000000) scale(0.100000,-0.100000)"
fill="#000000" stroke="none">
<path d="M5842 8502 c-15 -15 -64 -83 -110 -150 -117 -169 -241 -311 -453
-513 -333 -318 -399 -395 -475 -554 -104 -218 -109 -409 -15 -600 113 -228
406 -393 775 -436 136 -16 430 -6 561 19 353 68 606 227 719 450 86 170 96
332 34 535 -11 37 -18 70 -16 73 3 2 52 -10 109 -27 265 -79 485 -199 650
-356 277 -264 356 -525 329 -1083 -32 -681 -120 -1483 -225 -2074 -70 -390
-97 -452 -215 -486 -92 -27 -409 -84 -692 -124 -1081 -155 -2662 -305 -3833
-366 -110 -5 -236 -12 -280 -15 -110 -7 -355 -8 -362 -1 -5 5 8 633 27 1271
19 644 41 1270 45 1281 2 7 62 14 167 18 679 29 2045 168 3008 306 583 84
1201 190 1249 214 89 46 47 196 -55 196 -20 0 -164 -22 -322 -50 -771 -133
-1638 -248 -2597 -345 -415 -41 -1084 -95 -1189 -95 l-59 0 59 41 c328 230
1096 731 1572 1024 97 60 148 97 158 117 31 60 -11 140 -80 153 -43 9 -47 7
-419 -226 -785 -491 -1588 -1034 -1676 -1134 -17 -20 -31 -46 -31 -58 0 -12
-5 -119 -10 -237 -10 -238 -33 -910 -51 -1495 -6 -209 -12 -544 -13 -745 -1
-406 0 -412 66 -446 118 -61 1938 58 3478 226 1025 113 1807 232 1966 300 54
24 144 107 178 165 65 111 120 350 185 815 143 1012 208 1961 156 2294 -91
596 -570 1019 -1333 1178 -78 16 -111 27 -121 42 -23 32 -157 191 -261 311
-179 207 -298 358 -398 507 -61 90 -83 108 -135 108 -29 0 -45 -7 -65 -28z
m151 -395 c41 -54 162 -201 269 -325 229 -266 298 -358 356 -469 124 -239 104
-447 -58 -611 -102 -103 -243 -167 -465 -214 -93 -19 -141 -23 -310 -23 -219
0 -296 10 -439 56 -130 43 -202 84 -282 164 -90 89 -119 159 -118 280 1 201
82 324 440 670 235 228 359 362 463 503 29 40 57 72 61 70 5 -2 42 -47 83
-101z"/>
<path d="M7512 6286 c-64 -21 -116 -61 -157 -120 -92 -135 -101 -327 -34 -725
25 -144 32 -218 33 -326 1 -134 0 -142 -27 -197 -32 -66 -82 -111 -147 -134
-211 -75 -346 -201 -401 -373 -17 -53 -21 -87 -19 -176 3 -169 3 -181 -10
-219 -6 -20 -38 -69 -71 -109 -66 -80 -107 -158 -134 -257 -23 -86 -47 -130
-90 -171 -45 -43 -60 -87 -45 -133 14 -43 39 -65 82 -72 45 -8 82 11 139 73
51 55 85 121 124 243 22 70 41 106 106 194 108 148 121 191 117 391 -3 139 -1
154 20 200 43 93 124 158 249 199 161 53 280 194 320 379 20 95 12 262 -22
472 -58 354 -64 472 -29 578 21 63 48 81 111 71 63 -10 83 -7 110 18 32 29 40
82 19 125 -30 62 -155 98 -244 69z"/>
<path d="M6070 4414 c-114 -31 -217 -90 -307 -178 -45 -43 -53 -56 -53 -88 0
-49 16 -81 50 -101 50 -30 81 -22 156 40 138 113 268 148 389 103 118 -43 122
-44 155 -30 36 15 60 55 60 102 0 45 -20 71 -83 107 -101 57 -252 76 -367 45z"/>
<path d="M4835 4276 c-86 -28 -123 -46 -201 -102 -67 -47 -88 -83 -77 -134 7
-40 48 -78 90 -86 28 -5 43 0 91 30 124 80 156 91 272 91 l105 0 96 -49 c106
-54 130 -55 174 -11 47 46 45 109 -5 155 -41 38 -155 96 -226 114 -92 24 -233
20 -319 -8z"/>
<path d="M3852 4184 c-97 -26 -164 -66 -249 -150 -95 -93 -120 -138 -103 -190
16 -46 54 -74 102 -74 36 0 48 8 133 90 80 76 103 92 151 106 80 23 141 14
239 -36 100 -50 140 -52 181 -9 23 24 29 39 29 74 0 58 -35 95 -140 145 -122
59 -235 73 -343 44z"/>
<path d="M2781 4145 c-92 -26 -171 -75 -258 -160 -45 -45 -87 -93 -92 -108
-28 -73 44 -160 118 -142 13 3 58 37 98 75 41 38 98 81 128 95 104 51 226 42
325 -25 62 -41 120 -42 161 -1 23 24 29 38 29 74 0 42 -4 49 -52 91 -78 69
-186 108 -308 112 -64 3 -112 -1 -149 -11z"/>
</g>
</svg>
