<?xml version="1.0" standalone="no"?>
<!DOCTYPE svg PUBLIC "-//W3C//DTD SVG 20010904//EN"
 "http://www.w3.org/TR/2001/REC-SVG-20010904/DTD/svg10.dtd">
<svg version="1.0" xmlns="http://www.w3.org/2000/svg"
 width="1024.000000pt" height="1024.000000pt" viewBox="0 0 1024.000000 1024.000000"
 preserveAspectRatio="xMidYMid meet">
<metadata>
Created by potrace 1.16, written by Peter Selinger 2001-2019
</metadata>
<g transform="translate(0.000000,1024.000000) scale(0.100000,-0.100000)"
fill="#000000" stroke="none">
<path d="M5562 8138 c-5 -7 -47 -114 -91 -237 -77 -212 -81 -225 -66 -247 20
-32 79 -34 95 -4 25 46 160 427 160 451 0 14 -5 30 -12 37 -16 16 -73 15 -86
0z"/>
<path d="M4522 8039 c-12 -5 -27 -20 -33 -33 -11 -22 -1 -43 96 -213 60 -103
115 -196 123 -205 31 -37 103 -10 101 38 -1 31 -223 406 -244 414 -11 4 -30 4
-43 -1z"/>
<path d="M5066 7801 c-16 -18 -15 -31 20 -257 20 -132 41 -245 46 -251 13 -16
70 -17 86 -1 18 18 14 59 -22 296 -22 146 -37 216 -47 223 -24 15 -65 10 -83
-10z"/>
<path d="M5728 7553 c-82 -64 -108 -91 -108 -108 0 -37 11 -56 38 -66 30 -11
43 -4 160 94 98 81 112 105 88 142 -29 44 -60 33 -178 -62z"/>
<path d="M4289 7479 c-13 -13 -19 -30 -17 -47 3 -23 17 -34 108 -80 120 -60
155 -64 180 -20 11 21 12 32 4 45 -12 20 -209 121 -236 122 -10 1 -27 -8 -39
-20z"/>
<path d="M4891 6992 c-6 -11 -25 -60 -42 -109 -18 -48 -36 -94 -42 -100 -7 -9
-48 -13 -141 -13 -331 0 -801 -55 -1146 -135 -702 -162 -1133 -435 -1246 -790
-13 -42 -24 -96 -24 -120 0 -25 -12 -84 -27 -132 -25 -82 -27 -101 -27 -273
-1 -160 2 -197 22 -275 21 -86 22 -93 7 -135 -28 -78 -37 -132 -45 -255 -6
-96 -12 -132 -33 -181 -110 -255 -93 -602 43 -880 221 -453 730 -730 1650
-899 1097 -201 2237 -132 3139 191 155 55 443 195 560 270 263 171 440 358
535 566 57 122 70 187 71 338 0 147 -11 198 -65 295 -27 50 -28 51 -25 225 1
137 5 183 18 212 9 20 21 58 27 84 46 205 25 397 -64 593 -32 70 -35 86 -39
191 -3 93 -9 127 -30 178 -78 195 -223 336 -488 476 -432 227 -1191 389 -2054
436 -110 6 -233 14 -274 18 l-74 7 -34 80 c-61 146 -64 150 -105 153 -28 2
-39 -1 -47 -16z m75 -264 c30 -67 112 -189 162 -242 26 -26 93 -79 150 -118
57 -38 108 -80 114 -94 24 -52 -52 -110 -193 -145 -110 -28 -327 -23 -429 9
-85 28 -158 74 -166 107 -11 43 3 67 91 160 96 101 171 207 212 301 15 35 30
64 34 64 3 0 15 -19 25 -42z m-235 -96 c-7 -13 -36 -22 -114 -35 -283 -48
-504 -171 -577 -322 -18 -36 -26 -71 -28 -126 -5 -107 25 -175 119 -263 164
-155 451 -255 828 -287 302 -25 686 38 907 149 334 169 366 468 71 661 -148
96 -422 177 -671 197 -54 4 -90 12 -97 21 -7 7 -10 15 -8 18 9 8 488 -26 709
-51 1100 -123 1779 -383 1962 -752 36 -72 42 -93 46 -165 8 -146 -35 -270
-151 -444 -306 -460 -938 -808 -1683 -928 -394 -63 -957 -61 -1388 6 -402 62
-891 192 -1241 330 -564 222 -947 546 -1032 869 -82 315 107 594 543 801 405
193 1096 331 1682 338 124 1 132 0 123 -17z m729 -172 c344 -72 560 -212 560
-361 0 -57 -23 -99 -84 -157 -123 -116 -372 -196 -696 -223 -204 -18 -473 11
-685 72 -110 32 -268 114 -331 171 -87 80 -113 145 -89 226 29 97 156 193 331
251 127 43 138 41 87 -11 -74 -76 -92 -162 -52 -245 25 -53 66 -88 144 -124
287 -134 742 -74 844 111 51 91 23 184 -76 253 -79 56 -80 56 -63 57 8 0 58
-9 110 -20z m2509 -1162 c81 -247 21 -504 -169 -728 -186 -220 -484 -435 -780
-565 -127 -55 -313 -116 -473 -155 -495 -119 -1544 -167 -2167 -99 -824 90
-1541 439 -1849 900 -137 205 -222 449 -220 629 0 47 2 52 12 36 83 -131 119
-179 188 -251 45 -47 111 -109 148 -139 311 -253 816 -472 1442 -625 669 -164
1230 -205 1814 -135 601 72 1159 290 1546 602 175 141 366 368 450 534 16 32
31 58 33 58 3 0 14 -28 25 -62z m-5615 -598 c72 -146 278 -378 455 -508 372
-276 880 -468 1446 -546 560 -78 1365 -64 2039 35 504 74 934 246 1291 517 90
69 246 215 295 276 24 30 47 53 51 51 11 -7 -2 -94 -27 -183 -119 -415 -566
-751 -1209 -911 -685 -170 -1619 -234 -2340 -161 -624 64 -1220 240 -1553 459
-177 117 -346 305 -417 466 -55 124 -77 222 -82 362 -5 127 0 203 15 203 4 0
20 -27 36 -60z m-105 -488 c117 -336 400 -592 856 -772 438 -173 940 -277
1499 -311 251 -15 818 -7 1051 15 571 55 1026 140 1360 256 152 53 382 171
505 258 192 136 378 349 450 514 14 32 28 58 32 58 15 0 30 -120 26 -210 -21
-415 -463 -809 -1174 -1049 -457 -154 -913 -233 -1509 -262 -648 -32 -1491 66
-2045 238 -606 187 -921 437 -1055 838 -27 80 -55 240 -55 317 0 55 20 201 27
194 3 -2 17 -40 32 -84z"/>
<path d="M6185 6500 c-12 -4 -26 -15 -34 -23 -16 -20 -10 -77 10 -90 34 -21
109 21 109 61 0 40 -46 68 -85 52z"/>
<path d="M3522 6414 c-37 -26 -28 -63 29 -127 58 -66 96 -76 125 -32 21 32 14
49 -50 118 -57 61 -69 66 -104 41z"/>
<path d="M2883 5936 c-93 -12 -110 -18 -113 -46 -5 -34 1 -50 23 -64 33 -20
244 3 264 30 19 25 16 51 -7 74 -22 22 -34 23 -167 6z"/>
<path d="M6362 5748 c-19 -19 -15 -76 6 -86 9 -5 79 -26 155 -47 150 -40 182
-40 198 2 14 37 -10 70 -63 83 -24 6 -84 22 -134 36 -102 27 -144 30 -162 12z"/>
<path d="M3435 5537 c-71 -29 -136 -56 -142 -60 -18 -11 -16 -63 3 -81 8 -9
24 -16 35 -16 22 0 277 97 297 112 17 15 15 63 -4 82 -23 24 -47 19 -189 -37z"/>
<path d="M7190 5560 c-27 -27 -26 -66 3 -84 42 -26 167 -68 186 -61 26 8 46
57 32 83 -8 16 -165 82 -194 82 -4 0 -16 -9 -27 -20z"/>
<path d="M4082 5321 c-73 -33 -140 -65 -148 -72 -33 -27 -7 -99 36 -99 10 0
80 28 155 62 145 65 164 83 146 132 -8 21 -30 36 -49 36 -4 0 -67 -27 -140
-59z"/>
<path d="M5720 5340 c-11 -11 -20 -26 -20 -32 0 -16 116 -226 138 -250 23 -27
68 -23 88 8 16 24 16 28 0 62 -25 52 -107 194 -124 215 -20 23 -57 22 -82 -3z"/>
<path d="M6252 5054 c-38 -26 -29 -63 31 -122 56 -55 83 -64 110 -34 30 32 20
62 -36 119 -58 57 -70 62 -105 37z"/>
<path d="M4592 4971 c-7 -4 -22 -45 -34 -90 -19 -79 -19 -83 -2 -102 24 -26
70 -25 88 4 8 12 20 55 27 96 12 69 11 74 -6 87 -21 16 -53 18 -73 5z"/>
</g>
</svg>
