<?xml version="1.0" standalone="no"?>
<!DOCTYPE svg PUBLIC "-//W3C//DTD SVG 20010904//EN"
 "http://www.w3.org/TR/2001/REC-SVG-20010904/DTD/svg10.dtd">
<svg version="1.0" xmlns="http://www.w3.org/2000/svg"
 width="1024.000000pt" height="1024.000000pt" viewBox="0 0 1024.000000 1024.000000"
 preserveAspectRatio="xMidYMid meet">
<metadata>
Created by potrace 1.16, written by Peter Selinger 2001-2019
</metadata>
<g transform="translate(0.000000,1024.000000) scale(0.100000,-0.100000)"
fill="#000000" stroke="none">
<path d="M4905 7235 c-202 -37 -348 -146 -445 -331 l-32 -61 -66 -6 c-137 -13
-283 -112 -363 -247 -50 -85 -72 -172 -71 -285 l0 -91 -69 -11 c-38 -6 -80
-18 -94 -27 -58 -38 -88 -134 -65 -209 16 -54 74 -112 127 -126 l41 -11 6
-268 c17 -672 50 -1152 117 -1647 25 -187 73 -466 100 -582 54 -231 153 -486
202 -517 29 -19 195 -52 331 -65 140 -14 512 -14 687 -1 249 20 594 78 700
119 47 17 141 237 188 441 62 265 111 853 111 1330 0 346 -45 1196 -76 1437
l-5 41 51 17 c63 21 112 68 135 130 38 97 -24 218 -125 245 -38 10 -66 9 -180
-8 -74 -11 -136 -18 -138 -17 -2 2 -10 34 -18 72 -27 133 -108 255 -213 322
-44 29 -126 61 -193 75 -17 4 -38 22 -57 49 -80 117 -217 204 -364 232 -93 18
-128 18 -222 0z m236 -131 c30 -9 74 -27 98 -41 45 -26 131 -100 131 -112 0
-4 -22 -13 -49 -20 -69 -18 -159 -76 -168 -109 -10 -37 -5 -65 15 -79 26 -21
51 -15 113 26 142 95 347 71 455 -52 46 -53 92 -148 100 -209 6 -44 6 -46 -22
-52 -100 -21 -1223 -173 -1537 -207 -240 -27 -227 -31 -227 69 0 69 27 162 64
220 35 56 111 121 174 150 61 28 144 34 253 18 52 -8 57 -7 73 15 24 34 20 57
-15 90 l-31 29 28 47 c58 99 175 185 295 217 72 20 183 20 250 0z m1139 -734
c25 -25 26 -71 3 -99 -13 -15 -37 -25 -83 -32 -104 -16 -105 -18 -89 -199 11
-131 11 -153 -2 -161 -8 -6 -46 -8 -85 -6 -84 4 -136 30 -234 112 -87 75 -152
99 -260 99 -133 0 -207 -41 -305 -168 -71 -93 -127 -126 -213 -126 -70 0 -109
15 -175 65 -170 130 -377 105 -493 -60 -87 -125 -120 -160 -175 -188 -66 -33
-147 -47 -160 -26 -5 8 -9 89 -9 181 0 167 0 168 -25 184 -14 9 -40 15 -62 13
-63 -3 -72 0 -88 31 -17 32 -6 74 22 85 8 3 126 16 262 30 445 45 1539 193
1956 264 151 26 190 26 215 1z m-647 -429 c23 -10 69 -42 102 -71 105 -91 244
-140 356 -125 l46 6 12 -198 c42 -686 42 -1170 1 -1673 -32 -385 -86 -652
-169 -825 l-38 -81 -74 -17 c-310 -70 -776 -108 -1107 -88 -186 12 -283 23
-355 42 -45 12 -66 50 -125 221 -133 384 -246 1263 -269 2074 l-6 241 71 6
c137 11 224 70 336 228 105 149 201 172 335 81 114 -78 164 -97 261 -97 76 0
92 3 151 32 64 32 97 62 182 166 83 103 180 129 290 78z"/>
<path d="M5710 5222 c-89 -44 -95 -209 -8 -262 59 -36 125 -20 170 42 17 25
23 46 23 89 0 64 -19 100 -68 129 -40 25 -72 25 -117 2z"/>
<path d="M5258 5119 c-10 -5 -20 -26 -24 -47 -10 -57 -40 -98 -90 -123 -82
-39 -170 -6 -209 80 -29 64 -104 68 -119 5 -10 -40 35 -126 87 -164 146 -107
341 -61 422 101 53 103 11 194 -67 148z"/>
<path d="M4353 5044 c-66 -33 -93 -152 -49 -219 33 -50 118 -73 169 -46 14 7
34 30 46 51 42 75 18 178 -50 212 -42 22 -74 22 -116 2z"/>
<path d="M5419 4256 c-117 -42 -185 -169 -158 -295 36 -171 242 -246 387 -141
85 61 120 173 88 282 -36 126 -189 200 -317 154z m166 -115 c40 -23 70 -95 61
-147 -10 -50 -69 -110 -118 -119 -50 -9 -121 23 -148 67 -34 56 -22 149 24
187 49 41 122 45 181 12z"/>
<path d="M4733 4021 c-46 -29 -66 -74 -60 -135 4 -41 11 -55 40 -82 96 -88
227 -28 227 103 0 47 -4 58 -33 90 -29 31 -41 37 -88 40 -42 3 -61 0 -86 -16z
m107 -96 c10 -12 10 -21 2 -40 -14 -31 -56 -34 -72 -6 -13 25 -13 27 6 45 20
20 48 20 64 1z"/>
<path d="M5786 3669 c-58 -45 -71 -114 -33 -170 39 -57 106 -76 166 -45 57 30
83 116 52 174 -31 59 -134 81 -185 41z m102 -105 c3 -23 -18 -37 -43 -28 -16
6 -20 35 -8 48 14 14 48 1 51 -20z"/>
<path d="M4485 3626 c-79 -29 -133 -122 -122 -213 15 -134 171 -209 290 -139
63 36 102 115 94 187 -16 129 -142 209 -262 165z m114 -111 c40 -20 55 -66 37
-110 -29 -69 -140 -67 -163 2 -14 40 2 90 35 107 35 19 56 20 91 1z"/>
<path d="M5057 3586 c-106 -39 -165 -113 -174 -216 -7 -74 10 -136 49 -184 97
-118 270 -126 375 -19 119 123 83 334 -69 406 -51 24 -135 30 -181 13z m142
-115 c74 -38 98 -115 59 -191 -28 -54 -72 -82 -133 -82 -112 0 -178 111 -127
212 37 74 123 100 201 61z"/>
</g>
</svg>
