<?xml version="1.0" standalone="no"?>
<!DOCTYPE svg PUBLIC "-//W3C//DTD SVG 20010904//EN"
 "http://www.w3.org/TR/2001/REC-SVG-20010904/DTD/svg10.dtd">
<svg version="1.0" xmlns="http://www.w3.org/2000/svg"
 width="1024.000000pt" height="1024.000000pt" viewBox="0 0 1024.000000 1024.000000"
 preserveAspectRatio="xMidYMid meet">
<metadata>
Created by potrace 1.16, written by Peter Selinger 2001-2019
</metadata>
<g transform="translate(0.000000,1024.000000) scale(0.100000,-0.100000)"
fill="#000000" stroke="none">
<path d="M5734 7531 c-197 -54 -413 -227 -559 -448 -24 -37 -33 -43 -64 -43
-33 -1 -60 -5 -146 -25 -29 -6 -35 -2 -94 69 -66 79 -184 178 -270 227 -27 16
-85 41 -128 55 -68 23 -90 26 -174 22 -87 -3 -104 -7 -172 -41 -128 -63 -215
-189 -259 -372 -12 -49 -23 -92 -24 -93 -1 -2 -39 10 -84 27 -207 80 -464 112
-622 77 -151 -34 -235 -113 -258 -244 -11 -58 -10 -79 4 -143 9 -41 17 -80 19
-87 1 -9 -36 -27 -108 -53 -277 -98 -501 -239 -583 -367 -43 -67 -58 -135 -73
-328 -37 -507 111 -1062 399 -1504 195 -300 476 -573 784 -764 121 -74 297
-164 413 -212 l80 -32 5 -149 c5 -133 7 -151 28 -180 98 -138 846 -269 1417
-249 557 20 1070 133 1151 253 16 23 20 53 24 176 l5 148 120 53 c153 67 207
95 330 169 586 353 1006 929 1159 1587 55 236 61 290 60 555 0 277 -10 368
-50 448 -80 157 -354 324 -700 426 -60 18 -114 34 -121 36 -8 3 -7 19 5 62 24
87 22 236 -4 294 -47 102 -133 160 -269 181 -135 21 -331 -19 -529 -107 -55
-25 -100 -44 -101 -42 -1 1 -7 38 -14 82 -41 253 -150 444 -296 516 -84 41
-195 49 -301 20z m224 -146 c152 -64 243 -313 243 -663 -1 -81 -7 -192 -16
-246 -16 -107 -73 -336 -84 -336 -3 0 -19 26 -36 58 -67 129 -213 236 -359
264 l-64 12 -7 55 c-24 195 -132 368 -280 452 l-56 31 37 47 c130 163 286 285
419 327 56 18 158 17 203 -1z m-1528 -158 c113 -40 250 -144 342 -260 l30 -37
-35 -39 c-81 -90 -131 -178 -172 -306 -23 -70 -43 -92 -123 -131 -7 -4 -44 24
-90 67 -95 91 -175 153 -295 229 l-92 58 4 58 c10 171 104 324 223 365 71 25
130 23 208 -4z m2605 -333 c22 -11 51 -36 63 -55 22 -31 23 -42 19 -119 -7
-139 -63 -272 -197 -462 -86 -123 -276 -316 -319 -324 -17 -4 -34 -11 -37 -15
-11 -19 -40 -7 -64 25 -45 61 -151 115 -227 116 -18 0 -33 3 -33 8 0 4 12 43
25 87 39 124 76 331 83 467 l7 123 60 32 c85 45 205 92 310 119 116 31 249 30
310 -2z m-1792 -24 c126 -47 218 -180 245 -355 l9 -57 -36 -15 c-88 -35 -147
-71 -206 -126 l-64 -58 -67 71 c-37 38 -98 91 -136 116 -69 46 -183 93 -225
94 -32 0 -29 18 14 108 50 101 136 191 213 220 74 28 180 29 253 2z m-1701
-49 c289 -73 566 -230 766 -433 l63 -64 -22 -48 c-30 -69 -58 -213 -65 -341
l-7 -111 -51 18 c-28 9 -68 17 -89 18 -32 0 -47 9 -100 58 -134 124 -268 182
-447 191 l-115 6 -96 72 c-138 104 -268 244 -315 337 -47 96 -57 192 -25 243
59 94 259 116 503 54z m1309 -463 c79 -40 205 -162 276 -268 105 -156 208
-407 244 -592 12 -67 12 -68 -17 -120 -16 -29 -42 -80 -59 -113 l-30 -60 -104
0 -104 0 -14 47 c-14 51 -52 88 -88 88 -37 0 -48 -24 -42 -85 l5 -54 -166 5
c-147 5 -169 8 -183 25 -23 25 -85 221 -110 344 -26 130 -36 356 -19 466 34
238 124 349 281 349 54 0 77 -6 130 -32z m2515 -23 c405 -133 631 -313 584
-468 -17 -58 -120 -162 -217 -218 -86 -50 -181 -95 -187 -88 -2 2 1 35 7 73
21 139 -20 281 -109 377 -85 90 -201 140 -331 141 -40 1 -73 3 -73 6 0 2 25
44 56 94 30 49 59 101 65 115 11 30 18 29 205 -32z m-4317 -53 c30 -34 52 -64
50 -66 -2 -1 -34 -11 -71 -20 -132 -35 -256 -148 -309 -283 -19 -48 -23 -77
-23 -168 0 -76 5 -123 16 -152 9 -24 13 -43 11 -43 -3 0 -42 17 -87 38 -258
121 -374 260 -326 387 28 73 189 199 349 272 135 63 315 123 327 110 6 -7 34
-40 63 -75z m2671 26 c97 -30 193 -124 244 -240 l25 -57 -55 -28 c-118 -59
-266 -187 -391 -338 -29 -35 -43 -46 -46 -35 -3 8 -22 69 -43 135 -20 66 -67
179 -103 250 -36 72 -68 133 -69 138 -6 13 108 114 162 143 91 50 182 61 276
32z m-2447 -256 l27 -12 -70 -69 c-66 -65 -74 -69 -106 -64 -20 3 -40 1 -49
-7 -22 -18 -19 -76 5 -93 19 -13 19 -16 5 -83 -18 -87 -19 -152 -1 -229 8 -33
12 -62 10 -64 -7 -8 -147 40 -165 56 -26 23 -76 133 -89 196 -31 155 63 316
219 374 42 15 172 12 214 -5z m3972 -74 c153 -80 209 -244 139 -413 -30 -71
-49 -88 -121 -110 -22 -6 -23 -3 -23 42 0 56 -24 162 -45 203 -14 27 -14 30 5
40 24 13 27 62 5 80 -9 8 -29 10 -53 7 -33 -5 -41 -2 -72 29 -31 31 -99 70
-154 88 -26 9 -12 22 50 46 72 29 200 23 269 -12z m-3570 -23 c74 -20 158 -57
203 -92 l34 -25 -60 -34 c-143 -81 -252 -269 -252 -437 0 -35 -4 -47 -15 -47
-17 0 -296 58 -300 62 -13 15 -45 94 -55 137 -16 70 -8 183 18 243 69 157 250
239 427 193z m2652 -60 c61 -28 103 -85 125 -168 24 -94 13 -280 -24 -409 -10
-35 -13 -37 -62 -43 -28 -3 -63 -8 -78 -11 -27 -5 -28 -4 -28 40 0 45 -24 86
-51 86 -38 0 -79 -59 -79 -114 0 -19 -6 -26 -27 -30 -86 -16 -651 -48 -665
-37 -4 4 20 51 52 105 262 436 618 683 837 581z m603 -111 c106 -60 163 -170
158 -305 l-3 -73 -95 -22 c-126 -30 -398 -79 -404 -73 -3 3 2 45 11 94 15 88
14 260 -3 341 -6 31 -4 33 48 53 43 17 70 21 143 18 80 -2 98 -7 145 -33z
m-2697 -101 l64 -31 17 -93 c9 -52 31 -141 48 -199 16 -58 33 -113 35 -123 5
-15 0 -17 -33 -13 -22 3 -95 10 -164 16 -69 6 -192 20 -275 30 -82 11 -156 20
-162 20 -9 0 -13 21 -13 70 0 269 246 433 483 323z m-1825 -138 c741 -475
2918 -641 4447 -339 494 98 901 248 1070 397 24 20 46 37 50 37 20 0 -25 -378
-47 -392 -234 -146 -461 -239 -803 -328 -514 -135 -1109 -205 -1830 -217
-1147 -18 -2128 131 -2737 416 -69 32 -232 122 -246 136 -8 8 -32 232 -32 304
l0 85 28 -26 c15 -14 60 -47 100 -73z m103 -564 c807 -387 2400 -535 3834
-355 627 78 1060 190 1434 370 62 30 115 53 118 50 2 -2 -19 -75 -48 -163
-251 -754 -854 -1322 -1654 -1557 -608 -179 -1372 -192 -2000 -35 -923 232
-1583 847 -1829 1707 -8 28 -11 52 -7 52 5 0 73 -31 152 -69z m1599 -1821
c117 -33 326 -72 500 -94 499 -64 1033 -34 1500 86 85 22 162 40 170 41 12 2
16 -14 18 -82 3 -99 -3 -109 -86 -139 -522 -190 -1506 -200 -2092 -21 -52 16
-108 37 -123 46 -28 18 -29 20 -28 106 0 48 0 90 1 93 0 3 8 3 18 -1 9 -3 64
-19 122 -35z"/>
<path d="M5735 7230 c-11 -12 -20 -41 -23 -73 -3 -43 -1 -55 17 -71 45 -41
101 11 101 93 0 66 -55 95 -95 51z"/>
<path d="M5832 6757 c-30 -32 -39 -104 -18 -145 21 -40 53 -42 87 -6 19 20 24
36 24 79 0 85 -47 121 -93 72z"/>
<path d="M4323 6974 c-15 -24 -15 -29 -2 -53 20 -36 71 -41 93 -9 21 29 20 51
-2 71 -28 26 -69 21 -89 -9z"/>
<path d="M6785 6725 c-39 -20 -55 -42 -55 -76 0 -39 22 -52 76 -46 56 6 104
47 104 89 0 47 -64 64 -125 33z"/>
<path d="M6512 6400 c-38 -23 -66 -81 -58 -116 20 -78 166 -1 166 87 0 51 -49
65 -108 29z"/>
<path d="M5060 6705 c-7 -8 -12 -26 -12 -40 0 -14 5 -32 12 -40 19 -23 66 -19
84 7 21 30 20 44 -4 68 -24 24 -63 26 -80 5z"/>
<path d="M3190 6658 c-17 -9 -26 -23 -28 -46 -3 -27 2 -35 30 -52 45 -27 100
-26 134 3 21 19 26 29 20 50 -3 15 -15 31 -26 37 -33 18 -103 22 -130 8z"/>
<path d="M3681 6461 c-15 -15 -20 -29 -16 -44 22 -74 165 -106 181 -40 12 45
-35 91 -103 100 -33 4 -45 1 -62 -16z"/>
<path d="M4100 6240 c-23 -23 -24 -33 -9 -62 19 -36 121 -63 155 -40 21 13 32
47 23 69 -19 50 -130 72 -169 33z"/>
<path d="M4680 6241 c-35 -66 32 -175 92 -152 67 26 22 171 -53 171 -18 0 -32
-7 -39 -19z"/>
<path d="M4965 5867 c-21 -33 -10 -81 30 -123 52 -55 105 -43 105 23 0 46 -24
90 -60 108 -40 21 -57 19 -75 -8z"/>
<path d="M4668 5699 c-23 -13 -41 -83 -33 -126 7 -39 44 -68 75 -58 48 15 67
121 29 169 -22 27 -43 32 -71 15z"/>
<path d="M5563 6104 c-15 -24 -15 -29 -2 -53 16 -29 61 -40 85 -20 17 14 19
70 2 87 -22 22 -66 14 -85 -14z"/>
<path d="M3462 5788 c-18 -18 -14 -63 8 -83 45 -41 110 18 76 70 -18 27 -63
34 -84 13z"/>
<path d="M6210 5807 c-42 -33 -61 -88 -44 -131 7 -19 62 -21 84 -3 47 37 69
128 34 141 -25 9 -58 6 -74 -7z"/>
<path d="M5809 5483 c-30 -19 -59 -62 -59 -90 0 -63 110 -55 154 11 19 30 21
67 4 84 -17 17 -68 14 -99 -5z"/>
<path d="M6762 5638 c-17 -17 -15 -73 2 -87 24 -20 69 -9 85 20 13 24 13 29
-2 53 -19 28 -63 36 -85 14z"/>
<path d="M4028 5549 c-22 -13 -24 -72 -3 -89 8 -7 26 -12 40 -12 34 0 55 19
55 53 0 49 -48 74 -92 48z"/>
</g>
</svg>
