<?xml version="1.0" standalone="no"?>
<!DOCTYPE svg PUBLIC "-//W3C//DTD SVG 20010904//EN"
 "http://www.w3.org/TR/2001/REC-SVG-20010904/DTD/svg10.dtd">
<svg version="1.0" xmlns="http://www.w3.org/2000/svg"
 width="1024.000000pt" height="1024.000000pt" viewBox="0 0 1024.000000 1024.000000"
 preserveAspectRatio="xMidYMid meet">
<metadata>
Created by potrace 1.16, written by Peter Selinger 2001-2019
</metadata>
<g transform="translate(0.000000,1024.000000) scale(0.100000,-0.100000)"
fill="#000000" stroke="none">
<path d="M5273 7510 c-229 -48 -389 -296 -353 -547 14 -102 50 -185 125 -285
104 -141 110 -156 110 -279 0 -121 8 -139 62 -139 51 0 67 44 61 176 -5 120
-31 183 -122 304 -94 126 -110 168 -110 285 0 131 23 193 103 274 104 107 231
122 310 37 29 -31 40 -111 21 -156 -14 -33 -69 -86 -118 -112 -25 -13 -32 -24
-32 -46 0 -34 27 -62 59 -62 31 0 95 35 140 76 106 95 113 277 17 391 -55 65
-179 103 -273 83z"/>
<path d="M4300 7305 c-263 -72 -368 -428 -196 -663 24 -32 59 -70 77 -82 114
-79 184 -159 210 -239 16 -49 37 -71 70 -71 67 0 74 60 20 175 -36 77 -72 119
-176 199 -93 74 -139 136 -156 216 -37 172 79 350 228 350 136 0 186 -131 93
-244 -44 -53 -48 -70 -24 -104 52 -75 179 49 191 188 8 90 -11 145 -73 207
-71 71 -164 95 -264 68z"/>
<path d="M3015 6144 c-68 -9 -154 -37 -174 -57 -103 -111 -60 -720 95 -1338
151 -604 444 -1245 688 -1507 133 -144 671 -246 1356 -259 728 -13 1225 70
1393 233 131 128 282 473 362 829 39 179 83 457 98 629 2 28 6 30 72 44 283
56 508 245 599 501 29 81 31 95 30 226 0 125 -3 147 -25 205 -50 130 -143 236
-259 295 -97 49 -240 73 -338 57 -57 -10 -66 -5 -77 40 -10 37 -42 63 -105 85
-53 17 -135 18 -1870 19 -998 1 -1828 0 -1845 -2z m3641 -129 c60 -9 73 -23
84 -90 14 -78 13 -630 0 -855 -45 -761 -169 -1310 -374 -1652 -52 -89 -97
-133 -170 -170 -206 -104 -778 -163 -1334 -139 -570 25 -1031 110 -1135 209
-49 46 -161 210 -241 353 -319 568 -551 1399 -573 2054 -7 203 -1 260 30 277
17 10 203 14 802 18 996 6 2857 3 2911 -5z m494 -163 c88 -34 167 -105 212
-188 141 -262 4 -610 -302 -764 -62 -31 -152 -60 -187 -60 -21 0 -23 4 -23 53
0 64 5 71 55 87 178 57 315 246 291 402 -17 112 -119 197 -247 206 l-69 5 0
71 c0 39 -3 101 -6 138 -8 80 -11 78 126 74 68 -2 111 -9 150 -24z m-171 -392
c44 -12 88 -55 96 -91 19 -84 -111 -259 -191 -259 -18 0 -19 7 -13 137 4 76 7
157 8 181 1 41 2 42 34 42 17 0 48 -4 66 -10z"/>
<path d="M3150 5790 c-24 -24 -24 -21 -5 -201 31 -288 81 -587 150 -884 52
-224 63 -259 82 -272 40 -30 93 -2 93 49 0 14 -18 100 -40 191 -72 298 -137
676 -171 995 -10 95 -15 115 -33 127 -28 20 -52 19 -76 -5z"/>
<path d="M5538 5768 c-9 -7 -21 -39 -27 -72 -14 -76 -42 -120 -99 -153 -37
-22 -59 -28 -102 -27 -53 1 -73 8 -147 55 -29 18 -36 19 -60 7 -22 -10 -29
-21 -31 -48 -4 -43 17 -65 98 -107 48 -24 66 -28 140 -28 99 0 152 20 220 81
91 82 137 258 77 296 -18 12 -51 9 -69 -4z"/>
<path d="M4354 5732 c-39 -26 -36 -78 10 -157 100 -170 330 -212 491 -90 70
54 96 129 53 159 -33 23 -51 20 -84 -15 -63 -68 -103 -89 -165 -89 -32 0 -69
4 -83 10 -43 16 -103 78 -125 129 -11 27 -28 51 -37 55 -21 8 -46 7 -60 -2z"/>
<path d="M3491 5554 c-20 -15 -23 -23 -19 -66 6 -56 25 -80 62 -80 42 0 56 19
56 77 0 77 -43 108 -99 69z"/>
<path d="M5717 5244 c-159 -29 -303 -110 -440 -248 -40 -40 -83 -91 -97 -114
-14 -23 -28 -42 -31 -42 -4 0 -24 30 -45 67 -52 90 -181 220 -265 267 -175 96
-379 100 -551 9 -118 -62 -196 -153 -240 -282 -30 -87 -32 -248 -4 -331 45
-134 154 -285 298 -415 30 -28 154 -142 274 -255 353 -331 463 -430 488 -441
17 -8 30 -8 48 2 31 17 732 682 842 799 162 173 246 332 265 501 28 255 -92
435 -324 484 -84 18 -116 18 -218 -1z m-1076 -128 c91 -20 162 -58 232 -125
77 -73 121 -134 177 -245 35 -70 51 -92 69 -94 41 -6 68 7 82 40 20 49 119
177 185 239 153 143 300 206 464 196 105 -5 164 -31 220 -95 109 -123 88 -345
-51 -549 -56 -81 -343 -366 -839 -830 l-56 -52 -185 171 c-647 600 -688 643
-746 764 -85 179 -53 375 81 488 63 53 99 72 173 90 75 18 113 19 194 2z"/>
<path d="M3446 4261 c-21 -23 -19 -46 14 -133 23 -63 44 -77 87 -56 37 17 39
54 10 138 -21 62 -23 65 -58 68 -25 2 -40 -3 -53 -17z"/>
</g>
</svg>
