<?xml version="1.0" standalone="no"?>
<!DOCTYPE svg PUBLIC "-//W3C//DTD SVG 20010904//EN"
 "http://www.w3.org/TR/2001/REC-SVG-20010904/DTD/svg10.dtd">
<svg version="1.0" xmlns="http://www.w3.org/2000/svg"
 width="1024.000000pt" height="1024.000000pt" viewBox="0 0 1024.000000 1024.000000"
 preserveAspectRatio="xMidYMid meet">
<metadata>
Created by potrace 1.16, written by Peter Selinger 2001-2019
</metadata>
<g transform="translate(0.000000,1024.000000) scale(0.100000,-0.100000)"
fill="#000000" stroke="none">
<path d="M4859 8004 c-10 -13 -7 -45 20 -187 55 -287 111 -600 111 -616 0 -12
-24 -22 -92 -38 -164 -40 -290 -118 -405 -252 -129 -152 -204 -301 -323 -646
-116 -336 -138 -386 -417 -935 -160 -316 -213 -443 -258 -625 -88 -349 -70
-635 56 -895 141 -292 385 -502 751 -645 307 -119 703 -179 1040 -155 361 25
608 85 863 209 153 75 272 160 380 272 197 204 291 425 302 710 13 328 -63
560 -362 1104 -197 358 -233 435 -365 785 -110 294 -193 468 -291 615 -179
268 -435 444 -686 473 l-68 7 3 45 c5 67 43 294 51 302 3 4 35 3 71 -3 188
-30 384 74 471 249 25 51 32 80 33 126 1 57 -1 61 -27 74 -15 7 -61 16 -102
19 -276 21 -492 -167 -550 -480 -4 -20 -10 -37 -14 -37 -4 0 -15 42 -25 93 -9
50 -31 166 -48 257 -17 91 -35 171 -41 178 -13 17 -62 15 -78 -4z m786 -115
c12 -18 -47 -123 -97 -171 -66 -64 -139 -92 -245 -92 -45 -1 -85 2 -89 7 -13
13 38 106 84 153 45 45 92 74 161 99 44 16 177 19 186 4z m-478 -810 c348 -48
630 -333 828 -834 13 -33 54 -140 90 -239 87 -235 174 -420 327 -701 225 -412
287 -549 338 -740 85 -321 43 -625 -120 -865 -184 -271 -496 -456 -916 -543
-185 -39 -313 -51 -519 -51 -385 1 -702 68 -990 210 -268 132 -455 310 -565
539 -76 158 -94 245 -94 460 -1 210 9 267 87 505 43 131 83 219 263 575 224
444 259 524 374 860 39 116 98 264 130 331 142 295 332 457 575 493 85 12 104
12 192 0z"/>
<path d="M5615 4858 c-52 -45 -52 -161 0 -205 87 -75 182 50 131 172 -24 58
-84 73 -131 33z"/>
<path d="M4212 4854 c-24 -11 -42 -63 -42 -124 0 -55 3 -65 29 -91 74 -74 167
7 147 129 -9 57 -36 87 -82 89 -21 1 -45 -1 -52 -3z"/>
<path d="M4681 4184 c-21 -15 -23 -22 -18 -77 22 -246 317 -418 580 -337 162
50 285 188 303 341 5 44 3 59 -11 72 -40 40 -79 12 -88 -63 -11 -95 -87 -192
-186 -239 -49 -23 -69 -26 -156 -26 -87 0 -107 3 -156 26 -31 15 -75 43 -97
64 -48 43 -92 129 -92 179 0 23 -7 43 -20 56 -24 24 -29 25 -59 4z"/>
</g>
</svg>
