<?xml version="1.0" standalone="no"?>
<!DOCTYPE svg PUBLIC "-//W3C//DTD SVG 20010904//EN"
 "http://www.w3.org/TR/2001/REC-SVG-20010904/DTD/svg10.dtd">
<svg version="1.0" xmlns="http://www.w3.org/2000/svg"
 width="1024.000000pt" height="1024.000000pt" viewBox="0 0 1024.000000 1024.000000"
 preserveAspectRatio="xMidYMid meet">
<metadata>
Created by potrace 1.16, written by Peter Selinger 2001-2019
</metadata>
<g transform="translate(0.000000,1024.000000) scale(0.100000,-0.100000)"
fill="#000000" stroke="none">
<path d="M5095 7304 c-320 -57 -593 -224 -789 -484 -158 -210 -248 -457 -285
-785 -47 -407 -71 -1399 -42 -1690 22 -219 51 -271 182 -319 111 -41 398 -91
619 -108 l35 -3 5 -420 5 -420 34 -73 c78 -166 258 -265 423 -232 153 30 268
136 318 295 9 28 15 159 19 445 l6 405 100 7 c254 19 564 77 661 125 116 57
141 102 165 293 36 303 13 1447 -37 1810 -67 494 -299 841 -692 1039 -227 114
-494 156 -727 115z m316 -179 c446 -59 801 -397 897 -855 39 -182 53 -382 73
-1016 13 -407 2 -866 -24 -969 -10 -42 -18 -53 -52 -72 -45 -25 -125 -44 -305
-72 -505 -80 -1215 -70 -1657 23 -100 21 -148 43 -162 72 -32 72 -41 671 -16
1174 36 732 60 882 174 1115 182 369 531 598 936 613 17 1 78 -5 136 -13z m19
-3599 c0 -392 -3 -424 -47 -488 -28 -42 -110 -88 -156 -88 -81 0 -161 50 -196
123 -20 42 -21 58 -21 435 l0 392 198 2 c108 2 203 1 210 -1 9 -2 12 -86 12
-375z"/>
<path d="M5583 6701 c-37 -24 -52 -75 -32 -112 25 -47 209 -247 233 -253 54
-14 106 32 106 92 0 28 -16 53 -89 141 -49 58 -97 114 -108 123 -31 28 -74 31
-110 9z"/>
<path d="M4624 5970 c-55 -22 -54 -11 -54 -580 1 -397 4 -529 13 -541 34 -44
102 -51 144 -15 l28 24 3 518 c2 378 -1 526 -9 547 -19 46 -76 67 -125 47z"/>
</g>
</svg>
