<?xml version="1.0" standalone="no"?>
<!DOCTYPE svg PUBLIC "-//W3C//DTD SVG 20010904//EN"
 "http://www.w3.org/TR/2001/REC-SVG-20010904/DTD/svg10.dtd">
<svg version="1.0" xmlns="http://www.w3.org/2000/svg"
 width="1024.000000pt" height="1024.000000pt" viewBox="0 0 1024.000000 1024.000000"
 preserveAspectRatio="xMidYMid meet">
<metadata>
Created by potrace 1.16, written by Peter Selinger 2001-2019
</metadata>
<g transform="translate(0.000000,1024.000000) scale(0.100000,-0.100000)"
fill="#000000" stroke="none">
<path d="M4860 7973 c-24 -22 -33 -41 -40 -86 -20 -128 -138 -284 -285 -379
-38 -25 -147 -84 -241 -131 -281 -140 -440 -249 -579 -399 -205 -221 -306
-455 -318 -738 l-2 -44 -75 -39 c-352 -183 -601 -484 -685 -830 -79 -323 -12
-631 182 -837 41 -44 105 -100 141 -124 l67 -44 17 -84 c38 -181 271 -919 369
-1168 67 -170 166 -366 199 -393 41 -35 291 -160 430 -215 434 -173 827 -247
1310 -247 508 0 885 76 1246 250 l131 63 62 98 c154 248 284 546 427 981 112
339 233 786 234 860 0 15 35 58 108 130 116 116 152 172 198 305 105 310 1
687 -258 934 -109 104 -248 192 -373 234 l-50 17 -7 79 c-21 231 -103 399
-275 565 -159 153 -334 241 -669 339 -226 66 -320 102 -410 156 -100 60 -117
78 -193 205 -166 278 -326 445 -512 540 -74 37 -110 37 -149 2z m197 -276
c107 -90 179 -181 301 -378 141 -229 287 -321 678 -429 184 -51 269 -82 379
-137 215 -107 361 -259 426 -443 19 -54 23 -86 24 -190 0 -111 -3 -130 -22
-167 -38 -71 -28 -129 27 -158 59 -30 116 -9 145 54 10 23 22 41 27 41 22 0
146 -64 214 -111 128 -89 234 -220 291 -359 28 -71 53 -191 53 -260 0 -67 -24
-185 -50 -244 -72 -169 -237 -299 -433 -342 -113 -25 -133 -37 -177 -106 -49
-77 -121 -152 -175 -183 -22 -13 -67 -29 -100 -36 -78 -16 -163 2 -295 62 -78
35 -100 40 -139 36 -48 -5 -42 0 -149 -126 -62 -72 -132 -104 -242 -109 -66
-3 -104 1 -163 17 -97 26 -123 26 -189 0 -177 -71 -303 -66 -435 20 -101 65
-132 68 -248 20 -72 -30 -90 -33 -180 -34 -88 0 -107 3 -157 27 -31 14 -85 48
-121 76 -117 89 -177 90 -348 7 -83 -41 -100 -45 -163 -45 -114 1 -189 46
-261 158 -56 88 -99 107 -186 81 -53 -16 -142 2 -247 52 -224 104 -355 345
-339 624 17 301 181 578 462 777 104 74 216 128 266 128 85 0 127 90 78 170
-18 29 -20 43 -15 102 21 211 118 400 296 578 121 122 249 207 518 344 119 62
244 133 294 171 105 77 195 183 246 287 20 42 39 77 42 77 3 0 33 -23 67 -52z
m2173 -3309 c0 -23 -80 -319 -137 -508 -148 -494 -301 -871 -450 -1108 l-58
-94 -100 -48 c-280 -135 -628 -207 -1045 -217 -408 -10 -753 39 -1129 159
-167 53 -420 165 -524 231 -51 33 -60 44 -100 129 -96 202 -210 527 -351 998
-91 306 -95 326 -73 317 9 -3 49 -9 90 -13 69 -6 75 -8 96 -40 49 -72 149
-143 245 -175 l50 -17 57 -269 c31 -147 77 -368 103 -490 25 -122 50 -233 56
-247 5 -14 24 -33 41 -42 63 -32 139 13 139 83 0 18 -43 240 -95 494 -53 255
-94 468 -91 476 3 7 13 13 22 13 9 0 60 21 114 46 l98 46 62 -50 c34 -28 92
-63 129 -78 36 -15 69 -30 74 -34 4 -3 18 -206 32 -451 36 -663 32 -627 84
-649 57 -23 119 3 135 56 6 19 -7 342 -34 832 -6 101 -8 188 -5 193 4 5 23 9
43 9 20 0 74 13 120 28 l83 29 95 -46 96 -46 -7 -475 c-6 -468 -6 -476 14
-501 24 -31 69 -42 110 -28 61 21 60 16 72 506 5 246 12 453 14 459 1 5 33 16
70 22 37 7 96 24 132 37 l65 25 76 -20 c42 -11 102 -20 133 -20 32 0 60 -4 63
-8 2 -4 0 -28 -4 -52 -89 -443 -159 -850 -152 -871 25 -65 110 -86 157 -39 21
22 34 73 108 450 47 234 90 457 97 496 l13 72 62 40 c34 23 81 62 104 87 47
51 43 51 136 11 33 -14 86 -31 118 -37 31 -6 57 -17 57 -23 0 -6 -29 -121 -65
-256 -125 -465 -185 -707 -185 -737 0 -39 32 -79 69 -86 37 -8 88 9 101 33 11
21 290 1036 290 1056 0 7 25 24 55 38 109 49 210 136 271 232 28 44 39 53 86
66 69 20 68 20 68 6z"/>
<path d="M4723 7123 c-7 -2 -38 -49 -69 -104 -62 -109 -64 -130 -19 -175 17
-16 35 -24 60 -24 47 0 78 30 134 133 48 87 49 121 4 157 -24 19 -80 26 -110
13z"/>
<path d="M5525 6309 c-178 -115 -185 -122 -185 -174 0 -47 26 -79 72 -90 34
-9 70 9 224 110 113 74 154 113 154 147 0 28 -27 76 -49 88 -42 22 -76 10
-216 -81z"/>
<path d="M6329 6301 c-46 -46 -35 -117 21 -146 64 -33 135 13 135 87 0 82 -96
118 -156 59z"/>
<path d="M3975 5966 c-55 -24 -72 -96 -32 -140 32 -36 196 -127 239 -133 32
-5 42 -1 68 25 35 35 41 88 13 120 -19 21 -231 142 -248 142 -6 -1 -24 -7 -40
-14z"/>
<path d="M6290 5400 c-194 -53 -220 -69 -220 -136 0 -42 45 -94 82 -94 13 0
104 23 203 50 199 56 225 71 225 135 0 47 -8 64 -41 80 -39 21 -51 19 -249
-35z"/>
<path d="M7050 5383 c-75 -28 -79 -122 -7 -200 30 -34 96 -32 131 3 35 35 33
77 -4 137 -36 57 -75 76 -120 60z"/>
<path d="M3223 5365 c-36 -15 -53 -42 -53 -82 0 -32 102 -242 127 -260 21 -16
77 -17 105 -2 11 6 26 26 34 45 14 34 14 38 -43 160 -43 96 -64 129 -85 140
-33 17 -44 17 -85 -1z"/>
<path d="M5258 4859 c-20 -8 -41 -35 -78 -102 -62 -111 -66 -126 -46 -166 19
-35 44 -51 81 -51 45 0 62 17 120 121 49 87 56 105 50 135 -4 25 -16 41 -38
54 -35 22 -49 23 -89 9z"/>
</g>
</svg>
