<?xml version="1.0" standalone="no"?>
<!DOCTYPE svg PUBLIC "-//W3C//DTD SVG 20010904//EN"
 "http://www.w3.org/TR/2001/REC-SVG-20010904/DTD/svg10.dtd">
<svg version="1.0" xmlns="http://www.w3.org/2000/svg"
 width="1024.000000pt" height="1024.000000pt" viewBox="0 0 1024.000000 1024.000000"
 preserveAspectRatio="xMidYMid meet">
<metadata>
Created by potrace 1.16, written by Peter Selinger 2001-2019
</metadata>
<g transform="translate(0.000000,1024.000000) scale(0.100000,-0.100000)"
fill="#000000" stroke="none">
<path d="M4328 7914 c-55 -29 -65 -99 -22 -149 34 -39 58 -94 78 -182 25 -110
23 -119 -26 -141 -76 -34 -524 -367 -701 -520 -98 -85 -99 -86 -130 -73 -438
181 -936 29 -1220 -370 -65 -92 -133 -240 -164 -356 -21 -80 -26 -123 -27
-233 0 -74 3 -163 7 -197 9 -62 9 -63 -18 -73 -201 -76 -279 -131 -326 -226
l-32 -65 7 -154 c37 -831 462 -1611 1173 -2152 175 -134 275 -195 518 -318
l180 -92 5 -54 c11 -109 39 -127 260 -168 212 -39 400 -65 625 -88 225 -22
926 -25 1130 -5 358 35 805 106 866 137 43 23 69 71 70 130 l0 50 187 92 c615
303 1090 769 1391 1363 187 370 274 700 296 1120 6 113 5 130 -15 182 -38 103
-139 179 -323 243 -43 15 -79 31 -82 35 -2 3 3 33 13 66 25 90 22 303 -6 416
-81 330 -305 581 -617 694 -121 44 -204 56 -379 52 l-159 -3 -18 75 c-25 107
-71 212 -133 305 -145 220 -357 361 -614 411 -95 18 -260 18 -354 0 -222 -44
-427 -167 -564 -339 -65 -82 -158 -253 -170 -315 -4 -18 -12 -31 -18 -29 -6 2
-52 84 -103 183 -106 206 -145 251 -241 281 -72 21 -82 29 -82 63 0 56 -59
260 -95 328 -47 90 -98 114 -167 76z m1788 -444 c374 -94 626 -449 584 -823
-13 -110 -15 -115 -58 -122 -237 -39 -470 -174 -620 -360 -36 -44 -68 -81 -72
-83 -4 -1 -47 46 -96 105 -151 182 -255 297 -300 329 -67 48 -143 68 -229 61
l-73 -7 -26 39 c-38 54 -49 104 -41 180 33 335 278 615 600 686 93 21 238 18
331 -5z m-1551 -181 c65 -18 93 -46 137 -132 61 -123 222 -415 309 -562 l77
-130 -55 -60 c-224 -246 -406 -454 -467 -533 -69 -90 -72 -92 -106 -87 -68 10
-287 25 -438 30 -139 4 -156 7 -195 29 -64 37 -172 68 -261 75 l-81 6 -19 55
c-24 73 -25 229 -2 325 25 102 97 238 171 327 86 103 200 201 430 372 286 213
364 268 404 282 45 16 47 16 96 3z m-1211 -584 c64 -21 77 -36 53 -63 -41 -46
-107 -203 -133 -317 -22 -99 -23 -285 -1 -363 16 -61 19 -57 -74 -82 -124 -33
-293 -131 -406 -234 -76 -69 -166 -187 -213 -278 -19 -38 -38 -68 -41 -68 -12
0 -121 145 -146 194 -113 224 -120 474 -18 716 106 254 348 454 616 510 75 15
296 6 363 -15z m3953 -41 c221 -64 399 -217 499 -429 58 -124 69 -178 68 -325
0 -108 -4 -136 -27 -207 -15 -44 -36 -91 -46 -104 -18 -23 -18 -23 -30 61 -66
448 -370 773 -800 854 -47 9 -86 18 -88 19 -1 2 0 33 4 70 5 60 9 68 30 73
116 29 264 25 390 -12z m-1878 -288 c55 -29 455 -518 600 -735 131 -195 177
-335 168 -515 -6 -134 -30 -224 -61 -231 -92 -20 -1152 -41 -1440 -28 l-180 8
-17 30 c-49 84 -65 269 -35 398 28 117 114 281 215 407 237 296 551 641 606
666 40 18 109 18 144 0z m1523 -51 c268 -57 501 -261 589 -518 61 -177 61
-355 1 -525 -33 -93 -103 -216 -135 -236 -27 -18 -205 -48 -472 -81 -232 -28
-564 -59 -570 -53 -3 2 2 38 11 79 24 114 15 308 -21 419 -37 115 -102 242
-197 383 l-79 118 26 44 c106 182 321 332 536 374 72 14 233 12 311 -4z
m-3317 -610 c33 -9 79 -25 102 -36 107 -52 189 -169 200 -286 5 -55 3 -63 -26
-103 -43 -59 -80 -183 -88 -292 l-6 -91 -95 7 c-337 24 -1021 122 -1050 151
-10 10 17 96 57 180 86 181 256 342 449 424 141 59 330 78 457 46z m595 -96
c74 -6 138 -13 142 -15 4 -3 -2 -24 -13 -46 -34 -66 -69 -165 -85 -242 -28
-127 -18 -317 22 -419 7 -18 1 -19 -127 -12 -74 4 -140 12 -148 19 -11 8 -12
30 -8 96 8 117 31 176 108 271 20 25 20 31 9 120 -9 79 -25 131 -67 227 -6 15
-2 15 167 1z m3823 -179 c29 -11 79 -35 112 -53 98 -53 85 -95 -49 -160 -102
-50 -427 -149 -441 -135 -9 9 64 162 82 171 29 16 102 88 150 150 50 65 47 64
146 27z m-5827 -32 c33 -74 89 -151 163 -225 52 -53 66 -73 53 -73 -33 0 -283
85 -352 120 -69 34 -120 75 -120 96 0 7 15 25 34 39 37 28 161 84 187 85 9 0
24 -18 35 -42z m-213 -354 c285 -145 1011 -281 1802 -339 421 -30 559 -36
1045 -42 1413 -17 2701 122 3278 354 62 25 115 44 117 42 1 -2 -3 -49 -10
-104 -39 -290 -138 -593 -286 -866 -301 -559 -778 -998 -1389 -1278 -146 -67
-172 -91 -178 -165 -2 -31 -8 -58 -11 -61 -12 -7 -373 -64 -506 -79 -351 -41
-889 -52 -1230 -27 -254 19 -720 81 -807 107 -14 4 -18 16 -18 51 0 79 -24
103 -158 163 -354 157 -639 354 -923 639 -317 318 -513 625 -661 1036 -70 195
-153 595 -123 595 3 0 29 -12 58 -26z"/>
<path d="M5605 7291 c-69 -32 -115 -80 -115 -120 0 -58 49 -67 113 -22 61 43
110 53 179 37 68 -16 101 -5 106 35 2 19 -5 33 -28 52 -64 55 -164 62 -255 18z"/>
<path d="M5769 6997 c-44 -30 -64 -86 -48 -134 24 -72 131 -98 189 -45 61 54
47 158 -25 188 -48 20 -77 18 -116 -9z"/>
<path d="M6008 6644 c-78 -42 -74 -170 7 -208 45 -22 76 -20 116 7 60 41 76
105 39 165 -31 51 -104 68 -162 36z"/>
<path d="M3842 6604 c-81 -41 -82 -168 -2 -209 68 -35 146 -3 170 70 33 99
-74 187 -168 139z"/>
<path d="M4600 6499 c-14 -6 -35 -20 -47 -31 -48 -45 -37 -144 21 -179 38 -23
103 -25 134 -3 65 45 69 158 7 198 -31 20 -85 27 -115 15z"/>
<path d="M4063 6225 c-53 -37 -25 -135 51 -180 89 -52 183 -40 246 31 38 43
40 85 5 119 -27 28 -54 31 -118 13 -40 -10 -47 -9 -75 10 -35 25 -79 28 -109
7z"/>
<path d="M2944 6321 c-83 -51 -60 -185 36 -211 76 -20 140 27 148 110 4 46 2
52 -31 85 -29 29 -42 35 -78 35 -26 0 -57 -8 -75 -19z"/>
<path d="M2607 6233 c-81 -85 -78 -276 5 -319 35 -18 51 -14 73 19 14 22 14
27 -4 68 -23 51 -19 84 19 161 22 44 22 48 6 72 -23 35 -64 35 -99 -1z"/>
<path d="M5023 5711 c-76 -55 -116 -189 -83 -275 13 -36 52 -53 85 -38 23 11
25 17 25 76 0 81 10 107 60 156 42 41 47 58 30 91 -16 29 -69 25 -117 -10z"/>
<path d="M5349 5665 c-36 -20 -63 -78 -55 -121 9 -47 50 -92 91 -100 81 -15
145 40 145 125 0 36 -6 49 -34 77 -28 28 -41 34 -77 34 -24 -1 -56 -7 -70 -15z"/>
<path d="M5742 5554 c-28 -19 -29 -61 -1 -90 30 -32 38 -81 22 -128 -16 -48
-9 -74 22 -82 36 -9 56 -2 78 28 54 73 19 242 -57 273 -43 18 -37 18 -64 -1z"/>
<path d="M6785 6170 c-28 -31 -13 -66 44 -95 59 -29 88 -64 103 -122 18 -74
77 -92 108 -33 14 25 13 47 -5 107 -34 113 -194 205 -250 143z"/>
<path d="M6699 5712 c-25 -23 -33 -38 -36 -79 -5 -45 -2 -54 24 -83 24 -26 39
-33 79 -37 43 -5 54 -2 82 22 43 36 56 85 35 136 -29 73 -125 94 -184 41z"/>
<path d="M6480 5390 c-16 -16 -20 -33 -19 -82 1 -79 15 -120 58 -164 35 -35
76 -45 99 -22 18 18 14 63 -8 83 -27 25 -43 80 -36 126 5 31 2 43 -14 59 -25
25 -55 25 -80 0z"/>
<path d="M2924 5428 c-101 -89 -126 -208 -44 -208 33 0 49 13 87 70 17 25 40
54 52 64 28 25 29 81 2 96 -33 17 -59 11 -97 -22z"/>
</g>
</svg>
