<?xml version="1.0" standalone="no"?>
<!DOCTYPE svg PUBLIC "-//W3C//DTD SVG 20010904//EN"
 "http://www.w3.org/TR/2001/REC-SVG-20010904/DTD/svg10.dtd">
<svg version="1.0" xmlns="http://www.w3.org/2000/svg"
 width="1024.000000pt" height="1024.000000pt" viewBox="0 0 1024.000000 1024.000000"
 preserveAspectRatio="xMidYMid meet">
<metadata>
Created by potrace 1.16, written by Peter Selinger 2001-2019
</metadata>
<g transform="translate(0.000000,1024.000000) scale(0.100000,-0.100000)"
fill="#000000" stroke="none">
<path d="M4914 7200 c-250 -26 -481 -184 -591 -405 -38 -76 -53 -120 -72 -220
l-16 -80 -75 -6 c-41 -3 -95 -11 -120 -18 -79 -23 -182 -82 -243 -140 -127
-119 -187 -258 -187 -429 0 -109 13 -170 56 -256 70 -143 229 -256 397 -280
44 -7 52 -13 118 -89 165 -193 303 -437 383 -677 76 -227 106 -420 106 -673 0
-127 2 -146 18 -160 17 -15 61 -17 423 -17 334 0 409 2 425 14 16 12 19 25 16
82 -4 106 16 370 38 491 59 328 199 636 408 894 58 72 64 76 119 88 170 38
333 163 409 313 36 72 54 153 54 248 0 138 -39 248 -125 355 l-32 40 4 105 c9
180 -38 304 -162 427 -159 159 -403 214 -621 141 l-71 -23 -44 49 c-148 166
-377 250 -615 226z m224 -135 c130 -30 246 -105 326 -212 55 -74 72 -78 172
-38 34 14 95 30 136 36 193 30 395 -68 485 -237 52 -99 61 -172 37 -337 -7
-47 -6 -48 45 -102 29 -30 66 -85 84 -122 30 -63 32 -76 32 -174 0 -101 -1
-108 -37 -180 -70 -141 -194 -232 -363 -265 -219 -43 -466 55 -530 209 -29 72
-29 72 -75 72 -47 0 -51 -5 -69 -72 -23 -83 -154 -183 -286 -218 -204 -53
-444 37 -536 201 -47 82 -99 86 -143 10 -32 -55 -125 -119 -196 -136 -29 -7
-84 -10 -124 -8 -208 13 -366 191 -366 413 0 163 100 325 252 408 84 46 152
61 254 54 113 -7 119 -2 128 107 13 162 62 283 157 390 56 62 154 137 215 163
123 52 276 66 402 38z m-606 -1609 c61 -60 186 -126 283 -151 77 -20 232 -20
310 0 92 23 203 84 271 147 l61 57 34 -36 c74 -78 219 -149 347 -168 23 -4 42
-9 42 -11 0 -3 -33 -53 -73 -112 -132 -194 -222 -384 -286 -605 -54 -186 -91
-440 -91 -624 l0 -73 -320 0 -320 0 0 114 c0 303 -82 642 -224 927 -75 149
-111 207 -218 352 -45 59 -79 109 -77 110 2 2 33 17 69 35 36 17 81 45 100 61
19 17 35 30 36 31 0 0 25 -24 56 -54z"/>
<path d="M4967 6810 c-18 -15 -27 -31 -27 -51 0 -65 80 -93 119 -43 26 33 26
55 4 82 -27 32 -64 37 -96 12z"/>
<path d="M4743 6589 c-8 -40 -28 -47 -57 -20 -12 11 -28 21 -34 21 -22 0 -12
-29 18 -52 17 -12 34 -36 38 -52 16 -60 116 -56 129 5 5 24 9 28 29 23 18 -5
24 -2 24 10 0 9 -7 16 -15 16 -7 0 -18 7 -22 15 -12 20 -74 65 -90 65 -8 0
-16 -14 -20 -31z"/>
<path d="M5887 6600 c-11 -16 -21 -19 -41 -14 -33 8 -33 -6 -1 -36 14 -13 25
-33 25 -45 0 -22 22 -48 50 -57 25 -9 60 10 71 38 7 21 13 24 21 16 7 -7 16
-12 20 -12 13 0 9 38 -4 42 -7 3 -22 22 -33 44 -17 33 -25 39 -57 42 -28 2
-40 -2 -51 -18z"/>
<path d="M5762 6344 c-19 -13 -22 -24 -20 -57 4 -52 39 -77 85 -61 52 18 57
100 8 122 -34 16 -46 15 -73 -4z"/>
<path d="M4006 6198 c-42 -59 12 -133 78 -108 47 18 58 77 20 114 -24 24 -80
20 -98 -6z"/>
<path d="M6195 5996 c-3 -9 -7 -23 -10 -31 -8 -26 -33 -28 -61 -6 -20 16 -30
19 -38 11 -8 -8 -5 -16 10 -28 16 -13 19 -26 16 -58 -5 -50 15 -74 63 -74 25
0 38 7 53 28 17 22 23 25 33 15 16 -16 39 -17 39 -2 0 6 -11 20 -24 30 -14 11
-32 42 -41 69 -18 54 -32 70 -40 46z"/>
<path d="M4794 5935 c-13 -9 -18 -25 -17 -55 5 -121 166 -207 291 -154 49 20
99 70 113 113 11 31 10 36 -11 53 -33 27 -47 22 -75 -22 -66 -104 -197 -88
-230 28 -12 41 -44 57 -71 37z"/>
<path d="M3937 5882 c-22 -25 -21 -75 1 -95 10 -10 33 -17 50 -17 58 0 88 71
50 117 -16 20 -82 16 -101 -5z"/>
<path d="M5837 5745 c-38 -37 -27 -100 19 -111 65 -16 114 39 83 94 -18 33
-77 43 -102 17z"/>
<path d="M4813 4985 c-87 -37 -93 -165 -11 -215 51 -31 101 -26 144 13 64 58
55 152 -19 197 -37 23 -70 25 -114 5z m98 -71 c17 -21 0 -49 -32 -49 -18 0
-25 6 -27 24 -6 38 34 55 59 25z"/>
<path d="M5314 4981 c-44 -27 -64 -59 -64 -104 0 -99 103 -159 187 -107 40 24
54 50 55 100 0 48 -27 95 -68 115 -43 20 -72 19 -110 -4z m101 -72 c14 -43
-45 -66 -61 -24 -8 19 13 45 37 45 10 0 21 -10 24 -21z"/>
<path d="M4962 4648 c-19 -19 -15 -66 7 -78 28 -15 284 -13 299 2 7 7 12 24
12 38 0 46 -14 50 -165 50 -96 0 -145 -4 -153 -12z"/>
</g>
</svg>
