<?xml version="1.0" standalone="no"?>
<!DOCTYPE svg PUBLIC "-//W3C//DTD SVG 20010904//EN"
 "http://www.w3.org/TR/2001/REC-SVG-20010904/DTD/svg10.dtd">
<svg version="1.0" xmlns="http://www.w3.org/2000/svg"
 width="1024.000000pt" height="1024.000000pt" viewBox="0 0 1024.000000 1024.000000"
 preserveAspectRatio="xMidYMid meet">
<metadata>
Created by potrace 1.16, written by Peter Selinger 2001-2019
</metadata>
<g transform="translate(0.000000,1024.000000) scale(0.100000,-0.100000)"
fill="#000000" stroke="none">
<path d="M4892 7589 c-427 -41 -828 -235 -1042 -505 -110 -138 -175 -272 -206
-426 l-18 -84 -64 -19 c-167 -48 -307 -196 -348 -370 -31 -132 -4 -296 66
-406 74 -114 223 -211 370 -240 36 -7 66 -13 67 -14 2 -1 72 -209 158 -463
197 -585 191 -569 223 -586 50 -26 247 -76 396 -101 470 -79 975 -35 1395 122
133 49 204 87 219 115 12 22 79 288 212 839 l62 257 46 12 c26 7 85 30 131 52
225 107 343 353 286 597 -45 188 -207 340 -398 372 l-74 12 -13 51 c-18 73
-82 208 -134 279 -53 75 -181 200 -262 254 -284 193 -691 289 -1072 252z m319
-170 c496 -50 874 -299 981 -644 10 -33 21 -95 25 -137 4 -56 11 -83 25 -98
40 -43 107 -35 130 16 11 23 16 25 47 19 106 -18 212 -107 251 -211 18 -48 21
-74 18 -134 -10 -182 -138 -315 -339 -351 -93 -16 -190 -1 -289 48 -91 44
-126 46 -154 9 -86 -113 -141 -154 -247 -187 -109 -34 -269 -20 -372 32 -21
11 -65 45 -98 75 -45 41 -66 54 -90 54 -43 0 -66 -15 -88 -58 -41 -81 -149
-155 -272 -187 -169 -45 -383 25 -443 144 -39 76 -97 91 -162 41 -142 -109
-214 -140 -342 -148 -94 -5 -150 7 -235 51 -153 80 -226 270 -167 432 28 76
121 172 193 199 l47 18 29 -31 c37 -40 87 -42 120 -7 21 22 23 33 22 123 -2
122 22 223 79 331 148 284 460 496 845 573 187 37 326 45 486 28z m837 -1678
c31 -11 78 -22 105 -26 26 -4 47 -12 47 -18 0 -11 -34 -152 -156 -654 -41
-166 -74 -308 -74 -316 0 -20 -140 -78 -295 -123 -252 -74 -573 -109 -860 -93
-185 9 -311 28 -480 71 l-130 33 -152 450 c-83 248 -151 456 -150 464 1 7 27
21 58 31 30 9 92 36 137 60 l82 44 30 -29 c16 -16 55 -45 86 -64 l57 -36 58
-302 c31 -166 62 -334 69 -373 15 -91 40 -122 95 -122 30 0 45 6 62 27 13 14
23 33 23 41 0 8 -27 162 -60 342 -33 181 -60 330 -60 333 0 2 44 5 98 6 63 1
121 8 167 22 39 11 73 17 76 13 3 -4 14 -169 23 -366 10 -197 22 -369 26 -382
19 -49 95 -60 135 -19 14 13 25 32 25 42 0 10 -9 202 -20 427 l-20 409 32 28
c31 26 34 27 57 12 64 -41 97 -57 164 -78 l72 -23 -2 -84 c-2 -45 -8 -206 -14
-356 -12 -267 -11 -274 8 -300 17 -23 28 -27 68 -27 82 0 83 3 95 330 6 154
13 312 16 352 l6 71 51 7 c130 18 269 80 342 154 22 22 41 40 43 40 1 1 28 -8
60 -18z"/>
<path d="M5473 6780 c-47 -28 -66 -72 -61 -138 4 -48 10 -60 41 -88 46 -43 96
-52 149 -28 142 64 102 274 -53 274 -26 0 -57 -8 -76 -20z"/>
<path d="M4401 6702 c-83 -45 -94 -183 -20 -236 89 -62 196 -27 228 76 38 119
-95 221 -208 160z"/>
<path d="M5218 6525 c-28 -15 -32 -26 -42 -98 -7 -53 -39 -93 -91 -112 -87
-34 -177 15 -191 104 -10 60 -37 91 -80 91 -50 0 -72 -15 -83 -57 -20 -71 19
-173 90 -237 121 -110 300 -113 421 -7 61 54 92 120 96 206 3 57 1 74 -15 93
-24 29 -70 36 -105 17z"/>
</g>
</svg>
