<?xml version="1.0" standalone="no"?>
<!DOCTYPE svg PUBLIC "-//W3C//DTD SVG 20010904//EN"
 "http://www.w3.org/TR/2001/REC-SVG-20010904/DTD/svg10.dtd">
<svg version="1.0" xmlns="http://www.w3.org/2000/svg"
 width="1024.000000pt" height="1024.000000pt" viewBox="0 0 1024.000000 1024.000000"
 preserveAspectRatio="xMidYMid meet">
<metadata>
Created by potrace 1.16, written by Peter Selinger 2001-2019
</metadata>
<g transform="translate(0.000000,1024.000000) scale(0.100000,-0.100000)"
fill="#000000" stroke="none">
<path d="M4776 6359 c-50 -12 -285 -130 -451 -226 -578 -336 -1140 -876 -1368
-1316 l-32 -62 3 -295 c1 -162 7 -442 12 -622 8 -297 11 -331 29 -367 21 -41
59 -73 106 -91 19 -7 410 -4 1309 10 704 11 1607 24 2006 30 412 6 748 15 778
21 29 6 65 21 81 35 62 51 60 32 70 731 7 446 7 651 0 677 -23 82 -25 84
-1159 766 -223 134 -441 264 -485 290 -44 26 -143 84 -220 130 -166 98 -434
248 -488 273 -47 22 -139 29 -191 16z m135 -261 c33 -18 59 -35 59 -39 0 -4
-23 -10 -52 -13 -125 -17 -280 -92 -379 -183 -154 -143 -237 -344 -227 -548
12 -230 132 -332 419 -361 87 -8 294 11 445 41 309 62 541 192 587 329 23 67
22 163 -3 232 -12 37 -15 54 -7 51 12 -4 457 -272 1002 -601 143 -87 267 -164
275 -172 12 -12 2 -14 -74 -14 -49 0 -231 -4 -405 -10 -348 -11 -1099 -30
-2366 -60 -456 -11 -868 -20 -915 -21 -67 -2 -84 0 -82 11 5 20 102 159 196
280 93 120 379 412 508 518 106 88 316 241 423 309 166 105 495 281 529 283 5
0 35 -15 67 -32z m268 -273 c186 -44 360 -219 378 -379 5 -40 3 -45 -33 -74
-147 -122 -546 -212 -808 -183 -166 19 -176 28 -176 160 0 130 49 243 150 341
126 124 314 176 489 135z m1893 -1655 c-2 -223 -5 -424 -8 -446 l-6 -42 -326
-6 c-180 -3 -619 -11 -977 -16 -1971 -32 -2550 -39 -2557 -32 -7 7 -33 841
-26 848 2 2 467 15 1034 29 566 14 1189 29 1384 35 195 5 560 14 810 20 250 6
484 12 520 14 36 1 85 2 110 2 l45 -1 -3 -405z"/>
<path d="M6207 5179 c-46 -27 -64 -131 -28 -163 24 -22 176 -76 214 -76 37 0
83 46 92 91 14 75 -23 108 -160 144 -68 17 -93 18 -118 4z"/>
<path d="M3789 5093 c-86 -44 -95 -51 -103 -84 -20 -81 54 -153 132 -128 58
18 132 58 158 84 38 38 33 98 -10 141 -20 20 -44 34 -59 34 -14 0 -67 -21
-118 -47z"/>
<path d="M6748 4374 c-53 -28 -59 -61 -27 -165 31 -102 74 -128 154 -95 38 16
55 42 55 83 0 41 -36 152 -56 174 -21 23 -87 25 -126 3z"/>
<path d="M3953 4265 c-33 -14 -34 -16 -63 -136 -24 -96 3 -145 87 -156 58 -8
89 23 114 112 32 117 24 151 -44 180 -44 18 -53 18 -94 0z"/>
<path d="M6013 4163 c-36 -7 -59 -47 -73 -128 -15 -85 -7 -114 37 -134 36 -17
98 -13 121 7 25 20 61 155 52 191 -10 44 -79 76 -137 64z"/>
<path d="M5414 4149 c-41 -12 -77 -52 -77 -86 0 -38 50 -162 77 -191 18 -21
28 -23 70 -19 40 3 55 11 78 36 15 17 28 40 28 51 0 32 -58 175 -78 192 -23
21 -61 27 -98 17z"/>
<path d="M3420 4013 c-24 -9 -52 -36 -61 -61 -11 -28 25 -178 48 -204 11 -13
31 -18 66 -18 43 0 53 4 83 34 38 38 37 28 8 151 -17 71 -49 105 -97 104 -18
0 -39 -3 -47 -6z"/>
</g>
</svg>
