<?xml version="1.0" standalone="no"?>
<!DOCTYPE svg PUBLIC "-//W3C//DTD SVG 20010904//EN"
 "http://www.w3.org/TR/2001/REC-SVG-20010904/DTD/svg10.dtd">
<svg version="1.0" xmlns="http://www.w3.org/2000/svg"
 width="1024.000000pt" height="1024.000000pt" viewBox="0 0 1024.000000 1024.000000"
 preserveAspectRatio="xMidYMid meet">
<metadata>
Created by potrace 1.16, written by Peter Selinger 2001-2019
</metadata>
<g transform="translate(0.000000,1024.000000) scale(0.100000,-0.100000)"
fill="#000000" stroke="none">
<path d="M4886 6624 c-367 -50 -749 -213 -1026 -439 -72 -59 -222 -208 -271
-270 -145 -183 -259 -405 -313 -609 l-21 -79 -55 -14 c-118 -30 -211 -111
-246 -215 -24 -73 -16 -176 20 -247 48 -94 166 -187 281 -221 39 -11 44 -17
98 -125 67 -132 199 -333 322 -491 l87 -111 159 -22 c830 -114 1661 -113 2451
4 88 13 164 27 168 32 4 4 43 58 87 118 114 155 213 314 289 462 35 70 70 131
77 135 7 4 47 23 89 43 59 28 93 53 137 100 79 85 105 151 99 255 -9 143 -89
242 -232 285 l-40 12 -17 89 c-25 128 -62 231 -129 363 -258 504 -805 861
-1453 946 -144 18 -422 18 -561 -1z m482 -134 c254 -27 473 -91 699 -205 344
-173 616 -450 748 -763 30 -71 85 -253 85 -282 0 -4 -29 -15 -65 -25 -55 -14
-130 -56 -201 -110 -9 -6 -27 4 -62 37 -182 171 -492 167 -682 -8 l-55 -52
-40 29 c-70 50 -157 74 -270 74 -137 0 -238 -36 -330 -117 l-35 -30 -39 35
c-157 142 -439 153 -613 24 l-27 -20 -60 56 c-99 92 -215 137 -351 137 -135 0
-263 -49 -357 -136 l-46 -43 -34 29 c-39 34 -120 78 -178 95 -35 11 -40 16
-38 40 7 94 126 351 227 491 222 310 562 548 946 665 253 76 532 105 778 79z
m-1165 -1385 c62 -22 149 -102 177 -162 45 -98 84 -99 178 -5 52 53 80 73 122
88 76 26 190 25 252 -3 65 -30 132 -94 152 -148 19 -48 39 -59 92 -53 23 2 35
13 56 53 36 67 80 110 147 142 48 24 68 28 141 28 112 -1 169 -26 244 -106 42
-46 60 -59 83 -59 38 0 52 13 94 83 52 88 127 137 241 157 128 22 277 -39 337
-138 61 -100 101 -117 149 -62 88 100 122 129 176 149 136 50 279 8 322 -95
20 -47 17 -81 -10 -139 -38 -82 -119 -139 -251 -177 -68 -19 -104 -23 -240
-23 -180 0 -253 12 -432 71 -191 63 -257 58 -409 -30 -122 -72 -202 -102 -307
-117 -112 -17 -232 -3 -351 40 -47 17 -125 45 -173 62 -105 38 -159 36 -298
-10 -200 -66 -294 -52 -534 78 -122 66 -214 63 -397 -14 -148 -62 -225 -79
-332 -73 -274 17 -445 233 -296 375 86 83 219 95 343 31 46 -23 76 -47 103
-82 68 -91 120 -94 174 -12 60 90 121 137 213 163 57 16 169 10 234 -12z m-39
-539 c139 -71 227 -96 331 -96 77 0 195 23 274 53 85 32 130 27 261 -25 183
-74 224 -83 395 -83 118 0 163 4 210 19 94 29 173 64 269 119 81 46 96 52 145
50 34 0 91 -13 145 -33 179 -63 400 -98 537 -84 38 4 69 3 69 -2 0 -26 -184
-318 -296 -470 l-53 -71 -103 -16 c-435 -68 -1121 -101 -1593 -78 -325 16
-648 48 -853 83 l-63 10 -67 87 c-82 106 -206 291 -260 388 -46 83 -51 76 57
88 61 7 158 38 281 89 128 54 158 51 314 -28z"/>
<path d="M4507 6154 c-67 -21 -131 -86 -151 -155 -31 -102 -14 -173 58 -244
56 -56 103 -75 182 -75 174 1 288 198 208 358 -30 61 -74 98 -140 118 -58 17
-95 17 -157 -2z m202 -130 c28 -35 26 -69 -4 -99 -30 -30 -64 -32 -99 -4 -33
26 -36 79 -6 109 30 30 83 27 109 -6z"/>
<path d="M5674 6156 c-99 -31 -166 -123 -167 -230 0 -102 48 -181 138 -222
164 -77 345 39 345 221 0 108 -63 197 -161 228 -60 20 -99 20 -155 3z m60
-126 c29 -28 25 -78 -8 -107 -30 -26 -44 -28 -80 -12 -36 17 -54 65 -35 98 29
51 82 60 123 21z"/>
<path d="M5035 5835 c-14 -13 -25 -32 -25 -42 0 -27 27 -61 61 -78 27 -14 29
-20 29 -73 0 -72 18 -102 64 -102 47 0 56 15 56 91 l0 68 39 22 c48 27 69 69
53 104 -20 44 -65 42 -132 -6 -12 -9 -24 -5 -54 15 -48 32 -60 32 -91 1z"/>
<path d="M3854 5670 c-43 -17 -65 -71 -48 -115 10 -25 62 -48 93 -40 43 11 61
34 61 80 0 61 -52 98 -106 75z"/>
<path d="M6387 5658 c-43 -33 -40 -100 5 -132 54 -38 128 4 128 73 0 10 -9 30
-21 45 -16 20 -29 26 -58 26 -20 0 -45 -6 -54 -12z"/>
</g>
</svg>
