<?xml version="1.0" standalone="no"?>
<!DOCTYPE svg PUBLIC "-//W3C//DTD SVG 20010904//EN"
 "http://www.w3.org/TR/2001/REC-SVG-20010904/DTD/svg10.dtd">
<svg version="1.0" xmlns="http://www.w3.org/2000/svg"
 width="1024.000000pt" height="1024.000000pt" viewBox="0 0 1024.000000 1024.000000"
 preserveAspectRatio="xMidYMid meet">
<metadata>
Created by potrace 1.16, written by Peter Selinger 2001-2019
</metadata>
<g transform="translate(0.000000,1024.000000) scale(0.100000,-0.100000)"
fill="#000000" stroke="none">
<path d="M6095 8989 c-265 -89 -579 -354 -722 -608 -15 -28 -30 -51 -34 -51
-3 0 -25 51 -48 113 -69 176 -247 525 -286 557 -26 22 -56 -2 -109 -83 -103
-161 -178 -316 -235 -489 -13 -38 -26 -68 -31 -68 -4 0 -16 12 -25 26 -30 46
-176 194 -249 252 -171 137 -394 244 -511 246 -58 1 -60 0 -63 -27 -3 -20 7
-39 37 -73 97 -110 173 -260 240 -467 39 -124 68 -253 59 -263 -3 -2 -31 8
-64 22 -169 75 -312 107 -484 108 -140 1 -176 -5 -185 -33 -9 -29 3 -46 48
-71 99 -56 190 -165 292 -350 93 -168 178 -308 259 -424 42 -59 76 -109 76
-109 0 -1 -60 -2 -133 -2 -152 -1 -254 -23 -372 -80 -124 -60 -232 -165 -252
-244 -12 -50 2 -55 168 -63 175 -7 271 -30 417 -98 145 -68 326 -205 414 -312
l37 -45 -106 -84 c-271 -215 -504 -550 -646 -929 -179 -480 -258 -1039 -228
-1621 12 -247 38 -475 72 -649 136 -698 453 -1190 917 -1424 430 -216 1003
-179 1459 96 312 188 548 453 723 813 86 176 133 303 176 474 78 315 99 506
99 911 0 347 -10 462 -61 765 -126 738 -469 1350 -925 1652 -46 31 -88 59 -92
63 -21 18 158 157 283 219 156 79 278 105 452 99 100 -4 138 -10 207 -33 99
-34 117 -29 114 33 -3 78 -88 213 -197 312 -123 112 -292 184 -479 205 l-57 6
80 92 c113 128 218 287 360 543 160 287 213 357 325 429 56 36 69 61 41 84
-37 31 -273 31 -416 0 -135 -29 -326 -106 -444 -178 -37 -23 -71 -40 -74 -36
-8 8 33 189 65 284 48 146 136 308 218 403 41 48 75 93 75 100 0 46 -62 49
-185 7z m-164 -286 c-85 -170 -161 -452 -161 -596 0 -48 -2 -50 -87 -136 -49
-48 -113 -123 -143 -165 l-55 -77 -13 73 c-7 40 -26 132 -42 203 -17 72 -30
135 -30 142 0 7 22 50 48 96 103 179 252 345 420 472 48 35 90 65 95 65 4 0
-10 -35 -32 -77z m-879 -70 c158 -325 247 -606 305 -958 22 -137 25 -533 5
-665 -17 -112 -58 -279 -88 -360 l-25 -65 -165 -1 c-158 0 -165 1 -169 20 -3
12 -21 95 -40 186 -43 196 -99 409 -155 580 -36 111 -41 139 -47 255 -13 293
51 619 182 917 48 108 112 228 123 228 4 0 38 -62 74 -137z m-908 -13 c146
-98 300 -243 405 -382 l40 -54 -19 -116 c-10 -63 -22 -165 -26 -226 l-7 -111
-77 72 c-42 40 -99 88 -128 107 -46 31 -52 40 -58 80 -31 218 -86 411 -164
578 -27 56 -46 102 -44 102 3 0 38 -22 78 -50z m2415 -349 c-62 -85 -89 -129
-177 -287 -190 -344 -287 -479 -473 -659 -97 -93 -135 -122 -195 -151 -49 -23
-99 -58 -143 -100 -38 -35 -71 -64 -73 -64 -3 0 -1 26 4 58 4 31 7 154 7 273
l-2 216 71 104 c186 274 454 479 753 578 73 24 181 49 218 50 21 1 22 -1 10
-18z m-2672 -276 c266 -89 489 -244 626 -438 41 -57 56 -94 103 -245 63 -204
114 -386 114 -407 0 -9 -28 8 -71 44 -73 62 -206 136 -295 165 -42 14 -63 30
-115 89 -148 166 -243 304 -374 542 -43 77 -98 169 -124 204 -72 100 -71 95
-15 87 27 -4 95 -23 151 -41z m2307 -892 c75 -18 170 -61 233 -104 52 -36 133
-108 133 -118 0 -3 -64 -6 -143 -6 -84 0 -165 -6 -197 -13 -228 -56 -414 -158
-568 -314 l-62 -64 -110 36 c-60 19 -110 39 -110 43 0 17 146 267 196 334 145
194 377 270 628 206z m-1961 -66 c236 -68 430 -207 540 -389 39 -65 45 -86 25
-92 -109 -33 -197 -65 -261 -94 l-77 -35 -42 49 c-145 170 -339 310 -533 387
-106 42 -242 77 -302 77 -24 0 -43 4 -43 8 0 12 144 78 210 96 87 24 97 25
250 21 119 -2 161 -7 233 -28z m1095 -622 c39 -9 72 -20 72 -25 0 -13 -239
-132 -250 -125 -12 8 -130 163 -130 172 0 11 236 -5 308 -22z m-363 -98 c39
-56 71 -106 73 -112 1 -5 -66 -48 -150 -94 -142 -78 -421 -243 -495 -291 l-32
-21 -27 43 c-15 24 -47 84 -70 134 l-42 92 86 70 c155 124 292 201 451 253
130 43 125 44 206 -74z m695 -37 c45 -27 99 -62 119 -77 62 -47 191 -164 191
-172 0 -11 -200 -225 -272 -290 l-56 -51 -130 142 c-150 165 -282 318 -282
327 0 11 304 170 326 171 11 0 58 -22 104 -50z m-499 -222 c35 -45 127 -149
292 -331 53 -59 97 -112 97 -118 0 -19 -703 -559 -727 -559 -18 1 -231 323
-352 533 -59 102 -61 109 -44 122 76 56 661 394 684 394 9 1 31 -18 50 -41z
m-962 -207 c68 -134 70 -117 -24 -180 -93 -63 -310 -228 -361 -275 -29 -25
-54 -46 -57 -46 -13 0 88 210 151 315 68 114 212 305 229 305 2 0 30 -53 62
-119z m1919 10 c122 -162 218 -335 303 -545 l48 -119 -57 -77 c-31 -42 -69
-91 -83 -109 l-25 -32 -165 176 c-90 98 -221 238 -290 314 l-127 136 129 130
c70 72 141 147 156 167 15 21 33 37 40 38 6 0 38 -36 71 -79z m-1719 -384 c46
-78 132 -213 190 -300 150 -224 141 -205 111 -227 -84 -62 -344 -278 -452
-376 -69 -63 -131 -114 -136 -114 -30 0 -268 360 -383 578 l-44 84 85 80 c134
127 506 417 535 418 6 0 48 -64 94 -143z m1338 -58 c49 -53 177 -191 286 -307
108 -116 197 -214 197 -219 0 -19 -243 -248 -619 -583 l-84 -75 -121 126
c-186 192 -496 559 -496 587 0 6 26 30 58 54 182 134 490 369 572 438 52 43
101 78 107 77 7 -1 52 -45 100 -98z m807 -489 c28 -105 79 -371 72 -377 -3 -3
-13 12 -24 34 -11 21 -63 98 -116 171 l-96 133 45 55 c25 30 53 66 62 80 21
32 24 27 57 -96z m-2869 -32 c53 -103 169 -283 268 -418 l84 -114 -87 -101
c-122 -140 -238 -300 -307 -421 -32 -57 -60 -104 -63 -104 -3 0 -20 29 -39 64
l-34 65 6 203 c9 281 46 585 98 793 23 92 27 105 33 105 2 0 21 -33 41 -72z
m1145 -38 c40 -74 318 -399 499 -582 l116 -118 -202 -202 c-110 -112 -222
-228 -248 -258 -26 -30 -51 -59 -56 -64 -9 -11 -29 6 -253 213 -155 144 -404
400 -464 479 l-25 33 24 26 c76 81 567 492 591 493 4 0 12 -9 18 -20z m1556
-157 c94 -131 129 -187 204 -322 l63 -114 -40 -161 c-44 -176 -91 -309 -159
-456 -75 -159 -61 -153 -157 -67 -45 40 -164 139 -263 219 -236 192 -408 337
-412 348 -4 10 30 42 323 307 110 100 236 218 280 262 44 45 82 81 86 81 3 0
37 -44 75 -97z m-2220 -490 c95 -111 371 -387 524 -526 85 -78 155 -146 154
-152 -1 -6 -37 -56 -81 -111 -154 -193 -277 -369 -398 -569 -36 -60 -70 -113
-74 -118 -12 -12 -201 202 -333 378 -102 136 -162 227 -246 374 l-72 124 32
56 c66 118 104 179 172 276 60 86 101 138 236 296 14 16 28 29 31 29 3 0 27
-26 55 -57z m1500 -256 c72 -61 173 -146 225 -188 339 -276 429 -352 429 -362
0 -29 -239 -363 -366 -511 l-66 -77 -86 83 c-102 98 -234 208 -542 453 -124
98 -229 182 -234 186 -5 5 8 29 30 56 58 71 456 473 468 473 6 0 70 -51 142
-113z m995 -349 c-12 -148 -40 -350 -50 -360 -3 -4 -37 33 -75 83 l-69 91 65
132 c36 72 81 174 99 226 l34 95 3 -70 c2 -38 -1 -127 -7 -197z m-3045 -180
c93 -184 361 -542 556 -744 l60 -61 -32 -62 c-44 -89 -114 -262 -145 -363 -15
-49 -30 -88 -34 -88 -19 1 -151 205 -214 330 -117 232 -193 484 -243 802 l-25
158 21 40 c11 22 22 40 25 40 3 0 17 -24 31 -52z m1635 -212 c265 -213 473
-391 534 -455 l29 -31 -165 -163 c-90 -89 -268 -264 -395 -389 l-230 -228 -88
98 c-105 115 -218 233 -419 438 l-149 151 83 139 c129 218 308 471 437 622 48
56 56 61 72 50 10 -7 141 -112 291 -232z m1243 -16 c91 -128 89 -105 25 -300
-52 -159 -151 -366 -235 -492 -61 -92 -84 -115 -84 -85 0 27 -101 218 -164
310 -65 97 -66 99 -49 121 10 13 66 83 126 156 59 74 148 194 198 267 49 73
93 133 97 133 4 0 42 -50 86 -110z m-553 -628 c65 -95 112 -183 154 -286 l36
-90 -53 -54 c-146 -150 -353 -293 -530 -366 -91 -38 -257 -86 -295 -86 -15 0
-40 25 -88 85 l-65 86 70 77 c38 42 184 187 323 321 139 134 282 274 318 311
35 37 69 68 74 69 6 0 31 -29 56 -67z m-1385 -290 c126 -131 266 -279 311
-329 l83 -90 -73 -91 c-83 -105 -80 -104 -215 -72 -98 24 -223 74 -312 126
-62 35 -223 155 -234 173 -6 9 64 222 113 344 41 102 79 177 90 177 5 0 112
-107 237 -238z m508 -559 c20 -25 36 -50 36 -55 0 -4 -36 -8 -80 -8 -44 0 -80
2 -80 5 0 9 74 105 81 105 3 0 23 -21 43 -47z"/>
</g>
</svg>
