<?xml version="1.0" standalone="no"?>
<!DOCTYPE svg PUBLIC "-//W3C//DTD SVG 20010904//EN"
 "http://www.w3.org/TR/2001/REC-SVG-20010904/DTD/svg10.dtd">
<svg version="1.0" xmlns="http://www.w3.org/2000/svg"
 width="1024.000000pt" height="1024.000000pt" viewBox="0 0 1024.000000 1024.000000"
 preserveAspectRatio="xMidYMid meet">
<metadata>
Created by potrace 1.16, written by Peter Selinger 2001-2019
</metadata>
<g transform="translate(0.000000,1024.000000) scale(0.100000,-0.100000)"
fill="#000000" stroke="none">
<path d="M5163 8311 c-121 -5 -156 -9 -168 -22 -18 -17 -26 -53 -170 -769 -53
-261 -98 -476 -100 -478 -2 -2 -27 9 -57 25 -49 26 -61 28 -168 28 -104 0
-121 -3 -172 -27 -32 -15 -80 -47 -107 -73 l-50 -46 -21 21 c-12 12 -45 33
-74 46 -144 66 -315 39 -430 -66 -54 -50 -112 -159 -121 -228 -3 -26 -8 -59
-11 -73 l-5 -26 -162 -6 c-211 -7 -272 -25 -355 -102 -101 -93 -159 -239 -149
-375 13 -190 142 -266 552 -325 815 -116 2524 -92 3244 46 226 44 313 87 364
183 32 60 31 196 -2 288 -65 180 -191 261 -446 287 -60 6 -133 14 -161 17
l-51 5 -7 61 c-12 116 -84 221 -185 270 -93 46 -242 33 -331 -28 l-36 -24 -39
20 c-47 24 -112 26 -163 4 -34 -14 -38 -14 -47 2 -92 157 -192 218 -357 219
-73 0 -87 2 -83 15 2 8 20 85 39 170 57 252 135 572 140 578 3 2 102 -15 221
-38 203 -41 216 -43 233 -26 17 15 20 39 26 217 7 182 6 203 -10 220 -16 18
-32 19 -223 17 -113 -1 -274 -4 -358 -7z m491 -218 c-4 -71 -7 -129 -8 -129 0
-1 -86 16 -191 37 -218 44 -250 46 -264 22 -5 -10 -55 -216 -111 -458 -86
-370 -106 -442 -124 -455 -11 -8 -45 -38 -75 -67 -30 -29 -56 -52 -57 -50 -2
2 39 215 92 473 52 258 108 530 123 604 l27 135 174 5 c96 3 230 7 298 8 l122
2 -6 -127z m-348 -1056 c70 -36 130 -106 150 -176 9 -31 21 -62 26 -68 18 -22
55 -15 78 15 53 67 132 70 183 5 28 -35 66 -30 101 13 56 70 174 95 262 55 74
-34 134 -126 134 -207 l0 -29 -418 -2 c-229 -1 -561 -6 -737 -12 -405 -14
-1475 -15 -1475 -1 0 35 27 124 52 172 97 184 365 206 459 39 19 -35 28 -41
55 -41 28 0 36 6 62 54 56 99 149 151 268 150 114 -1 214 -70 252 -177 29 -80
82 -77 106 7 16 54 35 85 90 144 83 90 239 116 352 59z m1159 -508 c299 -26
400 -85 450 -263 34 -116 6 -205 -77 -247 -116 -59 -534 -117 -1128 -156 -329
-21 -1349 -25 -1670 -5 -584 36 -911 86 -1019 157 -79 53 -99 135 -61 256 25
83 69 151 120 188 76 55 97 56 653 53 279 -2 711 2 960 8 249 7 592 16 762 20
354 9 848 4 1010 -11z"/>
<path d="M6655 6254 c-121 -15 -583 -49 -795 -60 -141 -6 -180 -18 -180 -52 0
-10 6 -27 14 -37 13 -18 22 -18 247 -6 394 20 801 55 846 72 34 13 41 58 13
81 -12 10 -25 17 -29 17 -3 -1 -55 -7 -116 -15z"/>
<path d="M3257 6232 c-21 -22 -22 -55 -3 -71 46 -38 1398 -100 1916 -88 221 6
236 7 252 26 9 12 14 30 11 41 -10 38 -37 43 -212 36 -180 -7 -933 7 -1231 24
-277 16 -630 39 -676 45 -31 4 -44 2 -57 -13z"/>
<path d="M6827 5777 c-14 -9 -22 -48 -37 -167 -100 -783 -388 -2559 -500
-3085 -79 -369 -174 -516 -382 -593 -288 -107 -1154 -135 -1696 -56 -378 55
-503 158 -605 495 -123 404 -357 1810 -496 2971 -23 185 -44 324 -51 333 -18
22 -57 18 -74 -7 -12 -19 -13 -37 -5 -98 5 -41 22 -187 39 -325 129 -1070 361
-2455 484 -2892 106 -375 260 -507 671 -573 236 -38 359 -45 765 -45 390 1
510 7 738 41 412 61 579 204 678 584 88 337 375 2069 519 3129 34 249 35 264
19 282 -20 22 -43 24 -67 6z"/>
<path d="M3245 5736 c-22 -16 -26 20 56 -516 172 -1128 472 -2660 558 -2855
37 -83 116 -127 311 -171 407 -91 1166 -94 1580 -4 174 37 263 87 303 167 24
48 62 184 112 403 34 147 184 908 236 1195 22 121 55 301 74 400 39 204 47
246 144 800 93 534 88 489 60 509 -28 19 -40 20 -62 3 -13 -9 -24 -52 -42
-167 -71 -451 -341 -1911 -461 -2490 -107 -512 -138 -623 -187 -655 -77 -50
-245 -85 -529 -111 -229 -20 -779 -15 -983 10 -232 28 -406 77 -450 126 -31
34 -121 420 -245 1040 -142 711 -245 1313 -381 2230 -14 95 -44 122 -94 86z"/>
<path d="M4590 5489 c-412 -16 -760 -55 -1002 -110 -86 -20 -121 -40 -101 -60
6 -6 39 -3 94 10 180 43 501 82 829 101 233 14 792 14 1015 0 330 -20 717 -71
913 -121 65 -17 86 -19 95 -10 20 21 -16 38 -151 70 -246 59 -644 104 -1067
121 -267 11 -342 10 -625 -1z"/>
<path d="M5655 4886 c-44 -19 -72 -55 -86 -106 -24 -91 12 -190 89 -245 37
-26 53 -30 105 -30 107 0 157 56 157 172 0 71 -25 129 -71 167 -64 55 -132 69
-194 42z m98 -55 c30 -12 44 -46 27 -66 -29 -34 -135 1 -114 38 23 40 41 45
87 28z"/>
<path d="M4046 4746 c-78 -29 -146 -131 -146 -220 0 -78 46 -148 110 -167 76
-23 175 34 219 125 28 57 29 158 1 203 -37 61 -112 85 -184 59z m104 -76 c9
-17 6 -25 -14 -45 -53 -53 -129 -9 -79 47 23 25 79 24 93 -2z"/>
<path d="M5470 4205 c-7 -8 -17 -37 -21 -63 -53 -282 -397 -397 -669 -222 -86
55 -169 162 -185 238 -9 45 -44 61 -81 37 -23 -15 -26 -22 -20 -53 8 -53 59
-149 108 -206 90 -104 257 -185 413 -201 202 -19 409 93 495 269 42 85 54 181
24 203 -24 17 -49 17 -64 -2z"/>
</g>
</svg>
