<?xml version="1.0" encoding="UTF-8" standalone="no"?>
<!DOCTYPE svg PUBLIC "-//W3C//DTD SVG 1.1//EN" "http://www.w3.org/Graphics/SVG/1.1/DTD/svg11.dtd">
<svg width="100%" height="100%" viewBox="0 0 1024 1024" version="1.1" xmlns="http://www.w3.org/2000/svg" xmlns:xlink="http://www.w3.org/1999/xlink" xml:space="preserve" xmlns:serif="http://www.serif.com/" style="fill-rule:evenodd;clip-rule:evenodd;stroke-linejoin:round;stroke-miterlimit:2;">
    <g transform="matrix(0.1,0,0,-0.1,0,1024)">
        <path d="M6150,6479C6103,6474 5973,6454 5860,6435C5102,6307 4771,6295 4105,6371C3749,6412 3531,6405 3360,6350C3123,6272 2951,6069 2950,5864L2950,5822L2846,5827C2662,5837 2541,5797 2426,5689C2265,5539 2225,5298 2326,5097C2364,5023 2471,4921 2558,4877C2663,4825 2757,4807 2900,4812L3017,4816L3028,4725C3049,4558 3111,4430 3227,4314C3344,4197 3481,4119 3690,4050C4254,3864 5195,3868 5975,4061C6350,4154 6708,4324 6909,4506C7075,4657 7170,4850 7174,5044L7175,5125L7246,5132C7590,5166 7848,5440 7814,5735C7785,5994 7571,6169 7282,6170C7186,6170 7089,6152 6967,6111L6880,6081L6869,6123C6825,6288 6666,6430 6480,6469C6402,6486 6250,6490 6150,6479ZM6425,6329C6506,6314 6581,6279 6632,6232C6669,6197 6719,6130 6707,6130C6705,6130 6668,6139 6624,6151C6564,6167 6514,6172 6420,6173C6287,6173 6244,6168 5915,6115C5312,6017 5084,6005 4080,6020C3847,6023 3727,6021 3656,6011C3436,5983 3299,5929 3200,5832C3146,5779 3137,5775 3117,5785C3098,5795 3095,5803 3098,5856C3101,5938 3153,6043 3221,6104C3383,6250 3585,6276 4105,6221C4791,6147 5103,6158 5835,6281C6197,6342 6308,6351 6425,6329ZM6608,6005C6642,5995 6669,5984 6668,5980C6662,5965 6478,5838 6433,5818C6373,5792 6345,5797 6224,5857C6133,5902 6121,5905 6051,5905C5962,5905 5895,5878 5802,5806C5686,5716 5640,5710 5515,5766C5367,5833 5246,5824 5123,5738C4970,5631 4941,5628 4782,5704C4611,5786 4538,5787 4355,5710C4199,5644 4163,5646 4032,5733C3882,5834 3797,5836 3624,5745L3515,5688L3440,5693C3399,5695 3352,5703 3336,5709L3307,5721L3329,5744C3356,5773 3444,5813 3523,5834C3656,5869 3739,5874 4085,5869C5119,5856 5322,5867 5945,5970C6077,5992 6217,6014 6255,6019C6357,6033 6534,6026 6608,6005ZM7408,6006C7512,5978 7600,5906 7642,5815C7660,5776 7665,5747 7665,5685C7665,5616 7661,5596 7633,5537C7614,5497 7581,5450 7552,5422C7467,5339 7318,5280 7194,5280L7132,5280L7099,5338C7082,5369 7037,5425 7001,5461C6890,5572 6715,5640 6543,5640C6435,5640 6329,5624 5980,5555C5151,5391 4861,5372 4182,5441C3921,5467 3688,5463 3565,5431C3336,5371 3136,5208 3073,5029C3063,5002 3049,4978 3040,4974C3032,4970 2968,4965 2899,4963C2760,4957 2697,4969 2607,5018C2548,5049 2481,5122 2449,5187C2416,5255 2415,5402 2447,5472C2479,5543 2550,5613 2623,5646C2676,5670 2701,5675 2792,5678C2921,5683 2982,5671 3201,5598C3346,5549 3361,5546 3460,5546C3574,5545 3567,5543 3725,5629C3810,5676 3865,5670 3958,5608C4049,5546 4076,5533 4146,5521C4225,5506 4287,5519 4404,5571C4461,5596 4517,5614 4553,5617C4609,5623 4616,5621 4725,5565C4817,5518 4850,5507 4902,5503C4988,5496 5058,5517 5153,5579C5195,5607 5243,5636 5259,5645C5304,5668 5376,5664 5438,5635C5618,5551 5726,5561 5876,5676C6014,5782 6046,5785 6186,5709C6356,5618 6421,5626 6632,5767C6831,5900 6957,5960 7115,6001C7200,6022 7336,6025 7408,6006ZM6675,5475C6774,5449 6837,5414 6899,5353C7059,5192 7070,4966 6929,4755C6741,4474 6263,4249 5626,4140C5129,4056 4620,4041 4170,4099C3659,4165 3354,4315 3231,4561C3078,4866 3239,5186 3595,5285C3694,5313 3947,5316 4182,5291C4848,5222 5194,5243 5991,5406C6420,5493 6553,5506 6675,5475Z" style="fill-rule:nonzero;"/>
        <path d="M7126,5868C7104,5836 7106,5813 7134,5795C7184,5762 7238,5815 7206,5865C7185,5897 7146,5898 7126,5868Z" style="fill-rule:nonzero;"/>
        <path d="M7456,5824C7435,5803 7436,5764 7459,5713C7481,5665 7508,5648 7553,5652C7577,5654 7587,5661 7594,5682C7608,5722 7577,5794 7536,5820C7496,5844 7477,5845 7456,5824Z" style="fill-rule:nonzero;"/>
        <path d="M2861,5566C2823,5520 2886,5455 2930,5495C2952,5515 2956,5550 2938,5568C2921,5585 2875,5583 2861,5566Z" style="fill-rule:nonzero;"/>
        <path d="M7387,5530C7354,5504 7335,5448 7350,5420C7358,5405 7371,5400 7402,5400C7473,5400 7549,5497 7508,5538C7489,5557 7416,5553 7387,5530Z" style="fill-rule:nonzero;"/>
        <path d="M2553,5484C2495,5455 2465,5379 2494,5335C2513,5306 2530,5304 2571,5325C2632,5357 2665,5466 2621,5490C2596,5503 2591,5503 2553,5484Z" style="fill-rule:nonzero;"/>
        <path d="M2631,5256C2585,5208 2596,5106 2648,5093C2716,5076 2754,5182 2706,5255C2685,5286 2660,5287 2631,5256Z" style="fill-rule:nonzero;"/>
    </g>
</svg>
