<?xml version="1.0" standalone="no"?>
<!DOCTYPE svg PUBLIC "-//W3C//DTD SVG 20010904//EN"
 "http://www.w3.org/TR/2001/REC-SVG-20010904/DTD/svg10.dtd">
<svg version="1.0" xmlns="http://www.w3.org/2000/svg"
 width="1024.000000pt" height="1024.000000pt" viewBox="0 0 1024.000000 1024.000000"
 preserveAspectRatio="xMidYMid meet">
<metadata>
Created by potrace 1.16, written by Peter Selinger 2001-2019
</metadata>
<g transform="translate(0.000000,1024.000000) scale(0.100000,-0.100000)"
fill="#000000" stroke="none">
<path d="M5486 6900 c-117 -37 -130 -203 -23 -297 51 -44 121 -69 153 -54 39
18 29 53 -21 69 -111 36 -171 142 -109 191 51 40 117 23 182 -47 35 -38 46
-44 60 -36 28 18 26 58 -4 93 -56 67 -165 104 -238 81z"/>
<path d="M6741 6710 c-87 -87 -134 -156 -127 -185 10 -40 40 -30 87 28 23 28
65 75 92 103 36 38 48 58 45 75 -6 43 -41 35 -97 -21z"/>
<path d="M5995 6652 c-33 -16 -77 -47 -99 -68 -68 -68 -115 -194 -117 -313 0
-45 -2 -48 -93 -129 -220 -197 -351 -264 -600 -307 -112 -19 -174 -19 -317 1
-323 44 -581 1 -861 -143 -112 -58 -260 -163 -341 -241 -218 -210 -331 -516
-331 -892 1 -394 124 -715 368 -955 177 -175 368 -263 645 -297 227 -28 518
43 755 186 360 216 606 577 702 1030 23 106 27 156 33 401 l8 280 32 95 c55
160 158 331 291 481 45 52 54 58 72 48 11 -6 52 -13 91 -16 58 -4 85 -1 136
17 164 55 250 174 239 331 -7 94 -43 165 -119 232 -39 33 -68 70 -83 102 -30
65 -77 119 -134 152 -38 22 -61 28 -131 31 -79 3 -91 1 -146 -26z m236 -100
c46 -30 91 -98 104 -159 4 -22 16 -36 38 -47 43 -20 103 -83 122 -128 19 -47
19 -115 0 -161 -21 -51 -95 -111 -161 -132 -49 -15 -66 -16 -117 -7 -33 6 -68
19 -78 28 -9 8 -26 14 -35 12 -21 -4 -150 -150 -230 -260 -111 -154 -171 -278
-215 -443 -18 -69 -21 -105 -20 -264 2 -286 -22 -450 -96 -665 -143 -413 -459
-735 -843 -860 -143 -46 -244 -60 -398 -53 -137 5 -226 25 -350 76 -369 152
-615 580 -614 1066 1 360 103 631 313 830 164 156 365 268 594 331 122 34 313
42 480 20 225 -30 408 -13 603 56 107 37 126 47 229 114 72 47 298 243 320
276 4 7 8 51 8 98 1 93 25 163 78 226 65 77 186 98 268 46z"/>
<path d="M4359 5520 c-69 -9 -79 -15 -79 -45 0 -34 26 -45 80 -35 25 5 70 9
101 10 61 0 85 15 75 48 -10 30 -65 37 -177 22z"/>
<path d="M4040 5437 c-207 -91 -388 -277 -464 -477 -26 -71 -22 -100 14 -100
15 0 28 17 48 63 91 199 281 391 448 450 73 27 79 32 79 63 0 41 -33 42 -125
1z"/>
<path d="M4915 4710 c-58 -23 -92 -98 -74 -164 21 -78 100 -121 179 -97 109
32 127 197 29 255 -29 17 -100 20 -134 6z"/>
<path d="M3995 4599 c-114 -33 -130 -200 -24 -255 22 -11 47 -15 81 -12 142
14 173 209 42 264 -37 16 -55 16 -99 3z"/>
<path d="M5127 4375 c-85 -23 -124 -62 -134 -133 -4 -31 0 -44 22 -70 72 -85
270 -72 355 25 101 115 -56 230 -243 178z m158 -70 c63 -26 56 -62 -20 -96
-75 -35 -205 -19 -205 25 0 20 44 56 87 71 50 18 96 18 138 0z"/>
<path d="M4701 4321 c-12 -7 -12 -21 -1 -87 13 -85 4 -148 -26 -179 -34 -34
-83 37 -108 157 -12 60 -14 63 -41 63 -28 0 -29 -2 -41 -71 -16 -98 -47 -154
-86 -154 -29 0 -59 78 -65 170 -5 69 -8 79 -27 84 -37 10 -48 -19 -43 -114 7
-139 58 -220 138 -220 43 0 94 37 111 79 l10 26 16 -24 c52 -72 108 -96 167
-68 51 24 70 75 70 187 -1 126 -27 181 -74 151z"/>
<path d="M3782 4236 c-95 -31 -144 -84 -150 -163 -4 -49 -2 -55 30 -87 23 -23
54 -40 93 -51 106 -31 251 10 309 88 27 37 27 108 -1 145 -48 64 -189 98 -281
68z m185 -86 c45 -27 58 -55 39 -84 -23 -36 -84 -60 -161 -64 -61 -3 -75 -1
-105 20 -43 29 -50 61 -18 95 34 38 75 52 148 53 47 0 74 -5 97 -20z"/>
<path d="M6875 6638 c-11 -6 -55 -38 -98 -71 -67 -50 -78 -63 -75 -85 5 -48
38 -39 137 35 93 70 111 93 91 118 -15 18 -28 18 -55 3z"/>
<path d="M6692 5828 c-26 -26 -12 -47 53 -78 92 -44 131 -105 84 -131 -32 -17
-93 -5 -165 32 -53 26 -66 30 -79 19 -68 -56 128 -162 243 -130 109 29 125
161 29 234 -37 29 -114 65 -137 66 -9 0 -21 -5 -28 -12z"/>
</g>
</svg>
