<?xml version="1.0" standalone="no"?>
<!DOCTYPE svg PUBLIC "-//W3C//DTD SVG 20010904//EN"
 "http://www.w3.org/TR/2001/REC-SVG-20010904/DTD/svg10.dtd">
<svg version="1.0" xmlns="http://www.w3.org/2000/svg"
 width="1024.000000pt" height="1024.000000pt" viewBox="0 0 1024.000000 1024.000000"
 preserveAspectRatio="xMidYMid meet">
<metadata>
Created by potrace 1.16, written by Peter Selinger 2001-2019
</metadata>
<g transform="translate(0.000000,1024.000000) scale(0.100000,-0.100000)"
fill="#000000" stroke="none">
<path d="M5105 7210 c-322 -50 -633 -280 -747 -552 -17 -39 -37 -110 -46 -158
l-17 -88 -60 -44 c-120 -88 -176 -207 -183 -385 l-4 -113 -47 0 c-119 -1 -221
-106 -221 -229 0 -99 67 -191 159 -218 l57 -17 51 -135 c137 -363 193 -505
341 -856 154 -367 287 -675 378 -877 24 -54 44 -99 44 -102 0 -14 145 -334
158 -348 21 -25 75 -33 108 -16 31 15 40 37 263 618 224 584 631 1686 631
1708 0 5 20 12 45 15 89 13 170 75 195 152 7 20 10 66 8 101 -5 82 -42 137
-119 177 -45 24 -62 28 -106 24 l-53 -6 0 42 c-1 199 -151 414 -375 537 -131
72 -202 139 -246 233 -32 69 -34 77 -34 187 0 102 3 124 28 190 37 96 43 133
25 148 -19 16 -160 23 -233 12z m172 -64 c2 -2 -7 -37 -22 -78 -32 -89 -44
-233 -26 -321 30 -141 126 -265 261 -336 159 -84 280 -197 336 -316 56 -118
70 -235 33 -285 -23 -31 -20 -60 6 -60 9 0 32 12 52 27 28 22 46 27 89 27 60
0 94 -19 132 -74 47 -69 19 -185 -55 -231 l-38 -24 -1010 -3 c-705 -2 -1025 0
-1061 8 -110 23 -165 139 -114 240 29 56 73 84 135 85 43 0 57 -5 93 -34 35
-27 45 -31 57 -21 21 17 19 42 -4 62 -44 37 -41 230 5 343 33 82 117 175 174
191 l35 10 7 74 c26 262 201 492 483 632 85 43 154 66 248 84 65 12 172 12
184 0z m630 -1748 c-2 -7 -48 -136 -102 -285 l-98 -273 -696 0 c-383 0 -706 3
-717 6 -16 4 -31 31 -62 112 -137 358 -162 427 -162 439 0 11 171 13 921 13
733 0 920 -3 916 -12z m-1268 -661 c39 -70 314 -502 324 -508 5 -4 -53 -88
-129 -188 -136 -179 -138 -182 -151 -157 -13 25 -130 297 -203 471 -21 50 -67
161 -104 248 -36 87 -66 163 -66 168 0 5 66 9 153 9 l152 0 24 -43z m721 34
c0 -4 -22 -37 -48 -72 -26 -35 -104 -144 -172 -241 -68 -98 -129 -178 -134
-178 -6 0 -25 24 -42 53 -17 28 -86 139 -153 245 -66 106 -121 195 -121 197 0
3 151 5 335 5 184 0 335 -4 335 -9z m320 4 c0 -10 -337 -912 -348 -932 -6 -9
-50 44 -147 175 -76 104 -138 193 -138 196 1 4 90 133 198 287 l198 279 118 0
c66 0 119 -2 119 -5z m-526 -821 l147 -197 -14 -36 c-183 -469 -234 -594 -246
-599 -25 -9 -21 -18 -230 468 -35 80 -69 158 -76 173 -14 27 -11 31 83 155 53
70 115 151 137 180 21 28 42 52 46 52 4 0 73 -88 153 -196z"/>
<path d="M5408 5922 c-38 -5 -68 -46 -68 -92 0 -30 6 -44 31 -64 41 -35 83
-34 120 3 67 67 14 165 -83 153z"/>
<path d="M4507 5906 c-9 -7 -22 -26 -27 -42 -31 -92 82 -162 150 -94 29 29 27
100 -3 128 -27 25 -91 30 -120 8z"/>
<path d="M4853 5823 c-9 -23 16 -63 56 -90 47 -32 126 -32 171 0 39 27 65 69
57 91 -8 21 -46 21 -54 -1 -26 -75 -142 -80 -175 -8 -13 28 -45 33 -55 8z"/>
</g>
</svg>
