<?xml version="1.0" standalone="no"?>
<!DOCTYPE svg PUBLIC "-//W3C//DTD SVG 20010904//EN"
 "http://www.w3.org/TR/2001/REC-SVG-20010904/DTD/svg10.dtd">
<svg version="1.0" xmlns="http://www.w3.org/2000/svg"
 width="1024.000000pt" height="1024.000000pt" viewBox="0 0 1024.000000 1024.000000"
 preserveAspectRatio="xMidYMid meet">
<metadata>
Created by potrace 1.16, written by Peter Selinger 2001-2019
</metadata>
<g transform="translate(0.000000,1024.000000) scale(0.100000,-0.100000)"
fill="#000000" stroke="none">
<path d="M5830 7159 c-351 -51 -2114 -608 -2832 -894 -492 -196 -625 -277
-704 -430 -80 -153 -79 -285 2 -865 50 -356 161 -1019 179 -1070 56 -160 191
-227 636 -315 314 -62 411 -77 992 -150 541 -68 714 -92 1102 -155 511 -83
762 -115 1165 -149 337 -29 813 -54 896 -48 193 14 268 108 283 352 9 144 -5
1204 -18 1395 -11 165 -25 206 -162 488 -285 589 -637 1183 -884 1492 -141
177 -235 263 -336 309 -104 47 -195 59 -319 40z m232 -220 c68 -35 103 -65
187 -163 151 -178 290 -380 473 -687 205 -344 481 -872 564 -1079 l38 -95 7
-225 c4 -124 8 -292 8 -374 l1 -148 -27 7 c-56 13 -131 54 -240 132 -174 124
-262 152 -375 119 -51 -15 -80 -33 -202 -130 -50 -40 -117 -46 -175 -17 -23
12 -88 64 -144 117 -127 117 -196 155 -300 162 -77 5 -138 -12 -307 -84 -112
-47 -164 -35 -298 68 -198 152 -329 149 -489 -10 -112 -112 -141 -104 -306 80
-95 106 -151 138 -242 138 -74 0 -110 -11 -190 -60 -168 -101 -240 -94 -327
31 -81 115 -123 162 -173 193 -46 28 -57 31 -135 31 -97 0 -133 -15 -255 -104
-38 -29 -80 -54 -93 -58 -51 -13 -102 5 -193 66 -123 84 -174 103 -279 105
l-85 1 -22 150 c-74 511 -64 621 70 726 90 71 310 169 737 329 693 259 2213
734 2570 804 53 10 158 -3 202 -25z m-3421 -2189 c19 -5 77 -37 129 -70 112
-72 183 -100 254 -100 98 0 142 20 320 143 72 50 102 35 199 -103 63 -90 112
-134 182 -167 121 -55 235 -40 397 53 44 25 90 44 107 44 32 0 35 -3 175 -148
104 -107 162 -137 266 -137 97 0 150 25 247 117 64 60 76 68 112 68 31 0 51
-9 98 -45 165 -128 222 -154 333 -155 77 0 146 20 295 84 110 47 158 32 290
-92 139 -131 240 -182 359 -182 90 0 156 27 253 105 124 99 133 98 313 -30 52
-37 120 -79 150 -95 53 -26 164 -65 205 -72 19 -3 20 -13 25 -143 3 -77 3
-143 0 -147 -3 -4 -36 -3 -75 2 -77 10 -370 33 -625 50 -601 40 -1025 94
-1920 244 -723 121 -1672 313 -2055 416 -41 11 -77 20 -79 20 -6 0 -22 81 -42
218 -15 97 -15 115 -3 123 18 11 46 11 90 -1z m210 -609 c524 -128 1280 -276
2044 -401 803 -132 1255 -185 1915 -225 140 -9 313 -22 383 -30 71 -8 135 -15
143 -15 17 0 18 -31 3 -100 -18 -86 -12 -84 -259 -77 -580 18 -1070 65 -1685
162 -592 94 -816 126 -1290 185 -512 63 -711 94 -1034 161 -378 79 -397 90
-427 267 -8 48 -17 95 -20 105 -3 10 0 17 9 17 8 0 106 -22 218 -49z"/>
<path d="M5123 6505 c-39 -17 -53 -42 -53 -93 0 -75 70 -121 141 -92 78 33 77
161 -2 189 -40 14 -47 13 -86 -4z"/>
<path d="M4044 5956 c-92 -40 -83 -169 14 -195 84 -24 155 61 118 140 -25 54
-81 77 -132 55z"/>
<path d="M5834 5751 c-74 -32 -70 -159 5 -191 38 -15 92 -6 115 19 38 42 37
119 -3 155 -23 21 -87 30 -117 17z"/>
<path d="M3073 5635 c-17 -7 -36 -22 -42 -34 -14 -25 -14 -86 -1 -111 21 -39
8 -36 620 -150 1063 -197 1503 -266 2540 -399 265 -34 309 -37 337 -26 64 27
80 116 29 164 -22 20 -66 28 -487 82 -848 109 -1390 194 -2284 360 -148 28
-319 59 -380 70 -60 10 -144 26 -185 34 -41 9 -84 18 -95 20 -11 2 -34 -2 -52
-10z"/>
</g>
</svg>
