<?xml version="1.0" standalone="no"?>
<!DOCTYPE svg PUBLIC "-//W3C//DTD SVG 20010904//EN"
 "http://www.w3.org/TR/2001/REC-SVG-20010904/DTD/svg10.dtd">
<svg version="1.0" xmlns="http://www.w3.org/2000/svg"
 width="1024.000000pt" height="1024.000000pt" viewBox="0 0 1024.000000 1024.000000"
 preserveAspectRatio="xMidYMid meet">
<metadata>
Created by potrace 1.16, written by Peter Selinger 2001-2019
</metadata>
<g transform="translate(0.000000,1024.000000) scale(0.100000,-0.100000)"
fill="#000000" stroke="none">
<path d="M4172 7635 c-28 -36 -28 -60 3 -90 20 -21 34 -25 84 -25 296 0 689
-144 888 -325 38 -34 78 -67 91 -74 35 -18 78 -4 131 43 65 58 181 129 271
166 159 65 379 110 546 110 73 0 96 4 112 18 33 27 37 63 11 96 l-23 29 -150
-6 c-302 -12 -595 -105 -794 -252 l-64 -46 -31 26 c-68 56 -230 158 -310 195
-196 92 -408 146 -618 156 l-125 7 -22 -28z"/>
<path d="M3900 7638 c-666 -77 -1206 -535 -1305 -1106 -17 -97 -20 -288 -5
-379 15 -89 55 -223 91 -298 l30 -65 -25 -157 c-54 -332 -72 -606 -87 -1313
-10 -511 -5 -1101 12 -1320 15 -188 37 -220 175 -247 69 -13 325 -16 2054 -24
2518 -11 2644 -7 2694 89 50 96 77 702 78 1702 0 597 -8 838 -38 1091 l-16
137 51 63 c57 70 118 184 149 274 65 194 54 451 -27 655 -172 430 -647 756
-1187 816 -55 6 -64 4 -83 -15 -26 -26 -27 -75 -2 -100 11 -11 40 -22 68 -26
189 -24 365 -79 522 -161 595 -309 791 -940 427 -1377 -52 -63 -64 -84 -61
-105 14 -81 36 -359 46 -582 13 -287 6 -1414 -11 -1815 -10 -233 -26 -432 -36
-459 -7 -19 -44 -25 -214 -36 -203 -14 -629 -16 -2585 -8 -1315 6 -1726 11
-1780 20 l-69 13 -10 40 c-16 60 -14 1662 2 1950 19 345 35 495 88 821 l17
112 -41 79 c-148 284 -133 637 38 937 183 319 527 550 949 636 54 11 115 20
134 20 54 0 82 15 97 50 11 28 11 34 -7 58 -25 33 -53 40 -133 30z"/>
<path d="M3928 7230 c-255 -43 -509 -146 -686 -279 -134 -102 -230 -228 -279
-368 -25 -70 -27 -91 -27 -208 1 -159 25 -251 111 -423 l56 -112 -22 -353
c-12 -193 -28 -449 -36 -567 -78 -1136 -86 -1337 -64 -1551 13 -130 35 -184
84 -204 47 -20 246 -42 493 -55 290 -14 2194 -13 2226 1 48 22 54 104 9 125
-10 4 -556 11 -1213 15 -1099 6 -1328 11 -1427 34 -18 4 -23 15 -30 72 -20
162 -7 512 45 1283 29 421 59 871 67 1000 l15 235 -64 125 c-153 298 -149 507
12 713 147 187 494 347 842 388 125 14 336 7 435 -14 250 -55 467 -165 653
-332 96 -86 120 -86 213 0 164 152 388 258 634 301 132 22 357 23 490 0 175
-30 381 -110 525 -205 77 -50 192 -162 237 -229 84 -127 107 -278 62 -410 -26
-78 -99 -189 -173 -264 l-56 -57 0 -63 c0 -64 10 -158 51 -478 22 -171 22
-183 10 -545 -19 -581 -68 -1423 -87 -1501 -5 -20 -13 -21 -487 -33 -265 -6
-495 -14 -512 -18 -63 -11 -85 -66 -46 -114 19 -23 23 -24 158 -21 327 6 852
22 902 28 70 8 104 39 120 113 14 65 35 334 61 771 49 840 50 1161 7 1480 -43
316 -43 314 -9 347 175 170 259 405 217 608 -99 481 -769 828 -1429 740 -264
-35 -486 -121 -665 -256 -46 -35 -92 -70 -102 -77 -16 -12 -27 -7 -94 48 -206
168 -427 267 -709 315 -123 21 -379 19 -518 -5z"/>
<path d="M4045 5986 c-99 -46 -159 -145 -159 -261 1 -85 17 -127 76 -191 130
-142 359 -113 453 57 27 48 30 63 30 139 0 76 -3 91 -30 139 -31 56 -88 106
-148 128 -57 21 -166 16 -222 -11z m204 -145 c16 -12 37 -41 47 -66 22 -59 8
-110 -41 -154 -29 -25 -44 -31 -83 -31 -92 0 -148 62 -140 152 11 107 129 161
217 99z"/>
<path d="M5950 6001 c-86 -27 -161 -101 -186 -187 -41 -141 18 -279 144 -341
119 -58 271 -26 347 75 147 192 20 464 -215 461 -36 0 -76 -4 -90 -8z m146
-147 c66 -31 96 -121 63 -189 -8 -16 -30 -40 -49 -53 -29 -20 -44 -23 -88 -20
-90 8 -145 83 -122 166 25 93 112 136 196 96z"/>
<path d="M5435 5490 c-17 -19 -18 -27 -7 -93 18 -108 -9 -188 -73 -223 -68
-36 -164 7 -180 81 -3 14 -7 36 -10 50 -7 33 -48 59 -79 51 -36 -9 -53 -31
-61 -78 -10 -60 -30 -95 -65 -113 -67 -35 -144 -6 -181 67 -19 37 -21 53 -16
129 6 98 -4 119 -59 119 -48 0 -71 -24 -84 -86 -24 -112 13 -236 91 -309 63
-59 108 -78 189 -78 68 0 106 13 168 60 30 22 35 23 50 10 32 -28 103 -58 151
-64 195 -23 344 176 302 401 -6 33 -18 68 -28 78 -23 25 -84 24 -108 -2z"/>
<path d="M3312 3898 c-7 -7 -12 -24 -12 -38 0 -14 5 -31 12 -38 7 -7 24 -12
38 -12 14 0 31 5 38 12 7 7 12 24 12 38 0 14 -5 31 -12 38 -7 7 -24 12 -38 12
-14 0 -31 -5 -38 -12z"/>
<path d="M3468 3755 c-64 -35 -54 -141 15 -164 66 -22 134 32 123 99 -10 67
-77 98 -138 65z"/>
<path d="M3690 3550 c-43 -43 -13 -130 44 -130 38 0 56 10 72 41 38 75 -57
148 -116 89z"/>
</g>
</svg>
