<?xml version="1.0" standalone="no"?>
<!DOCTYPE svg PUBLIC "-//W3C//DTD SVG 20010904//EN"
 "http://www.w3.org/TR/2001/REC-SVG-20010904/DTD/svg10.dtd">
<svg version="1.0" xmlns="http://www.w3.org/2000/svg"
 width="1024.000000pt" height="1024.000000pt" viewBox="0 0 1024.000000 1024.000000"
 preserveAspectRatio="xMidYMid meet">
<metadata>
Created by potrace 1.16, written by Peter Selinger 2001-2019
</metadata>
<g transform="translate(0.000000,1024.000000) scale(0.100000,-0.100000)"
fill="#000000" stroke="none">
<path d="M4750 7219 c-630 -81 -1167 -326 -1546 -704 -281 -281 -419 -546
-468 -904 -27 -189 -22 -228 33 -251 l30 -12 -104 -208 c-59 -118 -106 -228
-110 -252 -14 -95 43 -168 131 -168 l44 0 -8 -32 c-4 -18 -6 -64 -6 -103 2
-114 55 -205 153 -263 43 -25 54 -27 161 -27 63 0 121 -4 128 -8 6 -5 19 -21
27 -37 15 -30 38 -120 32 -127 -2 -2 -85 6 -183 18 -235 27 -248 27 -273 5
-19 -17 -21 -30 -21 -125 0 -345 119 -607 338 -749 112 -73 287 -126 577 -176
710 -122 1630 -145 2430 -60 494 52 835 128 994 220 67 40 168 139 216 214 97
150 139 308 140 524 0 192 15 183 -255 151 -120 -15 -208 -21 -213 -16 -14 14
21 120 48 147 23 23 28 24 113 18 152 -11 241 37 303 163 27 54 33 77 33 137
1 39 -2 83 -7 99 -7 26 -6 27 28 27 63 0 104 24 127 76 30 69 16 116 -100 349
l-100 200 28 12 c16 7 34 23 41 35 24 45 -18 342 -71 500 -211 630 -927 1153
-1785 1303 -285 49 -637 59 -905 24z m721 -144 c812 -101 1484 -515 1769
-1090 66 -132 114 -297 126 -429 l7 -76 -139 5 c-1002 39 -2392 48 -3454 22
-371 -10 -728 -18 -794 -20 l-119 -2 7 72 c24 292 163 575 405 826 506 525
1359 794 2192 692z m1169 -1719 c294 -9 564 -16 600 -16 l65 0 24 -56 c27 -61
27 -62 -36 -90 -47 -21 -103 -17 -187 11 -93 31 -110 31 -174 -1 -39 -19 -63
-41 -91 -83 -79 -115 -140 -152 -262 -159 -122 -6 -165 18 -277 157 -50 62
-102 85 -192 86 -57 0 -88 -6 -129 -24 -75 -32 -150 -26 -251 19 -139 62 -250
39 -323 -68 -89 -129 -172 -182 -287 -182 -115 0 -195 51 -300 192 -55 74
-123 110 -209 110 -50 0 -73 -7 -140 -41 -129 -66 -150 -68 -281 -24 -105 35
-112 36 -164 24 -70 -16 -120 -50 -187 -131 -75 -89 -136 -120 -238 -120 -124
0 -184 37 -265 162 -63 96 -138 118 -267 76 -65 -21 -69 -21 -111 -5 -75 30
-74 28 -47 91 l24 56 74 0 c41 0 318 7 615 15 298 8 611 17 696 19 342 7 1818
-4 2320 -18z m-1963 -262 c12 -8 40 -40 62 -73 147 -217 426 -275 631 -133 30
22 70 59 88 83 106 143 112 146 238 93 121 -50 191 -55 299 -20 44 14 93 26
108 26 41 0 82 -25 106 -64 62 -99 192 -175 319 -183 174 -12 316 56 413 198
23 35 49 61 63 65 14 3 53 -5 96 -20 39 -14 91 -26 115 -26 47 0 170 34 180
50 14 23 29 5 75 -92 56 -116 64 -162 28 -153 -87 20 -175 35 -205 35 -20 0
-90 -11 -157 -24 -196 -40 -383 -63 -701 -86 -465 -34 -1264 -47 -1865 -31
-761 20 -1094 46 -1455 113 l-170 31 -107 -17 c-58 -10 -111 -15 -117 -12 -7
5 -4 24 9 56 25 63 89 190 95 190 3 0 16 -7 28 -15 44 -29 139 -46 195 -35 29
5 61 14 72 20 29 16 75 12 92 -7 9 -10 25 -36 36 -59 55 -108 203 -184 359
-184 130 0 244 53 320 147 96 119 115 125 247 83 133 -43 196 -39 324 22 110
52 129 55 179 22z m-1522 -384 c479 -79 945 -104 1950 -105 1050 0 1496 25
2004 111 223 38 222 38 248 -23 32 -78 6 -194 -56 -246 -46 -38 -72 -42 -170
-24 l-86 16 -80 -40 c-103 -50 -160 -52 -268 -9 -42 17 -83 30 -93 30 -10 0
-47 -18 -83 -39 -90 -53 -130 -64 -216 -59 -61 4 -83 11 -147 46 -86 48 -118
51 -169 19 -119 -72 -148 -87 -191 -98 -76 -18 -148 -4 -244 47 -111 58 -139
58 -229 -1 -150 -99 -270 -98 -417 2 -88 60 -112 60 -230 0 -154 -79 -239 -74
-380 19 -102 67 -121 68 -228 12 -64 -33 -94 -43 -144 -46 -76 -5 -119 7 -205
59 -36 22 -73 39 -83 39 -9 0 -52 -14 -94 -31 -111 -44 -169 -43 -261 5 -80
42 -101 44 -194 26 -76 -15 -106 -10 -149 26 -66 56 -90 166 -55 251 19 45 32
55 65 48 14 -3 106 -18 205 -35z m677 -510 c35 -7 87 -9 118 -5 55 7 177 48
194 65 16 16 46 12 76 -10 16 -11 59 -35 97 -52 57 -27 83 -33 159 -36 103 -5
169 10 266 59 l58 29 65 -39 c91 -55 172 -75 282 -69 73 3 100 9 156 36 38 17
82 41 99 53 l30 22 72 -36 c91 -45 140 -58 226 -58 89 0 167 22 253 72 75 45
62 45 184 -5 120 -50 242 -44 378 18 l70 32 75 -24 c53 -16 92 -22 133 -20
l59 3 -6 -29 c-3 -16 -6 -43 -6 -61 0 -31 -2 -33 -47 -39 -27 -3 -174 -15
-328 -26 -830 -59 -1618 -66 -2440 -20 -213 13 -676 48 -680 52 -1 2 -5 29 -9
61 l-6 57 63 0 c40 0 89 9 132 23 l70 24 72 -33 c39 -18 100 -38 135 -44z
m-582 -225 c994 -100 2087 -117 3110 -50 322 22 673 53 913 81 l57 7 0 -29 c0
-67 -31 -227 -59 -302 -55 -153 -156 -268 -288 -329 -174 -81 -644 -159 -1223
-205 -254 -20 -1070 -17 -1330 5 -638 55 -1036 126 -1211 218 -160 85 -272
277 -298 512 -16 140 -19 131 37 123 26 -3 157 -17 292 -31z"/>
<path d="M5883 6836 c-22 -19 -28 -32 -28 -66 0 -34 6 -47 28 -66 49 -42 118
-28 142 29 39 93 -66 168 -142 103z"/>
<path d="M4935 6805 c-81 -80 45 -208 129 -130 20 18 26 34 26 65 0 56 -34 90
-90 90 -30 0 -47 -6 -65 -25z"/>
<path d="M4112 6730 c-28 -12 -55 -71 -46 -104 7 -30 41 -61 73 -69 35 -9 87
19 101 53 34 81 -44 153 -128 120z"/>
<path d="M5386 6624 c-19 -18 -21 -55 -4 -72 21 -21 66 -14 84 13 15 23 15 27
0 50 -19 29 -56 33 -80 9z"/>
<path d="M4725 6480 c-23 -25 -13 -67 20 -82 52 -23 100 46 59 86 -21 22 -57
20 -79 -4z"/>
<path d="M6317 6472 c-24 -27 -21 -59 8 -78 51 -33 104 21 71 71 -20 30 -56
33 -79 7z"/>
<path d="M3594 6375 c-30 -46 10 -94 63 -74 30 11 38 45 19 74 -22 33 -60 33
-82 0z"/>
<path d="M6753 6342 c-51 -8 -69 -79 -32 -126 39 -50 122 -26 135 39 10 54
-40 97 -103 87z"/>
<path d="M4374 6286 c-59 -26 -69 -115 -17 -156 14 -11 37 -20 50 -20 35 0 81
27 89 52 28 86 -44 159 -122 124z"/>
<path d="M5533 6236 c-22 -19 -28 -32 -28 -66 0 -84 95 -121 156 -61 16 16 29
39 29 50 0 30 -19 73 -38 87 -28 22 -88 17 -119 -10z"/>
<path d="M6285 6168 c-32 -17 -45 -39 -45 -79 0 -56 31 -89 83 -89 48 1 72 15
87 54 16 44 12 66 -19 97 -31 31 -70 37 -106 17z"/>
<path d="M3425 6105 c-36 -35 -35 -105 1 -134 58 -45 139 -12 151 61 5 32 1
41 -25 68 -39 39 -91 41 -127 5z"/>
</g>
</svg>
