<?xml version="1.0" standalone="no"?>
<!DOCTYPE svg PUBLIC "-//W3C//DTD SVG 20010904//EN"
 "http://www.w3.org/TR/2001/REC-SVG-20010904/DTD/svg10.dtd">
<svg version="1.0" xmlns="http://www.w3.org/2000/svg"
 width="1024.000000pt" height="1024.000000pt" viewBox="0 0 1024.000000 1024.000000"
 preserveAspectRatio="xMidYMid meet">
<metadata>
Created by potrace 1.16, written by Peter Selinger 2001-2019
</metadata>
<g transform="translate(0.000000,1024.000000) scale(0.100000,-0.100000)"
fill="#000000" stroke="none">
<path d="M4720 6430 c-520 -49 -935 -240 -1055 -484 -61 -124 -66 -210 -29
-501 71 -562 336 -1168 641 -1467 54 -54 64 -59 153 -82 291 -77 719 -77 1010
0 89 23 99 28 153 82 33 31 85 91 118 133 l58 77 63 7 c351 37 604 138 792
316 133 125 212 263 242 417 75 388 -179 708 -536 678 l-75 -7 0 134 0 133
-37 76 c-117 235 -486 418 -968 478 -119 15 -417 20 -530 10z m491 -204 c313
-39 598 -137 725 -249 50 -44 104 -113 104 -131 -1 -6 -18 -31 -40 -55 l-38
-44 -54 35 c-145 96 -369 173 -623 215 -172 28 -546 25 -720 -6 -247 -44 -472
-123 -600 -211 l-47 -32 -46 45 -46 46 37 55 c100 150 415 282 788 330 141 19
419 19 560 2z m11 -422 c111 -15 223 -40 323 -70 78 -24 226 -96 222 -108 -5
-14 -119 -60 -238 -96 -160 -48 -324 -71 -534 -77 -204 -6 -328 4 -500 39
-161 32 -395 113 -395 136 0 12 135 73 220 100 96 31 232 62 340 77 136 19
426 18 562 -1z m-1190 -369 c294 -147 766 -216 1162 -170 332 39 652 144 805
265 29 23 54 40 56 38 6 -6 -46 -281 -76 -401 -61 -243 -161 -504 -261 -681
-67 -119 -175 -278 -235 -343 l-48 -53 -117 -20 c-280 -49 -631 -41 -857 20
-33 9 -52 25 -106 93 -256 317 -437 749 -515 1227 -28 174 -30 168 41 115 34
-25 102 -65 151 -90z m2464 -49 c110 -51 175 -155 182 -291 5 -101 -10 -176
-54 -263 -102 -206 -332 -356 -635 -418 -44 -9 -83 -14 -86 -10 -3 3 8 29 24
58 26 45 36 54 69 62 207 46 283 76 379 149 117 89 178 198 178 322 0 114 -47
196 -138 241 -46 22 -64 25 -130 22 l-76 -3 7 50 c9 68 17 81 61 93 72 19 163
14 219 -12z m-162 -337 c73 -57 -13 -204 -158 -269 -34 -15 -74 -30 -90 -34
-35 -8 -35 -14 26 165 43 125 43 126 83 141 59 23 108 22 139 -3z"/>
<path d="M4360 4732 c-22 -23 -30 -40 -30 -67 0 -48 44 -95 90 -95 47 0 90 47
90 98 0 53 -25 82 -77 89 -37 5 -46 2 -73 -25z"/>
<path d="M5389 4731 c-21 -22 -29 -39 -29 -66 0 -48 44 -95 90 -95 45 0 90 47
90 93 0 49 -8 66 -41 82 -43 23 -77 18 -110 -14z"/>
<path d="M4704 4715 c-34 -52 22 -146 112 -191 61 -30 184 -27 249 6 84 43
143 158 103 198 -22 22 -80 13 -122 -18 -69 -52 -141 -52 -217 0 -56 38 -102
40 -125 5z"/>
</g>
</svg>
