<?xml version="1.0" standalone="no"?>
<!DOCTYPE svg PUBLIC "-//W3C//DTD SVG 20010904//EN"
 "http://www.w3.org/TR/2001/REC-SVG-20010904/DTD/svg10.dtd">
<svg version="1.0" xmlns="http://www.w3.org/2000/svg"
 width="2048.000000pt" height="2048.000000pt" viewBox="0 0 2048.000000 2048.000000"
 preserveAspectRatio="xMidYMid meet">
<metadata>
Created by potrace 1.16, written by Peter Selinger 2001-2019
</metadata>
<g transform="translate(0.000000,2048.000000) scale(0.100000,-0.100000)"
fill="#000000" stroke="none">
<path d="M13040 17304 c-431 -31 -831 -111 -1244 -248 -1069 -354 -1963 -1021
-2623 -1956 -429 -609 -750 -1364 -953 -2240 -84 -365 -102 -457 -235 -1170
-127 -677 -200 -921 -393 -1306 -279 -557 -694 -1006 -1282 -1389 -130 -85
-175 -127 -212 -198 -30 -58 -36 -165 -13 -242 34 -117 135 -290 262 -448 35
-43 63 -81 63 -86 0 -5 -42 -46 -93 -92 -51 -46 -255 -232 -453 -413 -197
-181 -403 -370 -457 -420 l-99 -90 -26 18 c-174 111 -438 180 -692 179 -162 0
-241 -13 -410 -69 -263 -88 -500 -269 -653 -500 -236 -357 -294 -758 -167
-1154 61 -189 190 -386 337 -516 194 -171 391 -266 660 -318 77 -15 117 -27
115 -35 -6 -30 21 -295 39 -385 99 -474 418 -841 859 -989 154 -51 231 -62
435 -62 176 0 198 2 300 28 262 68 468 188 653 381 191 201 330 467 391 751
36 168 44 277 38 510 l-5 222 111 110 c166 162 846 806 1053 996 l32 29 118
-119 c164 -165 324 -279 443 -318 39 -13 74 -16 126 -13 117 8 177 52 284 212
200 297 547 634 898 873 157 107 316 196 558 314 405 196 810 340 1475 524
798 221 1267 370 1692 539 1745 691 2941 1841 3431 3296 263 780 318 1585 161
2381 -203 1036 -750 1916 -1579 2541 -387 291 -800 505 -1280 661 -305 100
-537 148 -920 193 -124 14 -624 26 -745 18z m620 -559 c310 -28 511 -65 780
-147 478 -144 913 -370 1290 -669 151 -120 438 -410 557 -564 271 -351 466
-713 599 -1111 96 -288 140 -483 181 -814 25 -204 25 -703 -1 -910 -101 -818
-418 -1546 -954 -2189 -120 -144 -419 -445 -572 -576 -470 -403 -1093 -769
-1760 -1035 -428 -171 -744 -272 -1585 -505 -415 -115 -826 -245 -1085 -343
-522 -197 -1024 -466 -1397 -748 -233 -177 -501 -433 -660 -630 -41 -52 -78
-94 -83 -94 -4 0 -34 28 -66 63 -175 183 -289 398 -343 647 -31 141 -42 246
-44 435 -2 202 -12 238 -78 304 -67 68 -97 74 -364 82 -254 7 -378 22 -540 64
-322 84 -604 261 -775 489 l-68 90 36 25 c207 137 403 301 628 526 222 222
274 281 426 490 385 529 599 1088 758 1985 144 814 195 1050 319 1486 251 883
622 1581 1157 2175 601 669 1413 1146 2336 1373 212 53 465 91 718 109 129 10
436 5 590 -8z m-6692 -9114 c267 -133 583 -218 887 -239 l110 -7 2 -40 c11
-172 52 -390 103 -542 l30 -88 -58 -55 c-31 -30 -197 -188 -367 -351 -171
-162 -425 -403 -565 -535 -387 -362 -478 -453 -501 -501 -26 -53 -27 -148 -4
-273 37 -204 29 -444 -21 -619 -54 -190 -174 -383 -302 -486 -71 -58 -215
-128 -307 -150 -99 -24 -267 -22 -370 5 -214 55 -378 191 -477 396 -61 126
-79 207 -85 375 -4 121 -2 170 17 285 21 133 21 140 5 200 -27 101 -99 172
-199 198 -51 14 -71 14 -174 0 -262 -35 -467 30 -638 200 -89 89 -149 193
-181 316 -23 89 -23 273 1 359 119 437 562 673 977 521 87 -31 147 -66 249
-140 101 -74 143 -92 220 -93 89 -1 148 29 265 135 127 115 657 605 989 915
155 144 284 262 289 262 4 1 51 -21 105 -48z"/>
<path d="M13090 16244 c-14 -3 -77 -11 -140 -20 -584 -78 -1207 -349 -1753
-762 -315 -237 -707 -613 -770 -738 -79 -156 42 -321 207 -284 47 11 59 21
160 129 388 412 699 664 1099 890 424 240 832 364 1281 391 129 8 166 13 203
31 147 71 146 283 -2 350 -32 15 -63 18 -150 17 -60 0 -121 -2 -135 -4z"/>
<path d="M12932 15293 c-72 -35 -114 -133 -92 -214 18 -65 82 -125 144 -134
89 -14 170 25 205 98 44 91 16 199 -64 244 -49 28 -143 31 -193 6z"/>
<path d="M10054 14162 c-74 -35 -174 -180 -196 -284 -28 -137 72 -243 212
-224 59 8 108 43 163 114 97 125 120 218 77 307 -44 91 -162 131 -256 87z"/>
<path d="M15924 11462 c-19 -12 -59 -66 -108 -148 -267 -443 -668 -870 -1143
-1217 -298 -218 -516 -348 -908 -542 -514 -254 -1116 -473 -1742 -635 -117
-30 -156 -153 -72 -224 43 -36 83 -34 252 14 580 166 1221 402 1642 606 944
457 1674 1073 2154 1817 109 170 127 209 112 257 -16 53 -51 82 -108 87 -35 3
-56 -1 -79 -15z"/>
<path d="M8515 9895 c-72 -39 -105 -97 -105 -181 0 -112 72 -184 182 -184 68
0 115 24 152 77 59 85 41 207 -39 269 -47 35 -142 45 -190 19z"/>
<path d="M9268 7516 c-29 -15 -201 -191 -230 -235 -25 -37 -24 -111 3 -144 26
-34 87 -51 125 -37 27 10 193 178 242 244 42 56 22 140 -42 170 -42 20 -63 20
-98 2z"/>
<path d="M7197 6543 c-179 -168 -289 -275 -524 -505 -276 -271 -282 -280 -248
-351 18 -39 45 -60 87 -70 66 -17 79 -6 383 292 159 157 345 340 413 406 101
99 124 126 128 156 13 76 -45 139 -126 139 -38 0 -49 -6 -113 -67z"/>
<path d="M6143 5005 c-52 -22 -62 -55 -61 -196 1 -135 -14 -215 -58 -300 -55
-109 -144 -172 -244 -172 -77 -1 -121 21 -168 86 -46 61 -85 82 -139 74 -45
-8 -80 -40 -93 -87 -17 -64 13 -132 89 -204 101 -94 249 -133 396 -103 109 23
177 59 254 136 140 140 211 331 211 571 0 110 -15 151 -69 187 -39 26 -72 28
-118 8z"/>
</g>
</svg>
