<?xml version="1.0" standalone="no"?>
<!DOCTYPE svg PUBLIC "-//W3C//DTD SVG 20010904//EN"
 "http://www.w3.org/TR/2001/REC-SVG-20010904/DTD/svg10.dtd">
<svg version="1.0" xmlns="http://www.w3.org/2000/svg"
 width="1024.000000pt" height="1024.000000pt" viewBox="0 0 1024.000000 1024.000000"
 preserveAspectRatio="xMidYMid meet">
<metadata>
Created by potrace 1.16, written by Peter Selinger 2001-2019
</metadata>
<g transform="translate(0.000000,1024.000000) scale(0.100000,-0.100000)"
fill="#000000" stroke="none">
<path d="M5145 7539 c-539 -29 -1108 -175 -1553 -397 -246 -124 -414 -242
-582 -411 -135 -136 -209 -235 -280 -375 -41 -83 -52 -96 -135 -163 -270 -217
-415 -461 -456 -768 -13 -102 3 -509 26 -652 139 -861 984 -1498 2220 -1672
243 -35 418 -44 733 -38 387 6 647 39 989 123 1038 255 1771 939 1948 1817 99
495 31 967 -183 1272 -85 121 -245 261 -394 344 -65 37 -86 60 -169 187 -270
416 -934 694 -1749 734 -223 10 -211 11 -415 -1z m635 -195 c453 -52 860 -189
1120 -377 123 -90 225 -199 297 -317 61 -102 80 -120 207 -198 191 -117 330
-268 411 -444 32 -70 32 -70 5 -193 -32 -145 -35 -149 -148 -201 -180 -83
-245 -174 -293 -407 -15 -76 -38 -159 -50 -185 -33 -67 -103 -133 -188 -175
-81 -41 -114 -44 -231 -26 -128 20 -243 -18 -347 -115 -52 -48 -72 -76 -118
-171 -45 -92 -62 -118 -92 -136 -61 -38 -122 -36 -248 6 -103 35 -116 37 -205
33 -85 -4 -102 -8 -165 -40 -38 -20 -101 -64 -139 -98 -78 -70 -99 -80 -162
-80 -89 0 -157 56 -220 183 -82 162 -164 250 -289 311 -97 47 -163 60 -289 54
-100 -4 -111 -7 -188 -46 -46 -23 -114 -68 -153 -103 -153 -135 -237 -172
-385 -173 -149 -1 -212 36 -303 175 -51 79 -113 134 -192 170 -61 29 -80 33
-150 33 -65 0 -93 -6 -145 -28 -100 -42 -126 -49 -156 -42 -45 12 -91 66 -109
132 -55 191 -178 298 -345 299 -41 0 -92 -4 -112 -9 -33 -7 -40 -5 -64 19 -27
27 -27 28 -21 133 7 138 35 242 96 367 57 116 126 203 237 301 154 135 197
184 247 281 118 230 321 436 586 598 434 264 1019 437 1646 485 148 12 489 3
655 -16z m2130 -2105 c-26 -228 -89 -454 -180 -644 -99 -207 -300 -475 -466
-621 -449 -396 -960 -608 -1699 -705 -196 -26 -680 -37 -892 -20 -1066 86
-1882 517 -2206 1166 -67 134 -125 341 -142 503 -6 61 -5 63 14 57 12 -3 51 4
89 16 85 27 124 21 180 -26 31 -27 45 -50 63 -103 64 -197 152 -280 304 -290
67 -4 78 -2 155 33 158 71 238 47 339 -103 63 -94 104 -135 174 -176 57 -34
184 -66 259 -66 148 0 324 65 439 163 129 109 155 128 208 147 100 38 238 23
333 -36 59 -38 104 -91 149 -177 87 -168 153 -243 254 -288 96 -42 221 -42
306 2 21 10 73 49 116 85 43 37 96 75 118 85 62 29 137 24 236 -13 75 -28 96
-32 189 -32 96 -1 110 2 163 28 80 41 141 110 189 214 51 110 77 145 133 177
49 30 85 32 236 20 84 -7 105 -5 165 13 174 53 330 201 385 366 10 28 25 94
33 147 29 180 83 253 221 299 35 12 80 36 101 54 l39 34 3 -107 c2 -58 -2
-149 -8 -202z"/>
<path d="M5029 7041 c-36 -37 -38 -79 -6 -117 21 -24 33 -28 108 -34 100 -8
155 -33 195 -87 58 -79 75 -93 116 -93 75 0 110 69 71 143 -66 129 -223 217
-385 217 -64 0 -72 -3 -99 -29z"/>
<path d="M3905 6900 c-11 -4 -42 -31 -68 -59 -27 -28 -52 -51 -57 -51 -4 0
-15 -16 -25 -35 -22 -47 -6 -99 37 -121 45 -23 75 -10 161 70 68 65 77 77 77
109 0 64 -69 113 -125 87z"/>
<path d="M6442 6884 c-90 -24 -180 -83 -207 -135 -32 -61 8 -129 75 -129 29 0
47 9 83 41 49 42 90 59 145 59 63 0 103 73 71 132 -11 21 -67 48 -96 47 -10 0
-42 -7 -71 -15z"/>
<path d="M4710 6524 c-108 -21 -184 -69 -260 -164 -77 -96 -103 -111 -208
-121 -145 -13 -240 -60 -313 -151 -96 -122 -111 -287 -39 -434 88 -180 361
-324 725 -381 152 -24 467 -23 630 0 627 93 1091 371 1113 667 11 162 -78 268
-233 278 -88 5 -108 16 -170 97 -92 121 -188 170 -330 169 -97 0 -143 -12
-215 -58 -110 -70 -133 -79 -190 -80 -63 0 -95 14 -189 85 -35 27 -87 57 -117
68 -54 21 -159 33 -204 25z m182 -219 c25 -17 74 -49 108 -73 79 -53 124 -66
225 -66 89 0 131 15 239 83 158 99 249 82 362 -65 88 -115 139 -144 257 -144
44 0 62 -5 77 -20 25 -25 26 -72 1 -125 -21 -46 -112 -136 -187 -187 -257
-174 -758 -294 -1139 -273 -520 27 -861 221 -804 457 9 40 23 63 59 99 53 53
95 69 181 69 124 0 220 52 302 163 71 95 114 119 208 115 53 -3 75 -9 111 -33z"/>
<path d="M6923 6296 c-39 -34 -38 -90 3 -176 59 -123 147 -198 287 -245 100
-33 131 -32 168 4 21 22 29 39 29 66 0 52 -32 80 -109 93 -34 6 -77 20 -96 32
-56 35 -113 105 -126 155 -21 85 -98 120 -156 71z"/>
<path d="M3106 5927 c-16 -16 -25 -40 -30 -82 -13 -109 -67 -170 -179 -199
-77 -19 -97 -38 -97 -91 0 -83 70 -110 186 -71 156 52 265 195 268 354 1 58
-1 66 -27 88 -37 32 -90 32 -121 1z"/>
<path d="M3659 5449 c-24 -9 -39 -30 -53 -71 -10 -33 15 -78 62 -110 25 -18
62 -47 82 -65 52 -46 83 -56 125 -39 37 16 55 42 55 81 0 39 -15 61 -64 95
-24 16 -62 48 -83 70 -41 43 -81 56 -124 39z"/>
<path d="M6090 5264 c-30 -14 -73 -41 -96 -59 -97 -79 -171 -241 -162 -352 6
-67 30 -93 87 -93 55 0 81 32 91 112 14 113 75 195 178 238 59 25 72 42 72 95
0 26 -7 43 -26 60 -35 32 -74 32 -144 -1z"/>
</g>
</svg>
