<?xml version="1.0" standalone="no"?>
<!DOCTYPE svg PUBLIC "-//W3C//DTD SVG 20010904//EN"
 "http://www.w3.org/TR/2001/REC-SVG-20010904/DTD/svg10.dtd">
<svg version="1.0" xmlns="http://www.w3.org/2000/svg"
 width="2048.000000pt" height="2048.000000pt" viewBox="0 0 2048.000000 2048.000000"
 preserveAspectRatio="xMidYMid meet">
<metadata>
Created by potrace 1.16, written by Peter Selinger 2001-2019
</metadata>
<g transform="translate(0.000000,2048.000000) scale(0.100000,-0.100000)"
fill="#000000" stroke="none">
<path d="M13576 16810 c-492 -28 -971 -141 -1366 -323 -587 -270 -1216 -823
-1884 -1654 -32 -40 -62 -70 -67 -67 -5 2 -48 58 -95 122 -388 523 -837 951
-1279 1218 -475 286 -1007 451 -1645 510 -223 20 -697 15 -900 -11 -774 -96
-1460 -371 -1992 -797 -207 -166 -458 -426 -615 -637 -366 -489 -607 -1044
-702 -1613 -70 -416 -70 -938 0 -1423 52 -367 183 -872 368 -1416 253 -749
654 -1481 1260 -2304 1011 -1372 2417 -2871 3559 -3793 583 -471 1155 -803
1615 -937 380 -111 753 -124 1117 -37 475 113 842 353 1700 1111 792 700 1768
1728 2621 2761 1173 1420 1833 2527 2133 3578 139 486 195 852 203 1342 8 475
-34 863 -137 1265 -72 280 -272 823 -382 1038 -302 588 -866 1178 -1488 1555
-225 136 -500 264 -755 352 -362 124 -836 184 -1269 160z m519 -334 c522 -56
954 -212 1424 -515 757 -487 1322 -1216 1475 -1901 43 -196 57 -329 63 -610 8
-397 -23 -670 -122 -1070 -58 -236 -90 -340 -177 -575 -120 -322 -304 -725
-485 -1060 -266 -490 -715 -1156 -1238 -1835 -625 -812 -1344 -1657 -2215
-2603 -91 -99 -194 -212 -229 -251 -406 -450 -1041 -1093 -1231 -1245 -240
-193 -418 -281 -675 -336 -111 -24 -358 -24 -480 -1 -111 21 -275 68 -371 107
-110 43 -355 168 -500 254 -610 364 -1539 1146 -2562 2159 -1078 1067 -1926
2050 -2417 2802 -636 973 -932 1712 -1019 2544 -27 260 -29 292 -28 540 1 481
81 919 236 1299 171 417 411 788 711 1099 147 152 251 243 410 359 643 466
1530 710 2403 662 763 -42 1387 -255 1916 -653 355 -268 801 -755 1039 -1135
100 -162 149 -198 248 -189 75 8 116 42 250 215 434 558 799 943 1180 1245
522 414 1084 636 1764 697 149 13 491 12 630 -3z m3180 -4278 c-26 -273 -54
-455 -106 -692 -147 -667 -446 -1354 -904 -2082 -281 -446 -660 -969 -1059
-1462 -100 -123 -194 -240 -211 -260 -145 -183 -479 -570 -794 -923 -507 -567
-1212 -1277 -1721 -1734 -332 -298 -550 -481 -757 -636 -187 -140 -298 -210
-458 -290 -273 -134 -469 -186 -740 -196 -349 -12 -628 55 -1020 247 -350 171
-666 378 -1065 696 -576 459 -1191 1041 -1880 1779 -261 280 -580 642 -580
660 0 2 7 2 15 -1 8 -4 15 -10 15 -14 0 -10 882 -868 1180 -1149 281 -265 916
-820 1135 -992 514 -404 862 -633 1214 -798 354 -165 646 -229 996 -218 187 6
301 27 470 87 305 109 619 356 1154 910 363 376 743 783 1051 1126 270 301
733 819 816 914 374 428 878 1039 1164 1410 57 74 134 173 170 220 76 97 198
259 257 341 560 769 817 1178 1108 1759 197 393 371 824 460 1135 57 203 65
225 81 225 12 0 14 -12 9 -62z"/>
<path d="M13501 15829 c-46 -5 -113 -16 -148 -24 -303 -70 -380 -303 -187
-558 228 -299 893 -1014 1052 -1130 141 -103 292 -107 433 -10 52 36 174 144
464 408 300 274 339 320 370 443 18 71 14 115 -18 201 -57 156 -400 392 -762
526 -119 44 -326 97 -461 119 -218 34 -547 45 -743 25z m573 -140 c203 -18
444 -73 613 -140 119 -47 338 -161 440 -229 162 -108 255 -230 239 -314 -12
-64 -81 -148 -253 -306 -547 -506 -579 -530 -675 -530 -64 1 -115 29 -216 120
-192 172 -663 684 -899 978 -111 138 -137 188 -131 254 8 79 64 123 195 154
131 31 421 36 687 13z"/>
<path d="M6670 15769 c-117 -13 -285 -43 -475 -86 -560 -125 -981 -289 -1154
-449 -77 -71 -105 -128 -109 -226 -4 -70 -1 -84 27 -145 27 -57 59 -95 220
-257 103 -105 238 -244 298 -309 201 -214 282 -262 428 -255 162 8 291 97 650
446 240 233 652 658 686 709 49 71 71 137 70 218 -1 166 -99 289 -268 336 -82
23 -255 31 -373 18z m315 -144 c125 -27 198 -103 198 -209 0 -96 -25 -128
-387 -499 -455 -467 -662 -653 -796 -716 -77 -36 -158 -36 -220 1 -66 39 -676
667 -700 720 -38 84 -20 150 62 222 173 151 635 316 1203 430 328 65 505 79
640 51z"/>
<path d="M8115 15347 c-112 -37 -160 -81 -594 -542 -217 -231 -508 -535 -646
-675 -272 -276 -306 -322 -320 -434 -9 -69 15 -163 58 -231 17 -27 137 -158
267 -291 289 -295 450 -468 645 -689 82 -93 174 -194 204 -223 102 -98 212
-131 326 -97 150 43 231 110 636 527 178 183 470 482 650 663 179 182 335 346
347 366 37 62 55 150 43 215 -18 94 -64 165 -200 306 -144 149 -939 922 -1021
992 -30 26 -88 63 -128 83 -61 30 -85 37 -150 40 -46 2 -93 -2 -117 -10z m171
-132 c27 -8 77 -37 111 -63 62 -48 652 -614 958 -918 252 -251 290 -328 216
-447 -28 -45 -76 -89 -93 -85 -25 5 -581 579 -790 815 -214 239 -257 281 -333
321 -43 23 -62 27 -140 27 -142 0 -177 -23 -397 -264 -84 -91 -308 -323 -498
-516 -190 -192 -391 -399 -446 -459 -112 -121 -124 -125 -162 -57 -14 25 -22
56 -22 87 0 81 41 137 269 369 268 274 374 384 740 772 167 178 328 341 357
364 88 68 142 80 230 54z m12 -501 c54 -27 116 -91 352 -359 57 -66 238 -255
401 -420 163 -165 301 -310 308 -323 6 -12 8 -28 4 -36 -9 -15 -502 -523 -853
-879 -320 -325 -427 -407 -532 -407 -92 0 -117 22 -418 360 -85 96 -275 299
-422 453 -148 153 -268 284 -268 290 0 44 127 183 560 612 138 138 317 322
398 410 268 294 304 324 383 325 19 0 59 -12 87 -26z"/>
<path d="M12245 15163 c-75 -27 -137 -74 -275 -208 -160 -155 -467 -445 -640
-604 -213 -195 -328 -311 -360 -361 -69 -107 -74 -230 -14 -349 41 -81 112
-166 385 -457 211 -224 234 -250 541 -606 262 -304 338 -368 477 -404 98 -25
191 -5 287 60 21 14 189 176 374 359 184 183 421 413 527 511 267 246 300 297
290 439 -9 129 -39 176 -289 445 -226 243 -479 537 -765 887 -158 194 -202
238 -273 272 -73 35 -191 42 -265 16z m200 -137 c59 -28 94 -64 240 -246 128
-159 144 -178 311 -375 164 -192 292 -337 493 -555 164 -177 221 -260 221
-320 0 -59 -47 -147 -91 -171 -18 -9 -27 -4 -72 47 -29 31 -110 121 -182 198
-206 224 -340 380 -537 624 -270 335 -326 387 -447 413 -61 13 -145 -1 -216
-36 -89 -44 -213 -155 -602 -543 -210 -209 -393 -388 -408 -398 -24 -16 -27
-16 -46 2 -62 56 -75 148 -33 232 27 54 58 84 454 452 91 84 269 254 395 376
127 123 248 237 270 255 90 72 165 85 250 45z m-50 -532 c61 -29 114 -85 297
-312 222 -276 311 -380 519 -604 177 -191 279 -312 279 -332 0 -8 -48 -58
-107 -112 -60 -54 -265 -254 -458 -445 -371 -366 -400 -389 -486 -389 -113 1
-190 65 -483 400 -233 267 -463 522 -633 703 -54 58 -83 96 -83 111 0 13 13
41 29 62 40 54 696 704 804 797 144 124 240 160 322 121z"/>
<path d="M4425 14587 c-151 -50 -241 -162 -304 -372 -91 -311 -190 -1008 -208
-1470 -10 -266 17 -397 97 -469 73 -66 191 -80 290 -34 59 27 175 126 261 223
90 101 313 338 542 574 330 342 377 412 377 561 -1 164 -51 241 -379 574 -366
371 -426 416 -564 422 -42 2 -88 -2 -112 -9z m194 -149 c31 -15 124 -98 290
-262 387 -382 441 -453 441 -574 -1 -99 -50 -167 -340 -467 -106 -110 -301
-316 -432 -457 -132 -141 -256 -268 -276 -282 -100 -68 -188 -60 -228 21 -17
34 -19 62 -19 273 1 399 79 1019 175 1397 55 217 104 308 188 353 52 27 142
26 201 -2z"/>
<path d="M4336 13531 c-44 -48 -102 -623 -67 -665 19 -22 68 -21 80 3 9 16 59
494 64 607 3 66 -39 97 -77 55z"/>
<path d="M15842 14432 c-106 -38 -172 -95 -638 -551 -290 -285 -307 -308 -312
-446 -9 -190 72 -315 634 -990 297 -358 344 -400 476 -426 108 -22 220 36 273
141 57 113 85 248 109 530 65 759 -26 1421 -229 1657 -73 86 -207 122 -313 85z
m175 -141 c78 -41 164 -254 207 -511 56 -336 60 -887 10 -1255 -36 -264 -91
-375 -186 -375 -84 0 -143 53 -409 370 -349 415 -511 628 -575 755 -43 84 -46
94 -42 155 3 54 9 73 36 110 29 41 521 521 686 669 118 106 189 128 273 82z"/>
<path d="M10185 13372 c-27 -9 -72 -33 -100 -51 -119 -81 -1210 -1208 -1356
-1401 -136 -179 -152 -326 -53 -480 20 -30 145 -163 278 -295 283 -279 426
-428 737 -765 125 -135 258 -275 296 -311 138 -130 265 -155 421 -84 100 46
181 121 544 505 86 91 250 257 365 370 472 464 538 533 566 590 39 81 52 163
37 249 -24 146 -108 269 -372 548 -448 473 -626 663 -748 798 -198 220 -251
269 -327 307 -58 28 -80 33 -153 36 -62 2 -99 -3 -135 -16z m209 -132 c63 -24
110 -67 281 -259 148 -167 352 -385 689 -740 143 -150 284 -302 312 -338 121
-151 147 -271 85 -391 -23 -45 -157 -191 -222 -243 l-37 -29 -26 21 c-25 20
-180 188 -461 499 -470 521 -571 625 -650 665 -52 26 -71 30 -140 30 -113 0
-145 -21 -335 -219 -304 -318 -896 -906 -910 -906 -23 0 -184 170 -208 221
-14 30 -22 64 -22 100 0 93 34 141 340 474 213 232 1008 1034 1070 1079 82 60
144 69 234 36z m-69 -947 c49 -32 108 -92 339 -343 464 -504 654 -716 689
-768 l38 -56 -229 -230 c-126 -127 -307 -314 -402 -416 -293 -312 -404 -400
-504 -400 -99 0 -129 26 -577 510 -135 146 -323 345 -418 442 -143 146 -171
181 -166 198 4 12 158 173 343 358 186 186 418 422 518 525 103 106 195 193
215 202 45 20 102 12 154 -22z"/>
<path d="M10720 12480 c-6 -12 -8 -30 -5 -41 9 -27 132 -172 233 -276 83 -84
107 -97 136 -67 19 18 20 37 4 67 -11 21 -249 283 -290 320 -27 23 -65 22 -78
-3z"/>
<path d="M9710 12456 c-14 -8 -116 -109 -227 -225 -207 -215 -225 -240 -188
-271 12 -10 22 -10 47 0 44 17 419 394 438 439 13 32 12 35 -9 52 -27 22 -28
22 -61 5z"/>
<path d="M5953 13020 c-150 -31 -210 -84 -668 -590 -138 -151 -342 -371 -455
-489 -328 -341 -374 -399 -411 -509 -31 -92 -24 -239 15 -335 61 -149 267
-488 529 -868 263 -382 336 -467 440 -515 53 -24 68 -26 147 -22 79 4 98 8
172 45 50 25 121 74 178 121 94 79 520 510 880 892 101 107 261 274 355 370
208 212 238 262 239 388 0 148 -56 248 -271 478 -188 202 -399 442 -578 659
-191 231 -265 304 -346 343 -71 35 -156 47 -226 32z m173 -158 c54 -28 152
-132 360 -382 99 -118 249 -290 334 -383 309 -337 337 -369 370 -423 47 -77
64 -147 50 -203 -13 -54 -67 -131 -91 -131 -9 0 -43 33 -75 72 -33 40 -140
167 -239 283 -245 286 -322 379 -379 455 -74 99 -155 179 -211 208 -41 21 -64
26 -125 26 -133 1 -154 -13 -455 -322 -554 -567 -1010 -1022 -1026 -1022 -23
0 -74 83 -94 154 -25 86 -16 167 26 245 36 69 70 108 369 421 113 119 295 314
405 435 384 420 414 452 467 497 53 45 100 74 148 89 39 13 123 3 166 -19z
m71 -633 c33 -16 70 -55 166 -177 123 -155 244 -298 444 -524 174 -197 235
-288 216 -322 -28 -50 -1017 -1073 -1168 -1208 -178 -159 -317 -207 -423 -148
-43 24 -141 142 -254 305 -208 301 -266 388 -345 516 -50 79 -95 154 -102 167
-29 54 -17 69 378 467 207 210 493 500 636 647 153 156 274 272 295 282 48 22
106 20 157 -5z"/>
<path d="M14183 12870 c-119 -25 -198 -87 -519 -411 -436 -442 -606 -622 -644
-681 -96 -148 -88 -314 24 -465 58 -80 555 -644 886 -1008 30 -33 91 -102 135
-154 176 -207 220 -255 263 -282 112 -71 235 -78 357 -21 108 51 292 244 641
672 335 412 409 582 344 791 -35 113 -62 151 -385 530 -80 94 -339 414 -574
709 -146 184 -236 267 -326 302 -52 20 -149 29 -202 18z m172 -154 c63 -29
108 -78 335 -361 250 -313 427 -528 600 -730 187 -218 205 -242 236 -309 35
-76 41 -147 19 -222 -21 -74 -62 -144 -84 -144 -9 0 -35 24 -57 53 -48 60
-114 138 -389 453 -110 126 -260 303 -334 393 -153 186 -215 239 -315 266 -85
23 -155 14 -246 -31 -62 -31 -112 -77 -451 -412 -210 -207 -388 -381 -396
-386 -19 -11 -103 77 -153 160 -30 50 -35 67 -35 119 1 112 24 139 567 686
375 378 430 430 487 458 80 39 144 41 216 7z m31 -751 c45 -26 82 -65 199
-210 82 -102 181 -216 459 -530 227 -257 326 -385 326 -421 0 -27 -149 -212
-436 -539 -206 -235 -292 -307 -381 -321 -97 -14 -160 26 -299 192 -120 143
-342 398 -560 640 -326 364 -335 374 -322 398 24 46 721 738 781 775 88 54
158 58 233 16z"/>
<path d="M13855 12222 c-32 -20 -255 -248 -300 -306 -20 -26 -26 -43 -21 -60
7 -29 37 -41 63 -27 10 5 91 83 181 173 165 167 179 189 146 222 -20 21 -32
20 -69 -2z"/>
<path d="M12292 11021 c-87 -30 -154 -85 -340 -279 -97 -103 -330 -344 -516
-537 -544 -561 -640 -676 -680 -814 -38 -131 -2 -275 102 -407 56 -71 259
-291 582 -629 308 -323 420 -445 627 -681 196 -223 266 -271 412 -281 93 -7
170 13 245 62 59 38 209 190 387 390 185 209 336 372 591 639 249 260 300 322
350 424 31 63 33 72 33 177 0 106 -1 113 -37 187 -20 42 -55 104 -78 138 -52
77 -256 321 -464 554 -417 470 -461 522 -731 841 -111 131 -191 197 -268 220
-67 20 -150 18 -215 -4z m222 -145 c44 -26 69 -53 276 -301 74 -88 253 -295
400 -459 403 -455 436 -492 543 -621 179 -214 233 -318 224 -430 -3 -38 -14
-80 -31 -113 -29 -57 -140 -192 -158 -192 -6 0 -34 26 -62 57 -28 31 -126 139
-218 240 -92 101 -225 250 -296 331 -124 142 -170 195 -406 481 -185 224 -246
266 -381 266 -134 -1 -119 11 -730 -604 -297 -299 -553 -553 -569 -564 l-29
-21 -67 71 c-174 186 -180 319 -23 511 94 115 334 368 911 959 339 348 390
394 450 414 43 13 120 2 166 -25z m-20 -894 c37 -22 147 -145 347 -387 176
-215 326 -387 539 -620 213 -233 271 -305 268 -331 -2 -12 -89 -113 -194 -225
-182 -196 -257 -277 -516 -565 -271 -302 -376 -368 -511 -320 -68 25 -117 68
-245 216 -168 192 -312 348 -627 680 -313 329 -365 386 -365 404 0 26 136 170
617 648 359 357 501 493 534 508 50 23 104 20 153 -8z"/>
<path d="M11899 10186 c-45 -34 -237 -236 -296 -310 -34 -43 -41 -74 -21 -94
34 -34 63 -12 252 187 166 175 183 202 150 235 -22 23 -36 20 -85 -18z"/>
<path d="M13065 9884 c-27 -27 -10 -60 93 -188 142 -176 210 -246 238 -246 27
0 54 34 47 60 -13 48 -313 390 -343 390 -10 0 -26 -7 -35 -16z"/>
<path d="M7824 10901 c-107 -27 -183 -94 -504 -446 -91 -99 -385 -400 -655
-670 -526 -526 -543 -546 -587 -688 -16 -54 -19 -86 -16 -150 12 -211 112
-347 743 -1007 160 -168 352 -370 426 -448 73 -79 160 -163 192 -187 100 -76
207 -105 317 -85 176 31 304 132 682 538 101 108 341 360 533 560 470 487 530
554 568 632 29 59 32 73 32 160 0 151 -3 156 -350 531 -93 102 -244 268 -334
369 -267 302 -317 360 -538 620 -187 220 -260 271 -403 276 -41 2 -89 0 -106
-5z m193 -150 c52 -27 142 -122 385 -406 320 -374 519 -598 774 -872 99 -105
194 -217 213 -248 46 -75 52 -143 21 -206 -26 -52 -49 -79 -65 -79 -7 0 -81
78 -166 172 -85 95 -177 198 -205 228 -28 30 -165 188 -306 350 -276 319 -378
424 -448 461 -39 21 -59 24 -145 24 -157 0 -165 -6 -540 -415 -88 -96 -225
-241 -305 -324 -239 -246 -829 -816 -845 -816 -21 0 -108 114 -152 199 -34 67
-38 82 -38 151 0 68 4 84 39 156 38 76 56 96 555 594 284 283 590 596 681 695
249 272 311 331 367 349 59 19 128 14 180 -13z m129 -716 c50 -21 135 -105
312 -310 160 -184 351 -398 523 -585 179 -194 249 -286 249 -325 0 -9 -86
-105 -192 -213 -105 -108 -320 -334 -476 -502 -349 -373 -556 -581 -642 -645
-100 -73 -173 -105 -245 -105 -107 0 -163 38 -346 235 -46 50 -217 230 -380
400 -379 396 -449 476 -449 507 0 37 52 98 191 228 331 309 733 714 995 1005
182 201 269 287 309 306 48 22 104 24 151 4z"/>
<path d="M7117 9763 c-131 -136 -270 -292 -285 -320 -21 -39 12 -78 54 -63 21
8 245 237 345 353 59 67 71 101 47 125 -29 29 -57 12 -161 -95z"/>
<path d="M10060 8426 c-84 -19 -150 -58 -242 -143 -79 -74 -488 -502 -594
-624 -27 -30 -130 -145 -229 -254 -477 -525 -501 -555 -536 -645 -16 -40 -22
-79 -23 -140 -1 -75 3 -92 28 -144 47 -96 209 -249 550 -519 803 -637 1002
-772 1187 -807 85 -16 218 -12 303 10 195 50 309 143 897 730 430 429 469 470
500 535 30 62 34 78 33 150 -1 96 -24 159 -92 255 -25 36 -220 241 -432 455
-430 435 -535 543 -764 790 -259 278 -322 328 -444 354 -63 13 -71 13 -142 -3z
m176 -151 c55 -27 150 -121 514 -510 124 -131 391 -406 594 -610 218 -218 385
-394 407 -428 53 -82 65 -140 44 -213 -15 -51 -29 -70 -127 -171 -61 -62 -114
-113 -118 -113 -4 0 -46 45 -93 99 -48 54 -182 197 -299 318 -117 120 -328
339 -468 487 -337 356 -389 397 -523 404 -127 8 -183 -28 -382 -249 -321 -354
-885 -939 -943 -977 -20 -13 -25 -12 -60 14 -67 51 -182 171 -197 208 -19 45
-19 133 0 179 18 44 101 148 236 297 634 702 928 1019 1073 1158 138 132 233
162 342 107z m-7 -885 c48 -22 90 -64 591 -579 521 -537 594 -618 606 -677 5
-27 -11 -45 -238 -270 -376 -373 -481 -464 -613 -529 -172 -85 -310 -86 -480
-5 -116 56 -487 325 -860 623 -224 179 -284 231 -284 244 -1 19 70 98 373 410
159 164 386 403 505 531 263 283 291 301 400 252z"/>
<path d="M10707 7463 c-4 -3 -7 -19 -7 -34 0 -21 26 -61 99 -151 138 -171 192
-222 224 -214 39 9 43 41 12 87 -31 48 -171 217 -228 277 -39 40 -81 55 -100
35z"/>
<path d="M9527 7442 c-42 -25 -356 -373 -364 -401 -8 -31 8 -55 37 -59 18 -3
47 21 135 110 177 180 265 286 265 319 0 18 -7 32 -19 39 -25 13 -21 13 -54
-8z"/>
<path d="M15650 8923 c-23 -26 -99 -122 -168 -212 -144 -185 -215 -277 -319
-410 -70 -90 -80 -111 -67 -145 7 -18 46 -21 73 -6 18 9 169 190 284 340 187
243 298 395 303 415 10 42 1 60 -32 63 -27 3 -38 -4 -74 -45z"/>
</g>
</svg>
