<?xml version="1.0" standalone="no"?>
<!DOCTYPE svg PUBLIC "-//W3C//DTD SVG 20010904//EN"
 "http://www.w3.org/TR/2001/REC-SVG-20010904/DTD/svg10.dtd">
<svg version="1.0" xmlns="http://www.w3.org/2000/svg"
 width="1024.000000pt" height="1024.000000pt" viewBox="0 0 1024.000000 1024.000000"
 preserveAspectRatio="xMidYMid meet">
<metadata>
Created by potrace 1.16, written by Peter Selinger 2001-2019
</metadata>
<g transform="translate(0.000000,1024.000000) scale(0.100000,-0.100000)"
fill="#000000" stroke="none">
<path d="M4850 7273 c-351 -35 -638 -100 -890 -199 -225 -89 -394 -192 -536
-327 -142 -134 -228 -269 -288 -447 -75 -226 -66 -434 27 -615 27 -54 124
-171 170 -206 27 -20 28 -24 21 -77 -5 -45 -13 -62 -42 -90 -99 -100 -262
-348 -358 -547 -147 -303 -178 -518 -99 -674 67 -133 238 -202 375 -154 30 11
62 23 70 27 13 5 21 -16 43 -113 33 -140 74 -228 134 -289 52 -52 143 -97 233
-115 l65 -13 8 -93 c16 -194 84 -310 212 -359 114 -43 311 -59 418 -33 197 47
330 198 360 408 l13 88 85 7 c114 8 376 9 485 2 l90 -7 16 -93 c42 -245 180
-380 425 -414 143 -19 345 21 430 85 77 60 119 159 131 314 l7 93 95 32 c103
34 172 76 212 128 56 73 96 177 118 301 18 104 14 99 73 69 44 -23 63 -27 137
-26 73 0 93 4 144 29 67 34 115 86 147 165 33 78 33 249 1 367 -72 269 -280
636 -473 838 -26 28 -40 52 -44 80 -6 39 -5 41 51 80 137 97 241 242 275 385
20 83 16 249 -10 354 -94 390 -435 699 -971 879 -354 119 -675 168 -1085 165
-132 -1 -256 -3 -275 -5z m740 -192 c504 -74 881 -221 1140 -443 207 -178 332
-452 302 -664 -20 -147 -93 -253 -238 -350 -123 -82 -120 -76 -100 -247 46
-391 66 -894 47 -1177 -26 -401 -75 -518 -236 -571 -61 -19 -97 -23 -270 -27
-110 -2 -288 1 -395 8 -316 18 -928 24 -1195 10 -395 -19 -783 -24 -861 -11
-82 15 -149 42 -186 78 -54 52 -91 170 -120 383 -30 222 -9 892 38 1232 8 62
18 141 21 176 l6 62 -38 33 c-197 167 -245 254 -245 442 0 167 62 338 179 492
222 294 669 496 1281 577 176 24 187 24 470 21 199 -3 298 -9 400 -24z m1397
-2141 c195 -306 292 -613 235 -742 -49 -111 -181 -124 -264 -25 l-37 43 -5
349 c-3 193 -8 384 -12 425 -8 90 -5 89 83 -50z m-3687 -111 c-6 -96 -10 -276
-8 -400 l2 -226 -33 -42 c-38 -48 -64 -61 -123 -61 -85 0 -142 53 -154 143
-16 114 64 356 186 568 51 89 130 202 136 196 3 -3 0 -83 -6 -178z m1306
-1430 c-17 -125 -79 -219 -175 -262 -90 -40 -291 -33 -382 14 -53 27 -89 102
-92 194 l-2 70 150 7 c83 4 211 12 285 16 74 5 155 10 179 11 l44 1 -7 -51z
m1354 31 c91 -6 201 -10 244 -10 l79 0 -6 -74 c-6 -89 -33 -155 -75 -184 -77
-56 -295 -68 -398 -23 -97 43 -161 136 -172 253 l-5 59 84 -6 c46 -3 158 -10
249 -15z"/>
<path d="M5330 6646 c-41 -12 -103 -37 -138 -54 l-62 -33 -73 35 c-192 90
-352 84 -567 -23 -60 -30 -91 -39 -155 -45 -230 -19 -403 -109 -500 -261 -53
-83 -75 -160 -75 -266 0 -118 19 -189 87 -324 l55 -109 -26 -86 c-67 -226 -62
-377 23 -587 50 -123 51 -159 10 -279 -43 -126 -59 -219 -59 -343 0 -118 15
-193 56 -272 76 -152 248 -242 428 -225 39 4 119 24 184 46 63 22 127 40 142
40 14 0 73 -18 131 -39 210 -79 327 -77 576 13 94 34 141 33 293 -5 222 -55
347 -50 487 18 131 64 241 206 273 355 8 35 11 94 8 155 -5 82 -12 117 -47
212 -53 147 -53 173 3 293 60 127 76 195 76 314 0 107 -15 185 -57 306 l-28
78 53 105 c64 127 80 177 88 270 24 272 -174 477 -471 487 l-70 2 -80 81 c-86
87 -147 123 -250 150 -88 22 -224 19 -315 -9z m331 -178 c68 -31 129 -84 163
-142 39 -67 46 -70 180 -77 142 -7 213 -30 269 -85 55 -56 72 -98 72 -184 0
-90 -21 -157 -80 -260 -24 -41 -49 -95 -55 -120 -12 -50 -4 -88 46 -220 26
-68 29 -87 29 -200 l0 -125 -60 -125 c-57 -121 -59 -128 -59 -205 0 -69 5 -93
36 -170 51 -125 61 -174 56 -263 -4 -64 -10 -89 -38 -140 -95 -179 -256 -224
-535 -152 -188 49 -255 47 -400 -11 -108 -43 -113 -44 -225 -44 -112 0 -118 1
-225 43 -137 55 -203 58 -310 17 -185 -72 -262 -78 -363 -29 -100 49 -146 148
-144 314 1 97 18 172 72 315 34 89 32 199 -4 285 -81 190 -80 186 -80 320 0
115 3 132 34 220 49 142 46 177 -32 310 -135 230 -90 454 111 554 82 41 139
55 268 65 93 7 107 11 170 48 86 50 114 61 185 73 85 13 165 -3 269 -55 112
-57 138 -57 235 -4 115 63 174 80 274 76 66 -2 98 -9 141 -29z"/>
<path d="M4491 5876 c-47 -17 -108 -70 -130 -114 -62 -122 -60 -211 6 -238 62
-26 105 1 124 79 6 29 16 60 21 69 12 25 46 41 74 34 24 -6 54 -51 54 -81 0
-31 31 -82 56 -94 40 -18 63 -13 96 20 28 28 30 34 25 82 -11 107 -68 194
-152 233 -55 26 -119 30 -174 10z"/>
<path d="M5660 5877 c-118 -38 -219 -259 -151 -331 55 -58 129 -22 159 79 22
74 55 99 99 75 17 -10 30 -28 36 -50 26 -107 28 -111 59 -125 38 -16 85 -5
111 26 56 68 -31 272 -137 320 -46 21 -122 23 -176 6z"/>
<path d="M4670 5157 c-34 -17 -52 -55 -44 -97 11 -65 64 -159 122 -218 250
-252 700 -183 857 132 33 65 43 115 29 151 -10 26 -62 48 -99 41 -41 -8 -48
-17 -74 -87 -30 -79 -79 -132 -161 -173 -81 -40 -153 -52 -232 -37 -131 24
-218 93 -262 208 -34 88 -73 112 -136 80z"/>
</g>
</svg>
