<?xml version="1.0" standalone="no"?>
<!DOCTYPE svg PUBLIC "-//W3C//DTD SVG 20010904//EN"
 "http://www.w3.org/TR/2001/REC-SVG-20010904/DTD/svg10.dtd">
<svg version="1.0" xmlns="http://www.w3.org/2000/svg"
 width="1024.000000pt" height="1024.000000pt" viewBox="0 0 1024.000000 1024.000000"
 preserveAspectRatio="xMidYMid meet">
<metadata>
Created by potrace 1.16, written by Peter Selinger 2001-2019
</metadata>
<g transform="translate(0.000000,1024.000000) scale(0.100000,-0.100000)"
fill="#000000" stroke="none">
<path d="M4885 7276 c-151 -49 -264 -165 -311 -319 -14 -45 -21 -56 -33 -51
-78 33 -161 45 -271 41 -166 -7 -291 -55 -413 -156 l-49 -41 -42 25 c-137 80
-314 90 -468 25 -245 -102 -387 -361 -376 -685 l4 -122 -50 26 c-44 23 -62 26
-151 26 -87 0 -107 -3 -157 -27 -79 -37 -142 -98 -181 -177 -28 -58 -32 -75
-32 -151 0 -47 4 -103 8 -126 l9 -40 -69 -34 c-166 -81 -292 -291 -293 -487 0
-38 -4 -45 -44 -73 -227 -155 -251 -538 -45 -714 l39 -33 -45 -69 c-166 -252
-162 -552 10 -719 114 -112 307 -172 475 -147 l81 11 48 -34 c103 -74 225
-113 381 -121 82 -5 161 1 360 25 734 88 1168 119 1785 128 646 9 1147 -20
1905 -114 348 -43 527 -48 630 -19 86 23 173 66 238 116 52 40 55 41 90 28 21
-7 78 -12 127 -12 78 0 98 3 152 28 144 66 221 213 193 368 -14 74 -51 153
-97 207 -18 22 -33 41 -33 43 0 2 31 35 68 74 290 301 206 790 -178 1047 -41
27 -77 51 -79 53 -2 2 8 28 23 59 36 76 45 125 46 227 1 287 -246 508 -568
508 l-84 0 7 49 c18 130 -38 298 -134 403 -95 104 -270 169 -413 154 -58 -6
-58 -6 -58 22 -1 88 -53 203 -131 286 -125 134 -323 186 -512 137 l-68 -18
-28 41 c-59 86 -164 167 -261 201 -142 51 -346 26 -459 -54 -16 -12 -33 -21
-38 -21 -4 1 -21 21 -36 45 -36 57 -97 107 -173 142 -50 23 -75 28 -159 30
-63 2 -115 -2 -140 -11z m191 -171 c64 -19 113 -60 148 -125 l28 -52 -18 -41
c-41 -90 -7 -167 74 -167 50 0 79 22 94 71 17 60 88 133 164 170 56 28 77 33
142 33 64 0 88 -5 137 -27 61 -28 110 -68 147 -120 l20 -28 -54 -49 c-31 -27
-77 -80 -103 -119 -46 -68 -48 -69 -79 -60 -64 19 -286 48 -445 59 -120 8
-203 8 -315 0 l-151 -11 -15 23 c-8 12 -41 53 -72 89 l-57 67 15 59 c30 116
102 198 197 226 67 20 83 20 143 2z m-696 -339 c42 -8 103 -27 135 -44 68 -34
150 -101 138 -112 -4 -4 -42 -13 -83 -20 -170 -29 -441 -115 -659 -211 -74
-32 -136 -57 -138 -55 -9 9 21 95 55 159 89 171 257 277 467 295 6 1 44 -5 85
-12z m2146 -35 c112 -53 175 -144 182 -261 l4 -65 -62 -49 -63 -48 -96 47
c-107 53 -259 112 -399 157 -107 33 -107 33 -20 114 100 94 192 133 318 133
63 1 85 -4 136 -28z m-2894 -93 c27 -11 48 -23 48 -26 0 -4 -15 -42 -34 -87
-37 -87 -66 -208 -66 -278 l0 -44 -95 -62 c-52 -35 -147 -105 -212 -157 -65
-52 -122 -92 -128 -91 -21 7 -44 132 -44 242 -1 169 35 287 119 393 99 126
270 171 412 110z m1838 -179 c480 -47 970 -231 1355 -509 369 -267 650 -595
850 -995 324 -645 354 -1303 70 -1553 -57 -50 -128 -86 -215 -108 -74 -19
-215 -15 -405 10 -325 44 -776 87 -1195 116 -261 18 -900 24 -1195 11 -461
-20 -777 -46 -1365 -111 -387 -44 -464 -47 -558 -25 -204 48 -335 195 -384
433 -37 179 -12 484 62 749 138 496 440 980 810 1298 424 364 882 577 1432
665 240 38 476 44 738 19z m1666 -193 c136 -62 212 -226 170 -367 -27 -90 -24
-90 -124 -2 -103 91 -194 161 -330 253 -67 45 -89 66 -80 72 115 78 252 94
364 44z m-4320 -415 c23 -10 69 -45 104 -77 l62 -59 -55 -62 c-149 -167 -309
-408 -417 -628 -43 -88 -88 -189 -101 -225 -32 -93 -36 -95 -85 -57 -89 68
-140 183 -132 291 14 169 155 317 328 345 76 13 89 19 105 52 27 50 19 77 -35
130 -55 53 -65 79 -57 145 14 127 159 201 283 145z m4895 -182 c167 -51 280
-217 250 -367 -12 -61 -52 -137 -79 -150 -9 -5 -34 -12 -54 -16 -35 -6 -38 -5
-54 26 -51 101 -203 318 -309 443 -31 36 -55 68 -53 71 2 2 29 8 59 12 72 12
160 5 240 -19z m249 -748 c174 -86 294 -218 342 -374 31 -104 23 -238 -21
-329 -44 -92 -154 -203 -165 -166 -2 7 -8 60 -14 118 -22 207 -80 437 -168
657 -24 61 -44 114 -44 117 0 10 9 7 70 -23z m-5852 -214 c40 -62 113 -128
178 -160 l31 -16 -18 -78 c-30 -121 -57 -306 -65 -433 -11 -198 28 -434 91
-547 23 -42 23 -42 3 -49 -27 -8 -101 4 -163 27 -71 26 -129 79 -162 146 -24
49 -27 69 -27 142 1 144 65 275 195 402 60 59 69 72 69 104 0 69 -79 117 -139
86 -26 -14 -84 37 -116 103 -48 98 -30 233 42 309 15 15 29 27 33 27 3 0 25
-29 48 -63z m6082 -1022 c41 -85 17 -195 -50 -230 -37 -19 -102 -28 -119 -16
-12 8 -10 19 11 68 31 71 55 145 63 198 13 80 13 80 46 49 16 -15 38 -46 49
-69z"/>
<path d="M3830 4849 c-102 -41 -154 -155 -118 -260 46 -137 220 -181 328 -83
106 96 86 265 -39 331 -47 25 -125 30 -171 12z"/>
<path d="M6370 4838 c-126 -68 -146 -236 -40 -332 79 -71 187 -73 267 -3 102
89 95 245 -15 321 -60 42 -148 48 -212 14z"/>
<path d="M4790 4497 c-49 -25 -59 -122 -28 -262 66 -302 422 -437 660 -251
108 85 167 208 175 367 5 91 4 96 -20 125 l-25 29 -369 3 c-283 2 -374 -1
-393 -11z m625 -204 c-10 -55 -50 -127 -87 -158 -48 -41 -90 -55 -160 -55
-114 0 -197 67 -231 187 -9 28 -13 54 -10 57 4 3 116 6 251 6 l244 0 -7 -37z"/>
</g>
</svg>
