<?xml version="1.0" standalone="no"?>
<!DOCTYPE svg PUBLIC "-//W3C//DTD SVG 20010904//EN"
 "http://www.w3.org/TR/2001/REC-SVG-20010904/DTD/svg10.dtd">
<svg version="1.0" xmlns="http://www.w3.org/2000/svg"
 width="1024.000000pt" height="1024.000000pt" viewBox="0 0 1024.000000 1024.000000"
 preserveAspectRatio="xMidYMid meet">
<metadata>
Created by potrace 1.16, written by Peter Selinger 2001-2019
</metadata>
<g transform="translate(0.000000,1024.000000) scale(0.100000,-0.100000)"
fill="#000000" stroke="none">
<path d="M4685 7329 c-551 -45 -1063 -227 -1430 -509 -136 -103 -170 -142
-190 -212 -21 -77 -14 -144 24 -224 61 -127 152 -191 288 -203 l72 -6 169
-270 c93 -148 244 -389 337 -535 496 -784 740 -1187 1002 -1655 22 -39 51 -76
66 -85 24 -13 30 -13 55 0 15 9 38 36 51 60 52 97 281 484 384 650 206 330
559 843 922 1340 107 146 370 514 382 534 5 6 29 24 54 38 162 94 244 347 156
480 -31 46 -166 134 -332 217 -573 287 -1352 434 -2010 380z m750 -123 c492
-61 1008 -225 1364 -434 63 -37 124 -80 135 -95 28 -38 27 -124 -3 -192 -36
-81 -141 -175 -196 -175 -9 0 -49 20 -89 44 -347 211 -810 347 -1316 387 -177
14 -530 6 -690 -16 -348 -47 -635 -132 -901 -266 -92 -46 -199 -110 -242 -146
-23 -19 -40 -23 -93 -23 -72 0 -111 15 -162 64 -48 44 -74 101 -80 171 -4 58
-3 63 28 99 18 20 76 69 129 109 343 259 787 426 1276 481 172 20 655 15 840
-8z m-40 -577 c359 -34 759 -140 1025 -274 83 -41 260 -145 260 -152 0 -2 -13
-21 -29 -41 -15 -20 -93 -127 -173 -237 -79 -110 -203 -281 -274 -380 -423
-585 -737 -1061 -1039 -1572 -59 -101 -111 -183 -116 -183 -4 0 -37 51 -72
113 -245 431 -562 951 -955 1567 -81 126 -123 193 -294 465 -79 127 -152 242
-162 257 l-18 27 86 56 c314 205 796 344 1281 368 100 6 351 -2 480 -14z"/>
<path d="M5024 6352 c-90 -32 -144 -89 -164 -174 -33 -134 34 -260 159 -303
198 -67 384 125 316 326 -44 128 -184 196 -311 151z m156 -114 c100 -69 86
-210 -26 -260 -36 -16 -50 -17 -83 -8 -53 14 -86 42 -106 92 -19 48 -15 87 15
136 38 62 138 82 200 40z"/>
<path d="M4261 6326 c-69 -38 -44 -136 34 -136 43 0 75 29 75 69 0 57 -61 94
-109 67z"/>
<path d="M6140 6150 c-20 -20 -27 -74 -12 -96 10 -16 48 -34 70 -34 51 0 83
90 47 130 -24 26 -79 26 -105 0z"/>
<path d="M4369 5923 c-15 -2 -51 -18 -80 -36 -75 -45 -110 -105 -117 -197 -6
-88 15 -147 73 -205 159 -160 427 -43 426 186 0 103 -58 198 -142 233 -40 17
-120 26 -160 19z m117 -119 c103 -49 110 -195 13 -262 -43 -30 -120 -27 -167
6 -62 45 -77 147 -30 207 49 62 118 80 184 49z"/>
<path d="M5628 5856 c-101 -28 -167 -107 -175 -211 -10 -120 32 -201 129 -249
173 -86 375 55 355 249 -16 154 -160 253 -309 211z m132 -111 c54 -28 74 -71
71 -154 -1 -44 -62 -107 -113 -116 -81 -15 -168 56 -168 138 0 57 42 122 90
140 30 11 92 7 120 -8z"/>
<path d="M4929 5427 c-128 -68 -148 -256 -37 -351 105 -90 258 -56 322 71 23
45 21 144 -3 191 -53 103 -180 143 -282 89z m172 -116 c34 -35 39 -86 12 -132
-45 -77 -166 -55 -188 34 -26 102 101 173 176 98z"/>
<path d="M4463 5184 c-20 -20 -24 -31 -19 -57 8 -40 23 -55 61 -63 44 -8 85
26 85 72 0 70 -76 99 -127 48z"/>
<path d="M5522 5130 c-32 -30 -30 -82 4 -109 43 -34 86 -26 110 20 38 75 -53
146 -114 89z"/>
<path d="M5002 4875 c-155 -48 -225 -217 -150 -362 90 -176 347 -172 440 6 34
66 38 162 9 226 -25 56 -90 111 -152 129 -63 19 -90 19 -147 1z m146 -115
c128 -78 73 -270 -78 -270 -62 0 -106 29 -131 86 -58 129 88 257 209 184z"/>
</g>
</svg>
