<?xml version="1.0" standalone="no"?>
<!DOCTYPE svg PUBLIC "-//W3C//DTD SVG 20010904//EN"
 "http://www.w3.org/TR/2001/REC-SVG-20010904/DTD/svg10.dtd">
<svg version="1.0" xmlns="http://www.w3.org/2000/svg"
 width="1024.000000pt" height="1024.000000pt" viewBox="0 0 1024.000000 1024.000000"
 preserveAspectRatio="xMidYMid meet">
<metadata>
Created by potrace 1.16, written by Peter Selinger 2001-2019
</metadata>
<g transform="translate(0.000000,1024.000000) scale(0.100000,-0.100000)"
fill="#000000" stroke="none">
<path d="M4775 7066 c-57 -25 -161 -167 -215 -294 -56 -131 -74 -223 -74 -372
0 -96 5 -153 17 -199 10 -35 15 -67 12 -70 -4 -3 -32 -15 -63 -27 -31 -12 -64
-24 -73 -28 -12 -5 -18 5 -28 46 -23 92 -87 202 -161 276 -68 68 -179 142
-213 142 -83 0 -216 -179 -291 -393 -6 -18 -7 -18 -32 2 -14 11 -57 31 -95 43
-84 27 -116 19 -141 -32 -22 -44 -24 -178 -4 -265 8 -33 14 -60 13 -61 -1 -1
-27 -12 -57 -26 -100 -45 -162 -115 -199 -224 l-19 -59 -81 -5 c-86 -6 -115
-20 -155 -74 -19 -25 -21 -41 -20 -184 4 -464 207 -927 558 -1278 118 -118
226 -204 357 -285 91 -57 250 -139 267 -139 21 0 14 -11 -54 -83 -36 -38 -72
-85 -80 -103 -19 -44 -18 -114 2 -142 38 -54 -14 -52 1129 -52 1166 0 1095 -4
1135 63 41 66 17 134 -85 239 l-64 68 122 62 c315 160 550 369 748 662 201
297 309 621 326 973 5 112 3 139 -11 177 -28 74 -60 90 -194 96 l-114 5 -18
52 c-38 109 -120 191 -234 234 -60 23 -65 29 -40 50 27 22 72 121 84 187 16
79 8 229 -16 300 -33 99 -76 121 -162 82 -52 -24 -152 -117 -194 -182 l-31
-47 -61 55 c-74 67 -134 108 -192 130 -62 23 -94 8 -139 -65 -31 -52 -74 -169
-90 -245 l-6 -29 -27 26 c-15 13 -51 37 -81 52 -51 25 -53 28 -47 58 44 212
16 400 -86 572 -70 118 -238 265 -304 265 -12 0 -33 -9 -48 -21 -27 -21 -106
-172 -106 -202 0 -28 -16 -19 -44 23 -60 91 -217 238 -271 253 -11 3 -34 0
-50 -7z m128 -225 c47 -48 106 -121 133 -160 45 -68 47 -75 45 -134 -1 -34 -4
-64 -7 -66 -2 -2 -46 37 -98 87 -53 51 -103 92 -114 92 -25 0 -42 -20 -42 -49
1 -20 29 -52 129 -141 116 -104 129 -119 134 -155 10 -64 20 -315 13 -315 -3
0 -56 36 -117 80 -62 44 -120 80 -130 80 -22 0 -42 -34 -34 -58 3 -9 70 -63
149 -119 l144 -103 10 -72 c6 -40 9 -74 6 -77 -2 -3 -23 14 -47 37 -53 52
-124 83 -203 90 l-62 5 -46 63 c-106 143 -150 282 -150 469 0 145 19 235 75
349 32 64 110 185 120 186 3 0 45 -40 92 -89z m492 -43 c198 -200 237 -482
104 -755 -49 -99 -78 -133 -116 -133 -15 0 -57 -14 -92 -30 -35 -17 -65 -29
-67 -28 -1 2 -6 71 -10 154 l-7 150 107 134 c115 145 131 183 81 196 -32 8
-42 -1 -120 -105 -33 -44 -63 -80 -66 -81 -3 0 -9 49 -13 110 -5 82 -2 128 9
184 23 110 88 276 108 276 5 0 42 -33 82 -72z m-1355 -443 c137 -106 209 -254
210 -432 l0 -63 -42 -21 c-24 -12 -53 -30 -64 -41 -21 -19 -24 -19 -75 -4 -29
9 -63 16 -75 16 -16 0 -30 14 -52 54 l-31 53 41 111 c33 92 38 114 28 127 -15
18 -51 20 -67 4 -6 -6 -22 -45 -35 -85 -13 -41 -25 -74 -28 -74 -3 1 -17 11
-32 24 l-27 24 19 60 c25 81 63 154 119 229 25 35 47 63 49 63 2 0 30 -20 62
-45z m2566 -111 c12 -102 0 -192 -35 -261 -51 -103 -201 -234 -246 -217 -13 5
-15 14 -10 43 9 53 64 208 93 266 48 97 150 225 178 225 8 0 15 -20 20 -56z
m-500 -25 c23 -15 69 -54 103 -87 l63 -59 -17 -51 -17 -52 -56 51 c-41 38 -61
49 -81 47 -20 -2 -27 -9 -29 -31 -3 -23 8 -38 68 -95 65 -61 71 -70 65 -97
l-6 -30 -112 1 -112 2 -13 38 c-25 72 -1 221 58 360 14 31 24 43 32 38 7 -4
31 -20 54 -35z m-2507 -184 c95 -56 243 -204 241 -242 -1 -4 -21 -18 -47 -30
l-45 -21 -42 32 c-23 18 -58 38 -77 45 -19 7 -44 17 -55 21 -17 7 -24 22 -32
72 -22 130 -23 158 -6 158 2 0 30 -16 63 -35z m2097 -34 c66 -38 107 -86 133
-156 12 -30 21 -60 21 -65 0 -8 -72 -60 -83 -60 -2 0 -18 22 -36 49 -33 51
-99 108 -138 118 -13 3 -23 9 -23 14 0 16 60 129 68 129 4 0 30 -13 58 -29z
m-1105 -33 c12 -24 37 -64 55 -90 l34 -48 -38 -23 c-20 -13 -43 -27 -50 -31
-7 -4 -25 3 -43 19 -39 32 -80 54 -133 69 -35 10 -41 16 -38 37 4 32 57 77
112 94 70 21 78 19 101 -27z m937 -184 c80 -33 140 -117 149 -210 l6 -54 -244
2 -244 3 3 34 c8 77 55 163 108 197 66 44 157 55 222 28z m-1113 -49 c17 -9
44 -28 58 -43 l27 -28 -18 -72 -17 -72 -155 2 -155 3 3 40 c5 59 49 132 96
160 48 29 112 33 161 10z m532 -20 c69 -35 107 -85 127 -167 l6 -28 -245 0
c-275 0 -262 -4 -230 73 53 128 214 185 342 122z m-1360 -10 c63 -27 101 -76
118 -152 l7 -33 -211 0 c-236 0 -233 -1 -190 70 34 56 61 81 114 106 58 28
111 30 162 9z m3063 -16 c51 -23 81 -48 121 -103 49 -66 49 -66 -136 -66 -124
0 -166 3 -169 13 -1 6 -12 40 -23 75 l-20 63 31 16 c72 37 114 37 196 2z
m-447 4 c72 -20 119 -63 134 -121 6 -23 8 -44 5 -47 -3 -3 -127 -5 -275 -5
l-270 0 6 36 c19 113 229 185 400 137z m-2152 -11 c4 -4 1 -32 -7 -62 -8 -30
-14 -65 -14 -77 0 -22 -3 -23 -99 -23 l-98 0 -16 63 c-8 34 -11 66 -7 71 23
24 117 46 175 41 32 -3 62 -8 66 -13z m3066 -429 c-21 -462 -229 -900 -583
-1233 -192 -180 -443 -324 -749 -429 l-119 -42 -600 3 -601 3 -115 41 c-223
80 -340 138 -505 247 -278 185 -497 434 -640 732 -110 227 -164 438 -172 673
l-6 142 2048 0 2048 0 -6 -137z m-2732 -1807 l119 -37 591 3 590 3 118 40 118
39 81 -82 c45 -45 80 -84 77 -87 -3 -3 -458 -4 -1010 -3 l-1004 3 84 83 c53
53 90 82 100 79 9 -3 70 -21 136 -41z"/>
<path d="M4157 4976 c-50 -18 -72 -39 -97 -90 -79 -164 107 -324 259 -223 102
68 101 232 -3 297 -44 27 -111 34 -159 16z"/>
<path d="M5685 4972 c-123 -59 -144 -210 -42 -299 82 -72 221 -42 272 58 20
38 19 123 -2 166 -35 75 -149 113 -228 75z"/>
<path d="M5206 4597 c-10 -7 -22 -35 -27 -62 -20 -107 -103 -172 -189 -146
-52 15 -97 62 -110 114 -22 92 -22 92 -66 95 -61 4 -78 -17 -70 -85 37 -315
461 -356 550 -54 23 77 21 116 -6 135 -27 19 -58 20 -82 3z"/>
<path d="M5896 4518 c-23 -32 -20 -65 9 -94 25 -25 27 -25 161 -22 129 3 137
4 155 27 23 28 24 59 3 89 -14 21 -22 22 -164 22 -142 0 -150 -1 -164 -22z"/>
<path d="M3873 4510 c-45 -18 -57 -84 -22 -116 18 -16 39 -19 153 -21 138 -2
163 4 186 47 18 33 -11 86 -50 94 -47 9 -241 6 -267 -4z"/>
</g>
</svg>
