<?xml version="1.0" standalone="no"?>
<!DOCTYPE svg PUBLIC "-//W3C//DTD SVG 20010904//EN"
 "http://www.w3.org/TR/2001/REC-SVG-20010904/DTD/svg10.dtd">
<svg version="1.0" xmlns="http://www.w3.org/2000/svg"
 width="1024.000000pt" height="1024.000000pt" viewBox="0 0 1024.000000 1024.000000"
 preserveAspectRatio="xMidYMid meet">
<metadata>
Created by potrace 1.16, written by Peter Selinger 2001-2019
</metadata>
<g transform="translate(0.000000,1024.000000) scale(0.100000,-0.100000)"
fill="#000000" stroke="none">
<path d="M4885 7210 c-150 -24 -322 -109 -418 -208 l-48 -49 -66 24 c-398 144
-803 -38 -898 -405 -26 -103 -20 -275 14 -364 8 -23 2 -32 -65 -96 -190 -183
-324 -437 -383 -729 -40 -195 -54 -362 -55 -667 l-1 -289 -110 -37 c-161 -54
-249 -94 -341 -155 -134 -89 -183 -162 -184 -268 0 -76 27 -132 98 -199 199
-189 636 -313 1317 -373 824 -72 2070 -53 2885 46 789 95 1184 249 1260 493
16 51 8 142 -18 192 -75 144 -324 271 -648 330 l-101 18 1 451 c0 247 -3 486
-8 530 -8 77 -10 82 -50 119 -160 151 -424 326 -691 460 l-127 63 -3 85 c-12
280 -219 494 -516 533 -44 6 -46 7 -69 62 -61 146 -192 288 -331 359 -130 65
-309 95 -444 74z m260 -167 c153 -38 292 -156 368 -311 15 -31 15 -33 -1 -38
-231 -75 -373 -240 -401 -470 -11 -87 2 -188 33 -264 l24 -60 -37 -11 c-20 -6
-94 -13 -165 -16 -147 -6 -138 -16 -91 94 37 90 48 163 42 288 -9 204 -80 359
-231 511 -50 50 -100 96 -111 102 -26 14 -13 29 81 91 149 100 314 129 489 84z
m-910 -189 c83 -20 196 -75 274 -134 198 -148 299 -403 247 -623 -63 -270
-283 -378 -601 -297 -342 88 -565 328 -565 610 0 132 37 226 123 317 126 134
309 178 522 127z m1628 -337 c88 -43 156 -112 196 -197 23 -48 26 -68 26 -155
0 -93 -2 -105 -32 -166 -41 -83 -121 -159 -210 -202 -63 -30 -76 -32 -173 -32
-97 0 -110 2 -173 32 -84 40 -163 117 -203 198 -26 55 -29 69 -29 165 0 93 3
112 27 162 29 62 101 146 154 179 74 46 133 60 240 56 93 -2 106 -5 177 -40z
m-2285 -526 c18 -22 32 -43 32 -46 0 -4 -18 -28 -41 -53 -58 -67 -138 -190
-202 -312 l-55 -105 -11 -154 c-24 -332 -34 -813 -22 -1028 12 -219 10 -233
-33 -233 -57 0 -89 51 -108 170 -21 137 -18 810 5 965 53 354 154 586 340 783
28 28 53 52 57 52 4 0 21 -18 38 -39z m2852 -159 c127 -70 373 -232 435 -285
l40 -35 -465 -6 c-256 -3 -811 -8 -1235 -12 -423 -3 -976 -7 -1227 -9 -252 -3
-464 -2 -473 1 -12 5 -11 12 7 47 35 70 122 199 169 250 l44 49 74 -46 c216
-133 506 -197 695 -152 69 16 175 64 208 93 14 13 27 13 81 4 136 -24 343 -8
441 33 30 13 36 13 47 0 28 -34 157 -109 225 -130 106 -34 243 -34 351 1 136
43 256 139 325 262 l29 51 57 -26 c31 -14 109 -54 172 -90z m539 -996 c-3
-289 -8 -528 -12 -532 -5 -5 -490 -12 -1080 -15 -590 -4 -1381 -10 -1759 -13
l-688 -5 0 292 c0 240 16 755 24 764 2 2 704 8 1561 13 857 6 1561 13 1564 15
2 3 92 5 199 5 l194 0 -3 -524z m238 -531 c236 -45 461 -146 514 -231 136
-221 -358 -412 -1301 -504 -551 -53 -1350 -79 -1934 -61 -466 14 -633 24 -916
57 -591 69 -995 205 -1070 358 -19 40 -20 47 -7 78 20 48 85 100 196 157 83
42 279 117 286 109 2 -2 8 -37 14 -78 28 -186 135 -294 274 -275 29 4 869 10
1867 14 1691 6 1817 7 1846 23 85 47 120 117 130 263 6 81 10 105 18 105 2 0
39 -7 83 -15z m-267 -174 c0 -4 -9 -17 -20 -29 l-21 -22 -1724 0 c-1700 0
-1725 0 -1725 19 0 19 11 20 253 23 138 2 596 6 1017 7 421 2 1089 6 1485 10
396 3 723 5 728 3 4 -2 7 -7 7 -11z"/>
<path d="M5135 6856 c-14 -10 -20 -26 -20 -55 0 -33 7 -47 35 -76 19 -20 52
-41 73 -47 33 -10 41 -9 65 9 52 39 36 108 -37 154 -49 32 -87 37 -116 15z"/>
<path d="M4300 6621 c-24 -45 -4 -97 59 -154 64 -58 135 -64 159 -15 18 38 -2
81 -66 141 -45 42 -56 47 -96 47 -35 0 -48 -5 -56 -19z"/>
<path d="M5775 6365 c-40 -39 -26 -128 24 -155 35 -18 88 -12 105 12 33 46 13
128 -35 154 -40 20 -67 17 -94 -11z"/>
<path d="M5632 4880 c-64 -26 -69 -210 -7 -234 26 -10 69 -6 86 7 60 46 49
202 -16 227 -31 12 -33 12 -63 0z"/>
<path d="M4213 4865 c-37 -26 -55 -131 -33 -189 5 -15 25 -33 43 -42 73 -35
126 32 112 142 -11 89 -66 128 -122 89z"/>
<path d="M5025 4760 c-36 -58 -50 -59 -94 -11 -45 49 -79 53 -116 16 -40 -39
-28 -91 32 -146 43 -40 66 -49 130 -49 78 0 140 37 172 104 38 78 14 126 -63
126 -31 0 -39 -6 -61 -40z"/>
<path d="M4906 3846 c-273 -11 -278 -12 -297 -35 -35 -43 -19 -95 34 -109 19
-5 214 -4 473 2 392 10 443 13 467 29 20 13 27 26 27 50 0 71 -22 77 -242 75
-101 0 -308 -6 -462 -12z"/>
</g>
</svg>
