<?xml version="1.0" standalone="no"?>
<!DOCTYPE svg PUBLIC "-//W3C//DTD SVG 20010904//EN"
 "http://www.w3.org/TR/2001/REC-SVG-20010904/DTD/svg10.dtd">
<svg version="1.0" xmlns="http://www.w3.org/2000/svg"
 width="1024.000000pt" height="1024.000000pt" viewBox="0 0 1024.000000 1024.000000"
 preserveAspectRatio="xMidYMid meet">
<metadata>
Created by potrace 1.16, written by Peter Selinger 2001-2019
</metadata>
<g transform="translate(0.000000,1024.000000) scale(0.100000,-0.100000)"
fill="#000000" stroke="none">
<path d="M4935 6680 c-588 -51 -1051 -177 -1301 -355 -128 -92 -183 -184 -212
-360 l-19 -110 -34 -7 c-19 -4 -71 -14 -115 -23 -161 -31 -288 -100 -410 -220
-172 -171 -254 -367 -254 -611 0 -228 77 -429 227 -593 113 -124 292 -228 481
-278 87 -24 115 -27 267 -27 116 1 194 6 245 16 l75 16 105 -102 c169 -163
307 -257 512 -348 195 -87 390 -128 613 -128 327 0 603 88 905 287 144 96 362
309 467 458 350 494 493 1136 382 1713 -46 237 -117 333 -331 447 -170 90
-475 172 -788 210 -156 20 -656 28 -815 15z m723 -165 c174 -18 354 -47 460
-75 369 -94 584 -243 558 -384 -9 -49 -21 -52 -62 -17 -73 64 -175 98 -326
107 -90 6 -180 -5 -323 -38 -71 -16 -116 -5 -139 33 -42 71 -137 159 -214 197
-75 37 -77 37 -196 37 -115 0 -124 -2 -186 -31 -36 -17 -76 -42 -89 -54 -19
-19 -27 -21 -40 -11 -43 31 -112 54 -177 58 -154 11 -289 -60 -415 -218 -28
-35 -54 -67 -58 -71 -3 -3 -37 0 -76 8 -95 18 -288 18 -383 -2 -130 -26 -242
-87 -286 -157 l-20 -30 -38 42 c-73 84 -63 156 38 250 176 165 622 302 1160
355 196 19 628 20 812 1z m-121 -300 c50 -23 153 -108 153 -126 0 -5 -19 -13
-42 -19 -24 -6 -88 -27 -143 -45 -92 -32 -105 -34 -164 -25 -35 5 -66 12 -69
15 -6 5 -45 104 -58 146 -4 12 10 25 57 48 83 41 186 44 266 6z m-582 -26 c22
-6 53 -20 68 -31 31 -22 87 -94 87 -112 0 -7 -46 -11 -142 -11 -79 0 -191 -6
-251 -14 -59 -8 -110 -11 -114 -7 -8 8 69 88 120 123 43 30 129 62 167 63 14
0 43 -5 65 -11z m1494 -218 c30 -12 68 -32 84 -43 l30 -22 -34 -28 c-94 -79
-373 -183 -637 -238 -266 -56 -427 -72 -765 -77 -392 -7 -361 10 -370 -200 -7
-168 -24 -242 -67 -285 -34 -34 -59 -36 -88 -5 -46 49 -55 92 -61 283 -8 233
-2 226 -196 259 -193 33 -491 130 -525 169 -8 10 -1 22 29 48 122 111 416 124
690 31 42 -14 54 -14 146 3 152 29 416 25 597 -9 l136 -25 99 40 c145 59 232
79 358 83 69 2 138 11 185 24 106 29 309 25 389 -8z m298 -375 c-5 -233 -20
-341 -72 -533 -142 -528 -476 -970 -895 -1187 -338 -174 -667 -216 -1006 -126
-184 49 -327 117 -489 233 -412 296 -682 808 -735 1397 -12 127 -11 373 2 385
4 4 17 -3 30 -15 59 -55 192 -129 326 -181 86 -33 299 -90 410 -110 l72 -12 0
-111 c1 -272 91 -426 249 -426 65 0 98 13 144 58 75 72 107 163 116 327 l6
109 145 -3 c425 -7 938 72 1270 196 156 58 324 156 389 227 22 24 26 25 34 10
6 -10 7 -109 4 -238z m-3357 39 c0 -62 -1 -65 -27 -70 -236 -49 -392 -205
-440 -440 -19 -95 -9 -212 27 -307 65 -174 223 -309 416 -354 68 -16 235 -21
274 -9 14 4 23 -1 36 -22 9 -15 37 -59 61 -97 34 -52 42 -71 32 -77 -45 -28
-330 -22 -444 9 -105 28 -207 74 -278 125 -460 328 -406 1019 98 1248 72 32
161 57 213 58 l32 1 0 -65z m9 -327 c24 -213 91 -475 166 -644 14 -31 25 -60
25 -65 0 -15 -131 -10 -195 6 -136 36 -240 120 -298 243 -30 63 -32 74 -32
177 0 99 3 116 27 168 37 79 119 163 193 198 99 48 99 48 114 -83z"/>
</g>
</svg>
