<?xml version="1.0" standalone="no"?>
<!DOCTYPE svg PUBLIC "-//W3C//DTD SVG 20010904//EN"
 "http://www.w3.org/TR/2001/REC-SVG-20010904/DTD/svg10.dtd">
<svg version="1.0" xmlns="http://www.w3.org/2000/svg"
 width="2048.000000pt" height="2048.000000pt" viewBox="0 0 2048.000000 2048.000000"
 preserveAspectRatio="xMidYMid meet">
<metadata>
Created by potrace 1.16, written by Peter Selinger 2001-2019
</metadata>
<g transform="translate(0.000000,2048.000000) scale(0.100000,-0.100000)"
fill="#000000" stroke="none">
<path d="M11685 17754 c-33 -8 -96 -32 -140 -53 -169 -82 -284 -219 -394 -469
-21 -48 -89 -195 -151 -327 -62 -132 -186 -400 -275 -595 -90 -195 -208 -452
-263 -570 -54 -118 -164 -354 -242 -525 -79 -170 -174 -377 -213 -460 -38 -82
-116 -253 -174 -380 -105 -230 -146 -318 -306 -665 -119 -259 -396 -866 -477
-1045 -37 -82 -107 -235 -155 -340 -48 -104 -118 -257 -155 -340 -37 -82 -107
-235 -155 -340 -48 -104 -128 -280 -177 -390 -50 -110 -128 -283 -173 -385
-46 -102 -113 -250 -150 -330 -37 -80 -106 -233 -155 -340 -48 -107 -125 -276
-170 -375 -134 -296 -254 -561 -407 -905 -229 -512 -306 -683 -383 -855 -40
-88 -107 -239 -150 -335 -43 -96 -117 -263 -165 -370 -48 -107 -122 -274 -165
-370 -43 -96 -116 -260 -163 -365 -249 -558 -456 -1031 -680 -1555 -531 -1243
-622 -1473 -664 -1687 -27 -137 -1 -185 152 -287 164 -109 294 -153 426 -144
168 12 287 122 466 433 66 113 314 574 470 875 138 265 598 1139 731 1390 74
140 208 395 297 565 89 171 224 427 300 570 76 143 194 368 262 500 69 132
162 310 208 395 45 85 109 207 143 270 85 164 208 395 247 465 18 33 89 168
158 300 68 132 198 377 287 545 89 168 207 391 262 495 55 105 120 226 143
270 24 44 90 170 148 280 113 216 197 375 384 725 67 124 193 362 280 530 88
168 257 487 375 710 245 461 667 1262 783 1485 43 83 137 260 208 395 71 135
177 335 234 445 58 110 143 270 188 355 45 85 124 236 175 335 51 99 119 227
150 285 156 287 445 843 498 958 58 125 82 224 82 337 0 216 -84 385 -267 535
-193 159 -509 310 -743 354 -101 20 -264 19 -345 0z m397 -397 c190 -64 407
-187 496 -281 70 -74 96 -132 95 -216 0 -83 -23 -137 -186 -448 -69 -130 -208
-397 -310 -592 -201 -386 -355 -680 -422 -805 -23 -44 -98 -186 -165 -315
-166 -319 -307 -586 -400 -760 -43 -80 -185 -347 -315 -595 -131 -247 -275
-520 -321 -606 -46 -85 -84 -161 -84 -167 0 -7 -2 -12 -5 -12 -23 0 -860 421
-857 431 3 13 138 316 231 522 45 97 116 255 160 350 160 352 468 1022 618
1347 290 624 355 765 455 980 56 118 166 355 245 525 226 486 251 533 308 591
74 74 133 95 255 91 76 -3 116 -11 202 -40z m-2386 -4686 c87 -43 269 -131
404 -196 135 -65 246 -119 248 -121 6 -4 -89 -184 -97 -184 -5 0 -190 90 -411
200 -220 110 -405 200 -410 200 -16 0 -12 12 31 104 33 70 44 86 58 81 10 -3
90 -41 177 -84z m439 -713 c4 -3 -16 -46 -43 -94 -27 -49 -131 -249 -232 -444
-100 -195 -211 -407 -245 -470 -34 -63 -106 -198 -160 -300 -54 -102 -133
-250 -175 -330 -43 -80 -144 -271 -225 -425 -226 -430 -331 -627 -415 -785
-43 -80 -131 -246 -195 -370 -65 -124 -158 -301 -208 -395 -49 -93 -170 -325
-269 -515 -99 -190 -236 -448 -303 -575 -68 -126 -168 -315 -223 -420 -55
-104 -178 -338 -274 -520 -96 -181 -216 -411 -268 -510 -51 -99 -127 -245
-170 -325 -43 -80 -146 -275 -230 -435 -84 -159 -189 -360 -235 -445 -45 -85
-128 -243 -185 -350 -341 -647 -420 -786 -506 -883 l-41 -47 -87 33 c-84 31
-87 33 -82 59 21 104 374 953 871 2093 286 655 421 963 543 1235 126 280 604
1352 662 1485 110 250 297 666 535 1190 40 88 125 277 190 420 64 143 138 307
165 365 26 58 89 197 140 310 51 113 163 360 250 550 87 190 210 460 273 600
63 140 154 338 202 440 48 102 95 204 105 226 l18 41 406 -201 c223 -111 408
-205 411 -208z"/>
<path d="M15265 16199 c-89 -8 -143 -23 -225 -64 -133 -67 -224 -153 -325
-310 -29 -44 -98 -152 -155 -240 -57 -88 -187 -286 -288 -440 -102 -154 -276
-419 -387 -590 -110 -170 -267 -411 -349 -535 -133 -203 -280 -429 -989 -1522
-116 -180 -336 -518 -487 -751 -151 -233 -315 -486 -365 -563 -126 -197 -184
-285 -427 -659 -118 -181 -268 -413 -333 -515 -65 -102 -181 -282 -258 -400
-77 -118 -234 -361 -350 -540 -115 -179 -242 -374 -281 -435 -40 -60 -127
-195 -195 -300 -426 -659 -672 -1039 -806 -1245 -84 -129 -200 -309 -257 -400
-58 -91 -139 -217 -180 -280 -41 -63 -137 -212 -213 -330 -209 -325 -476 -736
-590 -910 -56 -85 -130 -200 -165 -255 -35 -55 -127 -199 -205 -320 -351 -543
-482 -746 -530 -820 -442 -681 -590 -954 -603 -1111 -6 -83 15 -119 145 -245
80 -78 116 -104 190 -141 160 -80 243 -85 373 -21 77 39 245 209 411 418 182
229 1569 2076 2144 2855 103 140 218 296 255 345 36 50 169 230 295 400 126
171 284 384 351 475 231 312 789 1068 891 1207 122 166 404 551 581 793 71 96
211 288 313 425 101 138 297 405 436 595 139 190 348 473 463 630 241 328 320
436 807 1105 196 270 435 598 531 730 97 132 205 281 240 330 36 50 89 122
117 160 28 39 100 138 160 220 59 83 149 206 200 275 51 69 161 220 245 335
84 116 176 242 205 280 48 64 273 372 536 735 200 275 225 315 274 450 20 56
28 101 32 175 15 303 -154 536 -582 804 -256 160 -443 218 -650 200z m226
-399 c227 -83 544 -319 614 -457 59 -115 33 -221 -97 -403 -82 -113 -356 -489
-613 -840 -115 -157 -231 -316 -259 -355 -46 -65 -331 -455 -416 -570 -20 -27
-103 -142 -185 -255 -82 -113 -185 -254 -229 -315 -73 -101 -113 -157 -321
-446 -192 -268 -626 -853 -634 -857 -3 -1 -72 42 -151 96 -336 227 -626 425
-634 433 -5 4 49 97 120 206 70 109 217 338 327 508 109 171 262 407 339 525
77 118 233 359 347 535 114 176 304 469 423 650 119 182 286 436 370 565 278
426 530 804 575 862 109 143 249 182 424 118z m-2824 -4322 c117 -79 287 -192
377 -253 91 -60 165 -113 165 -117 1 -5 -99 -151 -114 -166 -1 -2 -54 32 -116
76 -63 43 -199 136 -304 207 -149 100 -321 218 -353 241 -2 1 9 22 25 46 16
24 40 62 53 85 18 33 27 40 39 33 9 -5 111 -73 228 -152z m-294 -334 c100 -69
271 -185 379 -257 120 -80 196 -137 193 -145 -2 -7 -105 -148 -228 -315 -123
-166 -253 -342 -289 -392 -258 -357 -533 -731 -729 -995 -31 -41 -118 -160
-194 -265 -76 -104 -216 -296 -310 -425 -94 -129 -227 -311 -296 -405 -69 -93
-197 -268 -284 -388 -88 -121 -283 -384 -433 -585 -149 -202 -348 -470 -441
-597 -93 -126 -259 -351 -370 -500 -111 -148 -270 -362 -353 -475 -635 -854
-1679 -2241 -1837 -2440 -180 -227 -309 -369 -334 -370 -15 0 -157 102 -157
113 0 57 498 851 1410 2247 91 140 198 305 237 365 114 178 232 362 553 860
166 259 334 520 373 580 39 61 171 263 292 450 122 187 254 392 293 455 40 63
127 198 193 300 189 291 230 354 339 525 107 166 298 461 619 958 102 158 238
367 302 465 64 97 196 301 294 452 98 151 262 403 365 560 102 157 195 300
205 318 11 17 21 32 23 32 1 0 85 -57 185 -126z"/>
</g>
</svg>
