<?xml version="1.0" standalone="no"?>
<!DOCTYPE svg PUBLIC "-//W3C//DTD SVG 20010904//EN"
 "http://www.w3.org/TR/2001/REC-SVG-20010904/DTD/svg10.dtd">
<svg version="1.0" xmlns="http://www.w3.org/2000/svg"
 width="1024.000000pt" height="1024.000000pt" viewBox="0 0 1024.000000 1024.000000"
 preserveAspectRatio="xMidYMid meet">
<metadata>
Created by potrace 1.16, written by Peter Selinger 2001-2019
</metadata>
<g transform="translate(0.000000,1024.000000) scale(0.100000,-0.100000)"
fill="#000000" stroke="none">
<path d="M5586 6774 c-21 -20 -20 -37 3 -65 16 -20 23 -22 46 -14 36 13 48 46
29 74 -18 25 -56 27 -78 5z"/>
<path d="M4915 6645 c-52 -51 -11 -135 65 -135 10 0 31 11 46 24 37 31 39 90
5 117 -33 27 -86 25 -116 -6z"/>
<path d="M4393 6555 c-69 -48 -9 -157 69 -124 53 22 63 75 23 114 -27 28 -61
32 -92 10z"/>
<path d="M5847 6453 c-14 -14 -6 -53 13 -63 15 -8 24 -6 40 10 16 16 18 25 10
40 -10 19 -49 27 -63 13z"/>
<path d="M5351 6386 c-17 -20 -2 -46 25 -46 29 0 41 24 24 45 -16 19 -34 19
-49 1z"/>
<path d="M4695 6165 c-508 -47 -890 -151 -1101 -301 -124 -88 -174 -173 -182
-314 -17 -307 104 -734 293 -1035 266 -423 640 -693 1105 -798 81 -18 126 -21
300 -21 231 0 331 16 503 78 245 89 429 207 622 401 286 285 456 603 542 1012
22 108 27 154 27 293 1 162 0 166 -27 220 -126 246 -591 413 -1311 470 -173
13 -597 11 -771 -5z m835 -116 c659 -59 1147 -244 1152 -438 1 -32 -20 -91
-32 -91 -4 0 -26 18 -49 40 -137 130 -518 242 -1011 297 -218 24 -744 24 -960
0 -270 -30 -495 -74 -680 -132 -132 -42 -284 -119 -336 -170 l-44 -44 -15 29
c-84 162 179 338 658 439 182 39 434 70 692 85 98 6 501 -4 625 -15z m105
-358 c380 -45 688 -128 843 -227 62 -40 60 -49 -17 -89 -171 -86 -517 -167
-886 -207 -160 -17 -769 -17 -930 0 -405 43 -767 134 -918 229 l-41 26 25 19
c134 110 555 221 969 257 69 6 143 13 165 15 22 2 171 3 330 1 211 -3 336 -9
460 -24z m-1884 -434 c486 -221 1389 -289 2144 -161 315 53 560 134 707 235
33 22 62 38 64 36 3 -3 -5 -51 -16 -108 -132 -646 -569 -1167 -1126 -1342
-269 -85 -573 -82 -850 8 -187 61 -398 186 -541 319 -234 218 -390 460 -493
763 -40 118 -92 341 -83 355 2 4 30 -10 62 -32 32 -22 92 -55 132 -73z"/>
</g>
</svg>
