<?xml version="1.0" standalone="no"?>
<!DOCTYPE svg PUBLIC "-//W3C//DTD SVG 20010904//EN"
 "http://www.w3.org/TR/2001/REC-SVG-20010904/DTD/svg10.dtd">
<svg version="1.0" xmlns="http://www.w3.org/2000/svg"
 width="1024.000000pt" height="1024.000000pt" viewBox="0 0 1024.000000 1024.000000"
 preserveAspectRatio="xMidYMid meet">
<metadata>
Created by potrace 1.16, written by Peter Selinger 2001-2019
</metadata>
<g transform="translate(0.000000,1024.000000) scale(0.100000,-0.100000)"
fill="#000000" stroke="none">
<path d="M5051 6729 c-22 -21 -23 -25 -16 -163 8 -185 11 -203 40 -222 31 -20
80 -10 101 21 13 19 13 45 4 186 -10 145 -13 166 -32 182 -27 23 -69 22 -97
-4z"/>
<path d="M5633 6538 c-19 -22 -52 -77 -99 -166 -19 -35 -21 -49 -13 -70 13
-33 26 -42 66 -42 25 0 38 8 56 33 49 66 107 174 107 200 0 60 -77 89 -117 45z"/>
<path d="M4426 6465 c-43 -44 -32 -72 72 -179 90 -93 113 -103 150 -63 42 45
31 78 -59 172 -70 73 -86 85 -115 85 -18 0 -39 -7 -48 -15z"/>
<path d="M4935 5986 c-77 -19 -140 -54 -201 -114 l-55 -54 -22 20 c-57 52
-201 102 -292 102 -67 0 -164 -24 -227 -56 -57 -29 -157 -119 -188 -170 -20
-31 -21 -31 -58 -18 -20 7 -67 13 -103 14 -163 1 -280 -79 -344 -235 -23 -59
-24 -59 -77 -70 -101 -21 -180 -81 -229 -175 -20 -38 -24 -60 -24 -143 -1 -97
-1 -98 -30 -116 -105 -64 -184 -251 -157 -375 9 -45 9 -47 -17 -60 -43 -23
-88 -77 -118 -141 -25 -54 -28 -71 -28 -165 0 -95 3 -110 27 -157 16 -29 42
-68 58 -87 29 -33 30 -35 19 -86 -26 -124 10 -251 96 -334 57 -56 129 -92 225
-112 79 -16 111 -16 900 16 653 27 1187 24 2005 -10 570 -24 907 -31 969 -19
140 27 254 106 308 217 30 60 33 76 33 152 0 75 -4 93 -31 150 -18 36 -38 73
-46 84 -12 16 -12 25 5 75 30 89 21 225 -20 313 -40 85 -108 152 -193 191 -36
16 -66 30 -67 31 -1 1 4 24 12 51 8 26 15 85 15 131 0 250 -166 425 -417 441
-45 3 -80 10 -77 14 10 17 -17 164 -40 215 -80 175 -304 258 -497 185 -68 -26
-65 -26 -74 6 -11 44 -53 109 -97 148 -124 112 -299 122 -442 24 l-58 -40 -59
56 c-103 99 -243 136 -384 101z m201 -161 c19 -8 47 -24 61 -35 22 -17 23 -20
7 -20 -48 -1 -217 -21 -292 -36 -46 -9 -86 -14 -89 -10 -12 11 51 68 102 92
59 28 156 32 211 9z m-663 -65 c49 -18 137 -82 137 -98 0 -4 -24 -16 -52 -26
-141 -49 -384 -188 -487 -278 l-35 -31 -9 29 c-11 38 -2 138 18 194 19 56 73
129 118 164 83 64 212 83 310 46z m1252 1 c39 -18 98 -71 79 -71 -5 0 -39 8
-75 19 -36 10 -90 22 -120 26 -72 10 -80 16 -38 31 50 18 108 16 154 -5z
m-134 -180 c725 -146 1259 -703 1360 -1419 20 -145 0 -530 -30 -564 -6 -7
-467 7 -1096 34 -434 18 -1261 16 -1818 -6 -257 -10 -471 -16 -474 -12 -16 15
-15 246 2 381 57 476 282 930 591 1199 249 215 532 343 891 401 132 21 436 14
574 -14z m-1750 -31 l36 -10 -4 -53 c-3 -28 -6 -56 -7 -61 -1 -5 -40 -8 -87
-7 -47 1 -107 -3 -133 -10 -26 -6 -49 -9 -52 -6 -11 10 36 86 68 111 54 41
117 53 179 36z m2454 -9 c22 -10 55 -35 74 -56 33 -38 67 -103 58 -112 -3 -2
-33 18 -69 44 -35 26 -96 66 -136 88 -39 22 -72 43 -72 48 0 14 106 6 145 -12z
m-2457 -282 c28 -5 58 -16 68 -24 18 -13 17 -16 -22 -57 -102 -106 -210 -269
-300 -450 -27 -54 -51 -98 -54 -98 -12 0 -72 110 -86 156 -60 201 72 435 269
474 60 11 70 11 125 -1z m-444 -21 c-4 -7 -18 -26 -30 -43 -12 -16 -34 -54
-48 -82 -28 -56 -45 -67 -47 -30 -3 64 17 107 68 142 40 27 69 33 57 13z
m3399 -157 c48 -30 84 -71 108 -125 23 -52 37 -160 23 -169 -5 -3 -27 28 -49
70 -22 41 -70 115 -107 164 -38 49 -68 91 -68 93 0 9 61 -13 93 -33z m-3509
-278 c4 -29 13 -70 21 -92 l14 -40 -43 -25 c-55 -32 -123 -106 -146 -159 -40
-89 -44 -224 -10 -313 13 -33 13 -34 -4 -34 -7 0 -40 -13 -72 -30 -55 -28 -59
-28 -78 -12 -52 47 -70 146 -37 217 21 46 83 105 111 105 10 0 28 12 40 28 19
23 21 35 16 77 -18 139 -18 166 -2 209 20 53 77 112 131 137 47 21 47 20 59
-68z m193 -333 c-86 -293 -110 -442 -109 -682 l0 -188 -67 0 c-101 0 -167 23
-222 79 -58 57 -76 112 -59 180 10 42 61 111 82 111 4 0 8 -17 8 -37 0 -72 77
-163 136 -163 33 0 64 37 64 78 0 24 -9 45 -30 69 -42 47 -40 89 5 143 43 52
44 79 3 143 -22 34 -33 65 -36 102 -7 91 25 154 105 205 l44 28 40 -26 c25
-17 39 -32 36 -42z m3641 -34 c74 -66 95 -160 62 -276 -12 -41 -24 -97 -27
-124 -5 -46 -3 -50 35 -90 48 -48 62 -81 62 -142 0 -53 -16 -88 -62 -130 -36
-33 -88 -68 -93 -62 -2 2 1 21 6 43 6 22 13 126 16 230 7 235 -12 386 -74 590
-6 19 -5 19 23 1 16 -10 40 -28 52 -40z"/>
<path d="M4402 5145 c-76 -64 -33 -175 68 -175 21 0 41 9 61 29 89 89 -33 227
-129 146z"/>
<path d="M5860 5142 c-42 -42 -42 -101 -1 -143 71 -70 186 -5 167 94 -9 46
-36 68 -90 74 -40 5 -48 2 -76 -25z"/>
<path d="M5439 4890 c-65 -67 -94 -68 -156 -5 -37 38 -50 45 -83 45 -33 0 -46
-7 -83 -45 -62 -62 -95 -62 -152 1 -38 41 -46 45 -80 42 -27 -2 -44 -11 -58
-30 -19 -25 -19 -31 -8 -70 37 -122 221 -187 338 -118 l35 21 66 -27 c100 -40
191 -25 265 45 63 58 76 134 31 170 -40 31 -62 26 -115 -29z"/>
<path d="M4093 4755 c-30 -21 -48 -82 -34 -117 12 -31 65 -68 96 -68 38 0 83
37 94 76 12 43 -5 96 -37 113 -30 16 -94 13 -119 -4z"/>
<path d="M6193 4752 c-33 -25 -46 -77 -29 -116 19 -44 43 -61 91 -61 48 0 72
17 92 63 17 41 3 94 -30 117 -29 20 -97 19 -124 -3z"/>
</g>
</svg>
