<?xml version="1.0" standalone="no"?>
<!DOCTYPE svg PUBLIC "-//W3C//DTD SVG 20010904//EN"
 "http://www.w3.org/TR/2001/REC-SVG-20010904/DTD/svg10.dtd">
<svg version="1.0" xmlns="http://www.w3.org/2000/svg"
 width="1024.000000pt" height="1024.000000pt" viewBox="0 0 1024.000000 1024.000000"
 preserveAspectRatio="xMidYMid meet">
<metadata>
Created by potrace 1.16, written by Peter Selinger 2001-2019
</metadata>
<g transform="translate(0.000000,1024.000000) scale(0.100000,-0.100000)"
fill="#000000" stroke="none">
<path d="M2885 6150 c-59 -6 -71 -13 -89 -48 -34 -67 -51 -555 -27 -762 47
-390 186 -752 400 -1040 73 -98 235 -266 336 -347 397 -319 894 -488 1499
-509 694 -25 1305 158 1746 522 391 322 643 793 717 1338 20 150 22 480 3 660
-11 107 -17 133 -36 155 l-22 26 -284 6 c-360 7 -4176 7 -4243 -1z m263 -397
c-1 -335 24 -525 98 -752 213 -650 769 -1062 1549 -1150 255 -28 543 -21 782
19 719 122 1208 512 1416 1130 76 226 101 408 100 748 l0 262 112 0 c98 0 114
-2 120 -17 4 -10 9 -130 12 -268 5 -199 2 -277 -11 -381 -61 -479 -254 -879
-569 -1181 -303 -291 -705 -475 -1199 -549 -143 -21 -571 -30 -735 -15 -961
90 -1637 621 -1853 1455 -53 203 -65 315 -65 601 0 143 4 281 8 308 l8 47 114
0 113 0 0 -257z m3796 235 c12 -48 6 -477 -9 -595 -50 -386 -191 -690 -429
-929 -240 -240 -545 -385 -956 -455 -179 -30 -551 -38 -745 -14 -457 54 -808
209 -1070 470 -244 243 -386 558 -435 965 -11 92 -14 498 -4 549 l7 31 1817 0
1818 0 6 -22z"/>
<path d="M3756 5479 c-56 -44 -22 -139 49 -139 71 0 105 95 49 139 -15 12 -37
21 -49 21 -12 0 -34 -9 -49 -21z"/>
<path d="M6373 5488 c-28 -13 -46 -58 -37 -92 14 -57 86 -74 129 -31 65 64 -8
163 -92 123z"/>
<path d="M4310 5369 c-66 -26 -113 -99 -113 -174 0 -155 164 -244 292 -160 66
44 98 124 81 201 -20 90 -89 144 -180 143 -30 0 -66 -5 -80 -10z"/>
<path d="M5771 5362 c-57 -28 -94 -83 -99 -146 -6 -71 11 -117 58 -160 72 -65
164 -70 240 -15 90 65 105 201 32 282 -49 55 -163 74 -231 39z"/>
<path d="M4920 5003 c-46 -16 -53 -90 -16 -169 69 -149 274 -180 386 -58 49
54 70 99 70 153 0 48 -20 71 -64 71 -40 0 -50 -11 -66 -69 -35 -133 -183 -133
-221 0 -7 24 -17 49 -23 55 -14 15 -47 24 -66 17z"/>
<path d="M3941 4804 c-24 -30 -26 -55 -10 -87 16 -30 28 -37 71 -37 41 0 78
35 78 75 0 12 -9 34 -21 49 -16 20 -29 26 -59 26 -30 0 -43 -6 -59 -26z"/>
<path d="M6171 4804 c-12 -15 -21 -37 -21 -49 0 -12 9 -34 21 -49 16 -20 29
-26 59 -26 30 0 43 6 59 26 12 15 21 37 21 49 0 12 -9 34 -21 49 -16 20 -29
26 -59 26 -30 0 -43 -6 -59 -26z"/>
</g>
</svg>
