<?xml version="1.0" standalone="no"?>
<!DOCTYPE svg PUBLIC "-//W3C//DTD SVG 20010904//EN"
 "http://www.w3.org/TR/2001/REC-SVG-20010904/DTD/svg10.dtd">
<svg version="1.0" xmlns="http://www.w3.org/2000/svg"
 width="1024.000000pt" height="1024.000000pt" viewBox="0 0 1024.000000 1024.000000"
 preserveAspectRatio="xMidYMid meet">
<metadata>
Created by potrace 1.16, written by Peter Selinger 2001-2019
</metadata>
<g transform="translate(0.000000,1024.000000) scale(0.100000,-0.100000)"
fill="#000000" stroke="none">
<path d="M4855 7033 c-33 -2 -121 -10 -195 -19 -849 -98 -1484 -517 -1675
-1104 -22 -68 -28 -105 -29 -185 -1 -96 4 -118 41 -186 2 -4 -29 -17 -69 -29
-91 -28 -119 -42 -169 -87 -71 -64 -90 -130 -64 -219 26 -89 139 -191 232
-210 l29 -6 0 -96 c0 -90 8 -126 41 -183 2 -3 -24 -13 -58 -23 -124 -37 -184
-112 -184 -226 1 -130 83 -216 238 -250 57 -13 64 -18 48 -35 -16 -18 -41
-107 -47 -169 -13 -134 51 -307 153 -413 107 -110 240 -185 449 -253 590 -192
1824 -225 2621 -69 544 106 825 309 876 632 12 79 -1 181 -32 253 l-19 42 51
13 c141 33 222 114 234 235 8 72 -16 133 -69 178 -40 34 -141 76 -183 76 -32
0 -35 8 -18 48 12 26 16 69 16 149 l0 111 46 7 c62 9 149 49 190 88 101 96
106 257 9 330 -45 35 -130 72 -201 87 -65 15 -72 21 -58 48 20 37 30 138 21
209 -29 227 -182 493 -402 697 -420 390 -1095 598 -1823 559z m394 -144 c513
-36 950 -196 1272 -465 158 -131 270 -272 349 -439 78 -162 97 -273 60 -345
-35 -68 -100 -101 -289 -149 -758 -191 -2076 -212 -3001 -50 -339 60 -493 118
-536 201 -38 73 8 261 106 431 318 556 1131 882 2039 816z m-2032 -1488 c154
-52 457 -113 723 -145 959 -119 2146 -66 2825 125 60 17 119 36 130 41 15 7
55 1 144 -22 174 -44 211 -65 211 -123 0 -45 -24 -75 -84 -103 -62 -29 -139
-31 -252 -8 -50 11 -107 15 -159 12 -94 -5 -150 -30 -260 -113 -184 -139 -282
-154 -520 -74 -126 42 -134 43 -260 43 -154 1 -189 -8 -381 -94 -266 -121
-363 -120 -582 3 -219 123 -330 125 -561 9 -109 -54 -117 -57 -190 -57 -95 0
-143 22 -255 117 -96 81 -167 117 -256 131 -58 9 -83 7 -203 -18 -158 -32
-227 -31 -321 5 -33 13 -78 40 -100 60 -33 31 -40 44 -40 75 0 52 36 78 159
116 55 17 109 34 120 39 11 5 21 9 22 9 1 1 41 -12 90 -28z m3653 -364 c53
-12 55 -13 62 -52 26 -149 -13 -245 -123 -301 -164 -83 -608 -162 -1129 -201
-278 -20 -950 -23 -1220 -5 -450 31 -814 84 -1090 158 -206 56 -280 125 -280
262 l0 62 40 0 c22 0 95 12 162 26 183 40 239 27 370 -86 83 -72 157 -115 233
-135 123 -32 202 -17 379 72 175 88 233 85 426 -22 146 -81 208 -99 330 -99
113 -1 184 19 358 98 161 74 219 90 327 89 80 0 105 -5 226 -46 74 -25 164
-49 200 -53 138 -14 266 28 414 135 149 108 196 123 315 98z m170 -467 c104
-19 149 -49 150 -103 0 -41 -28 -84 -70 -104 -50 -25 -197 -29 -295 -9 -96 20
-129 20 -145 1 -18 -22 -4 -64 25 -75 14 -5 25 -13 25 -18 0 -18 -315 -76
-610 -112 -562 -69 -1336 -79 -1910 -24 -183 17 -436 49 -558 70 -98 16 -285
56 -291 61 -3 2 5 10 17 19 33 23 45 50 32 74 -13 25 -28 25 -180 -1 -133 -22
-201 -18 -275 17 -59 28 -82 95 -49 143 20 29 61 46 142 61 60 10 65 10 157
-25 475 -178 1566 -266 2483 -200 543 39 1001 122 1182 214 30 16 66 27 80 25
14 -2 54 -8 90 -14z m-3380 -514 c471 -78 769 -100 1360 -100 721 -1 1167 40
1693 155 215 48 201 51 233 -50 36 -115 -1 -256 -97 -365 -132 -150 -424 -262
-834 -320 -334 -48 -767 -71 -1127 -62 -995 26 -1536 171 -1701 457 -33 57
-57 141 -57 199 0 45 30 151 50 174 7 9 42 4 137 -20 70 -18 225 -48 343 -68z"/>
<path d="M5024 6690 c-85 -34 -61 -160 31 -160 88 0 117 123 38 159 -28 13
-40 13 -69 1z"/>
<path d="M5543 6680 c-47 -19 -59 -101 -20 -138 50 -47 129 -17 143 56 5 26 1
36 -24 62 -31 30 -59 36 -99 20z"/>
<path d="M4505 6519 c-52 -30 -62 -93 -20 -134 51 -52 145 -16 145 54 0 59
-76 108 -125 80z"/>
<path d="M4014 6495 c-35 -14 -44 -32 -44 -78 1 -36 15 -58 47 -75 35 -19 63
-14 94 17 36 36 38 80 7 114 -29 32 -65 39 -104 22z"/>
<path d="M6001 6483 c-12 -10 -24 -34 -27 -54 -7 -44 25 -86 73 -95 44 -9 93
38 93 88 0 67 -86 104 -139 61z"/>
<path d="M5111 6314 c-41 -52 -12 -127 55 -140 47 -9 94 35 94 87 0 54 -27 79
-84 79 -36 0 -48 -5 -65 -26z"/>
<path d="M5591 6294 c-40 -50 -24 -115 32 -133 85 -28 151 63 96 133 -16 21
-29 26 -64 26 -35 0 -48 -5 -64 -26z"/>
<path d="M3725 6271 c-42 -18 -60 -64 -43 -112 12 -35 35 -49 78 -49 43 0 66
14 78 48 12 36 5 76 -17 96 -22 20 -70 28 -96 17z"/>
<path d="M6255 6215 c-35 -34 -33 -78 4 -116 18 -17 40 -29 56 -29 38 0 85 50
85 90 0 44 -39 80 -85 80 -25 0 -44 -8 -60 -25z"/>
<path d="M4795 6117 c-39 -33 -39 -91 -1 -123 56 -49 140 -13 140 61 0 73 -84
110 -139 62z"/>
<path d="M3395 6055 c-32 -31 -32 -75 -1 -111 70 -83 192 24 125 110 -28 36
-89 37 -124 1z"/>
<path d="M5815 6031 c-32 -14 -47 -37 -48 -75 -1 -49 34 -86 83 -86 102 0 115
148 15 165 -17 2 -39 1 -50 -4z"/>
<path d="M4290 6013 c-88 -33 -75 -163 17 -163 45 0 62 9 79 42 18 34 11 78
-14 101 -20 18 -61 28 -82 20z"/>
<path d="M6531 5966 c-33 -35 -31 -93 4 -123 14 -13 35 -23 45 -23 85 0 128
107 62 156 -29 22 -86 17 -111 -10z"/>
<path d="M5320 5912 c-57 -58 -25 -142 55 -142 105 0 117 150 13 167 -32 5
-41 1 -68 -25z"/>
<path d="M3806 5838 c-40 -35 -43 -78 -11 -116 54 -64 145 -28 145 57 0 72
-80 106 -134 59z"/>
<path d="M6174 5810 c-55 -22 -70 -95 -29 -135 52 -53 145 -16 145 57 -1 64
-57 102 -116 78z"/>
<path d="M4545 5745 c-36 -35 -35 -96 1 -124 15 -12 40 -21 56 -21 38 0 88 48
88 85 0 16 -12 38 -29 56 -38 37 -82 39 -116 4z"/>
<path d="M5025 5728 c-77 -42 -49 -159 37 -158 37 1 59 14 76 47 19 35 14 63
-17 94 -31 30 -62 36 -96 17z"/>
</g>
</svg>
