<?xml version="1.0" encoding="UTF-8" standalone="no"?>
<!DOCTYPE svg PUBLIC "-//W3C//DTD SVG 1.1//EN" "http://www.w3.org/Graphics/SVG/1.1/DTD/svg11.dtd">
<svg width="100%" height="100%" viewBox="0 0 1024 1024" version="1.1" xmlns="http://www.w3.org/2000/svg" xmlns:xlink="http://www.w3.org/1999/xlink" xml:space="preserve" xmlns:serif="http://www.serif.com/" style="fill-rule:evenodd;clip-rule:evenodd;stroke-linejoin:round;stroke-miterlimit:2;">
    <g transform="matrix(0.1,0,0,-0.1,0,1024)">
        <path d="M5010,7865C4872,7838 4699,7765 4570,7682C4315,7516 4041,7220 3823,6874C3448,6282 3217,5608 3181,5008C3148,4459 3274,3993 3553,3626C3910,3157 4454,2917 5160,2916C5789,2916 6307,3104 6675,3465C6920,3706 7074,3972 7160,4306C7239,4612 7246,5037 7179,5415C7107,5814 6941,6270 6726,6660C6343,7351 5881,7777 5421,7864C5320,7883 5103,7884 5010,7865ZM5406,7674C5539,7647 5693,7573 5837,7466C5923,7403 6124,7201 6213,7090C6372,6891 6534,6628 6670,6348C7040,5582 7137,4796 6933,4210C6795,3814 6492,3476 6115,3299C5830,3165 5539,3106 5165,3106C4870,3106 4691,3131 4455,3207C3919,3379 3522,3835 3405,4415C3269,5088 3484,5974 3974,6755C4310,7291 4696,7622 5050,7680C5091,7686 5132,7693 5140,7695C5170,7703 5331,7690 5406,7674Z" style="fill-rule:nonzero;"/>
        <path d="M6021,5853C5834,5785 5817,5523 5993,5435C6183,5341 6386,5520 6315,5721C6275,5833 6137,5896 6021,5853Z" style="fill-rule:nonzero;"/>
        <path d="M4240,5839C4184,5814 4154,5786 4129,5738C4081,5644 4096,5543 4170,5470C4301,5338 4517,5403 4561,5588C4602,5763 4408,5915 4240,5839Z" style="fill-rule:nonzero;"/>
        <path d="M5435,5531C5407,5519 5390,5497 5360,5436C5297,5308 5152,5305 5087,5431C5040,5523 5000,5546 4941,5515C4889,5489 4885,5423 4931,5332C5003,5188 5185,5121 5344,5180C5448,5219 5534,5325 5547,5428C5552,5469 5549,5480 5529,5503C5502,5532 5465,5543 5435,5531Z" style="fill-rule:nonzero;"/>
    </g>
</svg>
