<?xml version="1.0" standalone="no"?>
<!DOCTYPE svg PUBLIC "-//W3C//DTD SVG 20010904//EN"
 "http://www.w3.org/TR/2001/REC-SVG-20010904/DTD/svg10.dtd">
<svg version="1.0" xmlns="http://www.w3.org/2000/svg"
 width="1024.000000pt" height="1024.000000pt" viewBox="0 0 1024.000000 1024.000000"
 preserveAspectRatio="xMidYMid meet">
<metadata>
Created by potrace 1.16, written by Peter Selinger 2001-2019
</metadata>
<g transform="translate(0.000000,1024.000000) scale(0.100000,-0.100000)"
fill="#000000" stroke="none">
<path d="M4600 7070 c-450 -41 -768 -115 -990 -231 -137 -71 -200 -143 -200
-228 0 -22 -5 -43 -11 -47 -9 -5 -10 -49 -5 -160 30 -707 236 -1823 492 -2664
52 -171 170 -513 190 -553 22 -41 124 -111 259 -177 202 -99 378 -139 660
-147 410 -12 732 70 992 253 l61 44 52 132 c218 559 424 1331 570 2143 51 288
107 739 120 979 9 156 8 182 -5 203 -9 12 -23 23 -33 23 -12 0 -25 15 -36 40
-24 54 -72 92 -191 150 -212 104 -522 180 -925 226 -166 19 -840 28 -1000 14z
m850 -100 c443 -34 826 -121 1050 -236 73 -38 137 -95 146 -129 6 -26 -14 -71
-44 -98 -19 -17 -21 -17 -58 8 -191 130 -574 226 -1082 271 -221 20 -774 14
-982 -10 -415 -47 -724 -134 -864 -240 l-48 -37 -23 21 c-80 75 -38 158 122
239 359 180 1076 265 1783 211z m50 -286 c333 -30 637 -93 825 -168 99 -40
172 -84 159 -95 -17 -16 -161 -70 -250 -95 -145 -41 -374 -83 -579 -108 -166
-20 -238 -23 -575 -23 -249 0 -426 5 -500 13 -305 34 -538 79 -715 137 -112
37 -215 82 -215 95 0 12 144 84 226 113 220 79 580 135 959 151 141 6 505 -5
665 -20z m1195 -287 c-3 -23 -9 -96 -15 -162 -16 -176 -74 -590 -115 -820
-133 -745 -324 -1462 -550 -2069 l-47 -123 -70 -46 c-135 -90 -290 -151 -483
-190 -95 -19 -142 -22 -345 -22 -151 0 -262 5 -310 13 -238 42 -425 121 -583
246 -33 26 -197 529 -301 921 -141 537 -251 1087 -320 1605 -44 329 -76 680
-61 680 4 0 25 -16 46 -35 134 -121 508 -226 996 -281 192 -21 670 -30 874
-15 621 45 1098 167 1243 320 16 17 33 28 37 25 5 -3 6 -24 4 -47z"/>
<path d="M3693 6105 c-48 -21 -57 -45 -49 -144 26 -320 152 -1013 281 -1536
80 -325 152 -574 252 -875 88 -266 78 -251 221 -310 191 -80 352 -111 612
-117 219 -6 369 9 534 52 116 30 295 99 317 123 51 52 279 760 399 1237 135
532 270 1275 270 1481 0 54 -3 65 -22 78 -33 24 -71 20 -172 -18 -434 -162
-1323 -219 -1956 -125 -212 32 -424 83 -555 134 -88 34 -97 35 -132 20z m185
-141 c265 -86 557 -132 984 -154 510 -27 1211 53 1509 174 35 14 64 24 66 23
1 -2 -13 -111 -32 -242 -73 -513 -197 -1084 -349 -1605 -44 -153 -223 -697
-250 -762 -12 -29 -25 -37 -98 -65 -210 -81 -340 -104 -599 -110 -225 -6 -334
6 -509 52 -110 30 -232 79 -253 103 -19 22 -126 349 -215 657 -150 518 -288
1172 -367 1732 -31 223 -32 248 -7 238 9 -4 63 -23 120 -41z"/>
<path d="M4002 5718 c-18 -18 -16 -39 24 -245 53 -281 110 -524 125 -534 22
-14 55 -10 70 7 11 13 10 29 -5 97 -51 241 -96 464 -112 557 -9 58 -22 111
-27 118 -12 15 -59 16 -75 0z"/>
<path d="M5816 4198 c-8 -13 -24 -59 -35 -103 -11 -44 -41 -150 -66 -235 -25
-85 -45 -164 -45 -176 0 -43 53 -60 82 -26 18 20 148 471 148 513 0 48 -58 67
-84 27z"/>
<path d="M5485 3509 c-88 -28 -235 -56 -360 -70 -60 -6 -116 -16 -122 -21 -19
-15 -16 -52 5 -71 33 -30 301 7 510 69 65 20 85 30 94 49 9 20 8 29 -7 45 -22
24 -42 24 -120 -1z"/>
</g>
</svg>
