<?xml version="1.0" encoding="UTF-8" standalone="no"?>
<!DOCTYPE svg PUBLIC "-//W3C//DTD SVG 1.1//EN" "http://www.w3.org/Graphics/SVG/1.1/DTD/svg11.dtd">
<svg width="100%" height="100%" viewBox="0 0 1024 1024" version="1.1" xmlns="http://www.w3.org/2000/svg" xmlns:xlink="http://www.w3.org/1999/xlink" xml:space="preserve" xmlns:serif="http://www.serif.com/" style="fill-rule:evenodd;clip-rule:evenodd;stroke-linejoin:round;stroke-miterlimit:2;">
    <rect id="Artboard1" x="0" y="0" width="1024" height="1024" style="fill:none;"/>
    <g id="Artboard11" serif:id="Artboard1">
        <g transform="matrix(0.220631,0,0,-0.220631,-1520.35,4422.2)">
            <path d="M8840,19399C8752,19386 8579,19327 8505,19285C8241,19136 8087,18837 8129,18551C8150,18408 8198,18294 8323,18088C8390,17977 8439,17871 8473,17760C8487,17712 8493,17664 8493,17575C8494,17444 8493,17440 8392,17178C8336,17035 8320,16971 8313,16865C8301,16672 8369,16487 8506,16341C8691,16145 8936,16040 9213,16040C9515,16040 9792,16157 10027,16383C10186,16536 10284,16680 10363,16880C10560,17373 10539,17947 10306,18435C10210,18636 10105,18784 9930,18964C9700,19202 9488,19325 9205,19386C9117,19405 8925,19412 8840,19399ZM9100,19230C9576,19172 10052,18722 10244,18148C10359,17803 10357,17358 10238,17021C10096,16618 9805,16332 9442,16239C9329,16210 9176,16204 9061,16224C8891,16254 8777,16313 8655,16435C8534,16555 8480,16676 8480,16827C8480,16915 8498,16981 8566,17154C8648,17360 8663,17422 8664,17570C8665,17782 8605,17963 8450,18210C8335,18393 8290,18516 8290,18644C8290,19017 8658,19283 9100,19230Z" style="fill-rule:nonzero;"/>
        </g>
        <g transform="matrix(0.220631,0,0,-0.220631,-1520.35,4422.2)">
            <path d="M8858,19115C8733,19083 8670,19031 8662,18951C8656,18887 8684,18840 8743,18811C8807,18781 8849,18777 8978,18790C9122,18804 9176,18796 9303,18740C9463,18670 9560,18697 9560,18811C9560,18915 9392,19054 9205,19105C9120,19128 8930,19134 8858,19115ZM9173,19054C9278,19028 9377,18974 9447,18906C9498,18856 9510,18838 9510,18812C9510,18789 9503,18776 9485,18764C9453,18743 9407,18751 9330,18790C9219,18846 9174,18853 8984,18846C8797,18838 8759,18845 8726,18891C8636,19019 8914,19121 9173,19054Z" style="fill-rule:nonzero;"/>
        </g>
        <g transform="matrix(0.220631,0,0,-0.220631,-1520.35,4422.2)">
            <path d="M8780,17618C8779,17616 8778,17561 8776,17495C8772,17370 8760,17313 8713,17208C8675,17123 8698,17086 8744,17158C8801,17244 8838,17429 8823,17550C8817,17600 8811,17616 8798,17618C8788,17620 8780,17620 8780,17618Z" style="fill-rule:nonzero;"/>
        </g>
        <g transform="matrix(0.220631,0,0,-0.220631,-1520.35,4422.2)">
            <path d="M10010,16865C9979,16811 9978,16790 10005,16790C10022,16790 10080,16889 10073,16907C10063,16933 10041,16919 10010,16865Z" style="fill-rule:nonzero;"/>
        </g>
        <g transform="matrix(0.220631,0,0,-0.220631,-1520.35,4422.2)">
            <path d="M8640,16714C8640,16639 8760,16482 8869,16416C9108,16271 9458,16293 9714,16470C9795,16526 9920,16651 9920,16676C9920,16712 9889,16700 9839,16645C9634,16421 9310,16319 9048,16396C8897,16441 8757,16553 8705,16673C8684,16720 8670,16740 8658,16740C8645,16740 8640,16732 8640,16714Z" style="fill-rule:nonzero;"/>
        </g>
    </g>
</svg>
