<?xml version="1.0" standalone="no"?>
<!DOCTYPE svg PUBLIC "-//W3C//DTD SVG 20010904//EN"
 "http://www.w3.org/TR/2001/REC-SVG-20010904/DTD/svg10.dtd">
<svg version="1.0" xmlns="http://www.w3.org/2000/svg"
 width="1024.000000pt" height="1024.000000pt" viewBox="0 0 1024.000000 1024.000000"
 preserveAspectRatio="xMidYMid meet">
<metadata>
Created by potrace 1.16, written by Peter Selinger 2001-2019
</metadata>
<g transform="translate(0.000000,1024.000000) scale(0.100000,-0.100000)"
fill="#000000" stroke="none">
<path d="M4800 6564 c-173 -16 -324 -35 -340 -44 -34 -18 -85 -230 -132 -545
-17 -121 -18 -519 0 -600 35 -159 88 -272 171 -368 43 -48 148 -116 236 -153
105 -43 217 -131 251 -196 59 -114 31 -489 -48 -654 l-23 -49 -125 -12 c-228
-22 -343 -59 -355 -114 -14 -64 35 -94 208 -124 390 -67 1086 -26 1152 67 20
30 19 71 -2 90 -40 35 -200 72 -367 84 l-98 7 -24 53 c-50 114 -66 198 -71
387 -6 200 1 243 49 301 48 58 144 126 231 163 259 109 386 310 418 661 17
181 -6 447 -62 727 -35 173 -60 255 -85 272 -42 27 -254 44 -604 48 -184 1
-355 1 -380 -1z m760 -80 c85 -8 163 -17 172 -20 18 -5 24 -23 57 -164 26
-116 45 -236 38 -253 -8 -21 -231 -38 -574 -44 -312 -6 -620 3 -643 17 -11 7
-12 23 -1 92 7 46 19 110 27 142 14 52 14 61 0 74 -19 20 -44 9 -57 -25 -6
-16 -20 -86 -32 -156 -16 -99 -24 -127 -35 -122 -7 3 -28 5 -45 5 -60 0 -62 6
-42 121 22 136 62 290 77 305 7 7 65 18 128 24 287 31 632 32 930 4z m-1061
-524 l23 0 -7 -123 c-6 -109 -5 -124 10 -137 12 -10 21 -11 33 -3 14 8 18 34
23 127 4 65 9 119 11 122 3 2 78 -1 169 -7 259 -18 786 -4 1036 27 l51 6 9
-88 c12 -132 9 -410 -6 -479 -59 -281 -191 -439 -416 -499 -109 -29 -300 -41
-443 -28 -225 21 -320 58 -427 166 -106 107 -156 226 -183 436 -13 106 -14
150 -4 291 7 92 15 175 18 184 6 13 15 16 43 11 20 -3 47 -6 60 -6z m760
-1194 c-22 -23 -52 -65 -66 -94 -23 -46 -27 -70 -31 -176 -8 -200 32 -437 89
-534 10 -18 19 -35 19 -38 0 -2 -66 -4 -146 -4 -135 0 -146 1 -139 18 33 75
75 223 85 297 7 53 11 154 8 240 -4 139 -6 154 -31 201 -14 29 -42 69 -62 89
-19 21 -35 38 -35 39 0 1 79 1 175 2 l175 0 -41 -40z m-340 -897 c26 -19 39
-20 208 -17 152 2 184 6 199 20 17 15 29 15 139 3 135 -16 206 -28 250 -45 28
-11 29 -12 12 -25 -74 -54 -631 -84 -948 -50 -142 15 -269 41 -269 56 0 21
125 52 280 68 47 4 89 9 93 10 4 0 20 -8 36 -20z"/>
<path d="M4521 5592 c-8 -16 -7 -25 7 -42 16 -20 21 -21 41 -11 33 18 26 65
-11 69 -18 2 -30 -3 -37 -16z"/>
</g>
</svg>
