<?xml version="1.0" standalone="no"?>
<!DOCTYPE svg PUBLIC "-//W3C//DTD SVG 20010904//EN"
 "http://www.w3.org/TR/2001/REC-SVG-20010904/DTD/svg10.dtd">
<svg version="1.0" xmlns="http://www.w3.org/2000/svg"
 width="1024.000000pt" height="1024.000000pt" viewBox="0 0 1024.000000 1024.000000"
 preserveAspectRatio="xMidYMid meet">
<metadata>
Created by potrace 1.16, written by Peter Selinger 2001-2019
</metadata>
<g transform="translate(0.000000,1024.000000) scale(0.100000,-0.100000)"
fill="#000000" stroke="none">
<path d="M4851 7655 c-180 -51 -317 -174 -402 -361 -23 -51 -34 -65 -57 -69
-187 -38 -332 -97 -478 -195 -241 -163 -438 -449 -508 -740 l-23 -95 -60 -6
c-162 -16 -283 -148 -283 -310 0 -135 85 -228 232 -252 l73 -13 17 -189 c79
-890 289 -1892 535 -2560 30 -82 62 -157 70 -167 24 -27 310 -82 593 -114 192
-21 705 -30 927 -15 315 20 741 88 799 126 29 19 36 34 118 275 250 728 451
1735 501 2510 9 144 5 136 81 150 83 14 131 38 174 86 47 54 63 99 63 174 -1
162 -121 285 -299 306 l-52 6 -6 52 c-9 67 -76 267 -117 347 -58 116 -130 213
-238 319 -112 111 -215 180 -341 230 -59 24 -68 31 -95 82 -137 252 -395 377
-650 313 l-61 -16 -66 44 c-94 64 -172 88 -293 93 -70 3 -116 -1 -154 -11z
m221 -126 c73 -16 142 -52 199 -106 l49 -46 68 23 c94 32 204 37 277 15 137
-43 242 -139 310 -280 33 -70 34 -71 92 -89 300 -94 570 -405 654 -751 31
-130 40 -119 -118 -138 -892 -109 -2099 -107 -2981 4 l-104 13 7 45 c11 73 44
170 90 262 168 339 485 575 829 615 31 4 62 12 69 18 8 6 24 40 36 75 89 251
299 387 523 340z m1918 -1485 c29 -14 72 -59 89 -91 21 -40 14 -108 -15 -142
-33 -40 -59 -46 -304 -76 -898 -108 -1910 -124 -2855 -45 -311 26 -631 68
-673 87 -98 46 -75 203 38 265 40 22 105 21 280 -5 283 -42 701 -73 1184 -88
675 -21 1464 16 2011 95 162 23 200 23 245 0z m-3285 -469 c475 -50 956 -69
1590 -62 558 6 852 23 1322 74 84 9 156 13 160 9 17 -17 -55 -641 -118 -1021
-97 -583 -210 -1048 -367 -1515 -89 -262 -86 -256 -135 -268 -235 -58 -685
-102 -1042 -102 -279 0 -625 28 -860 70 -158 28 -183 37 -199 68 -24 46 -76
202 -68 202 5 0 80 -11 168 -24 249 -38 278 -40 297 -21 20 20 21 35 4 58 -9
13 -47 23 -152 37 -128 18 -276 43 -332 55 -28 7 -39 32 -91 211 -149 507
-277 1146 -352 1749 -26 209 -50 487 -43 498 3 5 21 6 42 3 20 -4 99 -13 176
-21z"/>
<path d="M5070 7230 c-11 -11 -20 -27 -20 -35 0 -19 35 -55 53 -55 20 0 47 33
47 57 0 21 -29 53 -48 53 -7 0 -21 -9 -32 -20z"/>
<path d="M5502 7085 c-84 -76 -77 -195 11 -195 79 0 151 156 97 210 -30 30
-65 25 -108 -15z"/>
<path d="M4614 6989 c-30 -11 -37 -25 -36 -74 1 -76 55 -145 113 -145 56 0 81
56 55 124 -26 69 -87 112 -132 95z"/>
<path d="M6039 6739 c-16 -31 -6 -115 18 -147 11 -15 36 -36 55 -46 34 -19 37
-19 61 -3 50 33 43 130 -14 186 -39 39 -101 44 -120 10z"/>
<path d="M5093 6568 c-24 -12 -53 -74 -53 -114 0 -39 26 -91 55 -110 58 -38
110 28 103 129 -4 50 -9 64 -32 84 -30 25 -40 27 -73 11z"/>
<path d="M5637 6542 c-36 -39 -12 -86 40 -80 20 2 30 11 38 32 8 24 6 31 -14
47 -29 24 -43 24 -64 1z"/>
<path d="M4143 6519 c-67 -43 -95 -136 -53 -174 64 -58 210 86 172 170 -9 20
-19 25 -49 25 -21 0 -52 -10 -70 -21z"/>
<path d="M4492 6378 c-7 -7 -12 -24 -12 -38 0 -31 17 -50 45 -50 29 0 45 19
45 52 0 40 -51 63 -78 36z"/>
<path d="M3839 5344 c-16 -19 -3 -204 42 -609 42 -378 119 -907 140 -963 7
-19 15 -23 41 -20 28 3 33 7 36 33 1 17 -15 147 -37 290 -60 392 -122 910
-137 1140 -7 114 -19 145 -54 145 -10 0 -23 -7 -31 -16z"/>
<path d="M6321 5266 c-6 -8 -16 -67 -22 -132 -14 -165 -56 -532 -80 -693 -10
-74 -17 -142 -14 -152 11 -35 69 -35 79 -1 18 56 71 488 111 903 5 44 2 60
-10 73 -20 20 -49 21 -64 2z"/>
<path d="M4398 5185 c-54 -30 -75 -122 -43 -185 64 -124 218 -40 191 103 -13
68 -93 113 -148 82z"/>
<path d="M5783 5184 c-106 -53 -68 -244 49 -244 107 0 135 203 34 245 -43 18
-43 18 -83 -1z"/>
<path d="M4902 4901 c-18 -19 -9 -99 18 -151 23 -44 80 -97 129 -118 51 -21
137 -19 191 5 61 27 115 90 134 154 18 60 20 88 7 109 -14 21 -458 22 -479 1z
m378 -93 c-1 -19 -33 -54 -71 -77 -37 -23 -88 -27 -122 -10 -26 14 -87 70 -87
81 0 4 57 9 128 11 70 1 133 4 140 5 6 1 12 -4 12 -10z"/>
<path d="M4424 4593 c-40 -5 -68 -34 -59 -62 8 -28 36 -34 111 -26 53 5 67 11
81 31 14 23 14 26 -2 44 -18 20 -50 23 -131 13z"/>
<path d="M5388 4133 c-58 -36 -67 -110 -23 -191 71 -130 222 -111 241 31 8 59
-22 129 -68 157 -41 25 -112 26 -150 3z m116 -95 c9 -12 16 -32 16 -45 0 -27
-26 -54 -46 -46 -20 8 -55 78 -48 97 9 24 60 20 78 -6z"/>
<path d="M4538 3729 c-44 -13 -112 -69 -135 -113 -11 -19 -17 -55 -17 -97 0
-57 4 -74 30 -115 73 -120 233 -149 338 -62 62 51 97 150 76 214 -21 62 -80
38 -80 -33 0 -42 -41 -106 -80 -126 -89 -46 -200 27 -200 130 0 64 68 123 142
123 37 0 58 15 58 41 0 38 -65 56 -132 38z"/>
<path d="M6072 3608 c-71 -76 -49 -220 33 -220 36 0 82 50 91 100 9 45 -1 100
-22 123 -24 26 -75 25 -102 -3z"/>
<path d="M5970 3100 c-52 -10 -160 -25 -239 -34 -80 -9 -151 -22 -158 -28 -16
-13 -17 -50 -1 -66 16 -16 63 -15 205 3 311 41 363 55 363 98 0 51 -21 55
-170 27z"/>
<path d="M4673 3032 c-17 -18 -17 -47 2 -62 36 -30 647 -38 681 -9 17 14 18
53 2 67 -8 6 -136 11 -342 14 -263 2 -332 0 -343 -10z"/>
</g>
</svg>
