<?xml version="1.0" standalone="no"?>
<!DOCTYPE svg PUBLIC "-//W3C//DTD SVG 20010904//EN"
 "http://www.w3.org/TR/2001/REC-SVG-20010904/DTD/svg10.dtd">
<svg version="1.0" xmlns="http://www.w3.org/2000/svg"
 width="1024.000000pt" height="1024.000000pt" viewBox="0 0 1024.000000 1024.000000"
 preserveAspectRatio="xMidYMid meet">
<metadata>
Created by potrace 1.16, written by Peter Selinger 2001-2019
</metadata>
<g transform="translate(0.000000,1024.000000) scale(0.100000,-0.100000)"
fill="#000000" stroke="none">
<path d="M5415 7030 c-764 -27 -1535 -134 -1755 -243 -62 -31 -65 -34 -68 -72
-2 -22 1 -83 8 -135 62 -514 446 -2519 613 -3199 l23 -94 75 -18 c416 -100
1010 -111 1472 -28 158 28 331 71 339 83 20 29 197 821 337 1501 212 1035 332
1718 348 1972 l6 101 -49 25 c-171 86 -723 129 -1349 107z m905 -169 c167 -21
224 -33 207 -42 -44 -25 -420 -88 -709 -118 -550 -59 -1068 -72 -1563 -40
-153 10 -342 33 -352 43 -7 6 18 12 142 35 292 54 668 97 1055 121 96 6 200
12 230 14 118 7 910 -3 990 -13z m316 -198 c-3 -16 -10 -64 -16 -108 -42 -299
-129 -773 -291 -1580 -108 -536 -307 -1454 -327 -1506 -9 -23 -22 -28 -134
-53 -377 -83 -878 -99 -1272 -40 -158 23 -234 43 -240 62 -3 9 -34 152 -70
317 -173 797 -453 2282 -522 2769 l-7 49 27 -7 c54 -13 285 -45 406 -56 209
-18 714 -24 985 -11 551 26 1038 85 1320 160 144 38 148 38 141 4z"/>
<path d="M6186 6489 c-567 -97 -1368 -133 -1972 -88 -171 12 -171 12 -208 -10
-43 -27 -76 -86 -76 -137 0 -107 473 -2566 509 -2650 24 -54 72 -76 237 -108
315 -61 694 -56 1024 15 138 30 187 53 211 102 46 90 560 2612 559 2743 0 16
-9 48 -20 72 -15 33 -29 47 -62 62 -51 23 -62 23 -202 -1z m158 -105 c23 -22
21 -40 -33 -324 l-48 -255 -1073 0 -1073 0 -38 205 c-21 113 -39 219 -39 236
0 55 14 59 163 45 198 -19 776 -26 1032 -12 374 20 674 51 930 95 164 29 161
29 179 10z m-1133 -704 l1029 0 -4 -22 c-3 -13 -55 -270 -117 -573 -61 -302
-147 -719 -190 -925 -44 -206 -85 -401 -92 -434 -13 -71 -22 -78 -147 -104
-341 -74 -729 -74 -1067 -2 -91 20 -86 8 -158 370 -164 815 -326 1680 -319
1692 3 5 13 7 21 4 8 -3 478 -6 1044 -6z"/>
<path d="M4550 5462 c-20 -21 -30 -40 -30 -62 0 -102 111 -145 176 -67 21 26
25 38 21 70 -7 53 -34 78 -90 84 -41 5 -49 2 -77 -25z"/>
<path d="M5575 5456 c-60 -26 -73 -109 -26 -157 69 -68 187 -5 166 89 -13 61
-82 95 -140 68z"/>
<path d="M5113 5223 c-18 -7 -16 -48 3 -64 31 -26 70 25 44 56 -13 15 -25 17
-47 8z"/>
<path d="M4620 5027 c-25 -9 -40 -23 -54 -50 -16 -34 -17 -42 -4 -75 9 -26 25
-42 51 -55 44 -22 78 -17 112 18 32 31 40 68 25 106 -22 52 -74 75 -130 56z"/>
<path d="M5689 4841 c-81 -81 17 -210 120 -157 90 47 53 186 -49 186 -33 0
-48 -6 -71 -29z"/>
<path d="M5100 4570 c0 -16 5 -21 23 -18 12 2 22 10 22 18 0 8 -10 16 -22 18
-18 3 -23 -2 -23 -18z"/>
<path d="M4703 4495 c-32 -32 -35 -40 -30 -77 3 -22 14 -50 25 -60 10 -11 38
-22 60 -25 37 -5 45 -2 77 30 39 39 44 70 20 116 -14 28 -58 51 -97 51 -11 0
-36 -16 -55 -35z"/>
<path d="M5403 4435 c-26 -18 -32 -72 -11 -93 31 -31 108 2 108 46 0 46 -59
74 -97 47z"/>
<path d="M4884 4019 c-3 -6 1 -18 10 -27 15 -15 17 -15 32 0 19 19 11 38 -16
38 -10 0 -22 -5 -26 -11z"/>
<path d="M5235 4016 c-60 -26 -73 -109 -26 -157 62 -61 171 -16 171 71 0 37
-28 77 -61 89 -40 14 -47 13 -84 -3z"/>
</g>
</svg>
