<?xml version="1.0" standalone="no"?>
<!DOCTYPE svg PUBLIC "-//W3C//DTD SVG 20010904//EN"
 "http://www.w3.org/TR/2001/REC-SVG-20010904/DTD/svg10.dtd">
<svg version="1.0" xmlns="http://www.w3.org/2000/svg"
 width="1024.000000pt" height="1024.000000pt" viewBox="0 0 1024.000000 1024.000000"
 preserveAspectRatio="xMidYMid meet">
<metadata>
Created by potrace 1.16, written by Peter Selinger 2001-2019
</metadata>
<g transform="translate(0.000000,1024.000000) scale(0.100000,-0.100000)"
fill="#000000" stroke="none">
<path d="M4890 6714 c-19 -2 -78 -9 -130 -15 -350 -40 -715 -173 -991 -360
-381 -259 -631 -607 -726 -1008 -37 -158 -43 -419 -14 -589 62 -364 255 -689
563 -948 423 -354 1045 -540 1623 -484 940 92 1649 673 1786 1465 27 156 23
439 -9 576 -79 335 -262 640 -520 865 -282 245 -665 414 -1087 479 -97 15
-423 28 -495 19z m530 -162 c669 -121 1183 -512 1383 -1052 57 -153 80 -281
81 -452 1 -185 0 -187 -136 -238 -53 -20 -119 -51 -147 -69 -132 -85 -210
-238 -211 -411 0 -92 -76 -197 -160 -220 -19 -6 -102 -10 -185 -10 -132 0
-158 -3 -218 -24 -106 -38 -159 -84 -240 -211 -50 -78 -67 -79 -191 -15 -99
51 -108 53 -180 53 -64 0 -84 -4 -139 -31 -35 -17 -83 -47 -108 -65 -94 -72
-168 -95 -252 -77 -90 18 -138 56 -199 157 -103 171 -203 243 -349 251 -43 2
-99 -1 -126 -7 -137 -33 -172 -15 -223 115 -45 114 -103 176 -205 219 -38 16
-81 36 -94 44 -35 22 -51 71 -51 154 0 187 -87 331 -247 408 -85 40 -84 37
-52 192 39 195 98 335 214 507 161 239 368 419 655 568 224 117 507 203 761
231 144 16 487 6 619 -17z m-2231 -1616 c39 -21 100 -91 123 -144 13 -29 23
-80 27 -151 12 -172 42 -219 186 -286 114 -53 144 -84 183 -189 25 -65 42 -93
76 -124 71 -65 127 -73 301 -42 134 24 214 -21 306 -170 70 -115 117 -160 208
-204 60 -28 75 -31 166 -31 118 0 164 17 297 112 72 50 89 57 137 61 51 3 65
-1 154 -47 85 -44 107 -51 155 -51 80 0 126 29 183 113 62 92 103 132 163 159
47 21 65 23 216 23 148 1 171 3 222 24 75 29 159 106 194 177 20 41 30 84 40
174 15 139 33 181 106 251 54 52 218 131 218 105 0 -23 -69 -204 -106 -277
-91 -183 -190 -316 -341 -459 -126 -120 -254 -208 -433 -298 -213 -107 -402
-166 -655 -204 -136 -20 -512 -17 -645 5 -424 72 -796 249 -1064 506 -280 270
-423 557 -460 924 -7 62 -3 66 43 43z"/>
<path d="M5135 6328 c-72 -39 -51 -138 32 -154 27 -5 37 -1 63 24 16 17 30 40
30 51 0 67 -68 111 -125 79z"/>
<path d="M5563 6257 c-67 -68 -83 -89 -83 -114 0 -38 30 -66 71 -66 26 0 46
14 115 85 67 68 84 91 84 115 0 38 -28 63 -70 63 -29 0 -46 -12 -117 -83z"/>
<path d="M4212 6227 c-12 -13 -22 -30 -22 -38 0 -38 82 -305 97 -316 39 -30
113 0 113 45 0 44 -79 307 -96 319 -27 20 -68 16 -92 -10z"/>
<path d="M4937 5895 c-429 -70 -705 -374 -633 -697 39 -174 186 -327 402 -418
125 -52 213 -70 374 -77 124 -4 160 -2 250 17 324 66 546 252 591 495 46 244
-121 496 -406 614 -163 68 -401 95 -578 66z m345 -139 c160 -31 326 -119 413
-218 48 -55 87 -139 93 -200 5 -53 -7 -62 -31 -24 -25 38 -158 121 -249 156
-128 50 -242 70 -399 70 -259 0 -457 -61 -618 -191 -34 -27 -63 -49 -65 -49
-1 0 0 22 5 49 22 140 156 283 338 360 134 57 356 77 513 47z m69 -380 c108
-27 176 -58 265 -122 66 -46 124 -111 124 -138 0 -9 -29 -45 -64 -81 -71 -71
-201 -141 -311 -169 -143 -36 -335 -37 -480 -1 -150 36 -317 137 -385 231 -29
41 -30 45 -15 66 8 13 48 49 87 80 189 151 502 205 779 134z"/>
<path d="M3795 5815 c-65 -64 11 -163 100 -129 25 10 47 62 40 95 -13 60 -95
80 -140 34z"/>
<path d="M6076 5819 c-29 -23 -36 -78 -13 -97 7 -6 84 -34 172 -62 130 -43
162 -50 182 -41 47 21 56 98 14 120 -20 11 -305 101 -319 101 -5 0 -21 -9 -36
-21z"/>
<path d="M3546 5448 c-30 -42 -20 -63 81 -173 117 -127 152 -142 195 -84 30
39 16 66 -89 178 -88 94 -97 101 -133 101 -29 0 -43 -6 -54 -22z"/>
<path d="M6348 5178 c-30 -24 -227 -258 -233 -278 -15 -46 37 -94 88 -82 24 6
245 264 253 296 12 50 -66 97 -108 64z"/>
<path d="M3983 4888 c-30 -15 -46 -63 -30 -93 16 -30 226 -203 256 -212 49
-13 96 38 83 89 -6 23 -235 216 -264 222 -13 3 -33 0 -45 -6z"/>
<path d="M6061 4559 c-81 -32 -58 -159 29 -159 82 0 112 118 39 155 -32 17
-35 17 -68 4z"/>
<path d="M3945 4538 c-31 -17 -45 -39 -45 -74 0 -49 30 -79 80 -79 49 0 80 29
80 75 0 42 -9 59 -41 75 -33 18 -47 18 -74 3z"/>
<path d="M5260 4520 c-43 -43 -13 -103 57 -116 21 -3 86 -17 145 -30 59 -13
118 -24 131 -24 30 0 67 39 67 72 0 43 -32 60 -173 89 -161 34 -200 36 -227 9z"/>
<path d="M4695 4489 c-34 -28 -32 -47 24 -194 54 -141 89 -171 149 -129 32 22
28 56 -19 186 -56 152 -92 185 -154 137z"/>
</g>
</svg>
