<?xml version="1.0" standalone="no"?>
<!DOCTYPE svg PUBLIC "-//W3C//DTD SVG 20010904//EN"
 "http://www.w3.org/TR/2001/REC-SVG-20010904/DTD/svg10.dtd">
<svg version="1.0" xmlns="http://www.w3.org/2000/svg"
 width="1024.000000pt" height="1024.000000pt" viewBox="0 0 1024.000000 1024.000000"
 preserveAspectRatio="xMidYMid meet">
<metadata>
Created by potrace 1.16, written by Peter Selinger 2001-2019
</metadata>
<g transform="translate(0.000000,1024.000000) scale(0.100000,-0.100000)"
fill="#000000" stroke="none">
<path d="M3480 8663 c-221 -33 -413 -89 -560 -163 -275 -138 -514 -363 -663
-625 -102 -179 -167 -389 -188 -609 -30 -312 56 -652 215 -845 57 -69 91 -91
142 -91 38 0 63 15 260 156 334 238 375 266 379 262 2 -2 11 -96 20 -208 37
-476 161 -1555 270 -2355 8 -60 31 -229 50 -375 70 -537 166 -1171 211 -1404
56 -289 109 -384 245 -440 75 -31 319 -49 929 -68 415 -12 953 -2 1398 27 293
20 329 28 408 97 72 63 106 144 149 353 128 624 374 2513 505 3885 69 726 85
1044 56 1114 -16 40 -65 79 -121 97 -32 11 -332 15 -1529 19 l-1489 5 149 131
c82 71 193 168 247 214 131 111 142 143 86 253 -150 296 -446 506 -794 562
-81 13 -309 18 -375 8z m336 -138 c123 -20 213 -49 314 -101 163 -84 312 -225
383 -362 l32 -63 -30 -25 c-16 -14 -45 -37 -62 -51 l-33 -25 -46 51 c-98 109
-292 230 -455 285 -207 70 -468 73 -689 9 -92 -27 -225 -88 -312 -145 -491
-320 -676 -986 -418 -1498 16 -33 30 -61 30 -64 0 -7 -89 -66 -99 -66 -21 0
-87 90 -127 174 -68 141 -95 260 -101 447 -4 121 -2 180 12 260 95 572 533
1025 1111 1149 197 42 341 49 490 25z m-223 -372 c2 -5 -4 -132 -13 -283 -10
-151 -21 -335 -25 -408 -5 -95 -11 -137 -22 -147 -8 -8 -17 -15 -21 -15 -19 2
-796 407 -799 417 -7 21 207 226 289 277 165 102 351 159 530 164 31 1 59 -1
61 -5z m237 -33 c159 -43 352 -162 457 -280 l32 -36 -227 -194 c-124 -107
-251 -218 -282 -247 -56 -52 -56 -52 -94 -41 l-38 12 6 65 c3 36 13 185 21
331 20 359 25 410 39 410 6 0 45 -9 86 -20z m-1164 -539 c5 -4 171 -90 369
-191 198 -100 361 -184 363 -185 2 -1 -6 -18 -18 -37 -14 -25 -114 -102 -343
-265 -387 -276 -382 -273 -396 -273 -11 0 -49 77 -74 151 -38 110 -50 207 -44
358 5 161 27 265 80 384 29 64 42 77 63 58z m4484 -246 c17 -9 33 -27 37 -43
19 -78 -95 -1350 -197 -2192 -181 -1493 -280 -2207 -371 -2670 -51 -259 -90
-329 -194 -349 -162 -32 -826 -54 -1404 -48 -686 8 -1075 30 -1135 65 -64 38
-94 112 -140 347 -100 509 -400 2772 -490 3695 -36 365 -59 677 -52 695 5 13
10 14 27 4 12 -6 45 -9 74 -7 l53 4 6 -80 c27 -333 71 -723 161 -1441 129
-1028 185 -1503 225 -1890 66 -648 98 -781 216 -885 100 -87 270 -137 564
-165 505 -47 1073 -37 1515 26 220 32 347 87 415 181 53 73 62 123 125 698 41
369 112 964 249 2070 121 971 137 1123 177 1653 11 148 11 149 -12 173 -28 30
-63 31 -93 1 -20 -20 -24 -36 -30 -142 -7 -136 -49 -619 -67 -771 l-12 -102
-941 -6 c-517 -4 -1247 -3 -1621 1 l-680 8 -12 115 c-29 271 -65 728 -60 767
5 49 44 106 87 128 37 19 78 19 147 -1 64 -19 123 -14 188 15 50 22 130 92
151 133 l15 28 1525 0 c1344 0 1528 -2 1554 -15z m-370 -1319 c0 -5 -29 -243
-66 -530 -36 -286 -78 -631 -95 -766 -16 -135 -52 -427 -79 -650 -27 -223 -68
-574 -90 -780 -64 -585 -67 -600 -132 -655 -77 -65 -164 -89 -433 -119 -595
-67 -1502 -33 -1722 64 -191 84 -203 125 -298 1030 -35 329 -103 904 -170
1435 -19 149 -52 414 -74 590 -23 176 -43 336 -46 355 l-4 35 1604 0 c910 0
1605 -4 1605 -9z"/>
</g>
</svg>
