<?xml version="1.0" standalone="no"?>
<!DOCTYPE svg PUBLIC "-//W3C//DTD SVG 20010904//EN"
 "http://www.w3.org/TR/2001/REC-SVG-20010904/DTD/svg10.dtd">
<svg version="1.0" xmlns="http://www.w3.org/2000/svg"
 width="1024.000000pt" height="1024.000000pt" viewBox="0 0 1024.000000 1024.000000"
 preserveAspectRatio="xMidYMid meet">
<metadata>
Created by potrace 1.16, written by Peter Selinger 2001-2019
</metadata>
<g transform="translate(0.000000,1024.000000) scale(0.100000,-0.100000)"
fill="#000000" stroke="none">
<path d="M5895 8089 c-212 -29 -377 -109 -503 -243 -58 -63 -142 -207 -142
-245 0 -41 -16 -25 -56 57 -23 48 -64 111 -89 140 -96 108 -253 197 -415 233
-116 27 -362 32 -480 10 -97 -17 -195 -48 -208 -64 -18 -21 12 -118 78 -253
154 -316 392 -488 708 -511 45 -3 80 -8 77 -11 -3 -3 -47 -20 -99 -37 -296
-99 -538 -344 -647 -655 -34 -97 -57 -201 -83 -380 -52 -351 -97 -473 -336
-909 -72 -132 -158 -298 -190 -369 -112 -248 -191 -511 -221 -739 -17 -135 -7
-440 20 -566 152 -704 715 -1179 1526 -1288 133 -18 457 -15 590 6 273 42 522
132 739 268 655 409 988 1287 780 2057 -65 240 -156 429 -369 765 -150 236
-264 452 -308 585 -35 103 -54 201 -77 397 -21 181 -44 278 -89 378 -61 135
-168 256 -303 345 -83 56 -220 120 -253 120 -9 0 -13 5 -10 10 3 6 21 10 39
10 48 0 196 45 269 81 136 68 266 185 349 313 81 124 178 357 178 425 0 27 -5
31 -38 41 -124 33 -316 46 -437 29z m320 -141 c8 -8 -69 -175 -120 -258 -78
-129 -177 -221 -301 -282 -112 -54 -208 -78 -341 -85 l-113 -6 6 64 c10 114
25 172 64 254 75 156 223 264 424 310 63 14 367 17 381 3z m-1545 -49 c186
-47 332 -155 402 -299 35 -72 65 -188 54 -215 -7 -19 -158 -40 -276 -38 -239
3 -420 94 -560 284 -59 80 -145 243 -136 258 5 8 56 17 201 35 60 8 242 -7
315 -25z m690 -810 c183 -28 358 -115 485 -243 144 -144 189 -267 230 -623 36
-316 121 -523 385 -938 160 -251 207 -335 264 -467 120 -282 167 -550 145
-831 -40 -537 -323 -1039 -741 -1320 -152 -103 -375 -198 -565 -242 -201 -47
-512 -59 -745 -29 -646 84 -1151 468 -1332 1014 -52 157 -66 239 -73 413 -15
403 93 768 380 1286 260 470 312 608 366 961 37 245 54 318 97 428 91 231 273
423 492 518 190 82 394 106 612 73z"/>
<path d="M4075 4196 c-66 -29 -111 -114 -102 -192 14 -127 160 -199 273 -135
125 71 117 273 -13 327 -41 18 -119 17 -158 0z"/>
<path d="M5904 4091 c-104 -65 -126 -206 -46 -290 96 -101 257 -68 308 64 29
77 1 167 -69 219 -41 30 -151 34 -193 7z"/>
<path d="M4536 3758 c-22 -30 -20 -54 8 -138 94 -277 380 -446 658 -389 189
39 374 211 423 394 17 60 17 66 1 90 -12 19 -25 25 -51 25 -40 0 -61 -18 -70
-62 -22 -101 -136 -237 -240 -284 -193 -89 -428 -17 -546 167 -17 27 -42 84
-55 126 -13 42 -29 80 -36 85 -26 16 -76 9 -92 -14z"/>
<path d="M3861 3756 c-69 -38 -67 -162 4 -194 49 -23 94 -15 131 22 37 37 45
85 23 129 -27 54 -102 74 -158 43z"/>
<path d="M6125 3623 c-31 -8 -64 -44 -76 -83 -33 -108 99 -183 182 -104 38 36
46 82 23 129 -23 50 -72 72 -129 58z"/>
</g>
</svg>
