<?xml version="1.0" standalone="no"?>
<!DOCTYPE svg PUBLIC "-//W3C//DTD SVG 20010904//EN"
 "http://www.w3.org/TR/2001/REC-SVG-20010904/DTD/svg10.dtd">
<svg version="1.0" xmlns="http://www.w3.org/2000/svg"
 width="1024.000000pt" height="1024.000000pt" viewBox="0 0 1024.000000 1024.000000"
 preserveAspectRatio="xMidYMid meet">
<metadata>
Created by potrace 1.16, written by Peter Selinger 2001-2019
</metadata>
<g transform="translate(0.000000,1024.000000) scale(0.100000,-0.100000)"
fill="#000000" stroke="none">
<path d="M4605 7305 c-531 -54 -941 -199 -1282 -453 -117 -88 -292 -266 -375
-383 -82 -115 -197 -341 -238 -467 -66 -207 -90 -382 -90 -674 0 -218 9 -350
65 -933 85 -879 124 -1178 185 -1411 84 -324 207 -414 625 -456 164 -16 1001
-16 1475 1 1381 48 1984 89 2182 147 29 9 84 32 121 51 215 113 256 315 243
1213 -16 1224 -81 1878 -223 2260 -134 359 -338 588 -693 778 -337 180 -715
287 -1160 328 -192 17 -655 17 -835 -1z m860 -91 c493 -48 914 -187 1256 -415
461 -307 614 -735 678 -1894 36 -638 39 -1582 6 -1784 -23 -148 -47 -206 -110
-267 -56 -56 -119 -85 -236 -109 -204 -43 -881 -85 -2029 -126 -471 -17 -1416
-17 -1555 -1 -270 32 -371 75 -442 186 -98 153 -153 488 -253 1541 -27 292
-52 553 -55 580 -16 142 -23 434 -15 575 15 245 54 417 136 608 238 549 743
923 1435 1061 327 65 794 83 1184 45z"/>
<path d="M5040 6954 c-153 -23 -271 -77 -370 -170 -38 -36 -83 -89 -101 -117
-18 -29 -34 -54 -35 -56 -2 -2 -22 6 -46 18 -164 79 -379 79 -545 0 -81 -38
-194 -146 -236 -226 -42 -79 -67 -191 -67 -303 l0 -96 -42 -24 c-63 -35 -150
-130 -190 -207 -84 -160 -96 -314 -38 -482 24 -68 100 -181 148 -221 l35 -29
-18 -43 c-21 -54 -45 -176 -45 -231 0 -65 27 -174 58 -241 37 -78 110 -158
191 -211 l65 -42 -3 -59 c-3 -79 22 -193 56 -256 100 -184 333 -267 573 -203
75 20 74 20 89 -22 37 -104 149 -235 254 -297 26 -15 84 -36 129 -48 145 -36
290 -11 423 73 67 42 174 149 200 199 9 17 19 30 23 30 4 0 43 -12 87 -27 106
-35 297 -44 395 -19 219 55 358 191 427 412 14 47 18 90 17 219 -1 146 -3 168
-28 245 -54 167 -52 155 -30 207 16 41 32 57 100 103 98 67 146 109 196 169
147 178 177 416 76 621 -38 78 -129 172 -209 218 l-56 32 19 67 c26 88 28 243
5 332 -92 347 -465 518 -840 384 -48 -17 -49 -17 -63 2 -82 113 -199 212 -301
254 -92 37 -222 57 -303 45z m179 -99 c135 -32 268 -128 357 -260 48 -71 49
-71 179 -24 214 76 435 38 574 -100 73 -72 107 -132 133 -234 25 -99 21 -208
-12 -304 -33 -95 -27 -112 50 -152 75 -40 177 -137 209 -198 50 -99 64 -229
36 -338 -34 -128 -117 -233 -266 -335 -101 -70 -141 -120 -159 -202 -9 -46 -7
-59 24 -157 46 -142 61 -263 46 -369 -10 -78 -35 -164 -60 -214 -30 -56 -97
-131 -152 -168 -156 -104 -361 -115 -576 -29 -91 35 -99 33 -127 -25 -46 -97
-177 -216 -283 -257 -77 -31 -233 -33 -307 -5 -65 24 -165 95 -203 143 -33 43
-102 175 -102 197 0 7 -8 24 -19 37 l-18 23 -91 -28 c-161 -49 -261 -45 -381
15 -70 35 -114 81 -150 159 -24 50 -26 67 -26 180 l-1 125 -61 31 c-89 44
-130 79 -174 147 -96 148 -104 323 -23 495 15 31 22 58 17 66 -4 8 -32 32 -61
55 -133 105 -200 305 -158 471 9 36 28 89 43 119 33 68 133 170 199 204 28 14
54 33 57 41 3 8 2 43 -4 77 -12 73 1 181 31 262 70 187 237 297 450 297 92 0
171 -19 268 -65 40 -19 79 -32 87 -29 8 3 31 35 51 71 120 215 373 332 603
278z"/>
<path d="M4955 6119 c-289 -42 -534 -226 -665 -500 -203 -426 -40 -939 370
-1162 141 -77 261 -107 431 -107 492 -1 879 396 879 900 0 93 -26 234 -59 320
-143 377 -545 608 -956 549z m311 -99 c161 -38 284 -110 403 -236 141 -149
211 -327 211 -538 0 -284 -129 -527 -361 -681 -235 -157 -546 -171 -803 -37
-73 37 -110 66 -187 142 -85 84 -102 107 -147 200 -62 125 -81 193 -89 320
-25 398 242 748 637 836 88 19 243 17 336 -6z"/>
<path d="M4566 5628 c-24 -38 -71 -258 -59 -277 13 -21 47 -26 61 -9 12 14 72
239 72 269 0 17 -27 39 -49 39 -6 0 -17 -10 -25 -22z"/>
<path d="M4824 5526 c-3 -9 -3 -27 0 -40 5 -20 13 -24 67 -30 126 -13 159 -5
159 35 0 30 -28 40 -124 46 -83 5 -96 4 -102 -11z"/>
<path d="M4737 5293 c-21 -20 -2 -55 63 -117 74 -69 80 -72 111 -56 37 21 23
54 -52 119 -65 56 -103 73 -122 54z"/>
<path d="M6827 6392 c-35 -39 -9 -102 41 -102 29 0 62 34 62 63 0 50 -70 76
-103 39z"/>
<path d="M3196 6284 c-22 -21 -20 -60 4 -84 24 -24 48 -25 78 -4 25 17 31 71
10 92 -17 17 -74 15 -92 -4z"/>
<path d="M2832 5808 c-17 -22 -43 -162 -40 -214 3 -47 4 -49 32 -49 33 0 32
-4 61 153 9 51 14 99 11 107 -7 18 -50 20 -64 3z"/>
<path d="M2802 5368 c-8 -8 -12 -54 -12 -139 0 -103 3 -131 16 -143 8 -9 19
-16 24 -16 5 0 16 7 24 16 13 12 16 40 16 143 0 129 -6 151 -40 151 -9 0 -21
-5 -28 -12z"/>
<path d="M2820 4906 c-9 -12 -9 -41 0 -133 13 -122 20 -143 50 -143 37 0 41
21 29 146 -7 66 -16 125 -22 132 -13 16 -42 15 -57 -2z"/>
<path d="M2860 4455 c-10 -12 -10 -44 -3 -141 8 -105 13 -129 28 -140 26 -19
32 -18 48 9 12 18 12 42 2 146 -12 120 -19 140 -51 141 -6 0 -17 -7 -24 -15z"/>
<path d="M2913 4033 c-25 -10 -5 -241 23 -264 17 -14 52 -3 56 19 4 22 -19
229 -27 242 -6 10 -31 12 -52 3z"/>
<path d="M6672 3754 c-25 -17 -31 -71 -10 -92 21 -21 75 -15 92 10 21 30 20
54 -4 78 -24 24 -48 25 -78 4z"/>
<path d="M2950 3665 c-10 -12 -10 -35 0 -113 16 -126 44 -171 80 -127 9 11 9
37 0 122 -7 60 -17 114 -23 121 -13 17 -42 15 -57 -3z"/>
<path d="M3492 3494 c-29 -20 -31 -79 -3 -94 49 -26 101 1 101 53 0 27 -32 57
-60 57 -9 0 -26 -7 -38 -16z"/>
<path d="M3000 3352 c-8 -3 -18 -10 -22 -16 -10 -15 1 -86 18 -113 33 -53 78
-6 64 67 -5 25 -9 48 -10 51 0 10 -33 16 -50 11z"/>
<path d="M3021 3102 c-13 -25 12 -142 35 -159 12 -9 22 -9 37 -2 17 10 19 18
13 71 -10 85 -21 108 -50 108 -14 0 -30 -8 -35 -18z"/>
<path d="M6650 2840 c-16 -16 -18 -24 -10 -40 9 -17 21 -20 84 -20 80 0 100
11 94 52 -3 21 -8 23 -75 26 -62 2 -75 0 -93 -18z"/>
<path d="M6386 2831 c-55 -7 -78 -29 -60 -58 13 -21 84 -29 136 -15 36 9 49
41 28 68 -13 14 -21 15 -104 5z"/>
<path d="M6108 2823 c-63 -4 -83 -20 -74 -58 6 -24 10 -25 76 -25 57 0 74 4
90 20 11 11 20 24 20 29 0 10 -41 42 -50 39 -3 -1 -31 -3 -62 -5z"/>
<path d="M5736 2787 c-11 -8 -17 -22 -14 -38 3 -22 8 -24 70 -27 82 -4 110 9
106 46 -3 26 -5 27 -73 30 -47 2 -76 -2 -89 -11z"/>
</g>
</svg>
