<?xml version="1.0" standalone="no"?>
<!DOCTYPE svg PUBLIC "-//W3C//DTD SVG 20010904//EN"
 "http://www.w3.org/TR/2001/REC-SVG-20010904/DTD/svg10.dtd">
<svg version="1.0" xmlns="http://www.w3.org/2000/svg"
 width="1024.000000pt" height="1024.000000pt" viewBox="0 0 1024.000000 1024.000000"
 preserveAspectRatio="xMidYMid meet">
<metadata>
Created by potrace 1.16, written by Peter Selinger 2001-2019
</metadata>
<g transform="translate(0.000000,1024.000000) scale(0.100000,-0.100000)"
fill="#000000" stroke="none">
<path d="M5235 7309 c-722 -92 -1543 -885 -1854 -1791 -89 -260 -101 -480 -40
-717 23 -86 79 -222 121 -295 16 -27 27 -51 24 -53 -3 -3 -47 -12 -98 -19
-194 -29 -382 -100 -483 -184 -62 -52 -120 -135 -140 -203 -24 -78 -38 -276
-31 -427 11 -233 45 -338 142 -440 125 -131 344 -241 617 -310 393 -99 850
-50 1139 122 197 117 242 211 269 556 8 114 8 176 0 245 -6 50 -13 101 -14
111 -1 13 6 21 23 26 49 14 187 89 240 131 330 259 841 1031 1073 1621 106
269 150 474 150 698 0 135 -3 168 -26 252 -100 375 -409 625 -837 678 -97 12
-175 11 -275 -1z m390 -148 c44 -11 131 -46 193 -77 234 -117 383 -314 422
-557 63 -393 -172 -1025 -647 -1739 -68 -104 -127 -188 -131 -188 -4 0 -5 55
-4 123 18 628 -485 1180 -1137 1246 -209 22 -456 -28 -614 -123 -31 -19 -57
-30 -57 -23 0 6 28 58 62 116 283 487 683 888 1094 1098 157 80 160 76 41 -37
-59 -56 -112 -111 -117 -121 -23 -42 32 -96 74 -72 8 5 90 75 181 157 143 128
166 152 163 175 -3 24 1 27 57 38 92 18 322 10 420 -16z m-1255 -1321 c369
-58 721 -328 872 -672 65 -147 90 -262 90 -413 0 -155 -20 -245 -83 -375 -71
-145 -224 -277 -387 -334 l-39 -14 -54 55 c-65 66 -201 159 -305 208 -206 98
-510 165 -746 165 l-74 0 -41 63 c-57 87 -86 148 -121 253 -41 123 -56 232
-49 373 9 206 62 352 166 464 115 123 234 181 466 230 40 9 242 7 305 -3z
m-420 -1515 c281 -40 534 -147 688 -290 99 -91 132 -179 98 -258 -49 -114
-220 -205 -477 -254 -130 -24 -462 -24 -604 0 -392 68 -681 214 -751 382 -20
48 -18 119 6 164 62 122 295 229 565 259 128 15 361 13 475 -3z m-1070 -605
c0 -19 154 -123 250 -169 183 -87 370 -137 620 -165 170 -20 287 -20 437 -1
217 28 382 83 513 170 39 26 74 45 77 41 9 -9 -24 -253 -42 -314 -40 -132
-224 -244 -496 -304 -90 -19 -134 -22 -324 -23 -234 0 -284 6 -471 60 -199 58
-369 144 -465 237 -84 81 -111 164 -123 390 -5 83 -3 96 9 92 8 -4 15 -10 15
-14z"/>
<path d="M5578 6961 c-25 -20 -144 -205 -199 -310 -30 -58 -31 -61 -15 -86 21
-32 65 -33 93 -2 36 38 213 341 213 364 0 21 -33 53 -56 53 -6 0 -22 -9 -36
-19z"/>
<path d="M4768 6608 c-102 -104 -158 -170 -158 -183 0 -35 24 -58 61 -58 29 0
45 12 132 104 197 208 220 244 181 283 -34 35 -55 21 -216 -146z"/>
<path d="M5908 6628 c-16 -13 -75 -152 -154 -362 -42 -111 -44 -119 -29 -142
19 -30 65 -32 90 -5 21 24 184 437 185 468 0 44 -56 69 -92 41z"/>
<path d="M4298 6583 c-32 -36 -113 -147 -212 -292 -63 -94 -76 -119 -71 -140
8 -31 21 -41 57 -41 17 0 33 9 43 23 173 239 270 378 282 401 36 68 -44 108
-99 49z"/>
<path d="M4882 6373 c-13 -5 -163 -225 -175 -256 -9 -23 12 -65 36 -73 31 -10
58 12 113 89 99 142 124 203 92 235 -12 12 -43 15 -66 5z"/>
<path d="M5258 6338 c-24 -19 -218 -379 -218 -405 0 -23 34 -53 60 -53 9 0 27
11 39 24 32 34 211 367 211 393 0 23 -34 53 -60 53 -9 0 -24 -6 -32 -12z"/>
<path d="M6088 6223 c-9 -10 -33 -67 -53 -126 -34 -102 -36 -110 -21 -133 20
-29 65 -33 88 -6 18 20 78 201 78 235 0 13 -5 28 -12 35 -18 18 -63 15 -80 -5z"/>
<path d="M5446 5894 c-19 -19 -86 -229 -86 -270 0 -36 16 -54 49 -54 40 0 59
27 91 128 41 127 47 174 25 195 -21 21 -59 22 -79 1z"/>
<path d="M5875 5679 c-29 -14 -215 -307 -215 -339 0 -55 59 -69 102 -22 27 29
144 205 172 259 17 34 21 71 8 89 -11 17 -45 24 -67 13z"/>
<path d="M5632 5217 c-26 -31 -43 -87 -32 -107 13 -24 44 -34 68 -21 26 14 54
75 50 109 -3 23 -8 27 -39 30 -21 2 -40 -2 -47 -11z"/>
<path d="M4082 5699 c-81 -14 -205 -66 -270 -113 -103 -76 -192 -211 -226
-343 -21 -79 -21 -257 -1 -343 21 -88 88 -220 142 -280 45 -50 69 -60 91 -38
21 21 13 53 -29 109 -84 110 -129 244 -129 384 0 233 128 421 345 505 52 21
78 24 200 24 119 1 151 -2 215 -22 219 -68 402 -223 503 -427 51 -101 68 -167
74 -282 12 -222 -69 -397 -237 -507 -53 -35 -70 -52 -70 -69 0 -54 42 -60 115
-18 284 163 374 587 198 934 -171 339 -563 546 -921 486z"/>
<path d="M3669 4260 c-267 -32 -446 -154 -466 -320 -5 -43 -3 -49 20 -65 38
-25 67 -6 67 44 0 40 31 96 73 133 41 35 161 87 242 104 60 12 112 15 215 11
219 -8 409 -68 509 -162 39 -36 56 -46 78 -43 24 3 28 8 31 36 3 29 -3 40 -40
74 -95 88 -314 167 -517 188 -112 11 -115 11 -212 0z"/>
<path d="M3027 3392 c-28 -31 -20 -57 31 -100 114 -96 159 -112 187 -68 15 22
15 27 1 54 -17 33 -156 132 -185 132 -10 0 -25 -8 -34 -18z"/>
<path d="M4298 3301 c-47 -10 -68 -27 -68 -57 0 -38 26 -54 83 -53 87 1 140
20 151 52 16 46 -1 62 -70 64 -32 0 -76 -2 -96 -6z"/>
<path d="M3646 3231 c-25 -27 -16 -62 20 -86 16 -11 79 -43 138 -70 102 -46
109 -48 134 -34 31 17 40 52 20 76 -17 22 -247 133 -274 133 -11 0 -29 -9 -38
-19z"/>
<path d="M6396 4370 c-31 -10 -76 -47 -76 -64 -1 -34 -17 -36 -76 -9 -164 75
-448 21 -685 -132 -184 -119 -379 -371 -379 -491 0 -40 5 -51 34 -79 69 -65
292 -156 468 -190 46 -9 123 -18 171 -19 l88 -3 36 -59 c47 -79 78 -110 130
-130 57 -22 121 -14 209 26 53 24 87 50 154 118 75 76 93 102 143 202 72 147
87 206 94 360 8 194 -35 329 -132 419 -58 53 -116 70 -179 51z m94 -136 c148
-125 128 -493 -39 -731 -80 -113 -175 -184 -269 -199 -45 -7 -56 4 -110 112
l-31 61 45 44 c155 150 279 390 329 634 25 123 24 122 75 79z m-265 -59 l64
-35 -15 -53 c-44 -149 -127 -300 -242 -438 -118 -140 -141 -158 -194 -152 -92
10 -207 34 -283 59 -106 34 -265 111 -265 128 0 25 103 169 175 245 115 121
248 204 402 251 168 51 261 49 358 -5z"/>
</g>
</svg>
