<?xml version="1.0" standalone="no"?>
<!DOCTYPE svg PUBLIC "-//W3C//DTD SVG 20010904//EN"
 "http://www.w3.org/TR/2001/REC-SVG-20010904/DTD/svg10.dtd">
<svg version="1.0" xmlns="http://www.w3.org/2000/svg"
 width="1024.000000pt" height="1024.000000pt" viewBox="0 0 1024.000000 1024.000000"
 preserveAspectRatio="xMidYMid meet">
<metadata>
Created by potrace 1.16, written by Peter Selinger 2001-2019
</metadata>
<g transform="translate(0.000000,1024.000000) scale(0.100000,-0.100000)"
fill="#000000" stroke="none">
<path d="M4825 6649 c-659 -53 -1124 -166 -1281 -311 -53 -49 -64 -72 -98
-208 -81 -322 -81 -735 0 -1099 127 -567 448 -1025 894 -1276 248 -139 498
-205 780 -205 216 0 385 34 592 118 326 133 640 412 819 728 l29 50 123 31
c306 76 606 241 812 448 106 106 174 198 235 320 72 144 85 201 85 375 -1 134
-3 150 -28 214 -62 157 -182 270 -341 323 -70 23 -98 26 -206 26 -109 0 -136
-3 -210 -27 -82 -27 -203 -86 -215 -106 -13 -22 -22 -7 -35 58 -16 80 -55 202
-81 253 -25 50 -66 82 -163 129 -130 63 -370 117 -671 151 -125 14 -892 20
-1040 8z m885 -160 c367 -25 699 -93 785 -161 l26 -20 -22 -24 c-30 -32 -156
-80 -318 -120 -536 -133 -1409 -176 -2016 -98 -317 40 -529 106 -509 157 11
31 144 87 305 130 465 125 1145 178 1749 136z m919 -451 c11 -62 26 -160 32
-218 16 -147 5 -493 -20 -635 -124 -710 -525 -1224 -1100 -1409 -167 -54 -285
-70 -470 -63 -286 10 -506 82 -754 247 -441 294 -726 844 -766 1478 -10 151
-1 374 19 512 16 107 14 105 52 82 73 -45 293 -98 523 -127 233 -29 403 -38
715 -37 727 1 1440 109 1685 256 22 13 45 25 51 25 7 1 20 -44 33 -111z m719
-23 c89 -21 150 -55 205 -114 74 -79 100 -145 105 -266 5 -119 -11 -193 -68
-310 -137 -286 -448 -530 -838 -660 -46 -15 -85 -25 -88 -22 -3 3 7 41 21 85
l26 80 41 6 c61 10 231 79 323 131 283 162 459 394 472 625 6 108 -18 182 -82
245 -100 101 -287 113 -431 29 -56 -33 -138 -121 -166 -178 -12 -25 -25 -46
-28 -46 -4 0 -10 51 -13 112 l-7 113 43 37 c92 82 256 145 377 147 25 0 73 -6
108 -14z m-29 -295 c146 -74 51 -352 -184 -540 -41 -32 -107 -76 -148 -99 -77
-43 -206 -95 -214 -87 -3 2 3 40 11 83 9 43 19 110 23 150 l6 72 39 -2 c53 -2
72 22 93 118 9 44 29 104 43 133 75 153 220 229 331 172z"/>
<path d="M5175 6348 c-29 -16 -35 -28 -35 -69 0 -54 23 -69 108 -69 59 0 76 4
92 20 29 29 27 94 -2 114 -27 19 -133 21 -163 4z"/>
<path d="M5509 6331 c-33 -33 -35 -50 -14 -90 17 -34 33 -41 86 -41 52 0 89
35 89 84 0 74 -103 104 -161 47z"/>
<path d="M4723 6320 c-178 -20 -196 -29 -191 -93 2 -29 10 -45 29 -60 27 -19
28 -19 220 2 181 20 195 23 217 47 27 31 29 77 2 104 -25 25 -64 25 -277 0z"/>
<path d="M5421 5545 c-84 -24 -168 -74 -232 -138 -32 -33 -59 -64 -59 -68 0
-20 -26 -6 -79 44 -216 198 -513 175 -622 -50 -73 -152 -30 -351 121 -551 117
-156 522 -512 582 -512 21 0 57 25 145 103 320 281 484 485 548 682 24 73 27
95 23 177 -5 111 -30 171 -96 235 -77 75 -220 109 -331 78z m179 -167 c29 -15
53 -37 68 -63 20 -35 22 -51 19 -122 -3 -70 -9 -93 -41 -157 -20 -41 -64 -113
-98 -158 -62 -84 -256 -284 -360 -372 l-57 -48 -98 79 c-128 103 -292 261
-350 337 -155 207 -170 387 -38 464 33 19 50 22 101 19 108 -8 200 -75 288
-208 37 -58 45 -64 79 -67 48 -4 61 7 99 82 39 78 88 138 144 177 91 62 170
74 244 37z"/>
</g>
</svg>
