<?xml version="1.0" standalone="no"?>
<!DOCTYPE svg PUBLIC "-//W3C//DTD SVG 20010904//EN"
 "http://www.w3.org/TR/2001/REC-SVG-20010904/DTD/svg10.dtd">
<svg version="1.0" xmlns="http://www.w3.org/2000/svg"
 width="1024.000000pt" height="1024.000000pt" viewBox="0 0 1024.000000 1024.000000"
 preserveAspectRatio="xMidYMid meet">
<metadata>
Created by potrace 1.16, written by Peter Selinger 2001-2019
</metadata>
<g transform="translate(0.000000,1024.000000) scale(0.100000,-0.100000)"
fill="#000000" stroke="none">
<path d="M4950 7724 c-637 -55 -1196 -238 -1649 -538 -616 -409 -927 -988
-815 -1519 l14 -68 -49 -58 c-62 -75 -105 -151 -138 -243 -37 -106 -44 -290
-14 -407 25 -101 75 -206 135 -286 l44 -60 -24 -100 c-83 -344 35 -706 330
-1013 276 -287 650 -489 1151 -622 362 -96 720 -140 1145 -141 957 0 1773 272
2227 742 95 99 193 240 258 374 93 188 108 250 111 467 l4 178 44 54 c58 72
108 163 142 261 33 96 44 275 24 378 -17 87 -63 202 -109 270 l-38 58 24 77
c40 125 56 259 50 412 -9 205 -47 352 -147 555 -269 552 -813 945 -1565 1134
-278 69 -469 92 -820 96 -159 1 -310 1 -335 -1z m510 -214 c957 -68 1703 -478
2014 -1105 91 -183 130 -342 130 -520 -2 -371 -184 -649 -579 -886 -522 -313
-1454 -503 -2200 -449 -752 55 -1409 282 -1789 620 -162 143 -259 282 -318
451 -32 91 -33 99 -32 254 0 133 4 174 22 239 116 421 476 799 1007 1061 396
195 813 302 1325 338 104 8 285 6 420 -3z m-2851 -2167 c68 -150 311 -385 552
-534 703 -436 1831 -595 2829 -398 520 102 984 281 1292 499 91 64 260 221
312 290 30 40 33 38 68 -50 32 -82 32 -249 0 -342 -71 -204 -265 -383 -507
-466 -166 -56 -312 -67 -695 -48 -148 7 -186 6 -245 -8 -94 -22 -229 -91 -345
-176 -276 -201 -429 -265 -635 -263 -178 2 -280 37 -575 198 -242 132 -350
154 -639 129 -99 -8 -211 -12 -256 -8 -461 35 -921 249 -1131 527 -60 79 -119
204 -135 285 -14 75 -7 187 16 257 19 57 62 135 74 135 4 0 13 -12 20 -27z
m94 -1016 c24 -18 64 -46 89 -63 28 -18 50 -41 57 -60 21 -58 93 -158 158
-221 465 -450 1721 -693 2750 -534 691 108 1209 332 1463 635 57 67 76 83 154
122 50 24 92 44 94 44 10 0 -9 -129 -29 -200 -89 -325 -383 -642 -776 -839
-754 -377 -1915 -435 -2848 -142 -620 195 -1050 569 -1155 1006 -26 105 -28
285 -3 285 1 0 22 -15 46 -33z m3847 -253 c97 -10 192 -14 255 -10 l100 6 -25
-20 c-47 -37 -245 -139 -350 -180 -239 -95 -550 -174 -868 -220 -677 -98
-1547 2 -2122 244 -91 39 -273 137 -266 144 3 2 33 -5 68 -17 148 -49 253 -64
458 -65 107 0 256 3 330 7 185 12 240 -3 455 -122 281 -155 397 -196 596 -208
232 -14 450 53 682 211 54 36 139 95 191 130 84 57 174 97 246 109 50 8 98 7
250 -9z"/>
<path d="M5693 7221 c-49 -23 -73 -62 -73 -123 0 -104 96 -165 195 -124 67 28
96 126 59 197 -16 31 -81 69 -119 69 -11 0 -39 -9 -62 -19z"/>
<path d="M4340 7153 c-59 -40 -80 -104 -56 -168 40 -104 198 -113 248 -14 35
67 10 155 -52 186 -36 18 -111 16 -140 -4z"/>
<path d="M6631 6662 c-49 -24 -73 -61 -73 -113 -2 -111 99 -180 195 -134 101
48 103 201 4 248 -45 22 -83 21 -126 -1z"/>
<path d="M3485 6530 c-50 -25 -75 -65 -75 -122 0 -104 96 -165 195 -124 91 38
102 196 17 240 -51 26 -94 28 -137 6z"/>
<path d="M5026 6530 c-81 -25 -119 -122 -78 -199 52 -97 193 -91 245 9 55 106
-51 226 -167 190z"/>
<path d="M4063 5955 c-43 -19 -73 -69 -73 -123 0 -58 25 -98 78 -123 55 -27
101 -19 149 25 31 28 37 40 40 87 3 42 0 61 -17 87 -35 56 -111 76 -177 47z"/>
<path d="M5804 5886 c-17 -7 -40 -26 -52 -41 -83 -105 23 -258 151 -216 46 16
73 47 88 102 11 40 10 50 -7 84 -10 21 -31 47 -45 58 -34 24 -96 31 -135 13z"/>
<path d="M7013 5844 c-66 -33 -90 -136 -48 -201 24 -36 98 -66 143 -58 47 9
98 61 107 109 9 47 -17 121 -52 143 -35 23 -111 27 -150 7z"/>
<path d="M3095 5766 c-16 -7 -41 -26 -55 -41 -21 -22 -25 -37 -25 -85 0 -51 4
-63 30 -90 43 -45 93 -57 150 -36 60 23 89 65 89 128 0 33 -7 57 -20 76 -38
50 -116 73 -169 48z"/>
<path d="M4815 5220 c-108 -33 -128 -192 -32 -250 63 -39 150 -19 187 43 37
61 17 167 -37 195 -30 16 -86 22 -118 12z"/>
<path d="M5975 5205 c-77 -28 -111 -105 -79 -184 22 -55 77 -85 141 -78 96 11
153 123 103 204 -36 60 -98 82 -165 58z"/>
</g>
</svg>
