<?xml version="1.0" standalone="no"?>
<!DOCTYPE svg PUBLIC "-//W3C//DTD SVG 20010904//EN"
 "http://www.w3.org/TR/2001/REC-SVG-20010904/DTD/svg10.dtd">
<svg version="1.0" xmlns="http://www.w3.org/2000/svg"
 width="1024.000000pt" height="1024.000000pt" viewBox="0 0 1024.000000 1024.000000"
 preserveAspectRatio="xMidYMid meet">
<metadata>
Created by potrace 1.16, written by Peter Selinger 2001-2019
</metadata>
<g transform="translate(0.000000,1024.000000) scale(0.100000,-0.100000)"
fill="#000000" stroke="none">
<path d="M5465 7792 c-177 -62 -334 -198 -413 -359 -24 -49 -25 -52 -8 -77 11
-18 25 -26 44 -26 37 0 43 6 91 82 83 131 234 245 376 282 81 21 104 55 69
104 -21 30 -60 28 -159 -6z"/>
<path d="M4222 7494 c-25 -17 -31 -77 -10 -91 7 -4 51 -20 97 -36 183 -61 335
-207 401 -385 28 -73 36 -82 74 -82 63 0 71 40 31 146 -78 208 -244 364 -469
440 -82 28 -94 29 -124 8z"/>
<path d="M5660 7021 c-207 -45 -402 -163 -513 -311 -52 -68 -57 -90 -27 -120
37 -37 64 -26 129 51 101 120 245 212 401 255 51 15 102 19 239 19 166 0 174
1 188 21 18 28 8 71 -21 86 -12 7 -81 13 -166 15 -113 2 -164 -1 -230 -16z"/>
<path d="M4066 6494 c-9 -8 -16 -28 -16 -44 0 -44 31 -60 119 -60 41 0 104 -7
140 -16 89 -21 234 -93 301 -148 65 -55 113 -62 131 -22 19 40 3 72 -64 126
-80 66 -220 134 -327 160 -107 25 -261 28 -284 4z"/>
<path d="M5650 6327 c-149 -45 -310 -158 -310 -217 0 -36 24 -60 60 -60 20 0
45 15 84 48 85 75 220 132 311 132 46 0 75 25 75 65 0 24 -6 38 -19 45 -32 16
-120 11 -201 -13z"/>
<path d="M4600 5889 c-593 -29 -1100 -113 -1315 -219 -44 -21 -101 -48 -126
-58 -39 -17 -47 -25 -52 -53 -66 -377 -83 -570 -74 -834 32 -864 339 -1628
829 -2063 79 -70 262 -209 344 -260 82 -52 367 -100 721 -123 273 -17 637 7
899 60 85 18 98 23 194 92 236 169 426 358 573 569 l73 105 54 8 c350 51 625
170 850 368 155 136 281 339 337 544 25 90 28 116 28 260 0 137 -4 172 -23
240 -100 349 -382 605 -764 692 l-67 15 -6 66 c-4 37 -14 119 -23 182 l-17
115 -62 25 c-34 14 -70 33 -81 43 -21 19 -128 58 -243 87 -255 66 -648 116
-1084 140 -205 11 -734 11 -965 -1z m1140 -129 c432 -33 842 -101 1023 -170
31 -12 57 -25 57 -30 0 -29 -367 -112 -654 -150 -357 -46 -536 -55 -1076 -55
-603 0 -869 17 -1296 85 -205 32 -454 98 -454 120 0 11 98 45 210 74 254 66
610 112 1065 136 201 11 945 4 1125 -10z m-2395 -338 c575 -193 1854 -252
2825 -131 334 41 674 123 732 176 11 10 22 13 27 7 5 -5 16 -83 26 -174 9 -91
18 -173 21 -182 7 -23 37 -31 67 -17 57 26 327 -80 460 -181 127 -96 225 -233
277 -386 33 -94 34 -106 35 -244 0 -155 -12 -219 -62 -343 -66 -164 -200 -333
-358 -450 -102 -76 -292 -168 -425 -206 -136 -40 -269 -62 -323 -55 l-43 6
-48 -78 c-151 -245 -338 -439 -611 -634 -87 -63 -93 -65 -190 -82 -224 -38
-426 -50 -720 -45 -281 5 -395 16 -619 58 -118 22 -153 41 -338 180 -325 247
-581 620 -737 1073 -131 381 -186 712 -185 1126 0 226 8 326 40 530 21 130 18
125 56 96 18 -13 60 -33 93 -44z"/>
<path d="M6980 4594 c-6 -14 -10 -40 -10 -58 0 -130 -69 -486 -141 -725 -29
-97 -48 -175 -44 -188 6 -25 42 -39 73 -29 19 6 29 26 74 139 23 58 23 59 90
82 38 13 87 34 111 48 57 34 139 122 171 185 49 97 51 243 5 334 -31 62 -105
135 -165 164 -30 15 -54 30 -54 34 0 20 -34 40 -66 40 -28 0 -36 -5 -44 -26z
m161 -201 c62 -56 82 -103 77 -182 -4 -79 -36 -148 -90 -196 -39 -36 -116 -80
-125 -71 -3 2 6 58 20 123 14 65 33 173 43 241 10 67 22 122 26 122 4 0 26
-17 49 -37z"/>
<path d="M4052 4289 c-19 -6 -52 -29 -75 -52 -139 -139 -45 -368 150 -367 189
1 285 235 149 365 -61 59 -140 78 -224 54z"/>
<path d="M5950 4271 c-108 -35 -160 -106 -160 -218 0 -72 28 -125 88 -167 58
-41 158 -49 219 -17 160 81 160 305 0 387 -34 18 -113 26 -147 15z"/>
<path d="M3864 3756 c-95 -42 -81 -163 21 -182 47 -8 110 10 130 39 39 55 3
137 -66 151 -42 8 -49 7 -85 -8z"/>
<path d="M4535 3753 c-27 -26 -12 -112 35 -212 70 -145 206 -256 370 -302 80
-22 225 -17 308 10 166 54 308 190 362 345 25 74 26 118 2 139 -44 40 -84 15
-111 -70 -38 -124 -121 -220 -241 -277 -61 -29 -72 -31 -180 -31 -108 0 -119
2 -182 32 -121 57 -212 163 -244 285 -10 34 -24 71 -32 81 -19 22 -66 22 -87
0z"/>
<path d="M6085 3653 c-64 -16 -98 -77 -75 -134 23 -55 108 -76 170 -44 79 41
61 150 -28 175 -20 5 -39 9 -42 9 -3 -1 -14 -4 -25 -6z"/>
</g>
</svg>
