<?xml version="1.0" standalone="no"?>
<!DOCTYPE svg PUBLIC "-//W3C//DTD SVG 20010904//EN"
 "http://www.w3.org/TR/2001/REC-SVG-20010904/DTD/svg10.dtd">
<svg version="1.0" xmlns="http://www.w3.org/2000/svg"
 width="2048.000000pt" height="2048.000000pt" viewBox="0 0 2048.000000 2048.000000"
 preserveAspectRatio="xMidYMid meet">
<metadata>
Created by potrace 1.16, written by Peter Selinger 2001-2019
</metadata>
<g transform="translate(0.000000,2048.000000) scale(0.100000,-0.100000)"
fill="#000000" stroke="none">
<path d="M10678 14539 c-20 -6 -54 -26 -76 -45 l-40 -34 -44 20 c-102 46 -235
0 -269 -94 l-12 -32 -237 -10 c-248 -10 -271 -15 -307 -63 -19 -26 -25 -80
-13 -116 26 -78 76 -96 410 -144 l195 -28 3 -33 c2 -18 0 -36 -5 -40 -4 -4
-66 -1 -138 6 -71 8 -193 15 -270 16 -168 3 -195 -6 -227 -79 -35 -79 -9 -150
66 -183 40 -18 275 -65 461 -93 82 -12 90 -15 93 -36 2 -13 0 -27 -5 -31 -4
-5 -91 0 -193 11 -243 25 -374 25 -420 1 -72 -38 -88 -128 -34 -191 31 -37
136 -72 374 -126 91 -21 169 -41 174 -46 10 -9 -20 -99 -33 -99 -4 0 -75 12
-157 26 -82 14 -196 27 -254 30 -95 5 -108 3 -138 -15 -65 -42 -78 -139 -26
-200 21 -25 85 -58 197 -100 l25 -10 -28 -73 c-43 -112 -51 -192 -48 -508 2
-309 -3 -352 -57 -496 -30 -78 -98 -192 -164 -274 -84 -102 -99 -163 -62 -246
43 -95 174 -131 267 -73 81 50 203 221 270 379 77 183 102 331 114 680 10 280
17 338 41 330 8 -2 40 -5 72 -5 l59 0 -6 -35 c-34 -198 -29 -336 24 -660 85
-524 59 -756 -127 -1140 -37 -76 -68 -153 -71 -178 -10 -86 52 -178 135 -201
127 -36 219 32 326 238 131 253 193 537 178 814 -4 55 -3 101 0 103 18 11 84
-295 100 -456 22 -233 -4 -415 -108 -750 -78 -255 -102 -424 -68 -489 33 -65
118 -108 186 -95 98 19 146 73 160 182 30 234 44 299 113 539 167 582 166 705
-13 1309 -67 229 -76 287 -76 500 0 147 3 195 14 207 7 9 17 14 22 11 14 -8
253 -61 390 -85 174 -32 419 -32 533 -1 179 49 339 147 511 312 196 188 256
206 592 176 197 -18 869 -105 1428 -186 821 -119 1743 -236 2155 -274 524 -49
905 -47 1106 4 202 52 307 163 307 325 0 237 -202 383 -654 475 -216 44 -584
82 -1319 135 -375 27 -502 35 -1075 65 -683 37 -1064 60 -1458 90 -560 43
-680 61 -773 115 -52 30 -134 119 -206 222 -245 349 -456 453 -1027 507 -91 9
-189 16 -218 16 -48 0 -54 3 -67 28 -21 41 -87 98 -131 112 -23 8 -68 11 -116
8 -73 -4 -80 -3 -101 20 -52 55 -153 82 -230 61z m126 -138 c74 -64 111 -282
111 -651 0 -556 -108 -1011 -287 -1216 -80 -91 -173 -83 -231 20 l-26 46 50
66 c95 126 173 305 224 518 52 213 66 328 72 571 6 242 -10 429 -48 552 -23
72 -18 86 36 109 34 14 71 9 99 -15z m-306 -54 c63 -59 86 -197 87 -527 0
-284 -9 -366 -68 -601 -59 -234 -145 -415 -247 -521 -65 -67 -103 -76 -145
-33 -33 32 -32 47 9 114 163 271 250 563 277 938 13 180 1 374 -33 520 -18 79
-19 95 -7 109 32 39 86 39 127 1z m618 -38 c58 -54 113 -229 134 -428 38 -345
-53 -820 -226 -1181 -103 -214 -149 -269 -214 -255 -55 12 -54 23 15 159 139
275 211 615 222 1052 6 250 -4 414 -37 573 -10 52 -16 99 -13 104 10 17 93 1
119 -24z m-854 -138 c4 -25 6 -46 5 -48 -3 -2 -56 5 -272 38 -168 25 -185 29
-185 39 0 15 40 18 245 16 l199 -1 8 -44z m1306 -6 c287 -29 446 -70 587 -150
105 -60 181 -137 327 -328 189 -249 263 -289 595 -327 98 -11 320 -29 493 -40
173 -11 378 -25 455 -30 77 -5 223 -14 325 -20 102 -5 257 -15 345 -20 88 -5
284 -17 435 -25 712 -40 838 -47 1165 -71 817 -58 1224 -123 1434 -229 97 -48
149 -93 181 -155 40 -79 15 -177 -59 -225 -258 -171 -913 -135 -3066 171
-1126 160 -1548 214 -1821 234 -283 20 -387 -16 -577 -202 -170 -167 -256
-225 -414 -277 -180 -61 -335 -60 -648 4 -200 41 -231 49 -228 61 1 5 24 60
50 122 47 110 49 112 76 107 16 -2 88 -10 162 -17 127 -11 137 -11 182 8 63
26 93 76 93 155 0 108 -56 153 -235 190 -60 12 -111 23 -112 23 -1 1 3 23 9
49 l10 48 71 -8 c127 -14 203 -10 234 13 63 47 87 118 63 188 -21 64 -73 87
-297 132 -18 3 -23 11 -23 33 0 59 0 59 134 54 145 -7 184 3 223 54 21 28 28
49 31 97 6 117 -39 151 -260 194 l-142 28 -21 87 -21 87 51 0 c27 0 114 -7
193 -15z m-51 -316 c59 -11 113 -26 120 -32 14 -14 7 -53 -10 -60 -13 -5 -229
12 -235 18 -3 2 -7 24 -9 50 -7 54 -14 53 134 24z m-1412 -44 c88 -9 166 -18
174 -20 10 -4 12 -17 8 -46 -3 -22 -7 -42 -9 -44 -1 -2 -48 5 -103 15 -55 10
-167 31 -250 45 -82 15 -154 31 -159 35 -35 34 84 39 339 15z m-61 -396 c99
-11 182 -21 184 -24 8 -8 -15 -80 -25 -78 -338 68 -483 102 -483 113 0 23 26
22 324 -11z m1403 -4 c37 -9 83 -21 101 -26 31 -10 42 -32 22 -44 -10 -6 -199
11 -207 19 -5 5 6 66 12 66 2 0 34 -7 72 -15z m-1548 -420 c96 -14 176 -26
178 -28 7 -8 -49 -97 -62 -97 -19 0 -338 110 -352 122 -19 16 -6 28 30 28 18
0 110 -11 206 -25z m1506 -5 c134 -30 156 -47 121 -95 -13 -18 -20 -18 -142
-6 -71 7 -130 14 -132 16 -2 2 3 28 12 58 13 43 20 54 34 51 9 -2 58 -13 107
-24z m-1428 -291 c8 -76 6 -102 -11 -189 -11 -53 -20 -178 -26 -335 -5 -137
-16 -289 -24 -336 -17 -92 -73 -264 -111 -338 -42 -84 -148 -223 -181 -239
-60 -28 -111 8 -83 60 6 12 35 50 64 85 94 114 173 280 207 438 18 79 21 130
22 430 1 330 2 342 24 405 32 88 35 91 79 76 32 -11 36 -16 40 -57z m418 -314
c22 -14 49 -25 60 -25 39 0 42 -11 33 -100 -11 -109 4 -298 42 -548 46 -295
55 -422 42 -560 -20 -195 -83 -401 -173 -558 -83 -145 -129 -179 -187 -138
-33 23 -27 53 32 168 100 195 167 418 186 622 14 154 1 328 -45 614 -19 118
-39 267 -44 330 -9 111 -5 220 8 220 3 0 24 -12 46 -25z m420 -52 l51 -5 -4
-93 c-8 -178 20 -333 132 -726 122 -428 119 -553 -28 -1054 -60 -202 -92 -350
-106 -490 -14 -129 -26 -155 -74 -155 -53 0 -62 19 -48 108 6 42 24 122 40
177 16 55 46 155 66 223 63 217 77 300 83 502 8 265 -9 367 -137 820 -22 80
-48 186 -57 235 -17 96 -22 318 -9 418 6 49 10 57 24 51 9 -3 40 -9 67 -11z"/>
<path d="M13718 13264 c-53 -28 -78 -122 -39 -143 14 -8 22 -7 31 4 16 19 30
19 30 0 0 -18 73 -54 108 -55 77 -1 84 142 10 194 -28 20 -104 20 -140 0z"/>
<path d="M14495 13213 c-57 -15 -105 -80 -105 -145 0 -38 15 -58 42 -58 20 0
21 3 37 66 22 84 111 77 111 -9 0 -37 31 -71 57 -63 28 9 36 47 22 99 -13 50
-42 84 -86 103 -33 14 -44 15 -78 7z"/>
<path d="M13431 13150 c-107 -26 -101 -150 9 -192 151 -57 298 32 215 130 -42
50 -150 80 -224 62z m110 -81 c72 -25 71 -49 -2 -49 -68 0 -117 28 -92 53 10
11 56 8 94 -4z"/>
<path d="M13992 13098 c-27 -27 -5 -115 39 -154 33 -29 92 -47 132 -39 82 17
154 105 129 160 -16 36 -48 32 -68 -7 -28 -56 -44 -68 -89 -68 -50 0 -75 22
-75 66 0 33 -16 54 -40 54 -9 0 -21 -5 -28 -12z"/>
<path d="M14633 12990 c-37 -22 -53 -48 -53 -87 0 -68 76 -109 186 -100 73 5
110 26 133 72 20 41 -6 90 -62 115 -58 27 -161 27 -204 0z m181 -73 c15 -11
16 -15 3 -25 -29 -24 -157 -14 -157 13 0 7 6 16 13 18 26 11 124 6 141 -6z"/>
<path d="M8636 9895 c-335 -55 -633 -189 -901 -406 -102 -83 -281 -271 -352
-373 -73 -103 -191 -330 -227 -436 -27 -81 -36 -88 -105 -89 -63 -1 -277 -46
-363 -77 -137 -49 -320 -151 -430 -239 -113 -91 -153 -131 -251 -249 l-66 -80
-144 -32 c-176 -40 -587 -157 -790 -225 -647 -217 -1063 -448 -1292 -716 -72
-85 -136 -204 -160 -298 -19 -74 -19 -233 -1 -302 31 -117 88 -213 195 -326
255 -270 707 -512 1367 -729 l281 -93 48 -73 c205 -312 499 -454 1245 -602
879 -175 1799 -252 3000 -251 1145 1 2136 79 2815 222 392 82 555 182 773 475
l83 111 112 28 c199 49 547 167 798 270 142 58 381 179 506 257 215 132 409
324 480 473 85 181 82 378 -10 561 -123 244 -440 500 -857 691 -218 100 -736
292 -940 349 -59 16 -74 26 -161 109 -151 144 -313 242 -487 295 l-69 21 -15
72 c-63 290 -262 543 -523 663 -247 114 -614 126 -869 28 -7 -3 -29 22 -51 57
-80 129 -246 275 -381 335 -201 89 -477 92 -723 7 -40 -14 -76 -21 -80 -16 -4
4 -33 40 -64 79 -206 258 -486 426 -823 495 -133 27 -440 35 -568 14z m525
-136 c106 -21 274 -76 353 -116 160 -80 352 -242 444 -376 76 -111 138 -232
176 -347 33 -97 57 -220 43 -220 -3 0 -18 5 -34 11 -15 7 -59 19 -97 29 l-69
17 -13 51 c-36 141 -138 304 -267 429 -230 223 -548 327 -897 295 -381 -34
-729 -175 -958 -387 -150 -139 -266 -317 -323 -495 -20 -62 -26 -70 -44 -66
-11 3 -64 8 -118 12 -53 4 -97 8 -97 9 0 8 59 143 87 200 85 169 182 303 327
453 281 289 677 483 1061 522 123 12 310 3 426 -21z m-55 -364 c118 -21 203
-49 294 -98 181 -97 300 -220 392 -404 28 -57 49 -105 46 -108 -3 -3 -34 -1
-69 5 -35 5 -82 10 -104 10 -34 0 -44 6 -68 35 -33 42 -145 132 -207 167 -218
124 -598 154 -890 70 -281 -81 -507 -255 -621 -476 -23 -45 -42 -82 -43 -83
-1 -2 -210 48 -214 52 -7 7 62 161 106 236 161 270 434 462 790 554 207 53
423 68 588 40z m1649 -165 c255 -80 437 -275 521 -555 32 -110 44 -311 24
-433 -20 -127 -67 -261 -105 -299 -18 -18 -37 -33 -43 -33 -5 0 -21 18 -36 40
-15 22 -51 70 -82 106 l-55 65 20 42 c56 118 74 341 38 477 -39 149 -135 288
-247 360 -129 83 -336 109 -489 62 -40 -13 -74 -22 -75 -20 -1 2 -16 33 -33
70 l-33 68 37 15 c33 14 149 46 213 59 14 2 81 3 150 1 94 -2 142 -8 195 -25z
m-1649 -260 c97 -23 176 -58 266 -116 71 -45 79 -64 28 -64 -48 0 -220 -36
-300 -63 -65 -22 -78 -23 -100 -12 -88 46 -321 46 -455 1 -143 -49 -253 -131
-331 -248 -27 -40 -49 -74 -49 -75 -1 -1 -46 15 -101 37 -69 27 -99 44 -98 55
2 21 60 115 112 181 50 63 177 161 272 209 127 63 274 105 420 119 83 7 257
-5 336 -24z m1480 -24 c145 -39 260 -149 315 -302 30 -83 37 -247 15 -334 -9
-36 -21 -69 -26 -74 -6 -6 -39 18 -87 65 -43 41 -88 82 -101 91 -20 14 -21 19
-12 66 35 189 -111 341 -317 330 l-66 -3 -14 60 c-7 32 -11 65 -9 71 7 17 119
42 191 43 33 0 83 -5 111 -13z m1264 -86 c125 -14 193 -34 305 -89 163 -81
268 -180 356 -336 36 -64 94 -223 85 -233 -3 -2 -65 2 -140 9 -116 10 -136 14
-136 29 0 37 -66 146 -125 207 -68 68 -176 127 -285 154 -85 22 -307 17 -400
-9 -41 -11 -78 -18 -82 -15 -5 2 -8 15 -8 27 0 13 -11 63 -25 110 -14 47 -25
88 -25 90 0 8 151 47 215 55 98 12 167 12 265 1z m-2000 -205 c202 -33 451
-134 639 -260 494 -331 852 -935 971 -1640 11 -66 20 -134 20 -152 0 -36 -2
-36 -160 -47 l-76 -5 -12 142 c-22 273 -94 535 -210 761 -253 500 -660 841
-1148 963 -99 25 -126 27 -284 27 -156 0 -185 -3 -272 -27 -190 -51 -354 -144
-500 -285 -94 -91 -198 -234 -238 -329 l-22 -53 -57 8 c-31 4 -93 7 -139 7
-58 0 -82 4 -82 12 0 29 135 275 194 353 311 414 831 613 1376 525z m624 -9
c46 -19 88 -76 84 -115 l-3 -30 -69 44 c-38 24 -87 51 -108 61 -38 17 -49 38
-25 47 25 10 88 7 121 -7z m-1650 -25 c16 -6 9 -13 -40 -41 -90 -50 -194 -132
-294 -231 l-91 -89 -60 36 c-32 20 -59 39 -59 42 0 12 75 104 118 144 77 72
197 124 317 138 81 10 87 10 109 1z m3146 -177 c91 -44 146 -91 191 -163 40
-62 38 -71 -13 -71 -24 0 -83 -5 -132 -11 l-88 -11 -32 31 c-87 84 -227 100
-404 45 -29 -9 -54 -15 -56 -13 -2 2 -2 45 1 95 l6 92 71 20 c39 12 80 23 91
26 11 3 79 4 150 3 131 -2 131 -2 215 -43z m-4485 10 c123 -17 308 -61 424
-100 134 -46 325 -136 409 -192 9 -6 0 -29 -38 -93 -27 -46 -53 -90 -58 -98
-6 -10 -21 -5 -71 24 -213 125 -502 224 -746 256 -130 17 -386 6 -495 -21
-261 -64 -454 -170 -607 -334 -207 -221 -333 -537 -333 -838 0 -64 -3 -88 -13
-88 -6 0 -53 11 -102 25 -50 14 -101 25 -114 25 -23 0 -24 2 -17 63 16 162
102 420 192 579 276 488 666 758 1166 808 102 10 258 4 403 -16z m2285 -149
c254 -42 541 -191 759 -394 30 -28 52 -53 49 -56 -3 -3 -59 12 -124 34 -154
51 -599 168 -689 181 -166 23 -342 5 -467 -49 -147 -63 -294 -199 -359 -334
l-22 -45 -50 23 c-27 13 -78 31 -113 41 -35 9 -64 21 -64 26 0 23 65 133 118
199 239 301 584 435 962 374z m1948 -141 c12 -4 22 -9 22 -13 0 -3 -40 -17
-88 -30 -49 -12 -126 -38 -172 -57 -46 -18 -85 -32 -87 -30 -13 13 12 54 40
65 143 60 229 80 285 65z m-4268 -50 c113 -19 249 -57 362 -100 132 -49 360
-164 354 -178 -3 -6 -10 -30 -16 -53 -11 -39 -14 -41 -58 -48 -25 -4 -83 -18
-129 -31 l-83 -24 -48 34 c-102 73 -289 150 -436 180 -86 18 -255 21 -342 5
-348 -61 -611 -290 -695 -605 -26 -98 -30 -281 -7 -361 18 -64 28 -62 -137
-25 l-120 28 1 104 c6 646 516 1125 1164 1094 58 -3 143 -12 190 -20z m5135
-49 c177 -32 350 -104 492 -204 276 -195 470 -543 476 -855 l2 -99 -49 -13
c-28 -7 -53 -11 -58 -8 -4 3 -8 22 -8 42 0 53 -35 191 -71 280 -91 228 -268
414 -504 532 -141 70 -254 104 -412 125 -347 46 -763 -30 -1047 -190 -43 -25
-82 -45 -87 -45 -5 0 -21 24 -35 53 -15 28 -35 64 -45 79 -11 14 -19 28 -19
31 0 12 120 77 210 115 186 78 399 136 615 167 128 18 415 13 540 -10z m-2930
-137 c-15 -56 -78 -167 -120 -215 -62 -71 -172 -142 -287 -187 l-96 -37 -56
38 c-38 26 -55 45 -56 60 0 34 96 169 158 220 108 88 252 140 395 142 66 1 68
0 62 -21z m303 -33 c51 -12 95 -25 98 -28 3 -3 -13 -43 -35 -89 -112 -236
-315 -419 -571 -515 l-65 -25 -29 39 c-17 21 -45 52 -63 70 -18 17 -33 34 -33
36 0 3 51 30 113 60 198 99 328 234 393 413 l27 74 36 -6 c20 -4 78 -17 129
-29z m334 -89 l87 -26 -18 -53 c-68 -197 -233 -405 -436 -550 -95 -68 -388
-204 -398 -186 -1 2 -16 31 -32 64 -16 33 -31 63 -33 66 -1 3 19 14 45 24 281
105 500 306 624 571 22 45 39 88 39 96 0 19 11 30 24 25 6 -3 50 -16 98 -31z
m-4464 -33 c-126 -249 -198 -458 -230 -668 -3 -18 -10 -19 -93 -17 -118 4
-226 -12 -242 -34 -18 -24 -16 -69 3 -85 11 -9 55 -12 167 -10 135 2 157 0
194 -18 79 -39 349 -111 754 -201 919 -204 1610 -299 2609 -362 261 -16 1142
-16 1510 0 1203 54 2109 170 3015 387 169 41 179 40 307 -16 79 -34 92 -35
118 -9 25 25 26 64 1 89 -20 20 -155 74 -212 85 l-37 6 -7 88 c-14 182 -56
338 -130 484 -40 78 -40 78 -19 78 33 0 425 -141 624 -225 783 -330 1134 -711
1001 -1089 -34 -98 -81 -166 -186 -272 -316 -318 -1002 -612 -1900 -813 -787
-176 -1497 -266 -2535 -323 -303 -17 -1401 -17 -1725 0 -1579 82 -2823 293
-3835 651 -722 255 -1187 571 -1291 878 -50 145 -25 287 75 443 218 337 874
660 1856 916 163 42 215 51 208 37z m1549 -4 c43 -6 82 -15 86 -19 5 -4 -28
-13 -74 -19 -103 -16 -225 -58 -354 -124 -212 -109 -337 -289 -352 -509 -6
-96 3 -150 44 -241 14 -31 24 -59 22 -61 -2 -3 -40 4 -84 14 -44 10 -96 21
-116 24 -32 6 -37 11 -52 59 -74 242 -22 474 149 657 86 92 254 183 384 209
30 6 64 13 75 15 43 8 198 5 272 -5z m5093 -34 c153 -23 158 -26 229 -110 196
-233 289 -459 316 -771 l6 -72 -96 -17 c-53 -10 -98 -15 -101 -12 -3 3 -10 38
-15 77 -21 153 -88 335 -174 477 -98 161 -250 330 -361 400 -24 15 -44 31 -44
36 0 12 139 8 240 -8z m-1843 -51 c65 -26 122 -50 126 -54 10 -9 -65 -173
-119 -262 -178 -293 -527 -537 -903 -633 -53 -13 -98 -22 -100 -19 -3 3 -17
40 -31 83 l-25 77 85 28 c185 59 352 161 506 309 146 140 255 308 299 460 10
35 22 57 31 57 7 0 67 -21 131 -46z m1452 -1 c122 -76 171 -114 266 -214 146
-154 239 -308 298 -496 23 -72 53 -240 45 -248 -2 -2 -51 -11 -108 -20 -58 -9
-113 -18 -122 -21 -13 -4 -18 4 -23 33 -26 154 -114 365 -215 516 -100 150
-300 336 -432 403 -28 14 -47 28 -43 32 7 8 210 60 239 61 11 1 53 -20 95 -46z
m-3474 -72 c351 -72 655 -332 815 -697 42 -96 94 -278 105 -369 l7 -55 -78 0
c-44 0 -103 3 -131 6 -50 6 -53 8 -53 36 0 56 -32 184 -72 286 -122 313 -374
521 -692 573 -119 19 -329 7 -446 -26 -114 -31 -292 -117 -375 -179 -88 -67
-191 -171 -248 -251 -40 -57 -115 -193 -129 -236 -3 -10 -213 23 -225 35 -3 3
13 44 36 92 116 242 361 504 596 636 146 82 330 145 491 167 95 13 291 4 399
-18z m-950 -10 l30 -6 -56 -32 c-68 -38 -200 -137 -275 -206 -54 -49 -57 -50
-70 -32 -30 41 -43 139 -28 214 6 27 13 33 58 46 28 8 65 16 81 18 48 6 227 5
260 -2z m4017 -49 c235 -120 422 -315 538 -557 42 -88 88 -226 97 -290 l5 -42
-101 -11 c-130 -15 -131 -15 -131 6 -1 34 -60 186 -111 281 -120 225 -274 377
-513 506 l-89 48 28 23 c39 31 144 84 166 84 10 0 60 -21 111 -48z m1336 -59
c30 -27 80 -77 110 -113 102 -124 208 -382 200 -491 l-3 -43 -80 -17 c-44 -9
-83 -15 -87 -12 -5 2 -8 28 -8 57 0 146 -74 413 -160 573 -27 51 -45 93 -39
93 6 0 36 -21 67 -47z m-5879 -52 c0 -92 14 -139 56 -188 21 -25 31 -44 25
-48 -6 -4 -32 -37 -59 -75 l-48 -69 -31 32 c-51 53 -75 120 -80 225 -3 68 -1
96 9 108 15 18 110 84 121 84 4 0 7 -31 7 -69z m3775 -29 c50 -100 98 -213 92
-219 -2 -2 -26 18 -53 44 -27 27 -77 63 -111 81 l-61 33 36 74 c21 41 41 75
45 75 4 0 28 -40 52 -88z m594 -138 c28 -19 28 -31 1 -39 -23 -8 -39 7 -39 38
0 21 9 22 38 1z m-2970 -20 c249 -50 459 -239 557 -499 33 -86 67 -237 56
-248 -4 -4 -68 -4 -141 0 l-133 8 -18 87 c-46 232 -185 391 -385 442 -79 20
-232 21 -309 1 -177 -46 -326 -170 -410 -342 -20 -40 -42 -73 -48 -72 -7 0
-66 8 -132 18 -137 20 -135 17 -83 111 140 250 388 431 679 495 88 19 273 19
367 -1z m-1653 -45 c10 -69 67 -179 116 -224 l41 -37 -46 -95 -47 -94 -31 38
c-54 67 -91 158 -96 238 -6 92 22 225 47 225 5 0 12 -23 16 -51z m3873 12 c59
-31 148 -111 197 -176 25 -33 69 -109 99 -170 53 -107 54 -113 61 -222 l7
-113 -29 0 c-17 0 -57 -3 -91 -6 l-60 -7 -7 49 c-10 80 -44 184 -83 258 -37
69 -140 185 -211 237 l-35 26 53 71 c30 40 56 72 58 72 2 0 20 -9 41 -19z
m930 -97 c25 -17 102 -111 102 -124 0 -4 -23 -10 -51 -13 -28 -4 -76 -18 -107
-32 -30 -14 -58 -22 -62 -18 -8 9 -40 127 -40 146 0 16 76 56 110 56 14 1 36
-6 48 -15z m-1118 -165 c67 -47 139 -134 181 -218 27 -55 68 -205 58 -215 -2
-3 -55 -8 -116 -12 l-112 -7 -6 29 c-30 133 -80 227 -160 303 l-51 49 70 55
c39 31 73 56 74 56 2 1 30 -17 62 -40z m-2093 -51 c109 -40 203 -146 243 -275
27 -89 27 -115 -2 -109 -13 3 -57 8 -100 11 l-76 7 -12 46 c-15 62 -87 135
-150 152 -115 31 -237 -11 -293 -101 -23 -38 -36 -49 -56 -49 -34 0 -164 19
-169 25 -10 10 92 157 135 195 131 115 326 155 480 98z m3426 -95 c31 -62 71
-183 63 -191 -10 -10 -329 -43 -336 -35 -4 5 -12 51 -19 103 l-12 95 32 25
c47 37 86 48 171 49 l78 1 23 -47z m-1609 -40 c54 -38 123 -134 142 -200 9
-30 13 -58 9 -61 -4 -4 -67 -8 -140 -10 l-134 -4 -29 64 c-16 35 -44 80 -62
101 -18 21 -31 39 -29 41 9 8 185 95 193 95 6 1 28 -11 50 -26z m-338 -160
c39 -50 64 -90 64 -103 0 -6 -61 -10 -174 -10 l-173 0 -6 37 c-4 21 -3 40 1
44 4 3 35 12 69 18 34 6 85 20 115 31 71 25 71 25 104 -17z m-1620 7 c15 0 64
-46 64 -60 0 -7 -29 -9 -92 -4 -51 4 -94 8 -96 9 -1 1 0 9 3 18 9 21 66 48 90
42 11 -3 25 -5 31 -5z m-2535 -1495 c301 -77 932 -197 1304 -249 1200 -167
2509 -216 3755 -140 341 20 807 65 1140 110 350 46 1061 177 1143 209 31 13
18 -10 -48 -88 -98 -115 -187 -181 -313 -232 -240 -97 -873 -199 -1587 -255
-745 -58 -1822 -68 -2638 -26 -1070 57 -2212 250 -2620 445 -90 43 -231 146
-283 207 -43 50 -51 64 -37 64 4 0 87 -20 184 -45z"/>
<path d="M8468 6240 c-107 -32 -177 -141 -165 -256 12 -112 86 -190 190 -201
180 -18 303 129 252 303 -35 121 -159 190 -277 154z"/>
<path d="M10220 6203 c-69 -26 -350 -159 -367 -175 -51 -47 -33 -112 34 -123
81 -13 232 -47 312 -70 77 -23 87 -24 108 -10 33 22 32 79 -3 101 -28 19 -163
54 -207 54 -48 0 -26 18 77 65 54 24 107 52 117 61 51 46 -4 122 -71 97z"/>
<path d="M9029 5911 c-52 -42 -18 -186 64 -269 109 -112 317 -113 427 -3 58
59 83 111 88 186 4 73 -9 96 -57 97 -41 1 -61 -22 -61 -71 0 -85 -77 -169
-165 -178 -35 -4 -56 0 -99 21 -46 22 -59 35 -80 78 -14 29 -26 69 -26 89 0
28 -6 42 -22 53 -29 21 -41 20 -69 -3z"/>
<path d="M8023 5810 c-191 -40 -248 -206 -100 -290 130 -74 355 -61 442 26 58
57 55 145 -6 201 -62 57 -223 87 -336 63z m176 -111 c24 -5 57 -19 74 -31 l30
-21 -27 -23 c-38 -33 -100 -47 -178 -41 -69 6 -152 40 -146 59 17 50 149 80
247 57z"/>
<path d="M10412 5790 c-169 -25 -258 -139 -192 -248 48 -79 234 -123 370 -88
126 32 180 82 180 166 0 23 -7 54 -15 70 -37 72 -202 120 -343 100z m173 -121
c24 -6 52 -20 62 -31 17 -19 17 -20 -2 -35 -43 -33 -91 -46 -165 -46 -212 0
-209 118 3 122 32 1 78 -4 102 -10z"/>
</g>
</svg>
