<?xml version="1.0" standalone="no"?>
<!DOCTYPE svg PUBLIC "-//W3C//DTD SVG 20010904//EN"
 "http://www.w3.org/TR/2001/REC-SVG-20010904/DTD/svg10.dtd">
<svg version="1.0" xmlns="http://www.w3.org/2000/svg"
 width="1024.000000pt" height="1024.000000pt" viewBox="0 0 1024.000000 1024.000000"
 preserveAspectRatio="xMidYMid meet">
<metadata>
Created by potrace 1.16, written by Peter Selinger 2001-2019
</metadata>
<g transform="translate(0.000000,1024.000000) scale(0.100000,-0.100000)"
fill="#000000" stroke="none">
<path d="M4929 6449 c-83 -12 -174 -46 -263 -98 -102 -59 -250 -204 -334 -329
-122 -179 -231 -442 -282 -682 -28 -132 -39 -430 -20 -548 30 -187 110 -350
235 -477 140 -143 302 -231 525 -286 82 -20 120 -23 280 -23 201 -1 277 11
433 63 416 141 667 481 667 906 0 307 -111 650 -303 935 -267 397 -600 589
-938 539z m297 -90 c180 -55 348 -182 499 -374 239 -305 376 -671 376 -1005 0
-207 -58 -382 -175 -537 -239 -314 -746 -454 -1184 -327 -317 92 -526 286
-616 571 -110 351 0 900 257 1287 72 108 229 267 310 315 67 40 169 78 241 91
75 13 212 4 292 -21z"/>
<path d="M5604 5527 c-21 -18 -28 -35 -32 -75 -4 -48 -2 -54 28 -82 79 -74
203 -4 183 104 -14 69 -122 101 -179 53z"/>
<path d="M4348 5324 c-31 -16 -58 -61 -58 -96 0 -41 36 -86 78 -99 51 -15 104
8 126 56 21 43 20 63 -4 103 -31 51 -89 65 -142 36z"/>
<path d="M5930 5275 c-26 -31 13 -82 44 -56 19 16 21 42 4 59 -16 16 -33 15
-48 -3z"/>
<path d="M5197 5233 c-3 -4 -8 -27 -12 -51 -12 -74 -88 -126 -159 -108 -30 7
-86 53 -86 70 0 26 -26 49 -48 42 -26 -9 -29 -43 -8 -84 46 -88 160 -125 251
-83 79 37 118 94 113 169 -3 39 -7 47 -25 50 -11 2 -23 0 -26 -5z"/>
<path d="M5827 5233 c-12 -11 -7 -50 7 -62 19 -16 56 2 56 27 0 32 -43 56 -63
35z"/>
<path d="M5709 5204 c-17 -21 0 -49 31 -49 31 0 48 28 31 49 -8 9 -21 16 -31
16 -10 0 -23 -7 -31 -16z"/>
<path d="M4382 4978 c-26 -26 1 -65 38 -53 16 5 20 14 18 33 -3 30 -35 41 -56
20z"/>
<path d="M4159 4934 c-9 -11 -10 -20 -2 -32 15 -24 44 -27 59 -7 28 38 -27 75
-57 39z"/>
<path d="M4274 4936 c-12 -31 0 -51 31 -51 27 0 30 3 30 30 0 25 -4 30 -28 33
-17 2 -29 -2 -33 -12z"/>
</g>
</svg>
