<?xml version="1.0" standalone="no"?>
<!DOCTYPE svg PUBLIC "-//W3C//DTD SVG 20010904//EN"
 "http://www.w3.org/TR/2001/REC-SVG-20010904/DTD/svg10.dtd">
<svg version="1.0" xmlns="http://www.w3.org/2000/svg"
 width="1024.000000pt" height="1024.000000pt" viewBox="0 0 1024.000000 1024.000000"
 preserveAspectRatio="xMidYMid meet">
<metadata>
Created by potrace 1.16, written by Peter Selinger 2001-2019
</metadata>
<g transform="translate(0.000000,1024.000000) scale(0.100000,-0.100000)"
fill="#000000" stroke="none">
<path d="M5170 7786 c-184 -41 -319 -115 -441 -242 -36 -38 -74 -81 -83 -96
-18 -27 -18 -27 -109 -22 -277 17 -508 -134 -604 -394 -20 -52 -26 -93 -30
-183 l-6 -116 -56 -23 c-40 -17 -76 -44 -126 -94 -115 -116 -162 -241 -190
-501 -8 -77 -15 -147 -15 -156 0 -14 -8 -14 -82 2 -402 88 -783 -51 -973 -355
-85 -137 -125 -289 -125 -476 0 -327 128 -611 389 -863 126 -121 251 -208 416
-287 107 -52 346 -140 380 -140 9 0 15 -24 20 -77 41 -478 156 -658 490 -766
517 -168 1480 -145 2097 49 254 80 410 172 505 299 86 113 129 247 157 486 40
340 55 936 37 1514 -27 887 -57 1098 -173 1230 -30 34 -39 51 -34 68 9 37 -13
148 -40 205 -15 30 -45 68 -70 89 -43 36 -44 39 -44 97 0 157 -130 254 -283
212 -33 -9 -61 -15 -62 -14 -2 2 -15 32 -30 68 -56 135 -180 285 -301 365 -79
53 -193 101 -282 120 -86 18 -253 18 -332 1z m385 -110 c222 -76 411 -272 481
-501 26 -86 52 -97 110 -45 58 50 126 52 183 4 46 -38 59 -91 36 -151 -20 -53
-28 -40 63 -104 165 -115 107 -449 -78 -449 -77 0 -120 46 -135 145 -10 72
-28 100 -90 140 -62 39 -72 41 -94 21 -20 -18 -376 -70 -577 -85 -199 -15
-645 -13 -869 4 -273 21 -567 63 -582 83 -18 22 -16 155 2 227 48 183 205 329
393 365 59 12 128 10 228 -6 l42 -6 41 60 c109 161 274 273 466 318 99 23 282
13 380 -20z m-1431 -1061 c425 -66 1034 -88 1409 -50 127 13 296 36 412 56 94
16 124 18 141 8 26 -13 44 -49 44 -88 0 -46 51 -133 97 -165 45 -31 114 -44
176 -32 52 10 124 63 153 112 32 54 42 49 78 -42 47 -115 65 -276 87 -759 16
-350 17 -1274 1 -1505 -38 -559 -92 -723 -278 -856 -188 -134 -502 -227 -969
-285 -213 -27 -721 -38 -912 -20 -391 37 -622 106 -750 225 -178 165 -206 388
-217 1720 -4 582 5 1078 24 1222 14 108 45 225 76 287 52 101 167 195 240 197
17 0 101 -11 188 -25z m-821 -725 c38 -6 100 -17 139 -26 l70 -16 -7 -156 c-4
-87 -9 -159 -11 -161 -1 -1 -27 8 -56 22 -108 51 -219 66 -324 44 -227 -48
-364 -225 -364 -470 0 -310 185 -573 530 -755 52 -27 125 -60 162 -73 l66 -23
6 -116 c4 -63 8 -139 9 -167 4 -66 2 -66 -142 -17 -263 90 -524 257 -674 433
-191 222 -287 465 -287 726 0 414 260 707 675 758 60 8 142 6 208 -3z m32
-395 c28 -8 75 -30 106 -49 l56 -36 6 -361 c11 -574 10 -669 -8 -669 -19 0
-144 55 -220 98 -190 106 -344 277 -403 447 -30 87 -40 229 -22 306 51 218
254 329 485 264z"/>
<path d="M4024 6309 c-107 -25 -201 -118 -237 -233 -42 -134 -57 -466 -57
-1241 0 -631 10 -910 39 -1052 31 -152 99 -255 206 -311 73 -39 177 -38 257 1
31 15 71 44 88 63 17 20 33 35 34 33 2 -2 14 -24 26 -48 33 -65 110 -136 177
-162 45 -17 79 -23 148 -23 78 0 98 3 152 28 41 19 80 48 114 83 56 59 54 59
87 7 20 -30 94 -75 147 -89 115 -30 287 -10 395 45 54 27 121 90 145 133 l18
34 41 -27 c87 -59 199 -74 305 -41 171 53 254 160 286 366 21 135 40 1532 25
1865 -13 305 -30 366 -122 444 -53 46 -115 66 -203 66 -119 0 -239 -54 -301
-135 l-26 -35 -45 40 c-85 74 -219 104 -349 77 -97 -21 -167 -58 -235 -127
l-58 -57 -43 44 c-102 105 -203 148 -338 141 -95 -5 -155 -26 -222 -80 -39
-30 -42 -31 -52 -14 -65 109 -113 153 -203 189 -56 22 -145 29 -199 16z m182
-107 c57 -30 119 -99 148 -164 l26 -58 -20 -267 c-33 -467 -41 -730 -40 -1362
2 -662 3 -648 -51 -728 -96 -140 -291 -111 -370 55 -68 144 -74 245 -74 1177
0 992 10 1141 79 1259 61 105 194 143 302 88z m1993 -62 c42 -21 87 -69 103
-109 24 -63 28 -185 28 -801 -1 -842 -13 -1311 -35 -1401 -30 -122 -102 -202
-208 -234 -100 -30 -179 -14 -243 48 l-42 42 8 110 c27 338 38 1486 21 1975
-5 141 -5 222 2 235 25 50 75 97 130 125 75 38 174 42 236 10z m-594 -54 c36
-16 66 -40 93 -74 l40 -51 7 -348 c15 -677 -9 -1796 -41 -1928 -36 -148 -147
-228 -336 -242 -140 -10 -221 27 -265 123 l-24 54 10 412 c6 227 13 564 16
748 3 184 10 512 16 729 l10 394 25 43 c88 150 290 213 449 140z m-768 2 c41
-15 74 -38 114 -77 95 -95 91 -73 80 -449 -6 -180 -13 -484 -16 -677 -15 -884
-26 -1224 -41 -1267 -51 -145 -203 -226 -345 -184 -83 24 -132 64 -169 139
-29 59 -32 77 -42 213 -15 225 -4 1384 16 1684 34 512 33 507 85 563 70 76
202 99 318 55z"/>
</g>
</svg>
