<?xml version="1.0" standalone="no"?>
<!DOCTYPE svg PUBLIC "-//W3C//DTD SVG 20010904//EN"
 "http://www.w3.org/TR/2001/REC-SVG-20010904/DTD/svg10.dtd">
<svg version="1.0" xmlns="http://www.w3.org/2000/svg"
 width="1024.000000pt" height="1024.000000pt" viewBox="0 0 1024.000000 1024.000000"
 preserveAspectRatio="xMidYMid meet">
<metadata>
Created by potrace 1.16, written by Peter Selinger 2001-2019
</metadata>
<g transform="translate(0.000000,1024.000000) scale(0.100000,-0.100000)"
fill="#000000" stroke="none">
<path d="M5350 7450 c-109 -15 -214 -69 -290 -153 -17 -17 -48 -68 -70 -112
-53 -105 -74 -210 -65 -327 l6 -87 -39 -38 c-45 -43 -62 -90 -62 -170 0 -29
-2 -53 -4 -53 -3 0 -26 11 -51 24 -133 71 -293 51 -405 -50 -36 -33 -100 -141
-100 -169 0 -9 -40 -14 -137 -18 -341 -13 -633 -151 -886 -417 -210 -221 -352
-500 -421 -827 -159 -758 135 -1496 714 -1792 52 -27 113 -54 135 -61 22 -6
72 -25 110 -40 124 -50 206 -65 360 -65 98 1 158 6 199 18 l60 16 50 -36 c67
-48 194 -107 281 -129 49 -12 108 -18 200 -18 154 0 216 14 354 80 92 45 94
46 130 31 58 -25 101 -36 184 -47 149 -21 367 24 512 105 33 18 80 38 105 45
106 28 281 142 409 264 310 300 474 720 474 1221 1 405 -95 738 -301 1046
-205 306 -531 524 -856 571 -62 9 -90 17 -93 28 -21 67 -70 144 -118 189 -74
67 -145 94 -252 94 -75 0 -89 -3 -166 -40 l-85 -41 -4 77 c-5 80 -28 139 -67
175 -26 23 -28 87 -6 190 34 160 135 265 255 266 85 0 165 -73 158 -144 -4
-45 -25 -43 -38 3 -27 101 -150 74 -180 -40 -15 -53 -1 -125 31 -170 71 -100
260 -89 349 19 76 92 92 246 38 364 -51 111 -165 198 -279 213 -24 4 -53 8
-64 9 -11 2 -45 0 -75 -4z m195 -99 c111 -49 179 -153 180 -276 0 -83 -26
-139 -88 -189 -34 -27 -47 -31 -97 -31 -48 0 -63 4 -84 24 -37 35 -52 91 -36
130 17 41 36 39 50 -5 9 -26 22 -40 46 -50 71 -30 128 30 121 128 -5 77 -39
128 -111 163 -49 24 -65 27 -128 23 -121 -6 -213 -69 -272 -185 -28 -57 -56
-180 -56 -253 l0 -50 -36 0 -36 0 4 128 c5 145 22 205 85 299 77 115 196 176
333 170 50 -2 92 -11 125 -26z m-445 -666 c16 -8 34 -24 40 -35 6 -10 14 -81
20 -157 10 -148 26 -226 65 -311 l24 -53 -32 -11 c-17 -6 -69 -31 -114 -55
-46 -24 -87 -43 -93 -43 -6 0 -32 15 -58 33 -26 17 -70 43 -98 56 l-51 23 22
42 c47 85 75 227 75 376 0 72 23 124 63 140 35 14 105 11 137 -5z m-379 -208
c19 -10 50 -30 68 -45 l33 -27 -17 -70 c-9 -38 -27 -94 -40 -124 l-25 -54 -43
7 c-23 4 -62 10 -86 13 -28 4 -54 16 -74 35 -34 31 -123 68 -162 68 -33 0 -38
13 -21 53 28 68 102 134 176 158 40 13 152 5 191 -14z m873 3 c65 -25 126 -81
161 -149 14 -28 25 -52 25 -54 0 -2 -25 -7 -55 -11 -68 -8 -156 -40 -193 -70
-20 -17 -46 -25 -97 -30 -38 -3 -79 -8 -89 -9 -32 -3 -81 97 -101 207 -6 30
-3 35 48 70 98 67 201 83 301 46z m-1219 -275 c33 -9 64 -20 68 -24 4 -4 -25
-11 -65 -14 -208 -18 -454 -159 -627 -359 -325 -377 -511 -938 -511 -1538 0
-185 15 -336 45 -462 34 -148 111 -319 177 -394 41 -46 21 -43 -41 7 -308 243
-487 563 -547 979 -22 156 -15 438 15 600 138 729 699 1249 1321 1225 58 -3
132 -12 165 -20z m1576 -20 c232 -40 445 -157 629 -345 209 -212 343 -477 417
-820 25 -116 27 -143 28 -365 0 -214 -3 -252 -24 -355 -78 -382 -249 -690
-486 -877 -44 -35 -83 -63 -87 -63 -4 0 12 27 35 59 178 241 275 676 247 1103
-11 167 -45 375 -81 508 -53 191 -154 421 -250 571 -111 173 -276 342 -422
433 -81 51 -249 116 -297 116 -17 0 -30 4 -30 9 0 8 23 15 125 35 44 8 117 5
196 -9z m-1336 -85 c76 -11 211 -53 241 -74 16 -12 13 -15 -39 -26 -346 -71
-627 -428 -741 -941 -51 -230 -60 -331 -60 -654 0 -260 3 -319 22 -443 51
-322 135 -553 264 -716 21 -27 35 -53 31 -57 -4 -4 -50 -13 -100 -20 -161 -20
-329 12 -488 94 -295 153 -451 544 -432 1081 20 530 177 1012 441 1350 193
248 420 382 685 406 47 4 91 8 96 8 6 1 42 -3 80 -8z m995 -16 c112 -13 259
-76 367 -155 320 -235 553 -674 640 -1204 27 -167 25 -546 -5 -710 -47 -259
-126 -453 -247 -602 -200 -249 -543 -382 -823 -318 -99 23 -99 23 -41 86 184
195 320 543 386 984 14 95 18 183 17 425 0 268 -2 320 -21 430 -90 511 -326
860 -653 963 -38 12 -70 24 -70 27 0 9 141 59 195 70 97 19 130 19 255 4z
m-424 -165 c101 -30 186 -82 271 -163 96 -90 151 -167 212 -297 107 -227 156
-452 168 -769 15 -420 -64 -862 -211 -1184 -75 -165 -205 -324 -317 -390 -120
-69 -305 -113 -427 -101 -285 30 -488 174 -620 440 -198 401 -237 1106 -93
1666 121 470 382 765 724 820 78 12 215 2 293 -22z"/>
</g>
</svg>
