<?xml version="1.0" standalone="no"?>
<!DOCTYPE svg PUBLIC "-//W3C//DTD SVG 20010904//EN"
 "http://www.w3.org/TR/2001/REC-SVG-20010904/DTD/svg10.dtd">
<svg version="1.0" xmlns="http://www.w3.org/2000/svg"
 width="1024.000000pt" height="1024.000000pt" viewBox="0 0 1024.000000 1024.000000"
 preserveAspectRatio="xMidYMid meet">
<metadata>
Created by potrace 1.16, written by Peter Selinger 2001-2019
</metadata>
<g transform="translate(0.000000,1024.000000) scale(0.100000,-0.100000)"
fill="#000000" stroke="none">
<path d="M5143 7140 c-39 -10 -86 -26 -103 -35 -26 -14 -40 -14 -81 -6 -71 16
-213 13 -289 -5 -94 -22 -235 -94 -304 -155 -58 -52 -58 -52 -85 -35 -14 9
-57 33 -96 51 -213 104 -456 98 -685 -17 -91 -45 -118 -65 -201 -148 -86 -85
-102 -107 -147 -200 -29 -58 -55 -123 -60 -145 l-8 -40 -143 -5 c-135 -5 -144
-6 -162 -29 -68 -84 69 -527 248 -806 148 -228 377 -451 602 -585 39 -23 71
-44 71 -47 0 -3 -21 -28 -46 -57 -96 -105 -173 -244 -174 -309 0 -17 10 -38
25 -52 31 -32 47 -32 550 0 661 41 1430 74 1733 75 68 0 76 2 103 29 19 19 29
40 29 59 0 46 -53 140 -131 230 -39 46 -69 84 -67 85 1 1 46 23 100 49 186 91
316 186 468 344 150 156 260 334 353 569 59 150 102 356 95 454 -5 76 -22 82
-248 89 l-192 7 -17 55 c-53 168 -182 302 -337 349 -49 15 -77 32 -126 76 -74
66 -190 126 -303 155 -104 27 -271 27 -372 0z m368 -128 c104 -37 169 -75 245
-144 54 -49 82 -68 102 -68 44 0 143 -54 196 -106 45 -45 121 -178 111 -194
-2 -4 -136 -10 -297 -13 -284 -7 -629 -21 -1273 -52 -502 -24 -833 -35 -1113
-36 -145 0 -265 1 -267 3 -2 2 5 27 15 55 71 203 266 379 472 428 35 8 106 15
158 15 148 0 265 -37 368 -117 77 -60 98 -58 176 17 73 71 118 103 194 138
112 51 228 63 353 37 71 -15 72 -15 128 11 31 14 83 32 116 40 82 19 242 12
316 -14z m1099 -667 c0 -14 -9 -69 -21 -122 -82 -378 -304 -726 -598 -933
-100 -72 -231 -145 -331 -187 -136 -56 -143 -91 -42 -197 38 -39 90 -98 117
-131 l48 -60 -119 -2 c-417 -8 -1075 -38 -1686 -76 -194 -13 -348 -19 -348
-14 0 20 92 146 155 212 36 39 70 80 75 93 15 35 -4 68 -57 98 -423 241 -699
558 -843 969 -29 83 -70 235 -70 261 0 8 159 13 538 17 490 6 771 16 1707 62
507 25 725 32 1113 33 l362 2 0 -25z"/>
<path d="M4973 6864 c-58 -21 -126 -85 -157 -146 -42 -84 -31 -138 28 -138 36
0 59 20 71 60 14 46 45 79 101 106 76 37 98 86 52 118 -27 19 -40 19 -95 0z"/>
<path d="M5386 6769 c-27 -22 -34 -56 -16 -89 27 -50 100 -49 125 0 21 40 19
57 -10 85 -30 30 -64 32 -99 4z"/>
<path d="M3899 6722 c-29 -24 -30 -75 -1 -104 29 -29 80 -28 104 1 56 70 -33
159 -103 103z"/>
<path d="M3624 6706 c-65 -28 -143 -133 -144 -192 0 -28 30 -54 63 -54 21 0
34 12 66 59 26 38 56 68 83 83 36 19 44 29 46 58 6 56 -44 76 -114 46z"/>
<path d="M5825 6124 c-33 -2 -70 -6 -82 -9 -28 -7 -45 -55 -29 -86 11 -23 15
-24 176 -29 l165 -5 3 -30 c2 -20 -11 -59 -38 -113 -71 -142 -250 -308 -407
-379 -75 -33 -93 -50 -93 -84 0 -91 96 -74 285 50 205 135 371 364 383 529 4
62 2 70 -21 98 -15 17 -44 36 -67 43 -46 14 -180 21 -275 15z"/>
<path d="M4165 6004 c-203 -13 -486 -27 -628 -31 -275 -9 -276 -9 -277 -59 0
-46 13 -48 308 -41 254 6 509 19 922 47 85 6 169 13 186 15 39 7 61 43 45 74
-11 19 -20 21 -99 20 -48 -1 -253 -12 -457 -25z"/>
<path d="M3346 5734 c-18 -17 -20 -42 -7 -63 6 -10 36 -13 120 -12 61 1 118 4
126 7 21 8 30 51 15 69 -18 22 -232 22 -254 -1z"/>
<path d="M5079 5046 c-13 -12 -307 -29 -599 -35 l-334 -6 -15 -27 c-13 -23
-13 -30 -1 -52 7 -15 25 -30 39 -34 41 -11 522 -7 676 6 333 29 365 37 365 95
0 18 -5 38 -12 45 -11 11 -109 18 -119 8z"/>
</g>
</svg>
