<?xml version="1.0" standalone="no"?>
<!DOCTYPE svg PUBLIC "-//W3C//DTD SVG 20010904//EN"
 "http://www.w3.org/TR/2001/REC-SVG-20010904/DTD/svg10.dtd">
<svg version="1.0" xmlns="http://www.w3.org/2000/svg"
 width="1024.000000pt" height="1024.000000pt" viewBox="0 0 1024.000000 1024.000000"
 preserveAspectRatio="xMidYMid meet">
<metadata>
Created by potrace 1.16, written by Peter Selinger 2001-2019
</metadata>
<g transform="translate(0.000000,1024.000000) scale(0.100000,-0.100000)"
fill="#000000" stroke="none">
<path d="M5559 7345 c-148 -29 -297 -113 -360 -200 -18 -25 -35 -45 -39 -45
-4 0 -15 37 -24 83 -21 96 -29 113 -56 122 -20 6 -255 -59 -277 -77 -19 -16
-16 -47 17 -180 17 -66 28 -123 25 -126 -3 -3 -18 6 -33 21 -40 38 -144 86
-225 104 -90 19 -222 12 -327 -17 -109 -31 -124 -42 -117 -93 9 -65 83 -203
141 -263 l52 -54 -63 0 c-150 0 -273 -96 -292 -229 l-6 -46 -52 -1 c-200 -8
-334 -180 -293 -374 l12 -58 -56 -67 c-248 -291 -391 -723 -373 -1125 27 -593
322 -1099 842 -1443 245 -162 589 -284 905 -322 483 -59 979 57 1380 322 141
94 360 308 462 453 439 621 445 1454 15 2049 -100 138 -297 333 -417 412 -24
16 -25 17 -7 37 10 11 25 41 33 68 42 141 -18 283 -151 352 -41 21 -64 26
-130 26 -86 1 -128 -11 -184 -53 -26 -19 -36 -22 -39 -11 -11 31 -86 99 -135
121 -114 51 -275 20 -343 -65 -16 -20 -32 -36 -36 -36 -9 0 -51 40 -46 44 1 2
27 11 55 20 111 37 228 153 272 271 41 110 48 336 11 380 -15 18 -52 18 -141
0z m61 -157 c0 -65 -23 -166 -49 -216 -56 -108 -186 -194 -298 -196 l-58 -1 0
90 c0 75 5 99 25 140 47 98 162 187 281 219 95 26 99 24 99 -36z m-595 -30
c21 -94 64 -301 70 -338 3 -25 7 -49 8 -53 1 -5 -21 -10 -50 -12 l-52 -4 -7
37 c-3 20 -20 102 -36 182 -40 191 -41 180 7 195 55 18 54 18 60 -7z m-463
-219 c71 -15 145 -51 197 -96 44 -37 121 -145 121 -169 0 -15 -76 -41 -146
-50 -124 -15 -292 44 -377 135 -45 47 -103 148 -93 158 11 12 124 31 183 32
34 1 86 -4 115 -10z m604 -310 c93 -28 153 -173 108 -262 -40 -79 -102 -120
-184 -121 -194 -2 -279 249 -121 359 60 41 117 48 197 24z m573 -3 c38 -20 89
-80 97 -114 3 -15 7 -32 9 -39 6 -19 -16 -86 -37 -116 -27 -37 -88 -67 -139
-67 -56 0 -123 33 -157 78 -23 30 -27 45 -27 97 0 52 4 67 28 98 15 21 45 46
65 57 44 23 122 26 161 6z m479 -80 c119 -62 138 -216 38 -304 -20 -17 -41
-32 -47 -32 -26 0 -176 43 -197 56 -29 19 -52 72 -52 116 0 39 29 106 56 130
54 47 146 63 202 34z m-1585 -7 c78 -21 146 -111 147 -192 0 -122 -123 -224
-239 -198 -99 22 -165 101 -165 196 0 134 127 230 257 194z m-333 -42 c0 -2
-7 -18 -16 -35 -33 -66 -35 -166 -5 -245 13 -34 -1 -43 -54 -33 -81 15 -147
116 -126 192 21 73 85 124 159 124 23 0 42 -2 42 -3z m1188 -259 c60 -15 126
-80 142 -139 34 -126 -61 -249 -194 -249 -87 0 -170 63 -191 146 -28 112 36
217 150 245 43 10 42 10 93 -3z m-1486 -34 c16 -8 46 -37 68 -65 46 -58 51
-98 21 -164 -54 -119 -201 -147 -292 -56 -64 64 -74 151 -26 221 55 82 145
107 229 64z m989 -55 c78 -26 136 -117 124 -194 -8 -60 -42 -106 -95 -132
-140 -71 -300 50 -260 197 27 102 134 161 231 129z m1024 -14 c132 -35 186
-131 136 -242 -22 -48 -85 -98 -136 -107 -75 -14 -166 32 -203 104 -56 109 9
259 113 260 17 0 57 -7 90 -15z m-1605 -57 c50 -26 78 -33 137 -37 68 -3 75
-5 84 -28 16 -42 10 -62 -32 -108 -109 -118 -299 -53 -299 103 0 40 25 102 41
102 3 0 34 -15 69 -32z m1937 -8 c34 -23 108 -84 163 -137 271 -257 427 -557
485 -929 24 -153 16 -393 -19 -560 -111 -527 -446 -957 -926 -1188 -534 -257
-1175 -254 -1715 9 -504 244 -863 693 -967 1207 -20 97 -23 143 -23 323 1 194
3 219 29 330 56 240 153 443 304 637 l44 57 28 -21 c16 -11 52 -28 81 -38 l52
-18 1 -93 c1 -113 19 -153 97 -223 119 -107 305 -100 422 17 35 35 40 37 56
23 9 -8 43 -27 75 -42 120 -55 255 -28 340 67 43 48 76 120 76 165 0 23 17 34
51 34 38 0 129 52 166 94 l37 43 46 -32 c25 -18 62 -38 83 -44 l37 -13 0 -67
c0 -132 58 -225 171 -276 84 -38 164 -38 245 -1 96 44 142 103 167 211 l14 60
56 7 c137 17 231 110 258 254 8 42 7 68 -5 115 -9 33 -16 63 -16 65 0 13 32
-1 87 -36z m-2099 -260 c52 -27 66 -40 91 -80 47 -78 16 -189 -68 -238 -93
-54 -208 -17 -260 85 -15 30 -14 107 3 146 38 89 151 132 234 87z m1480 -24
c17 -25 49 -57 71 -72 44 -29 48 -43 30 -107 -23 -83 -121 -138 -205 -116 -53
15 -103 54 -120 95 -16 37 -18 112 -5 132 7 12 177 111 192 112 3 0 19 -20 37
-44z m-1001 -26 c25 -22 61 -45 79 -52 32 -11 34 -15 28 -43 -10 -46 -30 -80
-64 -109 -112 -94 -280 -15 -280 132 0 38 1 40 39 46 21 3 63 19 92 35 30 16
56 30 57 30 2 1 24 -17 49 -39z"/>
<path d="M4365 4847 c-139 -47 -233 -154 -251 -289 -5 -39 -3 -49 16 -68 16
-16 28 -20 48 -15 39 10 51 23 58 64 21 113 109 191 217 191 104 0 187 -71
211 -182 10 -40 19 -57 39 -68 24 -13 30 -13 55 1 25 14 27 20 26 71 -2 110
-81 225 -190 275 -65 30 -171 39 -229 20z"/>
<path d="M5765 4847 c-70 -24 -120 -54 -159 -98 -74 -81 -117 -219 -81 -259
41 -46 96 -15 114 63 23 102 113 176 215 177 99 0 179 -65 211 -173 17 -59 40
-87 69 -87 27 0 40 9 55 37 22 43 -25 173 -90 248 -69 78 -236 124 -334 92z"/>
<path d="M3982 4404 c-60 -30 -88 -61 -102 -115 -45 -166 186 -291 366 -198
104 54 136 177 67 260 -68 80 -226 105 -331 53z m218 -113 c65 -48 19 -111
-82 -111 -70 0 -115 20 -124 56 -18 70 132 110 206 55z"/>
<path d="M6086 4350 c-163 -64 -175 -241 -22 -323 62 -33 192 -31 260 3 89 45
126 138 88 222 -11 25 -34 55 -51 68 -72 51 -189 64 -275 30z m203 -124 c54
-49 0 -106 -99 -106 -113 0 -163 77 -76 116 44 20 149 14 175 -10z"/>
<path d="M4676 4185 c-24 -25 -28 -52 -16 -113 41 -198 192 -344 383 -371 189
-27 367 69 459 246 33 63 58 146 58 193 0 27 -35 60 -63 60 -39 0 -56 -22 -68
-85 -22 -119 -93 -215 -198 -264 -73 -34 -182 -36 -251 -4 -101 46 -184 158
-197 264 -4 31 -14 60 -25 71 -22 22 -61 23 -82 3z"/>
</g>
</svg>
