<?xml version="1.0" standalone="no"?>
<!DOCTYPE svg PUBLIC "-//W3C//DTD SVG 20010904//EN"
 "http://www.w3.org/TR/2001/REC-SVG-20010904/DTD/svg10.dtd">
<svg version="1.0" xmlns="http://www.w3.org/2000/svg"
 width="1024.000000pt" height="1024.000000pt" viewBox="0 0 1024.000000 1024.000000"
 preserveAspectRatio="xMidYMid meet">
<metadata>
Created by potrace 1.16, written by Peter Selinger 2001-2019
</metadata>
<g transform="translate(0.000000,1024.000000) scale(0.100000,-0.100000)"
fill="#000000" stroke="none">
<path d="M4384 7425 c-27 -42 -13 -96 86 -330 122 -289 164 -405 147 -405 -8
0 -42 11 -76 25 -34 14 -111 38 -169 52 -90 22 -131 26 -254 27 -134 1 -149
-1 -175 -20 -57 -42 -41 -106 45 -180 152 -131 357 -332 480 -471 75 -84 138
-157 139 -161 1 -4 -23 -22 -55 -41 -275 -165 -505 -459 -627 -803 -30 -85
-20 -78 -129 -92 -68 -9 -71 -17 -69 -189 2 -143 3 -153 24 -169 11 -10 37
-18 55 -18 l34 0 -7 -42 c-13 -69 -9 -465 5 -553 66 -413 193 -698 419 -935
180 -189 382 -310 633 -376 129 -35 378 -44 525 -20 528 87 955 512 1100 1096
44 178 59 302 59 510 0 107 -3 223 -7 256 l-8 61 43 6 c64 9 68 20 68 184 0
139 -1 145 -25 168 -17 18 -35 25 -64 25 -71 0 -84 10 -110 91 -47 147 -142
327 -240 454 -113 148 -283 295 -419 365 -42 22 -60 36 -54 44 104 139 324
369 547 573 101 92 109 103 109 137 0 24 -7 44 -22 59 -20 20 -34 22 -141 25
-159 5 -351 -34 -515 -102 -22 -9 -41 -14 -43 -12 -7 7 97 285 168 448 102
235 111 274 71 321 -40 46 -179 -10 -372 -151 -86 -63 -313 -287 -355 -349
-15 -24 -31 -43 -35 -43 -4 0 -29 28 -56 63 -184 235 -540 497 -674 497 -31 0
-43 -5 -56 -25z m486 -492 c75 -80 166 -200 221 -294 60 -100 97 -104 144 -16
54 100 148 228 237 322 89 94 165 161 173 153 3 -2 -13 -44 -34 -94 -52 -120
-135 -361 -177 -513 -29 -107 -32 -127 -21 -150 20 -43 55 -39 143 19 44 29
124 74 179 100 106 51 291 117 300 108 4 -3 -20 -30 -52 -59 -129 -119 -269
-272 -400 -437 l-18 -23 -81 21 c-172 44 -402 44 -569 -1 -140 -37 -122 -43
-210 68 -43 54 -158 178 -256 277 -196 197 -195 191 -29 139 47 -15 159 -65
250 -110 91 -46 175 -83 187 -83 13 0 29 10 38 24 15 22 14 31 -5 107 -31 121
-111 357 -165 484 -26 61 -49 119 -53 130 -7 24 108 -76 198 -172z m503 -1028
c214 -38 409 -140 580 -304 132 -127 231 -271 303 -441 l34 -83 -47 7 c-106
14 -390 18 -478 7 -107 -14 -256 -53 -333 -87 -54 -24 -58 -24 -154 -12 -78 9
-116 9 -183 0 -78 -12 -88 -11 -122 7 -162 82 -487 121 -759 90 -53 -6 -98 -8
-101 -5 -10 10 106 237 167 325 173 253 457 445 735 496 97 18 253 18 358 0z
m-768 -959 c135 -18 246 -50 341 -96 l79 -39 23 22 c22 20 34 22 142 22 104 0
122 -2 146 -21 l28 -21 86 40 c182 84 401 118 633 98 137 -12 419 -55 438 -66
5 -4 9 -26 9 -49 0 -43 -1 -44 -39 -50 -59 -9 -81 -43 -81 -123 0 -182 -83
-359 -215 -460 -212 -161 -545 -106 -697 114 -44 65 -87 157 -123 262 -42 127
-54 136 -185 136 -133 0 -140 -6 -189 -151 -85 -252 -206 -386 -393 -435 -337
-89 -628 163 -628 544 0 71 -19 102 -68 113 -53 11 -53 12 -50 56 l3 43 110
22 c235 47 463 61 630 39z m656 -460 c63 -189 161 -329 289 -415 76 -50 148
-77 260 -97 163 -28 338 13 474 110 36 26 70 56 76 66 22 41 26 17 14 -77 -70
-500 -315 -880 -689 -1065 -532 -265 -1152 -63 -1468 476 -56 96 -121 260
-151 381 -23 91 -56 285 -50 293 1 2 23 -17 49 -42 92 -90 260 -149 417 -148
216 1 404 103 524 284 49 73 113 212 134 287 11 41 12 42 51 39 l40 -3 30 -89z"/>
<path d="M5164 5769 c-23 -26 -32 -152 -15 -210 20 -65 73 -75 109 -21 25 38
24 187 -1 225 -22 33 -65 36 -93 6z"/>
<path d="M4572 5504 c-26 -18 -28 -53 -7 -93 20 -40 100 -108 133 -114 53 -10
90 31 71 80 -12 34 -83 109 -121 129 -34 18 -48 18 -76 -2z"/>
<path d="M5733 5471 c-85 -62 -117 -137 -74 -175 29 -26 71 -13 131 41 68 61
85 95 68 131 -20 41 -71 42 -125 3z"/>
<path d="M4324 4871 c-183 -29 -254 -103 -254 -263 0 -177 89 -327 238 -396
49 -23 70 -27 148 -27 84 0 95 2 167 38 123 61 205 153 247 276 74 220 -75
360 -400 375 -52 3 -118 1 -146 -3z m315 -156 c72 -22 121 -70 121 -117 0 -79
-90 -197 -191 -253 -169 -91 -350 31 -367 248 -4 57 -2 71 14 88 44 49 89 59
244 55 82 -2 144 -9 179 -21z"/>
<path d="M5860 4874 c-230 -35 -335 -103 -360 -235 -12 -63 5 -144 47 -220 38
-71 139 -164 220 -202 62 -29 77 -32 163 -32 88 0 101 3 162 33 168 82 263
294 216 480 -15 60 -77 124 -144 145 -87 29 -224 43 -304 31z m267 -157 c52
-27 67 -58 60 -125 -9 -107 -75 -214 -160 -259 -46 -25 -140 -23 -199 4 -57
26 -141 102 -173 158 -55 94 -40 156 48 199 76 37 125 45 267 42 95 -2 133 -6
157 -19z"/>
<path d="M4903 3934 c-14 -22 -15 -32 -5 -70 45 -168 235 -260 411 -200 91 31
180 130 196 218 6 29 3 40 -14 57 -26 26 -73 27 -93 4 -8 -10 -21 -33 -28 -51
-28 -70 -121 -120 -201 -107 -67 12 -109 48 -161 144 -14 26 -23 31 -52 31
-27 0 -40 -6 -53 -26z"/>
<path d="M5779 3656 c-17 -36 -4 -71 43 -122 67 -72 119 -91 151 -56 38 42 7
113 -76 173 -52 38 -103 40 -118 5z"/>
<path d="M4529 3632 c-46 -30 -91 -82 -103 -118 -9 -30 13 -73 40 -80 51 -13
162 86 171 153 4 34 2 43 -18 57 -31 21 -38 21 -90 -12z"/>
<path d="M5164 3349 c-16 -18 -19 -37 -19 -119 0 -110 14 -140 66 -140 51 0
78 77 64 185 -10 87 -66 124 -111 74z"/>
</g>
</svg>
