<?xml version="1.0" standalone="no"?>
<!DOCTYPE svg PUBLIC "-//W3C//DTD SVG 20010904//EN"
 "http://www.w3.org/TR/2001/REC-SVG-20010904/DTD/svg10.dtd">
<svg version="1.0" xmlns="http://www.w3.org/2000/svg"
 width="1024.000000pt" height="1024.000000pt" viewBox="0 0 1024.000000 1024.000000"
 preserveAspectRatio="xMidYMid meet">
<metadata>
Created by potrace 1.16, written by Peter Selinger 2001-2019
</metadata>
<g transform="translate(0.000000,1024.000000) scale(0.100000,-0.100000)"
fill="#000000" stroke="none">
<path d="M4845 6625 c-89 -19 -150 -46 -208 -92 -62 -49 -124 -147 -132 -212
-10 -68 -11 -71 -88 -140 -221 -199 -746 -703 -1037 -997 -322 -326 -434 -453
-484 -553 -55 -108 -56 -117 -56 -630 0 -292 4 -490 10 -513 12 -43 63 -91
116 -108 85 -28 40 -36 1809 316 2064 411 2073 413 2160 453 158 74 240 185
272 370 l17 93 60 30 c159 80 246 229 246 419 0 339 -320 716 -911 1074 -383
233 -932 435 -1327 489 -135 19 -364 19 -447 1z m397 -120 c155 -18 262 -41
433 -93 548 -167 1061 -455 1403 -786 303 -294 396 -566 262 -769 -29 -43 -83
-87 -107 -87 -6 0 -12 35 -15 79 -11 182 -110 274 -347 317 l-89 16 -48 72
c-87 127 -275 308 -449 432 -346 246 -815 444 -1265 534 -94 19 -328 50 -372
50 -24 0 -22 25 6 86 66 143 249 189 588 149z m-429 -376 c362 -53 695 -158
1025 -323 206 -103 356 -202 518 -341 127 -109 277 -275 262 -290 -2 -3 -121
-25 -263 -50 -1444 -252 -1574 -275 -2445 -425 -585 -101 -845 -147 -887 -157
-15 -3 -23 -1 -23 8 1 23 83 135 178 242 119 134 769 778 1047 1037 121 113
244 229 275 257 l55 53 93 0 c51 0 126 -5 165 -11z m2108 -1108 c81 -25 141
-75 157 -129 13 -41 16 -112 6 -112 -3 0 -44 12 -90 26 -120 38 -207 32 -302
-20 -192 -105 -186 -103 -402 -96 -86 3 -108 -1 -225 -35 l-129 -38 -121 9
c-66 5 -196 9 -290 9 -154 -1 -179 -3 -267 -27 -98 -27 -214 -80 -310 -141
-72 -46 -107 -56 -207 -63 -129 -8 -177 -21 -281 -78 l-95 -51 -95 4 c-188 9
-253 5 -325 -16 -114 -34 -141 -36 -275 -12 -184 31 -270 17 -422 -71 -88 -51
-173 -80 -233 -80 l-45 0 0 155 c0 152 0 155 23 160 19 4 353 62 917 159 80
14 442 77 805 140 363 63 712 124 775 135 63 11 230 40 370 65 140 24 363 62
495 85 132 22 251 42 265 45 55 10 237 -4 301 -23z m82 -322 c45 -18 84 -33
86 -35 1 -1 -2 -42 -9 -91 -20 -154 -76 -239 -195 -294 -61 -29 -526 -125
-2380 -493 -1576 -312 -1478 -296 -1514 -249 -20 25 -21 36 -19 242 l3 216 67
7 c91 9 124 20 258 91 112 60 117 61 205 65 58 3 117 -2 167 -12 111 -23 169
-20 288 15 l105 31 128 -13 c114 -11 133 -10 189 5 34 9 86 32 117 49 92 53
111 59 231 67 136 10 176 23 320 109 205 121 379 151 682 115 156 -18 236 -11
368 33 78 26 98 28 250 29 181 1 207 7 320 74 139 82 200 89 333 39z"/>
<path d="M5030 6445 c-26 -31 -8 -50 59 -59 76 -10 111 2 111 38 0 30 -16 36
-95 36 -42 0 -66 -5 -75 -15z"/>
<path d="M6797 5644 c-10 -11 -9 -52 3 -74 5 -10 36 -34 67 -54 68 -41 84 -63
92 -129 7 -56 29 -79 55 -58 31 26 12 145 -31 193 -10 11 -40 33 -67 48 -26
15 -53 39 -60 51 -11 24 -45 36 -59 23z"/>
<path d="M4660 5924 c-239 -64 -268 -278 -48 -359 80 -30 299 -29 382 2 79 30
124 67 148 120 47 106 -20 198 -177 239 -66 18 -236 17 -305 -2z m294 -115
c21 -6 50 -22 63 -35 23 -23 24 -27 11 -47 -59 -90 -372 -101 -433 -14 -55 79
189 144 359 96z"/>
<path d="M5630 5646 c-156 -34 -230 -98 -230 -199 0 -117 140 -197 345 -197
145 0 280 47 328 114 31 44 35 125 7 170 -57 94 -278 148 -450 112z m293 -135
c46 -22 68 -56 52 -81 -14 -23 -89 -51 -163 -62 -64 -9 -91 -8 -157 5 -89 19
-129 42 -133 78 -2 20 5 29 36 47 59 33 107 41 218 38 80 -2 110 -7 147 -25z"/>
<path d="M4022 5365 c-250 -55 -352 -232 -200 -349 54 -41 114 -57 228 -63
183 -9 336 42 408 136 42 56 45 127 7 183 -61 90 -262 132 -443 93z m296 -130
c100 -41 44 -121 -109 -155 -83 -18 -245 -10 -288 15 -44 26 -59 50 -45 73 13
23 108 70 164 82 68 14 228 6 278 -15z"/>
<path d="M4564 4624 c-26 -39 -73 -55 -138 -48 -50 6 -54 5 -61 -16 -10 -31
11 -48 65 -56 95 -13 205 50 198 113 -4 39 -41 43 -64 7z"/>
<path d="M5501 4228 c-26 -60 -61 -89 -113 -95 -39 -4 -46 -1 -77 31 -38 40
-52 44 -71 21 -11 -13 -10 -22 3 -51 33 -68 125 -99 199 -66 80 35 158 150
128 187 -23 28 -50 17 -69 -27z"/>
</g>
</svg>
