<?xml version="1.0" standalone="no"?>
<!DOCTYPE svg PUBLIC "-//W3C//DTD SVG 20010904//EN"
 "http://www.w3.org/TR/2001/REC-SVG-20010904/DTD/svg10.dtd">
<svg version="1.0" xmlns="http://www.w3.org/2000/svg"
 width="1024.000000pt" height="1024.000000pt" viewBox="0 0 1024.000000 1024.000000"
 preserveAspectRatio="xMidYMid meet">
<metadata>
Created by potrace 1.16, written by Peter Selinger 2001-2019
</metadata>
<g transform="translate(0.000000,1024.000000) scale(0.100000,-0.100000)"
fill="#000000" stroke="none">
<path d="M4925 7529 c-732 -23 -2043 -120 -2370 -175 -199 -33 -371 -105 -471
-196 -77 -71 -89 -127 -59 -274 18 -87 53 -195 102 -314 36 -86 156 -332 198
-405 13 -22 42 -82 65 -134 355 -810 1036 -2089 1492 -2800 328 -511 730
-1023 988 -1257 159 -144 213 -165 308 -118 45 22 105 76 293 263 298 299 522
557 843 971 438 565 742 1038 1108 1720 138 256 414 825 542 1115 36 81 81
165 108 200 162 213 296 476 342 675 20 82 21 239 2 283 -57 137 -388 244
-1056 342 -672 98 -1507 134 -2435 104z m1345 -130 c446 -19 761 -48 1135
-104 477 -72 786 -157 878 -243 25 -24 27 -32 27 -103 0 -97 -34 -217 -100
-357 -58 -121 -152 -280 -157 -265 -7 20 37 196 62 252 15 31 46 82 71 113 52
67 64 106 37 129 -37 33 -64 31 -103 -9 -107 -108 -177 -307 -197 -562 l-8
-95 -35 3 c-51 5 -198 56 -279 96 -38 20 -115 65 -170 101 -113 74 -196 114
-303 147 -66 19 -99 22 -347 25 -344 4 -397 15 -529 105 -57 39 -154 82 -221
98 -86 20 -203 7 -406 -46 -175 -45 -184 -47 -330 -47 -164 -1 -202 6 -434 72
-214 62 -281 73 -431 74 -157 0 -245 -18 -418 -84 -59 -23 -147 -56 -195 -75
-131 -50 -220 -65 -442 -74 -278 -12 -310 -22 -635 -193 -139 -73 -264 -127
-295 -127 -27 0 -192 343 -254 527 -53 155 -69 244 -51 278 19 35 116 100 204
135 129 52 292 78 751 119 1212 110 2317 148 3175 110z m-1650 -754 c41 -8
120 -28 175 -45 193 -60 295 -81 425 -87 154 -7 250 5 456 58 256 66 350 58
503 -41 76 -49 152 -84 233 -107 53 -15 107 -18 338 -18 355 -1 383 -9 639
-169 68 -43 155 -93 195 -112 73 -34 225 -84 258 -84 10 0 21 -6 24 -13 10
-28 -394 -867 -614 -1272 -441 -812 -921 -1497 -1572 -2240 -139 -160 -529
-550 -558 -559 -76 -24 -464 393 -819 879 -183 251 -583 874 -583 908 0 4 25
-11 56 -33 82 -58 167 -83 264 -78 68 3 84 7 122 33 64 45 98 118 98 209 -1
80 -15 129 -57 188 -107 155 -362 189 -491 65 -50 -47 -65 -84 -71 -167 l-6
-75 -56 95 c-171 288 -425 764 -653 1220 -227 455 -443 909 -434 914 2 0 35
12 73 25 39 13 126 53 195 89 352 186 366 190 665 202 232 10 316 27 505 105
209 87 280 107 435 129 43 6 167 -4 255 -19z m-605 -2589 c58 -27 88 -57 110
-108 29 -71 12 -163 -34 -188 -55 -29 -181 3 -259 67 -50 41 -72 79 -72 125 0
108 133 162 255 104z"/>
<path d="M6020 7220 c-40 -40 -14 -130 38 -130 38 0 63 14 77 41 21 39 19 56
-10 84 -30 31 -77 33 -105 5z"/>
<path d="M3940 7110 c-45 -45 -11 -120 53 -120 70 0 100 94 43 132 -22 15 -76
8 -96 -12z"/>
<path d="M7843 6963 c-13 -2 -30 -14 -38 -26 -52 -74 51 -160 113 -94 52 56 2
134 -75 120z"/>
<path d="M2400 6813 c-34 -13 -50 -37 -50 -74 0 -45 27 -69 76 -69 37 0 74 38
74 75 0 45 -58 84 -100 68z"/>
<path d="M4074 6320 c-26 -10 -54 -48 -54 -71 0 -9 9 -28 21 -43 27 -35 90
-37 113 -4 44 63 -12 145 -80 118z"/>
<path d="M4882 6102 c-76 -27 -122 -68 -159 -142 -97 -188 18 -416 247 -490
58 -18 86 -22 163 -18 81 3 103 8 161 37 86 42 136 103 161 196 16 56 17 75 7
127 -23 123 -117 228 -250 279 -82 31 -256 37 -330 11z m298 -133 c96 -45 142
-96 161 -179 17 -72 -26 -151 -105 -193 -56 -30 -189 -30 -257 0 -65 30 -118
80 -145 138 -52 110 -16 209 91 250 62 23 186 15 255 -16z"/>
<path d="M6464 6051 c-95 -45 -143 -121 -144 -229 -1 -119 78 -209 202 -227
94 -14 206 42 248 125 57 113 47 215 -29 291 -76 76 -172 90 -277 40z m167
-107 c69 -35 71 -134 4 -193 -30 -26 -44 -31 -84 -31 -43 0 -52 4 -80 35 -38
44 -41 88 -8 136 24 37 78 69 115 69 13 0 37 -7 53 -16z"/>
<path d="M3117 6019 c-81 -19 -144 -66 -180 -134 -30 -58 -29 -179 2 -257 92
-233 441 -327 609 -165 86 82 101 210 40 336 -51 105 -190 199 -328 221 -75
11 -91 11 -143 -1z m223 -153 c104 -53 160 -127 160 -213 0 -122 -109 -179
-257 -134 -126 38 -206 132 -207 243 -1 47 3 61 24 83 40 44 77 56 155 52 51
-3 85 -11 125 -31z"/>
<path d="M4049 5340 c-123 -37 -173 -215 -86 -308 81 -87 222 -80 293 14 21
27 29 50 32 95 5 73 -1 99 -35 140 -48 57 -132 81 -204 59z m103 -137 c18 -16
24 -59 10 -79 -9 -14 -47 -34 -64 -34 -24 0 -58 40 -58 67 0 55 70 84 112 46z"/>
<path d="M5736 5331 c-23 -25 -23 -76 -1 -101 26 -29 89 -27 109 2 22 30 20
81 -2 101 -25 23 -85 22 -106 -2z"/>
<path d="M7115 5285 c-14 -13 -25 -36 -25 -50 0 -33 41 -75 73 -75 38 0 77 36
77 71 0 37 -40 79 -75 79 -14 0 -37 -11 -50 -25z"/>
<path d="M6038 5007 c-136 -47 -238 -145 -285 -275 -89 -245 20 -512 237 -576
150 -45 311 5 437 137 128 133 173 306 123 471 -19 60 -70 142 -109 174 -111
90 -263 116 -403 69z m269 -129 c167 -87 188 -328 43 -491 -126 -141 -316
-164 -421 -50 -52 55 -72 111 -77 208 -3 74 0 100 17 146 67 177 281 268 438
187z"/>
<path d="M4579 4861 c-49 -40 -18 -131 46 -131 38 0 75 37 75 75 0 62 -72 96
-121 56z"/>
<path d="M3483 4680 c-26 -11 -43 -40 -43 -74 0 -63 89 -90 129 -40 39 50 20
105 -39 118 -14 3 -35 1 -47 -4z"/>
<path d="M5037 4345 c-52 -18 -83 -49 -103 -101 -41 -107 32 -204 154 -204
112 0 192 120 148 223 -17 40 -51 71 -95 86 -43 14 -57 13 -104 -4z m82 -129
c16 -19 3 -45 -25 -52 -43 -11 -73 34 -36 55 24 14 48 13 61 -3z"/>
<path d="M6300 3813 c-52 -20 -68 -85 -30 -123 49 -49 139 -3 126 65 -4 16
-12 35 -19 42 -15 15 -57 24 -77 16z"/>
<path d="M5293 3530 c-58 -12 -118 -45 -168 -91 -126 -116 -119 -302 17 -424
97 -88 227 -131 369 -123 129 7 229 62 276 151 24 48 29 153 9 220 -30 104
-144 214 -261 252 -61 19 -185 27 -242 15z m238 -148 c170 -83 211 -272 75
-345 -33 -18 -57 -22 -126 -21 -105 1 -184 29 -247 87 -56 51 -73 84 -73 140
0 60 32 104 100 140 50 26 62 28 140 25 63 -2 97 -9 131 -26z"/>
<path d="M4731 2754 c-24 -30 -26 -43 -10 -77 21 -47 80 -56 122 -19 26 23 23
87 -5 106 -35 25 -83 20 -107 -10z"/>
</g>
</svg>
