<?xml version="1.0" standalone="no"?>
<!DOCTYPE svg PUBLIC "-//W3C//DTD SVG 20010904//EN"
 "http://www.w3.org/TR/2001/REC-SVG-20010904/DTD/svg10.dtd">
<svg version="1.0" xmlns="http://www.w3.org/2000/svg"
 width="2048.000000pt" height="2048.000000pt" viewBox="0 0 2048.000000 2048.000000"
 preserveAspectRatio="xMidYMid meet">
<metadata>
Created by potrace 1.16, written by Peter Selinger 2001-2019
</metadata>
<g transform="translate(0.000000,2048.000000) scale(0.100000,-0.100000)"
fill="#000000" stroke="none">
<path d="M10845 17894 c-354 -54 -769 -221 -1019 -412 -187 -142 -351 -344
-447 -548 -53 -112 -105 -273 -121 -371 -7 -46 -15 -83 -19 -83 -4 0 -13 8
-20 17 -28 34 -217 179 -334 256 -449 296 -923 390 -1440 286 -306 -62 -567
-199 -781 -413 -123 -124 -182 -210 -244 -358 -72 -174 -85 -244 -84 -478 0
-151 5 -226 17 -284 9 -44 15 -81 14 -83 -2 -2 -61 -19 -131 -38 -235 -64
-463 -159 -648 -268 -58 -34 -91 -46 -153 -56 -44 -7 -132 -26 -195 -41 -380
-95 -510 -186 -510 -358 0 -113 43 -274 148 -552 l39 -106 -38 -179 c-50 -236
-115 -623 -134 -805 -41 -391 -41 -865 0 -1295 44 -455 144 -982 290 -1535 36
-135 86 -323 111 -419 l46 -174 -39 -191 c-37 -184 -38 -198 -38 -396 0 -226
7 -271 72 -475 34 -106 35 -114 29 -213 -10 -156 -50 -496 -105 -897 -181
-1309 -208 -1916 -110 -2505 42 -255 115 -499 236 -789 l55 -133 -16 -82 c-58
-294 -39 -604 48 -762 25 -46 42 -64 77 -82 104 -52 328 -71 840 -72 467 0
610 -18 954 -120 264 -78 537 -146 711 -177 147 -26 178 -28 414 -28 194 1
279 5 355 18 55 9 165 28 245 42 395 69 523 61 1070 -64 519 -118 819 -117
1440 4 375 74 482 94 709 131 507 82 629 93 1156 104 483 10 571 17 795 56
236 42 1207 269 1394 326 87 26 106 36 154 81 81 77 87 93 86 222 -1 114 -19
204 -66 325 -56 144 -172 349 -291 513 -57 79 -58 54 6 297 52 196 87 377 120
615 19 140 22 204 22 520 0 386 -5 442 -65 867 -36 249 -79 480 -166 888 -117
548 -154 731 -178 868 l-23 135 26 96 c22 84 25 117 25 266 0 164 -2 174 -35
290 -28 100 -34 135 -33 210 2 136 109 765 298 1745 115 598 163 1105 153
1600 -11 534 -78 976 -214 1415 -30 99 -60 197 -65 217 -11 40 -10 45 55 281
49 175 71 314 64 395 -9 87 -47 165 -97 198 -93 62 -317 111 -550 121 l-135 5
-105 58 c-167 92 -308 143 -473 171 l-68 11 6 72 c13 147 -33 353 -112 494
-48 86 -141 185 -230 243 -210 137 -576 194 -984 153 l-66 -7 -7 92 c-30 397
-316 763 -771 986 -235 115 -411 156 -695 160 -107 2 -208 1 -225 -1z m491
-343 c177 -44 310 -103 471 -209 263 -173 413 -435 413 -719 0 -81 -20 -226
-34 -239 -6 -6 -51 -25 -101 -43 -196 -73 -372 -169 -508 -278 l-69 -55 -86
84 c-101 98 -144 129 -267 190 -202 102 -371 138 -667 145 -349 9 -515 -17
-920 -144 -16 -5 -18 2 -18 45 0 27 7 88 15 135 58 334 243 624 510 800 223
146 532 268 780 306 104 17 388 6 481 -18z m-3216 -816 c328 -71 642 -254 943
-548 102 -99 110 -110 93 -121 -11 -6 -74 -54 -140 -107 -231 -184 -393 -383
-507 -623 -49 -105 -102 -266 -114 -350 -4 -26 -13 -50 -20 -52 -6 -3 -72 11
-146 30 -398 105 -751 122 -1140 55 -68 -12 -133 -22 -144 -23 -13 -1 -37 24
-77 79 -76 107 -121 200 -154 320 -45 166 -54 215 -60 340 -14 276 70 499 258
681 193 187 404 283 733 334 90 13 386 4 475 -15z m4926 -386 c187 -21 349
-78 434 -155 135 -123 169 -411 74 -644 -37 -90 -139 -246 -167 -254 -27 -7
-176 -6 -275 3 l-73 6 73 63 c126 109 212 221 283 367 103 209 110 306 24 313
-45 4 -55 -8 -80 -98 -21 -77 -70 -181 -127 -270 -46 -73 -170 -199 -257 -263
-38 -28 -81 -60 -95 -72 l-25 -22 -190 28 c-425 61 -583 64 -926 13 l-46 -6
-6 138 c-5 143 -23 230 -69 337 l-21 48 28 29 c55 57 201 153 330 216 207 102
488 186 710 213 186 23 270 25 401 10z m-2269 -84 c157 -32 273 -75 378 -139
191 -115 327 -301 371 -505 14 -68 18 -199 8 -261 l-6 -36 -176 -61 c-98 -33
-235 -82 -306 -107 -253 -91 -397 -122 -911 -191 -104 -14 -300 -48 -435 -75
-334 -67 -457 -82 -636 -82 -155 1 -317 21 -469 61 l-70 18 3 49 c5 75 48 227
92 320 129 278 326 499 610 688 270 180 548 286 865 330 164 23 185 24 380 20
142 -3 206 -9 302 -29z m3051 -872 c39 -3 72 -9 72 -12 0 -11 -305 -68 -309
-59 -1 5 4 17 12 26 8 9 22 31 31 49 l16 31 52 -14 c29 -8 86 -17 126 -21z
m-7110 -330 c35 -53 61 -97 58 -100 -13 -13 -168 -24 -281 -21 -125 5 -385 44
-385 58 0 13 479 155 535 158 6 0 38 -43 73 -95z m8072 66 c115 -10 236 -32
247 -43 6 -5 -42 -209 -76 -323 -16 -55 -19 -58 -57 -64 -49 -9 -434 -32 -439
-27 -2 2 7 53 19 113 13 61 34 165 46 233 l23 122 61 0 c33 0 113 -5 176 -11z
m-368 -12 c0 -4 -20 -108 -43 -231 l-44 -224 -70 -6 c-65 -6 -788 -27 -791
-23 -4 5 54 338 59 343 3 4 44 12 89 19 46 7 204 36 353 64 234 45 410 71 438
67 5 -1 9 -5 9 -9z m-2110 -54 c42 -3 80 -8 86 -12 8 -6 -9 -477 -19 -484 -2
-2 -80 -11 -174 -21 -93 -10 -269 -31 -389 -47 -121 -16 -228 -29 -238 -29
-17 0 -18 13 -16 261 l3 262 45 13 c73 22 239 55 325 64 77 8 219 6 377 -7z
m346 -48 c219 -33 366 -45 544 -45 103 0 189 -3 191 -7 3 -5 -5 -62 -18 -128
-12 -66 -25 -140 -29 -165 l-7 -45 -347 -20 c-191 -10 -376 -21 -411 -23 l-64
-4 6 123 c4 67 7 169 7 226 0 85 3 103 15 103 8 0 59 -7 113 -15z m-1228 -318
l0 -253 -272 -53 c-150 -29 -334 -66 -408 -81 -74 -16 -136 -27 -138 -26 -1 2
-8 94 -14 206 -12 226 -15 214 60 225 143 21 500 128 697 209 33 13 63 25 68
25 4 1 7 -113 7 -252z m-5572 19 c46 -9 134 -26 195 -40 62 -13 138 -30 170
-36 36 -7 57 -16 57 -25 0 -8 12 -51 26 -95 14 -45 24 -83 22 -85 -2 -2 -100
-8 -218 -15 -118 -6 -277 -17 -354 -26 -76 -8 -141 -12 -145 -9 -11 11 -108
340 -103 349 7 13 250 0 350 -18z m1850 14 c147 -11 298 -41 501 -97 l135 -38
42 -205 c22 -113 40 -207 38 -209 -4 -5 -219 32 -489 84 -126 24 -277 52 -335
63 -104 18 -105 18 -108 47 -2 17 -14 96 -28 176 -34 205 -37 189 44 189 37 0
127 -5 200 -10z m-2298 -125 c16 -61 37 -139 49 -175 11 -35 18 -67 15 -70 -3
-3 -75 -16 -161 -30 -141 -23 -155 -24 -163 -9 -14 25 -101 291 -97 295 16 16
300 105 321 100 4 -1 21 -51 36 -111z m1904 93 c14 -68 46 -321 42 -325 -3 -3
-108 4 -233 16 -125 12 -313 26 -418 31 -104 6 -201 12 -214 13 -19 2 -27 13
-46 72 -12 39 -26 78 -30 88 -6 15 1 17 83 17 135 0 276 17 492 60 241 48 237
47 282 49 32 1 38 -3 42 -21z m3150 -30 c3 -7 7 -104 10 -214 l5 -202 -137
-26 c-313 -59 -591 -94 -602 -76 -8 13 -44 399 -38 405 8 8 288 62 458 89 91
14 176 27 190 29 57 9 111 7 114 -5z m4444 -157 l-3 -59 -195 -6 c-734 -23
-1196 -65 -1855 -167 -448 -70 -738 -117 -1120 -184 -730 -128 -737 -130 -757
-155 -24 -30 -23 -46 7 -76 29 -29 14 -30 310 21 105 18 300 52 435 75 135 22
344 59 465 80 508 90 1265 198 1575 224 324 28 1154 66 1167 53 13 -13 117
-371 147 -507 120 -535 147 -1180 75 -1790 -27 -228 -69 -481 -174 -1045 -146
-782 -165 -883 -195 -1069 -17 -99 -30 -183 -30 -188 0 -21 -17 -4 -29 30 -8
20 -41 97 -74 170 -67 149 -88 172 -134 150 -46 -22 -42 -57 28 -219 133 -309
228 -590 249 -738 7 -47 10 -122 7 -170 -11 -165 -103 -546 -222 -911 -81
-251 -82 -253 -56 -279 28 -28 65 -27 89 4 11 13 55 130 98 260 43 129 81 235
85 235 4 0 14 -28 22 -62 98 -412 139 -593 198 -887 108 -542 148 -830 170
-1229 19 -325 -6 -657 -71 -983 -17 -86 -140 -597 -146 -607 -3 -5 -132 -33
-419 -92 -229 -47 -568 -117 -1477 -306 -913 -189 -1349 -262 -1769 -298 -605
-52 -1122 -20 -1919 119 -445 78 -797 100 -1325 85 -883 -25 -1411 -4 -2250
91 -211 23 -225 26 -225 40 0 5 -25 67 -56 137 -178 401 -239 670 -264 1165
-23 440 27 1026 171 2027 33 228 65 451 71 495 6 44 14 84 18 88 4 4 16 -16
27 -45 154 -410 188 -496 201 -510 32 -38 102 -13 102 36 0 28 -36 134 -135
396 -105 279 -157 434 -204 608 -79 289 -84 322 -85 502 -1 154 1 176 37 342
20 98 42 233 47 300 5 68 12 132 15 143 8 32 132 604 145 668 10 50 9 62 -4
83 -22 32 -80 34 -96 3 -7 -11 -40 -145 -74 -297 -35 -153 -67 -277 -72 -277
-25 0 -197 700 -268 1090 -99 542 -137 954 -130 1420 3 269 19 460 59 705 29
179 134 725 145 756 7 18 31 24 196 52 238 40 304 48 540 63 365 23 686 -12
1509 -166 665 -124 1229 -204 1572 -223 78 -5 145 -11 149 -15 4 -3 -18 -37
-48 -74 -141 -176 -277 -380 -285 -428 -4 -28 -1 -36 21 -50 24 -16 28 -16 50
-1 14 8 46 46 72 83 26 38 100 139 163 226 209 285 217 302 167 352 -27 27
-57 31 -271 40 -335 14 -932 98 -1590 224 -909 174 -1255 200 -1824 135 -119
-14 -341 -51 -411 -69 -23 -5 -27 -2 -36 34 -11 41 -11 41 20 46 17 3 96 16
176 30 146 24 308 44 540 66 167 15 696 15 895 0 394 -30 604 -59 1065 -147
300 -57 517 -91 765 -121 123 -15 227 -18 570 -18 565 1 732 19 1375 152 1287
264 1687 310 3095 353 187 6 414 15 505 20 226 14 601 40 625 44 65 11 65 11
63 -53z m-6300 20 c53 -11 141 -25 194 -32 129 -15 498 -7 638 15 58 10 112
18 120 19 11 2 17 -26 26 -143 7 -80 15 -170 19 -202 l6 -56 -108 -7 c-150
-11 -673 2 -817 19 -121 14 -135 21 -136 61 0 21 -56 305 -66 339 -5 15 -3 18
11 13 9 -4 60 -16 113 -26z m6426 -10198 c8 -16 35 -55 60 -87 25 -33 46 -62
46 -66 0 -8 -653 -155 -1150 -259 -80 -17 -334 -71 -565 -121 -817 -177 -1138
-239 -1453 -280 -623 -81 -1287 -78 -2222 11 -118 11 -305 29 -415 39 -226 21
-492 35 -965 50 -604 20 -837 38 -1308 105 -548 78 -567 80 -1055 80 -384 0
-437 2 -431 15 3 8 11 48 17 88 l12 72 30 -5 c69 -11 451 -56 600 -70 524 -48
565 -49 1595 -50 1109 0 1005 6 1580 -86 637 -102 866 -126 1260 -136 574 -13
1129 55 2155 266 1381 284 2063 427 2130 445 28 8 53 15 57 15 4 1 14 -11 22
-26z m263 -403 c60 -121 84 -191 98 -283 l7 -44 -184 -46 c-100 -25 -186 -43
-190 -39 -6 7 -158 455 -155 458 10 7 327 81 342 80 15 -1 35 -31 82 -126z
m-475 -215 c40 -121 73 -224 73 -229 0 -7 -565 -144 -597 -146 -5 0 -8 6 -8
14 0 8 -25 117 -55 242 -31 125 -54 228 -53 229 9 8 554 120 560 116 3 -3 39
-105 80 -226z m-753 39 c41 -162 101 -437 97 -442 -10 -9 -194 -41 -330 -57
-119 -14 -426 -21 -426 -11 0 3 -25 87 -55 188 -30 100 -55 188 -55 194 0 7
35 20 78 29 88 20 664 143 673 144 4 1 12 -20 18 -45z m-7931 -78 c6 -7 -38
-331 -48 -345 -5 -10 -279 0 -436 15 l-72 7 -11 74 c-6 40 -11 114 -11 163 l0
89 138 4 c169 5 432 0 440 -7z m447 -22 c148 -15 384 -50 392 -57 5 -5 -43
-306 -49 -313 -3 -2 -42 3 -89 12 -82 15 -557 39 -591 30 -10 -2 -20 -1 -22 3
-3 4 6 83 20 176 13 94 24 172 24 173 0 5 146 -6 315 -24z m6596 -75 c11 -36
91 -301 96 -320 4 -14 -18 -17 -179 -22 -214 -8 -350 -19 -581 -48 -93 -12
-171 -19 -173 -16 -7 6 -54 225 -54 248 0 12 14 18 53 23 52 7 712 138 777
155 46 12 52 9 61 -20z m-5851 -24 c80 -8 221 -22 313 -29 93 -8 171 -17 174
-20 4 -3 -9 -103 -28 -221 -28 -180 -37 -215 -51 -215 -23 0 -585 154 -674
184 -7 3 -5 36 7 107 9 57 20 130 24 163 l7 58 41 -6 c23 -3 107 -12 187 -21z
m1030 -66 c179 -7 327 -13 329 -15 2 -2 -11 -105 -30 -229 -30 -206 -35 -226
-53 -230 -159 -36 -444 -30 -681 13 -38 7 -40 9 -37 42 3 41 51 375 58 408 5
27 -18 26 414 11z m723 -30 c193 -12 436 -34 441 -40 1 -2 1 -75 -2 -163 l-4
-158 -117 7 c-134 8 -298 -5 -499 -39 -75 -13 -138 -22 -140 -21 -3 3 47 390
54 413 4 15 45 15 267 1z m956 -84 c167 -14 323 -25 347 -25 l42 0 6 -112 c11
-210 13 -319 7 -322 -9 -6 -292 48 -451 84 -74 17 -180 42 -235 54 l-100 23
-3 166 -2 167 42 -5 c24 -3 180 -17 347 -30z m2149 -88 c13 -67 23 -126 23
-132 0 -5 -85 -24 -188 -41 -103 -18 -296 -53 -427 -78 -131 -26 -240 -45
-241 -44 -5 6 -33 332 -30 339 2 3 65 9 139 12 163 8 450 35 561 52 44 7 94
13 110 14 l30 1 23 -123z m-997 34 c4 -3 12 -67 18 -141 6 -74 14 -153 17
-176 l6 -40 -149 -23 c-173 -26 -490 -48 -503 -35 -5 5 -12 104 -16 221 l-7
212 314 -6 c173 -3 317 -8 320 -12z"/>
<path d="M10445 17241 c-255 -109 -428 -266 -554 -501 -61 -115 -55 -170 19
-170 33 0 49 17 95 104 69 131 165 245 274 325 62 46 202 121 281 151 64 24
77 64 35 105 -13 14 -32 25 -42 25 -10 0 -58 -18 -108 -39z"/>
<path d="M7048 16278 c-40 -43 -93 -151 -120 -245 -32 -109 -31 -340 0 -455
36 -131 113 -278 171 -325 25 -21 78 -16 95 9 23 33 20 47 -25 113 -93 136
-129 241 -136 401 -8 165 30 306 111 413 30 41 33 81 8 104 -30 27 -70 21
-104 -15z"/>
<path d="M9894 15980 c-120 -26 -313 -93 -394 -138 -234 -129 -413 -299 -502
-477 -38 -76 -41 -98 -17 -129 28 -35 70 -35 98 0 12 15 21 31 21 37 0 25 82
140 153 214 126 131 305 243 498 311 91 32 261 72 307 72 62 0 92 57 56 108
-13 18 -24 22 -72 21 -31 0 -98 -9 -148 -19z"/>
<path d="M14147 13432 c-29 -32 -19 -58 61 -161 96 -123 133 -184 184 -302 71
-166 118 -388 118 -562 0 -80 2 -90 25 -112 31 -32 50 -31 82 1 l26 26 -6 137
c-9 221 -59 421 -153 620 -88 187 -233 371 -292 371 -16 0 -36 -8 -45 -18z"/>
<path d="M13782 13334 c-35 -24 -28 -60 24 -118 65 -71 125 -157 174 -249 45
-83 71 -104 114 -88 25 10 36 30 36 63 0 59 -176 323 -253 379 -46 33 -63 36
-95 13z"/>
<path d="M6449 13093 c-145 -101 -324 -324 -433 -542 -54 -107 -57 -146 -15
-170 24 -13 29 -13 52 2 14 9 55 71 92 138 89 160 190 293 308 406 68 65 97
100 97 116 0 53 -56 80 -101 50z"/>
<path d="M6692 12860 c-85 -52 -319 -327 -336 -395 -10 -41 16 -75 59 -75 31
0 39 7 106 98 40 53 119 145 176 203 64 66 103 114 103 127 0 20 -43 62 -64
62 -6 0 -26 -9 -44 -20z"/>
<path d="M10560 12094 c-19 -2 -93 -9 -165 -15 -712 -59 -1398 -255 -2065
-589 -408 -204 -756 -458 -1039 -757 -410 -434 -682 -1003 -762 -1593 -17
-121 -17 -448 -1 -565 63 -455 209 -846 455 -1215 122 -182 376 -452 577 -612
407 -323 886 -548 1430 -673 478 -109 943 -131 1510 -70 1004 109 1724 398
2338 939 414 365 755 866 952 1397 126 340 162 844 95 1349 -60 450 -222 858
-474 1185 -158 206 -376 395 -716 622 -493 328 -904 494 -1420 573 -112 18
-195 23 -410 25 -148 2 -286 1 -305 -1z m630 -150 c587 -71 1131 -314 1720
-768 434 -334 706 -779 814 -1333 48 -247 59 -369 60 -653 0 -298 -11 -401
-69 -625 -122 -475 -474 -1056 -861 -1424 -302 -286 -644 -513 -1015 -671
-553 -237 -1320 -372 -2029 -357 -464 10 -827 77 -1253 231 -526 191 -984 508
-1337 925 -211 250 -414 660 -505 1021 -46 183 -57 269 -62 487 -9 338 17 511
118 818 155 470 419 877 780 1204 340 309 759 559 1294 773 544 218 1085 341
1665 378 96 6 189 13 205 15 60 7 353 -6 475 -21z"/>
<path d="M11880 9765 c-119 -34 -212 -111 -268 -223 -36 -75 -37 -78 -37 -191
0 -98 4 -125 24 -176 31 -76 122 -170 202 -208 265 -125 569 39 610 329 27
193 -88 385 -271 455 -73 28 -188 34 -260 14z"/>
<path d="M8540 9670 c-201 -43 -344 -240 -327 -454 13 -175 116 -308 282 -367
50 -17 76 -20 155 -17 128 6 192 32 276 110 232 218 164 598 -129 710 -60 23
-189 32 -257 18z"/>
<path d="M10695 9077 c-23 -19 -27 -33 -34 -108 -16 -172 -117 -280 -292 -311
-102 -18 -232 16 -304 79 -62 55 -115 169 -115 251 -1 41 -13 63 -47 80 -35
19 -63 14 -94 -17 -25 -25 -29 -37 -29 -83 0 -283 257 -503 565 -485 186 11
338 98 425 243 80 132 94 341 25 368 -33 12 -75 5 -100 -17z"/>
<path d="M13633 6278 c-11 -13 -50 -67 -88 -122 -103 -150 -195 -255 -383
-437 -179 -174 -194 -196 -156 -233 24 -25 67 -19 115 15 75 54 350 338 439
453 94 123 180 260 180 288 0 25 -35 58 -63 58 -13 0 -33 -10 -44 -22z"/>
<path d="M13667 5744 c-78 -80 -146 -157 -150 -170 -14 -39 15 -74 59 -74 32
0 46 11 150 118 168 171 196 220 146 260 -38 30 -60 16 -205 -134z"/>
<path d="M5888 5759 c-53 -30 24 -391 134 -628 104 -226 334 -491 427 -491 38
0 65 35 56 73 -4 14 -46 61 -93 104 -152 139 -267 325 -342 552 -37 109 -80
294 -80 340 0 46 -60 75 -102 50z"/>
<path d="M6467 5162 c-42 -46 -5 -124 117 -251 124 -129 210 -181 252 -153 20
13 35 52 29 73 -4 11 -31 38 -61 60 -67 50 -148 133 -211 219 -39 52 -54 66
-79 68 -20 2 -36 -4 -47 -16z"/>
<path d="M5579 17238 c-49 -50 -85 -112 -116 -202 -25 -72 -28 -95 -28 -211 0
-108 4 -143 23 -205 31 -98 80 -191 142 -268 45 -54 55 -62 85 -62 37 0 75 31
75 61 0 10 -22 46 -48 81 -64 84 -86 123 -117 210 -64 177 -37 349 76 492 44
54 49 86 19 116 -30 30 -73 26 -111 -12z"/>
<path d="M5015 16400 c-15 -17 -17 -31 -12 -96 12 -163 122 -312 290 -393 142
-69 217 -64 217 14 0 38 -20 58 -75 75 -65 20 -153 71 -196 112 -51 49 -95
141 -104 216 -4 31 -14 65 -22 75 -22 23 -75 22 -98 -3z"/>
</g>
</svg>
