<?xml version="1.0" standalone="no"?>
<!DOCTYPE svg PUBLIC "-//W3C//DTD SVG 20010904//EN"
 "http://www.w3.org/TR/2001/REC-SVG-20010904/DTD/svg10.dtd">
<svg version="1.0" xmlns="http://www.w3.org/2000/svg"
 width="1024.000000pt" height="1024.000000pt" viewBox="0 0 1024.000000 1024.000000"
 preserveAspectRatio="xMidYMid meet">
<metadata>
Created by potrace 1.16, written by Peter Selinger 2001-2019
</metadata>
<g transform="translate(0.000000,1024.000000) scale(0.100000,-0.100000)"
fill="#000000" stroke="none">
<path d="M4865 6645 c-362 -64 -658 -254 -774 -498 -37 -76 -63 -185 -59 -241
2 -39 2 -40 -61 -72 -84 -43 -154 -113 -194 -194 -30 -61 -32 -71 -32 -175 0
-100 3 -116 28 -170 16 -33 38 -70 49 -82 l21 -23 -47 -50 c-68 -73 -107 -161
-113 -259 -13 -184 72 -336 230 -414 31 -15 70 -30 85 -33 28 -6 32 -14 142
-342 132 -392 166 -487 184 -501 19 -16 188 -58 301 -76 321 -49 643 -47 960
6 154 25 269 56 300 81 20 16 49 93 155 421 72 221 136 417 143 436 10 29 21
37 81 59 89 33 187 126 230 217 41 86 48 222 16 315 -22 66 -75 149 -113 175
l-21 14 27 49 c50 93 51 236 2 335 -46 91 -132 163 -228 192 l-42 12 -1 99
c-2 162 -56 283 -183 418 -131 138 -325 238 -564 291 -101 23 -414 29 -522 10z
m451 -150 c292 -50 531 -200 626 -392 53 -108 52 -232 -3 -280 -40 -36 -39
-92 4 -115 11 -6 49 -13 84 -15 148 -9 235 -75 263 -197 20 -88 -28 -186 -92
-186 -33 0 -68 -31 -68 -61 0 -35 18 -56 61 -73 151 -61 226 -198 185 -338
-45 -155 -230 -237 -383 -169 -57 25 -131 99 -175 175 -24 40 -31 46 -61 46
-45 0 -63 -23 -71 -92 -3 -32 -11 -70 -18 -85 -52 -121 -196 -187 -321 -148
-102 32 -156 87 -217 225 -4 8 -19 19 -34 25 -33 11 -79 -10 -84 -40 -23 -143
-111 -238 -239 -260 -134 -22 -273 96 -273 233 0 91 -119 96 -136 5 -9 -48
-75 -120 -139 -149 -69 -33 -170 -33 -240 0 -61 28 -116 87 -140 149 -27 70
-17 182 20 238 45 68 73 88 183 129 33 13 47 40 40 77 -2 10 -27 30 -57 45
-66 34 -97 61 -122 110 -29 57 -34 116 -14 184 14 48 27 69 75 116 63 61 125
88 207 88 51 0 83 26 83 68 0 21 -10 37 -41 62 -41 33 -41 34 -36 85 10 101
77 212 187 312 130 118 321 198 560 236 67 11 305 6 386 -8z m511 -1905 c42
-38 118 -76 166 -85 25 -5 37 -13 37 -24 0 -9 -45 -156 -101 -327 -55 -170
-108 -331 -116 -359 -9 -27 -21 -56 -27 -63 -7 -7 -61 -23 -121 -37 -341 -76
-801 -77 -1140 -2 l-100 22 -117 345 c-65 190 -119 351 -120 358 -2 9 17 20
52 31 69 22 98 37 131 68 l26 24 52 -50 c59 -58 151 -106 234 -123 119 -23
263 28 356 127 l52 55 47 -41 c131 -115 306 -140 457 -65 70 35 143 97 173
148 9 16 18 28 20 28 3 0 20 -14 39 -30z"/>
<path d="M5267 6342 c-12 -13 -17 -37 -17 -83 0 -71 10 -89 50 -89 41 0 50 17
50 95 0 42 -5 76 -12 83 -18 18 -53 15 -71 -6z"/>
<path d="M4785 6306 c-22 -33 -11 -51 47 -75 83 -34 118 -25 118 31 0 24 -7
32 -42 48 -60 27 -104 26 -123 -4z"/>
<path d="M4508 6143 c-45 -38 -57 -54 -58 -78 0 -50 57 -60 106 -17 48 42 59
68 39 98 -20 31 -46 30 -87 -3z"/>
<path d="M5534 6095 c-24 -37 -10 -63 49 -91 45 -20 54 -22 72 -10 44 29 23
85 -42 112 -45 20 -60 18 -79 -11z"/>
<path d="M4866 5984 c-19 -19 -22 -124 -4 -142 7 -7 24 -12 38 -12 40 0 50 18
50 87 0 51 -3 64 -19 73 -27 14 -47 13 -65 -6z"/>
<path d="M4473 5559 c-88 -43 -106 -155 -38 -224 95 -95 245 -28 245 109 0 52
-34 100 -87 122 -45 19 -71 18 -120 -7z"/>
<path d="M5590 5562 c-97 -48 -107 -188 -17 -247 100 -65 240 21 224 138 -10
71 -73 127 -142 127 -16 0 -46 -8 -65 -18z"/>
<path d="M5276 5298 c-9 -12 -16 -29 -16 -36 0 -30 -44 -91 -80 -111 -65 -36
-169 -24 -213 27 -10 11 -26 42 -36 68 -23 59 -56 77 -99 53 -56 -31 -38 -142
34 -219 118 -126 327 -128 446 -5 48 50 70 97 76 161 5 61 -12 84 -63 84 -24
0 -39 -7 -49 -22z"/>
<path d="M5767 4468 c-11 -9 -40 -97 -82 -248 -68 -248 -72 -269 -53 -288 16
-16 63 -15 76 1 10 11 84 266 128 435 l19 74 -24 19 c-27 22 -41 24 -64 7z"/>
<path d="M4360 4420 c-12 -23 -6 -49 78 -324 32 -105 65 -194 74 -199 24 -16
67 0 74 28 5 21 -113 448 -138 498 -13 25 -74 23 -88 -3z"/>
<path d="M4958 4373 c-10 -2 -20 -14 -23 -26 -3 -12 -2 -129 2 -260 9 -257 9
-257 65 -257 16 0 31 7 37 18 13 24 -1 498 -14 511 -14 12 -47 19 -67 14z"/>
<path d="M5197 4373 c-32 -8 -37 -49 -37 -284 0 -216 1 -230 20 -249 24 -24
38 -25 68 -4 22 15 22 18 22 260 0 231 -1 245 -20 264 -21 21 -22 21 -53 13z"/>
<path d="M5452 4311 c-9 -5 -27 -88 -50 -219 -29 -174 -33 -214 -22 -227 15
-18 63 -20 78 -2 6 7 27 105 48 217 l36 204 -22 18 c-24 19 -47 23 -68 9z"/>
<path d="M4686 4274 c-21 -21 -21 -21 23 -238 29 -141 43 -193 57 -203 24 -18
31 -17 59 11 23 23 23 24 9 92 -8 38 -26 130 -40 204 -13 74 -30 138 -37 142
-20 13 -55 9 -71 -8z"/>
</g>
</svg>
