<?xml version="1.0" standalone="no"?>
<!DOCTYPE svg PUBLIC "-//W3C//DTD SVG 20010904//EN"
 "http://www.w3.org/TR/2001/REC-SVG-20010904/DTD/svg10.dtd">
<svg version="1.0" xmlns="http://www.w3.org/2000/svg"
 width="1024.000000pt" height="1024.000000pt" viewBox="0 0 1024.000000 1024.000000"
 preserveAspectRatio="xMidYMid meet">
<metadata>
Created by potrace 1.16, written by Peter Selinger 2001-2019
</metadata>
<g transform="translate(0.000000,1024.000000) scale(0.100000,-0.100000)"
fill="#000000" stroke="none">
<path d="M5050 7039 c-582 -51 -1191 -241 -1570 -489 -290 -191 -513 -428
-641 -683 -110 -219 -160 -494 -129 -710 10 -67 9 -70 -24 -140 -55 -113 -77
-206 -83 -343 -9 -206 42 -357 169 -499 35 -39 84 -100 109 -135 61 -85 234
-251 343 -329 382 -271 878 -439 1521 -513 172 -20 753 -17 940 5 454 54 805
148 1120 302 453 221 751 517 875 870 104 298 100 569 -13 805 l-41 85 3 135
c4 229 -47 468 -142 656 -52 103 -165 268 -241 350 -265 289 -680 494 -1197
593 -192 37 -382 51 -651 50 -139 -1 -296 -5 -348 -10z m825 -173 c337 -52
582 -126 813 -246 217 -112 403 -267 533 -442 61 -82 153 -259 184 -353 95
-288 82 -619 -35 -880 -208 -462 -787 -751 -1710 -852 -201 -22 -748 -24 -930
-4 -330 36 -589 86 -813 156 -734 231 -1100 634 -1048 1154 32 315 195 606
471 843 415 356 1023 576 1770 642 114 10 669 -3 765 -18z m1719 -2076 c0
-132 -3 -153 -28 -230 -36 -108 -67 -170 -124 -244 -63 -82 -138 -127 -295
-177 -169 -55 -242 -102 -358 -236 -95 -109 -168 -166 -243 -188 -69 -21 -189
-19 -289 5 -274 63 -466 41 -742 -86 -174 -81 -221 -96 -309 -102 -110 -7
-170 9 -331 88 -254 125 -397 142 -650 75 -284 -76 -437 -34 -620 171 -44 49
-100 108 -125 132 -57 55 -198 123 -315 152 -123 31 -209 74 -270 136 -96 98
-135 204 -135 364 0 85 18 201 33 217 3 3 13 -11 21 -30 39 -95 162 -247 276
-342 359 -300 891 -488 1595 -565 164 -18 641 -24 826 -11 1090 80 1808 437
2027 1008 37 95 34 92 45 48 6 -22 11 -105 11 -185z m-4319 -842 c22 -11 54
-31 72 -44 41 -31 176 -184 169 -191 -15 -15 -386 255 -386 281 0 8 102 -25
145 -46z m3930 6 c-115 -100 -350 -264 -379 -264 -5 0 6 17 25 38 19 20 52 59
73 85 57 71 135 125 228 158 45 15 85 26 87 23 3 -3 -12 -21 -34 -40z m-992
-389 c59 -13 135 -27 170 -31 l62 -7 -33 -14 c-19 -8 -87 -27 -153 -44 -398
-99 -736 -136 -1172 -126 -341 8 -584 38 -884 109 -130 31 -165 48 -100 48 17
0 88 16 156 35 98 28 143 35 211 35 114 0 176 -18 350 -99 191 -90 197 -92
325 -98 143 -7 208 9 384 91 296 138 433 159 684 101z"/>
<path d="M5243 6640 c-64 -39 -54 -131 19 -158 32 -12 40 -12 71 3 67 31 74
119 14 156 -40 24 -64 24 -104 -1z"/>
<path d="M4605 6636 c-59 -26 -72 -101 -26 -147 84 -84 217 36 139 125 -28 32
-73 41 -113 22z"/>
<path d="M6285 6565 c-40 -39 -27 -104 27 -126 55 -23 116 31 103 91 -13 60
-86 80 -130 35z"/>
<path d="M5719 6475 c-84 -46 -42 -175 56 -175 41 0 85 50 85 97 -1 76 -72
116 -141 78z"/>
<path d="M4246 6379 c-59 -47 -15 -149 59 -135 65 13 89 96 39 135 -15 12 -37
21 -49 21 -12 0 -34 -9 -49 -21z"/>
<path d="M6621 6334 c-43 -54 -12 -124 53 -124 50 0 78 27 78 75 0 48 -28 75
-77 75 -24 0 -39 -7 -54 -26z"/>
<path d="M5231 6214 c-28 -35 -26 -69 4 -99 50 -51 135 -17 135 55 0 65 -98
96 -139 44z"/>
<path d="M3978 6145 c-57 -32 -65 -99 -19 -146 85 -84 217 36 139 126 -28 32
-83 41 -120 20z"/>
<path d="M4486 6114 c-19 -20 -26 -37 -26 -66 0 -87 102 -123 163 -57 58 62
18 148 -69 149 -32 0 -48 -6 -68 -26z"/>
<path d="M6425 6028 c-32 -17 -45 -39 -45 -76 0 -46 16 -71 53 -87 42 -17 83
-9 107 23 22 28 26 88 7 113 -28 37 -83 49 -122 27z"/>
<path d="M3380 6012 c-15 -12 -22 -29 -23 -56 -1 -47 29 -76 78 -76 63 0 99
86 55 130 -25 25 -80 26 -110 2z"/>
<path d="M6840 6010 c-27 -27 -27 -83 2 -110 28 -26 82 -26 108 0 26 26 27 90
2 113 -26 24 -87 22 -112 -3z"/>
<path d="M5115 5874 c-301 -28 -521 -132 -591 -279 -112 -237 157 -426 608
-426 293 0 543 91 638 231 43 65 53 153 25 227 -39 101 -172 188 -341 222 -92
19 -266 32 -339 25z m292 -180 c147 -30 243 -92 243 -158 0 -65 -110 -139
-268 -178 -119 -30 -369 -32 -487 -4 -212 49 -285 126 -200 211 58 57 189 112
322 135 86 14 308 11 390 -6z"/>
<path d="M5964 5870 c-60 -25 -72 -104 -24 -152 27 -26 36 -30 67 -25 53 9 83
42 83 92 0 30 -6 47 -23 63 -27 25 -73 35 -103 22z"/>
<path d="M3772 5637 c-28 -30 -29 -80 -2 -107 29 -29 84 -27 115 5 30 30 32
64 4 99 -27 35 -86 36 -117 3z"/>
<path d="M6859 5525 c-14 -8 -32 -28 -39 -44 -40 -96 77 -175 151 -102 78 79
-14 199 -112 146z"/>
<path d="M6274 5516 c-74 -32 -49 -146 32 -146 46 0 74 29 74 78 0 61 -49 92
-106 68z"/>
<path d="M3394 5401 c-29 -12 -54 -50 -54 -79 0 -51 48 -102 96 -102 29 0 71
30 84 59 14 35 6 83 -19 105 -23 20 -78 29 -107 17z"/>
<path d="M4050 5283 c-56 -21 -70 -96 -24 -132 35 -27 66 -26 100 2 64 56 3
159 -76 130z"/>
<path d="M3042 5147 c-46 -49 -12 -127 54 -127 63 0 98 86 54 130 -28 28 -81
26 -108 -3z"/>
<path d="M6155 5145 c-16 -15 -25 -36 -25 -55 0 -38 39 -80 73 -80 42 0 77 36
77 80 0 71 -76 104 -125 55z"/>
<path d="M4613 5015 c-38 -16 -53 -42 -53 -88 0 -93 116 -128 166 -51 54 81
-24 177 -113 139z"/>
<path d="M6760 4997 c-85 -43 -51 -177 45 -177 97 0 128 139 39 176 -41 17
-52 17 -84 1z"/>
<path d="M5734 4860 c-56 -23 -73 -112 -29 -155 49 -50 145 -22 160 46 17 77
-57 139 -131 109z"/>
<path d="M5070 4840 c-28 -28 -26 -81 3 -108 69 -65 176 26 117 101 -27 34
-89 38 -120 7z"/>
<path d="M3753 4796 c-37 -17 -53 -43 -53 -88 1 -37 14 -59 47 -76 93 -50 186
75 109 146 -29 28 -65 34 -103 18z"/>
<path d="M6490 4623 c-35 -13 -50 -37 -50 -79 0 -33 5 -46 22 -58 54 -38 128
-2 128 63 0 23 -7 44 -17 54 -21 18 -62 28 -83 20z"/>
<path d="M4212 4547 c-48 -50 -15 -127 53 -127 22 0 43 8 55 20 12 12 20 33
20 55 0 69 -81 102 -128 52z"/>
<path d="M4710 4492 c-61 -62 -25 -157 60 -157 35 0 47 6 72 34 25 28 29 39
24 69 -7 47 -34 72 -84 79 -36 5 -45 2 -72 -25z"/>
<path d="M5413 4482 c-52 -8 -71 -91 -30 -130 65 -62 173 25 120 96 -21 27
-53 40 -90 34z"/>
</g>
</svg>
