<?xml version="1.0" standalone="no"?>
<!DOCTYPE svg PUBLIC "-//W3C//DTD SVG 20010904//EN"
 "http://www.w3.org/TR/2001/REC-SVG-20010904/DTD/svg10.dtd">
<svg version="1.0" xmlns="http://www.w3.org/2000/svg"
 width="1024.000000pt" height="1024.000000pt" viewBox="0 0 1024.000000 1024.000000"
 preserveAspectRatio="xMidYMid meet">
<metadata>
Created by potrace 1.16, written by Peter Selinger 2001-2019
</metadata>
<g transform="translate(0.000000,1024.000000) scale(0.100000,-0.100000)"
fill="#000000" stroke="none">
<path d="M5765 7394 c-222 -29 -369 -87 -484 -190 l-51 -46 -24 29 c-37 44
-119 84 -184 90 -147 13 -273 -81 -303 -226 -11 -54 -5 -113 27 -262 6 -26 4
-27 -88 -49 -226 -54 -449 -152 -640 -279 -478 -321 -790 -837 -859 -1425 -25
-216 3 -541 66 -762 218 -757 910 -1330 1706 -1414 692 -73 1406 239 1811 790
164 223 268 445 332 707 48 195 60 317 53 535 -9 315 -72 564 -208 830 -106
206 -226 365 -397 529 -203 194 -445 344 -697 433 -18 7 -18 8 -3 17 26 14
107 127 143 199 55 109 76 193 82 320 6 131 2 142 -65 159 -44 12 -174 21
-217 15z m105 -208 c0 -35 -38 -153 -70 -217 -34 -66 -104 -155 -152 -191 -34
-26 -37 -26 -101 -15 -37 6 -67 14 -67 18 0 4 16 13 35 19 83 27 182 158 200
264 l6 39 -40 -6 c-96 -12 -221 -98 -263 -180 -10 -21 -23 -58 -27 -80 -7 -42
-7 -42 -46 -39 -22 2 -41 5 -41 5 -1 1 -4 34 -7 73 -6 70 -5 71 31 115 111
136 285 216 475 218 64 1 67 0 67 -23z m-825 -129 c26 -22 29 -35 76 -362 27
-187 49 -350 49 -363 0 -22 -2 -23 -77 -20 l-77 3 -33 210 c-18 116 -42 268
-54 339 -11 71 -18 139 -15 153 16 61 83 82 131 40z m459 -498 c447 -88 860
-364 1118 -745 120 -178 221 -419 270 -644 20 -93 22 -133 22 -340 0 -207 -2
-247 -22 -340 -54 -245 -165 -501 -296 -684 -339 -472 -880 -747 -1466 -746
-203 0 -375 31 -591 105 -448 155 -840 516 -1031 950 -113 256 -154 478 -145
772 7 204 25 311 85 490 194 578 644 999 1236 1159 50 13 92 22 94 19 5 -5 31
-161 32 -187 0 -10 -7 -18 -15 -18 -31 0 -72 -29 -85 -59 -25 -61 11 -120 89
-145 246 -80 644 -15 676 111 8 34 -11 88 -38 106 -12 8 -36 17 -53 21 -30 7
-31 7 -41 99 -6 51 -9 95 -7 99 5 8 16 6 168 -23z"/>
<path d="M4216 6057 c-101 -53 -170 -103 -261 -194 -120 -119 -235 -307 -235
-384 0 -50 37 -89 85 -89 55 0 71 13 114 98 84 160 241 321 393 402 77 42 98
65 98 111 0 46 -32 87 -75 95 -24 4 -50 -4 -119 -39z"/>
<path d="M6049 6041 c-21 -21 -29 -39 -29 -63 1 -44 13 -61 93 -138 63 -59 73
-65 112 -65 51 0 82 24 91 70 7 38 -4 61 -55 124 -83 102 -157 127 -212 72z"/>
<path d="M4413 5673 c-32 -6 -73 -59 -73 -93 0 -63 39 -103 99 -103 103 0 132
149 37 188 -20 8 -37 14 -38 14 -2 -1 -13 -4 -25 -6z"/>
<path d="M6081 4800 c-47 -11 -82 -39 -111 -91 -22 -40 -25 -55 -25 -154 0
-95 3 -117 23 -157 42 -85 139 -120 219 -79 81 41 107 107 101 254 -4 107 -17
146 -61 188 -37 36 -94 51 -146 39z"/>
<path d="M4003 4765 c-65 -39 -83 -87 -83 -223 0 -121 8 -152 48 -196 80 -85
215 -68 269 34 20 38 23 57 23 164 0 107 -3 126 -23 161 -46 82 -152 109 -234
60z"/>
<path d="M4625 4147 c-47 -47 -46 -82 5 -185 67 -133 209 -240 358 -271 68
-14 186 -14 254 0 72 15 183 70 239 118 86 75 170 236 155 296 -12 46 -50 75
-98 75 -57 0 -81 -18 -103 -77 -56 -148 -186 -232 -344 -221 -131 10 -230 76
-286 193 -42 86 -51 95 -104 102 -36 5 -44 2 -76 -30z"/>
<path d="M3874 4108 c-50 -24 -57 -96 -15 -139 28 -27 34 -29 110 -29 69 0 84
3 107 23 39 34 40 100 1 133 -25 21 -38 24 -105 23 -42 0 -87 -5 -98 -11z"/>
<path d="M6150 4102 c-13 -10 -23 -33 -27 -58 -4 -33 -1 -45 20 -70 23 -26 31
-29 104 -32 74 -4 81 -2 111 23 27 23 32 34 32 70 0 67 -29 85 -135 85 -64 0
-88 -4 -105 -18z"/>
</g>
</svg>
