<?xml version="1.0" standalone="no"?>
<!DOCTYPE svg PUBLIC "-//W3C//DTD SVG 20010904//EN"
 "http://www.w3.org/TR/2001/REC-SVG-20010904/DTD/svg10.dtd">
<svg version="1.0" xmlns="http://www.w3.org/2000/svg"
 width="1024.000000pt" height="1024.000000pt" viewBox="0 0 1024.000000 1024.000000"
 preserveAspectRatio="xMidYMid meet">
<metadata>
Created by potrace 1.16, written by Peter Selinger 2001-2019
</metadata>
<g transform="translate(0.000000,1024.000000) scale(0.100000,-0.100000)"
fill="#000000" stroke="none">
<path d="M5079 7350 c-138 -16 -287 -70 -403 -144 l-58 -37 -81 20 c-118 29
-200 35 -307 21 -277 -36 -509 -176 -655 -395 -37 -56 -104 -205 -105 -232 0
-7 -35 -29 -77 -50 -181 -88 -313 -296 -313 -492 l0 -67 -64 -47 c-192 -141
-339 -375 -393 -627 -26 -124 -24 -335 5 -455 48 -195 158 -356 322 -470 l76
-54 22 -93 c29 -119 145 -515 229 -778 124 -393 226 -635 303 -722 63 -72 244
-175 465 -263 412 -165 846 -248 1305 -247 560 0 1047 114 1335 313 55 38 82
66 122 126 149 226 289 566 438 1058 74 244 175 624 195 727 11 60 16 69 49
91 81 54 171 158 217 252 68 139 79 193 78 380 -1 144 -3 169 -28 250 -69 232
-207 424 -398 553 -61 42 -183 100 -225 108 -18 3 -36 11 -41 18 -5 6 -14 47
-21 91 -41 279 -197 536 -430 710 -209 156 -474 239 -713 221 l-86 -7 -34 32
c-112 106 -308 187 -503 209 -100 11 -130 11 -226 0z m326 -214 c109 -30 221
-92 301 -168 l74 -71 90 13 c280 40 547 -53 755 -264 161 -163 248 -354 264
-579 5 -75 12 -112 23 -123 8 -8 50 -24 94 -35 266 -65 481 -273 558 -540 31
-108 41 -224 27 -311 -42 -256 -198 -412 -426 -426 -44 -2 -88 -8 -97 -13 -9
-5 -31 -36 -49 -69 -19 -36 -59 -86 -100 -124 -112 -106 -241 -156 -404 -156
-102 0 -175 16 -277 61 -46 20 -76 28 -91 23 -12 -4 -58 -41 -103 -83 -90 -86
-165 -127 -289 -162 -192 -54 -434 -11 -596 106 -61 44 -94 45 -145 4 -86 -68
-206 -109 -324 -109 -117 0 -268 56 -353 130 -85 75 -101 76 -225 13 l-94 -48
-122 0 c-115 0 -124 2 -187 31 -80 38 -139 90 -185 161 -19 29 -39 54 -46 55
-7 1 -62 2 -123 3 -163 2 -275 46 -377 149 -121 121 -177 275 -178 487 0 237
92 454 262 615 40 38 101 84 136 102 34 18 67 42 73 54 7 13 8 48 4 99 -18
204 87 365 282 430 72 24 80 34 100 128 41 196 236 399 451 468 53 18 109 27
181 31 113 5 181 -6 273 -44 80 -34 98 -31 160 22 80 69 207 128 329 154 66
13 284 5 354 -14z m1784 -2889 c-197 -763 -423 -1354 -586 -1529 -99 -105
-370 -206 -707 -263 -363 -61 -795 -57 -1157 11 -347 64 -719 198 -948 341
l-74 46 -52 111 c-93 198 -251 683 -421 1287 -4 15 4 16 62 11 66 -5 67 -5
133 -71 73 -72 167 -132 248 -158 29 -9 55 -24 58 -32 2 -9 47 -222 99 -474
119 -573 112 -544 153 -566 62 -32 143 11 143 77 0 19 -25 153 -54 296 -98
468 -136 653 -136 665 0 6 12 11 28 11 35 0 121 23 189 51 l53 21 31 -26 c17
-15 68 -44 114 -66 l84 -40 5 -52 c4 -29 17 -233 31 -453 36 -575 34 -555 61
-582 47 -47 144 -22 160 41 3 13 -6 225 -20 472 -14 247 -27 469 -29 494 l-2
45 65 2 c94 4 204 30 289 69 41 19 78 34 84 34 7 0 8 -180 3 -545 l-7 -545 29
-30 c60 -59 153 -30 166 51 3 19 7 244 8 501 2 257 6 469 9 472 3 3 32 -2 64
-11 85 -24 327 -24 410 -1 32 10 61 15 64 12 3 -2 -32 -226 -77 -497 -45 -270
-82 -504 -82 -519 0 -40 10 -57 41 -73 44 -23 87 -19 117 13 25 24 31 47 61
222 18 107 55 317 81 465 27 149 56 321 66 383 17 107 20 115 49 134 16 12 44
34 61 50 l31 29 88 -26 c49 -14 129 -28 177 -32 69 -5 88 -9 88 -21 0 -16 -98
-402 -196 -773 -30 -114 -54 -219 -54 -233 0 -41 18 -66 57 -82 45 -19 97 -4
117 34 8 15 43 137 79 272 67 250 201 765 211 810 4 20 18 30 66 48 121 47
250 149 329 262 29 40 64 63 83 53 3 -2 -16 -90 -43 -196z"/>
<path d="M5180 6753 c-31 -12 -60 -47 -66 -80 -22 -116 135 -173 191 -68 22
40 14 93 -19 124 -24 22 -79 35 -106 24z"/>
<path d="M4068 6594 c-36 -19 -48 -43 -48 -97 0 -38 5 -49 31 -71 68 -58 169
-10 169 79 0 41 -26 82 -61 94 -41 14 -58 13 -91 -5z"/>
<path d="M6337 6334 c-82 -44 -48 -184 45 -187 49 -1 84 19 99 56 41 98 -51
182 -144 131z"/>
<path d="M5506 6305 c-42 -22 -55 -44 -56 -93 0 -82 75 -126 150 -87 37 19 50
43 50 90 0 49 -15 74 -55 91 -43 18 -53 17 -89 -1z"/>
<path d="M3933 5945 c-48 -20 -68 -73 -49 -133 12 -36 53 -49 178 -56 103 -7
121 -5 148 10 80 48 51 167 -44 178 -113 14 -202 14 -233 1z"/>
<path d="M5947 5880 c-47 -37 -45 -125 3 -150 40 -21 223 -61 252 -55 76 17
94 140 26 176 -28 15 -183 49 -224 49 -17 0 -43 -9 -57 -20z"/>
<path d="M3984 5490 c-65 -13 -141 -56 -200 -114 -47 -45 -54 -57 -54 -90 0
-28 7 -45 29 -67 47 -47 99 -37 181 32 109 92 230 47 230 -86 0 -112 65 -164
150 -120 79 41 58 240 -36 344 -75 84 -193 123 -300 101z"/>
<path d="M5892 5430 c-95 -48 -148 -120 -172 -234 -6 -32 -9 -78 -5 -102 11
-74 76 -105 145 -69 31 16 33 21 50 120 24 143 163 170 239 47 26 -43 67 -72
101 -72 35 0 76 27 90 60 17 42 -7 103 -68 171 -67 75 -144 109 -243 109 -64
0 -85 -5 -137 -30z"/>
<path d="M7030 5373 c-93 -47 -55 -193 50 -193 89 0 133 104 73 169 -36 38
-78 46 -123 24z"/>
<path d="M3225 5323 c-11 -3 -32 -17 -47 -31 -40 -37 -40 -102 1 -143 66 -65
171 -20 171 74 0 35 -6 50 -26 71 -15 14 -32 26 -40 26 -7 0 -18 2 -26 4 -7 2
-22 1 -33 -1z"/>
<path d="M4672 4975 c-45 -20 -57 -55 -44 -134 29 -177 157 -306 339 -341 214
-42 447 130 469 349 8 72 -9 106 -59 119 -68 18 -107 -9 -131 -90 -20 -68 -46
-109 -88 -140 -71 -53 -136 -60 -215 -24 -64 30 -108 87 -123 162 -20 93 -76
131 -148 99z"/>
</g>
</svg>
