<?xml version="1.0" standalone="no"?>
<!DOCTYPE svg PUBLIC "-//W3C//DTD SVG 20010904//EN"
 "http://www.w3.org/TR/2001/REC-SVG-20010904/DTD/svg10.dtd">
<svg version="1.0" xmlns="http://www.w3.org/2000/svg"
 width="1024.000000pt" height="1024.000000pt" viewBox="0 0 1024.000000 1024.000000"
 preserveAspectRatio="xMidYMid meet">
<metadata>
Created by potrace 1.16, written by Peter Selinger 2001-2019
</metadata>
<g transform="translate(0.000000,1024.000000) scale(0.100000,-0.100000)"
fill="#000000" stroke="none">
<path d="M6875 6952 c-23 -11 -68 -43 -100 -73 -127 -115 -203 -179 -214 -179
-6 0 -36 20 -66 44 -314 256 -695 270 -930 32 -80 -80 -125 -161 -154 -278
l-19 -73 -61 -7 c-196 -22 -346 -117 -425 -268 -29 -55 -65 -169 -66 -211 0
-4 -29 -4 -63 -2 -113 9 -299 -40 -413 -108 -309 -186 -433 -569 -299 -924 14
-38 35 -85 45 -103 11 -18 20 -37 20 -42 0 -5 -131 -116 -291 -247 -161 -131
-319 -261 -353 -289 -34 -28 -165 -136 -291 -241 -191 -158 -236 -200 -259
-244 -80 -145 -19 -342 122 -396 63 -24 154 -22 212 4 49 22 54 27 490 434
162 151 333 311 380 354 47 43 131 122 186 176 l102 99 68 -47 c358 -241 754
-231 1015 27 122 120 192 264 220 447 l12 82 76 6 c230 21 398 151 477 369
l22 61 80 11 c151 22 267 76 357 168 186 190 212 487 68 798 l-36 77 34 28
c181 152 278 245 293 283 32 81 9 175 -55 220 -45 33 -129 38 -184 12z m115
-137 c6 -8 9 -22 6 -33 -6 -16 -237 -225 -273 -246 -11 -6 -22 0 -39 20 -13
16 -23 32 -24 35 0 3 24 26 53 50 28 24 89 76 134 116 84 74 118 88 143 58z
m-885 -20 c33 -8 96 -33 140 -55 236 -117 426 -341 507 -600 33 -107 33 -288
-1 -373 -44 -111 -132 -196 -249 -240 -87 -33 -260 -30 -360 5 -333 119 -612
486 -612 807 0 325 265 534 575 456z m-702 -575 c10 -79 45 -187 93 -283 117
-234 380 -464 609 -533 33 -10 64 -21 69 -26 6 -4 -8 -43 -32 -92 -74 -149
-175 -214 -342 -224 -141 -7 -284 42 -420 146 -274 208 -438 512 -401 743 28
173 153 299 324 328 89 15 91 15 100 -59z m-553 -443 c0 -80 84 -277 167 -395
71 -100 216 -240 319 -308 80 -54 224 -124 253 -124 6 0 11 -20 11 -47 -1
-140 -72 -304 -180 -414 -133 -135 -323 -193 -516 -158 -316 58 -651 380 -740
710 -23 86 -23 235 0 314 47 158 158 297 296 369 101 54 185 75 298 75 89 1
92 0 92 -22z m-576 -1210 l57 -67 -93 -88 c-235 -223 -986 -919 -1008 -935
-57 -39 -158 -8 -186 58 -30 73 -4 149 72 211 27 21 101 82 164 134 63 52 138
113 165 135 28 23 126 104 219 181 478 392 541 444 547 441 3 -1 31 -32 63
-70z"/>
<path d="M5830 6703 c-56 -21 -70 -96 -24 -132 35 -28 69 -26 99 4 59 58 1
156 -75 128z"/>
<path d="M6510 5792 c-27 -8 -60 -45 -60 -67 0 -78 122 -99 145 -25 15 48 -39
107 -85 92z"/>
<path d="M4581 5606 c-46 -26 -54 -84 -16 -121 50 -51 135 -17 135 54 0 62
-65 98 -119 67z"/>
<path d="M4820 5200 c-62 -62 21 -162 100 -120 22 12 42 64 33 88 -19 54 -93
72 -133 32z"/>
<path d="M5216 4761 c-11 -12 -18 -36 -18 -57 0 -46 29 -74 76 -74 65 0 101
85 56 130 -27 27 -90 27 -114 1z"/>
</g>
</svg>
