<?xml version="1.0" standalone="no"?>
<!DOCTYPE svg PUBLIC "-//W3C//DTD SVG 20010904//EN"
 "http://www.w3.org/TR/2001/REC-SVG-20010904/DTD/svg10.dtd">
<svg version="1.0" xmlns="http://www.w3.org/2000/svg"
 width="1024.000000pt" height="1024.000000pt" viewBox="0 0 1024.000000 1024.000000"
 preserveAspectRatio="xMidYMid meet">
<metadata>
Created by potrace 1.16, written by Peter Selinger 2001-2019
</metadata>
<g transform="translate(0.000000,1024.000000) scale(0.100000,-0.100000)"
fill="#000000" stroke="none">
<path d="M5095 7370 c-78 -16 -75 -14 -930 -540 -110 -68 -261 -160 -335 -205
-74 -45 -252 -153 -395 -240 -143 -87 -465 -282 -715 -433 -854 -516 -858
-518 -896 -644 -18 -59 -19 -102 -18 -703 1 -894 23 -1313 74 -1417 60 -118
148 -160 340 -159 63 0 313 13 555 30 591 41 881 58 1315 76 201 8 588 27 860
40 272 14 599 30 725 36 127 6 606 12 1065 15 499 3 867 9 914 15 190 25 258
83 326 277 168 477 271 1126 274 1727 1 236 -1 276 -17 322 -21 61 -96 150
-258 310 -380 374 -927 752 -1494 1036 -418 208 -883 380 -1212 446 -109 23
-117 23 -178 11z m215 -336 c748 -197 1564 -626 2210 -1163 146 -121 240 -204
240 -212 0 -12 68 -5 -1355 -139 -518 -49 -727 -67 -1265 -112 -250 -20 -335
-22 -1515 -25 -1072 -3 -1247 -2 -1230 10 22 16 228 139 535 322 113 67 270
162 350 210 500 304 711 432 830 505 596 366 681 418 865 533 94 58 177 106
185 106 8 1 76 -15 150 -35z m2631 -1905 c-16 -306 -19 -329 -45 -329 -11 0
-104 4 -206 10 -826 42 -1202 35 -2265 -45 -550 -41 -602 -44 -820 -55 -135
-6 -303 -6 -470 0 -233 8 -744 19 -1703 36 l-322 6 2 155 3 156 1315 2 c1429
2 1372 0 2130 65 516 45 2327 216 2360 223 8 2 19 0 23 -3 5 -4 4 -104 -2
-221z m-407 -624 c191 -7 349 -15 351 -17 1 -2 -6 -59 -16 -128 -10 -69 -19
-128 -19 -132 0 -5 -195 -8 -432 -8 -701 0 -818 -7 -2268 -129 -572 -49 -735
-53 -1931 -48 l-1094 4 -8 188 c-5 103 -5 191 0 195 9 8 720 -2 1523 -22 870
-22 986 -18 1985 57 761 57 1245 67 1909 40z m235 -612 c0 -10 -24 -88 -52
-173 -49 -144 -54 -155 -82 -164 -18 -6 -326 -10 -765 -11 -642 -2 -1055 -11
-1440 -30 -58 -3 -323 -16 -590 -30 -267 -13 -645 -31 -840 -40 -195 -8 -685
-36 -1088 -61 -403 -25 -739 -44 -746 -41 -13 5 -18 43 -32 280 l-7 109 1179
-3 c832 -2 1231 1 1354 9 226 16 604 46 950 77 533 47 1041 83 1280 88 58 2
279 4 493 5 363 2 387 1 386 -15z"/>
<path d="M5329 6761 c-124 -25 -180 -130 -128 -238 56 -116 261 -223 425 -223
83 0 130 16 176 59 71 65 64 159 -18 250 -92 103 -321 179 -455 152z"/>
<path d="M4644 6563 c-83 -16 -69 -153 15 -153 43 0 60 9 77 41 32 62 -21 126
-92 112z"/>
<path d="M6441 6153 c-70 -35 -106 -131 -76 -208 52 -136 239 -152 306 -25 76
143 -83 305 -230 233z"/>
<path d="M3982 6101 c-106 -36 -174 -122 -175 -221 -1 -59 21 -96 74 -122 46
-24 94 -22 154 6 93 43 144 119 145 211 0 113 -82 166 -198 126z"/>
<path d="M4794 6012 c-125 -44 -181 -143 -136 -244 61 -138 285 -173 433 -67
64 45 88 152 50 215 -58 95 -219 140 -347 96z"/>
<path d="M5935 5855 c-56 -55 -18 -155 59 -155 48 0 65 8 81 41 23 43 18 77
-14 110 -38 38 -91 40 -126 4z"/>
</g>
</svg>
