<?xml version="1.0" standalone="no"?>
<!DOCTYPE svg PUBLIC "-//W3C//DTD SVG 20010904//EN"
 "http://www.w3.org/TR/2001/REC-SVG-20010904/DTD/svg10.dtd">
<svg version="1.0" xmlns="http://www.w3.org/2000/svg"
 width="1024.000000pt" height="1024.000000pt" viewBox="0 0 1024.000000 1024.000000"
 preserveAspectRatio="xMidYMid meet">
<metadata>
Created by potrace 1.16, written by Peter Selinger 2001-2019
</metadata>
<g transform="translate(0.000000,1024.000000) scale(0.100000,-0.100000)"
fill="#000000" stroke="none">
<path d="M4840 8659 c-860 -41 -1511 -241 -1640 -503 -30 -61 -32 -72 -28
-140 4 -62 10 -83 36 -122 30 -46 30 -49 16 -83 -22 -53 -78 -153 -149 -266
-83 -132 -116 -201 -159 -323 -73 -211 -90 -367 -106 -967 -19 -754 -7 -2576
20 -2991 36 -550 139 -835 394 -1090 109 -108 236 -196 400 -275 467 -224
1187 -341 1831 -299 734 49 1322 262 1583 574 165 197 234 393 267 759 47 536
84 2288 66 3185 -13 624 -21 759 -57 921 -46 204 -94 320 -205 497 -73 116
-159 278 -159 299 0 9 11 32 24 53 51 77 57 168 17 255 -122 273 -771 474
-1661 517 -232 11 -256 11 -490 -1z m525 -209 c455 -24 866 -96 1145 -201 176
-66 280 -144 280 -209 0 -38 -46 -90 -115 -130 -62 -36 -65 -36 -65 -10 0 185
-414 338 -1085 401 -171 16 -642 17 -825 1 -321 -29 -568 -73 -775 -139 -235
-75 -355 -161 -355 -252 0 -17 -4 -31 -9 -31 -5 0 -38 19 -73 43 -165 111
-121 200 157 314 376 156 1102 245 1720 213z m-635 -276 c0 -3 -11 -20 -26
-36 -14 -17 -28 -44 -31 -59 -3 -16 -8 -29 -12 -28 -9 0 -197 98 -191 99 4 1
208 25 248 29 6 0 12 -2 12 -5z m975 -21 c383 -45 733 -157 760 -244 44 -137
-629 -269 -1375 -269 -229 0 -556 15 -590 26 -8 3 26 16 76 29 135 34 201 71
228 129 l16 35 39 -14 c72 -25 189 -38 289 -32 179 11 312 70 358 159 28 53
12 142 -30 177 -9 8 -16 17 -16 22 0 10 37 7 245 -18z m-480 -44 c78 -14 135
-44 135 -69 0 -86 -402 -109 -505 -29 -35 28 -31 45 15 69 72 37 239 51 355
29z m-867 -75 c138 -50 270 -113 291 -138 12 -14 8 -18 -30 -35 -69 -31 -164
-45 -294 -44 -197 2 -370 49 -397 108 -10 22 -8 29 13 51 13 14 41 34 61 45
45 23 163 57 201 58 15 1 85 -20 155 -45z m-583 -97 c-8 -42 8 -82 46 -118 56
-52 -24 -32 -85 21 -45 40 -46 67 -4 102 43 36 50 35 43 -5z m-245 -272 c65
-33 174 -68 340 -110 646 -162 1575 -176 2280 -35 192 39 387 93 483 135 110
47 76 16 -49 -45 -313 -153 -789 -246 -1364 -266 -507 -18 -1143 70 -1480 203
-108 43 -295 143 -267 143 4 0 30 -11 57 -25z m-89 -113 c614 -371 1995 -454
2899 -176 148 46 334 128 418 185 25 17 48 27 49 23 2 -5 35 -58 74 -119 173
-268 225 -442 251 -835 16 -251 16 -1825 0 -2360 -44 -1470 -63 -1636 -212
-1864 -200 -306 -654 -495 -1365 -567 -155 -16 -595 -16 -750 0 -259 26 -530
76 -723 132 -108 31 -316 110 -394 150 -89 45 -216 134 -285 202 -159 154
-256 344 -302 594 -58 310 -66 566 -66 2138 0 1607 6 1764 75 2012 27 97 86
232 140 318 24 39 61 100 83 138 22 37 41 67 42 67 2 0 32 -17 66 -38z"/>
<path d="M3391 6933 c-18 -16 -23 -38 -36 -168 -51 -521 -68 -971 -68 -1750 0
-833 21 -1395 74 -1970 21 -231 30 -279 55 -289 31 -12 71 -6 89 14 17 19 17
29 -4 267 -53 607 -71 1106 -71 1953 0 771 20 1311 64 1760 8 77 10 144 5 157
-16 43 -71 56 -108 26z"/>
</g>
</svg>
