<?xml version="1.0" standalone="no"?>
<!DOCTYPE svg PUBLIC "-//W3C//DTD SVG 20010904//EN"
 "http://www.w3.org/TR/2001/REC-SVG-20010904/DTD/svg10.dtd">
<svg version="1.0" xmlns="http://www.w3.org/2000/svg"
 width="1024.000000pt" height="1024.000000pt" viewBox="0 0 1024.000000 1024.000000"
 preserveAspectRatio="xMidYMid meet">
<metadata>
Created by potrace 1.16, written by Peter Selinger 2001-2019
</metadata>
<g transform="translate(0.000000,1024.000000) scale(0.100000,-0.100000)"
fill="#000000" stroke="none">
<path d="M5446 9545 c-176 -49 -340 -199 -430 -397 -41 -89 -73 -216 -82 -324
l-7 -81 -89 -28 c-116 -37 -193 -83 -287 -171 -138 -130 -210 -287 -219 -475
-4 -94 7 -209 24 -253 4 -11 -5 -17 -33 -21 -21 -4 -80 -18 -131 -31 -52 -13
-95 -24 -97 -24 -2 0 -23 33 -46 73 -120 208 -217 377 -414 717 -120 206 -235
405 -257 442 -43 76 -60 88 -116 88 -31 0 -68 -19 -204 -102 -222 -137 -208
-126 -215 -175 -7 -50 -22 -22 284 -538 126 -214 280 -475 342 -579 61 -104
108 -192 104 -196 -177 -141 -260 -237 -333 -381 -53 -104 -73 -185 -74 -299
0 -72 5 -113 22 -168 l23 -74 -21 -59 c-154 -445 -179 -1078 -70 -1759 68
-420 147 -739 349 -1398 217 -709 276 -1064 212 -1272 -31 -99 -61 -150 -147
-241 -84 -90 -114 -147 -121 -229 -5 -53 -2 -67 26 -125 104 -210 525 -379
1141 -457 165 -20 699 -17 875 5 630 82 1065 272 1141 501 21 61 14 137 -17
197 -12 24 -59 83 -104 131 -88 92 -131 158 -161 248 -16 46 -19 84 -18 240 0
158 5 206 28 325 38 197 88 407 157 647 163 572 221 800 283 1109 166 816 164
1497 -5 2025 l-40 124 25 48 c40 79 59 160 59 252 1 111 -15 174 -70 288 -53
109 -159 229 -283 321 -110 82 -356 203 -513 252 -73 23 -134 43 -135 45 -2 1
6 42 19 91 27 108 29 255 5 358 -9 39 -35 108 -57 154 -33 67 -58 102 -128
171 -74 76 -100 94 -191 139 -105 51 -223 81 -321 81 -37 0 -39 1 -39 33 0
100 47 263 102 353 77 127 177 210 301 249 74 24 97 43 97 83 0 26 -17 63 -34
74 -16 11 -54 8 -110 -7z m-2177 -708 c23 -41 177 -307 509 -877 l160 -275
-111 -57 c-62 -31 -115 -54 -118 -50 -3 4 -91 151 -194 327 -104 176 -257 436
-342 579 -84 142 -151 261 -149 263 9 9 211 133 216 133 3 0 16 -19 29 -43z
m2036 -272 c188 -63 317 -201 365 -390 50 -196 -5 -389 -151 -536 -77 -78
-194 -141 -304 -164 -316 -66 -631 118 -710 415 -19 70 -19 209 0 279 31 119
106 228 211 307 60 44 198 109 213 100 5 -3 17 -47 26 -98 25 -129 61 -161
135 -123 39 20 44 46 26 125 -9 36 -16 78 -16 94 l0 29 64 -6 c36 -3 99 -18
141 -32z m-821 -985 c67 -97 254 -215 406 -256 101 -27 291 -25 400 4 156 43
290 124 380 232 42 51 45 52 84 46 70 -11 275 -85 376 -136 213 -107 388 -254
458 -387 110 -208 55 -447 -125 -546 -136 -73 -277 -70 -446 11 l-79 37 -56
-64 c-96 -109 -154 -133 -367 -156 -197 -21 -693 -38 -865 -30 -80 4 -180 13
-223 20 -99 17 -206 68 -271 129 -27 25 -54 46 -60 46 -6 0 -51 -16 -99 -35
-120 -47 -189 -59 -305 -53 -124 7 -193 33 -266 99 -74 67 -100 132 -100 249
0 353 425 713 998 845 114 26 100 31 160 -55z m2160 -1338 c120 -492 109
-1058 -35 -1782 -54 -275 -122 -540 -259 -1020 -114 -399 -165 -619 -201 -864
-27 -190 -23 -433 8 -532 42 -127 97 -216 198 -314 67 -66 95 -105 95 -135 0
-39 -37 -90 -94 -132 -370 -273 -1305 -390 -2021 -253 -445 85 -765 240 -765
370 0 30 21 63 72 113 174 172 247 400 218 681 -22 222 -92 534 -188 851 -131
429 -167 550 -216 728 -99 356 -186 803 -222 1142 -23 216 -24 649 -1 831 25
201 87 474 107 474 5 0 12 -5 15 -10 51 -82 659 -182 1273 -210 442 -20 1044
22 1482 105 255 48 374 80 445 118 42 22 47 13 89 -161z"/>
<path d="M3979 7356 c-100 -52 -111 -63 -107 -108 2 -25 9 -35 28 -42 22 -7
42 1 124 45 105 57 123 79 102 120 -18 37 -52 33 -147 -15z"/>
<path d="M5956 7337 c-12 -9 -17 -23 -14 -46 3 -30 10 -38 68 -68 102 -54 191
-117 259 -182 34 -34 69 -61 77 -61 23 0 54 38 54 66 0 49 -175 193 -329 271
-73 36 -89 39 -115 20z"/>
<path d="M3658 7098 c-38 -52 -96 -151 -123 -212 -41 -93 -31 -136 31 -136 31
0 35 4 77 94 25 51 63 121 86 154 45 67 50 91 23 115 -30 27 -67 21 -94 -15z"/>
<path d="M6305 6144 c-226 -55 -757 -134 -895 -134 -47 0 -80 -24 -80 -59 0
-59 33 -62 314 -31 352 39 807 128 845 165 19 19 17 66 -5 82 -22 16 -10 18
-179 -23z"/>
<path d="M3451 5963 c-20 -17 -22 -34 -33 -226 -28 -530 59 -1116 252 -1696
32 -95 64 -178 72 -182 34 -22 88 0 88 35 0 13 -27 104 -60 202 -186 558 -259
1062 -238 1639 7 205 7 210 -13 228 -12 9 -27 17 -34 17 -7 0 -22 -8 -34 -17z"/>
<path d="M5803 1759 c-343 -137 -837 -189 -1274 -135 -176 23 -397 74 -528
123 -71 27 -98 23 -112 -14 -17 -44 -3 -60 79 -92 436 -168 1097 -198 1597
-73 141 36 323 98 348 120 24 22 22 67 -5 86 -27 19 -17 20 -105 -15z"/>
</g>
</svg>
