<?xml version="1.0" standalone="no"?>
<!DOCTYPE svg PUBLIC "-//W3C//DTD SVG 20010904//EN"
 "http://www.w3.org/TR/2001/REC-SVG-20010904/DTD/svg10.dtd">
<svg version="1.0" xmlns="http://www.w3.org/2000/svg"
 width="1024.000000pt" height="1024.000000pt" viewBox="0 0 1024.000000 1024.000000"
 preserveAspectRatio="xMidYMid meet">
<metadata>
Created by potrace 1.16, written by Peter Selinger 2001-2019
</metadata>
<g transform="translate(0.000000,1024.000000) scale(0.100000,-0.100000)"
fill="#000000" stroke="none">
<path d="M4865 6694 c-541 -42 -1037 -198 -1329 -419 -92 -69 -223 -204 -270
-278 -114 -178 -147 -365 -110 -615 63 -427 276 -867 581 -1205 292 -323 671
-547 1053 -622 114 -23 352 -31 465 -16 616 81 1187 530 1510 1186 89 181 135
304 180 479 37 146 55 272 55 389 l0 77 368 0 c330 0 370 2 401 18 54 27 70
58 87 167 18 116 15 168 -14 225 l-20 42 43 41 c80 78 81 132 2 322 -45 107
-81 145 -138 145 -15 0 -112 -24 -216 -54 -180 -52 -275 -78 -716 -200 l-197
-54 -63 37 c-259 158 -609 266 -1022 317 -123 15 -540 26 -650 18z m645 -199
c330 -45 599 -118 788 -214 37 -19 52 -31 42 -35 -8 -3 -74 -21 -145 -39
l-131 -34 -49 19 c-76 30 -256 76 -385 98 -346 58 -763 54 -1100 -11 -292 -57
-553 -159 -713 -280 -251 -190 -236 -439 36 -617 315 -205 914 -327 1439 -293
700 45 1203 244 1338 530 l25 51 77 0 c75 0 78 -1 84 -26 4 -14 4 -75 2 -135
-5 -97 -9 -117 -37 -174 -126 -255 -646 -460 -1331 -526 -179 -17 -544 -15
-730 5 -707 75 -1264 335 -1380 644 -28 74 -24 216 8 304 143 395 732 687
1517 752 109 9 534 -3 645 -19z m2205 -101 c29 -44 30 -87 3 -118 -23 -28 -25
-28 -653 -117 -347 -48 -642 -90 -657 -92 -15 -2 -25 0 -22 5 3 4 11 8 18 8 7
0 148 38 312 84 164 46 378 105 474 131 96 26 236 64 310 85 167 47 192 49
215 14z m-2208 -267 c155 -26 208 -38 192 -47 -8 -4 -108 -33 -224 -65 -115
-31 -223 -64 -238 -73 -61 -36 -85 -137 -47 -199 42 -70 20 -67 675 -73 l590
-5 -67 -66 c-138 -138 -443 -251 -813 -303 -122 -17 -363 -36 -469 -36 l-68 0
6 28 c15 61 18 175 7 234 -22 113 -73 203 -170 299 -74 73 -103 94 -192 138
-101 50 -221 91 -266 91 -13 0 -23 5 -23 10 0 6 3 10 8 10 4 0 63 12 132 26
209 43 339 53 620 49 162 -2 289 -9 347 -18z m2154 -106 c32 -26 34 -110 4
-141 -20 -19 -32 -20 -704 -20 -376 0 -686 2 -689 5 -3 3 3 5 14 5 10 1 307
38 659 84 352 46 652 84 666 85 15 1 37 -8 50 -18z m-3231 -157 c44 -9 115
-35 170 -62 216 -105 323 -296 265 -471 l-17 -51 -46 1 c-26 0 -81 6 -122 12
-66 11 -75 15 -71 32 2 11 4 58 5 105 0 70 -3 93 -22 128 -57 107 -160 165
-295 165 -67 0 -86 -5 -142 -32 -66 -33 -112 -79 -141 -141 -9 -19 -18 -36
-19 -38 -6 -7 -68 31 -106 65 -85 77 -90 126 -21 193 39 37 65 52 133 74 142
46 268 52 429 20z m-41 -341 c14 -11 34 -36 45 -57 16 -33 17 -41 4 -74 -9
-24 -21 -38 -33 -39 -35 -4 -240 70 -243 88 -4 22 45 78 83 95 39 18 110 12
144 -13z m-885 -510 c125 -92 405 -212 649 -278 315 -85 753 -134 1072 -120
584 25 1058 138 1379 329 43 26 80 45 82 43 2 -1 -21 -54 -50 -117 -280 -605
-755 -1018 -1307 -1137 -120 -26 -402 -25 -514 1 -330 76 -583 213 -834 451
-164 156 -337 390 -444 600 -34 67 -117 263 -117 276 0 12 7 8 84 -48z"/>
</g>
</svg>
