<?xml version="1.0" standalone="no"?>
<!DOCTYPE svg PUBLIC "-//W3C//DTD SVG 20010904//EN"
 "http://www.w3.org/TR/2001/REC-SVG-20010904/DTD/svg10.dtd">
<svg version="1.0" xmlns="http://www.w3.org/2000/svg"
 width="1024.000000pt" height="1024.000000pt" viewBox="0 0 1024.000000 1024.000000"
 preserveAspectRatio="xMidYMid meet">
<metadata>
Created by potrace 1.16, written by Peter Selinger 2001-2019
</metadata>
<g transform="translate(0.000000,1024.000000) scale(0.100000,-0.100000)"
fill="#000000" stroke="none">
<path d="M5115 6663 c-604 -18 -1200 -122 -1457 -255 -141 -73 -171 -125 -223
-383 -37 -186 -48 -337 -42 -550 16 -548 208 -1044 540 -1391 255 -268 525
-424 865 -501 104 -24 138 -27 307 -27 145 -1 211 3 280 17 471 96 884 391
1144 820 l37 60 105 28 c614 160 1070 570 1139 1026 21 138 -1 279 -62 395
-149 281 -554 360 -893 174 l-61 -34 -28 112 c-32 131 -66 219 -98 253 -126
134 -536 227 -1117 253 -119 5 -245 9 -281 8 -36 -1 -105 -3 -155 -5z m680
-173 c190 -19 380 -49 502 -80 128 -32 243 -82 243 -106 0 -24 -84 -70 -188
-103 -91 -30 -413 -101 -457 -101 -12 0 -39 18 -60 41 -93 96 -240 178 -364
205 -79 16 -215 18 -296 3 -32 -6 -115 -12 -184 -13 -141 -3 -224 -25 -328
-88 -68 -41 -161 -124 -194 -173 l-24 -37 -95 6 c-202 13 -549 80 -635 123
-35 18 -65 43 -65 54 0 17 108 70 210 103 233 76 596 139 955 166 77 6 158 12
180 14 79 8 692 -3 800 -14z m-369 -269 c28 -5 75 -19 107 -31 58 -22 177 -95
177 -110 0 -8 -136 -24 -344 -40 -135 -10 -145 -8 -146 31 0 9 -9 42 -20 74
-11 32 -18 60 -16 63 20 20 165 27 242 13z m-404 -21 c20 0 62 -77 74 -137 6
-29 4 -30 -33 -36 -51 -9 -378 -8 -427 1 l-40 7 50 43 c92 80 244 138 328 126
16 -2 37 -4 48 -4z m1607 -154 c177 -836 -113 -1684 -714 -2085 -180 -121
-381 -203 -574 -235 -120 -20 -341 -21 -455 -1 -430 75 -825 358 -1063 763
-204 347 -303 787 -273 1213 9 124 37 337 46 348 1 1 28 -9 59 -23 160 -76
531 -137 921 -152 l171 -7 6 -240 c4 -132 7 -289 7 -349 l0 -108 -39 -43 c-21
-23 -55 -60 -75 -82 -142 -155 -118 -369 51 -455 41 -21 62 -25 138 -25 98 0
126 10 190 67 60 52 80 101 80 193 -1 103 -21 145 -126 260 l-79 87 0 339 c0
186 -1 342 -2 347 -2 4 90 10 203 14 466 15 953 80 1244 164 96 28 228 84 239
103 16 25 24 7 45 -93z m679 -26 c198 -32 325 -157 351 -342 28 -203 -64 -421
-264 -623 -127 -129 -249 -215 -425 -299 -109 -52 -297 -122 -306 -113 -2 2 9
39 25 82 l28 78 54 14 c126 32 325 133 450 229 80 61 193 186 240 264 65 110
83 170 83 285 1 93 -1 104 -29 155 -124 225 -492 191 -635 -58 -19 -34 -38
-62 -41 -62 -3 0 -9 53 -13 117 l-6 117 27 23 c73 60 209 117 318 133 72 11
74 11 143 0z m9 -289 c60 -28 78 -61 77 -142 -1 -190 -229 -441 -512 -565 -89
-39 -116 -43 -107 -16 10 34 33 166 40 234 l7 66 32 -5 c53 -8 73 18 95 128
30 149 82 238 166 281 82 43 138 48 202 19z m-2424 -751 c91 -110 104 -163 57
-230 -41 -58 -121 -75 -189 -41 -69 35 -95 107 -64 174 17 35 122 166 134 167
3 0 31 -31 62 -70z"/>
</g>
</svg>
