<?xml version="1.0" standalone="no"?>
<!DOCTYPE svg PUBLIC "-//W3C//DTD SVG 20010904//EN"
 "http://www.w3.org/TR/2001/REC-SVG-20010904/DTD/svg10.dtd">
<svg version="1.0" xmlns="http://www.w3.org/2000/svg"
 width="1024.000000pt" height="1024.000000pt" viewBox="0 0 1024.000000 1024.000000"
 preserveAspectRatio="xMidYMid meet">
<metadata>
Created by potrace 1.16, written by Peter Selinger 2001-2019
</metadata>
<g transform="translate(0.000000,1024.000000) scale(0.100000,-0.100000)"
fill="#000000" stroke="none">
<path d="M5748 7515 c-77 -43 -75 -170 2 -210 50 -26 97 -20 136 19 30 30 34
40 34 85 0 41 -5 56 -28 82 -34 38 -100 49 -144 24z"/>
<path d="M3965 7146 c-37 -16 -53 -35 -65 -76 -29 -101 71 -189 164 -145 59
28 84 105 54 169 -23 51 -99 77 -153 52z"/>
<path d="M6635 7096 c-13 -13 -38 -52 -55 -86 -17 -34 -72 -135 -121 -224 -50
-88 -93 -173 -96 -187 -7 -36 21 -85 59 -105 26 -13 38 -14 68 -5 21 6 42 17
47 24 6 6 68 117 138 245 144 264 150 286 97 333 -42 38 -102 40 -137 5z"/>
<path d="M3013 6848 c-31 -15 -56 -72 -48 -110 5 -23 62 -87 203 -232 107
-111 205 -206 216 -213 66 -39 146 15 146 98 0 26 -30 62 -201 240 -111 115
-210 214 -220 219 -23 13 -68 12 -96 -2z"/>
<path d="M4855 6237 c-92 -35 -194 -114 -231 -180 -8 -13 -17 -13 -79 9 -248
84 -499 -57 -585 -331 -7 -22 -15 -43 -19 -47 -4 -4 -35 -3 -69 3 -112 20
-260 -23 -356 -102 -74 -62 -130 -171 -150 -290 -6 -33 -10 -37 -44 -43 -60
-9 -155 -62 -210 -116 -99 -98 -149 -226 -138 -356 l6 -71 -47 -7 c-61 -8
-107 -38 -129 -84 -16 -32 -19 -61 -18 -212 0 -119 6 -205 18 -270 82 -457
303 -829 614 -1036 46 -31 149 -82 243 -121 22 -10 27 -19 31 -61 11 -113 103
-244 209 -298 110 -55 82 -54 1144 -54 849 0 989 2 1040 15 169 44 292 181
312 346 l5 46 82 33 c109 44 185 90 283 172 241 201 414 506 497 878 44 197
54 500 19 565 -28 51 -93 85 -162 85 l-37 0 4 72 c14 237 -143 437 -376 478
l-69 13 -7 61 c-4 42 -18 86 -46 143 -47 96 -108 156 -208 205 -63 31 -72 33
-185 34 l-117 0 -34 70 c-39 81 -97 150 -163 193 -109 73 -269 91 -395 47
l-67 -24 -25 42 c-52 89 -134 155 -239 194 -81 31 -218 30 -302 -1z m250 -201
c80 -37 132 -106 149 -200 11 -57 54 -96 106 -96 43 0 88 18 110 45 49 59 189
79 265 38 85 -45 144 -138 145 -226 0 -88 47 -147 116 -147 15 0 56 14 92 31
110 54 207 38 282 -47 18 -21 39 -52 46 -70 16 -38 18 -120 4 -178 -14 -64 21
-125 80 -139 14 -4 53 -2 87 4 118 21 214 -24 268 -122 31 -57 38 -138 16
-191 l-11 -28 -1825 0 -1826 0 -15 35 c-41 100 13 231 120 288 34 18 55 21
129 19 86 -2 89 -1 118 27 32 33 37 70 18 147 -33 129 103 274 245 262 28 -3
81 -19 117 -36 74 -36 97 -39 139 -17 39 20 60 63 60 123 0 63 32 165 68 217
35 50 109 101 161 110 68 11 119 -10 183 -76 52 -55 60 -59 101 -59 56 0 91
30 106 91 44 175 200 263 346 195z m1992 -1658 c-22 -527 -301 -1016 -667
-1169 -121 -51 -191 -60 -495 -65 -164 -3 -292 -10 -308 -16 -47 -18 -72 -92
-47 -139 25 -45 53 -50 338 -49 147 0 270 0 274 0 18 0 -18 -63 -57 -99 -80
-74 -34 -71 -1085 -71 -1014 0 -1000 -1 -1079 54 -22 16 -49 47 -60 69 l-21
42 264 5 c261 5 265 5 290 29 14 13 28 36 31 52 9 38 -19 94 -53 107 -15 6
-146 13 -292 16 -286 5 -365 16 -475 64 -303 131 -547 480 -635 908 -25 121
-46 330 -36 367 l6 27 2057 0 2056 0 -6 -132z"/>
<path d="M4947 5608 c-24 -19 -37 -63 -37 -129 0 -78 27 -109 93 -109 64 0 88
29 94 117 5 64 3 71 -22 101 -22 27 -34 32 -69 32 -23 0 -50 -6 -59 -12z"/>
<path d="M4403 5349 c-50 -14 -67 -48 -59 -115 13 -111 50 -153 123 -139 63
11 86 70 62 160 -16 62 -29 83 -62 95 -16 5 -30 10 -31 9 -1 0 -16 -5 -33 -10z"/>
<path d="M5787 5202 c-10 -10 -28 -52 -42 -92 -30 -88 -23 -130 25 -155 66
-34 117 -6 150 82 32 85 31 130 -3 159 -35 30 -105 33 -130 6z"/>
<path d="M3763 5106 c-22 -19 -27 -31 -26 -65 2 -51 35 -126 61 -140 60 -32
142 6 142 67 0 46 -30 120 -57 142 -35 27 -85 26 -120 -4z"/>
<path d="M3243 4345 c-84 -36 -81 -166 4 -201 45 -19 83 -11 119 27 42 43 41
107 -1 148 -37 36 -80 45 -122 26z"/>
<path d="M6795 4344 c-6 -1 -23 -5 -38 -8 -33 -8 -67 -58 -67 -101 0 -47 33
-92 78 -106 107 -32 186 104 107 184 -24 23 -58 37 -80 31z"/>
<path d="M4492 4154 c-49 -25 -62 -59 -62 -166 0 -75 4 -99 20 -125 39 -64
145 -65 193 -1 25 33 36 166 18 220 -24 73 -102 106 -169 72z"/>
<path d="M5443 4156 c-50 -23 -67 -66 -68 -173 0 -109 16 -140 84 -162 56 -18
107 0 135 48 25 43 33 161 14 215 -23 69 -99 102 -165 72z"/>
<path d="M6013 4158 c-51 -13 -63 -42 -70 -160 -7 -125 5 -171 51 -199 38 -23
58 -24 97 -3 44 22 59 67 59 179 0 94 -14 154 -39 170 -26 15 -68 21 -98 13z"/>
<path d="M3934 4145 c-37 -25 -46 -65 -42 -188 3 -105 5 -118 26 -140 31 -32
65 -41 108 -27 53 18 64 50 64 190 0 121 0 122 -29 151 -33 33 -91 40 -127 14z"/>
<path d="M4967 3890 c-14 -11 -33 -43 -42 -70 -19 -57 -42 -78 -118 -109 -74
-30 -97 -84 -62 -150 37 -72 129 -63 272 29 19 12 24 12 40 -2 75 -67 193 -89
238 -44 30 30 40 68 29 109 -7 26 -20 38 -71 62 -78 38 -100 59 -115 107 -17
58 -52 88 -103 88 -27 0 -51 -7 -68 -20z"/>
<path d="M3596 3604 c-35 -35 -36 -101 -3 -139 20 -23 40 -29 186 -54 90 -16
173 -26 185 -23 86 22 113 131 43 177 -26 16 -284 65 -348 65 -26 0 -44 -8
-63 -26z"/>
<path d="M6221 3604 c-138 -24 -175 -39 -193 -79 -13 -30 -3 -87 20 -108 40
-37 67 -38 220 -12 175 30 207 40 227 68 24 35 19 104 -10 132 -31 32 -79 32
-264 -1z"/>
<path d="M7435 5970 c-53 -21 -86 -94 -71 -154 3 -14 18 -36 32 -50 76 -70
194 -14 194 93 0 55 -17 82 -64 105 -37 17 -60 19 -91 6z"/>
<path d="M2644 5850 c-36 -14 -74 -68 -74 -106 0 -74 47 -124 117 -124 92 0
151 102 103 178 -31 49 -96 73 -146 52z"/>
</g>
</svg>
