<?xml version="1.0" standalone="no"?>
<!DOCTYPE svg PUBLIC "-//W3C//DTD SVG 20010904//EN"
 "http://www.w3.org/TR/2001/REC-SVG-20010904/DTD/svg10.dtd">
<svg version="1.0" xmlns="http://www.w3.org/2000/svg"
 width="2048.000000pt" height="2048.000000pt" viewBox="0 0 2048.000000 2048.000000"
 preserveAspectRatio="xMidYMid meet">
<metadata>
Created by potrace 1.16, written by Peter Selinger 2001-2019
</metadata>
<g transform="translate(0.000000,2048.000000) scale(0.100000,-0.100000)"
fill="#000000" stroke="none">
<path d="M15265 16258 c-350 -39 -740 -209 -1027 -447 l-97 -80 -73 25 c-109
37 -295 72 -451 86 -399 33 -794 -84 -1214 -361 -280 -185 -464 -341 -829
-706 -138 -137 -395 -403 -571 -590 -632 -672 -1100 -1103 -1618 -1491 -609
-457 -1273 -859 -2028 -1229 -511 -250 -809 -378 -1817 -776 -671 -265 -1018
-430 -1380 -657 -391 -244 -710 -548 -893 -848 -158 -259 -250 -512 -304 -831
-28 -169 -25 -566 6 -773 24 -164 84 -418 121 -510 12 -30 28 -109 36 -175 28
-233 97 -464 191 -635 87 -158 246 -352 381 -464 40 -33 111 -107 159 -165
115 -140 343 -367 468 -467 269 -215 605 -414 935 -557 120 -52 384 -146 480
-172 54 -15 75 -27 125 -75 157 -149 285 -241 472 -335 198 -99 350 -150 593
-199 360 -72 916 -83 1375 -26 747 92 1559 333 2415 715 229 103 707 340 940
468 1129 618 2263 1447 3235 2366 177 168 643 631 804 801 1034 1089 1715
2089 1996 2935 94 282 143 503 181 815 24 202 25 584 1 780 -76 619 -303 1079
-670 1357 -62 46 -101 83 -100 92 34 262 29 570 -12 766 -96 464 -332 826
-710 1091 -298 208 -738 315 -1120 272z m333 -279 c121 -13 142 -23 84 -39
-76 -20 -103 -69 -62 -110 24 -24 23 -24 125 -5 44 8 113 14 153 15 69 0 72
-1 72 -23 0 -39 -20 -137 -47 -234 -24 -87 -25 -94 -9 -118 23 -35 69 -34 93
2 10 15 32 83 49 152 21 85 36 126 45 126 7 0 44 -43 81 -95 75 -107 85 -115
120 -107 33 9 51 48 37 83 -19 53 5 37 101 -63 227 -237 361 -527 400 -863 12
-97 10 -473 -1 -485 -3 -2 -21 0 -40 5 -76 23 -231 31 -358 20 -309 -26 -612
-143 -951 -369 -320 -212 -622 -495 -1124 -1050 -614 -680 -868 -943 -1294
-1344 -404 -380 -1019 -855 -1515 -1170 -908 -578 -1790 -1017 -3042 -1517
-480 -191 -734 -296 -900 -370 -668 -297 -1206 -685 -1602 -1155 -110 -130
-301 -418 -380 -571 -175 -339 -273 -699 -273 -1006 0 -56 -4 -89 -12 -94 -18
-11 -291 -13 -403 -3 -191 18 -404 67 -585 136 -228 86 -386 187 -550 352
-203 203 -312 398 -377 671 -37 156 -44 426 -14 599 84 493 397 921 911 1247
324 205 696 360 1845 769 214 76 785 293 1065 405 1439 575 2613 1222 3535
1949 813 641 1481 1337 2509 2615 403 501 518 639 729 874 527 585 1035 832
1585 771z m-1818 -459 c51 -10 97 -23 103 -29 6 -6 -19 -42 -74 -103 -134
-148 -401 -465 -585 -693 -233 -290 -351 -436 -472 -584 -57 -69 -131 -160
-165 -201 -284 -348 -775 -889 -1068 -1175 -674 -658 -1223 -1081 -2089 -1609
-403 -245 -1079 -590 -1625 -828 -594 -259 -987 -412 -2205 -854 -831 -302
-1197 -467 -1521 -685 -332 -223 -612 -536 -771 -864 -62 -127 -65 -124 -67
53 -5 601 188 1069 610 1478 330 320 856 616 1649 929 129 51 372 147 540 213
1241 490 2174 964 3025 1537 811 545 1394 1059 2299 2025 624 666 995 992
1373 1203 184 103 429 184 625 206 113 13 304 4 418 -19z m2985 -1590 c149
-48 269 -124 380 -241 214 -226 352 -547 417 -964 18 -117 21 -186 22 -415 1
-285 -4 -347 -49 -612 -124 -730 -495 -1450 -1244 -2413 -550 -707 -1416
-1595 -2226 -2280 -655 -555 -1267 -997 -2017 -1457 -513 -314 -1210 -669
-1744 -889 -836 -343 -1591 -539 -2269 -589 -180 -13 -588 -13 -730 0 -609 56
-1043 258 -1335 621 -494 615 -436 1484 153 2267 402 534 978 952 1772 1287
83 35 323 133 535 218 889 358 1238 512 1860 823 1208 605 2140 1231 2980
2004 314 289 703 683 1014 1029 543 604 782 855 986 1034 355 312 663 492 975
571 141 35 135 35 300 32 123 -3 163 -7 220 -26z m-12120 -8574 c130 -27 353
-46 544 -46 l190 0 7 -37 c20 -118 61 -253 114 -372 17 -40 30 -75 28 -77 -16
-15 -420 177 -608 289 -104 62 -330 216 -364 248 -14 13 7 11 89 -5z"/>
<path d="M15075 15673 c-181 -24 -446 -207 -567 -392 -85 -131 -103 -259 -43
-321 81 -85 231 -54 485 100 288 174 400 294 400 427 0 30 -7 67 -14 82 -25
47 -80 88 -136 100 -51 11 -68 12 -125 4z m152 -138 c30 -35 24 -71 -22 -135
-64 -87 -255 -225 -439 -315 -164 -81 -226 -84 -226 -8 0 78 96 217 220 316
154 123 282 180 389 173 45 -2 59 -8 78 -31z"/>
<path d="M13238 13330 c-28 -29 -30 -34 -24 -83 3 -29 9 -124 12 -212 5 -139
3 -173 -15 -263 -27 -128 -50 -188 -107 -274 -79 -119 -206 -216 -359 -274
-38 -14 -193 -57 -343 -94 -233 -58 -287 -75 -375 -119 -131 -65 -220 -132
-297 -223 -88 -105 -139 -218 -210 -463 -37 -128 -78 -246 -105 -302 -81 -167
-210 -269 -411 -325 -75 -21 -98 -22 -484 -23 -353 -1 -413 -3 -465 -18 -161
-47 -263 -103 -363 -200 -86 -84 -135 -155 -227 -332 -42 -82 -97 -180 -121
-217 -84 -127 -208 -218 -344 -253 -93 -24 -282 -16 -460 21 -113 23 -161 28
-295 28 -151 1 -165 -1 -240 -27 -157 -55 -311 -174 -427 -331 -82 -110 -163
-282 -183 -387 -9 -50 23 -89 74 -89 49 0 69 23 106 120 111 294 299 485 534
540 76 18 258 7 411 -24 197 -40 322 -52 418 -38 173 24 305 87 428 205 91 86
137 155 243 362 44 88 101 187 126 220 92 123 228 208 380 240 69 15 122 16
395 10 415 -9 526 5 695 84 105 50 194 118 260 200 96 119 128 194 226 526 87
296 183 427 389 534 88 46 153 66 395 122 285 65 390 103 515 184 136 87 259
231 322 375 78 177 108 460 74 690 -12 80 -19 98 -41 117 -36 32 -71 29 -107
-7z"/>
<path d="M3826 7504 c-27 -27 -31 -63 -30 -276 0 -115 0 -208 -1 -208 0 0 -41
9 -91 20 -49 11 -102 20 -117 20 -32 0 -77 -39 -77 -68 0 -41 24 -54 141 -78
63 -13 124 -26 136 -29 22 -5 22 -7 16 -153 -6 -170 5 -257 38 -284 26 -22 58
-23 85 -4 18 13 19 28 19 189 0 96 3 179 8 183 11 11 64 -9 221 -87 77 -38
150 -69 162 -69 26 0 64 43 64 72 0 34 -42 63 -208 143 -89 44 -162 84 -162
90 0 16 116 125 207 194 79 60 93 77 93 107 0 23 -38 54 -66 54 -32 0 -126
-64 -232 -158 -46 -41 -86 -72 -89 -68 -11 11 -20 155 -15 269 4 103 2 120
-13 137 -22 24 -68 26 -89 4z"/>
<path d="M16998 11493 c-9 -10 -32 -75 -52 -145 -147 -518 -409 -992 -854
-1545 -188 -234 -202 -254 -202 -279 0 -31 33 -64 64 -64 35 0 70 33 189 178
156 189 184 224 289 372 309 435 543 904 654 1315 28 105 30 133 8 163 -19 27
-74 30 -96 5z"/>
<path d="M13503 10096 c-104 -34 -194 -114 -241 -214 -24 -51 -27 -68 -27
-172 0 -109 2 -119 32 -183 95 -201 334 -287 538 -193 117 53 196 163 216 299
28 190 -56 354 -225 437 -61 30 -80 35 -160 37 -57 2 -107 -2 -133 -11z"/>
<path d="M12869 8941 c-34 -35 -35 -46 -9 -129 27 -87 27 -194 -1 -268 -28
-74 -77 -127 -153 -164 -147 -72 -308 -39 -429 90 -39 42 -53 50 -83 50 -47 0
-84 -37 -84 -83 0 -56 76 -145 172 -201 84 -48 177 -69 296 -64 99 3 113 6
185 40 52 25 99 58 141 98 107 102 146 202 146 370 0 223 -90 352 -181 261z"/>
<path d="M11054 8536 c-80 -18 -110 -35 -176 -95 -93 -85 -134 -196 -125 -337
4 -68 11 -98 35 -147 40 -82 111 -152 192 -191 61 -29 72 -31 175 -31 101 0
115 2 170 29 80 39 149 110 188 194 29 61 32 76 32 167 0 119 -12 163 -67 245
-92 138 -258 203 -424 166z"/>
</g>
</svg>
