<?xml version="1.0" standalone="no"?>
<!DOCTYPE svg PUBLIC "-//W3C//DTD SVG 20010904//EN"
 "http://www.w3.org/TR/2001/REC-SVG-20010904/DTD/svg10.dtd">
<svg version="1.0" xmlns="http://www.w3.org/2000/svg"
 width="1024.000000pt" height="1024.000000pt" viewBox="0 0 1024.000000 1024.000000"
 preserveAspectRatio="xMidYMid meet">
<metadata>
Created by potrace 1.16, written by Peter Selinger 2001-2019
</metadata>
<g transform="translate(0.000000,1024.000000) scale(0.100000,-0.100000)"
fill="#000000" stroke="none">
<path d="M3910 8052 c-48 -39 -33 -179 31 -306 71 -139 146 -202 209 -176 71
30 76 114 16 265 -73 183 -183 276 -256 217z"/>
<path d="M6274 8036 c-37 -16 -91 -78 -129 -148 -35 -65 -41 -144 -12 -176 25
-27 72 -35 106 -18 65 34 140 149 156 239 10 51 -9 93 -47 106 -38 13 -36 13
-74 -3z"/>
<path d="M5653 7794 c-98 -49 -206 -282 -179 -388 10 -42 44 -66 92 -66 36 0
49 6 80 38 76 77 146 281 124 362 -11 43 -16 47 -59 60 -20 5 -38 4 -58 -6z"/>
<path d="M7527 7766 c-39 -39 -81 -154 -98 -270 -21 -139 8 -216 80 -216 51 0
88 31 118 98 36 82 53 167 53 270 0 90 -1 95 -29 123 -41 40 -80 39 -124 -5z"/>
<path d="M4934 7692 c-36 -29 -44 -57 -44 -152 0 -98 26 -223 60 -291 59 -114
178 -103 196 19 13 89 -34 309 -82 382 -39 58 -90 75 -130 42z"/>
<path d="M2964 7671 c-35 -21 -51 -57 -59 -134 -3 -29 -11 -72 -17 -97 -60
-252 -148 -412 -340 -615 -122 -128 -192 -222 -252 -335 -79 -150 -105 -251
-112 -435 -4 -120 -2 -153 16 -230 11 -49 23 -104 26 -121 8 -44 -15 -64 -77
-64 -65 0 -115 -26 -171 -89 -58 -64 -94 -154 -108 -267 -25 -200 19 -280 169
-308 40 -8 81 -21 90 -30 13 -14 16 -45 19 -179 7 -475 106 -853 310 -1192
240 -398 619 -698 1063 -839 126 -39 121 -33 123 -162 1 -100 3 -112 28 -150
62 -96 203 -149 549 -209 664 -115 1477 -96 2060 50 209 52 285 97 329 198 19
42 21 59 15 130 -9 102 -10 101 145 151 264 86 527 245 733 445 300 290 513
726 586 1201 14 91 31 328 31 436 0 110 6 117 111 144 88 23 117 42 147 101
22 40 23 53 19 154 -5 111 -21 175 -65 262 -64 124 -187 188 -312 161 -58 -12
-84 -5 -98 28 -9 19 -10 36 -1 67 18 69 14 260 -9 368 -82 392 -421 716 -832
793 -107 21 -299 21 -386 0 -84 -19 -101 -12 -139 53 -45 77 -113 161 -153
188 -73 50 -163 30 -395 -86 -247 -123 -449 -268 -679 -486 -58 -56 -105 -93
-117 -93 -12 0 -52 29 -90 64 -245 224 -522 341 -841 353 -224 8 -404 -27
-592 -116 -36 -17 -76 -31 -90 -31 -31 0 -177 127 -243 211 -62 79 -119 187
-153 294 -28 84 -36 125 -62 310 -8 59 -14 74 -40 98 -37 33 -90 36 -136 8z
m121 -682 c55 -104 128 -200 219 -286 45 -43 76 -80 76 -92 0 -11 -41 -66 -90
-122 -217 -245 -316 -474 -349 -802 -11 -117 -23 -131 -106 -122 -140 14 -281
38 -306 51 -33 16 -112 173 -128 252 -16 76 -13 221 4 308 36 172 120 314 293
497 137 144 184 206 241 316 41 79 44 82 74 79 29 -3 36 -11 72 -79z m3237
-74 c26 -24 126 -187 185 -300 80 -156 173 -411 218 -602 32 -133 75 -376 75
-420 0 -57 -14 -60 -320 -72 -151 -6 -309 -13 -350 -16 -41 -2 -319 -7 -617
-11 -435 -6 -545 -5 -558 6 -25 21 -17 72 29 181 183 439 467 775 892 1060
117 78 354 198 394 199 14 0 37 -11 52 -25z m731 -219 c97 -19 209 -66 300
-126 109 -72 146 -123 113 -158 -40 -45 -36 -119 10 -179 28 -37 58 -42 106
-17 61 32 89 2 123 -131 25 -97 29 -209 12 -307 -25 -141 -59 -185 -137 -179
-9 0 -27 22 -40 47 -53 98 -153 94 -180 -8 -16 -56 -40 -67 -176 -77 -98 -8
-123 -7 -141 5 -26 17 -25 12 -58 216 -47 296 -94 468 -191 698 -65 155 -72
198 -34 217 34 17 199 17 293 -1z m-2577 -36 c165 -44 265 -92 399 -192 110
-83 185 -158 185 -185 0 -10 -15 -41 -33 -68 -102 -153 -236 -424 -288 -580
-19 -57 -43 -110 -57 -124 l-24 -23 -271 6 c-514 13 -861 27 -879 37 -42 23
-41 85 4 315 21 105 21 113 5 137 -32 49 -102 43 -127 -12 -15 -32 -37 -152
-54 -292 -17 -135 -23 -142 -109 -137 -31 3 -63 10 -70 17 -29 29 7 269 64
424 133 361 482 644 859 697 102 14 305 4 396 -20z m3622 -1234 c33 -17 67
-75 85 -147 28 -106 4 -118 -310 -164 -633 -91 -1571 -124 -2658 -93 -306 8
-1822 75 -1890 83 -22 2 -107 7 -190 10 -232 9 -466 22 -815 45 -191 13 -215
17 -235 36 -19 20 -19 42 1 112 11 36 29 69 49 89 28 28 40 33 81 33 27 0 76
-5 109 -10 172 -28 567 -71 790 -85 55 -4 110 -8 121 -10 12 -2 100 -6 195
-10 96 -3 188 -8 204 -10 17 -2 138 -6 270 -10 132 -3 264 -8 293 -11 69 -7
1534 -7 1627 0 39 3 169 8 290 11 231 6 605 22 715 30 36 3 139 10 230 15 214
13 530 45 745 75 203 27 257 30 293 11z m-5268 -506 c195 -10 405 -22 465 -25
250 -12 722 -36 895 -45 254 -13 634 -29 945 -40 247 -8 1679 -5 1775 4 25 2
105 7 177 10 228 10 743 59 765 72 5 3 20 -2 33 -10 22 -15 25 -24 25 -79 0
-190 -41 -474 -97 -672 -37 -135 -125 -340 -190 -448 -252 -419 -660 -701
-1173 -811 -331 -71 -800 -109 -1350 -109 -626 0 -1149 55 -1465 154 -454 142
-796 415 -1022 814 -83 148 -173 391 -208 565 -49 243 -71 593 -39 624 20 20
33 20 464 -4z m1269 -2310 c431 -53 1131 -72 1596 -42 201 13 512 45 601 61
58 11 91 0 104 -34 21 -55 -19 -88 -147 -120 -183 -45 -375 -75 -683 -106
-166 -17 -686 -17 -875 -1 -348 31 -750 107 -810 154 -28 21 -35 78 -12 96 13
11 48 20 58 15 4 -1 79 -12 168 -23z"/>
<path d="M6103 6698 c-29 -33 -35 -57 -23 -94 13 -38 68 -69 103 -58 67 20 92
107 44 152 -32 30 -96 30 -124 0z"/>
<path d="M5805 6425 c-19 -18 -25 -35 -25 -65 0 -85 91 -122 144 -59 14 17 26
41 26 54 0 82 -90 125 -145 70z"/>
<path d="M6123 6310 c-27 -11 -43 -40 -43 -79 0 -43 9 -60 41 -76 41 -22 71
-18 102 10 21 20 27 35 27 66 0 70 -59 106 -127 79z"/>
<path d="M5465 6208 c-48 -55 -204 -283 -226 -330 -25 -56 29 -120 84 -99 30
12 55 42 111 133 26 43 68 105 94 138 80 103 92 122 92 146 0 35 -34 64 -74
64 -29 0 -42 -8 -81 -52z"/>
<path d="M5604 5941 c-42 -26 -60 -71 -44 -111 24 -58 95 -74 146 -31 30 24
37 55 24 95 -8 26 -21 38 -51 50 -48 19 -38 20 -75 -3z"/>
<path d="M6022 5940 c-13 -6 -29 -26 -38 -45 -36 -87 64 -164 138 -105 32 24
40 65 23 107 -21 49 -67 65 -123 43z"/>
<path d="M7497 6029 c-27 -16 -50 -68 -42 -98 17 -69 93 -94 140 -46 23 22 31
52 26 95 -5 43 -81 74 -124 49z"/>
<path d="M3835 6431 c-142 -69 -160 -86 -152 -138 12 -70 71 -83 150 -33 25
16 74 43 109 60 70 34 98 61 98 95 0 31 -37 75 -63 75 -12 0 -76 -27 -142 -59z"/>
<path d="M4124 6166 c-35 -15 -44 -32 -44 -81 0 -49 36 -87 83 -88 106 -3 122
154 17 177 -14 3 -39 -1 -56 -8z"/>
<path d="M3800 6007 c-81 -42 -47 -167 45 -167 41 0 85 47 85 90 0 61 -76 106
-130 77z"/>
<path d="M4295 5838 c-15 -14 -28 -38 -32 -60 -5 -32 -1 -41 25 -68 39 -38 79
-40 121 -4 25 21 31 33 31 65 0 79 -86 118 -145 67z"/>
<path d="M7250 4610 c-21 -21 -26 -37 -34 -115 -3 -27 -18 -114 -33 -191 -25
-135 -26 -143 -10 -168 35 -53 107 -43 132 18 18 43 66 325 67 390 0 40 -5 54
-22 68 -29 24 -75 23 -100 -2z"/>
<path d="M7048 3833 c-14 -16 -47 -59 -73 -97 -27 -38 -106 -129 -177 -202
-70 -73 -128 -138 -128 -144 0 -6 6 -26 14 -45 15 -36 48 -52 84 -41 30 10
242 230 331 345 65 83 81 110 81 137 0 72 -82 101 -132 47z"/>
<path d="M4302 3154 c-30 -21 -31 -85 -1 -113 26 -24 223 -59 429 -77 67 -5
78 -4 103 16 37 29 39 92 3 115 -25 17 -31 18 -201 36 -60 6 -141 17 -178 25
-88 18 -127 18 -155 -2z"/>
<path d="M5164 3146 c-49 -22 -59 -74 -23 -121 21 -26 24 -27 111 -23 80 3 92
6 109 27 25 31 25 83 -1 106 -27 24 -152 31 -196 11z"/>
<path d="M6933 7546 c-24 -21 -28 -32 -31 -92 -3 -44 2 -92 13 -134 20 -77 35
-108 76 -155 25 -29 38 -35 69 -35 117 0 142 146 54 325 -53 108 -121 142
-181 91z"/>
<path d="M3673 7440 c-88 -36 -38 -193 86 -272 72 -45 131 -35 156 27 32 74
-47 193 -159 240 -40 17 -52 18 -83 5z"/>
<path d="M2022 7377 c-49 -52 -17 -162 77 -268 147 -165 307 -96 214 91 -32
62 -136 174 -177 190 -46 17 -90 12 -114 -13z"/>
<path d="M8013 7224 c-29 -14 -83 -55 -120 -92 -109 -106 -141 -199 -88 -256
32 -34 67 -34 142 4 73 37 195 158 224 225 52 118 -33 182 -158 119z"/>
<path d="M8234 6620 c-71 -10 -135 -41 -168 -80 -23 -28 -27 -40 -22 -69 14
-88 132 -110 284 -54 95 35 132 126 71 177 -17 14 -40 26 -52 26 -12 0 -31 2
-42 4 -11 2 -43 0 -71 -4z"/>
<path d="M1674 6600 c-53 -21 -69 -88 -33 -134 37 -47 95 -70 176 -71 66 0 75
2 100 28 58 57 23 149 -66 176 -44 13 -146 14 -177 1z"/>
</g>
</svg>
