<?xml version="1.0" standalone="no"?>
<!DOCTYPE svg PUBLIC "-//W3C//DTD SVG 20010904//EN"
 "http://www.w3.org/TR/2001/REC-SVG-20010904/DTD/svg10.dtd">
<svg version="1.0" xmlns="http://www.w3.org/2000/svg"
 width="1024.000000pt" height="1024.000000pt" viewBox="0 0 1024.000000 1024.000000"
 preserveAspectRatio="xMidYMid meet">
<metadata>
Created by potrace 1.16, written by Peter Selinger 2001-2019
</metadata>
<g transform="translate(0.000000,1024.000000) scale(0.100000,-0.100000)"
fill="#000000" stroke="none">
<path d="M5431 7303 c-19 -10 -59 -48 -90 -85 -30 -37 -60 -68 -66 -68 -5 0
-25 9 -43 20 -95 58 -236 80 -356 55 -309 -64 -533 -330 -627 -744 -27 -119
-36 -353 -16 -444 17 -82 41 -67 -213 -137 -350 -98 -664 -212 -715 -260 -29
-27 -41 -70 -59 -215 -48 -372 -75 -1064 -58 -1450 22 -470 45 -529 219 -554
637 -91 2023 -89 2938 4 375 39 458 61 505 137 86 140 190 631 245 1158 21
196 30 548 17 630 -27 175 -197 408 -402 552 -168 118 -405 213 -648 259
l-124 24 7 30 c29 143 11 281 -55 403 l-39 72 38 60 c21 32 44 80 50 105 16
64 -6 111 -69 143 -38 19 -59 22 -130 21 l-85 -2 -8 97 c-4 53 -14 112 -21
131 -29 67 -120 95 -195 58z m57 -275 l-3 -103 -60 -21 c-76 -27 -149 -40
-144 -26 7 19 193 252 202 252 4 0 6 -46 5 -102z m-377 14 c56 -24 66 -38 46
-60 -32 -36 -60 -108 -61 -154 -2 -86 67 -126 199 -114 39 3 79 8 90 12 18 4
23 -3 39 -53 70 -221 165 -275 280 -157 l35 36 14 -24 c27 -42 41 -102 41
-173 -1 -177 -95 -320 -274 -418 -237 -130 -662 -142 -1002 -29 -96 32 -102
39 -125 165 -18 103 -11 269 17 387 74 312 245 533 460 596 62 18 183 11 241
-14z m652 -188 c7 -7 -142 -194 -154 -194 -12 0 -63 150 -53 160 9 9 140 37
180 39 11 1 23 -2 27 -5z m291 -859 c338 -68 601 -213 768 -424 60 -74 112
-164 102 -174 -3 -3 -11 -4 -17 -2 -19 6 -540 43 -767 54 -645 32 -796 35
-1560 34 -443 0 -883 -5 -979 -9 -121 -6 -175 -6 -178 2 -9 24 15 57 53 71
145 55 499 170 655 213 l186 50 44 -19 c82 -36 275 -90 385 -107 144 -22 387
-22 516 0 234 39 388 112 518 246 100 103 94 102 274 65z m-239 -694 c295 -14
813 -46 1005 -62 l142 -12 -6 -136 c-24 -498 -115 -1079 -213 -1365 -20 -57
-33 -80 -49 -86 -27 -11 -306 -46 -466 -60 -509 -44 -1118 -64 -1678 -57 -467
7 -665 15 -946 42 -216 21 -217 21 -226 74 -28 162 -36 697 -17 1111 10 241
33 538 41 546 24 23 1945 27 2413 5z"/>
<path d="M4824 6976 c-36 -16 -79 -68 -89 -108 -9 -35 10 -68 39 -68 53 0 136
86 136 139 0 49 -29 62 -86 37z"/>
<path d="M4772 6620 c-18 -11 -41 -34 -52 -52 -22 -37 -26 -98 -8 -116 22 -22
66 -13 103 19 63 56 83 120 47 152 -24 22 -50 21 -90 -3z"/>
<path d="M4479 6539 c-29 -29 -24 -103 8 -107 41 -6 73 84 41 116 -17 17 -25
15 -49 -9z"/>
<path d="M5223 6505 c-17 -14 -39 -45 -48 -70 -16 -42 -16 -46 -1 -70 9 -14
26 -25 37 -25 74 0 162 133 117 178 -20 20 -71 14 -105 -13z"/>
<path d="M5551 6318 c-13 -7 -33 -25 -44 -40 -17 -23 -19 -32 -9 -53 14 -31
44 -33 89 -5 75 45 41 138 -36 98z"/>
<path d="M4832 6303 c-40 -20 -71 -62 -79 -107 -8 -49 10 -76 52 -76 83 0 161
134 107 183 -23 21 -38 21 -80 0z"/>
<path d="M4512 6243 c-21 -8 -42 -60 -42 -105 0 -116 108 -118 126 -3 12 82
-26 132 -84 108z"/>
<path d="M5142 6109 c-50 -25 -78 -72 -68 -113 13 -54 108 -46 168 14 44 43
46 57 17 94 -25 32 -59 34 -117 5z"/>
<path d="M4752 5938 c-35 -35 12 -75 75 -63 24 4 35 13 39 32 4 16 2 28 -7 34
-21 13 -93 11 -107 -3z"/>
<path d="M5990 4821 c-75 -24 -136 -79 -166 -149 -26 -61 -16 -168 21 -228 71
-114 237 -152 347 -79 158 104 150 349 -14 433 -49 25 -145 37 -188 23z m99
-116 c16 -8 31 -22 35 -30 21 -55 -18 -115 -74 -115 -39 0 -80 39 -80 75 0 30
49 85 75 85 9 0 29 -7 44 -15z"/>
<path d="M3972 4807 c-92 -34 -156 -130 -156 -237 0 -73 17 -115 68 -168 119
-128 326 -96 408 62 30 57 30 165 0 222 -24 47 -81 100 -128 120 -40 17 -146
17 -192 1z m158 -117 c21 -21 26 -69 10 -99 -5 -10 -22 -24 -39 -30 -75 -31
-136 66 -79 126 27 29 80 31 108 3z"/>
<path d="M4513 4313 c-86 -16 -61 -163 50 -298 124 -150 270 -223 467 -232
267 -12 491 120 612 363 32 66 39 88 33 113 -9 41 -43 63 -92 59 -37 -3 -39
-6 -79 -83 -97 -190 -248 -289 -439 -289 -204 1 -384 120 -446 297 -20 57 -54
80 -106 70z"/>
<path d="M6255 4280 c-153 -35 -243 -81 -246 -127 -5 -70 34 -110 175 -179
149 -74 206 -72 208 5 1 45 -23 65 -129 106 -52 21 -91 41 -86 46 4 4 51 13
103 19 52 6 107 16 123 22 48 18 49 95 2 116 -33 15 -53 14 -150 -8z"/>
<path d="M3708 4275 c-35 -20 -45 -57 -24 -90 18 -27 22 -29 151 -45 113 -14
131 -23 85 -42 -19 -8 -59 -23 -89 -33 -73 -24 -116 -63 -107 -98 17 -71 66
-73 201 -8 260 124 254 232 -15 300 -116 29 -171 33 -202 16z"/>
</g>
</svg>
