<?xml version="1.0" standalone="no"?>
<!DOCTYPE svg PUBLIC "-//W3C//DTD SVG 20010904//EN"
 "http://www.w3.org/TR/2001/REC-SVG-20010904/DTD/svg10.dtd">
<svg version="1.0" xmlns="http://www.w3.org/2000/svg"
 width="1024.000000pt" height="1024.000000pt" viewBox="0 0 1024.000000 1024.000000"
 preserveAspectRatio="xMidYMid meet">
<metadata>
Created by potrace 1.16, written by Peter Selinger 2001-2019
</metadata>
<g transform="translate(0.000000,1024.000000) scale(0.100000,-0.100000)"
fill="#000000" stroke="none">
<path d="M5795 8563 c-22 -1 -103 -7 -180 -13 -174 -13 -532 -51 -855 -90
-303 -36 -584 -65 -844 -85 -109 -9 -213 -22 -231 -29 -18 -8 -43 -29 -56 -47
-23 -32 -24 -41 -23 -184 1 -99 8 -186 20 -256 l20 -107 -124 -268 c-136 -296
-262 -587 -349 -806 l-57 -143 -4 -230 c-2 -126 1 -405 7 -620 14 -487 73
-1839 96 -2215 l6 -95 -78 -1 c-244 -5 -563 -180 -829 -457 -160 -166 -255
-325 -274 -460 -49 -343 346 -623 953 -677 272 -25 563 31 710 136 26 19 51
34 56 34 4 0 84 -29 177 -64 302 -114 518 -177 612 -178 26 0 214 36 417 80
569 125 998 206 1535 292 301 48 335 56 363 90 14 16 27 44 31 62 3 18 17 276
31 573 14 297 39 794 55 1105 56 1078 63 1289 64 1820 1 534 -6 663 -45 908
-18 119 -34 163 -84 242 -13 19 -119 193 -236 385 -117 193 -259 423 -315 512
-57 89 -108 171 -113 181 -5 10 -17 88 -26 173 -44 429 -51 440 -270 437 -66
-1 -138 -3 -160 -5z m241 -131 c6 -4 14 -16 17 -27 8 -25 49 -406 44 -411 -1
-2 -201 -21 -443 -44 -452 -41 -988 -94 -1546 -151 -175 -18 -320 -31 -322
-28 -9 9 -46 253 -52 344 -7 93 -7 94 17 104 13 5 146 19 294 31 149 12 367
33 485 46 118 14 370 42 560 64 326 37 659 67 815 73 39 2 81 4 95 5 14 1 30
-2 36 -6z m235 -770 c64 -103 219 -355 344 -561 199 -326 230 -382 242 -440
18 -84 44 -321 37 -332 -3 -5 -19 -9 -35 -9 -63 0 -179 -35 -309 -92 -191 -84
-270 -102 -440 -95 -112 5 -165 13 -310 47 -144 35 -198 43 -305 47 -129 4
-132 4 -310 -41 -226 -58 -271 -62 -415 -42 -63 9 -138 16 -167 16 -28 0 -54
4 -58 9 -3 5 -10 58 -16 118 -22 239 -6 205 -577 1223 l-70 125 47 7 c64 10
1495 152 1786 178 127 11 246 21 265 23 19 2 67 4 105 5 l70 1 116 -187z
m-2492 -127 c18 -36 96 -176 172 -311 76 -135 139 -248 139 -253 0 -4 -61 -17
-136 -30 -168 -27 -346 -78 -483 -137 -57 -24 -106 -42 -109 -40 -6 7 331 774
365 829 9 15 19 5 52 -58z m424 -757 c19 -35 66 -124 104 -198 l69 -135 13
-133 c8 -73 10 -136 6 -140 -3 -4 -43 -6 -88 -6 -129 2 -297 54 -622 194 -284
122 -395 173 -395 182 0 19 223 137 335 176 130 46 418 112 532 121 6 1 27
-27 46 -61z m-802 -444 c499 -227 689 -292 885 -301 l122 -6 6 -176 c4 -97 11
-732 16 -1411 12 -1433 33 -2407 55 -2547 3 -17 2 -34 -2 -36 -15 -10 -543
165 -613 203 -17 9 -16 13 6 70 37 91 50 198 38 321 -6 57 -9 106 -7 108 1 2
35 -10 74 -27 98 -44 133 -42 158 5 30 58 2 88 -124 133 -139 49 -149 55 -162
89 -6 17 -8 33 -4 36 5 2 61 16 126 29 128 27 155 43 155 89 0 73 -44 81 -227
42 -64 -13 -118 -24 -118 -22 -21 28 -56 99 -51 104 3 3 52 31 108 62 116 63
139 90 116 139 -27 55 -119 35 -266 -60 l-53 -34 -40 39 c-21 22 -39 41 -39
44 0 2 17 30 39 61 76 113 87 156 51 192 -47 47 -97 16 -164 -100 l-47 -80
-38 20 -39 19 -6 88 c-18 258 -82 1709 -96 2188 -10 337 -13 785 -6 785 2 0
68 -30 147 -66z m3503 -160 c10 -25 7 -695 -4 -1000 -10 -286 -39 -897 -65
-1384 -25 -471 -34 -663 -50 -1055 -15 -378 -22 -475 -33 -475 -3 0 -141 -22
-306 -50 -635 -105 -1074 -190 -1738 -336 -43 -10 -80 -15 -83 -12 -8 8 -24
379 -35 838 -6 228 -15 998 -20 1710 -5 712 -12 1367 -16 1454 l-7 159 114 -9
c63 -4 177 -8 254 -8 134 0 147 2 290 41 83 23 184 45 225 49 77 6 97 3 434
-71 213 -46 399 -44 565 7 36 11 125 46 198 79 84 37 154 62 195 67 35 5 66
10 69 11 4 0 10 -6 13 -15z m-3639 -2948 c161 -43 296 -165 394 -356 115 -225
156 -480 105 -655 -17 -58 -71 -142 -112 -172 -262 -193 -888 -170 -1254 47
-82 49 -154 118 -194 185 -25 43 -29 60 -29 125 0 66 5 84 36 150 83 172 271
371 489 517 213 143 414 200 565 159z"/>
<path d="M4192 8104 c-56 -39 -47 -124 15 -150 31 -13 38 -13 71 3 58 28 68
97 22 143 -24 24 -77 26 -108 4z"/>
<path d="M3943 8090 c-47 -19 -59 -101 -20 -138 50 -47 147 -12 147 52 0 72
-60 113 -127 86z"/>
<path d="M5532 7680 c-33 -14 -44 -53 -33 -114 5 -28 8 -52 6 -54 -1 -1 -22 2
-46 7 -142 33 -311 -17 -401 -118 -92 -105 -139 -250 -140 -431 -1 -300 111
-463 337 -491 149 -19 388 32 565 119 328 162 434 435 249 645 -41 47 -142
117 -193 133 l-29 10 81 52 c84 53 101 77 87 122 -9 30 -50 53 -79 46 -14 -3
-74 -40 -135 -81 -60 -41 -114 -75 -119 -75 -14 0 -19 18 -33 109 -6 45 -19
90 -28 101 -20 24 -58 32 -89 20z m-34 -305 c12 -3 22 -9 21 -13 0 -4 -37 -34
-82 -67 -75 -55 -82 -63 -85 -98 -4 -49 19 -77 63 -77 34 0 63 19 168 113 35
31 68 57 73 57 5 0 22 -51 36 -112 22 -90 33 -118 53 -135 34 -30 60 -29 90 2
29 28 32 72 10 135 -23 66 -21 74 16 53 55 -32 119 -94 141 -136 28 -56 22
-130 -18 -194 -88 -143 -367 -273 -620 -290 -148 -10 -222 26 -270 131 -58
129 -55 327 9 477 21 50 82 116 131 141 66 34 160 38 264 13z"/>
<path d="M6460 3680 c-19 -19 -20 -33 -20 -550 0 -517 1 -531 20 -550 12 -12
33 -20 54 -20 68 0 66 -16 66 568 l0 523 -25 24 c-29 30 -68 32 -95 5z"/>
<path d="M3058 2974 c-33 -17 -48 -43 -48 -82 0 -55 76 -92 148 -72 46 12 70
35 78 78 5 26 1 36 -24 62 -26 25 -38 30 -79 30 -26 -1 -60 -7 -75 -16z"/>
<path d="M2492 2601 c-69 -51 -82 -146 -22 -171 75 -31 180 47 180 134 0 68
-87 88 -158 37z"/>
<path d="M3270 2373 c-52 -19 -66 -82 -29 -134 24 -34 83 -54 133 -45 41 8 72
52 60 89 -18 61 -108 110 -164 90z"/>
</g>
</svg>
