<?xml version="1.0" standalone="no"?>
<!DOCTYPE svg PUBLIC "-//W3C//DTD SVG 20010904//EN"
 "http://www.w3.org/TR/2001/REC-SVG-20010904/DTD/svg10.dtd">
<svg version="1.0" xmlns="http://www.w3.org/2000/svg"
 width="1024.000000pt" height="1024.000000pt" viewBox="0 0 1024.000000 1024.000000"
 preserveAspectRatio="xMidYMid meet">
<metadata>
Created by potrace 1.16, written by Peter Selinger 2001-2019
</metadata>
<g transform="translate(0.000000,1024.000000) scale(0.100000,-0.100000)"
fill="#000000" stroke="none">
<path d="M5350 7225 c-176 -27 -377 -85 -777 -224 -219 -76 -679 -232 -1023
-346 -634 -211 -843 -287 -960 -352 -251 -137 -395 -330 -478 -642 -22 -86
-25 -116 -26 -286 -1 -104 3 -215 7 -247 l8 -56 -148 -114 c-81 -62 -158 -129
-170 -147 -44 -65 -21 -166 46 -205 27 -15 64 -21 189 -28 86 -5 158 -10 159
-12 2 -1 -2 -29 -8 -62 -7 -34 -9 -114 -6 -189 12 -328 143 -504 595 -799 162
-106 484 -299 676 -406 616 -342 1107 -478 1593 -441 280 21 500 72 1098 251
266 80 455 135 608 179 l78 23 48 -45 c148 -139 276 -108 380 93 l40 76 233
73 c396 124 510 180 653 325 59 59 108 120 139 173 l49 83 51 0 c152 0 226
132 166 294 -26 67 -112 237 -213 418 -43 75 -77 140 -77 143 0 4 13 25 29 48
92 135 132 259 139 436 15 387 -150 698 -488 922 -63 42 -275 162 -470 266
-195 105 -440 239 -545 298 -469 265 -543 304 -705 373 -112 47 -239 87 -364
114 -123 26 -395 33 -526 13z m479 -350 c208 -46 374 -122 811 -373 162 -93
435 -244 605 -337 540 -292 618 -339 713 -429 71 -67 85 -94 70 -138 -32 -93
-91 -128 -398 -238 -58 -20 -287 -103 -510 -184 -907 -331 -1546 -552 -1720
-596 -463 -118 -849 -78 -1323 135 -371 167 -1410 792 -1523 917 -12 12 -34
40 -48 62 l-26 39 31 58 c46 86 102 138 204 191 130 66 287 123 1055 378 377
125 807 271 957 324 318 112 545 179 675 200 114 19 320 14 427 -9z m2340
-1528 c32 -183 -10 -320 -134 -442 -159 -157 -329 -229 -1315 -560 -599 -201
-672 -226 -985 -346 -236 -90 -376 -133 -530 -164 -487 -98 -938 -13 -1505
286 -290 153 -739 413 -913 531 -263 176 -370 309 -411 510 -15 73 -22 188
-11 188 3 0 53 -37 112 -82 272 -206 911 -593 1318 -795 226 -113 436 -193
635 -243 200 -50 250 -55 500 -55 406 1 451 13 1715 461 541 191 1056 381
1215 448 100 43 179 94 215 142 36 48 65 113 65 152 0 54 17 36 29 -31z m-74
-847 c15 -22 30 -40 34 -40 3 0 11 -10 18 -23 6 -12 25 -49 42 -81 23 -43 31
-72 31 -108 0 -50 0 -50 -27 -43 -91 24 -219 46 -293 51 -153 10 -289 -41
-411 -154 -104 -95 -194 -235 -366 -566 -63 -121 -119 -225 -124 -230 -5 -6
-68 49 -156 135 -82 79 -173 165 -203 190 -131 110 -255 167 -378 173 -34 2
-64 5 -67 8 -2 2 23 14 58 25 34 12 285 96 557 188 272 92 574 198 670 237
195 78 451 200 520 246 25 17 50 31 56 31 6 1 24 -17 39 -39z m-5514 -98 c266
-188 996 -620 1268 -749 397 -188 768 -282 1122 -283 215 0 415 27 804 108
352 74 452 76 580 12 59 -29 145 -94 135 -102 -3 -2 -95 -32 -205 -66 -110
-34 -292 -92 -405 -127 -649 -207 -993 -246 -1394 -161 -328 70 -637 210
-1171 530 -598 360 -748 470 -831 611 -27 46 -29 58 -29 145 0 108 9 154 29
147 8 -3 51 -32 97 -65z m5420 -433 c38 -7 69 -15 69 -19 0 -17 -88 -112 -134
-145 -27 -19 -74 -44 -105 -56 -84 -32 -316 -89 -319 -78 -5 13 44 99 93 161
103 131 208 168 396 137z"/>
</g>
</svg>
