<?xml version="1.0" standalone="no"?>
<!DOCTYPE svg PUBLIC "-//W3C//DTD SVG 20010904//EN"
 "http://www.w3.org/TR/2001/REC-SVG-20010904/DTD/svg10.dtd">
<svg version="1.0" xmlns="http://www.w3.org/2000/svg"
 width="1024.000000pt" height="1024.000000pt" viewBox="0 0 1024.000000 1024.000000"
 preserveAspectRatio="xMidYMid meet">
<metadata>
Created by potrace 1.16, written by Peter Selinger 2001-2019
</metadata>
<g transform="translate(0.000000,1024.000000) scale(0.100000,-0.100000)"
fill="#000000" stroke="none">
<path d="M6548 7180 c-176 -28 -940 -292 -1518 -525 -478 -193 -695 -286
-1324 -572 -378 -171 -628 -281 -974 -428 -139 -59 -280 -125 -313 -148 -166
-110 -243 -315 -256 -677 -6 -191 2 -248 52 -348 52 -102 281 -381 606 -737
225 -245 401 -413 479 -455 61 -33 71 -35 160 -35 111 0 26 -30 930 330 2559
1018 2845 1137 3485 1445 228 109 274 216 262 610 -11 372 -51 440 -487 843
-177 164 -446 398 -597 519 -190 154 -335 204 -505 178z m192 -189 c63 -24
141 -80 316 -226 251 -211 466 -406 650 -589 161 -161 184 -187 203 -239 11
-32 21 -60 21 -62 0 -7 -404 -208 -625 -312 -228 -108 -598 -274 -875 -393
-186 -80 -1728 -703 -1833 -741 -52 -18 -72 -43 -72 -89 0 -45 32 -85 73 -93
19 -4 79 15 202 65 96 39 429 173 740 298 830 335 1216 498 1695 721 99 46
301 143 449 217 147 73 271 130 275 127 9 -10 3 -222 -8 -294 -18 -109 -33
-130 -141 -183 -212 -106 -849 -388 -1182 -524 -309 -126 -2958 -1182 -3060
-1220 -15 -5 -18 0 -18 33 0 60 36 188 65 230 71 106 180 183 356 252 73 29
101 58 101 106 0 52 -38 90 -89 89 -62 0 -318 -131 -393 -201 -33 -30 -62 -54
-64 -52 -1 2 -9 19 -16 37 -30 77 -264 401 -620 858 -202 261 -267 339 -344
416 -47 48 -86 89 -86 92 0 19 138 87 437 216 192 81 515 223 718 315 1277
577 1808 791 2665 1074 287 94 368 107 460 72z m-4252 -1974 c179 -209 636
-807 777 -1017 39 -58 85 -143 104 -190 l33 -84 -16 -96 c-9 -53 -16 -113 -16
-133 0 -20 -4 -37 -8 -37 -12 0 -355 348 -482 490 -259 287 -483 564 -519 639
-24 51 -26 66 -25 176 1 105 27 336 41 358 7 12 19 1 111 -106z"/>
<path d="M6520 6860 c-198 -53 -273 -91 -301 -154 -38 -85 -24 -123 98 -256
255 -280 446 -487 555 -602 74 -79 129 -107 209 -108 93 0 394 103 429 147 26
34 26 92 0 121 -37 39 -63 38 -188 -11 -164 -63 -217 -79 -248 -75 -20 2 -62
40 -158 143 -214 229 -518 566 -514 570 1 2 69 21 150 44 81 22 157 45 168 51
47 25 49 104 3 140 -34 27 -75 25 -203 -10z"/>
<path d="M5570 6477 c-126 -40 -721 -273 -815 -319 -72 -36 -109 -82 -126
-158 -11 -49 3 -93 62 -191 68 -113 89 -134 138 -134 29 0 47 8 66 25 40 37
31 86 -33 181 -29 42 -52 81 -52 87 0 18 48 39 415 185 389 155 427 167 508
167 95 0 150 -36 361 -236 99 -95 248 -239 329 -321 138 -140 147 -150 130
-164 -79 -67 -1059 -439 -1158 -439 -15 0 -46 36 -122 143 -122 171 -132 182
-185 182 -48 0 -88 -39 -88 -85 0 -32 62 -129 187 -292 76 -99 128 -138 184
-138 128 0 1061 345 1259 465 105 63 145 162 104 251 -11 24 -110 131 -259
279 -336 336 -450 437 -552 487 -77 38 -89 41 -180 45 -82 3 -111 -1 -173 -20z"/>
<path d="M4095 5891 c-80 -22 -227 -82 -740 -302 -300 -128 -367 -161 -401
-194 -75 -71 -70 -137 18 -279 146 -233 406 -603 560 -797 56 -70 131 -95 237
-78 139 22 325 99 1051 435 115 54 168 91 197 141 22 37 25 52 20 95 -4 27
-17 69 -31 92 -26 43 -157 209 -381 481 -72 88 -172 212 -223 276 -50 63 -104
121 -119 128 -47 21 -114 22 -188 2z m140 -213 c21 -29 163 -205 314 -391 152
-187 284 -352 294 -367 l17 -28 -47 -22 c-27 -13 -100 -44 -163 -70 -63 -27
-173 -76 -245 -110 -326 -155 -576 -255 -669 -266 -52 -6 -53 -6 -83 32 -38
48 -229 318 -343 483 -47 68 -117 170 -157 227 -62 90 -69 105 -55 113 58 30
963 413 1052 444 34 12 47 5 85 -45z"/>
</g>
</svg>
