<?xml version="1.0" standalone="no"?>
<!DOCTYPE svg PUBLIC "-//W3C//DTD SVG 20010904//EN"
 "http://www.w3.org/TR/2001/REC-SVG-20010904/DTD/svg10.dtd">
<svg version="1.0" xmlns="http://www.w3.org/2000/svg"
 width="1024.000000pt" height="1024.000000pt" viewBox="0 0 1024.000000 1024.000000"
 preserveAspectRatio="xMidYMid meet">
<metadata>
Created by potrace 1.16, written by Peter Selinger 2001-2019
</metadata>
<g transform="translate(0.000000,1024.000000) scale(0.100000,-0.100000)"
fill="#000000" stroke="none">
<path d="M4394 8254 c-147 -77 -438 -354 -475 -452 -15 -39 -4 -54 79 -112
210 -146 531 -446 663 -620 89 -117 87 -113 50 -105 -65 14 -244 21 -357 14
-451 -29 -844 -239 -1062 -568 -200 -300 -295 -661 -309 -1171 -20 -742 187
-1601 519 -2150 312 -517 792 -830 1272 -830 165 0 303 32 439 101 32 16 64
29 73 29 8 0 45 -18 81 -40 133 -80 286 -127 448 -136 221 -14 456 60 665 207
95 67 258 231 334 335 265 364 472 950 560 1589 45 329 50 402 50 690 -1 306
-19 485 -70 715 -157 702 -598 1184 -1162 1271 -135 20 -134 19 -61 62 250
146 422 412 469 723 16 105 15 296 -2 331 -28 60 -98 73 -286 52 -349 -38
-619 -158 -827 -365 -73 -73 -152 -187 -185 -267 -13 -32 -26 -57 -29 -57 -3
0 -14 21 -25 46 -43 104 -177 254 -396 442 -208 178 -363 292 -398 292 -5 0
-31 -12 -58 -26z m112 -141 c109 -83 349 -289 437 -376 113 -112 179 -203 221
-305 31 -77 31 -78 31 -259 0 -215 -11 -244 -45 -131 -47 155 -153 319 -299
462 -47 47 -67 59 -91 59 -36 0 -46 -8 -55 -44 -6 -22 3 -36 61 -95 133 -136
234 -295 283 -444 12 -36 35 -139 52 -230 42 -230 46 -240 97 -240 21 0 52 29
52 50 0 37 63 141 112 185 63 56 188 117 288 141 110 25 387 31 508 10 290
-50 551 -210 736 -450 81 -106 105 -144 164 -262 123 -247 190 -505 223 -868
13 -144 7 -557 -11 -721 -89 -813 -319 -1476 -647 -1858 -236 -277 -539 -416
-840 -386 -103 11 -251 58 -328 105 -82 50 -135 74 -166 74 -15 0 -73 -22
-130 -49 -273 -129 -570 -116 -879 39 -421 212 -739 646 -948 1292 -212 655
-271 1387 -157 1953 123 612 472 968 1050 1072 109 20 348 22 455 5 121 -20
143 -29 162 -62 14 -24 24 -30 52 -30 55 0 62 24 31 107 -53 141 -176 318
-349 500 -103 110 -316 296 -428 376 -49 34 -88 64 -88 68 0 12 248 248 314
297 38 29 72 52 76 52 4 0 29 -17 56 -37z m1991 -155 c-17 -346 -172 -624
-433 -780 -111 -65 -205 -102 -384 -149 -176 -46 -292 -97 -364 -160 -43 -38
-48 -40 -41 -19 16 56 77 169 124 231 116 152 387 379 613 511 177 104 173
101 176 130 2 20 -4 31 -22 43 -23 15 -28 15 -78 -7 -120 -51 -340 -191 -484
-309 -82 -67 -221 -201 -253 -243 -12 -16 -23 -27 -25 -25 -2 2 2 38 10 79 40
221 102 348 238 484 184 185 385 275 736 329 14 3 63 5 109 6 l84 1 -6 -122z"/>
</g>
</svg>
