<?xml version="1.0" standalone="no"?>
<!DOCTYPE svg PUBLIC "-//W3C//DTD SVG 20010904//EN"
 "http://www.w3.org/TR/2001/REC-SVG-20010904/DTD/svg10.dtd">
<svg version="1.0" xmlns="http://www.w3.org/2000/svg"
 width="1024.000000pt" height="1024.000000pt" viewBox="0 0 1024.000000 1024.000000"
 preserveAspectRatio="xMidYMid meet">
<metadata>
Created by potrace 1.16, written by Peter Selinger 2001-2019
</metadata>
<g transform="translate(0.000000,1024.000000) scale(0.100000,-0.100000)"
fill="#000000" stroke="none">
<path d="M4685 7223 c-449 -22 -953 -108 -1315 -225 -271 -88 -532 -205 -568
-255 -25 -36 -86 -190 -106 -270 -21 -81 -46 -246 -46 -303 0 -78 24 -143 95
-256 84 -133 92 -174 52 -272 -39 -94 -50 -166 -43 -264 5 -79 4 -88 -12 -88
-25 0 -71 -33 -93 -66 -23 -35 -25 -113 -5 -153 14 -27 64 -75 100 -96 15 -9
12 -16 -24 -64 -53 -70 -76 -149 -63 -213 6 -30 6 -53 0 -64 -20 -35 4 -137
93 -409 140 -424 296 -812 406 -1007 44 -78 59 -95 105 -119 90 -45 617 -70
1509 -70 882 0 1553 28 2285 96 338 32 370 39 393 90 16 34 74 323 69 339 -2
6 7 31 22 56 22 38 26 57 26 120 -1 95 -26 153 -120 270 -89 112 -92 119 -70
172 9 24 20 65 24 92 6 47 8 50 46 60 33 9 44 19 62 56 24 50 93 372 93 437 0
70 -49 143 -409 618 -210 276 -251 339 -251 381 0 19 15 72 34 118 51 122 68
199 68 301 1 269 -146 494 -428 656 -421 242 -1163 370 -1929 332z m700 -143
c518 -44 947 -165 1228 -346 91 -59 147 -113 202 -192 68 -100 95 -186 95
-302 0 -96 -12 -140 -78 -305 -25 -62 -22 -190 5 -240 19 -36 137 -196 472
-638 57 -76 102 -139 100 -141 -6 -6 -484 -44 -764 -61 -721 -43 -1662 -61
-2387 -46 -288 6 -571 14 -630 18 l-107 6 -41 67 c-73 125 -229 424 -286 550
-68 151 -71 181 -24 295 69 172 87 317 55 453 -20 85 -48 137 -170 316 -58 85
-105 158 -105 163 0 9 115 67 215 108 97 41 339 118 486 155 282 71 583 117
899 140 85 6 178 12 205 14 83 6 501 -3 630 -14z m-2424 -665 c136 -206 144
-226 144 -360 -1 -107 -2 -114 -50 -240 -55 -148 -62 -212 -31 -305 36 -108
274 -573 371 -725 l32 -51 -31 -176 c-17 -97 -34 -179 -37 -183 -20 -19 -210
324 -325 585 -110 251 -145 355 -151 449 -5 70 -3 83 32 171 63 160 52 242
-53 397 -73 108 -77 119 -76 223 0 70 8 124 28 205 30 116 44 160 50 154 2 -2
46 -67 97 -144z m-146 -1275 c23 -50 15 -59 -24 -29 -33 26 -37 39 -19 57 18
18 24 15 43 -28z m162 -371 c35 -72 60 -136 56 -141 -11 -19 -137 -3 -184 23
-88 49 -91 116 -8 199 27 27 55 50 62 50 7 0 40 -59 74 -131z m4486 14 c5 -9
-49 -282 -63 -318 -6 -17 -19 -23 -57 -28 -26 -3 -120 -15 -208 -26 -584 -75
-1363 -119 -2280 -128 -536 -5 -1349 8 -1363 22 -5 5 54 385 60 389 2 1 89 -2
193 -7 290 -15 1865 -14 2230 1 571 23 1352 77 1477 101 4 0 9 -2 11 -6z
m-4613 -278 c23 -8 70 -15 104 -15 l62 0 12 -86 c12 -93 52 -192 98 -247 l26
-31 -26 -19 c-39 -28 -84 -99 -98 -153 -16 -66 -24 -73 -37 -33 -13 45 -187
559 -196 582 -9 21 0 21 55 2z m449 -268 c23 -21 53 -42 67 -47 58 -22 309
-32 987 -37 1138 -9 1936 26 2736 118 95 11 176 18 178 15 12 -12 -22 -68 -66
-109 -77 -73 -138 -81 -308 -43 -153 34 -241 -26 -298 -203 -36 -110 -101
-133 -164 -60 -106 123 -148 161 -207 190 -126 62 -240 47 -388 -49 -104 -69
-134 -69 -254 -6 -83 44 -90 46 -157 42 -60 -3 -84 -10 -164 -51 -87 -44 -99
-47 -169 -47 -69 0 -82 4 -163 45 -102 52 -152 62 -213 45 -64 -18 -108 -59
-151 -142 -46 -88 -69 -115 -106 -123 -55 -12 -115 39 -157 137 -27 62 -96
130 -148 146 -56 16 -108 15 -251 -5 -106 -15 -136 -16 -233 -5 -242 27 -411
116 -479 254 -17 34 -31 72 -31 86 0 21 9 13 49 -44 26 -38 67 -86 90 -107z
m4 -223 c187 -95 411 -125 668 -87 113 16 117 16 150 -3 24 -14 46 -42 74 -96
50 -95 85 -133 150 -164 92 -44 199 -24 259 46 15 18 41 60 57 93 39 76 70
107 108 107 16 0 71 -20 123 -45 155 -75 254 -73 422 10 49 25 103 45 118 45
16 0 62 -18 102 -40 140 -77 231 -74 363 12 123 81 186 92 273 47 37 -18 94
-75 149 -147 49 -63 108 -94 181 -94 110 0 175 59 219 197 37 114 71 131 195
99 89 -23 215 -16 284 18 l53 25 21 -31 c12 -17 50 -66 85 -108 71 -89 89
-137 73 -197 -11 -43 -55 -87 -97 -97 -49 -13 -148 4 -240 39 -186 72 -256 70
-428 -14 -136 -67 -191 -76 -323 -54 -126 22 -159 14 -234 -52 -29 -25 -76
-57 -106 -71 -47 -21 -65 -24 -131 -20 -86 5 -131 24 -224 94 -113 84 -198 82
-321 -7 -98 -72 -138 -89 -216 -89 -78 0 -119 17 -212 88 -94 71 -160 81 -316
48 -40 -9 -110 -16 -155 -16 -130 0 -210 28 -335 117 -109 77 -163 97 -280
101 -67 3 -141 -2 -215 -13 -262 -41 -427 -5 -453 100 -11 44 14 106 59 148
22 20 42 37 44 37 2 0 27 -12 56 -26z m-84 -384 c34 -11 72 -20 82 -20 11 0
22 -6 25 -14 5 -13 -34 -326 -41 -335 -6 -5 -128 248 -202 418 l-14 34 43 -32
c23 -17 72 -41 107 -51z m614 -60 c172 -9 179 -11 220 -39 65 -44 137 -78 208
-97 84 -22 251 -23 342 -1 127 31 165 24 245 -45 48 -41 119 -75 189 -88 111
-22 241 17 362 109 72 54 106 55 176 2 121 -92 248 -130 369 -111 90 14 143
38 224 102 l66 51 81 -11 c168 -25 243 -12 407 69 97 48 107 50 168 47 43 -3
98 -17 163 -42 121 -45 195 -60 266 -52 l53 6 -6 -37 c-21 -117 -29 -143 -50
-148 -96 -21 -864 -77 -1471 -107 -375 -19 -1812 -16 -2158 4 -148 9 -270 18
-272 19 -2 2 7 83 21 179 13 96 24 183 24 194 0 17 7 18 98 12 53 -3 177 -11
275 -16z"/>
<path d="M6072 5999 c-66 -33 -87 -70 -87 -156 0 -66 2 -74 30 -103 42 -44 76
-60 132 -60 60 0 111 25 141 69 30 46 36 72 27 127 -12 81 -89 144 -175 144
-14 0 -44 -10 -68 -21z"/>
<path d="M4015 5966 c-56 -34 -79 -78 -80 -147 0 -43 6 -64 25 -93 29 -42 91
-76 141 -76 49 1 112 32 139 71 31 43 39 132 16 177 -43 84 -161 118 -241 68z"/>
<path d="M5410 5897 c-17 -8 -31 -29 -43 -66 -32 -96 -76 -138 -169 -161 -38
-10 -56 -9 -102 4 -71 21 -117 66 -146 143 -12 32 -27 61 -33 65 -23 15 -67 8
-88 -13 -17 -17 -20 -28 -14 -57 35 -192 244 -321 431 -267 73 21 144 65 180
112 53 70 88 186 66 219 -6 10 -45 34 -54 34 -2 0 -14 -6 -28 -13z"/>
<path d="M6306 5514 c-20 -19 -20 -5 1 -158 15 -113 20 -130 39 -138 15 -7 28
-6 44 2 21 11 22 16 16 79 -17 165 -23 200 -35 215 -17 20 -45 20 -65 0z"/>
<path d="M3811 5491 c-18 -12 -52 -258 -39 -283 10 -21 61 -24 75 -5 6 6 16
55 22 107 7 52 15 109 17 126 9 49 -35 80 -75 55z"/>
<path d="M6491 5456 c-14 -17 4 -146 22 -158 22 -14 56 -8 66 11 11 20 4 115
-11 144 -11 21 -61 23 -77 3z"/>
<path d="M3612 5428 c-17 -22 -26 -136 -12 -153 16 -19 54 -19 69 -1 18 21 26
133 11 151 -15 18 -54 20 -68 3z"/>
<path d="M6127 5422 c-15 -16 -16 -26 -6 -78 14 -69 23 -84 54 -84 37 0 47 22
39 90 -9 85 -47 116 -87 72z"/>
<path d="M3987 5407 c-13 -9 -20 -32 -24 -81 -6 -73 0 -86 44 -86 29 0 40 22
49 98 6 60 6 62 -20 72 -33 12 -29 12 -49 -3z"/>
</g>
</svg>
