<?xml version="1.0" standalone="no"?>
<!DOCTYPE svg PUBLIC "-//W3C//DTD SVG 20010904//EN"
 "http://www.w3.org/TR/2001/REC-SVG-20010904/DTD/svg10.dtd">
<svg version="1.0" xmlns="http://www.w3.org/2000/svg"
 width="1024.000000pt" height="1024.000000pt" viewBox="0 0 1024.000000 1024.000000"
 preserveAspectRatio="xMidYMid meet">
<metadata>
Created by potrace 1.16, written by Peter Selinger 2001-2019
</metadata>
<g transform="translate(0.000000,1024.000000) scale(0.100000,-0.100000)"
fill="#000000" stroke="none">
<path d="M4930 6394 c-90 -11 -252 -49 -344 -81 -294 -102 -576 -309 -755
-552 -76 -103 -162 -277 -197 -396 -38 -129 -45 -297 -16 -392 27 -88 84 -176
153 -236 64 -56 194 -125 297 -158 l74 -24 -6 -35 c-32 -184 -27 -277 18 -375
107 -233 375 -338 896 -352 562 -14 899 95 1015 331 48 97 62 186 47 303 -6
48 -14 97 -17 108 -5 17 3 22 62 39 94 26 218 86 291 141 233 175 271 470 107
821 -141 303 -390 550 -710 704 -131 63 -215 92 -360 126 -107 24 -142 27
-320 30 -110 1 -216 0 -235 -2z m430 -125 c281 -42 561 -173 779 -367 l55 -48
-22 -55 c-12 -30 -29 -85 -37 -124 -60 -284 90 -565 335 -629 49 -12 55 -17
52 -37 -4 -39 -64 -128 -117 -176 -60 -55 -152 -102 -265 -137 -79 -24 -86
-25 -97 -9 -21 28 -15 43 15 43 38 0 66 31 58 64 -19 77 -433 167 -848 185
-507 21 -1135 -83 -1156 -193 -6 -28 27 -56 65 -56 38 0 39 -2 18 -34 l-16
-24 -62 19 c-173 53 -313 154 -367 264 -23 45 -25 62 -25 180 0 119 3 138 33
233 27 84 36 103 49 98 9 -4 49 -11 89 -17 315 -44 645 188 729 511 10 36 19
105 21 154 2 49 7 93 12 98 15 15 236 60 337 68 109 8 262 4 365 -11z m-833
-183 c-11 -132 -67 -252 -158 -345 -115 -117 -250 -176 -401 -175 -51 0 -93 5
-99 11 -34 34 232 329 396 439 100 68 232 142 254 143 11 1 13 -13 8 -73z
m1820 -426 c100 -150 172 -323 188 -453 7 -58 6 -59 -17 -52 -172 54 -278 206
-278 400 0 55 21 162 36 187 8 12 11 9 71 -82z m-869 -815 c196 -21 383 -59
399 -81 21 -28 91 -216 108 -285 38 -162 1 -309 -98 -396 -86 -76 -204 -121
-392 -150 -148 -22 -565 -25 -715 -4 -366 51 -529 167 -546 391 -5 61 -1 93
20 173 27 105 90 265 112 283 17 14 229 52 380 69 171 18 553 18 732 0z"/>
<path d="M4695 4468 c-50 -27 -60 -81 -22 -122 50 -56 137 -24 137 51 0 62
-62 100 -115 71z"/>
<path d="M5435 4469 c-69 -39 -56 -130 22 -153 26 -8 78 16 87 39 11 30 6 73
-11 94 -22 25 -71 35 -98 20z"/>
<path d="M4910 4264 c-17 -43 25 -101 100 -140 82 -42 216 -10 265 64 33 50
30 83 -7 96 -25 9 -31 6 -65 -31 -63 -69 -151 -66 -204 6 -30 41 -75 43 -89 5z"/>
</g>
</svg>
