<?xml version="1.0" standalone="no"?>
<!DOCTYPE svg PUBLIC "-//W3C//DTD SVG 20010904//EN"
 "http://www.w3.org/TR/2001/REC-SVG-20010904/DTD/svg10.dtd">
<svg version="1.0" xmlns="http://www.w3.org/2000/svg"
 width="1024.000000pt" height="1024.000000pt" viewBox="0 0 1024.000000 1024.000000"
 preserveAspectRatio="xMidYMid meet">
<metadata>
Created by potrace 1.16, written by Peter Selinger 2001-2019
</metadata>
<g transform="translate(0.000000,1024.000000) scale(0.100000,-0.100000)"
fill="#000000" stroke="none">
<path d="M4360 8110 c-91 -4 -200 -8 -242 -9 -120 -2 -114 11 -120 -284 l-4
-245 -170 -228 c-244 -327 -479 -653 -591 -819 l-61 -90 -16 -355 c-37 -824
-40 -1001 -40 -2070 0 -1029 6 -1405 35 -2030 9 -196 14 -238 27 -252 14 -13
67 -19 337 -32 455 -23 1026 -43 1725 -61 594 -16 608 -16 785 4 99 11 395 41
658 67 263 27 485 53 493 58 11 9 17 90 29 391 52 1322 45 2643 -20 3915 -8
157 -15 301 -15 320 0 26 -25 77 -101 205 -56 94 -207 346 -335 561 l-234 391
0 245 c0 219 -2 248 -17 267 -16 18 -35 22 -153 31 -381 28 -1498 39 -1970 20z
m1715 -130 c138 -6 260 -13 273 -16 22 -4 22 -6 22 -187 l0 -183 -652 3 c-359
2 -806 7 -993 13 -187 5 -400 10 -472 10 l-133 0 0 175 c0 135 3 177 13 181
59 22 1449 25 1942 4z m-517 -506 c532 -4 782 -10 782 -17 0 -6 -35 -74 -79
-151 -103 -183 -307 -562 -405 -748 -43 -81 -81 -150 -86 -153 -5 -3 -122 -1
-262 5 -305 12 -1157 36 -1732 50 -230 5 -421 11 -423 14 -7 7 229 337 586
819 l146 198 345 -6 c190 -3 697 -8 1128 -11z m1001 -272 c58 -97 179 -300
269 -451 90 -151 166 -280 168 -286 4 -9 -42 -14 -173 -19 -98 -3 -339 -14
-536 -22 -197 -9 -360 -15 -362 -12 -5 5 29 71 340 643 99 184 180 325 184
325 3 -1 53 -81 110 -178z m-2414 -877 c832 -20 1599 -45 1606 -53 3 -4 2
-104 -2 -222 -21 -606 -30 -1746 -20 -2475 11 -763 25 -1397 37 -1674 l6 -154
-303 7 c-756 17 -2175 69 -2186 80 -2 1 -10 200 -19 442 -31 868 -33 2455 -5
3234 18 484 32 814 36 827 3 8 34 10 112 7 59 -3 392 -11 738 -19z m2905 -32
c0 -21 7 -173 15 -338 35 -726 40 -1000 39 -2100 0 -838 -4 -1216 -16 -1544
-10 -238 -19 -435 -22 -438 -3 -3 -162 -20 -353 -39 -191 -18 -451 -44 -578
-57 -126 -14 -233 -22 -237 -18 -14 13 -48 1807 -48 2576 0 484 11 1189 26
1707 l7 236 111 7 c162 10 877 42 974 44 l82 1 0 -37z"/>
<path d="M4063 5641 c-160 -40 -200 -267 -62 -358 60 -40 133 -43 196 -9 86
47 122 133 98 230 -25 99 -131 161 -232 137z m98 -139 c33 -27 30 -78 -5 -109
-33 -28 -56 -29 -90 -2 -19 15 -26 30 -26 55 0 65 69 97 121 56z"/>
<path d="M4854 5595 c-65 -33 -97 -80 -102 -155 -6 -76 10 -121 58 -164 126
-113 308 -40 328 131 10 87 -52 179 -135 202 -59 17 -95 13 -149 -14z m119
-106 c24 -11 47 -47 47 -73 0 -7 -9 -25 -21 -40 -40 -50 -129 -23 -129 40 0
34 17 63 43 74 30 12 32 12 60 -1z"/>
<path d="M3680 5227 c-13 -7 -31 -24 -39 -39 -14 -24 -14 -30 2 -62 28 -59
103 -62 132 -5 17 32 13 80 -8 97 -22 17 -62 21 -87 9z"/>
<path d="M5286 5169 c-33 -26 -37 -86 -7 -113 30 -28 80 -24 108 8 30 35 29
71 -2 101 -30 30 -64 32 -99 4z"/>
<path d="M4612 5011 c-54 -56 -80 -66 -153 -59 -42 4 -57 12 -93 47 -31 30
-50 41 -73 41 -34 0 -63 -29 -63 -64 0 -54 103 -128 204 -147 188 -34 418 174
249 225 -18 6 -32 -3 -71 -43z"/>
</g>
</svg>
