<?xml version="1.0" standalone="no"?>
<!DOCTYPE svg PUBLIC "-//W3C//DTD SVG 20010904//EN"
 "http://www.w3.org/TR/2001/REC-SVG-20010904/DTD/svg10.dtd">
<svg version="1.0" xmlns="http://www.w3.org/2000/svg"
 width="1024.000000pt" height="1024.000000pt" viewBox="0 0 1024.000000 1024.000000"
 preserveAspectRatio="xMidYMid meet">
<metadata>
Created by potrace 1.16, written by Peter Selinger 2001-2019
</metadata>
<g transform="translate(0.000000,1024.000000) scale(0.100000,-0.100000)"
fill="#000000" stroke="none">
<path d="M4585 6553 c-804 -70 -1368 -492 -1529 -1143 -52 -215 -57 -404 -15
-653 66 -389 249 -691 506 -832 100 -55 215 -90 489 -150 459 -100 612 -139
1019 -262 339 -103 355 -106 450 -100 89 6 275 67 745 244 391 147 552 225
656 316 38 34 59 66 105 162 73 153 141 354 175 520 37 174 39 396 5 519 -37
137 -92 238 -185 335 -44 47 -104 120 -131 161 -85 128 -266 297 -460 431
-322 223 -851 400 -1344 449 -95 9 -393 11 -486 3z m510 -73 c523 -59 989
-226 1350 -484 145 -103 304 -261 380 -376 35 -52 92 -122 128 -156 74 -70
123 -152 163 -274 26 -79 28 -97 28 -250 1 -178 -8 -240 -66 -440 -27 -96 -99
-284 -135 -354 -12 -23 -17 -26 -24 -15 -12 18 -4 103 34 339 26 168 31 222
31 395 1 162 -2 212 -17 264 -83 302 -300 412 -640 326 -79 -21 -248 -101
-339 -161 -97 -65 -235 -199 -297 -289 -153 -221 -187 -406 -135 -740 43 -280
37 -545 -17 -747 l-10 -38 -71 0 -71 0 7 68 c26 281 16 478 -39 757 -18 94
-39 199 -45 235 -16 92 -19 100 -40 100 -39 0 -40 -29 -9 -190 76 -391 72
-361 73 -605 1 -222 -8 -350 -23 -341 -4 3 -128 41 -277 86 -330 100 -575 163
-889 230 -337 71 -416 94 -530 150 -256 126 -421 379 -506 780 -19 87 -23 138
-23 295 -1 164 2 204 22 294 60 269 166 472 340 653 235 246 552 402 944 467
68 11 139 22 158 24 78 8 461 6 545 -3z m1603 -1094 c101 -46 166 -134 203
-272 17 -64 21 -108 22 -229 0 -146 -8 -219 -53 -499 -24 -149 -26 -279 -6
-318 18 -34 12 -42 -87 -106 -79 -51 -165 -91 -372 -174 -245 -98 -785 -291
-793 -283 -2 2 3 44 13 92 11 56 19 156 22 273 4 162 1 208 -21 365 -32 221
-33 352 -6 461 66 260 262 479 560 629 195 98 385 120 518 61z"/>
<path d="M4685 6219 c-203 -122 -354 -278 -449 -466 -29 -59 -33 -88 -11 -97
26 -10 39 3 67 63 57 122 210 296 334 382 27 18 78 49 114 69 53 29 65 40 65
60 0 41 -40 37 -120 -11z"/>
<path d="M3855 6122 c-131 -92 -260 -245 -326 -387 -34 -72 -34 -98 -2 -103
18 -3 28 9 59 70 20 40 55 100 77 133 52 77 180 204 252 250 44 29 56 41 53
58 -5 37 -39 31 -113 -21z"/>
<path d="M5720 6006 c-170 -45 -307 -117 -448 -235 -62 -52 -174 -180 -200
-228 -31 -57 30 -77 63 -20 32 55 193 213 271 267 100 69 225 126 331 152 119
28 133 34 133 57 0 37 -33 39 -150 7z"/>
<path d="M6280 5751 c-90 -20 -212 -66 -242 -90 -26 -22 -18 -51 13 -51 13 0
51 12 87 26 93 37 204 63 307 72 87 7 90 8 90 32 0 25 -1 25 -90 27 -56 1
-118 -5 -165 -16z"/>
<path d="M5709 5456 c-95 -81 -210 -220 -253 -304 -14 -26 -15 -37 -5 -48 23
-28 44 -13 93 64 30 46 95 123 163 190 114 113 131 144 87 150 -14 2 -43 -16
-85 -52z"/>
<path d="M6573 4745 c-69 -48 -43 -185 36 -185 58 0 85 127 36 175 -28 29 -42
31 -72 10z"/>
<path d="M5933 4538 c-69 -33 -42 -188 32 -188 69 0 94 142 32 185 -25 17 -34
18 -64 3z"/>
<path d="M6365 4487 c-20 -48 -41 -67 -74 -67 -19 0 -32 8 -41 25 -10 19 -21
25 -39 23 -37 -4 -39 -39 -4 -78 73 -81 214 -24 217 88 1 31 -3 37 -22 40 -18
3 -26 -4 -37 -31z"/>
<path d="M6422 4318 c-7 -7 -12 -18 -12 -25 0 -18 -58 -82 -91 -99 -15 -7 -43
-14 -61 -14 -34 0 -98 32 -98 50 0 16 -50 11 -57 -6 -14 -38 52 -95 128 -109
83 -15 183 42 226 130 22 45 24 56 14 69 -16 19 -33 20 -49 4z"/>
<path d="M6612 3640 c0 -14 2 -19 5 -12 2 6 2 18 0 25 -3 6 -5 1 -5 -13z"/>
<path d="M6506 3587 c3 -10 9 -15 12 -12 3 3 0 11 -7 18 -10 9 -11 8 -5 -6z"/>
</g>
</svg>
