<?xml version="1.0" standalone="no"?>
<!DOCTYPE svg PUBLIC "-//W3C//DTD SVG 20010904//EN"
 "http://www.w3.org/TR/2001/REC-SVG-20010904/DTD/svg10.dtd">
<svg version="1.0" xmlns="http://www.w3.org/2000/svg"
 width="1024.000000pt" height="1024.000000pt" viewBox="0 0 1024.000000 1024.000000"
 preserveAspectRatio="xMidYMid meet">
<metadata>
Created by potrace 1.16, written by Peter Selinger 2001-2019
</metadata>
<g transform="translate(0.000000,1024.000000) scale(0.100000,-0.100000)"
fill="#000000" stroke="none">
<path d="M4645 8280 c-892 -73 -1680 -424 -2266 -1009 -253 -253 -404 -457
-534 -723 -138 -281 -175 -429 -185 -748 -8 -249 -18 -296 -95 -450 -85 -168
-125 -332 -125 -507 0 -156 38 -291 111 -395 13 -18 19 -44 19 -85 0 -90 27
-313 55 -447 165 -817 717 -1474 1561 -1860 754 -344 1574 -420 2509 -231 411
83 763 203 1115 381 633 319 1111 778 1375 1319 86 178 112 242 158 395 101
333 143 687 118 993 -10 119 -9 149 5 220 13 64 16 114 11 227 -6 166 -28 266
-97 445 -80 207 -99 270 -110 360 -33 268 -107 444 -297 698 -92 122 -369 402
-508 514 -608 485 -1347 795 -2120 889 -156 18 -547 26 -700 14z m631 -235
c352 -37 693 -122 1044 -260 141 -55 417 -193 565 -282 523 -315 970 -768
1107 -1120 19 -48 35 -122 48 -214 24 -174 28 -186 102 -378 97 -251 124 -390
107 -558 -11 -106 -37 -192 -91 -296 -32 -61 -70 -108 -176 -220 -177 -186
-229 -266 -328 -502 -86 -207 -187 -310 -353 -359 -38 -11 -94 -16 -181 -16
-228 0 -380 -32 -502 -106 -31 -19 -104 -79 -160 -132 -121 -113 -181 -155
-275 -188 -84 -29 -215 -32 -325 -7 -102 23 -275 22 -352 -1 -87 -26 -178 -75
-291 -157 -151 -109 -274 -159 -388 -159 -73 0 -157 28 -310 105 -234 117
-347 131 -512 65 -155 -62 -240 -51 -400 51 -107 67 -176 102 -260 130 -64 21
-90 23 -304 25 -245 3 -296 9 -391 51 -154 67 -252 196 -341 446 -47 130 -68
173 -126 255 -53 74 -105 118 -233 192 -122 72 -200 148 -243 237 -31 67 -32
71 -32 208 0 165 11 210 106 420 88 196 100 251 104 485 5 284 35 417 149 655
133 277 291 491 542 735 458 444 1073 745 1754 860 303 51 667 64 946 35z
m2953 -3530 c-63 -737 -429 -1368 -1059 -1826 -550 -399 -1254 -644 -2070
-720 -164 -15 -573 -15 -725 0 -840 85 -1592 455 -2057 1011 -247 296 -408
646 -483 1050 -19 105 -29 190 -20 190 3 0 37 -20 74 -44 108 -70 151 -132
214 -311 50 -142 72 -189 133 -282 105 -159 265 -273 454 -324 78 -21 104 -23
300 -21 276 2 332 -11 490 -118 145 -98 258 -135 395 -127 72 4 106 11 170 38
64 26 94 33 150 33 67 1 76 -2 217 -72 174 -86 230 -106 334 -122 131 -20 279
7 417 77 40 19 128 76 196 124 184 132 264 151 466 109 169 -35 335 -23 475
33 100 41 167 87 278 191 194 182 230 196 517 206 175 6 222 11 280 30 122 38
203 87 291 175 89 89 122 142 213 343 85 189 139 271 250 379 53 51 98 89 102
85 3 -4 2 -52 -2 -107z"/>
<path d="M5132 7758 c-63 -17 -78 -106 -25 -148 37 -29 79 -26 114 9 67 68 6
164 -89 139z"/>
<path d="M5468 7630 c-15 -9 -252 -264 -345 -372 -37 -43 -43 -56 -43 -95 0
-38 5 -50 34 -79 27 -27 42 -34 75 -34 62 0 83 15 183 128 51 58 129 144 172
191 77 83 110 136 102 163 -3 7 -7 26 -10 41 -12 52 -116 87 -168 57z"/>
<path d="M3884 7444 c-19 -7 -37 -14 -38 -16 -26 -34 -36 -59 -36 -87 0 -31
129 -359 185 -472 35 -67 103 -89 166 -52 29 17 59 67 59 98 0 31 -192 480
-217 506 -30 32 -70 40 -119 23z"/>
<path d="M6322 7408 c-7 -7 -12 -24 -12 -38 0 -32 17 -50 45 -50 25 0 55 29
55 53 0 38 -61 62 -88 35z"/>
<path d="M6515 7051 c-104 -32 -217 -66 -249 -75 -35 -11 -71 -29 -87 -46 -59
-58 -28 -162 56 -190 31 -10 49 -7 163 29 70 22 186 58 258 80 145 45 172 65
181 128 9 70 -47 135 -114 132 -10 0 -103 -26 -208 -58z"/>
<path d="M2876 6816 c-96 -43 -145 -75 -201 -131 -103 -102 -156 -220 -157
-349 0 -70 3 -85 33 -144 39 -76 89 -119 176 -152 74 -28 190 -24 275 10 116
46 238 173 238 247 0 66 -45 113 -110 113 -44 0 -71 -17 -113 -71 -47 -60
-105 -92 -169 -93 -101 -2 -137 78 -83 184 39 76 94 126 200 176 103 50 127
75 129 136 0 30 -6 44 -30 69 -47 46 -91 48 -188 5z"/>
<path d="M4980 6664 c-146 -18 -318 -68 -425 -122 -198 -99 -350 -264 -411
-444 -24 -70 -29 -99 -29 -188 0 -159 41 -264 149 -377 99 -105 238 -179 411
-219 110 -26 346 -26 465 -1 360 78 626 290 716 572 30 93 36 216 15 305 -17
71 -70 172 -121 232 -84 98 -255 188 -422 222 -79 16 -283 28 -348 20z m350
-254 c147 -42 253 -119 302 -217 19 -39 23 -64 23 -134 0 -78 -3 -91 -38 -162
-46 -92 -114 -169 -206 -232 l-69 -47 -59 22 c-73 28 -226 38 -315 20 -72 -14
-176 -58 -225 -96 l-34 -26 -68 22 c-320 103 -399 409 -167 644 105 107 266
186 446 220 118 22 309 15 410 -14z"/>
<path d="M6277 6169 c-25 -15 -47 -70 -40 -100 17 -69 99 -94 148 -44 55 54
18 155 -57 155 -18 0 -41 -5 -51 -11z"/>
<path d="M7071 6051 c-26 -24 -31 -37 -31 -73 0 -56 18 -80 99 -132 36 -24 87
-63 112 -88 88 -89 145 -243 119 -323 -39 -118 -211 -46 -268 113 -26 69 -52
93 -106 95 -44 1 -78 -17 -99 -53 -28 -46 -21 -99 23 -187 116 -233 387 -323
564 -188 61 46 108 144 114 238 12 199 -104 429 -277 546 -132 90 -195 103
-250 52z"/>
<path d="M2813 5450 c-40 -24 -55 -53 -55 -102 1 -58 25 -86 105 -123 534
-244 515 -239 577 -168 29 32 32 41 28 84 -8 77 16 62 -383 243 -105 47 -202
86 -215 86 -14 0 -39 -9 -57 -20z"/>
<path d="M3778 5439 c-21 -12 -24 -69 -6 -87 21 -21 66 -14 83 12 34 51 -23
107 -77 75z"/>
<path d="M5704 5278 c-52 -24 -59 -105 -14 -150 27 -26 36 -30 67 -25 70 12
105 70 79 132 -21 50 -80 69 -132 43z"/>
<path d="M2662 4994 c-15 -10 -22 -25 -22 -49 0 -54 48 -87 92 -64 31 16 38
28 38 65 0 56 -59 83 -108 48z"/>
<path d="M4900 4990 c-24 -24 -26 -53 -4 -74 18 -19 65 -21 82 -4 20 20 14 65
-10 82 -30 21 -44 20 -68 -4z"/>
<path d="M6130 4773 c-37 -38 -136 -139 -220 -226 l-152 -157 4 -56 c6 -68 35
-103 95 -111 53 -7 86 11 153 84 29 32 111 118 182 192 165 171 168 175 168
223 0 77 -39 117 -114 118 -47 0 -51 -2 -116 -67z"/>
<path d="M4352 4540 c-34 -21 -52 -54 -52 -96 0 -38 179 -496 205 -523 27 -28
98 -38 134 -19 37 20 63 62 63 99 0 19 -41 140 -92 269 -101 261 -120 290
-188 290 -20 0 -52 -9 -70 -20z"/>
<path d="M3198 4326 c-15 -8 -87 -66 -160 -128 -73 -62 -156 -132 -185 -156
-84 -69 -94 -143 -27 -202 38 -32 87 -40 127 -18 25 13 350 288 385 325 16 18
22 36 22 71 0 56 -20 89 -66 108 -42 18 -62 18 -96 0z"/>
<path d="M6356 4278 c-31 -44 -9 -88 43 -88 34 0 54 21 54 57 0 50 -68 72 -97
31z"/>
<path d="M4478 3579 c-25 -14 -24 -75 1 -89 31 -16 59 -12 75 12 21 30 20 44
-4 68 -22 22 -46 25 -72 9z"/>
<path d="M6474 3040 c-59 -24 -72 -104 -25 -151 71 -70 182 2 150 98 -16 51
-73 74 -125 53z"/>
<path d="M6466 2704 c-45 -45 11 -122 67 -93 28 15 37 28 37 56 0 30 -26 53
-60 53 -16 0 -36 -7 -44 -16z"/>
<path d="M7995 2865 c-19 -18 -25 -35 -25 -65 0 -56 34 -90 90 -90 56 0 90 34
90 90 0 56 -34 90 -90 90 -30 0 -47 -6 -65 -25z"/>
<path d="M2133 2236 c-23 -20 -28 -32 -28 -70 0 -62 29 -91 90 -91 61 0 90 29
90 91 0 38 -5 50 -28 70 -18 15 -41 24 -62 24 -21 0 -44 -9 -62 -24z"/>
<path d="M2634 1960 c-30 -12 -54 -49 -54 -82 0 -87 84 -127 149 -72 79 66 1
193 -95 154z"/>
</g>
</svg>
