<?xml version="1.0" standalone="no"?>
<!DOCTYPE svg PUBLIC "-//W3C//DTD SVG 20010904//EN"
 "http://www.w3.org/TR/2001/REC-SVG-20010904/DTD/svg10.dtd">
<svg version="1.0" xmlns="http://www.w3.org/2000/svg"
 width="1024.000000pt" height="1024.000000pt" viewBox="0 0 1024.000000 1024.000000"
 preserveAspectRatio="xMidYMid meet">
<metadata>
Created by potrace 1.16, written by Peter Selinger 2001-2019
</metadata>
<g transform="translate(0.000000,1024.000000) scale(0.100000,-0.100000)"
fill="#000000" stroke="none">
<path d="M3550 5955 c-175 -56 -259 -324 -195 -623 106 -499 587 -879 1235
-977 124 -19 391 -22 530 -5 294 34 593 141 797 285 206 147 317 304 413 586
42 124 90 188 260 344 169 155 168 149 33 286 -103 105 -124 115 -167 82 -12
-10 -77 -78 -145 -151 -68 -73 -142 -143 -165 -157 -56 -32 -284 -107 -458
-149 -577 -142 -1068 -120 -1383 61 -103 59 -139 87 -260 203 -110 106 -203
174 -278 202 -68 26 -161 31 -217 13z m200 -102 c70 -31 146 -88 234 -178 179
-181 382 -289 651 -346 129 -27 411 -37 592 -20 237 22 545 90 788 172 183 62
197 72 349 231 l136 143 67 -67 66 -67 -79 -72 c-212 -194 -255 -253 -311
-417 -50 -149 -74 -201 -134 -288 -154 -222 -450 -398 -795 -474 -224 -49
-466 -61 -671 -35 -273 36 -515 120 -721 251 -321 204 -515 544 -499 873 13
274 132 381 327 294z"/>
<path d="M3708 5689 c-10 -5 -18 -21 -18 -34 0 -30 100 -156 180 -225 75 -65
188 -140 212 -140 17 0 38 27 38 49 0 6 -39 39 -87 75 -80 58 -177 151 -260
249 -34 40 -39 42 -65 26z"/>
<path d="M4224 5256 c-18 -46 25 -71 219 -127 187 -54 262 -63 517 -64 296 0
425 18 674 92 69 21 91 32 99 50 8 19 7 27 -5 40 -15 14 -24 13 -110 -11 -262
-73 -570 -107 -802 -86 -156 13 -284 39 -433 85 -122 38 -151 42 -159 21z"/>
</g>
</svg>
