<?xml version="1.0" standalone="no"?>
<!DOCTYPE svg PUBLIC "-//W3C//DTD SVG 20010904//EN"
 "http://www.w3.org/TR/2001/REC-SVG-20010904/DTD/svg10.dtd">
<svg version="1.0" xmlns="http://www.w3.org/2000/svg"
 width="1024.000000pt" height="1024.000000pt" viewBox="0 0 1024.000000 1024.000000"
 preserveAspectRatio="xMidYMid meet">
<metadata>
Created by potrace 1.16, written by Peter Selinger 2001-2019
</metadata>
<g transform="translate(0.000000,1024.000000) scale(0.100000,-0.100000)"
fill="#000000" stroke="none">
<path d="M6825 8275 c-629 -84 -695 -94 -720 -112 -13 -10 -27 -25 -31 -33
-19 -46 -237 -639 -241 -657 -3 -13 -9 -23 -13 -23 -4 0 -57 16 -116 35 -60
20 -170 48 -244 62 -121 24 -159 27 -365 27 -244 1 -306 -6 -518 -59 -276 -70
-579 -221 -792 -395 -92 -75 -224 -214 -270 -283 -57 -86 -66 -129 -64 -312
l1 -160 -94 0 c-101 0 -141 -15 -157 -58 -4 -12 -5 -119 -2 -237 6 -209 7
-217 34 -272 50 -101 175 -188 271 -188 41 0 32 50 91 -470 25 -217 61 -529
80 -692 19 -164 51 -434 70 -600 20 -167 42 -357 50 -423 9 -66 47 -386 85
-712 39 -326 74 -603 79 -616 15 -39 60 -85 94 -96 111 -35 461 -76 804 -93
261 -13 563 -3 868 28 203 20 424 60 455 82 54 38 67 88 104 397 99 811 238
2002 319 2735 l53 475 63 8 c120 15 209 79 260 186 25 54 26 63 29 272 l4 217
-30 33 -31 34 -105 -3 -106 -2 0 179 c0 205 -5 223 -83 326 -44 59 -160 175
-263 265 l-52 45 73 200 c40 110 79 216 87 236 l15 35 304 43 c166 23 315 49
330 57 45 23 88 75 105 128 50 149 -44 369 -173 405 -47 13 -51 13 -258 -14z
m224 -151 c31 -22 61 -90 61 -141 0 -51 -7 -71 -30 -83 -10 -5 -150 -28 -311
-50 -355 -48 -342 -46 -367 -73 -11 -12 -61 -137 -112 -277 -50 -140 -95 -258
-98 -262 -4 -4 -32 9 -62 28 -30 20 -81 49 -112 65 -32 16 -58 31 -58 33 0 2
24 68 53 147 30 79 85 228 123 331 l69 187 80 11 c112 17 707 98 725 99 9 1
26 -6 39 -15z m-1679 -720 c294 -45 557 -158 805 -346 41 -31 55 -37 82 -32
30 6 39 -1 162 -125 72 -72 131 -135 131 -140 0 -15 -187 -30 -675 -53 -332
-15 -1386 -15 -1705 0 -263 13 -522 32 -529 38 -8 7 135 158 212 225 204 177
500 327 782 397 241 60 496 72 735 36z m1218 -930 l-3 -109 -90 -7 c-569 -42
-1999 -47 -2755 -9 l-125 6 -3 119 -3 118 33 -6 c50 -8 296 -24 568 -36 605
-27 1895 -5 2295 39 39 4 74 4 78 1 4 -4 6 -56 5 -116z m262 -404 c0 -171 -7
-198 -64 -248 -30 -26 -45 -32 -83 -32 -58 0 -101 26 -147 89 -68 92 -129 89
-178 -8 -36 -71 -61 -97 -114 -117 -79 -30 -160 2 -216 84 -52 79 -68 92 -108
92 -41 0 -66 -21 -98 -86 -43 -85 -117 -131 -193 -121 -57 7 -105 42 -149 107
-48 71 -82 88 -133 66 -22 -9 -42 -27 -53 -48 -49 -98 -115 -143 -195 -136
-63 6 -107 37 -154 110 -41 64 -59 78 -102 78 -39 0 -48 -8 -96 -81 -55 -84
-101 -111 -179 -106 -70 4 -116 36 -159 113 -32 56 -71 94 -96 94 -30 0 -70
-31 -115 -88 -74 -96 -157 -124 -244 -82 -43 21 -63 44 -99 114 -12 22 -33 48
-47 59 -40 30 -71 16 -125 -53 -58 -75 -132 -116 -190 -105 -55 10 -100 41
-127 88 -22 38 -24 55 -28 197 l-3 155 90 -3 c50 -1 169 -7 265 -12 96 -5 428
-15 738 -22 703 -15 1670 3 2207 41 61 5 129 9 153 10 l42 1 0 -150z m-351
-353 c10 -13 -4 -146 -149 -1397 -22 -190 -54 -462 -71 -605 -16 -143 -52
-447 -79 -675 -27 -228 -61 -511 -75 -628 -13 -117 -27 -223 -31 -237 -6 -26
-26 -32 -175 -55 -490 -75 -1158 -75 -1652 0 -138 21 -167 31 -167 58 0 9 -36
321 -80 692 -97 815 -226 1911 -283 2411 l-42 367 38 32 39 33 41 -41 c132
-127 329 -130 466 -7 l37 34 45 -46 c66 -69 135 -98 234 -98 70 0 89 4 145 32
36 18 78 45 94 62 l28 29 53 -43 c71 -57 133 -80 220 -80 59 0 81 5 137 33 38
19 80 49 97 69 l30 36 33 -33 c42 -41 135 -86 198 -95 95 -13 235 43 289 115
l22 31 38 -34 c61 -55 126 -81 211 -85 101 -5 174 22 238 87 54 55 56 56 71
38z"/>
</g>
</svg>
