<?xml version="1.0" standalone="no"?>
<!DOCTYPE svg PUBLIC "-//W3C//DTD SVG 20010904//EN"
 "http://www.w3.org/TR/2001/REC-SVG-20010904/DTD/svg10.dtd">
<svg version="1.0" xmlns="http://www.w3.org/2000/svg"
 width="1024.000000pt" height="1024.000000pt" viewBox="0 0 1024.000000 1024.000000"
 preserveAspectRatio="xMidYMid meet">
<metadata>
Created by potrace 1.16, written by Peter Selinger 2001-2019
</metadata>
<g transform="translate(0.000000,1024.000000) scale(0.100000,-0.100000)"
fill="#000000" stroke="none">
<path d="M3431 6344 c-165 -45 -251 -182 -296 -469 -23 -148 -16 -416 15 -559
64 -295 183 -539 372 -763 495 -585 1430 -830 2310 -607 647 163 1122 601
1173 1081 6 59 11 67 73 139 119 137 142 168 142 195 0 34 -8 43 -133 148 -70
59 -117 91 -132 91 -18 0 -49 -28 -120 -109 l-96 -108 -107 -7 c-117 -7 -187
-21 -455 -89 -293 -75 -340 -81 -612 -82 -215 0 -251 2 -349 24 -211 45 -418
132 -588 247 -154 104 -242 186 -462 424 -188 203 -228 245 -306 309 -146 121
-302 171 -429 135z m179 -95 c100 -25 225 -128 444 -368 254 -278 365 -379
543 -495 322 -210 716 -310 1101 -277 218 18 281 30 642 124 155 40 261 57
363 57 l72 0 55 62 c30 33 71 79 91 102 l37 40 70 -57 c39 -32 75 -64 81 -71
9 -10 -12 -39 -88 -126 l-99 -112 -7 -76 c-10 -107 -29 -173 -80 -279 -128
-268 -384 -489 -740 -641 -282 -119 -558 -172 -905 -172 -547 0 -1034 157
-1382 447 -302 251 -506 593 -575 963 -25 134 -25 433 0 548 61 287 170 383
377 331z"/>
<path d="M3982 5703 c-54 -46 -24 -123 48 -123 29 0 43 6 54 22 24 34 20 73
-10 97 -33 26 -65 27 -92 4z"/>
<path d="M3490 5547 c-33 -16 -47 -58 -32 -92 25 -55 100 -58 127 -5 20 39 10
77 -26 95 -34 18 -37 18 -69 2z"/>
<path d="M3867 5494 c-4 -4 -4 -17 -1 -30 8 -33 -37 -61 -71 -46 -14 7 -25 18
-25 26 0 19 -20 26 -42 14 -42 -21 5 -101 67 -112 67 -13 135 41 135 107 0 36
-41 63 -63 41z"/>
</g>
</svg>
