<?xml version="1.0" encoding="UTF-8" standalone="no"?>
<!DOCTYPE svg PUBLIC "-//W3C//DTD SVG 1.1//EN" "http://www.w3.org/Graphics/SVG/1.1/DTD/svg11.dtd">
<svg width="100%" height="100%" viewBox="0 0 2048 2048" version="1.1" xmlns="http://www.w3.org/2000/svg" xmlns:xlink="http://www.w3.org/1999/xlink" xml:space="preserve" xmlns:serif="http://www.serif.com/" style="fill-rule:evenodd;clip-rule:evenodd;stroke-linejoin:round;stroke-miterlimit:2;">
    <g transform="matrix(0.1,0,0,-0.1,0,2048)">
        <path d="M10195,18452C10110,18411 9996,18272 9935,18134C9891,18036 9869,17933 9863,17810C9853,17597 9882,17495 10041,17180C10179,16907 10191,16873 10197,16740C10204,16603 10189,16541 10105,16375C10035,16235 10027,16195 10055,16136C10072,16100 10134,16060 10171,16060C10267,16061 10408,16218 10476,16400C10521,16518 10540,16622 10540,16742C10540,16929 10499,17062 10360,17335C10239,17570 10210,17650 10203,17755C10194,17897 10233,18008 10345,18165C10377,18209 10409,18259 10418,18276C10440,18322 10427,18374 10381,18423C10347,18459 10337,18464 10289,18467C10250,18470 10224,18465 10195,18452Z" style="fill-rule:nonzero;"/>
        <path d="M11203,17605C11155,17576 11092,17487 11059,17402C11031,17331 11022,17182 11040,17101C11055,17033 11096,16950 11162,16851C11267,16696 11282,16628 11240,16493C11222,16433 11220,16415 11229,16387C11255,16309 11342,16270 11410,16305C11520,16362 11590,16535 11569,16700C11558,16791 11532,16848 11435,16996C11336,17146 11327,17168 11332,17250C11335,17305 11342,17326 11378,17386C11407,17435 11420,17467 11420,17494C11420,17609 11307,17667 11203,17605Z" style="fill-rule:nonzero;"/>
        <path d="M9151,17599C9107,17582 9051,17530 9011,17469C8954,17383 8929,17296 8929,17183C8929,17054 8954,16987 9073,16806C9190,16627 9202,16587 9177,16477C9154,16382 9155,16350 9183,16309C9238,16227 9347,16237 9416,16331C9465,16398 9490,16482 9490,16579C9490,16706 9456,16795 9345,16955C9213,17145 9201,17217 9281,17338C9328,17408 9340,17437 9340,17479C9340,17565 9234,17633 9151,17599Z" style="fill-rule:nonzero;"/>
        <path d="M12645,15881C12534,15862 12453,15830 12363,15768L12321,15739L12188,15750C12115,15756 11956,15769 11835,15780C11612,15800 11444,15812 11135,15831C10861,15848 9711,15851 9380,15835C8077,15773 7180,15637 6796,15444C6592,15341 6536,15257 6455,14930C6405,14732 6308,14385 6299,14374C6294,14367 6248,14348 6197,14331C6147,14313 6053,14274 5990,14243C5892,14194 5863,14174 5794,14105C5649,13962 5600,13828 5525,13365C5443,12859 5418,12531 5449,12379C5471,12275 5553,12208 5835,12067L5986,11992L6018,11798C6077,11440 6180,10837 6221,10608L6262,10381L6235,10315C6175,10165 6164,9984 6200,9729C6222,9573 6406,8120 6471,7590C6493,7411 6528,7128 6550,6960C6572,6792 6605,6531 6625,6379C6681,5944 6711,5860 6890,5639C6909,5616 6916,5570 6950,5249C7003,4751 7063,4236 7111,3860C7203,3134 7243,2986 7389,2817C7506,2682 7651,2576 7841,2486C8357,2244 8966,2101 9770,2033C10066,2008 10729,2009 10970,2034C11793,2120 12519,2362 12879,2668C13029,2796 13114,2967 13159,3237C13211,3543 13353,4609 13440,5350C13461,5528 13477,5626 13489,5650C13499,5669 13525,5719 13548,5760C13597,5851 13642,5980 13669,6115C13680,6170 13726,6472 13770,6785C13815,7099 13876,7526 13906,7735C14240,10050 14224,9927 14218,10085C14214,10184 14208,10221 14181,10301L14150,10397L14230,10801C14274,11023 14340,11374 14375,11580C14411,11786 14442,11960 14444,11966C14447,11973 14497,12004 14557,12035C14853,12193 14956,12308 15011,12547C15029,12626 15032,12660 15027,12763C15022,12888 15006,12957 14805,13765C14743,14013 14672,14121 14489,14243C14405,14299 14246,14376 14162,14401C14139,14408 14116,14418 14111,14424C14089,14450 13999,14866 13970,15075C13940,15286 13913,15366 13834,15477C13706,15656 13401,15804 13035,15865C12926,15884 12713,15892 12645,15881ZM13024,15480C13296,15423 13483,15332 13530,15234C13557,15179 13556,15138 13525,15108C13356,14939 12434,14761 11330,14685C10938,14658 10767,14652 10285,14651C9318,14649 8609,14699 7705,14836C7310,14896 7003,14975 6929,15037L6899,15063L6922,15087C7029,15201 7623,15324 8435,15399C9385,15488 10641,15493 11665,15414C11910,15396 12251,15361 12262,15354C12287,15338 12113,15250 12058,15250C12037,15250 11909,15266 11773,15285C11513,15321 11266,15347 10915,15377C10651,15399 9780,15402 9490,15382C8793,15333 7998,15215 7953,15154C7932,15126 7937,15082 7963,15066C7990,15048 8191,14991 8350,14956C8602,14901 9024,14835 9285,14811C9673,14775 10339,14772 10680,14804C11298,14864 11903,15000 12193,15146C12350,15225 12424,15283 12571,15447C12596,15475 12628,15501 12641,15503C12692,15515 12927,15500 13024,15480ZM10805,15250C11170,15227 11738,15165 11758,15145C11770,15133 11736,15121 11610,15091C10717,14877 9517,14864 8535,15056C8356,15091 8321,15103 8356,15114C8450,15143 8984,15209 9340,15235C9797,15269 10396,15275 10805,15250ZM13604,14948C13607,14935 13623,14849 13640,14755C13671,14582 13705,14428 13761,14195C13778,14124 13793,14038 13794,14005L13795,13945L13715,13903C13574,13829 13276,13740 12901,13660C12031,13473 11108,13389 10080,13403C9637,13409 9433,13418 9095,13446C8073,13529 7202,13683 6744,13861C6609,13914 6600,13922 6612,13997C6617,14029 6649,14165 6685,14300C6720,14435 6770,14626 6795,14725C6821,14824 6844,14908 6847,14912C6849,14916 6877,14907 6908,14891C7188,14751 8001,14620 9050,14545C9695,14500 10574,14490 11060,14523C11913,14581 12434,14644 12907,14746C13182,14805 13440,14887 13540,14949C13585,14976 13598,14976 13604,14948ZM14056,14036C14238,13975 14354,13903 14395,13826L14414,13790L14380,13754C14263,13634 13844,13452 13366,13315C12713,13129 11995,13021 11066,12972C10927,12964 10916,12962 10898,12940C10873,12909 10879,12872 10912,12847C10939,12827 10941,12827 11234,12844C11733,12872 12022,12903 12490,12981C13281,13111 14006,13341 14369,13577C14415,13607 14453,13630 14455,13628C14456,13626 14470,13569 14484,13500C14499,13431 14542,13254 14580,13105C14658,12797 14667,12738 14650,12654C14623,12526 14558,12447 14419,12375C13928,12122 12769,11896 11540,11816C11133,11789 10822,11780 10255,11780C9283,11780 8613,11826 7760,11951C7033,12058 6206,12281 5892,12456C5800,12508 5796,12518 5803,12658C5810,12775 5847,13054 5876,13205C5909,13380 5942,13525 5950,13534C5955,13539 5981,13529 6010,13511C6225,13378 6689,13242 7340,13120C7571,13077 8114,12990 8167,12988C8247,12985 8267,13079 8193,13108C8178,13114 8050,13138 7910,13160C6878,13324 6198,13505 6015,13663L5977,13696L5995,13749C6034,13868 6132,13929 6422,14015L6473,14030L6467,13977C6460,13904 6468,13874 6503,13839C6664,13677 7555,13464 8500,13360C9177,13286 9566,13265 10270,13265C10947,13265 11308,13283 11870,13346C12627,13430 13398,13601 13739,13761C13916,13844 13940,13872 13940,13995C13940,14036 13944,14070 13948,14070C13952,14070 14001,14055 14056,14036ZM6421,12100C6546,12062 7038,11941 7210,11906C8127,11722 9097,11638 10315,11638C11418,11638 12269,11707 13135,11865C13419,11917 13571,11951 13858,12026C13975,12057 14073,12080 14076,12077C14081,12072 13989,11539 13925,11203C13900,11076 13860,10864 13835,10733C13810,10602 13782,10459 13772,10415L13755,10335L13681,10298C13491,10204 12934,10049 12510,9971C11977,9873 11611,9831 10981,9795C9855,9731 8310,9871 7277,10131C7018,10196 6850,10251 6725,10309L6644,10347L6541,10961C6485,11299 6418,11690 6394,11830C6351,12077 6346,12120 6354,12120C6356,12120 6386,12111 6421,12100ZM6727,10126C7173,9961 7643,9855 8370,9756C9620,9586 10847,9569 11925,9706C12718,9807 13343,9960 13807,10166C13824,10174 13850,10117 13850,10072C13850,10051 13825,9870 13795,9669C13764,9469 13728,9224 13714,9125C13700,9026 13656,8718 13615,8440C13574,8162 13486,7553 13420,7086C13354,6620 13291,6195 13281,6143C13242,5954 13157,5828 13026,5765C12793,5654 12171,5496 11650,5416C10335,5215 8740,5317 7640,5672C7255,5797 7134,5878 7074,6049C7044,6134 7036,6192 6955,6845C6815,7981 6597,9696 6570,9874C6559,9945 6550,10018 6550,10037C6550,10074 6587,10170 6601,10170C6605,10170 6662,10150 6727,10126ZM7405,5585C7589,5512 7934,5416 8227,5356C9299,5135 10509,5091 11545,5236C12053,5307 12533,5416 12914,5547C13001,5577 13074,5599 13077,5596C13085,5588 13068,5447 12969,4701C12803,3452 12756,3161 12705,3075C12669,3013 12544,2900 12447,2841C12162,2669 11687,2521 11210,2456C10735,2390 10143,2383 9635,2435C8890,2512 8240,2680 7888,2886C7794,2941 7685,3039 7642,3108C7567,3226 7546,3368 7345,5160C7321,5377 7299,5570 7297,5588C7295,5606 7299,5620 7305,5620C7310,5620 7356,5604 7405,5585Z" style="fill-rule:nonzero;"/>
        <path d="M12723,15340C12705,15334 12671,15308 12647,15282C12623,15256 12566,15195 12520,15147C12445,15067 12438,15056 12444,15028C12447,15011 12455,14991 12461,14984C12480,14960 12551,14947 12655,14948C12916,14949 13150,15056 13150,15175C13150,15214 13125,15255 13088,15278C13011,15325 12795,15362 12723,15340ZM12916,15187C12937,15179 12956,15168 12958,15162C12964,15143 12742,15084 12692,15092C12671,15095 12672,15098 12712,15154L12753,15212L12816,15206C12850,15203 12895,15194 12916,15187Z" style="fill-rule:nonzero;"/>
        <path d="M7061,14605C7049,14588 7021,14497 6986,14352C6917,14068 6911,14026 6935,14000C6961,13972 7015,13973 7034,14003C7050,14027 7158,14475 7167,14551C7172,14591 7169,14599 7149,14614C7115,14637 7084,14634 7061,14605Z" style="fill-rule:nonzero;"/>
        <path d="M13180,14590C13169,14579 13160,14562 13160,14553C13160,14543 13186,14421 13219,14281C13282,14008 13287,13996 13345,14002C13365,14004 13379,14014 13389,14032C13402,14055 13402,14069 13386,14157C13347,14363 13291,14574 13269,14593C13241,14616 13205,14615 13180,14590Z" style="fill-rule:nonzero;"/>
        <path d="M7495,14500C7476,14479 7449,14376 7400,14140C7356,13926 7361,13880 7429,13880C7482,13880 7486,13891 7545,14170C7575,14316 7600,14447 7600,14461C7600,14514 7531,14540 7495,14500Z" style="fill-rule:nonzero;"/>
        <path d="M12670,14503C12625,14487 12621,14447 12650,14304C12662,14249 12682,14138 12695,14055C12726,13870 12724,13875 12760,13860C12785,13850 12794,13850 12815,13864C12828,13873 12842,13891 12846,13904C12853,13934 12829,14106 12789,14305C12761,14445 12742,14500 12721,14500C12716,14500 12706,14502 12698,14504C12691,14507 12678,14506 12670,14503Z" style="fill-rule:nonzero;"/>
        <path d="M12596,4968C12572,4947 12569,4933 12555,4810C12525,4552 12478,4274 12421,4026C12395,3917 12393,3892 12403,3871C12424,3826 12500,3830 12518,3877C12570,4007 12687,4684 12692,4878C12694,4955 12686,4972 12643,4984C12629,4989 12614,4984 12596,4968Z" style="fill-rule:nonzero;"/>
        <path d="M12262,3514C12250,3506 12223,3473 12203,3442C12155,3366 12050,3258 11970,3202C11892,3147 11880,3134 11880,3100C11880,3067 11908,3040 11941,3040C11995,3040 12133,3143 12227,3254C12339,3385 12376,3481 12328,3514C12300,3534 12290,3534 12262,3514Z" style="fill-rule:nonzero;"/>
        <path d="M11428,2975C11420,2966 11241,2930 11135,2915C11055,2904 11031,2896 11018,2879C10994,2851 10995,2825 11021,2799C11041,2779 11049,2778 11139,2784C11294,2794 11481,2840 11522,2877C11547,2899 11546,2956 11521,2970C11501,2980 11437,2984 11428,2975Z" style="fill-rule:nonzero;"/>
    </g>
</svg>
