<?xml version="1.0" standalone="no"?>
<!DOCTYPE svg PUBLIC "-//W3C//DTD SVG 20010904//EN"
 "http://www.w3.org/TR/2001/REC-SVG-20010904/DTD/svg10.dtd">
<svg version="1.0" xmlns="http://www.w3.org/2000/svg"
 width="1024.000000pt" height="1024.000000pt" viewBox="0 0 1024.000000 1024.000000"
 preserveAspectRatio="xMidYMid meet">
<metadata>
Created by potrace 1.16, written by Peter Selinger 2001-2019
</metadata>
<g transform="translate(0.000000,1024.000000) scale(0.100000,-0.100000)"
fill="#000000" stroke="none">
<path d="M4949 7280 c-134 -21 -253 -84 -346 -183 -63 -68 -124 -174 -143
-249 -12 -47 -13 -48 -50 -48 -78 0 -195 -30 -278 -71 -176 -86 -309 -267
-348 -471 l-17 -87 -46 26 c-102 59 -224 138 -665 432 -254 168 -480 312 -502
319 -52 15 -92 15 -152 1 -39 -10 -61 -26 -128 -95 -109 -110 -139 -170 -139
-279 0 -107 26 -160 108 -224 32 -25 219 -158 415 -294 196 -136 358 -249 360
-252 2 -2 -8 -34 -23 -70 -40 -102 -58 -205 -51 -308 6 -91 40 -212 77 -275
10 -18 19 -35 19 -36 0 -2 -21 -7 -47 -11 -104 -15 -186 -75 -233 -170 -22
-45 -25 -62 -24 -165 1 -134 20 -235 75 -405 146 -446 485 -858 969 -1176 74
-48 143 -94 154 -102 18 -12 18 -14 1 -47 -27 -52 -26 -145 4 -196 25 -44 86
-89 141 -104 55 -15 300 -29 716 -41 506 -15 1385 9 1551 42 114 23 180 108
170 223 -3 33 -8 70 -11 81 -6 17 4 26 60 55 241 126 509 335 692 539 261 293
421 589 490 911 52 240 36 373 -56 468 -64 65 -134 92 -244 92 -92 0 -87 -11
-42 105 25 63 28 83 28 200 1 143 -9 188 -68 300 -36 70 -123 161 -192 201
-26 16 -82 38 -123 50 l-75 22 -13 66 c-24 134 -92 240 -197 308 -76 49 -170
78 -255 78 l-66 0 -28 70 c-79 193 -272 290 -492 245 -28 -6 -33 -2 -72 52
-69 95 -159 153 -279 182 -45 11 -55 19 -99 76 -121 160 -329 245 -526 215z
m241 -207 c56 -28 120 -73 120 -86 0 -3 -27 -15 -60 -27 -84 -31 -120 -67
-120 -117 0 -45 26 -79 66 -89 19 -5 46 3 102 32 70 36 82 39 156 39 133 -1
228 -57 286 -167 18 -35 40 -71 48 -80 25 -29 72 -32 132 -8 179 71 360 -43
360 -225 0 -79 50 -105 161 -86 204 37 359 -99 359 -315 0 -100 18 -118 121
-127 270 -23 426 -319 305 -582 -40 -88 -80 -132 -124 -139 -41 -7 -580 -31
-1027 -46 -371 -13 -1364 -13 -1740 0 -413 14 -790 30 -935 40 l-124 8 -33 38
c-19 22 -52 75 -73 119 -147 294 21 643 355 740 48 14 79 16 169 10 198 -12
195 -13 222 18 19 23 24 40 24 85 1 202 110 389 274 466 89 43 172 60 242 51
64 -8 116 7 137 38 8 12 17 46 21 75 12 94 54 177 128 251 118 120 302 154
448 84z m-2212 -604 c415 -276 470 -315 450 -322 -82 -32 -192 -95 -245 -142
l-62 -55 -118 81 c-393 272 -675 473 -688 492 -36 51 -13 109 84 209 47 48 64
60 83 56 13 -3 236 -146 496 -319z m4547 -1543 c77 -32 95 -137 55 -324 -117
-554 -565 -1083 -1179 -1392 -44 -22 -85 -49 -91 -59 -17 -33 -11 -75 15 -111
28 -38 33 -91 11 -113 -19 -18 -82 -24 -381 -37 -467 -18 -804 -21 -1190 -11
-473 14 -640 24 -660 41 -27 22 -18 69 19 104 40 36 57 74 49 107 -9 37 -22
48 -102 89 -102 51 -294 179 -416 277 -115 92 -294 273 -383 385 -194 246
-330 557 -362 825 -14 111 -3 160 41 197 27 23 39 26 112 26 45 0 188 -7 317
-15 612 -39 999 -49 1805 -49 825 -1 1214 10 1905 53 368 23 394 24 435 7z"/>
<path d="M4752 6468 c-25 -7 -37 -18 -48 -44 -23 -54 -24 -51 142 -252 16 -20
30 -26 59 -25 53 2 85 35 85 88 0 36 -9 51 -75 132 -80 98 -109 115 -163 101z"/>
<path d="M5575 6473 c-59 -8 -125 -35 -140 -56 -24 -34 -19 -90 9 -116 21 -20
32 -22 68 -17 170 24 188 22 281 -34 36 -22 75 -40 87 -40 33 0 80 53 80 90 0
45 -13 63 -68 99 -88 56 -224 88 -317 74z"/>
<path d="M5520 6098 c-129 -22 -264 -131 -327 -263 -47 -100 -55 -166 -23
-200 17 -18 34 -25 60 -25 50 0 76 22 89 77 16 64 51 122 102 167 46 42 111
75 147 76 13 0 37 14 54 30 26 27 30 36 25 67 -11 66 -46 85 -127 71z"/>
<path d="M5909 5881 c-50 -50 -38 -102 33 -144 60 -35 113 -93 140 -152 18
-40 23 -69 24 -145 1 -52 2 -103 3 -112 2 -26 57 -51 97 -43 50 9 66 40 71
143 9 154 -38 282 -141 381 -67 63 -130 101 -171 101 -16 0 -38 -12 -56 -29z"/>
<path d="M4385 5855 c-18 -17 -25 -35 -25 -62 0 -35 8 -46 86 -121 96 -94 156
-172 212 -273 25 -46 46 -72 64 -80 56 -23 118 16 118 74 0 69 -118 252 -243
375 -45 45 -91 88 -102 96 -31 24 -82 20 -110 -9z"/>
<path d="M6515 5658 c-62 -37 -61 -89 4 -163 64 -73 91 -132 100 -218 9 -81
30 -107 88 -107 52 0 83 36 83 99 0 120 -49 241 -134 336 -55 60 -101 78 -141
53z"/>
<path d="M3860 5631 c-117 -38 -180 -85 -180 -136 0 -39 21 -69 59 -85 27 -11
37 -9 95 19 98 48 162 55 268 29 83 -20 88 -20 113 -4 52 34 57 94 13 136 -60
55 -256 77 -368 41z"/>
<path d="M6098 4420 c-131 -39 -171 -209 -72 -302 139 -130 358 19 290 197
-34 87 -128 132 -218 105z"/>
<path d="M4156 4345 c-52 -20 -75 -41 -97 -90 -24 -52 -24 -106 1 -154 85
-168 333 -108 334 80 1 44 -5 64 -26 96 -44 67 -136 97 -212 68z"/>
<path d="M4867 4280 c-148 -10 -152 -14 -150 -152 1 -78 6 -119 23 -168 59
-176 203 -297 384 -323 182 -26 375 81 461 257 41 84 55 149 55 261 0 112 -3
114 -167 125 -147 11 -448 10 -606 0z m593 -200 c0 -53 -39 -138 -86 -184 -49
-50 -131 -86 -193 -86 -95 0 -196 59 -246 143 -25 45 -49 132 -40 148 4 5 123
9 286 9 l279 0 0 -30z"/>
</g>
</svg>
