<?xml version="1.0" standalone="no"?>
<!DOCTYPE svg PUBLIC "-//W3C//DTD SVG 20010904//EN"
 "http://www.w3.org/TR/2001/REC-SVG-20010904/DTD/svg10.dtd">
<svg version="1.0" xmlns="http://www.w3.org/2000/svg"
 width="1024.000000pt" height="1024.000000pt" viewBox="0 0 1024.000000 1024.000000"
 preserveAspectRatio="xMidYMid meet">
<metadata>
Created by potrace 1.16, written by Peter Selinger 2001-2019
</metadata>
<g transform="translate(0.000000,1024.000000) scale(0.100000,-0.100000)"
fill="#000000" stroke="none">
<path d="M5865 5963 c-16 -2 -147 -24 -290 -48 -557 -95 -673 -97 -1320 -20
-167 19 -344 19 -443 -1 -96 -19 -203 -69 -262 -121 -37 -33 -51 -39 -76 -36
-47 7 -197 -22 -259 -51 -73 -33 -157 -114 -186 -179 -18 -40 -24 -70 -24
-132 0 -71 4 -88 33 -147 39 -81 122 -160 209 -203 l62 -30 0 -77 c3 -415 333
-742 891 -883 300 -76 662 -109 955 -86 482 38 829 141 1111 329 267 179 404
419 404 706 l0 111 44 28 c25 15 76 57 115 93 54 50 80 84 108 142 35 71 38
82 37 162 0 71 -5 94 -27 141 -74 154 -247 227 -472 200 l-103 -13 -45 35
c-76 58 -152 79 -302 82 -71 2 -143 1 -160 -2z m308 -133 c31 -12 57 -25 57
-28 0 -4 -22 -17 -50 -30 -27 -13 -79 -43 -115 -67 l-66 -44 -32 28 c-51 44
-137 101 -164 107 -36 9 -77 -14 -166 -94 l-78 -71 -78 50 c-111 70 -128 69
-233 -23 -46 -40 -84 -76 -86 -80 -7 -17 -34 -6 -96 37 -78 55 -131 78 -158
69 -11 -3 -54 -35 -95 -71 l-74 -64 -37 29 c-20 16 -65 47 -99 70 -84 57 -114
56 -190 -5 -32 -25 -63 -50 -70 -55 -8 -6 -29 5 -65 34 -98 80 -185 138 -207
138 -33 0 -76 -25 -137 -81 l-54 -49 -33 17 c-17 9 -61 26 -97 38 -35 12 -66
27 -67 32 -4 11 68 44 132 62 84 23 234 23 420 2 99 -12 239 -28 310 -36 72
-8 202 -18 290 -21 229 -9 386 10 950 112 163 29 300 27 388 -6z m530 -100
c136 -51 197 -190 138 -313 -26 -54 -93 -126 -163 -174 l-46 -33 -30 53 c-89
157 -234 242 -458 270 l-98 13 65 48 c77 59 184 110 282 136 101 26 239 26
310 0z m-809 -129 c42 -29 76 -57 76 -62 0 -5 -19 -9 -42 -9 -24 0 -167 -18
-318 -39 -314 -44 -420 -56 -419 -44 0 4 41 43 89 85 l88 78 61 -35 c34 -19
71 -41 83 -50 50 -34 76 -21 233 118 33 29 43 33 56 24 9 -7 51 -36 93 -66z
m-1732 -37 c107 -78 127 -99 86 -89 -12 3 -82 9 -154 14 -276 19 -484 -36
-623 -165 -60 -55 -113 -134 -126 -186 -4 -16 -8 -28 -10 -28 -1 0 -24 12 -51
27 -138 77 -202 220 -146 329 28 54 66 88 137 121 56 26 68 28 190 27 114 0
140 -4 215 -28 47 -16 106 -39 132 -52 72 -36 89 -32 171 40 39 36 73 65 74
65 2 1 49 -33 105 -75z m363 -4 c4 -6 40 -33 81 -60 41 -28 74 -53 74 -57 0
-3 -42 -3 -92 1 -142 10 -199 18 -196 26 4 11 111 100 120 100 4 0 10 -5 13
-10z m513 -68 l84 -57 -83 -6 c-46 -4 -123 -4 -170 0 l-87 6 72 62 c40 35 77
60 86 57 8 -3 52 -31 98 -62z m1180 -87 c352 -83 452 -477 207 -820 -141 -199
-430 -362 -793 -449 -236 -57 -374 -71 -682 -70 -326 0 -457 15 -724 83 -263
68 -445 162 -592 306 -77 77 -98 104 -138 185 -57 116 -80 218 -72 315 18 230
152 365 406 411 129 23 307 15 695 -33 99 -12 215 -17 395 -17 273 0 340 6
760 69 256 38 433 45 538 20z"/>
<path d="M5640 4883 c-57 -21 -84 -100 -56 -166 25 -62 86 -74 138 -29 27 25
32 36 32 79 1 62 -18 99 -57 113 -33 11 -35 11 -57 3z"/>
<path d="M4244 4852 c-50 -8 -87 -90 -70 -156 13 -53 75 -81 131 -60 41 16 59
118 30 173 -15 30 -55 49 -91 43z"/>
<path d="M5067 4802 c-10 -10 -17 -33 -17 -50 0 -33 -38 -72 -69 -72 -27 0
-60 29 -79 68 -20 43 -61 55 -93 26 -46 -42 1 -147 86 -191 44 -23 122 -21
172 5 82 43 131 164 84 211 -26 26 -62 27 -84 3z"/>
</g>
</svg>
