<?xml version="1.0" standalone="no"?>
<!DOCTYPE svg PUBLIC "-//W3C//DTD SVG 20010904//EN"
 "http://www.w3.org/TR/2001/REC-SVG-20010904/DTD/svg10.dtd">
<svg version="1.0" xmlns="http://www.w3.org/2000/svg"
 width="2048.000000pt" height="2048.000000pt" viewBox="0 0 2048.000000 2048.000000"
 preserveAspectRatio="xMidYMid meet">
<metadata>
Created by potrace 1.16, written by Peter Selinger 2001-2019
</metadata>
<g transform="translate(0.000000,2048.000000) scale(0.100000,-0.100000)"
fill="#000000" stroke="none">
<path d="M9785 14298 c-242 -24 -553 -114 -774 -224 -627 -311 -1053 -877
-1171 -1554 -57 -323 -48 -592 31 -920 56 -235 154 -490 304 -790 114 -228
190 -463 215 -664 19 -146 8 -383 -23 -516 -30 -127 -81 -263 -146 -385 -59
-112 -222 -365 -236 -365 -5 0 -20 18 -32 39 -57 99 -169 227 -428 491 -154
157 -310 325 -346 373 -234 313 -309 690 -223 1117 8 41 58 203 110 360 53
156 111 343 129 416 167 651 76 1325 -245 1806 -171 257 -367 428 -645 563
-284 138 -527 193 -895 202 -647 16 -1230 -167 -1730 -543 -74 -56 -177 -141
-228 -189 -484 -457 -825 -1179 -956 -2025 -145 -937 -68 -1941 218 -2861 185
-595 468 -1126 828 -1554 104 -124 341 -353 473 -459 466 -371 964 -594 1500
-673 170 -24 584 -24 745 0 398 62 727 172 1035 348 189 108 334 218 494 376
74 73 135 133 137 133 1 0 33 -40 72 -89 265 -331 720 -598 1202 -705 245 -54
323 -61 655 -61 276 0 327 3 465 24 628 95 1172 368 1603 803 115 117 255 279
316 366 24 34 48 62 52 62 5 0 23 -28 40 -62 255 -508 771 -934 1377 -1136
495 -166 1093 -208 1573 -112 859 172 1530 668 2027 1500 363 607 645 1548
723 2410 19 203 16 622 -4 828 -57 563 -191 1043 -416 1487 -172 339 -364 604
-599 827 -296 281 -676 494 -1062 597 -327 87 -681 110 -990 65 -810 -118
-1401 -730 -1537 -1589 -12 -80 -17 -171 -17 -330 0 -241 9 -326 69 -640 82
-425 91 -618 39 -875 -39 -192 -142 -416 -254 -551 -63 -76 -197 -206 -204
-198 -2 2 1 87 6 189 32 642 -69 1429 -272 2111 -198 663 -485 1219 -850 1644
-97 113 -289 299 -400 388 -511 411 -1142 607 -1755 545z m470 -439 c336 -39
695 -195 995 -435 555 -444 966 -1164 1199 -2099 199 -801 234 -1563 105
-2300 -25 -141 -29 -153 -64 -195 -166 -200 -302 -569 -316 -855 l-6 -120 -55
-102 c-258 -487 -681 -912 -1118 -1123 -264 -127 -488 -192 -830 -242 -141
-20 -523 -17 -670 6 -454 71 -794 226 -1051 482 -95 96 -204 247 -247 345
l-25 56 25 73 c57 170 90 419 78 590 -8 111 -38 294 -59 364 l-15 49 51 101
c28 55 108 189 178 296 215 328 290 481 349 713 47 181 56 256 55 472 0 380
-57 605 -266 1055 -55 118 -118 254 -139 302 -91 205 -158 444 -179 637 -18
156 -8 424 20 556 115 546 477 998 979 1220 328 145 649 194 1006 154z m-4719
-50 c309 -30 576 -124 776 -274 439 -329 630 -969 492 -1645 -15 -74 -68 -252
-129 -435 -139 -416 -165 -521 -185 -764 -37 -438 105 -893 388 -1241 33 -41
172 -185 307 -320 354 -351 476 -524 579 -818 129 -372 100 -745 -85 -1067
-76 -132 -120 -189 -248 -315 -288 -287 -712 -479 -1228 -557 -156 -23 -492
-23 -643 0 -378 60 -692 180 -1018 393 -564 368 -996 922 -1289 1654 -196 488
-306 959 -369 1575 -19 190 -27 781 -13 955 109 1327 567 2189 1384 2607 221
112 404 174 645 219 235 42 434 53 636 33z m10024 -634 c702 -100 1273 -520
1639 -1205 147 -276 282 -676 345 -1020 53 -292 61 -391 60 -755 0 -309 -3
-358 -27 -535 -65 -479 -172 -928 -321 -1337 -132 -365 -292 -681 -486 -958
-244 -350 -581 -651 -928 -828 -332 -170 -655 -251 -1058 -264 -571 -19 -1101
139 -1537 458 -303 221 -537 557 -612 879 -23 98 -31 315 -16 422 24 165 106
367 219 538 67 101 280 318 457 467 406 339 600 676 671 1163 13 92 15 160 11
335 -6 229 -15 308 -76 606 -46 226 -62 360 -62 530 -1 292 51 517 177 773 88
178 262 382 424 497 148 105 394 204 580 233 127 19 407 20 540 1z"/>
<path d="M10330 13367 c-75 -18 -111 -38 -158 -92 -49 -56 -72 -119 -72 -200
0 -152 69 -234 290 -345 212 -107 363 -221 588 -446 211 -211 249 -236 369
-242 85 -5 132 9 181 52 131 115 90 339 -122 651 -76 112 -280 318 -397 400
-236 167 -519 259 -679 222z m212 -146 c258 -66 575 -305 757 -571 95 -139
171 -305 171 -376 0 -58 -47 -104 -106 -104 -61 0 -117 42 -279 205 -236 238
-361 333 -636 479 -209 112 -260 197 -189 314 45 74 134 91 282 53z"/>
<path d="M11639 11882 c-30 -25 -29 -66 5 -145 39 -92 87 -112 129 -54 l21 27
-23 72 c-35 107 -80 142 -132 100z"/>
<path d="M11188 11231 c-58 -37 -110 -136 -128 -243 -38 -225 36 -516 166
-645 195 -195 403 -71 430 255 18 217 -69 482 -195 595 -56 51 -97 67 -169 67
-47 0 -67 -6 -104 -29z"/>
<path d="M9355 10891 c-146 -66 -212 -322 -154 -604 87 -432 429 -561 551
-209 20 59 23 85 22 222 0 126 -4 169 -22 232 -49 178 -135 307 -237 354 -60
28 -106 30 -160 5z"/>
<path d="M10706 10337 c-14 -14 -26 -42 -30 -69 -31 -203 -324 -240 -418 -53
-11 22 -30 48 -42 57 -58 48 -161 -3 -160 -78 1 -93 94 -213 208 -269 259
-129 586 41 604 312 4 59 2 64 -26 93 -39 39 -101 42 -136 7z"/>
<path d="M9040 9645 c-7 -9 -17 -62 -22 -118 -18 -208 -93 -424 -209 -602 -78
-121 -86 -157 -38 -184 44 -25 73 -8 134 77 132 186 233 469 251 706 9 107 -5
136 -65 136 -22 0 -44 -6 -51 -15z"/>
<path d="M11798 7983 c-30 -35 -60 -105 -54 -128 14 -56 76 -73 113 -32 25 26
53 91 53 122 0 48 -79 75 -112 38z"/>
<path d="M11584 7634 c-6 -3 -50 -51 -97 -107 -164 -196 -394 -383 -628 -511
-98 -54 -248 -113 -397 -156 -82 -24 -139 -46 -148 -57 -21 -28 -13 -73 18
-96 l27 -20 108 28 c406 104 749 314 1057 645 125 133 156 177 156 215 0 48
-49 78 -96 59z"/>
<path d="M4780 13437 c-46 -16 -68 -56 -52 -91 17 -37 50 -47 119 -36 63 10
93 35 93 76 0 57 -74 80 -160 51z"/>
<path d="M4313 13291 c-343 -166 -618 -494 -764 -910 -30 -86 -31 -92 -15
-116 9 -13 28 -28 42 -31 49 -13 68 7 113 122 24 60 64 149 88 197 135 262
375 506 602 610 83 38 111 63 111 98 0 32 -40 69 -74 69 -12 0 -59 -18 -103
-39z"/>
<path d="M3444 11980 c-25 -10 -31 -23 -49 -109 -15 -71 -8 -103 24 -120 52
-28 86 -2 106 86 21 86 19 108 -11 132 -29 23 -38 24 -70 11z"/>
<path d="M5643 11025 c-124 -63 -193 -233 -193 -475 0 -250 82 -449 211 -514
206 -102 376 119 372 484 -2 197 -53 356 -145 449 -82 82 -159 100 -245 56z"/>
<path d="M3755 10980 c-192 -59 -277 -471 -164 -785 38 -104 89 -171 158 -207
155 -81 306 32 356 269 20 91 19 284 -1 381 -17 85 -67 201 -110 257 -54 71
-162 109 -239 85z"/>
<path d="M5083 10270 c-29 -12 -50 -46 -59 -95 -9 -51 -25 -83 -61 -119 -112
-114 -301 -73 -362 77 -24 59 -49 77 -106 77 -22 0 -45 -9 -65 -27 -31 -25
-32 -30 -27 -79 22 -215 284 -371 520 -309 78 20 124 45 183 98 69 63 115 155
122 245 4 65 3 71 -24 101 -31 34 -82 48 -121 31z"/>
<path d="M6226 10084 c-33 -32 -13 -165 54 -365 70 -211 189 -410 343 -575
131 -139 304 -274 353 -274 36 0 66 35 62 73 -2 26 -16 41 -83 91 -308 232
-520 557 -595 917 -27 128 -39 149 -85 149 -18 0 -41 -7 -49 -16z"/>
<path d="M3359 9269 c-17 -17 -20 -29 -16 -63 10 -66 57 -219 74 -238 22 -25
65 -22 91 5 28 29 27 41 -2 141 -13 44 -27 93 -30 109 -14 62 -76 87 -117 46z"/>
<path d="M3592 8634 c-33 -23 -28 -71 18 -181 57 -137 199 -398 292 -537 225
-337 545 -651 864 -848 168 -104 481 -248 538 -248 55 0 88 77 48 113 -10 9
-74 39 -142 67 -480 197 -865 520 -1186 995 -103 153 -211 349 -275 501 -63
151 -97 180 -157 138z"/>
<path d="M5738 6783 c-23 -25 -23 -75 0 -96 24 -22 87 -34 213 -43 137 -9 169
5 169 73 0 46 -28 60 -140 67 -52 3 -124 9 -160 12 -56 5 -67 4 -82 -13z"/>
<path d="M15875 12716 c-138 -44 -215 -154 -201 -288 9 -88 47 -149 151 -248
259 -245 312 -305 490 -561 80 -114 121 -156 189 -189 153 -76 297 -34 357
102 31 72 31 191 1 303 -28 102 -136 319 -204 410 -207 277 -518 488 -712 484
-17 0 -49 -6 -71 -13z m171 -146 c292 -102 647 -533 695 -842 21 -133 -10
-198 -94 -198 -80 0 -128 43 -257 230 -107 156 -229 299 -336 394 -138 123
-203 188 -225 223 -42 67 -15 163 54 197 43 21 96 20 163 -4z"/>
<path d="M16824 11177 l-28 -25 12 -73 c16 -95 32 -119 77 -119 53 0 70 23 65
95 -6 119 -64 175 -126 122z"/>
<path d="M14664 10711 c-123 -31 -232 -189 -275 -397 -17 -81 -20 -122 -16
-229 8 -199 55 -314 153 -371 145 -85 325 48 402 296 71 231 42 508 -67 632
-50 58 -130 85 -197 69z"/>
<path d="M16529 10507 c-78 -29 -133 -86 -187 -192 -133 -266 -113 -648 41
-780 127 -109 289 -39 388 168 62 132 74 189 74 367 0 176 -18 255 -76 343
-55 83 -159 124 -240 94z"/>
<path d="M15193 9891 c-39 -25 -47 -52 -41 -139 10 -134 98 -256 233 -323 68
-33 73 -34 190 -34 112 0 124 2 178 28 106 52 207 180 207 262 0 40 -25 74
-67 92 -52 21 -98 3 -124 -50 -54 -108 -151 -153 -258 -121 -91 27 -161 117
-161 208 0 14 -12 39 -27 56 -37 40 -86 48 -130 21z"/>
<path d="M14038 9676 c-10 -7 -32 -53 -49 -102 -65 -186 -161 -342 -292 -481
-109 -114 -194 -183 -322 -263 -112 -70 -125 -82 -125 -120 0 -34 28 -60 66
-60 70 0 285 150 445 309 135 136 194 216 273 371 105 206 131 311 84 344 -27
19 -57 20 -80 2z"/>
<path d="M16832 8405 c-24 -17 -72 -158 -72 -211 0 -52 52 -80 100 -54 18 10
80 177 80 216 0 21 -45 64 -67 64 -10 0 -28 -7 -41 -15z"/>
<path d="M16571 7843 c-12 -16 -55 -80 -97 -143 -358 -542 -877 -899 -1454
-1000 -71 -13 -88 -22 -101 -57 -12 -31 7 -69 41 -83 22 -9 51 -6 152 14 604
122 1140 508 1511 1088 42 66 77 131 77 144 0 62 -91 88 -129 37z"/>
<path d="M14312 6674 c-18 -12 -22 -24 -20 -51 5 -60 35 -74 170 -80 108 -5
116 -5 137 16 24 24 27 59 7 86 -10 14 -37 21 -122 31 -142 17 -146 17 -172
-2z"/>
</g>
</svg>
