<?xml version="1.0" standalone="no"?>
<!DOCTYPE svg PUBLIC "-//W3C//DTD SVG 20010904//EN"
 "http://www.w3.org/TR/2001/REC-SVG-20010904/DTD/svg10.dtd">
<svg version="1.0" xmlns="http://www.w3.org/2000/svg"
 width="1024.000000pt" height="1024.000000pt" viewBox="0 0 1024.000000 1024.000000"
 preserveAspectRatio="xMidYMid meet">
<metadata>
Created by potrace 1.16, written by Peter Selinger 2001-2019
</metadata>
<g transform="translate(0.000000,1024.000000) scale(0.100000,-0.100000)"
fill="#000000" stroke="none">
<path d="M4877 6333 c-32 -37 -26 -70 23 -129 22 -27 40 -52 40 -55 0 -4 -48
-7 -106 -8 -349 -5 -620 -197 -714 -507 -12 -41 -20 -91 -18 -115 4 -59 31
-71 172 -77 175 -7 331 31 479 119 80 48 199 156 237 216 15 23 30 40 32 37
17 -16 -58 -243 -118 -360 -67 -131 -223 -359 -330 -483 -1 -1 -20 10 -41 27
-62 48 -119 65 -215 61 -70 -3 -94 -9 -149 -36 -160 -79 -259 -259 -259 -469
0 -245 134 -435 368 -526 157 -61 359 -46 511 39 120 67 248 223 275 336 l6
27 43 -52 c182 -225 512 -292 770 -156 135 70 263 236 303 389 20 75 22 221 5
294 -33 137 -119 253 -231 309 -84 41 -156 52 -236 36 -77 -16 -126 -42 -185
-97 l-48 -44 -55 74 c-148 196 -204 349 -261 717 -28 180 -80 299 -176 401
-49 54 -92 65 -122 32z m80 -321 c18 -11 -45 -134 -104 -204 -124 -149 -342
-248 -547 -248 l-78 0 6 28 c14 58 79 174 129 228 87 96 205 161 342 190 67
14 233 18 252 6z m168 -504 c23 -87 123 -290 179 -366 25 -34 46 -66 46 -71 0
-4 -22 -11 -49 -14 -122 -14 -244 -114 -279 -228 l-18 -59 -35 36 c-56 59
-149 94 -250 94 l-39 0 76 97 c42 54 106 143 142 198 68 102 192 336 192 361
0 35 19 8 35 -48z m773 -404 c108 -54 182 -191 182 -339 0 -133 -56 -261 -157
-355 -157 -147 -349 -175 -550 -80 -73 34 -169 123 -202 188 -105 206 -24 404
173 419 53 5 81 1 152 -21 74 -24 91 -26 116 -15 54 22 65 84 22 118 -27 21
-27 21 -8 42 63 70 181 88 272 43z m-1495 -178 c18 -7 43 -24 56 -36 l24 -23
-27 -20 c-57 -41 -54 -113 5 -137 26 -11 37 -9 102 21 64 30 81 33 163 34 82
0 94 -3 132 -27 22 -15 54 -49 69 -75 25 -42 28 -58 27 -128 0 -112 -28 -177
-110 -264 -141 -150 -333 -197 -518 -127 -169 64 -277 203 -292 380 -7 74 15
178 52 246 70 129 215 200 317 156z"/>
</g>
</svg>
