<?xml version="1.0" standalone="no"?>
<!DOCTYPE svg PUBLIC "-//W3C//DTD SVG 20010904//EN"
 "http://www.w3.org/TR/2001/REC-SVG-20010904/DTD/svg10.dtd">
<svg version="1.0" xmlns="http://www.w3.org/2000/svg"
 width="1024.000000pt" height="1024.000000pt" viewBox="0 0 1024.000000 1024.000000"
 preserveAspectRatio="xMidYMid meet">
<metadata>
Created by potrace 1.16, written by Peter Selinger 2001-2019
</metadata>
<g transform="translate(0.000000,1024.000000) scale(0.100000,-0.100000)"
fill="#000000" stroke="none">
<path d="M4543 8300 c-31 -13 -43 -41 -43 -101 0 -125 69 -296 169 -422 70
-88 182 -181 324 -269 79 -49 97 -65 95 -81 -3 -18 -16 -24 -88 -38 -306 -60
-531 -193 -715 -422 -127 -158 -223 -340 -293 -557 -51 -158 -60 -194 -121
-478 -74 -342 -112 -446 -241 -657 -191 -313 -263 -458 -335 -680 -75 -229
-107 -430 -107 -675 1 -352 80 -672 241 -975 262 -492 492 -729 864 -889 258
-111 483 -158 762 -158 495 -1 920 158 1228 459 190 186 404 477 513 698 63
129 134 339 163 480 34 162 47 380 33 547 -29 349 -125 621 -374 1063 -149
265 -168 320 -233 706 -114 681 -212 960 -419 1201 -172 199 -416 323 -684
346 -45 4 -83 11 -85 16 -1 4 41 19 93 32 52 13 137 44 189 69 165 80 298 238
317 377 17 120 -74 136 -261 48 -128 -61 -268 -179 -322 -271 -10 -16 -20 -29
-23 -29 -3 0 -11 36 -17 79 -26 173 -116 329 -248 429 -83 62 -199 124 -274
146 -61 18 -76 19 -108 6z m193 -130 c182 -89 301 -224 343 -391 23 -92 36
-239 21 -239 -23 0 -258 167 -309 219 -67 68 -143 183 -171 259 -27 71 -53
190 -44 203 10 16 50 3 160 -51z m984 -274 c0 -13 -14 -51 -32 -85 -46 -89
-145 -180 -250 -229 -81 -39 -205 -78 -215 -69 -8 8 37 89 84 150 77 100 204
190 338 238 66 24 75 23 75 -5z m-330 -593 c161 -32 300 -102 428 -216 101
-90 180 -196 247 -332 102 -206 159 -419 234 -866 81 -478 84 -487 335 -942
95 -172 177 -366 219 -517 132 -474 62 -1025 -184 -1448 -69 -119 -220 -327
-327 -450 -269 -313 -603 -488 -1032 -542 -128 -16 -413 -13 -528 5 -369 59
-672 205 -898 430 -134 133 -281 350 -398 584 -220 439 -276 890 -171 1366 60
270 143 462 342 792 181 302 220 406 307 823 93 445 188 679 371 915 161 207
358 332 620 396 44 10 92 19 108 19 l27 0 0 -115 0 -114 -32 6 c-18 3 -54 14
-80 25 -58 25 -82 21 -86 -13 -4 -33 20 -53 87 -73 109 -32 204 -15 327 58 62
36 78 54 68 80 -11 28 -35 25 -106 -14 -40 -22 -78 -40 -84 -40 -15 0 -23 78
-16 152 l5 60 71 -7 c39 -4 105 -13 146 -22z"/>
<path d="M5756 6288 c-8 -13 -24 -57 -37 -98 -12 -41 -23 -76 -24 -78 -2 -2
-35 13 -75 33 -39 20 -81 35 -92 33 -30 -4 -45 -32 -28 -53 17 -20 216 -115
242 -115 11 0 69 26 129 57 100 52 110 60 107 83 -5 39 -38 36 -124 -9 -86
-45 -82 -51 -48 72 18 68 18 69 -1 83 -26 19 -32 18 -49 -8z"/>
<path d="M4439 6284 c-11 -14 -9 -28 14 -96 16 -44 26 -82 24 -84 -2 -2 -19 7
-38 20 -19 12 -58 35 -86 51 -43 23 -55 26 -68 15 -8 -7 -15 -23 -15 -36 0
-19 19 -33 113 -83 61 -34 123 -61 137 -61 31 0 237 98 244 117 7 18 -2 40
-20 47 -8 3 -50 -10 -93 -29 -44 -19 -83 -35 -88 -35 -4 0 -16 29 -27 64 -31
110 -65 148 -97 110z"/>
<path d="M4727 5734 c-12 -12 -8 -107 8 -168 20 -74 54 -119 118 -151 89 -44
203 -26 256 40 l21 28 28 -26 c98 -94 269 -86 343 15 38 53 48 89 51 177 3 61
0 75 -14 85 -35 22 -52 -4 -59 -85 -9 -112 -39 -156 -120 -179 -46 -14 -98 3
-135 42 -40 43 -46 58 -53 148 l-6 75 -35 0 -35 0 -5 -85 c-8 -132 -46 -180
-144 -180 -39 0 -52 6 -86 36 -42 38 -53 66 -67 169 -7 54 -10 60 -33 63 -14
2 -29 0 -33 -4z"/>
</g>
</svg>
