<?xml version="1.0" standalone="no"?>
<!DOCTYPE svg PUBLIC "-//W3C//DTD SVG 20010904//EN"
 "http://www.w3.org/TR/2001/REC-SVG-20010904/DTD/svg10.dtd">
<svg version="1.0" xmlns="http://www.w3.org/2000/svg"
 width="1024.000000pt" height="1024.000000pt" viewBox="0 0 1024.000000 1024.000000"
 preserveAspectRatio="xMidYMid meet">
<metadata>
Created by potrace 1.16, written by Peter Selinger 2001-2019
</metadata>
<g transform="translate(0.000000,1024.000000) scale(0.100000,-0.100000)"
fill="#000000" stroke="none">
<path d="M5005 7980 c-583 -62 -1014 -456 -1146 -1044 -11 -50 -26 -156 -34
-236 -43 -451 -83 -1992 -56 -2107 39 -162 159 -209 591 -234 102 -5 227 -13
278 -16 l93 -5 -5 -26 c-3 -15 -10 -178 -17 -362 -17 -497 -4 -706 56 -837 97
-214 374 -267 535 -102 120 124 146 306 135 936 l-7 391 54 6 c29 3 114 8 188
11 274 12 524 46 593 81 54 27 106 85 129 144 21 52 23 71 26 405 4 367 -11
1205 -29 1580 -19 424 -79 676 -212 894 -229 376 -674 574 -1172 521z m345
-134 c385 -59 676 -288 807 -638 101 -267 120 -534 129 -1798 l6 -745 -24 -44
c-31 -61 -60 -79 -150 -96 -368 -70 -1577 -79 -2040 -15 -137 20 -182 56 -194
161 -6 53 7 656 26 1239 15 434 39 800 61 929 68 402 287 718 616 889 124 64
244 100 423 126 65 9 255 4 340 -8z m-45 -3721 c11 -315 1 -763 -19 -850 -36
-157 -96 -225 -205 -233 -42 -3 -67 1 -92 13 -113 57 -146 154 -156 451 -5
165 13 809 24 827 2 4 102 7 222 7 l219 0 7 -215z"/>
<path d="M5724 6105 c-22 -22 -25 -32 -20 -68 3 -23 13 -256 22 -517 17 -452
17 -477 0 -512 -12 -26 -31 -43 -61 -57 -49 -23 -69 -51 -60 -81 29 -93 168
-48 230 74 29 59 30 62 28 200 -1 138 -17 565 -30 819 -3 70 -11 134 -17 142
-6 7 -23 17 -38 20 -21 5 -33 1 -54 -20z"/>
</g>
</svg>
