<?xml version="1.0" standalone="no"?>
<!DOCTYPE svg PUBLIC "-//W3C//DTD SVG 20010904//EN"
 "http://www.w3.org/TR/2001/REC-SVG-20010904/DTD/svg10.dtd">
<svg version="1.0" xmlns="http://www.w3.org/2000/svg"
 width="1024.000000pt" height="1024.000000pt" viewBox="0 0 1024.000000 1024.000000"
 preserveAspectRatio="xMidYMid meet">
<metadata>
Created by potrace 1.16, written by Peter Selinger 2001-2019
</metadata>
<g transform="translate(0.000000,1024.000000) scale(0.100000,-0.100000)"
fill="#000000" stroke="none">
<path d="M5001 6470 c-178 -38 -345 -135 -520 -305 -272 -263 -469 -610 -565
-995 -45 -181 -51 -229 -50 -415 1 -160 4 -191 27 -277 106 -397 467 -684 977
-775 139 -24 372 -22 521 5 447 83 786 332 921 679 49 127 61 202 61 383 0
140 -4 185 -27 295 -88 423 -301 824 -582 1096 -148 143 -306 244 -449 289
-79 25 -243 35 -314 20z m289 -130 c368 -123 753 -604 905 -1130 94 -327 93
-610 -4 -823 -159 -353 -583 -587 -1062 -587 -341 0 -633 98 -856 288 -287
245 -368 589 -248 1061 150 593 600 1136 1005 1215 53 10 196 -3 260 -24z"/>
<path d="M4723 6081 c-107 -89 -260 -291 -317 -418 -23 -53 -16 -90 21 -99 32
-9 52 13 123 134 61 102 136 197 229 286 74 71 86 99 55 130 -25 26 -49 19
-111 -33z"/>
<path d="M4583 5375 c-61 -26 -72 -97 -24 -146 74 -74 188 7 147 104 -13 32
-23 39 -76 52 -8 2 -29 -2 -47 -10z"/>
<path d="M5584 5380 c-32 -12 -64 -59 -64 -92 0 -43 48 -88 95 -88 65 0 110
69 85 131 -18 42 -73 66 -116 49z"/>
<path d="M4886 5154 c-23 -22 -20 -46 10 -90 33 -49 46 -59 113 -91 46 -22 63
-25 120 -21 82 6 133 29 189 86 32 33 42 52 42 76 0 69 -61 78 -110 16 -40
-50 -77 -70 -130 -70 -54 0 -105 24 -132 64 -12 17 -27 34 -33 38 -17 13 -53
9 -69 -8z"/>
</g>
</svg>
