<?xml version="1.0" standalone="no"?>
<!DOCTYPE svg PUBLIC "-//W3C//DTD SVG 20010904//EN"
 "http://www.w3.org/TR/2001/REC-SVG-20010904/DTD/svg10.dtd">
<svg version="1.0" xmlns="http://www.w3.org/2000/svg"
 width="1024.000000pt" height="1024.000000pt" viewBox="0 0 1024.000000 1024.000000"
 preserveAspectRatio="xMidYMid meet">
<metadata>
Created by potrace 1.16, written by Peter Selinger 2001-2019
</metadata>
<g transform="translate(0.000000,1024.000000) scale(0.100000,-0.100000)"
fill="#000000" stroke="none">
<path d="M5176 8379 c-114 -28 -158 -127 -103 -235 35 -69 47 -138 47 -264 0
-103 -25 -331 -39 -357 -4 -8 -27 18 -59 67 -63 95 -162 198 -252 262 -171
122 -421 208 -602 208 -87 0 -113 -14 -127 -68 -40 -150 -10 -354 75 -526 34
-66 34 -68 12 -61 -13 4 -97 9 -188 12 -188 6 -287 -7 -442 -57 -227 -72 -498
-257 -498 -339 0 -81 177 -184 403 -235 l98 -22 -73 -50 c-40 -27 -116 -92
-168 -144 -201 -200 -342 -474 -411 -800 -31 -144 -34 -509 -6 -670 67 -380
215 -820 494 -1470 345 -803 617 -1252 914 -1506 167 -143 340 -238 520 -286
73 -20 109 -22 264 -22 162 0 190 3 277 27 282 75 524 222 769 466 259 259
461 556 702 1036 257 512 491 1111 592 1514 137 548 102 1019 -105 1420 -132
255 -346 472 -572 582 -27 13 -48 26 -48 29 0 3 33 17 73 29 222 72 504 275
523 378 9 47 -15 77 -91 113 -206 98 -532 118 -805 49 -45 -12 -84 -18 -87
-15 -3 2 4 18 16 35 37 52 90 173 112 256 27 105 31 237 7 261 -52 53 -338 23
-535 -56 -99 -40 -198 -105 -272 -179 -65 -65 -75 -72 -67 -43 3 9 10 77 16
150 25 284 -33 445 -177 496 -56 20 -140 27 -187 15z m163 -146 c102 -75 102
-308 0 -823 -23 -113 -45 -209 -50 -214 -10 -11 -121 -47 -127 -41 -2 2 16
115 39 252 42 239 43 255 44 463 0 234 5 207 -62 357 -15 35 109 40 156 6z
m-984 -334 c323 -84 572 -311 670 -609 18 -54 22 -127 7 -141 -4 -4 -38 3 -77
16 -115 39 -216 55 -339 55 l-115 0 -63 48 c-183 141 -287 373 -279 626 l1 39
60 -7 c33 -4 94 -16 135 -27z m1927 -5 c9 -9 -28 -165 -55 -232 -78 -191 -250
-367 -429 -439 -53 -22 -63 -23 -125 -13 -37 6 -106 11 -153 10 -47 -1 -88 -2
-92 -1 -10 1 37 131 74 206 58 115 159 237 258 311 96 71 244 125 410 149 108
16 106 16 112 9z m573 -534 c103 -17 219 -54 223 -70 1 -9 -25 -36 -65 -66
-225 -169 -529 -266 -773 -247 -74 6 -81 8 -132 50 -29 24 -86 60 -125 80 -40
20 -73 38 -73 40 0 11 238 116 335 148 200 66 445 92 610 65z m-2695 -99 c81
-24 190 -70 190 -80 0 -3 -21 -14 -47 -23 -76 -27 -169 -87 -249 -160 -82 -75
-119 -90 -262 -107 -84 -11 -246 -1 -341 20 -110 24 -294 94 -289 110 7 20
131 103 221 149 100 51 179 78 297 105 101 23 382 14 480 -14z m642 -182 c68
-13 206 -58 213 -69 7 -11 -37 -134 -74 -210 -94 -189 -250 -356 -471 -505
-148 -99 -395 -209 -517 -230 -40 -6 -44 -5 -55 22 -7 17 -12 84 -12 178 -1
128 2 162 22 230 63 219 190 398 357 504 55 35 179 77 265 91 63 10 195 5 272
-11z m928 -11 c224 -56 429 -225 538 -443 80 -161 134 -490 85 -510 -38 -14
-183 -17 -283 -6 -541 63 -940 407 -940 812 l0 90 34 14 c167 70 392 87 566
43z m702 -252 c373 -95 680 -410 812 -836 60 -195 71 -270 71 -500 0 -233 -12
-326 -77 -585 -122 -489 -449 -1280 -733 -1774 -183 -320 -329 -516 -529 -716
-160 -159 -258 -235 -398 -310 -185 -98 -363 -146 -547 -146 -243 0 -437 75
-652 251 -304 250 -572 690 -932 1530 -486 1135 -583 1661 -410 2215 117 374
409 690 753 816 45 16 85 27 88 25 3 -3 -9 -34 -26 -68 -77 -157 -107 -305
-99 -495 5 -148 24 -222 68 -266 29 -29 32 -29 107 -25 152 10 427 125 635
267 176 121 309 250 417 405 50 71 70 85 70 49 0 -8 20 -54 45 -101 155 -298
492 -508 914 -567 140 -20 339 -16 406 8 72 25 80 47 79 215 0 116 -5 166 -22
235 -27 108 -79 236 -132 323 -22 36 -40 68 -40 70 0 9 43 3 132 -20z"/>
<path d="M6674 6395 c-5 -21 4 -36 52 -87 73 -79 137 -179 172 -266 23 -57 31
-67 54 -70 44 -5 51 23 23 101 -49 142 -207 347 -266 347 -22 0 -30 -6 -35
-25z"/>
<path d="M3578 6348 c-106 -132 -199 -325 -184 -384 5 -20 12 -25 34 -22 28 3
34 12 77 119 31 80 88 177 133 229 34 40 40 68 20 88 -22 22 -45 13 -80 -30z"/>
<path d="M5071 5912 c-6 -11 -6 -44 -1 -87 5 -39 9 -103 10 -143 0 -84 11
-112 44 -112 47 0 50 17 36 183 -7 84 -17 158 -23 165 -14 18 -55 15 -66 -6z"/>
<path d="M6915 5606 c-17 -13 -18 -19 -6 -100 8 -50 12 -140 10 -209 l-4 -122
27 -3 c40 -5 50 26 56 161 5 129 -10 247 -35 272 -18 18 -24 19 -48 1z"/>
<path d="M3510 5551 c-12 -23 -17 -226 -6 -259 10 -30 39 -45 59 -29 13 10 16
38 18 147 2 75 -1 141 -5 148 -11 19 -54 14 -66 -7z"/>
<path d="M4316 5428 c-25 -7 -57 -28 -86 -58 -108 -107 -83 -277 51 -344 113
-56 231 -16 292 99 60 115 -11 272 -139 304 -50 13 -65 13 -118 -1z"/>
<path d="M5828 5426 c-98 -26 -158 -105 -158 -210 0 -123 93 -216 217 -216
179 0 279 221 161 356 -58 65 -138 91 -220 70z"/>
<path d="M3165 5340 c-25 -40 81 -380 136 -439 25 -26 55 -27 69 -1 8 16 3 36
-30 105 -36 77 -73 191 -96 300 -8 35 -13 40 -41 43 -17 2 -34 -2 -38 -8z"/>
<path d="M4911 4981 c-10 -6 -12 -22 -9 -54 16 -138 159 -230 283 -183 79 31
153 137 143 206 -2 21 -8 25 -38 25 -33 0 -37 -4 -65 -60 -23 -46 -39 -64 -68
-78 -64 -32 -123 0 -153 81 -10 26 -22 53 -27 60 -11 14 -46 16 -66 3z"/>
<path d="M3801 4773 c-52 -19 -128 -90 -156 -148 -15 -30 -20 -61 -20 -120 0
-68 4 -89 28 -137 83 -168 305 -209 447 -81 159 143 109 420 -87 487 -58 20
-154 19 -212 -1z m195 -82 c53 -24 100 -82 114 -142 22 -92 -37 -206 -123
-238 -86 -33 -199 2 -251 76 -117 168 72 389 260 304z"/>
<path d="M6275 4763 c-123 -44 -194 -144 -195 -275 0 -119 74 -231 182 -272
60 -23 176 -19 232 9 164 79 213 315 93 451 -78 89 -207 124 -312 87z m195
-97 c134 -66 138 -269 7 -350 -25 -15 -67 -31 -92 -33 -125 -15 -241 106 -221
230 15 91 68 150 155 173 55 14 91 9 151 -20z"/>
<path d="M4330 4380 c-28 -28 -25 -49 18 -133 107 -205 287 -350 527 -423 80
-24 106 -27 240 -28 165 0 230 11 363 65 189 75 365 242 449 425 26 58 24 87
-7 104 -40 21 -65 2 -114 -86 -180 -323 -556 -472 -913 -363 -197 60 -364 202
-457 386 -36 73 -70 89 -106 53z"/>
<path d="M6053 3708 c-6 -7 -34 -46 -61 -87 -57 -84 -59 -116 -6 -116 24 0 37
11 81 75 39 56 52 83 50 105 -2 24 -7 31 -28 33 -14 2 -30 -3 -36 -10z"/>
<path d="M6503 3703 c-50 -139 -128 -279 -222 -396 -74 -92 -84 -119 -51 -137
29 -16 49 -1 119 85 96 120 231 367 231 423 0 40 -64 60 -77 25z"/>
<path d="M4462 3588 c-20 -20 -14 -44 33 -138 37 -74 49 -90 68 -90 27 0 47
17 47 40 0 8 -21 57 -47 108 -37 72 -52 92 -68 92 -12 0 -26 -5 -33 -12z"/>
<path d="M4090 3505 c-18 -21 -6 -79 35 -183 34 -83 102 -209 133 -244 21 -25
51 -22 64 6 9 22 5 35 -35 103 -56 95 -90 172 -112 249 -22 77 -56 104 -85 69z"/>
<path d="M5168 3108 c-9 -7 -32 -59 -52 -115 -30 -83 -35 -107 -26 -123 8 -15
19 -20 38 -18 24 3 31 14 64 98 42 109 47 145 19 160 -24 13 -24 13 -43 -2z"/>
<path d="M5605 2543 c-27 -25 -74 -61 -102 -80 -56 -35 -69 -67 -38 -93 19
-16 42 -7 102 38 142 107 170 141 141 170 -22 22 -53 12 -103 -35z"/>
<path d="M4417 2503 c-4 -3 -7 -18 -7 -32 0 -32 105 -135 202 -198 119 -77
269 -129 348 -121 30 2 35 7 38 30 4 32 -3 36 -113 62 -129 31 -241 95 -356
204 -61 56 -94 73 -112 55z"/>
</g>
</svg>
