<?xml version="1.0" standalone="no"?>
<!DOCTYPE svg PUBLIC "-//W3C//DTD SVG 20010904//EN"
 "http://www.w3.org/TR/2001/REC-SVG-20010904/DTD/svg10.dtd">
<svg version="1.0" xmlns="http://www.w3.org/2000/svg"
 width="1024.000000pt" height="1024.000000pt" viewBox="0 0 1024.000000 1024.000000"
 preserveAspectRatio="xMidYMid meet">
<metadata>
Created by potrace 1.16, written by Peter Selinger 2001-2019
</metadata>
<g transform="translate(0.000000,1024.000000) scale(0.100000,-0.100000)"
fill="#000000" stroke="none">
<path d="M4955 7360 c-52 -26 -185 -145 -270 -240 -394 -439 -668 -1065 -760
-1736 -9 -66 -18 -121 -20 -125 -2 -3 -37 3 -77 13 -96 25 -284 22 -340 -6
-74 -36 -79 -135 -10 -196 147 -130 184 -166 216 -214 92 -139 124 -234 182
-539 48 -256 83 -375 146 -502 64 -127 120 -205 215 -296 135 -130 274 -212
453 -270 47 -15 85 -31 85 -36 -1 -4 -9 -35 -19 -67 -39 -126 -4 -251 94 -339
66 -59 141 -88 250 -94 192 -12 333 58 407 199 24 46 27 65 28 143 0 79 -3 96
-28 144 -15 30 -26 55 -25 56 2 2 39 17 83 35 321 127 571 395 694 743 49 139
70 234 107 481 39 266 62 368 111 485 52 126 108 205 221 311 109 102 128 131
118 183 -14 75 -81 102 -240 94 -100 -4 -210 -28 -287 -61 -14 -6 -21 11 -44
111 -34 150 -118 403 -185 558 -177 413 -448 788 -734 1017 -196 156 -286 192
-371 148z m166 -211 c82 -56 142 -104 207 -163 l43 -39 -23 -24 c-54 -57 -143
-50 -211 19 -43 43 -59 46 -87 18 -26 -26 -25 -59 3 -101 75 -111 245 -132
360 -45 l44 34 69 -86 c70 -87 194 -268 194 -284 0 -15 -28 -21 -65 -14 -51
10 -92 49 -100 96 -8 45 -25 63 -60 63 -38 0 -55 -21 -55 -65 0 -118 110 -218
242 -218 31 0 68 4 83 10 26 10 27 8 95 -133 86 -178 149 -352 206 -571 44
-171 52 -226 35 -226 -18 0 -166 -117 -241 -191 -165 -162 -332 -404 -465
-674 -120 -245 -186 -421 -241 -644 -15 -61 -31 -108 -35 -104 -4 5 -14 35
-24 67 -25 87 -88 242 -146 358 -206 411 -490 736 -800 914 -71 41 -78 48 -74
72 3 15 9 68 15 117 14 114 63 361 97 485 109 402 306 796 550 1097 88 109
268 283 292 283 10 0 51 -23 92 -51z m1390 -1781 c-93 -90 -172 -228 -225
-394 -37 -117 -51 -186 -86 -424 -45 -310 -90 -472 -177 -630 -156 -286 -444
-492 -761 -545 l-44 -7 7 48 c93 689 408 1372 801 1733 137 126 283 212 424
250 118 31 122 29 61 -31z m-2695 -268 c378 -95 783 -507 1024 -1041 86 -191
176 -487 195 -643 l8 -59 -74 7 c-104 11 -250 51 -345 95 -310 146 -488 393
-562 786 -12 61 -31 160 -42 220 -53 280 -142 471 -281 599 -59 55 -59 56 -31
56 16 0 64 -9 108 -20z m1520 -1941 c36 -53 43 -129 16 -179 -10 -19 -40 -48
-66 -64 -84 -53 -247 -47 -316 10 -60 51 -77 130 -44 197 34 66 35 67 173 68
69 1 140 4 156 8 41 10 49 6 81 -40z"/>
<path d="M4685 6446 c-39 -28 -11 -130 52 -187 52 -49 92 -64 173 -64 65 0 83
4 130 30 65 35 120 109 120 159 0 40 -16 56 -55 56 -25 0 -37 -7 -56 -37 -49
-75 -116 -98 -194 -68 -35 13 -51 27 -72 63 -38 66 -59 77 -98 48z"/>
<path d="M5463 6060 c-40 -24 -63 -67 -63 -120 0 -72 36 -120 105 -139 34 -9
46 -7 92 14 45 20 57 32 74 70 22 49 19 90 -8 133 -37 60 -137 81 -200 42z"/>
<path d="M4542 6002 c-48 -26 -72 -68 -72 -125 0 -63 22 -102 70 -127 69 -35
132 -22 184 40 33 40 36 118 7 166 -36 59 -124 80 -189 46z"/>
<path d="M5200 5780 c-12 -12 -20 -33 -20 -55 0 -53 -44 -97 -99 -99 -36 -1
-47 4 -72 32 -16 18 -29 43 -29 57 0 30 -32 65 -59 65 -10 0 -29 -8 -41 -18
-41 -34 -24 -144 32 -204 58 -61 158 -83 246 -54 116 39 194 205 127 271 -29
30 -58 32 -85 5z"/>
<path d="M5298 5169 c-10 -5 -22 -29 -29 -52 -24 -90 -92 -147 -176 -147 -91
0 -137 29 -179 112 -27 52 -59 68 -99 50 -78 -36 -5 -211 116 -276 71 -39 182
-48 260 -20 71 25 150 99 179 166 30 69 32 144 6 164 -23 16 -54 18 -78 3z"/>
</g>
</svg>
