<?xml version="1.0" standalone="no"?>
<!DOCTYPE svg PUBLIC "-//W3C//DTD SVG 20010904//EN"
 "http://www.w3.org/TR/2001/REC-SVG-20010904/DTD/svg10.dtd">
<svg version="1.0" xmlns="http://www.w3.org/2000/svg"
 width="1024.000000pt" height="1024.000000pt" viewBox="0 0 1024.000000 1024.000000"
 preserveAspectRatio="xMidYMid meet">
<metadata>
Created by potrace 1.16, written by Peter Selinger 2001-2019
</metadata>
<g transform="translate(0.000000,1024.000000) scale(0.100000,-0.100000)"
fill="#000000" stroke="none">
<path d="M5382 7179 c-67 -13 -178 -77 -223 -128 -22 -25 -52 -71 -67 -103
-15 -32 -29 -58 -32 -58 -3 0 -11 13 -18 29 -7 16 -31 50 -53 75 -75 85 -257
151 -348 126 -56 -15 -66 -32 -65 -107 3 -120 99 -261 214 -315 62 -29 141
-48 200 -48 38 0 64 -16 38 -24 -7 -2 -49 -8 -94 -14 -198 -26 -389 -150 -482
-313 -17 -31 -52 -118 -78 -195 -81 -246 -128 -328 -279 -494 -158 -173 -230
-297 -276 -475 -33 -127 -33 -341 -1 -467 30 -114 63 -197 111 -277 159 -266
442 -450 806 -523 92 -19 144 -22 315 -23 303 0 473 36 695 145 283 140 472
369 552 668 23 84 26 118 27 247 0 184 -21 282 -94 430 -45 93 -82 144 -231
320 -78 93 -131 213 -179 409 -50 208 -83 278 -170 366 -106 108 -254 170
-468 197 -35 4 -64 12 -65 17 -1 5 26 17 61 26 92 25 189 78 243 132 95 95
154 271 116 345 -22 41 -64 50 -155 32z m93 -79 c11 -18 -32 -142 -66 -193
-54 -81 -151 -142 -263 -163 -34 -6 -38 -5 -33 12 3 11 8 36 12 57 15 90 72
181 145 232 71 49 189 81 205 55z m-661 -80 c95 -40 195 -166 208 -260 3 -23
-1 -25 -40 -28 -57 -4 -147 23 -198 60 -73 52 -134 157 -134 231 l0 30 58 -6
c33 -4 80 -15 106 -27z m511 -495 c87 -24 194 -78 247 -124 91 -81 131 -163
180 -376 54 -234 101 -326 264 -513 179 -205 242 -378 231 -636 -6 -158 -29
-255 -92 -381 -138 -278 -404 -468 -763 -546 -71 -15 -148 -22 -287 -26 -164
-5 -207 -2 -314 16 -462 79 -775 329 -887 708 -35 120 -44 303 -20 422 38 185
97 294 261 480 170 194 218 278 302 531 25 74 60 160 79 192 77 126 221 222
392 259 106 23 311 20 407 -6z"/>
<path d="M5234 6376 c-12 -31 3 -50 63 -81 34 -17 82 -48 106 -68 25 -20 52
-37 59 -37 19 0 38 21 38 42 0 35 -187 158 -240 158 -11 0 -23 -6 -26 -14z"/>
<path d="M5551 6071 c-26 -17 7 -151 37 -151 5 0 17 6 27 14 17 12 18 18 7 67
-17 74 -36 92 -71 70z"/>
<path d="M4484 5496 c-29 -29 -34 -41 -34 -81 0 -40 5 -52 34 -81 29 -29 41
-34 81 -34 40 0 52 5 81 34 30 30 34 40 34 84 0 43 -5 55 -31 81 -26 26 -38
31 -81 31 -44 0 -54 -4 -84 -34z"/>
<path d="M5394 5496 c-29 -29 -34 -41 -34 -81 0 -40 5 -52 34 -81 28 -28 42
-34 76 -34 52 0 95 25 115 66 19 40 19 67 0 104 -22 43 -53 60 -108 60 -42 0
-54 -5 -83 -34z"/>
<path d="M4912 5288 c-19 -19 -14 -97 8 -143 25 -51 65 -75 125 -75 40 0 52 5
80 33 69 69 74 214 6 192 -14 -4 -21 -19 -26 -57 -7 -49 -39 -98 -64 -98 -27
0 -62 47 -68 90 -8 65 -32 87 -61 58z"/>
<path d="M5949 5264 c-10 -13 -10 -26 1 -77 36 -169 38 -242 10 -377 -37 -182
-161 -375 -299 -465 -51 -33 -61 -44 -59 -65 4 -39 41 -38 105 5 154 102 286
307 327 507 39 187 -1 488 -65 488 -3 0 -12 -7 -20 -16z"/>
<path d="M4221 5244 c-41 -29 -17 -78 35 -72 34 4 53 31 38 55 -16 26 -49 33
-73 17z"/>
<path d="M5630 5190 c-16 -30 4 -60 41 -60 36 0 60 39 39 65 -18 22 -67 19
-80 -5z"/>
<path d="M4297 4553 c-14 -13 -6 -59 16 -98 24 -43 56 -56 77 -30 10 13 10 23
-5 63 -10 26 -22 53 -28 60 -10 13 -49 17 -60 5z"/>
</g>
</svg>
