<?xml version="1.0" standalone="no"?>
<!DOCTYPE svg PUBLIC "-//W3C//DTD SVG 20010904//EN"
 "http://www.w3.org/TR/2001/REC-SVG-20010904/DTD/svg10.dtd">
<svg version="1.0" xmlns="http://www.w3.org/2000/svg"
 width="1024.000000pt" height="1024.000000pt" viewBox="0 0 1024.000000 1024.000000"
 preserveAspectRatio="xMidYMid meet">
<metadata>
Created by potrace 1.16, written by Peter Selinger 2001-2019
</metadata>
<g transform="translate(0.000000,1024.000000) scale(0.100000,-0.100000)"
fill="#000000" stroke="none">
<path d="M4830 6714 c-136 -25 -239 -60 -389 -133 -81 -39 -90 -41 -177 -41
-312 0 -627 -142 -789 -355 -53 -70 -102 -159 -124 -225 -9 -26 -26 -45 -72
-73 -86 -55 -168 -135 -228 -221 -28 -41 -51 -79 -51 -85 0 -6 -26 -24 -58
-40 -274 -138 -417 -478 -357 -847 44 -275 191 -520 407 -680 312 -231 1045
-377 1898 -377 870 -1 1713 160 2076 395 310 200 431 518 325 848 -41 128
-106 236 -201 332 -72 73 -78 82 -83 131 -21 176 -129 391 -244 486 l-36 30
24 53 c21 47 24 67 24 179 0 124 0 125 -38 201 -61 123 -173 210 -308 239 -80
17 -203 6 -279 -25 -60 -24 -65 -24 -74 -8 -17 32 -124 130 -164 151 -139 71
-324 67 -461 -10 l-54 -31 -81 32 c-137 53 -222 71 -346 75 -63 2 -126 1 -140
-1z m285 -184 c43 -11 115 -36 159 -56 139 -61 138 -61 204 -15 76 53 130 71
216 71 106 -1 192 -48 247 -136 l21 -35 -27 -60 c-14 -33 -31 -86 -37 -119
-11 -58 -13 -60 -42 -60 -22 0 -36 7 -45 23 -33 52 -182 225 -198 229 -10 3
-33 1 -51 -4 -25 -7 -37 -18 -48 -44 -20 -47 -13 -64 62 -156 35 -43 64 -81
64 -83 0 -3 -23 -16 -51 -31 -57 -28 -137 -99 -179 -156 l-28 -38 -4 88 c-5
112 -43 198 -120 275 -217 217 -595 132 -699 -155 -15 -43 -13 -43 -88 -24
-97 25 -254 37 -350 26 -288 -33 -511 -153 -639 -345 -66 -98 -93 -177 -99
-296 -9 -159 33 -280 134 -389 52 -57 201 -160 230 -160 7 0 13 -4 13 -9 0
-11 -101 -31 -154 -31 -63 0 -133 39 -229 128 -85 79 -185 139 -258 156 -33 7
-39 28 -39 126 0 194 90 346 299 504 94 72 97 74 129 154 43 106 99 189 172
255 65 59 200 133 300 166 83 27 244 51 341 51 72 0 84 4 221 65 80 35 179 73
219 84 102 27 250 28 354 1z m1340 -184 c105 -49 159 -134 159 -251 0 -80 -21
-139 -73 -198 -40 -45 -127 -87 -178 -86 -36 0 -40 4 -85 74 l-47 74 62 34
c34 19 85 46 114 61 29 14 57 35 63 45 16 31 12 79 -10 101 -38 38 -64 36
-163 -16 -234 -123 -227 -120 -236 -105 -5 7 -6 32 -4 55 12 95 60 163 146
206 79 40 176 42 252 6z m-1395 -187 c55 -25 105 -71 133 -124 31 -57 30 -173
0 -231 -36 -68 -129 -134 -190 -134 -5 0 -28 29 -51 64 -46 71 -107 129 -192
184 -30 20 -56 37 -57 37 -11 5 35 101 64 134 73 86 194 115 293 70z m838
-209 c149 -28 260 -132 298 -281 41 -159 -45 -333 -203 -411 -57 -28 -75 -32
-147 -32 -102 1 -175 27 -246 91 -65 58 -97 114 -115 198 -16 76 -7 161 25
232 41 94 154 181 260 202 62 12 71 12 128 1z m-1548 -50 c223 -36 418 -158
492 -308 29 -59 33 -76 33 -152 0 -74 -4 -93 -29 -145 -43 -87 -142 -183 -241
-233 -368 -184 -884 -101 -1018 164 -42 82 -52 159 -34 248 31 151 132 270
297 349 161 77 332 103 500 77z m2424 -359 c40 -77 63 -158 72 -258 10 -108 2
-136 -48 -159 -22 -10 -69 -44 -104 -76 -95 -86 -102 -88 -251 -87 -180 2
-245 -18 -402 -124 -126 -85 -170 -100 -296 -105 -93 -3 -128 0 -225 22 -243
56 -303 66 -399 66 -108 0 -172 -13 -350 -71 -199 -65 -288 -62 -419 13 -56
32 -56 47 -2 48 55 0 220 53 315 99 211 105 345 267 375 456 6 38 10 85 8 104
-3 33 -1 34 58 55 79 29 124 57 168 106 20 22 37 40 38 40 2 0 3 -42 3 -93 2
-235 145 -425 374 -497 79 -25 214 -27 292 -4 230 68 389 277 389 513 l0 58
50 7 c28 4 82 24 122 45 l73 39 62 -66 c34 -36 78 -95 97 -131z m-3858 -329
c1 -131 16 -206 85 -419 64 -198 158 -453 182 -496 29 -52 118 -117 212 -156
175 -73 580 -143 1060 -183 196 -16 824 -16 1030 0 480 38 928 114 1084 183
123 54 170 102 223 231 47 115 187 542 200 613 7 36 16 65 19 65 15 0 93 -134
117 -202 30 -85 41 -226 23 -307 -33 -153 -139 -289 -305 -389 -267 -162 -890
-298 -1571 -342 -657 -42 -1515 48 -1928 204 -303 114 -489 310 -577 608 -30
101 -38 315 -16 411 19 80 64 173 118 245 22 28 41 52 42 52 0 0 1 -53 2 -118z
m378 -391 c157 -146 288 -178 495 -120 60 17 96 20 176 17 l101 -3 160 -77
c186 -89 177 -86 265 -98 96 -14 184 1 366 60 232 76 268 76 613 -6 95 -23
139 -28 250 -28 124 -1 142 1 219 28 56 19 117 51 180 94 153 105 160 107 341
107 172 0 192 5 282 71 27 20 51 35 53 32 6 -5 -148 -458 -171 -504 -51 -97
-249 -161 -681 -219 -557 -74 -1153 -84 -1688 -29 -404 41 -676 95 -810 159
-118 56 -125 68 -221 351 -46 137 -84 255 -84 262 0 23 75 -24 154 -97z"/>
<path d="M5750 5813 c-42 -15 -56 -96 -22 -126 30 -27 87 -22 111 9 28 35 26
69 -4 99 -23 24 -52 30 -85 18z"/>
<path d="M4140 5675 c-148 -41 -244 -159 -226 -278 10 -66 54 -121 128 -159
60 -31 69 -33 168 -33 99 0 110 2 172 33 148 73 197 207 121 331 -59 95 -226
144 -363 106z m189 -168 c52 -27 53 -85 2 -112 -81 -41 -197 -38 -237 6 -17
19 -17 23 -3 47 24 43 85 72 154 72 33 0 71 -6 84 -13z"/>
</g>
</svg>
