<?xml version="1.0" standalone="no"?>
<!DOCTYPE svg PUBLIC "-//W3C//DTD SVG 20010904//EN"
 "http://www.w3.org/TR/2001/REC-SVG-20010904/DTD/svg10.dtd">
<svg version="1.0" xmlns="http://www.w3.org/2000/svg"
 width="1024.000000pt" height="1024.000000pt" viewBox="0 0 1024.000000 1024.000000"
 preserveAspectRatio="xMidYMid meet">
<metadata>
Created by potrace 1.16, written by Peter Selinger 2001-2019
</metadata>
<g transform="translate(0.000000,1024.000000) scale(0.100000,-0.100000)"
fill="#000000" stroke="none">
<path d="M4598 7241 c-62 -49 -115 -204 -104 -307 9 -86 30 -143 87 -230 91
-139 129 -237 129 -334 0 -60 21 -90 64 -90 47 0 56 15 56 92 0 125 -42 248
-127 374 -55 81 -79 131 -88 181 -10 62 11 143 50 199 40 57 47 107 16 124
-29 15 -55 12 -83 -9z"/>
<path d="M5044 7171 c-78 -48 -133 -195 -113 -305 14 -81 38 -124 113 -204 81
-86 109 -140 110 -212 1 -30 -2 -71 -7 -91 -6 -28 -3 -41 11 -59 21 -26 66
-30 89 -8 25 25 39 139 26 213 -16 91 -45 145 -125 232 -38 41 -76 90 -84 109
-32 76 -10 167 55 228 36 34 41 74 13 99 -24 22 -50 21 -88 -2z"/>
<path d="M4071 7064 c-60 -93 -68 -252 -19 -349 25 -49 95 -123 151 -160 16
-10 42 -41 58 -69 25 -44 29 -61 29 -128 0 -70 2 -78 25 -97 21 -16 31 -18 55
-9 16 5 31 17 34 26 13 48 15 113 6 162 -19 102 -59 160 -179 259 -98 81 -117
185 -57 304 28 54 28 57 12 82 -12 19 -25 25 -51 25 -31 0 -39 -6 -64 -46z"/>
<path d="M3182 6125 c-42 -53 -61 -431 -33 -645 53 -402 228 -807 461 -1063
39 -42 57 -68 48 -71 -7 -2 -92 -11 -188 -20 -424 -39 -633 -91 -680 -168 -86
-142 124 -481 455 -730 259 -195 590 -327 986 -392 233 -39 328 -46 644 -53
560 -11 930 37 1265 164 379 144 668 388 811 686 65 137 83 271 43 334 -51 80
-329 139 -814 174 -91 6 -167 13 -169 15 -2 2 13 20 33 41 20 21 59 70 87 109
l51 71 117 6 c311 17 605 100 833 234 98 58 246 198 307 293 80 124 116 301
91 447 -32 195 -182 362 -378 423 -156 49 -334 47 -541 -6 -70 -17 -97 -21
-102 -12 -4 6 -10 43 -14 81 -12 120 197 107 -1669 107 l-1625 0 -19 -25z
m3193 -117 c13 -45 18 -384 6 -484 -55 -471 -242 -871 -545 -1166 -39 -38 -90
-84 -113 -101 -53 -41 -62 -57 -89 -147 l-22 -75 -68 -6 c-93 -9 -1191 -11
-1341 -3 l-120 7 -13 51 c-23 90 -38 114 -112 177 -110 93 -233 215 -298 296
-208 258 -347 605 -391 977 -11 98 -7 412 7 469 l6 27 1543 0 1543 0 7 -22z
m683 -133 c239 -57 381 -248 352 -476 -37 -298 -305 -527 -745 -637 -155 -39
-402 -68 -398 -46 1 5 21 52 46 104 l44 96 100 12 c220 28 377 89 486 192 84
79 119 153 120 254 0 233 -208 328 -481 219 -34 -14 -65 -23 -68 -20 -3 3 -3
60 1 126 l8 120 49 17 c155 51 363 68 486 39z m-217 -365 c19 -5 48 -24 65
-41 26 -27 29 -37 29 -99 0 -60 -4 -74 -30 -112 -63 -88 -170 -146 -353 -189
-74 -17 -142 -25 -142 -16 0 2 7 27 16 57 9 29 29 112 44 183 16 71 30 130 32
131 12 8 148 61 195 76 67 22 94 24 144 10z m-2981 -1333 c49 -40 67 -62 76
-92 6 -22 10 -42 9 -45 -4 -6 -254 5 -460 20 -239 17 -505 53 -492 67 23 22
557 92 777 102 16 0 48 -18 90 -52z m2460 27 c237 -21 460 -57 460 -73 0 -8
-143 -32 -310 -51 -117 -14 -537 -40 -637 -40 -46 0 -83 3 -83 8 0 41 27 87
78 133 l57 51 135 -6 c74 -4 209 -14 300 -22z m570 -181 c0 -18 -33 -102 -62
-158 -108 -214 -326 -413 -591 -540 -274 -132 -560 -193 -1009 -217 -366 -19
-770 8 -1091 72 -453 91 -851 313 -1086 605 -58 73 -141 203 -141 223 0 6 17
5 44 -3 276 -83 1546 -136 2526 -105 675 21 1218 67 1347 114 45 16 63 19 63
9z"/>
<path d="M4288 5700 c-179 -95 -110 -376 92 -374 66 1 108 21 148 70 82 99 48
263 -65 310 -47 20 -131 17 -175 -6z m134 -114 c47 -35 35 -119 -18 -132 -64
-16 -118 39 -94 97 7 16 20 34 29 39 23 13 63 12 83 -4z"/>
<path d="M5463 5705 c-15 -11 -24 -30 -28 -63 -10 -81 -15 -94 -45 -123 -23
-24 -37 -29 -75 -29 -65 0 -110 44 -120 116 -3 27 -7 56 -8 64 -1 8 -14 21
-30 30 -24 13 -30 13 -54 -1 -26 -14 -28 -19 -27 -85 0 -91 29 -153 93 -199
63 -46 128 -61 197 -46 114 26 182 115 186 244 3 62 1 71 -21 88 -28 23 -40
24 -68 4z"/>
<path d="M3938 5196 c-34 -17 -44 -41 -30 -70 18 -40 54 -48 189 -44 134 3
156 12 156 63 0 52 -21 60 -163 61 -76 0 -139 -4 -152 -10z"/>
<path d="M5485 5202 c-49 -9 -60 -69 -18 -102 26 -20 37 -21 161 -18 127 3
135 4 153 27 25 31 24 47 -6 77 -25 24 -28 25 -148 22 -67 -1 -131 -4 -142 -6z"/>
<path d="M4605 5153 c-13 -13 -16 -29 -13 -69 8 -98 90 -181 203 -204 127 -26
254 49 290 174 19 64 9 102 -29 112 -42 10 -65 -4 -78 -49 -7 -23 -20 -51 -28
-63 -66 -89 -206 -63 -241 45 -22 68 -67 92 -104 54z"/>
</g>
</svg>
