<?xml version="1.0" standalone="no"?>
<!DOCTYPE svg PUBLIC "-//W3C//DTD SVG 20010904//EN"
 "http://www.w3.org/TR/2001/REC-SVG-20010904/DTD/svg10.dtd">
<svg version="1.0" xmlns="http://www.w3.org/2000/svg"
 width="2048.000000pt" height="2048.000000pt" viewBox="0 0 2048.000000 2048.000000"
 preserveAspectRatio="xMidYMid meet">
<metadata>
Created by potrace 1.16, written by Peter Selinger 2001-2019
</metadata>
<g transform="translate(0.000000,2048.000000) scale(0.100000,-0.100000)"
fill="#000000" stroke="none">
<path d="M10415 17445 c-186 -30 -394 -91 -629 -184 -468 -186 -736 -240
-1431 -286 -383 -25 -534 -45 -744 -96 -351 -86 -617 -237 -915 -520 -55 -52
-211 -214 -348 -361 -136 -146 -266 -282 -289 -302 -60 -51 -99 -66 -200 -77
-130 -13 -240 -43 -348 -96 -78 -37 -109 -59 -176 -127 -97 -97 -140 -176
-239 -434 -37 -96 -76 -192 -87 -215 -12 -23 -41 -88 -65 -146 -60 -141 -66
-152 -264 -416 -206 -274 -423 -601 -615 -925 -90 -151 -222 -356 -469 -729
-453 -681 -567 -892 -694 -1281 -95 -292 -132 -533 -139 -905 -7 -378 21 -649
107 -1020 87 -377 185 -679 408 -1260 113 -293 182 -488 334 -930 144 -422
230 -631 389 -945 309 -613 718 -1087 1299 -1504 342 -247 727 -451 1562 -830
774 -351 1212 -520 1668 -645 328 -89 749 -151 1210 -178 170 -10 816 -10
1015 0 338 17 709 37 845 47 80 5 228 15 330 20 538 31 763 59 1075 136 724
180 1539 648 2180 1254 365 344 897 969 1160 1360 188 280 309 503 458 840 99
224 110 258 153 455 37 170 101 363 216 645 236 576 318 809 398 1123 157 616
186 1244 84 1807 -57 319 -194 714 -439 1270 -178 403 -435 1005 -507 1185
-116 292 -321 747 -431 955 -235 448 -417 672 -742 914 -290 217 -319 239
-433 334 -63 53 -207 186 -320 296 -359 349 -563 529 -747 657 -256 180 -532
297 -891 379 -428 97 -606 158 -1169 400 -453 195 -707 284 -935 325 -131 24
-500 30 -625 10z m440 -360 c198 -17 444 -95 866 -275 76 -33 176 -75 222 -94
45 -18 143 -59 217 -90 290 -123 499 -189 864 -276 221 -53 388 -104 495 -152
245 -110 522 -327 966 -758 322 -312 496 -461 784 -665 113 -81 242 -192 309
-268 254 -284 474 -718 920 -1812 61 -148 150 -362 200 -475 49 -113 138 -315
197 -450 180 -410 285 -696 344 -935 126 -507 129 -1016 10 -1603 -70 -349
-153 -606 -368 -1147 -81 -203 -156 -391 -165 -417 -10 -27 -20 -48 -22 -48
-2 0 -22 11 -42 25 -113 74 -262 86 -382 29 -36 -17 -108 -65 -160 -106 -103
-82 -232 -168 -250 -168 -7 0 -9 10 -6 27 17 82 26 192 31 408 3 132 13 288
21 348 33 241 126 471 354 877 220 392 269 489 332 665 64 177 82 276 82 455
1 173 -12 249 -71 435 -81 253 -148 385 -197 385 -23 0 -66 -41 -66 -63 0 -11
32 -102 71 -201 95 -242 119 -338 126 -501 12 -284 -60 -496 -335 -992 -227
-410 -268 -491 -341 -688 -86 -231 -100 -317 -111 -705 -13 -443 -28 -512
-152 -677 -131 -174 -168 -282 -168 -483 0 -319 125 -626 295 -725 23 -14 74
-33 113 -43 l71 -18 -26 -39 c-114 -167 -375 -488 -594 -730 -169 -187 -456
-467 -604 -590 -492 -410 -1138 -767 -1650 -914 -320 -92 -593 -127 -1380
-176 -917 -57 -1369 -71 -1745 -55 -729 31 -1230 125 -1825 345 -596 220
-1817 782 -2235 1030 -703 416 -1178 923 -1534 1635 -135 270 -210 462 -391
990 -66 195 -211 591 -264 723 -383 958 -540 1629 -524 2242 10 409 90 745
266 1115 89 189 194 362 496 820 158 239 338 518 401 620 227 372 306 498 392
627 130 195 384 543 397 543 3 -1 24 -23 45 -51 49 -62 125 -120 199 -154 31
-15 57 -31 57 -36 0 -5 -62 -71 -137 -147 -205 -205 -298 -336 -274 -388 14
-31 54 -50 80 -38 11 5 53 56 94 112 46 64 139 169 243 273 154 155 171 169
203 169 51 0 149 25 216 54 99 44 194 115 339 255 78 75 182 170 231 212 274
230 351 486 225 745 -35 71 -159 241 -219 299 -23 21 -41 44 -41 50 0 6 14 24
31 41 17 16 99 103 182 194 475 521 682 687 998 798 182 64 312 85 749 117
855 63 1036 98 1600 309 346 130 493 169 690 186 84 7 118 6 255 -5z m-4780
-1826 c46 -12 100 -61 187 -169 87 -107 111 -164 106 -249 -5 -99 -46 -162
-168 -259 -52 -41 -165 -143 -250 -227 -133 -130 -166 -157 -234 -191 -72 -35
-88 -39 -155 -39 -65 0 -83 4 -130 30 -91 50 -151 144 -151 236 0 39 10 74 41
143 23 50 77 186 120 301 80 211 123 292 177 332 59 44 139 76 237 97 42 8
182 5 220 -5z m10425 -7865 c42 -36 70 -94 70 -147 0 -93 -116 -413 -250 -694
-118 -246 -193 -327 -332 -357 -70 -15 -155 42 -194 131 -31 69 -74 282 -74
365 0 78 22 165 58 232 44 81 136 163 322 289 96 64 204 138 239 162 76 54
114 58 161 19z"/>
<path d="M9972 16614 c-239 -35 -413 -109 -695 -296 -135 -89 -270 -158 -362
-183 -88 -24 -254 -30 -402 -15 -258 27 -444 9 -619 -59 -126 -49 -302 -162
-353 -227 -26 -33 -27 -76 -3 -97 33 -30 65 -20 143 43 87 71 259 159 374 192
67 19 104 23 230 23 83 0 211 -6 285 -12 163 -13 280 -4 405 32 116 34 210 81
387 196 293 190 453 254 698 279 78 7 98 13 113 31 24 29 21 55 -8 84 -28 29
-51 30 -193 9z"/>
<path d="M12131 15991 c-185 -47 -439 -220 -615 -419 -65 -74 -137 -213 -155
-300 -32 -152 10 -332 110 -479 46 -68 163 -187 239 -243 93 -69 377 -223 496
-270 367 -144 647 -53 869 280 129 194 193 369 202 556 11 216 -48 371 -199
530 -233 243 -455 350 -748 360 -100 3 -140 0 -199 -15z m321 -296 c103 -21
198 -71 308 -163 159 -131 211 -214 218 -348 2 -44 -1 -105 -7 -135 -27 -125
-137 -331 -233 -435 -62 -68 -117 -96 -196 -102 -99 -7 -174 16 -370 114 -275
137 -414 250 -485 394 -28 55 -32 75 -32 140 1 90 26 146 105 234 98 107 291
248 400 293 67 27 182 31 292 8z"/>
<path d="M12188 15505 c-89 -33 -174 -112 -214 -200 -32 -70 -42 -180 -20
-223 20 -39 59 -51 95 -31 23 13 27 22 32 89 3 41 12 91 21 110 19 44 87 106
143 130 24 10 49 28 55 39 16 30 2 70 -31 86 -33 18 -33 18 -81 0z"/>
<path d="M8610 15140 c-245 -52 -494 -191 -707 -393 -219 -209 -323 -455 -323
-771 0 -462 188 -732 600 -864 146 -47 210 -56 390 -56 131 0 186 5 265 22
127 27 381 101 464 136 263 107 480 353 551 622 93 356 -2 747 -243 1001 -233
245 -662 375 -997 303z m272 -330 c166 -19 343 -93 446 -185 59 -53 131 -158
161 -231 73 -187 66 -443 -16 -597 -39 -72 -154 -185 -243 -237 -69 -41 -80
-44 -137 -42 -50 2 -73 -3 -110 -22 -138 -69 -342 -112 -488 -102 -224 14
-409 102 -494 235 -93 144 -114 393 -50 584 63 189 269 389 537 522 109 54
150 66 297 84 6 0 49 -4 97 -9z"/>
<path d="M8552 14486 c-244 -99 -372 -273 -372 -507 0 -89 21 -129 69 -129 49
0 65 31 71 135 5 81 10 102 43 168 24 48 53 89 80 112 50 44 157 100 221 116
56 14 90 51 81 89 -14 60 -73 65 -193 16z"/>
<path d="M15816 13364 c-16 -15 -20 -34 -16 -63 1 -8 24 -40 51 -70 55 -61
100 -148 118 -226 7 -30 13 -163 14 -325 2 -272 3 -276 30 -355 36 -102 91
-195 169 -285 61 -70 89 -87 126 -76 19 6 42 45 42 70 0 7 -29 50 -65 96 -79
100 -110 151 -144 239 -25 65 -26 70 -26 341 -1 310 -8 357 -70 481 -48 95
-139 189 -182 189 -17 0 -39 -7 -47 -16z"/>
<path d="M14365 13016 c-103 -26 -184 -77 -235 -148 -20 -28 -55 -55 -103 -81
-192 -104 -340 -286 -394 -487 -26 -97 -24 -280 5 -390 47 -177 149 -337 318
-501 172 -167 348 -275 519 -320 117 -31 291 -29 400 3 186 55 336 180 419
349 66 134 87 226 89 379 1 150 -13 237 -63 390 -109 333 -353 649 -587 761
-114 55 -259 72 -368 45z m242 -326 c87 -44 173 -127 252 -245 179 -268 257
-551 206 -750 -38 -147 -112 -246 -223 -298 -56 -26 -79 -31 -142 -32 -158 0
-273 47 -444 183 -215 171 -346 384 -346 563 0 192 153 380 364 449 48 16 124
84 143 128 13 31 15 32 72 32 44 0 72 -7 118 -30z"/>
<path d="M14390 12440 c-112 -31 -194 -140 -206 -272 -8 -79 4 -126 39 -152
26 -19 28 -19 62 -3 19 9 36 20 36 24 1 5 3 42 3 84 2 87 22 131 77 166 75 48
79 53 79 86 0 18 -4 37 -8 44 -12 19 -55 31 -82 23z"/>
<path d="M5584 12161 c-65 -11 -169 -45 -260 -86 -353 -160 -654 -557 -729
-960 -26 -134 -17 -339 19 -460 52 -173 129 -300 254 -417 160 -149 354 -266
521 -314 82 -23 104 -26 214 -22 221 7 338 67 552 282 214 215 312 367 361
557 24 93 26 114 21 248 -7 214 -49 346 -175 543 -34 54 -75 134 -92 179 -82
226 -211 365 -396 429 -67 23 -210 33 -290 21z m223 -315 c77 -39 143 -142
189 -291 10 -35 44 -98 80 -151 120 -176 164 -292 164 -433 0 -204 -72 -341
-304 -579 -91 -93 -123 -119 -185 -150 -72 -35 -80 -37 -176 -37 -90 0 -107 3
-172 32 -40 17 -110 56 -155 86 -171 114 -277 236 -335 383 -26 64 -28 79 -28
219 0 144 2 154 34 248 111 322 357 574 656 674 81 27 179 27 232 -1z"/>
<path d="M5469 11510 c-57 -17 -155 -77 -200 -122 -95 -95 -159 -275 -159
-450 0 -110 14 -138 68 -138 48 0 58 24 70 155 5 66 18 144 28 174 41 122 123
212 227 247 71 24 91 83 41 123 -29 23 -35 24 -75 11z"/>
<path d="M11070 11869 c-198 -22 -388 -96 -536 -207 -95 -72 -225 -206 -296
-306 -96 -135 -201 -378 -228 -528 -17 -91 -15 -242 4 -322 58 -247 314 -585
579 -765 253 -172 754 -237 1115 -145 401 101 676 456 743 961 16 119 6 325
-20 431 -44 175 -149 331 -313 465 -51 42 -118 96 -148 121 -131 108 -380 242
-514 276 -95 24 -267 33 -386 19z m313 -349 c25 -7 63 -27 84 -45 46 -39 191
-134 253 -165 213 -107 364 -289 391 -470 22 -146 -8 -374 -69 -520 -40 -94
-132 -230 -190 -280 -109 -94 -223 -127 -467 -136 -247 -9 -447 30 -591 117
-135 82 -315 285 -399 451 -57 113 -71 181 -56 270 47 283 293 616 534 723
152 67 368 90 510 55z"/>
<path d="M11055 11286 c-158 -38 -290 -146 -364 -297 -64 -131 -89 -261 -58
-302 6 -9 24 -19 38 -22 42 -10 66 20 94 118 61 211 155 320 315 363 36 10 75
26 88 37 31 28 29 70 -4 96 -30 24 -39 24 -109 7z"/>
<path d="M16926 9667 c-12 -9 -29 -65 -56 -180 -45 -191 -85 -317 -176 -540
-35 -86 -64 -166 -64 -177 0 -27 35 -60 63 -60 13 0 33 10 44 23 72 78 266
648 288 844 7 54 5 63 -14 82 -24 24 -59 27 -85 8z"/>
<path d="M8095 9254 c-193 -41 -347 -124 -485 -263 -259 -261 -350 -622 -221
-881 45 -90 81 -138 166 -218 224 -213 522 -323 873 -321 161 0 240 17 326 69
190 114 372 481 353 711 -15 181 -117 343 -284 454 -33 21 -45 37 -54 69 -47
175 -230 332 -434 371 -71 14 -194 18 -240 9z m260 -330 c64 -31 73 -45 99
-136 23 -78 89 -160 194 -238 94 -71 145 -139 157 -210 15 -88 -79 -313 -170
-406 -41 -43 -59 -54 -103 -63 -129 -27 -355 2 -512 66 -146 59 -294 182 -355
293 -27 50 -30 63 -30 152 l0 96 59 116 c48 97 71 129 132 190 77 76 175 137
263 162 26 8 81 12 126 11 65 -3 91 -9 140 -33z"/>
<path d="M7995 8711 c-121 -73 -176 -318 -92 -408 20 -23 61 -30 83 -15 28 19
35 51 23 111 -17 78 -3 123 56 189 50 55 59 97 27 125 -24 22 -60 21 -97 -2z"/>
<path d="M4245 9220 c-24 -27 -32 -86 -41 -305 -18 -465 76 -778 305 -1019 36
-38 131 -120 211 -184 80 -63 169 -138 198 -166 110 -105 190 -246 252 -441
49 -156 57 -169 107 -173 73 -5 79 43 27 209 -31 99 -118 287 -164 354 -47 68
-151 176 -244 253 -280 230 -373 330 -446 477 -86 175 -116 374 -105 695 4
118 7 231 6 250 0 61 -67 93 -106 50z"/>
<path d="M13615 9211 c-199 -33 -346 -135 -386 -271 -11 -37 -22 -49 -83 -88
-113 -71 -214 -182 -269 -293 -99 -201 -110 -378 -37 -568 80 -206 235 -359
442 -437 66 -25 86 -28 203 -28 149 -1 230 17 371 83 248 117 404 293 523 593
44 111 65 220 64 328 -1 184 -56 314 -193 451 -99 99 -189 156 -316 198 -98
33 -231 46 -319 32z m239 -311 c166 -57 283 -193 294 -341 5 -77 -20 -190 -68
-299 -85 -193 -179 -300 -330 -373 -222 -108 -370 -101 -506 25 -54 50 -128
167 -144 228 -39 145 23 332 136 413 250 178 282 210 292 293 5 44 5 44 66 64
74 25 171 21 260 -10z"/>
<path d="M13345 8464 c-77 -83 -52 -297 40 -341 34 -16 36 -16 63 4 37 27 39
56 6 120 l-27 54 17 59 c21 76 20 86 -4 110 -28 28 -66 25 -95 -6z"/>
<path d="M6381 6803 c-54 -19 -124 -87 -140 -134 -9 -29 -23 -40 -79 -68 -177
-87 -300 -247 -367 -476 -21 -72 -27 -111 -27 -195 0 -185 54 -300 212 -454
170 -164 481 -349 695 -411 181 -53 365 -43 497 27 146 78 322 347 378 580 81
336 -17 654 -254 823 -68 48 -483 253 -591 292 -91 33 -257 41 -324 16z m399
-382 c102 -49 219 -104 260 -123 91 -42 153 -102 191 -183 53 -114 57 -283 9
-426 -45 -135 -162 -309 -234 -346 -20 -11 -54 -16 -98 -16 -114 2 -245 49
-425 155 -290 169 -413 304 -413 454 0 130 86 316 167 361 21 12 75 35 120 52
90 35 146 84 158 141 7 31 9 32 43 26 20 -3 120 -46 222 -95z"/>
<path d="M6342 6127 c-75 -79 -68 -257 13 -342 18 -19 42 -35 54 -35 58 0 92
52 66 101 -8 16 -22 43 -31 60 -20 38 -20 98 0 138 21 40 20 57 -4 81 -27 27
-71 26 -98 -3z"/>
<path d="M4760 6373 c-28 -36 -24 -64 30 -190 90 -214 210 -393 359 -536 98
-95 131 -107 171 -67 36 36 26 66 -46 133 -155 144 -294 355 -379 575 -42 108
-92 139 -135 85z"/>
<path d="M11648 6369 c-171 -23 -432 -139 -580 -258 -89 -72 -126 -115 -234
-272 -175 -256 -230 -392 -241 -599 -11 -215 53 -426 184 -609 l18 -24 -95 7
c-52 3 -205 25 -340 47 -219 37 -257 41 -360 36 -185 -9 -276 -41 -545 -197
-164 -96 -256 -136 -387 -171 -110 -30 -347 -33 -483 -6 -215 43 -451 130
-735 272 -97 48 -138 55 -164 29 -23 -23 -20 -67 7 -91 62 -56 343 -187 564
-264 205 -70 305 -90 504 -96 324 -10 464 29 800 228 290 172 388 189 744 130
162 -27 344 -48 568 -66 74 -6 83 -10 160 -62 151 -101 345 -188 492 -219 40
-9 121 -15 190 -15 278 0 510 109 774 366 115 111 133 125 211 158 99 42 199
71 325 94 71 13 163 16 435 18 369 2 425 7 576 59 279 95 576 348 818 698 85
123 110 177 96 212 -9 26 -43 41 -77 34 -10 -1 -45 -44 -78 -94 -141 -214
-362 -457 -516 -566 -82 -59 -199 -122 -275 -148 -142 -50 -162 -52 -574 -60
-368 -8 -402 -10 -505 -33 -60 -14 -129 -32 -152 -40 -23 -8 -44 -13 -46 -10
-3 2 13 43 34 91 68 155 91 251 96 398 5 112 2 143 -16 214 -25 93 -79 214
-140 308 -56 86 -187 220 -275 281 -231 160 -552 250 -778 220z m254 -359
c186 -47 319 -120 429 -238 164 -174 222 -386 160 -572 -37 -108 -118 -260
-188 -354 -108 -145 -301 -282 -449 -321 -174 -45 -385 4 -602 142 -221 140
-333 335 -319 553 9 135 37 203 170 407 132 201 253 300 455 369 117 41 222
45 344 14z"/>
<path d="M11585 5776 c-140 -44 -260 -142 -318 -258 -43 -85 -67 -172 -67
-241 0 -61 35 -103 78 -92 43 10 51 25 62 109 22 177 129 302 308 361 61 19
86 50 76 89 -11 46 -59 57 -139 32z"/>
<path d="M13605 4429 c-175 -98 -338 -174 -510 -238 -123 -45 -163 -65 -174
-83 -20 -35 -8 -73 30 -88 27 -12 40 -10 103 9 171 55 447 183 642 297 88 51
104 67 104 100 0 21 -46 64 -67 64 -10 0 -68 -28 -128 -61z"/>
<path d="M9090 3930 c-25 -25 -26 -72 -1 -94 26 -23 109 -32 431 -46 l255 -11
18 22 c34 43 16 93 -41 108 -39 11 -249 26 -494 36 -139 5 -149 4 -168 -15z"/>
<path d="M6057 14932 c-10 -10 -17 -34 -17 -53 0 -37 -28 -106 -60 -146 -40
-52 -18 -116 40 -116 91 0 191 231 134 311 -19 28 -74 30 -97 4z"/>
<path d="M15961 6934 c-42 -35 -64 -113 -59 -211 3 -64 7 -78 27 -94 30 -25
66 -24 91 1 16 16 20 34 20 88 1 37 8 85 16 107 28 72 28 84 4 111 -30 31 -61
31 -99 -2z"/>
</g>
</svg>
