<?xml version="1.0" standalone="no"?>
<!DOCTYPE svg PUBLIC "-//W3C//DTD SVG 20010904//EN"
 "http://www.w3.org/TR/2001/REC-SVG-20010904/DTD/svg10.dtd">
<svg version="1.0" xmlns="http://www.w3.org/2000/svg"
 width="1024.000000pt" height="1024.000000pt" viewBox="0 0 1024.000000 1024.000000"
 preserveAspectRatio="xMidYMid meet">
<metadata>
Created by potrace 1.16, written by Peter Selinger 2001-2019
</metadata>
<g transform="translate(0.000000,1024.000000) scale(0.100000,-0.100000)"
fill="#000000" stroke="none">
<path d="M5124 6630 c-167 -34 -267 -166 -354 -467 -11 -40 -26 -73 -33 -72
-7 0 -45 38 -86 85 -140 161 -271 232 -404 222 -204 -17 -316 -177 -346 -493
-5 -59 -12 -109 -15 -112 -2 -3 -38 1 -78 8 -119 21 -272 17 -339 -10 -80 -31
-142 -89 -181 -169 -30 -61 -33 -75 -31 -157 0 -62 8 -112 23 -160 31 -100 32
-96 -25 -110 -27 -7 -62 -17 -77 -23 -44 -18 -114 -89 -138 -139 -143 -304
143 -611 760 -817 246 -81 524 -136 842 -167 168 -16 681 -6 838 15 410 57
742 152 1023 292 245 123 406 263 484 421 30 62 36 85 41 162 10 182 -65 316
-233 416 -16 10 -12 18 35 80 77 101 95 145 95 235 0 64 -4 82 -29 127 -44 80
-139 133 -236 133 -45 0 -188 -35 -207 -51 -7 -7 -16 -10 -18 -7 -3 3 2 47 11
99 34 195 -6 327 -120 394 -128 75 -288 43 -466 -96 -173 -133 -182 -140 -196
-128 -8 6 -14 16 -14 21 0 22 -121 262 -156 309 -87 118 -242 185 -370 159z
m184 -108 c95 -46 166 -147 257 -365 61 -145 108 -143 300 13 133 108 225 154
308 154 100 -1 165 -47 192 -138 20 -66 19 -121 -5 -255 -30 -165 -18 -176
136 -121 46 16 105 32 131 36 126 16 223 -62 223 -178 -1 -56 -24 -106 -99
-203 -88 -115 -84 -144 23 -196 161 -79 223 -289 137 -464 -145 -295 -725
-563 -1421 -657 -142 -19 -211 -22 -495 -23 -335 0 -407 5 -665 46 -590 93
-1098 337 -1213 581 -55 117 -42 225 38 303 43 41 76 55 197 80 41 8 46 44 18
145 -50 184 -48 255 10 342 37 55 79 83 155 103 74 19 123 18 255 -4 119 -19
145 -17 165 13 7 11 19 75 25 141 11 122 38 243 66 297 25 48 86 110 129 129
62 29 138 25 215 -11 54 -26 87 -53 190 -160 116 -120 129 -130 162 -130 51 0
70 29 114 169 48 156 97 253 156 312 83 83 182 97 296 41z"/>
<path d="M5303 6443 c-23 -9 -14 -34 27 -80 22 -25 40 -50 40 -55 0 -5 10 -8
23 -6 15 2 23 11 25 30 2 20 -7 37 -41 72 -43 46 -50 49 -74 39z"/>
<path d="M4376 6184 c-26 -26 -24 -30 57 -102 49 -44 61 -51 77 -42 34 18 23
46 -42 104 -35 31 -66 56 -70 56 -4 0 -14 -7 -22 -16z"/>
<path d="M6637 5793 c-17 -16 -5 -61 22 -87 36 -34 61 -29 61 12 0 51 -57 102
-83 75z"/>
<path d="M3633 5623 c-34 -4 -54 -36 -35 -55 5 -5 56 -10 113 -11 98 -2 104
-1 107 19 2 11 -3 26 -11 33 -16 13 -123 22 -174 14z"/>
<path d="M5796 5280 c-87 -34 -164 -132 -181 -231 -7 -39 14 -73 43 -67 17 3
24 15 48 83 36 104 140 171 225 146 52 -16 116 -74 143 -131 18 -39 26 -45 51
-45 25 0 31 4 33 27 5 39 -41 120 -94 167 -78 69 -175 87 -268 51z"/>
<path d="M4221 5195 c-29 -8 -66 -24 -81 -35 -65 -47 -123 -141 -118 -193 2
-26 8 -33 30 -35 24 -3 30 3 53 50 31 65 52 90 96 117 48 30 131 29 183 -2 45
-28 93 -95 102 -143 8 -41 35 -60 64 -44 63 33 -36 218 -143 268 -61 29 -122
34 -186 17z"/>
<path d="M5290 5163 c-8 -3 -36 -21 -61 -39 -106 -77 -163 -80 -273 -13 -105
63 -134 43 -123 -84 20 -232 167 -398 317 -357 62 17 140 97 170 176 51 136
64 270 30 304 -20 20 -33 23 -60 13z m-7 -145 c-51 -276 -192 -358 -308 -180
-23 36 -71 180 -62 188 2 2 26 -6 53 -18 37 -17 68 -23 125 -23 68 0 80 3 125
32 65 41 75 41 67 1z"/>
<path d="M4364 6515 c-12 -29 10 -49 62 -58 90 -16 99 -15 99 13 0 30 -33 48
-105 57 -42 5 -51 3 -56 -12z"/>
<path d="M4684 6426 c-20 -63 -14 -89 18 -84 18 2 27 15 40 57 19 58 13 81
-23 81 -13 0 -23 -15 -35 -54z"/>
<path d="M5840 6442 c-17 -13 -21 -24 -16 -40 8 -25 23 -27 60 -10 27 11 42
40 31 58 -10 16 -51 12 -75 -8z"/>
<path d="M6694 6085 c-10 -26 4 -44 40 -51 46 -8 66 0 66 26 0 35 -94 57 -106
25z"/>
<path d="M3730 5995 c-19 -23 -8 -50 20 -50 16 0 26 6 28 18 4 18 -14 47 -28
47 -4 0 -13 -7 -20 -15z"/>
<path d="M3542 5950 c-36 -15 -26 -54 15 -58 44 -4 75 14 71 41 -3 25 -46 33
-86 17z"/>
<path d="M6992 5528 c-26 -26 -13 -53 48 -97 122 -89 229 -245 265 -386 40
-156 0 -349 -107 -512 -271 -416 -989 -724 -1850 -794 -193 -15 -705 -7 -888
15 -558 67 -999 209 -1325 427 -464 311 -535 736 -179 1081 71 68 106 97 157
127 31 19 38 28 35 50 -7 65 -117 11 -254 -124 -193 -191 -276 -425 -230 -646
106 -497 780 -869 1806 -996 204 -25 800 -25 1009 0 328 39 596 98 860 189
509 175 876 458 1002 773 128 321 35 631 -259 863 -57 45 -71 49 -90 30z"/>
<path d="M6932 5388 c-22 -22 -12 -43 44 -98 93 -91 161 -207 182 -315 7 -36
11 -40 37 -40 29 0 30 1 29 50 -3 102 -77 238 -190 353 -63 63 -80 72 -102 50z"/>
<path d="M3023 5214 c-25 -11 -95 -113 -91 -136 6 -42 37 -34 87 23 59 66 64
75 56 99 -6 19 -26 24 -52 14z"/>
<path d="M2849 4953 c-10 -12 -14 -49 -14 -137 0 -112 2 -126 29 -183 33 -73
47 -87 77 -78 25 8 23 28 -13 120 -19 51 -23 77 -22 170 1 107 -3 124 -32 125
-6 0 -18 -7 -25 -17z"/>
<path d="M7111 4764 c-23 -48 -54 -103 -69 -123 -43 -56 -51 -74 -41 -93 27
-50 93 13 165 156 51 103 54 139 12 144 -24 3 -30 -4 -67 -84z"/>
<path d="M3005 4476 c-29 -21 -12 -54 60 -116 125 -108 308 -212 532 -300 84
-33 108 -34 120 -4 11 29 -10 45 -116 85 -189 71 -363 172 -496 288 -38 33
-73 61 -76 61 -3 0 -14 -6 -24 -14z"/>
<path d="M6828 4396 c-270 -218 -749 -384 -1330 -461 -49 -6 -65 -25 -52 -60
6 -15 16 -17 81 -11 105 10 338 52 478 87 384 97 672 227 893 403 51 41 62 55
60 76 -5 46 -44 36 -130 -34z"/>
<path d="M3842 4038 c-16 -16 -15 -43 1 -56 26 -21 326 -80 537 -106 264 -33
678 -46 870 -27 64 6 65 6 65 36 l0 30 -280 1 c-154 0 -323 4 -375 8 -238 18
-509 57 -688 101 -120 29 -114 29 -130 13z"/>
</g>
</svg>
