<?xml version="1.0" standalone="no"?>
<!DOCTYPE svg PUBLIC "-//W3C//DTD SVG 20010904//EN"
 "http://www.w3.org/TR/2001/REC-SVG-20010904/DTD/svg10.dtd">
<svg version="1.0" xmlns="http://www.w3.org/2000/svg"
 width="1024.000000pt" height="1024.000000pt" viewBox="0 0 1024.000000 1024.000000"
 preserveAspectRatio="xMidYMid meet">
<metadata>
Created by potrace 1.16, written by Peter Selinger 2001-2019
</metadata>
<g transform="translate(0.000000,1024.000000) scale(0.100000,-0.100000)"
fill="#000000" stroke="none">
<path d="M4932 8299 c-57 -11 -172 -72 -211 -113 -35 -36 -53 -89 -40 -123 4
-12 29 -50 54 -85 56 -75 83 -127 120 -228 25 -70 60 -217 67 -285 l3 -30
-185 -7 c-596 -21 -1112 -241 -1520 -648 -456 -456 -712 -1114 -712 -1830 -1
-824 305 -1572 877 -2146 242 -244 450 -400 718 -539 641 -333 1184 -337 1831
-13 785 393 1373 1122 1585 1965 73 291 86 406 86 743 0 233 -4 320 -18 415
-43 284 -116 531 -223 754 -35 74 -63 135 -62 136 2 1 50 6 108 13 199 21 378
101 504 227 83 82 136 168 173 280 23 71 26 96 26 215 0 114 -5 151 -27 235
-33 124 -105 276 -187 397 -68 100 -216 255 -314 329 -158 120 -359 216 -560
266 -103 26 -123 28 -320 28 -187 0 -220 -3 -305 -24 -464 -115 -814 -380
-1100 -831 l-35 -55 -7 167 c-11 290 -52 495 -132 663 -61 129 -86 146 -194
124z m1979 -245 c468 -81 907 -477 994 -900 64 -312 -68 -550 -360 -650 -68
-23 -101 -28 -220 -32 l-140 -4 -76 98 c-105 136 -186 222 -309 328 -313 269
-693 440 -1112 502 -65 10 -123 21 -129 25 -24 14 177 236 309 343 178 143
412 251 634 291 103 19 296 18 409 -1z m-1981 -929 c0 -149 -34 -463 -65 -603
l-5 -22 -38 24 c-53 33 -266 140 -330 165 -87 35 -143 26 -170 -26 -33 -60 -3
-112 85 -149 138 -58 332 -162 476 -256 171 -112 199 -124 255 -109 42 12 62
31 207 201 93 108 221 225 352 319 50 36 96 76 102 89 30 63 -12 142 -74 142
-55 0 -225 -121 -376 -268 l-130 -125 7 134 c6 122 11 143 46 239 22 58 66
161 99 229 l59 124 81 -7 c201 -17 438 -73 624 -149 468 -190 867 -584 1070
-1057 138 -320 202 -617 212 -980 17 -642 -182 -1264 -571 -1785 -125 -168
-392 -432 -566 -562 -339 -252 -680 -410 -1010 -469 -115 -20 -333 -23 -445
-5 -440 69 -898 315 -1266 681 -360 358 -585 727 -734 1205 -226 727 -141
1539 223 2144 145 243 377 488 602 638 354 236 723 348 1153 352 l127 1 0
-115z"/>
<path d="M3725 6542 c-28 -9 -72 -30 -99 -46 -64 -37 -188 -156 -241 -231
-214 -301 -251 -715 -64 -715 50 0 97 27 138 78 16 21 97 174 180 342 83 168
171 342 196 388 50 93 55 129 23 166 -30 34 -72 40 -133 18z"/>
</g>
</svg>
