<?xml version="1.0" standalone="no"?>
<!DOCTYPE svg PUBLIC "-//W3C//DTD SVG 20010904//EN"
 "http://www.w3.org/TR/2001/REC-SVG-20010904/DTD/svg10.dtd">
<svg version="1.0" xmlns="http://www.w3.org/2000/svg"
 width="1024.000000pt" height="1024.000000pt" viewBox="0 0 1024.000000 1024.000000"
 preserveAspectRatio="xMidYMid meet">
<metadata>
Created by potrace 1.16, written by Peter Selinger 2001-2019
</metadata>
<g transform="translate(0.000000,1024.000000) scale(0.100000,-0.100000)"
fill="#000000" stroke="none">
<path d="M5105 7170 c-324 -49 -588 -160 -758 -319 l-47 -44 -158 -2 c-140 -1
-167 -4 -247 -29 -212 -65 -393 -201 -464 -349 -31 -65 -35 -69 -104 -103 -40
-20 -115 -64 -167 -97 -531 -341 -1025 -855 -1253 -1304 -85 -168 -102 -228
-102 -358 0 -99 3 -115 27 -165 24 -49 26 -60 17 -99 -46 -203 -71 -476 -58
-621 17 -194 70 -290 198 -355 113 -57 419 -165 621 -219 284 -75 475 -75 581
3 14 10 52 24 85 31 241 50 673 210 1038 385 90 43 105 47 180 49 65 2 97 8
161 34 100 40 218 112 312 191 63 53 78 61 114 61 60 0 389 37 584 66 232 34
507 87 707 135 l167 41 63 -31 c95 -46 170 -58 272 -43 85 12 85 12 203 -24
156 -47 371 -99 524 -125 166 -30 388 -32 474 -6 195 60 332 206 387 412 28
103 34 277 14 400 -44 267 -196 577 -408 830 -132 159 -334 346 -453 422 -32
20 -50 40 -64 75 -62 149 -204 319 -328 391 -93 54 -197 88 -286 94 l-77 6
-36 67 c-165 315 -607 549 -1149 610 -144 16 -433 11 -570 -10z m592 -205
c293 -38 551 -132 736 -267 227 -167 320 -414 334 -884 14 -448 -80 -914 -280
-1389 l-55 -130 -83 -23 c-228 -62 -673 -139 -1051 -182 -208 -23 -227 -24
-232 -7 -7 20 -93 441 -120 582 -14 72 -57 315 -96 540 -39 226 -84 480 -101
565 -68 348 -158 666 -236 829 l-40 83 31 30 c71 67 269 166 416 206 65 19
201 44 295 55 85 11 375 6 482 -8z m-1443 -379 c46 -19 75 -72 130 -236 86
-258 145 -525 256 -1165 80 -465 134 -750 191 -1007 21 -98 39 -180 39 -183 0
-11 -142 -117 -200 -148 -69 -38 -174 -72 -189 -63 -12 8 -49 122 -107 331
-298 1086 -424 1456 -656 1915 -65 129 -118 240 -118 247 0 58 109 183 210
240 126 72 353 107 444 69z m2813 -337 c171 -82 297 -269 355 -529 32 -148 32
-415 -1 -570 -66 -313 -230 -637 -411 -818 -87 -86 -134 -107 -218 -99 -62 5
-132 33 -132 53 0 6 11 36 24 65 121 275 227 656 271 979 22 160 30 507 16
652 -12 123 -34 260 -47 292 -7 18 -4 19 36 12 24 -4 72 -20 107 -37z m-3613
-171 c243 -441 383 -819 616 -1658 56 -201 121 -437 146 -524 25 -87 41 -162
37 -167 -32 -31 -515 -230 -723 -298 -184 -60 -174 -62 -182 34 -26 314 -237
716 -524 1001 -274 270 -543 357 -740 238 -31 -19 -58 -34 -60 -34 -7 0 38
107 73 170 238 436 742 946 1230 1245 48 30 89 54 90 54 1 1 18 -27 37 -61z
m4306 -537 c474 -478 654 -1072 414 -1368 -76 -93 -204 -125 -409 -104 -163
17 -560 103 -583 126 -2 2 23 36 55 77 89 110 106 134 167 242 107 186 193
423 231 633 20 112 29 349 17 431 -5 36 -5 62 0 62 5 0 54 -45 108 -99z
m-5351 -1026 c284 -131 625 -587 713 -955 22 -95 27 -205 9 -238 -28 -53 -123
-77 -238 -61 -240 33 -766 205 -838 274 -46 43 -59 97 -58 250 1 253 63 567
133 678 57 90 155 108 279 52z"/>
<path d="M5575 6695 c-14 -13 -25 -28 -25 -34 0 -5 18 -100 40 -212 25 -128
46 -209 56 -221 37 -40 124 -9 124 45 0 12 -18 112 -39 222 -29 147 -44 203
-57 212 -28 21 -72 16 -99 -12z"/>
<path d="M2762 5394 c-16 -11 -22 -25 -22 -54 0 -38 3 -41 163 -169 155 -125
182 -140 222 -125 23 9 48 62 41 89 -5 20 -108 108 -279 238 -53 40 -89 46
-125 21z"/>
<path d="M7941 4723 c-24 -21 -111 -250 -111 -293 0 -54 79 -81 120 -40 11 11
23 32 26 47 4 15 25 72 46 126 21 54 38 107 38 117 0 24 -46 60 -75 60 -13 0
-32 -8 -44 -17z"/>
<path d="M2328 4053 c-36 -42 -131 -220 -131 -247 0 -40 36 -68 82 -64 35 3
38 7 103 123 37 66 68 128 68 138 0 51 -89 87 -122 50z"/>
<path d="M2538 3878 c-17 -15 -91 -124 -101 -150 -17 -48 43 -109 92 -93 31
10 121 147 121 184 0 55 -70 92 -112 59z"/>
</g>
</svg>
