<?xml version="1.0" standalone="no"?>
<!DOCTYPE svg PUBLIC "-//W3C//DTD SVG 20010904//EN"
 "http://www.w3.org/TR/2001/REC-SVG-20010904/DTD/svg10.dtd">
<svg version="1.0" xmlns="http://www.w3.org/2000/svg"
 width="1024.000000pt" height="1024.000000pt" viewBox="0 0 1024.000000 1024.000000"
 preserveAspectRatio="xMidYMid meet">
<metadata>
Created by potrace 1.16, written by Peter Selinger 2001-2019
</metadata>
<g transform="translate(0.000000,1024.000000) scale(0.100000,-0.100000)"
fill="#000000" stroke="none">
<path d="M5600 6999 c-94 -13 -252 -66 -326 -110 -81 -49 -178 -149 -215 -224
-37 -75 -56 -184 -42 -240 8 -35 5 -48 -19 -100 -15 -33 -32 -61 -36 -63 -4
-1 -48 56 -96 127 -71 105 -94 131 -118 136 -57 13 -104 -48 -76 -100 7 -14
55 -86 106 -162 l93 -138 -66 -13 -65 -13 -40 34 c-78 67 -221 92 -356 63
-290 -63 -504 -305 -561 -633 -9 -54 -22 -105 -29 -113 -26 -33 -117 -227
-144 -309 -54 -167 -65 -240 -64 -441 1 -150 5 -203 22 -280 43 -196 110 -354
217 -515 221 -332 589 -566 1000 -637 156 -27 429 -21 570 11 601 139 1037
580 1152 1166 26 136 24 406 -5 542 -41 188 -113 362 -215 513 -66 97 -226
262 -328 336 -241 177 -549 284 -817 284 -82 0 -83 0 -76 23 6 19 52 117 59
125 1 1 31 -5 66 -14 82 -21 219 -14 306 16 218 75 383 266 459 529 32 112 30
171 -7 188 -35 17 -256 24 -349 12z m230 -137 c0 -19 -40 -124 -72 -189 -68
-139 -231 -266 -377 -293 -68 -13 -131 -13 -131 -1 0 5 28 25 63 44 237 128
237 129 237 181 0 27 -32 56 -63 56 -32 0 -229 -110 -311 -174 l-39 -30 7 44
c17 106 119 231 235 289 112 56 209 79 349 80 56 1 102 -3 102 -7z m-1331
-791 c15 -10 19 -7 -85 -62 -188 -99 -184 -95 -184 -146 0 -34 29 -63 63 -63
10 0 84 36 164 80 80 44 149 78 151 75 3 -3 -8 -33 -24 -66 -59 -125 -214
-236 -389 -279 -87 -21 -256 -41 -267 -31 -11 10 39 140 82 212 90 151 246
261 395 278 39 5 72 9 75 10 3 0 11 -3 19 -8z m851 -110 c185 -43 327 -104
475 -205 281 -191 471 -473 542 -806 25 -119 25 -382 -1 -500 -76 -352 -272
-637 -581 -844 -303 -204 -722 -271 -1098 -175 -156 40 -315 113 -445 207
-565 404 -727 1143 -377 1721 l47 77 126 12 c365 33 621 201 703 462 l17 55
73 12 c114 18 414 9 519 -16z"/>
<path d="M4303 4919 c-53 -10 -80 -23 -121 -63 -44 -41 -62 -77 -62 -124 0
-88 102 -101 130 -17 15 46 54 75 99 75 48 0 78 -22 98 -71 16 -42 38 -59 72
-59 31 0 61 35 61 70 0 119 -140 214 -277 189z"/>
<path d="M5747 4919 c-56 -13 -89 -33 -130 -78 -40 -45 -50 -71 -45 -122 2
-23 11 -38 29 -48 42 -23 75 -8 101 47 17 34 34 52 61 65 36 18 38 18 74 0 26
-13 45 -33 63 -68 20 -40 31 -51 53 -53 47 -6 77 22 77 69 0 51 -18 86 -68
131 -57 51 -143 74 -215 57z"/>
<path d="M4703 4472 c-27 -4 -53 -38 -53 -67 1 -69 115 -206 211 -254 204
-102 457 -41 578 140 62 93 64 157 5 179 -39 15 -73 -4 -95 -56 -30 -67 -81
-118 -150 -149 -53 -23 -71 -27 -138 -23 -112 5 -209 61 -251 145 -38 76 -59
93 -107 85z"/>
</g>
</svg>
