<?xml version="1.0" standalone="no"?>
<!DOCTYPE svg PUBLIC "-//W3C//DTD SVG 20010904//EN"
 "http://www.w3.org/TR/2001/REC-SVG-20010904/DTD/svg10.dtd">
<svg version="1.0" xmlns="http://www.w3.org/2000/svg"
 width="2048.000000pt" height="2048.000000pt" viewBox="0 0 2048.000000 2048.000000"
 preserveAspectRatio="xMidYMid meet">
<metadata>
Created by potrace 1.16, written by Peter Selinger 2001-2019
</metadata>
<g transform="translate(0.000000,2048.000000) scale(0.100000,-0.100000)"
fill="#000000" stroke="none">
<path d="M13680 16829 c-584 -48 -1127 -175 -1670 -392 -581 -231 -1211 -601
-1699 -997 -61 -49 -113 -90 -116 -90 -2 0 -39 25 -82 56 -43 31 -168 116
-278 189 -864 570 -1716 893 -2640 1002 -214 25 -787 25 -1000 0 -624 -74
-1107 -215 -1623 -476 -375 -190 -705 -428 -1026 -741 -848 -826 -1336 -1912
-1462 -3260 -22 -233 -31 -968 -15 -1237 43 -733 108 -1214 247 -1823 114
-500 262 -945 461 -1385 435 -965 992 -1712 1748 -2345 855 -716 1873 -1182
3125 -1429 628 -123 1113 -182 2020 -243 249 -17 1137 -17 1390 0 630 42 1014
89 1480 182 1356 271 2484 784 3372 1532 263 222 629 604 854 893 592 762
1011 1699 1353 3025 141 547 213 960 268 1525 25 264 25 985 0 1250 -44 459
-97 779 -193 1154 -113 449 -258 848 -444 1226 -257 522 -534 912 -916 1286
-305 298 -622 524 -979 699 -448 220 -838 328 -1400 390 -129 14 -639 20 -775
9z m865 -408 c388 -53 722 -147 1040 -294 405 -187 729 -419 1056 -754 326
-335 614 -767 824 -1234 310 -687 486 -1408 545 -2229 14 -186 13 -757 0 -959
-47 -708 -170 -1305 -457 -2216 -338 -1075 -711 -1790 -1287 -2465 -130 -152
-470 -489 -619 -613 -328 -271 -624 -471 -992 -670 -1040 -560 -2232 -867
-3700 -952 -268 -16 -996 -13 -1265 4 -701 45 -1063 86 -1674 187 -1145 190
-2079 554 -2876 1120 -1046 743 -1828 1835 -2263 3159 -198 604 -340 1357
-402 2130 -20 252 -36 726 -30 884 3 69 7 189 10 266 20 540 121 1096 289
1591 298 879 827 1610 1527 2110 415 297 910 515 1444 637 369 85 651 112
1068 104 292 -5 435 -18 682 -62 1081 -191 2143 -756 3094 -1645 614 -573
1073 -1302 1241 -1970 70 -280 94 -474 94 -760 -1 -251 -28 -469 -90 -725 -26
-106 -107 -355 -116 -355 -13 0 -219 132 -344 222 -227 161 -434 337 -603 514
-193 201 -307 353 -536 720 -392 627 -1179 1306 -1983 1708 -627 314 -1203
428 -1721 340 -150 -25 -314 -79 -460 -150 -235 -114 -402 -236 -586 -426
-428 -442 -670 -1024 -739 -1778 -14 -153 -15 -766 -1 -885 3 -27 13 -115 21
-193 75 -716 292 -1474 591 -2065 l75 -149 -23 -16 c-13 -9 -80 -59 -149 -111
-395 -299 -693 -633 -864 -970 -121 -239 -173 -456 -163 -681 10 -195 48 -328
134 -463 225 -352 661 -485 1188 -360 282 66 543 183 925 413 297 179 494 285
515 276 7 -2 52 -34 101 -69 201 -147 558 -342 869 -475 830 -355 1898 -531
2855 -472 1100 69 2131 426 2976 1031 l81 58 114 -65 c564 -321 1009 -457
1439 -441 164 6 258 23 410 73 124 41 208 85 308 161 208 158 345 386 397 657
21 106 20 332 0 451 -34 197 -147 470 -271 656 -105 157 -280 354 -449 505
-81 72 -295 239 -318 247 -8 3 -4 19 16 53 65 113 211 422 280 594 169 421
276 821 341 1280 38 267 49 430 49 725 1 812 -184 1538 -525 2061 -353 541
-874 870 -1504 948 -399 50 -765 4 -1189 -149 -392 -142 -810 -387 -1211 -710
l-31 -25 -76 112 c-101 152 -259 359 -392 515 -176 206 -559 583 -704 693
l-33 25 104 80 c237 185 421 313 648 450 741 449 1551 728 2355 810 209 21
740 13 940 -14z m-330 -2194 c353 -80 599 -212 841 -452 140 -138 209 -226
308 -389 209 -344 362 -876 405 -1406 12 -143 6 -650 -9 -785 -77 -699 -278
-1369 -567 -1890 -31 -55 -58 -102 -60 -105 -3 -3 -23 6 -46 19 -85 47 -415
210 -517 254 -156 67 -376 154 -640 252 -907 336 -1034 386 -1370 535 -212 94
-520 248 -520 260 0 5 13 43 30 86 59 154 123 384 154 554 44 246 51 328 50
655 0 352 -11 459 -75 745 -50 222 -173 573 -274 783 -30 61 -38 50 130 186
472 382 979 626 1465 705 146 24 151 24 375 21 179 -3 226 -7 320 -28z m-7194
-377 c450 -46 989 -263 1534 -618 153 -99 142 -90 130 -106 -47 -64 -100 -154
-166 -281 -330 -638 -428 -1353 -274 -2011 42 -179 124 -414 192 -547 30 -60
37 -49 -137 -194 -205 -172 -466 -336 -737 -464 -129 -61 -485 -213 -644 -275
-315 -122 -819 -357 -1058 -494 -69 -38 -128 -67 -132 -63 -4 5 -43 80 -87
168 -326 656 -530 1541 -549 2385 -16 726 119 1285 420 1740 174 264 415 479
682 611 268 131 531 178 826 149z m2114 -1062 c169 -144 261 -234 388 -378
149 -170 250 -305 415 -561 219 -341 308 -455 526 -677 407 -416 880 -748
1509 -1064 457 -228 790 -366 1602 -664 949 -348 1361 -548 1788 -868 313
-235 524 -473 656 -742 89 -180 125 -327 124 -504 -2 -297 -132 -510 -391
-639 -92 -46 -207 -71 -358 -78 -156 -7 -280 7 -448 49 -288 72 -544 192
-1072 503 -457 270 -787 430 -1408 686 -434 180 -600 249 -811 342 -1011 445
-1716 887 -2226 1396 -563 563 -843 1143 -866 1791 -12 337 38 641 159 965 64
174 259 545 285 545 5 0 62 -46 128 -102z m-342 -3069 c110 -148 233 -285 419
-465 206 -199 419 -370 698 -559 63 -43 119 -81 123 -85 10 -9 -150 -135 -323
-256 -292 -204 -645 -406 -975 -557 -321 -148 -426 -189 -1180 -467 -449 -165
-852 -348 -1160 -527 -352 -204 -420 -241 -550 -305 -260 -125 -470 -181 -680
-182 -184 -1 -286 28 -393 113 -249 198 -238 616 26 1017 271 412 761 813
1412 1158 279 148 506 250 917 415 684 273 1074 488 1443 794 l95 79 20 -28
c11 -15 59 -81 108 -145z m1720 -1401 c370 -204 958 -478 1567 -728 465 -191
470 -193 665 -280 224 -100 725 -356 724 -370 0 -3 -53 -40 -117 -82 -605
-399 -1317 -662 -2097 -777 -375 -55 -821 -74 -1186 -52 -845 52 -1596 239
-2227 555 -244 122 -460 252 -445 267 12 12 203 85 528 202 769 278 1211 484
1760 820 223 136 566 378 670 470 22 20 41 36 43 37 2 0 54 -28 115 -62z"/>
<path d="M13732 16080 c-68 -46 -92 -77 -99 -129 -5 -46 24 -95 72 -118 51
-24 100 -6 175 65 53 51 60 62 60 95 0 52 -23 91 -64 111 -51 24 -78 20 -144
-24z"/>
<path d="M12470 15763 c-26 -10 -81 -66 -111 -112 -42 -65 -40 -122 5 -167 37
-37 82 -45 130 -23 30 14 113 116 127 158 13 38 -2 89 -35 120 -24 23 -87 36
-116 24z"/>
<path d="M7665 15655 c-125 -35 -147 -50 -169 -119 -10 -31 13 -94 42 -114 46
-32 71 -33 187 -2 144 39 173 67 165 160 -3 37 -17 59 -53 80 -40 25 -70 24
-172 -5z"/>
<path d="M5582 15557 c-26 -15 -113 -131 -148 -199 -30 -59 -32 -125 -4 -160
41 -53 126 -61 167 -15 11 12 33 45 48 72 16 28 49 77 73 110 40 55 44 64 39
105 -7 61 -50 100 -110 100 -23 -1 -52 -6 -65 -13z"/>
<path d="M14875 15504 c-49 -25 -102 -59 -117 -75 -57 -60 -24 -165 58 -188
41 -11 62 -6 177 49 64 30 94 50 108 73 50 83 -8 187 -103 187 -19 0 -70 -19
-123 -46z"/>
<path d="M11943 15246 c-72 -60 -107 -183 -69 -241 46 -70 143 -66 197 8 78
106 86 171 29 229 -39 38 -114 40 -157 4z"/>
<path d="M13068 15249 c-62 -23 -92 -146 -48 -201 47 -60 128 -61 179 -2 26
29 31 43 31 87 0 59 -16 89 -60 112 -33 17 -63 18 -102 4z"/>
<path d="M6554 15086 c-48 -21 -74 -62 -74 -114 0 -39 5 -50 38 -81 21 -20 72
-53 114 -75 74 -38 77 -38 119 -25 54 18 82 55 83 111 1 60 -26 94 -117 146
-87 49 -121 57 -163 38z"/>
<path d="M16544 14706 c-29 -29 -34 -41 -34 -79 0 -42 5 -52 62 -116 76 -86
115 -108 168 -92 49 14 80 50 87 98 7 53 -11 84 -90 161 -61 58 -68 62 -112
62 -40 0 -52 -5 -81 -34z"/>
<path d="M8392 14703 c-18 -9 -40 -29 -48 -44 -20 -39 -18 -101 5 -130 10 -13
33 -50 51 -82 42 -75 71 -97 127 -97 38 0 50 5 79 34 29 29 34 41 34 81 0 41
-8 61 -55 135 -73 115 -119 140 -193 103z"/>
<path d="M9179 14605 c-28 -15 -59 -70 -59 -105 0 -42 31 -81 102 -126 102
-65 159 -71 210 -19 46 46 45 117 -2 163 -15 15 -56 44 -91 65 -69 40 -115 47
-160 22z"/>
<path d="M11693 14586 c-101 -85 -37 -260 90 -243 103 14 142 146 68 229 -22
24 -37 32 -77 35 -43 5 -54 2 -81 -21z"/>
<path d="M4644 14319 c-17 -5 -38 -17 -47 -26 -25 -28 -107 -217 -107 -247 0
-64 50 -116 113 -116 69 0 90 19 146 135 74 154 68 212 -25 251 -37 16 -37 16
-80 3z"/>
<path d="M16154 14246 c-29 -29 -34 -41 -34 -80 0 -42 5 -52 53 -104 28 -31
64 -71 78 -88 33 -40 59 -54 101 -54 73 0 127 64 114 135 -7 36 -92 145 -156
198 -48 41 -111 38 -156 -7z"/>
<path d="M3583 13851 c-67 -42 -70 -100 -14 -237 45 -109 60 -129 107 -144 66
-22 136 22 149 94 9 44 -70 252 -106 278 -39 29 -98 33 -136 9z"/>
<path d="M10498 13704 c-51 -27 -74 -110 -45 -160 20 -35 104 -102 137 -109
74 -16 140 37 140 112 0 38 -6 50 -46 93 -71 76 -129 96 -186 64z"/>
<path d="M9973 13368 c-43 -11 -83 -61 -83 -104 0 -39 80 -196 119 -231 18
-17 36 -23 71 -23 59 0 95 26 111 80 11 36 9 44 -31 129 -61 129 -112 169
-187 149z"/>
<path d="M17010 13007 c-63 -22 -99 -108 -67 -163 23 -40 102 -125 129 -140
60 -31 134 -9 162 50 20 41 20 57 3 99 -18 42 -112 144 -140 152 -45 13 -53
13 -87 2z"/>
<path d="M4060 12693 c-29 -11 -53 -39 -112 -127 -50 -76 -58 -95 -58 -136 0
-58 26 -95 79 -111 73 -22 104 4 233 200 61 91 -38 212 -142 174z"/>
<path d="M10983 12396 c-43 -19 -66 -59 -66 -111 0 -36 7 -53 44 -101 70 -91
145 -107 209 -43 25 26 30 38 30 79 0 40 -6 56 -39 100 -21 28 -47 58 -58 65
-31 21 -85 26 -120 11z"/>
<path d="M11345 11871 c-43 -18 -85 -93 -85 -151 0 -38 23 -84 52 -104 29 -21
107 -20 137 0 30 21 61 89 61 134 0 88 -88 152 -165 121z"/>
<path d="M16813 11366 c-56 -25 -89 -107 -63 -157 20 -38 129 -168 150 -179
38 -20 98 -12 132 19 30 26 33 35 33 84 0 51 -4 59 -59 131 -33 43 -69 84 -81
92 -33 21 -77 25 -112 10z"/>
<path d="M3003 11035 c-53 -23 -80 -104 -52 -158 27 -50 111 -145 139 -157 76
-32 160 22 160 103 -1 47 -6 59 -69 141 -64 84 -109 101 -178 71z"/>
<path d="M3944 10771 c-29 -13 -61 -56 -69 -92 -10 -43 49 -236 83 -271 33
-35 78 -44 125 -24 38 15 77 66 77 100 0 17 -41 161 -62 218 -22 58 -98 93
-154 69z"/>
<path d="M16735 10077 c-51 -51 -68 -132 -40 -187 47 -92 170 -78 219 24 27
57 30 90 11 130 -21 44 -59 66 -116 66 -33 0 -47 -6 -74 -33z"/>
<path d="M3015 9490 c-43 -17 -70 -59 -70 -108 1 -61 75 -236 116 -274 59 -56
168 -27 189 50 5 22 7 48 4 58 -8 24 -82 202 -96 231 -20 41 -94 64 -143 43z"/>
<path d="M16828 9124 c-36 -19 -138 -190 -145 -242 -10 -72 40 -132 109 -132
62 0 83 17 152 125 72 111 80 148 50 206 -27 52 -110 74 -166 43z"/>
<path d="M3818 9101 c-30 -27 -33 -34 -32 -88 2 -128 48 -203 124 -203 56 0
99 24 116 67 13 30 13 47 3 112 -10 64 -18 81 -45 109 -28 28 -39 32 -83 32
-42 0 -56 -5 -83 -29z"/>
<path d="M3711 7705 c-39 -33 -56 -85 -42 -125 13 -39 88 -128 123 -146 56
-29 133 -9 156 41 15 33 15 94 -1 121 -25 43 -83 107 -109 120 -42 22 -92 18
-127 -11z"/>
<path d="M13393 5990 c-25 -10 -180 -185 -205 -232 -47 -86 7 -178 104 -178
39 0 47 5 97 58 30 31 80 87 113 125 50 58 58 73 58 108 0 54 -22 93 -64 113
-37 18 -69 19 -103 6z"/>
<path d="M14865 5863 c-56 -14 -115 -95 -115 -157 0 -87 98 -143 178 -102 16
8 41 38 56 66 45 83 26 154 -51 186 -34 15 -36 15 -68 7z"/>
<path d="M7281 5716 c-47 -15 -76 -57 -76 -110 0 -37 7 -51 54 -107 78 -91 89
-99 143 -99 39 0 54 6 80 29 29 26 33 36 33 79 0 45 -5 55 -58 119 -51 63 -72
79 -127 96 -8 2 -31 -1 -49 -7z"/>
<path d="M6248 5634 c-35 -18 -58 -62 -58 -110 0 -33 8 -46 73 -111 68 -68 77
-73 116 -73 81 0 121 40 121 121 0 36 -7 48 -57 101 -85 89 -133 106 -195 72z"/>
<path d="M9265 5461 c-66 -28 -106 -152 -70 -221 40 -78 163 -77 209 0 26 45
32 129 12 168 -27 52 -95 75 -151 53z"/>
<path d="M14044 5415 c-32 -20 -74 -51 -91 -70 -27 -29 -33 -43 -33 -81 0 -39
5 -51 34 -80 28 -28 41 -34 78 -34 37 0 56 8 114 49 91 64 116 112 90 175 -16
40 -67 76 -107 76 -14 0 -52 -16 -85 -35z"/>
<path d="M10886 5215 c-35 -19 -48 -35 -83 -100 -54 -103 -20 -191 78 -202 55
-6 86 16 140 100 58 90 49 166 -25 201 -42 20 -73 20 -110 1z"/>
<path d="M8853 4705 c-35 -35 -36 -37 -31 -103 8 -110 50 -162 132 -162 43 0
90 38 105 83 12 35 1 119 -19 158 -17 31 -71 59 -113 59 -31 0 -46 -7 -74 -35z"/>
<path d="M12079 4686 c-56 -38 -89 -94 -89 -150 0 -41 5 -53 34 -82 36 -36 71
-43 119 -25 38 15 123 103 129 135 21 111 -98 186 -193 122z"/>
<path d="M9091 12054 c-43 -36 -101 -161 -101 -216 1 -66 46 -108 116 -108 49
0 86 26 113 78 10 21 30 59 44 86 31 56 33 73 13 121 -28 66 -128 87 -185 39z"/>
<path d="M9274 11342 c-58 -37 -91 -150 -60 -210 36 -69 136 -82 187 -24 37
42 63 114 55 155 -14 77 -115 121 -182 79z"/>
<path d="M9685 10991 c-45 -20 -69 -59 -73 -120 -7 -95 38 -151 122 -151 103
0 156 164 79 242 -32 32 -91 45 -128 29z"/>
<path d="M10863 10260 c-45 -27 -60 -81 -45 -162 15 -80 42 -109 109 -115 42
-5 53 -1 81 22 40 34 54 82 42 146 -12 61 -22 82 -56 108 -34 27 -89 27 -131
1z"/>
<path d="M10162 10034 c-47 -24 -66 -65 -59 -131 3 -29 13 -65 23 -81 34 -59
108 -79 164 -45 36 21 50 52 50 111 0 112 -93 189 -178 146z"/>
<path d="M12695 9280 c-52 -21 -85 -89 -85 -174 0 -58 17 -89 60 -111 41 -21
82 -19 121 8 36 24 55 67 66 143 13 96 -76 170 -162 134z"/>
<path d="M11895 8910 c-43 -17 -70 -59 -70 -109 0 -43 5 -53 60 -118 33 -39
72 -78 87 -87 56 -35 134 -10 164 52 25 53 12 93 -57 172 -80 93 -125 115
-184 90z"/>
<path d="M14148 8484 c-34 -18 -58 -62 -58 -105 0 -38 46 -122 90 -164 63 -61
170 -25 186 63 5 27 -1 48 -32 109 -53 106 -113 137 -186 97z"/>
<path d="M14645 8275 c-91 -61 -123 -114 -111 -180 11 -57 85 -105 140 -91 37
9 131 91 146 126 29 71 -20 157 -96 167 -31 4 -47 -1 -79 -22z"/>
<path d="M13678 8125 c-77 -43 -77 -191 0 -241 30 -20 89 -22 121 -5 73 40 81
174 13 235 -28 25 -99 31 -134 11z"/>
<path d="M14883 7376 c-60 -27 -87 -100 -59 -157 10 -19 47 -56 83 -84 58 -44
73 -50 114 -50 114 0 153 135 63 215 -90 79 -146 100 -201 76z"/>
<path d="M8565 9206 c-48 -21 -60 -42 -129 -219 -77 -197 -83 -241 -38 -287
57 -57 151 -45 186 23 44 87 146 355 146 382 0 40 -33 83 -76 101 -40 17 -51
17 -89 0z"/>
<path d="M9134 8714 c-46 -23 -68 -69 -62 -133 11 -117 138 -158 213 -70 19
24 25 42 25 80 0 64 -20 102 -64 123 -42 20 -72 20 -112 0z"/>
<path d="M7151 8707 c-48 -17 -74 -56 -75 -113 -1 -45 1 -49 64 -106 36 -33
75 -64 88 -69 82 -31 162 26 162 116 0 29 -9 45 -46 85 -77 83 -133 107 -193
87z"/>
<path d="M6929 8203 c-40 -34 -82 -125 -82 -180 -1 -91 104 -141 181 -87 36
25 82 126 82 180 0 39 -5 51 -34 80 -45 45 -99 47 -147 7z"/>
<path d="M7840 8214 c-48 -30 -93 -101 -98 -154 -4 -46 -2 -52 31 -85 29 -29
42 -35 79 -35 52 0 76 15 128 82 44 55 51 97 25 148 -28 55 -112 77 -165 44z"/>
<path d="M5876 7558 c-71 -75 -116 -143 -116 -175 0 -70 54 -123 125 -123 51
0 63 9 144 104 56 65 74 95 78 124 10 77 -44 132 -129 132 -39 0 -47 -5 -102
-62z"/>
</g>
</svg>
