<?xml version="1.0" standalone="no"?>
<!DOCTYPE svg PUBLIC "-//W3C//DTD SVG 20010904//EN"
 "http://www.w3.org/TR/2001/REC-SVG-20010904/DTD/svg10.dtd">
<svg version="1.0" xmlns="http://www.w3.org/2000/svg"
 width="1024.000000pt" height="1024.000000pt" viewBox="0 0 1024.000000 1024.000000"
 preserveAspectRatio="xMidYMid meet">
<metadata>
Created by potrace 1.16, written by Peter Selinger 2001-2019
</metadata>
<g transform="translate(0.000000,1024.000000) scale(0.100000,-0.100000)"
fill="#000000" stroke="none">
<path d="M5570 7331 c-287 -94 -451 -229 -525 -433 l-21 -59 -38 76 c-73 147
-212 255 -400 309 -120 35 -377 66 -472 57 -20 -2 -47 -177 -47 -301 0 -203
54 -343 183 -473 128 -128 284 -188 491 -190 l106 0 26 -106 c15 -58 25 -106
23 -108 -1 -2 -27 5 -57 16 -92 31 -229 60 -347 71 -345 34 -727 -89 -984
-317 -428 -380 -592 -976 -437 -1588 117 -460 419 -874 805 -1101 348 -204
709 -245 1114 -124 l68 20 107 -30 c423 -118 803 -56 1169 193 117 79 330 292
419 417 146 208 270 501 319 756 30 158 33 479 5 619 -104 526 -428 921 -890
1084 -271 95 -563 101 -852 15 -49 -14 -99 -29 -109 -32 -17 -5 -18 -1 -13 34
4 21 12 96 19 165 l11 126 50 12 c132 30 282 114 358 199 104 117 155 299 131
466 -17 117 -68 267 -91 265 -3 0 -58 -17 -121 -38z m120 -133 c88 -321 -38
-563 -349 -669 -91 -32 -95 -30 -108 52 -13 82 -46 132 -109 164 -21 11 -41
21 -42 22 -8 4 32 121 59 174 29 58 103 142 169 191 72 54 281 145 336 147 19
1 25 -10 44 -81z m-1233 -13 c229 -44 391 -150 467 -309 52 -108 52 -108 4
-131 -62 -30 -98 -93 -107 -187 l-6 -73 -71 95 c-39 52 -99 137 -134 188 -66
96 -89 110 -114 70 -8 -14 4 -38 66 -130 43 -62 113 -159 157 -215 l80 -103
-82 0 c-164 1 -307 59 -419 171 -130 131 -185 312 -158 524 17 140 4 129 134
120 61 -3 143 -13 183 -20z m633 -504 c65 -34 75 -66 74 -236 -1 -129 -14
-288 -29 -361 -3 -14 -18 -25 -46 -34 -35 -12 -45 -12 -68 1 -33 19 -44 41
-75 164 -59 227 -70 357 -36 413 41 67 114 89 180 53z m759 -561 c292 -26 545
-139 748 -333 236 -226 375 -504 424 -846 18 -131 6 -408 -25 -548 -147 -669
-617 -1183 -1198 -1310 -61 -13 -124 -17 -238 -17 -167 0 -283 19 -429 69
l-74 25 -69 -25 c-136 -49 -259 -69 -433 -69 -184 0 -277 18 -450 85 -412 160
-771 559 -929 1033 -274 822 88 1651 824 1884 139 44 239 55 430 50 142 -5
181 -10 282 -36 65 -17 170 -52 233 -77 l115 -47 83 36 c160 68 315 109 472
125 114 12 109 12 234 1z"/>
<path d="M4418 5196 c-124 -44 -231 -159 -207 -222 4 -12 18 -24 30 -27 18 -5
29 2 53 30 86 102 129 125 236 131 41 2 81 9 88 14 17 14 15 53 -4 72 -19 20
-142 21 -196 2z"/>
<path d="M5563 5195 c-25 -18 -30 -54 -11 -73 7 -7 41 -12 83 -12 89 0 160
-32 206 -93 62 -81 94 -92 118 -40 23 50 -52 144 -161 199 -68 35 -199 46
-235 19z"/>
<path d="M4921 4982 c-19 -15 -21 -23 -15 -61 10 -61 60 -130 114 -158 97 -49
200 -18 258 77 45 75 43 160 -4 160 -23 0 -44 -31 -44 -67 0 -49 -63 -113
-111 -113 -65 0 -129 61 -129 124 0 24 -23 56 -40 56 -4 0 -18 -8 -29 -18z"/>
</g>
</svg>
