<?xml version="1.0" standalone="no"?>
<!DOCTYPE svg PUBLIC "-//W3C//DTD SVG 20010904//EN"
 "http://www.w3.org/TR/2001/REC-SVG-20010904/DTD/svg10.dtd">
<svg version="1.0" xmlns="http://www.w3.org/2000/svg"
 width="1024.000000pt" height="1024.000000pt" viewBox="0 0 1024.000000 1024.000000"
 preserveAspectRatio="xMidYMid meet">
<metadata>
Created by potrace 1.16, written by Peter Selinger 2001-2019
</metadata>
<g transform="translate(0.000000,1024.000000) scale(0.100000,-0.100000)"
fill="#000000" stroke="none">
<path d="M4995 7983 c-166 -5 -466 -24 -615 -39 -368 -35 -587 -79 -710 -141
-63 -32 -78 -45 -97 -83 -28 -56 -42 -158 -43 -315 0 -254 48 -371 168 -409
12 -4 22 -12 22 -18 0 -5 -57 -69 -127 -142 -78 -80 -143 -156 -166 -196 -65
-113 -109 -277 -138 -515 -21 -183 -21 -1063 0 -2095 12 -547 21 -1110 21
-1250 0 -140 5 -284 11 -320 42 -262 200 -464 456 -585 430 -205 1383 -288
2208 -194 754 86 1107 269 1245 648 38 105 50 206 50 436 0 194 5 363 40 1375
46 1347 47 1760 5 2081 -39 297 -122 476 -285 619 -56 48 -120 123 -120 139 0
4 16 13 36 20 77 28 131 98 152 197 33 155 22 438 -21 524 -19 40 -32 50 -107
87 -99 49 -198 74 -433 107 -422 60 -1020 87 -1552 69z m1120 -197 c341 -30
665 -76 665 -96 0 -18 -408 -69 -740 -92 -248 -17 -1164 -17 -1405 0 -376 27
-765 76 -747 94 25 25 468 80 827 103 293 19 1141 13 1400 -9z m-2345 -247
c30 -11 131 -33 225 -49 611 -103 1680 -118 2430 -34 195 21 415 60 478 84 28
11 54 20 56 20 9 0 -11 -325 -22 -359 -11 -33 -18 -38 -79 -58 -123 -42 -434
-87 -808 -119 -252 -21 -960 -30 -1227 -15 -404 23 -716 59 -930 107 -128 28
-167 44 -178 71 -11 26 -19 373 -9 373 5 0 34 -9 64 -21z m269 -629 c701 -119
1899 -116 2596 6 112 19 112 19 126 -23 8 -26 50 -77 129 -158 64 -66 130
-145 147 -175 137 -240 158 -670 103 -2155 -28 -762 -50 -1528 -50 -1715 0
-226 -35 -346 -140 -478 -165 -206 -581 -327 -1290 -373 -218 -14 -736 -6
-950 16 -688 69 -1019 201 -1144 457 -59 120 -66 165 -66 413 0 121 -7 526
-15 900 -38 1804 -39 1882 -26 2171 25 599 72 748 301 954 55 49 87 88 106
126 15 30 33 54 42 54 8 0 67 -9 131 -20z"/>
<path d="M3987 6509 c-122 -81 -217 -300 -262 -604 -20 -136 -32 -409 -25
-578 6 -141 20 -174 77 -190 38 -11 99 15 109 46 4 12 8 141 9 287 3 339 30
540 97 714 27 70 41 90 105 153 67 66 73 75 73 113 0 90 -91 120 -183 59z"/>
<path d="M5884 5781 c-210 -54 -312 -291 -207 -483 33 -61 80 -103 153 -137
45 -21 69 -26 135 -25 69 0 88 4 141 32 67 34 121 90 156 161 19 37 23 63 23
131 0 76 -4 93 -33 152 -36 73 -80 115 -157 149 -50 22 -162 33 -211 20z m164
-150 c65 -33 102 -95 102 -171 0 -146 -171 -238 -292 -156 -121 81 -110 257
21 326 47 25 121 25 169 1z"/>
<path d="M3896 4884 c-94 -30 -176 -143 -176 -244 0 -94 65 -193 152 -230 221
-96 437 136 328 350 -56 110 -185 162 -304 124z m111 -135 c94 -35 110 -151
29 -200 -60 -37 -131 -16 -161 46 -27 58 -1 125 58 150 39 17 39 17 74 4z"/>
<path d="M6308 4486 c-127 -52 -205 -161 -229 -317 l-11 -76 -78 5 c-61 3 -94
0 -148 -17 -355 -108 -440 -568 -162 -884 58 -66 178 -143 262 -168 88 -27
147 -21 226 21 50 26 63 29 86 20 15 -5 56 -10 90 -10 130 0 267 110 359 288
159 306 96 626 -146 747 -28 14 -60 25 -71 25 -45 0 -46 14 -6 73 80 119 74
259 -14 301 -47 22 -90 20 -158 -8z m84 -173 c-6 -21 -25 -55 -42 -76 -29 -34
-110 -97 -126 -97 -12 0 6 80 27 121 24 47 59 80 102 95 43 15 53 4 39 -43z
m109 -346 c85 -49 132 -120 147 -222 25 -161 -58 -383 -185 -495 -65 -57 -108
-68 -183 -47 -81 23 -88 22 -150 -18 -71 -45 -114 -46 -201 -3 -220 109 -338
391 -246 591 74 162 236 230 410 173 l57 -19 68 31 c37 16 74 33 82 36 8 3 47
4 86 2 55 -2 82 -9 115 -29z"/>
<path d="M4553 3572 c-95 -34 -166 -107 -198 -203 -24 -71 -17 -188 13 -251
94 -192 354 -243 512 -101 28 25 63 69 78 97 24 46 27 62 27 151 0 89 -3 106
-27 151 -32 61 -94 119 -157 147 -65 29 -180 33 -248 9z m184 -133 c101 -38
148 -170 94 -265 -28 -49 -89 -91 -146 -100 -73 -10 -170 46 -197 116 -14 36
-11 125 6 157 43 83 155 126 243 92z"/>
<path d="M6685 2761 c-42 -18 -55 -44 -58 -122 -4 -80 -18 -117 -69 -175 -41
-46 -87 -75 -166 -104 -46 -17 -67 -30 -78 -51 -22 -44 -17 -77 17 -111 28
-29 34 -30 83 -25 99 10 257 106 316 192 65 95 84 151 85 252 0 86 -2 94 -25
117 -28 27 -75 39 -105 27z"/>
</g>
</svg>
