<?xml version="1.0" standalone="no"?>
<!DOCTYPE svg PUBLIC "-//W3C//DTD SVG 20010904//EN"
 "http://www.w3.org/TR/2001/REC-SVG-20010904/DTD/svg10.dtd">
<svg version="1.0" xmlns="http://www.w3.org/2000/svg"
 width="1024.000000pt" height="1024.000000pt" viewBox="0 0 1024.000000 1024.000000"
 preserveAspectRatio="xMidYMid meet">
<metadata>
Created by potrace 1.16, written by Peter Selinger 2001-2019
</metadata>
<g transform="translate(0.000000,1024.000000) scale(0.100000,-0.100000)"
fill="#000000" stroke="none">
<path d="M4102 6219 c-84 -16 -136 -62 -152 -134 -5 -24 -3 -91 7 -185 18
-181 14 -199 -72 -315 -51 -68 -71 -105 -91 -171 -24 -76 -26 -96 -22 -202 8
-217 87 -381 273 -567 237 -238 547 -386 970 -461 141 -26 483 -26 609 -1 455
91 775 355 843 696 17 90 11 205 -14 258 -15 33 -18 35 -54 29 -33 -5 -41 -3
-55 19 -9 13 -41 37 -71 51 -72 36 -126 34 -318 -6 -129 -27 -178 -32 -345
-37 -148 -4 -219 -1 -295 11 -252 38 -509 148 -721 308 -98 73 -254 210 -255
222 -2 23 1 78 12 238 10 129 10 173 1 193 -25 54 -132 77 -250 54z m132 -201
c-5 -51 -9 -165 -8 -253 0 -143 3 -168 25 -235 115 -345 535 -653 1004 -736
134 -23 375 -24 510 0 182 32 363 103 517 201 36 24 69 41 72 38 22 -22 -13
-186 -59 -280 -64 -130 -231 -282 -388 -353 -209 -94 -474 -135 -727 -111
-644 61 -1141 374 -1270 799 -18 60 -22 90 -18 170 5 113 24 165 94 254 96
122 114 204 90 400 -20 154 -15 173 46 186 24 6 60 10 82 11 l38 1 -8 -92z
m212 -549 c169 -146 461 -296 692 -355 271 -70 515 -71 843 -4 161 33 216 37
244 16 18 -13 16 -15 -21 -38 -120 -76 -306 -146 -458 -173 -115 -20 -346 -20
-462 0 -261 45 -477 146 -670 313 -74 64 -165 169 -202 235 -35 61 -30 62 34
6z"/>
</g>
</svg>
