<?xml version="1.0" standalone="no"?>
<!DOCTYPE svg PUBLIC "-//W3C//DTD SVG 20010904//EN"
 "http://www.w3.org/TR/2001/REC-SVG-20010904/DTD/svg10.dtd">
<svg version="1.0" xmlns="http://www.w3.org/2000/svg"
 width="2048.000000pt" height="2048.000000pt" viewBox="0 0 2048.000000 2048.000000"
 preserveAspectRatio="xMidYMid meet">
<metadata>
Created by potrace 1.16, written by Peter Selinger 2001-2019
</metadata>
<g transform="translate(0.000000,2048.000000) scale(0.100000,-0.100000)"
fill="#000000" stroke="none">
<path d="M10075 16749 c-433 -15 -781 -42 -1169 -90 -1848 -228 -3072 -574
-4201 -1186 -709 -385 -1372 -925 -1774 -1447 -243 -315 -383 -552 -517 -873
-102 -246 -171 -487 -221 -768 -26 -148 -26 -702 0 -860 20 -119 83 -391 115
-492 l20 -62 -73 -46 c-180 -112 -313 -306 -362 -529 -24 -106 -21 -300 5
-399 57 -210 183 -353 366 -414 44 -14 80 -34 95 -50 22 -26 23 -31 15 -108
-5 -44 -9 -145 -8 -225 1 -135 3 -152 32 -240 17 -52 51 -128 75 -169 l44 -74
-97 -96 c-112 -111 -165 -193 -209 -326 -36 -111 -51 -212 -51 -358 0 -317 88
-501 284 -597 l63 -31 11 -127 c95 -1051 556 -1818 1414 -2356 562 -351 1370
-632 2273 -790 347 -61 477 -80 750 -110 918 -101 2056 -171 3194 -196 405 -9
1295 -1 1531 15 41 3 183 10 315 15 454 20 1069 69 1570 125 1058 120 2010
334 2670 602 971 393 1656 1052 1932 1857 141 414 186 810 152 1337 -11 152
-10 180 3 205 180 352 209 433 216 607 3 71 0 142 -8 180 -15 80 -61 195 -101
255 -48 71 -147 169 -211 208 l-57 35 23 62 c28 75 53 182 60 259 7 70 -9 230
-28 286 l-15 41 64 51 c139 111 233 240 286 393 114 332 13 633 -285 847 -25
18 -46 37 -46 42 0 5 11 53 24 106 140 560 124 1173 -44 1733 -194 645 -545
1217 -1051 1715 -557 546 -1195 918 -2169 1266 -890 318 -1868 560 -2760 682
-671 93 -1346 123 -2145 95z m1035 -569 c808 -44 1518 -145 2250 -320 759
-182 1614 -466 2150 -715 482 -223 954 -554 1292 -903 483 -500 801 -1093 912
-1702 92 -504 40 -1106 -127 -1450 -81 -166 -277 -332 -617 -522 -590 -329
-1646 -667 -2770 -887 -916 -179 -1675 -271 -2636 -318 -431 -22 -1762 -24
-2194 -5 -1481 67 -2575 199 -3715 448 -845 185 -1741 458 -2190 668 -195 91
-379 238 -450 359 -71 121 -189 450 -224 624 -159 779 51 1533 626 2253 132
165 434 471 603 611 369 304 719 529 1205 774 760 383 1513 623 2545 809 808
147 1552 237 2265 275 222 12 863 12 1075 1z m6950 -5368 c62 -31 121 -100
145 -171 31 -91 13 -247 -41 -352 -33 -66 -77 -106 -180 -163 -60 -34 -119
-78 -186 -142 -156 -148 -225 -170 -502 -158 -385 16 -552 -63 -742 -351 -92
-138 -169 -214 -266 -260 -163 -77 -337 -83 -703 -24 -148 23 -301 25 -376 3
-70 -20 -139 -60 -225 -129 -49 -39 -83 -58 -120 -66 -57 -13 -87 -3 -205 66
-135 79 -280 104 -397 70 -75 -23 -167 -97 -230 -185 -75 -106 -111 -124 -260
-129 -142 -4 -236 13 -472 86 -273 84 -404 99 -581 68 -130 -22 -245 -66 -466
-177 -199 -99 -206 -101 -285 -106 -92 -5 -126 1 -363 68 -245 69 -343 83
-528 77 -182 -6 -233 -18 -472 -112 -368 -145 -547 -193 -752 -202 -202 -9
-303 16 -643 159 -350 148 -448 176 -640 184 -162 8 -240 -5 -666 -105 -525
-123 -694 -150 -880 -138 -228 15 -407 76 -674 230 -222 128 -365 182 -512
194 -98 8 -172 -7 -312 -62 -183 -71 -322 -81 -469 -34 -96 30 -118 46 -251
177 -146 144 -216 184 -354 204 -108 16 -191 2 -337 -57 -137 -55 -178 -62
-242 -41 -62 21 -99 54 -148 136 -155 259 -309 325 -605 261 -190 -41 -302
-23 -357 59 -77 115 -127 152 -265 199 -106 36 -135 51 -175 93 -40 41 -59 87
-73 171 -22 139 24 290 121 392 62 66 133 103 214 111 l60 6 78 -85 c197 -217
428 -369 777 -513 549 -224 1480 -490 2310 -658 427 -87 966 -176 1390 -230
298 -39 708 -86 741 -86 16 0 19 -4 14 -17 -31 -72 -35 -96 -25 -133 15 -57
60 -90 121 -90 96 0 154 92 116 183 -19 44 -31 41 128 27 442 -37 1172 -70
1738 -77 262 -3 477 -7 477 -9 0 -2 -11 -20 -25 -40 -71 -104 34 -226 145
-169 59 31 80 127 39 179 -12 15 -20 28 -18 30 2 2 213 8 469 15 256 7 504 15
553 18 l87 6 0 -28 c0 -18 12 -39 35 -62 34 -34 38 -35 92 -31 48 4 61 10 85
37 16 18 31 45 35 62 3 16 8 29 12 29 3 0 74 7 156 15 83 8 229 21 325 30 355
33 989 118 1377 185 1201 209 2467 588 3178 950 247 126 522 322 725 517 69
66 132 123 140 126 25 10 82 -2 140 -31z m-193 -1323 c-21 -251 -296 -482
-858 -722 -258 -110 -788 -289 -1188 -402 -701 -197 -1547 -373 -2271 -474
-787 -110 -1523 -170 -2455 -202 -313 -11 -1599 -7 -1680 5 -16 3 -115 7 -220
11 -414 13 -782 36 -1615 100 -901 70 -2063 205 -2720 316 -873 147 -1249 247
-1588 424 -269 140 -468 346 -526 544 -15 51 -22 162 -11 173 3 2 40 -2 82
-10 93 -16 214 -12 371 14 142 23 147 20 220 -98 184 -300 501 -387 849 -234
87 39 138 45 181 22 15 -8 70 -58 122 -111 203 -207 396 -288 690 -288 155 0
240 16 414 82 60 23 124 41 146 41 66 0 155 -36 328 -132 355 -196 554 -264
837 -287 253 -20 480 13 1005 144 343 86 417 98 565 92 66 -2 146 -12 179 -21
74 -21 246 -89 402 -159 250 -113 475 -167 699 -167 228 0 447 52 796 189 431
169 498 173 905 62 302 -82 423 -96 572 -65 102 21 207 63 317 128 216 128
283 150 450 150 114 0 127 -2 280 -48 253 -77 279 -84 385 -101 125 -21 364
-16 454 9 142 40 244 110 317 217 22 33 51 67 65 76 25 16 28 15 144 -45 141
-74 205 -92 320 -92 148 0 252 39 394 149 94 73 80 72 374 35 423 -53 651 -30
888 89 146 74 261 186 388 379 60 91 98 127 171 159 40 18 65 19 267 18 249
-1 343 12 475 69 37 17 72 30 77 31 5 1 6 -30 3 -70z m123 -644 c113 -57 171
-155 178 -296 6 -114 -10 -165 -110 -358 -99 -191 -127 -231 -192 -276 -64
-43 -132 -61 -289 -75 -320 -29 -480 -96 -742 -314 -87 -71 -187 -121 -285
-142 -64 -14 -110 -15 -310 -8 -129 5 -305 8 -390 8 -137 -1 -166 -4 -245 -28
-132 -39 -231 -90 -418 -214 -92 -61 -190 -118 -218 -127 -72 -24 -144 -15
-249 30 -150 64 -218 78 -355 73 -128 -6 -154 -13 -370 -104 -132 -56 -191
-55 -348 9 -149 60 -239 75 -349 59 -125 -18 -209 -64 -315 -172 -49 -48 -99
-91 -113 -94 -17 -4 -78 12 -184 49 -265 91 -374 94 -635 16 -217 -66 -237
-65 -436 14 -141 56 -210 69 -333 63 -129 -7 -193 -30 -382 -138 -201 -115
-256 -134 -380 -134 -103 1 -109 3 -367 108 -144 59 -227 79 -333 79 -88 1
-110 -4 -245 -55 -103 -39 -132 -36 -305 32 -210 82 -299 102 -476 107 -239 8
-312 -11 -599 -153 -229 -114 -294 -132 -400 -116 -81 13 -162 43 -335 125
-220 104 -363 147 -487 147 -32 0 -107 -11 -168 -25 -134 -31 -207 -32 -257
-5 -20 10 -78 52 -130 92 -211 165 -373 185 -588 72 l-89 -47 -68 35 c-180 94
-283 97 -556 18 -254 -73 -278 -69 -425 79 -106 105 -175 155 -268 194 -137
58 -287 60 -489 7 -139 -37 -264 -49 -320 -30 -21 7 -92 50 -159 95 -229 156
-305 181 -606 198 -221 13 -241 18 -277 73 -63 97 -55 418 15 549 52 96 164
180 204 152 377 -271 737 -410 1438 -552 795 -162 2104 -326 3380 -425 642
-49 1026 -74 1345 -85 88 -3 183 -8 210 -10 210 -17 910 -27 1480 -21 358 3
668 8 690 10 22 3 108 7 190 10 1058 42 2118 167 3100 366 1506 306 2733 729
3215 1108 36 29 73 52 83 52 10 0 40 -11 67 -25z m-240 -1527 c0 -487 -118
-892 -369 -1264 -195 -291 -459 -542 -786 -746 -682 -428 -1764 -715 -3280
-872 -457 -47 -535 -54 -1055 -85 -852 -52 -2030 -61 -2895 -21 -1699 79
-2599 167 -3405 336 -828 173 -1532 468 -1985 831 -469 376 -765 898 -855
1511 -19 134 -25 222 -15 222 3 0 59 -36 123 -79 282 -192 438 -219 772 -135
230 57 274 45 450 -122 236 -222 419 -254 814 -143 145 41 161 40 254 -14 100
-57 158 -77 232 -77 78 0 143 25 229 89 38 28 77 51 87 51 26 0 66 -27 149
-99 132 -115 306 -181 444 -167 36 4 107 16 156 27 169 39 247 22 574 -123
186 -82 259 -105 383 -119 192 -22 297 5 583 150 99 50 209 99 245 108 84 21
234 21 323 -1 65 -15 270 -90 292 -106 25 -19 172 -61 229 -67 77 -7 138 7
265 60 116 48 155 47 288 -8 328 -136 454 -163 646 -134 112 16 227 56 334
116 256 144 283 156 342 156 44 0 84 -12 183 -52 249 -102 331 -104 642 -19
181 49 229 49 386 -5 160 -55 227 -70 320 -70 96 0 180 21 244 60 22 14 82 65
131 114 50 48 103 91 118 95 29 7 69 -5 222 -65 220 -86 353 -78 625 40 118
50 130 54 205 53 71 0 91 -5 180 -43 140 -59 205 -74 315 -75 163 -1 268 42
501 204 229 160 296 184 509 182 80 -1 154 -3 165 -6 11 -2 90 -7 175 -11 261
-11 449 20 616 102 40 20 142 88 226 151 160 120 233 161 333 186 61 16 244
43 303 45 l32 1 0 -162z"/>
<path d="M16953 12930 c-61 -37 -77 -107 -49 -206 66 -223 62 -494 -10 -742
-81 -280 -304 -581 -591 -800 -489 -372 -1331 -679 -2333 -852 -126 -22 -170
-62 -170 -155 0 -90 54 -145 142 -145 49 0 210 30 458 85 617 137 1110 299
1531 504 566 276 927 600 1139 1026 103 208 149 368 171 601 21 231 -26 564
-92 648 -45 57 -135 74 -196 36z"/>
<path d="M2540 10391 c-53 -52 -52 -110 3 -201 57 -94 125 -122 195 -80 58 36
68 104 26 188 -57 114 -160 157 -224 93z"/>
<path d="M17573 10279 c-100 -50 -135 -144 -75 -209 43 -47 92 -49 172 -8 35
18 73 45 83 59 21 30 25 95 7 128 -27 51 -116 65 -187 30z"/>
<path d="M3004 10050 c-56 -22 -86 -103 -61 -163 36 -86 169 -89 213 -5 50 97
-51 209 -152 168z"/>
<path d="M3892 9752 c-83 -78 -36 -212 74 -212 98 0 151 86 108 176 -33 68
-128 87 -182 36z"/>
<path d="M15613 9573 c-12 -2 -36 -20 -53 -39 -24 -28 -30 -44 -30 -80 0 -39
5 -51 34 -80 33 -33 36 -34 114 -34 93 0 135 21 166 84 16 33 17 43 7 77 -18
58 -57 79 -146 78 -38 -1 -80 -4 -92 -6z"/>
<path d="M5034 9381 c-105 -64 -31 -261 97 -261 66 0 119 70 103 136 -28 119
-119 175 -200 125z"/>
<path d="M13811 9194 c-82 -69 -41 -206 61 -206 84 0 141 69 119 143 -25 83
-118 116 -180 63z"/>
<path d="M6769 9042 c-27 -24 -33 -37 -37 -84 -4 -53 -2 -58 31 -94 31 -35 39
-38 87 -38 48 0 56 3 86 37 29 32 34 44 34 88 0 45 -4 55 -34 85 -30 30 -40
34 -85 34 -42 0 -56 -5 -82 -28z"/>
<path d="M9611 8814 c-60 -50 -59 -143 1 -185 25 -18 49 -24 112 -27 73 -3 85
-1 116 20 49 33 68 90 47 140 -24 58 -66 78 -164 78 -73 0 -85 -3 -112 -26z"/>
<path d="M17744 8526 c-30 -30 -34 -41 -34 -84 0 -59 24 -95 75 -112 76 -25
155 34 155 117 0 38 -5 50 -34 79 -29 29 -41 34 -81 34 -40 0 -52 -5 -81 -34z"/>
<path d="M17154 8249 c-76 -29 -99 -58 -99 -126 0 -49 3 -58 33 -84 41 -37 99
-39 175 -5 67 29 97 66 97 118 0 106 -82 145 -206 97z"/>
<path d="M2944 8061 c-37 -16 -74 -70 -74 -107 0 -41 37 -118 75 -156 73 -73
195 -22 195 80 0 40 -55 146 -86 167 -31 20 -82 28 -110 16z"/>
<path d="M16053 7870 c-37 -22 -60 -82 -49 -126 4 -15 21 -40 38 -56 24 -23
39 -28 78 -28 59 0 97 28 109 80 24 109 -82 188 -176 130z"/>
<path d="M3802 7804 c-41 -21 -62 -60 -62 -117 0 -117 158 -157 220 -55 24 39
25 66 6 113 -26 62 -103 90 -164 59z"/>
<path d="M14235 7546 c-47 -21 -67 -51 -73 -106 -4 -46 -2 -52 31 -85 27 -27
43 -35 71 -35 137 0 175 174 50 226 -40 17 -41 17 -79 0z"/>
<path d="M4955 7541 c-56 -24 -82 -108 -51 -166 21 -39 53 -55 107 -55 56 0
109 51 109 104 0 92 -83 150 -165 117z"/>
<path d="M6528 7404 c-54 -29 -72 -97 -42 -160 20 -42 59 -64 115 -64 33 0 47
6 75 34 56 56 44 136 -25 183 -39 26 -84 29 -123 7z"/>
<path d="M7820 7279 c-62 -25 -100 -85 -100 -156 1 -97 95 -146 176 -91 39 27
84 94 84 125 0 41 -28 92 -62 113 -36 22 -60 24 -98 9z"/>
<path d="M9742 7217 c-37 -21 -56 -57 -56 -110 -1 -43 3 -52 32 -78 54 -48
153 -35 180 26 37 80 -6 163 -88 171 -27 3 -54 -1 -68 -9z"/>
<path d="M11957 7190 c-60 -48 -57 -152 6 -190 51 -32 103 -26 143 14 28 28
34 42 34 76 0 49 -23 94 -57 109 -38 18 -98 13 -126 -9z"/>
<path d="M10580 7144 c-8 -1 -37 -6 -64 -9 -38 -5 -58 -15 -83 -40 -28 -28
-33 -40 -33 -83 0 -92 50 -124 169 -110 87 10 117 24 141 63 30 49 27 107 -9
143 -25 25 -76 45 -100 41 -3 -1 -13 -3 -21 -5z"/>
<path d="M17044 6881 c-24 -14 -49 -56 -112 -182 -101 -203 -199 -339 -368
-506 -362 -358 -851 -631 -1539 -856 -169 -56 -411 -122 -555 -152 -430 -91
-751 -136 -1196 -169 -215 -16 -237 -21 -270 -57 -64 -71 -57 -161 17 -223
l34 -29 137 7 c376 18 848 81 1253 167 480 102 921 247 1325 434 659 306 1174
750 1409 1215 94 185 106 243 64 308 -37 59 -137 81 -199 43z"/>
</g>
</svg>
