<?xml version="1.0" standalone="no"?>
<!DOCTYPE svg PUBLIC "-//W3C//DTD SVG 20010904//EN"
 "http://www.w3.org/TR/2001/REC-SVG-20010904/DTD/svg10.dtd">
<svg version="1.0" xmlns="http://www.w3.org/2000/svg"
 width="1024.000000pt" height="1024.000000pt" viewBox="0 0 1024.000000 1024.000000"
 preserveAspectRatio="xMidYMid meet">
<metadata>
Created by potrace 1.16, written by Peter Selinger 2001-2019
</metadata>
<g transform="translate(0.000000,1024.000000) scale(0.100000,-0.100000)"
fill="#000000" stroke="none">
<path d="M5817 8436 c-104 -29 -136 -75 -264 -383 -63 -152 -83 -187 -83 -146
0 9 -17 50 -37 92 -96 193 -397 398 -503 341 -10 -5 -23 -31 -30 -59 -18 -76
-63 -134 -169 -220 -165 -135 -232 -218 -265 -330 -20 -68 -21 -173 -1 -236 8
-27 12 -51 10 -54 -3 -2 -32 -8 -66 -13 -280 -38 -485 -248 -506 -520 -5 -67
6 -167 23 -213 4 -8 -12 -14 -52 -19 -64 -7 -144 -43 -188 -84 -16 -15 -44
-51 -63 -79 -22 -35 -40 -53 -54 -53 -32 0 -114 -46 -143 -80 -23 -28 -26 -40
-26 -111 0 -201 86 -805 185 -1305 125 -626 274 -1277 320 -1399 127 -337 430
-598 810 -696 44 -11 82 -22 86 -25 14 -8 -56 -381 -75 -400 -6 -6 -49 -21
-96 -34 -254 -66 -509 -174 -555 -234 -32 -42 -42 -95 -25 -135 32 -79 205
-134 545 -173 149 -18 770 -17 930 0 150 16 346 55 420 83 108 40 151 104 125
183 -15 46 -57 81 -155 127 -74 36 -347 129 -477 164 l-56 15 -16 68 c-15 67
-56 306 -56 328 0 6 33 19 73 29 404 98 725 378 848 741 36 107 133 477 228
874 196 819 307 1408 327 1735 6 92 4 116 -9 142 -19 37 -61 68 -114 87 -31
11 -38 18 -35 37 14 123 13 179 -2 239 -44 173 -182 297 -392 354 -55 15 -88
28 -86 36 5 24 -20 134 -43 186 -30 68 -113 151 -183 184 -44 21 -52 28 -47
46 2 12 37 91 76 175 195 425 208 461 189 546 -14 59 -31 91 -72 130 -62 60
-163 84 -251 59z m151 -110 c40 -21 59 -46 73 -96 14 -54 8 -71 -158 -435 -60
-132 -112 -248 -116 -257 -5 -14 -18 -18 -62 -18 -69 0 -115 -21 -115 -54 0
-37 19 -45 115 -44 153 1 256 -58 314 -181 23 -49 26 -68 24 -143 -2 -102 -3
-102 98 -111 138 -12 267 -83 336 -185 50 -75 63 -115 63 -202 0 -71 -22 -132
-59 -164 -50 -45 -6 -115 55 -87 28 12 45 7 28 -8 -5 -5 -61 -21 -125 -35
-602 -134 -1684 -152 -2459 -40 -113 16 -275 51 -301 65 -15 8 -15 13 3 67 44
136 162 206 299 178 27 -6 40 -4 52 9 22 22 21 50 -4 121 -74 210 -1 425 185
546 91 59 171 81 294 80 99 0 104 1 114 24 9 20 5 36 -30 105 -38 72 -42 88
-42 152 0 131 58 219 242 368 124 101 164 150 198 242 l10 27 57 -29 c132 -66
245 -178 299 -295 28 -62 54 -171 54 -233 0 -59 8 -73 41 -73 37 0 45 14 112
185 70 179 162 397 194 455 13 25 36 54 51 63 33 20 123 22 160 3z m-2393
-2068 c108 -53 433 -108 848 -144 244 -21 863 -29 1127 -15 372 20 716 61 915
108 126 30 171 47 202 76 13 11 25 18 28 15 4 -3 1 -45 -6 -93 l-12 -88 -51
-22 c-172 -75 -524 -135 -971 -167 -237 -16 -881 -16 -1110 1 -444 32 -812 97
-991 176 l-51 23 -5 83 c-3 46 -3 88 -1 92 3 5 15 0 27 -11 11 -11 35 -26 51
-34z m-1 -273 c19 -8 80 -26 133 -40 387 -97 915 -142 1543 -132 570 9 1017
60 1304 148 54 17 100 29 102 27 11 -11 -79 -512 -155 -865 -100 -462 -309
-1308 -362 -1467 -75 -225 -212 -399 -420 -536 -128 -84 -308 -154 -451 -175
-72 -11 -74 -16 -53 -163 25 -183 71 -403 87 -419 8 -7 66 -27 129 -43 307
-81 560 -190 543 -234 -15 -38 -200 -85 -445 -113 -207 -23 -730 -23 -935 0
-244 28 -433 75 -448 112 -17 46 216 148 528 230 71 19 134 39 139 44 22 22
111 507 101 549 -4 14 -17 24 -33 28 -119 25 -239 60 -305 89 -303 131 -516
365 -601 660 -49 171 -223 959 -304 1380 -78 407 -156 935 -137 935 2 0 20 -7
40 -15z"/>
<path d="M5120 7575 c-32 -39 18 -231 65 -249 31 -11 54 -6 65 15 9 16 7 29
-11 62 -12 23 -28 74 -34 112 -10 68 -11 70 -41 73 -19 2 -36 -3 -44 -13z"/>
<path d="M4225 7038 c-31 -24 -64 -90 -65 -129 0 -25 27 -59 47 -59 16 0 43
35 43 57 0 11 18 36 40 57 43 39 46 47 30 77 -14 26 -60 25 -95 -3z"/>
<path d="M4832 6888 c-25 -25 -12 -56 40 -103 115 -103 228 -126 216 -43 -2
16 -18 30 -58 49 -31 15 -76 45 -100 68 -45 41 -76 51 -98 29z"/>
<path d="M6010 6736 c-22 -27 -7 -59 38 -84 71 -39 127 -145 102 -192 -23 -43
17 -83 59 -60 42 22 46 143 7 219 -46 88 -171 159 -206 117z"/>
<path d="M5582 6668 c-7 -7 -12 -22 -12 -34 0 -30 -32 -101 -64 -143 -31 -42
-32 -52 -6 -76 16 -15 25 -16 44 -7 71 32 146 218 104 260 -7 7 -21 12 -33 12
-12 0 -26 -5 -33 -12z"/>
</g>
</svg>
