<?xml version="1.0" standalone="no"?>
<!DOCTYPE svg PUBLIC "-//W3C//DTD SVG 20010904//EN"
 "http://www.w3.org/TR/2001/REC-SVG-20010904/DTD/svg10.dtd">
<svg version="1.0" xmlns="http://www.w3.org/2000/svg"
 width="1024.000000pt" height="1024.000000pt" viewBox="0 0 1024.000000 1024.000000"
 preserveAspectRatio="xMidYMid meet">
<metadata>
Created by potrace 1.16, written by Peter Selinger 2001-2019
</metadata>
<g transform="translate(0.000000,1024.000000) scale(0.100000,-0.100000)"
fill="#000000" stroke="none">
<path d="M5200 7563 c-98 -7 -323 -35 -470 -59 -576 -92 -1002 -261 -1335
-529 -103 -84 -250 -230 -326 -325 -204 -255 -366 -616 -439 -977 -169 -845
-53 -1555 339 -2076 256 -342 657 -643 1047 -787 527 -196 1208 -245 1716
-124 392 93 738 291 1067 609 372 360 646 798 752 1200 127 486 103 943 -86
1605 -181 633 -456 1006 -911 1234 -326 163 -692 239 -1139 234 -93 -1 -190
-3 -215 -5z m608 -179 c628 -82 1057 -358 1311 -845 123 -236 251 -660 312
-1037 29 -179 37 -513 15 -678 -66 -505 -322 -976 -759 -1401 -334 -324 -666
-511 -1039 -587 -181 -36 -299 -47 -528 -47 -479 1 -864 80 -1215 251 -412
200 -771 543 -964 920 -210 409 -267 887 -180 1495 95 667 396 1176 884 1498
114 75 359 195 492 241 283 97 710 176 1138 210 95 7 416 -4 533 -20z"/>
<path d="M5320 7234 c-162 -22 -549 -90 -710 -124 -386 -81 -582 -159 -847
-336 -450 -300 -685 -652 -775 -1154 -43 -246 -34 -622 23 -960 70 -409 231
-778 467 -1071 204 -253 517 -424 857 -468 314 -42 806 -62 985 -42 386 44
737 185 1060 424 119 88 355 324 441 439 491 662 603 1391 332 2148 -198 553
-522 903 -993 1075 -161 58 -275 76 -515 80 -159 3 -249 0 -325 -11z m174
-156 c-5 -7 -21 -31 -36 -54 -112 -167 -191 -593 -218 -1175 -13 -294 4 -482
48 -531 21 -25 39 -22 58 7 15 24 17 24 29 8 13 -17 14 -17 35 2 l23 20 -17
-32 c-20 -41 -21 -73 -1 -73 47 0 106 56 370 355 309 350 520 534 734 640 101
51 210 83 295 87 l59 3 42 -95 c100 -225 169 -454 199 -660 l16 -105 -53 -53
c-103 -105 -224 -165 -411 -205 -96 -21 -127 -22 -651 -22 -503 0 -553 -1
-582 -17 -42 -24 -51 -53 -24 -82 29 -30 60 -39 296 -80 688 -121 933 -208
1107 -394 51 -55 118 -153 118 -174 0 -19 -108 -212 -170 -303 -115 -171 -267
-340 -416 -461 l-44 -36 -52 32 c-239 146 -440 448 -688 1035 -89 209 -135
300 -168 325 -59 47 -91 5 -72 -94 24 -125 117 -366 236 -613 193 -404 366
-614 596 -723 l61 -29 -73 -47 c-186 -120 -476 -234 -700 -274 -63 -11 -170
-23 -238 -27 l-123 -6 35 65 c89 161 127 370 146 802 10 225 -1 599 -21 712
-14 81 -44 123 -76 106 -42 -23 -46 -58 -54 -492 -10 -556 -33 -851 -79 -1030
-20 -80 -45 -146 -57 -153 -9 -6 -363 17 -508 33 -338 36 -552 126 -759 318
l-47 43 22 72 c49 164 139 303 278 424 140 123 492 348 851 543 174 94 231
137 259 193 28 58 20 76 -28 59 l-31 -11 16 30 c12 24 13 34 3 45 -26 32 -40
26 -444 -190 -296 -158 -547 -261 -733 -302 -113 -25 -312 -23 -416 5 -80 21
-193 76 -232 113 -24 21 -43 124 -65 348 -24 234 -9 631 25 674 21 28 146 58
259 63 247 12 413 -46 920 -321 383 -208 625 -319 680 -314 47 4 48 38 3 75
-43 33 -47 47 -8 27 38 -19 82 -18 82 2 0 33 -42 83 -103 121 -34 22 -129 78
-212 123 -82 46 -175 99 -205 118 -335 212 -568 448 -700 711 -36 73 -120 299
-120 324 0 19 224 163 335 217 125 59 224 95 329 119 l82 18 39 -25 c195 -121
314 -304 405 -620 62 -215 87 -379 120 -781 22 -270 34 -316 80 -316 45 0 54
39 58 250 14 706 -193 1316 -505 1491 -55 30 -66 44 -35 44 10 0 119 19 243
41 228 42 511 86 562 88 20 1 26 -3 21 -11z m314 2 c45 -6 124 -21 176 -35
100 -25 307 -107 325 -129 15 -18 -5 -182 -35 -272 -46 -141 -147 -321 -281
-499 -97 -127 -153 -192 -333 -385 -141 -150 -236 -258 -273 -310 -17 -25 -17
-25 -12 30 3 30 10 159 15 285 28 615 94 1062 186 1253 l35 72 57 0 c32 0 94
-5 140 -10z m691 -294 c89 -73 186 -175 254 -268 31 -42 57 -79 57 -82 0 -4
-27 -6 -60 -6 -142 0 -331 -69 -483 -177 -27 -19 -51 -33 -53 -31 -2 2 10 24
27 48 49 73 105 189 132 277 27 84 52 246 42 263 -6 10 2 30 12 30 3 0 36 -24
72 -54z m-2783 -450 c14 -49 38 -122 55 -162 63 -151 212 -355 341 -466 33
-29 75 -66 92 -82 l31 -28 -50 28 c-267 150 -476 210 -705 202 -102 -4 -139
-10 -204 -32 -43 -15 -80 -25 -83 -23 -9 10 41 139 102 262 77 155 160 268
286 390 l94 90 8 -45 c5 -25 20 -85 33 -134z m3420 -1113 c-7 -134 -26 -254
-62 -395 -25 -101 -71 -237 -84 -251 -4 -4 -13 7 -20 25 -24 61 -99 155 -164
207 -120 95 -318 183 -508 226 -43 9 -78 18 -78 19 0 0 75 1 167 1 125 0 189
5 252 19 203 44 332 106 430 206 31 32 60 59 65 59 5 1 6 -48 2 -116z m-3826
-797 c181 -96 425 -107 688 -31 65 18 118 32 120 30 1 -1 -21 -18 -50 -36
-146 -94 -288 -226 -363 -339 -55 -82 -114 -227 -115 -278 0 -49 -16 -38 -82
59 -78 113 -198 357 -248 503 -48 141 -50 155 -17 132 12 -9 42 -27 67 -40z"/>
</g>
</svg>
