<?xml version="1.0" standalone="no"?>
<!DOCTYPE svg PUBLIC "-//W3C//DTD SVG 20010904//EN"
 "http://www.w3.org/TR/2001/REC-SVG-20010904/DTD/svg10.dtd">
<svg version="1.0" xmlns="http://www.w3.org/2000/svg"
 width="1024.000000pt" height="1024.000000pt" viewBox="0 0 1024.000000 1024.000000"
 preserveAspectRatio="xMidYMid meet">
<metadata>
Created by potrace 1.16, written by Peter Selinger 2001-2019
</metadata>
<g transform="translate(0.000000,1024.000000) scale(0.100000,-0.100000)"
fill="#000000" stroke="none">
<path d="M4894 7200 c-680 -66 -1245 -462 -1588 -1110 -114 -217 -198 -489
-231 -750 -24 -183 -17 -493 15 -660 83 -446 283 -823 604 -1142 447 -444
1095 -659 1756 -582 691 79 1227 431 1484 974 196 416 254 951 165 1514 -98
612 -351 1060 -774 1371 -251 184 -586 318 -926 369 -129 20 -383 28 -505 16z
m471 -167 c525 -69 999 -353 1274 -766 269 -402 406 -1107 325 -1667 -107
-735 -463 -1185 -1109 -1399 -223 -74 -404 -101 -667 -101 -390 0 -708 83
-1026 269 -601 351 -980 1058 -948 1771 13 301 76 557 201 817 164 343 402
620 700 816 358 236 776 323 1250 260z"/>
<path d="M4744 6586 c-17 -13 -19 -26 -18 -113 1 -104 68 -676 84 -717 17 -47
76 -60 110 -26 26 26 26 97 0 335 -45 399 -82 535 -149 535 -4 0 -16 -6 -27
-14z"/>
<path d="M5267 6578 c-27 -21 -42 -71 -96 -308 -28 -124 -64 -283 -81 -355
-43 -185 -39 -226 20 -240 40 -10 75 25 99 98 57 174 130 530 138 675 5 90 4
105 -12 122 -21 23 -44 25 -68 8z"/>
<path d="M5763 6298 c-22 -24 -110 -144 -195 -268 -85 -124 -181 -260 -212
-304 -61 -85 -70 -122 -36 -156 26 -26 60 -25 94 1 90 71 428 574 456 680 25
92 -37 119 -107 47z"/>
<path d="M4198 6269 c-33 -19 -22 -71 30 -148 57 -84 343 -432 384 -466 36
-30 61 -32 88 -5 32 32 26 78 -21 145 -95 136 -334 416 -387 454 -37 26 -73
34 -94 20z"/>
<path d="M6070 5950 c-35 -19 -54 -34 -376 -306 -191 -161 -211 -181 -214
-204 -7 -51 16 -80 65 -80 91 0 586 438 620 548 5 16 1 30 -11 43 -21 24 -39
23 -84 -1z"/>
<path d="M3892 5879 c-19 -7 -23 -15 -20 -46 2 -31 11 -43 51 -74 76 -57 531
-309 559 -309 51 0 77 59 48 108 -31 50 -294 208 -475 285 -93 40 -131 48
-163 36z"/>
<path d="M6140 5471 c-238 -81 -552 -199 -570 -216 -40 -36 -19 -97 37 -111
33 -9 171 30 367 103 261 96 376 162 376 215 0 60 -52 62 -210 9z"/>
<path d="M3757 5433 c-34 -6 -61 -44 -52 -74 4 -12 25 -29 48 -39 70 -31 568
-99 622 -86 53 14 58 93 7 120 -77 40 -525 97 -625 79z"/>
<path d="M4195 5081 c-232 -61 -462 -149 -500 -191 -24 -26 -13 -67 23 -82 21
-8 47 -6 112 7 111 22 534 161 551 181 17 20 16 71 -2 89 -26 26 -72 25 -184
-4z"/>
<path d="M6130 5084 c-14 -2 -128 -8 -254 -14 -258 -11 -276 -16 -276 -74 0
-63 21 -71 203 -74 176 -4 428 18 515 43 40 12 55 22 62 41 12 29 0 58 -27 69
-21 8 -187 15 -223 9z"/>
<path d="M4239 4757 c-67 -56 -228 -220 -291 -298 -70 -85 -79 -151 -24 -165
43 -10 109 39 269 200 174 175 207 217 207 261 0 40 -16 55 -60 55 -29 0 -49
-11 -101 -53z"/>
<path d="M5546 4788 c-22 -30 -20 -71 3 -92 61 -56 537 -166 664 -153 53 5 69
18 65 57 -5 41 -57 66 -221 105 -83 20 -216 52 -295 71 -170 40 -195 42 -216
12z"/>
<path d="M5440 4560 c-36 -36 -26 -72 36 -130 105 -96 397 -273 487 -295 35
-9 67 17 67 55 0 38 -55 86 -220 195 -319 210 -330 215 -370 175z"/>
<path d="M4463 4543 c-59 -63 -213 -483 -213 -578 0 -19 8 -39 20 -50 29 -26
65 -12 97 38 44 69 213 502 213 546 0 27 -30 59 -62 67 -23 5 -33 0 -55 -23z"/>
<path d="M5236 4376 c-49 -48 -35 -79 104 -244 110 -131 245 -267 304 -306 64
-43 106 -31 106 30 0 39 -30 81 -200 275 -241 276 -265 295 -314 245z"/>
<path d="M4730 4372 c-18 -15 -24 -36 -35 -122 -22 -167 -36 -439 -26 -498 14
-88 62 -117 103 -61 24 32 44 156 57 363 16 241 15 292 -9 316 -25 25 -61 26
-90 2z"/>
<path d="M5020 4317 c-20 -10 -26 -21 -28 -59 -6 -90 101 -461 170 -591 32
-60 65 -80 97 -60 22 14 25 96 7 174 -32 139 -148 505 -164 520 -25 25 -54 30
-82 16z"/>
</g>
</svg>
