<?xml version="1.0" standalone="no"?>
<!DOCTYPE svg PUBLIC "-//W3C//DTD SVG 20010904//EN"
 "http://www.w3.org/TR/2001/REC-SVG-20010904/DTD/svg10.dtd">
<svg version="1.0" xmlns="http://www.w3.org/2000/svg"
 width="1024.000000pt" height="1024.000000pt" viewBox="0 0 1024.000000 1024.000000"
 preserveAspectRatio="xMidYMid meet">
<metadata>
Created by potrace 1.16, written by Peter Selinger 2001-2019
</metadata>
<g transform="translate(0.000000,1024.000000) scale(0.100000,-0.100000)"
fill="#000000" stroke="none">
<path d="M4265 6177 c-421 -273 -827 -591 -1158 -908 l-99 -94 -19 -80 c-24
-101 -25 -250 -3 -326 37 -127 113 -224 218 -279 25 -14 46 -28 46 -32 0 -4
-14 -22 -31 -40 -16 -18 -46 -58 -64 -89 -23 -37 -84 -101 -175 -184 -78 -70
-147 -140 -155 -156 -8 -15 -15 -49 -15 -75 0 -116 151 -165 327 -108 l53 17
45 -42 c25 -23 56 -47 70 -53 32 -14 31 -18 -4 -52 -36 -35 -78 -126 -92 -203
-12 -61 -5 -182 11 -213 12 -23 74 -37 365 -84 415 -67 820 -112 1300 -146
160 -11 324 -22 365 -25 208 -15 476 -25 660 -26 l205 -1 54 58 c48 53 223
270 435 537 43 54 105 137 138 185 33 47 96 130 140 184 77 96 195 246 250
319 22 30 35 37 73 41 57 7 100 45 117 103 15 53 20 58 65 74 64 23 94 51 125
118 28 59 30 71 26 152 -3 74 -9 99 -36 152 -17 35 -51 84 -76 109 -25 25 -45
49 -46 53 0 5 26 43 59 86 73 95 99 143 107 196 9 65 -11 121 -62 170 l-45 44
7 64 c8 77 -9 187 -43 279 -29 78 -33 80 -208 121 -199 47 -420 77 -820 109
-94 7 -410 12 -850 13 -761 2 -857 7 -1058 60 -53 14 -103 25 -110 24 -6 0
-48 -24 -92 -52z m422 -122 c124 -15 262 -18 863 -20 568 -1 753 -5 900 -18
349 -31 484 -49 670 -88 123 -26 131 -29 125 -40 -3 -5 -146 -141 -318 -302
-510 -480 -758 -745 -941 -1006 -72 -103 -170 -258 -178 -282 -2 -5 -32 3 -68
19 -273 123 -732 258 -1350 396 -487 109 -696 165 -888 237 -104 39 -296 133
-342 169 l-25 19 25 27 c59 64 281 262 427 381 220 181 377 298 596 444 l187
126 85 -23 c46 -12 150 -30 232 -39z m2651 -357 c8 -163 -33 -254 -125 -278
-110 -27 -166 -87 -223 -237 -41 -107 -60 -123 -152 -123 -119 0 -180 -47
-229 -177 -37 -97 -58 -117 -137 -133 -157 -31 -192 -64 -242 -228 -33 -108
-53 -132 -138 -163 -40 -15 -79 -33 -88 -40 -27 -22 -51 -81 -68 -164 -9 -44
-23 -86 -31 -94 -12 -12 -15 -9 -20 22 -15 76 21 178 112 319 200 311 424 559
938 1043 165 156 318 301 340 324 24 25 43 37 48 32 6 -6 12 -52 15 -103z m87
-284 c26 -40 12 -81 -58 -181 -72 -102 -236 -269 -532 -542 -459 -424 -710
-703 -811 -903 -15 -29 -30 -47 -37 -44 -88 39 -206 82 -298 106 -111 30 -494
100 -544 100 -45 0 -26 16 48 40 113 37 159 33 264 -22 118 -62 189 -81 293
-82 101 0 172 26 221 81 36 42 45 64 65 158 8 38 21 79 28 91 8 11 42 31 76
43 107 39 153 97 199 248 24 81 58 118 119 128 146 25 191 59 241 183 45 111
61 124 176 138 122 16 143 31 194 137 22 45 43 95 47 110 11 47 64 93 124 111
76 22 117 50 137 91 20 42 26 43 48 9z m-4284 -410 c191 -128 546 -248 1079
-364 680 -147 1122 -272 1445 -409 l120 -51 1 -95 0 -95 -32 0 c-68 0 -142 23
-252 77 -108 55 -115 57 -190 56 -56 -1 -97 -8 -151 -27 -79 -28 -148 -33
-184 -15 -12 6 -56 46 -97 89 -66 69 -82 81 -133 95 -66 19 -113 15 -203 -16
-32 -12 -68 -18 -81 -14 -13 3 -54 33 -89 66 -120 112 -212 130 -357 71 -126
-52 -154 -44 -236 62 -30 39 -60 64 -99 83 -51 25 -65 27 -199 29 -136 3 -148
5 -207 32 -110 52 -174 142 -197 279 -10 57 -6 183 6 183 2 0 27 -16 56 -36z
m4226 -96 c78 -86 88 -250 18 -308 -8 -7 -17 -11 -19 -9 -1 2 -8 54 -16 114
-27 234 -26 249 17 203z m-163 -131 c-11 -23 -36 -51 -62 -69 -48 -33 -63 -60
-87 -163 -17 -75 -52 -130 -93 -147 -15 -6 -73 -12 -130 -14 -90 -3 -110 -7
-153 -31 -59 -32 -104 -89 -124 -157 -27 -91 -16 -137 54 -226 23 -29 44 -63
47 -76 9 -37 -22 -109 -64 -145 -66 -58 -134 -82 -259 -90 -66 -5 -124 -14
-141 -23 -38 -20 -80 -70 -105 -125 -25 -57 -34 -40 -27 47 20 215 279 530
930 1128 96 89 186 174 200 189 l25 27 3 -43 c2 -26 -4 -58 -14 -82z m46 -169
c0 -47 -5 -75 -25 -165 -5 -20 -12 -23 -51 -23 -40 0 -45 2 -39 18 5 9 16 47
26 85 15 60 60 134 82 136 4 1 7 -23 7 -51z m-3610 -195 c17 -11 51 -45 78
-78 88 -109 169 -129 310 -76 150 57 169 55 256 -28 119 -113 167 -126 294
-86 112 35 150 29 206 -33 23 -25 61 -65 86 -90 39 -39 42 -44 20 -39 -14 3
-155 17 -315 32 -476 42 -613 55 -765 76 -235 32 -449 84 -542 130 l-38 19 30
48 c47 76 113 134 162 143 71 13 185 3 218 -18z m3367 -127 c-8 -21 -248 -326
-257 -326 -4 0 -11 10 -17 23 -6 12 -27 42 -48 67 -33 40 -37 49 -32 88 11 96
81 142 222 143 49 0 99 4 110 9 28 12 28 12 22 -4z m-3711 -195 c206 -75 501
-119 1229 -181 714 -61 1178 -146 1384 -254 l45 -23 0 -107 1 -106 -35 -11
c-19 -6 -82 -13 -140 -16 -139 -7 -197 9 -385 103 -232 116 -330 127 -544 63
-172 -51 -234 -42 -346 51 -125 105 -238 120 -410 56 -85 -33 -165 -42 -225
-27 -25 7 -94 37 -155 67 -81 40 -138 60 -217 78 -193 42 -266 114 -294 294
-4 24 -3 42 3 42 5 0 45 -13 89 -29z m-196 -29 c0 -16 7 -51 15 -78 8 -27 11
-52 7 -55 -33 -30 -174 -41 -200 -15 -15 15 -11 21 48 75 36 32 74 68 85 79
28 30 45 27 45 -6z m575 -458 c198 -98 274 -105 467 -37 148 51 200 42 317
-57 67 -57 133 -83 221 -87 64 -4 92 1 195 31 197 59 257 52 480 -59 87 -44
183 -83 229 -95 99 -25 230 -26 347 -2 l86 18 6 -86 c4 -47 9 -100 13 -117 l7
-33 -79 0 c-44 0 -212 7 -374 15 -904 46 -1466 101 -2090 206 -96 16 -179 29
-184 29 -5 0 -7 35 -4 78 5 92 37 171 91 225 63 62 96 59 272 -29z m2775 -49
c0 -11 -303 -375 -312 -375 -7 0 -9 33 -6 95 5 83 10 104 39 162 46 90 69 106
172 114 45 3 88 7 95 7 6 1 12 0 12 -3z"/>
<path d="M4357 5728 c-83 -45 -139 -102 -135 -136 3 -25 7 -27 43 -26 31 0 58
12 110 46 87 56 118 89 113 120 -5 37 -60 35 -131 -4z"/>
<path d="M5080 5727 c-50 -25 -31 -117 24 -117 38 0 66 28 66 65 0 24 -7 39
-22 49 -27 19 -35 19 -68 3z"/>
<path d="M6324 5715 c-50 -30 -74 -64 -74 -104 0 -43 36 -51 86 -21 77 48 102
151 36 150 -4 0 -26 -11 -48 -25z"/>
<path d="M5555 5641 c-123 -70 -220 -231 -140 -231 31 0 205 147 230 193 37
69 -5 87 -90 38z"/>
<path d="M3775 5420 c-20 -23 -23 -63 -5 -85 30 -36 110 -6 110 41 0 56 -68
85 -105 44z"/>
<path d="M4533 5261 c-79 -38 -163 -117 -163 -154 0 -52 44 -47 147 15 90 54
133 96 133 128 0 26 -15 40 -43 40 -7 0 -40 -13 -74 -29z"/>
<path d="M5771 5229 c-96 -64 -152 -152 -118 -186 26 -26 65 -7 148 75 65 64
79 83 79 109 0 28 -14 43 -40 43 -4 0 -35 -18 -69 -41z"/>
<path d="M4953 5019 c-34 -10 -73 -51 -73 -78 0 -45 60 -54 130 -18 46 23 69
59 57 91 -7 18 -60 20 -114 5z"/>
</g>
</svg>
