<?xml version="1.0" standalone="no"?>
<!DOCTYPE svg PUBLIC "-//W3C//DTD SVG 20010904//EN"
 "http://www.w3.org/TR/2001/REC-SVG-20010904/DTD/svg10.dtd">
<svg version="1.0" xmlns="http://www.w3.org/2000/svg"
 width="1024.000000pt" height="1024.000000pt" viewBox="0 0 1024.000000 1024.000000"
 preserveAspectRatio="xMidYMid meet">
<metadata>
Created by potrace 1.16, written by Peter Selinger 2001-2019
</metadata>
<g transform="translate(0.000000,1024.000000) scale(0.100000,-0.100000)"
fill="#000000" stroke="none">
<path d="M3322 6728 c-14 -14 -16 -74 -2 -83 5 -3 35 -39 66 -80 61 -82 92
-99 124 -70 36 33 25 67 -48 157 -54 66 -74 84 -97 86 -17 2 -36 -3 -43 -10z"/>
<path d="M4865 6604 c-306 -41 -523 -114 -710 -239 -93 -62 -218 -189 -255
-259 -25 -46 -25 -46 -76 -46 -68 0 -188 -32 -262 -69 -76 -38 -177 -132 -219
-202 -18 -30 -44 -90 -59 -134 -38 -113 -37 -267 2 -369 3 -7 -18 -27 -47 -45
-64 -42 -131 -127 -165 -211 -32 -78 -43 -222 -25 -312 43 -206 216 -362 457
-411 l68 -13 -3 -50 c-8 -165 105 -366 266 -470 119 -78 231 -112 388 -121
212 -11 340 25 571 162 l30 18 58 -47 c245 -199 617 -196 860 7 l48 41 47 -18
c197 -75 418 -90 611 -41 36 9 106 36 157 61 150 72 279 213 327 357 26 79 38
179 28 237 l-9 51 51 33 c140 90 217 235 219 410 1 155 -42 265 -143 367 -69
70 -142 111 -230 130 -43 9 -50 14 -45 30 4 10 6 63 6 116 -1 477 -454 872
-1158 1008 -230 45 -579 58 -788 29z m670 -118 c481 -78 873 -287 1055 -562
90 -137 134 -313 110 -437 -29 -150 -29 -152 66 -162 43 -4 87 -18 133 -41
289 -145 289 -558 -1 -705 -31 -16 -58 -36 -60 -46 -2 -10 2 -45 10 -78 16
-69 10 -139 -19 -223 -29 -84 -61 -132 -136 -203 -127 -119 -276 -171 -483
-171 -139 0 -223 17 -350 71 -40 17 -78 31 -86 31 -7 0 -44 -27 -81 -61 -233
-211 -569 -204 -780 16 -67 70 -84 70 -170 5 -133 -103 -260 -149 -429 -157
-84 -4 -130 -1 -190 12 -281 60 -463 275 -440 517 9 95 2 104 -81 112 -200 20
-352 115 -421 263 -24 52 -27 69 -27 168 0 98 3 116 26 166 35 73 90 134 157
172 74 41 81 61 54 145 -32 102 -37 175 -17 257 31 124 87 212 177 280 86 65
153 87 283 94 l109 6 40 69 c144 252 466 420 909 476 111 14 525 4 642 -14z"/>
<path d="M5858 5266 c-81 -30 -129 -80 -149 -158 -17 -62 -2 -98 39 -98 29 0
62 26 62 49 0 26 32 73 63 91 68 42 144 13 178 -67 11 -26 26 -51 32 -55 36
-23 87 7 87 51 0 27 -35 98 -64 129 -53 59 -173 87 -248 58z"/>
<path d="M4190 5247 c-79 -25 -163 -145 -146 -211 13 -54 98 -43 110 14 3 18
21 47 40 66 27 27 42 34 74 34 53 0 103 -35 122 -86 20 -54 37 -74 65 -74 63
0 69 82 12 168 -58 86 -172 122 -277 89z"/>
<path d="M4875 5146 c-23 -34 -31 -188 -15 -268 30 -155 129 -251 256 -250
101 1 180 59 233 171 23 51 25 67 26 192 0 121 -2 139 -19 158 -25 28 -46 27
-109 -6 -43 -23 -65 -28 -128 -28 -63 1 -85 5 -128 28 -66 34 -96 34 -116 3z
m169 -138 c47 -10 115 -7 198 8 l37 7 -5 -54 c-13 -119 -55 -198 -122 -226
-95 -40 -192 78 -192 235 0 47 2 53 17 47 10 -3 40 -11 67 -17z"/>
<path d="M6984 6483 c-43 -38 -134 -161 -134 -180 0 -42 58 -67 92 -40 33 25
138 160 138 176 0 46 -62 75 -96 44z"/>
<path d="M3158 6299 c-21 -12 -25 -71 -5 -87 19 -16 177 -53 198 -47 46 15 47
85 1 104 -28 11 -150 41 -167 41 -5 -1 -18 -5 -27 -11z"/>
<path d="M7109 6041 c-86 -23 -89 -26 -89 -66 0 -54 25 -61 128 -40 94 20 127
42 116 78 -16 53 -43 58 -155 28z"/>
</g>
</svg>
