<?xml version="1.0" standalone="no"?>
<!DOCTYPE svg PUBLIC "-//W3C//DTD SVG 20010904//EN"
 "http://www.w3.org/TR/2001/REC-SVG-20010904/DTD/svg10.dtd">
<svg version="1.0" xmlns="http://www.w3.org/2000/svg"
 width="2048.000000pt" height="2048.000000pt" viewBox="0 0 2048.000000 2048.000000"
 preserveAspectRatio="xMidYMid meet">
<metadata>
Created by potrace 1.16, written by Peter Selinger 2001-2019
</metadata>
<g transform="translate(0.000000,2048.000000) scale(0.100000,-0.100000)"
fill="#000000" stroke="none">
<path d="M13500 17356 c-328 -47 -671 -182 -963 -379 -45 -29 -62 -36 -70 -28
-7 7 -39 58 -73 114 -91 151 -164 200 -301 199 -104 -1 -205 -59 -369 -215
-265 -249 -434 -502 -522 -778 -44 -138 -55 -225 -50 -390 6 -159 26 -257 78
-368 35 -75 35 -71 13 -71 -42 0 -234 -54 -327 -91 -213 -86 -360 -176 -515
-317 -44 -39 -83 -72 -87 -72 -10 0 4 238 22 390 22 184 49 306 110 489 106
319 264 573 441 711 122 96 162 140 179 198 40 136 -49 274 -231 362 -102 50
-183 69 -320 77 -193 10 -323 -27 -426 -124 -101 -94 -250 -348 -354 -602
-167 -407 -244 -941 -205 -1411 8 -103 8 -107 -22 -183 -58 -151 -196 -316
-331 -396 -135 -79 -325 -119 -484 -101 -80 9 -193 35 -193 45 0 2 29 32 65
66 95 91 137 180 143 299 3 70 0 103 -16 157 -78 257 -358 371 -611 251 -62
-30 -158 -113 -193 -168 l-16 -25 -38 45 c-330 388 -687 555 -1097 511 -314
-34 -601 -197 -765 -434 -62 -90 -82 -137 -82 -194 0 -55 12 -78 52 -99 60
-31 90 -16 208 104 204 207 388 298 631 309 133 6 228 -10 343 -58 151 -64
321 -205 453 -376 230 -297 382 -463 531 -580 105 -83 254 -151 415 -191 55
-13 115 -17 257 -17 171 0 192 2 284 28 184 51 329 133 485 275 44 39 82 72
85 72 2 0 17 -39 31 -87 69 -230 148 -425 240 -600 30 -57 53 -103 51 -103 -2
0 -38 16 -80 35 -165 77 -369 134 -551 155 -471 54 -1015 -112 -1445 -440 -41
-32 -84 -67 -94 -79 -22 -24 -43 -27 -71 -8 -70 47 -411 164 -574 197 -238 48
-530 53 -725 11 -584 -125 -1042 -519 -1247 -1073 -224 -606 -90 -1361 327
-1849 138 -161 331 -312 512 -401 56 -28 102 -53 102 -57 0 -3 -9 -35 -21 -71
-68 -219 -99 -497 -80 -723 14 -174 31 -259 81 -407 124 -375 356 -685 670
-895 137 -91 334 -186 468 -226 23 -7 42 -18 42 -24 0 -7 -13 -63 -29 -126
-45 -174 -55 -258 -55 -454 1 -313 57 -552 194 -830 269 -545 785 -912 1444
-1025 65 -11 130 -20 145 -20 50 0 53 -8 36 -106 -39 -225 -35 -508 9 -727 58
-285 170 -526 345 -744 404 -504 1010 -740 1641 -638 437 71 839 318 1109 681
212 286 334 625 372 1029 14 158 5 397 -20 545 -13 75 -15 107 -7 112 6 4 51
21 101 38 183 64 397 177 546 290 608 464 877 1237 684 1968 -14 52 -25 95
-25 97 0 2 46 29 101 61 426 239 718 646 818 1139 89 443 23 895 -185 1268
-29 53 -54 99 -54 101 0 2 42 34 93 70 393 280 649 735 717 1276 16 130 13
411 -5 535 -9 59 -31 160 -50 224 -88 307 -217 526 -430 736 -131 129 -247
211 -420 295 -160 79 -279 120 -415 145 -52 9 -106 20 -120 25 -23 7 -22 8 15
15 307 55 609 160 880 304 605 323 653 354 696 446 26 55 25 168 -1 236 -50
134 -226 400 -418 634 -249 302 -503 529 -778 696 -46 28 -84 52 -84 54 0 2
32 53 71 112 123 188 241 450 295 653 44 167 33 263 -39 338 -64 67 -147 100
-362 143 -140 28 -441 35 -585 15z m-2852 -512 c28 -9 52 -20 52 -24 0 -4 -39
-45 -86 -91 -259 -252 -448 -607 -553 -1042 -125 -516 -97 -1112 78 -1667 17
-52 28 -96 26 -98 -14 -15 -130 287 -189 491 -164 569 -175 1107 -32 1658 90
345 291 731 410 786 42 19 222 11 294 -13z m3231 -23 c12 -8 11 -16 -3 -53
-49 -122 -201 -368 -324 -523 -101 -127 -117 -162 -117 -260 0 -70 4 -87 30
-133 46 -85 81 -107 313 -205 258 -109 520 -322 780 -635 119 -143 242 -305
242 -318 0 -10 -72 -49 -340 -184 -398 -201 -656 -270 -960 -257 -150 7 -259
28 -430 83 -185 59 -297 48 -395 -38 -58 -51 -71 -78 -129 -260 -25 -81 -50
-149 -54 -152 -12 -7 -272 98 -375 151 -236 122 -405 303 -461 492 -21 70 -20
192 0 262 37 125 115 243 207 316 32 25 68 58 79 74 19 25 28 29 72 29 28 0
74 -3 101 -6 l51 -6 1 -107 c2 -160 46 -340 110 -450 44 -76 112 -160 143
-176 38 -19 84 -19 104 1 31 31 20 91 -34 187 -84 146 -130 310 -130 461 l0
69 88 -6 c187 -14 497 -76 867 -174 138 -36 270 -66 293 -67 77 -2 104 63 51
120 -51 55 -309 151 -594 223 -171 42 -486 107 -572 118 -29 3 -53 11 -53 17
0 26 105 172 182 252 46 48 133 124 195 170 118 88 143 115 143 150 0 28 -45
64 -79 64 -14 0 -52 -11 -83 -24 -204 -84 -446 -317 -544 -523 -28 -59 -38
-73 -57 -72 -12 0 -78 6 -146 13 l-124 12 -77 80 c-112 117 -160 232 -160 385
0 147 63 317 177 476 62 88 157 193 173 193 5 0 29 -34 52 -76 97 -172 170
-244 269 -265 121 -26 198 7 343 149 61 59 140 129 176 154 184 129 417 226
635 262 91 16 343 20 364 7z m-2729 -1809 c-46 -122 -69 -325 -51 -467 31
-257 132 -466 325 -671 l85 -91 -117 -11 c-214 -22 -429 -78 -626 -163 -49
-21 -93 -36 -98 -33 -12 8 -80 145 -124 251 -54 130 -91 242 -129 392 l-34
133 23 62 c71 189 179 330 347 456 110 82 330 187 396 189 l21 1 -18 -48z
m-2830 -127 c59 -31 67 -95 20 -149 -40 -45 -86 -61 -139 -46 -47 12 -56 33
-41 91 15 54 36 86 69 104 34 18 55 18 91 0z m4850 -1145 c58 -10 123 -22 145
-26 33 -5 36 -8 20 -14 -33 -13 -335 -83 -339 -79 -7 8 49 139 59 139 6 0 57
-9 115 -20z m-3882 -500 c140 -18 268 -56 396 -118 318 -154 534 -407 644
-753 60 -188 67 -237 67 -459 0 -178 -3 -219 -23 -310 -42 -189 -133 -386
-189 -409 -16 -6 -91 -26 -167 -46 -206 -52 -409 -139 -571 -243 -88 -56 -226
-166 -285 -226 -55 -57 -77 -62 -228 -46 -260 27 -481 110 -673 254 -198 150
-328 332 -418 590 -87 249 -86 567 4 842 83 255 257 499 470 658 278 210 637
308 973 266z m2467 -35 c483 -78 855 -393 1009 -856 49 -145 66 -256 66 -423
0 -290 -66 -515 -218 -745 -156 -236 -442 -421 -752 -486 -125 -26 -133 -24
-235 61 -123 103 -277 205 -401 265 -122 59 -332 130 -456 154 -52 11 -88 23
-88 30 0 6 11 44 25 84 70 199 98 384 98 631 -1 304 -57 546 -193 833 l-31 66
49 45 c185 173 427 295 674 341 100 18 342 18 453 0z m2141 -68 c264 -74 481
-233 634 -465 111 -167 170 -337 192 -555 13 -123 0 -305 -32 -448 -87 -399
-318 -704 -643 -854 -143 -66 -138 -66 -263 2 -244 133 -410 184 -741 229
l-32 5 54 112 c183 382 222 818 110 1232 -42 156 -133 354 -225 491 -28 40
-50 78 -50 83 0 22 202 108 356 151 149 42 210 50 384 46 138 -3 180 -8 256
-29z m-6906 -202 c106 -20 241 -59 322 -92 76 -31 258 -121 258 -128 0 -3 -11
-27 -24 -53 -35 -70 -92 -226 -116 -322 -103 -400 -67 -822 101 -1178 32 -68
44 -104 36 -107 -7 -2 -41 -8 -77 -15 -141 -25 -325 -87 -459 -155 -156 -78
-264 -153 -393 -274 l-77 -72 -103 26 c-212 54 -352 129 -488 266 -215 213
-348 538 -367 895 -18 357 108 679 363 924 171 164 386 268 619 299 95 13 301
6 405 -14z m3715 -2160 c487 -87 901 -449 1075 -940 139 -394 130 -801 -26
-1144 -82 -179 -250 -381 -411 -492 -228 -157 -496 -227 -828 -216 -435 15
-771 152 -1046 426 -244 245 -378 546 -409 920 -32 394 98 764 367 1042 221
228 513 372 848 418 93 13 318 5 430 -14z m-2741 -175 c215 -170 444 -277 741
-345 66 -15 121 -29 123 -30 1 -1 -11 -32 -27 -68 -87 -193 -139 -428 -148
-672 -8 -212 17 -408 81 -625 14 -46 24 -85 23 -85 -1 -1 -61 -16 -134 -33
-321 -76 -580 -213 -819 -436 -83 -76 -89 -77 -251 -51 -301 49 -571 206 -749
437 -361 467 -326 1178 79 1596 120 123 235 201 399 271 164 70 300 98 489
100 l116 1 77 -60z m5124 30 c199 -25 411 -106 579 -222 188 -129 346 -334
430 -558 50 -133 64 -207 70 -381 9 -260 -22 -409 -128 -624 -73 -148 -169
-271 -282 -361 -90 -72 -264 -162 -365 -190 l-63 -17 -57 55 c-146 142 -357
281 -545 358 -108 44 -280 94 -377 110 -36 6 -79 13 -96 15 l-31 5 19 93 c28
134 36 479 14 644 -29 219 -85 402 -191 629 l-53 112 112 42 c152 58 306 137
421 215 81 55 105 66 158 74 88 12 288 13 385 1z m-733 -2246 c110 -23 191
-52 308 -111 172 -88 293 -186 398 -325 214 -285 289 -661 201 -1008 -83 -325
-264 -586 -534 -768 -415 -280 -979 -331 -1395 -126 -217 107 -424 300 -521
485 -29 56 -30 58 -16 115 66 279 69 598 8 852 -10 43 -14 76 -8 81 5 4 58 15
119 24 422 66 818 323 1075 697 34 50 72 96 84 101 27 12 190 2 281 -17z
m-3330 -81 c86 -119 277 -301 405 -385 234 -154 507 -261 771 -303 57 -9 114
-18 126 -21 57 -11 113 -210 120 -429 7 -182 -11 -308 -63 -464 -66 -198 -145
-330 -286 -477 -182 -190 -424 -317 -688 -361 -135 -22 -403 -22 -545 1 -565
91 -989 496 -1111 1061 -27 124 -24 370 6 500 36 163 124 359 211 471 213 277
588 471 915 473 l90 1 49 -67z m1838 -2445 c237 -175 516 -288 792 -319 55 -6
124 -14 154 -18 l55 -6 18 -70 c62 -246 77 -551 38 -780 -96 -564 -488 -972
-1007 -1050 -455 -69 -894 114 -1159 481 -88 122 -172 318 -204 474 -35 172
-31 410 11 605 11 55 31 149 43 209 l23 109 120 42 c184 64 353 159 508 285
71 58 246 235 286 290 l23 30 110 -111 c60 -62 145 -138 189 -171z"/>
<path d="M8770 12933 c-162 -27 -368 -146 -493 -283 -169 -187 -230 -438 -141
-573 38 -58 117 -91 197 -84 115 10 244 96 333 220 15 22 37 33 94 48 150 40
285 143 338 256 19 41 28 79 30 131 4 66 1 79 -28 138 -58 119 -179 172 -330
147z m142 -211 c30 -25 33 -76 8 -127 -29 -60 -96 -105 -215 -143 -126 -41
-147 -54 -198 -120 -56 -72 -112 -123 -156 -142 -31 -12 -35 -12 -48 6 -17 23
-9 90 17 151 62 143 225 297 383 361 105 42 172 47 209 14z"/>
<path d="M11560 12953 c-93 -15 -130 -50 -130 -120 0 -36 6 -50 31 -75 l30
-31 93 7 c161 12 291 -20 409 -100 112 -77 203 -196 243 -320 22 -69 62 -104
118 -104 79 0 121 71 97 166 -58 229 -260 444 -500 532 -116 42 -288 62 -391
45z"/>
<path d="M13623 12876 c-38 -32 -51 -82 -33 -127 18 -41 42 -55 130 -73 121
-25 232 -86 320 -175 43 -43 89 -103 108 -138 38 -73 72 -196 72 -266 0 -134
110 -192 191 -100 l32 37 -5 110 c-9 204 -82 362 -237 516 -145 144 -309 226
-471 237 -71 5 -77 4 -107 -21z"/>
<path d="M6495 12715 c-391 -85 -669 -424 -669 -815 0 -108 15 -150 64 -175
60 -31 125 -8 148 52 6 15 13 75 15 133 16 337 271 583 622 597 121 5 150 14
171 55 31 60 6 127 -58 153 -48 19 -207 19 -293 0z"/>
<path d="M9951 10365 c-246 -69 -483 -333 -545 -607 -70 -308 35 -533 249
-531 146 0 259 98 321 277 l31 91 72 51 c92 65 123 95 177 168 90 120 111 300
49 414 -68 125 -206 178 -354 137z m164 -209 c33 -33 40 -69 26 -130 -18 -78
-72 -148 -169 -218 -93 -67 -126 -110 -168 -220 -45 -119 -116 -190 -162 -162
-58 35 -73 187 -32 319 36 116 78 183 172 278 136 137 274 192 333 133z"/>
<path d="M7371 10350 c-90 -21 -202 -88 -289 -173 -127 -123 -208 -274 -247
-460 -18 -81 -20 -259 -4 -290 38 -75 149 -77 182 -3 8 17 17 75 20 129 8 123
28 200 79 306 67 141 236 291 329 293 59 2 85 -56 59 -129 -6 -15 -49 -64 -95
-108 -78 -74 -85 -84 -85 -119 0 -44 44 -96 82 -96 81 0 218 115 271 227 28
60 32 78 32 153 0 73 -4 92 -27 136 -59 112 -179 164 -307 134z"/>
<path d="M13745 9721 c-11 -5 -29 -19 -40 -31 -22 -25 -24 -53 -11 -215 18
-232 -74 -420 -274 -561 -49 -34 -82 -65 -90 -84 -25 -60 10 -130 72 -145 80
-20 265 109 374 261 100 140 146 286 148 469 1 150 -15 225 -57 272 -34 36
-85 50 -122 34z"/>
<path d="M12750 7212 c-20 -21 -30 -42 -34 -78 -23 -181 -55 -274 -134 -391
-73 -108 -198 -200 -317 -234 -38 -11 -90 -25 -115 -32 -78 -22 -111 -97 -71
-163 37 -61 119 -67 257 -20 303 103 530 362 590 674 35 184 -1 272 -111 272
-27 0 -44 -8 -65 -28z"/>
<path d="M8440 7907 c-170 -70 -304 -238 -362 -452 -28 -107 -30 -298 -4 -400
21 -78 64 -171 92 -197 53 -47 131 -40 164 15 27 43 26 51 -17 158 -37 92 -38
97 -37 224 0 109 4 140 22 189 85 229 308 367 338 210 10 -52 -2 -94 -51 -175
-47 -78 -61 -123 -50 -158 20 -63 100 -81 154 -35 47 39 109 142 133 217 42
138 7 282 -87 365 -24 21 -61 44 -83 50 -63 19 -150 14 -212 -11z"/>
<path d="M10167 5450 c-96 -37 -180 -122 -220 -222 -30 -76 -30 -215 -1 -279
66 -141 231 -217 380 -174 113 32 203 109 253 214 22 47 26 70 26 146 0 76 -4
98 -26 145 -33 70 -97 135 -162 166 -66 30 -178 33 -250 4z m187 -201 c60 -47
70 -107 31 -185 -32 -63 -79 -96 -138 -96 -79 0 -117 42 -117 129 0 121 141
217 224 152z"/>
<path d="M11373 4514 c-25 -13 -42 -37 -83 -121 -42 -88 -63 -119 -123 -178
-121 -121 -263 -174 -433 -162 -95 7 -135 -3 -158 -38 -25 -38 -20 -98 9 -134
37 -43 84 -56 205 -55 130 0 205 19 329 81 226 113 458 426 406 548 -27 64
-92 90 -152 59z"/>
</g>
</svg>
