<?xml version="1.0" standalone="no"?>
<!DOCTYPE svg PUBLIC "-//W3C//DTD SVG 20010904//EN"
 "http://www.w3.org/TR/2001/REC-SVG-20010904/DTD/svg10.dtd">
<svg version="1.0" xmlns="http://www.w3.org/2000/svg"
 width="1024.000000pt" height="1024.000000pt" viewBox="0 0 1024.000000 1024.000000"
 preserveAspectRatio="xMidYMid meet">
<metadata>
Created by potrace 1.16, written by Peter Selinger 2001-2019
</metadata>
<g transform="translate(0.000000,1024.000000) scale(0.100000,-0.100000)"
fill="#000000" stroke="none">
<path d="M5779 8088 c-20 -5 -63 -31 -95 -58 -228 -190 -302 -230 -549 -300
-288 -81 -479 -230 -602 -467 -62 -120 -82 -179 -134 -391 -69 -280 -106 -354
-230 -463 -143 -124 -253 -243 -302 -326 -27 -45 -80 -152 -119 -240 -39 -87
-86 -182 -106 -212 -87 -131 -218 -238 -368 -301 -40 -16 -133 -44 -206 -60
-73 -17 -162 -40 -198 -51 -213 -70 -390 -217 -489 -408 -47 -92 -67 -156 -82
-267 -15 -118 -6 -141 73 -180 l62 -31 1 -69 c1 -91 32 -154 98 -202 26 -18
47 -35 47 -36 0 -1 -22 -64 -49 -140 -52 -142 -66 -167 -162 -273 -117 -129
-145 -266 -72 -361 38 -50 80 -64 186 -61 90 3 91 3 111 -26 51 -72 109 -124
153 -139 150 -51 279 32 322 208 17 69 37 103 71 121 85 44 220 -19 264 -125
32 -77 31 -125 -4 -229 -37 -108 -36 -144 3 -202 39 -58 91 -79 218 -89 4 0
17 -30 30 -67 42 -117 129 -190 250 -208 92 -14 234 34 352 119 109 77 162
161 206 324 37 135 73 209 141 291 92 111 204 176 445 261 220 78 320 134 425
241 126 127 172 222 255 519 15 52 47 137 73 189 39 81 61 111 157 210 170
177 218 253 310 486 92 232 155 336 271 444 122 115 248 184 499 276 406 148
632 316 719 535 27 66 33 209 12 290 -26 102 -106 218 -282 409 -38 42 -53 67
-59 98 -8 53 -27 68 -165 135 -65 31 -144 28 -247 -11 -116 -43 -198 -56 -274
-42 -133 23 -213 85 -278 216 -42 82 -168 240 -235 293 -15 11 -26 30 -26 43
0 35 -37 90 -68 101 -15 6 -40 27 -55 47 -36 46 -147 161 -167 171 -27 14 -94
19 -131 8z m119 -270 l63 -71 -88 -89 c-120 -121 -217 -187 -374 -258 -209
-94 -327 -182 -436 -328 -103 -137 -177 -300 -228 -505 -73 -291 -144 -430
-287 -561 -244 -223 -346 -390 -437 -711 -72 -255 -164 -412 -310 -528 -135
-107 -234 -146 -532 -210 -214 -46 -344 -117 -500 -272 l-89 -89 -27 20 c-26
20 -28 27 -33 110 -6 107 -23 143 -85 180 -32 18 -44 31 -41 43 3 9 10 36 16
60 43 166 165 307 337 391 58 29 128 51 233 75 82 19 177 44 211 55 137 47
264 125 378 234 120 116 184 219 282 456 56 137 142 264 226 337 262 227 334
338 398 613 45 190 83 317 116 383 75 149 199 272 343 337 36 17 128 48 203
70 210 61 347 134 513 274 36 30 70 54 75 54 6 0 38 -32 73 -70z m334 -393
c14 -16 42 -64 64 -105 90 -175 266 -291 464 -307 93 -7 209 14 316 57 45 18
81 27 86 22 11 -11 -100 -95 -192 -145 -100 -55 -258 -103 -416 -126 -77 -12
-174 -31 -214 -42 -259 -71 -456 -242 -557 -483 -19 -44 -53 -159 -77 -256
-77 -313 -110 -374 -330 -601 -222 -228 -295 -352 -376 -634 -72 -250 -131
-365 -245 -481 -132 -134 -271 -197 -500 -229 -286 -39 -446 -102 -610 -241
-75 -64 -139 -146 -200 -259 l-45 -83 -58 24 c-126 52 -274 24 -368 -71 -46
-46 -56 -63 -79 -141 -29 -96 -55 -130 -84 -114 -10 5 -38 36 -62 70 -59 82
-120 113 -216 110 -37 -1 -71 -2 -76 -1 -17 2 29 70 93 136 76 79 101 124 155
275 48 133 76 189 135 270 87 117 188 199 311 251 40 17 147 47 238 66 290 61
449 139 612 302 134 134 219 288 284 511 99 338 148 424 367 635 202 195 270
319 368 670 73 266 127 377 244 502 95 102 169 152 338 228 158 72 252 137
398 273 l85 79 61 -66 c34 -36 72 -79 86 -96z m1157 -583 c168 -191 209 -270
198 -377 -19 -186 -216 -340 -632 -494 -276 -102 -440 -197 -578 -334 -130
-130 -202 -252 -297 -501 -77 -203 -109 -254 -254 -400 -160 -161 -237 -302
-310 -566 -96 -347 -193 -442 -606 -585 -215 -74 -353 -160 -455 -283 -63 -76
-133 -206 -162 -302 -11 -36 -30 -98 -43 -139 -27 -91 -77 -143 -184 -197
-136 -67 -206 -47 -239 67 -33 112 -90 162 -201 175 -31 4 -56 7 -56 8 0 0 10
26 22 56 40 103 26 290 -28 378 -14 21 -10 31 42 135 48 94 70 125 139 193
134 134 255 187 507 224 305 44 471 118 635 280 143 141 203 257 312 602 80
251 137 344 328 536 209 210 290 350 353 609 57 236 63 257 103 337 49 97 149
206 238 259 87 51 195 84 356 107 159 23 269 51 376 96 97 40 215 110 287 168
30 24 58 44 61 43 4 -1 43 -44 88 -95z"/>
</g>
</svg>
