<?xml version="1.0" standalone="no"?>
<!DOCTYPE svg PUBLIC "-//W3C//DTD SVG 20010904//EN"
 "http://www.w3.org/TR/2001/REC-SVG-20010904/DTD/svg10.dtd">
<svg version="1.0" xmlns="http://www.w3.org/2000/svg"
 width="1024.000000pt" height="1024.000000pt" viewBox="0 0 1024.000000 1024.000000"
 preserveAspectRatio="xMidYMid meet">
<metadata>
Created by potrace 1.16, written by Peter Selinger 2001-2019
</metadata>
<g transform="translate(0.000000,1024.000000) scale(0.100000,-0.100000)"
fill="#000000" stroke="none">
<path d="M4605 7924 c-490 -22 -886 -75 -1080 -145 -150 -54 -231 -121 -292
-240 l-28 -54 -3 -428 c-2 -268 1 -449 8 -485 16 -87 60 -135 144 -156 l45
-12 -60 -84 c-260 -368 -368 -723 -399 -1320 -13 -246 -13 -762 0 -1030 42
-876 221 -1272 673 -1485 164 -78 392 -128 722 -161 150 -15 278 -18 760 -19
690 0 916 15 1214 81 265 59 423 138 579 288 230 221 343 556 393 1161 17 196
16 1046 0 1255 -32 413 -90 662 -216 928 -51 106 -152 272 -216 353 l-29 36
38 7 c72 11 134 69 154 142 16 58 23 798 8 882 -15 88 -61 172 -127 232 -137
125 -380 186 -947 236 -162 15 -1126 27 -1341 18z m1210 -184 c471 -32 759
-81 896 -151 57 -29 95 -65 118 -114 20 -43 21 -58 21 -449 0 -370 -1 -406
-17 -425 -21 -26 -73 -32 -423 -55 -906 -60 -1794 -57 -2735 9 -233 17 -279
25 -295 55 -6 12 -10 172 -10 416 0 382 1 399 21 440 70 146 284 211 849 259
102 9 273 20 380 25 238 10 989 5 1195 -10z m-1995 -1370 c351 -27 634 -35
1275 -35 666 0 980 10 1355 40 l165 13 25 -30 c134 -165 241 -338 312 -506 27
-63 47 -116 46 -117 -5 -5 -392 -34 -588 -45 -886 -49 -2281 -35 -3048 31
l-133 12 6 24 c9 39 81 192 132 286 51 92 149 235 209 305 34 40 39 43 78 37
22 -3 97 -10 166 -15z m-305 -835 c594 -44 1394 -62 2058 -47 618 15 840 26
1387 68 l86 7 17 -110 c36 -225 48 -408 54 -813 8 -565 -13 -956 -68 -1248
-12 -63 -27 -115 -33 -117 -39 -13 -657 -50 -1119 -66 -378 -13 -1609 -7
-1917 10 -486 27 -761 50 -777 65 -10 10 -41 170 -57 296 -30 230 -47 836 -35
1226 8 286 27 511 55 668 l17 89 66 -6 c36 -4 156 -13 266 -22z m3449 -2443
c2 -4 -14 -42 -37 -84 -232 -421 -608 -532 -1807 -531 -733 0 -1122 40 -1388
143 -148 57 -295 172 -380 297 -46 67 -95 163 -89 170 3 2 110 -3 239 -11 965
-65 2089 -69 3053 -10 205 12 354 25 397 33 4 0 9 -3 12 -7z"/>
<path d="M6173 7510 c-13 -11 -24 -38 -28 -62 -8 -59 0 -519 10 -541 4 -10 21
-25 37 -33 42 -22 85 -10 109 29 17 29 19 53 19 295 0 318 -4 332 -94 332 -18
0 -41 -9 -53 -20z"/>
<path d="M4064 7510 c-52 -21 -54 -34 -54 -322 0 -266 0 -267 24 -294 31 -37
84 -38 121 -4 l25 23 0 276 c-1 297 -1 301 -54 321 -32 12 -34 12 -62 0z"/>
<path d="M3591 7446 c-48 -27 -50 -42 -50 -341 -1 -304 2 -319 53 -344 41 -19
87 -4 107 37 15 28 17 72 15 322 -1 275 -2 290 -21 309 -26 27 -74 35 -104 17z"/>
<path d="M6515 7435 l-25 -24 0 -304 c0 -342 0 -342 72 -354 32 -5 41 -1 68
25 l30 30 0 300 0 299 -25 27 c-32 35 -86 36 -120 1z"/>
<path d="M4483 7396 l-28 -24 0 -260 0 -260 24 -26 c32 -34 80 -35 118 -2 l28
24 3 233 c4 253 1 290 -29 320 -27 27 -81 25 -116 -5z"/>
<path d="M5683 7405 c-49 -21 -55 -56 -51 -323 l3 -234 28 -24 c36 -31 78 -31
114 0 l28 24 3 234 c4 270 -1 302 -53 324 -40 16 -32 17 -72 -1z"/>
<path d="M5199 7354 c-24 -26 -24 -26 -27 -292 -2 -147 0 -277 3 -290 15 -61
90 -82 141 -39 l27 23 1 288 1 288 -28 24 c-38 33 -86 32 -118 -2z"/>
<path d="M4915 7335 l-25 -24 0 -316 0 -316 25 -24 c34 -35 78 -33 116 4 l29
29 0 301 c0 199 -4 308 -11 324 -23 50 -95 62 -134 22z"/>
<path d="M4302 4991 c-164 -42 -219 -268 -91 -375 114 -97 272 -65 341 68 37
72 21 185 -35 244 -49 53 -144 80 -215 63z"/>
<path d="M5798 4986 c-90 -33 -139 -94 -146 -181 -7 -80 5 -121 45 -166 76
-84 174 -103 268 -51 117 64 150 217 71 325 -49 67 -162 102 -238 73z"/>
<path d="M4865 4540 c-39 -15 -48 -37 -42 -100 20 -225 307 -332 481 -179 91
80 128 222 70 268 -15 12 -37 21 -49 21 -35 0 -72 -35 -80 -77 -10 -54 -39
-89 -90 -109 -43 -16 -47 -16 -91 1 -49 18 -84 62 -84 103 0 28 -51 82 -77 81
-10 0 -27 -4 -38 -9z"/>
</g>
</svg>
