<?xml version="1.0" standalone="no"?>
<!DOCTYPE svg PUBLIC "-//W3C//DTD SVG 20010904//EN"
 "http://www.w3.org/TR/2001/REC-SVG-20010904/DTD/svg10.dtd">
<svg version="1.0" xmlns="http://www.w3.org/2000/svg"
 width="1024.000000pt" height="1024.000000pt" viewBox="0 0 1024.000000 1024.000000"
 preserveAspectRatio="xMidYMid meet">
<metadata>
Created by potrace 1.16, written by Peter Selinger 2001-2019
</metadata>
<g transform="translate(0.000000,1024.000000) scale(0.100000,-0.100000)"
fill="#000000" stroke="none">
<path d="M3814 8396 c-115 -26 -187 -76 -228 -158 -34 -68 -33 -120 3 -210 48
-119 262 -617 365 -847 52 -118 93 -217 91 -221 -2 -4 -28 -10 -57 -14 -29 -3
-120 -21 -203 -40 -369 -84 -557 -175 -642 -309 -37 -59 -56 -165 -49 -272 22
-301 269 -2297 377 -3032 113 -779 145 -943 219 -1115 167 -389 555 -510 1589
-495 712 10 1053 84 1242 270 145 142 209 310 279 733 56 339 188 1290 264
1904 107 862 121 986 192 1688 6 57 4 66 -17 88 -26 27 -64 31 -96 9 -16 -11
-23 -29 -27 -68 -3 -28 -15 -142 -26 -252 -83 -803 -207 -1798 -346 -2780 -64
-453 -110 -729 -145 -864 -88 -343 -235 -469 -624 -536 -471 -81 -1380 -66
-1730 29 -318 86 -428 226 -514 651 -44 216 -141 895 -271 1890 -11 83 -51
407 -89 720 -145 1182 -152 1266 -113 1342 38 73 124 128 291 185 170 58 545
139 561 121 7 -7 215 -467 228 -503 18 -51 84 -68 122 -30 36 36 53 -11 -285
755 -196 445 -417 957 -413 959 2 1 36 8 76 14 72 12 140 39 175 70 9 8 20 12
23 9 4 -3 84 -208 179 -454 215 -558 499 -1268 520 -1299 21 -33 87 -34 109
-2 9 12 16 30 16 40 0 10 -83 226 -184 480 -244 616 -429 1092 -507 1306 -26
74 -56 148 -66 165 -40 67 -169 100 -289 73z m163 -153 c2 -6 -6 -21 -19 -33
-55 -53 -193 -87 -233 -57 -20 15 -20 15 0 38 38 42 113 70 184 67 38 -2 66
-8 68 -15z"/>
<path d="M5816 7509 c-359 -46 -670 -265 -828 -584 -42 -85 -69 -163 -70 -206
-2 -54 60 -87 112 -59 11 6 27 39 40 82 52 172 161 324 312 439 173 130 346
189 553 189 244 0 449 -80 623 -244 163 -155 259 -334 288 -538 7 -53 17 -65
62 -74 25 -5 36 -1 58 21 24 24 26 31 20 78 -27 208 -127 413 -280 574 -168
178 -395 292 -641 322 -102 12 -150 12 -249 0z"/>
<path d="M5696 7258 c-9 -12 -16 -28 -16 -35 0 -36 116 -419 132 -435 36 -36
111 -8 110 43 0 29 -98 384 -115 419 -18 36 -88 41 -111 8z"/>
<path d="M6134 7260 c-13 -5 -28 -26 -37 -52 -106 -305 -127 -371 -127 -391 0
-54 85 -79 114 -34 26 40 146 389 146 423 0 51 -44 75 -96 54z"/>
<path d="M5367 7062 c-30 -33 -21 -79 21 -121 225 -222 304 -291 332 -291 38
0 60 24 60 65 0 30 -17 50 -171 199 -181 175 -205 189 -242 148z"/>
<path d="M6445 6997 c-61 -44 -301 -231 -327 -256 -34 -31 -37 -72 -6 -101 40
-37 53 -31 256 127 185 143 192 150 192 189 0 63 -57 83 -115 41z"/>
<path d="M5183 6550 c-44 -18 -42 -103 3 -120 36 -14 443 -13 483 1 55 19 62
92 12 118 -24 13 -466 14 -498 1z"/>
<path d="M6182 6520 c-25 -11 -45 -54 -37 -80 13 -40 37 -48 235 -69 244 -26
282 -27 303 -3 21 23 22 76 3 95 -15 15 -31 17 -276 42 -85 9 -166 17 -180 20
-14 2 -35 0 -48 -5z"/>
<path d="M3457 6318 c-29 -22 -32 -71 -5 -102 19 -23 50 -33 198 -70 656 -165
1697 -201 2580 -90 283 35 638 117 680 156 30 28 27 83 -5 104 -29 19 -32 18
-218 -30 -269 -70 -615 -115 -1057 -137 -259 -13 -898 -7 -1115 10 -361 29
-719 87 -910 146 -90 28 -124 31 -148 13z"/>
<path d="M3460 6090 c-11 -11 -20 -32 -20 -47 0 -43 100 -883 186 -1563 119
-946 219 -1670 255 -1843 41 -205 106 -337 217 -439 142 -131 332 -177 820
-200 406 -18 850 9 1090 68 145 35 267 120 350 244 45 67 97 204 122 319 32
146 171 1168 270 1981 135 1104 171 1430 160 1450 -22 41 -85 53 -113 22 -13
-14 -30 -134 -76 -522 -142 -1192 -168 -1401 -247 -1985 -118 -881 -139 -998
-201 -1124 -71 -143 -174 -223 -328 -256 -193 -40 -338 -50 -775 -50 -783 0
-960 50 -1080 308 -65 138 -76 196 -174 907 -82 589 -210 1610 -311 2480 -16
138 -32 234 -41 248 -19 29 -76 30 -104 2z"/>
<path d="M4347 5722 c-56 -62 44 -239 165 -293 80 -35 193 -34 270 4 61 30
108 77 108 108 0 27 -35 59 -66 59 -14 0 -46 -14 -70 -32 -38 -27 -52 -31
-102 -31 -33 1 -72 8 -89 16 -44 23 -91 81 -104 129 -6 24 -16 46 -23 50 -21
14 -73 8 -89 -10z"/>
<path d="M5523 5732 c-7 -5 -20 -33 -29 -63 -20 -67 -73 -120 -137 -139 -58
-16 -103 -7 -158 30 -52 35 -81 38 -109 10 -45 -45 -4 -106 104 -156 51 -23
68 -26 130 -22 119 8 224 74 270 171 37 80 41 117 16 150 -22 27 -61 36 -87
19z"/>
<path d="M6321 5707 c-32 -16 -37 -38 -46 -190 l-7 -127 32 -14 c46 -19 80 -9
95 28 7 17 16 88 20 157 7 125 7 126 -16 143 -28 19 -46 20 -78 3z"/>
<path d="M4100 5260 c-24 -24 -25 -41 -4 -86 17 -36 67 -80 122 -108 95 -49
222 -40 320 24 65 42 92 76 92 118 0 33 -13 47 -51 57 -20 5 -35 -1 -70 -31
-24 -20 -58 -43 -76 -50 -76 -32 -178 -5 -228 60 -32 42 -73 48 -105 16z"/>
<path d="M5753 5243 c-34 -45 -93 -72 -156 -73 -59 0 -103 18 -141 59 -51 53
-126 34 -126 -32 0 -38 60 -101 127 -134 76 -37 192 -38 270 -4 68 30 153 118
153 159 0 37 -28 62 -68 62 -24 0 -37 -8 -59 -37z"/>
<path d="M6256 5108 c-24 -22 -26 -35 -63 -370 -36 -339 -37 -347 -19 -367 23
-25 78 -28 100 -5 21 20 19 8 60 382 39 345 39 354 -10 372 -35 14 -40 13 -68
-12z"/>
<path d="M4888 5029 c-22 -12 -23 -60 -3 -99 36 -69 108 -81 160 -26 43 46 53
95 24 119 -28 22 -32 22 -67 -8 -29 -24 -30 -24 -43 -6 -18 24 -49 33 -71 20z"/>
<path d="M6128 4083 c-11 -13 -32 -155 -78 -540 -34 -287 -59 -531 -55 -541 3
-11 19 -25 36 -32 37 -16 75 -2 88 32 5 13 21 122 36 243 14 121 41 352 61
514 32 270 34 295 19 317 -19 30 -83 34 -107 7z"/>
<path d="M4459 3585 c-67 -37 -34 -135 45 -135 29 0 66 42 66 75 0 53 -63 87
-111 60z"/>
<path d="M5180 3102 c-53 -16 -70 -97 -28 -126 47 -33 101 -13 115 42 12 49
-39 99 -87 84z"/>
</g>
</svg>
