<?xml version="1.0" standalone="no"?>
<!DOCTYPE svg PUBLIC "-//W3C//DTD SVG 20010904//EN"
 "http://www.w3.org/TR/2001/REC-SVG-20010904/DTD/svg10.dtd">
<svg version="1.0" xmlns="http://www.w3.org/2000/svg"
 width="1024.000000pt" height="1024.000000pt" viewBox="0 0 1024.000000 1024.000000"
 preserveAspectRatio="xMidYMid meet">
<metadata>
Created by potrace 1.16, written by Peter Selinger 2001-2019
</metadata>
<g transform="translate(0.000000,1024.000000) scale(0.100000,-0.100000)"
fill="#000000" stroke="none">
<path d="M5975 7603 c-293 -34 -491 -84 -742 -184 -116 -46 -132 -50 -168 -41
-22 5 -103 26 -180 45 -166 43 -384 82 -550 98 -158 15 -509 15 -660 0 -386
-40 -747 -164 -976 -335 -111 -84 -255 -235 -299 -316 -19 -34 -62 -93 -95
-129 -163 -178 -280 -413 -315 -633 -17 -107 -8 -324 18 -404 48 -151 166
-311 285 -385 29 -18 54 -34 55 -35 2 -1 -14 -74 -36 -161 -81 -317 -143 -660
-179 -993 -25 -237 -25 -681 0 -800 50 -231 160 -396 330 -499 157 -93 361
-140 710 -162 220 -14 448 -6 1082 36 1010 68 1210 78 1840 95 209 5 459 12
555 15 934 30 1293 151 1464 493 69 135 80 199 80 442 1 248 -14 367 -91 710
-71 322 -148 579 -293 980 -50 138 -51 145 -34 157 161 112 222 180 289 318
65 135 79 203 78 375 0 173 -19 256 -88 396 -54 110 -113 192 -198 271 -109
101 -280 202 -397 233 -27 7 -71 33 -110 64 -240 194 -527 306 -885 346 -83 9
-421 12 -490 3z m401 -173 c379 -30 682 -148 896 -349 122 -115 188 -215 238
-361 31 -90 39 -300 16 -421 -33 -178 -112 -357 -243 -555 -44 -66 -86 -130
-92 -142 -15 -29 61 -288 247 -839 84 -249 157 -480 166 -530 31 -172 15 -303
-50 -401 -65 -98 -146 -137 -350 -166 -284 -41 -456 -50 -1594 -86 -311 -10
-906 -37 -1340 -60 -576 -31 -988 -29 -1165 4 -112 22 -201 68 -247 130 -59
79 -73 139 -72 301 0 131 4 160 61 440 92 447 133 736 133 932 l0 73 -68 72
c-390 415 -535 745 -466 1061 20 94 101 257 161 327 271 313 697 476 1293 496
374 13 822 -51 1149 -164 l55 -18 96 42 c270 119 562 193 835 213 174 12 199
12 341 1z m1370 -615 c147 -148 223 -326 224 -526 0 -239 -112 -445 -295 -541
-74 -38 -162 -68 -202 -68 l-24 0 25 33 c49 64 136 245 176 363 53 161 74 296
66 444 -7 160 -24 229 -93 389 -10 23 55 -27 123 -94z m-5482 -566 c9 -88 53
-224 106 -336 76 -160 149 -265 334 -482 l80 -94 -57 7 c-276 35 -477 189
-550 421 -43 137 -24 357 44 516 25 58 33 52 43 -32z m5366 -836 c99 -256 205
-598 280 -905 186 -765 149 -1133 -134 -1324 -71 -47 -82 -43 -45 16 40 65 84
196 104 307 19 111 19 343 1 483 -30 220 -58 319 -276 970 -87 261 -160 486
-162 499 -3 23 2 25 77 41 44 10 87 18 96 19 13 1 28 -28 59 -106z m-5023
-227 c37 -8 94 -17 127 -21 l59 -7 -7 -75 c-10 -107 -59 -399 -100 -594 -60
-285 -104 -529 -121 -674 -30 -256 -18 -532 31 -695 18 -61 58 -146 82 -172
25 -29 -6 -23 -88 18 -136 68 -231 195 -277 369 -28 109 -25 600 6 855 47 392
174 1010 208 1010 6 0 42 -6 80 -14z m5063 -1579 c-29 -254 -138 -438 -310
-520 -136 -65 -284 -82 -840 -97 -1029 -27 -1371 -42 -2110 -96 -899 -64
-1209 -68 -1366 -14 -198 69 -288 215 -316 518 -6 67 -8 125 -5 128 3 3 21
-11 40 -33 83 -91 226 -141 467 -163 149 -14 689 -9 1000 10 399 23 1024 51
1470 65 701 22 1003 34 1210 51 429 34 597 78 714 186 28 25 52 45 53 45 1 -1
-3 -37 -7 -80z"/>
<path d="M4118 6795 c-279 -47 -509 -213 -623 -450 -59 -120 -79 -225 -72
-365 10 -205 71 -333 238 -499 153 -152 160 -190 67 -342 -152 -250 -188 -438
-129 -672 79 -309 354 -524 703 -553 159 -12 362 36 598 142 72 32 98 38 170
42 77 3 96 0 210 -36 192 -61 228 -67 405 -66 138 1 173 5 256 26 97 26 228
86 309 141 144 99 269 262 325 426 54 158 56 308 9 488 -47 176 -49 195 -30
254 10 29 34 77 55 108 151 224 211 395 212 597 0 125 -20 214 -71 319 -70
143 -181 254 -325 325 -257 127 -572 111 -970 -50 -227 -92 -271 -92 -463 -2
-167 80 -211 96 -345 131 -196 52 -366 63 -529 36z m392 -185 c126 -26 267
-75 416 -145 236 -112 318 -111 604 3 358 143 602 158 815 53 191 -95 300
-273 298 -491 0 -148 -34 -245 -155 -445 -97 -162 -118 -219 -118 -324 0 -61
7 -101 32 -177 29 -91 32 -110 32 -234 0 -121 -3 -142 -26 -202 -38 -101 -85
-174 -163 -253 -136 -140 -310 -214 -520 -222 -148 -7 -227 5 -392 58 -218 69
-329 65 -524 -22 -180 -79 -331 -119 -454 -119 -150 0 -325 66 -423 159 -119
115 -176 250 -177 416 0 128 27 219 100 335 74 119 92 158 104 226 13 72 2
154 -30 216 -12 23 -72 95 -134 158 -119 122 -153 174 -179 277 -20 76 -20
221 -1 293 57 216 254 391 501 443 102 23 276 21 394 -3z"/>
<path d="M4045 6371 c-60 -27 -105 -83 -105 -131 0 -50 27 -70 92 -70 58 0 95
13 131 48 60 57 71 108 32 147 -30 31 -91 33 -150 6z"/>
</g>
</svg>
