<?xml version="1.0" standalone="no"?>
<!DOCTYPE svg PUBLIC "-//W3C//DTD SVG 20010904//EN"
 "http://www.w3.org/TR/2001/REC-SVG-20010904/DTD/svg10.dtd">
<svg version="1.0" xmlns="http://www.w3.org/2000/svg"
 width="1024.000000pt" height="1024.000000pt" viewBox="0 0 1024.000000 1024.000000"
 preserveAspectRatio="xMidYMid meet">
<metadata>
Created by potrace 1.16, written by Peter Selinger 2001-2019
</metadata>
<g transform="translate(0.000000,1024.000000) scale(0.100000,-0.100000)"
fill="#000000" stroke="none">
<path d="M2992 9458 c-16 -20 -40 -112 -58 -223 -23 -136 -22 -379 1 -510 72
-415 330 -777 707 -991 96 -55 266 -121 380 -149 108 -26 228 -40 443 -53
l130 -7 -81 -33 c-238 -97 -448 -269 -594 -489 -167 -250 -235 -445 -350
-1008 -173 -848 -255 -1104 -570 -1775 -160 -341 -207 -449 -252 -580 -169
-498 -153 -996 47 -1425 147 -316 401 -588 746 -799 415 -253 937 -401 1494
-422 416 -17 968 74 1348 222 148 58 384 177 497 252 315 208 560 478 705 777
102 210 152 416 162 665 11 279 -35 524 -156 842 -12 32 -103 221 -203 420
-200 404 -262 544 -344 781 -90 262 -156 512 -250 940 -137 627 -205 822 -379
1082 -226 340 -581 563 -990 623 l-120 17 -3 115 c-12 428 143 900 409 1247
91 119 82 126 -271 243 -151 49 -282 90 -291 90 -24 0 -43 -27 -77 -110 -63
-157 -129 -413 -153 -595 -17 -137 -17 -137 -72 -57 -60 89 -200 227 -304 301
-200 143 -390 222 -798 331 -121 32 -250 68 -285 80 -98 33 -236 101 -324 158
-79 52 -123 64 -144 40z m102 -137 c22 -24 197 -110 296 -146 41 -15 192 -58
335 -97 287 -77 403 -117 545 -188 386 -193 609 -479 675 -864 16 -93 20 -259
8 -365 l-6 -63 -31 7 c-97 20 -174 26 -424 35 -214 7 -299 14 -375 30 -296 62
-518 180 -717 380 -197 197 -318 429 -365 694 -19 114 -20 352 0 472 21 132
26 141 59 105z m2313 -199 c117 -38 216 -71 219 -75 3 -3 -12 -29 -34 -59
-195 -260 -346 -661 -383 -1016 -12 -114 -8 -403 6 -434 7 -18 14 -20 160 -38
475 -59 851 -335 1070 -785 96 -198 143 -357 256 -870 110 -501 192 -793 298
-1067 89 -229 113 -281 308 -673 216 -434 277 -598 324 -865 20 -110 18 -422
-3 -535 -60 -321 -190 -577 -423 -831 -386 -422 -1036 -703 -1772 -765 -206
-17 -588 -7 -768 21 -634 97 -1194 374 -1531 757 -380 432 -495 1016 -320
1618 52 179 116 331 321 759 248 519 377 930 530 1686 93 462 151 658 244 835
71 136 135 228 224 321 105 111 217 194 352 260 130 63 247 98 409 123 87 14
123 23 132 36 21 28 29 119 29 315 0 177 -2 191 -34 315 -36 142 -37 174 -6
401 34 245 139 634 172 634 4 0 104 -31 220 -68z"/>
<path d="M4116 8254 c-26 -25 -19 -51 26 -100 61 -66 152 -131 252 -180 104
-51 129 -54 152 -19 25 38 7 67 -52 89 -82 30 -176 91 -249 160 -71 68 -100
80 -129 50z"/>
<path d="M5736 6151 c-40 -27 -55 -57 -56 -112 0 -52 23 -90 70 -114 57 -30
127 -12 169 41 43 55 16 171 -45 194 -41 16 -106 12 -138 -9z"/>
<path d="M4356 6099 c-67 -19 -100 -87 -72 -153 17 -40 50 -65 97 -72 78 -13
147 83 115 159 -23 55 -82 83 -140 66z"/>
<path d="M5040 5680 c-11 -7 -16 -39 -20 -132 -4 -68 -12 -133 -18 -145 -49
-91 -120 -61 -150 62 -16 64 -19 70 -45 73 -40 5 -57 -14 -57 -63 0 -88 46
-172 113 -206 81 -42 190 -3 224 80 8 20 17 38 18 40 2 1 20 -10 41 -25 31
-24 47 -29 94 -29 74 0 121 31 155 100 53 110 40 200 -28 193 -31 -3 -32 -5
-43 -70 -18 -109 -63 -151 -120 -113 -32 20 -50 64 -68 156 -7 39 -20 75 -27
80 -18 11 -50 11 -69 -1z"/>
<path d="M7045 3630 c-17 -19 -16 -23 20 -122 20 -57 49 -152 64 -213 24 -94
32 -112 54 -125 25 -14 28 -13 49 7 l22 23 -18 87 c-22 109 -80 288 -106 331
-23 37 -57 42 -85 12z"/>
<path d="M7236 2957 c-15 -11 -18 -26 -17 -77 1 -70 18 -100 56 -100 35 0 45
20 45 87 0 50 -4 67 -20 83 -23 23 -39 25 -64 7z"/>
</g>
</svg>
