<?xml version="1.0" standalone="no"?>
<!DOCTYPE svg PUBLIC "-//W3C//DTD SVG 20010904//EN"
 "http://www.w3.org/TR/2001/REC-SVG-20010904/DTD/svg10.dtd">
<svg version="1.0" xmlns="http://www.w3.org/2000/svg"
 width="1024.000000pt" height="1024.000000pt" viewBox="0 0 1024.000000 1024.000000"
 preserveAspectRatio="xMidYMid meet">
<metadata>
Created by potrace 1.16, written by Peter Selinger 2001-2019
</metadata>
<g transform="translate(0.000000,1024.000000) scale(0.100000,-0.100000)"
fill="#000000" stroke="none">
<path d="M4410 8050 c-278 -16 -688 -50 -770 -64 -47 -8 -128 -17 -180 -21
-52 -3 -126 -13 -165 -21 -38 -8 -124 -26 -190 -39 -150 -30 -279 -71 -327
-102 -42 -28 -79 -80 -98 -138 -14 -42 -9 -242 10 -391 21 -162 40 -403 33
-420 -3 -10 -48 -73 -99 -141 -171 -227 -244 -391 -264 -594 -6 -58 -15 -121
-20 -140 -6 -19 -15 -95 -20 -169 -6 -74 -20 -234 -32 -355 -20 -202 -22 -273
-22 -865 0 -429 4 -680 12 -750 7 -58 21 -222 32 -365 11 -143 24 -278 29
-300 6 -22 15 -92 21 -155 20 -208 63 -342 128 -408 88 -88 426 -187 912 -267
80 -13 183 -31 230 -39 47 -9 151 -23 230 -31 80 -8 156 -17 170 -20 23 -4
145 -16 500 -47 91 -8 313 -13 595 -13 379 0 494 4 730 23 154 12 325 29 380
37 55 8 149 19 209 25 60 6 159 19 220 30 61 10 149 24 196 30 47 7 112 19
145 27 33 8 112 25 175 38 369 75 549 147 615 247 52 79 89 315 160 1032 42
424 45 1416 6 1841 -11 116 -22 251 -26 300 -3 50 -12 126 -20 170 -8 44 -19
127 -25 183 -19 175 -96 336 -265 557 -93 121 -89 101 -65 298 12 94 28 210
37 257 10 50 17 142 17 225 1 133 0 143 -27 196 -34 70 -78 102 -191 139 -144
47 -390 96 -585 115 -85 9 -173 20 -196 25 -23 5 -105 14 -181 20 -76 5 -227
18 -334 26 -150 13 -351 17 -875 19 -374 2 -741 -1 -815 -5z m1650 -239 c560
-49 669 -60 804 -81 229 -36 475 -91 514 -116 28 -19 29 -52 2 -249 -44 -320
-48 -339 -69 -356 -25 -20 -199 -56 -311 -64 -47 -4 -125 -12 -175 -20 -129
-19 -178 -23 -385 -35 -102 -6 -222 -15 -268 -21 -140 -17 -731 -39 -1045 -39
-336 0 -713 13 -987 35 -102 8 -281 22 -397 30 -117 8 -252 21 -300 29 -49 8
-137 20 -198 26 -127 12 -261 42 -281 62 -17 16 -27 84 -55 350 -20 192 -20
210 -5 233 20 31 92 53 306 93 296 56 350 63 599 83 135 10 293 24 351 29 58
6 182 15 275 20 209 10 1481 4 1625 -9z m-3009 -1071 c30 -6 133 -19 229 -29
96 -11 238 -26 315 -35 142 -16 436 -37 825 -58 118 -7 442 -12 720 -12 463 0
665 6 1050 34 74 5 211 14 303 20 93 6 210 17 260 24 51 8 130 17 177 21 47 3
154 16 239 27 l154 22 47 -51 c120 -130 271 -396 288 -508 32 -202 51 -338 57
-405 3 -41 13 -124 20 -185 21 -161 40 -625 40 -975 0 -543 -20 -823 -111
-1557 -15 -124 -49 -276 -66 -300 -30 -39 -319 -120 -678 -188 -69 -13 -145
-28 -170 -33 -25 -6 -90 -16 -145 -22 -55 -6 -158 -20 -230 -30 -71 -10 -166
-22 -210 -25 -44 -3 -163 -16 -265 -28 -170 -20 -231 -22 -745 -22 -540 0
-570 1 -835 28 -151 15 -324 34 -385 43 -60 8 -171 21 -245 30 -74 8 -171 23
-215 34 -44 10 -102 21 -130 25 -27 4 -84 15 -125 25 -41 10 -95 21 -120 25
-97 15 -358 91 -433 125 -35 17 -61 96 -77 236 -6 54 -20 144 -30 199 -11 55
-27 201 -36 325 -9 124 -21 259 -25 300 -4 41 -11 287 -15 545 -7 487 3 864
31 1115 7 69 17 175 20 235 4 61 13 143 21 183 9 40 21 126 29 191 16 139 50
232 132 366 65 105 188 271 212 285 21 12 56 12 122 0z"/>
<path d="M4980 7613 c-37 -35 -50 -95 -50 -238 0 -197 28 -259 113 -253 61 5
76 33 89 160 8 75 8 134 1 204 -10 91 -13 100 -42 126 -40 35 -72 36 -111 1z"/>
<path d="M5625 7591 c-25 -27 -29 -40 -37 -130 -14 -139 1 -273 33 -307 19
-21 31 -24 68 -22 65 4 87 40 96 154 9 106 -1 248 -21 285 -29 57 -94 66 -139
20z"/>
<path d="M4330 7542 c-36 -36 -44 -87 -38 -235 6 -152 25 -187 99 -187 74 0
93 43 93 220 1 145 -11 193 -54 215 -42 22 -68 18 -100 -13z"/>
<path d="M6271 7524 c-12 -15 -26 -45 -32 -68 -14 -52 -7 -252 10 -287 25 -51
105 -66 141 -27 30 33 40 81 40 206 0 160 -21 202 -104 202 -25 0 -40 -7 -55
-26z"/>
<path d="M3772 7524 c-43 -30 -55 -71 -55 -184 1 -120 19 -180 59 -199 31 -14
47 -14 78 0 39 18 61 87 61 194 0 115 -22 178 -67 194 -41 14 -49 14 -76 -5z"/>
<path d="M6990 7477 c-33 -16 -49 -66 -49 -153 -1 -89 13 -130 51 -150 63 -32
112 3 130 94 28 148 -39 256 -132 209z"/>
<path d="M3209 7461 c-23 -18 -24 -26 -24 -131 l0 -112 30 -24 c49 -39 102
-29 130 26 23 45 20 186 -5 228 -17 28 -25 32 -64 32 -28 0 -52 -7 -67 -19z"/>
<path d="M3425 5963 c-122 -64 -244 -302 -304 -591 -21 -101 -28 -171 -52
-528 -21 -313 6 -995 51 -1309 44 -309 81 -362 293 -414 61 -16 130 -31 152
-35 22 -4 81 -15 130 -26 50 -10 144 -27 210 -36 66 -9 145 -20 175 -25 91
-14 721 -58 930 -64 107 -4 281 -2 385 4 434 23 858 56 876 66 4 3 81 16 171
29 148 23 299 53 433 86 28 7 67 17 87 22 57 13 119 66 150 128 34 69 65 218
78 386 6 71 18 203 26 294 31 336 28 1005 -5 1215 -5 33 -15 100 -21 150 -25
195 -133 467 -228 575 -63 72 -110 90 -233 90 -57 0 -144 -7 -194 -14 -49 -8
-157 -20 -240 -26 -82 -6 -220 -18 -305 -25 -200 -19 -307 -24 -630 -30 -300
-6 -930 9 -1035 24 -38 6 -164 17 -278 26 -115 8 -250 22 -300 30 -123 20
-282 19 -322 -2z m250 -218 c39 -4 147 -15 240 -25 94 -10 278 -24 410 -30
132 -6 323 -15 425 -20 236 -13 540 -13 784 0 105 5 297 14 426 20 129 6 307
20 395 30 213 26 410 41 429 34 43 -17 146 -268 181 -444 9 -47 22 -105 28
-130 7 -30 11 -242 11 -655 1 -528 -1 -625 -16 -720 -10 -60 -24 -168 -33
-240 -20 -167 -33 -193 -105 -216 -30 -10 -75 -21 -100 -24 -25 -4 -74 -15
-110 -25 -36 -11 -112 -24 -170 -30 -58 -6 -118 -15 -135 -20 -50 -15 -152
-29 -335 -45 -96 -9 -215 -20 -265 -25 -207 -22 -1177 -11 -1340 15 -16 3
-103 12 -191 20 -89 8 -190 21 -225 29 -35 8 -109 20 -164 26 -55 6 -134 19
-175 30 -41 11 -100 24 -130 30 -30 6 -75 21 -100 33 -52 25 -48 15 -80 247
-67 486 -65 1325 4 1670 14 69 38 163 54 210 36 106 106 245 129 259 10 6 34
9 53 6 19 -2 67 -7 105 -10z"/>
</g>
</svg>
