<?xml version="1.0" encoding="UTF-8" standalone="no"?>
<!DOCTYPE svg PUBLIC "-//W3C//DTD SVG 1.1//EN" "http://www.w3.org/Graphics/SVG/1.1/DTD/svg11.dtd">
<svg width="100%" height="100%" viewBox="0 0 1024 1024" version="1.1" xmlns="http://www.w3.org/2000/svg" xmlns:xlink="http://www.w3.org/1999/xlink" xml:space="preserve" xmlns:serif="http://www.serif.com/" style="fill-rule:evenodd;clip-rule:evenodd;stroke-linejoin:round;stroke-miterlimit:2;">
    <g transform="matrix(0.1,0,0,-0.1,0,1024)">
        <path d="M4950,6714C4626,6684 4269,6604 4010,6503C3584,6335 3372,6155 3062,5695C2939,5512 2860,5427 2736,5341C2559,5218 2491,5125 2482,4992C2474,4871 2524,4781 2625,4734C2708,4695 2814,4706 2932,4766C2958,4779 2983,4790 2988,4790C2993,4790 3000,4730 3003,4658C3031,4019 3377,3623 3975,3544C4207,3513 4603,3545 5215,3646C5447,3684 5936,3747 6130,3765C6594,3806 6716,3836 6916,3960C7224,4149 7380,4466 7380,4906L7380,4996L7450,5044C7633,5169 7779,5410 7811,5637C7831,5784 7795,5906 7708,5986C7629,6059 7535,6091 7317,6120C7236,6130 7160,6144 7148,6151C7135,6157 7068,6200 6998,6246C6641,6480 6282,6610 5780,6687C5635,6709 5577,6712 5305,6715C5135,6716 4975,6716 4950,6714ZM5495,6530C5670,6517 5880,6487 6030,6454C6320,6389 6645,6256 6874,6106C7078,5974 7115,5959 7307,5935C7501,5911 7574,5881 7610,5811C7636,5758 7636,5673 7609,5584C7542,5364 7388,5193 7202,5128C7105,5095 6931,5096 6765,5133C6145,5268 5802,5310 5444,5296C5080,5282 4877,5235 4555,5087C4227,4937 4057,4880 3876,4859C3682,4836 3527,4871 3353,4977L3256,5035L3065,5035L2925,4968C2759,4889 2719,4881 2680,4920C2651,4949 2655,4998 2688,5051C2718,5098 2754,5129 2855,5197C2986,5285 3091,5403 3258,5650C3308,5724 3378,5822 3415,5867C3618,6120 3899,6288 4318,6409C4691,6516 5106,6558 5495,6530ZM5980,5085C6218,5056 6280,5045 6705,4955C6881,4917 7064,4904 7153,4923L7190,4931L7190,4847C7190,4739 7165,4595 7130,4497C7032,4229 6814,4059 6481,3991C6452,3985 6328,3971 6206,3960C5923,3935 5656,3901 5255,3840C4223,3682 3955,3681 3655,3829C3353,3979 3190,4293 3190,4728C3190,4795 3192,4850 3195,4850C3199,4850 3239,4827 3285,4800C3557,4636 3859,4621 4238,4751C4301,4773 4448,4834 4564,4887C4871,5027 5024,5073 5260,5099C5380,5113 5830,5104 5980,5085Z" style="fill-rule:nonzero;"/>
        <path d="M5839,6200C5763,6177 5720,6115 5720,6027C5720,5959 5748,5914 5810,5883C5887,5843 5959,5858 6017,5923C6091,6007 6063,6135 5960,6188C5914,6211 5884,6214 5839,6200Z" style="fill-rule:nonzero;"/>
        <path d="M4545,6156C4439,6110 4413,5958 4495,5875C4611,5760 4813,5866 4786,6028C4769,6134 4645,6199 4545,6156Z" style="fill-rule:nonzero;"/>
        <path d="M5448,5868C5387,5757 5255,5750 5191,5854C5172,5883 5162,5890 5136,5890C5088,5890 5066,5861 5073,5809C5084,5727 5206,5640 5311,5640C5446,5640 5570,5738 5570,5844C5570,5888 5548,5910 5505,5910C5476,5910 5468,5904 5448,5868Z" style="fill-rule:nonzero;"/>
    </g>
</svg>
