<?xml version="1.0" standalone="no"?>
<!DOCTYPE svg PUBLIC "-//W3C//DTD SVG 20010904//EN"
 "http://www.w3.org/TR/2001/REC-SVG-20010904/DTD/svg10.dtd">
<svg version="1.0" xmlns="http://www.w3.org/2000/svg"
 width="2048.000000pt" height="2048.000000pt" viewBox="0 0 2048.000000 2048.000000"
 preserveAspectRatio="xMidYMid meet">
<metadata>
Created by potrace 1.16, written by Peter Selinger 2001-2019
</metadata>
<g transform="translate(0.000000,2048.000000) scale(0.100000,-0.100000)"
fill="#000000" stroke="none">
<path d="M11671 15709 c-412 -36 -792 -161 -1217 -400 l-177 -100 -76 7 c-137
11 -260 -17 -465 -107 -107 -48 -574 -286 -1191 -609 -60 -32 -200 -104 -310
-160 -593 -304 -1749 -911 -2070 -1088 -808 -444 -1499 -880 -2030 -1281 -324
-245 -527 -419 -840 -720 -88 -85 -205 -192 -260 -239 -354 -303 -550 -598
-620 -932 -21 -100 -24 -310 -6 -409 10 -50 10 -88 0 -174 -16 -145 -6 -433
21 -602 89 -567 325 -1110 644 -1482 431 -503 1017 -793 1870 -926 192 -29
574 -32 740 -4 283 48 597 147 889 281 43 20 83 36 90 36 7 0 21 -46 35 -116
50 -250 167 -547 302 -764 303 -489 830 -876 1422 -1045 278 -80 494 -109 803
-110 387 0 666 45 1095 180 150 47 201 55 470 75 545 41 1166 202 1730 448
449 195 770 375 1560 872 107 67 272 170 365 228 230 142 448 279 640 402 88
57 201 129 250 160 373 238 839 576 1203 874 230 188 255 211 817 736 366 342
368 344 471 426 156 124 178 179 160 389 -6 80 -4 109 27 270 55 284 62 349
62 605 0 196 -4 259 -24 380 -44 280 -105 477 -225 725 -334 691 -916 1208
-1628 1446 -473 159 -1034 156 -1417 -5 -83 -35 -83 -35 -139 -21 -31 8 -86
15 -122 15 l-65 0 -1 188 c-2 380 -81 712 -250 1052 -270 544 -707 968 -1290
1252 -390 190 -852 282 -1243 247z m549 -444 c185 -38 344 -95 535 -189 320
-158 561 -343 782 -600 123 -144 218 -287 303 -461 103 -209 161 -401 190
-635 13 -108 13 -366 0 -450 -21 -128 0 -110 -288 -252 -296 -146 -470 -245
-1072 -608 -505 -305 -662 -397 -930 -545 -250 -139 -921 -476 -1250 -629
-835 -389 -1230 -588 -1720 -869 -193 -110 -229 -133 -470 -286 -615 -391
-979 -684 -1226 -986 -263 -321 -440 -871 -445 -1383 l-2 -123 -126 -63 c-187
-94 -481 -204 -481 -181 0 4 16 34 35 66 182 298 282 770 246 1149 -57 580
-336 1045 -836 1392 -342 238 -864 414 -1385 468 -144 15 -446 20 -555 10
-231 -23 -451 -81 -605 -160 -52 -27 -98 -46 -103 -41 -11 11 9 141 34 214 67
202 198 353 460 529 166 111 227 138 558 248 396 132 662 198 1086 270 1026
175 1989 139 2955 -111 256 -66 303 -80 710 -214 406 -134 520 -164 655 -172
174 -10 302 38 437 166 348 327 624 1222 687 2226 32 508 20 926 -41 1455 -11
102 -21 206 -22 233 l-1 47 80 33 c44 18 130 62 190 98 356 214 672 334 995
379 36 5 162 7 280 5 185 -3 232 -7 340 -30z m-2230 -713 c50 -428 73 -1070
50 -1422 -40 -627 -151 -1171 -326 -1605 -95 -233 -199 -410 -275 -465 -104
-75 -138 -69 -716 121 -805 264 -1332 376 -2023 430 -205 17 -783 17 -990 1
-552 -43 -1068 -127 -1549 -253 -84 -22 -158 -38 -163 -37 -17 6 164 157 412
344 582 437 1419 953 2310 1424 107 56 260 137 340 180 80 43 287 151 460 240
173 90 477 247 675 350 1267 659 1749 900 1767 882 4 -4 16 -89 28 -190z
m5765 -1886 c298 -51 617 -179 877 -354 338 -227 606 -535 802 -921 233 -461
291 -939 177 -1461 -35 -159 -55 -324 -48 -386 l5 -45 -177 -162 c-96 -89
-261 -242 -364 -340 -146 -137 -192 -175 -202 -167 -7 6 -46 59 -87 118 -229
333 -596 677 -1003 939 -208 134 -505 288 -738 383 -58 24 -58 24 -53 60 24
162 38 812 22 1035 -28 391 -69 685 -136 995 -17 74 -30 143 -30 153 0 13 21
28 73 52 127 58 243 91 417 115 89 12 356 4 465 -14z m-1320 -198 c89 -311
162 -854 179 -1338 6 -156 -9 -509 -29 -700 -45 -425 -159 -874 -294 -1156
-89 -185 -165 -274 -250 -290 -79 -16 -357 66 -766 226 -852 333 -1632 545
-2405 654 -356 51 -629 72 -1062 82 -153 4 -278 10 -278 14 0 10 162 97 405
217 214 105 305 149 722 347 870 412 1379 685 2157 1155 143 87 347 210 451
273 318 192 602 340 950 492 94 41 178 75 187 75 13 1 22 -14 33 -51z m543
-2597 c617 -271 1178 -709 1471 -1146 37 -55 73 -115 81 -134 14 -34 14 -34
-31 -73 -409 -361 -940 -759 -1427 -1071 -413 -265 -387 -249 -1111 -701 -510
-319 -650 -405 -886 -541 -516 -297 -1012 -508 -1495 -634 -181 -47 -350 -84
-356 -78 -2 2 4 15 14 28 51 65 187 279 256 400 333 590 605 1464 770 2469 39
239 96 655 96 701 0 17 6 32 15 36 21 7 521 -165 970 -335 598 -226 830 -227
1055 -2 186 185 323 494 466 1053 9 37 18 67 20 67 2 0 43 -18 92 -39z
m-10973 -152 c113 -10 282 -36 298 -46 4 -2 3 -11 -3 -18 -19 -23 -71 -177
-97 -285 -17 -75 -26 -147 -30 -255 -7 -190 7 -286 47 -327 31 -31 46 -34 84
-17 42 19 49 54 35 164 -23 190 12 420 96 629 l28 68 41 -5 c61 -9 265 -72
386 -121 l105 -42 -2 -39 c-1 -22 -5 -114 -8 -205 -12 -266 28 -543 117 -805
47 -140 80 -210 107 -225 31 -16 79 -12 101 10 29 29 25 67 -21 187 -75 197
-121 412 -140 653 -9 125 -4 330 9 330 3 0 57 -35 121 -77 146 -96 329 -276
415 -407 112 -171 200 -389 212 -531 14 -150 -127 -452 -271 -583 -77 -71
-149 -104 -239 -110 -85 -5 -137 13 -221 78 -57 44 -112 70 -149 70 -13 0 -60
-19 -103 -42 -73 -40 -83 -43 -153 -42 -133 1 -230 56 -310 174 -48 71 -87 96
-167 109 -86 14 -157 53 -234 130 -93 92 -111 133 -118 256 -8 142 -33 174
-154 202 -151 35 -244 141 -278 317 -37 198 44 595 160 778 l28 44 99 -3 c54
-2 149 -8 209 -14z m-710 -56 c-28 -64 -87 -256 -106 -344 -19 -87 -23 -134
-23 -289 0 -172 2 -191 27 -273 35 -112 73 -188 133 -261 49 -60 177 -162 232
-185 21 -9 34 -22 38 -40 52 -242 209 -427 469 -552 88 -42 132 -70 165 -104
92 -95 205 -163 350 -210 72 -24 103 -28 205 -29 90 -1 135 4 179 17 l58 18
52 -24 c114 -54 153 -62 296 -62 122 0 143 3 217 28 45 16 121 53 169 83 48
30 89 52 92 49 10 -10 -50 -144 -110 -246 -49 -84 -87 -130 -191 -236 l-130
-133 -142 0 c-371 0 -876 126 -1245 310 -201 100 -344 199 -492 339 -395 374
-650 947 -723 1626 -5 46 -1 79 15 139 54 203 140 295 338 367 93 34 138 38
127 12z m7070 -112 c529 -50 984 -128 1395 -240 194 -53 200 -55 200 -86 0
-36 -85 -615 -126 -855 -135 -797 -304 -1392 -554 -1950 -185 -415 -457 -813
-651 -956 -46 -33 -114 -52 -212 -58 -17 -1 -18 14 -22 204 -15 918 -449 1941
-1097 2590 -429 429 -896 666 -1376 696 -101 7 -102 7 -85 27 65 73 648 468
828 560 43 21 520 78 760 90 198 10 730 -3 940 -22z m-2441 -1020 c3 -5 -36
-39 -87 -77 -128 -94 -377 -346 -455 -460 -151 -224 -210 -414 -191 -616 17
-178 82 -295 265 -473 l133 -131 -14 -94 c-29 -190 -16 -393 36 -548 45 -136
171 -281 306 -354 120 -65 226 -90 392 -94 l144 -3 71 -69 c116 -113 270 -199
436 -244 111 -30 347 -32 450 -4 199 54 379 178 543 375 59 70 71 81 79 66 6
-10 8 -103 6 -223 -5 -240 -12 -268 -76 -301 -89 -46 -291 -84 -532 -102 -527
-38 -1021 74 -1426 322 -204 124 -460 360 -586 539 -251 356 -381 809 -377
1310 2 240 32 445 91 624 30 91 138 249 242 352 76 77 106 99 186 138 54 26
125 53 165 60 81 16 191 20 199 7z m545 -155 c73 -37 270 -166 289 -189 10
-12 2 -22 -43 -57 -91 -70 -251 -245 -319 -349 -103 -157 -186 -340 -186 -412
0 -65 87 -107 130 -63 10 10 37 66 59 124 77 198 248 432 412 565 45 36 86 65
92 65 7 0 64 -52 128 -116 l116 -116 -63 -95 c-173 -258 -332 -687 -337 -906
-2 -64 0 -70 26 -93 58 -49 120 -15 132 72 36 270 181 657 316 844 29 40 31
41 50 24 43 -39 305 -443 355 -546 l16 -34 -45 -70 c-121 -187 -217 -442 -217
-575 0 -62 28 -99 76 -99 51 0 68 25 88 125 10 49 29 120 43 159 35 99 123
268 137 263 22 -7 129 -298 184 -502 l19 -70 -64 -120 c-106 -199 -234 -351
-372 -442 -249 -167 -604 -95 -778 159 -43 61 -63 81 -105 102 -61 30 -78 31
-200 10 -254 -44 -416 40 -490 254 -31 92 -31 276 0 405 48 193 24 247 -175
404 -223 175 -269 317 -176 547 70 171 274 408 498 578 121 92 284 188 318
188 9 0 48 -15 86 -34z"/>
<path d="M12287 14713 c-18 -5 -47 -52 -47 -77 0 -36 47 -65 169 -106 228 -76
411 -185 573 -339 148 -141 232 -269 298 -456 36 -103 52 -125 92 -125 99 0
107 70 31 260 -147 364 -490 664 -924 808 -120 40 -151 46 -192 35z"/>
<path d="M3890 10778 c-53 -29 -61 -104 -14 -134 20 -14 157 -32 242 -34 31 0
72 43 72 75 0 42 -46 81 -105 88 -134 17 -171 18 -195 5z"/>
<path d="M3580 10498 c-63 -3 -127 -11 -141 -16 -56 -22 -77 -94 -39 -132 19
-19 29 -19 218 -13 222 7 345 -4 480 -43 102 -30 123 -30 150 -1 31 33 29 77
-7 111 -72 69 -366 111 -661 94z"/>
<path d="M6122 9507 c-36 -39 -28 -71 48 -188 122 -186 203 -376 269 -629 32
-125 43 -140 103 -140 81 0 88 81 24 292 -68 224 -156 417 -260 575 -26 40
-59 82 -73 93 -35 27 -84 26 -111 -3z"/>
<path d="M6601 9436 c-30 -32 -26 -61 26 -186 22 -52 48 -116 57 -141 29 -81
105 -90 145 -17 14 24 13 34 -8 105 -30 104 -94 239 -119 252 -35 19 -77 13
-101 -13z"/>
<path d="M9600 13020 c-24 -24 -25 -31 -40 -206 -14 -178 -58 -399 -110 -553
-22 -65 -40 -130 -40 -143 0 -35 29 -67 67 -74 50 -10 83 31 121 146 71 215
117 459 129 676 6 122 6 122 -20 148 -32 32 -79 34 -107 6z"/>
<path d="M9171 12531 c-10 -10 -22 -34 -26 -52 -4 -19 -20 -78 -36 -133 -32
-110 -29 -136 22 -165 22 -12 31 -13 58 -1 39 16 52 39 85 155 32 109 34 167
6 195 -26 26 -83 27 -109 1z"/>
<path d="M6920 12103 c-49 -20 -69 -93 -34 -127 23 -23 36 -25 299 -30 380 -7
605 -49 920 -171 61 -23 139 -57 173 -74 74 -37 111 -39 140 -8 28 29 28 67 1
101 -42 53 -329 168 -578 231 -220 56 -396 77 -661 81 -135 2 -252 1 -260 -3z"/>
<path d="M17170 10952 c-26 -8 -60 -45 -60 -65 0 -10 13 -62 30 -115 43 -143
60 -249 66 -417 3 -82 10 -160 16 -172 15 -31 62 -49 93 -35 53 24 58 47 52
235 -6 183 -24 293 -72 437 -37 111 -72 148 -125 132z"/>
<path d="M16924 10359 c-17 -18 -19 -40 -22 -171 -2 -83 -1 -161 3 -175 3 -14
19 -30 39 -39 29 -14 37 -15 62 -3 46 23 55 54 55 203 1 173 -14 206 -90 206
-16 0 -36 -9 -47 -21z"/>
<path d="M14206 10761 c-13 -14 -22 -55 -32 -143 -29 -252 -58 -419 -100 -570
-30 -107 -30 -121 -1 -152 40 -45 105 -36 131 18 46 96 117 481 132 708 7 105
6 107 -19 132 -32 32 -86 35 -111 7z"/>
<path d="M13816 10198 c-18 -17 -31 -50 -50 -128 -14 -58 -26 -117 -26 -131 0
-51 70 -86 119 -59 23 12 47 72 66 162 21 98 19 115 -14 149 -35 35 -61 37
-95 7z"/>
<path d="M15681 9074 c-38 -48 -28 -70 83 -179 45 -44 111 -113 146 -153 73
-81 102 -91 145 -47 29 28 32 63 10 106 -25 48 -131 165 -212 234 -64 55 -82
65 -114 65 -29 0 -42 -6 -58 -26z"/>
<path d="M15590 8707 c-40 -20 -56 -58 -41 -95 21 -51 122 -152 152 -152 31 0
66 31 75 66 12 49 -60 154 -123 180 -39 17 -32 17 -63 1z"/>
<path d="M12496 7568 c-21 -19 -37 -65 -86 -247 -99 -363 -233 -718 -391
-1033 -27 -54 -49 -106 -49 -116 0 -26 28 -62 58 -73 67 -25 107 32 254 358
127 282 230 580 299 857 46 189 48 218 14 251 -30 31 -66 32 -99 3z"/>
<path d="M12815 7031 c-11 -5 -26 -19 -32 -32 -23 -46 -93 -268 -93 -293 0
-62 85 -89 129 -42 29 31 101 237 101 289 0 63 -50 100 -105 78z"/>
<path d="M10453 6830 c-53 -21 -54 -62 -8 -223 38 -134 70 -301 84 -445 6 -52
17 -104 25 -117 29 -43 102 -40 127 6 26 50 -2 296 -61 530 -47 184 -66 228
-106 245 -18 8 -35 14 -36 13 -2 0 -13 -4 -25 -9z"/>
<path d="M10842 6670 c-40 -17 -46 -49 -32 -165 16 -128 32 -155 90 -155 30 0
43 6 60 28 20 24 21 35 16 99 -10 110 -31 170 -66 188 -33 17 -36 17 -68 5z"/>
</g>
</svg>
