<?xml version="1.0" standalone="no"?>
<!DOCTYPE svg PUBLIC "-//W3C//DTD SVG 20010904//EN"
 "http://www.w3.org/TR/2001/REC-SVG-20010904/DTD/svg10.dtd">
<svg version="1.0" xmlns="http://www.w3.org/2000/svg"
 width="2048.000000pt" height="2048.000000pt" viewBox="0 0 2048.000000 2048.000000"
 preserveAspectRatio="xMidYMid meet">
<metadata>
Created by potrace 1.16, written by Peter Selinger 2001-2019
</metadata>
<g transform="translate(0.000000,2048.000000) scale(0.100000,-0.100000)"
fill="#000000" stroke="none">
<path d="M4530 17489 c-67 -27 -132 -123 -175 -259 -59 -186 -40 -411 46 -555
l41 -67 -65 -137 c-88 -184 -125 -275 -192 -476 -177 -530 -253 -1093 -215
-1581 53 -677 232 -1197 559 -1629 96 -127 326 -357 456 -456 145 -110 288
-201 428 -270 67 -34 124 -63 125 -65 2 -1 -25 -45 -61 -96 -353 -510 -611
-1131 -706 -1703 -75 -446 -73 -980 4 -1397 166 -902 596 -1555 1345 -2043
515 -336 1090 -537 1913 -666 l207 -33 0 -83 c0 -156 40 -294 119 -415 90
-138 216 -232 368 -274 52 -14 69 -15 102 -5 56 16 97 54 117 107 33 87 -13
163 -132 218 -137 64 -223 175 -245 320 -19 120 -42 111 269 111 l269 0 7 -70
c21 -248 161 -465 369 -572 121 -62 259 -81 327 -44 43 23 80 84 80 134 0 81
-55 142 -150 167 -113 30 -214 109 -260 205 -25 52 -56 194 -44 204 10 8 381
73 427 75 25 1 30 -5 61 -81 49 -118 101 -198 181 -279 120 -120 286 -200 441
-211 98 -8 138 2 184 43 67 61 77 151 23 215 -36 42 -72 58 -160 69 -94 12
-184 52 -246 110 -44 39 -127 180 -127 213 0 10 27 24 83 42 537 177 1016 461
1398 832 58 57 111 103 117 103 18 0 107 -113 160 -203 50 -84 86 -167 118
-270 40 -128 172 -178 265 -100 65 55 73 121 34 258 -52 179 -153 345 -314
518 l-61 64 61 92 60 91 29 -20 c40 -29 135 -134 182 -204 62 -91 116 -215
149 -344 25 -96 36 -123 62 -150 62 -65 149 -67 218 -5 53 48 65 95 50 192
-26 172 -117 376 -241 543 l-79 107 27 5 c15 3 65 10 112 16 l85 11 33 -38
c70 -79 144 -235 172 -360 6 -24 15 -87 20 -140 17 -158 70 -212 202 -205 32
2 105 64 120 102 16 39 10 195 -11 295 -10 50 -37 139 -60 199 -22 60 -39 112
-36 114 7 7 132 -28 191 -53 49 -22 52 -25 65 -76 21 -84 18 -333 -5 -449 -12
-60 -16 -109 -12 -132 21 -111 170 -164 256 -91 65 54 106 193 117 396 3 64 9
117 12 117 3 0 43 -35 87 -79 l82 -79 -14 -84 c-26 -163 -95 -336 -173 -433
-22 -27 -49 -67 -61 -87 -38 -70 -19 -167 42 -211 41 -30 125 -34 174 -9 91
46 203 212 274 406 14 37 22 28 54 -57 41 -108 59 -226 60 -386 l1 -144 -160
-38 c-284 -66 -609 -172 -861 -279 -652 -279 -1231 -785 -1329 -1161 -23 -87
-17 -226 12 -291 25 -54 92 -131 145 -164 158 -100 458 -145 758 -114 285 30
618 117 865 227 55 24 106 47 113 50 9 4 12 -20 12 -100 0 -229 42 -481 120
-717 118 -361 298 -601 531 -710 69 -32 190 -54 248 -45 140 23 227 62 333
150 273 227 515 770 632 1420 69 382 85 879 40 1270 -6 49 -5 52 48 120 303
387 537 795 646 1125 52 155 72 264 79 410 l5 135 43 75 c125 220 187 422 216
699 14 140 6 484 -16 661 -32 258 -96 545 -164 740 l-39 111 18 63 c17 61 24
101 35 214 7 61 -10 228 -31 322 -41 173 -107 346 -218 569 -242 483 -568 903
-942 1212 l-131 108 -33 83 c-40 103 -89 194 -148 277 -288 406 -886 792
-1688 1091 -873 325 -1747 479 -2719 480 -1025 0 -1999 -194 -2919 -582 -390
-164 -896 -441 -1133 -620 -46 -35 -56 -39 -68 -27 -30 31 -138 265 -179 390
-165 493 -152 1014 37 1614 133 418 354 870 590 1205 l78 112 42 -9 c23 -4 89
-8 147 -8 148 1 253 36 386 130 185 132 281 323 211 425 -38 57 -71 75 -137
75 -73 0 -97 -16 -167 -116 -85 -119 -170 -177 -272 -186 -75 -6 -118 17 -149
77 -49 94 -4 259 100 375 66 73 81 108 73 164 -5 35 -16 55 -49 87 -81 81
-173 68 -280 -41 -179 -182 -246 -507 -149 -726 l24 -56 -123 -164 c-353 -471
-620 -1045 -742 -1599 -98 -447 -96 -889 8 -1296 51 -200 138 -420 234 -592
l50 -91 -138 -121 c-76 -66 -210 -195 -298 -285 l-160 -165 -38 16 c-103 42
-290 143 -392 211 -341 226 -585 507 -761 875 -163 339 -241 668 -272 1136
-37 569 93 1277 344 1874 l41 97 82 0 c177 0 319 64 464 210 103 104 155 186
185 296 22 80 10 129 -44 178 -63 57 -150 62 -209 12 -16 -13 -51 -65 -78
-116 -27 -51 -70 -114 -96 -141 -86 -88 -227 -134 -286 -92 -79 55 -75 223 8
396 22 45 40 95 40 110 0 107 -124 195 -220 157z m6570 -3719 c359 -17 753
-62 1085 -126 146 -28 547 -129 700 -176 378 -116 866 -320 1140 -477 327
-188 514 -336 673 -535 61 -77 73 -100 91 -165 31 -121 41 -209 41 -378 -1
-783 -273 -1629 -786 -2438 -293 -463 -684 -883 -1026 -1105 l-88 -57 -172 -6
c-176 -6 -282 -20 -416 -57 -41 -11 -77 -18 -80 -15 -3 2 7 44 21 92 76 251
114 535 124 908 14 589 -76 1276 -242 1840 -298 1013 -807 1908 -1444 2542
-78 77 -141 143 -141 146 0 3 42 8 93 10 50 1 117 4 147 5 30 1 156 -3 280 -8z
m-1134 -139 c173 -116 271 -197 435 -361 767 -766 1353 -2011 1518 -3227 37
-269 45 -404 45 -718 1 -383 -27 -641 -99 -926 -60 -235 -128 -390 -260 -589
-113 -170 -190 -263 -336 -405 -147 -143 -228 -209 -381 -309 -416 -270 -897
-430 -1548 -512 -198 -25 -683 -30 -915 -10 -930 81 -1695 345 -2235 772 -113
90 -351 330 -424 427 -281 378 -437 798 -508 1367 -8 64 -13 216 -13 390 0
304 9 407 61 675 102 526 334 1040 670 1486 84 111 102 131 114 124 19 -11
253 -55 378 -70 148 -17 190 -12 240 30 41 34 55 75 50 140 -4 44 -11 62 -34
86 -43 45 -51 48 -221 75 -86 13 -159 27 -162 30 -9 9 320 314 338 314 5 0 44
-32 87 -71 289 -263 726 -519 887 -519 94 0 157 61 157 153 0 94 -28 121 -216
211 -216 104 -461 271 -627 426 -18 17 -13 21 116 108 268 182 638 378 1008
536 424 181 1027 346 1553 426 197 30 186 32 322 -59z m5361 -1953 c60 -56
242 -270 325 -383 85 -116 213 -325 278 -455 112 -223 174 -407 200 -592 11
-81 10 -92 -9 -151 -29 -85 -83 -190 -174 -333 -328 -517 -888 -1073 -1436
-1424 -209 -134 -474 -270 -574 -295 -17 -5 -51 9 -118 45 -104 57 -253 126
-293 136 -14 3 -26 10 -26 14 0 4 57 59 126 122 565 509 1051 1272 1368 2146
127 349 221 751 258 1100 7 61 16 112 20 112 5 0 29 -19 55 -42z m912 -2443
c48 -241 64 -389 64 -600 0 -250 -30 -449 -94 -620 -43 -116 -172 -220 -413
-335 -357 -172 -814 -281 -1171 -280 l-80 0 -48 76 c-46 71 -185 244 -219 272
-14 11 -1 21 96 71 318 167 673 412 998 689 243 207 571 555 745 788 42 57 80
101 84 96 4 -4 21 -74 38 -157z m-234 -1927 c-13 -74 -84 -269 -140 -380 -107
-214 -229 -402 -430 -662 -116 -150 -121 -155 -163 -162 -48 -7 -152 1 -222
18 -54 12 -184 74 -202 95 -9 11 -11 63 -9 197 2 150 -1 205 -19 310 -18 108
-51 239 -74 297 -6 13 13 17 133 27 338 29 707 121 1022 256 57 24 106 45 107
45 2 1 1 -18 -3 -41z m-1314 -1429 c49 -34 170 -86 254 -108 90 -24 238 -44
287 -39 31 3 33 1 42 -42 5 -25 10 -200 10 -390 1 -277 -3 -373 -17 -490 -35
-276 -103 -567 -182 -771 -40 -104 -134 -294 -177 -358 -54 -80 -153 -200
-164 -201 -20 0 -113 110 -160 189 -81 138 -135 293 -170 486 -26 144 -26 543
0 705 10 63 15 134 12 158 -16 117 -118 210 -250 228 -65 9 -128 -15 -274
-103 -274 -166 -565 -285 -824 -338 -157 -31 -339 -48 -448 -40 -128 10 -126
8 -88 61 45 62 217 228 313 300 412 311 843 507 1385 629 278 63 318 75 364
111 49 39 50 39 87 13z"/>
<path d="M14060 12650 c-30 -30 -25 -78 15 -157 38 -75 70 -186 81 -277 5 -43
13 -66 30 -83 32 -32 83 -31 115 3 21 23 24 34 22 102 -2 134 -86 361 -151
412 -32 26 -86 26 -112 0z"/>
<path d="M14161 11756 c-24 -25 -51 -136 -51 -207 0 -95 111 -124 154 -41 23
44 38 179 25 219 -19 57 -87 73 -128 29z"/>
<path d="M13957 10186 c-31 -33 -97 -194 -97 -234 0 -38 38 -82 70 -82 58 0
97 47 145 174 30 81 31 105 4 140 -28 35 -90 37 -122 2z"/>
<path d="M13668 9683 c-14 -16 -46 -59 -72 -98 -56 -84 -61 -131 -20 -172 21
-21 32 -24 61 -20 46 8 64 25 121 116 56 91 64 149 23 182 -34 28 -82 25 -113
-8z"/>
<path d="M13170 9102 c-139 -138 -150 -151 -150 -185 0 -64 60 -102 123 -76
37 15 245 217 276 269 11 19 21 48 21 63 0 40 -40 77 -84 77 -33 0 -49 -13
-186 -148z"/>
<path d="M6209 10569 c-219 -32 -402 -213 -466 -459 -22 -86 -22 -254 0 -340
44 -169 161 -322 298 -389 320 -156 678 7 796 364 23 69 27 97 27 200 0 137
-16 208 -71 324 -72 151 -227 266 -401 297 -86 15 -102 15 -183 3z m267 -248
c59 -27 88 -72 92 -146 2 -48 -2 -68 -20 -100 -67 -115 -221 -116 -280 -1 -49
93 -14 206 75 247 53 23 81 23 133 0z m-307 -487 c41 -52 17 -118 -46 -130
-67 -13 -111 80 -61 133 30 33 80 31 107 -3z"/>
<path d="M9162 10520 c-199 -52 -362 -210 -428 -414 -23 -69 -27 -99 -27 -206
-2 -207 49 -336 183 -471 149 -150 343 -207 558 -163 421 85 624 584 396 975
-133 228 -423 347 -682 279z m360 -245 c50 -38 73 -83 73 -144 -1 -110 -72
-186 -176 -186 -64 0 -98 18 -136 74 -59 86 -27 211 65 261 48 26 136 23 174
-5z m-357 -505 c26 -27 25 -84 -3 -112 -27 -28 -83 -29 -112 -3 -22 20 -27 73
-9 106 22 42 85 46 124 9z"/>
<path d="M11485 9495 c-14 -13 -25 -34 -24 -47 0 -13 26 -72 57 -133 43 -83
63 -112 83 -119 68 -23 119 33 97 110 -29 108 -111 214 -164 214 -14 0 -36
-11 -49 -25z"/>
<path d="M7112 9380 c-18 -11 -37 -32 -43 -48 -26 -67 13 -208 79 -283 40 -45
130 -94 203 -108 87 -18 216 14 294 72 18 14 23 13 50 -7 128 -97 291 -118
424 -54 103 50 197 180 208 291 6 54 4 58 -30 92 -65 65 -150 41 -181 -53 -24
-70 -50 -107 -89 -125 -91 -43 -187 3 -241 115 -14 28 -34 50 -57 62 -32 18
-41 18 -78 8 -35 -11 -48 -23 -81 -75 -64 -102 -155 -135 -231 -84 -32 21 -39
34 -80 146 -13 35 -60 71 -94 71 -11 0 -35 -9 -53 -20z"/>
<path d="M5590 9316 c-100 -22 -150 -62 -170 -135 -29 -110 91 -225 290 -278
91 -24 267 -24 337 0 99 35 149 114 125 196 -45 149 -360 266 -582 217z m253
-145 c42 -11 91 -27 109 -37 35 -17 88 -63 88 -75 0 -4 -20 -15 -45 -25 -89
-33 -283 -1 -388 66 -58 37 -59 59 -2 76 60 19 153 16 238 -5z"/>
<path d="M9870 9203 c-290 -38 -451 -209 -328 -349 62 -70 171 -104 338 -104
265 0 450 101 450 246 0 83 -63 152 -169 184 -63 20 -222 33 -291 23z m228
-154 c21 -6 49 -19 63 -30 30 -23 20 -44 -39 -77 -122 -68 -414 -67 -471 1
-11 14 -11 20 0 33 20 25 99 61 159 73 30 6 64 13 75 15 32 8 172 -2 213 -15z"/>
<path d="M11297 9112 c-25 -27 -21 -70 13 -153 34 -84 58 -109 105 -109 68 0
83 65 39 175 -14 36 -38 74 -51 85 -32 25 -85 26 -106 2z"/>
</g>
</svg>
