<?xml version="1.0" encoding="UTF-8" standalone="no"?>
<!DOCTYPE svg PUBLIC "-//W3C//DTD SVG 1.1//EN" "http://www.w3.org/Graphics/SVG/1.1/DTD/svg11.dtd">
<svg width="100%" height="100%" viewBox="0 0 1024 1024" version="1.1" xmlns="http://www.w3.org/2000/svg" xmlns:xlink="http://www.w3.org/1999/xlink" xml:space="preserve" xmlns:serif="http://www.serif.com/" style="fill-rule:evenodd;clip-rule:evenodd;stroke-linejoin:round;stroke-miterlimit:2;">
    <g transform="matrix(0.1,0,0,-0.1,0,1024)">
        <path d="M5380,7299C5273,7251 5173,7147 5115,7024C5094,6980 5085,6970 5072,6976C5063,6980 5027,6985 4994,6988C4928,6993 4871,6974 4798,6924C4714,6865 4650,6726 4650,6599L4650,6531L4608,6520C4584,6514 4524,6494 4475,6475C4116,6336 3861,6035 3791,5665L3773,5575L3732,5574C3614,5573 3606,5422 3722,5404L3757,5398L3764,5226C3783,4716 3884,4234 4071,3760C4129,3613 4295,3279 4348,3200C4391,3137 4398,3134 4635,3098C4763,3078 4824,3075 5055,3075C5328,3075 5426,3083 5640,3121C5720,3135 5749,3145 5763,3161C5792,3197 5904,3415 5981,3585C6216,4108 6350,4679 6366,5220L6371,5405L6407,5411C6521,5431 6512,5587 6398,5578L6356,5575L6343,5654C6319,5797 6277,5913 6210,6022L6179,6072L6229,6198C6280,6330 6322,6437 6385,6600C6405,6652 6424,6698 6428,6702C6432,6705 6525,6686 6635,6659C6748,6631 6859,6608 6890,6608C7022,6607 7120,6707 7120,6845C7120,6953 7060,7038 6965,7065C6924,7077 6680,7134 6217,7241C6153,7256 6126,7242 6103,7181C6094,7156 6058,7061 6022,6970C5987,6879 5924,6717 5883,6610C5842,6503 5807,6414 5806,6412C5804,6411 5777,6423 5746,6439C5715,6456 5664,6479 5631,6490L5572,6512L5568,6613C5562,6739 5537,6808 5472,6881C5428,6931 5346,6980 5308,6980C5275,6980 5281,6999 5331,7054C5367,7094 5404,7121 5455,7145C5537,7185 5558,7216 5539,7267C5518,7323 5459,7335 5380,7299ZM6590,6980C6763,6940 6915,6902 6928,6894C6960,6873 6955,6814 6920,6789C6896,6772 6890,6772 6650,6831C6515,6863 6385,6891 6360,6892L6316,6895L6189,6565C6119,6384 6058,6235 6053,6235C6048,6235 6023,6253 5997,6276L5951,6317L6086,6666C6161,6858 6226,7025 6231,7038C6237,7054 6246,7060 6258,7056C6267,7054 6417,7019 6590,6980ZM5011,6801C5030,6786 5035,6772 5035,6733L5035,6685L5184,6685L5194,6740C5203,6785 5210,6797 5232,6808C5270,6826 5304,6814 5344,6770C5379,6731 5410,6651 5410,6600C5410,6511 5344,6402 5263,6358C5135,6288 4994,6307 4894,6406C4818,6483 4796,6614 4844,6716C4884,6803 4961,6842 5011,6801ZM4743,6321C4804,6238 4920,6171 5038,6150C5179,6125 5346,6182 5451,6291L5509,6352L5565,6331C5813,6238 6014,6059 6112,5843C6146,5767 6180,5641 6180,5588C6180,5542 6193,5546 5955,5521C5608,5483 5432,5475 5000,5475C4585,5475 4463,5481 4150,5516C3944,5539 3950,5537 3950,5574C3950,5628 3989,5768 4025,5847C4131,6076 4340,6256 4600,6341C4647,6357 4690,6369 4695,6370C4701,6370 4722,6348 4743,6321ZM6197,5223C6190,5074 6174,4900 6165,4891C6163,4889 6137,4897 6108,4908C6029,4940 5964,4952 5875,4952C5727,4953 5615,4909 5474,4796C5372,4715 5308,4682 5217,4668C5124,4654 5034,4671 4898,4729C4680,4822 4544,4817 4375,4711C4292,4658 4213,4636 4142,4644C4085,4651 4008,4680 3996,4698C3970,4740 3915,5340 3936,5360C3941,5365 3993,5363 4061,5355C4418,5313 4562,5306 5010,5306C5472,5306 5704,5318 6025,5359C6102,5369 6174,5378 6184,5379C6202,5380 6203,5373 6197,5223ZM5952,4779C6016,4766 6140,4710 6140,4694C6140,4687 6131,4636 6120,4579C6044,4199 5904,3800 5722,3445L5645,3295L5545,3278C5239,3227 4921,3227 4615,3276C4560,3285 4505,3298 4494,3305C4466,3323 4298,3657 4233,3825C4143,4056 4017,4470 4032,4485C4035,4488 4070,4485 4111,4479C4217,4462 4316,4484 4423,4546C4587,4641 4648,4644 4843,4569C4999,4508 5107,4486 5203,4495C5339,4508 5438,4551 5570,4655C5717,4772 5822,4806 5952,4779Z" style="fill-rule:nonzero;"/>
        <path d="M4448,6155C4339,6098 4225,5959 4178,5827C4156,5764 4156,5760 4173,5726C4200,5668 4280,5665 4306,5720C4313,5734 4333,5776 4350,5813C4387,5892 4454,5963 4534,6009C4613,6053 4632,6109 4585,6155C4554,6187 4510,6187 4448,6155Z" style="fill-rule:nonzero;"/>
        <path d="M6009,5236C6002,5229 5659,5201 5500,5195C5348,5188 5306,5179 5290,5149C5272,5116 5279,5070 5306,5044C5331,5018 5332,5018 5448,5025C5585,5032 6000,5067 6047,5075C6100,5084 6133,5143 6114,5195C6103,5222 6026,5253 6009,5236Z" style="fill-rule:nonzero;"/>
        <path d="M5781,4463C5765,4450 5753,4415 5734,4330C5704,4198 5661,4057 5624,3974C5596,3911 5598,3874 5631,3844C5657,3821 5713,3821 5739,3844C5777,3879 5862,4122 5900,4305C5922,4414 5921,4430 5883,4460C5851,4485 5809,4486 5781,4463Z" style="fill-rule:nonzero;"/>
    </g>
</svg>
