<?xml version="1.0" standalone="no"?>
<!DOCTYPE svg PUBLIC "-//W3C//DTD SVG 20010904//EN"
 "http://www.w3.org/TR/2001/REC-SVG-20010904/DTD/svg10.dtd">
<svg version="1.0" xmlns="http://www.w3.org/2000/svg"
 width="1024.000000pt" height="1024.000000pt" viewBox="0 0 1024.000000 1024.000000"
 preserveAspectRatio="xMidYMid meet">
<metadata>
Created by potrace 1.16, written by Peter Selinger 2001-2019
</metadata>
<g transform="translate(0.000000,1024.000000) scale(0.100000,-0.100000)"
fill="#000000" stroke="none">
<path d="M4011 7705 c-132 -24 -151 -58 -105 -192 61 -181 193 -398 328 -540
96 -102 241 -213 356 -272 l85 -45 -125 -18 c-313 -45 -534 -152 -740 -358
-194 -193 -322 -441 -387 -749 -24 -112 -27 -148 -28 -326 0 -227 14 -329 72
-505 154 -474 556 -858 1096 -1046 103 -35 291 -77 405 -89 58 -7 67 -11 102
-49 82 -89 205 -117 300 -68 54 28 134 105 150 143 9 22 29 34 93 60 517 205
929 596 1135 1077 94 219 132 385 139 617 8 246 -35 451 -138 659 -125 251
-311 440 -544 556 -127 63 -226 95 -351 115 -172 28 -165 23 -94 74 237 173
433 515 465 816 6 52 4 64 -14 87 -29 37 -72 43 -198 29 -383 -43 -675 -208
-798 -450 l-27 -54 -24 59 c-98 242 -349 416 -675 469 -116 18 -375 19 -478 0z
m499 -155 c309 -62 493 -227 561 -502 18 -73 40 -368 28 -368 -25 0 -251 68
-317 95 -297 121 -519 337 -684 664 -32 63 -56 116 -54 118 2 2 39 8 82 13
105 11 267 3 384 -20z m1560 -29 c0 -37 -69 -232 -110 -309 -117 -224 -322
-405 -565 -499 -60 -23 -119 -42 -129 -43 -18 0 -19 7 -13 133 6 152 29 244
85 352 71 135 221 255 395 315 77 26 195 55 262 63 68 9 75 8 75 -12z m-169
-1004 c195 -51 331 -126 474 -259 238 -222 365 -521 365 -860 0 -402 -167
-803 -471 -1132 -173 -188 -486 -397 -717 -480 -103 -37 -107 -40 -145 -104
-41 -71 -85 -102 -143 -102 -45 0 -83 27 -129 94 -19 27 -26 29 -117 37 -671
56 -1265 511 -1429 1094 -46 163 -63 421 -39 588 47 322 174 593 369 787 198
196 419 293 753 329 54 6 198 11 320 12 134 0 257 6 308 14 57 9 153 13 295
11 187 -3 220 -6 306 -29z"/>
<path d="M5541 6358 c-60 -32 -57 -128 5 -154 45 -19 81 -9 105 30 47 75 -33
165 -110 124z"/>
<path d="M5818 6121 c-28 -25 -33 -36 -33 -76 0 -40 5 -51 33 -76 72 -65 172
-16 172 83 -1 87 -106 129 -172 69z"/>
<path d="M4331 5374 c-57 -48 -61 -143 -7 -193 30 -29 103 -39 146 -21 84 35
100 154 29 214 -24 21 -41 26 -84 26 -43 0 -60 -5 -84 -26z"/>
<path d="M4787 5360 c-25 -20 -27 -26 -27 -100 0 -191 104 -353 257 -400 79
-24 122 -25 193 -4 68 20 115 50 167 107 72 78 113 186 113 298 0 65 -21 92
-70 92 -46 0 -67 -26 -74 -91 -15 -128 -76 -225 -161 -258 -144 -54 -285 87
-285 286 0 55 -15 78 -55 86 -22 4 -38 0 -58 -16z"/>
<path d="M5793 5363 c-12 -2 -36 -17 -52 -32 -78 -73 -35 -207 69 -218 134
-13 202 156 93 232 -22 16 -78 25 -110 18z"/>
</g>
</svg>
