<?xml version="1.0" standalone="no"?>
<!DOCTYPE svg PUBLIC "-//W3C//DTD SVG 20010904//EN"
 "http://www.w3.org/TR/2001/REC-SVG-20010904/DTD/svg10.dtd">
<svg version="1.0" xmlns="http://www.w3.org/2000/svg"
 width="1024.000000pt" height="1024.000000pt" viewBox="0 0 1024.000000 1024.000000"
 preserveAspectRatio="xMidYMid meet">
<metadata>
Created by potrace 1.16, written by Peter Selinger 2001-2019
</metadata>
<g transform="translate(0.000000,1024.000000) scale(0.100000,-0.100000)"
fill="#000000" stroke="none">
<path d="M5538 6670 c-145 -25 -270 -90 -399 -208 -51 -47 -58 -50 -70 -35
-25 30 -156 110 -233 142 -118 49 -197 64 -331 64 -174 0 -325 -46 -435 -133
-30 -23 -47 -28 -120 -33 -101 -7 -221 -43 -290 -87 -63 -40 -147 -131 -183
-197 -34 -63 -67 -189 -67 -255 0 -30 -5 -50 -12 -52 -7 -2 -35 -9 -63 -15
-137 -32 -265 -131 -322 -249 -26 -56 -39 -69 -113 -120 -176 -120 -308 -285
-346 -432 -22 -85 -15 -213 16 -293 30 -79 110 -196 173 -253 106 -96 343
-233 483 -278 28 -9 78 -37 110 -62 363 -283 813 -457 1344 -520 100 -12 219
-18 385 -17 567 0 1096 102 1610 310 570 230 939 547 1010 868 58 260 -64 498
-354 693 -102 68 -274 155 -383 193 l-67 24 1 135 c0 153 -12 214 -67 325
-110 224 -378 366 -664 353 -66 -3 -80 0 -108 20 -132 94 -338 140 -505 112z
m279 -147 c29 -10 53 -22 53 -28 1 -5 -20 -17 -47 -26 -70 -24 -163 -72 -217
-114 l-48 -37 -93 27 c-52 14 -119 29 -149 32 -31 3 -56 9 -56 14 0 13 95 78
154 105 121 55 288 67 403 27z m-1176 -29 c54 -10 117 -31 174 -59 86 -42 134
-72 124 -78 -2 -1 -43 -15 -90 -30 -47 -16 -121 -50 -165 -77 l-79 -48 -30 27
c-82 76 -232 167 -315 192 -22 7 -40 16 -40 20 0 10 117 48 178 59 77 13 155
11 243 -6z m1686 -100 c179 -37 312 -137 384 -289 26 -56 49 -142 49 -187 0
-14 -14 -7 -67 37 -81 66 -201 127 -308 156 -110 29 -340 37 -444 15 l-74 -15
-45 39 c-24 22 -64 52 -88 67 -24 16 -43 32 -41 38 5 15 136 83 205 106 144
48 299 60 429 33z m-2162 -79 c87 -23 209 -88 287 -151 64 -51 188 -193 188
-214 0 -5 -15 -1 -32 10 -61 35 -166 68 -269 86 -223 37 -477 -13 -650 -129
-56 -38 -70 -43 -106 -39 l-43 4 0 47 c0 96 44 201 116 281 39 43 129 93 205
115 67 19 218 14 304 -10z m1228 -84 c120 -31 327 -138 327 -169 0 -4 -20 -15
-44 -25 -62 -26 -195 -125 -244 -183 -36 -43 -49 -51 -109 -67 -99 -26 -222
-90 -291 -152 l-60 -55 -11 30 c-5 17 -27 56 -48 87 -20 31 -61 108 -90 170
-28 62 -70 139 -92 170 -22 31 -38 60 -36 64 3 3 35 25 72 47 72 43 187 86
275 101 80 15 261 5 351 -18z m924 -237 c375 -83 592 -420 458 -712 -23 -51
-113 -152 -135 -152 -4 0 -22 28 -40 63 -173 335 -472 552 -843 612 -51 8
-112 15 -137 15 l-45 1 30 25 c44 37 220 119 295 139 136 35 287 38 417 9z
m-1912 -93 c246 -73 424 -237 465 -428 10 -44 8 -62 -15 -143 -32 -116 -45
-140 -104 -203 -39 -42 -120 -107 -134 -107 -2 0 -12 21 -22 48 -88 235 -266
455 -490 604 -90 60 -265 148 -294 148 -28 0 -5 20 52 45 152 67 384 82 542
36z m-719 -176 c226 -57 465 -214 615 -405 98 -125 144 -212 190 -355 22 -71
52 -161 65 -200 44 -127 28 -147 -66 -89 l-61 37 -115 -13 c-184 -20 -385 7
-609 82 -451 151 -673 393 -614 670 31 145 124 244 268 284 80 21 216 17 327
-11z m2142 -64 c235 -61 471 -226 588 -411 110 -174 185 -311 182 -332 -3 -25
-10 -26 -124 -13 l-61 7 -80 -55 c-50 -34 -111 -64 -159 -81 -272 -89 -686
-82 -922 16 -191 79 -284 210 -284 398 0 317 247 507 647 496 91 -3 155 -10
213 -25z m1235 -150 c147 -71 250 -142 349 -241 114 -114 150 -185 156 -311 6
-123 -32 -231 -124 -349 -296 -382 -1060 -714 -1871 -814 -671 -83 -1264 -6
-1749 228 -72 35 -134 68 -137 73 -3 5 43 -1 103 -13 393 -79 883 -115 1311
-95 448 21 755 63 1132 157 698 173 1110 442 1167 761 15 81 2 162 -33 215
-19 28 -29 33 -62 33 -33 0 -42 -4 -53 -27 -11 -23 -9 -34 9 -80 68 -171 -86
-379 -400 -541 -420 -217 -1037 -353 -1766 -388 -676 -34 -1469 81 -1920 278
-223 97 -396 235 -463 372 -35 71 -37 80 -37 171 0 136 32 199 166 333 55 54
103 95 109 92 5 -3 10 -28 10 -55 0 -117 70 -250 191 -365 88 -83 162 -131
304 -200 276 -134 635 -207 868 -177 78 10 79 10 129 -21 95 -59 209 -36 244
49 21 50 17 100 -16 194 -16 47 -30 90 -30 95 0 6 21 21 47 35 25 13 70 46 99
72 55 51 64 56 64 36 0 -23 59 -139 91 -179 17 -22 56 -59 87 -83 159 -121
377 -178 687 -179 299 -1 535 55 669 158 l50 38 66 -13 c83 -16 130 -8 168 29
48 44 62 132 30 194 -5 9 -5 17 0 17 21 0 133 123 165 182 48 85 67 163 67
275 0 57 4 93 10 93 6 0 57 -22 113 -49z"/>
<path d="M3415 5345 c-51 -50 -20 -129 50 -129 46 0 75 31 75 80 0 69 -76 99
-125 49z"/>
<path d="M3701 5244 c-28 -35 -26 -69 4 -99 49 -50 129 -20 129 48 0 49 -27
77 -75 77 -29 0 -42 -6 -58 -26z"/>
<path d="M3490 5125 c-21 -26 -3 -83 33 -105 36 -23 65 -25 100 -9 30 13 52
51 44 73 -9 23 -44 20 -57 -5 -8 -14 -19 -19 -38 -17 -23 3 -27 8 -30 41 -2
28 -8 37 -21 37 -10 0 -24 -7 -31 -15z"/>
<path d="M5412 5240 c-33 -31 -30 -92 4 -119 36 -28 60 -26 95 8 36 36 37 73
4 106 -30 31 -73 32 -103 5z"/>
<path d="M5711 5234 c-12 -15 -21 -37 -21 -49 0 -38 37 -75 75 -75 47 0 79 29
79 73 0 49 -27 77 -75 77 -29 0 -42 -6 -58 -26z"/>
<path d="M5656 5015 c-20 -46 -52 -48 -68 -4 -14 40 -51 38 -56 -3 -7 -62 88
-103 146 -62 31 21 45 60 32 85 -16 29 -38 23 -54 -16z"/>
</g>
</svg>
