<?xml version="1.0" standalone="no"?>
<!DOCTYPE svg PUBLIC "-//W3C//DTD SVG 20010904//EN"
 "http://www.w3.org/TR/2001/REC-SVG-20010904/DTD/svg10.dtd">
<svg version="1.0" xmlns="http://www.w3.org/2000/svg"
 width="1024.000000pt" height="1024.000000pt" viewBox="0 0 1024.000000 1024.000000"
 preserveAspectRatio="xMidYMid meet">
<metadata>
Created by potrace 1.16, written by Peter Selinger 2001-2019
</metadata>
<g transform="translate(0.000000,1024.000000) scale(0.100000,-0.100000)"
fill="#000000" stroke="none">
<path d="M4849 7650 c-380 -15 -611 -39 -671 -71 -13 -6 -33 -21 -45 -32 -30
-27 -31 -94 -3 -129 l19 -25 -71 -119 c-119 -199 -175 -362 -198 -581 -12
-113 -9 -468 20 -2338 18 -1154 26 -1370 49 -1443 54 -174 170 -239 519 -292
214 -32 384 -43 687 -44 475 0 837 45 1025 130 75 33 151 113 174 181 34 99
34 90 66 2098 21 1304 23 1637 10 1740 -25 211 -78 361 -195 555 -37 61 -64
116 -61 123 4 7 13 23 21 37 33 56 7 115 -64 143 -129 52 -793 87 -1282 67z
m864 -125 c212 -16 347 -34 347 -45 0 -51 -1544 -63 -1783 -14 -16 3 -25 10
-20 15 13 13 228 38 403 48 263 14 847 12 1053 -4z m403 -272 c128 -206 174
-325 205 -535 11 -76 6 -432 -30 -2560 -10 -555 -19 -1010 -22 -1012 -8 -9
-259 -46 -404 -61 -456 -46 -999 -46 -1425 0 -187 21 -383 54 -396 68 -11 12
-21 510 -44 2277 -5 404 -12 823 -15 931 -10 417 39 620 217 897 l53 83 195
-8 c257 -11 1256 -7 1390 5 58 5 130 10 160 11 l56 1 60 -97z m-1870 -4257
c98 -14 244 -31 324 -38 197 -17 945 -17 1150 0 123 11 473 53 533 65 20 3 10
-73 -16 -123 -55 -107 -206 -153 -643 -195 -181 -17 -644 -20 -829 -5 -319 26
-544 71 -623 123 -51 35 -87 91 -97 149 -7 37 0 62 14 54 4 -3 88 -16 187 -30z"/>
<path d="M4551 5897 c-47 -24 -65 -62 -69 -143 -5 -87 15 -153 53 -178 51 -34
98 -15 128 52 42 96 17 241 -48 270 -32 15 -34 15 -64 -1z"/>
<path d="M5753 5900 c-80 -33 -95 -233 -23 -310 16 -18 38 -30 53 -30 33 0 76
36 93 76 18 43 18 155 0 197 -24 58 -77 86 -123 67z"/>
<path d="M4965 5000 c-23 -26 -14 -60 30 -109 100 -110 292 -106 389 10 36 43
36 96 -1 110 -24 9 -31 6 -70 -35 -57 -60 -107 -75 -180 -52 -38 12 -60 27
-83 56 -35 44 -58 50 -85 20z"/>
</g>
</svg>
