<?xml version="1.0" standalone="no"?>
<!DOCTYPE svg PUBLIC "-//W3C//DTD SVG 20010904//EN"
 "http://www.w3.org/TR/2001/REC-SVG-20010904/DTD/svg10.dtd">
<svg version="1.0" xmlns="http://www.w3.org/2000/svg"
 width="1024.000000pt" height="1024.000000pt" viewBox="0 0 1024.000000 1024.000000"
 preserveAspectRatio="xMidYMid meet">
<metadata>
Created by potrace 1.16, written by Peter Selinger 2001-2019
</metadata>
<g transform="translate(0.000000,1024.000000) scale(0.100000,-0.100000)"
fill="#000000" stroke="none">
<path d="M4920 8029 c-466 -25 -807 -59 -821 -81 -16 -24 -70 -273 -94 -427
-84 -536 -75 -1211 26 -1801 85 -496 239 -875 465 -1136 124 -144 297 -284
388 -314 32 -10 34 -13 39 -73 33 -329 34 -992 2 -1217 -24 -175 -62 -323
-106 -410 -60 -120 -119 -162 -309 -220 -349 -106 -417 -137 -456 -212 -20
-38 -17 -95 6 -127 42 -60 197 -102 490 -133 200 -21 878 -18 1054 5 288 38
428 84 460 151 9 19 16 44 16 55 0 34 -25 83 -56 113 -35 33 -164 93 -304 143
-146 52 -258 105 -304 146 -82 71 -132 189 -157 369 -26 182 -9 1026 27 1360
6 55 7 57 64 93 190 123 434 438 574 739 128 277 219 614 263 978 32 271 23
734 -23 1100 -39 313 -154 825 -200 887 -11 17 -45 18 -451 19 -241 1 -508 -2
-593 -7z m958 -126 c12 -24 66 -225 90 -333 l19 -85 -451 0 c-526 -1 -870 -19
-1363 -71 -37 -4 -63 -3 -63 2 0 18 49 290 66 361 18 82 2 74 189 92 324 32
687 48 1137 49 341 2 368 1 376 -15z m127 -545 c8 -8 53 -338 66 -493 16 -179
16 -626 1 -775 -65 -619 -263 -1123 -588 -1494 -84 -97 -160 -161 -246 -206
-38 -20 -60 -39 -63 -53 -2 -12 -14 -168 -26 -347 -29 -428 -33 -1001 -7
-1160 34 -210 85 -327 181 -416 72 -67 149 -106 370 -190 194 -73 260 -107
255 -132 -7 -37 -232 -79 -538 -102 -415 -31 -1107 14 -1230 80 l-24 13 26 22
c24 21 71 37 400 140 192 60 281 133 354 291 128 274 173 918 114 1614 -18
213 -9 191 -101 229 -147 60 -336 229 -453 404 -242 364 -365 832 -417 1592
-17 256 -2 887 22 909 14 12 634 62 949 76 203 9 946 7 955 -2z"/>
</g>
</svg>
