<?xml version="1.0" standalone="no"?>
<!DOCTYPE svg PUBLIC "-//W3C//DTD SVG 20010904//EN"
 "http://www.w3.org/TR/2001/REC-SVG-20010904/DTD/svg10.dtd">
<svg version="1.0" xmlns="http://www.w3.org/2000/svg"
 width="1024.000000pt" height="1024.000000pt" viewBox="0 0 1024.000000 1024.000000"
 preserveAspectRatio="xMidYMid meet">
<metadata>
Created by potrace 1.16, written by Peter Selinger 2001-2019
</metadata>
<g transform="translate(0.000000,1024.000000) scale(0.100000,-0.100000)"
fill="#000000" stroke="none">
<path d="M4808 7226 c-135 -48 -255 -158 -299 -276 -35 -93 -2 -158 74 -143
21 4 35 20 63 73 62 118 153 190 274 216 72 15 90 31 90 81 0 74 -78 93 -202
49z"/>
<path d="M2613 7129 c-129 -23 -219 -166 -180 -286 9 -26 15 -49 13 -50 -1 -1
-20 4 -41 12 -76 27 -143 12 -210 -47 -90 -79 -99 -224 -21 -314 35 -40 1 -26
676 -270 491 -178 783 -285 788 -289 1 -1 -13 -28 -32 -60 -62 -102 -71 -143
-70 -305 3 -367 126 -776 320 -1062 135 -199 310 -366 511 -490 77 -47 83 -53
83 -83 0 -40 17 -52 120 -89 349 -126 802 -126 1138 1 91 34 122 58 122 93 0
25 12 36 102 96 314 205 525 470 673 844 78 199 135 493 135 704 0 175 -37
270 -153 392 -227 241 -688 398 -1278 435 -326 20 -728 -22 -1015 -107 -49
-15 -105 -31 -125 -37 -36 -10 -38 -9 -355 200 -481 318 -908 596 -1009 656
-96 58 -126 67 -192 56z m316 -321 c550 -357 985 -648 978 -655 -10 -10 -1307
707 -1322 731 -20 32 26 95 69 96 5 0 129 -78 275 -172z m-364 -238 c246 -108
550 -246 889 -404 136 -64 252 -116 256 -116 4 0 13 -7 20 -15 7 -8 9 -15 4
-15 -5 0 -99 33 -209 74 -110 42 -362 133 -560 205 -535 193 -638 231 -662
247 -47 30 -19 114 38 114 10 0 110 -41 224 -90z m2888 -375 c565 -60 983
-246 1103 -491 38 -77 38 -168 0 -242 -88 -174 -342 -318 -716 -406 -431 -102
-999 -100 -1421 4 -170 42 -260 74 -394 140 -230 113 -335 234 -335 387 0 65
41 161 89 207 l30 29 63 -23 c35 -12 65 -24 67 -26 3 -2 -7 -17 -21 -32 -15
-15 -47 -61 -72 -102 -56 -90 -61 -137 -20 -169 51 -40 87 -25 126 53 31 63
84 130 125 162 l36 28 84 -29 c46 -15 83 -31 83 -36 0 -4 -15 -11 -32 -14 -60
-13 -152 -55 -180 -82 -42 -40 -37 -106 9 -124 18 -7 41 -2 96 20 40 17 98 37
129 46 64 17 83 40 74 85 -3 15 -2 30 1 33 3 3 49 -10 102 -29 149 -53 195
-40 275 80 45 67 34 106 -44 156 -28 18 -47 37 -43 41 5 5 49 9 98 9 50 0 101
0 114 0 14 0 48 13 76 29 145 82 305 69 438 -35 l59 -47 77 12 c93 14 160 4
246 -38 51 -25 75 -30 155 -33 111 -5 173 -28 233 -86 51 -49 67 -82 67 -136
0 -55 -32 -97 -95 -125 -49 -22 -65 -54 -49 -100 33 -94 205 -28 269 104 24
48 27 64 23 137 -4 100 -30 162 -97 226 -79 77 -196 124 -351 141 -47 5 -118
21 -159 36 -61 22 -91 27 -175 27 -97 1 -102 2 -148 34 -156 106 -377 119
-543 31 -33 -18 -59 -22 -145 -23 -83 -1 -122 -7 -185 -28 l-80 -25 -87 57
c-48 31 -88 60 -88 63 0 7 168 53 255 69 251 47 622 62 878 35z m-1524 -1123
c551 -286 1478 -332 2158 -107 186 62 289 113 440 221 20 15 21 14 16 -8 -84
-374 -239 -659 -480 -888 -433 -411 -1086 -484 -1618 -179 -274 157 -511 451
-635 789 -30 80 -80 261 -80 287 0 7 23 -5 52 -26 28 -22 94 -62 147 -89z"/>
<path d="M4979 5798 c-88 -31 -116 -51 -124 -89 -5 -23 -2 -38 13 -58 24 -33
71 -33 157 -1 49 18 73 21 130 17 80 -6 119 -21 192 -71 76 -52 123 -46 142
20 12 44 -4 71 -68 116 -86 60 -151 80 -271 85 -90 3 -114 1 -171 -19z"/>
<path d="M5796 5641 c-35 -39 -18 -71 73 -138 92 -70 124 -77 159 -40 43 46
19 94 -81 158 -69 45 -122 52 -151 20z"/>
<path d="M5356 5489 c-19 -15 -26 -30 -26 -53 0 -42 20 -59 90 -79 97 -28 178
-95 224 -185 38 -74 136 -55 136 26 0 109 -152 258 -304 298 -69 19 -89 18
-120 -7z"/>
<path d="M4548 5479 c-31 -17 -40 -46 -28 -84 13 -41 24 -45 121 -55 128 -12
233 -74 319 -189 47 -62 130 -37 130 38 0 97 -158 238 -319 285 -61 18 -196
21 -223 5z"/>
<path d="M4100 4795 c-19 -23 -7 -99 30 -189 42 -100 67 -129 110 -129 36 0
60 23 60 59 0 11 -18 61 -40 110 -74 163 -71 159 -111 162 -23 2 -40 -2 -49
-13z"/>
<path d="M5452 4254 c-34 -13 -99 -28 -142 -33 -44 -5 -87 -14 -95 -21 -25
-21 -19 -77 10 -96 51 -33 272 4 339 57 33 26 37 92 7 109 -28 14 -48 12 -119
-16z"/>
<path d="M5400 7000 c-95 -18 -182 -61 -248 -124 -65 -61 -80 -125 -39 -164
38 -36 71 -29 129 29 78 78 141 104 258 105 52 1 101 2 108 3 7 0 20 17 29 36
19 41 9 74 -31 100 -29 19 -142 28 -206 15z"/>
</g>
</svg>
