<?xml version="1.0" standalone="no"?>
<!DOCTYPE svg PUBLIC "-//W3C//DTD SVG 20010904//EN"
 "http://www.w3.org/TR/2001/REC-SVG-20010904/DTD/svg10.dtd">
<svg version="1.0" xmlns="http://www.w3.org/2000/svg"
 width="1024.000000pt" height="1024.000000pt" viewBox="0 0 1024.000000 1024.000000"
 preserveAspectRatio="xMidYMid meet">
<metadata>
Created by potrace 1.16, written by Peter Selinger 2001-2019
</metadata>
<g transform="translate(0.000000,1024.000000) scale(0.100000,-0.100000)"
fill="#000000" stroke="none">
<path d="M4910 6390 c-433 -33 -797 -139 -1001 -290 -106 -80 -172 -190 -192
-323 -14 -99 5 -410 38 -606 89 -525 275 -864 625 -1135 58 -45 110 -85 117
-89 31 -19 300 -79 412 -92 149 -18 257 -19 389 -4 189 20 408 76 457 115 17
13 56 43 88 65 32 23 105 85 161 140 l103 98 107 35 c308 101 539 289 642 523
34 75 57 221 49 297 -22 185 -131 358 -285 447 l-58 33 -4 116 c-5 132 -24
185 -97 278 -143 180 -499 321 -948 376 -155 19 -455 27 -603 16z m501 -120
c526 -52 903 -209 1006 -418 34 -70 41 -174 23 -364 -47 -526 -221 -945 -509
-1228 -119 -117 -248 -202 -355 -235 -267 -81 -602 -85 -892 -9 -84 21 -114
35 -199 92 -413 274 -655 838 -655 1529 0 131 3 161 21 210 73 198 437 361
924 413 61 6 119 13 130 14 53 8 415 5 506 -4z m1196 -829 c57 -41 107 -106
145 -187 43 -93 51 -218 19 -321 -43 -143 -157 -283 -315 -388 -80 -53 -211
-118 -227 -113 -5 2 5 22 21 46 15 23 45 76 66 116 30 57 44 76 64 80 76 15
213 154 251 255 30 81 24 209 -14 273 -15 25 -39 56 -55 69 l-28 24 10 88 c5
48 13 87 16 87 4 0 25 -13 47 -29z m-77 -317 c15 -46 9 -128 -14 -175 -17 -37
-85 -123 -92 -117 -2 2 10 45 26 96 17 51 36 124 42 162 7 39 15 70 19 70 4 0
13 -16 19 -36z"/>
<path d="M4885 6193 c-209 -19 -442 -65 -599 -120 -146 -50 -232 -98 -302
-168 -103 -101 -111 -194 -27 -303 84 -111 359 -212 725 -267 668 -101 1503
63 1627 318 45 93 13 202 -81 279 -152 124 -481 225 -848 258 -107 9 -403 11
-495 3z m540 -124 c472 -48 853 -228 780 -369 -14 -26 -124 -110 -145 -110 -3
0 -17 11 -30 25 -34 36 -96 70 -197 109 -298 115 -812 143 -1198 65 -190 -39
-342 -99 -415 -165 l-39 -35 -41 21 c-22 11 -59 37 -80 57 -34 30 -40 41 -40
76 0 35 6 46 43 81 137 132 493 232 927 260 79 5 318 -3 435 -15z m-98 -360
c153 -12 343 -49 445 -85 90 -32 171 -75 161 -85 -5 -4 -64 -21 -133 -38 -451
-111 -1004 -105 -1427 17 -34 9 -65 20 -68 24 -11 10 132 75 228 102 226 66
510 89 794 65z"/>
<path d="M6162 5346 c-67 -62 -135 -106 -166 -106 -24 0 -49 -46 -42 -75 20
-80 167 -33 294 94 42 42 52 58 52 85 0 35 -11 49 -47 60 -18 6 -35 -5 -91
-58z"/>
<path d="M6100 5035 c-54 -55 -171 -125 -208 -125 -22 0 -36 -14 -46 -47 -5
-17 0 -29 19 -49 22 -22 32 -25 63 -19 67 12 174 76 245 146 70 69 78 89 51
127 -27 38 -63 29 -124 -33z"/>
<path d="M5955 4694 c-64 -59 -203 -134 -248 -134 -33 0 -57 -24 -57 -59 0
-39 23 -55 74 -53 105 4 301 118 357 208 18 30 19 37 7 61 -9 20 -21 29 -43
30 -24 2 -42 -8 -90 -53z"/>
<path d="M5720 4358 c-59 -53 -146 -96 -229 -113 -72 -16 -95 -35 -86 -75 13
-54 51 -61 158 -31 107 31 171 65 231 123 63 61 72 96 34 122 -35 25 -59 19
-108 -26z"/>
</g>
</svg>
