<?xml version="1.0" encoding="UTF-8" standalone="no"?>
<!DOCTYPE svg PUBLIC "-//W3C//DTD SVG 1.1//EN" "http://www.w3.org/Graphics/SVG/1.1/DTD/svg11.dtd">
<svg width="100%" height="100%" viewBox="0 0 2048 2048" version="1.1" xmlns="http://www.w3.org/2000/svg" xmlns:xlink="http://www.w3.org/1999/xlink" xml:space="preserve" xmlns:serif="http://www.serif.com/" style="fill-rule:evenodd;clip-rule:evenodd;stroke-linejoin:round;stroke-miterlimit:2;">
    <g transform="matrix(0.1,0,0,-0.1,0,2048)">
        <path d="M9095,14704C8255,14678 7646,14613 7127,14495C6761,14411 6596,14330 6530,14200C6503,14147 6410,13905 6410,13887C6410,13880 6362,13855 6303,13831C6005,13711 5879,13627 5818,13507C5766,13403 5643,12869 5606,12585C5585,12429 5585,12239 5605,12201C5631,12150 5702,12100 5860,12021L6015,11944L6077,11540C6111,11317 6150,11059 6164,10965C6178,10872 6206,10689 6226,10560C6245,10431 6292,10114 6330,9855C6390,9441 6396,9383 6383,9369C6347,9328 6327,9246 6322,9121C6315,8938 6340,8712 6451,7935C6625,6714 6752,6015 6826,5868C6840,5840 6882,5786 6919,5748L6987,5679L7008,5527C7019,5443 7052,5206 7080,5000C7196,4142 7225,3970 7262,3896C7313,3794 7532,3617 7750,3501C8085,3323 8653,3163 9185,3096C9922,3003 10895,3032 11545,3166C12158,3292 12497,3461 12749,3766C12812,3842 12828,3869 12842,3921C12882,4068 12944,4447 13091,5425C13114,5579 13133,5706 13134,5707C13135,5708 13158,5702 13187,5695C13426,5633 13798,5635 14029,5700C14306,5778 14522,5966 14689,6275C14868,6605 15033,7202 15117,7820C15143,8013 15143,8443 15117,8585C15070,8838 14972,9036 14811,9203C14694,9324 14571,9397 14386,9456C14224,9507 13973,9525 13781,9499C13736,9493 13696,9490 13693,9493C13690,9496 13720,9707 13760,9962C13799,10217 13845,10508 13860,10610C13925,11036 13942,11144 14005,11525C14041,11745 14074,11934 14079,11945C14083,11956 14134,11991 14192,12024C14317,12093 14422,12169 14447,12206C14461,12228 14464,12255 14464,12344C14464,12468 14461,12488 14344,13000C14225,13519 14215,13551 14143,13631C14080,13700 13919,13783 13714,13850C13676,13862 13644,13874 13642,13875C13640,13877 13621,13947 13600,14032C13549,14232 13546,14241 13514,14301C13446,14424 13261,14529 12986,14600C12797,14648 12647,14663 12412,14657C12197,14652 12119,14641 11990,14596L11925,14574L11770,14591C11418,14631 11024,14663 10605,14685C10349,14699 9347,14711 9095,14704ZM9199,14276C9197,14274 9137,14267 9065,14261C8043,14169 7542,14066 7417,13920C7351,13842 7343,13748 7395,13645C7424,13588 7499,13509 7545,13488C7567,13478 7580,13460 7564,13460C7501,13460 6812,13615 6793,13633C6786,13641 6880,13934 6899,13960C6938,14014 7302,14102 7730,14159C8141,14215 9225,14301 9199,14276ZM12765,14215C12861,14198 12886,14186 12848,14177C12804,14166 12554,14141 12422,14134C12259,14126 12255,14123 12209,13995C12172,13890 12103,13748 12051,13670C12002,13595 11903,13492 11839,13448C11787,13413 11781,13412 11647,13400C11571,13394 11506,13391 11504,13393C11501,13396 11524,13412 11555,13430C11800,13570 11951,13760 12051,14055L12088,14165L12144,14188C12251,14231 12312,14240 12500,14235C12603,14233 12712,14225 12765,14215ZM10835,14124C10997,14115 11223,14099 11330,14089C11494,14074 11824,14029 11833,14021C11847,14007 11736,13830 11666,13754C11556,13634 11429,13558 11240,13500C11116,13461 11091,13442 11082,13375C11075,13328 11074,13326 11040,13323C10574,13285 9421,13269 9030,13295C8524,13329 8178,13390 7931,13489C7708,13578 7518,13730 7555,13789C7583,13836 7799,13903 8082,13955C8495,14031 8918,14077 9455,14105C9516,14108 9594,14113 9630,14117C9829,14135 10554,14140 10835,14124ZM13192,13850C13212,13748 13230,13649 13232,13630L13235,13595L13125,13573C13001,13548 12681,13501 12420,13470C12324,13458 12217,13445 12182,13441C12148,13437 12118,13436 12115,13438C12113,13441 12126,13461 12146,13482C12220,13564 12334,13770 12378,13900L12397,13955L12557,13962C12712,13969 12933,13997 13055,14025C13159,14048 13150,14060 13192,13850ZM6662,13471C6726,13434 7088,13340 7395,13280C7754,13210 8299,13140 8765,13106C9204,13073 9387,13068 9926,13073C10518,13079 10863,13097 11520,13160C11633,13171 11802,13186 11895,13195C12402,13242 13094,13345 13285,13401C13336,13417 13364,13432 13387,13457L13419,13491L13562,13445C13718,13396 13744,13384 13720,13376C13662,13357 13202,13251 13025,13216C12484,13111 11839,13029 11120,12975C10805,12952 10539,12945 9950,12945C9129,12945 8803,12958 8230,13015C7599,13078 7145,13151 6585,13280C6486,13303 6379,13326 6347,13332C6316,13339 6291,13348 6293,13353C6295,13361 6596,13485 6622,13489C6626,13490 6644,13481 6662,13471ZM13854,13168C13857,13155 13872,13087 13889,13015C13962,12699 14020,12425 14016,12415C14011,12400 13798,12312 13681,12276C13073,12085 12096,11952 10925,11899C10608,11885 9718,11885 9365,11899C8823,11921 8207,11968 7825,12016C7111,12105 6517,12227 6159,12358L6025,12407L6028,12456C6031,12513 6075,12755 6127,12993C6156,13122 6167,13160 6179,13160C6188,13160 6272,13142 6365,13120C7401,12877 8214,12773 9335,12740C9919,12723 10636,12731 11040,12760C12069,12834 12879,12951 13604,13131C13714,13158 13806,13182 13808,13185C13822,13199 13850,13188 13854,13168ZM6674,11995C7435,11826 8326,11726 9465,11680C9681,11672 10787,11675 10945,11685C10989,11688 11111,11695 11215,11701C12134,11751 12915,11856 13499,12006C13573,12024 13637,12040 13640,12040C13644,12040 13635,11967 13619,11878C13564,11555 13400,10537 13345,10175C13313,9972 13269,9687 13246,9542L13205,9279L13108,9235C12580,8992 11656,8807 10740,8760C10484,8747 9683,8747 9449,8760C9348,8766 9162,8780 9035,8791C8249,8860 7431,9037 6970,9238L6855,9288L6852,9327C6846,9399 6669,10584 6590,11080C6574,11182 6542,11389 6520,11540C6497,11691 6471,11866 6461,11928C6446,12024 6446,12040 6458,12040C6466,12040 6563,12020 6674,11995ZM6983,8997C7574,8772 8335,8622 9245,8553C9535,8531 10588,8527 10875,8548C11376,8583 11822,8642 12195,8721C12506,8787 12913,8910 13148,9011C13215,9039 13272,9061 13274,9059C13279,9054 13271,8995 13169,8275C13046,7397 13004,7117 12934,6695C12867,6293 12834,6129 12800,6024C12781,5967 12776,5962 12712,5924C12631,5875 12536,5835 12374,5782C11817,5597 11173,5476 10550,5441C10202,5421 10090,5420 9805,5430C8974,5460 8243,5594 7588,5836C7471,5879 7280,5967 7248,5993C7181,6046 6918,7610 6796,8685C6776,8856 6758,9015 6754,9039C6747,9091 6721,9096 6983,8997ZM14257,9038C14416,8991 14533,8891 14609,8737C14677,8599 14692,8525 14697,8295C14705,7945 14650,7561 14521,7079C14408,6659 14296,6417 14145,6265C14005,6124 13895,6085 13645,6086C13439,6086 13267,6120 13107,6190C13062,6210 13062,6211 13071,6243C13076,6260 13090,6326 13100,6389C13111,6452 13122,6505 13123,6506C13125,6508 13149,6498 13178,6484C13279,6436 13374,6417 13515,6416C13631,6416 13653,6419 13717,6442C13912,6512 14069,6695 14162,6960C14236,7171 14307,7532 14331,7816C14346,8004 14338,8324 14316,8405C14253,8630 14114,8740 13862,8764C13784,8771 13635,8755 13532,8729C13491,8719 13455,8711 13454,8713C13453,8714 13458,8758 13466,8810C13473,8862 13480,8926 13480,8952L13480,8998L13528,9008C13554,9014 13598,9024 13625,9030C13842,9077 14113,9080 14257,9038ZM13960,8519C14091,8475 14128,8359 14117,8031C14107,7757 14070,7488 14004,7221C13944,6980 13886,6855 13785,6754C13696,6664 13650,6646 13511,6642C13449,6640 13394,6642 13389,6647C13384,6652 13395,6753 13415,6885C13511,7513 13533,7659 13574,7950C13599,8123 13626,8324 13636,8397L13653,8529L13699,8533C13771,8540 13922,8532 13960,8519ZM12674,5618C12670,5584 12643,5409 12585,5030C12565,4906 12541,4744 12530,4670C12496,4447 12460,4240 12438,4147C12422,4074 12411,4049 12376,4007C12160,3741 11644,3577 10768,3494C10542,3473 9914,3464 9675,3479C9005,3521 8406,3658 7990,3867C7789,3967 7667,4058 7651,4117C7646,4138 7632,4225 7621,4310C7593,4513 7532,4950 7479,5327C7456,5494 7439,5632 7442,5635C7445,5638 7501,5622 7566,5600C7710,5550 7967,5477 8190,5421C8994,5223 10075,5158 10950,5256C11492,5316 11996,5424 12428,5570C12553,5613 12660,5648 12667,5649C12675,5650 12677,5639 12674,5618Z" style="fill-rule:nonzero;"/>
    </g>
</svg>
