<?xml version="1.0" standalone="no"?>
<!DOCTYPE svg PUBLIC "-//W3C//DTD SVG 20010904//EN"
 "http://www.w3.org/TR/2001/REC-SVG-20010904/DTD/svg10.dtd">
<svg version="1.0" xmlns="http://www.w3.org/2000/svg"
 width="2048.000000pt" height="2048.000000pt" viewBox="0 0 2048.000000 2048.000000"
 preserveAspectRatio="xMidYMid meet">
<metadata>
Created by potrace 1.16, written by Peter Selinger 2001-2019
</metadata>
<g transform="translate(0.000000,2048.000000) scale(0.100000,-0.100000)"
fill="#000000" stroke="none">
<path d="M10963 16455 c-357 -46 -807 -186 -1558 -485 -323 -128 -996 -407
-1290 -535 -726 -316 -683 -296 -1420 -643 -630 -296 -1416 -642 -2055 -907
-1243 -515 -1614 -715 -1849 -1000 -152 -184 -227 -356 -327 -755 -66 -264
-93 -323 -176 -399 -145 -130 -234 -228 -265 -286 -55 -106 -74 -180 -80 -306
-7 -143 10 -230 68 -350 57 -118 92 -162 279 -354 191 -195 210 -225 241 -393
11 -59 32 -161 46 -227 78 -375 161 -466 1193 -1315 565 -466 774 -652 1495
-1339 164 -157 353 -338 420 -401 66 -63 230 -221 365 -350 762 -734 1219
-1139 1740 -1544 976 -759 1677 -978 2530 -789 507 112 1627 591 2695 1154
293 154 985 537 1370 757 149 86 302 173 340 195 39 22 160 92 270 157 110 64
274 158 365 210 91 51 210 118 265 150 55 31 213 120 350 197 533 299 785 443
890 508 551 340 838 598 955 858 15 34 51 125 80 202 104 275 149 346 339 535
161 160 215 234 263 361 28 75 32 96 32 194 1 143 -21 214 -115 370 -79 131
-102 190 -119 298 -7 39 -16 275 -20 522 -9 471 -13 519 -61 665 -135 412
-521 743 -2864 2458 -93 69 -401 296 -683 506 -1274 945 -1477 1095 -1987
1459 -631 452 -875 575 -1235 623 -128 17 -350 16 -487 -1z m495 -331 c296
-61 535 -201 1277 -749 171 -126 548 -402 675 -495 116 -84 191 -140 440 -324
74 -55 167 -123 205 -151 39 -29 167 -124 285 -211 118 -88 406 -299 640 -469
234 -170 441 -321 460 -335 19 -15 139 -103 265 -195 250 -184 880 -657 985
-740 36 -28 126 -98 200 -155 605 -467 913 -755 971 -910 54 -143 -17 -336
-186 -505 -178 -177 -347 -275 -1280 -739 -1193 -595 -2240 -1146 -3425 -1804
-74 -41 -340 -187 -590 -325 -1416 -778 -1769 -957 -2112 -1071 -200 -65 -293
-81 -478 -80 -150 0 -173 3 -255 27 -272 83 -456 212 -1125 796 -403 352 -458
400 -725 636 -143 127 -332 294 -419 370 -88 77 -196 172 -240 211 -45 39
-144 127 -222 195 -77 68 -194 171 -259 229 -158 140 -851 740 -1051 911 -461
392 -650 552 -859 724 -126 104 -257 212 -290 240 -34 27 -121 100 -195 160
-618 506 -890 750 -997 895 -92 123 -143 274 -122 355 15 56 61 115 133 172
242 195 564 350 1691 816 208 86 608 257 935 400 205 89 498 224 1420 654
1053 492 2543 1105 3230 1331 297 97 457 134 675 156 73 7 266 -4 343 -20z
m-8545 -3953 c139 -198 453 -492 1012 -946 479 -390 1384 -1154 2036 -1720 63
-55 178 -154 254 -220 77 -66 236 -206 355 -310 235 -208 602 -530 1115 -980
182 -159 391 -343 466 -409 778 -691 989 -836 1372 -941 43 -12 61 -22 69 -40
12 -26 5 -156 -27 -518 -17 -184 -11 -238 26 -258 30 -16 66 -3 83 29 21 41
43 209 56 422 16 268 20 308 35 320 7 6 66 15 132 21 205 16 360 53 581 138
286 110 822 378 1497 751 77 42 221 121 320 175 99 54 295 162 435 240 140 78
327 181 415 230 88 48 223 122 300 165 145 81 795 433 1015 550 802 427 1049
555 1840 953 437 220 865 438 950 485 272 148 446 268 587 406 46 44 86 76 90
72 5 -4 11 -116 14 -249 4 -133 12 -300 19 -372 21 -222 4 -330 -76 -466 -136
-231 -671 -620 -1529 -1111 -350 -200 -1030 -549 -1555 -798 -239 -113 -1117
-557 -1285 -650 -309 -170 -835 -478 -1350 -790 -1281 -775 -2005 -1056 -2583
-1002 -449 42 -770 203 -1588 795 -297 214 -800 618 -1129 906 -413 362 -681
606 -1315 1200 -266 250 -617 576 -780 725 -797 731 -956 880 -1230 1156 -599
602 -818 890 -866 1140 -21 107 -14 292 14 395 11 39 47 174 80 302 59 225 75
273 90 273 4 0 29 -31 55 -69z m-441 -837 c25 -328 181 -560 835 -1241 178
-186 218 -233 198 -233 -7 0 -212 159 -360 279 -355 288 -552 457 -671 576
-110 109 -137 142 -168 205 -89 181 -63 335 79 470 31 28 61 50 68 47 8 -2 15
-39 19 -103z m497 -1306 c91 -68 514 -402 686 -542 451 -367 876 -717 1094
-901 85 -71 227 -191 315 -264 292 -245 691 -599 1406 -1251 130 -118 687
-613 897 -797 463 -405 853 -717 1430 -1141 323 -238 516 -348 721 -413 57
-18 111 -39 119 -48 13 -12 14 -34 9 -135 -4 -67 -9 -134 -13 -150 l-5 -29
-82 7 c-91 7 -278 50 -406 94 -348 120 -761 374 -1270 781 -158 126 -368 301
-440 365 -25 23 -93 82 -150 131 -255 221 -592 534 -1120 1040 -723 693 -1362
1295 -1526 1436 -28 24 -122 107 -210 184 -87 77 -276 237 -419 355 -757 624
-972 822 -1034 953 -30 63 -75 227 -87 320 -6 41 -4 47 11 47 10 0 43 -19 74
-42z m15206 -349 c26 -46 30 -65 30 -129 0 -129 -20 -160 -259 -392 -234 -228
-270 -258 -397 -334 -180 -106 -561 -279 -914 -414 -55 -21 -212 -84 -349
-139 -137 -56 -251 -100 -253 -97 -7 7 46 40 267 166 437 250 891 529 1117
687 374 262 548 430 668 646 20 37 42 66 49 64 6 -2 24 -28 41 -58z m-595
-1084 c0 -23 -47 -140 -85 -214 -73 -139 -182 -252 -390 -408 -188 -140 -353
-241 -990 -603 -225 -128 -520 -296 -655 -373 -135 -78 -290 -166 -345 -197
-55 -31 -174 -100 -265 -152 -184 -107 -636 -362 -835 -473 -71 -39 -204 -114
-295 -165 -968 -548 -1894 -1008 -2674 -1329 -287 -119 -561 -211 -791 -267
-154 -37 -392 -71 -420 -60 -16 6 -17 19 -13 147 3 103 8 143 19 154 8 7 56
21 106 30 198 34 350 90 863 320 334 150 879 379 1115 470 677 259 964 395
1265 603 95 65 375 276 690 519 748 575 1265 910 1890 1223 290 145 508 240
1090 475 271 109 501 210 628 275 87 44 92 46 92 25z m-2320 -819 c-8 -7 -103
-66 -210 -132 -427 -260 -962 -637 -1425 -1005 -267 -212 -528 -402 -690 -501
-247 -152 -336 -193 -990 -453 -525 -209 -824 -334 -1240 -520 -544 -243 -712
-297 -915 -297 -151 1 -275 36 -449 128 -190 101 -579 384 -527 384 2 0 57
-23 122 -51 180 -77 260 -105 385 -133 393 -87 762 -48 1280 135 440 155 862
375 1794 934 694 416 958 569 1330 770 237 128 872 446 1210 607 132 62 256
121 275 130 19 9 42 17 50 17 13 1 13 -1 0 -13z"/>
<path d="M11105 15930 c-164 -23 -521 -142 -882 -294 -594 -250 -773 -382
-773 -572 0 -186 123 -321 636 -699 82 -60 214 -163 293 -229 346 -285 448
-336 677 -336 167 0 249 26 609 198 121 57 324 151 452 208 401 179 515 244
610 347 64 71 86 117 91 194 4 53 0 71 -25 125 -67 140 -185 247 -546 490
-131 88 -324 225 -430 304 -201 150 -326 222 -432 249 -76 19 -203 26 -280 15z
m42 -247 c4 -9 -12 -143 -35 -297 -23 -155 -49 -337 -57 -406 -9 -69 -20 -137
-26 -151 -14 -35 -42 -50 -334 -174 -285 -122 -370 -155 -395 -155 -41 0 -408
289 -530 416 -129 135 -127 167 13 258 214 140 757 364 1187 491 131 39 168
43 177 18z m328 -51 c33 -20 130 -90 215 -156 85 -65 252 -183 370 -261 326
-216 510 -367 526 -431 17 -66 -45 -124 -236 -223 -147 -76 -457 -211 -485
-211 -48 0 -593 387 -621 441 -12 25 -13 46 -4 137 22 221 95 703 111 734 14
26 45 19 124 -30z m-310 -1040 c53 -27 323 -218 418 -295 26 -21 47 -45 47
-53 0 -17 -154 -95 -311 -158 -198 -79 -323 -83 -465 -17 -81 38 -135 75 -254
175 -92 78 -110 95 -110 107 0 14 435 212 550 250 57 18 74 17 125 -9z"/>
<path d="M10664 15272 c-72 -58 -71 -192 2 -192 71 0 136 148 86 193 -24 22
-61 21 -88 -1z"/>
<path d="M8460 14769 c-134 -24 -294 -84 -566 -212 -227 -108 -381 -172 -564
-237 -290 -103 -441 -194 -508 -309 -24 -42 -27 -55 -27 -146 0 -85 4 -107 24
-148 36 -73 136 -168 336 -316 312 -233 338 -253 424 -325 47 -39 152 -134
235 -210 305 -282 441 -354 618 -326 39 6 75 7 80 2 11 -11 -18 -119 -43 -153
-34 -49 -82 -78 -192 -118 -58 -21 -125 -50 -149 -64 -58 -34 -125 -107 -151
-165 -28 -65 -35 -194 -13 -258 9 -26 13 -51 9 -55 -5 -4 -51 -23 -103 -42
-121 -44 -288 -115 -670 -284 -788 -349 -884 -398 -996 -509 -105 -104 -143
-222 -109 -340 39 -136 128 -236 435 -488 102 -84 232 -192 290 -240 499 -419
595 -489 741 -537 59 -19 94 -24 174 -23 188 1 378 74 960 367 220 111 499
249 620 307 121 58 260 132 310 166 l91 60 59 -32 c90 -50 179 -69 320 -68
155 2 268 25 540 114 116 38 245 75 288 84 93 19 240 21 254 4 6 -7 13 -41 16
-76 13 -156 120 -271 562 -608 223 -169 308 -241 500 -424 227 -216 302 -266
435 -290 127 -23 260 12 510 136 170 84 208 105 595 341 127 77 298 176 380
220 83 45 193 104 246 133 121 65 205 131 243 194 24 39 31 63 34 117 8 130
-56 216 -287 384 -199 145 -326 245 -496 391 -346 296 -466 387 -601 451 -41
19 -74 40 -74 45 0 6 16 32 36 59 78 106 108 238 80 347 -25 100 -52 141 -161
248 -84 81 -105 108 -110 138 -11 56 3 61 78 25 93 -43 159 -59 253 -59 133 0
204 27 539 207 122 65 304 156 405 202 458 208 552 260 631 349 85 96 109 198
72 308 -28 83 -152 197 -383 349 -255 168 -373 257 -610 454 -227 190 -290
236 -385 285 -97 50 -170 66 -295 66 -194 0 -434 -76 -977 -309 -455 -195
-604 -293 -671 -439 -56 -123 -26 -238 94 -363 37 -38 64 -72 61 -76 -15 -15
-116 -14 -175 1 -73 19 -126 51 -282 173 -260 203 -364 253 -528 253 -205 0
-433 -85 -1212 -451 -121 -57 -141 -63 -200 -63 -36 -1 -67 4 -70 9 -7 14 91
61 305 146 99 39 222 93 274 118 259 127 309 288 146 470 -71 78 -156 142
-401 303 -248 163 -283 189 -549 412 -225 188 -326 257 -438 298 -92 33 -212
44 -307 27z m50 -265 c0 -20 -15 -147 -34 -282 -19 -136 -45 -326 -56 -422
-14 -113 -28 -186 -39 -205 -20 -36 -59 -56 -336 -174 -271 -116 -311 -131
-340 -131 -22 0 -153 92 -493 348 -113 85 -187 162 -198 208 -13 53 33 112
125 158 25 13 135 56 244 95 242 87 313 116 537 221 316 148 497 219 563 220
24 0 27 -3 27 -36z m285 -25 c55 -35 150 -111 295 -235 168 -144 303 -247 420
-323 286 -185 349 -227 413 -274 81 -61 102 -89 87 -116 -16 -30 -62 -54 -275
-141 -110 -45 -271 -115 -358 -156 -87 -41 -166 -74 -176 -74 -26 0 -448 271
-560 360 l-54 43 6 111 c5 103 101 809 113 828 10 16 40 8 89 -23z m4557 -509
c-2 -30 -16 -141 -32 -245 -16 -105 -41 -284 -55 -399 -14 -114 -32 -223 -40
-242 -12 -30 -28 -41 -112 -80 -168 -79 -406 -176 -443 -181 -44 -6 -117 40
-385 245 -250 192 -298 235 -326 287 -23 42 -23 45 -6 79 20 44 84 91 207 155
195 101 849 366 1040 421 36 11 85 18 110 17 l45 -2 -3 -55z m268 -1 c53 -33
187 -137 375 -294 209 -174 269 -218 537 -396 315 -209 348 -241 313 -308 -29
-57 -132 -117 -425 -249 -85 -38 -190 -86 -232 -106 -48 -22 -84 -33 -95 -29
-49 18 -563 376 -627 436 -31 30 -36 40 -36 81 0 93 100 808 121 863 11 28 24
29 69 2z m-5082 -613 c58 -29 305 -192 385 -253 31 -24 57 -50 57 -56 0 -7
-119 -73 -265 -147 l-265 -135 -74 0 c-74 0 -75 0 -158 57 -79 54 -249 205
-312 277 l-30 33 25 19 c27 21 216 108 389 180 134 56 178 60 248 25z m2496
-62 c58 -21 178 -105 421 -294 450 -350 796 -655 840 -741 43 -81 -7 -122
-420 -346 -60 -33 -229 -127 -375 -208 -640 -358 -812 -420 -984 -355 -76 29
-140 75 -921 663 -325 245 -475 390 -475 459 0 30 55 81 141 133 121 72 433
231 664 340 751 351 936 410 1109 349z m1223 -433 c91 -42 153 -107 214 -220
73 -139 167 -226 338 -317 84 -45 94 -65 101 -197 5 -77 12 -124 25 -152 10
-22 65 -86 122 -143 120 -120 137 -147 137 -222 0 -80 -39 -157 -119 -236 -90
-88 -200 -140 -414 -194 -277 -70 -360 -109 -460 -216 -69 -73 -94 -135 -116
-284 -22 -145 -32 -175 -82 -230 -65 -72 -107 -85 -278 -85 -125 0 -160 5
-320 39 -154 34 -199 39 -310 40 -158 1 -218 -11 -490 -98 -309 -98 -361 -110
-500 -110 -228 -1 -286 41 -370 270 -31 86 -76 136 -154 173 -48 22 -70 25
-156 25 -64 0 -141 -8 -215 -23 -318 -63 -403 10 -272 236 59 103 77 164 69
237 -7 70 -34 120 -99 182 -66 65 -103 83 -304 154 -197 70 -278 113 -367 199
-79 75 -113 128 -123 187 -16 104 47 170 223 235 65 23 144 61 177 83 98 67
129 126 170 317 23 105 66 172 143 225 102 70 158 86 311 92 83 3 132 1 132
-6 0 -5 -44 -35 -97 -67 -177 -104 -275 -195 -327 -300 -58 -119 -122 -461
-114 -611 6 -112 36 -164 159 -272 93 -83 135 -115 634 -485 143 -106 309
-233 368 -282 282 -235 361 -289 472 -321 77 -23 218 -23 305 0 159 43 455
186 1020 493 151 82 365 196 475 252 267 137 319 172 350 236 32 65 61 217 75
384 18 212 -8 347 -91 468 -45 66 -223 241 -411 406 -87 76 -158 144 -158 152
0 20 24 24 145 22 102 -2 116 -5 182 -36z m1185 -57 c167 -112 418 -302 425
-320 8 -22 -17 -40 -177 -123 -134 -69 -224 -101 -287 -101 -93 0 -220 78
-431 265 -119 107 -140 130 -130 142 27 33 420 212 465 213 13 0 73 -34 135
-76z m-4318 -634 c148 -140 255 -228 441 -365 82 -61 274 -203 425 -316 151
-113 310 -229 352 -257 43 -29 83 -62 89 -74 15 -27 7 -125 -21 -273 -29 -153
-40 -185 -60 -185 -27 0 -122 69 -265 191 -71 61 -265 210 -430 332 -655 482
-704 522 -731 593 -19 51 -16 143 11 300 24 138 33 164 55 164 10 0 71 -49
134 -110z m3291 -188 c8 -27 -12 -237 -30 -305 -23 -89 -40 -122 -77 -150 -18
-14 -159 -93 -313 -175 -154 -82 -381 -205 -505 -272 -290 -159 -622 -326
-730 -369 -89 -35 -192 -52 -204 -33 -12 19 64 425 82 444 10 10 58 26 110 38
51 11 135 36 185 56 115 45 383 179 587 291 386 214 683 381 770 434 52 32
100 58 107 58 6 1 14 -7 18 -17z m-4338 -499 c8 -19 -17 -236 -81 -701 -39
-291 -44 -314 -66 -336 -14 -13 -86 -51 -160 -84 -74 -33 -250 -114 -390 -179
-320 -150 -364 -168 -412 -164 -36 2 -438 332 -559 457 -74 77 -99 119 -99
164 0 109 123 183 745 450 138 59 374 162 525 230 274 121 424 179 468 180 12
0 26 -8 29 -17z m321 -87 c41 -22 111 -70 155 -106 98 -78 257 -229 257 -244
0 -5 -23 -56 -51 -112 -46 -91 -52 -108 -53 -170 -1 -89 22 -151 76 -199 99
-90 239 -102 488 -41 l105 25 42 -20 c48 -23 120 -100 130 -137 18 -73 -25
-103 -425 -298 l-302 -147 -58 38 c-31 21 -106 75 -167 119 -305 222 -416 309
-431 338 -18 35 -19 19 36 463 21 171 44 355 50 410 7 55 16 108 22 118 12 23
30 17 126 -37z m4583 -362 c15 -19 5 -128 -41 -428 -16 -105 -42 -284 -58
-398 -17 -118 -35 -214 -42 -224 -18 -21 -152 -87 -425 -212 -278 -126 -316
-139 -347 -125 -26 12 -224 158 -368 272 -112 88 -255 228 -265 260 -12 39 6
45 97 30 46 -8 144 -14 218 -13 155 0 225 18 318 81 104 71 154 166 172 326 9
73 15 97 33 114 40 41 483 263 622 314 63 22 70 23 86 3z m318 -41 c63 -38
265 -198 456 -363 154 -133 334 -275 512 -404 157 -114 213 -164 213 -190 0
-42 -79 -95 -375 -253 -83 -44 -212 -117 -287 -162 -75 -44 -144 -81 -153 -81
-32 0 -559 369 -590 413 -19 27 -19 101 0 243 8 60 35 262 60 449 24 187 47
350 50 363 8 32 40 28 114 -15z m-5226 -749 c72 -37 388 -268 497 -363 l35
-31 -25 -21 c-36 -32 -374 -196 -526 -257 -140 -56 -266 -92 -320 -92 -48 0
-146 33 -206 70 -57 35 -197 141 -264 199 -22 20 -58 51 -79 70 -39 33 -39 33
-19 50 52 42 817 391 857 391 10 0 32 -7 50 -16z m5032 -555 c190 -128 335
-237 342 -257 8 -20 -17 -40 -157 -122 -231 -136 -450 -230 -531 -230 -75 1
-153 56 -369 265 -69 66 -126 125 -128 132 -6 23 609 313 664 313 22 0 70 -27
179 -101z"/>
<path d="M8089 14026 c-32 -15 -59 -72 -59 -123 0 -33 5 -46 26 -62 33 -26 45
-26 77 -1 29 23 54 111 43 153 -8 32 -54 50 -87 33z"/>
<path d="M12827 13503 c-21 -25 -39 -100 -35 -152 2 -34 9 -49 30 -64 55 -41
104 13 115 127 5 56 3 66 -16 85 -26 26 -72 27 -94 4z"/>
<path d="M14033 13170 c-12 -5 -25 -21 -29 -35 -15 -61 28 -184 72 -204 34
-15 41 -14 64 9 44 44 5 207 -55 230 -15 6 -27 10 -28 9 -1 0 -12 -4 -24 -9z"/>
<path d="M9634 12681 c-101 -61 -141 -219 -85 -328 36 -71 131 -143 189 -143
64 0 73 66 16 121 -49 46 -94 117 -94 149 0 27 15 54 62 108 33 39 35 65 8 92
-25 25 -56 25 -96 1z"/>
<path d="M9907 12142 c-23 -25 -21 -68 3 -92 26 -26 81 -26 103 -2 22 25 21
75 -1 95 -25 23 -85 22 -105 -1z"/>
<path d="M7473 10985 c-53 -37 -84 -142 -53 -180 20 -24 63 -18 92 13 39 41
68 94 68 123 0 51 -61 76 -107 44z"/>
<path d="M13575 10079 c-25 -20 -27 -26 -21 -67 8 -61 49 -148 76 -162 51 -27
98 19 85 84 -28 138 -79 192 -140 145z"/>
<path d="M5795 13623 c-149 -31 -330 -110 -683 -297 -195 -103 -348 -176 -657
-313 -265 -117 -429 -235 -480 -344 -32 -69 -35 -183 -7 -257 47 -124 181
-271 391 -432 270 -206 388 -305 606 -509 263 -245 409 -323 609 -322 167 0
327 58 720 260 116 59 312 160 436 224 124 64 297 148 385 187 88 40 194 92
236 117 172 102 259 215 259 337 0 121 -68 212 -300 399 -156 127 -301 251
-449 387 -363 333 -493 436 -634 505 -153 74 -279 91 -432 58z m130 -220 c20
-20 20 -28 -30 -373 -18 -129 -45 -332 -60 -450 -14 -118 -32 -226 -38 -240
-14 -30 -174 -112 -530 -273 -275 -124 -379 -167 -408 -167 -29 0 -56 16 -124
74 -33 29 -128 104 -210 168 -166 129 -301 260 -334 325 -35 70 -29 99 32 158
61 59 168 116 442 235 222 97 465 214 690 334 184 98 333 164 455 200 103 30
95 30 115 9z m371 -154 c50 -38 165 -135 256 -216 90 -82 224 -203 298 -269
75 -67 207 -182 295 -256 162 -136 225 -203 225 -240 0 -34 -40 -78 -111 -124
-57 -37 -291 -150 -543 -262 l-59 -26 -49 27 c-68 38 -544 366 -581 400 l-30
28 7 92 c4 51 29 250 56 442 26 193 51 377 55 410 4 33 12 68 17 78 8 16 11
16 41 1 18 -9 73 -48 123 -85z m-353 -1153 c112 -58 497 -326 497 -345 0 -13
-217 -132 -420 -230 -219 -106 -353 -151 -453 -151 -67 0 -82 4 -153 40 -85
43 -169 108 -309 237 -74 68 -87 84 -77 96 19 22 808 387 839 387 6 0 41 -15
76 -34z"/>
<path d="M5355 12787 c-64 -64 -69 -152 -11 -179 35 -15 68 8 106 75 47 83 37
137 -26 137 -27 0 -44 -8 -69 -33z"/>
<path d="M3558 12776 c-146 -111 -191 -294 -114 -461 26 -58 96 -141 127 -150
25 -8 58 11 70 42 8 22 4 36 -30 92 -50 82 -71 141 -71 198 0 63 22 106 90
177 40 42 60 71 60 87 0 59 -64 67 -132 15z"/>
<path d="M15405 12500 c-141 -37 -299 -100 -610 -243 -488 -224 -636 -305
-731 -403 -94 -95 -117 -212 -65 -329 38 -86 213 -251 521 -490 221 -171 305
-243 483 -413 200 -190 292 -245 437 -258 136 -13 294 48 600 230 80 48 285
157 455 243 171 85 346 179 390 208 141 91 207 175 224 285 25 160 -77 312
-326 487 -216 150 -393 288 -508 393 -201 185 -332 270 -470 305 -101 26 -270
20 -400 -15z m159 -280 c-1 -41 -13 -149 -28 -240 -14 -91 -39 -270 -56 -398
-17 -129 -37 -246 -45 -261 -16 -32 -35 -42 -314 -161 -106 -45 -212 -85 -235
-87 -40 -4 -46 0 -217 134 -370 291 -469 384 -469 442 0 63 95 128 384 263
517 243 899 395 966 385 12 -2 15 -18 14 -77z m306 25 c35 -18 121 -89 260
-214 151 -135 263 -223 445 -346 238 -162 326 -254 310 -325 -9 -40 -87 -109
-193 -168 -127 -72 -501 -262 -515 -262 -51 0 -502 313 -526 366 -13 30 -11
58 25 334 46 354 92 633 105 640 13 9 38 1 89 -25z m-273 -1167 c64 -39 281
-194 323 -231 17 -15 28 -32 25 -37 -9 -14 -184 -115 -286 -165 -213 -103
-264 -90 -489 131 -111 109 -123 124 -110 139 36 44 418 209 460 200 14 -4 48
-20 77 -37z"/>
<path d="M15042 11623 c-21 -8 -54 -83 -55 -128 -2 -51 23 -85 63 -85 46 0 90
73 90 148 0 58 -44 87 -98 65z"/>
<path d="M17500 11345 c-6 -8 -18 -47 -27 -87 -35 -170 -103 -239 -411 -417
-83 -48 -103 -78 -77 -117 25 -39 68 -31 202 37 135 68 263 164 317 238 93
127 132 294 80 346 -19 19 -68 20 -84 0z"/>
<path d="M10182 9919 c-165 -32 -439 -157 -807 -369 -137 -79 -362 -202 -500
-273 -279 -144 -367 -198 -440 -272 -70 -69 -99 -132 -99 -216 0 -138 79 -230
375 -437 176 -123 377 -278 519 -401 42 -36 123 -107 181 -157 152 -133 234
-192 324 -235 112 -54 191 -72 310 -72 178 0 286 33 573 177 220 110 514 246
777 358 244 105 291 127 365 178 75 52 133 115 167 180 23 46 27 68 28 136 0
75 -3 86 -42 165 -77 154 -246 324 -562 566 -213 162 -333 259 -501 403 -211
180 -295 233 -417 265 -61 16 -181 18 -251 4z m64 -253 c3 -13 -6 -109 -21
-213 -14 -103 -44 -324 -65 -491 -26 -207 -44 -311 -54 -328 -17 -25 -137 -86
-552 -279 -223 -104 -288 -129 -308 -118 -6 4 -81 59 -166 123 -85 64 -193
143 -240 175 -145 100 -249 185 -265 215 -47 91 -3 128 392 327 144 72 371
193 505 269 373 211 657 343 740 344 21 0 29 -6 34 -24z m265 -35 c25 -17 96
-73 159 -126 199 -167 310 -256 490 -394 225 -173 327 -259 421 -357 117 -123
166 -204 154 -251 -15 -59 -116 -138 -260 -201 -38 -17 -157 -69 -264 -116
-107 -48 -205 -86 -217 -86 -14 0 -87 48 -181 119 -376 283 -482 370 -490 398
-10 42 4 201 42 483 20 146 44 327 55 402 18 135 24 158 39 158 4 0 28 -13 52
-29z m-176 -1283 c159 -114 436 -339 433 -351 -5 -19 -440 -232 -536 -264 -71
-23 -105 -28 -182 -28 -112 0 -168 17 -262 77 -103 66 -348 277 -348 299 0 12
84 55 340 176 339 161 396 183 429 172 14 -5 71 -42 126 -81z"/>
<path d="M10730 8761 c-24 -45 -6 -111 55 -207 38 -60 65 -73 100 -50 34 22
33 83 -1 156 -41 89 -69 120 -109 120 -24 0 -38 -6 -45 -19z"/>
<path d="M8750 7770 c-41 -41 -21 -86 84 -197 110 -118 297 -239 425 -277 64
-19 99 -12 112 22 15 39 -11 67 -109 116 -122 62 -213 129 -341 251 -66 63
-118 105 -131 105 -11 0 -29 -9 -40 -20z"/>
<path d="M3414 11065 c-23 -34 -15 -102 26 -230 35 -107 75 -194 122 -262 23
-34 35 -43 58 -43 31 0 59 22 61 48 3 35 -4 56 -50 165 -27 62 -63 157 -81
212 -17 55 -41 108 -52 118 -29 25 -65 22 -84 -8z"/>
<path d="M3877 10709 c-47 -27 -41 -98 19 -225 39 -82 70 -105 110 -79 13 8
27 27 30 41 13 53 -52 226 -98 258 -26 19 -36 19 -61 5z"/>
<path d="M17086 9798 c-50 -45 -172 -198 -195 -242 -42 -84 -11 -152 55 -120
29 14 144 145 222 253 33 46 42 97 20 119 -20 20 -74 14 -102 -10z"/>
<path d="M16641 9715 c-113 -106 -314 -395 -341 -490 -11 -39 -10 -48 4 -70
14 -21 24 -26 49 -23 29 3 41 17 132 154 55 82 139 198 187 256 97 118 110
141 96 178 -21 55 -64 54 -127 -5z"/>
<path d="M4950 9571 c-17 -32 -12 -76 20 -163 61 -166 121 -247 174 -234 41
10 51 49 32 119 -17 61 -107 249 -134 280 -21 24 -78 23 -92 -2z"/>
<path d="M15149 8707 c-107 -104 -179 -207 -179 -257 0 -78 64 -90 126 -24 65
68 164 210 170 242 14 72 -58 96 -117 39z"/>
<path d="M6385 8563 c-47 -47 54 -323 118 -323 8 0 25 8 37 18 18 15 22 28 22
65 -2 59 -42 177 -77 222 -29 40 -72 47 -100 18z"/>
<path d="M13294 7948 c-65 -57 -203 -230 -220 -275 -24 -61 -11 -97 34 -101
41 -4 46 0 141 116 144 176 169 219 150 255 -25 47 -55 48 -105 5z"/>
<path d="M7474 7544 c-13 -31 -13 -53 -4 -149 12 -122 47 -290 77 -369 23 -63
62 -94 98 -78 50 23 51 45 12 224 -20 90 -43 208 -52 263 -19 121 -32 145 -81
145 -31 0 -37 -4 -50 -36z"/>
<path d="M7863 7115 c-31 -22 -36 -60 -19 -147 19 -101 53 -177 83 -189 33
-12 71 5 79 37 15 58 -33 252 -71 290 -28 28 -42 30 -72 9z"/>
<path d="M11655 6959 c-60 -53 -185 -208 -213 -265 -21 -43 -24 -59 -16 -81
11 -31 49 -42 83 -23 18 9 119 127 218 254 42 53 52 100 28 126 -26 29 -59 25
-100 -11z"/>
<path d="M11099 6722 c-85 -88 -192 -242 -210 -302 -10 -33 -9 -43 5 -65 14
-21 24 -26 49 -23 28 3 42 17 110 108 42 58 99 131 125 164 87 108 101 146 66
180 -33 34 -65 20 -145 -62z"/>
</g>
</svg>
