<?xml version="1.0" standalone="no"?>
<!DOCTYPE svg PUBLIC "-//W3C//DTD SVG 20010904//EN"
 "http://www.w3.org/TR/2001/REC-SVG-20010904/DTD/svg10.dtd">
<svg version="1.0" xmlns="http://www.w3.org/2000/svg"
 width="1024.000000pt" height="1024.000000pt" viewBox="0 0 1024.000000 1024.000000"
 preserveAspectRatio="xMidYMid meet">
<metadata>
Created by potrace 1.16, written by Peter Selinger 2001-2019
</metadata>
<g transform="translate(0.000000,1024.000000) scale(0.100000,-0.100000)"
fill="#000000" stroke="none">
<path d="M6234 8281 c-11 -5 -38 -32 -60 -61 -53 -70 -162 -156 -344 -270
-385 -241 -522 -375 -653 -635 -31 -62 -86 -223 -102 -298 -6 -30 -25 -28 -25
4 0 34 -49 230 -92 367 -50 161 -67 182 -142 182 -129 0 -309 -84 -429 -199
-58 -55 -81 -95 -73 -127 4 -13 40 -75 80 -137 115 -175 376 -651 364 -662 -2
-2 -33 14 -69 35 -394 224 -940 189 -1387 -88 -404 -251 -668 -667 -764 -1202
-9 -51 -13 -162 -13 -345 1 -233 4 -288 23 -399 106 -612 381 -1157 792 -1566
273 -273 575 -439 872 -480 166 -23 317 4 531 96 226 97 375 122 527 90 36 -8
128 -34 205 -59 181 -58 266 -71 413 -64 146 7 255 37 407 112 148 73 275 167
416 307 245 245 462 583 609 952 162 408 246 901 220 1293 -34 499 -182 887
-442 1159 -182 190 -383 307 -646 378 -431 115 -939 0 -1243 -282 -33 -30 -61
-53 -64 -51 -2 3 -5 51 -6 109 -1 93 0 105 17 112 11 4 102 28 204 52 573 139
818 269 973 517 145 232 179 578 91 919 -27 102 -59 181 -90 217 -21 26 -69
37 -100 24z m59 -288 c92 -371 36 -693 -154 -897 -108 -115 -221 -182 -431
-255 -126 -43 -517 -145 -525 -137 -16 16 189 219 346 343 194 154 393 370
501 548 85 138 170 346 170 414 0 23 45 91 61 91 3 0 18 -48 32 -107z m-207
-109 c-110 -269 -327 -541 -621 -776 -127 -102 -227 -194 -263 -242 -12 -16
-24 -27 -26 -25 -8 8 24 144 60 254 94 288 232 456 532 653 73 48 181 119 240
158 59 39 109 69 110 68 2 -1 -12 -42 -32 -90z m-1242 -584 c53 -184 102 -423
130 -631 29 -216 42 -399 29 -399 -5 0 -22 30 -37 68 -97 226 -418 815 -494
904 -19 22 -15 27 67 82 100 67 243 125 263 107 3 -3 23 -62 42 -131z m1467
-746 c541 -93 923 -496 1049 -1107 35 -168 43 -260 43 -462 0 -224 -16 -376
-63 -599 -179 -843 -700 -1569 -1256 -1751 -182 -60 -337 -53 -581 26 -158 51
-292 79 -373 79 -112 0 -259 -40 -455 -125 -144 -62 -272 -89 -385 -81 -485
32 -1001 466 -1339 1126 -210 409 -324 934 -291 1340 36 443 191 804 462 1072
196 193 408 313 683 384 134 34 349 44 481 20 113 -19 244 -63 332 -111 108
-59 242 -167 314 -253 37 -44 76 -83 86 -86 35 -12 70 12 127 88 170 226 436
388 721 440 110 20 329 20 445 0z"/>
</g>
</svg>
