<?xml version="1.0" standalone="no"?>
<!DOCTYPE svg PUBLIC "-//W3C//DTD SVG 20010904//EN"
 "http://www.w3.org/TR/2001/REC-SVG-20010904/DTD/svg10.dtd">
<svg version="1.0" xmlns="http://www.w3.org/2000/svg"
 width="1024.000000pt" height="1024.000000pt" viewBox="0 0 1024.000000 1024.000000"
 preserveAspectRatio="xMidYMid meet">
<metadata>
Created by potrace 1.16, written by Peter Selinger 2001-2019
</metadata>
<g transform="translate(0.000000,1024.000000) scale(0.100000,-0.100000)"
fill="#000000" stroke="none">
<path d="M4475 7449 c-232 -46 -370 -122 -675 -374 -246 -203 -375 -288 -645
-430 -469 -245 -773 -471 -906 -673 -82 -125 -102 -200 -114 -432 -11 -233 21
-387 94 -441 31 -23 31 -23 12 -43 -27 -28 -41 -70 -41 -117 0 -34 -3 -39 -22
-39 -31 -1 -107 -36 -137 -63 -13 -12 -34 -44 -47 -72 -41 -86 -27 -184 34
-249 l27 -28 -25 -17 c-51 -34 -81 -65 -108 -110 -24 -41 -27 -56 -27 -136 0
-78 4 -97 26 -140 32 -62 102 -117 178 -140 31 -10 57 -19 58 -20 2 -1 -6 -18
-16 -39 -32 -61 -44 -167 -38 -326 11 -302 73 -434 240 -510 188 -85 762 -184
1512 -260 634 -64 826 -87 1210 -146 524 -80 626 -85 717 -38 52 27 269 168
383 249 187 133 280 212 525 446 200 190 403 369 531 466 52 40 164 126 249
191 234 178 289 263 298 458 4 96 6 102 29 115 42 23 132 129 163 194 56 114
64 161 64 386 l1 206 43 61 c58 83 74 126 74 197 0 70 -10 99 -47 144 -49 57
-98 76 -200 76 -74 -1 -101 -6 -154 -27 l-63 -27 -22 26 -22 25 56 57 c179
179 196 304 110 809 -22 125 -33 153 -82 198 -109 101 -283 143 -858 209 -469
53 -1176 163 -1382 214 -64 16 -181 50 -260 75 -264 84 -333 97 -523 101 -93
2 -192 0 -220 -6z m440 -158 c50 -10 140 -35 200 -54 305 -98 386 -116 795
-182 423 -68 589 -91 925 -130 363 -42 510 -66 632 -101 126 -36 183 -77 183
-129 0 -36 -65 -157 -131 -245 -150 -200 -328 -356 -580 -507 -189 -114 -255
-163 -491 -360 -252 -210 -329 -267 -433 -315 -120 -55 -211 -71 -405 -71
-232 0 -448 33 -769 119 -299 80 -518 134 -693 169 -298 60 -895 162 -1103
190 -378 49 -490 67 -604 96 -62 15 -116 31 -119 34 -13 13 47 103 122 182
142 150 349 299 643 459 87 48 208 114 268 147 173 94 292 177 541 377 127
102 260 202 295 223 79 46 192 90 284 111 94 21 316 15 440 -13z m2792 -1037
c6 -116 5 -123 -20 -178 -30 -65 -37 -72 -372 -386 -241 -225 -324 -296 -466
-398 -96 -69 -196 -150 -320 -263 -106 -95 -203 -172 -299 -236 -85 -57 -249
-147 -255 -141 -3 3 29 410 35 454 0 0 42 21 93 47 104 54 222 141 458 340
154 130 227 181 560 397 205 132 357 271 492 448 70 93 71 94 79 65 5 -15 11
-82 15 -149z m-131 -626 c8 -15 14 -44 14 -66 0 -68 -43 -118 -237 -273 -98
-79 -218 -176 -268 -217 -216 -179 -679 -497 -865 -596 -215 -113 -474 -177
-720 -178 -156 -1 -252 14 -510 77 -269 67 -444 93 -815 120 -367 28 -564 60
-1003 165 -136 32 -310 70 -387 85 -270 50 -376 86 -433 148 -28 30 -24 57 16
100 31 32 46 33 137 7 244 -70 744 -205 872 -234 395 -92 784 -148 1223 -176
226 -15 313 -25 541 -66 286 -50 407 -64 553 -64 210 0 319 33 528 160 145 88
248 165 395 297 148 133 233 202 353 288 141 102 188 142 379 322 169 160 174
163 193 146 11 -10 26 -30 34 -45z m-5222 17 c85 -26 301 -63 586 -100 650
-86 1229 -198 1823 -354 416 -110 659 -147 897 -137 80 4 160 9 178 12 31 6
33 5 28 -17 -3 -13 -12 -114 -21 -224 -9 -110 -18 -206 -20 -212 -6 -16 -161
-17 -306 -2 -98 10 -157 19 -438 69 -141 25 -240 36 -441 50 -705 48 -987 101
-1920 356 -190 52 -361 103 -380 112 -56 27 -66 83 -62 350 2 125 -1 120 76
97z m5600 5 c14 -5 32 -23 41 -40 20 -38 10 -77 -37 -141 -17 -23 -42 -67 -56
-98 -24 -53 -25 -59 -19 -210 12 -293 -37 -425 -194 -530 -82 -55 -140 -71
-295 -80 -116 -7 -137 -11 -177 -34 -52 -31 -77 -77 -96 -177 -14 -71 -38
-125 -68 -152 -31 -29 -104 -56 -178 -68 -151 -23 -180 -42 -241 -160 -56
-110 -93 -140 -207 -170 -179 -46 -213 -70 -284 -197 -115 -208 -204 -237
-528 -168 -247 53 -433 69 -960 85 -219 6 -353 16 -495 34 -266 35 -381 45
-690 61 -304 16 -349 25 -416 87 -33 31 -50 59 -74 121 -17 45 -40 104 -53
131 -29 64 -105 132 -170 151 -65 19 -198 19 -307 0 -254 -45 -306 -41 -377
30 -41 40 -43 45 -43 100 0 56 2 60 44 100 64 62 113 75 278 75 l139 0 28 -64
c71 -156 188 -207 401 -171 151 25 222 10 274 -58 25 -32 56 -129 56 -174 0
-45 43 -153 77 -193 70 -81 181 -116 273 -85 68 23 108 59 182 168 72 104 117
141 194 158 48 11 72 10 187 -9 157 -26 190 -27 314 -6 109 19 203 15 253 -9
19 -9 73 -49 120 -87 118 -99 172 -123 281 -128 108 -5 169 12 280 79 140 85
161 84 323 -9 169 -97 320 -106 475 -28 100 51 207 173 289 331 17 33 60 121
96 196 100 208 150 247 377 294 166 34 279 88 380 184 127 118 178 235 165
377 l-7 71 56 43 c111 86 155 157 164 265 l6 70 60 22 c65 24 120 28 159 13z
m-584 -568 c0 -79 -118 -217 -235 -277 -57 -29 -248 -80 -243 -65 2 5 57 49
123 98 66 49 170 130 230 180 61 51 113 92 118 92 4 0 7 -13 7 -28z m-5038
-352 c105 -56 132 -64 431 -126 148 -30 370 -80 492 -109 340 -83 520 -111
890 -140 414 -32 545 -51 825 -120 314 -78 476 -96 665 -76 295 33 558 123
795 274 47 30 86 54 87 53 2 -2 -10 -27 -27 -57 -16 -31 -50 -102 -75 -159
-83 -187 -178 -311 -275 -362 -38 -19 -60 -23 -140 -23 -87 0 -101 3 -155 31
-221 114 -205 108 -280 109 -75 0 -69 2 -264 -101 -66 -35 -81 -39 -145 -39
-88 1 -121 16 -229 107 -45 37 -107 80 -137 95 -51 26 -64 28 -170 27 -63 0
-171 -4 -240 -8 -98 -6 -143 -5 -209 8 -155 30 -268 14 -362 -51 -58 -40 -80
-66 -142 -159 -61 -90 -94 -118 -142 -118 -77 0 -119 60 -145 207 -21 120 -52
188 -108 239 -50 45 -72 57 -137 74 -65 18 -108 17 -235 -2 -82 -13 -114 -14
-147 -5 -49 13 -94 57 -112 108 -7 21 -24 53 -38 71 -42 56 -72 65 -243 72
-165 7 -203 17 -234 62 -36 51 -6 129 57 147 55 16 73 12 149 -29z m5296 -343
c-6 -70 -41 -142 -99 -198 -26 -26 -135 -111 -241 -191 -244 -183 -409 -322
-638 -540 -236 -226 -322 -301 -455 -402 -150 -114 -354 -250 -362 -243 -3 4
-10 75 -14 159 -4 84 -11 181 -14 216 l-6 62 69 0 c117 0 223 43 299 122 18
18 56 76 86 128 63 109 79 121 197 151 45 11 104 30 129 42 60 28 128 98 168
173 18 33 41 68 52 78 12 11 60 27 113 37 212 43 305 130 344 322 20 99 26
103 176 110 68 3 134 10 148 15 48 20 53 16 48 -41z m-4905 -431 c18 -7 42
-24 54 -37 21 -23 86 -169 79 -176 -10 -10 -567 85 -582 99 -3 4 5 23 19 45
24 37 26 38 133 60 128 25 251 29 297 9z m-356 -281 c120 -25 391 -67 513 -80
49 -6 75 -15 113 -41 87 -60 152 -73 442 -89 323 -18 447 -29 698 -61 249 -31
442 -44 673 -44 200 0 382 -12 549 -36 122 -17 294 -49 301 -56 4 -4 34 -464
34 -525 0 -22 -4 -23 -73 -23 -89 0 -267 21 -497 60 -228 39 -562 81 -985 125
-845 88 -1019 111 -1350 176 -458 91 -500 119 -535 364 -9 67 -14 255 -6 255
2 0 57 -11 123 -25z"/>
<path d="M4445 7099 c-49 -33 -111 -71 -136 -84 -41 -21 -58 -44 -59 -77 0
-17 42 -48 64 -48 26 0 112 47 204 111 49 34 62 39 113 39 143 0 298 -34 522
-116 201 -73 353 -112 499 -126 l120 -12 19 23 c47 57 12 95 -96 104 -122 11
-295 54 -485 121 -96 34 -202 70 -235 79 -93 26 -250 47 -350 47 l-90 0 -90
-61z"/>
<path d="M3850 6795 c-172 -122 -240 -181 -240 -210 0 -30 32 -65 61 -65 20 0
284 187 341 242 15 14 28 36 28 47 0 28 -35 61 -62 60 -13 0 -70 -34 -128 -74z"/>
<path d="M6120 6838 c-30 -16 -40 -77 -17 -97 9 -7 73 -13 178 -15 233 -6 406
-28 643 -81 124 -28 246 -65 246 -74 0 -4 -34 -40 -76 -81 -111 -109 -204
-234 -204 -276 0 -25 7 -38 25 -50 37 -24 55 -15 108 56 71 96 200 233 278
297 55 44 69 61 69 83 0 15 -6 32 -12 37 -37 28 -393 130 -553 159 -245 45
-636 68 -685 42z"/>
<path d="M4730 6532 c-154 -66 -243 -120 -353 -216 -68 -59 -77 -71 -77 -101
0 -37 20 -55 60 -55 12 0 54 27 93 61 101 85 196 142 344 206 70 30 131 60
135 67 24 36 -6 96 -48 96 -10 0 -80 -26 -154 -58z"/>
<path d="M5525 6445 c-157 -71 -403 -230 -419 -271 -9 -24 4 -63 24 -74 35
-19 56 -10 150 60 58 43 159 102 257 151 89 45 164 88 167 96 10 24 7 58 -6
71 -22 22 -72 12 -173 -33z"/>
<path d="M3334 6394 c-21 -15 -104 -67 -184 -116 -159 -98 -397 -256 -475
-316 -42 -31 -51 -44 -53 -74 -3 -32 1 -39 25 -51 36 -18 196 -49 215 -42 8 3
21 17 28 30 17 33 0 72 -35 81 -14 3 -25 9 -25 14 0 7 210 147 295 195 82 47
278 175 303 198 27 25 29 68 4 90 -26 24 -53 21 -98 -9z"/>
<path d="M6634 6066 c-32 -24 -108 -74 -169 -110 -339 -201 -346 -207 -311
-261 25 -38 59 -32 160 29 50 29 143 84 206 121 153 90 249 161 256 191 4 15
0 34 -10 49 -25 38 -62 32 -132 -19z"/>
<path d="M3117 5832 c-24 -27 -21 -69 6 -86 25 -17 182 -38 457 -61 274 -24
298 -28 740 -119 118 -24 259 -50 312 -57 91 -12 99 -11 118 6 25 22 26 67 3
87 -10 9 -45 18 -79 22 -33 4 -125 20 -205 37 -558 117 -623 127 -924 149 -82
6 -197 18 -254 26 -135 18 -155 18 -174 -4z"/>
<path d="M5855 5546 l-80 -74 -91 -6 c-98 -8 -290 6 -446 30 -109 17 -135 13
-148 -22 -15 -39 3 -71 47 -83 147 -38 498 -59 644 -38 53 8 61 13 142 92 96
92 110 122 78 154 -35 35 -60 26 -146 -53z"/>
</g>
</svg>
