<?xml version="1.0" standalone="no"?>
<!DOCTYPE svg PUBLIC "-//W3C//DTD SVG 20010904//EN"
 "http://www.w3.org/TR/2001/REC-SVG-20010904/DTD/svg10.dtd">
<svg version="1.0" xmlns="http://www.w3.org/2000/svg"
 width="1024.000000pt" height="1024.000000pt" viewBox="0 0 1024.000000 1024.000000"
 preserveAspectRatio="xMidYMid meet">
<metadata>
Created by potrace 1.16, written by Peter Selinger 2001-2019
</metadata>
<g transform="translate(0.000000,1024.000000) scale(0.100000,-0.100000)"
fill="#000000" stroke="none">
<path d="M4540 8383 c-141 -5 -516 -32 -660 -49 -585 -65 -821 -169 -906 -401
l-29 -78 0 -315 c0 -391 3 -403 133 -486 88 -57 115 -123 88 -218 -15 -49 -31
-72 -128 -174 -228 -240 -345 -446 -419 -739 -65 -257 -64 -235 -64 -1553 0
-1277 0 -1289 51 -1516 93 -422 297 -672 660 -809 502 -190 1984 -255 3044
-134 663 76 942 200 1147 507 120 179 196 421 222 712 14 151 15 2280 1 2445
-14 161 -44 315 -91 460 -78 239 -185 416 -365 604 -127 133 -157 182 -157
256 -1 68 23 109 87 150 71 45 112 94 131 157 22 74 22 584 0 677 -78 328
-440 447 -1520 501 -178 9 -1001 11 -1225 3z m1385 -262 c526 -41 852 -93 974
-156 l46 -23 -45 -20 c-65 -29 -185 -58 -340 -81 -751 -112 -2000 -117 -2805
-10 -235 31 -445 83 -445 110 0 5 17 17 38 28 122 62 551 125 1022 151 107 6
222 12 255 14 130 7 1168 -3 1300 -13z m-2660 -441 c185 -79 678 -144 1310
-171 299 -13 1063 -7 1335 10 529 34 922 96 1113 176 16 7 17 -6 17 -197 0
-191 -1 -206 -20 -223 -64 -58 -651 -137 -1225 -165 -269 -13 -1059 -13 -1330
0 -616 30 -1178 105 -1246 166 -18 16 -19 32 -19 221 0 116 4 203 9 203 5 0
30 -9 56 -20z m3545 -775 c0 -152 49 -250 213 -422 246 -259 349 -483 392
-852 12 -104 15 -327 15 -1276 0 -724 -4 -1183 -10 -1240 -54 -466 -218 -724
-530 -833 -572 -199 -2297 -240 -3227 -77 -186 33 -297 66 -413 122 -194 94
-314 264 -384 545 -50 198 -49 171 -53 1413 -4 1229 -2 1310 38 1510 56 278
153 459 364 685 64 68 130 147 146 175 41 70 69 167 69 236 0 69 -9 66 131 44
747 -112 2022 -125 2879 -29 162 18 343 44 349 50 14 14 21 -3 21 -51z"/>
<path d="M3391 6203 c-29 -15 -43 -35 -92 -138 -130 -273 -159 -438 -159 -903
0 -337 2 -346 64 -376 59 -28 103 -21 146 22 l38 37 5 345 c6 377 13 440 68
610 17 52 51 134 75 182 49 97 53 128 24 175 -36 60 -104 78 -169 46z"/>
</g>
</svg>
