<?xml version="1.0" standalone="no"?>
<!DOCTYPE svg PUBLIC "-//W3C//DTD SVG 20010904//EN"
 "http://www.w3.org/TR/2001/REC-SVG-20010904/DTD/svg10.dtd">
<svg version="1.0" xmlns="http://www.w3.org/2000/svg"
 width="2048.000000pt" height="2048.000000pt" viewBox="0 0 2048.000000 2048.000000"
 preserveAspectRatio="xMidYMid meet">
<metadata>
Created by potrace 1.16, written by Peter Selinger 2001-2019
</metadata>
<g transform="translate(0.000000,2048.000000) scale(0.100000,-0.100000)"
fill="#000000" stroke="none">
<path d="M11470 15573 c-463 -24 -889 -102 -1527 -279 -1333 -371 -2525 -1059
-3367 -1944 -204 -214 -350 -394 -500 -615 l-68 -100 -132 -46 c-237 -82 -424
-176 -646 -325 -166 -111 -296 -221 -465 -395 -451 -463 -750 -1017 -986
-1820 -62 -215 -74 -236 -155 -295 -89 -64 -176 -116 -241 -144 l-52 -22 -46
32 c-148 102 -329 142 -487 109 -178 -38 -359 -181 -452 -359 -63 -120 -81
-198 -81 -345 1 -115 4 -139 27 -203 38 -104 82 -174 165 -257 71 -71 72 -73
62 -107 -33 -120 -27 -288 13 -395 109 -296 439 -439 765 -332 169 55 327 218
396 408 20 56 23 59 106 104 47 26 109 60 136 76 l50 29 97 -102 97 -103 -43
-99 c-56 -126 -118 -320 -147 -454 -20 -90 -23 -134 -23 -310 0 -187 2 -215
26 -317 100 -421 364 -763 772 -1002 383 -223 811 -345 1459 -416 390 -42 401
-44 627 -140 430 -181 731 -229 1490 -241 l375 -6 141 -44 c300 -92 696 -166
1034 -194 175 -15 530 -15 695 0 174 15 406 53 595 96 l155 36 282 -12 c569
-26 1234 16 2018 126 686 97 1314 251 1795 439 1250 492 1956 1112 2430 2135
154 334 269 697 317 1000 26 170 24 516 -5 705 -87 560 -377 1230 -834 1923
-154 234 -275 462 -527 997 -338 718 -570 1066 -995 1490 -412 411 -839 717
-1411 1011 -594 305 -1241 533 -1795 633 -370 66 -780 93 -1140 74z m615 -364
c589 -51 1220 -229 1895 -536 782 -356 1410 -829 1896 -1428 209 -257 370
-548 794 -1435 166 -347 192 -394 360 -646 507 -762 800 -1527 800 -2089 0
-175 -41 -457 -81 -550 -12 -29 -13 -27 -20 45 -31 287 -131 474 -573 1075
-274 374 -446 586 -513 637 -20 15 -51 31 -70 34 -46 9 -114 -18 -142 -57 -28
-38 -56 -118 -66 -188 -4 -28 -10 -51 -14 -49 -4 2 -48 50 -98 108 -109 126
-400 420 -574 581 -496 456 -1138 893 -1403 954 -168 39 -272 -42 -307 -240
-25 -144 7 -458 76 -742 72 -296 237 -713 395 -1000 101 -183 259 -424 370
-563 119 -150 336 -362 463 -455 l108 -78 -138 -72 c-480 -250 -998 -637
-1477 -1104 -96 -95 -127 -120 -123 -101 3 14 19 79 36 145 41 156 76 344 97
525 20 179 15 575 -10 740 -25 162 -93 423 -143 550 -215 544 -556 925 -1038
1160 -719 350 -1600 324 -2535 -75 -514 -219 -1096 -574 -1820 -1109 -403
-298 -1089 -849 -1338 -1075 l-107 -98 -110 -26 c-210 -49 -398 -79 -582 -93
l-92 -7 -93 95 c-80 80 -108 102 -188 142 -52 26 -99 55 -104 64 -5 9 -9 107
-9 217 0 162 6 251 33 473 34 290 34 307 -14 300 -27 -4 -57 -66 -95 -200 -67
-231 -98 -479 -86 -674 l6 -111 -62 -7 c-270 -31 -495 -215 -585 -481 -39
-115 -45 -285 -14 -408 27 -109 49 -161 111 -258 l49 -76 -30 -55 c-115 -213
-82 -517 76 -696 25 -29 44 -55 41 -58 -8 -8 -146 77 -237 144 -167 124 -344
335 -414 495 -76 173 -114 369 -101 527 16 211 68 381 205 670 48 102 90 196
93 210 4 14 50 97 103 185 216 361 325 642 383 990 11 66 32 219 46 340 54
454 105 695 213 1022 169 508 440 1022 801 1518 300 412 477 621 762 900 518
506 1130 915 1918 1282 532 247 1171 457 1829 599 214 46 592 103 782 117 109
8 556 6 665 -4z m-6305 -2993 c0 -3 -38 -63 -84 -133 -336 -515 -583 -1088
-705 -1633 -39 -176 -63 -324 -106 -665 -20 -154 -42 -323 -51 -375 -44 -275
-134 -506 -339 -865 -47 -82 -87 -154 -89 -160 -4 -10 -170 147 -187 177 -8
15 5 25 94 68 117 57 167 99 167 139 0 35 -13 52 -78 99 -28 22 -62 51 -73 66
-21 27 -21 28 -3 69 28 61 85 131 184 227 92 88 111 123 92 165 -21 45 -53 56
-194 66 -166 11 -192 18 -197 50 -5 38 18 125 61 228 49 117 57 164 33 191
-24 27 -67 25 -162 -5 -42 -13 -79 -22 -81 -20 -11 11 125 411 213 625 288
702 721 1245 1232 1546 110 65 255 144 266 144 4 0 7 -2 7 -4z m8523 -835
c162 -73 470 -268 730 -464 500 -376 938 -799 1263 -1221 55 -72 115 -141 134
-153 63 -43 125 -22 156 54 12 27 13 68 8 208 -4 96 -4 175 1 175 9 0 -11 26
221 -282 454 -602 623 -871 660 -1048 22 -105 13 -274 -21 -400 -32 -121 -127
-312 -202 -412 -100 -132 -336 -362 -958 -934 -286 -264 -661 -577 -860 -719
-438 -312 -844 -475 -1313 -526 -139 -14 -439 -6 -532 15 -340 77 -483 271
-411 555 27 110 73 202 176 357 134 201 219 299 494 574 490 490 967 859 1446
1118 143 77 213 110 388 182 59 24 84 41 98 64 39 63 12 129 -68 166 -26 12
-73 34 -103 48 -89 42 -249 155 -342 242 -509 474 -972 1446 -1039 2182 -9
101 -6 248 6 248 2 0 32 -13 68 -29z m-2490 -967 c192 -26 412 -88 592 -166
540 -233 913 -692 1071 -1314 46 -184 65 -328 71 -554 18 -651 -202 -1362
-593 -1910 -298 -419 -711 -762 -1199 -996 -405 -194 -818 -294 -1333 -324
-500 -29 -1194 79 -1728 269 -640 227 -1263 605 -1645 998 -78 80 -169 189
-169 202 0 4 25 13 55 20 112 25 140 83 89 181 -70 135 -37 193 186 321 179
103 203 120 223 161 17 35 17 39 2 72 -19 40 -46 59 -210 151 -161 90 -174
101 -197 153 -26 58 -20 91 44 225 44 92 50 111 40 127 -7 11 -12 22 -12 24 0
3 98 83 424 346 624 503 982 771 1441 1077 406 271 667 421 1000 576 682 319
1291 438 1848 361z m-7739 -726 c-35 -111 -44 -210 -23 -265 26 -69 98 -112
212 -128 26 -3 47 -9 47 -12 0 -2 -24 -31 -53 -64 -68 -74 -109 -156 -115
-225 -6 -78 4 -116 44 -163 20 -23 35 -43 33 -45 -26 -20 -203 -106 -218 -106
-32 0 -75 -22 -384 -192 -125 -70 -170 -115 -188 -191 -38 -160 -126 -256
-269 -293 -51 -13 -74 -14 -116 -5 -158 31 -248 134 -248 286 0 60 5 81 36
146 50 107 53 126 26 177 -17 31 -44 56 -103 95 -95 62 -147 126 -175 216 -60
191 33 402 217 493 55 27 70 30 130 26 86 -5 145 -34 226 -111 34 -32 72 -63
85 -68 58 -23 150 0 307 76 169 82 337 211 406 312 28 41 63 60 112 62 15 1
17 -4 11 -21z m1499 -1745 c65 -20 134 -78 196 -162 71 -99 94 -111 206 -111
212 0 562 57 841 136 19 5 20 2 20 -83 -1 -79 2 -93 29 -141 40 -74 107 -130
220 -188 52 -26 95 -49 95 -50 0 -1 -39 -24 -87 -52 -101 -59 -178 -119 -223
-177 -53 -67 -62 -99 -57 -197 2 -49 2 -88 -2 -88 -24 0 -590 -74 -689 -90
-176 -29 -185 -35 -252 -167 -62 -124 -151 -193 -293 -229 -165 -43 -325 28
-404 178 -25 48 -28 63 -28 153 0 90 3 105 28 153 15 29 49 77 76 106 83 92
78 150 -18 234 -169 148 -221 367 -131 559 88 189 281 277 473 216z m11767
-391 c0 -16 -161 -255 -250 -371 -302 -396 -681 -704 -1204 -980 -54 -29 -100
-50 -102 -48 -3 2 39 40 93 83 332 265 688 585 1238 1112 121 116 221 211 223
211 1 1 2 -3 2 -7z m-10643 -1097 c180 -223 437 -455 733 -663 118 -82 304
-198 398 -247 28 -15 52 -30 52 -34 0 -4 -57 -1 -126 5 -323 32 -489 78 -857
239 -165 72 -232 87 -572 129 -304 38 -486 69 -692 118 -130 31 -165 48 -100
48 97 1 258 59 363 131 66 45 146 130 198 209 l45 68 58 7 c32 3 139 19 238
35 99 15 185 29 191 29 5 1 37 -33 71 -74z m6240 -492 c30 -175 175 -350 361
-435 l67 -32 -45 -7 c-142 -25 -1130 -106 -1177 -97 -10 2 48 46 143 110 201
134 344 250 504 405 69 67 127 122 130 123 3 0 11 -30 17 -67z"/>
<path d="M5735 10737 c-95 -45 -148 -136 -148 -253 0 -56 5 -82 24 -120 100
-202 390 -134 439 102 22 104 -22 212 -105 264 -56 35 -146 38 -210 7z"/>
<path d="M7644 10296 c-93 -43 -144 -133 -144 -254 0 -94 17 -139 75 -199 152
-155 400 -50 430 184 14 105 -54 231 -150 274 -58 27 -147 25 -211 -5z"/>
<path d="M6162 9980 c-28 -27 -36 -59 -29 -129 19 -212 258 -365 488 -311 157
37 298 158 270 232 -26 69 -108 82 -166 28 -30 -28 -115 -67 -162 -75 -64 -10
-145 17 -193 65 -36 36 -49 64 -65 143 -13 64 -95 91 -143 47z"/>
</g>
</svg>
