<?xml version="1.0" standalone="no"?>
<!DOCTYPE svg PUBLIC "-//W3C//DTD SVG 20010904//EN"
 "http://www.w3.org/TR/2001/REC-SVG-20010904/DTD/svg10.dtd">
<svg version="1.0" xmlns="http://www.w3.org/2000/svg"
 width="1024.000000pt" height="1024.000000pt" viewBox="0 0 1024.000000 1024.000000"
 preserveAspectRatio="xMidYMid meet">
<metadata>
Created by potrace 1.16, written by Peter Selinger 2001-2019
</metadata>
<g transform="translate(0.000000,1024.000000) scale(0.100000,-0.100000)"
fill="#000000" stroke="none">
<path d="M6990 8426 c-47 -13 -202 -57 -345 -99 -143 -42 -395 -114 -560 -162
-352 -101 -421 -133 -519 -235 -132 -137 -146 -181 -240 -755 -42 -253 -78
-475 -81 -492 l-6 -33 -1024 0 c-721 0 -1040 -3 -1077 -11 -269 -57 -399 -358
-262 -608 25 -48 89 -116 141 -151 21 -15 23 -29 53 -470 92 -1364 218 -2441
339 -2918 83 -325 212 -530 417 -667 58 -38 126 -68 229 -98 67 -20 98 -21
785 -24 486 -3 742 -1 799 7 183 24 314 86 443 209 198 188 290 416 383 956
101 589 180 1354 264 2565 l30 425 33 25 c60 45 109 104 141 170 30 62 32 71
32 180 0 96 -4 124 -23 172 -28 70 -94 145 -159 181 -98 53 -137 57 -510 57
-192 0 -343 4 -343 9 0 31 121 724 129 739 7 14 91 42 333 112 725 208 835
242 887 267 235 114 270 441 64 598 -54 41 -155 75 -222 75 -25 -1 -84 -11
-131 -24z m218 -142 c116 -48 162 -179 99 -287 -16 -26 -46 -60 -69 -74 -41
-28 -236 -87 -898 -275 -298 -84 -328 -95 -364 -128 -45 -40 -71 -93 -81 -165
-8 -62 -103 -640 -111 -677 l-6 -28 -194 0 c-149 0 -194 3 -194 13 0 6 36 227
80 489 91 549 96 565 204 674 77 77 147 111 346 168 316 91 858 249 950 276
108 32 184 37 238 14z m-523 -1805 c114 -60 169 -184 136 -306 -17 -63 -71
-134 -122 -160 -80 -43 -78 -36 -94 -269 -67 -966 -84 -1171 -135 -1704 -42
-430 -123 -1024 -176 -1295 -77 -390 -175 -604 -344 -750 -68 -58 -145 -98
-247 -127 -78 -23 -80 -23 -793 -23 -658 0 -721 1 -795 18 -271 62 -447 260
-550 618 -126 435 -265 1618 -354 3004 -28 420 -31 456 -42 477 -5 10 -31 29
-58 43 -162 82 -192 314 -56 434 74 65 -64 60 1845 61 l1745 0 40 -21z"/>
<path d="M5203 6336 c-14 -17 -27 -72 -47 -193 -15 -92 -32 -189 -38 -215
l-10 -48 -824 0 -825 0 -24 -25 c-30 -29 -32 -68 -6 -94 30 -30 152 -32 1589
-29 l1324 3 25 29 c28 33 25 70 -9 99 -18 15 -47 17 -284 17 l-264 0 0 23 c0
12 14 99 30 192 17 94 30 180 30 193 0 30 -43 72 -73 72 -56 0 -64 -20 -102
-248 -19 -117 -35 -217 -35 -222 0 -6 -80 -10 -200 -10 l-201 0 5 33 c3 17 19
113 36 212 30 177 30 180 12 205 -27 36 -83 40 -109 6z"/>
<path d="M3700 5461 c-94 -29 -168 -110 -185 -201 -3 -19 1 -129 10 -245 86
-1130 185 -1975 266 -2295 35 -137 107 -289 176 -375 65 -80 180 -157 283
-189 132 -42 227 -48 715 -44 421 4 455 6 526 25 289 80 458 294 538 678 78
378 185 1340 251 2269 13 171 5 222 -41 285 -15 22 -50 52 -76 68 l-48 28
-1195 2 c-657 1 -1206 -2 -1220 -6z m1320 -148 c0 -5 -22 -138 -49 -298 -28
-159 -73 -425 -101 -590 -28 -165 -67 -390 -86 -500 -18 -110 -34 -223 -34
-251 0 -122 72 -246 176 -301 144 -77 308 -55 423 57 61 59 87 124 111 275 11
72 41 252 65 400 24 149 76 473 115 720 39 248 74 460 77 473 5 22 7 22 179
22 245 0 252 -6 240 -212 -27 -482 -120 -1396 -197 -1938 -49 -348 -82 -478
-157 -624 -79 -154 -186 -236 -352 -272 -116 -26 -952 -27 -1060 -2 -270 63
-398 241 -475 661 -66 360 -169 1309 -220 2014 -21 302 -21 305 16 342 l31 31
649 0 c357 0 649 -3 649 -7z m550 0 c0 -10 -86 -552 -186 -1167 -41 -252 -74
-468 -74 -480 0 -11 -11 -45 -25 -73 -41 -90 -153 -141 -242 -113 -90 29 -145
102 -144 194 0 47 48 340 211 1291 33 193 60 351 60 353 0 6 400 1 400 -5z"/>
</g>
</svg>
