<?xml version="1.0" standalone="no"?>
<!DOCTYPE svg PUBLIC "-//W3C//DTD SVG 20010904//EN"
 "http://www.w3.org/TR/2001/REC-SVG-20010904/DTD/svg10.dtd">
<svg version="1.0" xmlns="http://www.w3.org/2000/svg"
 width="1024.000000pt" height="1024.000000pt" viewBox="0 0 1024.000000 1024.000000"
 preserveAspectRatio="xMidYMid meet">
<metadata>
Created by potrace 1.16, written by Peter Selinger 2001-2019
</metadata>
<g transform="translate(0.000000,1024.000000) scale(0.100000,-0.100000)"
fill="#000000" stroke="none">
<path d="M5015 8729 c-97 -14 -231 -56 -329 -104 -120 -57 -232 -141 -336
-251 l-85 -89 -50 17 c-233 78 -568 19 -801 -140 -301 -206 -483 -579 -461
-947 l7 -100 -58 -30 c-31 -16 -93 -60 -139 -97 -281 -233 -452 -645 -430
-1040 30 -518 310 -939 782 -1176 312 -156 688 -200 996 -117 139 38 129 41
157 -40 87 -252 127 -670 103 -1070 -18 -289 -43 -511 -106 -935 -65 -435 -75
-624 -42 -731 23 -77 89 -150 170 -188 250 -119 762 -172 1132 -116 250 38
362 96 419 215 34 72 28 266 -17 615 -119 911 -123 1560 -12 2049 13 60 27
111 30 114 2 3 40 -11 83 -31 325 -149 732 -93 1097 149 350 232 604 611 697
1039 18 83 17 447 -1 540 -51 261 -175 493 -352 660 -130 123 -282 207 -448
248 l-91 22 0 85 c0 420 -280 760 -668 813 l-84 12 -20 40 c-65 127 -193 277
-311 366 -240 179 -546 259 -832 218z m318 -154 c303 -53 547 -235 707 -528
46 -84 42 -82 155 -92 80 -8 187 -41 260 -81 28 -15 86 -64 131 -108 143 -143
202 -300 190 -509 -4 -62 -7 -125 -8 -141 -1 -42 32 -66 91 -66 62 0 175 -31
257 -69 218 -102 400 -299 493 -533 58 -146 72 -220 78 -399 6 -194 -7 -298
-62 -464 -101 -310 -315 -593 -580 -771 -168 -112 -311 -168 -503 -200 -162
-27 -340 -1 -480 70 l-70 35 6 46 c6 54 -15 85 -59 85 -65 0 -72 -11 -133
-221 -99 -347 -133 -699 -116 -1219 12 -345 29 -550 86 -1010 49 -390 55 -501
30 -548 -22 -42 -70 -80 -119 -93 -301 -81 -725 -76 -1077 12 -136 34 -195 67
-230 129 -41 74 -34 213 34 685 98 682 126 1056 106 1415 -16 289 -77 617
-136 731 -8 15 -14 30 -14 33 0 13 142 98 149 90 4 -5 18 -38 31 -74 29 -82
45 -100 87 -100 40 0 73 30 73 65 0 14 -35 125 -79 248 -119 335 -120 337
-148 348 -55 21 -112 -24 -98 -78 3 -16 25 -79 48 -142 28 -79 37 -116 29
-119 -6 -2 -56 -33 -109 -69 -125 -83 -175 -108 -265 -132 -179 -48 -350 -52
-563 -11 -394 76 -740 333 -915 679 -41 82 -94 244 -111 341 -18 104 -16 326
5 425 35 165 101 332 176 441 82 118 230 249 347 307 78 39 94 68 83 147 -68
458 222 915 655 1030 161 43 306 37 462 -17 86 -29 104 -25 150 36 49 65 157
172 224 222 114 85 304 162 444 182 70 10 209 6 288 -8z"/>
<path d="M4260 7659 c-137 -27 -257 -132 -309 -272 -29 -78 -27 -111 5 -136
52 -41 95 -17 119 65 11 40 30 71 63 107 92 98 206 123 324 70 56 -25 62 -26
87 -12 39 22 50 63 24 97 -53 71 -187 106 -313 81z"/>
<path d="M5450 7584 c-68 -18 -132 -61 -144 -97 -8 -22 -6 -33 11 -55 27 -37
52 -38 115 -6 147 75 333 -4 383 -161 25 -81 80 -110 125 -65 30 30 25 83 -16
166 -89 180 -282 269 -474 218z"/>
<path d="M5970 7110 c-30 -30 -25 -71 13 -113 40 -46 75 -55 107 -29 32 26 30
70 -3 121 -23 35 -32 41 -62 41 -22 0 -43 -8 -55 -20z"/>
<path d="M3605 7069 c-58 -54 -85 -124 -85 -223 0 -63 3 -75 23 -94 28 -27 78
-29 99 -4 11 11 17 43 20 93 3 72 6 79 46 131 47 61 52 88 22 118 -33 33 -74
26 -125 -21z"/>
<path d="M6297 6530 c-43 -13 -57 -29 -57 -64 0 -56 17 -68 111 -76 48 -4 101
-14 123 -25 46 -22 99 -73 122 -116 23 -44 29 -131 14 -193 -15 -62 -4 -92 35
-102 64 -16 99 24 114 127 18 132 -22 251 -114 338 -98 92 -249 141 -348 111z"/>
<path d="M3892 6490 c-152 -32 -264 -131 -321 -283 -30 -81 -28 -130 5 -156
58 -45 100 -19 119 73 17 78 52 132 115 175 77 52 154 63 271 39 53 -11 60
-10 79 7 26 24 27 78 1 104 -38 38 -182 59 -269 41z"/>
<path d="M6816 5609 c-30 -24 -32 -42 -11 -94 22 -51 21 -164 -1 -207 -32 -63
-56 -89 -110 -119 -59 -34 -74 -62 -53 -101 16 -31 28 -38 70 -38 76 0 189
104 230 213 43 113 28 280 -31 339 -34 33 -58 35 -94 7z"/>
<path d="M4757 5522 c-33 -36 -11 -212 49 -391 57 -172 124 -269 216 -315 157
-78 313 23 446 289 53 107 112 267 112 305 0 55 -59 87 -110 60 -10 -5 -26
-33 -36 -62 -56 -171 -160 -363 -234 -432 -53 -50 -66 -54 -110 -31 -79 41
-160 226 -200 458 -10 59 -23 114 -30 122 -18 21 -83 19 -103 -3z"/>
<path d="M3423 5365 c-11 -8 -23 -27 -26 -42 -7 -38 11 -129 35 -176 45 -88
159 -177 208 -162 55 18 70 90 24 122 -90 63 -124 113 -124 181 0 75 -62 116
-117 77z"/>
<path d="M5765 5337 c-22 -34 -127 -320 -171 -466 -34 -114 -36 -126 -23 -150
20 -36 63 -50 96 -31 22 13 37 49 98 230 40 118 84 247 99 286 14 39 26 83 26
97 0 54 -95 80 -125 34z"/>
<path d="M4890 4097 c-79 -40 -79 -222 1 -266 36 -20 76 -7 99 31 70 116 -2
285 -100 235z"/>
<path d="M5323 4100 c-34 -14 -54 -54 -60 -117 -16 -179 153 -226 182 -51 19
110 -46 200 -122 168z"/>
<path d="M4707 3762 c-21 -23 -22 -86 -2 -106 37 -37 103 -26 124 20 16 35 14
48 -10 78 -25 32 -86 37 -112 8z"/>
<path d="M5487 3762 c-17 -19 -23 -78 -9 -98 10 -15 47 -34 67 -34 9 0 30 14
47 30 24 25 29 36 23 58 -3 15 -14 35 -22 45 -22 23 -85 23 -106 -1z"/>
<path d="M5239 3594 c-39 -48 -109 -56 -163 -19 -66 45 -126 23 -126 -45 0
-64 92 -120 195 -120 69 0 152 33 179 71 24 35 21 94 -6 113 -29 20 -62 20
-79 0z"/>
</g>
</svg>
