<?xml version="1.0" standalone="no"?>
<!DOCTYPE svg PUBLIC "-//W3C//DTD SVG 20010904//EN"
 "http://www.w3.org/TR/2001/REC-SVG-20010904/DTD/svg10.dtd">
<svg version="1.0" xmlns="http://www.w3.org/2000/svg"
 width="1024.000000pt" height="1024.000000pt" viewBox="0 0 1024.000000 1024.000000"
 preserveAspectRatio="xMidYMid meet">
<metadata>
Created by potrace 1.16, written by Peter Selinger 2001-2019
</metadata>
<g transform="translate(0.000000,1024.000000) scale(0.100000,-0.100000)"
fill="#000000" stroke="none">
<path d="M4765 6724 c-540 -73 -1030 -331 -1361 -717 -119 -139 -181 -232
-259 -392 -107 -218 -152 -387 -162 -610 -16 -372 102 -700 342 -953 45 -48
101 -116 125 -152 101 -153 316 -327 520 -424 627 -296 1409 -281 2051 40 433
216 758 572 888 971 83 255 90 480 21 748 -15 61 -30 144 -34 185 -24 285
-172 572 -411 798 -289 274 -727 461 -1197 512 -131 14 -400 11 -523 -6z m557
-160 c592 -76 1089 -379 1300 -791 88 -172 112 -274 113 -478 0 -211 -35 -367
-124 -544 -191 -379 -539 -661 -1024 -830 -449 -156 -884 -185 -1422 -95 -437
73 -718 252 -888 564 -91 166 -132 340 -131 555 0 220 46 410 146 610 270 539
874 940 1528 1014 128 14 370 12 502 -5z m1472 -1880 c-61 -294 -236 -579
-484 -786 -267 -224 -591 -369 -975 -439 -152 -27 -482 -37 -636 -19 -234 27
-470 90 -634 170 -101 50 -200 108 -194 115 2 2 54 -9 114 -25 187 -48 538
-90 753 -90 308 0 724 81 1003 195 493 202 827 491 1021 882 23 46 43 81 45
80 2 -2 -4 -39 -13 -83z"/>
<path d="M4805 6124 c-23 -49 -31 -216 -16 -309 16 -96 47 -149 88 -153 25 -3
35 2 50 25 15 22 18 47 17 143 -2 232 -85 408 -139 294z"/>
<path d="M5125 6144 c-81 -81 -139 -383 -88 -452 26 -35 43 -37 76 -12 69 54
122 375 76 461 -12 23 -42 25 -64 3z"/>
<path d="M5412 6104 c-23 -10 -104 -135 -138 -212 -37 -86 -51 -164 -35 -204
9 -23 17 -28 45 -28 27 0 41 7 64 36 65 79 123 237 125 342 2 65 1 67 -23 69
-14 1 -31 -1 -38 -3z"/>
<path d="M4526 6084 c-23 -60 8 -251 60 -363 34 -76 60 -101 101 -101 38 0 53
25 53 88 -1 93 -73 287 -134 360 -30 34 -70 43 -80 16z"/>
<path d="M5659 6000 c-83 -44 -215 -217 -234 -308 -8 -41 15 -82 48 -82 60 0
161 120 234 277 53 115 35 158 -48 113z"/>
<path d="M4243 5983 c-20 -53 79 -287 160 -375 73 -79 130 -77 135 6 4 55 -30
136 -96 233 -80 116 -180 185 -199 136z"/>
<path d="M5865 5815 c-129 -54 -275 -191 -275 -259 0 -40 15 -56 52 -56 38 0
79 22 155 82 99 78 187 191 181 231 -4 31 -41 32 -113 2z"/>
<path d="M3974 5805 c-10 -24 2 -56 44 -120 76 -118 215 -235 277 -235 39 0
55 16 55 55 0 114 -343 387 -376 300z"/>
<path d="M5995 5615 c-167 -45 -305 -134 -305 -196 0 -79 118 -68 280 27 67
39 144 104 161 137 24 44 -37 59 -136 32z"/>
<path d="M3753 5593 c-7 -2 -13 -17 -13 -31 0 -79 325 -281 415 -258 62 16 51
86 -22 143 -111 87 -326 169 -380 146z"/>
<path d="M5925 5340 c-129 -21 -200 -62 -193 -112 7 -54 108 -71 258 -44 189
35 295 111 203 147 -39 15 -196 20 -268 9z"/>
<path d="M3625 5307 c-26 -20 -13 -57 30 -85 64 -41 211 -83 310 -88 104 -6
138 6 143 49 6 51 -73 95 -226 126 -77 16 -234 14 -257 -2z"/>
<path d="M5775 5104 c-11 -3 -30 -7 -42 -10 -57 -12 -53 -83 5 -113 80 -41
317 -66 401 -42 33 9 49 36 35 58 -34 54 -310 128 -399 107z"/>
<path d="M3765 5046 c-67 -15 -148 -50 -166 -72 -16 -20 -5 -40 33 -61 27 -14
57 -18 158 -18 134 1 218 18 272 57 35 25 38 67 6 88 -32 20 -224 24 -303 6z"/>
<path d="M5604 4895 c-17 -25 -17 -29 0 -59 57 -106 416 -222 416 -134 0 61
-226 203 -343 215 -51 5 -56 4 -73 -22z"/>
<path d="M3998 4855 c-76 -28 -222 -110 -259 -145 -91 -86 -9 -118 163 -64
187 59 301 157 246 212 -16 16 -103 14 -150 -3z"/>
<path d="M5482 4758 c-7 -7 -12 -28 -12 -47 0 -67 123 -191 253 -258 142 -71
141 41 -1 186 -106 107 -203 156 -240 119z"/>
<path d="M4145 4695 c-112 -66 -255 -217 -255 -270 0 -45 43 -46 135 -1 161
78 294 233 243 284 -19 19 -79 12 -123 -13z"/>
<path d="M5330 4655 c-20 -24 -6 -99 30 -171 57 -112 180 -228 224 -211 53 21
-32 240 -137 354 -31 34 -47 43 -72 43 -18 0 -38 -7 -45 -15z"/>
<path d="M4340 4603 c-106 -74 -245 -357 -186 -379 31 -12 67 7 125 65 104
104 174 248 147 303 -14 29 -53 34 -86 11z"/>
<path d="M5151 4592 c-41 -77 14 -289 101 -388 55 -62 88 -41 88 56 0 110 -52
282 -99 329 -26 26 -77 28 -90 3z"/>
<path d="M4525 4566 c-45 -48 -86 -176 -93 -292 -7 -129 16 -164 70 -106 89
97 161 359 113 412 -26 29 -53 25 -90 -14z"/>
<path d="M4737 4560 c-35 -41 -52 -125 -52 -255 1 -130 19 -189 57 -183 69 10
140 337 93 427 -25 50 -62 54 -98 11z"/>
<path d="M4944 4569 c-17 -19 -19 -37 -18 -148 0 -104 4 -138 23 -191 23 -66
54 -110 77 -110 8 0 21 15 31 33 15 26 18 57 18 167 0 144 -13 213 -46 249
-25 27 -61 27 -85 0z"/>
</g>
</svg>
