<?xml version="1.0" standalone="no"?>
<!DOCTYPE svg PUBLIC "-//W3C//DTD SVG 20010904//EN"
 "http://www.w3.org/TR/2001/REC-SVG-20010904/DTD/svg10.dtd">
<svg version="1.0" xmlns="http://www.w3.org/2000/svg"
 width="1024.000000pt" height="1024.000000pt" viewBox="0 0 1024.000000 1024.000000"
 preserveAspectRatio="xMidYMid meet">
<metadata>
Created by potrace 1.16, written by Peter Selinger 2001-2019
</metadata>
<g transform="translate(0.000000,1024.000000) scale(0.100000,-0.100000)"
fill="#000000" stroke="none">
<path d="M5395 8171 c-42 -26 -152 -143 -217 -232 -151 -205 -261 -469 -305
-729 -8 -52 -17 -100 -19 -107 -2 -9 -19 -5 -58 12 -31 13 -97 37 -148 52 -86
26 -105 28 -263 28 -157 -1 -177 -3 -260 -28 -118 -37 -238 -97 -339 -168
-180 -129 -396 -387 -396 -474 0 -72 48 -91 169 -70 122 21 322 37 430 33 l94
-3 -96 -48 c-590 -292 -938 -888 -913 -1562 3 -88 12 -203 21 -257 72 -462
273 -944 596 -1427 200 -299 393 -530 636 -759 193 -182 338 -289 487 -358
202 -93 410 -86 631 21 220 106 557 411 830 750 388 482 661 1012 790 1528
155 623 63 1167 -270 1592 -115 147 -291 301 -457 401 -76 45 -73 43 -65 50 9
9 209 -24 366 -62 174 -41 213 -43 246 -9 39 38 33 78 -24 173 -135 224 -350
423 -567 523 -129 60 -219 80 -375 86 -148 6 -240 -7 -374 -52 -38 -13 -72
-22 -74 -20 -2 2 8 45 23 94 53 185 162 378 296 526 108 119 110 112 -102 317
-160 155 -214 198 -250 198 -7 0 -26 -8 -43 -19z m119 -330 l57 -58 -55 -74
c-161 -215 -278 -544 -293 -821 -7 -125 4 -153 62 -164 28 -5 47 1 107 33 239
128 451 170 653 128 125 -26 364 -163 435 -250 14 -17 13 -18 -20 -12 -180 34
-484 56 -574 43 -93 -14 -101 -61 -23 -139 73 -73 200 -267 185 -282 -2 -3
-72 28 -154 69 -200 100 -458 207 -514 213 -64 7 -78 -10 -135 -157 -76 -196
-237 -500 -265 -500 -14 0 -58 149 -75 253 -10 60 -15 156 -14 275 1 224 2
222 -105 222 -39 0 -120 -7 -181 -15 -148 -20 -142 -20 -137 14 6 41 -22 56
-138 78 -73 13 -146 18 -313 17 l-218 0 38 34 c21 18 75 58 120 88 293 195
583 188 907 -24 84 -56 101 -60 146 -37 34 18 36 23 50 150 38 360 117 607
263 825 38 56 116 150 126 150 3 0 33 -26 65 -59z m-854 -1558 c0 -109 22
-260 56 -378 30 -109 119 -295 166 -349 30 -34 40 -39 73 -38 53 2 72 18 153
124 104 137 191 282 274 454 40 85 79 154 86 154 20 0 314 -139 476 -225 83
-44 177 -95 210 -112 80 -43 109 -42 153 2 34 34 35 38 31 90 -3 38 -1 55 7
55 23 0 186 -163 258 -258 121 -162 211 -360 252 -558 121 -588 -141 -1394
-694 -2129 -235 -313 -562 -635 -775 -764 -183 -110 -344 -119 -506 -28 -202
114 -509 399 -743 690 -428 533 -711 1123 -793 1656 -22 141 -22 386 -1 511
37 216 126 434 247 602 125 175 338 354 527 444 143 68 403 141 506 143 l37 1
0 -87z"/>
<path d="M4021 5908 c-54 -27 -133 -104 -183 -179 -98 -147 -106 -289 -16
-289 65 0 200 140 277 290 49 94 59 141 37 175 -21 31 -56 32 -115 3z"/>
<path d="M5837 5632 c-52 -57 -43 -213 18 -339 52 -106 118 -145 169 -101 80
68 31 330 -79 426 -41 36 -83 42 -108 14z"/>
<path d="M4936 4889 c-79 -62 -70 -313 14 -363 26 -15 34 -15 57 -4 61 29 91
171 59 280 -27 94 -78 128 -130 87z"/>
<path d="M6065 4784 c-46 -15 -72 -39 -99 -89 -18 -34 -21 -57 -21 -155 0
-104 2 -119 25 -160 49 -88 158 -114 234 -57 58 45 81 106 80 217 0 77 -5 105
-23 148 -38 84 -117 124 -196 96z"/>
<path d="M4009 4768 c-21 -14 -45 -46 -63 -81 -55 -109 -38 -275 35 -348 87
-87 219 -52 266 69 13 33 18 74 18 137 0 79 -4 97 -28 148 -22 44 -38 62 -67
77 -53 27 -118 26 -161 -2z"/>
<path d="M5469 4143 c-16 -10 -42 -48 -65 -96 -42 -85 -93 -140 -166 -179 -36
-19 -58 -23 -138 -23 -80 0 -103 4 -143 23 -65 33 -126 95 -166 172 -43 83
-63 99 -124 100 -40 0 -53 -5 -78 -29 -66 -67 -22 -199 110 -332 120 -120 244
-173 406 -172 211 2 397 118 490 306 45 91 53 142 30 186 -28 54 -105 76 -156
44z"/>
<path d="M3868 4083 c-31 -12 -38 -20 -38 -44 0 -21 7 -32 28 -42 92 -47 252
-14 240 50 -9 47 -150 70 -230 36z"/>
<path d="M6150 4082 c-67 -33 -44 -84 47 -101 57 -11 114 -5 156 16 23 12 28
20 25 46 -2 27 -9 34 -38 44 -53 18 -149 16 -190 -5z"/>
<path d="M4186 3475 c-37 -37 -27 -101 27 -175 68 -92 179 -137 221 -91 56 62
-26 207 -148 262 -50 23 -80 24 -100 4z"/>
<path d="M5550 3189 c-90 -36 -200 -222 -200 -340 0 -40 5 -55 25 -74 30 -31
50 -31 98 -2 49 30 98 92 140 176 42 86 51 197 18 230 -23 23 -42 25 -81 10z"/>
</g>
</svg>
