<?xml version="1.0" standalone="no"?>
<!DOCTYPE svg PUBLIC "-//W3C//DTD SVG 20010904//EN"
 "http://www.w3.org/TR/2001/REC-SVG-20010904/DTD/svg10.dtd">
<svg version="1.0" xmlns="http://www.w3.org/2000/svg"
 width="2048.000000pt" height="2048.000000pt" viewBox="0 0 2048.000000 2048.000000"
 preserveAspectRatio="xMidYMid meet">
<metadata>
Created by potrace 1.16, written by Peter Selinger 2001-2019
</metadata>
<g transform="translate(0.000000,2048.000000) scale(0.100000,-0.100000)"
fill="#000000" stroke="none">
<path d="M9963 16679 c-266 -10 -482 -31 -909 -84 -370 -47 -443 -51 -749 -40
-300 12 -421 -13 -835 -173 -238 -92 -373 -107 -692 -78 -103 9 -211 14 -255
10 -178 -14 -383 -70 -605 -165 -289 -124 -519 -251 -587 -324 -67 -72 -76
-101 -75 -240 0 -170 35 -320 125 -548 l39 -97 0 -269 c0 -458 26 -717 135
-1321 86 -482 167 -973 205 -1245 83 -592 112 -793 120 -823 5 -19 7 -39 5
-45 -3 -7 -27 -192 -55 -412 -57 -456 -126 -954 -235 -1695 -77 -528 -140
-1004 -172 -1305 -22 -211 -25 -842 -5 -1025 42 -383 139 -870 221 -1115 25
-72 25 -94 6 -165 -100 -364 -78 -687 56 -822 80 -80 207 -109 564 -128 416
-22 498 -38 890 -175 242 -85 391 -128 535 -157 99 -20 145 -23 335 -22 185 0
252 4 420 28 394 55 533 39 1035 -115 267 -83 667 -184 841 -213 311 -53 457
-55 804 -10 240 32 470 41 601 24 54 -6 161 -28 238 -47 274 -67 376 -85 516
-90 161 -6 242 7 465 73 316 93 452 111 965 124 454 12 586 25 738 72 147 45
236 115 268 211 40 116 16 323 -66 581 l-41 127 36 117 c132 424 151 546 142
907 -6 256 -14 326 -92 870 -91 637 -108 819 -109 1210 -1 339 11 570 54 1040
48 522 80 863 85 895 3 19 19 184 35 365 75 811 148 1444 260 2226 108 753
137 1075 127 1419 -6 211 -24 396 -57 580 -10 58 -26 151 -36 207 -15 86 -16
109 -6 145 69 242 85 316 86 413 1 89 -3 109 -32 190 -18 49 -47 111 -64 138
-111 173 -682 435 -1171 536 -298 62 -529 81 -992 81 -408 0 -598 23 -900 110
-444 128 -718 178 -1214 220 -204 18 -696 42 -771 38 -14 0 -116 -5 -227 -9z
m176 -291 c0 -13 -8 -90 -17 -172 l-17 -150 -265 3 c-146 1 -266 4 -268 6 -2
2 0 71 4 153 l7 150 71 7 c127 13 269 22 379 24 105 1 107 1 106 -21z m511 11
c102 -5 188 -13 191 -17 4 -4 -3 -89 -14 -190 l-21 -183 -25 5 c-14 3 -111 12
-216 21 -353 29 -317 23 -311 53 3 15 10 88 16 162 7 74 14 141 16 148 4 15
112 16 364 1z m-1216 -171 c-3 -79 -7 -148 -9 -154 -2 -7 -57 -13 -147 -17
-78 -4 -188 -10 -242 -14 -92 -6 -99 -5 -93 11 4 10 7 69 7 132 0 83 3 116 13
118 11 4 433 62 465 65 10 1 11 -30 6 -141z m1851 111 c240 -30 278 -38 272
-59 -3 -10 -15 -95 -28 -190 l-24 -172 -30 5 c-16 3 -142 20 -279 38 l-248 34
6 50 c3 28 11 106 17 175 6 69 13 131 15 139 5 15 49 12 299 -20z m-3044 -214
c9 -88 16 -161 15 -161 -3 -3 -469 -64 -471 -62 -4 6 -56 280 -53 283 8 7 153
56 209 70 67 18 194 34 249 31 l35 -1 16 -160z m559 23 c0 -70 -4 -128 -9
-128 -4 0 -93 -9 -196 -20 -103 -12 -190 -18 -193 -15 -7 7 -33 266 -28 280 2
6 84 10 215 11 l211 1 0 -129z m3275 25 c110 -31 202 -57 204 -59 3 -2 -58
-317 -62 -320 -2 -2 -572 97 -573 99 -1 2 54 371 55 373 3 5 205 -45 376 -93z
m-4475 -81 c1 -15 9 -67 20 -117 10 -49 16 -92 13 -95 -8 -8 -446 -79 -455
-74 -4 3 -8 17 -8 32 0 15 -6 60 -14 99 l-14 73 37 5 c115 19 198 40 296 74
60 21 113 36 118 34 4 -2 7 -16 7 -31z m4955 -27 c55 -8 164 -18 243 -21 78
-4 142 -11 142 -16 0 -4 -15 -57 -34 -116 -19 -59 -42 -135 -52 -170 -15 -57
-19 -63 -39 -58 -42 11 -409 76 -426 76 -10 0 -21 5 -24 10 -5 8 34 234 51
293 6 20 11 20 139 2z m-5765 -40 c69 -8 144 -15 167 -15 40 0 42 -2 47 -32
30 -178 32 -200 22 -204 -6 -2 -78 -17 -161 -34 -82 -17 -175 -37 -205 -45
-30 -8 -57 -11 -61 -7 -5 6 -89 332 -89 347 0 10 157 5 280 -10z m6787 7 c9
-6 -4 -54 -53 -187 -37 -99 -71 -196 -76 -215 -5 -19 -13 -39 -17 -43 -6 -6
-374 52 -437 69 -10 2 41 186 101 372 3 9 60 12 237 12 128 0 239 -4 245 -8z
m-7163 -205 c24 -97 41 -179 37 -181 -3 -2 -49 -14 -101 -26 l-95 -23 -240 78
c-132 42 -244 81 -249 85 -13 13 305 164 439 209 127 42 159 50 162 41 2 -3
22 -85 47 -183z m7481 167 c209 -36 455 -107 455 -131 0 -8 -25 -96 -56 -196
-31 -100 -58 -187 -60 -194 -1 -7 -22 -17 -46 -24 -38 -10 -72 -5 -313 41
-148 28 -277 55 -286 58 -14 6 -5 38 62 217 43 116 80 218 82 228 6 22 42 22
162 1z m-3590 -95 c443 -23 1129 -115 1760 -234 72 -13 299 -54 505 -90 519
-90 1210 -219 1210 -226 0 -7 -310 -91 -430 -116 -144 -31 -432 -24 -695 16
-277 42 -452 53 -647 41 -270 -16 -405 -41 -978 -180 -744 -180 -993 -217
-1370 -207 -176 5 -427 27 -467 42 -21 7 -16 237 7 400 21 147 61 319 109 470
l28 90 194 5 c232 7 515 3 774 -11z m-1128 -21 c-3 -13 -25 -102 -50 -198 -58
-224 -77 -346 -84 -547 -4 -112 -9 -163 -17 -163 -6 0 -74 9 -151 20 -194 27
-398 46 -755 70 -585 40 -639 52 -955 216 -198 102 -338 161 -478 201 -51 14
-96 29 -101 33 -11 10 -1 13 189 54 610 132 1428 251 2235 325 167 15 173 14
167 -11z m5442 -104 c128 -56 294 -144 286 -152 -11 -11 -468 -122 -503 -122
-6 0 1 35 18 88 16 48 38 120 50 160 11 39 26 72 32 72 5 0 58 -21 117 -46z
m-8818 -329 l95 -29 37 -160 c20 -88 35 -162 32 -164 -2 -2 -64 12 -137 32
-73 20 -142 36 -154 36 -11 0 -27 6 -36 13 -23 17 -98 268 -98 327 0 18 3 18
83 -4 45 -13 125 -36 178 -51z m394 -114 c55 -16 174 -51 265 -77 91 -26 168
-50 172 -53 7 -6 58 -287 58 -316 0 -8 -62 7 -167 40 -93 29 -217 65 -276 81
-96 26 -108 32 -113 54 -3 14 -21 87 -40 162 -19 75 -34 140 -34 143 0 3 8 4
18 1 9 -3 62 -18 117 -35z m8834 -58 c-11 -49 -25 -112 -31 -140 -6 -29 -16
-57 -22 -61 -11 -9 -156 -62 -168 -62 -4 0 -5 15 -2 33 3 17 8 83 12 146 l7
114 95 27 c140 41 131 45 109 -57z m-353 -40 c-3 -16 -9 -83 -12 -151 l-7
-122 -36 -10 c-128 -34 -370 -91 -411 -96 l-48 -6 0 156 c-1 86 2 156 6 157 4
0 111 22 237 48 286 60 279 59 271 24z m-7636 -205 c69 -35 159 -79 200 -97
l76 -33 16 -96 c9 -53 15 -99 12 -101 -6 -7 -322 69 -476 115 -12 4 -18 16
-18 37 -1 18 -11 86 -24 152 -13 66 -21 123 -19 127 4 9 76 -23 233 -104z
m6978 -60 l-3 -152 -165 -28 c-195 -33 -462 -69 -468 -63 -3 2 -4 53 -4 112 1
78 4 110 14 115 7 4 83 25 168 48 85 22 216 57 290 79 74 22 143 40 153 40 16
1 17 -11 15 -151z m-1661 38 c8 -7 25 -347 18 -354 -3 -4 -140 -8 -304 -10
l-298 -4 -6 168 c-5 116 -4 170 4 174 6 4 65 13 132 19 67 7 129 14 137 16 19
5 312 -4 317 -9z m-6457 -62 c251 -71 630 -184 814 -244 409 -131 922 -240
1291 -275 354 -34 897 -36 1455 -6 765 41 1018 49 1865 56 1104 10 1469 25
2030 85 505 55 1141 181 1476 293 l126 42 10 -75 c6 -41 10 -78 7 -81 -6 -11
-204 -90 -338 -136 -323 -109 -665 -169 -1106 -192 -102 -6 -543 -13 -980 -16
-437 -3 -824 -8 -860 -10 -36 -2 -166 -9 -290 -15 -303 -15 -641 -42 -1123
-90 -221 -21 -467 -45 -547 -52 -194 -17 -858 -17 -1060 0 -768 65 -1538 217
-2560 507 -201 56 -377 106 -392 109 -26 6 -28 9 -26 54 2 26 -1 62 -5 79 l-8
32 48 -14 c26 -9 104 -31 173 -51z m6854 11 c127 -16 246 -25 337 -25 l140 0
-3 -112 -3 -113 -62 -7 c-35 -4 -165 -14 -290 -22 -126 -9 -253 -18 -285 -20
l-56 -4 -6 67 c-3 36 -8 110 -12 164 l-6 97 25 0 c13 0 113 -11 221 -25z
m-1133 -165 l3 -155 -259 -3 c-142 -1 -262 1 -266 5 -4 5 -10 51 -14 104 l-7
97 73 17 c302 70 455 102 461 96 3 -3 8 -76 9 -161z m-4054 41 c57 -10 182
-24 334 -36 l76 -6 7 -76 c4 -42 10 -88 12 -103 l6 -27 -114 14 c-141 17 -348
53 -369 64 -10 5 -18 27 -22 61 -4 29 -9 71 -13 92 -6 34 -5 38 9 33 9 -3 42
-10 74 -16z m3376 -113 c3 -46 5 -83 4 -84 -1 -1 -99 -5 -218 -9 l-217 -7 -4
42 c-2 24 1 43 7 45 44 12 393 93 406 94 13 1 17 -14 22 -81z m-2628 47 c146
-10 359 -35 366 -43 4 -4 9 -45 11 -91 l5 -84 -265 6 c-146 4 -269 10 -273 14
-10 10 -37 201 -30 209 3 3 26 3 51 0 25 -3 86 -8 135 -11z m760 -90 c243 -35
225 -29 225 -69 0 -33 0 -33 -57 -39 -32 -4 -135 -10 -230 -13 l-171 -7 -4 77
c-1 43 -1 80 2 82 2 3 16 2 30 0 14 -3 106 -17 205 -31z m-3334 10 c24 -9 150
-45 279 -81 129 -36 271 -76 315 -89 180 -54 700 -179 995 -239 512 -105 797
-148 1232 -188 196 -17 316 -22 623 -22 412 -1 413 -1 1245 74 1050 95 1144
100 2280 110 991 9 1105 15 1430 70 298 51 643 153 813 241 42 21 59 26 62 17
2 -7 14 -80 26 -163 16 -112 23 -216 27 -410 7 -380 -16 -629 -124 -1385 -72
-502 -59 -451 -119 -467 -163 -42 -225 -48 -525 -48 -337 1 -453 14 -750 86
-326 79 -528 148 -1073 370 -547 223 -758 297 -1051 369 -328 81 -525 104
-881 104 -358 -1 -621 -31 -1016 -119 -382 -85 -893 -247 -1419 -450 -411
-158 -710 -250 -950 -290 -52 -9 -169 -19 -260 -22 -197 -7 -332 10 -509 63
-146 43 -377 154 -390 186 -5 13 -53 280 -107 593 -54 314 -108 629 -120 700
-27 154 -60 419 -74 599 -10 124 -14 406 -6 406 2 0 23 -7 47 -15z m4619 -34
c0 -27 -3 -30 -42 -35 -24 -3 -116 -7 -205 -10 -131 -4 -163 -2 -163 8 0 16
42 26 114 27 28 1 101 9 161 19 61 9 116 18 123 19 7 0 12 -11 12 -28z m-657
-31 c71 0 87 -3 87 -15 0 -12 -14 -15 -63 -15 -35 0 -112 -3 -170 -7 l-107 -6
0 28 0 28 83 -6 c45 -4 121 -7 170 -7z m1092 -1740 c189 -14 273 -25 450 -61
325 -66 612 -164 1284 -438 491 -201 907 -331 1226 -386 334 -56 760 -59 1018
-6 48 10 87 15 87 11 0 -3 -7 -56 -15 -116 -18 -127 -83 -694 -119 -1039 -38
-356 -176 -1835 -176 -1879 0 -16 -92 -34 -195 -38 -48 -2 -60 0 -59 12 1 8
18 91 38 184 41 192 51 264 42 299 -11 44 -82 53 -112 16 -9 -12 -55 -211
-107 -461 -11 -56 -10 -56 -143 -33 -128 22 -294 66 -553 146 -348 107 -535
151 -818 188 -570 76 -1143 47 -2173 -109 -694 -105 -842 -121 -1213 -127
-645 -12 -901 47 -1687 384 -394 169 -604 234 -925 285 -102 16 -526 16 -614
0 -36 -6 -67 -10 -69 -8 -2 2 10 100 27 217 29 201 111 849 111 877 0 6 9 12
21 12 29 0 89 62 89 91 0 13 -6 65 -14 114 -77 498 -166 1122 -166 1162 0 21
4 20 93 -21 385 -179 837 -201 1347 -65 165 44 363 112 785 269 657 245 1049
362 1495 449 354 68 730 94 1045 71z m-4185 -3316 c287 -38 543 -116 935 -289
614 -270 1001 -371 1490 -390 349 -13 739 25 1585 155 578 89 892 120 1286
127 575 11 958 -45 1524 -222 263 -82 450 -130 573 -148 54 -8 99 -16 102 -18
2 -2 -24 -106 -58 -232 -54 -200 -64 -227 -81 -227 -49 0 -426 84 -586 130
-651 188 -923 243 -1410 281 -200 16 -634 6 -880 -21 -178 -19 -349 -42 -1040
-144 -482 -72 -576 -80 -920 -80 -251 -1 -341 3 -445 17 -380 53 -636 132
-1078 333 -127 59 -282 126 -344 150 -193 76 -439 139 -633 163 -181 23 -560
6 -706 -30 -25 -6 -47 -10 -49 -7 -4 3 55 419 60 426 7 9 178 34 275 40 146 9
255 5 400 -14z m10 -565 c260 -32 469 -99 880 -281 654 -290 968 -370 1500
-385 367 -9 757 25 1300 117 634 106 1186 152 1588 132 454 -24 768 -82 1377
-257 248 -71 440 -116 575 -136 47 -7 88 -15 93 -19 10 -9 -137 -440 -233
-680 -45 -113 -135 -314 -201 -446 -112 -227 -129 -273 -111 -300 30 -44 83
-35 127 23 106 139 378 788 520 1239 l47 151 152 7 c83 3 179 9 214 13 l62 6
0 -139 c0 -349 30 -637 150 -1456 94 -637 79 -957 -60 -1351 l-41 -113 -477
-52 c-843 -92 -986 -102 -1582 -109 -612 -7 -923 9 -1650 83 -642 65 -724 77
-1239 185 -185 38 -411 85 -504 104 -373 77 -940 135 -1862 190 -951 56 -973
58 -1201 91 l-111 16 -20 77 c-77 291 -96 368 -132 546 -134 667 -143 1093
-40 1915 53 424 102 765 112 771 17 11 169 42 272 55 127 15 385 17 495 3z
m7915 -246 c-3 -27 -10 -131 -15 -233 -6 -101 -12 -185 -13 -186 -12 -13 -358
-30 -369 -18 -3 3 3 38 14 77 12 40 39 142 62 227 l41 155 123 6 c68 4 126 9
129 13 4 3 12 6 20 6 10 0 12 -11 8 -47z m-8470 -3287 c144 -24 371 -44 815
-71 646 -39 733 -44 1075 -71 635 -49 828 -77 1466 -210 538 -111 739 -146
1109 -188 438 -50 779 -80 1278 -111 52 -3 297 -6 545 -5 425 0 742 12 1087
40 130 11 989 106 1050 116 l36 6 13 -67 c7 -36 12 -67 10 -69 -2 -2 -101 -25
-219 -51 -341 -74 -616 -117 -945 -146 -197 -17 -904 -22 -1312 -10 -1259 39
-1792 88 -2433 226 -559 120 -823 154 -1525 195 -434 25 -863 63 -1100 96
-499 69 -1132 192 -1122 218 3 6 10 37 18 69 12 55 14 58 38 53 14 -3 67 -12
116 -20z m-75 -291 c68 -14 125 -27 128 -30 2 -2 0 -68 -4 -147 l-9 -143 -40
3 c-22 2 -69 9 -105 15 l-65 12 -17 60 c-14 52 -26 255 -14 255 2 0 59 -11
126 -25z m471 -94 c90 -17 206 -37 258 -45 51 -8 95 -17 98 -20 3 -2 -3 -53
-13 -111 l-18 -107 -31 6 c-35 6 -314 34 -429 42 l-78 6 6 45 c3 25 6 83 6
129 0 75 2 84 19 84 10 0 92 -13 182 -29z m778 -117 c92 -9 169 -19 172 -23 6
-7 -7 -320 -14 -328 -3 -2 -59 16 -124 40 -65 25 -167 60 -228 77 -60 18 -112
34 -114 36 -3 3 27 197 34 220 2 8 19 9 56 3 29 -5 127 -16 218 -25z m620 -54
c151 -11 277 -23 279 -25 3 -3 0 -82 -7 -177 -6 -95 -11 -183 -11 -195 0 -23
-2 -23 -132 -23 -133 0 -242 14 -373 48 l-70 18 2 70 c7 201 16 304 26 304 7
0 135 -9 286 -20z m841 -59 c154 -14 175 -18 174 -33 0 -10 -1 -73 -2 -141
l-2 -123 -137 -1 c-76 -1 -205 -11 -288 -22 -82 -12 -156 -21 -164 -21 -11 0
-12 21 -7 113 3 61 7 145 8 186 l2 73 121 -7 c66 -4 199 -15 295 -24z m490
-65 c74 -13 165 -30 203 -37 l67 -12 0 -144 c0 -79 -1 -146 -2 -150 -4 -11
-17 -9 -189 36 -86 22 -180 43 -209 47 l-53 7 7 75 c3 41 6 104 6 139 0 75
-14 72 170 39z m638 -126 c90 -17 166 -30 169 -30 5 0 -7 -342 -12 -348 -2 -2
-87 20 -189 49 l-186 53 0 159 0 159 28 -6 c15 -4 101 -20 190 -36z m4803 -55
c11 -44 23 -117 26 -162 l6 -83 -54 -24 c-51 -23 -253 -65 -264 -55 -8 8 -47
330 -41 337 10 10 291 78 298 72 4 -3 17 -42 29 -85z m-4256 -29 c83 -9 165
-19 183 -22 l32 -5 0 -189 c0 -109 -4 -191 -10 -195 -11 -7 -248 28 -365 53
l-80 17 0 53 c1 28 2 111 3 183 l2 132 43 -6 c23 -3 110 -12 192 -21z m3790
-43 c4 -32 13 -103 20 -158 8 -55 13 -100 12 -101 -1 -1 -127 -4 -280 -6 -275
-5 -277 -5 -281 16 -19 102 -34 211 -30 218 3 4 20 8 37 8 45 0 363 47 433 64
85 21 82 22 89 -41z m-3161 -14 l218 -13 -7 -150 c-4 -83 -9 -153 -11 -155 -9
-10 -299 -41 -383 -41 l-94 0 6 113 c4 61 7 147 7 190 0 75 1 77 23 73 12 -3
120 -10 241 -17z m787 -35 l136 -6 6 -146 c4 -80 5 -148 3 -150 -3 -2 -40 4
-84 13 -113 23 -290 35 -399 28 l-93 -6 0 143 0 142 148 -6 c81 -3 208 -9 283
-12z m1683 -101 c21 -137 21 -133 -11 -133 -65 0 -314 -43 -454 -78 -96 -24
-152 -34 -155 -28 -2 6 -15 72 -29 147 -13 75 -27 144 -31 153 -3 9 0 18 7 20
8 2 135 7 283 10 149 4 272 9 275 11 2 3 25 5 51 5 l47 0 17 -107z m-968 81
l140 -6 37 -181 c20 -99 35 -182 33 -185 -8 -7 -134 -22 -196 -22 -75 0 -204
20 -340 53 l-95 23 -7 154 c-4 85 -6 160 -4 165 4 11 160 10 432 -1z"/>
<path d="M8763 15685 c-13 -9 -29 -39 -38 -67 -23 -79 -62 -272 -75 -376 -10
-82 -10 -96 4 -117 22 -34 79 -35 101 -2 8 13 24 75 35 139 11 64 33 173 49
242 33 138 31 164 -16 185 -31 14 -34 14 -60 -4z"/>
<path d="M14482 13782 c-10 -10 -48 -61 -84 -113 -200 -289 -485 -846 -591
-1155 -35 -104 -31 -138 19 -150 56 -14 73 8 156 206 145 346 385 800 559
1058 63 94 68 114 35 146 -30 30 -69 33 -94 8z"/>
<path d="M6924 13766 c-54 -38 -414 -532 -414 -568 0 -47 45 -83 89 -71 11 3
56 53 99 112 156 210 191 257 261 349 78 103 87 136 49 172 -26 24 -55 26 -84
6z"/>
<path d="M7190 13455 c-44 -24 -278 -320 -317 -400 -26 -55 18 -113 75 -98 12
3 60 58 108 122 48 64 120 155 161 202 80 94 91 131 53 169 -23 23 -45 25 -80
5z"/>
<path d="M13632 11882 c-34 -22 -109 -331 -92 -377 9 -25 38 -45 63 -45 40 0
57 34 92 188 40 175 42 203 17 225 -20 18 -59 22 -80 9z"/>
<path d="M8904 11614 c-59 -21 -119 -76 -149 -139 -51 -103 -29 -248 48 -323
120 -116 335 -93 426 45 101 152 37 360 -128 418 -54 19 -143 18 -197 -1z"/>
<path d="M11372 11564 c-96 -48 -146 -131 -146 -244 0 -93 26 -153 91 -210
108 -95 280 -92 384 6 51 48 74 111 74 199 0 86 -16 129 -70 193 -69 82 -227
109 -333 56z"/>
<path d="M9844 11275 c-22 -34 -14 -137 16 -218 24 -65 90 -138 160 -180 115
-67 294 -76 412 -20 138 65 214 173 225 317 7 92 -7 116 -68 116 -43 0 -69
-27 -69 -70 0 -15 -7 -50 -16 -79 -52 -176 -297 -240 -442 -115 -55 47 -81 99
-91 181 -9 74 -25 93 -78 93 -24 0 -37 -7 -49 -25z"/>
<path d="M11453 8320 c-93 -42 -180 -170 -155 -225 7 -14 23 -30 36 -36 42
-19 72 -3 115 60 42 61 84 88 120 76 12 -3 39 -38 62 -78 82 -143 171 -205
279 -195 70 7 124 39 234 138 152 137 183 133 251 -29 19 -47 47 -98 62 -114
68 -72 193 -97 281 -57 23 10 76 53 118 95 64 64 80 75 109 75 45 0 81 -32
161 -141 73 -99 105 -117 152 -82 53 40 49 61 -37 185 -99 142 -157 182 -266
183 -91 0 -130 -19 -222 -111 -83 -82 -110 -93 -156 -66 -25 14 -41 38 -70
108 -50 115 -75 146 -142 180 -47 23 -64 26 -114 21 -80 -7 -133 -37 -231
-132 -99 -96 -120 -109 -164 -101 -40 8 -65 34 -100 103 -34 68 -79 119 -127
144 -50 25 -140 25 -196 -1z"/>
<path d="M9941 7974 c-106 -28 -189 -81 -296 -189 -55 -55 -128 -136 -162
-180 -34 -44 -82 -102 -106 -130 -43 -48 -45 -49 -73 -36 -16 7 -125 76 -242
153 -227 149 -387 233 -517 270 -70 20 -101 23 -250 22 -154 0 -178 -3 -255
-26 -403 -125 -691 -432 -751 -803 -16 -101 -6 -278 21 -373 137 -483 635
-774 1325 -775 271 0 456 39 805 171 102 38 251 93 332 121 l147 52 44 -34
c110 -84 447 -258 682 -352 237 -95 547 -181 776 -216 194 -30 538 -33 674 -6
403 80 715 301 898 637 88 159 143 397 133 570 -7 133 -25 199 -87 328 -44 91
-61 114 -147 200 -144 144 -255 201 -438 224 -239 30 -489 -57 -765 -267 l-46
-35 -67 118 c-159 280 -304 418 -491 467 -80 20 -186 19 -278 -4 -89 -23 -139
-47 -224 -107 l-62 -45 -88 89 c-92 92 -170 140 -263 161 -63 15 -165 12 -229
-5z m243 -177 c28 -13 66 -36 84 -52 32 -27 122 -137 122 -150 0 -14 -292
-355 -358 -419 l-41 -39 -123 40 c-110 36 -378 149 -378 159 0 13 236 298 290
351 135 132 274 170 404 110z m920 -116 c123 -60 239 -192 346 -394 l53 -99
-29 -28 -29 -28 -90 30 c-83 29 -100 31 -220 31 -114 -1 -144 -5 -245 -33 -63
-17 -153 -35 -200 -40 -134 -14 -404 -23 -444 -16 l-37 7 49 57 c27 31 101
120 165 198 232 282 349 358 534 351 67 -3 92 -9 147 -36z m-2574 -30 c116
-39 225 -97 440 -233 338 -213 569 -329 812 -407 111 -35 309 -77 413 -87 96
-9 105 -16 59 -43 -21 -13 -136 -96 -255 -187 -287 -215 -434 -312 -604 -396
-203 -99 -373 -151 -585 -177 -285 -36 -639 23 -885 147 -106 53 -173 102
-250 183 -125 132 -185 284 -185 470 0 124 13 184 60 284 77 165 206 295 379
383 163 84 239 102 396 98 93 -2 125 -8 205 -35z m3931 -231 c198 -37 387
-224 445 -440 39 -146 12 -374 -64 -542 -92 -203 -262 -383 -451 -478 -276
-138 -707 -87 -1016 119 -100 67 -188 137 -335 266 -63 56 -126 109 -139 118
-31 21 -35 20 181 46 263 32 356 62 441 140 66 61 90 125 85 221 -3 42 -12 91
-21 109 -9 19 -17 35 -17 36 0 6 224 186 290 234 98 70 257 147 345 165 84 17
183 20 256 6z m-1130 -442 c115 -53 137 -153 48 -221 -51 -38 -116 -54 -334
-82 -400 -51 -691 -109 -918 -182 -76 -24 -141 -43 -143 -41 -2 2 55 47 125
100 269 203 466 314 688 387 176 59 242 71 368 68 93 -3 119 -7 166 -29z
m-608 -587 c44 -32 130 -104 192 -161 230 -205 389 -325 500 -376 30 -14 55
-28 55 -31 0 -10 -99 7 -263 43 -266 59 -602 184 -887 330 -149 76 -207 114
-189 124 34 18 447 124 504 129 6 1 45 -25 88 -58z"/>
<path d="M13973 7088 c-11 -13 -53 -86 -94 -163 -40 -77 -101 -189 -136 -250
-35 -60 -67 -121 -70 -134 -8 -32 17 -75 46 -79 54 -8 67 4 150 147 88 152
221 415 221 438 0 22 -47 63 -73 63 -13 0 -33 -10 -44 -22z"/>
<path d="M6622 6903 c-83 -110 -232 -322 -244 -349 -16 -34 -2 -70 31 -84 44
-18 66 -6 124 68 70 89 231 311 246 339 27 53 -3 103 -64 103 -31 0 -40 -7
-93 -77z"/>
<path d="M6914 6658 c-61 -65 -206 -245 -222 -275 -18 -33 -14 -57 12 -82 46
-44 70 -29 190 114 183 219 191 234 140 274 -42 33 -66 27 -120 -31z"/>
</g>
</svg>
