<?xml version="1.0" standalone="no"?>
<!DOCTYPE svg PUBLIC "-//W3C//DTD SVG 20010904//EN"
 "http://www.w3.org/TR/2001/REC-SVG-20010904/DTD/svg10.dtd">
<svg version="1.0" xmlns="http://www.w3.org/2000/svg"
 width="1024.000000pt" height="1024.000000pt" viewBox="0 0 1024.000000 1024.000000"
 preserveAspectRatio="xMidYMid meet">
<metadata>
Created by potrace 1.16, written by Peter Selinger 2001-2019
</metadata>
<g transform="translate(0.000000,1024.000000) scale(0.100000,-0.100000)"
fill="#000000" stroke="none">
<path d="M4979 6830 c-67 -35 -122 -150 -136 -282 -6 -60 -12 -68 -32 -44 -7
8 -47 29 -89 47 -65 27 -92 33 -177 36 -109 4 -134 -3 -168 -49 -38 -51 -16
-197 43 -293 11 -18 20 -35 20 -39 0 -3 -25 -6 -56 -6 -133 0 -370 -70 -498
-147 -199 -120 -336 -262 -433 -449 -112 -217 -147 -433 -108 -672 25 -153 83
-295 177 -436 63 -95 239 -263 354 -339 487 -323 1295 -417 1989 -232 169 46
207 82 154 150 -26 32 -39 32 -214 -14 -231 -60 -370 -76 -660 -76 -164 0
-295 5 -355 13 -349 50 -621 141 -829 279 -233 155 -387 358 -453 598 -26 92
-35 293 -18 389 51 288 236 537 498 674 123 64 198 89 325 108 289 44 585 -68
766 -290 29 -36 59 -66 65 -66 7 0 43 39 81 86 77 98 166 169 280 225 122 60
217 81 365 82 196 2 349 -43 518 -153 392 -253 534 -728 349 -1167 -67 -159
-203 -326 -365 -451 -72 -55 -77 -60 -77 -96 0 -30 6 -43 27 -59 37 -28 61
-19 164 61 277 215 439 497 474 826 43 400 -150 793 -499 1017 -92 59 -188
100 -318 136 -87 25 -115 28 -255 28 -87 0 -158 3 -158 6 0 3 11 33 25 66 52
130 55 261 6 316 -64 71 -253 35 -399 -75 -30 -22 -55 -38 -56 -36 -2 1 -15
39 -30 84 -53 160 -152 266 -246 264 -8 -1 -31 -9 -51 -20z m110 -190 c39 -58
80 -187 87 -280 7 -84 21 -119 49 -126 47 -12 68 0 110 60 66 98 189 188 288
210 25 6 27 4 27 -26 -1 -46 -38 -151 -83 -231 -36 -64 -42 -69 -120 -108
-109 -55 -170 -97 -240 -163 -32 -31 -62 -56 -65 -56 -4 0 -30 20 -57 44 -104
91 -254 170 -376 198 -45 11 -57 19 -100 72 -51 62 -93 138 -105 190 l-7 29
57 -7 c95 -11 180 -58 274 -153 89 -89 111 -98 153 -64 22 18 22 20 11 112
-16 129 3 289 41 337 15 19 20 16 56 -38z"/>
<path d="M4394 5361 c-135 -61 -144 -260 -15 -328 77 -40 167 -27 223 33 34
37 48 74 48 129 0 80 -33 133 -105 166 -51 24 -99 24 -151 0z"/>
<path d="M5768 5360 c-98 -52 -124 -194 -51 -281 54 -64 143 -85 218 -50 140
63 149 263 15 331 -51 26 -132 26 -182 0z"/>
<path d="M4887 5100 c-38 -30 -37 -87 4 -168 34 -68 67 -101 143 -139 187 -95
425 32 443 236 5 53 3 60 -18 75 -31 21 -75 20 -97 -2 -11 -11 -22 -38 -26
-62 -8 -54 -64 -113 -121 -129 -87 -24 -195 41 -210 127 -11 69 -70 100 -118
62z"/>
</g>
</svg>
