<?xml version="1.0" standalone="no"?>
<!DOCTYPE svg PUBLIC "-//W3C//DTD SVG 20010904//EN"
 "http://www.w3.org/TR/2001/REC-SVG-20010904/DTD/svg10.dtd">
<svg version="1.0" xmlns="http://www.w3.org/2000/svg"
 width="1024.000000pt" height="1024.000000pt" viewBox="0 0 1024.000000 1024.000000"
 preserveAspectRatio="xMidYMid meet">
<metadata>
Created by potrace 1.16, written by Peter Selinger 2001-2019
</metadata>
<g transform="translate(0.000000,1024.000000) scale(0.100000,-0.100000)"
fill="#000000" stroke="none">
<path d="M3995 6224 c-253 -36 -449 -93 -595 -172 -263 -142 -404 -313 -451
-547 -19 -93 -20 -127 -16 -470 4 -339 6 -377 26 -454 107 -413 504 -613 1356
-681 504 -40 1287 -28 1770 26 664 74 1247 334 1399 623 51 98 67 168 73 326
7 196 -12 625 -32 700 -79 303 -333 475 -810 549 -183 28 -408 39 -680 32
-939 -22 -967 -22 -1355 36 -171 25 -242 31 -430 33 -124 2 -238 1 -255 -1z
m590 -149 c454 -63 410 -60 855 -55 829 8 1085 5 1215 -14 370 -53 602 -168
699 -345 155 -286 -22 -616 -415 -776 -271 -110 -499 -139 -1164 -150 -203 -3
-455 -10 -560 -15 -254 -12 -634 -12 -770 0 -590 54 -1088 228 -1267 443 -122
147 -139 301 -51 469 44 85 89 137 182 210 169 135 423 225 721 258 124 13
350 3 555 -25z m2843 -1185 c-5 -172 -18 -227 -79 -322 -124 -193 -593 -406
-1074 -487 -464 -79 -1523 -99 -2100 -41 -573 58 -936 215 -1048 453 -50 105
-59 158 -64 387 l-5 215 58 -56 c220 -208 641 -362 1184 -434 172 -23 572 -30
880 -16 140 7 451 16 690 21 652 13 893 52 1188 191 150 70 304 192 353 279
l14 25 3 -30 c2 -16 2 -100 0 -185z"/>
<path d="M3835 5871 c-39 -25 -267 -257 -339 -345 -60 -75 -70 -110 -38 -139
10 -10 29 -17 41 -17 25 0 36 11 139 132 40 48 123 134 183 191 92 89 109 110
109 135 0 21 -8 36 -22 46 -29 20 -37 20 -73 -3z"/>
<path d="M4423 5812 c-138 -110 -578 -599 -607 -676 -13 -35 15 -76 52 -76 37
0 46 8 128 115 98 128 225 268 395 435 158 155 176 183 140 219 -30 30 -53 26
-108 -17z"/>
<path d="M4932 5731 c-167 -154 -324 -323 -482 -521 -85 -107 -97 -141 -62
-173 38 -34 69 -21 124 51 115 154 284 341 480 532 89 87 128 132 128 148 0
28 -33 62 -60 62 -12 0 -66 -41 -128 -99z"/>
<path d="M5695 5800 c-50 -19 -542 -494 -723 -697 -85 -96 -98 -126 -66 -157
32 -32 69 -20 126 41 240 257 447 462 651 647 75 68 87 83 87 111 0 44 -35 70
-75 55z"/>
<path d="M6308 5713 c-24 -21 -144 -132 -268 -248 -124 -115 -265 -246 -313
-290 -74 -69 -87 -85 -87 -112 0 -34 29 -63 63 -63 22 0 269 225 585 533 147
145 161 167 124 200 -29 26 -58 20 -104 -20z"/>
<path d="M6801 5477 c-102 -100 -228 -221 -278 -269 -92 -85 -107 -111 -85
-145 11 -17 54 -31 73 -24 22 8 400 363 490 459 57 61 69 80 69 108 0 36 -20
54 -61 54 -16 0 -79 -56 -208 -183z"/>
<path d="M7062 4678 c-10 -13 -16 -41 -13 -65 2 -20 31 -43 55 -43 48 0 75 70
40 104 -19 19 -67 21 -82 4z"/>
<path d="M6780 4593 c-45 -17 -66 -73 -38 -101 19 -19 82 -14 112 9 46 36 28
100 -27 98 -18 0 -39 -3 -47 -6z"/>
<path d="M3550 4515 c-16 -43 -4 -62 56 -84 62 -24 77 -25 105 -11 13 8 19 21
19 46 0 31 -4 37 -37 51 -21 9 -59 18 -85 21 -45 4 -48 3 -58 -23z"/>
<path d="M6435 4339 c-60 -27 -113 -55 -117 -62 -16 -24 -8 -57 18 -73 24 -17
29 -16 92 4 80 27 181 80 196 104 7 11 7 26 0 45 -15 45 -60 41 -189 -18z"/>
<path d="M3758 4329 c-22 -12 -24 -71 -4 -88 8 -7 53 -19 100 -28 82 -15 87
-15 107 3 14 13 19 28 17 53 -3 34 -6 37 -48 47 -73 18 -154 24 -172 13z"/>
</g>
</svg>
