<?xml version="1.0" standalone="no"?>
<!DOCTYPE svg PUBLIC "-//W3C//DTD SVG 20010904//EN"
 "http://www.w3.org/TR/2001/REC-SVG-20010904/DTD/svg10.dtd">
<svg version="1.0" xmlns="http://www.w3.org/2000/svg"
 width="1024.000000pt" height="1024.000000pt" viewBox="0 0 1024.000000 1024.000000"
 preserveAspectRatio="xMidYMid meet">
<metadata>
Created by potrace 1.16, written by Peter Selinger 2001-2019
</metadata>
<g transform="translate(0.000000,1024.000000) scale(0.100000,-0.100000)"
fill="#000000" stroke="none">
<path d="M4700 7032 c-309 -104 -863 -566 -1235 -1032 -411 -514 -662 -1054
-700 -1505 -24 -274 107 -486 309 -502 38 -3 156 -35 306 -84 135 -43 346
-108 470 -145 933 -274 1141 -335 1420 -415 622 -178 911 -256 1254 -335 216
-50 462 -101 526 -109 123 -15 292 41 378 125 92 89 127 182 120 324 -7 131
-35 191 -172 373 -105 140 -525 670 -730 923 -195 239 -641 786 -862 1055
-126 154 -259 316 -294 360 -137 167 -274 331 -303 363 l-31 32 16 48 c37 108
28 224 -27 332 -83 164 -278 248 -445 192z m223 -188 c60 -43 101 -126 101
-207 -1 -108 -38 -156 -204 -262 -248 -158 -598 -474 -816 -735 -313 -376
-558 -814 -674 -1205 -58 -195 -92 -248 -176 -275 -70 -24 -145 13 -184 90
-90 177 -11 560 203 989 120 238 280 478 481 721 279 338 668 680 970 854 127
74 223 83 299 30z m259 -681 c73 -86 154 -181 181 -211 26 -30 47 -59 47 -64
0 -4 -31 -8 -68 -8 -110 0 -194 -31 -289 -107 -85 -68 -111 -155 -58 -200 44
-38 82 -26 133 43 57 77 181 121 293 103 195 -31 368 -239 369 -444 0 -151
-80 -285 -205 -344 -71 -33 -94 -86 -57 -130 48 -59 162 -23 268 85 71 71 119
160 144 265 l16 70 90 -108 c149 -178 382 -466 715 -884 631 -790 621 -776
623 -899 1 -88 -35 -158 -102 -201 -104 -66 -185 -66 -496 1 -372 80 -1068
258 -1088 278 -28 28 -36 158 -14 237 33 125 135 252 246 307 259 129 574 29
697 -220 38 -76 38 -76 38 -205 0 -123 1 -130 24 -148 13 -10 35 -19 50 -19
65 0 93 57 93 191 1 282 -198 527 -492 605 -86 23 -244 23 -330 1 -234 -61
-426 -246 -485 -467 -8 -30 -15 -94 -15 -142 0 -49 -3 -88 -6 -88 -8 0 -303
84 -544 155 -118 35 -424 125 -680 200 -456 134 -795 236 -844 254 l-24 10 24
103 c52 223 114 397 214 603 252 518 644 989 1126 1353 61 45 254 175 271 181
0 1 61 -70 135 -156z"/>
<path d="M4734 5556 c-35 -15 -44 -32 -44 -80 0 -69 85 -101 135 -51 65 64 -7
167 -91 131z"/>
<path d="M4300 5020 c-123 -33 -196 -75 -285 -165 -90 -89 -136 -166 -160
-266 -37 -159 -2 -279 82 -279 23 0 42 8 58 25 28 27 29 35 14 102 -22 95 30
223 130 316 189 177 490 165 667 -25 134 -146 166 -329 84 -494 -17 -35 -48
-78 -73 -99 -23 -20 -52 -46 -64 -57 -44 -39 -20 -112 41 -123 47 -9 102 22
164 91 233 261 162 693 -147 892 -139 90 -353 125 -511 82z"/>
<path d="M5419 4521 c-64 -65 -20 -171 71 -171 60 0 100 41 100 103 0 64 -33
97 -95 97 -38 0 -52 -5 -76 -29z"/>
<path d="M6095 4528 c-32 -17 -45 -39 -45 -79 0 -96 143 -107 166 -14 17 69
-59 128 -121 93z"/>
</g>
</svg>
