<?xml version="1.0" standalone="no"?>
<!DOCTYPE svg PUBLIC "-//W3C//DTD SVG 20010904//EN"
 "http://www.w3.org/TR/2001/REC-SVG-20010904/DTD/svg10.dtd">
<svg version="1.0" xmlns="http://www.w3.org/2000/svg"
 width="2048.000000pt" height="2048.000000pt" viewBox="0 0 2048.000000 2048.000000"
 preserveAspectRatio="xMidYMid meet">
<metadata>
Created by potrace 1.16, written by Peter Selinger 2001-2019
</metadata>
<g transform="translate(0.000000,2048.000000) scale(0.100000,-0.100000)"
fill="#000000" stroke="none">
<path d="M7695 17010 c-294 -38 -495 -170 -604 -395 -72 -149 -110 -291 -185
-691 -119 -632 -191 -1048 -467 -2718 -34 -204 -63 -375 -65 -381 -3 -6 -62
-44 -132 -85 -107 -63 -144 -92 -237 -185 -125 -125 -172 -201 -206 -331 -17
-70 -20 -105 -17 -304 2 -186 -1 -236 -15 -286 -26 -95 -70 -194 -138 -311
-221 -380 -282 -534 -283 -715 -1 -78 1 -89 23 -112 31 -32 104 -60 201 -75
135 -22 284 -53 318 -67 26 -10 32 -19 32 -43 0 -42 -72 -547 -130 -916 -212
-1339 -447 -3000 -495 -3500 -20 -211 -20 -555 0 -691 66 -442 262 -687 655
-818 399 -133 1091 -264 2480 -470 2462 -365 3330 -468 3820 -453 555 17 1124
164 1434 371 169 113 284 244 374 427 85 171 132 346 177 656 30 205 161 1227
214 1678 22 182 56 465 76 630 93 779 147 1244 220 1885 42 370 51 431 70 476
29 69 103 163 227 289 203 204 219 259 154 530 -51 216 -59 281 -52 425 19
399 19 423 2 490 -31 122 -70 187 -161 275 l-84 81 25 239 c91 892 141 1402
188 1955 30 344 46 528 63 715 21 240 24 734 5 850 -22 132 -60 263 -98 336
-85 162 -273 300 -594 437 -338 145 -575 202 -1090 266 -422 52 -583 69 -1292
136 -235 22 -507 49 -605 60 -98 10 -394 40 -658 65 -569 53 -769 73 -1215
120 -419 45 -1041 109 -1310 135 -238 24 -524 33 -625 20z m330 -300 c139 -10
524 -47 975 -95 129 -13 426 -45 660 -69 234 -25 502 -52 595 -60 472 -43 948
-89 1190 -115 149 -17 416 -44 595 -60 605 -57 744 -71 1050 -107 705 -81 769
-97 907 -227 203 -193 250 -393 197 -842 -67 -575 -97 -844 -184 -1620 -191
-1714 -280 -2460 -305 -2542 -20 -65 -48 -90 -134 -117 -131 -41 -420 -101
-431 -90 -8 8 0 111 25 335 59 543 78 867 55 950 -18 63 -51 102 -105 122 -79
29 -289 60 -1055 157 -859 107 -977 120 -1132 120 -130 0 -171 -11 -222 -58
-71 -67 -263 -328 -314 -427 -11 -22 -27 -65 -36 -95 -24 -84 -80 -487 -171
-1220 -30 -242 -31 -250 -49 -250 -8 0 -69 22 -137 48 -68 27 -145 57 -172 66
-26 10 -52 26 -57 36 -7 13 -1 89 20 247 65 496 140 1234 147 1443 6 181 -1
230 -42 278 -46 55 -62 58 -545 122 -580 75 -1391 164 -1621 177 -200 11 -218
2 -472 -246 -182 -177 -203 -214 -235 -413 -15 -89 -20 -103 -37 -106 -49 -7
-269 175 -322 265 -47 80 -46 87 19 467 33 193 79 473 103 621 148 917 373
2227 441 2565 87 437 142 572 267 655 67 45 153 74 247 84 108 12 129 12 285
1z m6321 -775 c183 -76 358 -178 414 -241 43 -49 88 -143 106 -222 36 -157 29
-678 -16 -1147 -11 -110 -35 -373 -55 -585 -45 -496 -96 -1024 -145 -1520 -21
-217 -46 -473 -55 -569 -12 -125 -22 -185 -35 -210 -32 -61 -129 -144 -319
-271 -120 -80 -337 -194 -356 -186 -25 9 -26 -7 70 771 77 626 189 1608 225
1975 12 118 50 458 85 755 97 826 98 833 92 990 -6 164 -34 292 -91 405 -20
39 -36 75 -36 81 0 16 29 10 116 -26z m-6078 -3311 c224 -25 506 -56 627 -69
315 -34 703 -85 731 -95 13 -5 24 -14 24 -19 0 -16 -443 -258 -489 -267 -15
-3 -74 6 -132 20 -121 30 -256 53 -585 101 -131 19 -300 43 -376 55 -231 34
-488 60 -608 60 -63 0 -121 4 -129 9 -10 7 -4 19 30 56 58 63 181 168 222 189
45 24 185 16 685 -40z m-1843 -134 c4 -6 15 -43 26 -83 33 -117 74 -182 184
-292 160 -160 280 -233 535 -325 80 -29 168 -64 195 -78 145 -72 300 -203 471
-394 161 -182 298 -321 399 -405 95 -80 111 -98 96 -107 -5 -4 -97 -13 -204
-21 -316 -24 -370 -40 -642 -194 -122 -70 -207 -95 -295 -89 -57 4 -89 15
-188 62 -66 32 -144 64 -174 72 -63 16 -227 18 -353 3 -176 -21 -352 -15 -565
20 -255 41 -240 37 -240 64 0 40 65 173 186 379 122 209 169 311 206 445 20
71 22 102 23 338 l0 261 38 76 c42 86 123 174 220 239 63 42 72 45 82 29z
m3376 -167 c8 -96 -21 -422 -86 -983 -48 -414 -89 -712 -100 -730 -10 -16 -49
-10 -230 33 -82 19 -177 41 -210 49 -57 12 -60 15 -63 45 -2 18 13 133 33 255
54 334 76 539 82 791 5 201 8 231 25 252 28 35 500 304 536 305 6 0 13 -8 13
-17z m1229 -13 c63 -6 277 -31 475 -55 198 -24 547 -67 775 -95 503 -62 670
-86 682 -98 16 -16 -78 -86 -289 -212 -111 -67 -215 -126 -231 -132 -23 -9
-39 -6 -93 15 -87 35 -152 50 -374 91 -450 82 -867 132 -1170 142 -202 6 -225
9 -225 27 0 20 91 148 157 222 57 64 119 105 158 105 11 0 72 -5 135 -10z
m-3366 -55 c152 -15 1154 -154 1266 -176 87 -18 129 -38 147 -73 41 -75 5
-535 -77 -1018 -40 -229 -39 -227 -59 -237 -33 -18 -206 31 -331 94 -180 91
-322 212 -573 487 -364 400 -462 476 -746 583 -74 28 -139 58 -145 67 -7 12
-6 44 3 109 18 123 27 148 65 165 43 18 252 18 450 -1z m5428 -425 c-7 -219
-86 -963 -113 -1063 -5 -20 -20 -44 -33 -52 -23 -16 -450 -125 -487 -125 -11
0 -22 6 -25 14 -3 7 2 65 11 127 28 198 45 407 52 616 5 160 10 208 22 229 21
34 528 355 556 351 19 -2 20 -8 17 -97z m-2106 -15 c375 -35 939 -116 1150
-165 110 -25 186 -61 205 -97 31 -58 8 -511 -42 -823 -23 -147 -35 -187 -57
-199 -47 -25 -861 -260 -1079 -312 -277 -65 -427 -81 -517 -55 -75 22 -305
137 -330 165 -17 19 -18 31 -12 117 15 214 154 1261 177 1332 6 18 21 37 33
42 34 14 300 11 472 -5z m3826 -472 c44 -54 53 -139 34 -323 -29 -266 -21
-384 45 -639 21 -85 39 -160 39 -168 0 -8 -57 -74 -127 -146 -181 -187 -240
-272 -508 -737 -385 -668 -429 -739 -477 -774 -37 -26 -100 -24 -168 6 -51 23
-125 76 -455 328 -450 344 -850 532 -1473 695 -118 30 -228 63 -245 71 -18 9
-79 51 -137 94 -58 43 -158 113 -223 155 -93 61 -117 82 -115 97 3 18 35 29
253 83 138 34 462 124 720 199 430 126 938 257 1415 366 477 110 739 235 1145
545 222 169 247 183 277 148z m-6057 -728 c824 -143 1126 -246 1935 -656 452
-230 612 -346 684 -499 27 -58 31 -77 34 -176 5 -130 -10 -216 -70 -404 -70
-220 -127 -324 -196 -359 -57 -29 -92 -33 -155 -16 -130 34 -227 102 -462 325
-155 146 -242 213 -355 270 -119 60 -168 72 -325 76 -183 5 -207 9 -279 46
-96 50 -286 250 -545 573 -334 416 -509 621 -645 755 -69 67 -78 85 -48 94 40
12 285 -4 427 -29z m-696 -36 c99 -43 237 -164 406 -354 44 -49 206 -245 360
-435 317 -390 439 -528 546 -617 141 -119 236 -153 433 -153 242 0 334 -48
639 -332 190 -177 266 -237 362 -283 137 -67 244 -80 361 -44 57 18 77 31 129
82 75 75 114 152 180 357 69 214 95 349 95 501 0 148 4 155 76 145 61 -8 402
-108 512 -150 362 -139 625 -288 987 -560 195 -147 241 -191 251 -243 9 -49
-14 -280 -82 -813 -204 -1603 -218 -1718 -284 -2375 -53 -517 -91 -735 -164
-928 -86 -227 -238 -428 -396 -520 -173 -100 -317 -107 -985 -47 -346 32
-1293 151 -1746 220 -200 30 -557 83 -1429 210 -1309 191 -2127 356 -2388 483
-84 41 -195 156 -241 252 -97 202 -124 530 -76 955 50 447 276 2066 415 2970
43 283 109 727 145 985 36 259 70 486 75 506 6 20 18 43 28 52 21 19 167 42
332 53 130 8 182 -4 335 -76 143 -68 237 -88 344 -73 101 15 157 37 334 133
141 75 230 114 287 124 41 7 112 -4 159 -25z m6379 -1420 c3 -37 -6 -122 -123
-1114 -157 -1333 -354 -2901 -395 -3142 -35 -207 -69 -345 -109 -441 -95 -234
-267 -392 -546 -501 -230 -91 -545 -159 -545 -118 0 7 25 42 55 77 104 121
197 295 254 473 70 219 104 427 156 937 62 617 161 1445 285 2390 12 85 34
270 50 410 20 171 35 259 44 268 12 13 21 12 63 -2 81 -28 172 -32 224 -9 99
44 134 91 379 508 187 320 179 307 193 302 7 -2 13 -19 15 -38z"/>
<path d="M8037 16156 c-54 -20 -96 -55 -245 -200 -157 -154 -206 -215 -232
-287 -25 -72 -69 -320 -130 -729 -154 -1028 -168 -1157 -136 -1278 8 -30 44
-106 79 -170 35 -64 84 -153 107 -197 104 -193 123 -210 260 -239 183 -37
1455 -182 1973 -224 107 -9 188 -3 225 17 35 18 71 70 87 124 23 78 98 488
144 787 22 146 65 427 96 625 61 405 139 1006 154 1196 20 247 -19 335 -164
374 -80 21 -369 57 -755 94 -173 17 -490 49 -705 72 -442 46 -698 58 -758 35z
m368 -136 c61 -6 274 -28 475 -50 201 -22 487 -51 635 -65 297 -28 600 -62
628 -71 10 -3 17 -13 15 -22 -5 -27 -294 -200 -418 -251 l-56 -23 -84 26 c-88
26 -235 56 -375 76 -44 6 -240 35 -435 65 -414 63 -572 82 -768 91 -78 4 -146
12 -149 17 -8 14 168 184 209 202 40 17 169 19 323 5z m1877 -420 c-4 -112
-60 -549 -127 -995 -200 -1322 -233 -1516 -262 -1545 -13 -13 -35 6 -198 172
-101 102 -191 200 -200 217 -15 30 -13 42 44 304 71 326 99 487 145 832 41
305 63 518 72 682 7 116 8 119 38 147 46 42 448 275 471 273 19 -2 20 -8 17
-87z m-1917 21 c891 -129 1073 -158 1156 -181 55 -15 87 -46 95 -88 11 -55
-12 -299 -61 -667 -82 -611 -178 -1089 -230 -1141 -30 -30 -124 -37 -315 -25
-262 17 -514 46 -945 107 -427 61 -606 99 -625 134 -24 44 -2 283 70 755 22
149 60 403 85 565 52 352 79 486 104 520 33 45 67 51 306 46 147 -3 267 -11
360 -25z m-675 -2081 c263 -45 807 -119 1070 -146 91 -9 261 -17 378 -19 252
-3 214 15 413 -195 139 -147 176 -194 160 -204 -9 -6 -78 0 -631 60 -811 86
-1294 147 -1344 168 -54 23 -106 96 -195 275 -37 72 -35 95 6 87 16 -3 80 -15
143 -26z"/>
<path d="M9864 14602 c-6 -4 -16 -16 -22 -28 -12 -23 -50 -268 -59 -384 -5
-67 -3 -77 15 -93 11 -10 30 -17 43 -15 44 6 58 44 84 223 29 202 31 267 9
289 -16 17 -51 21 -70 8z"/>
<path d="M9764 13882 c-36 -24 -47 -118 -16 -145 10 -10 26 -17 35 -17 47 0
82 100 52 146 -15 24 -49 31 -71 16z"/>
<path d="M8090 15364 c-75 -20 -129 -54 -184 -115 -80 -89 -95 -199 -30 -215
36 -9 54 3 85 60 58 106 137 156 246 156 44 0 58 5 79 25 15 15 23 32 20 41
-3 9 -6 20 -6 25 0 17 -60 39 -107 38 -26 0 -73 -7 -103 -15z"/>
<path d="M7792 14897 c-38 -45 -15 -117 37 -117 51 0 78 60 51 111 -12 22 -71
27 -88 6z"/>
<path d="M8003 13372 c-19 -12 -31 -55 -22 -79 5 -14 22 -25 46 -32 69 -18
333 -52 354 -46 28 9 49 46 42 73 -9 36 -49 49 -206 71 -158 23 -195 25 -214
13z"/>
<path d="M11192 15826 c-37 -18 -97 -69 -202 -172 -181 -178 -199 -209 -229
-389 -54 -328 -204 -1444 -222 -1648 -16 -198 -9 -225 127 -498 155 -308 168
-324 279 -349 62 -14 585 -63 1075 -100 427 -33 620 -51 848 -80 170 -22 286
-25 329 -9 78 29 110 97 157 335 52 258 128 741 166 1054 22 180 81 771 105
1050 19 226 19 401 0 466 -15 53 -61 106 -107 123 -48 18 -140 30 -638 86
-272 30 -675 75 -895 101 -247 28 -465 47 -570 50 -166 5 -171 5 -223 -20z
m428 -132 c85 -8 304 -32 485 -54 182 -22 483 -55 670 -75 523 -54 524 -54
506 -83 -8 -13 -212 -108 -365 -169 -82 -34 -93 -35 -135 -26 -25 6 -116 27
-201 47 -347 81 -900 153 -1310 171 -160 7 -180 11 -180 30 0 18 78 95 138
137 70 48 102 50 392 22z m1880 -309 c18 -22 8 -183 -40 -665 -57 -564 -75
-715 -126 -1070 -69 -485 -135 -835 -162 -862 -14 -14 -129 90 -329 295 -161
166 -177 189 -162 238 36 125 128 657 163 944 32 258 56 584 56 752 0 51 5
103 11 117 14 29 72 61 278 151 169 74 270 114 287 115 6 0 17 -7 24 -15z
m-1950 -40 c446 -40 1055 -141 1152 -191 59 -31 68 -102 48 -379 -30 -404 -86
-828 -150 -1145 -52 -259 -55 -267 -92 -290 -71 -43 -186 -39 -923 34 -649 65
-660 66 -770 87 -82 16 -104 24 -123 46 -22 24 -23 32 -17 97 16 175 187 1437
216 1594 23 121 42 158 87 166 47 8 390 -3 572 -19z m-630 -2040 c116 -15 820
-90 1135 -121 114 -11 223 -15 330 -12 88 3 165 3 171 1 24 -8 416 -424 411
-436 -4 -11 -36 -10 -168 5 -90 9 -436 40 -769 68 -774 64 -1017 88 -1058 101
-20 7 -44 27 -64 56 -42 62 -178 334 -172 345 7 12 54 10 184 -7z"/>
<path d="M13193 14815 c-13 -9 -27 -32 -32 -53 -20 -79 -103 -692 -97 -717 4
-14 18 -31 32 -37 20 -10 29 -8 51 9 15 11 30 33 35 49 14 56 98 646 98 689 0
34 -5 47 -22 59 -28 20 -38 20 -65 1z"/>
<path d="M13024 13755 c-20 -48 -18 -98 4 -118 41 -37 87 -5 97 68 9 55 -11
85 -57 85 -24 0 -32 -6 -44 -35z"/>
<path d="M11392 15149 c-92 -11 -191 -60 -252 -125 -120 -127 -153 -323 -54
-324 30 0 53 30 69 89 28 106 81 168 181 212 38 17 70 23 141 24 107 1 125 11
121 64 -2 27 -9 39 -28 47 -35 16 -105 21 -178 13z"/>
<path d="M10996 14518 c-34 -49 -8 -108 47 -108 29 0 57 32 57 65 0 34 -28 65
-60 65 -18 0 -34 -8 -44 -22z"/>
<path d="M14304 13440 c-27 -11 -39 -47 -58 -180 -28 -196 -31 -256 -12 -285
22 -34 69 -34 91 -1 21 32 68 397 55 431 -5 13 -18 29 -29 34 -22 12 -19 12
-47 1z"/>
<path d="M14135 12116 c-14 -21 -54 -278 -55 -349 0 -40 41 -79 72 -68 36 13
46 45 70 223 21 157 21 167 5 192 -23 34 -70 36 -92 2z"/>
<path d="M8112 12528 c-59 -15 -68 -86 -15 -106 53 -20 498 -73 527 -63 47 19
43 91 -7 110 -20 8 -347 55 -438 63 -20 2 -50 0 -67 -4z"/>
<path d="M6564 11584 c-34 -33 -29 -51 54 -188 36 -60 100 -175 141 -255 61
-117 81 -148 103 -155 39 -14 68 14 68 66 0 66 -236 503 -293 543 -30 21 -44
19 -73 -11z"/>
<path d="M9477 11648 c-24 -19 -37 -62 -37 -127 0 -69 22 -98 65 -87 35 9 55
59 55 134 0 79 -37 114 -83 80z"/>
<path d="M9415 11236 c-20 -30 -50 -216 -41 -251 9 -35 48 -52 81 -35 29 16
40 49 57 172 10 77 10 89 -6 112 -22 35 -69 36 -91 2z"/>
<path d="M11055 12145 c-30 -29 -31 -45 -7 -75 14 -17 37 -24 117 -35 55 -8
128 -15 162 -15 56 0 64 3 79 25 20 31 12 70 -18 86 -21 11 -210 38 -276 39
-22 0 -41 -8 -57 -25z"/>
<path d="M11622 12094 c-14 -10 -22 -26 -22 -44 0 -37 32 -60 82 -60 41 0 68
21 68 53 0 28 -9 41 -37 56 -30 15 -64 14 -91 -5z"/>
<path d="M12694 11345 c-16 -24 -73 -381 -74 -461 0 -70 50 -104 93 -62 20 20
27 50 56 255 34 237 33 261 -3 285 -22 15 -56 8 -72 -17z"/>
<path d="M10885 11506 c-163 -41 -258 -152 -288 -338 -12 -79 -2 -114 38 -124
39 -10 72 26 86 95 22 110 73 191 143 228 15 8 64 18 109 23 86 8 107 22 107
66 0 56 -83 78 -195 50z"/>
<path d="M14447 10658 c-67 -83 -264 -419 -273 -467 -8 -37 9 -67 42 -75 35
-9 67 13 97 66 13 24 77 134 141 245 64 112 116 211 116 221 0 26 -31 52 -63
52 -18 0 -36 -12 -60 -42z"/>
<path d="M13464 10168 c-204 -156 -504 -517 -504 -606 0 -28 34 -54 66 -50 30
3 37 12 149 169 34 49 131 155 232 255 134 133 173 177 173 197 0 56 -64 75
-116 35z"/>
<path d="M9520 10120 c-34 -34 -26 -69 27 -114 108 -94 218 -206 269 -273 49
-65 59 -73 89 -73 35 0 65 28 65 61 0 75 -339 419 -412 419 -10 0 -27 -9 -38
-20z"/>
<path d="M12375 8638 c-32 -19 -52 -49 -76 -113 -42 -112 -96 -230 -144 -310
-130 -220 -178 -348 -178 -480 0 -119 26 -189 97 -261 128 -128 332 -116 460
27 152 169 196 500 111 835 -41 163 -92 266 -146 298 -31 19 -95 21 -124 4z
m100 -251 c56 -122 80 -368 52 -527 -37 -208 -120 -320 -237 -320 -121 0 -187
101 -161 247 14 77 42 144 153 353 42 80 86 170 99 200 28 66 48 100 61 100 5
0 20 -24 33 -53z"/>
<path d="M7720 7782 c-85 -22 -143 -58 -207 -124 -58 -63 -87 -114 -108 -195
-55 -209 45 -424 238 -514 69 -33 76 -34 192 -34 114 0 123 1 188 32 157 75
258 237 257 416 -1 208 -152 388 -359 427 -74 14 -125 12 -201 -8z m108 -209
c27 -17 52 -70 52 -111 0 -67 -87 -141 -150 -127 -17 4 -43 20 -60 36 -107
108 30 284 158 202z"/>
<path d="M10872 7374 c-320 -86 -426 -522 -182 -747 142 -131 331 -160 505
-77 70 33 160 121 195 190 92 180 54 404 -90 533 -114 102 -279 142 -428 101z
m134 -218 c30 -30 34 -40 34 -86 0 -47 -4 -56 -39 -91 -43 -44 -88 -51 -141
-24 -110 57 -54 235 74 235 30 0 45 -7 72 -34z"/>
<path d="M8894 6967 c-28 -24 -29 -30 -32 -120 -6 -167 35 -284 137 -386 151
-151 384 -190 584 -98 147 67 266 252 269 418 1 43 -3 55 -21 70 -31 25 -83
24 -106 -1 -9 -10 -26 -56 -37 -102 -23 -98 -63 -167 -124 -208 -187 -129
-448 -56 -524 146 -15 42 -20 79 -20 153 0 111 -11 136 -66 147 -24 5 -37 0
-60 -19z"/>
<path d="M11485 5835 c-54 -21 -119 -87 -146 -149 -46 -105 -23 -269 60 -435
55 -108 240 -362 349 -478 44 -48 94 -46 159 5 198 157 423 402 487 531 45 90
59 148 54 231 -9 152 -97 235 -248 235 -82 -1 -154 -25 -238 -82 l-67 -44 -18
23 c-66 83 -92 108 -148 138 -75 40 -177 50 -244 25z m143 -151 c69 -29 120
-93 162 -207 39 -104 93 -113 159 -24 86 116 193 186 264 173 124 -23 107
-183 -40 -366 -114 -142 -319 -335 -346 -325 -17 7 -154 172 -211 254 -97 141
-159 316 -142 402 11 58 57 106 104 108 7 1 29 -6 50 -15z"/>
<path d="M5917 5792 c-24 -26 -40 -153 -34 -258 11 -170 76 -315 185 -416 64
-60 164 -125 214 -140 34 -10 42 -9 66 9 19 15 26 29 25 48 -3 36 -13 46 -90
91 -98 57 -173 134 -216 224 -47 96 -60 182 -51 322 5 80 3 112 -6 123 -17 21
-73 19 -93 -3z"/>
<path d="M6600 4980 c-27 -27 -25 -56 5 -85 29 -30 68 -32 95 -5 28 28 25 64
-6 89 -34 26 -68 27 -94 1z"/>
<path d="M13996 7685 c-8 -8 -17 -23 -20 -33 -9 -28 -66 -454 -66 -493 0 -42
24 -69 62 -69 49 0 59 26 89 237 37 259 40 324 15 352 -22 25 -58 27 -80 6z"/>
<path d="M13886 6821 c-9 -10 -21 -32 -25 -49 -14 -48 -24 -159 -17 -186 16
-62 97 -53 116 13 6 20 14 73 17 119 5 70 3 85 -12 102 -23 25 -57 26 -79 1z"/>
</g>
</svg>
