<?xml version="1.0" standalone="no"?>
<!DOCTYPE svg PUBLIC "-//W3C//DTD SVG 20010904//EN"
 "http://www.w3.org/TR/2001/REC-SVG-20010904/DTD/svg10.dtd">
<svg version="1.0" xmlns="http://www.w3.org/2000/svg"
 width="1024.000000pt" height="1024.000000pt" viewBox="0 0 1024.000000 1024.000000"
 preserveAspectRatio="xMidYMid meet">
<metadata>
Created by potrace 1.16, written by Peter Selinger 2001-2019
</metadata>
<g transform="translate(0.000000,1024.000000) scale(0.100000,-0.100000)"
fill="#000000" stroke="none">
<path d="M4770 6560 c-173 -12 -298 -28 -330 -43 -31 -15 -51 -78 -80 -253
-69 -414 -63 -785 16 -1021 97 -288 322 -503 602 -573 41 -11 42 -11 37 -48
-2 -20 -7 -131 -10 -247 -3 -115 -8 -262 -12 -326 l-6 -116 -96 -11 c-169 -20
-241 -60 -241 -134 0 -46 24 -73 77 -87 163 -44 658 -41 796 5 52 17 67 36 67
84 0 23 -9 41 -32 64 -36 36 -117 60 -239 72 l-66 6 -6 117 c-4 64 -9 197 -12
296 -3 99 -8 210 -11 247 l-5 66 58 16 c286 80 510 309 597 610 55 188 69 430
41 703 -24 233 -63 449 -91 505 -16 31 -55 41 -219 58 -139 14 -672 21 -835
10z m800 -71 c69 -6 143 -14 165 -18 l40 -6 17 -73 c25 -109 56 -338 69 -507
32 -426 -55 -747 -256 -949 -108 -108 -206 -163 -365 -204 l-75 -20 3 -158 c2
-184 23 -677 28 -683 2 -2 54 -7 116 -11 133 -10 211 -34 216 -67 4 -27 -32
-38 -169 -53 -256 -27 -659 4 -659 50 0 29 101 61 228 70 63 5 116 10 117 12
3 3 14 254 31 689 l6 156 -44 7 c-137 21 -302 107 -403 211 -255 260 -319 654
-214 1310 27 172 38 213 57 219 32 10 202 28 345 36 166 10 568 4 747 -11z"/>
<path d="M4768 6269 c-41 -23 3 -90 44 -68 20 11 24 49 6 67 -14 14 -27 15
-50 1z"/>
<path d="M4549 6196 c-15 -33 4 -58 40 -54 22 3 26 8 26 38 0 31 -3 35 -27 38
-22 3 -30 -2 -39 -22z"/>
<path d="M5650 6017 c-93 -10 -817 -15 -1025 -7 l-130 5 -8 -150 c-10 -177 5
-399 34 -513 69 -276 286 -488 535 -524 146 -21 296 28 430 140 150 127 238
322 265 585 12 114 5 456 -9 467 -4 3 -45 2 -92 -3z m-790 -78 c203 -10 311
-10 515 0 142 7 271 15 287 18 l30 6 -5 -244 c-5 -260 -14 -326 -62 -447 -63
-157 -162 -266 -304 -335 -76 -37 -94 -42 -177 -45 -98 -5 -152 7 -246 54
-114 57 -224 182 -281 320 -52 123 -70 248 -69 472 1 112 4 208 8 213 3 6 15
8 26 5 12 -2 136 -10 278 -17z"/>
<path d="M4670 5856 c-19 -23 -8 -61 18 -64 46 -7 72 47 33 68 -26 14 -36 13
-51 -4z"/>
</g>
</svg>
