<?xml version="1.0" standalone="no"?>
<!DOCTYPE svg PUBLIC "-//W3C//DTD SVG 20010904//EN"
 "http://www.w3.org/TR/2001/REC-SVG-20010904/DTD/svg10.dtd">
<svg version="1.0" xmlns="http://www.w3.org/2000/svg"
 width="1024.000000pt" height="1024.000000pt" viewBox="0 0 1024.000000 1024.000000"
 preserveAspectRatio="xMidYMid meet">
<metadata>
Created by potrace 1.16, written by Peter Selinger 2001-2019
</metadata>
<g transform="translate(0.000000,1024.000000) scale(0.100000,-0.100000)"
fill="#000000" stroke="none">
<path d="M4265 7778 c-45 -26 -46 -65 -4 -151 44 -91 135 -209 300 -391 179
-198 258 -290 254 -295 -2 -1 -34 5 -72 15 -112 31 -375 26 -568 -10 -210 -38
-358 -61 -594 -91 -112 -14 -219 -32 -236 -39 -42 -18 -52 -54 -29 -103 42
-88 299 -240 479 -284 50 -12 97 -24 105 -26 8 -3 -32 -27 -89 -54 -357 -169
-603 -446 -721 -809 -47 -144 -64 -256 -64 -415 0 -437 181 -892 540 -1355
103 -133 442 -478 589 -599 310 -256 675 -479 931 -568 65 -22 96 -27 174 -27
82 0 106 5 180 32 243 92 526 298 846 617 281 280 461 506 634 795 187 312
293 576 361 900 19 89 23 138 23 315 0 181 -3 224 -22 312 -77 354 -259 632
-533 814 -160 108 -296 164 -513 214 -28 6 -25 8 50 47 86 44 102 54 212 136
130 97 177 188 118 227 -37 24 -208 38 -386 30 -462 -18 -670 -37 -823 -75
-49 -12 -90 -20 -93 -18 -2 3 22 36 54 74 56 66 110 111 333 274 246 179 378
364 308 429 -29 27 -79 27 -208 1 -231 -47 -455 -149 -603 -276 l-52 -44 -63
69 c-109 119 -248 209 -423 274 -156 58 -344 84 -395 55z m238 -117 c185 -48
335 -129 460 -250 116 -112 175 -223 215 -403 17 -77 18 -89 5 -119 -9 -19
-27 -69 -42 -112 l-27 -79 -53 87 c-78 128 -183 262 -337 430 -218 239 -364
421 -364 454 0 17 59 13 143 -8z m1397 -59 c0 -22 -212 -210 -340 -303 -80
-57 -176 -134 -215 -171 -68 -67 -84 -72 -85 -26 0 9 -13 53 -29 98 l-28 81
51 46 c113 102 278 189 457 242 147 42 189 50 189 33z m600 -701 c0 -19 -166
-134 -264 -183 -108 -55 -236 -101 -307 -113 -76 -12 -102 -40 -83 -89 3 -9
23 -20 43 -26 70 -19 198 -141 306 -293 88 -125 223 -422 202 -443 -12 -12
-155 33 -255 81 -159 76 -300 182 -404 302 -48 56 -58 73 -58 104 0 43 -21 69
-54 69 -33 0 -44 -17 -67 -106 -36 -138 -134 -320 -211 -392 l-24 -22 -50 32
c-65 43 -205 180 -274 267 -58 74 -97 99 -125 83 -9 -5 -37 -35 -61 -68 -96
-129 -301 -311 -387 -343 -24 -9 -27 -7 -41 37 -42 128 -73 323 -82 524 -4 73
-11 139 -17 146 -6 8 -37 12 -86 12 -178 0 -421 50 -551 114 -93 46 -201 118
-197 131 2 5 42 13 88 18 109 10 436 58 659 98 161 28 188 30 340 26 141 -4
178 -8 255 -31 50 -15 103 -35 119 -44 17 -10 50 -53 81 -107 92 -156 87 -150
127 -153 47 -4 57 11 92 138 15 52 32 100 39 107 34 33 264 85 452 103 271 25
795 39 795 21z m-117 -478 c125 -43 189 -75 303 -152 201 -134 353 -327 435
-552 71 -194 98 -401 79 -601 -55 -592 -403 -1231 -985 -1814 -205 -205 -332
-312 -519 -436 -191 -127 -337 -190 -437 -189 -156 0 -529 190 -853 433 -312
234 -623 541 -817 808 -350 480 -510 979 -444 1385 45 280 147 486 338 682
111 114 227 199 360 262 92 44 276 108 322 113 29 3 30 2 32 -47 10 -201 51
-445 94 -559 29 -79 57 -106 108 -106 89 0 297 147 431 304 36 42 68 75 71 74
3 -2 43 -43 89 -93 190 -207 304 -274 389 -231 64 33 163 168 221 301 l34 76
75 -75 c198 -193 504 -353 689 -359 59 -2 65 0 89 27 22 26 25 36 19 81 -20
172 -185 486 -347 659 -38 40 -66 76 -63 78 9 10 183 -32 287 -69z"/>
<path d="M3694 5754 c-72 -47 -116 -141 -117 -254 -1 -90 28 -144 89 -172 126
-55 251 65 261 252 4 64 1 81 -19 119 -42 81 -137 105 -214 55z m120 -96 c58
-83 -48 -294 -114 -228 -23 23 -28 108 -9 157 31 82 91 117 123 71z"/>
<path d="M6723 5420 c-72 -43 -107 -199 -66 -292 34 -76 125 -100 192 -50 65
48 91 188 53 275 -35 79 -112 108 -179 67z m87 -109 c16 -31 12 -93 -10 -128
-24 -40 -37 -42 -50 -7 -14 36 -12 79 4 119 17 39 40 45 56 16z"/>
<path d="M5639 5357 c-56 -30 -94 -85 -115 -167 -29 -117 -4 -242 62 -299 120
-106 287 10 302 208 9 137 -25 223 -104 261 -53 26 -91 25 -145 -3z m116 -101
c81 -81 11 -332 -84 -301 -80 25 -72 251 11 309 31 22 45 20 73 -8z"/>
<path d="M4451 5293 c-38 -19 -86 -88 -102 -148 -23 -83 10 -188 66 -213 42
-19 108 -15 146 11 107 70 124 288 27 347 -40 24 -91 25 -137 3z m89 -98 c8
-10 11 -35 8 -70 -8 -93 -81 -145 -103 -75 -11 34 5 99 32 130 28 33 44 37 63
15z"/>
<path d="M3762 4679 c-75 -16 -119 -98 -109 -204 13 -139 109 -245 209 -232
88 12 123 63 123 182 0 68 -4 89 -28 138 -44 89 -117 133 -195 116z m85 -138
c45 -67 54 -162 17 -192 -21 -17 -62 14 -91 71 -57 112 9 218 74 121z"/>
<path d="M5019 4621 c-49 -16 -79 -43 -106 -99 -23 -47 -28 -70 -27 -132 0
-138 55 -210 158 -210 44 0 53 4 91 43 95 94 100 287 10 366 -20 17 -41 31
-48 31 -7 0 -21 2 -32 5 -11 2 -32 0 -46 -4z m77 -138 c39 -92 -33 -252 -84
-190 -19 22 -31 100 -23 145 16 86 79 112 107 45z"/>
<path d="M6275 4506 c-17 -7 -46 -30 -64 -52 -96 -109 -109 -306 -26 -384 25
-24 95 -37 139 -26 118 30 205 263 146 393 -33 73 -117 103 -195 69z m99 -108
c34 -48 4 -180 -53 -237 -30 -30 -69 -28 -81 5 -33 86 32 254 99 254 11 0 27
-10 35 -22z"/>
<path d="M4346 3959 c-81 -63 -73 -214 15 -294 51 -45 111 -49 158 -9 74 62
63 214 -21 289 -31 29 -46 35 -82 35 -29 0 -52 -7 -70 -21z m103 -115 c16 -35
14 -89 -4 -104 -13 -10 -18 -6 -35 31 -22 50 -25 80 -9 96 16 16 34 7 48 -23z"/>
<path d="M5662 3863 c-80 -39 -142 -156 -142 -268 0 -103 31 -156 102 -175 80
-22 174 34 225 134 35 68 43 194 16 246 -38 72 -126 100 -201 63z m100 -100
c44 -40 2 -192 -64 -233 -40 -24 -42 -24 -62 -4 -38 37 -9 172 48 229 29 29
52 32 78 8z"/>
<path d="M4824 3470 c-105 -42 -108 -246 -4 -320 65 -46 148 -28 182 40 27 52
24 154 -5 205 -39 70 -110 101 -173 75z m80 -122 c22 -31 21 -107 0 -115 -20
-7 -40 17 -53 64 -18 65 19 100 53 51z"/>
</g>
</svg>
