<?xml version="1.0" standalone="no"?>
<!DOCTYPE svg PUBLIC "-//W3C//DTD SVG 20010904//EN"
 "http://www.w3.org/TR/2001/REC-SVG-20010904/DTD/svg10.dtd">
<svg version="1.0" xmlns="http://www.w3.org/2000/svg"
 width="1024.000000pt" height="1024.000000pt" viewBox="0 0 1024.000000 1024.000000"
 preserveAspectRatio="xMidYMid meet">
<metadata>
Created by potrace 1.16, written by Peter Selinger 2001-2019
</metadata>
<g transform="translate(0.000000,1024.000000) scale(0.100000,-0.100000)"
fill="#000000" stroke="none">
<path d="M6484 7770 c-52 -21 -79 -93 -53 -142 6 -11 9 -21 7 -23 -2 -3 -49 5
-103 16 -85 18 -124 20 -260 16 -298 -10 -532 -83 -797 -250 -106 -67 -128
-93 -111 -130 8 -17 27 -28 74 -41 35 -9 83 -28 105 -41 75 -44 142 -140 153
-220 8 -56 31 -65 123 -49 125 22 256 -11 340 -85 20 -18 55 -61 78 -97 l40
-64 -94 -213 c-182 -409 -169 -384 -213 -391 -171 -27 -749 -45 -958 -29
l-110 8 -43 125 c-24 69 -104 316 -178 550 -74 234 -141 439 -149 457 -8 17
-23 34 -34 38 -18 5 -268 -87 -351 -130 -45 -23 -44 -46 10 -165 21 -47 82
-182 135 -300 53 -118 128 -284 167 -368 39 -84 69 -155 65 -158 -3 -3 -27 -1
-53 4 -53 12 -71 8 -79 -18 -14 -43 6 -56 115 -74 l65 -11 70 -135 c69 -134
70 -135 105 -135 26 0 38 6 49 26 13 24 11 32 -27 116 -23 49 -42 93 -42 96 0
4 15 7 34 7 34 0 35 -1 62 -82 42 -131 49 -140 92 -136 54 4 63 37 34 125 -12
36 -20 69 -18 72 2 3 57 3 123 -1 250 -14 614 -5 836 21 37 4 69 6 71 4 2 -3
-11 -38 -30 -78 -19 -41 -34 -85 -34 -98 0 -32 30 -57 68 -57 39 0 51 18 114
161 l42 97 65 12 c98 17 129 29 136 51 13 39 -13 52 -87 45 l-67 -7 101 218
c55 120 111 243 123 273 22 52 26 56 71 68 107 29 220 -6 304 -93 65 -68 69
-69 135 -39 51 23 66 26 139 22 90 -5 140 -26 235 -97 64 -48 92 -51 120 -15
18 23 21 41 21 129 0 406 -253 812 -612 986 -27 13 -48 26 -48 30 0 4 11 14
25 23 59 39 48 143 -19 171 -40 17 -52 17 -82 5z m-434 -244 c0 -3 -26 -19
-57 -36 -135 -71 -276 -202 -367 -338 -26 -40 -51 -72 -54 -72 -4 0 -16 16
-27 36 -26 48 -88 109 -144 141 -25 15 -48 28 -50 30 -15 11 208 128 319 168
121 42 380 91 380 71z m335 -26 c44 -11 91 -29 105 -39 34 -25 88 -153 112
-269 23 -106 30 -341 15 -464 l-8 -67 -47 30 c-26 16 -69 36 -96 44 -57 17
-182 20 -222 5 -15 -6 -28 -9 -30 -7 -2 2 45 130 103 286 114 299 116 312 61
319 -14 2 -29 -3 -35 -10 -9 -11 -199 -488 -215 -537 -3 -10 -12 -2 -26 21
-44 71 -146 145 -240 175 -26 8 -85 18 -130 22 l-84 6 62 87 c132 185 331 335
530 399 68 22 51 22 145 -1z m393 -215 c147 -139 246 -305 296 -492 24 -89 44
-243 33 -243 -4 0 -28 14 -54 30 -86 55 -195 75 -307 56 -41 -6 -48 -5 -43 7
3 8 11 62 18 119 21 179 -1 418 -51 564 -11 31 -20 59 -20 61 0 12 51 -28 128
-102z m-2528 -219 c0 -6 128 -413 240 -761 44 -137 80 -251 80 -253 0 -2 -21
-2 -46 0 l-46 3 -93 200 c-116 250 -335 738 -332 741 1 1 40 18 87 37 80 34
110 43 110 33z"/>
<path d="M4857 6570 c-59 -5 -115 -14 -122 -20 -18 -15 -19 -46 -3 -56 7 -5
188 -8 403 -9 255 -1 429 -5 503 -14 89 -11 115 -11 127 -1 17 14 20 56 4 65
-44 28 -692 52 -912 35z"/>
<path d="M3985 6391 c-83 -39 -139 -83 -158 -123 -15 -33 -15 -63 3 -449 38
-808 75 -1740 110 -2739 6 -168 13 -314 15 -326 6 -27 29 -37 176 -73 473
-117 1056 -143 1561 -70 259 37 614 121 646 153 14 13 17 59 24 308 32 1263
40 1543 53 1918 8 234 22 613 31 842 14 382 14 419 -1 447 -18 35 -73 79 -141
112 -43 21 -46 21 -65 3 -31 -28 -19 -54 46 -99 l60 -41 -2 -104 c0 -58 -4
-174 -8 -258 -7 -146 -8 -154 -29 -162 -40 -15 -377 -69 -527 -85 -484 -50
-1061 -39 -1519 30 -120 18 -302 54 -309 61 -3 3 -11 116 -18 252 l-12 247 32
28 c18 15 61 42 97 60 66 33 82 55 60 82 -18 22 -58 17 -125 -14z m125 -782
c537 -99 1300 -111 1875 -28 77 11 172 27 210 35 39 8 84 17 100 20 l30 6 -15
-443 -15 -442 -64 -29 c-186 -83 -382 -127 -505 -114 -176 20 -265 65 -382
192 -78 85 -90 94 -137 104 -100 23 -140 1 -261 -144 -97 -115 -219 -169 -381
-170 -114 0 -171 17 -327 97 -71 36 -149 69 -185 76 l-62 13 -5 62 c-5 51 -36
741 -36 785 0 9 8 11 27 6 16 -4 75 -15 133 -26z m1117 -807 c13 -8 32 -29 43
-47 33 -54 125 -131 193 -163 115 -53 179 -66 322 -66 147 1 214 15 390 84 58
23 109 40 112 37 2 -3 0 -182 -6 -399 -6 -216 -14 -545 -17 -731 -6 -295 -9
-339 -23 -346 -26 -14 -186 -48 -326 -70 -438 -70 -1034 -80 -1460 -25 -133
17 -376 62 -394 74 -10 6 -16 73 -22 271 -15 470 -39 1082 -45 1177 -4 50 -2
92 2 92 31 0 107 -30 229 -91 195 -97 302 -116 462 -83 149 31 253 94 349 215
77 96 125 114 191 71z m1016 -1963 c-13 -12 -280 -76 -413 -98 -504 -84 -1083
-79 -1545 15 -66 13 -143 31 -172 39 l-51 16 -7 115 c-4 63 -5 118 -1 121 3 4
70 -5 149 -20 584 -110 1295 -104 1882 16 l160 32 3 -114 c1 -63 -1 -118 -5
-122z"/>
<path d="M4320 5329 c-11 -19 -5 -36 43 -128 76 -148 139 -252 160 -265 21
-14 51 2 54 30 2 10 -41 100 -95 199 -85 159 -100 180 -124 183 -19 2 -30 -3
-38 -19z"/>
<path d="M6002 4298 c-17 -17 -17 -909 0 -926 16 -16 53 -15 67 2 8 10 11 136
9 465 -3 389 -5 453 -18 461 -21 13 -44 12 -58 -2z"/>
<path d="M5455 4226 c-22 -9 -54 -31 -72 -50 -108 -117 -28 -307 129 -308 76
-1 141 39 177 109 17 33 13 123 -7 163 -38 76 -144 116 -227 86z m123 -99 c8
-6 21 -27 29 -45 12 -30 12 -38 -4 -70 -32 -66 -122 -74 -161 -15 -33 51 -13
120 43 144 24 10 73 3 93 -14z"/>
<path d="M4544 3729 c-23 -5 -60 -26 -84 -46 -160 -138 -64 -403 146 -403 49
0 115 28 153 63 126 120 78 332 -88 381 -60 18 -68 18 -127 5z m134 -106 c65
-40 81 -146 31 -199 -51 -55 -104 -67 -166 -37 -47 22 -73 66 -73 125 0 104
118 167 208 111z"/>
</g>
</svg>
