<?xml version="1.0" standalone="no"?>
<!DOCTYPE svg PUBLIC "-//W3C//DTD SVG 20010904//EN"
 "http://www.w3.org/TR/2001/REC-SVG-20010904/DTD/svg10.dtd">
<svg version="1.0" xmlns="http://www.w3.org/2000/svg"
 width="1024.000000pt" height="1024.000000pt" viewBox="0 0 1024.000000 1024.000000"
 preserveAspectRatio="xMidYMid meet">
<metadata>
Created by potrace 1.16, written by Peter Selinger 2001-2019
</metadata>
<g transform="translate(0.000000,1024.000000) scale(0.100000,-0.100000)"
fill="#000000" stroke="none">
<path d="M4800 7083 c-251 -9 -604 -56 -808 -108 -319 -80 -547 -211 -584
-335 -45 -152 28 -878 158 -1570 136 -722 363 -1546 528 -1912 31 -69 61 -92
207 -153 220 -93 468 -138 764 -139 350 -1 637 57 860 172 l90 47 68 170 c330
819 640 2183 707 3102 17 231 -6 312 -113 392 -300 224 -1074 362 -1877 334z
m765 -117 c363 -41 663 -109 874 -196 85 -35 198 -108 225 -146 19 -26 19 -28
1 -61 -11 -19 -32 -45 -47 -58 l-29 -24 -46 35 c-246 188 -814 304 -1489 304
-655 0 -1210 -114 -1434 -294 l-45 -37 -37 42 c-42 46 -45 57 -24 98 64 123
411 256 825 316 241 35 398 44 746 40 222 -2 388 -9 480 -19z m-30 -261 c439
-47 839 -158 935 -260 l22 -23 -28 -15 c-133 -68 -443 -144 -744 -181 -195
-24 -219 -26 -432 -35 -395 -17 -854 18 -1183 90 -165 36 -435 128 -435 148 0
17 49 52 125 89 183 92 512 166 850 192 77 6 160 12 185 14 98 9 563 -4 705
-19z m1161 -347 c-78 -940 -391 -2300 -708 -3076 -58 -142 -61 -144 -216 -206
-232 -93 -624 -138 -917 -106 -230 26 -452 85 -590 158 l-70 37 -56 145 c-230
588 -474 1610 -583 2440 -44 334 -75 680 -61 680 4 0 24 -15 45 -33 46 -39
168 -101 265 -134 468 -160 1237 -216 1895 -137 332 39 607 104 793 187 64 29
187 107 187 119 0 4 5 8 11 8 8 0 10 -24 5 -82z"/>
<path d="M3694 6085 c-26 -26 -26 -28 -19 -123 36 -518 220 -1470 394 -2043
88 -288 118 -365 160 -398 70 -55 168 -93 341 -131 160 -35 271 -45 510 -45
262 0 388 14 589 66 136 35 202 65 257 116 38 35 46 54 117 268 111 338 141
440 217 740 111 436 205 937 249 1322 22 191 20 222 -18 242 -31 17 -57 13
-155 -23 -592 -222 -1785 -232 -2400 -20 -174 60 -207 64 -242 29z m327 -158
c353 -93 871 -141 1284 -118 457 26 762 73 1014 157 57 19 105 34 107 32 1 -2
-4 -60 -12 -128 -55 -488 -187 -1126 -339 -1650 -44 -151 -171 -538 -200 -613
-14 -34 -155 -91 -305 -122 -143 -30 -304 -45 -495 -45 -266 0 -465 28 -650
90 -132 45 -140 51 -176 150 -94 260 -229 768 -309 1171 -74 368 -148 845
-166 1071 l-7 88 80 -30 c44 -16 122 -40 174 -53z"/>
<path d="M4010 5715 c-11 -13 -8 -47 14 -188 39 -246 107 -567 124 -583 18
-18 56 -18 72 1 7 8 10 27 7 42 -2 16 -25 129 -50 253 -25 124 -54 279 -63
345 -10 66 -22 126 -27 133 -13 17 -62 15 -77 -3z"/>
<path d="M5816 4198 c-9 -12 -16 -27 -16 -33 0 -5 -28 -97 -62 -203 -41 -129
-68 -197 -80 -203 -30 -16 -167 -41 -322 -58 -165 -18 -181 -26 -157 -77 l12
-27 112 6 c201 11 428 61 448 98 22 41 149 442 149 470 0 48 -57 66 -84 27z"/>
<path d="M4362 3298 c-16 -16 -15 -53 2 -67 7 -6 58 -22 112 -35 309 -77 612
-92 954 -50 145 18 336 58 357 75 8 7 13 23 11 37 -6 46 -26 48 -170 19 -212
-43 -308 -52 -553 -51 -249 0 -385 14 -562 59 -110 28 -134 30 -151 13z"/>
</g>
</svg>
