<?xml version="1.0" standalone="no"?>
<!DOCTYPE svg PUBLIC "-//W3C//DTD SVG 20010904//EN"
 "http://www.w3.org/TR/2001/REC-SVG-20010904/DTD/svg10.dtd">
<svg version="1.0" xmlns="http://www.w3.org/2000/svg"
 width="2048.000000pt" height="2048.000000pt" viewBox="0 0 2048.000000 2048.000000"
 preserveAspectRatio="xMidYMid meet">
<metadata>
Created by potrace 1.16, written by Peter Selinger 2001-2019
</metadata>
<g transform="translate(0.000000,2048.000000) scale(0.100000,-0.100000)"
fill="#000000" stroke="none">
<path d="M11850 15843 c-202 -20 -670 -94 -915 -144 -1442 -295 -2520 -819
-3173 -1542 -117 -130 -262 -309 -509 -629 l-144 -188 -47 0 c-92 0 -389 -20
-527 -35 -498 -55 -938 -180 -1208 -344 -369 -224 -524 -588 -488 -1143 19
-280 82 -604 182 -929 22 -71 36 -135 32 -142 -10 -18 -337 -431 -544 -687
-1003 -1245 -1336 -1691 -1724 -2310 -355 -566 -586 -1056 -680 -1444 -103
-421 -57 -843 120 -1111 57 -86 164 -195 248 -253 205 -141 439 -216 842 -268
164 -21 829 -31 1049 -14 760 55 1612 304 2116 618 407 254 821 660 1489 1462
117 141 596 744 728 918 31 39 59 72 63 72 4 0 124 -57 266 -126 2621 -1276
3560 -1699 4664 -2106 707 -260 1380 -479 1786 -582 134 -34 439 -91 604 -113
184 -25 630 -25 807 0 437 61 765 172 1030 349 276 185 429 422 490 762 20
111 22 388 4 526 -51 384 -183 774 -401 1183 -333 623 -731 1100 -1221 1463
-336 250 -714 476 -1234 739 -306 155 -388 194 -680 328 -122 55 -209 95 -610
277 -88 39 -230 104 -315 142 -662 300 -1199 561 -1655 806 -284 153 -509 278
-546 303 l-23 16 165 224 c396 537 623 888 784 1214 121 245 165 353 234 573
175 558 233 1077 157 1403 -99 428 -376 673 -821 728 -83 10 -313 13 -395 4z
m444 -382 c86 -23 190 -70 187 -86 -3 -20 -542 -738 -881 -1175 -75 -96 -192
-247 -260 -335 -68 -88 -158 -203 -200 -256 -41 -52 -178 -227 -305 -389 -126
-161 -367 -464 -533 -674 -167 -209 -334 -419 -371 -466 -37 -47 -184 -231
-326 -410 -143 -179 -291 -365 -330 -415 -39 -49 -125 -158 -191 -241 -65 -83
-175 -222 -244 -309 -299 -379 -1008 -1268 -1380 -1730 -133 -165 -293 -363
-355 -440 -62 -77 -120 -147 -129 -154 -18 -15 -29 -14 -201 18 -166 31 -406
60 -564 67 -77 4 -141 9 -141 12 0 4 93 124 344 442 50 63 162 203 249 310
216 266 223 274 499 620 401 502 682 852 880 1095 103 127 289 358 414 515
199 249 761 950 998 1245 45 55 146 183 226 284 137 174 376 476 535 676 241
304 726 937 1116 1456 l238 317 63 10 c35 6 108 16 163 21 55 6 116 13 135 15
82 10 287 -3 364 -23z m-864 -50 c0 -19 -952 -1263 -1335 -1746 -39 -49 -181
-229 -316 -399 -246 -312 -524 -662 -629 -791 -31 -38 -154 -191 -272 -340
-215 -270 -419 -525 -548 -685 -38 -47 -117 -146 -177 -221 -59 -74 -174 -216
-254 -315 -80 -98 -247 -305 -371 -460 -124 -154 -261 -325 -306 -380 -101
-124 -623 -776 -791 -988 -69 -88 -207 -261 -307 -385 l-180 -226 -80 -7
c-284 -25 -537 -63 -754 -112 -58 -13 -107 -22 -108 -21 -5 5 45 78 133 195
39 52 127 169 195 260 68 91 156 206 195 255 68 86 156 200 385 495 58 74 174
223 259 330 84 107 190 242 235 299 44 57 168 212 275 345 107 133 251 313
320 401 69 87 243 306 386 485 290 362 898 1120 955 1190 91 113 398 500 511
644 68 88 191 245 273 350 265 339 576 743 934 1216 165 218 284 373 291 382
15 18 558 142 926 212 151 28 155 29 155 17z m1174 -140 c93 -127 126 -256
125 -488 0 -289 15 -248 -204 -553 -104 -146 -238 -332 -299 -415 -60 -82
-130 -179 -156 -215 -101 -141 -421 -573 -979 -1318 -199 -268 -394 -530 -431
-582 -37 -52 -137 -188 -221 -302 -85 -113 -210 -282 -278 -375 -148 -200
-725 -969 -902 -1203 -131 -173 -226 -296 -400 -520 -58 -74 -152 -196 -209
-270 -58 -74 -168 -214 -245 -311 -77 -97 -180 -227 -230 -290 -207 -264 -688
-841 -706 -847 -6 -3 -7 49 -3 130 16 340 -71 511 -303 594 -43 15 -82 30 -86
34 -5 4 4 23 20 41 16 19 114 140 218 269 104 129 272 339 374 465 288 358
974 1217 1096 1372 61 77 182 231 270 343 88 112 342 431 563 709 476 596 492
616 697 876 87 110 191 241 230 290 162 203 830 1054 1044 1330 381 492 674
880 865 1148 54 75 102 137 106 137 5 0 25 -22 44 -49z m-2489 -243 c-43 -57
-155 -204 -249 -328 -93 -124 -193 -254 -221 -290 -28 -36 -116 -150 -195
-255 -80 -104 -194 -253 -254 -330 -61 -77 -173 -221 -251 -319 -413 -527
-758 -961 -1176 -1481 -221 -275 -451 -563 -513 -640 -61 -77 -257 -322 -435
-545 -179 -223 -376 -470 -439 -550 -63 -80 -153 -194 -200 -255 -377 -480
-883 -1135 -1149 -1489 -129 -171 -196 -252 -213 -257 -14 -4 -87 -26 -163
-48 -168 -50 -341 -112 -529 -191 -78 -32 -144 -58 -146 -56 -2 2 32 53 76
112 43 60 115 159 159 221 464 639 1099 1459 1948 2513 143 178 271 337 285
354 13 17 131 162 260 321 352 433 916 1135 1109 1380 26 33 126 159 221 280
437 555 590 753 948 1231 l293 391 152 66 c257 110 742 284 756 271 2 -2 -31
-50 -74 -106z m-1062 -386 c-16 -20 -106 -138 -199 -262 -94 -124 -210 -277
-259 -340 -49 -63 -161 -209 -250 -325 -88 -115 -223 -289 -300 -386 -77 -97
-205 -259 -285 -360 -147 -186 -311 -392 -675 -843 -207 -259 -240 -299 -515
-637 -245 -302 -456 -563 -608 -754 -75 -93 -251 -314 -391 -490 -141 -176
-314 -396 -386 -489 -71 -93 -206 -266 -298 -384 -190 -243 -436 -570 -677
-902 -395 -543 -442 -603 -501 -634 -230 -125 -485 -314 -697 -520 -56 -54
-102 -93 -102 -85 0 33 327 549 533 843 293 417 464 639 1131 1471 418 522
799 999 851 1066 27 35 88 114 134 174 139 181 431 550 866 1095 226 283 567
713 757 955 367 468 583 741 712 900 204 252 432 469 670 640 190 137 501 324
514 310 3 -3 -8 -22 -25 -43z m3614 -424 c-9 -66 -102 -383 -145 -499 -73
-193 -153 -373 -235 -524 -203 -378 -411 -678 -1157 -1675 -529 -705 -946
-1265 -1221 -1634 -1428 -1921 -2058 -2732 -2645 -3401 -134 -153 -161 -181
-169 -174 -2 3 30 83 71 179 104 243 181 494 233 757 l27 133 214 256 c573
682 1093 1337 1719 2164 256 339 625 832 737 983 72 99 161 220 701 947 92
124 320 430 507 680 602 807 975 1313 1181 1605 135 192 175 245 182 245 3 0
3 -19 0 -42z m-5869 -1267 c-8 -23 -154 -200 -165 -201 -17 0 -283 140 -283
150 0 8 59 17 275 44 135 17 178 19 173 7z m-433 -166 c99 -52 185 -95 192
-95 6 0 14 -4 17 -9 3 -5 -68 -101 -158 -214 -90 -112 -170 -215 -179 -228
l-16 -23 -48 26 c-26 14 -191 101 -366 193 -174 92 -319 171 -322 175 -12 19
140 100 305 162 95 36 343 106 380 107 8 1 96 -42 195 -94z m-915 -261 c25
-15 191 -103 370 -196 179 -93 328 -173 332 -177 6 -5 -230 -311 -406 -525
l-32 -40 -45 25 c-145 82 -344 199 -403 237 l-69 44 6 151 c6 173 26 263 82
362 46 82 93 145 108 145 6 0 32 -12 57 -26z m-78 -843 c84 -49 180 -104 213
-123 33 -19 60 -41 59 -49 -1 -8 -49 -75 -109 -149 -59 -74 -124 -159 -144
-187 -20 -29 -39 -53 -43 -53 -15 0 -82 269 -114 457 -23 140 -29 193 -20 193
3 0 74 -40 158 -89z m6195 -319 c26 -16 86 -49 133 -74 47 -26 202 -110 345
-187 285 -155 963 -497 1200 -606 83 -38 251 -115 375 -173 124 -57 279 -128
345 -157 66 -29 161 -72 210 -95 50 -23 115 -52 145 -65 47 -20 226 -102 520
-238 326 -150 889 -434 920 -463 21 -20 4 -18 -98 11 -250 71 -738 145 -952
145 l-72 0 -351 171 c-737 359 -898 436 -1932 924 -242 114 -566 268 -720 342
-154 75 -300 144 -324 154 -29 13 -41 24 -38 34 12 29 222 304 234 305 7 0 34
-13 60 -28z m-146 -461 c246 -119 914 -437 1359 -646 191 -90 882 -423 1285
-619 176 -85 318 -159 316 -163 -2 -5 -76 -15 -165 -24 -290 -29 -516 -74
-711 -140 l-90 -30 -500 242 c-275 133 -558 270 -630 304 -71 34 -249 121
-395 192 -146 71 -362 176 -480 233 -118 58 -293 143 -388 190 l-173 85 178
237 c98 131 181 238 184 238 4 0 98 -45 210 -99z m-355 -582 c148 -72 379
-185 514 -251 295 -146 510 -250 940 -455 179 -86 428 -207 554 -270 l230
-115 -42 -35 c-122 -101 -178 -284 -153 -505 6 -51 8 -94 6 -96 -5 -5 -241
101 -555 248 -107 51 -296 138 -420 195 -327 149 -841 392 -1175 555 -93 45
-266 129 -384 186 l-213 104 24 32 c161 217 402 538 403 538 1 0 123 -59 271
-131z m-51 -856 c94 -45 213 -102 265 -126 52 -25 178 -84 280 -132 272 -128
463 -217 668 -311 379 -174 552 -254 722 -334 96 -45 180 -84 185 -86 6 -3 27
-75 48 -162 41 -164 129 -444 204 -646 24 -65 42 -123 41 -127 -6 -17 -838
350 -1583 699 -288 135 -1664 820 -1852 922 l-113 61 220 293 220 293 263
-132 c144 -72 339 -168 432 -212z m4075 -162 c693 -94 1264 -317 1665 -651
493 -411 1035 -1248 1220 -1886 91 -314 114 -638 60 -859 -93 -382 -466 -630
-1093 -726 -178 -27 -529 -37 -680 -19 -498 57 -1005 282 -1417 626 -347 291
-676 665 -904 1029 -311 495 -662 1448 -706 1915 -8 84 9 201 39 265 45 99
109 142 298 199 192 58 437 106 663 130 22 2 189 2 370 1 266 -3 360 -7 485
-24z m-5078 -252 c416 -219 1427 -724 1793 -894 39 -18 149 -70 245 -115 96
-45 213 -99 260 -120 47 -21 177 -79 290 -130 218 -98 615 -272 792 -347 l107
-45 32 -77 c112 -269 344 -671 517 -894 25 -31 43 -59 40 -62 -5 -5 -66 19
-478 187 -403 165 -921 391 -1360 593 -80 37 -192 89 -250 115 -131 59 -616
289 -850 403 -474 230 -648 316 -1180 582 -316 158 -579 291 -584 295 -11 11
425 600 444 600 5 0 87 -41 182 -91z m1043 -1444 c121 -59 288 -139 370 -177
83 -39 227 -107 320 -150 279 -131 795 -367 1040 -475 232 -102 640 -277 755
-323 118 -47 508 -207 613 -251 72 -31 85 -42 202 -165 219 -232 456 -432 700
-592 71 -47 124 -87 117 -90 -34 -11 -1159 374 -1542 528 -58 23 -157 62 -220
85 -202 76 -800 324 -985 408 -55 25 -210 95 -345 155 -267 119 -433 196 -725
335 -361 171 -400 189 -460 217 -157 72 -261 122 -830 397 -906 438 -1065 516
-1065 527 0 8 164 232 273 373 l48 62 757 -379 c416 -208 856 -427 977 -485z
m-4550 706 c327 -42 566 -92 656 -137 180 -90 219 -329 133 -804 -85 -466
-259 -933 -461 -1240 -190 -287 -406 -477 -731 -643 -461 -235 -1018 -389
-1682 -464 -221 -25 -788 -25 -983 0 -438 55 -661 134 -818 287 -94 93 -150
200 -180 342 -35 174 -24 354 37 608 56 229 116 353 270 562 312 420 694 736
1209 999 462 237 1096 422 1690 493 72 9 146 18 165 20 94 11 542 -3 695 -23z"/>
<path d="M10187 14711 c-273 -284 -706 -856 -673 -888 23 -22 558 620 731 878
36 53 65 99 65 102 0 24 -40 -6 -123 -92z"/>
<path d="M11414 13042 c-329 -390 -794 -1010 -794 -1059 0 -43 56 11 226 218
298 362 684 891 684 936 0 31 -31 6 -116 -95z"/>
<path d="M9029 10483 c-319 -331 -850 -1036 -811 -1075 13 -13 28 3 157 157
360 431 755 947 755 985 0 25 -32 4 -101 -67z"/>
<path d="M5164 10053 c-208 -230 -513 -634 -599 -795 -48 -89 -51 -98 -34 -98
15 0 54 44 192 215 101 125 167 213 372 490 96 129 175 248 175 262 0 30 -32
8 -106 -74z"/>
<path d="M12042 10189 c22 -66 984 -548 1046 -524 15 6 13 10 -11 31 -107 92
-874 474 -1007 500 -25 6 -32 4 -28 -7z"/>
<path d="M14515 9024 c-378 -40 -727 -150 -856 -271 -56 -52 -73 -106 -59
-188 16 -98 230 -696 375 -1050 240 -585 527 -1015 893 -1336 364 -319 757
-515 1234 -613 364 -75 803 -76 1084 -1 108 28 270 98 340 145 183 125 254
274 254 535 0 490 -275 1156 -683 1652 -44 54 -142 159 -217 234 -505 500
-1080 789 -1741 874 -118 16 -536 28 -624 19z m590 -278 c256 -37 424 -80 640
-166 247 -98 489 -239 708 -413 133 -105 363 -335 467 -467 361 -456 600
-1041 600 -1469 0 -157 -8 -183 -83 -256 -121 -117 -315 -182 -617 -205 -227
-17 -546 14 -790 76 -420 108 -779 314 -1096 629 -386 384 -621 824 -979 1834
-102 288 -100 263 -23 302 135 68 310 118 502 144 130 18 517 12 671 -9z"/>
<path d="M16114 7368 c-10 -15 4 -24 179 -116 297 -157 770 -361 806 -347 12
5 12 9 -5 24 -72 71 -596 322 -864 415 -118 41 -107 39 -116 24z"/>
<path d="M15960 6852 c0 -16 34 -39 140 -96 311 -169 1073 -497 1097 -473 3 3
2 11 -2 17 -39 63 -785 413 -1137 534 -82 28 -98 31 -98 18z"/>
<path d="M9995 8450 c-15 -24 420 -272 683 -389 212 -95 300 -119 256 -70 -45
50 -496 289 -773 410 -138 61 -156 66 -166 49z"/>
<path d="M9610 8090 c0 -25 306 -203 599 -350 327 -163 511 -215 329 -92 -192
129 -842 452 -909 452 -11 0 -19 -5 -19 -10z"/>
<path d="M12676 6521 c-15 -24 169 -127 459 -259 197 -89 538 -213 551 -200
19 20 -23 48 -198 133 -269 130 -519 237 -701 301 -110 38 -104 37 -111 25z"/>
<path d="M5705 8049 c-533 -41 -1095 -198 -1534 -430 -347 -184 -654 -424
-929 -729 -371 -410 -537 -783 -502 -1123 24 -231 122 -362 327 -437 164 -59
271 -72 641 -77 422 -6 685 12 1052 73 1055 175 1779 726 2094 1596 116 321
195 726 166 848 -22 92 -113 146 -342 204 -290 74 -636 100 -973 75z m630
-273 c127 -17 214 -35 338 -73 l87 -26 0 -42 c0 -58 -24 -197 -61 -343 -85
-343 -232 -651 -426 -892 -80 -100 -247 -259 -353 -338 -488 -365 -1207 -554
-2110 -555 -536 -1 -731 46 -797 192 -27 57 -24 244 5 344 138 481 710 1064
1357 1381 393 193 880 323 1370 366 130 11 450 4 590 -14z"/>
<path d="M5127 6833 c-79 -87 -202 -225 -272 -308 -70 -82 -148 -175 -173
-205 -435 -509 -586 -711 -474 -631 81 58 436 447 693 761 190 232 399 511
399 532 0 28 -44 -10 -173 -149z"/>
<path d="M5359 6423 c-294 -298 -539 -597 -512 -624 14 -14 314 284 481 479
126 147 272 336 272 353 0 28 -45 -11 -241 -208z"/>
</g>
</svg>
