<?xml version="1.0" standalone="no"?>
<!DOCTYPE svg PUBLIC "-//W3C//DTD SVG 20010904//EN"
 "http://www.w3.org/TR/2001/REC-SVG-20010904/DTD/svg10.dtd">
<svg version="1.0" xmlns="http://www.w3.org/2000/svg"
 width="1024.000000pt" height="1024.000000pt" viewBox="0 0 1024.000000 1024.000000"
 preserveAspectRatio="xMidYMid meet">
<metadata>
Created by potrace 1.16, written by Peter Selinger 2001-2019
</metadata>
<g transform="translate(0.000000,1024.000000) scale(0.100000,-0.100000)"
fill="#000000" stroke="none">
<path d="M4998 7560 c-269 -26 -520 -103 -749 -232 -386 -217 -688 -584 -830
-1008 -79 -236 -111 -492 -90 -718 12 -127 39 -273 66 -366 8 -27 15 -55 15
-61 0 -8 -26 -14 -69 -18 -88 -7 -154 -40 -214 -107 -54 -60 -77 -121 -77
-205 0 -90 24 -148 86 -210 50 -51 136 -95 183 -95 28 0 35 -13 80 -155 166
-511 538 -1630 558 -1675 29 -67 56 -97 108 -121 38 -18 90 -19 1078 -19 1008
0 1039 1 1076 19 86 44 80 30 351 848 138 417 275 834 305 927 l53 169 53 14
c65 17 107 42 152 93 63 69 72 94 72 205 0 116 -14 154 -80 221 -52 51 -119
84 -190 91 -34 4 -55 10 -55 18 0 7 9 41 19 76 47 154 65 286 65 479 1 206
-11 309 -55 478 -185 720 -792 1250 -1534 1341 -125 15 -282 20 -377 11z m492
-203 c564 -123 1018 -519 1210 -1057 121 -338 126 -691 16 -1053 l-27 -87
-1543 0 -1543 0 -31 103 c-52 172 -64 250 -69 437 -4 150 -2 194 17 305 121
714 676 1262 1389 1371 141 21 439 12 581 -19z m1469 -2385 c98 -49 107 -186
16 -242 -32 -20 -45 -20 -1845 -20 l-1813 0 -34 21 c-98 61 -77 216 33 249 16
4 835 9 1819 9 1685 1 1792 0 1824 -17z m-224 -479 c-8 -21 -140 -422 -295
-890 -250 -759 -283 -853 -303 -858 -12 -3 -469 -4 -1016 -3 l-994 3 -189 565
c-230 689 -398 1199 -398 1211 0 5 672 9 1604 9 l1604 0 -13 -37z"/>
<path d="M4395 6111 c-100 -25 -166 -125 -150 -225 17 -101 94 -166 195 -166
150 0 247 159 177 291 -40 75 -142 121 -222 100z"/>
<path d="M5755 6111 c-87 -21 -141 -82 -152 -168 -10 -90 37 -176 116 -209
149 -63 309 75 270 232 -16 64 -78 126 -141 142 -51 13 -50 13 -93 3z"/>
<path d="M4912 5768 c-18 -18 -14 -97 7 -143 62 -138 266 -168 368 -55 29 32
62 109 63 145 0 31 -29 67 -52 63 -25 -4 -35 -20 -43 -71 -8 -50 -57 -105
-102 -113 -80 -15 -151 33 -160 108 -9 66 -48 99 -81 66z"/>
<path d="M3868 5717 c-26 -8 -54 -19 -62 -27 -20 -16 -21 -74 -1 -94 38 -37
177 -49 215 -18 31 25 38 90 13 121 -24 29 -96 37 -165 18z"/>
<path d="M6223 5721 c-45 -20 -58 -91 -24 -132 17 -22 27 -24 99 -24 102 0
137 21 137 81 0 35 -4 41 -36 56 -42 21 -145 32 -176 19z"/>
<path d="M4490 4223 c-47 -49 -147 -153 -221 -232 l-136 -144 -92 96 c-52 53
-102 99 -113 103 -23 7 -58 -21 -58 -46 0 -9 43 -61 95 -116 52 -54 95 -103
95 -108 0 -5 -18 -28 -40 -52 -41 -45 -49 -71 -28 -92 22 -22 54 -12 93 28 21
22 45 40 51 40 13 0 376 -372 383 -391 2 -6 -46 -61 -106 -123 -61 -61 -113
-119 -116 -128 -9 -27 25 -62 54 -55 13 3 70 56 127 117 57 60 109 110 116
110 6 0 65 -54 131 -120 65 -66 127 -120 136 -120 24 0 53 44 42 64 -4 8 -58
68 -120 133 -70 75 -109 124 -104 132 12 19 383 391 391 391 3 0 96 -90 205
-201 l198 -200 -128 -129 c-114 -114 -127 -131 -121 -154 4 -17 15 -28 32 -32
23 -6 40 7 148 115 67 66 127 121 134 121 7 0 67 -56 134 -125 121 -124 148
-141 176 -113 30 30 12 58 -110 184 -68 69 -123 130 -123 135 0 10 385 399
396 399 4 0 45 -40 92 -90 83 -88 109 -104 135 -78 25 25 13 63 -34 108 -25
25 -63 66 -85 91 l-39 47 165 163 c91 90 168 174 171 187 7 26 -19 62 -44 62
-9 0 -93 -77 -187 -171 l-172 -170 -120 123 c-65 68 -157 164 -203 213 -105
113 -107 115 -144 115 -26 0 -62 -32 -256 -225 l-226 -225 -75 77 c-335 350
-358 373 -386 373 -21 0 -46 -20 -113 -87z m505 -433 c0 -5 -90 -100 -200
-211 l-200 -201 -192 197 c-106 109 -193 201 -193 206 0 7 143 161 307 330
l83 86 197 -199 c109 -109 198 -203 198 -208z m677 283 c68 -71 157 -163 198
-206 l73 -79 -199 -199 c-109 -110 -204 -198 -211 -197 -6 2 -98 92 -203 201
l-192 197 198 204 c110 112 202 204 206 205 3 0 62 -56 130 -126z"/>
</g>
</svg>
