<?xml version="1.0" standalone="no"?>
<!DOCTYPE svg PUBLIC "-//W3C//DTD SVG 20010904//EN"
 "http://www.w3.org/TR/2001/REC-SVG-20010904/DTD/svg10.dtd">
<svg version="1.0" xmlns="http://www.w3.org/2000/svg"
 width="1024.000000pt" height="1024.000000pt" viewBox="0 0 1024.000000 1024.000000"
 preserveAspectRatio="xMidYMid meet">
<metadata>
Created by potrace 1.16, written by Peter Selinger 2001-2019
</metadata>
<g transform="translate(0.000000,1024.000000) scale(0.100000,-0.100000)"
fill="#000000" stroke="none">
<path d="M4545 7539 c-389 -16 -762 -53 -993 -100 -218 -44 -338 -106 -358
-185 -11 -45 346 -3324 377 -3454 43 -188 109 -341 213 -501 36 -54 70 -118
76 -142 5 -23 16 -121 25 -217 23 -252 31 -262 221 -305 469 -106 1265 -123
1844 -39 145 21 310 61 347 84 53 32 64 68 84 264 10 100 21 197 24 216 4 19
38 83 76 143 112 171 180 334 219 520 10 51 31 198 45 327 14 129 43 393 65
585 35 307 117 1065 235 2178 35 322 36 340 19 365 -64 103 -276 166 -719 216
-444 50 -1201 69 -1800 45z m1355 -169 c495 -31 962 -101 977 -147 13 -38
-393 -105 -827 -138 -952 -71 -2188 -18 -2608 112 -29 9 -51 21 -49 27 14 43
420 108 842 136 453 30 1268 35 1665 10z m-2276 -380 c627 -113 1897 -132
2700 -41 89 11 162 18 164 16 1 -1 -9 -92 -22 -201 -75 -593 -143 -1272 -246
-2459 -34 -384 -95 -615 -194 -731 -96 -113 -314 -160 -786 -171 -441 -10
-759 26 -910 102 -96 49 -163 151 -215 329 -63 221 -68 285 -152 2299 -5 134
-9 162 -25 183 -25 30 -85 33 -119 5 -29 -23 -30 54 16 -991 35 -776 50 -1083
60 -1195 29 -313 133 -603 256 -708 150 -129 452 -187 975 -187 460 0 764 45
919 135 114 67 195 199 259 421 44 152 61 268 86 584 63 789 237 2459 268
2584 7 27 14 30 97 51 50 12 100 25 113 29 20 7 22 4 22 -28 0 -19 -11 -137
-25 -263 -13 -125 -54 -502 -90 -838 -108 -1008 -215 -1966 -226 -2028 -27
-153 -116 -364 -216 -513 -58 -86 -93 -163 -93 -204 0 -11 -4 -20 -9 -20 -5 0
-62 -9 -127 -20 -259 -44 -483 -62 -871 -67 -469 -7 -773 13 -1088 70 l-120
22 -6 40 c-9 58 -22 85 -84 177 -133 194 -208 395 -234 628 -155 1393 -331
3033 -325 3041 2 4 34 -2 71 -12 37 -10 117 -28 177 -39z m546 -4025 c260 -44
579 -67 945 -68 385 0 705 23 995 72 58 10 107 17 109 15 2 -2 0 -39 -5 -81
-9 -76 -10 -78 -44 -95 -135 -66 -823 -119 -1285 -98 -354 15 -700 57 -789 94
-37 15 -39 22 -51 130 -7 58 -6 59 17 52 12 -3 61 -12 108 -21z"/>
<path d="M5049 6531 c-63 -63 -19 -176 70 -176 99 0 146 111 76 181 -37 36
-107 34 -146 -5z"/>
<path d="M5796 6044 c-86 -89 -107 -259 -45 -378 85 -166 331 -242 331 -103 0
49 -13 63 -87 96 -81 37 -108 75 -113 156 -3 55 0 65 32 115 41 63 44 87 15
124 -32 41 -88 37 -133 -10z"/>
<path d="M4544 5874 c-84 -90 -149 -264 -174 -464 -13 -109 -13 -515 0 -751
13 -214 19 -232 88 -237 31 -2 46 2 63 19 21 21 22 27 15 163 -34 753 -6 999
132 1159 31 35 42 57 42 81 0 45 -35 76 -85 76 -33 0 -45 -7 -81 -46z"/>
<path d="M5121 4916 c-13 -7 -30 -24 -37 -37 -47 -84 39 -184 129 -150 30 12
67 65 67 98 0 79 -88 128 -159 89z"/>
<path d="M5275 4205 c-34 -34 -33 -80 2 -108 73 -59 136 -132 164 -192 17 -35
38 -70 46 -77 22 -18 79 -15 102 6 38 35 37 71 -7 160 -94 188 -234 285 -307
211z"/>
</g>
</svg>
