<?xml version="1.0" standalone="no"?>
<!DOCTYPE svg PUBLIC "-//W3C//DTD SVG 20010904//EN"
 "http://www.w3.org/TR/2001/REC-SVG-20010904/DTD/svg10.dtd">
<svg version="1.0" xmlns="http://www.w3.org/2000/svg"
 width="1024.000000pt" height="1024.000000pt" viewBox="0 0 1024.000000 1024.000000"
 preserveAspectRatio="xMidYMid meet">
<metadata>
Created by potrace 1.16, written by Peter Selinger 2001-2019
</metadata>
<g transform="translate(0.000000,1024.000000) scale(0.100000,-0.100000)"
fill="#000000" stroke="none">
<path d="M4015 7710 c-101 -12 -129 -31 -133 -89 -4 -57 27 -150 104 -306 139
-284 330 -485 556 -589 40 -18 84 -38 97 -43 20 -8 6 -12 -74 -22 -313 -38
-558 -161 -775 -387 -133 -139 -255 -338 -323 -529 -89 -251 -117 -576 -71
-845 91 -535 446 -946 1017 -1176 167 -67 274 -98 457 -131 l145 -26 45 -49
c54 -58 136 -98 202 -98 71 0 162 51 204 115 51 78 55 80 175 120 390 129 708
321 900 542 195 224 317 496 370 828 22 133 17 410 -9 542 -36 180 -101 354
-186 497 -107 181 -235 317 -406 431 -219 146 -456 214 -758 216 l-147 1 110
23 c125 25 177 43 255 87 143 80 253 198 335 361 57 112 115 293 122 378 5 63
4 69 -22 95 -27 27 -27 27 -133 21 -205 -11 -441 -74 -587 -158 -102 -58 -193
-143 -255 -236 l-49 -76 -11 28 c-6 15 -34 61 -62 102 -125 180 -347 306 -625
353 -134 23 -356 32 -468 20z m505 -193 c137 -36 199 -62 282 -116 182 -119
278 -302 278 -533 l0 -81 -122 6 c-68 3 -152 13 -188 22 -94 25 -221 87 -303
147 -127 94 -279 300 -371 502 -20 43 -36 81 -36 84 0 2 82 2 183 -1 151 -4
198 -9 277 -30z m1524 -34 c-11 -50 -76 -207 -112 -273 -20 -37 -68 -98 -111
-141 -89 -89 -177 -137 -311 -168 -91 -22 -259 -41 -265 -31 -8 12 34 158 63
221 97 212 281 340 577 399 50 10 107 19 128 19 36 1 37 0 31 -26z m-234 -957
c254 -59 435 -159 597 -329 166 -175 274 -387 330 -647 28 -130 25 -448 -5
-586 -44 -204 -140 -431 -240 -567 -189 -258 -494 -451 -947 -601 -148 -49
-169 -63 -190 -125 -19 -58 -45 -81 -91 -81 -35 0 -89 38 -99 70 -11 34 -67
58 -170 75 -690 110 -1188 459 -1379 967 -55 148 -71 255 -71 478 1 173 4 220
23 303 65 293 181 516 362 697 183 184 379 281 646 320 38 5 175 15 304 21
129 5 278 14 330 19 146 13 522 5 600 -14z"/>
<path d="M5522 6345 c-27 -22 -32 -34 -32 -70 0 -32 6 -48 26 -69 48 -47 133
-26 154 38 21 65 -9 114 -77 123 -32 4 -45 0 -71 -22z"/>
<path d="M5844 6141 c-57 -24 -73 -117 -30 -168 20 -23 32 -28 70 -28 58 0 95
33 103 92 4 34 1 45 -23 72 -31 34 -83 48 -120 32z"/>
<path d="M4332 5346 c-35 -33 -37 -38 -37 -96 0 -58 2 -63 37 -96 32 -28 45
-34 84 -34 64 0 108 29 130 86 14 37 15 51 5 84 -18 59 -61 90 -127 90 -48 0
-59 -4 -92 -34z"/>
<path d="M5744 5346 c-50 -22 -74 -61 -74 -121 0 -61 20 -93 74 -119 69 -33
137 -8 168 62 35 77 3 158 -70 180 -49 15 -59 15 -98 -2z"/>
<path d="M4806 5209 c-26 -21 -28 -26 -24 -83 18 -249 316 -389 524 -245 87
60 154 170 154 253 0 77 -86 110 -136 52 -13 -15 -24 -34 -24 -42 0 -23 -35
-86 -62 -111 -103 -96 -249 -47 -298 102 -23 70 -33 82 -76 91 -21 4 -37 0
-58 -17z"/>
</g>
</svg>
