<?xml version="1.0" standalone="no"?>
<!DOCTYPE svg PUBLIC "-//W3C//DTD SVG 20010904//EN"
 "http://www.w3.org/TR/2001/REC-SVG-20010904/DTD/svg10.dtd">
<svg version="1.0" xmlns="http://www.w3.org/2000/svg"
 width="1024.000000pt" height="1024.000000pt" viewBox="0 0 1024.000000 1024.000000"
 preserveAspectRatio="xMidYMid meet">
<metadata>
Created by potrace 1.16, written by Peter Selinger 2001-2019
</metadata>
<g transform="translate(0.000000,1024.000000) scale(0.100000,-0.100000)"
fill="#000000" stroke="none">
<path d="M5057 6752 c-15 -16 -17 -49 -16 -268 1 -300 8 -411 29 -424 30 -19
79 -11 96 16 16 23 17 55 11 341 -6 275 -9 318 -23 335 -22 23 -76 24 -97 0z"/>
<path d="M5609 6541 c-22 -18 -23 -26 -36 -286 -12 -242 -12 -270 2 -292 14
-20 23 -24 58 -21 31 2 44 9 53 25 6 13 17 143 24 290 l13 266 -23 19 c-29 23
-62 23 -91 -1z"/>
<path d="M4484 6525 c-21 -21 -25 -32 -20 -63 3 -20 13 -140 21 -267 14 -211
17 -231 36 -247 28 -24 72 -23 95 3 18 20 18 27 1 285 -10 145 -20 271 -23
278 -6 15 -47 36 -70 36 -8 0 -26 -11 -40 -25z"/>
<path d="M6345 5698 c-71 -5 -701 -11 -1400 -12 l-1270 -3 -67 -25 c-142 -53
-248 -141 -284 -233 l-17 -45 -69 0 c-113 0 -168 -36 -168 -110 0 -46 37 -103
101 -155 27 -22 49 -43 49 -47 0 -3 -24 -20 -52 -36 -70 -39 -107 -81 -115
-125 -11 -72 48 -117 154 -117 l58 0 23 -62 c12 -35 23 -67 25 -73 1 -6 -44
-12 -113 -16 -135 -7 -182 -18 -238 -59 -70 -51 -109 -128 -115 -229 l-3 -55
-44 -11 c-57 -15 -79 -27 -109 -59 -31 -33 -33 -94 -5 -133 26 -35 106 -81
157 -89 20 -4 37 -10 37 -15 0 -4 -20 -22 -45 -40 -103 -74 -133 -183 -66
-237 10 -8 39 -11 79 -10 l62 3 24 -52 c32 -68 94 -127 164 -155 l57 -23 1495
0 c1023 0 1645 -4 1970 -14 365 -10 485 -11 518 -2 59 17 103 58 111 106 6 35
10 39 53 52 57 16 104 61 120 114 24 83 -28 214 -108 268 l-34 23 36 44 c67
81 94 208 60 287 -21 52 -70 87 -120 87 -43 0 -44 1 -50 38 -14 90 -85 144
-198 150 l-67 4 14 29 c8 15 15 35 15 43 0 9 15 19 38 25 106 29 152 152 98
266 -23 51 -78 108 -115 120 -22 7 -28 29 -11 40 6 4 23 30 37 58 36 68 40
192 8 246 -31 52 -78 74 -146 67 l-57 -5 -6 41 c-5 30 -18 53 -49 83 -66 66
-122 73 -422 53z m322 -144 c30 -19 38 -57 24 -104 -12 -41 -32 -62 -39 -42
-2 7 -28 46 -57 86 -29 41 -50 77 -47 81 10 10 94 -5 119 -21z m-2874 -55
c127 -115 214 -279 244 -458 15 -85 15 -110 5 -171 -12 -70 -44 -147 -85 -202
l-21 -28 -122 0 -123 0 35 58 c58 96 76 168 81 332 4 124 2 158 -16 232 -24
102 -67 193 -110 234 -17 16 -31 32 -31 36 0 6 45 23 71 27 3 1 36 -26 72 -60z
m409 28 c54 -67 115 -169 140 -233 78 -201 73 -448 -13 -616 l-19 -38 -105 0
-104 0 29 64 c98 215 39 545 -137 778 -28 37 -50 68 -48 70 2 2 57 2 122 0
107 -3 120 -5 135 -25z m2229 -42 c78 -87 137 -196 175 -320 25 -82 27 -105
28 -250 0 -133 -3 -170 -20 -220 l-20 -60 -153 -3 c-144 -2 -153 -1 -146 15
119 292 89 602 -80 839 l-45 63 37 4 c21 2 65 4 98 5 l60 1 66 -74z m-384 -9
c127 -135 184 -285 184 -476 0 -120 -24 -230 -68 -313 l-28 -52 -835 4 c-459
2 -836 4 -837 5 0 0 13 42 29 91 53 159 51 386 -6 553 -24 70 -70 166 -105
217 l-21 30 748 5 c411 3 775 6 809 8 l61 2 69 -74z m-2481 -58 c69 -61 114
-200 114 -354 0 -189 -57 -330 -152 -380 -58 -30 -113 32 -138 157 -6 32 -20
65 -31 75 -17 16 -26 16 -81 6 -34 -6 -64 -9 -66 -7 -6 6 116 63 143 67 16 2
21 -4 26 -41 3 -26 13 -49 24 -57 27 -20 69 -17 90 6 16 17 16 27 6 98 -13 85
-5 165 26 271 15 54 15 55 -7 73 -12 10 -28 19 -36 19 -30 3 -34 4 -34 12 0 4
0 11 0 16 0 13 56 71 69 71 6 0 27 -15 47 -32z m3342 -20 c22 -22 14 -90 -18
-145 -31 -54 -65 -79 -114 -85 -25 -3 -29 2 -42 40 l-15 43 43 57 c42 55 99
102 122 102 7 0 17 -5 24 -12z m-3586 -155 l66 -6 -5 -36 c-3 -20 -9 -40 -14
-45 -5 -5 -40 12 -83 40 -76 49 -96 72 -53 60 12 -4 52 -9 89 -13z m3587 -228
c81 -41 112 -102 77 -150 -24 -33 -74 -24 -147 24 -62 41 -64 44 -69 92 -3 28
-4 52 -1 55 14 13 97 1 140 -21z m-99 -267 c39 -29 38 -42 -7 -73 -52 -34 -63
-33 -53 8 4 17 11 44 14 60 8 33 9 33 46 5z m-3042 -276 c37 -44 120 -221 146
-313 38 -133 51 -271 38 -382 -7 -50 -17 -109 -22 -129 l-11 -37 -227 -3
c-125 -2 -232 -2 -238 0 -8 2 -3 18 12 46 44 78 57 156 52 311 -4 124 -8 151
-37 235 -31 94 -102 225 -148 274 -12 14 -23 28 -23 32 0 3 98 3 218 -1 l217
-7 23 -26z m-605 -15 l48 -42 -41 -80 c-55 -109 -78 -242 -61 -359 13 -96 53
-184 94 -206 24 -13 30 -13 55 0 37 21 39 58 7 125 -24 48 -27 66 -27 152 1
99 31 233 52 233 16 0 60 -97 81 -178 23 -92 25 -234 4 -316 -40 -153 -167
-220 -270 -142 -44 34 -60 65 -74 141 -6 32 -17 62 -24 67 -20 13 -66 9 -92
-8 -14 -9 -25 -12 -25 -6 0 5 32 27 72 47 98 52 118 73 118 128 0 58 -17 72
-121 96 -46 11 -97 25 -112 30 -44 17 -22 32 36 25 45 -5 55 -3 72 16 16 18
19 37 20 108 1 65 6 97 20 127 20 40 75 85 104 85 9 0 38 -19 64 -43z m2568
-14 c148 -162 218 -334 219 -534 0 -99 -10 -162 -39 -239 l-21 -55 -915 0
-916 0 6 23 c12 47 24 169 25 237 0 167 -55 391 -135 543 l-44 82 884 0 883 0
53 -57z m1051 16 c43 -51 105 -177 130 -265 19 -68 23 -102 23 -244 0 -167 -9
-229 -50 -326 l-15 -36 -202 6 c-112 3 -300 9 -419 12 l-215 6 18 53 c42 127
44 322 3 480 -21 81 -95 230 -144 293 -23 28 -41 53 -41 54 0 2 199 2 443 1
l442 -1 27 -33z m268 31 c11 -6 25 -28 31 -49 11 -38 10 -41 -26 -86 l-39 -46
-27 61 c-16 33 -37 73 -48 89 -12 16 -21 32 -21 35 0 10 110 7 130 -4z m206
-192 c14 -22 4 -81 -21 -124 -31 -53 -74 -84 -124 -91 l-38 -5 -7 51 c-7 50
-6 52 36 93 81 78 136 105 154 76z m-43 -385 c86 -60 113 -139 57 -168 -28
-14 -33 -14 -63 0 -17 9 -56 37 -85 63 l-54 48 7 48 8 48 44 -5 c27 -3 62 -16
86 -34z m-123 -254 c42 -53 33 -74 -31 -74 -34 0 -43 3 -40 15 2 8 9 34 15 58
6 23 13 42 17 42 3 0 21 -19 39 -41z"/>
<path d="M4757 5176 c-21 -21 -30 -116 -17 -166 17 -64 92 -82 121 -28 17 31
17 171 0 192 -17 20 -84 21 -104 2z"/>
<path d="M5780 5170 c-17 -17 -20 -33 -20 -100 0 -73 2 -83 26 -106 29 -30 67
-27 97 9 27 31 21 182 -7 203 -28 20 -73 17 -96 -6z"/>
<path d="M5105 4915 c-31 -30 -31 -47 -2 -80 58 -66 244 -90 361 -45 32 12 67
31 77 41 28 28 25 75 -7 95 -24 17 -29 16 -93 -4 -84 -27 -155 -28 -228 -2
-73 25 -79 25 -108 -5z"/>
<path d="M4383 4134 c-23 -23 -25 -31 -21 -99 4 -84 23 -115 70 -115 51 0 68
29 68 120 0 67 -3 83 -20 100 -27 27 -66 25 -97 -6z"/>
<path d="M5363 4134 c-23 -23 -25 -31 -21 -99 4 -84 23 -115 70 -115 51 0 68
29 68 119 0 74 -2 81 -26 100 -35 28 -59 26 -91 -5z"/>
<path d="M4726 3918 c-9 -12 -16 -31 -16 -41 0 -51 126 -117 224 -117 72 0
151 27 192 66 39 36 43 65 14 94 -25 25 -64 26 -98 1 -63 -44 -133 -44 -205 0
-44 26 -92 25 -111 -3z"/>
</g>
</svg>
