<?xml version="1.0" standalone="no"?>
<!DOCTYPE svg PUBLIC "-//W3C//DTD SVG 20010904//EN"
 "http://www.w3.org/TR/2001/REC-SVG-20010904/DTD/svg10.dtd">
<svg version="1.0" xmlns="http://www.w3.org/2000/svg"
 width="1024.000000pt" height="1024.000000pt" viewBox="0 0 1024.000000 1024.000000"
 preserveAspectRatio="xMidYMid meet">
<metadata>
Created by potrace 1.16, written by Peter Selinger 2001-2019
</metadata>
<g transform="translate(0.000000,1024.000000) scale(0.100000,-0.100000)"
fill="#000000" stroke="none">
<path d="M4194 7920 c-31 -12 -94 -88 -123 -149 -23 -50 -26 -68 -26 -166 0
-107 1 -112 37 -185 21 -41 67 -115 103 -163 80 -109 100 -168 92 -276 -7
-112 -31 -172 -126 -311 -46 -69 -99 -157 -117 -197 -108 -237 -76 -515 82
-707 79 -96 134 -116 169 -62 20 30 12 49 -43 111 -131 147 -174 334 -122 524
26 94 38 115 121 232 147 205 195 381 154 558 -18 76 -52 137 -140 256 -76
102 -101 169 -91 252 7 61 36 130 72 168 41 44 47 63 30 89 -17 27 -43 36 -72
26z"/>
<path d="M5100 7778 c-66 -70 -110 -189 -117 -318 -7 -125 11 -206 81 -370 70
-162 86 -223 86 -330 0 -152 -35 -249 -155 -435 -32 -49 -71 -118 -87 -152
-101 -224 -113 -480 -29 -658 22 -48 36 -66 55 -71 38 -9 59 -1 75 27 14 25
13 31 -12 86 -40 89 -50 154 -44 273 8 163 42 255 173 467 122 196 161 325
151 497 -7 115 -29 195 -93 337 -56 126 -74 198 -74 301 0 100 16 160 64 238
42 67 45 93 14 114 -31 22 -64 20 -88 -6z"/>
<path d="M5749 7538 c-37 -41 -82 -135 -99 -207 -8 -33 -11 -90 -8 -150 6
-113 30 -183 112 -329 77 -137 91 -185 91 -312 0 -128 -16 -168 -116 -303
-119 -160 -163 -274 -163 -427 0 -100 9 -131 45 -151 29 -15 66 -3 75 24 4 12
6 58 5 103 -4 114 33 223 109 329 150 208 175 271 175 440 -1 134 -23 207
-115 371 -75 135 -94 195 -94 299 1 88 27 172 68 223 40 47 46 66 33 93 -9 18
-22 25 -50 27 -31 3 -42 -2 -68 -30z"/>
<path d="M4635 5143 c-478 -14 -916 -82 -1165 -180 -79 -31 -224 -124 -240
-152 -6 -11 -20 -56 -32 -98 -21 -75 -22 -102 -25 -673 -5 -721 1 -791 88
-1060 103 -315 317 -608 579 -792 121 -85 347 -202 430 -224 83 -21 682 -31
970 -16 l195 10 150 75 c165 83 261 146 385 252 189 161 351 398 439 643 19
51 36 92 40 92 3 0 31 -7 61 -15 82 -23 272 -30 382 -15 375 50 666 290 754
620 27 101 25 284 -5 380 -75 243 -247 411 -491 477 -88 24 -290 24 -378 -1
-81 -22 -167 -60 -210 -92 -18 -14 -35 -24 -37 -22 -2 2 -6 64 -9 138 -3 90
-11 166 -26 227 -19 81 -26 96 -59 126 -119 108 -339 183 -704 242 -191 30
-324 43 -602 55 -207 9 -271 10 -490 3z m482 -133 c370 -16 644 -50 879 -110
130 -33 260 -89 295 -126 21 -22 21 -25 5 -48 -63 -97 -414 -185 -921 -233
-222 -20 -788 -23 -1010 -4 -503 42 -924 146 -975 241 -15 28 22 63 103 100
188 85 507 145 907 170 163 10 236 13 415 18 39 1 174 -3 302 -8z m1267 -446
c3 -26 6 -287 6 -580 0 -575 -6 -666 -54 -857 -69 -271 -189 -481 -385 -678
-174 -173 -381 -301 -565 -348 -75 -20 -108 -21 -541 -21 -526 0 -541 2 -710
84 -414 203 -700 572 -801 1037 l-27 124 -4 585 c-4 565 -1 690 17 690 5 0 35
-15 67 -34 301 -177 1267 -273 2023 -201 432 41 827 136 930 223 14 12 28 21
31 22 4 0 9 -21 13 -46z m708 -219 c105 -22 190 -68 275 -148 151 -143 206
-343 153 -551 -24 -96 -65 -174 -136 -259 -140 -169 -341 -262 -588 -274 -80
-4 -117 -3 -113 4 4 6 34 13 68 17 118 14 275 72 380 142 79 52 194 171 233
239 127 227 101 489 -66 656 -100 100 -219 148 -388 158 l-115 7 55 11 c79 15
165 15 242 -2z m-63 -164 c156 -49 255 -156 283 -310 24 -129 -34 -283 -151
-399 -147 -146 -333 -217 -548 -210 -56 2 -104 6 -107 9 -3 3 -1 43 4 90 5 46
10 222 10 390 l0 307 35 31 c112 98 323 139 474 92z"/>
</g>
</svg>
