<?xml version="1.0" standalone="no"?>
<!DOCTYPE svg PUBLIC "-//W3C//DTD SVG 20010904//EN"
 "http://www.w3.org/TR/2001/REC-SVG-20010904/DTD/svg10.dtd">
<svg version="1.0" xmlns="http://www.w3.org/2000/svg"
 width="1024.000000pt" height="1024.000000pt" viewBox="0 0 1024.000000 1024.000000"
 preserveAspectRatio="xMidYMid meet">
<metadata>
Created by potrace 1.16, written by Peter Selinger 2001-2019
</metadata>
<g transform="translate(0.000000,1024.000000) scale(0.100000,-0.100000)"
fill="#000000" stroke="none">
<path d="M5655 7328 c-80 -41 -164 -99 -241 -164 -35 -30 -66 -54 -68 -54 -3
0 -15 18 -25 39 -62 120 -239 176 -406 127 -169 -49 -314 -187 -442 -420 l-38
-70 -115 -28 c-538 -130 -1055 -510 -1266 -930 -68 -136 -87 -219 -82 -358 5
-121 0 -105 98 -375 63 -171 53 -263 -55 -552 -96 -255 -103 -335 -45 -557 57
-223 97 -300 176 -339 54 -27 184 -46 369 -51 235 -8 427 -25 1020 -91 464
-51 742 -78 1130 -107 102 -8 348 -13 615 -13 458 0 626 11 798 50 132 31 156
61 206 255 75 295 95 527 103 1175 6 532 -1 672 -36 765 -47 123 -250 335
-506 527 -293 220 -641 409 -958 518 l-105 37 -21 57 c-25 69 -85 141 -148
178 -32 19 -63 27 -114 31 -45 3 -68 9 -66 16 7 23 155 137 253 196 56 33 105
67 108 76 11 29 6 54 -14 74 -28 28 -55 25 -125 -12z m-514 -188 c104 -54 102
-154 -7 -313 -40 -57 -42 -75 -13 -111 32 -41 65 -35 122 25 54 57 132 97 204
105 66 8 127 -25 168 -91 28 -45 30 -56 30 -141 0 -83 -2 -95 -24 -118 -49
-52 -162 -87 -396 -125 -267 -43 -644 -77 -719 -66 -81 13 -78 3 -46 123 87
325 206 536 370 657 101 74 228 97 311 55z m-771 -512 c0 -2 -16 -65 -35 -141
-52 -207 -47 -245 38 -289 96 -50 460 -31 917 48 348 59 450 117 491 277 6 26
13 47 14 47 2 0 65 -25 140 -55 343 -138 640 -312 925 -544 128 -104 284 -258
328 -326 65 -99 65 -93 59 -749 -4 -449 -9 -627 -21 -741 -17 -158 -62 -394
-96 -507 l-20 -66 -48 -11 c-163 -37 -415 -54 -792 -54 -503 2 -986 36 -1727
123 -409 49 -750 79 -1002 90 -257 12 -314 20 -348 52 -44 41 -123 319 -123
433 0 83 -2 76 100 356 98 272 99 382 8 629 -81 222 -92 296 -62 414 39 152
135 304 297 473 193 200 430 359 691 463 110 43 266 89 266 78z"/>
<path d="M3875 6201 c-35 -22 -157 -146 -174 -178 -25 -47 22 -112 71 -99 13
3 48 29 78 58 136 130 161 191 93 227 -29 15 -33 14 -68 -8z"/>
<path d="M6052 6147 c-32 -34 -30 -89 4 -116 56 -44 134 -8 134 62 0 69 -90
105 -138 54z"/>
<path d="M5629 6101 c-18 -14 -24 -29 -24 -61 0 -50 29 -80 77 -80 42 0 64 15
77 50 27 79 -65 144 -130 91z"/>
<path d="M4900 5743 c-56 -6 -333 -51 -480 -77 -168 -30 -385 -52 -645 -66
-326 -17 -365 -27 -365 -96 0 -56 28 -66 141 -55 52 6 191 15 309 21 265 14
400 29 645 74 329 60 408 70 595 70 186 1 217 -3 455 -60 298 -71 566 -108
965 -134 91 -6 218 -17 284 -26 104 -13 121 -13 141 0 44 29 40 97 -8 115 -37
14 -180 30 -469 51 -429 32 -541 47 -858 121 -261 61 -324 69 -510 67 -91 0
-181 -3 -200 -5z"/>
<path d="M5296 5147 c-9 -7 -34 -46 -54 -87 -29 -60 -45 -80 -77 -97 -74 -42
-143 -24 -201 53 -54 69 -63 75 -102 72 -50 -4 -69 -41 -51 -96 19 -57 113
-145 178 -167 77 -25 183 -17 244 18 74 44 136 133 152 219 9 48 0 72 -31 86
-31 15 -36 15 -58 -1z"/>
<path d="M6240 5119 c-113 -22 -213 -102 -235 -187 -30 -113 28 -201 161 -247
72 -25 213 -22 286 5 66 24 145 90 164 137 30 71 9 168 -48 219 -73 67 -207
97 -328 73z m197 -149 c122 -53 52 -157 -113 -168 -77 -5 -127 7 -168 39 -34
26 -33 59 2 91 72 67 178 82 279 38z"/>
<path d="M3920 5102 c-137 -45 -200 -118 -200 -230 0 -86 36 -139 126 -183 66
-33 73 -34 189 -34 116 0 122 1 188 33 188 92 195 304 13 397 -52 26 -70 30
-160 32 -76 2 -114 -1 -156 -15z m261 -138 c77 -45 69 -113 -18 -155 -100 -50
-280 -22 -312 47 -19 43 26 92 112 120 59 19 175 13 218 -12z"/>
<path d="M3670 4378 c-35 -5 -72 -16 -82 -25 -24 -21 -23 -75 1 -97 17 -16 31
-16 143 -7 150 12 242 3 438 -44 345 -81 538 -96 1100 -87 167 3 198 1 314
-23 118 -24 145 -25 350 -23 l221 3 100 -33 c117 -39 261 -61 302 -46 38 13
57 54 42 88 -14 30 -55 46 -119 46 -26 0 -110 18 -186 40 -151 45 -193 48
-469 40 -112 -3 -143 0 -225 21 -93 23 -103 24 -437 21 -469 -4 -642 11 -958
83 -242 56 -373 66 -535 43z"/>
<path d="M2813 6969 c-41 -20 -91 -68 -124 -119 l-16 -25 -45 41 c-54 50 -72
60 -126 72 -97 22 -194 -25 -238 -115 -95 -194 24 -509 296 -785 140 -142 155
-138 294 70 122 183 219 404 246 562 25 141 -23 266 -117 306 -47 20 -121 17
-170 -7z m132 -134 c21 -20 25 -34 25 -83 0 -124 -84 -338 -211 -540 -35 -56
-69 -100 -75 -99 -19 4 -129 132 -187 219 -128 191 -168 378 -96 454 65 69
163 -14 219 -185 21 -64 29 -77 53 -86 21 -7 35 -6 55 6 25 13 28 23 38 107
14 109 44 177 93 209 43 29 56 29 86 -2z"/>
<path d="M2636 3739 c-192 -82 -336 -199 -375 -303 -69 -184 34 -326 319 -443
661 -271 2224 -361 3510 -202 602 74 1152 195 1452 319 255 105 378 223 378
364 0 67 -37 143 -93 192 -54 46 -139 94 -166 94 -30 0 -61 -35 -61 -70 0 -25
8 -36 47 -63 78 -53 131 -107 138 -137 9 -41 -25 -98 -84 -143 -297 -227
-1323 -431 -2444 -488 -440 -22 -1185 -3 -1587 41 -547 60 -1004 173 -1184
293 -193 127 -135 252 194 419 83 42 106 59 113 81 7 20 5 34 -7 52 -22 34
-63 32 -150 -6z"/>
</g>
</svg>
