<?xml version="1.0" standalone="no"?>
<!DOCTYPE svg PUBLIC "-//W3C//DTD SVG 20010904//EN"
 "http://www.w3.org/TR/2001/REC-SVG-20010904/DTD/svg10.dtd">
<svg version="1.0" xmlns="http://www.w3.org/2000/svg"
 width="1024.000000pt" height="1024.000000pt" viewBox="0 0 1024.000000 1024.000000"
 preserveAspectRatio="xMidYMid meet">
<metadata>
Created by potrace 1.16, written by Peter Selinger 2001-2019
</metadata>
<g transform="translate(0.000000,1024.000000) scale(0.100000,-0.100000)"
fill="#000000" stroke="none">
<path d="M4845 7323 c-213 -7 -473 -32 -660 -64 -336 -56 -579 -161 -654 -282
-27 -44 -41 -167 -41 -365 0 -533 151 -1010 428 -1352 24 -30 84 -93 133 -140
l90 -85 -70 -71 c-97 -99 -121 -182 -84 -290 66 -193 428 -316 979 -331 396
-10 705 35 922 137 156 73 220 147 230 265 4 58 1 72 -26 128 -23 46 -47 76
-91 112 -34 28 -61 52 -60 55 0 3 18 19 40 37 72 58 200 206 271 314 l69 106
102 6 c167 10 347 68 475 156 98 66 203 187 255 293 59 119 76 187 84 323 14
269 -90 482 -282 576 -65 32 -77 34 -170 34 -81 0 -109 -4 -146 -21 l-46 -22
-11 60 c-14 77 -44 115 -138 177 -201 132 -597 215 -1139 241 -199 9 -271 10
-460 3z m597 -133 c167 -12 377 -40 533 -71 216 -44 435 -138 435 -188 0 -50
-138 -122 -327 -171 -570 -148 -1601 -140 -2137 15 -160 47 -282 119 -274 162
4 23 91 75 188 112 186 71 422 112 835 144 102 9 609 6 747 -3z m-1658 -490
c150 -60 411 -116 686 -146 200 -21 700 -30 930 -15 294 19 561 58 738 106
134 37 275 98 301 129 31 37 34 16 28 -196 -7 -290 -39 -478 -123 -719 -149
-432 -436 -758 -794 -902 -187 -75 -351 -102 -565 -94 -508 19 -918 293 -1155
772 -38 77 -85 189 -105 248 -46 141 -91 369 -104 530 -12 141 -15 360 -5 370
4 3 26 -7 50 -23 23 -17 76 -44 118 -60z m3113 40 c181 -79 270 -364 192 -616
-73 -236 -237 -393 -485 -465 -94 -27 -220 -38 -212 -18 50 121 43 113 121
137 138 43 273 151 340 274 55 101 72 161 72 268 0 86 -3 101 -30 155 -23 45
-41 66 -76 88 -55 34 -127 39 -178 14 -19 -9 -36 -15 -40 -13 -3 2 -4 35 -1
72 5 65 7 69 39 88 82 48 173 53 258 16z m-146 -280 c50 -27 66 -145 35 -252
-35 -123 -169 -268 -268 -293 l-24 -6 28 111 c15 62 36 171 47 242 10 72 23
133 27 137 43 31 111 71 122 71 7 0 22 -5 33 -10z m-844 -1562 c109 -86 118
-167 27 -247 -183 -161 -804 -233 -1332 -155 -181 27 -357 87 -439 150 -60 46
-79 114 -48 173 14 28 122 131 137 131 4 0 52 -23 107 -50 122 -62 271 -113
411 -141 138 -27 371 -29 515 -4 139 24 322 85 440 148 55 30 105 51 110 49 6
-3 38 -27 72 -54z"/>
</g>
</svg>
