<?xml version="1.0" standalone="no"?>
<!DOCTYPE svg PUBLIC "-//W3C//DTD SVG 20010904//EN"
 "http://www.w3.org/TR/2001/REC-SVG-20010904/DTD/svg10.dtd">
<svg version="1.0" xmlns="http://www.w3.org/2000/svg"
 width="1024.000000pt" height="1024.000000pt" viewBox="0 0 1024.000000 1024.000000"
 preserveAspectRatio="xMidYMid meet">
<metadata>
Created by potrace 1.16, written by Peter Selinger 2001-2019
</metadata>
<g transform="translate(0.000000,1024.000000) scale(0.100000,-0.100000)"
fill="#000000" stroke="none">
<path d="M4900 7279 c-487 -29 -973 -240 -1334 -579 -301 -282 -520 -676 -598
-1071 l-23 -117 -116 -56 c-455 -222 -761 -575 -860 -991 -100 -424 32 -812
365 -1068 107 -83 161 -117 278 -172 264 -125 595 -195 922 -195 288 0 542 41
860 139 54 17 101 29 105 27 20 -13 280 -57 394 -67 144 -13 359 -3 515 25 72
12 76 12 185 -21 471 -143 957 -145 1412 -8 691 210 1195 726 1331 1365 63
297 36 624 -75 879 -82 192 -172 323 -325 477 -196 196 -416 336 -708 453
-127 50 -291 101 -395 121 -51 10 -62 17 -83 48 -36 53 -233 255 -320 327
-410 341 -968 518 -1530 484z m410 -193 c431 -58 822 -250 1130 -556 183 -181
298 -346 398 -567 171 -380 208 -828 102 -1228 -86 -325 -232 -583 -470 -829
-292 -303 -649 -492 -1065 -566 -407 -72 -799 -24 -1174 144 -220 99 -397 222
-577 401 -265 263 -429 568 -512 955 -25 116 -26 142 -26 365 0 223 1 249 26
365 85 394 265 723 541 986 311 297 692 476 1133 533 109 14 379 12 494 -3z
m1830 -949 c479 -184 844 -522 979 -909 50 -143 65 -244 65 -418 -1 -222 -40
-395 -138 -605 -254 -542 -808 -908 -1495 -986 -156 -17 -457 -7 -598 21 -62
12 -110 26 -107 31 3 5 11 9 18 9 8 0 71 29 142 64 141 70 298 169 414 263 79
64 258 241 309 307 26 32 45 43 116 67 164 55 334 157 454 273 379 366 358
878 -48 1181 l-86 65 -24 117 c-31 157 -90 333 -156 472 -30 62 -55 115 -55
116 0 4 140 -40 210 -68z m-4216 -989 c7 -149 27 -309 50 -397 l13 -51 -36
-22 c-58 -36 -141 -119 -183 -183 -117 -180 -99 -390 46 -522 128 -117 355
-193 578 -193 l100 0 72 -68 c156 -149 306 -255 493 -350 62 -31 113 -60 113
-63 0 -9 -184 -47 -320 -65 -140 -20 -459 -22 -580 -5 -401 57 -720 196 -915
397 -229 236 -292 548 -179 889 95 289 340 562 655 734 41 23 77 41 80 41 3 0
9 -64 13 -142z m4380 -33 c105 -159 110 -341 15 -535 -35 -70 -59 -102 -138
-181 -56 -55 -125 -113 -166 -137 -38 -23 -70 -40 -72 -38 -1 1 22 58 53 125
122 270 183 543 184 816 l0 89 46 -44 c25 -25 60 -67 78 -95z m-4219 -720 c51
-123 94 -203 174 -325 31 -47 57 -88 59 -92 11 -25 -173 15 -266 57 -114 52
-182 135 -182 222 0 57 50 151 111 208 28 26 52 45 54 43 2 -2 24 -53 50 -113z"/>
<path d="M4815 6563 c-244 -43 -495 -170 -677 -341 -250 -236 -391 -564 -391
-907 1 -330 123 -625 357 -859 176 -177 414 -301 679 -357 135 -29 371 -31
500 -5 277 54 495 167 691 356 410 397 492 1004 202 1498 -190 323 -527 552
-905 616 -117 20 -345 19 -456 -1z m373 -169 c28 -4 52 -10 52 -15 0 -4 -17
-13 -37 -20 -71 -23 -228 -107 -318 -170 -104 -74 -269 -234 -340 -331 l-49
-68 -120 0 c-67 0 -170 -7 -230 -15 -61 -8 -112 -13 -114 -10 -2 2 10 30 28
62 162 289 456 496 790 557 81 15 253 20 338 10z m421 -143 c67 -35 195 -136
269 -215 59 -62 182 -230 182 -248 0 -2 -57 -5 -127 -5 -357 -2 -651 -159
-791 -422 -60 -113 -84 -211 -85 -346 -1 -232 88 -444 263 -629 47 -49 68 -77
59 -80 -149 -48 -365 -60 -535 -31 -106 18 -131 26 -251 72 l-92 36 -25 66
c-61 161 -80 287 -73 483 8 213 46 374 132 553 188 393 526 672 930 769 82 19
100 19 144 -3z m-1232 -658 c-3 -10 -22 -56 -41 -103 -48 -117 -84 -245 -104
-371 l-16 -106 -120 -6 c-66 -4 -121 -5 -122 -4 -2 1 -12 48 -23 104 -24 114
-27 300 -8 393 l12 55 82 17 c78 17 221 34 307 37 32 1 37 -2 33 -16z m1753
-9 c5 -5 17 -62 26 -125 26 -187 -2 -374 -83 -550 -20 -44 -39 -79 -43 -79 -3
0 -7 30 -8 68 -4 134 -32 236 -104 374 -34 66 -63 104 -145 186 -63 62 -98
104 -91 107 7 3 42 12 78 20 76 17 352 17 370 -1z m-563 -190 c122 -87 222
-232 257 -375 31 -126 16 -288 -39 -419 -39 -93 -67 -129 -134 -171 l-59 -38
-69 58 c-325 274 -379 713 -119 960 64 59 56 60 163 -15z m-1341 -674 c7 -58
15 -113 19 -122 13 -33 -9 -18 -57 35 -51 59 -128 166 -128 178 0 8 79 17 130
15 24 -1 25 -5 36 -106z"/>
</g>
</svg>
