<?xml version="1.0" standalone="no"?>
<!DOCTYPE svg PUBLIC "-//W3C//DTD SVG 20010904//EN"
 "http://www.w3.org/TR/2001/REC-SVG-20010904/DTD/svg10.dtd">
<svg version="1.0" xmlns="http://www.w3.org/2000/svg"
 width="1024.000000pt" height="1024.000000pt" viewBox="0 0 1024.000000 1024.000000"
 preserveAspectRatio="xMidYMid meet">
<metadata>
Created by potrace 1.16, written by Peter Selinger 2001-2019
</metadata>
<g transform="translate(0.000000,1024.000000) scale(0.100000,-0.100000)"
fill="#000000" stroke="none">
<path d="M4660 5843 c-484 -17 -844 -56 -1070 -114 -334 -86 -524 -237 -611
-486 -29 -82 -36 -228 -15 -317 60 -254 272 -419 616 -480 522 -93 1965 -109
2805 -31 386 36 556 93 709 236 118 110 176 246 176 413 0 105 -17 179 -62
274 -43 90 -173 220 -281 281 -232 130 -596 192 -1307 221 -210 9 -763 10
-960 3z m774 -130 c107 -56 220 -173 279 -288 25 -50 56 -129 68 -175 11 -47
26 -91 31 -97 16 -19 53 -16 73 7 18 19 17 23 -9 122 -44 170 -118 302 -221
396 -30 28 -55 54 -55 57 0 7 107 2 345 -16 221 -16 318 -30 354 -51 137 -78
246 -239 290 -429 11 -45 25 -85 33 -90 19 -13 42 -11 63 5 15 11 17 22 12 62
-15 128 -94 306 -175 396 -19 21 -32 41 -30 44 7 7 156 -31 243 -62 277 -99
435 -293 435 -534 0 -229 -165 -416 -430 -489 -202 -56 -685 -89 -1450 -98
-867 -10 -1537 26 -1798 97 -285 78 -435 247 -435 490 0 252 160 439 462 541
l84 29 42 -25 c105 -61 218 -225 265 -385 13 -41 27 -81 33 -87 12 -16 59 -17
75 -1 18 18 15 39 -23 156 -40 126 -103 233 -182 314 -40 40 -52 59 -42 62 28
10 336 45 490 57 l155 11 61 -30 c175 -87 299 -237 359 -437 23 -77 31 -87 67
-83 47 5 54 27 34 105 -38 148 -156 335 -255 408 -23 17 -42 33 -42 37 0 9
130 13 474 16 l248 2 72 -37z"/>
</g>
</svg>
