<?xml version="1.0" encoding="UTF-8" standalone="no"?>
<!DOCTYPE svg PUBLIC "-//W3C//DTD SVG 1.1//EN" "http://www.w3.org/Graphics/SVG/1.1/DTD/svg11.dtd">
<svg width="100%" height="100%" viewBox="0 0 1024 1024" version="1.1" xmlns="http://www.w3.org/2000/svg" xmlns:xlink="http://www.w3.org/1999/xlink" xml:space="preserve" xmlns:serif="http://www.serif.com/" style="fill-rule:evenodd;clip-rule:evenodd;stroke-linejoin:round;stroke-miterlimit:2;">
    <g transform="matrix(0.1,0,0,-0.1,0,1024)">
        <path d="M4807,6854C4722,6834 4647,6794 4579,6732L4518,6677L4492,6694C4286,6828 4022,6834 3814,6709C3727,6656 3632,6549 3581,6447C3539,6362 3536,6359 3511,6367C3497,6371 3445,6375 3395,6375C3318,6374 3298,6371 3254,6348C3146,6291 3089,6196 3082,6058L3078,5972L2971,5977C2838,5983 2745,5965 2635,5911C2403,5796 2270,5580 2267,5313L2267,5220L2230,5220C2173,5220 2045,5184 1977,5148C1890,5103 1781,4991 1740,4905C1723,4868 1702,4802 1694,4758C1660,4561 1740,4381 1905,4285C1919,4276 1912,4269 1860,4235C1741,4159 1687,4055 1686,3905C1685,3828 1689,3807 1712,3758C1770,3633 1885,3553 2023,3543C2063,3540 2112,3542 2133,3548C2170,3558 2171,3558 2189,3522C2216,3471 2286,3405 2340,3381C2385,3360 2392,3360 5155,3360C6987,3360 7937,3364 7961,3370C7981,3376 8013,3391 8031,3403C8050,3416 8085,3434 8110,3444C8307,3522 8481,3735 8526,3955C8548,4059 8540,4217 8510,4310C8455,4475 8356,4608 8220,4699C8173,4730 8119,4762 8100,4770C8081,4777 8064,4784 8063,4785C8061,4786 8071,4815 8085,4849C8171,5061 8151,5299 8032,5481C7925,5644 7748,5743 7539,5757L7453,5763L7442,5869C7429,5993 7411,6064 7369,6167C7280,6380 7103,6531 6890,6576C6751,6605 6577,6583 6440,6518C6398,6497 6375,6491 6372,6499C6370,6505 6348,6538 6323,6571C6224,6702 6051,6790 5890,6790C5752,6790 5597,6725 5496,6626L5431,6562L5404,6601C5361,6664 5250,6762 5183,6798C5108,6837 4985,6870 4916,6869C4888,6869 4839,6862 4807,6854ZM5031,6680C5110,6656 5195,6593 5255,6515C5280,6484 5300,6455 5300,6451C5300,6448 5227,6447 5138,6449C4520,6462 3876,6301 3366,6006C3299,5968 3264,5952 3257,5959C3251,5965 3246,6001 3246,6039C3245,6095 3249,6114 3266,6137C3323,6214 3409,6231 3508,6185C3613,6136 3658,6155 3690,6263C3722,6366 3755,6426 3818,6492C3918,6597 4013,6635 4164,6628C4244,6625 4265,6620 4330,6588C4371,6569 4429,6532 4458,6506C4537,6438 4582,6445 4634,6534C4715,6672 4872,6730 5031,6680ZM6045,6586C6121,6548 6200,6466 6245,6377C6265,6338 6288,6299 6297,6293C6325,6271 6372,6278 6420,6311C6535,6389 6632,6420 6758,6420C7050,6420 7254,6183 7277,5818C7284,5704 7281,5701 7211,5759C6835,6071 6237,6322 5668,6406C5603,6416 5550,6427 5550,6431C5550,6449 5659,6549 5700,6570C5778,6610 5821,6620 5906,6617C5971,6614 5999,6608 6045,6586ZM5456,6265C6098,6197 6668,5976 7116,5619C7237,5522 7453,5306 7535,5200C7750,4919 7894,4628 7965,4326C8004,4161 8013,4073 8008,3892C8004,3755 7999,3712 7980,3655C7950,3560 7929,3533 7883,3527C7862,3525 7842,3525 7839,3529C7835,3532 7839,3571 7847,3615C7865,3713 7859,3961 7835,4095C7724,4725 7310,5301 6698,5677C6311,5916 5895,6054 5413,6105C5253,6122 4908,6125 4759,6110C4238,6058 3745,5865 3375,5569C2931,5214 2635,4737 2528,4207C2497,4056 2495,3703 2523,3601C2533,3566 2538,3535 2535,3531C2531,3528 2502,3525 2469,3525C2397,3526 2365,3547 2329,3618C2281,3715 2265,3815 2265,4025C2265,4246 2283,4356 2356,4578C2643,5456 3542,6113 4650,6254C4825,6276 4828,6276 5083,6278C5229,6279 5363,6275 5456,6265ZM5440,5935C5975,5870 6495,5656 6886,5340C7062,5197 7260,4977 7379,4790C7539,4541 7647,4251 7680,3986C7697,3855 7689,3630 7665,3573C7656,3549 7645,3530 7641,3530L2743,3530C2683,3531 2649,3872 2685,4112C2784,4770 3248,5376 3901,5699C4179,5837 4505,5922 4858,5950C4999,5961 5284,5954 5440,5935ZM3033,5801C3049,5795 3039,5785 2978,5740C2868,5658 2655,5440 2550,5302C2489,5222 2454,5184 2449,5192C2434,5220 2429,5328 2440,5395C2470,5584 2615,5744 2801,5794C2858,5809 3002,5814 3033,5801ZM7623,5575C7762,5539 7866,5453 7926,5325C7956,5264 7963,5235 7967,5168C7972,5086 7961,5004 7937,4946L7925,4918L7860,5025C7768,5180 7671,5311 7542,5454C7481,5522 7430,5581 7430,5584C7430,5596 7568,5589 7623,5575ZM2356,5042C2364,5037 2349,4997 2309,4915C2241,4776 2182,4615 2150,4483C2132,4407 2124,4390 2109,4390C2069,4390 1979,4433 1940,4471C1879,4530 1856,4588 1856,4682C1856,4747 1861,4768 1888,4823C1937,4921 2040,5005 2148,5035C2199,5049 2338,5054 2356,5042ZM8121,4565C8224,4489 8305,4386 8342,4283C8372,4202 8378,4044 8355,3964C8329,3872 8275,3779 8214,3719C8160,3667 8158,3666 8164,3695C8178,3761 8182,4028 8171,4130C8157,4248 8119,4431 8090,4516C8060,4601 8064,4607 8121,4565ZM2093,3968C2096,3878 2103,3787 2109,3765C2121,3717 2113,3710 2050,3710C1971,3710 1886,3765 1861,3833C1834,3904 1858,4003 1915,4064C1949,4099 2014,4129 2056,4130L2087,4130L2093,3968Z" style="fill-rule:nonzero;"/>
        <path d="M3845,4437C3787,4409 3767,4389 3745,4337C3689,4202 3785,4055 3930,4055C4130,4055 4207,4320 4037,4424C3972,4464 3910,4468 3845,4437Z" style="fill-rule:nonzero;"/>
        <path d="M6216,4445C6085,4398 6040,4229 6132,4124C6213,4032 6338,4028 6425,4115C6506,4195 6506,4316 6426,4396C6366,4456 6295,4473 6216,4445Z" style="fill-rule:nonzero;"/>
        <path d="M4854,4343C4766,4326 4782,4185 4880,4096C4929,4052 4966,4035 5032,4025C5167,4005 5320,4128 5323,4261C5325,4303 5321,4315 5301,4331C5275,4353 5222,4356 5198,4338C5189,4331 5177,4306 5171,4283C5157,4231 5111,4190 5066,4190C5019,4190 4969,4227 4953,4275C4933,4334 4905,4353 4854,4343Z" style="fill-rule:nonzero;"/>
    </g>
</svg>
