<?xml version="1.0" standalone="no"?>
<!DOCTYPE svg PUBLIC "-//W3C//DTD SVG 20010904//EN"
 "http://www.w3.org/TR/2001/REC-SVG-20010904/DTD/svg10.dtd">
<svg version="1.0" xmlns="http://www.w3.org/2000/svg"
 width="2048.000000pt" height="2048.000000pt" viewBox="0 0 2048.000000 2048.000000"
 preserveAspectRatio="xMidYMid meet">
<metadata>
Created by potrace 1.16, written by Peter Selinger 2001-2019
</metadata>
<g transform="translate(0.000000,2048.000000) scale(0.100000,-0.100000)"
fill="#000000" stroke="none">
<path d="M13003 18454 c-344 -75 -673 -373 -949 -859 -472 -833 -877 -2163
-1109 -3645 -77 -491 -103 -693 -144 -1115 -82 -848 -106 -1342 -106 -2160 1
-418 5 -596 21 -865 48 -794 121 -1000 409 -1143 92 -46 211 -85 425 -142 196
-52 302 -95 330 -136 72 -101 78 -436 14 -909 -49 -369 -110 -712 -279 -1577
-126 -638 -163 -847 -204 -1128 -142 -979 -91 -1604 168 -2052 208 -360 522
-594 920 -684 111 -25 362 -36 491 -21 401 48 768 283 1013 650 163 245 275
589 307 942 24 269 7 696 -45 1120 -29 240 -36 283 -121 825 -160 1013 -216
1499 -264 2300 -32 544 -41 1621 -20 2545 5 245 14 654 20 910 5 256 12 555
15 665 3 110 10 398 15 640 13 610 25 1068 35 1395 3 85 7 234 10 330 3 96 10
299 15 450 10 271 15 426 25 750 6 174 12 363 20 570 23 614 24 1268 1 1470
-31 276 -87 444 -203 608 -87 123 -256 230 -420 266 -88 20 -301 20 -390 0z
m300 -529 c99 -41 156 -159 189 -390 25 -174 17 -1080 -17 -1960 -8 -209 -17
-459 -20 -555 -3 -96 -8 -229 -10 -295 -3 -66 -10 -273 -15 -460 -5 -187 -12
-421 -15 -520 -6 -200 -22 -845 -30 -1230 -16 -759 -25 -1168 -30 -1400 -3
-143 -8 -325 -10 -405 -13 -343 -26 -1386 -21 -1620 3 -140 8 -374 11 -520 6
-281 7 -307 30 -745 39 -713 101 -1318 200 -1952 215 -1384 225 -1457 232
-1853 6 -305 -7 -461 -52 -639 -91 -362 -284 -623 -558 -756 -274 -133 -568
-123 -821 27 -93 55 -225 184 -292 283 -157 237 -217 494 -217 930 1 435 84
1013 308 2127 206 1031 268 1424 295 1887 17 284 -6 507 -71 684 -38 105 -76
162 -158 239 -108 102 -228 152 -576 244 -149 39 -255 81 -292 116 -66 62 -98
272 -135 888 -16 268 -16 1186 0 1505 32 635 97 1333 182 1957 158 1155 449
2324 784 3150 151 372 308 679 456 891 35 50 110 137 165 192 176 176 347 239
488 180z"/>
<path d="M12685 17218 c-39 -35 -195 -385 -320 -718 -290 -774 -538 -1774
-694 -2800 -75 -488 -163 -1279 -201 -1795 -50 -693 -55 -1716 -10 -2215 9
-94 12 -107 35 -127 34 -30 76 -29 105 2 l23 24 -11 178 c-7 98 -15 230 -19
293 -18 283 -3 1426 22 1640 2 19 7 82 10 140 26 446 130 1377 210 1890 159
1014 397 1967 677 2710 66 174 234 574 278 660 28 55 26 94 -6 119 -34 27 -67
27 -99 -1z"/>
<path d="M12468 6659 c-33 -19 -68 -221 -46 -266 17 -36 57 -50 96 -34 35 15
46 40 61 132 17 105 15 145 -11 163 -25 18 -74 20 -100 5z"/>
<path d="M12366 6128 c-27 -43 -187 -937 -235 -1313 -40 -317 -46 -409 -45
-705 0 -250 4 -316 22 -436 47 -301 99 -392 186 -323 32 26 34 62 6 162 -39
138 -52 254 -57 526 -10 464 32 804 217 1798 46 242 47 266 20 293 -29 29 -95
28 -114 -2z"/>
<path d="M13485 3960 c-39 -15 -46 -37 -55 -163 -34 -479 -274 -801 -620 -833
-59 -6 -74 -11 -90 -32 -38 -48 -14 -113 48 -129 15 -3 70 1 121 10 273 46
506 262 616 570 41 115 74 278 82 408 7 118 1 144 -37 164 -32 17 -37 17 -65
5z"/>
<path d="M8009 18117 c-108 -31 -204 -117 -259 -234 -110 -233 -152 -664 -185
-1893 -16 -604 -30 -937 -46 -1090 -18 -183 -58 -370 -79 -370 -15 0 -48 129
-65 253 -26 201 -37 574 -31 1007 4 223 9 450 12 505 13 214 9 1137 -4 1235
-53 378 -173 546 -398 558 -348 19 -523 -316 -658 -1258 -94 -659 -139 -1391
-140 -2280 -1 -602 15 -947 59 -1310 69 -564 226 -1003 482 -1348 76 -103 299
-323 402 -397 133 -96 129 -91 156 -187 85 -312 122 -913 95 -1573 -28 -700
-106 -1417 -301 -2765 -202 -1403 -271 -2060 -283 -2715 -15 -889 143 -1485
492 -1847 196 -204 419 -324 696 -375 124 -23 399 -23 516 0 499 99 851 433
1031 977 97 296 129 517 136 940 11 681 -79 1417 -372 3040 -307 1696 -397
2483 -382 3335 6 340 22 555 58 755 24 138 55 264 74 301 8 14 65 71 127 125
127 110 301 287 384 390 343 427 521 963 586 1774 15 188 18 1221 5 1610 -24
720 -104 1509 -198 1965 -36 173 -97 401 -129 480 -41 103 -103 207 -156 259
-91 89 -212 129 -325 108 -223 -41 -333 -203 -381 -562 -14 -100 -16 -714 -6
-1510 5 -373 -3 -921 -16 -1020 -3 -25 -8 -76 -11 -115 -15 -163 -52 -322 -80
-345 -46 -38 -98 233 -124 645 -10 155 -34 792 -46 1220 -18 686 -54 1097
-116 1340 -45 175 -132 300 -246 352 -69 31 -200 41 -274 20z m132 -394 c18
-45 47 -200 58 -308 28 -262 46 -628 66 -1305 26 -877 49 -1180 111 -1460 34
-151 65 -230 120 -312 81 -119 173 -170 309 -170 328 -2 479 344 506 1157 5
163 3 1302 -3 1655 -5 295 3 519 23 628 19 104 36 97 80 -34 75 -223 148 -721
199 -1349 23 -296 28 -356 35 -495 3 -58 8 -132 10 -165 22 -293 34 -1017 24
-1415 -25 -1006 -140 -1489 -456 -1918 -81 -109 -190 -220 -361 -365 -85 -71
-172 -153 -194 -181 -83 -105 -146 -269 -192 -501 -59 -300 -79 -558 -79
-1010 0 -587 38 -1080 139 -1800 46 -329 85 -563 259 -1560 205 -1168 302
-1855 335 -2370 13 -206 13 -633 0 -766 -32 -324 -104 -577 -218 -774 -71
-121 -202 -249 -317 -307 -310 -159 -692 -110 -934 118 -208 195 -321 471
-378 916 -24 190 -24 809 0 1113 31 388 62 676 128 1195 41 328 98 748 219
1615 139 998 191 1583 216 2420 5 182 -7 620 -21 755 -3 25 -10 92 -15 150
-29 287 -87 558 -149 686 -51 106 -78 135 -250 266 -80 61 -191 157 -247 212
-353 357 -511 862 -554 1772 -8 173 -5 1428 4 1529 3 28 7 127 11 220 13 358
58 930 101 1260 52 411 131 763 188 841 14 18 15 18 25 -9 38 -99 44 -551 23
-1537 -20 -880 -1 -1285 74 -1570 49 -187 122 -299 236 -361 60 -32 68 -34
163 -34 93 0 105 2 167 33 84 41 139 101 189 207 110 233 149 636 174 1795 3
135 7 297 10 360 3 63 7 185 10 270 15 399 47 708 87 840 29 95 49 113 69 63z"/>
<path d="M8975 13599 c-53 -13 -99 -45 -133 -93 -37 -54 -44 -163 -13 -223 79
-156 304 -161 391 -10 75 130 3 295 -142 326 -55 12 -49 12 -103 0z"/>
<path d="M7133 13579 c-79 -39 -123 -112 -123 -201 1 -127 94 -218 225 -218
131 0 225 94 225 222 -1 92 -52 169 -137 205 -50 20 -141 17 -190 -8z"/>
<path d="M7779 13169 c-49 -49 4 -181 105 -264 128 -105 358 -114 482 -20 77
59 136 144 149 217 6 31 3 41 -19 62 -30 31 -85 35 -109 8 -8 -9 -28 -42 -44
-72 -89 -171 -348 -159 -425 20 -10 25 -26 51 -35 58 -26 19 -80 15 -104 -9z"/>
<path d="M7765 6771 c-12 -5 -26 -15 -32 -23 -12 -14 -33 -154 -33 -220 0 -48
28 -78 73 -78 65 0 80 30 93 190 5 74 4 88 -12 107 -22 26 -60 36 -89 24z"/>
<path d="M7676 6158 c-25 -22 -27 -36 -65 -343 -80 -648 -98 -906 -99 -1365 0
-350 7 -491 33 -725 19 -168 30 -190 95 -190 34 0 47 5 62 26 19 25 19 30 4
140 -27 198 -36 384 -36 727 0 438 26 796 105 1438 14 111 25 217 25 236 0 68
-73 101 -124 56z"/>
<path d="M8799 4571 l-24 -19 0 -339 c-1 -278 -4 -359 -19 -453 -54 -343 -159
-574 -310 -688 -76 -58 -133 -82 -220 -93 -80 -11 -116 -38 -116 -87 1 -83
100 -102 255 -51 150 50 299 191 388 366 88 173 129 320 163 579 19 142 26
592 11 698 -14 94 -71 133 -128 87z"/>
</g>
</svg>
