<?xml version="1.0" standalone="no"?>
<!DOCTYPE svg PUBLIC "-//W3C//DTD SVG 20010904//EN"
 "http://www.w3.org/TR/2001/REC-SVG-20010904/DTD/svg10.dtd">
<svg version="1.0" xmlns="http://www.w3.org/2000/svg"
 width="1024.000000pt" height="1024.000000pt" viewBox="0 0 1024.000000 1024.000000"
 preserveAspectRatio="xMidYMid meet">
<metadata>
Created by potrace 1.16, written by Peter Selinger 2001-2019
</metadata>
<g transform="translate(0.000000,1024.000000) scale(0.100000,-0.100000)"
fill="#000000" stroke="none">
<path d="M4995 7437 c-16 -8 -56 -49 -89 -91 -35 -45 -112 -123 -190 -190
-263 -228 -351 -344 -422 -556 -26 -78 -28 -97 -29 -242 l0 -158 -29 -12 c-62
-25 -184 -114 -244 -177 -147 -153 -187 -343 -109 -514 23 -51 75 -115 109
-133 15 -8 15 -14 1 -74 -32 -129 -16 -337 32 -431 14 -26 13 -28 -26 -55
-148 -102 -199 -325 -111 -487 54 -100 174 -181 289 -194 24 -3 47 -11 52 -17
8 -9 94 -194 386 -826 143 -310 359 -770 392 -832 28 -54 42 -69 68 -78 36
-12 71 -3 97 26 23 26 239 496 633 1379 l152 340 34 3 c99 7 200 52 266 118
142 142 143 389 2 531 l-41 42 41 62 c63 95 86 180 85 319 0 77 -6 136 -18
180 -20 73 -74 195 -107 241 l-22 31 21 36 c72 131 68 310 -12 446 -52 89
-193 194 -327 245 -24 9 -26 15 -32 93 -13 187 -108 381 -253 518 -33 31 -131
110 -219 177 -100 76 -175 141 -200 174 -89 117 -118 133 -180 106z m85 -241
c53 -56 99 -94 245 -202 186 -137 288 -262 339 -416 14 -42 26 -95 26 -119 l0
-42 -47 6 c-197 25 -352 15 -541 -35 -76 -20 -158 -33 -237 -39 -138 -10 -278
-32 -368 -60 -34 -10 -66 -19 -71 -19 -5 0 -6 53 -4 118 4 98 10 130 35 198
58 155 133 251 338 429 143 125 225 207 225 225 0 17 7 12 60 -44z m630 -941
c108 -24 245 -92 303 -149 61 -59 98 -138 99 -210 1 -49 -17 -126 -29 -126 -3
0 -24 17 -48 38 -90 78 -274 159 -418 182 -96 16 -334 9 -362 -9 -11 -8 -34
-32 -50 -55 -42 -56 -121 -97 -199 -103 -79 -7 -130 8 -202 57 -66 45 -72 45
-165 26 -87 -19 -186 -59 -274 -110 -78 -45 -228 -189 -260 -249 -23 -44 -35
-46 -61 -9 -49 65 -56 148 -23 239 17 46 39 75 104 140 71 70 98 89 196 137
180 88 382 136 568 136 63 0 108 7 186 30 56 16 140 37 186 45 110 19 346 14
449 -10z m-146 -415 c168 -25 318 -100 436 -219 155 -156 222 -372 175 -556
-29 -111 -83 -167 -173 -179 -45 -6 -47 -5 -97 43 -103 100 -192 136 -335 135
-84 0 -107 -5 -200 -38 -75 -27 -128 -39 -186 -43 -76 -5 -85 -4 -170 32 -149
63 -196 77 -274 82 -144 10 -281 -42 -393 -147 -57 -53 -69 -60 -106 -60 -36
0 -44 4 -65 38 -92 140 -40 415 113 596 85 100 220 186 349 222 l59 16 40 -26
c172 -114 402 -93 553 50 30 29 66 54 80 57 45 8 124 7 194 -3z m-674 -948
c204 -88 301 -93 511 -21 109 36 132 41 190 37 90 -7 151 -38 226 -117 l62
-65 84 -1 c71 -1 90 -5 130 -28 130 -77 155 -229 55 -342 -72 -82 -9 -77
-1050 -79 l-923 -1 -48 24 c-79 39 -127 113 -127 196 0 137 138 250 281 231
l49 -7 76 71 c90 84 105 94 181 126 89 38 179 30 303 -24z m567 -803 c-14 -23
-30 -24 -47 -4 -17 21 -5 32 29 27 26 -4 29 -6 18 -23z m-753 -25 l39 -44 -99
-100 c-54 -55 -100 -100 -103 -100 -5 0 -105 219 -129 281 -2 5 54 9 125 8
l128 -1 39 -44z m557 -9 c89 -94 91 -78 -25 -194 l-103 -103 -104 117 c-57 65
-104 120 -104 124 0 4 20 31 45 59 l45 52 97 0 97 0 52 -55z m506 23 c-65
-155 -114 -258 -122 -257 -10 0 -117 122 -124 141 -2 5 27 41 65 79 l68 69 63
0 63 0 -13 -32z m-837 -288 c58 -67 105 -125 105 -131 0 -14 -188 -217 -202
-218 -6 -1 -19 9 -27 20 -8 12 -58 66 -112 120 l-97 99 50 53 c27 28 75 80
107 115 33 34 62 62 65 62 3 0 53 -54 111 -120z m650 -108 c0 -15 -180 -209
-197 -211 -11 -1 -150 152 -160 176 -3 7 39 60 94 118 l98 106 82 -88 c45 -48
83 -94 83 -101z m-371 -219 c45 -48 80 -91 79 -95 -2 -4 -43 -52 -93 -107
l-90 -99 -48 46 c-27 26 -66 68 -87 93 l-39 46 90 101 c50 56 94 102 99 102 5
0 45 -39 89 -87z m-300 -285 l103 -107 -32 -41 c-17 -22 -37 -40 -43 -40 -9 0
-109 203 -146 293 -8 21 19 -3 118 -105z m434 -46 l-68 -152 -42 42 c-24 23
-42 45 -41 49 6 14 209 221 213 217 3 -3 -25 -73 -62 -156z m-197 -204 c72
-76 70 -64 18 -185 -25 -59 -50 -112 -55 -117 -5 -6 -32 40 -64 108 l-55 118
52 58 c29 32 55 59 58 59 3 1 24 -18 46 -41z"/>
<path d="M5140 6942 c-63 -51 28 -202 122 -202 77 0 91 70 28 146 -62 75 -106
91 -150 56z"/>
</g>
</svg>
