<?xml version="1.0" standalone="no"?>
<!DOCTYPE svg PUBLIC "-//W3C//DTD SVG 20010904//EN"
 "http://www.w3.org/TR/2001/REC-SVG-20010904/DTD/svg10.dtd">
<svg version="1.0" xmlns="http://www.w3.org/2000/svg"
 width="1024.000000pt" height="1024.000000pt" viewBox="0 0 1024.000000 1024.000000"
 preserveAspectRatio="xMidYMid meet">
<metadata>
Created by potrace 1.16, written by Peter Selinger 2001-2019
</metadata>
<g transform="translate(0.000000,1024.000000) scale(0.100000,-0.100000)"
fill="#000000" stroke="none">
<path d="M5190 7323 c-98 -16 -213 -72 -380 -185 -198 -134 -339 -217 -617
-364 -452 -239 -664 -362 -1087 -626 -133 -83 -326 -203 -431 -266 -292 -176
-576 -368 -662 -448 l-42 -39 -20 -175 c-44 -374 -56 -679 -42 -1052 15 -374
58 -846 82 -889 12 -24 55 -34 224 -53 367 -42 744 -53 1225 -37 190 6 489 16
665 22 632 20 1587 11 2335 -21 652 -28 784 -31 988 -21 229 12 278 21 292 54
49 115 220 831 284 1192 68 386 100 643 112 900 l6 150 -81 115 c-194 275
-479 573 -811 846 -302 248 -546 392 -879 518 -94 36 -226 90 -293 119 -68 30
-185 82 -260 115 -287 128 -463 169 -608 145z m216 -163 c107 -25 163 -47 459
-178 138 -60 313 -133 390 -162 416 -153 781 -395 1184 -785 200 -194 471
-502 471 -535 0 -9 -23 -10 -87 -6 -203 15 -578 26 -863 26 -422 0 -654 -13
-1210 -69 -207 -21 -432 -42 -670 -63 -102 -9 -380 -13 -935 -13 -434 0 -954
-4 -1155 -9 -336 -8 -698 2 -763 20 -15 5 -11 11 20 36 70 56 297 204 508 333
116 70 264 162 330 203 473 297 666 408 1280 737 239 128 234 126 505 303 194
127 232 147 315 168 72 18 129 16 221 -6z m2344 -1813 l215 -12 -3 -60 c-22
-432 -167 -1232 -329 -1812 l-37 -132 -75 -7 c-102 -9 -719 1 -1141 20 -835
37 -1523 41 -2355 15 -843 -26 -1039 -29 -1272 -19 -250 11 -413 23 -549 41
l-82 11 -6 41 c-51 357 -75 1118 -47 1452 15 187 33 343 41 354 4 7 26 7 65 1
158 -24 390 -28 1480 -25 1300 4 1291 3 2065 80 398 39 562 53 785 65 199 11
956 3 1245 -13z"/>
<path d="M5381 6754 c-59 -30 -98 -76 -143 -172 -28 -59 -29 -64 -14 -87 21
-32 50 -47 84 -43 21 2 33 16 59 63 58 105 108 134 171 101 42 -22 106 -94
152 -171 56 -93 68 -105 102 -105 35 0 78 40 78 73 0 36 -99 195 -161 257
-108 110 -219 138 -328 84z"/>
<path d="M4197 6199 c-98 -15 -182 -90 -211 -190 -8 -26 -17 -87 -21 -136 -7
-89 -7 -90 20 -111 36 -29 70 -28 100 3 20 19 25 34 25 74 0 83 19 152 52 184
27 28 33 29 96 25 58 -3 79 -10 145 -47 42 -25 117 -81 167 -125 155 -138 171
-146 215 -101 46 45 36 72 -69 173 -190 184 -373 272 -519 251z"/>
<path d="M6664 6201 c-54 -13 -135 -64 -179 -113 -59 -66 -105 -137 -105 -163
0 -26 38 -64 65 -66 43 -4 54 3 99 64 104 142 221 179 262 82 7 -19 14 -63 14
-99 0 -82 5 -93 44 -106 44 -14 83 1 97 37 12 32 6 156 -12 217 -31 109 -161
176 -285 147z"/>
<path d="M2693 5018 c-28 -14 -45 -61 -33 -93 29 -77 133 -65 146 17 5 30 2
41 -19 62 -27 27 -57 32 -94 14z"/>
<path d="M6770 5003 c-34 -13 -50 -37 -50 -75 0 -49 28 -78 75 -78 45 0 75 29
75 74 0 55 -53 97 -100 79z"/>
<path d="M4625 4968 c-74 -40 -51 -148 32 -148 75 0 106 87 49 136 -30 26 -50
29 -81 12z"/>
<path d="M5584 4786 c-93 -18 -116 -25 -319 -106 -278 -111 -390 -137 -555
-127 -113 7 -226 38 -395 109 -165 70 -246 96 -344 113 -208 37 -347 12 -706
-125 -60 -24 -150 -51 -200 -61 -170 -35 -267 -22 -487 67 -178 72 -224 84
-325 84 -73 0 -83 -2 -97 -22 -9 -12 -16 -35 -16 -50 0 -45 29 -64 105 -73 85
-9 145 -26 265 -78 157 -67 241 -88 370 -94 152 -7 252 14 485 102 223 84 295
104 410 112 127 8 223 -14 445 -102 272 -109 338 -126 500 -132 103 -4 156 -1
225 12 88 16 273 78 390 131 103 46 225 83 312 96 107 16 210 1 378 -52 346
-110 494 -120 780 -54 473 109 610 117 825 48 92 -29 114 -30 140 -4 24 24 27
91 6 109 -22 18 -152 59 -239 76 -168 32 -348 15 -677 -62 -162 -38 -217 -47
-322 -51 -151 -5 -211 4 -401 63 -78 24 -169 51 -202 60 -84 22 -263 28 -351
11z"/>
<path d="M2212 4257 c-27 -28 -29 -78 -4 -99 22 -20 237 -98 362 -132 146 -39
262 -56 388 -56 142 0 263 18 518 75 158 36 226 47 329 51 177 9 266 -8 555
-106 284 -96 371 -114 545 -113 163 0 258 16 615 102 475 115 571 131 782 131
180 0 276 -16 509 -84 247 -72 358 -90 508 -83 114 5 255 34 313 63 37 19 47
68 20 103 -25 33 -66 34 -209 3 -177 -38 -282 -27 -598 63 -261 75 -346 89
-540 88 -226 0 -394 -29 -895 -152 -278 -69 -391 -85 -560 -78 -154 6 -213 19
-439 101 -230 84 -332 107 -496 113 -165 7 -243 -3 -483 -56 -264 -59 -385
-75 -527 -68 -136 7 -312 47 -503 116 -130 47 -160 50 -190 18z"/>
<path d="M2250 3930 c-45 -45 -8 -140 55 -140 38 0 75 42 75 85 0 46 -29 75
-75 75 -22 0 -43 -8 -55 -20z"/>
<path d="M3527 3880 c-44 -35 -43 -93 2 -127 45 -35 121 7 121 67 0 38 -39 80
-73 80 -13 0 -36 -9 -50 -20z"/>
<path d="M5890 3873 c-54 -21 -69 -92 -27 -131 49 -46 127 -11 127 57 0 23 -7
44 -17 54 -21 18 -62 28 -83 20z"/>
<path d="M2471 3794 c-28 -35 -27 -75 2 -102 46 -43 117 -19 133 44 17 68 -90
115 -135 58z"/>
<path d="M6242 3687 c-29 -31 -29 -87 -2 -112 51 -47 134 -9 134 61 0 68 -85
101 -132 51z"/>
<path d="M3795 3672 c-55 -11 -76 -91 -35 -132 60 -60 161 23 120 100 -11 21
-56 38 -85 32z"/>
</g>
</svg>
