<?xml version="1.0" standalone="no"?>
<!DOCTYPE svg PUBLIC "-//W3C//DTD SVG 20010904//EN"
 "http://www.w3.org/TR/2001/REC-SVG-20010904/DTD/svg10.dtd">
<svg version="1.0" xmlns="http://www.w3.org/2000/svg"
 width="1024.000000pt" height="1024.000000pt" viewBox="0 0 1024.000000 1024.000000"
 preserveAspectRatio="xMidYMid meet">
<metadata>
Created by potrace 1.16, written by Peter Selinger 2001-2019
</metadata>
<g transform="translate(0.000000,1024.000000) scale(0.100000,-0.100000)"
fill="#000000" stroke="none">
<path d="M5135 7563 c-206 -14 -539 -70 -765 -129 -387 -101 -674 -225 -910
-392 -115 -82 -327 -289 -407 -397 -276 -377 -449 -914 -493 -1530 -24 -329
19 -677 121 -979 42 -123 154 -352 224 -456 206 -307 549 -610 869 -768 255
-127 593 -213 1031 -264 148 -17 604 -17 720 0 247 36 461 100 665 199 338
165 656 442 940 818 185 245 312 477 393 721 136 410 149 812 41 1314 -75 353
-163 645 -257 855 -260 584 -765 916 -1522 1000 -118 14 -503 18 -650 8z m727
-193 c646 -97 1072 -397 1295 -914 103 -238 226 -697 280 -1046 25 -162 24
-493 -1 -645 -71 -427 -287 -841 -644 -1229 -287 -313 -594 -523 -912 -624
-209 -67 -362 -91 -620 -99 -495 -15 -1076 89 -1395 250 -374 188 -737 543
-912 892 -233 462 -281 992 -149 1635 150 725 470 1185 1013 1459 331 166 810
290 1273 330 69 6 139 13 155 15 83 12 487 -4 617 -24z"/>
<path d="M5430 7260 c-457 -30 -1169 -216 -1531 -401 -461 -236 -758 -624
-884 -1155 -112 -470 -64 -1074 120 -1526 215 -526 547 -872 965 -1006 281
-90 1014 -158 1310 -122 349 43 763 260 1147 601 486 432 770 1073 739 1668
-18 345 -91 687 -204 954 -217 511 -626 850 -1152 956 -84 17 -368 46 -390 39
-3 0 -57 -4 -120 -8z m338 -181 c480 -53 890 -336 1110 -766 118 -231 187
-482 228 -828 16 -139 18 -369 4 -470 -66 -457 -318 -919 -675 -1235 -192
-171 -429 -331 -627 -425 -336 -159 -574 -174 -1293 -84 -359 45 -526 107
-730 272 -271 219 -512 657 -599 1089 -14 68 -31 166 -38 218 -16 127 -16 491
1 605 78 535 292 899 679 1156 215 142 445 231 887 344 443 114 786 154 1053
124z"/>
<path d="M4641 6844 c-12 -15 -21 -39 -21 -55 0 -15 25 -85 56 -156 154 -352
226 -578 309 -973 80 -385 87 -410 124 -430 60 -32 121 7 121 77 0 95 -140
712 -216 953 -69 221 -221 568 -261 598 -9 6 -34 12 -54 12 -29 0 -42 -6 -58
-26z"/>
<path d="M6276 6779 c-17 -13 -31 -40 -42 -77 -57 -207 -122 -359 -207 -487
-102 -154 -195 -259 -569 -641 -86 -88 -162 -172 -167 -186 -16 -42 0 -81 42
-102 32 -15 42 -16 67 -6 33 14 459 442 591 595 208 240 330 462 394 714 32
125 32 146 -4 182 -35 34 -68 37 -105 8z"/>
<path d="M3473 6045 c-29 -21 -38 -66 -19 -103 18 -35 167 -171 278 -253 158
-117 252 -166 723 -376 104 -47 259 -118 343 -159 85 -41 166 -74 183 -74 39
0 79 39 79 78 0 16 -10 42 -22 57 -25 32 -296 167 -643 320 -398 176 -509 242
-715 427 -106 96 -158 117 -207 83z"/>
<path d="M6830 5304 c-216 -105 -364 -130 -633 -106 -175 15 -705 11 -748 -6
-41 -16 -59 -41 -59 -78 0 -39 36 -84 67 -84 10 -1 178 -2 373 -4 195 -2 418
-7 495 -11 110 -6 160 -4 232 9 211 37 459 157 477 233 13 49 -28 103 -78 103
-7 0 -64 -25 -126 -56z"/>
<path d="M5316 4979 c-20 -16 -26 -29 -26 -61 0 -33 22 -78 123 -256 68 -120
170 -301 227 -405 125 -224 201 -333 310 -444 137 -138 200 -168 255 -120 20
17 27 33 28 61 1 37 -5 44 -105 140 -160 152 -187 192 -404 582 -170 307 -280
490 -307 509 -30 21 -69 19 -101 -6z"/>
<path d="M4955 4983 c-10 -3 -69 -33 -130 -68 -195 -110 -462 -254 -613 -329
-229 -115 -410 -168 -672 -196 -111 -12 -134 -20 -150 -50 -29 -55 3 -113 72
-125 86 -16 363 30 548 92 220 73 987 478 1035 546 43 62 -16 148 -90 130z"/>
<path d="M5145 4870 c-51 -20 -50 -13 -51 -474 0 -462 -8 -573 -60 -853 -34
-189 -32 -211 27 -232 46 -16 90 6 111 55 41 94 84 399 97 682 10 216 -3 718
-20 770 -6 19 -22 38 -39 47 -32 17 -37 17 -65 5z"/>
</g>
</svg>
