<?xml version="1.0" standalone="no"?>
<!DOCTYPE svg PUBLIC "-//W3C//DTD SVG 20010904//EN"
 "http://www.w3.org/TR/2001/REC-SVG-20010904/DTD/svg10.dtd">
<svg version="1.0" xmlns="http://www.w3.org/2000/svg"
 width="1024.000000pt" height="1024.000000pt" viewBox="0 0 1024.000000 1024.000000"
 preserveAspectRatio="xMidYMid meet">
<metadata>
Created by potrace 1.16, written by Peter Selinger 2001-2019
</metadata>
<g transform="translate(0.000000,1024.000000) scale(0.100000,-0.100000)"
fill="#000000" stroke="none">
<path d="M4932 7730 c-636 -81 -1164 -484 -1406 -1076 -46 -113 -95 -290 -118
-424 -21 -122 -15 -396 11 -516 37 -179 104 -315 203 -413 86 -86 153 -122
317 -169 14 -4 28 -20 37 -42 7 -19 43 -116 79 -215 138 -373 458 -1159 763
-1875 236 -553 264 -616 283 -632 12 -10 34 -18 49 -18 15 0 37 8 47 18 25 21
172 357 483 1102 56 135 119 286 140 335 178 422 463 1165 565 1473 l37 112
36 0 c49 0 161 41 222 80 212 136 283 423 154 618 -32 49 -36 61 -40 145 -20
375 -196 744 -495 1033 -306 295 -702 459 -1139 469 -85 2 -188 0 -228 -5z
m470 -131 c568 -102 1050 -519 1217 -1054 42 -132 61 -247 61 -360 l0 -93 40
-48 c56 -67 76 -139 63 -219 -32 -187 -171 -308 -369 -323 -81 -6 -90 -9 -101
-32 -7 -14 -13 -37 -13 -52 0 -33 2 -32 -39 -12 -29 14 -34 14 -56 0 -14 -9
-25 -24 -25 -32 0 -9 -13 -44 -29 -78 -83 -172 -243 -266 -435 -254 -130 9
-230 62 -288 156 -34 55 -62 59 -127 18 -68 -41 -118 -56 -192 -56 -72 0 -135
19 -195 59 -33 23 -56 31 -78 29 -27 -3 -35 -11 -61 -65 -39 -81 -102 -144
-179 -180 -53 -24 -73 -28 -156 -28 -88 0 -101 3 -162 33 -83 41 -149 111
-177 190 -31 85 -44 107 -69 110 -28 4 -72 -23 -72 -43 0 -48 -166 30 -256
120 -141 140 -203 358 -191 670 12 302 106 595 272 844 314 472 843 748 1390
724 66 -2 168 -13 227 -24z m759 -2600 c-43 -126 -199 -550 -205 -556 -1 -2
-27 13 -57 32 -83 53 -147 46 -213 -24 -17 -17 -37 -31 -45 -31 -8 0 -34 18
-56 40 -71 70 -128 70 -207 0 -26 -22 -48 -40 -51 -40 -3 0 -25 16 -49 36 -82
70 -133 75 -209 19 -71 -51 -74 -52 -123 -12 -81 67 -130 68 -197 6 -42 -39
-71 -59 -85 -59 -6 0 -39 22 -73 50 -54 43 -68 50 -107 50 -25 0 -68 -10 -95
-21 -27 -12 -52 -20 -54 -17 -7 7 -175 448 -175 459 0 6 19 -1 43 -15 70 -41
159 -59 268 -54 82 4 107 10 164 37 91 42 151 90 199 155 l38 53 62 -25 c112
-46 300 -39 383 14 21 13 25 11 63 -30 50 -55 137 -101 236 -126 92 -24 145
-25 239 -5 106 23 202 73 281 148 38 36 70 64 71 63 2 -1 -19 -67 -46 -147z
m-1632 -638 c62 -51 82 -61 131 -61 46 0 89 19 138 61 34 30 56 36 67 18 16
-25 90 -69 117 -69 32 0 85 25 137 64 19 14 38 26 42 26 4 0 31 -20 60 -45 53
-46 100 -62 139 -50 12 4 44 27 71 51 l51 45 38 -35 c46 -41 91 -66 121 -66
22 0 99 39 99 50 0 3 13 16 29 28 l30 22 53 -32 c29 -18 54 -33 56 -34 7 -4
-216 -544 -224 -544 -3 0 -24 5 -48 11 -36 9 -52 7 -100 -10 l-58 -20 -50 47
c-76 70 -95 68 -233 -32 -10 -7 -25 1 -55 28 -77 69 -120 70 -195 4 -45 -40
-48 -41 -79 -29 -100 41 -120 43 -187 21 -50 -17 -64 -19 -70 -8 -9 15 -132
312 -190 461 l-38 98 42 19 c23 10 46 19 51 19 4 1 29 -16 55 -38z m581 -668
c24 -18 55 -33 70 -33 25 0 111 47 124 69 13 20 40 11 77 -25 46 -45 106 -55
169 -30 44 17 90 21 90 7 0 -14 -135 -339 -365 -876 -56 -132 -106 -251 -110
-264 -4 -12 -11 -19 -15 -15 -8 9 -79 173 -283 654 -208 491 -209 494 -190
507 35 26 78 26 131 -1 28 -14 64 -26 79 -26 32 0 87 31 121 67 20 22 25 23
41 11 10 -7 37 -28 61 -45z"/>
<path d="M4429 7043 c-159 -116 -299 -303 -377 -503 -35 -89 -64 -210 -58
-236 9 -33 43 -48 78 -35 22 8 28 20 38 68 27 131 94 279 180 402 60 85 117
142 213 213 74 56 90 87 62 118 -29 32 -67 24 -136 -27z"/>
</g>
</svg>
