<?xml version="1.0" standalone="no"?>
<!DOCTYPE svg PUBLIC "-//W3C//DTD SVG 20010904//EN"
 "http://www.w3.org/TR/2001/REC-SVG-20010904/DTD/svg10.dtd">
<svg version="1.0" xmlns="http://www.w3.org/2000/svg"
 width="1024.000000pt" height="1024.000000pt" viewBox="0 0 1024.000000 1024.000000"
 preserveAspectRatio="xMidYMid meet">
<metadata>
Created by potrace 1.16, written by Peter Selinger 2001-2019
</metadata>
<g transform="translate(0.000000,1024.000000) scale(0.100000,-0.100000)"
fill="#000000" stroke="none">
<path d="M5060 6726 c-99 -21 -177 -51 -265 -103 -170 -100 -216 -113 -406
-113 -481 0 -798 -225 -817 -581 l-4 -86 -97 -38 c-106 -41 -278 -128 -350
-177 -142 -97 -173 -143 -235 -348 -68 -227 -83 -379 -51 -505 50 -192 227
-442 549 -772 281 -289 531 -496 805 -668 268 -168 464 -229 658 -205 235 29
676 207 1793 723 431 198 506 237 577 294 111 89 162 165 193 288 11 43 20
104 20 135 0 95 -37 279 -70 347 -36 73 -64 95 -485 378 -504 339 -1007 727
-1078 834 -15 22 -33 75 -46 136 -50 238 -179 387 -391 449 -77 23 -220 29
-300 12z m241 -152 c79 -18 171 -74 213 -129 42 -55 74 -134 96 -235 12 -50
31 -113 44 -138 46 -91 225 -246 681 -588 88 -67 175 -138 194 -160 86 -97
142 -216 157 -329 7 -62 -16 -170 -53 -237 -33 -61 -114 -138 -181 -172 -137
-69 -388 -95 -747 -77 -237 13 -241 13 -300 -9 -248 -90 -376 -132 -480 -156
-109 -26 -137 -28 -305 -28 -219 0 -285 14 -447 94 -189 93 -305 238 -333 415
-14 83 -7 159 26 313 39 185 36 211 -57 417 -77 172 -92 234 -87 354 3 76 9
108 29 151 37 79 116 160 196 203 134 70 247 93 523 106 194 10 238 22 356 97
171 109 320 143 475 108z m-1696 -931 c10 -27 39 -93 65 -148 81 -174 82 -178
39 -370 -27 -125 -30 -290 -5 -385 32 -126 80 -206 185 -310 108 -107 192
-159 336 -208 147 -51 255 -65 440 -59 222 8 368 41 680 154 l149 55 196 -13
c619 -39 939 63 1081 343 58 116 75 263 45 393 -8 33 -13 61 -12 63 5 4 269
-177 352 -241 115 -89 120 -144 23 -231 -80 -72 -619 -336 -1144 -561 -674
-289 -1074 -406 -1288 -376 -92 13 -152 36 -282 109 -470 262 -982 739 -1279
1192 -104 158 -134 234 -116 299 13 50 40 83 106 132 82 60 320 181 410 209 1
0 9 -21 19 -47z m-533 -696 c198 -303 588 -710 923 -963 216 -164 458 -305
615 -360 l64 -23 24 -63 c20 -51 23 -76 20 -135 -6 -90 -26 -126 -66 -117
-302 72 -802 437 -1227 894 -174 187 -234 261 -330 405 -99 150 -126 222 -126
335 0 48 3 105 7 126 6 33 9 36 18 20 6 -10 41 -63 78 -119z m4204 -429 c-15
-117 -95 -227 -216 -298 -142 -84 -1353 -632 -1721 -778 -250 -100 -468 -170
-482 -155 -3 2 -1 19 4 36 14 48 11 158 -6 212 -8 27 -12 51 -10 53 2 2 40 8
85 13 250 28 590 141 1170 389 486 208 1035 473 1135 549 22 16 42 30 44 30 2
1 0 -23 -3 -51z"/>
<path d="M4860 6040 c-436 -52 -721 -320 -697 -655 16 -233 156 -414 421 -544
299 -148 674 -152 965 -10 84 41 117 64 176 123 198 198 227 479 74 716 -166
257 -565 414 -939 370z m225 -150 c224 -26 396 -101 522 -227 182 -181 187
-431 13 -602 -70 -69 -146 -111 -265 -147 -127 -37 -337 -45 -475 -16 -249 51
-444 181 -528 351 -35 71 -37 81 -37 171 0 88 3 101 33 162 77 158 276 276
517 308 87 11 120 11 220 0z"/>
</g>
</svg>
