<?xml version="1.0" standalone="no"?>
<!DOCTYPE svg PUBLIC "-//W3C//DTD SVG 20010904//EN"
 "http://www.w3.org/TR/2001/REC-SVG-20010904/DTD/svg10.dtd">
<svg version="1.0" xmlns="http://www.w3.org/2000/svg"
 width="1024.000000pt" height="1024.000000pt" viewBox="0 0 1024.000000 1024.000000"
 preserveAspectRatio="xMidYMid meet">
<metadata>
Created by potrace 1.16, written by Peter Selinger 2001-2019
</metadata>
<g transform="translate(0.000000,1024.000000) scale(0.100000,-0.100000)"
fill="#000000" stroke="none">
<path d="M4885 7645 c-415 -67 -835 -319 -1029 -618 -26 -40 -35 -46 -55 -42
-74 18 -192 24 -280 14 -470 -52 -818 -429 -836 -903 l-4 -109 -53 -22 c-148
-61 -274 -152 -353 -256 -63 -84 -121 -206 -140 -294 -19 -92 -19 -248 1 -338
28 -126 76 -211 173 -308 53 -52 112 -100 153 -123 62 -34 68 -41 84 -89 28
-87 165 -463 292 -802 66 -176 163 -437 216 -580 53 -142 112 -284 131 -315
59 -98 157 -174 265 -208 125 -40 953 -82 1600 -82 491 0 1188 31 1499 66 256
29 364 99 464 299 19 39 118 293 220 565 103 272 240 635 305 807 l118 312 79
40 c182 92 317 257 365 447 24 94 26 238 5 339 -30 141 -123 290 -243 390 -75
62 -221 139 -298 156 l-51 12 -6 121 c-12 258 -98 450 -280 622 -84 81 -181
142 -291 185 -121 47 -205 61 -350 58 l-128 -3 -53 74 c-29 41 -97 118 -151
170 -206 200 -467 335 -772 401 -129 28 -462 35 -597 14z m480 -220 c204 -33
393 -106 558 -215 166 -111 302 -259 362 -395 13 -29 34 -60 47 -69 29 -21 84
-20 139 1 64 24 245 23 324 -1 212 -65 388 -233 455 -434 36 -111 44 -209 26
-321 -25 -147 -15 -164 120 -187 406 -71 616 -430 442 -755 -58 -110 -162
-187 -303 -224 -94 -24 -480 -49 -1200 -77 -432 -17 -2528 -17 -2910 0 -434
19 -644 32 -715 47 -225 45 -369 220 -370 449 0 162 69 305 198 412 79 65 160
106 261 130 41 10 85 27 100 40 24 20 26 28 22 81 -3 32 -5 114 -5 183 0 112
3 134 27 205 121 347 491 555 823 463 144 -40 185 -29 224 60 28 63 108 167
182 238 202 192 437 310 725 364 123 23 344 25 468 5z m2030 -2862 c-10 -27
-179 -475 -389 -1033 -103 -272 -198 -513 -211 -536 -28 -48 -73 -89 -121
-109 -51 -21 -257 -41 -674 -66 -284 -17 -1343 -23 -1689 -10 -304 12 -684 36
-751 48 -86 15 -157 69 -199 151 -18 35 -86 218 -376 997 -69 187 -143 386
-164 443 -22 56 -36 104 -33 106 4 2 117 -3 251 -10 134 -7 376 -18 538 -23
162 -5 296 -11 298 -13 1 -2 62 -302 134 -668 72 -366 136 -682 142 -703 11
-41 56 -77 97 -77 43 0 94 31 108 67 13 31 8 66 -80 511 -127 639 -169 862
-165 866 2 2 215 1 473 -2 l468 -5 -6 -111 c-5 -93 -21 -1053 -21 -1253 0 -54
4 -66 26 -89 18 -18 41 -28 73 -31 42 -5 48 -3 80 29 l34 34 6 144 c3 80 11
399 16 710 7 360 14 567 21 571 10 6 841 20 847 14 5 -5 -8 -93 -110 -715 -88
-543 -89 -556 -73 -587 25 -45 82 -67 132 -50 23 7 44 24 55 42 11 21 52 238
123 670 59 352 109 643 113 646 4 4 144 12 312 19 168 7 382 18 475 25 253 18
248 18 240 -2z"/>
<path d="M5393 6965 c-44 -19 -73 -69 -73 -126 0 -104 115 -164 201 -106 42
28 59 60 59 112 0 52 -31 102 -75 121 -43 17 -71 17 -112 -1z"/>
<path d="M4764 6586 c-50 -22 -74 -61 -74 -121 0 -58 21 -95 70 -120 117 -60
239 79 170 193 -34 55 -104 75 -166 48z"/>
<path d="M4052 5991 c-72 -25 -141 -85 -177 -157 -27 -52 -30 -69 -30 -144 1
-72 5 -93 28 -137 34 -66 86 -116 156 -151 80 -39 182 -39 263 1 178 87 237
311 126 474 -76 112 -232 160 -366 114z m157 -216 c59 -30 64 -114 9 -160 -33
-28 -50 -30 -96 -14 -66 23 -84 109 -33 160 33 33 75 38 120 14z"/>
<path d="M5940 6001 c-136 -44 -220 -152 -228 -291 -8 -137 53 -242 175 -302
159 -78 340 -15 423 148 21 42 25 63 25 139 0 74 -4 98 -23 137 -30 60 -90
120 -150 149 -51 24 -176 35 -222 20z m148 -236 c36 -30 45 -69 27 -112 -13
-31 -59 -63 -90 -63 -26 0 -73 28 -85 51 -16 28 -16 75 0 103 26 50 101 61
148 21z"/>
<path d="M3041 5683 c-51 -25 -73 -67 -68 -131 5 -71 43 -112 112 -120 88 -9
148 47 147 135 -1 53 -20 86 -65 113 -39 24 -81 25 -126 3z"/>
<path d="M7124 5620 c-11 -4 -33 -22 -47 -40 -37 -44 -38 -119 -2 -166 70 -92
219 -48 232 69 12 101 -88 176 -183 137z"/>
<path d="M4666 5545 c-43 -23 -55 -45 -56 -100 0 -97 90 -234 200 -305 71 -46
186 -80 268 -80 189 0 360 107 444 277 61 124 36 209 -63 220 -58 6 -90 -18
-125 -97 -35 -79 -104 -143 -175 -164 -69 -21 -108 -20 -168 3 -81 30 -117 65
-161 156 -52 104 -93 127 -164 90z"/>
<path d="M6793 4350 c-12 -5 -28 -19 -36 -32 -8 -13 -56 -174 -107 -358 -50
-184 -118 -431 -151 -548 -32 -117 -59 -222 -59 -233 0 -37 31 -80 67 -96 68
-28 128 2 151 77 44 141 292 1067 292 1090 0 84 -76 133 -157 100z"/>
<path d="M3324 4320 c-33 -13 -64 -59 -64 -94 0 -17 45 -200 99 -406 145 -548
180 -672 197 -698 34 -51 116 -52 166 -1 26 26 29 35 26 77 -2 26 -30 142 -62
257 -31 116 -93 345 -138 510 -44 165 -84 308 -89 317 -21 38 -88 57 -135 38z"/>
</g>
</svg>
