<?xml version="1.0" standalone="no"?>
<!DOCTYPE svg PUBLIC "-//W3C//DTD SVG 20010904//EN"
 "http://www.w3.org/TR/2001/REC-SVG-20010904/DTD/svg10.dtd">
<svg version="1.0" xmlns="http://www.w3.org/2000/svg"
 width="1024.000000pt" height="1024.000000pt" viewBox="0 0 1024.000000 1024.000000"
 preserveAspectRatio="xMidYMid meet">
<metadata>
Created by potrace 1.16, written by Peter Selinger 2001-2019
</metadata>
<g transform="translate(0.000000,1024.000000) scale(0.100000,-0.100000)"
fill="#000000" stroke="none">
<path d="M5425 7589 c-140 -21 -269 -84 -372 -182 l-72 -68 -39 35 c-93 84
-238 147 -372 160 -95 10 -215 -14 -318 -64 -189 -91 -331 -305 -332 -502 0
-45 -1 -47 -37 -58 -67 -22 -146 -73 -208 -134 -168 -170 -209 -431 -103 -656
41 -86 140 -183 231 -228 l67 -33 0 -78 0 -79 -57 -6 c-210 -24 -368 -84 -511
-193 -198 -151 -313 -370 -363 -688 -18 -113 -15 -397 5 -522 57 -358 226
-602 521 -750 84 -43 212 -81 292 -88 37 -4 78 -8 91 -11 l22 -4 0 -285 c0
-266 1 -288 21 -341 27 -72 91 -136 162 -162 193 -72 624 -108 1200 -99 379 6
488 13 727 47 235 34 306 63 371 153 62 86 59 9 59 1503 l0 1362 38 78 c35 75
37 84 36 174 0 52 -6 108 -13 124 -9 23 -9 31 1 37 42 26 100 81 137 128 186
242 167 570 -43 786 -43 44 -98 87 -141 111 -69 38 -206 84 -250 84 -19 0 -31
16 -69 95 -37 76 -61 110 -121 169 -143 144 -362 216 -560 185z m198 -164
c181 -38 333 -183 373 -353 7 -30 20 -62 28 -70 9 -10 47 -18 103 -22 48 -5
107 -15 131 -23 112 -39 228 -140 277 -242 76 -157 46 -348 -73 -476 -31 -34
-80 -75 -110 -91 -74 -42 -80 -63 -46 -162 49 -145 16 -256 -96 -323 -72 -44
-135 -45 -211 -5 -107 56 -146 179 -99 307 13 33 25 78 27 101 4 36 1 44 -22
63 -15 11 -33 21 -40 21 -7 0 -48 -18 -90 -39 -193 -99 -391 -68 -533 84 -47
51 -67 65 -89 65 -44 0 -70 -24 -78 -72 -15 -91 -84 -180 -177 -230 -37 -20
-58 -23 -148 -23 -95 0 -110 3 -157 27 -55 29 -109 78 -156 141 -41 55 -80 52
-151 -12 -64 -58 -83 -69 -151 -87 -70 -19 -122 -17 -196 6 -230 71 -334 342
-217 562 31 59 107 137 159 163 14 8 60 23 100 35 102 27 112 41 103 144 -7
94 8 159 57 244 88 154 270 241 443 213 132 -22 219 -75 312 -192 47 -60 59
-69 87 -69 43 0 47 4 106 92 60 89 98 124 193 174 114 59 220 75 341 49z
m-407 -1426 c10 -17 142 -75 204 -89 64 -15 161 -18 241 -8 l56 8 6 -80 c10
-146 85 -261 213 -324 73 -36 191 -46 267 -23 l47 15 0 -1178 0 -1177 -47 -6
c-27 -3 -98 -13 -159 -21 -61 -8 -218 -23 -350 -32 -295 -20 -1026 -15 -1269
10 -149 15 -359 43 -382 51 -10 3 -13 281 -13 1345 l0 1340 40 0 c65 0 166 30
226 66 31 19 58 34 61 34 2 0 25 -18 51 -39 96 -79 214 -121 344 -121 153 0
270 51 369 158 32 36 59 69 59 73 0 13 28 11 36 -2z m-1346 -519 l0 -60 -52 0
c-238 -2 -446 -155 -540 -397 -62 -160 -73 -228 -72 -458 1 -194 3 -217 27
-309 87 -325 268 -495 559 -524 l73 -7 3 -63 3 -63 -63 7 c-81 9 -215 47 -281
80 -233 117 -370 318 -422 619 -26 146 -24 417 3 550 59 294 195 490 417 602
84 43 224 81 303 82 l42 1 0 -60z m-2 -899 c1 -377 -2 -689 -6 -693 -16 -16
-146 12 -219 47 -123 60 -204 174 -255 360 -19 70 -22 105 -22 275 0 178 2
203 26 291 49 182 133 301 252 359 60 29 146 50 196 47 l25 -2 3 -684z m467
-1635 c524 -54 1265 -46 1755 19 63 8 126 18 139 21 23 5 23 4 19 -51 -11
-130 -82 -160 -478 -202 -214 -22 -1016 -25 -1240 -4 -329 30 -444 62 -481
131 -17 31 -26 110 -14 122 3 2 37 -1 77 -8 40 -7 141 -19 223 -28z"/>
<path d="M4411 5616 c-14 -8 -28 -22 -32 -32 -13 -32 -11 -2200 2 -2227 22
-49 86 -61 124 -22 l25 24 0 1115 0 1115 -26 20 c-31 24 -59 26 -93 7z"/>
<path d="M5983 4653 c-54 -10 -53 1 -53 -650 l0 -602 22 -21 c33 -30 91 -27
117 6 21 26 21 35 21 615 0 418 -3 595 -11 613 -7 14 -25 30 -42 36 -16 5 -30
9 -31 9 -1 -1 -11 -4 -23 -6z"/>
</g>
</svg>
