<?xml version="1.0" standalone="no"?>
<!DOCTYPE svg PUBLIC "-//W3C//DTD SVG 20010904//EN"
 "http://www.w3.org/TR/2001/REC-SVG-20010904/DTD/svg10.dtd">
<svg version="1.0" xmlns="http://www.w3.org/2000/svg"
 width="1024.000000pt" height="1024.000000pt" viewBox="0 0 1024.000000 1024.000000"
 preserveAspectRatio="xMidYMid meet">
<metadata>
Created by potrace 1.16, written by Peter Selinger 2001-2019
</metadata>
<g transform="translate(0.000000,1024.000000) scale(0.100000,-0.100000)"
fill="#000000" stroke="none">
<path d="M4050 7273 c-1026 -59 -1902 -440 -2152 -938 -93 -185 -158 -524
-158 -830 0 -355 54 -721 132 -903 94 -217 279 -394 541 -517 119 -56 214 -89
537 -186 720 -217 985 -356 1421 -746 158 -141 255 -212 385 -283 456 -248
996 -292 1633 -135 443 110 921 330 1291 595 444 317 672 608 765 975 97 380
73 1044 -51 1415 -100 298 -378 484 -879 585 -66 13 -210 36 -320 50 -377 49
-544 83 -750 156 -221 77 -325 133 -620 331 -235 157 -423 247 -668 317 -327
94 -733 136 -1107 114z m420 -243 c443 -31 813 -136 1111 -315 35 -22 118 -76
184 -121 293 -199 518 -302 845 -383 144 -36 220 -49 690 -116 258 -37 426
-83 573 -156 207 -103 297 -217 297 -375 0 -271 -233 -564 -663 -834 -386
-243 -905 -413 -1447 -475 -181 -21 -543 -16 -689 10 -135 23 -343 78 -433
114 -180 71 -269 123 -519 304 -338 244 -684 394 -1249 542 -402 105 -513 143
-677 230 -283 150 -448 378 -430 595 33 397 656 779 1507 924 343 59 615 75
900 56z m-2431 -1528 c95 -116 299 -252 507 -338 142 -59 251 -93 541 -168
597 -156 855 -268 1233 -537 79 -57 181 -125 225 -153 289 -180 686 -292 1106
-311 363 -18 891 69 1312 214 65 23 61 26 76 -64 32 -190 44 -551 27 -788 l-8
-118 -57 -28 c-90 -46 -376 -157 -501 -194 -298 -90 -549 -130 -810 -130 -297
1 -526 51 -766 168 -145 70 -215 119 -383 269 -290 258 -454 373 -731 512
-238 119 -405 181 -825 305 -389 116 -524 173 -671 284 -231 177 -307 396
-333 960 -8 166 -6 196 8 178 4 -4 27 -32 50 -61z m6226 -504 c8 -102 -10
-410 -31 -531 -57 -329 -215 -564 -572 -849 -75 -60 -338 -238 -352 -238 -4 0
-5 93 -2 208 2 115 -1 269 -7 347 -11 134 -36 331 -47 367 -4 13 31 35 164
103 183 93 381 219 504 321 94 79 257 250 295 309 15 24 31 44 35 45 3 0 9
-37 13 -82z"/>
<path d="M3640 6791 c-268 -87 -965 -571 -1069 -742 -45 -73 -12 -139 61 -125
142 27 827 484 1036 691 80 80 92 97 92 126 0 19 -4 39 -8 46 -13 21 -56 23
-112 4z"/>
<path d="M4245 6761 c-264 -107 -900 -527 -1136 -749 -86 -81 -109 -114 -109
-160 0 -69 78 -80 187 -26 212 105 604 356 898 575 276 206 361 303 320 365
-21 33 -71 31 -160 -5z"/>
<path d="M5228 6426 c-299 -106 -1091 -609 -1355 -859 -98 -94 -116 -155 -57
-193 20 -14 31 -15 71 -5 194 49 1148 654 1381 875 78 74 102 110 102 149 0
53 -52 65 -142 33z"/>
<path d="M5830 6260 c-224 -54 -1032 -533 -1228 -729 -103 -103 -70 -195 57
-162 168 43 904 476 1162 683 124 100 159 177 93 207 -28 12 -34 12 -84 1z"/>
<path d="M6615 5783 c-136 -29 -591 -253 -990 -488 -326 -192 -528 -331 -579
-398 -28 -37 -35 -97 -13 -115 50 -42 153 -11 455 138 561 277 1127 628 1209
749 52 77 11 134 -82 114z"/>
<path d="M7215 5662 c-77 -25 -373 -178 -545 -282 -379 -228 -663 -438 -706
-521 -19 -37 -18 -83 3 -100 26 -22 92 -15 173 19 194 82 762 422 1010 605
190 141 251 218 216 272 -13 20 -24 25 -59 24 -23 0 -64 -8 -92 -17z"/>
</g>
</svg>
