<?xml version="1.0" standalone="no"?>
<!DOCTYPE svg PUBLIC "-//W3C//DTD SVG 20010904//EN"
 "http://www.w3.org/TR/2001/REC-SVG-20010904/DTD/svg10.dtd">
<svg version="1.0" xmlns="http://www.w3.org/2000/svg"
 width="1024.000000pt" height="1024.000000pt" viewBox="0 0 1024.000000 1024.000000"
 preserveAspectRatio="xMidYMid meet">
<metadata>
Created by potrace 1.16, written by Peter Selinger 2001-2019
</metadata>
<g transform="translate(0.000000,1024.000000) scale(0.100000,-0.100000)"
fill="#000000" stroke="none">
<path d="M5119 8426 c-38 -18 -36 -58 5 -112 49 -64 76 -156 76 -258 0 -65 -7
-99 -33 -175 l-32 -94 -55 -12 c-160 -32 -273 -159 -287 -323 l-6 -69 -67 -21
c-285 -92 -532 -303 -650 -555 -22 -47 -40 -89 -40 -94 0 -5 -33 -22 -72 -38
-183 -71 -308 -196 -379 -379 -28 -71 -32 -93 -33 -181 -1 -95 18 -210 36
-221 24 -15 -2 -22 -94 -26 -87 -3 -111 -8 -154 -31 -93 -47 -134 -116 -134
-222 0 -73 14 -114 53 -161 15 -18 27 -44 27 -58 0 -39 74 -495 124 -771 98
-533 169 -913 216 -1155 66 -342 196 -1020 210 -1095 16 -84 71 -194 130 -258
27 -30 50 -57 50 -60 0 -6 -89 -12 -390 -27 -407 -21 -667 -64 -686 -115 -16
-40 43 -67 208 -94 744 -122 3298 -116 3933 10 147 29 192 70 118 107 -92 47
-386 82 -916 108 l-127 6 50 55 c60 65 125 195 140 278 6 33 49 256 95 495
250 1296 439 2348 448 2498 2 28 10 59 19 69 83 95 81 251 -5 342 -51 54 -107
74 -224 79 -57 3 -103 6 -103 9 0 2 10 32 21 66 32 92 30 226 -5 333 -27 85
-79 174 -141 243 -50 55 -171 135 -245 162 -52 19 -61 26 -71 58 -72 221 -285
448 -536 570 l-71 35 -4 91 c-3 78 -7 100 -36 158 -38 76 -89 123 -176 162
-46 21 -57 29 -51 43 4 9 14 37 23 62 8 25 16 46 17 48 1 1 38 -7 81 -20 103
-28 256 -30 329 -4 58 21 116 60 164 107 42 42 92 146 99 205 6 53 -2 61 -95
98 -84 35 -164 46 -243 35 -98 -14 -162 -49 -246 -133 -40 -40 -76 -71 -79
-68 -3 3 -5 18 -5 33 0 78 -88 253 -136 270 -12 4 -31 2 -45 -5z m675 -216
l66 -21 -15 -36 c-51 -123 -182 -195 -322 -179 -88 10 -153 27 -153 39 0 21
111 137 156 163 96 56 166 65 268 34z m-549 -547 c68 -23 137 -93 160 -162 53
-161 -59 -331 -228 -348 -103 -10 -216 58 -259 154 -27 62 -27 159 1 216 61
127 196 185 326 140z m-416 -427 c31 -62 115 -139 182 -164 79 -29 136 -35
209 -22 104 19 186 74 253 170 l17 24 47 -23 c82 -39 207 -128 277 -197 107
-106 156 -184 241 -381 11 -25 23 -34 57 -43 114 -31 241 -126 314 -235 57
-86 78 -157 79 -266 0 -89 -2 -100 -34 -162 l-34 -67 -1360 2 -1360 3 -30 58
c-25 48 -31 73 -35 141 -7 139 38 256 141 363 75 78 134 117 233 152 l77 27
33 80 c88 221 265 407 483 511 52 24 167 70 183 72 3 1 16 -19 27 -43z m1951
-1494 c48 -23 84 -95 74 -147 -8 -45 -47 -93 -91 -111 -48 -21 -3318 -21
-3366 0 -44 18 -83 66 -91 112 -10 50 26 120 74 145 33 18 93 19 1700 19 1565
0 1667 -1 1700 -18z m-3274 -385 c0 -1 13 -74 28 -162 74 -426 211 -1165 406
-2180 125 -650 133 -678 222 -761 27 -25 79 -60 116 -77 l67 -32 740 0 740 0
68 33 c37 18 89 54 115 80 78 76 97 130 162 456 139 704 267 1384 400 2126 50
278 92 509 93 514 2 5 28 11 59 13 53 4 55 3 52 -19 -2 -13 -15 -99 -29 -193
-47 -306 -297 -1654 -450 -2430 -20 -99 -42 -220 -50 -270 -29 -179 -126 -315
-281 -391 l-78 -39 -801 0 -801 0 -80 39 c-137 68 -247 203 -268 331 -4 22
-52 272 -106 555 -225 1169 -440 2346 -440 2412 0 7 21 8 58 3 31 -4 57 -8 58
-8z m3048 -14 c-2 -10 -56 -301 -119 -648 -180 -992 -406 -2170 -431 -2248
-21 -64 -99 -148 -166 -178 l-53 -24 -705 0 -705 0 -45 22 c-67 34 -112 75
-144 132 -30 56 -36 85 -236 1136 -177 928 -330 1769 -330 1809 0 15 117 16
1469 16 1394 0 1469 -1 1465 -17z m-2345 -3400 l66 -28 810 1 810 0 63 26 63
26 222 -9 c248 -9 673 -36 727 -46 l35 -6 -30 -8 c-44 -11 -254 -28 -560 -45
-373 -21 -1820 -30 -2282 -15 -477 16 -953 48 -970 65 -11 11 389 41 727 55
113 4 216 9 229 9 14 1 54 -10 90 -25z"/>
<path d="M4547 7048 c-27 -21 -36 -59 -23 -98 22 -70 111 -77 149 -12 16 27
17 37 7 67 -6 19 -20 40 -30 45 -26 14 -83 12 -103 -2z"/>
<path d="M5475 6935 c-54 -54 -13 -145 65 -145 12 0 35 13 51 29 35 35 38 77
8 115 -28 36 -89 37 -124 1z"/>
<path d="M4945 6815 c-54 -53 -16 -145 58 -145 48 0 77 27 84 77 5 35 2 45
-20 67 -35 35 -89 35 -122 1z"/>
<path d="M5913 6620 c-48 -19 -58 -95 -18 -135 66 -67 171 8 135 96 -18 43
-66 59 -117 39z"/>
<path d="M4292 6587 c-27 -29 -29 -86 -4 -116 9 -12 34 -24 54 -28 32 -5 41
-1 68 25 38 39 40 83 5 117 -33 34 -93 34 -123 2z"/>
<path d="M5268 6575 c-47 -26 -47 -119 1 -144 31 -17 76 -13 105 10 20 16 26
29 26 60 0 74 -65 110 -132 74z"/>
<path d="M5695 6325 c-52 -51 -16 -145 55 -145 21 0 41 9 61 29 56 57 23 141
-56 141 -25 0 -44 -8 -60 -25z"/>
<path d="M4800 6307 c-55 -28 -63 -112 -14 -144 68 -44 152 10 137 90 -10 51
-75 80 -123 54z"/>
<path d="M3995 6279 c-32 -19 -45 -41 -45 -79 0 -62 57 -100 116 -75 55 23 70
85 32 129 -26 30 -74 41 -103 25z"/>
<path d="M6134 6206 c-59 -26 -68 -106 -17 -146 58 -46 133 -7 133 70 0 38
-26 80 -49 80 -5 0 -15 2 -23 5 -7 2 -27 -2 -44 -9z"/>
<path d="M5164 6108 c-32 -15 -48 -51 -40 -92 8 -42 38 -66 84 -66 84 0 115
117 41 155 -32 17 -55 18 -85 3z"/>
<path d="M4649 4139 c-27 -27 -21 -70 22 -157 146 -297 577 -338 784 -74 77
98 109 218 64 242 -33 18 -65 4 -79 -32 -50 -135 -100 -197 -198 -245 -51 -25
-67 -28 -157 -28 -114 0 -160 17 -238 85 -43 38 -107 142 -107 174 0 20 -35
56 -55 56 -8 0 -25 -10 -36 -21z"/>
<path d="M5804 4149 c-70 -19 -103 -100 -65 -162 60 -98 201 -57 201 58 0 74
-64 123 -136 104z"/>
<path d="M4284 4132 c-66 -53 -58 -149 16 -187 37 -19 54 -19 96 1 71 34 85
115 30 170 -28 28 -41 34 -77 34 -27 0 -53 -7 -65 -18z"/>
</g>
</svg>
