<?xml version="1.0" standalone="no"?>
<!DOCTYPE svg PUBLIC "-//W3C//DTD SVG 20010904//EN"
 "http://www.w3.org/TR/2001/REC-SVG-20010904/DTD/svg10.dtd">
<svg version="1.0" xmlns="http://www.w3.org/2000/svg"
 width="1024.000000pt" height="1024.000000pt" viewBox="0 0 1024.000000 1024.000000"
 preserveAspectRatio="xMidYMid meet">
<metadata>
Created by potrace 1.16, written by Peter Selinger 2001-2019
</metadata>
<g transform="translate(0.000000,1024.000000) scale(0.100000,-0.100000)"
fill="#000000" stroke="none">
<path d="M5927 7425 c-237 -40 -435 -142 -590 -304 -89 -94 -147 -187 -191
-312 l-34 -93 -22 44 c-45 89 -125 192 -216 280 -100 95 -172 144 -197 134
-33 -12 -177 -203 -177 -233 0 -10 28 -37 63 -61 85 -60 227 -199 302 -295 69
-89 139 -194 133 -201 -3 -2 -36 7 -74 20 -105 37 -209 62 -311 76 -116 16
-399 7 -498 -15 -481 -107 -843 -430 -997 -888 -48 -146 -69 -258 -75 -422 -9
-230 18 -414 94 -648 214 -665 789 -1233 1337 -1322 209 -34 380 -8 596 90
182 84 273 82 455 -6 136 -66 234 -91 360 -92 122 0 206 19 331 78 434 203
845 746 989 1308 54 213 68 334 62 537 -7 230 -40 365 -132 550 -195 388 -600
649 -1052 677 -57 3 -103 9 -103 13 0 3 22 24 49 46 140 114 243 279 295 474
40 146 25 534 -20 567 -24 17 -271 16 -377 -2z m306 -150 c15 -89 11 -284 -7
-360 -42 -176 -115 -306 -239 -422 -144 -133 -349 -212 -554 -213 -71 0 -93 3
-93 13 0 8 26 65 58 127 55 106 61 114 98 125 21 7 82 30 134 52 52 22 112 46
132 52 47 15 62 34 54 67 -7 25 -9 26 -56 21 -27 -3 -82 -20 -122 -36 -39 -17
-73 -29 -75 -28 -1 2 23 35 54 73 70 86 209 224 290 288 66 51 82 78 63 101
-21 25 -55 17 -116 -28 -68 -50 -208 -185 -282 -271 l-50 -60 16 68 c12 49 13
72 6 84 -13 20 -52 28 -66 14 -11 -11 -41 -128 -59 -232 -9 -55 -25 -98 -60
-160 -26 -47 -64 -120 -85 -162 -21 -43 -42 -78 -46 -78 -16 0 -23 61 -22 200
0 135 2 152 31 238 119 357 461 585 868 579 l120 -2 8 -50z m-1430 -317 c138
-137 260 -336 273 -446 l6 -47 -52 75 c-129 186 -260 327 -384 413 -18 13 -17
15 10 55 16 23 35 41 41 42 7 0 54 -42 106 -92z m-157 -593 c49 -9 123 -25
164 -37 73 -20 253 -92 277 -110 12 -9 63 -211 63 -249 0 -18 -7 -15 -48 23
-67 60 -213 139 -267 145 -37 5 -45 2 -55 -16 -19 -36 -3 -55 83 -99 85 -44
237 -155 237 -174 0 -7 -29 -8 -88 -3 -97 7 -117 -1 -110 -47 6 -41 49 -53
193 -52 150 1 191 10 440 99 176 64 201 79 191 119 -11 45 -40 42 -250 -28
-109 -37 -201 -64 -205 -62 -4 3 -8 23 -9 46 -2 22 -12 89 -22 147 -11 59 -20
107 -20 108 0 1 71 0 158 -3 145 -4 167 -2 287 24 115 26 148 29 290 28 172
-2 283 -19 430 -69 239 -80 455 -246 592 -454 106 -160 164 -332 182 -543 52
-603 -327 -1377 -844 -1725 -257 -173 -486 -193 -743 -64 -119 59 -176 75
-272 75 -102 -1 -138 -10 -300 -79 -158 -67 -215 -79 -370 -79 -189 0 -357 50
-536 158 -431 262 -768 733 -894 1247 -41 167 -53 287 -47 452 12 351 131 643
354 870 176 179 379 290 628 343 137 28 373 33 511 9z"/>
<path d="M3847 6082 c-238 -131 -411 -359 -442 -583 -14 -98 36 -186 111 -196
102 -13 215 103 403 415 48 80 61 111 59 135 -3 29 -7 32 -38 35 -35 3 -35 2
-124 -139 -108 -172 -213 -308 -254 -332 -30 -17 -31 -17 -42 2 -17 33 -11 97
15 168 62 165 206 322 388 423 47 27 57 36 57 59 0 61 -39 65 -133 13z"/>
</g>
</svg>
