<?xml version="1.0" encoding="UTF-8" standalone="no"?>
<!DOCTYPE svg PUBLIC "-//W3C//DTD SVG 1.1//EN" "http://www.w3.org/Graphics/SVG/1.1/DTD/svg11.dtd">
<svg width="100%" height="100%" viewBox="0 0 1024 1024" version="1.1" xmlns="http://www.w3.org/2000/svg" xmlns:xlink="http://www.w3.org/1999/xlink" xml:space="preserve" xmlns:serif="http://www.serif.com/" style="fill-rule:evenodd;clip-rule:evenodd;stroke-linejoin:round;stroke-miterlimit:2;">
    <g transform="matrix(0.1,0,0,-0.1,0,1024)">
        <path d="M5301,7495C5105,7440 4903,7298 4745,7106C4680,7025 4675,7021 4655,7035C4538,7119 4354,7213 4225,7254C3935,7346 3746,7320 3606,7169C3509,7064 3430,6872 3412,6695C3404,6613 3417,6617 3250,6645C3064,6675 2913,6653 2845,6585C2777,6517 2762,6380 2803,6218L2826,6131L2780,6125C2616,6104 2472,6066 2377,6019C2236,5948 2165,5870 2135,5751C2097,5604 2175,5422 2368,5203L2450,5110L2388,5079C2053,4910 1859,4589 1899,4269C1945,3910 2238,3574 2541,3534C2574,3530 2609,3516 2634,3498C2657,3483 2702,3459 2735,3445L2795,3421L2801,3293C2811,3094 2842,3000 2918,2942C2950,2918 2962,2915 3034,2915C3105,2915 3122,2919 3168,2944C3309,3022 3380,3163 3380,3361C3380,3432 3382,3440 3399,3440C3409,3440 3516,3449 3636,3460C4551,3542 5650,3566 6558,3524L6710,3517L6710,3461C6710,3225 6837,3052 7024,3033C7181,3017 7257,3117 7281,3367C7286,3429 7290,3487 7288,3496C7286,3508 7299,3518 7338,3531C7501,3587 7616,3706 7661,3865C7681,3936 7678,4262 7657,4398L7640,4502L7720,4597C7836,4736 7915,4876 7972,5043C8000,5123 8004,5149 8004,5245C8005,5349 8003,5359 7973,5423C7899,5580 7727,5692 7455,5760C7395,5776 7345,5792 7345,5797C7345,5801 7364,5852 7387,5910C7473,6126 7511,6313 7490,6413C7449,6612 7249,6652 6821,6548C6811,6546 6802,6569 6789,6635C6704,7058 6490,7205 6134,7085C6094,7072 6035,7048 6001,7031C5968,7015 5938,7005 5936,7009C5933,7012 5917,7051 5900,7095C5829,7274 5721,7411 5606,7470C5549,7499 5529,7503 5448,7506C5386,7509 5337,7505 5301,7495ZM5505,7286C5563,7262 5618,7193 5676,7075C5724,6976 5780,6807 5769,6795C5766,6793 5742,6797 5715,6806C5524,6863 5235,6896 4992,6887L4829,6881L4850,6910C4887,6963 5021,7099 5083,7149C5154,7205 5262,7266 5323,7286C5379,7303 5463,7303 5505,7286ZM4159,7054C4319,7001 4591,6849 4549,6836C4541,6834 4475,6816 4402,6796C4165,6732 3910,6619 3712,6490C3637,6442 3618,6433 3613,6446C3610,6455 3610,6512 3613,6573C3625,6829 3728,7055 3846,7088C3914,7107 4042,7093 4159,7054ZM6434,6897C6518,6849 6587,6670 6597,6478C6600,6418 6599,6370 6595,6370C6590,6370 6577,6378 6566,6389C6495,6453 6261,6591 6087,6670C5989,6715 5988,6716 5984,6753C5981,6789 5982,6791 6040,6820C6229,6915 6359,6941 6434,6897ZM5300,6650C5674,6606 5988,6491 6305,6282C6907,5885 7287,5245 7421,4401C7432,4332 7444,4202 7447,4113C7452,3972 7451,3944 7435,3904C7400,3812 7324,3755 7205,3730C7142,3717 6919,3720 6530,3740C6428,3745 6134,3753 5875,3756C5038,3768 4268,3733 3240,3639C3113,3628 2989,3621 2955,3625C2803,3640 2709,3700 2674,3801C2643,3895 2654,4165 2701,4445C2797,5017 3009,5483 3351,5876C3723,6304 4272,6590 4835,6649C4951,6661 5202,6662 5300,6650ZM3250,6435C3403,6408 3422,6399 3438,6350L3453,6307L3359,6220C3307,6172 3236,6098 3200,6056C3165,6014 3133,5980 3129,5980C3117,5980 3042,6146 3016,6230C2983,6341 2973,6415 2990,6435C3007,6455 3136,6455 3250,6435ZM7271,6390C7294,6377 7295,6350 7275,6256C7242,6099 7131,5815 7111,5836C7106,5841 7074,5881 7039,5925C7004,5969 6930,6053 6873,6111L6770,6217L6783,6271L6797,6325L6904,6352C7075,6396 7229,6412 7271,6390ZM2955,5864C2974,5834 2990,5808 2990,5806C2990,5804 2956,5747 2914,5679C2872,5611 2799,5478 2752,5382L2666,5207L2565,5312C2410,5471 2316,5631 2334,5703C2358,5802 2573,5897 2820,5919C2867,5923 2908,5924 2913,5922C2917,5920 2936,5894 2955,5864ZM7365,5568C7459,5546 7592,5497 7646,5464C7802,5371 7830,5289 7770,5109C7726,4978 7615,4770 7589,4770C7584,4770 7578,4782 7574,4798C7536,4967 7440,5231 7339,5439C7301,5518 7270,5584 7270,5587C7270,5590 7286,5587 7365,5568ZM2570,4927C2570,4925 2554,4863 2535,4789C2497,4641 2456,4411 2440,4251C2428,4127 2428,3892 2440,3830C2444,3805 2447,3783 2445,3781C2442,3779 2413,3799 2380,3826C2251,3930 2145,4100 2113,4255C2090,4368 2105,4464 2162,4580C2217,4693 2336,4813 2460,4883C2534,4924 2570,4938 2570,4927ZM7048,3500L7083,3500L7078,3418C7071,3320 7053,3250 7032,3250C7010,3250 6963,3287 6941,3324C6924,3350 6920,3374 6920,3435L6920,3513L6966,3506C6992,3503 7029,3500 7048,3500ZM3168,3327C3165,3252 3160,3227 3141,3197C3117,3158 3067,3125 3045,3134C3026,3141 3009,3227 3007,3322L3005,3405L3075,3411C3114,3414 3151,3417 3159,3418C3170,3420 3172,3402 3168,3327Z" style="fill-rule:nonzero;"/>
        <path d="M6241,5144C6185,5129 6175,5123 6126,5081C5973,4944 5992,4652 6162,4537C6242,4484 6345,4477 6428,4519C6655,4635 6650,5029 6420,5128C6355,5157 6303,5161 6241,5144Z" style="fill-rule:nonzero;"/>
        <path d="M3622,5099C3393,5055 3310,4700 3488,4522C3532,4478 3620,4440 3679,4440C3780,4440 3878,4509 3932,4617C3961,4677 3964,4692 3964,4769C3963,4916 3904,5023 3797,5073C3735,5103 3681,5111 3622,5099Z" style="fill-rule:nonzero;"/>
        <path d="M5517,4630C5508,4624 5490,4600 5479,4577C5438,4496 5389,4460 5320,4460C5240,4460 5170,4519 5154,4599L5148,4630L4861,4630L4854,4585C4841,4494 4772,4430 4687,4430C4623,4430 4578,4458 4543,4518C4501,4592 4492,4600 4444,4600C4332,4600 4334,4454 4448,4343C4537,4256 4662,4222 4772,4254C4842,4274 4936,4343 4975,4404C4992,4429 5007,4450 5010,4450C5013,4450 5024,4437 5033,4420C5057,4380 5125,4326 5185,4299C5223,4282 5255,4277 5315,4276C5416,4275 5488,4306 5559,4379C5639,4461 5672,4581 5625,4620C5605,4637 5538,4643 5517,4630Z" style="fill-rule:nonzero;"/>
        <path d="M6407,4330C6336,4274 6376,4140 6463,4140C6531,4140 6576,4222 6546,4294C6522,4352 6457,4369 6407,4330Z" style="fill-rule:nonzero;"/>
        <path d="M6670,4325C6654,4308 6647,4289 6647,4260C6647,4204 6679,4170 6732,4170C6810,4170 6849,4260 6799,4324C6771,4360 6704,4361 6670,4325Z" style="fill-rule:nonzero;"/>
        <path d="M6961,4296C6931,4264 6923,4202 6944,4162C7002,4050 7150,4133 7110,4255C7096,4299 7066,4320 7020,4320C6994,4320 6977,4313 6961,4296Z" style="fill-rule:nonzero;"/>
        <path d="M3483,4302C3430,4294 3397,4206 3425,4147C3474,4043 3611,4096 3596,4213C3589,4276 3544,4311 3483,4302Z" style="fill-rule:nonzero;"/>
        <path d="M3039,4221C3010,4192 3008,4185 3012,4138C3020,4057 3076,4020 3143,4051C3175,4065 3190,4100 3190,4154C3190,4212 3167,4240 3113,4247C3075,4252 3068,4249 3039,4221Z" style="fill-rule:nonzero;"/>
    </g>
</svg>
