<?xml version="1.0" standalone="no"?>
<!DOCTYPE svg PUBLIC "-//W3C//DTD SVG 20010904//EN"
 "http://www.w3.org/TR/2001/REC-SVG-20010904/DTD/svg10.dtd">
<svg version="1.0" xmlns="http://www.w3.org/2000/svg"
 width="1024.000000pt" height="1024.000000pt" viewBox="0 0 1024.000000 1024.000000"
 preserveAspectRatio="xMidYMid meet">
<metadata>
Created by potrace 1.16, written by Peter Selinger 2001-2019
</metadata>
<g transform="translate(0.000000,1024.000000) scale(0.100000,-0.100000)"
fill="#000000" stroke="none">
<path d="M5175 7154 c-233 -36 -625 -132 -881 -215 -595 -194 -904 -399 -969
-646 -19 -72 -23 -495 -6 -673 31 -318 109 -708 151 -750 20 -20 62 -16 81 6
14 17 9 52 -34 249 -68 303 -90 512 -91 855 -1 290 2 308 68 397 167 227 782
481 1506 622 261 51 327 56 412 36 297 -72 820 -398 899 -561 22 -46 22 -51
16 -328 -6 -261 -15 -385 -48 -655 -12 -103 -12 -104 10 -123 29 -23 43 -23
70 0 39 32 78 373 88 762 8 349 -5 400 -133 527 -176 175 -512 376 -776 465
-80 26 -110 31 -213 33 -66 2 -133 1 -150 -1z"/>
<path d="M4945 6861 c-45 -11 -70 -27 -99 -61 -39 -47 -52 -102 -37 -157 25
-94 81 -133 116 -79 15 22 14 27 -7 70 -38 80 -3 126 98 126 27 0 55 5 62 12
16 16 15 63 -2 77 -17 15 -94 22 -131 12z"/>
<path d="M5405 6473 c-33 -1 -163 -7 -290 -13 -316 -15 -767 -46 -1090 -75
-357 -33 -443 -45 -461 -62 -20 -20 -17 -67 5 -87 17 -15 28 -16 97 -7 197 26
929 84 1334 106 382 20 907 34 1056 28 149 -7 166 0 162 60 -2 34 -7 42 -28
48 -24 7 -658 8 -785 2z"/>
<path d="M5928 6116 c-63 -23 -85 -43 -113 -101 -52 -106 -15 -213 92 -262 89
-41 172 -20 237 60 26 33 31 48 34 105 2 55 -1 74 -20 107 -47 81 -149 121
-230 91z m111 -111 c56 -28 63 -106 14 -144 -36 -29 -77 -35 -112 -17 -60 31
-70 99 -22 147 33 33 75 38 120 14z"/>
<path d="M4015 5954 c-63 -22 -111 -68 -146 -139 -28 -57 -31 -72 -27 -132 4
-82 30 -126 92 -154 150 -68 326 67 326 251 0 85 -28 136 -90 168 -50 25 -97
27 -155 6z m130 -115 c30 -29 26 -104 -8 -153 -62 -93 -155 -104 -198 -24 -26
48 27 154 93 187 48 24 82 21 113 -10z"/>
<path d="M5623 5531 c-56 -26 -95 -86 -101 -154 -5 -63 13 -86 55 -71 19 7 29
21 40 56 14 50 43 78 80 78 22 0 38 -12 75 -58 23 -29 54 -28 74 2 14 23 14
28 -4 69 -36 80 -137 117 -219 78z"/>
<path d="M5735 5259 c-770 -158 -1167 -230 -1720 -310 -192 -28 -356 -56 -362
-61 -22 -18 -16 -76 10 -92 20 -13 48 -11 267 19 469 65 920 143 1545 269 633
128 678 137 703 152 45 29 17 106 -39 103 -13 -1 -195 -37 -404 -80z"/>
</g>
</svg>
