<?xml version="1.0" standalone="no"?>
<!DOCTYPE svg PUBLIC "-//W3C//DTD SVG 20010904//EN"
 "http://www.w3.org/TR/2001/REC-SVG-20010904/DTD/svg10.dtd">
<svg version="1.0" xmlns="http://www.w3.org/2000/svg"
 width="2048.000000pt" height="2048.000000pt" viewBox="0 0 2048.000000 2048.000000"
 preserveAspectRatio="xMidYMid meet">
<metadata>
Created by potrace 1.16, written by Peter Selinger 2001-2019
</metadata>
<g transform="translate(0.000000,2048.000000) scale(0.100000,-0.100000)"
fill="#000000" stroke="none">
<path d="M12809 18290 c-423 -50 -789 -382 -1076 -978 -357 -742 -599 -1798
-767 -3352 -57 -525 -78 -773 -120 -1405 -47 -701 -63 -1181 -63 -1905 0
-1270 55 -1729 227 -1901 92 -92 282 -157 523 -179 192 -17 187 -16 187 -52 0
-16 -22 -197 -50 -402 -236 -1763 -341 -2955 -353 -4026 -8 -698 33 -1166 122
-1396 98 -251 326 -405 694 -469 151 -26 424 -36 639 -25 676 37 977 143 1103
390 80 158 141 442 160 745 3 55 8 120 11 145 8 89 4 820 -6 1030 -29 598 -76
1435 -105 1860 -8 118 -30 469 -50 780 -19 311 -51 822 -71 1135 l-35 570 12
1010 c8 706 9 1358 3 2165 -11 1456 -11 2408 0 3830 6 836 6 1169 -3 1295 -34
493 -123 769 -304 946 -157 155 -398 221 -678 189z m270 -436 c30 -9 69 -30
92 -51 72 -65 132 -223 158 -414 30 -224 33 -444 22 -1959 -6 -833 -13 -2614
-14 -3957 -1 -1612 -5 -2445 -12 -2451 -11 -11 -1042 -38 -1380 -36 -244 1
-447 17 -527 40 -63 19 -112 65 -127 119 -37 131 -67 437 -80 830 -9 247 -6
1081 4 1390 12 338 46 1044 60 1240 3 39 12 167 20 285 38 529 124 1356 190
1810 47 322 129 777 185 1025 21 94 46 204 55 245 9 41 37 147 61 235 274
1007 629 1573 1039 1655 69 14 198 11 254 -6z m247 -9302 c7 -4 19 -177 33
-502 12 -272 29 -616 37 -765 8 -148 19 -358 24 -465 6 -107 24 -433 40 -725
78 -1390 93 -1807 87 -2320 -5 -426 -17 -600 -52 -753 -17 -73 -48 -147 -72
-174 -55 -61 -376 -114 -743 -122 -375 -9 -640 39 -720 130 -36 42 -56 105
-80 264 -35 225 -44 417 -43 900 0 553 16 940 68 1655 35 476 65 832 130 1525
58 619 106 1150 112 1232 3 43 11 82 17 87 9 7 411 23 901 34 55 2 134 4 175
5 41 1 80 -2 86 -6z"/>
<path d="M12369 16927 c-44 -29 -74 -92 -155 -319 -132 -370 -231 -743 -343
-1304 -183 -910 -301 -1948 -371 -3274 -18 -327 -24 -1258 -11 -1561 17 -392
30 -494 68 -540 33 -38 79 -40 114 -3 l24 26 6 866 c4 477 9 908 13 957 3 50
11 187 16 305 48 999 168 2122 320 2988 111 627 209 1038 386 1610 52 170 56
221 18 251 -34 26 -43 26 -85 -2z"/>
<path d="M8141 18025 c-83 -23 -147 -63 -209 -130 -189 -201 -247 -529 -282
-1585 -47 -1428 -65 -1739 -114 -1983 -25 -122 -58 -203 -89 -221 -41 -24 -84
71 -115 255 -14 88 -17 170 -16 544 0 496 3 538 100 1710 8 105 18 323 21 485
6 327 -6 460 -52 587 -132 364 -525 357 -744 -14 -206 -347 -394 -1243 -490
-2333 -36 -399 -45 -625 -45 -1110 0 -847 49 -1292 189 -1715 42 -128 144
-340 211 -440 184 -274 454 -490 817 -652 67 -30 125 -57 129 -61 28 -29 -91
-1541 -212 -2691 -58 -549 -124 -1222 -155 -1576 -54 -621 -116 -1596 -130
-2045 -4 -107 -8 -208 -11 -225 -9 -64 -13 -1260 -4 -1420 32 -593 107 -826
318 -986 123 -93 269 -148 506 -191 108 -20 155 -23 431 -23 343 0 447 10 673
66 213 52 348 122 448 231 144 159 225 454 269 983 33 401 43 1386 20 1820 -3
44 -9 193 -15 330 -37 868 -143 2064 -296 3345 -19 162 -64 536 -99 830 -91
769 -121 1085 -132 1416 l-6 190 119 60 c543 274 853 692 1028 1389 103 413
140 826 140 1555 0 624 -21 1046 -80 1640 -87 871 -195 1429 -327 1685 -53
101 -149 204 -225 242 -53 26 -66 28 -177 28 -117 0 -121 -1 -182 -34 -237
-128 -301 -398 -274 -1151 19 -524 30 -803 36 -915 10 -205 7 -1096 -5 -1235
-14 -169 -43 -340 -71 -422 -22 -65 -53 -118 -70 -118 -20 0 -59 110 -74 206
-13 94 -28 249 -40 434 -3 47 -7 411 -10 810 -6 867 -11 1106 -30 1390 -29
421 -75 657 -158 815 -47 89 -148 187 -222 215 -77 30 -216 37 -294 15z m167
-368 c22 -17 48 -77 66 -147 51 -209 84 -874 87 -1800 5 -1271 52 -1620 244
-1815 186 -189 486 -126 622 131 90 172 137 419 164 879 13 215 7 1039 -11
1410 -36 779 -37 1055 -6 1191 21 87 35 109 64 100 108 -35 251 -849 321
-1836 41 -561 45 -702 46 -1345 0 -661 -4 -748 -46 -1067 -75 -566 -232 -949
-504 -1223 -115 -117 -204 -178 -427 -295 -187 -98 -227 -130 -267 -213 -48
-99 -55 -161 -55 -482 0 -446 20 -680 204 -2350 59 -537 101 -953 150 -1480
54 -597 111 -1488 131 -2084 13 -387 7 -1305 -10 -1551 -33 -464 -79 -724
-142 -804 -60 -76 -309 -134 -644 -151 -223 -12 -540 25 -655 76 -190 84 -222
293 -219 1447 4 1261 37 2047 134 3137 8 88 26 293 40 455 27 309 38 429 110
1215 91 984 132 1582 139 2000 7 367 -11 493 -81 575 -39 45 -75 65 -250 140
-379 163 -614 376 -769 697 -116 240 -189 571 -223 1003 -56 709 -24 1635 85
2440 91 679 193 1148 315 1460 56 143 81 182 101 162 18 -18 23 -412 9 -647
-7 -99 -25 -380 -41 -625 -77 -1174 -81 -1694 -15 -2013 36 -169 99 -309 175
-387 153 -157 407 -155 565 4 169 170 243 544 280 1401 3 72 7 177 10 235 11
247 16 390 30 820 26 791 56 1106 116 1248 41 96 104 132 157 89z"/>
</g>
</svg>
