<?xml version="1.0" standalone="no"?>
<!DOCTYPE svg PUBLIC "-//W3C//DTD SVG 20010904//EN"
 "http://www.w3.org/TR/2001/REC-SVG-20010904/DTD/svg10.dtd">
<svg version="1.0" xmlns="http://www.w3.org/2000/svg"
 width="1024.000000pt" height="1024.000000pt" viewBox="0 0 1024.000000 1024.000000"
 preserveAspectRatio="xMidYMid meet">
<metadata>
Created by potrace 1.16, written by Peter Selinger 2001-2019
</metadata>
<g transform="translate(0.000000,1024.000000) scale(0.100000,-0.100000)"
fill="#000000" stroke="none">
<path d="M4970 7460 c-25 -25 -25 -30 1 -80 42 -81 13 -180 -97 -332 -37 -51
-78 -116 -91 -145 -68 -147 -66 -350 3 -433 30 -35 65 -39 94 -10 25 25 25 36
-2 85 -19 33 -23 55 -22 125 1 108 25 172 110 294 108 154 144 242 144 349 0
129 -77 210 -140 147z"/>
<path d="M4180 7000 c-19 -19 -25 -53 -21 -110 3 -44 33 -112 83 -188 68 -105
79 -152 52 -217 -13 -33 -13 -39 0 -60 21 -33 52 -40 82 -20 34 22 46 57 47
135 1 91 -15 136 -85 240 -62 92 -72 123 -54 177 6 15 2 27 -13 42 -26 26 -65
27 -91 1z"/>
<path d="M5745 6970 c-170 -23 -311 -113 -421 -267 -79 -110 -139 -266 -159
-415 l-6 -48 -347 0 c-790 0 -1271 -50 -1463 -151 -65 -35 -81 -60 -102 -154
-67 -303 12 -786 189 -1155 62 -130 173 -299 268 -410 35 -41 64 -76 63 -76
-1 -1 -63 -9 -137 -18 -534 -66 -882 -165 -1017 -289 -53 -48 -73 -89 -73
-147 0 -141 173 -244 560 -333 901 -208 2289 -204 3420 9 642 121 920 251 920
429 0 73 -61 150 -158 199 -160 81 -471 153 -820 191 -81 9 -149 18 -151 20
-2 2 30 48 71 102 213 283 335 567 405 943 25 136 25 459 0 549 -10 35 -25 75
-34 88 -29 45 -152 95 -300 124 -35 6 -63 14 -63 18 0 3 12 42 26 86 14 43 30
125 36 181 10 86 9 114 -5 184 -26 133 -66 179 -197 221 -36 12 -99 36 -141
55 -129 58 -251 79 -364 64z m200 -134 c28 -8 79 -27 115 -43 36 -17 83 -35
105 -42 91 -28 134 -53 151 -90 42 -87 22 -280 -46 -455 -38 -97 -136 -263
-176 -298 -22 -19 -161 -34 -404 -44 l-155 -7 -22 59 c-12 33 -25 71 -28 86
-9 36 -28 50 -62 46 -24 -3 -28 -8 -31 -39 -2 -22 6 -58 22 -93 27 -61 23 -71
-26 -64 -18 2 -30 19 -56 79 -44 104 -56 174 -48 294 7 125 26 196 81 310 72
149 183 254 313 296 69 22 196 24 267 5z m-771 -803 c10 -49 26 -108 37 -132
10 -24 18 -46 16 -48 -2 -2 -147 -3 -321 -3 -594 0 -1101 38 -1356 101 -85 21
-126 37 -117 45 11 12 154 46 262 64 240 38 573 56 1091 58 l371 2 17 -87z
m1336 -10 c85 -24 97 -29 89 -37 -16 -16 -336 -82 -346 -72 -3 3 7 19 21 37
15 17 36 49 47 70 19 38 20 39 62 33 23 -4 80 -18 127 -31z m179 -326 c2 -366
-139 -794 -368 -1117 l-46 -65 -5 102 c-5 100 -6 104 -38 135 l-32 33 -130 3
-130 4 0 251 c0 139 3 356 7 483 l6 231 157 16 c214 23 388 54 484 86 l81 27
7 -36 c4 -19 7 -88 7 -153z m-3232 154 c206 -67 641 -110 1283 -127 234 -6
835 8 1008 22 l72 7 -2 -484 -3 -484 -130 -6 c-142 -6 -173 -16 -200 -70 -14
-26 -31 -306 -38 -628 l-2 -105 -30 -8 c-167 -47 -473 -66 -640 -39 -316 50
-563 159 -802 353 -345 281 -588 787 -623 1302 -10 140 -4 296 11 296 4 0 47
-13 96 -29z m2687 -1563 c-4 -211 -10 -390 -15 -399 -9 -18 -114 -26 -414 -31
l-140 -3 -3 165 c-3 178 12 617 21 626 5 5 267 17 495 22 l63 2 -7 -382z m401
-84 c509 -69 822 -188 766 -292 -38 -71 -298 -168 -662 -246 -1034 -221 -2459
-251 -3383 -70 -376 74 -606 170 -606 254 0 27 65 79 145 116 180 83 573 166
969 205 117 11 118 11 150 -12 151 -114 360 -225 523 -279 318 -105 653 -117
976 -35 21 6 27 4 27 -9 0 -31 30 -75 61 -91 27 -14 63 -15 337 -5 333 13 342
14 386 73 19 26 21 44 24 224 l4 196 86 -7 c48 -4 137 -14 197 -22z"/>
<path d="M5673 6710 c-126 -63 -245 -224 -275 -373 -14 -65 -6 -90 31 -95 32
-5 48 12 55 61 21 131 152 300 256 331 73 22 88 48 50 86 -27 27 -46 25 -117
-10z"/>
<path d="M6126 6665 c-24 -24 -20 -52 10 -72 15 -9 38 -41 50 -70 21 -46 27
-53 53 -53 47 0 57 22 38 83 -28 88 -112 150 -151 112z"/>
<path d="M5917 6628 c-24 -19 -277 -610 -277 -649 0 -28 45 -54 73 -42 25 12
115 200 229 480 68 168 70 173 54 198 -18 27 -52 33 -79 13z"/>
<path d="M6123 6348 c-6 -7 -13 -32 -16 -56 -7 -55 -65 -177 -106 -224 -35
-40 -38 -59 -15 -82 23 -24 40 -20 84 20 75 68 155 282 124 332 -14 21 -57 27
-71 10z"/>
<path d="M6432 5588 c-13 -13 -16 -57 -4 -74 14 -21 45 -25 69 -9 20 13 24 23
21 53 -3 34 -6 37 -38 40 -19 2 -41 -3 -48 -10z"/>
<path d="M6353 5318 c-23 -30 -23 -49 2 -73 24 -25 43 -25 73 -2 15 12 16 59
0 75 -16 16 -63 15 -75 0z"/>
<path d="M6262 5095 c-24 -18 -30 -63 -10 -83 21 -21 66 -14 83 12 12 18 13
30 6 50 -6 14 -15 26 -20 26 -5 0 -15 2 -23 5 -7 3 -23 -2 -36 -10z"/>
<path d="M3484 5656 c-13 -22 -14 -29 -2 -53 26 -54 98 -38 98 22 0 56 -65 77
-96 31z"/>
<path d="M3522 5434 c-31 -22 -27 -74 7 -91 59 -29 112 54 59 91 -28 20 -38
20 -66 0z"/>
<path d="M3576 5188 c-21 -29 -20 -51 2 -71 37 -34 92 -11 92 38 0 52 -65 74
-94 33z"/>
<path d="M3670 4970 c-11 -11 -20 -27 -20 -35 0 -21 36 -55 58 -55 24 0 52 31
52 57 0 23 -30 53 -53 53 -9 0 -26 -9 -37 -20z"/>
<path d="M3792 4768 c-7 -7 -12 -24 -12 -38 0 -34 17 -50 52 -50 48 0 72 66
34 92 -17 12 -61 9 -74 -4z"/>
<path d="M3922 4588 c-15 -15 -16 -60 0 -76 19 -19 63 -14 84 9 17 19 17 23 3
47 -16 30 -65 42 -87 20z"/>
<path d="M4092 4434 c-24 -17 -30 -62 -10 -82 37 -37 113 12 88 57 -9 17 -39
41 -52 41 -2 0 -14 -7 -26 -16z"/>
<path d="M4282 4304 c-24 -17 -30 -62 -10 -82 7 -7 24 -12 38 -12 33 0 50 17
50 51 0 24 -30 59 -50 59 -3 0 -16 -7 -28 -16z"/>
<path d="M4482 4208 c-30 -30 -2 -88 42 -88 26 0 56 28 56 53 0 39 -69 64 -98
35z"/>
</g>
</svg>
