<?xml version="1.0" standalone="no"?>
<!DOCTYPE svg PUBLIC "-//W3C//DTD SVG 20010904//EN"
 "http://www.w3.org/TR/2001/REC-SVG-20010904/DTD/svg10.dtd">
<svg version="1.0" xmlns="http://www.w3.org/2000/svg"
 width="1024.000000pt" height="1024.000000pt" viewBox="0 0 1024.000000 1024.000000"
 preserveAspectRatio="xMidYMid meet">
<metadata>
Created by potrace 1.16, written by Peter Selinger 2001-2019
</metadata>
<g transform="translate(0.000000,1024.000000) scale(0.100000,-0.100000)"
fill="#000000" stroke="none">
<path d="M5075 8826 c-122 -24 -266 -91 -282 -132 -7 -19 20 -149 98 -474 78
-322 150 -642 146 -646 -2 -2 -59 -8 -128 -14 -776 -63 -1527 -495 -1951
-1121 -612 -902 -608 -2169 10 -3254 51 -90 135 -219 265 -407 148 -214 182
-299 198 -498 11 -147 27 -208 69 -272 88 -132 247 -178 490 -143 63 9 207 18
320 20 430 10 785 68 1128 186 490 169 951 467 1275 824 318 351 569 802 696
1254 81 285 118 515 128 796 17 478 -77 934 -272 1321 -46 90 -80 164 -76 164
3 0 168 -80 366 -178 662 -328 660 -328 712 -276 25 25 26 29 20 107 -6 88
-123 737 -162 902 -89 378 -228 652 -443 870 -446 456 -1172 546 -1727 216
-128 -76 -233 -161 -369 -300 -60 -61 -110 -110 -112 -108 -2 1 1 34 7 72 23
165 89 692 104 830 l15 150 -22 19 c-96 79 -339 124 -503 92z m260 -210 c31
-9 41 -17 43 -37 2 -13 -22 -220 -52 -459 -70 -544 -68 -530 -75 -530 -3 0
-19 57 -34 128 -51 232 -156 686 -181 780 l-24 94 35 14 c76 32 195 36 288 10z
m1579 -572 c171 -35 361 -118 486 -213 88 -66 216 -201 277 -292 102 -151 176
-324 234 -549 32 -122 139 -677 139 -719 0 -35 -4 -29 -125 164 -129 205 -279
423 -389 564 -100 129 -293 324 -406 413 -227 176 -500 306 -755 357 -126 26
-298 36 -395 23 -41 -5 -76 -8 -78 -7 -6 5 97 78 172 123 226 136 572 192 840
136z m-567 -355 c251 -48 519 -176 743 -354 216 -172 395 -383 649 -765 152
-229 172 -262 168 -267 -2 -2 -137 63 -298 144 -162 81 -391 195 -509 253
-185 89 -224 113 -281 165 -280 260 -686 478 -1091 586 -71 19 -128 36 -128
39 0 3 42 49 93 101 l92 96 90 12 c50 6 101 13 115 15 51 9 258 -6 357 -25z
m-1487 -369 c7 -17 32 -46 55 -65 151 -124 421 -126 582 -4 l54 40 97 -25
c555 -143 1033 -465 1313 -883 173 -259 278 -538 340 -898 27 -154 38 -560 19
-728 -97 -900 -563 -1693 -1268 -2159 -500 -330 -1032 -489 -1687 -504 -139
-3 -286 -13 -372 -25 -204 -27 -286 -11 -334 68 -19 31 -24 57 -31 162 -14
239 -65 365 -263 649 -138 199 -220 332 -289 469 -199 398 -311 766 -356 1178
-15 140 -12 496 5 632 83 631 359 1164 800 1541 334 286 753 486 1180 562 139
25 140 25 155 -10z"/>
<path d="M3834 6678 c-34 -8 -117 -91 -196 -194 -150 -195 -293 -515 -343
-769 -21 -102 -16 -135 22 -171 19 -18 37 -24 69 -24 78 0 115 33 129 115 23
137 108 376 182 513 51 95 154 241 220 312 29 32 57 69 62 83 31 82 -53 160
-145 135z"/>
</g>
</svg>
