<?xml version="1.0" standalone="no"?>
<!DOCTYPE svg PUBLIC "-//W3C//DTD SVG 20010904//EN"
 "http://www.w3.org/TR/2001/REC-SVG-20010904/DTD/svg10.dtd">
<svg version="1.0" xmlns="http://www.w3.org/2000/svg"
 width="1024.000000pt" height="1024.000000pt" viewBox="0 0 1024.000000 1024.000000"
 preserveAspectRatio="xMidYMid meet">
<metadata>
Created by potrace 1.16, written by Peter Selinger 2001-2019
</metadata>
<g transform="translate(0.000000,1024.000000) scale(0.100000,-0.100000)"
fill="#000000" stroke="none">
<path d="M5250 7319 c-275 -26 -528 -171 -654 -375 l-37 -62 -57 15 c-87 23
-275 13 -371 -20 -118 -41 -221 -121 -232 -180 -3 -11 -20 -24 -42 -32 -47
-16 -83 -48 -107 -96 -18 -35 -52 -190 -65 -300 -7 -54 -9 -58 -58 -90 -172
-113 -129 -370 71 -430 23 -7 42 -13 42 -15 0 -1 16 -78 35 -171 19 -92 95
-469 170 -838 131 -643 249 -1216 281 -1356 21 -91 37 -104 169 -134 197 -44
357 -59 640 -59 282 0 450 15 672 59 167 34 190 46 208 109 21 77 132 632 403
2030 l77 398 45 18 c105 41 173 136 173 240 0 92 -38 158 -129 220 l-40 28
-18 118 c-31 207 -64 281 -142 315 -38 17 -43 24 -54 69 -13 53 -65 148 -108
194 -38 41 -134 102 -201 127 -31 12 -91 27 -135 33 -78 12 -78 12 -91 49 -17
48 -30 64 -77 88 -82 42 -230 61 -368 48z m258 -164 c23 -9 42 -20 42 -24 0
-3 -28 -14 -63 -24 -124 -36 -252 -128 -283 -202 -19 -46 -18 -61 6 -85 34
-34 68 -26 125 33 101 102 276 161 420 140 84 -12 184 -55 239 -103 62 -55
119 -170 84 -170 -7 0 -83 -9 -168 -20 -360 -46 -513 -55 -1020 -55 -323 0
-540 5 -650 14 -91 7 -167 15 -170 18 -8 8 31 32 88 53 133 50 298 47 389 -6
23 -13 51 -24 62 -24 30 0 58 32 71 82 47 175 274 342 528 388 76 14 251 5
300 -15z m697 -567 c40 -18 53 -53 81 -225 14 -87 32 -168 40 -180 8 -13 32
-32 53 -42 133 -68 119 -187 -27 -231 -141 -42 -442 -86 -827 -122 -215 -20
-930 -17 -1165 5 -333 32 -613 81 -660 116 -62 46 -44 134 37 175 27 13 54 31
61 38 6 8 18 61 27 119 46 315 46 314 220 293 444 -53 1068 -57 1585 -8 203
19 527 62 547 73 1 1 14 -4 28 -11z m29 -856 c3 -5 1 -26 -4 -48 -5 -21 -27
-131 -49 -244 -156 -808 -388 -1992 -397 -2022 -6 -22 -47 -33 -210 -57 -366
-56 -824 -51 -1134 12 l-65 13 -17 69 c-53 226 -463 2244 -456 2250 2 2 59 -5
128 -15 595 -87 1321 -85 1945 6 94 13 186 28 205 33 48 12 48 12 54 3z"/>
<path d="M6020 6448 c-100 -19 -468 -59 -685 -74 -260 -18 -773 -13 -1015 10
-113 11 -139 11 -157 -1 -24 -14 -29 -38 -14 -62 19 -30 251 -45 731 -45 529
-1 678 9 1140 80 59 9 92 30 88 56 -5 33 -36 46 -88 36z"/>
<path d="M6070 6095 c-36 -8 -82 -16 -102 -20 -47 -7 -62 -45 -31 -76 19 -19
20 -19 129 1 105 20 134 34 134 66 0 18 -29 44 -48 43 -9 -1 -46 -7 -82 -14z"/>
<path d="M3917 6072 c-24 -27 -21 -61 6 -72 59 -24 398 -62 722 -81 268 -15
747 -2 978 27 51 6 83 36 71 67 -10 26 -36 29 -171 15 -176 -18 -952 -18
-1133 0 -141 14 -414 49 -441 58 -9 2 -23 -4 -32 -14z"/>
</g>
</svg>
