<?xml version="1.0" standalone="no"?>
<!DOCTYPE svg PUBLIC "-//W3C//DTD SVG 20010904//EN"
 "http://www.w3.org/TR/2001/REC-SVG-20010904/DTD/svg10.dtd">
<svg version="1.0" xmlns="http://www.w3.org/2000/svg"
 width="2048.000000pt" height="2048.000000pt" viewBox="0 0 2048.000000 2048.000000"
 preserveAspectRatio="xMidYMid meet">
<metadata>
Created by potrace 1.16, written by Peter Selinger 2001-2019
</metadata>
<g transform="translate(0.000000,2048.000000) scale(0.100000,-0.100000)"
fill="#000000" stroke="none">
<path d="M13221 16289 c-470 -42 -898 -151 -1387 -355 -1062 -442 -2079 -1313
-2789 -2389 -447 -678 -740 -1326 -1005 -2221 -112 -380 -143 -465 -241 -665
-242 -494 -567 -924 -894 -1186 -159 -128 -236 -215 -294 -335 -60 -122 -80
-194 -88 -308 -6 -101 16 -244 52 -334 13 -33 23 -61 22 -62 -1 -1 -139 -94
-307 -206 -372 -248 -648 -415 -934 -562 l-108 -56 -34 29 c-133 118 -374 231
-586 278 -118 25 -428 25 -548 0 -498 -106 -855 -411 -998 -852 -44 -134 -57
-223 -56 -380 4 -474 247 -855 679 -1066 140 -68 256 -104 411 -127 l111 -16
-1 -161 c-1 -295 70 -512 236 -722 183 -232 495 -382 863 -415 294 -26 592 46
827 202 282 186 460 471 515 825 25 168 7 434 -42 581 -7 22 30 50 375 286
184 125 858 548 874 548 2 0 23 -29 46 -65 59 -90 167 -188 254 -230 102 -49
192 -68 316 -68 135 1 197 16 445 114 445 174 798 261 1270 313 250 28 392 36
905 51 535 16 838 34 1140 66 868 92 1548 272 2268 600 1001 457 1763 1107
2284 1946 277 448 485 1006 578 1548 57 336 65 439 64 830 0 395 -11 520 -75
904 -133 796 -494 1625 -962 2214 -653 820 -1478 1300 -2457 1428 -179 23
-564 33 -729 18z m619 -434 c331 -35 613 -111 928 -250 603 -266 1141 -739
1520 -1336 420 -661 661 -1398 723 -2209 15 -194 6 -636 -15 -815 -76 -621
-256 -1164 -543 -1645 -387 -648 -928 -1165 -1656 -1584 -315 -181 -604 -313
-983 -447 -224 -79 -334 -112 -579 -172 -611 -151 -1126 -212 -2000 -237 -995
-28 -1311 -61 -1810 -187 -207 -52 -395 -112 -662 -214 -248 -94 -322 -101
-413 -40 -42 28 -100 102 -100 127 0 10 32 12 143 11 121 -2 148 1 179 16 117
58 159 183 100 297 -40 78 -97 108 -232 119 -122 11 -187 39 -250 107 -53 57
-86 130 -100 219 -23 139 8 281 106 485 68 145 77 189 50 253 -17 41 -74 91
-122 107 -65 22 -134 7 -232 -49 -105 -61 -177 -87 -274 -101 -287 -42 -609
168 -658 429 -12 64 -5 119 25 187 29 66 72 113 220 239 270 230 565 570 714
823 24 39 47 72 51 72 4 0 -3 -42 -16 -92 -13 -51 -24 -102 -24 -112 0 -29 39
-66 70 -66 44 0 65 36 95 160 81 333 279 1034 412 1455 269 854 652 1614 1127
2235 857 1122 1973 1891 3111 2144 148 33 388 71 495 79 130 10 479 5 600 -8z
m-6894 -7770 c29 -19 75 -47 103 -61 52 -26 62 -38 37 -47 -32 -12 -423 -271
-443 -293 -46 -50 -17 -124 49 -124 24 0 81 32 232 132 111 73 239 159 285
191 l83 58 97 -16 c59 -10 136 -16 201 -14 86 3 104 0 102 -11 -2 -8 -7 -56
-11 -108 -9 -108 1 -247 25 -336 23 -86 87 -220 134 -283 l40 -52 -22 -12
c-32 -17 -562 -350 -878 -552 -405 -259 -744 -492 -784 -538 -23 -28 -39 -58
-45 -93 -12 -58 -6 -93 32 -182 91 -214 98 -417 24 -635 -45 -130 -86 -198
-177 -289 -91 -91 -195 -149 -338 -187 -86 -23 -116 -26 -262 -26 -195 -1
-269 15 -418 89 -75 37 -109 61 -170 123 -85 85 -118 138 -157 255 -49 147
-44 314 15 499 16 52 30 114 30 138 0 68 -38 139 -95 177 -63 42 -99 47 -206
32 -193 -28 -384 5 -563 98 -74 38 -109 64 -186 142 -107 107 -148 170 -194
297 -30 84 -31 94 -31 243 0 148 2 159 31 242 58 162 166 304 302 396 124 85
260 141 396 162 109 18 331 8 421 -19 148 -44 290 -128 410 -242 70 -66 107
-87 169 -95 72 -10 126 10 365 138 389 208 844 494 1261 791 36 25 69 46 74
47 5 0 33 -16 62 -35z"/>
<path d="M12825 15194 c-603 -86 -1100 -314 -1705 -783 -179 -138 -230 -189
-230 -229 0 -42 30 -72 74 -72 28 0 52 15 135 84 663 557 1349 856 1965 856
178 0 316 -19 480 -66 66 -19 131 -32 143 -29 54 13 67 97 20 130 -30 21 -129
51 -267 82 -101 22 -143 25 -350 28 -129 2 -248 1 -265 -1z"/>
<path d="M16381 11264 c-17 -22 -21 -41 -21 -105 0 -217 -78 -588 -174 -827
-160 -398 -417 -770 -757 -1097 -232 -222 -512 -440 -769 -600 -156 -97 -174
-114 -174 -160 0 -44 30 -75 74 -75 51 0 405 235 660 439 170 135 502 462 616
606 320 403 504 768 610 1214 36 150 65 358 67 481 2 94 -1 110 -17 129 -29
32 -88 29 -115 -5z"/>
<path d="M9525 10547 c-79 -41 -184 -147 -218 -217 -99 -206 -65 -463 82 -610
52 -52 165 -114 228 -126 72 -14 127 39 102 97 -9 22 -27 34 -83 55 -87 34
-164 102 -203 183 -25 50 -28 67 -28 156 0 89 3 106 28 157 35 71 103 141 171
175 97 48 121 96 73 141 -33 31 -81 28 -152 -11z"/>
<path d="M10186 8957 c-13 -13 -34 -50 -47 -83 -20 -50 -23 -77 -24 -180 l0
-121 40 -79 c71 -140 193 -208 370 -207 104 1 163 12 259 50 51 20 71 24 74
15 10 -30 84 -111 127 -140 93 -62 148 -77 275 -76 96 0 125 4 173 23 165 65
310 223 283 309 -8 25 -58 46 -89 38 -13 -3 -40 -29 -61 -61 -46 -65 -134
-128 -214 -151 -156 -46 -326 37 -391 188 -34 81 -77 87 -184 29 -92 -50 -171
-73 -257 -73 -200 -2 -307 174 -227 373 34 82 34 113 2 144 -31 32 -78 33
-109 2z"/>
<path d="M4255 7269 c-137 -20 -252 -76 -346 -169 -103 -101 -149 -217 -149
-375 0 -86 18 -115 70 -115 47 0 67 28 75 107 13 148 41 210 125 286 93 84
191 117 348 117 115 0 142 13 142 69 0 78 -90 105 -265 80z"/>
<path d="M4960 5190 c-30 -30 -26 -83 10 -135 147 -214 483 -287 752 -164 111
52 146 112 93 164 -32 33 -46 32 -128 -11 -88 -45 -191 -68 -275 -60 -120 12
-246 73 -301 145 -49 65 -69 81 -101 81 -17 0 -39 -9 -50 -20z"/>
</g>
</svg>
