<?xml version="1.0" standalone="no"?>
<!DOCTYPE svg PUBLIC "-//W3C//DTD SVG 20010904//EN"
 "http://www.w3.org/TR/2001/REC-SVG-20010904/DTD/svg10.dtd">
<svg version="1.0" xmlns="http://www.w3.org/2000/svg"
 width="2048.000000pt" height="2048.000000pt" viewBox="0 0 2048.000000 2048.000000"
 preserveAspectRatio="xMidYMid meet">
<metadata>
Created by potrace 1.16, written by Peter Selinger 2001-2019
</metadata>
<g transform="translate(0.000000,2048.000000) scale(0.100000,-0.100000)"
fill="#000000" stroke="none">
<path d="M9950 18254 c-1671 -153 -3108 -1068 -3937 -2508 -192 -334 -382
-802 -472 -1161 -278 -1111 -167 -2222 324 -3250 161 -339 358 -645 604 -940
106 -127 486 -505 611 -606 586 -477 1191 -783 1882 -954 171 -43 376 -84 498
-102 l55 -8 1 -1480 c1 -814 4 -1565 7 -1670 4 -104 9 -368 12 -585 20 -1509
28 -1803 50 -1965 64 -459 325 -740 744 -796 142 -19 330 20 456 96 283 171
419 489 466 1090 11 141 15 2150 4 2535 -2 102 -7 518 -11 925 -3 407 -7 756
-9 775 -1 19 -6 274 -10 565 l-7 530 193 49 c409 102 637 182 944 330 751 363
1334 882 1842 1641 400 598 701 1384 822 2142 35 219 51 395 57 648 19 698
-105 1325 -386 1961 -419 949 -1159 1708 -2150 2205 -524 262 -1105 435 -1730
515 -120 15 -746 28 -860 18z m675 -474 c576 -49 1201 -228 1735 -498 255
-128 568 -327 734 -466 l50 -41 -120 -12 c-347 -37 -647 -143 -933 -331 -126
-83 -217 -160 -337 -285 -157 -163 -272 -331 -340 -496 -15 -36 -29 -67 -29
-69 -1 -1 -41 16 -88 38 -314 147 -770 218 -1163 179 -389 -37 -851 -198
-1144 -399 l-45 -31 -76 80 c-242 252 -395 647 -425 1098 l-6 101 48 31 c210
133 618 298 938 381 322 82 552 113 861 113 228 0 356 -11 510 -44 49 -10 102
-19 118 -19 36 0 87 49 87 84 0 67 -39 97 -160 120 -181 35 -258 41 -550 41
-329 -1 -436 -11 -715 -70 -355 -74 -656 -176 -994 -336 -68 -33 -125 -58
-127 -57 -1 2 6 45 17 97 24 120 87 308 133 399 l35 70 78 30 c251 96 564 182
859 236 162 29 249 41 444 59 85 8 496 6 605 -3z m-2401 -599 c-33 -128 -53
-250 -60 -373 l-7 -106 -86 -63 c-232 -170 -457 -375 -629 -574 -107 -123
-271 -341 -347 -457 -27 -43 -53 -78 -56 -78 -11 0 -70 164 -96 265 -19 77
-26 136 -30 255 l-6 155 85 95 c233 262 594 568 915 776 112 73 320 194 334
194 3 0 -4 -40 -17 -89z m5120 -716 c60 -8 123 -19 140 -25 48 -15 243 -240
395 -454 141 -199 347 -556 319 -556 -7 0 -54 11 -105 24 -219 58 -537 78
-753 47 -413 -58 -827 -250 -1087 -505 -43 -41 -76 -66 -81 -61 -4 6 -41 49
-80 96 -40 48 -109 120 -155 161 -77 70 -250 208 -285 227 -14 8 -14 15 -3 52
19 65 95 212 153 295 187 272 534 523 871 633 237 77 440 97 671 66z m-5174
-31 c0 -43 39 -261 66 -366 73 -292 237 -615 411 -810 l60 -68 -121 -123
c-134 -135 -257 -297 -343 -451 -31 -56 -57 -103 -59 -105 -2 -2 -45 9 -96 23
-224 64 -471 218 -667 416 -86 87 -231 269 -267 335 l-17 33 98 148 c196 298
372 514 581 713 119 114 322 280 342 281 6 0 12 -12 12 -26z m-1485 -770 c26
-99 79 -240 146 -383 l42 -91 -35 -77 c-50 -110 -144 -357 -179 -471 -77 -251
-136 -533 -119 -576 21 -56 99 -74 145 -33 21 18 30 45 55 159 60 283 113 458
201 670 61 145 55 143 124 56 253 -316 595 -557 933 -657 40 -12 72 -23 72
-24 0 -1 -13 -54 -29 -118 -48 -188 -63 -313 -63 -519 0 -183 16 -349 46 -475
17 -71 19 -68 -96 -155 -264 -200 -657 -320 -1053 -323 -180 -1 -269 9 -427
48 -179 45 -389 154 -511 267 l-58 53 -10 185 c-14 254 -1 512 41 799 96 648
314 1221 664 1741 l70 105 9 -45 c5 -25 20 -86 32 -136z m3820 -144 c432 -30
818 -185 1147 -459 381 -319 625 -757 679 -1224 19 -161 6 -464 -25 -612 -101
-482 -375 -902 -791 -1216 -230 -174 -561 -328 -860 -399 -605 -146 -1115 -45
-1558 309 -43 34 -77 65 -74 67 3 3 45 -6 93 -20 379 -108 818 -106 1165 5
121 38 332 140 431 207 401 273 675 683 760 1140 32 170 31 408 0 550 -61 274
-162 468 -336 644 -174 175 -379 284 -634 335 -121 24 -384 24 -505 0 -623
-125 -1038 -615 -1004 -1183 16 -260 117 -478 302 -652 183 -172 417 -260 660
-249 574 27 946 554 718 1016 -152 308 -619 412 -833 185 -62 -65 -90 -128
-97 -217 -15 -171 98 -341 235 -355 150 -14 208 160 88 265 -31 27 -37 38 -34
64 4 42 43 71 106 77 108 10 229 -56 286 -158 28 -50 31 -63 31 -145 0 -81 -3
-97 -32 -158 -136 -287 -567 -378 -856 -181 -355 243 -394 760 -83 1102 205
225 563 357 873 323 407 -45 710 -302 819 -692 35 -128 44 -359 20 -505 -49
-288 -189 -556 -401 -769 -341 -341 -807 -496 -1295 -431 -234 31 -450 94
-653 189 -81 38 -113 60 -179 124 -121 118 -221 276 -293 463 -223 579 -115
1264 275 1748 86 107 252 273 345 343 318 244 735 413 1125 458 182 21 224 22
385 11z m3409 -320 c141 -30 277 -76 378 -126 l87 -44 45 -142 c106 -338 157
-630 174 -1001 4 -86 5 -157 3 -157 -2 0 -31 22 -65 49 -464 368 -1171 474
-1771 265 -71 -25 -139 -47 -150 -50 -18 -5 -23 7 -53 133 -39 162 -84 285
-159 440 l-54 113 28 37 c15 20 62 65 103 101 247 211 574 354 920 402 112 15
402 4 514 -20z m-163 -1369 c328 -71 598 -230 781 -459 l59 -75 -6 -66 c-32
-323 -113 -687 -235 -1051 -147 -442 -321 -801 -567 -1172 -36 -54 -69 -98
-73 -98 -4 0 -13 36 -19 80 -47 318 -232 710 -469 991 -211 250 -517 474 -779
569 -35 12 -63 27 -63 32 0 4 15 39 34 76 130 260 216 629 216 926 l0 94 103
45 c147 64 265 98 432 123 135 20 461 12 586 -15z m-5546 -1168 c31 -59 81
-141 110 -183 29 -41 85 -127 124 -189 83 -133 84 -118 -12 -229 -265 -305
-715 -518 -1209 -571 -258 -28 -544 3 -781 85 -171 60 -194 75 -227 149 -35
78 -102 258 -142 380 -32 100 -118 439 -118 468 0 18 2 18 37 -3 123 -73 353
-149 558 -186 143 -25 487 -26 644 -1 333 53 645 170 871 327 47 32 86 59 87
59 1 1 27 -47 58 -106z m4136 -385 c301 -117 627 -389 815 -678 193 -298 306
-704 275 -984 l-10 -88 -68 -76 c-226 -254 -459 -455 -748 -649 -125 -83 -335
-206 -342 -200 -3 3 13 50 35 104 193 472 218 1037 67 1491 -49 146 -133 318
-219 447 -64 96 -102 142 -224 277 l-25 27 100 104 c55 57 129 141 163 186 71
91 56 88 181 39z m-3575 -446 c430 -458 1099 -657 1798 -538 118 21 152 23
158 14 15 -25 50 -139 69 -230 26 -123 36 -396 20 -549 -58 -543 -305 -1056
-635 -1318 -62 -49 -66 -51 -127 -51 -87 0 -391 26 -541 45 -636 83 -1303 347
-1844 730 -464 330 -838 720 -1139 1190 -52 81 -78 131 -70 133 7 2 57 -6 111
-17 314 -63 716 -52 1037 30 164 41 369 121 517 202 173 94 378 251 495 380
33 36 62 66 64 66 2 1 41 -39 87 -87z m3001 -166 c356 -372 495 -954 367
-1533 -58 -261 -144 -457 -292 -665 l-55 -77 -136 -45 c-304 -99 -579 -149
-971 -175 -69 -5 -127 -7 -129 -5 -3 3 5 17 17 32 188 234 343 528 426 810
139 467 148 946 25 1316 -16 49 -28 90 -27 91 2 1 39 14 83 30 117 42 397 186
495 254 47 33 90 60 96 60 7 1 52 -41 101 -93z m-1027 -3113 c0 -146 16 -944
25 -1248 5 -180 10 -588 20 -1510 7 -616 7 -2140 0 -2220 -27 -335 -48 -471
-88 -590 -71 -207 -152 -289 -287 -289 -49 -1 -79 6 -120 25 -182 85 -241 234
-254 644 -3 94 -8 305 -11 470 -3 165 -8 428 -11 585 -30 1604 -40 2943 -27
3802 l6 458 321 3 c177 1 345 3 374 5 l52 2 0 -137z"/>
<path d="M10453 8415 c-39 -17 -55 -46 -56 -99 0 -23 1 -508 2 -1078 l1 -1036
26 -31 c41 -49 108 -40 139 19 13 25 15 164 15 1099 l0 1071 -27 29 c-35 37
-60 44 -100 26z"/>
<path d="M10426 5829 c-26 -30 -26 -32 -26 -201 l0 -170 29 -29 c18 -17 40
-29 56 -29 16 0 38 12 56 29 l29 29 0 170 c0 169 0 171 -26 201 -19 23 -34 31
-59 31 -25 0 -40 -8 -59 -31z"/>
</g>
</svg>
