<?xml version="1.0" standalone="no"?>
<!DOCTYPE svg PUBLIC "-//W3C//DTD SVG 20010904//EN"
 "http://www.w3.org/TR/2001/REC-SVG-20010904/DTD/svg10.dtd">
<svg version="1.0" xmlns="http://www.w3.org/2000/svg"
 width="1024.000000pt" height="1024.000000pt" viewBox="0 0 1024.000000 1024.000000"
 preserveAspectRatio="xMidYMid meet">
<metadata>
Created by potrace 1.16, written by Peter Selinger 2001-2019
</metadata>
<g transform="translate(0.000000,1024.000000) scale(0.100000,-0.100000)"
fill="#000000" stroke="none">
<path d="M5020 6590 c-96 -12 -97 -13 -105 -49 -4 -17 -10 -33 -14 -36 -5 -2
-54 -9 -111 -14 l-102 -10 -62 32 c-52 27 -72 31 -136 31 -90 1 -146 -21 -214
-84 l-45 -42 -33 20 c-19 12 -45 33 -58 47 -14 15 -38 34 -54 42 -53 27 -121
-9 -160 -85 l-23 -45 -158 -34 c-86 -19 -206 -49 -265 -67 l-107 -32 -34 23
c-51 35 -88 30 -142 -17 -25 -22 -55 -56 -67 -74 -13 -22 -52 -52 -112 -87
-228 -133 -286 -252 -259 -529 53 -520 321 -994 742 -1308 94 -71 332 -212
356 -212 8 0 13 -13 13 -35 0 -98 95 -165 355 -250 520 -171 1275 -175 1787
-9 256 83 368 159 368 251 0 30 5 35 60 63 207 104 380 231 531 388 209 216
329 412 435 709 65 182 88 315 89 503 0 138 -2 160 -22 202 -47 102 -149 184
-342 276 -64 30 -136 71 -161 89 -40 31 -50 34 -87 29 -26 -3 -58 0 -85 10
-71 25 -312 82 -400 94 -46 7 -104 21 -130 31 -27 11 -65 19 -85 18 -21 -1
-85 5 -143 14 -114 18 -257 32 -417 43 l-102 6 -15 37 c-8 21 -21 43 -29 49
-19 16 -353 25 -457 12z m375 -89 c29 -6 34 -16 113 -215 46 -114 80 -212 75
-216 -4 -4 -24 -10 -43 -14 l-35 -6 -12 50 c-18 74 -50 140 -68 140 -27 0 -29
-30 -6 -127 13 -52 22 -96 20 -97 -2 -2 -17 -10 -34 -19 -72 -36 -192 -161
-210 -218 -10 -30 -22 -23 -43 24 -50 111 -175 186 -313 187 l-36 0 91 253 92
252 34 6 c46 8 337 8 375 0z m-824 -62 c59 -29 121 -90 170 -165 l42 -65 -13
-54 c-7 -30 -14 -55 -16 -55 -1 0 -46 44 -101 98 -79 80 -114 106 -182 140
-46 23 -94 42 -107 42 -29 0 -31 11 -6 33 53 48 148 60 213 26z m-476 -32 l38
-33 -56 -57 c-30 -31 -60 -71 -67 -87 -22 -53 -40 -31 -40 48 1 76 41 162 75
162 6 0 29 -15 50 -33z m757 -22 c-6 -31 -21 -65 -29 -65 -7 0 -36 42 -51 72
-3 6 53 16 73 13 6 -1 9 -10 7 -20z m1003 -6 c159 -16 157 -14 89 -55 -73 -44
-132 -91 -210 -166 l-60 -59 -51 133 c-28 73 -54 142 -58 152 -8 18 -4 19 91
12 54 -3 144 -11 199 -17z m394 -66 c21 -18 21 -18 -45 -52 -46 -24 -99 -66
-168 -133 l-101 -99 -75 22 c-41 12 -76 23 -78 24 -6 5 100 100 157 140 147
105 258 140 310 98z m-2365 -70 c4 -32 18 -81 32 -110 25 -52 25 -53 8 -108
-10 -30 -21 -55 -26 -55 -4 0 -27 9 -50 20 -24 10 -86 38 -138 60 -99 43 -240
125 -240 140 0 11 94 40 240 74 135 32 143 33 156 35 7 1 15 -23 18 -56z m531
28 c33 -15 87 -51 120 -79 60 -50 185 -192 185 -209 0 -5 -23 -20 -51 -34 -51
-23 -52 -23 -66 -4 -111 159 -204 247 -318 304 -77 38 -74 51 15 51 40 0 71
-8 115 -29z m2140 -11 c112 -26 224 -60 230 -69 6 -10 -73 -104 -128 -154 -41
-38 -154 -107 -174 -107 -6 0 -13 47 -17 108 -5 96 -21 181 -42 235 -5 15 -3
17 17 13 13 -3 65 -15 114 -26z m-2359 -36 c132 -58 250 -157 332 -279 l40
-59 -63 -63 c-35 -35 -72 -63 -83 -63 -10 0 -35 18 -57 40 -48 49 -95 67 -134
50 -48 -19 -70 -96 -52 -179 10 -48 9 -51 -24 -101 -19 -29 -35 -58 -35 -66 0
-21 -6 -18 -52 32 -23 25 -68 59 -99 74 l-57 29 9 48 c15 77 67 268 93 336 35
94 106 227 120 227 2 0 30 -12 62 -26z m2165 -40 c16 -66 28 -326 22 -465 -6
-120 -8 -132 -26 -137 -11 -3 -40 -16 -66 -28 -25 -13 -49 -24 -53 -24 -5 0
-8 22 -8 48 0 63 -24 153 -58 216 -14 28 -62 87 -105 130 l-78 79 48 49 c67
69 157 136 228 169 69 33 80 29 96 -37z m-2994 -28 c44 -32 53 -50 29 -59 -8
-3 -32 -41 -53 -83 -36 -74 -38 -83 -38 -174 0 -91 2 -101 35 -166 27 -53 49
-80 97 -118 55 -44 61 -52 49 -65 -8 -9 -23 -35 -35 -58 -12 -24 -26 -43 -32
-43 -52 0 -183 125 -236 226 -60 113 -77 247 -48 372 19 80 46 133 97 188 46
50 39 51 135 -20z m3592 -16 c63 -61 115 -163 132 -263 33 -195 -69 -426 -211
-477 -30 -11 -58 -20 -61 -20 -4 0 -17 16 -29 36 l-21 37 50 46 c33 31 61 70
83 116 29 62 32 79 32 155 -1 71 -5 96 -29 148 -16 35 -44 77 -67 97 l-38 35
47 70 c27 38 51 69 54 70 3 0 29 -22 58 -50z m-3436 -95 c17 -12 18 -19 7 -69
-32 -157 91 -289 254 -272 50 5 57 4 52 -10 -3 -9 -6 -21 -6 -28 0 -9 -22 -15
-68 -18 -50 -4 -86 -14 -136 -38 l-67 -33 -56 39 c-80 55 -113 119 -113 219 0
84 12 124 53 183 32 44 50 50 80 27z m3697 -33 c120 -78 190 -161 190 -227 0
-37 -38 -104 -83 -147 -48 -46 -204 -145 -213 -135 -3 3 4 23 15 46 66 128 68
347 6 494 -11 26 4 21 85 -31z m-4173 -24 c-17 -94 -18 -132 -8 -199 16 -101
45 -185 86 -248 41 -62 37 -61 -80 9 -84 51 -168 130 -185 175 -33 87 10 170
135 264 51 38 58 38 52 -1z m675 -37 c55 -22 94 -43 103 -58 9 -13 22 -23 30
-23 24 0 18 -47 -6 -61 -12 -6 -47 -13 -78 -16 -69 -5 -118 18 -143 68 -25 47
-23 139 1 127 3 -2 45 -18 93 -37z m2130 9 c84 -31 168 -97 216 -170 58 -87
77 -154 76 -270 -1 -106 -20 -168 -76 -255 l-33 -50 -105 -12 c-171 -19 -373
-32 -594 -40 l-207 -6 6 59 c32 312 98 505 213 623 132 135 338 184 504 121z
m925 -2 c101 -111 93 -289 -17 -392 l-49 -46 -58 30 c-32 17 -86 36 -120 42
-50 9 -63 15 -63 30 0 15 9 18 58 18 132 1 222 89 222 217 -1 32 -7 69 -15 83
-8 14 -14 28 -15 33 0 16 38 6 57 -15z m-117 -67 c40 -76 -55 -182 -150 -166
l-40 7 0 49 c0 39 4 51 18 55 9 2 46 20 82 38 78 41 77 41 90 17z m-1694 -19
c47 -24 98 -78 118 -126 27 -64 27 -108 -2 -275 l-27 -164 -42 54 c-55 71
-243 255 -315 307 -31 23 -75 51 -98 63 l-41 22 28 29 c37 39 114 87 166 104
58 19 161 12 213 -14z m-667 -126 l23 -24 -31 -16 -31 -17 0 34 c0 28 6 47 15
47 1 0 12 -11 24 -24z m244 -82 c60 -30 177 -124 270 -217 96 -96 227 -256
227 -277 0 -10 -37 -12 -172 -6 -261 10 -625 41 -648 56 -6 3 -18 42 -27 85
-14 72 -14 82 1 138 20 73 61 131 118 169 50 34 66 35 77 4 21 -53 67 -42 82
20 13 49 23 53 72 28z m2857 -156 c-73 -457 -333 -892 -690 -1159 -298 -223
-630 -344 -1140 -415 -154 -22 -677 -26 -835 -6 -650 81 -1094 277 -1415 626
-134 145 -208 252 -292 421 -55 110 -103 231 -132 335 -17 60 -56 263 -51 268
1 2 33 -20 70 -48 263 -199 802 -354 1461 -420 610 -61 1142 -52 1763 31 259
34 586 109 788 180 180 64 389 176 452 243 14 14 26 24 29 22 2 -3 -1 -38 -8
-78z m-3483 28 c93 -44 166 -140 191 -254 6 -23 6 -44 2 -47 -19 -12 -508 86
-578 115 l-23 10 21 40 c71 138 248 201 387 136z m2649 -43 c53 -18 175 -127
158 -142 -23 -20 -545 -127 -558 -114 -2 2 5 22 15 43 11 21 19 43 19 48 0 4
13 29 29 55 68 106 210 153 337 110z m-2510 -1509 c96 -36 375 -101 529 -123
386 -54 738 -53 1105 4 216 33 457 93 563 139 21 9 37 12 37 6 0 -54 -253
-161 -506 -214 -228 -47 -360 -60 -639 -60 -254 -1 -362 7 -555 40 -257 44
-516 130 -597 198 -36 30 -44 53 -15 41 9 -4 45 -18 78 -31z"/>
<path d="M5328 6452 c-26 -5 -22 -31 13 -96 25 -45 35 -56 53 -54 31 4 32 48
3 95 -30 47 -47 61 -69 55z"/>
<path d="M5135 6257 c-38 -59 -25 -113 27 -105 20 3 23 10 26 51 5 70 -23 99
-53 54z"/>
<path d="M4951 6129 c-25 -58 -23 -74 15 -91 23 -11 28 -10 45 11 22 27 23 41
8 94 -15 55 -41 50 -68 -14z"/>
<path d="M5251 6126 c-6 -7 -14 -36 -17 -63 -7 -57 9 -79 51 -69 22 6 25 12
25 49 0 68 -33 115 -59 83z"/>
<path d="M5725 5928 c-53 -12 -81 -40 -122 -126 -38 -82 -65 -104 -147 -123
-68 -15 -136 -55 -136 -79 0 -16 24 -50 36 -50 2 0 21 11 42 25 20 13 59 29
86 35 93 21 134 56 186 160 18 36 40 70 49 77 9 7 39 13 67 13 39 0 61 -7 97
-30 56 -35 63 -36 77 -10 16 30 -2 55 -62 83 -62 29 -117 37 -173 25z"/>
<path d="M5735 5720 c-4 -6 -1 -33 6 -60 24 -92 -20 -209 -99 -264 -37 -26
-55 -31 -116 -34 -79 -4 -117 8 -168 55 -28 27 -55 28 -71 2 -15 -24 21 -69
85 -104 47 -26 63 -30 138 -30 73 0 92 4 136 27 61 32 118 93 146 156 25 55
31 202 10 240 -13 23 -56 31 -67 12z"/>
</g>
</svg>
