<?xml version="1.0" standalone="no"?>
<!DOCTYPE svg PUBLIC "-//W3C//DTD SVG 20010904//EN"
 "http://www.w3.org/TR/2001/REC-SVG-20010904/DTD/svg10.dtd">
<svg version="1.0" xmlns="http://www.w3.org/2000/svg"
 width="1024.000000pt" height="1024.000000pt" viewBox="0 0 1024.000000 1024.000000"
 preserveAspectRatio="xMidYMid meet">
<metadata>
Created by potrace 1.16, written by Peter Selinger 2001-2019
</metadata>
<g transform="translate(0.000000,1024.000000) scale(0.100000,-0.100000)"
fill="#000000" stroke="none">
<path d="M4623 7278 c-12 -6 -25 -18 -28 -26 -3 -9 -21 -123 -40 -253 -125
-865 -123 -1442 7 -1839 46 -142 109 -253 268 -470 l91 -125 -6 -180 c-13
-406 -26 -733 -31 -781 l-5 -52 -67 -22 c-147 -49 -292 -134 -333 -197 -43
-65 -11 -115 86 -132 221 -40 803 -39 1055 1 78 12 120 38 120 75 0 76 -165
193 -357 254 -66 21 -73 26 -73 48 0 15 -7 184 -15 376 -8 193 -15 409 -16
481 l-3 131 60 84 c34 46 85 118 116 160 111 154 195 354 237 564 66 328 61
793 -15 1375 -46 358 -70 500 -88 518 -15 15 -61 17 -479 19 -301 1 -470 -2
-484 -9z m879 -258 c40 -273 54 -381 49 -385 -8 -8 -899 -6 -904 3 -4 7 27
264 54 435 l11 77 386 -2 386 -3 18 -125z m71 -567 c35 -229 34 -776 -2 -978
-48 -270 -144 -492 -268 -623 l-40 -42 -165 0 -165 0 -45 48 c-173 185 -266
473 -287 887 -11 209 2 559 25 713 l5 32 468 0 468 0 6 -37z m-383 -1778 c0
-3 -12 -23 -26 -45 l-26 -40 22 -557 c12 -306 26 -565 31 -574 5 -10 23 -21
41 -24 87 -20 268 -90 268 -105 0 -18 -579 -27 -745 -11 l-70 7 68 33 c38 19
110 45 160 60 84 24 91 28 98 56 4 17 14 244 24 505 23 687 24 620 -2 657 -13
17 -23 34 -23 37 0 3 41 6 90 6 50 0 90 -2 90 -5z"/>
<path d="M4742 6325 c-44 -56 -39 -625 8 -898 23 -139 61 -261 108 -350 40
-77 69 -102 104 -92 65 20 74 66 27 140 -60 94 -98 223 -125 425 -18 136 -25
557 -11 687 7 65 6 74 -12 92 -29 29 -75 27 -99 -4z"/>
<path d="M5284 6336 c-87 -38 -59 -166 36 -166 55 0 90 34 90 88 0 66 -64 106
-126 78z"/>
</g>
</svg>
