<?xml version="1.0" standalone="no"?>
<!DOCTYPE svg PUBLIC "-//W3C//DTD SVG 20010904//EN"
 "http://www.w3.org/TR/2001/REC-SVG-20010904/DTD/svg10.dtd">
<svg version="1.0" xmlns="http://www.w3.org/2000/svg"
 width="1024.000000pt" height="1024.000000pt" viewBox="0 0 1024.000000 1024.000000"
 preserveAspectRatio="xMidYMid meet">
<metadata>
Created by potrace 1.16, written by Peter Selinger 2001-2019
</metadata>
<g transform="translate(0.000000,1024.000000) scale(0.100000,-0.100000)"
fill="#000000" stroke="none">
<path d="M5268 8828 c-28 -22 -138 -177 -205 -288 -112 -186 -210 -452 -247
-670 -20 -118 -36 -268 -36 -339 l0 -54 -77 75 c-103 99 -212 185 -357 280
-147 96 -385 218 -427 218 -38 0 -89 -48 -89 -83 0 -82 141 -393 255 -561 36
-54 65 -100 63 -101 -2 -2 -42 -19 -91 -39 -467 -193 -1001 -547 -1381 -916
-171 -165 -206 -210 -206 -261 0 -30 6 -46 26 -64 36 -34 78 -39 158 -21 38 9
71 14 73 12 3 -3 -13 -49 -35 -103 -125 -305 -186 -619 -186 -968 -1 -230 11
-356 54 -575 155 -788 666 -1550 1355 -2022 451 -308 895 -428 1294 -349 455
90 935 381 1349 818 657 694 1028 1618 972 2420 -24 350 -90 622 -215 890 -25
53 -45 97 -45 98 0 1 35 0 79 -3 76 -4 79 -3 112 26 46 41 47 97 4 143 -139
146 -580 467 -880 639 -182 105 -521 259 -628 286 -16 3 -31 12 -33 19 -3 6
16 47 42 91 116 194 226 469 227 568 1 42 -3 52 -28 73 -42 36 -94 28 -198
-32 -235 -136 -466 -314 -631 -485 l-106 -111 0 63 c0 146 38 364 91 528 57
176 173 392 279 520 65 78 76 122 41 154 -10 9 -74 42 -142 73 -130 59 -201
75 -231 51z m120 -207 c10 -6 3 -23 -31 -72 -125 -183 -231 -441 -280 -689
-28 -139 -39 -278 -35 -452 4 -187 12 -218 62 -252 32 -20 105 -21 134 -1 12
9 64 66 115 128 110 131 214 232 347 338 90 72 213 159 224 159 3 0 -10 -34
-29 -76 -38 -84 -111 -209 -192 -328 -32 -47 -53 -89 -53 -106 0 -49 32 -76
112 -95 243 -59 580 -214 898 -414 156 -98 440 -303 440 -318 0 -12 -179 22
-385 73 -263 65 -645 193 -925 309 -123 52 -192 62 -225 35 -10 -8 -52 -58
-93 -110 -112 -140 -238 -283 -345 -389 l-95 -94 -139 114 c-76 62 -207 183
-292 267 -85 85 -166 158 -180 163 -38 15 -68 4 -323 -112 -282 -129 -511
-224 -740 -308 -181 -66 -508 -164 -517 -155 -6 6 21 32 169 156 245 205 521
394 789 539 166 89 413 197 514 224 77 21 97 41 97 96 0 29 -17 60 -91 165
-103 147 -204 312 -196 320 9 9 226 -138 322 -218 50 -42 149 -135 220 -208
72 -73 145 -139 164 -147 42 -18 82 -10 115 24 26 25 26 27 26 187 0 364 61
670 183 926 51 107 193 330 211 330 6 0 17 -4 24 -9z m506 -2040 c410 -158
802 -273 1081 -318 l50 -8 63 -115 c80 -148 136 -292 178 -456 58 -230 69
-330 69 -609 -1 -277 -13 -379 -80 -640 -284 -1111 -1274 -2144 -2168 -2261
-217 -28 -418 7 -682 120 -553 236 -1092 771 -1405 1395 -156 311 -253 637
-290 968 -16 150 -14 437 5 578 31 237 99 477 187 665 70 149 89 175 140 188
245 62 662 223 1101 424 l217 100 88 -88 c174 -175 527 -467 578 -480 35 -9
91 36 260 208 154 156 266 281 332 369 20 27 38 49 40 49 3 0 109 -40 236 -89z"/>
<path d="M6411 5964 c-49 -41 -43 -85 23 -198 29 -50 65 -112 80 -138 34 -62
69 -88 116 -88 60 0 98 47 91 115 -2 25 -146 270 -180 308 -33 37 -87 37 -130
1z"/>
<path d="M3470 5926 c-33 -19 -180 -339 -180 -392 0 -50 45 -94 95 -94 55 0
80 23 116 108 17 42 52 121 76 176 49 107 53 151 15 189 -25 24 -90 31 -122
13z"/>
<path d="M5033 5740 c-48 -20 -58 -53 -64 -225 -6 -171 1 -214 39 -234 26 -14
74 -14 105 0 45 21 51 43 55 234 l4 180 -25 23 c-27 26 -81 36 -114 22z"/>
<path d="M5967 5270 c-15 -12 -29 -35 -32 -53 -6 -35 48 -374 64 -405 23 -44
112 -53 153 -16 30 28 30 73 -1 264 -28 166 -33 187 -56 208 -34 29 -93 30
-128 2z"/>
<path d="M4020 5032 l-30 -30 -2 -144 c-5 -281 -6 -277 30 -309 42 -38 89 -39
131 -3 l31 26 0 218 c0 253 -2 258 -82 267 -42 5 -50 3 -78 -25z"/>
<path d="M5263 4555 c-17 -7 -39 -25 -49 -39 -16 -25 -15 -35 15 -224 30 -191
32 -198 63 -226 26 -24 37 -27 72 -23 48 7 86 44 86 85 0 41 -50 353 -62 384
-5 15 -25 34 -43 42 -39 19 -41 19 -82 1z"/>
<path d="M6276 4099 c-23 -21 -34 -51 -77 -218 -27 -107 -49 -205 -49 -217 0
-12 12 -36 26 -53 21 -25 33 -31 66 -31 49 0 74 13 92 48 23 46 105 385 99
414 -7 38 -45 69 -90 75 -32 4 -45 1 -67 -18z"/>
<path d="M3543 4086 c-62 -28 -65 -59 -28 -277 30 -178 36 -194 74 -214 37
-19 64 -19 100 0 50 26 57 60 32 183 -11 59 -26 142 -32 186 -13 88 -35 123
-84 131 -16 3 -44 -1 -62 -9z"/>
<path d="M4790 3466 c-25 -8 -40 -22 -52 -47 -17 -33 -17 -44 2 -223 11 -103
25 -196 30 -206 26 -48 86 -63 139 -35 34 17 41 33 41 87 0 47 -28 333 -35
363 -13 54 -67 80 -125 61z"/>
</g>
</svg>
