<?xml version="1.0" standalone="no"?>
<!DOCTYPE svg PUBLIC "-//W3C//DTD SVG 20010904//EN"
 "http://www.w3.org/TR/2001/REC-SVG-20010904/DTD/svg10.dtd">
<svg version="1.0" xmlns="http://www.w3.org/2000/svg"
 width="1024.000000pt" height="1024.000000pt" viewBox="0 0 1024.000000 1024.000000"
 preserveAspectRatio="xMidYMid meet">
<metadata>
Created by potrace 1.16, written by Peter Selinger 2001-2019
</metadata>
<g transform="translate(0.000000,1024.000000) scale(0.100000,-0.100000)"
fill="#000000" stroke="none">
<path d="M4908 6615 c-31 -10 -70 -37 -117 -80 -39 -36 -79 -65 -90 -65 -10 0
-49 16 -87 37 -113 60 -197 49 -289 -37 -40 -37 -41 -37 -185 -54 -457 -54
-858 -165 -1116 -307 -249 -138 -302 -254 -259 -570 57 -429 252 -819 561
-1120 148 -144 274 -232 482 -339 69 -35 82 -46 82 -66 0 -113 197 -220 545
-299 548 -123 1235 -88 1678 85 180 70 257 133 257 211 0 32 4 36 58 59 152
66 359 210 503 350 349 340 569 834 569 1275 0 137 -10 179 -62 252 -65 90
-252 203 -463 279 -196 70 -529 146 -787 179 -98 12 -123 19 -160 44 -84 56
-157 63 -288 26 -89 -25 -125 -16 -199 46 -83 69 -135 90 -224 90 -39 0 -90
-6 -112 -13 -36 -12 -45 -12 -84 5 -59 26 -153 31 -213 12z m196 -108 c47 -20
50 -20 111 -4 116 31 183 18 255 -49 85 -79 175 -106 267 -79 104 31 127 34
170 23 49 -12 117 -66 139 -112 9 -17 30 -46 47 -63 35 -38 58 -40 143 -18 81
21 118 3 159 -80 17 -34 40 -65 55 -72 14 -6 43 -20 65 -30 23 -11 48 -32 60
-52 36 -62 69 -88 130 -106 98 -28 145 -86 145 -177 0 -68 -16 -99 -63 -121
-26 -13 -37 -25 -37 -40 0 -42 14 -50 67 -43 41 5 54 2 86 -19 20 -14 37 -30
37 -35 0 -7 -142 -60 -161 -60 -4 0 -10 15 -13 34 -15 80 -119 165 -223 181
l-41 6 24 36 c19 28 24 49 24 94 0 71 -11 102 -55 151 -19 20 -42 54 -50 75
-9 20 -23 46 -33 56 -27 31 -91 58 -125 55 -28 -3 -32 -7 -32 -33 0 -24 7 -33
40 -51 53 -29 73 -50 81 -86 3 -17 21 -47 40 -67 40 -45 56 -84 48 -116 -8
-31 -100 -110 -157 -135 -24 -11 -56 -29 -71 -41 -35 -27 -72 -102 -81 -162
-8 -54 4 -77 41 -77 27 0 39 21 49 82 3 21 17 51 32 68 42 50 78 63 174 63
105 0 165 -24 210 -86 48 -67 44 -72 -83 -102 -169 -40 -488 -91 -713 -115
-205 -21 -605 -39 -605 -26 0 21 31 76 54 93 39 31 91 36 175 18 66 -14 80
-14 126 0 80 23 128 64 167 142 29 60 33 77 33 148 0 108 -29 175 -75 175 -40
0 -47 -21 -26 -79 45 -126 -7 -267 -111 -302 -28 -9 -52 -8 -122 6 -95 18
-137 13 -198 -25 -42 -25 -87 -89 -104 -145 l-13 -45 -86 0 c-188 0 -690 34
-832 57 l-38 6 0 61 c-1 101 -53 182 -131 201 -20 5 -28 15 -33 37 -10 51 -91
123 -160 143 -109 32 -224 7 -287 -62 -37 -39 -61 -90 -57 -121 2 -23 8 -27
33 -27 24 0 33 6 46 35 10 19 29 46 43 59 26 25 111 52 143 46 10 -2 30 -6 45
-10 34 -7 94 -58 114 -97 9 -18 13 -41 9 -57 -9 -42 18 -61 55 -39 26 15 30
15 50 1 12 -9 28 -31 36 -49 15 -36 19 -100 7 -107 -11 -6 -257 36 -395 67
-133 30 -249 64 -356 102 -70 25 -73 28 -67 53 8 31 56 95 102 134 39 34 40
43 11 98 -77 148 19 329 147 279 29 -12 30 -12 8 -21 -19 -7 -23 -16 -23 -49
0 -123 105 -212 232 -197 105 13 180 82 199 182 6 33 15 68 20 77 22 42 -2 86
-40 73 -31 -10 -42 -31 -57 -107 -20 -106 -71 -147 -171 -135 -55 6 -91 37
-98 86 -4 20 -10 44 -15 53 -9 15 -3 16 59 11 92 -8 142 16 191 89 38 56 75
76 147 77 40 1 44 4 58 38 20 48 40 70 72 78 22 5 34 -1 72 -39 61 -60 121
-76 187 -51 69 26 117 112 100 180 -5 20 -13 25 -35 25 -27 0 -31 -5 -46 -55
-9 -31 -23 -59 -35 -65 -29 -16 -65 -12 -91 9 l-24 19 20 24 c12 12 38 49 58
80 67 104 120 119 226 64 47 -24 83 -36 111 -36 45 0 104 26 134 59 26 29 33
27 46 -15 22 -65 8 -118 -43 -173 -28 -29 -50 -66 -58 -92 -7 -24 -13 -45 -14
-47 -2 -1 -32 7 -67 19 -57 18 -72 20 -119 10 -125 -27 -219 -105 -176 -148
16 -16 19 -16 49 1 18 10 51 27 73 39 21 11 62 22 90 24 69 6 108 -20 140 -93
23 -52 26 -55 57 -52 27 2 34 8 36 30 2 15 -4 39 -14 53 -15 24 -15 29 -1 63
9 20 18 50 22 66 3 16 24 47 46 70 60 60 73 91 72 168 0 47 -6 79 -21 109 -12
24 -20 45 -17 47 10 10 73 20 100 15 17 -3 52 -14 79 -26z m-874 -181 c0 -3
-4 -8 -10 -11 -5 -3 -10 -1 -10 4 0 6 5 11 10 11 6 0 10 -2 10 -4z m-130 -10
c0 -2 -16 -13 -35 -25 -19 -11 -44 -35 -54 -52 -16 -26 -31 -36 -72 -46 -64
-16 -108 -49 -149 -108 -18 -26 -42 -48 -56 -51 -15 -4 -59 2 -104 15 -93 25
-122 26 -183 5 -120 -41 -180 -212 -128 -362 l18 -53 -22 -15 c-29 -19 -82
-94 -90 -127 -4 -15 -11 -27 -16 -27 -15 0 -150 70 -199 103 -250 167 -206
329 135 493 197 95 393 153 745 219 175 33 210 39 210 31z m2087 -2 c13 -4 20
-10 17 -15 -9 -15 -51 -10 -58 6 -6 16 5 18 41 9z m421 -79 c442 -106 743
-261 791 -408 34 -103 -63 -217 -277 -324 l-84 -42 -41 43 c-23 24 -51 48 -61
53 -17 9 -17 14 -7 43 6 18 11 59 11 90 0 128 -68 225 -181 257 -53 15 -65 24
-87 58 -43 67 -73 94 -124 111 -41 13 -52 23 -73 62 -14 26 -32 57 -41 70 -16
21 -15 22 6 22 12 0 88 -16 168 -35z m-3541 -802 c320 -167 787 -275 1463
-340 249 -24 922 -24 1180 0 834 77 1380 227 1660 456 l41 34 -6 -39 c-37
-211 -93 -385 -181 -563 -179 -361 -448 -633 -797 -806 -321 -159 -733 -250
-1192 -262 -699 -18 -1319 144 -1700 446 -344 272 -574 650 -665 1095 -11 54
-20 104 -20 112 0 8 25 -7 60 -34 33 -27 104 -71 157 -99z m1014 -1458 c461
-158 1118 -199 1666 -105 146 25 288 59 416 100 55 17 101 29 104 27 19 -19
-129 -98 -262 -141 -427 -136 -1017 -163 -1483 -66 -233 48 -468 134 -516 188
-24 28 -16 28 75 -3z"/>
<path d="M5250 6435 c-20 -24 -7 -49 34 -63 21 -7 58 -30 82 -51 25 -21 59
-42 77 -45 65 -12 93 -39 117 -113 40 -122 111 -172 260 -182 l85 -6 7 -66
c12 -122 49 -158 173 -168 l70 -6 3 -35 c6 -60 42 -79 76 -41 25 27 13 93 -23
134 -25 27 -35 31 -105 36 -58 5 -81 11 -91 24 -14 20 -29 137 -21 164 11 37
-7 45 -133 53 -163 10 -191 29 -231 153 -18 59 -63 103 -123 123 -29 9 -71 32
-94 51 -61 50 -138 68 -163 38z"/>
<path d="M5895 6290 c-17 -32 -43 -50 -73 -50 -27 0 -55 -34 -47 -59 8 -27 38
-35 83 -20 77 25 130 85 118 135 -10 37 -61 34 -81 -6z"/>
<path d="M5085 6231 c-47 -12 -70 -27 -108 -71 -39 -46 -50 -82 -32 -106 17
-24 61 -10 79 24 22 43 52 64 100 69 40 5 48 2 74 -23 20 -21 32 -46 40 -89
16 -81 41 -118 104 -154 59 -35 80 -38 98 -16 20 25 3 63 -38 84 -54 28 -69
48 -88 124 -18 72 -48 118 -93 141 -35 18 -99 26 -136 17z"/>
<path d="M5002 5958 c-22 -22 -13 -56 19 -79 43 -30 59 -75 59 -162 0 -61 4
-80 23 -108 64 -95 211 -106 309 -24 17 15 42 25 60 25 89 0 148 45 208 158
31 59 40 69 80 83 33 12 46 23 48 39 5 31 -11 44 -53 42 -70 -3 -113 -39 -160
-135 -38 -78 -79 -107 -150 -107 -43 0 -56 -4 -76 -26 -50 -53 -105 -67 -159
-39 -41 21 -50 43 -50 127 0 88 -21 139 -74 186 -39 34 -64 40 -84 20z"/>
<path d="M4224 5858 c-39 -47 -54 -89 -54 -153 0 -70 17 -112 63 -152 59 -52
140 -56 208 -10 43 29 74 84 88 157 13 66 39 96 95 107 71 15 75 74 6 81 -48
5 -75 -4 -114 -39 -33 -29 -51 -66 -75 -155 -22 -84 -96 -119 -154 -74 -50 39
-45 140 8 190 27 26 32 49 13 68 -21 21 -55 13 -84 -20z"/>
<path d="M6638 5795 c-17 -38 0 -99 30 -103 13 -2 30 2 38 8 17 15 19 91 2
108 -21 21 -57 14 -70 -13z"/>
<path d="M4705 5483 c-46 -24 -65 -44 -92 -97 -30 -59 -21 -96 22 -96 21 0 29
8 45 44 22 52 54 76 107 82 49 6 101 -20 129 -66 40 -63 62 -82 83 -71 30 16
33 41 11 86 -25 52 -62 91 -112 116 -47 24 -150 25 -193 2z"/>
</g>
</svg>
