<?xml version="1.0" standalone="no"?>
<!DOCTYPE svg PUBLIC "-//W3C//DTD SVG 20010904//EN"
 "http://www.w3.org/TR/2001/REC-SVG-20010904/DTD/svg10.dtd">
<svg version="1.0" xmlns="http://www.w3.org/2000/svg"
 width="1024.000000pt" height="1024.000000pt" viewBox="0 0 1024.000000 1024.000000"
 preserveAspectRatio="xMidYMid meet">
<metadata>
Created by potrace 1.16, written by Peter Selinger 2001-2019
</metadata>
<g transform="translate(0.000000,1024.000000) scale(0.100000,-0.100000)"
fill="#000000" stroke="none">
<path d="M5235 9057 c-112 -38 -190 -102 -270 -221 -30 -46 -69 -114 -86 -153
l-31 -70 -82 82 c-267 263 -564 204 -650 -131 -20 -80 -29 -225 -18 -301 5
-35 5 -63 2 -63 -4 0 -34 16 -66 35 -189 114 -447 159 -603 105 -224 -76 -361
-293 -361 -572 0 -122 20 -224 69 -348 120 -307 406 -628 779 -875 40 -27 69
-52 65 -55 -4 -4 -26 -13 -48 -20 -22 -7 -94 -38 -160 -70 -393 -190 -615
-491 -692 -940 -23 -132 -23 -462 0 -630 47 -337 175 -785 357 -1240 186 -466
499 -1089 807 -1605 240 -402 651 -988 715 -1021 53 -27 71 -14 180 133 803
1085 1550 2635 1753 3638 58 288 69 387 69 630 0 236 -10 320 -59 490 -52 177
-132 313 -261 442 -129 129 -300 227 -496 287 -49 15 -88 30 -87 34 0 4 34 32
75 62 356 258 660 685 734 1030 81 375 -34 692 -295 816 -119 57 -238 65 -390
28 -76 -19 -264 -111 -332 -164 -29 -22 -53 -35 -53 -29 0 6 -7 58 -16 116
-43 290 -151 491 -301 560 -69 32 -185 41 -248 20z m169 -147 c40 -15 103 -78
135 -134 62 -108 98 -259 110 -459 11 -175 23 -196 106 -188 11 1 36 17 55 35
146 139 348 245 499 262 182 20 339 -90 409 -291 22 -60 25 -88 26 -195 0
-166 -28 -273 -124 -465 -139 -280 -362 -529 -677 -753 l-99 -71 -65 9 c-278
39 -692 33 -1084 -16 -134 -16 -362 -57 -443 -78 l-53 -15 -62 36 c-343 200
-595 434 -771 715 -281 452 -131 954 274 913 72 -7 212 -51 292 -91 29 -14 96
-55 149 -90 101 -68 143 -79 171 -46 26 30 28 50 12 130 -23 118 -29 260 -15
349 52 328 268 322 530 -14 52 -67 72 -78 116 -63 27 9 37 20 51 58 54 146 80
204 120 269 56 90 122 158 177 183 45 21 120 26 161 10z m316 -2396 c396 -44
646 -148 834 -344 121 -127 189 -264 234 -470 21 -100 24 -141 25 -320 1 -178
-8 -297 -29 -402 -5 -27 -7 -28 -77 -29 -112 -1 -178 -34 -151 -76 17 -27 63
-34 133 -23 35 6 66 9 68 6 8 -8 -32 -196 -77 -361 -157 -578 -481 -1345 -862
-2041 -123 -226 -109 -213 -238 -214 -97 -1 -195 -29 -203 -59 -13 -52 44 -69
170 -52 47 7 87 10 89 8 17 -17 -606 -964 -641 -974 -25 -7 -413 561 -622 912
-123 207 -253 436 -253 446 0 3 38 5 84 5 62 0 90 4 110 17 78 51 -21 97 -181
84 -80 -6 -59 -35 -243 338 -201 408 -312 667 -434 1021 l-42 121 135 6 c149
6 233 21 256 44 20 20 19 60 -2 71 -43 22 -188 21 -369 -3 l-52 -7 -15 48
c-100 311 -151 613 -150 889 0 222 16 334 70 497 163 492 595 739 1481 849
329 40 664 45 952 13z"/>
<path d="M5014 8002 c-43 -28 -58 -154 -51 -434 8 -301 33 -433 81 -426 31 4
44 58 56 233 19 282 -19 636 -69 635 -3 0 -11 -4 -17 -8z"/>
<path d="M3814 7595 c-27 -69 184 -449 337 -608 72 -75 101 -84 107 -34 5 44
-24 116 -98 246 -163 283 -320 464 -346 396z"/>
<path d="M6169 7587 c-100 -67 -374 -507 -386 -621 -19 -164 193 68 372 407
68 128 89 191 74 218 -13 24 -19 24 -60 -4z"/>
<path d="M5828 6066 c-61 -16 -80 -33 -76 -65 4 -36 62 -55 148 -48 95 8 143
26 154 60 8 22 6 31 -7 45 -23 22 -152 27 -219 8z"/>
<path d="M4110 5599 c-41 -17 -68 -49 -86 -102 -31 -94 -2 -210 65 -254 98
-66 211 27 211 172 0 69 -28 137 -70 167 -32 23 -87 31 -120 17z"/>
<path d="M5385 5586 c-61 -27 -94 -92 -95 -187 0 -68 36 -146 79 -172 16 -9
48 -17 72 -17 36 0 47 6 78 38 66 69 79 171 35 261 -21 42 -36 57 -68 72 -48
22 -61 23 -101 5z"/>
<path d="M5771 5318 c-34 -35 -71 -122 -71 -167 0 -33 27 -61 59 -61 32 0 74
49 99 115 26 67 28 108 6 129 -24 25 -59 19 -93 -16z"/>
<path d="M3639 5319 c-34 -64 55 -239 121 -239 22 0 50 41 50 73 0 39 -38 122
-73 160 -33 34 -81 37 -98 6z"/>
<path d="M5957 5260 c-35 -28 -77 -116 -77 -162 0 -29 6 -41 26 -55 24 -16 28
-16 60 2 38 20 80 95 91 159 11 66 -46 98 -100 56z"/>
<path d="M3470 5245 c-29 -35 16 -175 69 -216 48 -38 101 -12 101 50 0 39 -52
144 -82 165 -28 20 -72 21 -88 1z"/>
<path d="M4515 5070 c-39 -15 -48 -36 -42 -103 11 -136 92 -260 199 -308 77
-34 185 -32 253 3 106 56 183 172 192 292 5 70 -6 93 -52 102 -45 8 -73 -19
-89 -87 -30 -129 -106 -199 -202 -184 -68 10 -118 60 -144 142 -11 36 -20 76
-20 88 0 14 -11 33 -26 44 -29 23 -38 24 -69 11z"/>
<path d="M5260 3583 c-63 -9 -116 -26 -132 -40 -25 -23 -22 -50 7 -69 21 -14
44 -16 133 -12 115 5 173 22 191 56 15 28 5 49 -31 61 -30 11 -115 13 -168 4z"/>
</g>
</svg>
