<?xml version="1.0" standalone="no"?>
<!DOCTYPE svg PUBLIC "-//W3C//DTD SVG 20010904//EN"
 "http://www.w3.org/TR/2001/REC-SVG-20010904/DTD/svg10.dtd">
<svg version="1.0" xmlns="http://www.w3.org/2000/svg"
 width="1024.000000pt" height="1024.000000pt" viewBox="0 0 1024.000000 1024.000000"
 preserveAspectRatio="xMidYMid meet">
<metadata>
Created by potrace 1.16, written by Peter Selinger 2001-2019
</metadata>
<g transform="translate(0.000000,1024.000000) scale(0.100000,-0.100000)"
fill="#000000" stroke="none">
<path d="M5567 7109 c-118 -13 -258 -64 -350 -127 -25 -17 -32 -17 -90 -6
-266 56 -594 -5 -821 -152 l-86 -56 -85 13 c-144 21 -315 -15 -464 -97 -95
-53 -219 -180 -264 -271 -36 -71 -37 -72 -94 -88 -198 -58 -378 -217 -477
-425 l-35 -73 -99 -52 c-163 -85 -277 -169 -413 -305 -292 -291 -452 -653
-452 -1025 -1 -157 20 -274 70 -399 28 -71 32 -91 22 -97 -117 -66 -178 -157
-179 -268 0 -90 17 -129 90 -202 104 -105 292 -190 575 -260 427 -105 943
-104 1785 2 692 87 1682 306 2855 630 336 93 952 275 1105 325 170 57 248 113
300 216 57 116 34 259 -56 337 -47 42 -103 70 -204 101 l-85 27 -5 74 c-5 67
-4 77 18 103 90 111 126 309 86 476 -33 144 -132 287 -252 367 -57 38 -57 38
-60 93 -5 82 -29 175 -62 246 -108 225 -358 351 -597 301 l-72 -16 -54 52
c-59 58 -142 103 -208 113 -37 6 -57 19 -119 78 -151 143 -338 208 -528 183
-71 -9 -75 -8 -100 16 -88 82 -241 148 -392 166 -93 12 -104 12 -203 0z m183
-159 c154 -20 256 -73 337 -173 41 -51 64 -57 111 -33 57 29 145 38 223 21
118 -24 173 -56 275 -161 91 -94 92 -94 141 -94 60 0 134 -34 183 -85 18 -19
32 -37 29 -39 -2 -2 -49 18 -104 44 -110 54 -314 124 -472 164 -570 145 -1216
133 -1885 -33 -463 -115 -894 -303 -1201 -522 -70 -50 -91 -60 -152 -70 -38
-6 -99 -20 -133 -31 -35 -11 -66 -17 -68 -15 -7 7 65 88 119 134 68 57 138 93
242 123 72 21 92 31 102 51 6 13 26 56 44 94 101 219 397 350 647 287 l83 -21
64 54 c112 95 279 161 470 186 106 14 214 6 342 -23 l92 -21 40 36 c73 66 192
114 314 127 40 4 74 8 77 8 3 1 39 -3 80 -8z m205 -431 c467 -41 885 -178
1221 -402 242 -161 413 -336 554 -568 137 -225 220 -482 223 -689 2 -109 -12
-148 -66 -181 -85 -52 -809 -262 -1442 -419 -510 -126 -1422 -340 -1448 -340
-16 0 -16 2 -3 23 27 40 77 170 102 267 32 116 43 354 25 492 -64 480 -364
883 -826 1113 -192 95 -393 153 -588 171 -43 4 -77 10 -77 13 0 8 22 22 141
86 465 254 1148 430 1744 448 118 4 303 -2 440 -14z m1506 -169 c166 -52 269
-202 284 -413 4 -45 8 -91 10 -102 3 -13 39 -45 90 -79 99 -68 142 -116 187
-211 26 -58 33 -85 36 -157 4 -85 -4 -166 -15 -154 -3 3 -16 38 -30 78 -79
236 -286 550 -480 729 -69 63 -228 183 -312 234 -34 21 -61 41 -61 45 0 4 26
15 58 24 31 10 62 19 67 21 29 10 111 3 166 -15z m-3803 -520 c211 -19 360
-60 547 -150 338 -163 585 -434 704 -772 42 -121 61 -241 61 -389 0 -145 -18
-255 -60 -372 -73 -199 -179 -318 -337 -377 -139 -52 -468 -83 -878 -83 -422
-1 -766 28 -1065 87 -328 66 -461 130 -540 261 -77 129 -113 332 -90 513 41
325 179 596 426 832 293 280 674 441 1089 459 17 0 81 -4 143 -9z m4539 -1165
c85 -30 143 -86 143 -138 0 -54 -48 -118 -116 -154 -111 -59 -1340 -412 -2079
-597 -99 -25 -326 -79 -505 -120 -930 -214 -1523 -307 -2215 -347 -548 -32
-1015 35 -1332 192 -130 64 -183 114 -183 173 0 60 28 97 103 137 l38 20 37
-29 c159 -126 528 -215 1076 -258 242 -20 805 -22 986 -5 311 29 447 58 577
124 58 30 126 54 198 71 61 14 281 66 490 115 209 49 517 122 684 161 704 165
1384 352 1770 489 125 44 174 80 206 152 21 46 31 47 122 14z"/>
<path d="M5655 6455 c-50 -49 -15 -135 55 -135 43 0 65 14 80 50 33 80 -73
148 -135 85z"/>
<path d="M4737 5930 c-50 -39 -42 -117 15 -146 74 -38 153 40 122 121 -8 20
-56 45 -87 45 -13 0 -36 -9 -50 -20z"/>
<path d="M5941 5851 c-64 -64 -3 -179 84 -157 62 16 86 97 44 150 -17 21 -29
26 -65 26 -30 0 -50 -6 -63 -19z"/>
<path d="M7451 5714 c-43 -54 -10 -124 58 -124 43 0 68 21 77 66 14 73 -89
117 -135 58z"/>
<path d="M6838 5525 c-33 -18 -52 -72 -39 -108 22 -58 99 -75 148 -33 22 19
28 32 28 66 0 73 -70 111 -137 75z"/>
<path d="M5705 4835 c-56 -56 -18 -155 60 -155 93 0 130 132 48 169 -40 18
-82 13 -108 -14z"/>
<path d="M7355 4715 c-51 -50 -11 -135 64 -135 10 0 30 9 45 21 33 26 37 88 6
119 -29 29 -84 27 -115 -5z"/>
<path d="M6480 4617 c-14 -7 -30 -28 -36 -47 -31 -92 69 -158 137 -91 75 76
-6 186 -101 138z"/>
<path d="M2783 5391 c-119 -30 -195 -155 -163 -271 17 -64 90 -133 157 -149
158 -38 296 99 262 260 -23 108 -148 186 -256 160z"/>
<path d="M3965 5390 c-171 -40 -229 -250 -102 -367 88 -81 224 -77 304 9 74
79 70 233 -9 304 -50 46 -132 69 -193 54z"/>
<path d="M4600 4960 c-22 -22 -27 -78 -10 -110 5 -10 25 -24 44 -30 28 -9 40
-8 66 5 54 28 64 107 17 140 -31 22 -93 19 -117 -5z"/>
<path d="M2830 4790 c-93 -18 -175 -84 -213 -168 -28 -65 -34 -170 -13 -226
22 -57 91 -121 148 -136 58 -16 154 -7 204 18 73 37 153 151 177 252 l6 25
203 0 203 0 158 43 c169 45 227 51 284 27 20 -9 89 -67 153 -130 117 -116 137
-128 180 -105 23 12 39 59 33 95 -4 18 -43 66 -112 135 -127 128 -199 170
-309 178 -56 4 -94 -2 -232 -38 -264 -67 -445 -67 -661 -2 -111 34 -161 42
-209 32z m96 -165 c80 -24 80 -25 50 -91 -50 -110 -115 -151 -183 -117 -45 22
-58 59 -41 116 16 53 70 104 114 106 6 1 33 -6 60 -14z"/>
<path d="M2190 4753 c-25 -9 -40 -35 -40 -67 0 -55 22 -69 137 -91 113 -22
138 -20 162 11 27 34 26 57 -1 88 -18 20 -44 29 -127 45 -111 22 -108 22 -131
14z"/>
<path d="M2315 4339 c-88 -57 -104 -73 -105 -107 0 -30 42 -72 73 -72 26 0
148 69 190 108 32 31 37 80 9 105 -34 31 -81 21 -167 -34z"/>
<path d="M4115 4096 c-31 -13 -55 -51 -55 -86 0 -10 12 -32 26 -49 19 -23 34
-31 59 -31 47 0 64 8 80 41 43 82 -27 162 -110 125z"/>
</g>
</svg>
