<?xml version="1.0" standalone="no"?>
<!DOCTYPE svg PUBLIC "-//W3C//DTD SVG 20010904//EN"
 "http://www.w3.org/TR/2001/REC-SVG-20010904/DTD/svg10.dtd">
<svg version="1.0" xmlns="http://www.w3.org/2000/svg"
 width="1024.000000pt" height="1024.000000pt" viewBox="0 0 1024.000000 1024.000000"
 preserveAspectRatio="xMidYMid meet">
<metadata>
Created by potrace 1.16, written by Peter Selinger 2001-2019
</metadata>
<g transform="translate(0.000000,1024.000000) scale(0.100000,-0.100000)"
fill="#000000" stroke="none">
<path d="M5030 7789 c-313 -25 -685 -120 -902 -230 -30 -15 -60 -19 -156 -19
-345 0 -775 -115 -1112 -297 -189 -102 -388 -255 -507 -390 -85 -97 -120 -147
-168 -243 -21 -41 -64 -107 -97 -146 -66 -81 -136 -197 -167 -282 -21 -54 -26
-60 -98 -102 -99 -59 -227 -184 -283 -278 -69 -117 -92 -191 -98 -313 -5 -115
8 -180 54 -271 23 -46 23 -49 10 -110 -81 -351 -56 -722 66 -1023 189 -462
545 -821 1102 -1111 502 -261 1037 -401 1811 -476 193 -18 758 -15 975 6 1059
102 1902 399 2500 879 402 323 667 734 755 1171 54 269 52 504 -6 772 l-20 91
22 64 c30 84 32 244 5 334 -66 218 -260 465 -485 616 -72 48 -82 60 -102 109
-71 176 -166 318 -314 466 -218 221 -486 379 -823 488 -214 69 -391 101 -647
115 -153 9 -166 11 -291 55 -237 83 -460 121 -751 130 -87 3 -210 0 -273 -5z
m425 -199 c224 -21 432 -66 615 -135 l115 -43 180 -5 c146 -3 205 -9 310 -31
401 -85 748 -260 989 -501 116 -115 186 -209 248 -335 160 -325 155 -694 -13
-1025 -167 -328 -460 -597 -879 -806 -788 -393 -1899 -537 -2970 -383 -357 51
-668 131 -955 246 -667 268 -1024 636 -1070 1103 -7 82 7 219 35 323 29 106
92 227 170 328 38 49 90 128 115 176 62 117 123 195 238 304 335 321 925 544
1437 544 l116 0 112 50 c350 154 809 227 1207 190z m2954 -1600 c98 -132 149
-268 137 -370 -10 -83 -48 -150 -146 -256 -124 -133 -134 -157 -135 -319 -1
-112 -4 -135 -22 -170 -28 -54 -46 -68 -128 -105 -184 -83 -221 -105 -276
-160 -97 -96 -133 -192 -144 -385 -7 -135 -26 -196 -77 -251 -85 -92 -216 -99
-410 -21 -65 26 -141 52 -170 58 -120 26 -252 -12 -341 -99 -61 -60 -97 -123
-147 -257 -51 -138 -81 -192 -149 -267 -60 -66 -127 -113 -206 -144 -74 -28
-240 -26 -314 4 -101 43 -172 103 -271 232 -149 195 -248 240 -430 195 -83
-20 -118 -17 -244 27 -80 27 -100 30 -175 26 -102 -5 -151 -27 -257 -113 -194
-157 -357 -159 -549 -9 -33 26 -94 63 -135 83 -72 35 -79 36 -185 36 -104 0
-117 -3 -240 -45 -120 -41 -138 -45 -230 -45 -88 0 -107 3 -158 27 -94 44
-156 117 -236 276 -104 208 -174 288 -306 355 -66 33 -109 44 -232 62 -180 25
-268 69 -334 163 -52 74 -69 152 -69 316 0 166 -15 220 -100 360 -87 144 -103
192 -98 293 4 69 10 93 41 155 33 68 138 208 155 208 4 0 6 -43 4 -95 -5 -110
17 -259 54 -368 159 -469 620 -833 1369 -1081 363 -121 790 -197 1265 -227
229 -14 760 -6 956 15 652 70 1174 210 1624 435 585 292 957 702 1086 1196 22
85 27 128 31 283 l5 184 70 -69 c38 -37 91 -97 117 -133z m115 -797 c14 -47
27 -258 21 -343 -18 -243 -71 -435 -182 -655 -395 -782 -1454 -1328 -2853
-1470 -243 -25 -762 -31 -1005 -11 -356 29 -580 64 -890 141 -494 122 -913
310 -1245 557 -120 90 -337 308 -413 415 -121 171 -215 369 -257 545 -30 123
-26 146 12 74 79 -154 239 -244 493 -280 209 -30 278 -86 396 -319 39 -78 89
-164 111 -192 89 -112 215 -186 359 -211 109 -19 193 -8 359 48 103 35 138 43
200 43 87 0 122 -15 237 -102 131 -99 261 -141 396 -130 128 11 224 53 335
147 122 103 160 110 321 54 123 -43 188 -47 300 -19 l75 18 43 -23 c30 -16 66
-52 118 -120 177 -231 354 -332 585 -334 110 -1 177 14 275 59 195 89 317 238
420 510 44 116 77 171 124 202 71 48 137 41 298 -31 45 -20 119 -44 165 -53
155 -29 311 13 419 114 97 91 134 185 144 369 13 241 59 304 290 393 137 53
212 123 255 237 16 44 20 79 20 171 0 106 2 119 27 164 28 52 39 59 47 32z"/>
<path d="M4915 7345 c-51 -50 -15 -135 58 -135 71 0 110 99 57 142 -32 26 -86
23 -115 -7z"/>
<path d="M6016 7227 c-55 -55 -23 -137 53 -137 102 0 110 140 9 156 -30 5 -41
2 -62 -19z"/>
<path d="M3963 7130 c-28 -11 -43 -40 -43 -83 0 -70 89 -99 136 -43 39 45 25
107 -29 126 -35 12 -35 12 -64 0z"/>
<path d="M6581 6784 c-43 -55 -8 -134 59 -134 68 0 106 89 60 138 -31 33 -92
30 -119 -4z"/>
<path d="M3174 6786 c-51 -23 -61 -90 -19 -131 71 -72 180 34 113 109 -30 32
-56 38 -94 22z"/>
<path d="M4955 6664 c-302 -18 -551 -78 -752 -179 -164 -83 -243 -161 -277
-275 -21 -71 -20 -118 4 -184 73 -193 379 -341 835 -402 150 -20 484 -20 640
1 338 45 586 135 730 267 91 83 119 141 120 238 0 99 -25 153 -108 234 -180
175 -545 286 -987 299 -80 2 -172 3 -205 1z m300 -204 c210 -17 385 -53 531
-109 84 -32 183 -88 221 -123 32 -30 56 -86 49 -114 -13 -50 -110 -135 -132
-114 -5 4 -49 28 -99 53 -115 57 -256 102 -404 129 -149 26 -456 36 -614 18
-193 -21 -420 -86 -546 -156 -59 -33 -73 -31 -115 16 -56 62 -45 117 36 183
191 155 662 250 1073 217z m149 -490 c124 -24 266 -67 266 -79 0 -9 -160 -43
-295 -63 -129 -18 -492 -15 -625 5 -133 21 -290 58 -290 68 0 17 220 72 358
89 37 5 159 7 272 5 160 -2 229 -8 314 -25z"/>
<path d="M7452 6297 c-47 -50 -10 -137 58 -137 67 0 107 93 60 140 -29 29 -90
27 -118 -3z"/>
<path d="M3125 6025 c-51 -50 -15 -135 58 -135 56 0 94 56 76 110 -20 55 -91
69 -134 25z"/>
<path d="M2566 5739 c-19 -15 -26 -30 -26 -55 0 -70 44 -104 107 -83 39 13 53
34 53 83 0 41 -37 76 -80 76 -15 0 -39 -9 -54 -21z"/>
<path d="M6575 5695 c-32 -31 -34 -86 -4 -114 58 -54 138 -21 139 57 0 43 -38
82 -80 82 -19 0 -40 -9 -55 -25z"/>
<path d="M4083 5350 c-67 -27 -50 -143 22 -150 63 -7 95 20 95 79 0 63 -55 96
-117 71z"/>
<path d="M5824 5346 c-34 -15 -44 -33 -44 -76 0 -39 29 -70 72 -76 30 -5 41
-2 62 19 42 42 35 107 -15 132 -34 18 -36 18 -75 1z"/>
<path d="M4579 4871 c-34 -35 -37 -68 -8 -105 17 -21 29 -26 64 -26 37 0 48 5
61 26 26 39 22 83 -10 111 -37 31 -71 29 -107 -6z"/>
</g>
</svg>
