<?xml version="1.0" encoding="UTF-8" standalone="no"?>
<!DOCTYPE svg PUBLIC "-//W3C//DTD SVG 1.1//EN" "http://www.w3.org/Graphics/SVG/1.1/DTD/svg11.dtd">
<svg width="100%" height="100%" viewBox="0 0 1024 1024" version="1.1" xmlns="http://www.w3.org/2000/svg" xmlns:xlink="http://www.w3.org/1999/xlink" xml:space="preserve" xmlns:serif="http://www.serif.com/" style="fill-rule:evenodd;clip-rule:evenodd;stroke-linejoin:round;stroke-miterlimit:2;">
    <g transform="matrix(0.1,0,0,-0.1,0,1024)">
        <path d="M4915,6669C4460,6636 4065,6548 3820,6424C3617,6320 3479,6186 3389,6005C3327,5879 3310,5813 3303,5674C3294,5488 3332,5351 3437,5192L3491,5110L3451,5064C3420,5029 3407,5003 3398,4960C3387,4907 3384,4902 3338,4876C3257,4830 3174,4746 3138,4672C3108,4612 3105,4596 3105,4520C3105,4453 3110,4427 3127,4394C3158,4336 3214,4286 3293,4244C3345,4217 3360,4204 3356,4191C3353,4182 3339,4141 3324,4100C3268,3945 3295,3798 3398,3697C3459,3638 3528,3604 3618,3589C3710,3574 3792,3585 4040,3645C4141,3670 4263,3695 4309,3701C4478,3724 4610,3692 4795,3585C5005,3463 5092,3434 5224,3443C5356,3451 5452,3499 5667,3662C5876,3822 5981,3843 6374,3804C6750,3766 6939,3826 7038,4014C7063,4060 7065,4075 7065,4175C7065,4275 7062,4291 7036,4347C7003,4419 7002,4414 7084,4510C7220,4669 7236,4845 7126,4966C7077,5021 7020,5053 6942,5072C6897,5082 6887,5089 6873,5117C6865,5135 6854,5150 6849,5150C6832,5150 6840,5171 6879,5236C6997,5431 7028,5667 6965,5884C6837,6327 6416,6593 5728,6665C5567,6681 5126,6684 4915,6669ZM5665,6519C6295,6467 6683,6246 6817,5864C6841,5794 6844,5771 6845,5660C6845,5558 6840,5522 6822,5465C6797,5386 6752,5301 6700,5235C6661,5186 6643,5179 6638,5212C6636,5224 6623,5241 6609,5249C6587,5261 6578,5261 6552,5251C6535,5244 6518,5230 6515,5220C6512,5210 6520,5133 6534,5049C6589,4704 6615,4437 6601,4364C6583,4268 6531,4226 6416,4209C6216,4181 5556,4137 5055,4119C4662,4105 3898,4111 3855,4129C3812,4147 3762,4198 3748,4239C3722,4310 3740,4694 3785,5059C3801,5186 3797,5201 3743,5215C3714,5222 3670,5198 3670,5175C3670,5147 3651,5160 3599,5223C3540,5292 3478,5418 3461,5498C3445,5574 3447,5726 3465,5795C3504,5949 3608,6102 3737,6199C3824,6263 3978,6341 4100,6380C4470,6500 5157,6561 5665,6519ZM6769,5002C6795,4951 6806,4944 6868,4937C6975,4925 7050,4857 7050,4773C7050,4721 7033,4680 6988,4623C6841,4438 6838,4430 6891,4317C6964,4158 6930,4039 6792,3974C6714,3937 6598,3932 6343,3955C5939,3991 5815,3961 5543,3756C5389,3640 5330,3608 5250,3591C5149,3570 5088,3590 4875,3710C4718,3798 4625,3833 4501,3850C4376,3867 4266,3852 3965,3778C3757,3726 3633,3720 3565,3757C3516,3783 3467,3834 3450,3877C3429,3931 3441,4027 3478,4102C3543,4234 3523,4286 3378,4362C3240,4433 3208,4509 3270,4616C3305,4678 3365,4731 3441,4770C3511,4806 3520,4817 3529,4883C3536,4932 3572,5010 3588,5010C3592,5010 3603,5003 3613,4996C3630,4983 3630,4976 3615,4854C3606,4783 3596,4624 3593,4500C3588,4310 3590,4265 3604,4211C3634,4093 3710,4019 3835,3984C3955,3951 4902,3955 5540,3990C6015,4017 6372,4049 6490,4076C6610,4103 6701,4180 6733,4282C6763,4377 6752,4597 6704,4904L6688,5003L6712,5022C6744,5046 6747,5045 6769,5002Z" style="fill-rule:nonzero;"/>
        <path d="M5767,5295C5689,5268 5640,5192 5640,5098C5640,5025 5655,4983 5699,4937C5819,4811 6010,4907 6010,5092C6009,5198 5958,5276 5872,5300C5825,5313 5814,5312 5767,5295ZM5850,5115C5876,5084 5837,5033 5806,5059C5790,5073 5784,5111 5797,5123C5808,5135 5837,5131 5850,5115Z" style="fill-rule:nonzero;"/>
        <path d="M4425,5256C4290,5193 4264,4984 4380,4887C4410,4862 4466,4840 4503,4840C4530,4840 4592,4868 4619,4893C4709,4976 4696,5170 4596,5238C4553,5267 4467,5276 4425,5256ZM4520,5071C4533,5046 4533,5044 4514,5026C4495,5006 4460,5021 4460,5048C4460,5088 4502,5103 4520,5071Z" style="fill-rule:nonzero;"/>
        <path d="M4920,4887C4831,4842 4908,4716 5058,4659C5140,4629 5264,4635 5343,4674C5420,4711 5480,4780 5480,4831C5480,4859 5474,4873 5458,4884C5423,4909 5391,4903 5347,4864C5288,4810 5228,4787 5164,4792C5112,4796 5103,4801 5001,4875C4962,4903 4955,4905 4920,4887Z" style="fill-rule:nonzero;"/>
        <path d="M5965,4801C5842,4771 5812,4672 5910,4623C6019,4567 6190,4618 6190,4706C6190,4783 6081,4829 5965,4801Z" style="fill-rule:nonzero;"/>
        <path d="M4215,4755C4170,4739 4120,4689 4120,4661C4120,4630 4168,4582 4208,4570C4331,4536 4460,4588 4460,4671C4460,4746 4323,4793 4215,4755Z" style="fill-rule:nonzero;"/>
    </g>
</svg>
