<?xml version="1.0" standalone="no"?>
<!DOCTYPE svg PUBLIC "-//W3C//DTD SVG 20010904//EN"
 "http://www.w3.org/TR/2001/REC-SVG-20010904/DTD/svg10.dtd">
<svg version="1.0" xmlns="http://www.w3.org/2000/svg"
 width="2048.000000pt" height="2048.000000pt" viewBox="0 0 2048.000000 2048.000000"
 preserveAspectRatio="xMidYMid meet">
<metadata>
Created by potrace 1.16, written by Peter Selinger 2001-2019
</metadata>
<g transform="translate(0.000000,2048.000000) scale(0.100000,-0.100000)"
fill="#000000" stroke="none">
<path d="M8840 19399 c-88 -13 -261 -72 -335 -114 -264 -149 -418 -448 -376
-734 21 -143 69 -257 194 -463 67 -111 116 -217 150 -328 14 -48 20 -96 20
-185 1 -131 0 -135 -101 -397 -56 -143 -72 -207 -79 -313 -12 -193 56 -378
193 -524 185 -196 430 -301 707 -301 302 0 579 117 814 343 159 153 257 297
336 497 197 493 176 1067 -57 1555 -96 201 -201 349 -376 529 -230 238 -442
361 -725 422 -88 19 -280 26 -365 13z m260 -169 c476 -58 952 -508 1144 -1082
115 -345 113 -790 -6 -1127 -142 -403 -433 -689 -796 -782 -113 -29 -266 -35
-381 -15 -170 30 -284 89 -406 211 -121 120 -175 241 -175 392 0 88 18 154 86
327 82 206 97 268 98 416 1 212 -59 393 -214 640 -115 183 -160 306 -160 434
0 373 368 639 810 586z"/>
<path d="M8858 19115 c-125 -32 -188 -84 -196 -164 -6 -64 22 -111 81 -140 64
-30 106 -34 235 -21 144 14 198 6 325 -50 160 -70 257 -43 257 71 0 104 -168
243 -355 294 -85 23 -275 29 -347 10z m315 -61 c105 -26 204 -80 274 -148 51
-50 63 -68 63 -94 0 -23 -7 -36 -25 -48 -32 -21 -78 -13 -155 26 -111 56 -156
63 -346 56 -187 -8 -225 -1 -258 45 -90 128 188 230 447 163z"/>
<path d="M8780 17618 c-1 -2 -2 -57 -4 -123 -4 -125 -16 -182 -63 -287 -38
-85 -15 -122 31 -50 57 86 94 271 79 392 -6 50 -12 66 -25 68 -10 2 -18 2 -18
0z"/>
<path d="M10010 16865 c-31 -54 -32 -75 -5 -75 17 0 75 99 68 117 -10 26 -32
12 -63 -42z"/>
<path d="M8640 16714 c0 -75 120 -232 229 -298 239 -145 589 -123 845 54 81
56 206 181 206 206 0 36 -31 24 -81 -31 -205 -224 -529 -326 -791 -249 -151
45 -291 157 -343 277 -21 47 -35 67 -47 67 -13 0 -18 -8 -18 -26z"/>
<path d="M15397 19129 c-356 -39 -662 -217 -814 -474 -115 -195 -147 -418
-107 -748 30 -240 4 -471 -69 -631 -22 -48 -34 -59 -118 -111 -262 -162 -389
-193 -819 -201 -160 -3 -319 -11 -381 -20 -338 -47 -602 -173 -819 -393 -120
-120 -185 -212 -242 -341 -67 -153 -90 -260 -95 -450 -7 -247 22 -387 126
-605 156 -328 498 -587 903 -684 355 -86 752 -91 1338 -18 l95 12 49 -53 c27
-30 86 -82 130 -117 420 -327 969 -482 1636 -462 461 14 825 98 1235 284 672
305 1182 882 1306 1476 27 131 29 326 5 442 -77 360 -351 648 -731 768 -123
38 -228 50 -389 44 -164 -7 -277 -28 -472 -92 -76 -24 -139 -43 -141 -42 -1 2
9 39 23 82 41 130 83 350 96 499 13 161 1 365 -33 530 -117 578 -540 1053
-1099 1236 -182 60 -437 88 -613 69z m328 -254 c278 -45 534 -172 740 -367
211 -199 351 -456 412 -754 27 -135 25 -476 -4 -639 -26 -145 -68 -275 -130
-407 -43 -91 -49 -99 -82 -107 -56 -15 -111 -24 -111 -18 0 3 29 60 64 128 99
192 148 373 150 559 1 95 -1 105 -18 108 -26 6 -36 -15 -36 -78 -1 -193 -83
-458 -201 -645 l-53 -84 -55 -7 c-135 -17 -420 14 -585 64 l-60 18 -36 106
c-87 254 -243 431 -472 537 -125 58 -202 75 -348 75 -69 1 -146 -3 -172 -7
l-48 -8 10 26 c42 110 52 366 25 615 -20 177 -16 277 16 390 86 311 390 507
789 509 63 1 156 -6 205 -14z m-657 -1771 c111 -36 198 -92 278 -176 60 -64
131 -174 120 -186 -3 -2 -40 3 -83 12 -173 34 -344 29 -504 -15 -294 -80 -559
-317 -710 -633 -94 -197 -132 -380 -133 -631 -1 -273 51 -510 155 -716 17 -34
28 -63 25 -66 -9 -9 -218 -31 -406 -43 -290 -18 -633 10 -847 70 -111 31 -242
91 -340 156 -403 268 -566 785 -383 1216 58 136 179 290 300 382 105 81 240
146 396 191 139 40 182 45 514 54 345 10 469 25 611 71 101 33 237 100 353
173 101 63 243 131 316 150 30 9 101 16 158 16 86 1 117 -3 180 -25z m2846
-493 c309 -81 530 -280 616 -556 31 -99 38 -272 16 -387 -67 -355 -306 -728
-641 -1003 -331 -271 -681 -441 -1108 -539 -204 -47 -362 -66 -607 -73 -893
-26 -1562 290 -1825 861 -82 177 -120 387 -112 611 13 331 111 568 322 780
170 171 330 244 550 253 156 6 260 -12 474 -83 322 -105 486 -132 755 -122
191 7 326 33 568 107 340 105 504 150 592 165 120 19 295 13 400 -14z"/>
<path d="M15853 18654 c-7 -19 -2 -23 75 -59 57 -26 64 -28 78 -13 22 22 11
36 -50 64 -59 28 -94 30 -103 8z"/>
<path d="M16143 18523 c-26 -9 -12 -41 30 -68 262 -172 451 -459 514 -785 17
-83 22 -95 41 -98 32 -5 35 16 17 115 -31 170 -98 333 -201 489 -55 84 -203
234 -287 292 -78 53 -95 61 -114 55z"/>
<path d="M13040 16579 c-197 -30 -421 -156 -507 -285 -45 -67 -57 -156 -29
-199 39 -59 119 -81 189 -51 18 7 64 39 102 71 146 120 227 144 417 125 83 -8
128 -8 156 -1 142 39 167 205 43 288 -74 50 -236 72 -371 52z m223 -63 c114
-13 194 -97 158 -165 -25 -45 -61 -53 -219 -45 -120 5 -159 4 -211 -10 -83
-21 -172 -69 -235 -126 -98 -89 -136 -100 -181 -55 -32 31 -31 58 1 124 64
127 307 260 514 280 41 4 86 6 100 5 14 -2 46 -5 73 -8z"/>
<path d="M12467 15263 c-14 -13 -6 -33 40 -93 66 -89 179 -181 292 -239 148
-76 353 -129 379 -99 20 25 -3 39 -106 64 -129 32 -222 70 -314 129 -80 52
-182 146 -224 206 -25 36 -51 49 -67 32z"/>
<path d="M13346 14834 c-12 -32 13 -45 83 -42 60 3 66 5 69 26 2 13 -2 22 -10
23 -7 0 -41 2 -74 5 -51 4 -63 2 -68 -12z"/>
<path d="M17197 16434 c-116 -26 -480 -156 -504 -181 -31 -30 -31 -92 0 -120
54 -51 150 -50 357 4 52 13 142 30 200 38 124 17 185 36 222 72 56 53 43 144
-24 179 -45 23 -166 27 -251 8z m208 -60 c42 -19 50 -40 29 -71 -22 -34 -72
-53 -173 -64 -47 -5 -153 -26 -236 -46 -168 -41 -255 -48 -281 -21 -9 9 -14
23 -11 31 6 16 386 150 487 171 88 19 145 19 185 0z"/>
<path d="M14920 16397 c-41 -13 -102 -38 -135 -57 -73 -41 -198 -165 -244
-243 -104 -176 -129 -354 -61 -430 24 -27 35 -32 74 -32 60 0 95 34 153 150
112 222 197 292 399 330 106 20 145 37 180 78 23 27 25 38 21 81 -4 41 -11 55
-40 82 -71 65 -210 81 -347 41z m241 -48 c49 -17 91 -58 87 -88 -5 -38 -49
-62 -164 -87 -59 -13 -130 -35 -158 -47 -107 -50 -195 -146 -263 -287 -52
-109 -77 -140 -110 -140 -34 0 -57 58 -49 123 17 122 118 303 222 395 125 112
318 170 435 131z"/>
<path d="M17018 15881 c-113 -37 -170 -142 -139 -259 46 -168 284 -193 372
-39 35 62 34 149 -4 205 -15 23 -44 53 -66 67 -41 28 -119 40 -163 26z"/>
<path d="M15190 15808 c-24 -13 -58 -40 -74 -61 -29 -36 -31 -44 -31 -122 0
-78 2 -85 31 -122 17 -21 46 -47 65 -58 47 -28 140 -27 194 1 109 56 141 220
62 311 -63 72 -164 93 -247 51z"/>
<path d="M16445 15530 c-97 -45 -390 -56 -530 -20 -96 24 -92 24 -105 0 -17
-31 14 -181 56 -267 59 -124 166 -193 299 -194 202 -2 323 130 355 387 10 80
10 90 -6 101 -21 16 -19 16 -69 -7z m-140 -234 c67 -31 90 -58 76 -85 -16 -29
-71 -68 -120 -86 -87 -30 -195 -12 -262 45 -28 24 -32 32 -23 47 14 24 99 81
138 92 60 17 138 12 191 -13z"/>
<path d="M18273 15458 c-27 -35 -85 -160 -79 -173 13 -36 45 -7 95 88 34 63
37 97 8 97 -8 0 -19 -6 -24 -12z"/>
<path d="M17168 15288 c-60 -96 -69 -124 -43 -134 22 -9 37 7 95 101 53 87 59
118 25 123 -15 2 -33 -19 -77 -90z"/>
<path d="M17058 15342 c-33 -37 -99 -162 -96 -179 2 -10 12 -18 23 -18 14 0
34 25 72 90 29 49 53 93 53 97 0 4 -8 12 -19 17 -14 8 -22 6 -33 -7z"/>
<path d="M17328 15288 c-61 -99 -59 -94 -52 -112 13 -33 40 -15 84 56 52 83
59 98 53 116 -12 31 -43 9 -85 -60z"/>
<path d="M15026 15258 c-48 -76 -96 -160 -96 -167 0 -19 30 -34 43 -22 26 21
119 183 113 197 -8 22 -44 17 -60 -8z"/>
<path d="M15155 15208 c-65 -99 -71 -114 -55 -133 7 -8 16 -15 21 -15 16 0
120 172 117 194 -6 44 -35 29 -83 -46z"/>
<path d="M15316 15196 c-63 -99 -70 -116 -52 -134 20 -21 35 -8 91 83 46 74
50 105 14 105 -11 0 -31 -20 -53 -54z"/>
<path d="M18032 15086 c-56 -74 -197 -214 -291 -289 -159 -127 -342 -234 -563
-330 -40 -18 -52 -50 -22 -61 19 -7 159 49 271 110 243 130 451 296 610 488
51 60 73 95 71 109 -6 40 -33 30 -76 -27z"/>
<path d="M16850 14355 c-25 -7 -72 -19 -105 -27 -50 -11 -61 -17 -63 -36 -2
-12 3 -24 11 -28 15 -5 208 40 239 57 10 5 18 19 18 29 0 24 -30 25 -100 5z"/>
<path d="M5945 18195 c-312 -57 -549 -221 -689 -477 -70 -127 -106 -265 -126
-488 -14 -153 -34 -246 -70 -327 -42 -91 -80 -142 -209 -277 -65 -66 -132
-142 -149 -168 -20 -29 -44 -51 -60 -55 -34 -10 -348 -10 -357 -1 -4 4 1 47
10 95 23 114 23 300 0 408 -46 218 -156 385 -329 499 -163 109 -309 150 -521
150 -211 -1 -373 -44 -606 -163 -400 -203 -586 -301 -674 -354 -608 -366 -904
-927 -785 -1489 81 -379 371 -667 780 -774 118 -31 272 -54 367 -54 l71 0 119
-118 c145 -145 266 -231 448 -322 158 -78 289 -125 450 -163 221 -52 319 -62
615 -62 293 0 372 8 600 61 390 91 755 296 1004 565 46 50 71 69 89 69 43 0
210 47 315 88 504 198 901 652 1083 1242 176 568 107 1167 -185 1595 -192 283
-467 463 -790 520 -106 18 -303 18 -401 0z m387 -209 c266 -52 487 -205 647
-451 111 -171 192 -396 222 -620 17 -131 7 -425 -19 -545 -85 -394 -255 -727
-502 -983 -103 -108 -212 -195 -316 -253 -63 -35 -255 -116 -261 -110 -2 2 7
23 21 47 13 24 31 65 41 92 10 26 23 47 29 47 7 0 52 21 102 46 229 116 437
339 560 597 53 112 60 150 28 155 -18 2 -25 -7 -44 -55 -83 -210 -264 -444
-435 -562 -83 -57 -184 -115 -190 -109 -3 2 0 20 5 39 49 170 56 394 16 550
-27 106 -76 221 -127 296 -48 71 -156 180 -222 225 -84 57 -230 125 -322 149
-139 36 -339 37 -485 2 -22 -5 -19 0 22 45 98 105 171 250 203 402 8 38 24
145 35 237 31 261 61 348 167 488 105 138 240 220 438 265 99 23 285 25 387 6z
m-2727 -651 c113 -23 248 -96 325 -174 116 -118 180 -287 180 -473 -1 -77 -20
-201 -34 -215 -3 -3 -32 8 -63 26 -121 67 -320 159 -378 174 -265 70 -583 24
-840 -121 -172 -97 -348 -285 -435 -467 -147 -309 -132 -702 42 -1049 l50 -99
-66 7 c-170 17 -351 85 -493 185 -202 142 -324 388 -325 651 0 172 40 327 130
505 106 211 336 436 587 577 145 81 580 305 694 358 264 120 443 153 626 115z
m-45 -852 c36 -9 139 -54 230 -100 313 -159 411 -187 660 -188 201 0 248 8
495 90 105 35 226 68 270 75 220 33 464 -45 629 -201 92 -87 137 -156 177
-269 104 -294 27 -623 -219 -939 -176 -226 -419 -417 -671 -526 -286 -124
-552 -177 -891 -177 -203 -1 -322 11 -506 47 -598 120 -1046 490 -1219 1009
-87 258 -68 496 56 738 35 67 63 103 150 190 98 98 115 111 220 162 224 109
422 137 619 89z"/>
<path d="M5715 17691 c-87 -40 -180 -169 -221 -306 -11 -37 -18 -95 -18 -152
-1 -88 0 -93 28 -122 23 -24 38 -31 69 -31 74 0 114 42 152 160 15 46 33 70
111 146 73 72 94 100 100 129 27 144 -90 237 -221 176z m143 -64 c16 -15 22
-32 22 -61 0 -48 -25 -87 -86 -136 -59 -47 -99 -105 -130 -187 -31 -81 -48
-103 -84 -103 -39 0 -50 18 -50 85 0 127 58 271 144 360 75 76 132 89 184 42z"/>
<path d="M6947 16293 c-3 -5 -12 -34 -20 -65 -13 -50 -13 -59 0 -69 11 -10 17
-9 27 2 13 14 36 93 36 123 0 16 -35 23 -43 9z"/>
<path d="M3630 17167 c-48 -16 -76 -68 -66 -122 6 -29 19 -49 49 -75 22 -19
77 -72 122 -118 70 -72 87 -84 123 -89 36 -5 45 -2 73 26 30 30 31 35 27 94
-5 78 -35 143 -95 202 -75 73 -165 105 -233 82z m126 -77 c67 -38 120 -101
141 -166 15 -49 15 -54 -1 -78 -23 -35 -43 -33 -80 10 -44 52 -118 124 -160
157 -39 32 -46 60 -19 89 23 26 60 22 119 -12z"/>
<path d="M2307 16730 c-49 -31 -52 -36 -37 -60 8 -13 14 -12 46 5 54 29 84 54
84 71 0 23 -43 16 -93 -16z"/>
<path d="M2072 16565 c-47 -21 -144 -117 -192 -190 -74 -114 -110 -258 -79
-318 48 -94 138 -102 228 -21 38 34 57 62 81 122 18 42 53 118 78 167 30 60
45 104 46 131 2 97 -73 148 -162 109z m86 -57 c32 -41 16 -87 -132 -378 -40
-78 -102 -107 -150 -69 -27 21 -28 26 -23 82 15 168 243 441 305 365z"/>
<path d="M3528 16330 c-10 -6 -18 -20 -18 -30 0 -18 7 -20 63 -20 73 0 116
-18 206 -85 82 -60 142 -91 220 -111 81 -20 106 -16 106 16 0 22 -5 25 -53 32
-73 11 -142 42 -230 105 -41 30 -93 63 -115 75 -47 24 -153 34 -179 18z"/>
<path d="M3020 16287 c-119 -50 -203 -129 -262 -247 -29 -57 -33 -75 -33 -147
0 -80 1 -83 34 -117 20 -21 49 -38 68 -42 95 -18 166 36 242 185 45 87 119
181 144 181 16 0 47 67 47 102 0 27 -8 47 -29 70 -25 29 -35 32 -92 35 -50 3
-76 -2 -119 -20z m153 -48 c53 -29 50 -42 -33 -120 -57 -53 -81 -87 -128 -175
-62 -116 -100 -154 -154 -154 -80 0 -103 103 -48 219 41 87 145 190 220 219
62 24 111 27 143 11z"/>
<path d="M5595 16071 c-71 -29 -78 -105 -21 -198 30 -48 40 -77 48 -139 12
-94 28 -128 68 -149 46 -24 85 -19 124 15 94 83 62 323 -56 425 -56 47 -117
64 -163 46z m113 -80 c61 -45 106 -143 106 -232 0 -78 -23 -122 -66 -127 -39
-5 -59 28 -68 110 -9 80 -19 108 -62 177 -31 49 -34 71 -16 89 20 20 63 13
106 -17z"/>
<path d="M2783 15143 c-48 -17 61 -218 175 -325 97 -91 270 -189 307 -174 31
12 12 36 -57 74 -183 101 -289 205 -366 359 -34 66 -40 73 -59 66z"/>
<path d="M5570 14974 c-55 -70 -172 -173 -260 -229 -133 -86 -236 -128 -450
-182 -38 -10 -52 -39 -24 -50 22 -8 130 14 229 47 180 61 339 161 478 302 96
99 123 138 104 157 -19 19 -31 13 -77 -45z"/>
<path d="M4520 14501 c-26 -4 -35 -11 -35 -26 0 -18 6 -20 69 -18 66 1 91 12
83 38 -4 12 -68 15 -117 6z"/>
<path d="M9650 13270 c-205 -29 -376 -81 -555 -171 -537 -269 -858 -718 -936
-1306 -19 -149 -7 -460 25 -608 33 -158 77 -287 138 -409 39 -77 47 -101 36
-107 -20 -13 -295 -11 -385 3 -43 6 -157 12 -253 12 -152 1 -186 -2 -259 -22
-327 -89 -576 -341 -706 -712 -55 -159 -75 -266 -82 -435 -8 -223 19 -389 97
-581 149 -372 482 -626 935 -714 334 -64 858 -37 1265 65 314 79 629 235 775
384 27 28 52 51 56 51 3 0 19 -19 34 -41 76 -116 289 -302 448 -392 97 -56
260 -110 396 -133 139 -23 414 -15 546 15 195 45 377 120 519 215 83 55 207
176 242 234 l18 32 196 -7 c852 -27 1583 292 1938 844 276 431 325 1039 112
1404 -184 314 -492 500 -856 516 -212 9 -386 -25 -680 -135 -311 -116 -418
-123 -722 -53 -70 16 -156 33 -192 36 l-65 7 -32 56 c-125 227 -415 417 -706
464 -40 6 -76 15 -80 19 -5 4 7 71 26 150 49 200 61 291 54 428 -4 88 -11 137
-32 201 -110 346 -436 595 -882 675 -107 19 -344 27 -433 15z m380 -245 c258
-42 504 -173 615 -329 89 -125 120 -228 118 -391 -1 -96 -7 -133 -47 -287 -25
-97 -46 -185 -46 -196 0 -17 -9 -21 -67 -26 -430 -44 -805 -310 -1008 -716
-35 -70 -74 -167 -90 -227 -3 -8 -28 -4 -82 14 -62 20 -105 27 -212 31 -149 5
-235 -6 -344 -45 l-68 -24 -19 23 c-33 40 -108 194 -130 267 -16 55 -25 71
-39 71 -31 0 -32 -26 -5 -113 29 -91 62 -160 106 -225 17 -24 28 -45 26 -47
-1 -2 -32 -15 -67 -29 -50 -20 -67 -23 -73 -14 -35 51 -142 289 -162 360 -74
258 -75 596 -2 863 66 244 187 445 383 636 213 208 503 354 803 404 105 18
298 18 410 0z m806 -1435 c253 -23 450 -113 601 -274 76 -81 133 -183 158
-281 19 -76 19 -234 -1 -355 -40 -251 -38 -395 11 -565 31 -108 102 -256 185
-384 187 -288 230 -505 150 -754 -69 -217 -205 -370 -431 -487 -354 -182 -776
-198 -1089 -40 -364 184 -638 587 -754 1110 -50 228 -61 329 -60 580 0 245 9
328 56 515 145 581 511 907 1058 943 8 1 61 -3 116 -8z m2727 -429 c296 -77
518 -321 583 -640 32 -161 9 -418 -57 -621 -57 -175 -187 -387 -316 -517 -299
-298 -784 -488 -1328 -518 -97 -5 -299 5 -309 16 -2 2 3 32 12 67 17 63 17 63
47 57 145 -29 352 -24 509 14 89 21 113 38 94 64 -12 15 -18 15 -87 -3 -119
-32 -273 -43 -403 -30 -62 6 -115 13 -117 16 -3 3 -6 67 -7 142 -3 213 -50
359 -193 595 -164 272 -201 371 -209 552 -3 93 1 153 18 264 16 108 21 176 18
273 l-3 128 28 0 c16 0 72 -11 125 -24 296 -75 521 -56 838 67 173 68 264 96
369 113 108 18 288 11 388 -15z m-4198 -510 c33 -12 63 -25 68 -30 5 -5 0 -57
-10 -117 -26 -157 -26 -611 0 -769 39 -233 86 -418 146 -585 l31 -84 -52 -54
c-70 -71 -158 -133 -251 -178 -54 -25 -77 -42 -77 -54 0 -10 6 -20 13 -23 38
-13 226 95 323 186 l72 68 27 -48 27 -48 -74 -68 c-318 -294 -879 -451 -1548
-434 -312 8 -487 47 -675 153 -151 85 -292 229 -375 385 -83 156 -129 382
-116 574 36 547 375 946 804 945 37 0 130 -7 207 -15 163 -18 376 -20 472 -5
103 16 161 35 363 118 257 105 287 113 440 108 96 -3 139 -8 185 -25z"/>
<path d="M10115 12626 c-89 -39 -136 -136 -114 -234 21 -94 98 -155 195 -154
212 2 268 304 72 387 -45 18 -112 19 -153 1z m126 -67 c41 -21 44 -86 5 -111
-24 -16 -75 -8 -90 14 -22 32 -20 55 9 83 26 27 46 31 76 14z"/>
<path d="M9055 12612 c-81 -38 -132 -125 -122 -208 18 -164 204 -241 329 -136
97 82 88 252 -18 325 -54 38 -133 45 -189 19z m131 -78 c30 -29 27 -67 -8 -96
-26 -23 -50 -23 -79 0 -45 38 -16 122 43 122 10 0 30 -11 44 -26z"/>
<path d="M9862 12278 c-5 -7 -13 -29 -17 -48 -17 -83 -87 -140 -171 -140 -75
0 -163 79 -164 146 0 26 -18 44 -45 44 -51 0 -59 -58 -19 -139 60 -121 226
-176 346 -115 101 50 179 194 133 244 -21 23 -48 26 -63 8z"/>
<path d="M10290 12078 c-32 -57 -36 -101 -8 -106 12 -2 26 14 48 57 35 71 39
101 10 101 -13 0 -29 -17 -50 -52z"/>
<path d="M10427 12112 c-9 -9 -25 -38 -36 -62 -17 -38 -18 -47 -7 -59 19 -19
29 -10 61 53 35 69 23 114 -18 68z"/>
<path d="M10180 12073 c-30 -68 -35 -94 -19 -103 19 -12 28 -3 55 54 30 64 31
96 4 96 -13 0 -25 -14 -40 -47z"/>
<path d="M8867 12063 c-13 -21 -32 -53 -42 -72 -17 -33 -17 -35 1 -48 21 -16
34 -3 80 80 41 76 6 112 -39 40z"/>
<path d="M8970 12038 c-39 -67 -47 -98 -29 -109 18 -11 38 8 73 74 50 92 8
125 -44 35z"/>
<path d="M9078 12008 c-14 -24 -28 -51 -31 -60 -6 -18 17 -43 32 -34 16 10 72
117 66 126 -14 23 -44 8 -67 -32z"/>
<path d="M8543 11484 c-9 -25 4 -136 18 -144 28 -18 37 0 31 68 -4 65 -15 92
-34 92 -5 0 -11 -7 -15 -16z"/>
<path d="M11155 11093 c-11 -2 -30 -6 -42 -9 -37 -7 -90 -62 -109 -109 -37
-98 -1 -201 86 -245 47 -24 129 -26 169 -6 58 30 111 115 111 176 0 61 -54
146 -109 174 -31 16 -79 24 -106 19z m108 -105 c27 -36 15 -78 -26 -92 -62
-22 -109 44 -72 100 22 34 70 30 98 -8z"/>
<path d="M10127 11046 c-87 -24 -137 -92 -137 -186 0 -65 18 -108 63 -147 99
-87 241 -53 297 69 51 112 -7 235 -125 267 -47 13 -38 13 -98 -3z m123 -86
c11 -11 20 -29 20 -40 0 -24 -42 -70 -63 -70 -24 0 -67 40 -67 64 0 59 68 88
110 46z"/>
<path d="M10826 10774 c-9 -8 -16 -31 -16 -49 0 -103 -82 -170 -159 -131 -40
21 -60 53 -75 118 -11 49 -14 53 -43 56 -42 4 -57 -23 -48 -87 8 -60 40 -116
88 -155 32 -26 48 -31 106 -34 55 -3 76 0 110 17 52 27 96 88 110 152 15 70
14 86 -9 109 -24 24 -43 25 -64 4z"/>
<path d="M11229 10604 c-27 -59 -30 -107 -8 -112 12 -2 22 14 38 58 23 64 24
91 3 98 -7 2 -21 -16 -33 -44z"/>
<path d="M11322 10589 c-26 -61 -28 -85 -6 -93 11 -4 22 9 40 50 27 61 28 87
3 92 -11 2 -23 -13 -37 -49z"/>
<path d="M11130 10587 c-27 -61 -29 -90 -7 -95 13 -3 23 9 38 43 11 25 19 55
17 67 -5 38 -28 31 -48 -15z"/>
<path d="M10016 10531 c-16 -32 -25 -64 -22 -70 15 -23 37 -9 61 39 30 59 32
90 7 90 -12 0 -27 -19 -46 -59z"/>
<path d="M10143 10578 c-21 -26 -53 -98 -53 -118 0 -37 33 -18 62 35 28 50 32
85 12 92 -6 2 -16 -2 -21 -9z"/>
<path d="M10210 10521 c-23 -49 -22 -86 3 -79 17 6 60 95 53 113 -11 28 -33
15 -56 -34z"/>
<path d="M9853 9509 c-8 -8 -6 -27 4 -67 19 -71 30 -92 49 -92 24 0 26 24 8
86 -22 80 -37 97 -61 73z"/>
<path d="M9957 9206 c-3 -8 12 -51 34 -96 136 -282 353 -478 597 -541 117 -30
209 -22 173 14 -6 6 -53 19 -103 29 -142 28 -276 98 -384 200 -91 87 -181 212
-239 333 -26 53 -42 75 -55 75 -10 0 -20 -6 -23 -14z"/>
<path d="M10982 8593 c-38 -4 -43 -7 -40 -26 3 -20 9 -22 74 -22 74 0 108 14
97 41 -5 14 -32 15 -131 7z"/>
<path d="M13125 11040 c-88 -14 -207 -47 -296 -81 -180 -69 -254 -161 -202
-250 37 -62 114 -73 274 -39 149 31 260 25 369 -22 56 -24 151 -102 196 -160
87 -112 113 -193 124 -385 10 -164 28 -220 82 -253 117 -71 245 40 297 257 70
290 -3 573 -194 751 -72 67 -208 141 -310 167 -74 20 -259 27 -340 15z m346
-81 c111 -31 185 -74 270 -159 124 -122 177 -248 186 -441 14 -284 -110 -534
-224 -454 -31 21 -40 63 -47 200 -7 143 -24 215 -73 313 -42 85 -139 195 -214
242 -132 85 -284 108 -475 71 -127 -24 -157 -26 -187 -10 -45 24 -47 45 -11
89 50 59 247 138 412 165 111 18 264 11 363 -16z"/>
<path d="M7506 10309 c-79 -19 -173 -78 -248 -158 -89 -93 -128 -159 -173
-284 -83 -233 -65 -425 46 -482 36 -19 63 -19 105 1 46 22 69 63 100 180 57
217 127 311 316 421 109 64 139 95 152 159 14 64 -44 142 -122 164 -44 12
-122 12 -176 -1z m192 -69 c18 -11 38 -32 44 -46 22 -47 -12 -89 -132 -161
-125 -75 -224 -173 -269 -266 -17 -34 -42 -107 -57 -162 -31 -120 -47 -152
-80 -167 -33 -15 -68 4 -91 51 -13 27 -17 59 -16 126 3 264 168 534 380 621
76 31 174 33 221 4z"/>
<path d="M7180 8986 c0 -47 110 -182 209 -258 88 -67 227 -133 331 -157 150
-36 350 -46 488 -25 27 4 33 9 30 27 -3 21 -7 22 -103 19 -138 -4 -321 15
-424 44 -190 54 -359 169 -450 307 -47 70 -81 89 -81 43z"/>
<path d="M16495 11901 c-572 -93 -1003 -542 -1144 -1191 -112 -523 -37 -1083
214 -1595 341 -697 1033 -1266 1755 -1444 162 -39 266 -53 447 -58 264 -8 422
15 622 90 256 96 451 282 544 518 82 208 73 495 -22 728 -92 221 -233 385
-586 678 -211 176 -316 282 -404 412 -148 217 -215 439 -266 881 -38 322 -123
532 -284 703 -116 122 -271 214 -438 258 -86 23 -347 35 -438 20z m365 -217
c36 -8 107 -35 158 -60 196 -95 334 -275 397 -519 8 -33 27 -148 40 -255 48
-372 92 -545 189 -745 105 -214 273 -411 545 -637 290 -241 405 -364 483 -515
80 -153 110 -259 111 -398 1 -130 -15 -204 -72 -320 -205 -417 -863 -544
-1553 -299 -207 73 -524 257 -728 421 -183 147 -399 388 -535 598 -96 147
-133 216 -200 368 -248 571 -255 1237 -17 1712 171 342 460 576 802 649 89 20
298 20 380 0z"/>
<path d="M16555 11535 c-22 -8 -55 -30 -72 -49 -27 -29 -33 -44 -33 -81 0 -85
45 -130 170 -170 111 -36 202 -115 270 -234 116 -204 167 -256 251 -256 91 0
149 76 149 197 0 97 -16 161 -67 268 -103 214 -308 341 -547 340 -45 -1 -99
-7 -121 -15z m269 -65 c102 -26 163 -60 236 -133 139 -137 215 -416 137 -501
-65 -71 -109 -36 -252 200 -22 36 -67 95 -101 130 -61 64 -113 94 -239 139
-62 23 -95 55 -95 93 0 31 29 64 70 81 42 16 162 12 244 -9z"/>
<path d="M16285 10599 c-80 -23 -145 -116 -145 -208 0 -125 106 -220 235 -209
112 9 185 81 193 188 12 163 -126 275 -283 229z m139 -80 c52 -41 18 -139 -48
-139 -39 0 -79 41 -79 80 0 24 7 40 27 57 34 28 65 29 100 2z"/>
<path d="M16488 9961 c-62 -39 -92 -102 -86 -177 5 -64 30 -97 96 -126 41 -18
42 -20 42 -66 0 -128 130 -186 261 -116 50 27 54 32 54 64 0 31 -3 35 -28 38
-18 2 -38 -5 -58 -22 -84 -71 -194 8 -125 91 67 81 50 131 -34 97 -45 -18 -81
-13 -110 16 -40 40 -15 97 61 146 42 26 48 44 23 68 -22 23 -44 20 -96 -13z"/>
<path d="M17089 9367 c-60 -22 -96 -54 -123 -109 -64 -129 2 -271 144 -309
100 -26 221 44 250 144 18 66 7 142 -27 192 -49 71 -167 110 -244 82z m151
-97 c28 -53 -8 -120 -64 -120 -59 1 -96 52 -75 102 23 57 112 68 139 18z"/>
<path d="M18074 9269 c-46 -13 -76 -51 -81 -103 -9 -73 18 -126 112 -226 119
-125 165 -228 165 -370 0 -146 100 -233 217 -189 56 21 110 90 127 164 15 63
8 199 -14 266 -45 135 -165 287 -296 376 -112 76 -172 98 -230 82z m135 -94
c128 -68 264 -215 316 -344 40 -97 50 -185 31 -260 -20 -77 -48 -119 -92 -137
-29 -12 -39 -12 -68 0 -48 20 -66 60 -66 145 0 155 -45 260 -165 389 -102 110
-115 128 -115 171 0 77 56 90 159 36z"/>
<path d="M4845 11809 c-156 -23 -344 -94 -477 -182 -156 -102 -263 -209 -524
-527 -324 -393 -618 -528 -1269 -580 -464 -37 -706 -133 -877 -348 -120 -152
-185 -334 -195 -553 -21 -451 189 -821 615 -1081 292 -179 751 -280 1207 -265
694 23 1351 287 1866 750 199 180 397 440 506 667 156 325 217 583 216 910 -1
585 -222 1016 -592 1159 -141 54 -317 73 -476 50z m314 -214 c138 -33 280
-136 367 -266 220 -332 248 -918 64 -1378 -87 -221 -194 -402 -332 -566 -383
-455 -953 -768 -1588 -874 -337 -56 -595 -53 -910 9 -176 35 -322 84 -455 154
-146 75 -210 121 -305 216 -99 98 -173 205 -219 313 -58 140 -66 186 -66 367
1 154 2 170 28 245 42 121 92 202 171 280 136 134 276 180 664 220 682 69 951
173 1273 495 74 74 162 169 195 210 282 358 466 498 749 571 90 23 275 25 364
4z"/>
<path d="M4719 11439 c-232 -54 -479 -297 -483 -475 -1 -62 25 -97 85 -115 59
-18 101 2 204 101 129 122 172 142 334 150 87 5 136 12 158 23 63 33 101 119
83 188 -14 50 -76 104 -141 123 -56 17 -180 20 -240 5z m245 -68 c96 -43 111
-127 33 -185 -23 -17 -48 -21 -151 -26 -114 -6 -128 -9 -199 -42 -55 -27 -98
-58 -159 -116 -113 -108 -140 -120 -178 -82 -28 28 -25 57 17 141 119 238 445
396 637 310z"/>
<path d="M4283 10589 c-36 -10 -56 -38 -43 -58 5 -10 16 -11 36 -6 16 5 66 8
112 8 80 -2 83 -1 80 20 -2 12 -14 27 -28 34 -29 15 -110 16 -157 2z"/>
<path d="M4333 10344 c-52 -19 -118 -89 -132 -140 -42 -153 58 -284 218 -284
131 0 221 91 221 222 -1 159 -150 257 -307 202z m150 -74 c48 -38 46 -120 -4
-145 -40 -21 -66 -19 -94 10 -38 37 -35 95 6 129 37 31 58 33 92 6z m-53 -219
c13 -25 4 -48 -21 -56 -38 -12 -65 35 -37 63 18 18 46 14 58 -7z"/>
<path d="M5440 10144 c-28 -117 -90 -273 -149 -376 -102 -178 -293 -391 -474
-528 -84 -64 -103 -92 -71 -104 21 -8 111 56 235 167 266 238 462 555 522 847
16 77 13 90 -17 90 -21 0 -25 -10 -46 -96z"/>
<path d="M2080 10051 c-101 -63 -189 -191 -221 -321 -19 -77 -17 -259 4 -340
9 -36 38 -108 64 -160 37 -73 53 -96 71 -98 32 -5 29 16 -18 112 -84 173 -104
357 -55 503 43 128 116 222 208 269 32 17 47 31 47 44 0 30 -46 26 -100 -9z"/>
<path d="M4802 9913 c3 -73 5 -78 26 -81 22 -3 23 -2 20 75 -3 73 -5 78 -26
81 -22 3 -23 2 -20 -75z"/>
<path d="M4707 9944 c-9 -9 -9 -136 -1 -158 3 -9 15 -16 25 -16 18 0 20 7 17
87 -2 70 -6 88 -18 91 -9 1 -19 0 -23 -4z"/>
<path d="M4017 9873 c-13 -12 -7 -42 14 -77 25 -43 19 -70 -24 -97 -41 -25
-70 -24 -117 2 -48 27 -70 20 -70 -23 0 -41 -42 -106 -74 -114 -41 -10 -59 -1
-89 44 -29 42 -53 52 -75 30 -43 -43 48 -173 156 -220 95 -42 241 -9 323 73
93 93 104 280 22 371 -16 18 -54 24 -66 11z m33 -278 c0 -20 -66 -93 -101
-110 -44 -24 -115 -36 -143 -25 -24 9 -24 9 37 74 53 56 68 66 102 69 91 8
105 7 105 -8z"/>
<path d="M4607 9874 c-10 -10 -8 -136 2 -153 5 -8 16 -11 25 -8 24 9 19 160
-4 165 -9 1 -19 0 -23 -4z"/>
<path d="M2811 9814 c-66 -59 -93 -165 -45 -172 18 -3 23 5 33 43 7 29 26 62
51 89 44 47 48 61 24 70 -22 9 -20 10 -63 -30z"/>
<path d="M3040 9664 c-81 -35 -124 -107 -124 -204 0 -80 27 -137 85 -179 117
-85 282 -45 340 84 49 107 -2 249 -105 296 -50 23 -147 24 -196 3z m175 -86
c22 -26 26 -39 21 -67 -16 -103 -156 -91 -156 13 0 84 82 117 135 54z m-70
-208 c14 -43 -44 -67 -68 -28 -8 12 -7 21 2 32 19 23 58 20 66 -4z"/>
<path d="M3280 9130 c-12 -23 -13 -100 -1 -119 5 -8 16 -11 25 -8 22 9 23 132
1 141 -8 3 -19 -3 -25 -14z"/>
<path d="M3176 9095 c-10 -28 -7 -133 5 -141 20 -12 31 14 32 82 2 56 -1 69
-14 72 -9 1 -19 -4 -23 -13z"/>
<path d="M3067 9074 c-11 -12 -8 -142 4 -150 20 -12 29 12 32 81 2 56 -1 70
-13 73 -9 1 -19 0 -23 -4z"/>
<path d="M12380 6663 c-228 -10 -470 -89 -662 -216 -395 -261 -670 -751 -779
-1392 -30 -175 -37 -509 -15 -715 45 -413 182 -831 362 -1108 250 -383 605
-622 1034 -698 116 -20 353 -19 476 2 290 49 518 178 667 379 72 95 119 196
155 325 23 83 26 114 27 250 0 132 -4 168 -24 245 -30 114 -85 240 -167 381
-111 191 -152 340 -141 509 9 132 39 246 118 448 78 199 111 313 129 457 53
408 -158 800 -537 997 -187 97 -416 146 -643 136z m190 -213 c432 -53 740
-337 783 -720 19 -173 -9 -302 -137 -633 -88 -227 -123 -408 -113 -577 11
-169 62 -318 190 -548 117 -210 149 -312 148 -472 0 -131 -24 -232 -85 -355
-111 -225 -324 -365 -626 -410 -584 -89 -1135 250 -1406 865 -186 422 -255
999 -174 1461 112 647 436 1133 874 1311 180 73 366 100 546 78z"/>
<path d="M12034 6211 c-45 -21 -110 -58 -145 -81 -138 -94 -296 -285 -389
-469 -46 -92 -99 -248 -107 -314 -6 -47 -5 -49 17 -45 21 3 27 16 52 103 16
55 55 154 87 220 130 267 323 462 546 552 59 24 81 37 83 53 5 32 -51 25 -144
-19z"/>
<path d="M12871 6034 c-33 -27 -53 -80 -44 -116 3 -13 22 -57 42 -98 32 -68
36 -83 35 -155 -1 -66 -8 -101 -42 -202 -47 -134 -50 -169 -23 -228 26 -57 53
-77 109 -83 59 -5 94 11 145 67 78 86 126 224 134 382 6 120 -4 182 -48 274
-69 147 -226 228 -308 159z m161 -67 c88 -67 143 -197 141 -337 -1 -131 -47
-270 -120 -369 -31 -40 -85 -66 -111 -52 -68 36 -72 99 -17 256 33 95 39 122
39 200 1 86 -1 95 -42 181 -35 75 -41 96 -33 117 19 49 82 50 143 4z"/>
<path d="M11560 5064 c-148 -64 -174 -287 -43 -376 98 -67 213 -53 290 36 64
72 71 191 17 268 -56 79 -173 111 -264 72z m175 -80 c8 -4 22 -19 31 -35 38
-75 -43 -141 -110 -88 -67 53 -2 154 79 123z"/>
<path d="M12558 4934 c-54 -16 -113 -70 -134 -120 -8 -18 -14 -60 -14 -92 0
-80 30 -138 93 -176 105 -64 235 -36 303 66 116 172 -49 385 -248 322z m168
-97 c53 -46 23 -130 -46 -130 -69 0 -99 84 -46 130 15 12 36 23 46 23 10 0 31
-11 46 -23z"/>
<path d="M11950 4646 c-19 -24 -9 -130 16 -163 61 -82 180 -99 255 -36 61 52
89 152 48 173 -30 17 -46 6 -53 -36 -11 -54 -54 -94 -105 -94 -62 0 -92 31
-100 105 -5 51 -9 60 -27 63 -11 2 -27 -4 -34 -12z"/>
<path d="M11361 4565 c-40 -54 -48 -75 -35 -88 12 -12 41 12 79 67 36 52 39
76 11 76 -7 0 -32 -25 -55 -55z"/>
<path d="M11461 4539 c-44 -55 -53 -89 -23 -89 21 0 94 96 90 118 -6 31 -26
22 -67 -29z"/>
<path d="M11556 4500 c-37 -49 -42 -80 -12 -80 20 0 89 97 82 115 -10 27 -31
16 -70 -35z"/>
<path d="M12606 4426 c-9 -14 -23 -37 -31 -51 -19 -31 -19 -61 0 -69 20 -7 76
80 73 113 -4 34 -24 37 -42 7z"/>
<path d="M12692 4387 c-35 -58 -40 -82 -17 -91 18 -7 99 108 91 130 -11 30
-42 14 -74 -39z"/>
<path d="M12802 4378 c-16 -24 -31 -51 -35 -60 -6 -18 17 -43 32 -34 18 11 72
115 66 126 -13 20 -35 9 -63 -32z"/>
<path d="M13048 3830 c-40 -31 -52 -71 -44 -148 18 -186 18 -199 2 -255 -9
-30 -37 -86 -62 -124 -26 -37 -55 -86 -65 -108 -20 -44 -25 -116 -9 -146 27
-50 123 -64 197 -28 91 44 194 197 223 330 21 94 8 259 -26 348 -38 101 -87
151 -148 151 -28 0 -52 -7 -68 -20z m110 -63 c77 -82 105 -317 56 -467 -42
-125 -153 -240 -233 -240 -87 0 -84 63 9 200 80 117 99 205 80 369 -12 99 -12
112 4 135 21 32 55 34 84 3z"/>
<path d="M11943 3065 c-9 -26 27 -55 142 -110 142 -69 211 -86 366 -92 133 -6
173 3 167 35 -3 15 -20 17 -133 18 -99 1 -149 7 -210 24 -84 22 -225 84 -274
119 -35 25 -50 26 -58 6z"/>
<path d="M5450 6643 c-77 -8 -207 -35 -284 -59 -90 -29 -267 -114 -343 -165
-254 -172 -456 -445 -566 -764 -70 -204 -117 -464 -117 -650 l0 -93 -42 -7
c-73 -13 -159 -45 -303 -115 -290 -140 -392 -149 -735 -65 -250 61 -383 79
-540 72 -355 -15 -656 -192 -870 -512 -85 -128 -124 -209 -174 -362 -147 -455
-72 -979 192 -1347 113 -156 323 -326 515 -416 277 -130 594 -192 959 -189
l207 2 52 -79 c30 -44 106 -132 173 -200 226 -225 457 -353 801 -439 185 -47
363 -67 595 -67 396 1 691 68 1025 233 172 84 294 166 418 280 l77 71 98 -26
c310 -81 638 -91 970 -30 443 81 843 323 1058 639 77 112 116 191 153 303 81
244 81 517 0 748 -121 348 -368 579 -714 670 -94 25 -119 27 -425 34 -289 7
-333 10 -398 29 -83 24 -210 86 -292 141 -30 20 -61 39 -68 41 -13 4 -33 52
-143 338 -86 222 -89 347 -18 660 65 288 44 502 -71 731 -76 150 -243 327
-396 418 -227 135 -534 203 -794 175z m293 -248 c371 -56 667 -299 748 -613
26 -101 25 -247 -2 -372 -44 -206 -58 -307 -59 -420 0 -191 23 -290 121 -528
82 -198 110 -296 116 -417 8 -139 -28 -308 -83 -393 l-15 -23 -47 43 c-92 86
-200 147 -337 191 -118 38 -218 51 -353 44 -135 -6 -207 -24 -422 -102 -215
-78 -320 -98 -495 -92 -77 2 -148 8 -157 12 -26 11 -155 206 -199 301 -135
292 -199 625 -186 964 18 460 158 828 411 1086 256 259 599 373 959 319z
m-1589 -1747 c3 -13 10 -59 16 -103 33 -230 122 -524 203 -667 11 -21 19 -40
16 -42 -2 -3 -25 0 -49 6 -25 5 -103 10 -175 10 -105 -1 -149 -6 -228 -26
-387 -99 -664 -408 -763 -851 -31 -137 -30 -404 2 -562 l7 -33 -154 0 c-178 0
-297 17 -437 61 -165 53 -312 135 -440 247 -59 51 -65 54 -80 38 -15 -15 -13
-19 28 -62 143 -148 380 -268 630 -321 64 -13 132 -17 277 -18 l191 0 12 -39
c6 -21 14 -44 16 -51 8 -20 -160 -28 -311 -15 -487 41 -875 238 -1072 543 -68
105 -128 240 -158 357 -36 142 -47 416 -21 555 48 256 161 473 335 646 84 83
109 101 201 147 149 73 207 86 370 86 147 0 185 -6 425 -64 197 -47 280 -60
387 -60 154 1 312 42 471 121 90 46 265 119 284 119 7 0 15 -10 17 -22z m2827
-672 c197 -91 296 -108 639 -111 316 -2 391 -14 533 -86 238 -119 379 -323
423 -613 28 -180 -1 -358 -86 -532 -109 -224 -270 -386 -520 -522 -323 -175
-788 -234 -1208 -153 -50 10 -95 20 -98 24 -3 3 7 29 23 57 31 57 17 55 153
23 56 -13 119 -17 255 -18 206 0 238 5 233 38 -3 22 -4 22 -168 18 -124 -2
-190 1 -265 14 -159 27 -150 16 -103 136 145 371 139 762 -18 1085 l-44 91 44
84 c69 130 102 251 122 442 3 31 7 57 8 57 2 0 36 -15 77 -34z m-891 -297
c309 -85 526 -349 585 -711 58 -361 -69 -765 -327 -1034 -144 -150 -276 -248
-458 -339 -517 -259 -1268 -274 -1779 -34 -386 181 -666 543 -738 954 -23 132
-13 360 20 475 78 274 234 478 450 586 190 96 389 99 685 8 153 -46 254 -65
392 -70 194 -8 295 9 555 97 115 39 244 77 285 85 96 17 233 10 330 -17z"/>
<path d="M5956 6005 c-82 -29 -126 -96 -126 -192 0 -72 28 -132 78 -166 91
-63 194 -56 266 17 86 85 86 204 1 292 -58 61 -137 79 -219 49z m138 -76 c57
-45 13 -133 -58 -115 -55 14 -59 96 -6 123 33 17 33 17 64 -8z"/>
<path d="M4911 5990 c-110 -26 -179 -164 -137 -275 28 -73 114 -135 190 -135
37 0 96 23 132 53 97 80 98 229 1 314 -54 47 -112 60 -186 43z m90 -88 c47
-39 16 -122 -47 -122 -57 0 -83 73 -42 117 26 28 58 29 89 5z"/>
<path d="M5692 5643 c-5 -10 -12 -35 -16 -55 -18 -98 -133 -155 -229 -114 -46
19 -77 57 -97 118 -15 48 -20 53 -46 53 -88 0 -29 -176 81 -240 55 -33 144
-43 210 -25 56 16 127 77 154 133 23 48 28 116 9 135 -18 18 -56 15 -66 -5z"/>
<path d="M6052 5488 c-19 -25 -52 -98 -52 -117 0 -23 25 -35 38 -18 5 7 22 36
36 65 21 42 25 57 15 68 -14 17 -24 18 -37 2z"/>
<path d="M6141 5445 c-41 -72 -44 -100 -13 -100 19 0 31 13 57 63 35 65 36 92
5 92 -11 0 -30 -20 -49 -55z"/>
<path d="M6260 5443 c-37 -58 -45 -82 -32 -95 19 -19 41 0 71 60 22 44 27 62
18 71 -18 18 -26 13 -57 -36z"/>
<path d="M4704 5403 c-41 -64 -48 -96 -22 -101 20 -4 100 112 95 138 -6 35
-36 20 -73 -37z"/>
<path d="M4814 5380 c-39 -58 -45 -72 -34 -85 7 -8 16 -15 21 -15 5 0 30 31
55 70 39 58 45 72 34 85 -7 8 -16 15 -21 15 -5 0 -30 -31 -55 -70z"/>
<path d="M4965 5412 c-19 -12 -65 -100 -65 -121 0 -37 29 -22 66 33 34 52 41
86 19 93 -5 1 -15 -1 -20 -5z"/>
<path d="M6230 5236 c-20 -55 -33 -163 -27 -245 6 -97 40 -219 63 -228 33 -12
36 13 14 103 -19 76 -21 104 -16 199 4 60 8 128 9 150 2 31 -2 40 -15 43 -12
2 -21 -6 -28 -22z"/>
<path d="M2300 4366 c-257 -72 -515 -409 -498 -649 4 -52 9 -64 36 -88 25 -22
42 -29 75 -29 63 0 100 29 163 127 98 154 132 178 310 223 146 37 213 69 259
123 91 106 55 236 -81 286 -63 24 -190 27 -264 7z m257 -68 c25 -12 52 -35 64
-55 19 -30 20 -39 10 -72 -25 -85 -77 -117 -258 -162 -63 -15 -135 -38 -160
-50 -63 -30 -142 -112 -186 -191 -40 -71 -77 -108 -110 -108 -122 0 -36 293
142 483 146 157 354 222 498 155z"/>
<path d="M7804 3631 c-19 -12 -37 -34 -43 -54 -18 -52 4 -93 85 -162 38 -32
101 -95 141 -140 101 -116 172 -147 258 -111 49 21 75 68 75 136 0 70 -25 125
-87 191 -63 68 -121 104 -216 134 -95 30 -170 32 -213 6z m249 -84 c121 -60
207 -160 207 -241 0 -49 -8 -65 -42 -82 -56 -29 -110 -1 -196 102 -28 34 -82
88 -119 119 -37 32 -74 68 -81 81 -11 21 -10 26 9 45 33 33 128 22 222 -24z"/>
<path d="M8341 2910 c-13 -99 -34 -162 -87 -256 -31 -56 -32 -63 -18 -75 14
-12 20 -9 44 19 69 82 120 230 120 344 0 54 -1 58 -24 58 -22 0 -24 -5 -35
-90z"/>
<path d="M4010 3526 c-70 -20 -144 -61 -178 -101 -42 -48 -45 -104 -6 -134 31
-25 60 -26 134 -6 34 9 101 15 176 15 109 0 124 2 155 23 19 12 40 35 47 51
28 58 -27 131 -117 156 -48 13 -155 11 -211 -4z m201 -56 c19 -6 46 -21 59
-35 l24 -25 -22 -23 c-21 -20 -33 -22 -146 -24 -80 -1 -143 -7 -180 -18 -91
-27 -112 -4 -51 55 64 62 219 97 316 70z"/>
<path d="M5646 3225 c-75 -26 -140 -112 -152 -198 -8 -59 18 -148 58 -193 48
-55 102 -78 178 -78 105 0 195 58 230 149 17 42 15 143 -2 185 -50 119 -189
179 -312 135z m193 -85 c31 -16 46 -65 31 -100 -35 -85 -154 -56 -154 37 0 58
67 93 123 63z"/>
<path d="M4065 3082 c-89 -43 -144 -128 -145 -222 0 -78 16 -125 58 -172 75
-83 190 -103 293 -50 170 86 184 334 23 428 -62 37 -170 44 -229 16z m213 -98
c47 -52 12 -134 -57 -134 -91 0 -119 120 -36 156 37 16 63 10 93 -22z"/>
<path d="M3541 3032 c-30 -56 -52 -182 -49 -283 3 -99 4 -104 26 -107 21 -3
22 -1 22 80 1 81 14 165 41 261 12 42 11 49 -1 57 -21 14 -28 12 -39 -8z"/>
<path d="M5217 2803 c-4 -3 -7 -28 -7 -54 0 -27 -5 -59 -11 -72 -27 -60 -113
-54 -182 14 -22 21 -43 39 -47 39 -4 0 -24 -20 -45 -45 -43 -53 -81 -75 -128
-75 -45 0 -68 27 -74 87 -7 57 -17 73 -49 73 -37 0 -49 -37 -35 -106 36 -182
152 -284 321 -284 138 0 243 66 302 189 36 75 51 198 28 226 -13 15 -61 21
-73 8z m-161 -243 c32 -11 65 -23 73 -25 22 -8 -12 -40 -72 -65 -42 -18 -64
-22 -124 -18 -71 5 -135 31 -117 48 17 15 149 80 165 80 9 0 42 -9 75 -20z"/>
<path d="M5987 2713 c-4 -3 -7 -13 -7 -22 0 -22 88 -131 106 -131 30 0 25 31
-12 82 -50 71 -71 88 -87 71z"/>
<path d="M5863 2673 c-7 -3 -13 -12 -13 -22 0 -24 88 -141 106 -141 31 0 26
33 -17 95 -45 66 -55 75 -76 68z"/>
<path d="M5710 2611 c0 -20 84 -141 99 -141 16 0 33 29 25 42 -57 96 -124 149
-124 99z"/>
<path d="M6460 2565 c-18 -48 -17 -89 3 -93 20 -4 50 56 45 91 -5 33 -36 34
-48 2z"/>
<path d="M3896 2489 c-44 -74 -49 -103 -20 -107 17 -2 30 12 63 68 43 73 47
100 12 100 -12 0 -31 -20 -55 -61z"/>
<path d="M4047 2493 c-36 -56 -57 -100 -57 -116 0 -21 31 -30 45 -15 27 29 78
136 72 152 -11 27 -35 18 -60 -21z"/>
<path d="M4202 2488 c-5 -7 -22 -37 -36 -66 -21 -42 -25 -57 -15 -68 6 -8 18
-14 25 -14 19 0 79 123 71 144 -8 19 -31 21 -45 4z"/>
<path d="M6392 2348 c-5 -7 -24 -42 -42 -78 -78 -157 -221 -307 -388 -408 -67
-41 -238 -114 -331 -142 -63 -19 -72 -24 -69 -43 4 -29 36 -27 158 14 275 92
507 265 638 479 68 110 91 168 71 181 -19 12 -25 11 -37 -3z"/>
<path d="M17300 5320 c-405 -43 -727 -304 -816 -662 -9 -38 -19 -147 -24 -274
-5 -125 -16 -240 -25 -285 -20 -87 -81 -218 -128 -273 l-33 -38 -54 34 c-270
173 -681 268 -1027 239 -472 -41 -968 -280 -1304 -628 -231 -241 -369 -483
-445 -781 -79 -309 -47 -610 88 -848 167 -294 527 -511 879 -531 229 -13 440
47 684 193 189 112 289 127 523 77 282 -60 513 -23 704 113 l47 33 53 -18
c157 -54 234 -65 448 -66 282 0 407 28 645 146 496 245 903 802 1069 1464 103
411 94 864 -25 1220 -115 345 -346 624 -634 768 -182 91 -432 138 -625 117z
m330 -240 c115 -30 190 -62 290 -127 282 -183 462 -521 509 -955 29 -264 2
-528 -84 -828 -44 -152 -71 -221 -150 -385 -148 -306 -377 -583 -614 -744
-150 -102 -358 -186 -525 -212 -128 -20 -431 2 -485 35 -6 4 6 28 30 59 82
108 162 291 210 482 30 117 37 369 15 506 -42 256 -153 484 -323 669 l-60 64
49 61 c84 103 155 276 173 420 3 28 10 136 15 240 13 279 46 379 172 511 112
118 256 194 420 223 85 16 262 6 358 -19z m-2091 -1245 c459 -64 811 -309 991
-687 61 -129 81 -220 87 -388 8 -216 -24 -374 -112 -557 -81 -170 -171 -282
-291 -362 -161 -108 -323 -129 -582 -78 -273 55 -420 30 -656 -112 -202 -122
-324 -161 -505 -161 -145 0 -253 24 -376 85 -225 110 -395 308 -450 525 -86
337 34 758 315 1101 199 243 513 450 857 565 94 32 253 69 333 77 91 10 290 5
389 -8z"/>
<path d="M18104 4427 c-2 -7 6 -39 20 -72 17 -43 30 -61 45 -63 27 -4 27 20 0
93 -15 41 -25 55 -40 55 -11 0 -22 -6 -25 -13z"/>
<path d="M17090 4198 c-61 -31 -94 -92 -86 -163 3 -27 14 -61 24 -75 71 -95
226 -80 277 26 22 46 16 124 -12 162 -23 32 -97 72 -133 72 -14 0 -46 -10 -70
-22z m81 -48 c30 -17 23 -69 -11 -82 -47 -17 -78 35 -43 74 19 21 27 22 54 8z"/>
<path d="M18219 4140 c-13 -8 -14 -19 -3 -97 38 -265 0 -574 -106 -877 -39
-108 -41 -120 -26 -134 14 -14 18 -14 30 -2 17 17 97 248 126 360 47 186 62
434 36 629 -14 106 -29 137 -57 121z"/>
<path d="M17916 3960 c-63 -20 -106 -83 -106 -155 0 -131 138 -205 247 -133
98 65 97 212 -3 270 -37 21 -100 30 -138 18z m68 -66 c39 -39 -1 -106 -52 -88
-20 7 -28 17 -30 40 -5 54 47 84 82 48z"/>
<path d="M16876 3863 c-44 -34 -56 -61 -30 -70 18 -6 99 61 102 85 5 32 -17
28 -72 -15z"/>
<path d="M16956 3823 c-47 -39 -61 -73 -28 -73 28 1 106 74 99 93 -9 24 -19
21 -71 -20z"/>
<path d="M17289 3804 c-11 -31 -4 -96 16 -134 20 -37 75 -87 117 -104 77 -32
167 -14 229 46 33 32 40 45 37 71 -4 45 -41 50 -62 9 -22 -42 -74 -72 -127
-72 -84 0 -136 54 -148 155 -5 42 -10 51 -28 53 -17 3 -26 -4 -34 -24z"/>
<path d="M17038 3776 c-36 -33 -43 -66 -14 -66 15 0 86 72 86 88 0 23 -35 12
-72 -22z"/>
<path d="M17836 3541 c-38 -39 -44 -71 -13 -71 19 0 100 86 93 99 -13 21 -42
11 -80 -28z"/>
<path d="M17934 3517 c-34 -31 -46 -48 -41 -60 3 -9 12 -17 19 -17 22 0 108
89 101 105 -9 24 -29 17 -79 -28z"/>
<path d="M18030 3484 c-41 -37 -49 -57 -29 -70 15 -9 104 80 95 95 -11 18 -24
13 -66 -25z"/>
<path d="M17992 2873 c-31 -62 -31 -83 -1 -83 19 0 69 83 69 114 0 11 -20 26
-36 26 -2 0 -17 -26 -32 -57z"/>
<path d="M17760 2504 c-38 -51 -41 -57 -26 -72 14 -14 17 -14 35 2 35 32 74
95 67 111 -10 28 -33 16 -76 -41z"/>
<path d="M17555 2279 c-128 -130 -325 -228 -519 -259 -71 -12 -95 -27 -80 -51
15 -25 183 7 316 60 119 47 215 109 307 198 73 70 83 84 72 97 -21 25 -33 20
-96 -45z"/>
<path d="M15367 3663 c-4 -3 -7 -14 -7 -24 0 -13 12 -18 61 -24 63 -7 86 1 76
28 -8 21 -113 38 -130 20z"/>
<path d="M15650 3604 c-18 -20 -1 -35 65 -59 142 -51 306 -180 402 -317 36
-51 61 -78 74 -78 47 0 -4 99 -112 214 -106 114 -222 191 -358 237 -65 23 -56
22 -71 3z"/>
<path d="M14119 3167 c-24 -13 -54 -38 -66 -57 -25 -36 -31 -98 -11 -118 19
-19 63 -14 93 10 15 11 62 40 104 62 87 47 96 67 42 103 -45 30 -104 30 -162
0z m121 -37 c0 -5 -15 -17 -32 -26 -18 -9 -52 -30 -75 -45 -49 -34 -53 -35
-53 -10 0 25 27 57 65 76 34 17 95 20 95 5z"/>
<path d="M15684 3163 c-29 -6 -68 -48 -61 -67 3 -8 24 -24 46 -36 22 -11 63
-40 91 -65 56 -50 88 -62 119 -46 44 24 39 89 -9 145 -45 51 -126 81 -186 69z
m106 -68 c32 -16 70 -61 70 -81 0 -25 -32 -15 -72 21 -21 20 -50 41 -64 47
-13 6 -24 15 -24 20 0 13 59 9 90 -7z"/>
<path d="M16255 3010 c-8 -12 23 -108 41 -129 34 -39 44 40 13 105 -15 30 -42
43 -54 24z"/>
<path d="M14190 2875 c-70 -40 -104 -96 -108 -175 -3 -53 1 -73 20 -110 60
-116 215 -145 314 -57 57 49 77 99 72 177 -6 117 -71 182 -187 188 -56 2 -73
-1 -111 -23z m82 -72 c18 -16 24 -59 10 -79 -10 -15 -47 -34 -66 -34 -24 0
-56 37 -56 65 0 54 71 85 112 48z"/>
<path d="M15485 2853 c-74 -39 -115 -105 -115 -188 0 -86 54 -168 129 -197 47
-18 128 -11 173 14 121 67 145 243 46 335 -55 51 -170 69 -233 36z m83 -82
c21 -26 11 -73 -19 -90 -31 -17 -74 -8 -89 19 -34 64 63 129 108 71z"/>
<path d="M14608 2519 c-2 -8 -1 -60 3 -115 11 -163 70 -265 179 -313 72 -32
123 -36 196 -16 121 33 199 131 230 292 29 155 21 168 -97 151 -71 -10 -327
-5 -450 8 -42 5 -57 3 -61 -7z m399 -204 c48 -14 103 -54 103 -74 0 -18 -53
-72 -89 -90 -58 -30 -122 -36 -180 -16 -54 18 -111 63 -111 89 0 21 85 78 140
92 60 17 78 17 137 -1z"/>
<path d="M13926 2343 c-45 -55 -56 -91 -29 -100 15 -5 112 116 113 140 0 35
-38 17 -84 -40z"/>
<path d="M15657 2337 c-59 -92 -61 -97 -42 -116 15 -15 17 -14 35 9 42 56 82
131 76 145 -11 28 -35 15 -69 -38z"/>
<path d="M15781 2318 c-54 -75 -60 -101 -26 -106 15 -1 30 14 60 60 39 63 51
107 29 115 -7 2 -35 -29 -63 -69z"/>
<path d="M14062 2323 c-22 -26 -46 -57 -53 -69 -13 -26 -6 -54 14 -54 18 0
109 126 105 147 -6 31 -26 24 -66 -24z"/>
<path d="M15910 2296 c-40 -63 -48 -95 -23 -103 17 -6 107 132 100 152 -12 29
-35 14 -77 -49z"/>
<path d="M14181 2273 c-44 -62 -50 -87 -26 -97 10 -4 29 14 60 56 25 34 45 67
45 74 0 10 -21 24 -35 24 -2 0 -22 -26 -44 -57z"/>
</g>
</svg>
