<?xml version="1.0" standalone="no"?>
<!DOCTYPE svg PUBLIC "-//W3C//DTD SVG 20010904//EN"
 "http://www.w3.org/TR/2001/REC-SVG-20010904/DTD/svg10.dtd">
<svg version="1.0" xmlns="http://www.w3.org/2000/svg"
 width="2048.000000pt" height="2048.000000pt" viewBox="0 0 2048.000000 2048.000000"
 preserveAspectRatio="xMidYMid meet">
<metadata>
Created by potrace 1.16, written by Peter Selinger 2001-2019
</metadata>
<g transform="translate(0.000000,2048.000000) scale(0.100000,-0.100000)"
fill="#000000" stroke="none">
<path d="M10958 12974 c-292 -45 -570 -149 -1225 -457 -197 -93 -869 -428
-1168 -582 -917 -474 -2252 -1147 -2645 -1335 -283 -135 -395 -185 -765 -344
-287 -123 -423 -179 -740 -302 -176 -68 -425 -192 -547 -273 -364 -241 -562
-579 -609 -1039 -14 -131 -6 -431 15 -563 96 -615 374 -1142 768 -1462 201
-162 396 -262 628 -322 166 -43 233 -50 485 -49 217 0 255 3 400 28 472 82
906 245 1489 560 88 47 161 84 162 83 2 -2 24 -54 49 -116 258 -637 716 -1070
1327 -1251 577 -172 1261 -93 2003 230 307 134 811 405 1150 620 33 21 191
118 350 215 160 98 332 205 383 238 51 33 94 58 95 56 2 -2 18 -42 36 -89 212
-535 604 -963 1093 -1195 l127 -60 22 -65 c49 -150 132 -262 244 -329 120 -73
324 -134 575 -173 128 -19 184 -22 470 -23 263 0 350 3 455 18 370 53 636 142
750 253 51 49 98 136 136 253 l27 85 118 61 c205 105 350 212 509 376 136 140
172 184 268 327 279 414 475 1026 518 1607 16 225 -5 354 -81 504 -125 249
-448 486 -890 654 -145 56 -390 127 -507 149 -35 6 -63 14 -63 18 0 4 35 36
78 72 350 297 493 587 493 1003 0 159 -13 256 -57 434 -69 279 -246 620 -444
855 -82 98 -251 263 -340 333 -255 199 -572 340 -900 399 -148 28 -423 25
-565 -5 -321 -67 -725 -245 -1366 -602 -107 -60 -201 -109 -207 -109 -7 0 -12
6 -12 13 0 24 -168 346 -224 431 -322 483 -821 795 -1394 871 -137 18 -355 18
-474 -1z m489 -339 c339 -65 634 -214 869 -437 129 -123 233 -268 328 -456 43
-85 118 -264 113 -267 -1 -1 -33 -19 -72 -41 -71 -39 -260 -146 -555 -316 -91
-52 -259 -148 -375 -212 -115 -65 -248 -140 -295 -166 -85 -48 -413 -227 -675
-368 -77 -41 -192 -103 -255 -137 -581 -315 -1355 -693 -1945 -950 -416 -181
-608 -274 -751 -363 -304 -189 -492 -372 -608 -592 -141 -267 -186 -634 -122
-990 8 -41 11 -78 7 -82 -27 -28 -502 -275 -701 -363 -297 -133 -556 -218
-825 -270 -117 -23 -150 -24 -110 -3 44 23 193 186 234 255 68 115 84 176 83
323 -1 155 -21 290 -72 488 -49 188 -90 295 -180 471 -122 237 -331 487 -535
638 -87 65 -259 163 -356 204 -109 45 -286 88 -419 101 -191 19 -350 -16 -486
-107 -81 -55 -83 -41 -11 81 68 116 200 251 322 330 108 69 320 172 505 244
357 139 656 266 1144 484 l169 76 256 -131 c465 -239 895 -455 991 -499 186
-85 467 -198 580 -233 131 -41 306 -87 333 -87 10 0 32 14 49 30 26 27 30 36
25 68 -8 48 -34 68 -105 82 -102 21 -402 126 -587 205 -296 126 -1325 644
-1325 667 0 3 10 10 23 14 24 7 1456 721 1472 734 5 4 116 61 245 125 129 65
343 174 475 243 363 188 1297 658 1492 749 95 45 175 78 178 73 10 -16 35
-171 50 -310 44 -403 -15 -897 -154 -1304 -38 -111 -38 -130 -2 -167 37 -36
82 -39 115 -6 25 25 90 209 131 374 113 452 131 1001 44 1398 -10 49 -19 92
-19 96 0 9 265 126 416 185 176 68 331 109 519 138 58 9 291 -3 372 -19z
m3613 -580 c155 -11 346 -68 535 -160 352 -170 657 -484 845 -868 179 -367
216 -707 110 -999 -35 -96 -62 -142 -139 -245 -67 -88 -147 -159 -364 -321
-134 -100 -156 -113 -182 -108 -151 28 -828 43 -1110 25 -340 -22 -636 -67
-948 -145 -573 -143 -977 -345 -1228 -612 -123 -131 -182 -239 -214 -391 -34
-163 -8 -541 61 -869 14 -68 24 -125 22 -127 -5 -5 -524 -326 -808 -500 -683
-418 -1068 -615 -1489 -762 -157 -55 -411 -126 -419 -118 -3 2 11 22 30 43 73
80 156 227 191 337 66 204 63 561 -7 850 -147 600 -538 1044 -1087 1233 -410
141 -866 134 -1186 -18 -46 -21 -83 -34 -83 -28 0 22 83 118 159 185 166 146
342 243 821 456 282 125 456 204 765 347 39 18 143 68 233 111 l163 78 99 -44
c653 -293 1281 -487 1852 -570 277 -40 318 -33 318 53 0 68 -20 77 -225 107
-439 63 -874 178 -1350 355 -157 59 -454 185 -468 199 -6 6 66 48 189 110 335
169 921 476 1154 606 607 337 1021 571 1540 872 85 49 238 136 340 193 172 95
375 207 392 217 10 5 70 -125 107 -232 37 -104 76 -272 96 -410 35 -239 35
-689 0 -935 -31 -220 -31 -225 -2 -254 26 -26 66 -33 102 -20 29 11 45 62 65
202 57 406 44 923 -31 1245 -29 123 -91 303 -140 405 -22 46 -39 85 -37 87 39
34 444 233 600 296 224 89 475 143 618 132 19 -1 69 -5 110 -8z m540 -3009
c14 -2 66 -7 115 -11 315 -23 790 -120 1055 -215 361 -129 646 -312 747 -481
43 -72 67 -166 58 -231 -9 -64 -64 -173 -110 -218 l-35 -34 -63 61 c-242 236
-710 434 -1269 537 -363 67 -667 91 -1048 83 -757 -17 -1394 -169 -1865 -445
-95 -56 -261 -186 -301 -236 -16 -20 -33 -36 -39 -36 -16 0 -103 114 -125 162
-94 213 52 442 409 643 387 216 1017 378 1656 424 118 9 766 6 815 -3z
m-11219 -144 c147 -38 229 -70 360 -144 274 -154 517 -419 665 -724 116 -240
223 -657 212 -829 -3 -46 -6 -51 -43 -72 -22 -12 -80 -34 -130 -49 -78 -23
-107 -27 -220 -27 -107 1 -147 5 -227 26 -317 83 -615 329 -793 653 -30 55
-58 105 -62 112 -4 6 -43 21 -86 32 -105 26 -188 72 -262 145 -113 112 -185
269 -185 404 0 224 180 448 400 498 83 19 235 9 371 -25z m11342 -571 c662
-79 1184 -260 1500 -519 37 -31 67 -59 67 -63 0 -12 -151 -96 -259 -144 -388
-172 -921 -285 -1541 -326 -224 -15 -789 -6 -1000 16 -468 47 -893 141 -1205
265 -120 47 -267 119 -290 141 -23 23 205 201 375 292 329 176 849 311 1340
347 80 5 163 12 185 14 22 2 177 3 345 1 232 -3 348 -8 483 -24z m-7169 -111
c330 -65 587 -198 806 -419 280 -282 430 -639 461 -1101 6 -92 7 -174 2 -200
-8 -43 -9 -44 -110 -95 -225 -114 -457 -139 -708 -75 -104 26 -296 121 -409
201 -176 126 -372 331 -514 541 -97 142 -127 155 -269 122 -151 -35 -274 16
-340 143 -46 88 -58 150 -58 318 l0 150 35 69 c50 101 142 190 255 248 103 53
217 90 325 108 41 6 82 13 90 15 46 12 335 -5 434 -25z m-4775 -406 c46 -33
145 -76 228 -100 7 -2 26 -29 42 -62 61 -120 155 -247 271 -363 269 -270 538
-394 880 -405 116 -4 162 -1 233 14 48 10 87 14 87 9 0 -17 -106 -120 -164
-159 -138 -94 -279 -138 -446 -138 -139 0 -234 25 -395 105 -140 70 -221 126
-337 234 -157 147 -346 428 -428 636 -41 105 -93 259 -104 309 l-7 28 41 -33
c23 -19 67 -52 99 -75z m13767 -131 c-2 -10 -7 -38 -11 -63 -21 -143 -103
-428 -185 -644 -28 -73 -149 -309 -197 -385 -128 -200 -324 -406 -505 -529
-267 -181 -611 -306 -993 -361 -473 -68 -906 -52 -1305 49 -582 146 -981 415
-1270 855 -116 178 -236 469 -304 740 -29 115 -67 327 -60 334 3 3 11 1 18 -4
7 -6 44 -34 82 -62 325 -246 927 -424 1684 -499 223 -22 752 -30 978 -15 778
53 1362 191 1793 427 115 62 229 135 249 159 17 20 32 19 26 -2z m-9968 -647
c65 -23 142 -28 232 -16 79 11 86 10 98 -7 193 -278 286 -384 457 -526 138
-115 212 -166 343 -232 196 -99 331 -130 562 -129 178 0 260 14 404 68 38 14
72 26 77 26 5 0 0 -19 -12 -42 -91 -180 -238 -301 -429 -354 -101 -29 -352
-26 -488 4 -520 117 -937 445 -1180 929 -43 85 -122 269 -122 284 0 12 11 11
58 -5z m8588 -1429 c-3 -13 -14 -44 -26 -69 -18 -41 -26 -48 -99 -81 -204 -93
-578 -157 -922 -157 -257 0 -531 38 -713 97 -146 49 -194 82 -223 153 -12 30
-18 56 -13 58 5 2 60 -10 122 -27 398 -106 1005 -123 1481 -41 107 18 346 76
356 85 2 3 13 5 24 5 15 0 18 -5 13 -23z"/>
<path d="M10435 11876 l-24 -24 5 -194 c5 -162 9 -197 23 -218 24 -33 87 -39
122 -11 22 18 24 27 27 133 2 62 1 151 -3 197 -6 75 -10 88 -35 113 -36 36
-81 37 -115 4z"/>
<path d="M9602 11637 c-20 -22 -22 -33 -22 -163 0 -80 -7 -187 -17 -252 -16
-111 -16 -113 4 -140 40 -54 116 -51 142 5 33 73 57 304 46 439 -6 72 -11 91
-31 110 -32 33 -92 33 -122 1z"/>
<path d="M5919 9882 c-42 -21 -58 -67 -39 -111 13 -33 92 -87 266 -185 138
-78 331 -158 358 -150 40 12 66 45 66 84 0 25 -7 43 -22 57 -13 11 -97 56
-188 101 -91 44 -205 106 -255 137 -129 82 -144 88 -186 67z"/>
<path d="M6222 8024 c-18 -10 -35 -27 -38 -41 -4 -13 4 -96 16 -184 20 -138
22 -186 17 -337 -4 -98 -13 -211 -22 -252 -20 -98 -20 -97 14 -131 38 -37 88
-40 120 -5 48 52 85 414 63 626 -18 167 -42 279 -66 306 -28 31 -64 38 -104
18z"/>
<path d="M6711 7706 c-19 -20 -25 -43 -34 -138 -15 -155 -14 -184 7 -207 36
-40 106 -35 134 10 16 24 40 196 38 263 -1 39 -7 53 -29 72 -37 32 -86 32
-116 0z"/>
<path d="M14042 11397 c-29 -30 -28 -57 7 -212 33 -143 47 -165 108 -165 23 0
42 8 60 26 29 30 29 44 -9 224 -25 123 -45 150 -106 150 -27 0 -45 -7 -60 -23z"/>
<path d="M13383 11028 c-40 -19 -47 -58 -29 -148 9 -44 16 -107 16 -140 0 -76
26 -111 84 -113 31 -1 44 5 64 28 24 28 25 33 19 135 -7 115 -27 198 -55 223
-24 22 -71 29 -99 15z"/>
<path d="M16023 10656 l-28 -24 3 -169 c3 -187 -8 -270 -57 -414 -36 -106 -80
-194 -145 -288 -83 -119 -86 -125 -86 -154 0 -42 40 -77 87 -77 44 1 55 8 105
70 189 234 306 644 270 950 -9 72 -14 88 -37 107 -34 30 -77 29 -112 -1z"/>
<path d="M10760 9660 c-27 -27 -28 -100 -1 -124 43 -39 359 -136 495 -152 49
-6 57 -4 80 19 18 18 26 37 26 60 0 57 -23 74 -133 97 -111 24 -221 56 -321
94 -82 31 -119 33 -146 6z"/>
<path d="M10542 7950 c-34 -32 -36 -60 -7 -136 46 -119 73 -219 95 -351 19
-112 21 -154 17 -333 -5 -227 -25 -360 -77 -524 -35 -107 -36 -118 -14 -151
33 -50 115 -51 148 -1 19 30 71 200 90 296 55 279 46 648 -23 910 -30 118 -81
248 -108 281 -31 36 -87 40 -121 9z"/>
<path d="M11273 7348 c-17 -19 -23 -46 -32 -143 -6 -67 -22 -159 -37 -209 -27
-94 -26 -124 6 -156 25 -25 80 -26 109 -2 43 36 101 271 101 414 0 46 -5 62
-26 87 -33 39 -89 43 -121 9z"/>
<path d="M14745 8170 c-235 -21 -414 -64 -560 -134 -146 -71 -218 -135 -235
-209 -9 -40 9 -91 35 -101 43 -16 83 -6 109 27 50 62 72 79 161 122 149 72
318 109 578 125 143 9 292 4 422 -16 57 -8 95 22 95 76 0 57 -37 84 -135 99
-107 16 -350 21 -470 11z"/>
<path d="M16028 7902 c-66 -62 -113 -86 -229 -117 -160 -43 -329 -58 -549 -51
-107 3 -218 9 -246 12 -44 5 -55 3 -73 -15 -30 -30 -36 -67 -18 -107 20 -40
47 -49 197 -62 320 -28 661 9 862 95 174 74 259 185 197 256 -13 15 -38 30
-56 33 -28 6 -38 1 -85 -44z"/>
<path d="M17042 7203 c-7 -3 -37 -53 -67 -111 -29 -59 -76 -143 -104 -187 -28
-43 -51 -89 -51 -101 0 -13 12 -36 26 -53 31 -37 78 -42 117 -11 52 41 207
327 207 383 0 56 -73 102 -128 80z"/>
<path d="M16519 6477 c-114 -113 -245 -199 -361 -236 -74 -24 -100 -95 -54
-147 33 -39 73 -36 176 11 134 61 265 153 358 249 74 78 82 89 82 125 0 48
-35 81 -85 81 -28 0 -46 -13 -116 -83z"/>
</g>
</svg>
