<?xml version="1.0" standalone="no"?>
<!DOCTYPE svg PUBLIC "-//W3C//DTD SVG 20010904//EN"
 "http://www.w3.org/TR/2001/REC-SVG-20010904/DTD/svg10.dtd">
<svg version="1.0" xmlns="http://www.w3.org/2000/svg"
 width="1024.000000pt" height="1024.000000pt" viewBox="0 0 1024.000000 1024.000000"
 preserveAspectRatio="xMidYMid meet">
<metadata>
Created by potrace 1.16, written by Peter Selinger 2001-2019
</metadata>
<g transform="translate(0.000000,1024.000000) scale(0.100000,-0.100000)"
fill="#000000" stroke="none">
<path d="M5105 7573 c-554 -32 -987 -135 -1390 -332 -486 -238 -804 -542
-1004 -961 -87 -182 -149 -406 -167 -601 -4 -38 -12 -73 -18 -77 -6 -3 -42
-15 -80 -24 -128 -33 -216 -104 -270 -218 -27 -57 -31 -78 -34 -169 -3 -61 1
-128 8 -160 17 -77 78 -205 129 -269 24 -30 41 -55 39 -57 -2 -2 -37 -26 -78
-52 -228 -149 -352 -353 -352 -578 0 -145 38 -247 129 -345 92 -100 244 -159
406 -160 l67 0 0 -112 c0 -217 32 -387 93 -503 18 -33 61 -89 97 -125 139
-139 328 -200 737 -235 807 -69 2529 -49 3463 40 342 33 595 91 734 169 37 21
99 67 137 103 56 53 79 84 115 157 72 146 84 223 90 586 6 276 8 305 23 302
145 -25 155 -25 218 -15 132 23 232 94 285 201 32 64 33 72 33 182 0 111 -1
118 -34 184 -61 123 -195 237 -378 321 -46 21 -83 40 -83 42 0 3 9 18 21 34
30 43 75 147 93 215 89 342 -74 623 -373 643 l-86 6 -7 65 c-16 146 -55 301
-115 460 -257 679 -879 1127 -1738 1249 -225 32 -510 46 -710 34z m480 -243
c568 -53 984 -213 1318 -505 294 -257 494 -653 533 -1052 l6 -72 -38 -16 c-22
-9 -76 -41 -122 -73 -75 -51 -88 -56 -135 -56 -37 1 -71 10 -117 32 -142 69
-314 79 -475 28 -95 -30 -158 -68 -242 -146 -71 -67 -113 -84 -192 -78 -49 3
-71 13 -150 63 -51 32 -132 72 -180 89 -82 29 -94 31 -236 31 -138 -1 -156 -3
-230 -28 -108 -38 -188 -84 -265 -153 -74 -66 -129 -93 -187 -94 -66 0 -92 16
-183 109 -70 72 -100 95 -170 129 -113 55 -223 77 -350 69 -129 -8 -223 -37
-366 -113 -108 -57 -128 -64 -178 -64 -70 0 -96 13 -166 85 -69 71 -144 117
-240 146 -99 31 -270 32 -372 2 l-68 -20 0 25 c0 48 50 271 81 358 260 741
1039 1216 2144 1307 98 8 480 6 580 -3z m2248 -1830 c59 -41 80 -82 85 -169 5
-96 -9 -165 -53 -256 -45 -93 -143 -201 -194 -215 -84 -22 -675 -63 -1316 -90
-1095 -46 -2723 -50 -3515 -9 -225 11 -249 19 -335 104 -86 86 -135 194 -135
296 0 69 12 104 48 143 39 40 64 48 188 56 92 6 131 15 234 50 116 40 128 42
214 38 116 -5 158 -25 257 -120 97 -95 165 -129 273 -135 108 -7 186 14 308
82 158 88 255 112 379 95 117 -17 175 -49 272 -151 93 -97 147 -130 252 -151
123 -24 272 23 390 124 135 115 228 153 375 152 115 -1 186 -25 304 -102 132
-87 269 -113 397 -76 73 21 120 50 219 133 106 90 166 115 275 114 72 0 92 -5
200 -48 109 -44 127 -48 200 -48 101 0 149 18 277 106 62 42 119 72 155 82 32
9 63 18 68 21 6 2 40 2 77 0 50 -2 77 -9 101 -26z m166 -887 c115 -56 146 -76
202 -132 72 -73 97 -130 85 -196 -10 -52 -57 -100 -111 -114 -53 -13 -98 -5
-206 38 -140 55 -244 63 -340 24 -23 -9 -80 -45 -126 -80 -134 -99 -245 -119
-380 -67 -181 70 -206 76 -266 71 -84 -8 -153 -46 -243 -135 -90 -88 -142
-117 -250 -139 -142 -29 -272 7 -484 132 -144 84 -215 109 -320 109 -99 0
-182 -25 -277 -85 -107 -68 -172 -91 -271 -97 -111 -6 -193 16 -281 76 -114
78 -164 97 -261 97 -75 0 -93 -4 -150 -31 -93 -45 -152 -102 -238 -232 -99
-152 -161 -192 -292 -192 -102 0 -128 26 -207 206 -65 146 -255 237 -432 206
-84 -14 -149 -42 -273 -116 -181 -108 -332 -153 -489 -144 -133 7 -212 57
-249 155 -25 68 -25 134 0 215 40 129 157 246 339 337 59 30 67 32 110 22 132
-30 1291 -55 2136 -47 1131 10 1978 43 2675 102 257 21 328 32 379 59 25 13
54 24 65 25 10 0 80 -30 155 -67z m-281 -949 c-5 -350 -10 -389 -61 -494 -64
-133 -232 -221 -507 -264 -249 -40 -712 -72 -1380 -97 -398 -15 -1610 -15
-1955 0 -650 28 -859 71 -975 198 -84 92 -111 199 -113 459 l-2 156 89 38 c48
21 120 58 160 81 147 88 174 99 240 99 45 0 71 -6 100 -23 41 -23 55 -45 109
-168 40 -88 80 -132 163 -176 132 -71 288 -68 442 7 104 52 167 113 258 250
56 86 78 109 114 128 68 34 96 29 189 -32 96 -64 165 -92 276 -113 174 -32
356 8 524 116 89 58 170 74 242 49 19 -6 86 -42 149 -80 203 -121 352 -164
529 -155 198 10 307 55 441 183 49 46 101 86 116 90 29 7 49 1 170 -50 198
-84 430 -45 619 103 28 21 54 35 58 31 5 -4 7 -156 5 -336z"/>
<path d="M5409 6987 c-80 -53 -119 -205 -66 -255 73 -69 197 43 197 177 0 90
-60 126 -131 78z"/>
<path d="M3929 6900 c-45 -13 -75 -39 -103 -89 -48 -89 -25 -166 48 -164 67 2
139 78 151 158 10 71 -32 112 -96 95z"/>
<path d="M6226 6827 c-32 -32 -34 -74 -5 -137 36 -79 88 -120 153 -120 50 0
70 33 64 101 -8 84 -77 164 -150 175 -30 5 -41 2 -62 -19z"/>
<path d="M4596 6601 c-78 -86 42 -301 155 -276 91 20 67 212 -35 274 -42 26
-97 27 -120 2z"/>
<path d="M5784 6421 c-60 -37 -86 -170 -43 -225 15 -19 30 -26 55 -26 63 0
114 75 114 168 0 90 -55 126 -126 83z"/>
</g>
</svg>
