<?xml version="1.0" standalone="no"?>
<!DOCTYPE svg PUBLIC "-//W3C//DTD SVG 20010904//EN"
 "http://www.w3.org/TR/2001/REC-SVG-20010904/DTD/svg10.dtd">
<svg version="1.0" xmlns="http://www.w3.org/2000/svg"
 width="1024.000000pt" height="1024.000000pt" viewBox="0 0 1024.000000 1024.000000"
 preserveAspectRatio="xMidYMid meet">
<metadata>
Created by potrace 1.16, written by Peter Selinger 2001-2019
</metadata>
<g transform="translate(0.000000,1024.000000) scale(0.100000,-0.100000)"
fill="#000000" stroke="none">
<path d="M5505 7669 c-141 -21 -311 -93 -434 -184 -85 -63 -229 -203 -304
-295 -76 -94 -209 -297 -272 -415 l-48 -90 -161 -1 c-131 -1 -175 -5 -237 -22
-178 -48 -326 -131 -432 -240 l-67 -70 -53 15 c-88 24 -308 29 -423 8 -170
-30 -315 -87 -456 -177 -384 -246 -638 -663 -740 -1213 -19 -104 -22 -155 -22
-380 0 -225 3 -278 22 -389 57 -327 140 -554 288 -778 83 -127 256 -304 369
-378 235 -152 490 -219 730 -191 88 10 229 43 244 57 2 2 -2 11 -10 20 -7 9 7
3 31 -14 71 -47 219 -118 305 -147 256 -83 515 -70 744 37 63 30 64 30 100 13
213 -103 396 -142 626 -132 189 8 324 44 495 132 l85 44 69 -25 c250 -91 527
-78 786 36 51 22 113 55 139 73 46 32 47 32 156 29 336 -8 635 160 852 480
186 273 298 607 340 1013 54 531 -112 1086 -437 1453 -158 179 -369 322 -575
390 -214 71 -469 82 -628 27 l-41 -14 -31 37 c-109 133 -276 235 -475 289
-100 27 -352 24 -439 -5 -36 -11 -68 -19 -72 -16 -4 2 -15 39 -25 81 -69 313
125 571 444 590 81 5 95 9 117 31 51 50 25 120 -72 197 -103 81 -207 119 -350
129 -43 2 -105 0 -138 -5z m266 -138 c70 -22 154 -75 144 -91 -3 -6 -19 -10
-35 -10 -41 0 -156 -37 -222 -72 -72 -38 -166 -129 -206 -199 -79 -140 -101
-337 -54 -502 26 -90 88 -218 143 -296 22 -30 37 -56 35 -59 -3 -2 -29 5 -58
16 -167 62 -386 75 -553 33 -98 -25 -237 -86 -330 -146 -57 -36 -60 -37 -84
-21 -15 10 -59 33 -99 53 -49 24 -70 39 -64 47 5 6 37 74 71 151 355 809 865
1235 1312 1096z m-1394 -964 c3 -4 -5 -30 -19 -59 -14 -29 -38 -86 -53 -126
l-29 -73 -55 8 c-31 4 -119 8 -196 7 -132 -1 -223 -16 -307 -49 -13 -5 -18 -2
-18 8 0 9 -9 19 -21 22 -21 7 -21 7 3 32 29 32 147 112 213 145 89 45 158 65
315 92 33 6 159 0 167 -7z m1540 2 c144 -19 243 -56 373 -139 42 -28 83 -50
90 -50 7 0 11 -2 9 -4 -2 -2 -49 0 -104 5 -180 16 -381 -18 -524 -88 -101 -50
-100 -50 -68 -16 24 26 26 32 13 42 -8 7 -18 23 -22 34 -4 12 -29 54 -55 94
-27 40 -49 76 -49 81 0 6 28 17 63 26 106 27 163 30 274 15z m-2486 -309 c76
-14 159 -39 159 -48 0 -4 -19 -15 -41 -26 -117 -54 -283 -210 -401 -376 -252
-356 -390 -914 -349 -1405 45 -540 221 -977 513 -1280 54 -56 98 -105 98 -107
0 -15 -140 -33 -250 -32 -277 1 -502 99 -720 314 -257 254 -411 605 -459 1052
-14 124 -14 404 -1 505 88 661 417 1150 904 1343 123 49 224 68 367 69 70 1
151 -4 180 -9z m2902 -5 c394 -69 760 -382 976 -835 128 -269 191 -557 191
-875 0 -332 -67 -625 -210 -913 -185 -372 -449 -611 -767 -693 -150 -38 -324
-35 -471 7 l-53 16 81 79 c276 272 440 659 440 1042 0 88 -2 98 -17 95 -14 -2
-21 -25 -34 -103 -41 -251 -118 -457 -251 -673 -230 -375 -571 -581 -964 -582
-460 0 -830 249 -1062 716 -58 116 -111 249 -142 354 -25 85 -30 93 -49 80
-30 -18 26 -316 90 -481 72 -188 228 -395 394 -526 22 -17 37 -34 34 -37 -13
-14 -128 -49 -199 -62 -319 -57 -654 66 -916 338 -243 252 -403 605 -470 1038
-25 160 -25 509 -1 670 100 645 414 1107 858 1262 91 32 99 33 254 33 155 0
163 -1 253 -33 86 -29 182 -77 182 -89 0 -3 -25 -33 -56 -66 -126 -139 -277
-405 -354 -622 -68 -195 -108 -419 -116 -663 -6 -178 3 -277 26 -277 11 0 17
27 27 123 40 401 161 815 319 1094 226 397 558 610 913 585 533 -39 965 -574
1196 -1482 25 -99 37 -131 51 -134 16 -3 17 6 11 120 -8 150 -27 263 -72 417
-62 218 -189 482 -313 656 -70 97 -216 252 -284 303 l-51 37 43 18 c166 71
344 93 513 63z m697 -1 c254 -48 508 -203 694 -424 267 -318 412 -768 392
-1220 -17 -416 -141 -812 -345 -1100 -102 -145 -271 -285 -417 -344 -67 -27
-195 -56 -249 -56 l-37 0 57 63 c97 106 203 265 275 412 295 604 292 1341 -6
1934 -91 179 -179 304 -309 439 -112 117 -205 191 -319 256 -65 37 -74 45 -54
49 57 11 242 6 318 -9z"/>
</g>
</svg>
