<?xml version="1.0" standalone="no"?>
<!DOCTYPE svg PUBLIC "-//W3C//DTD SVG 20010904//EN"
 "http://www.w3.org/TR/2001/REC-SVG-20010904/DTD/svg10.dtd">
<svg version="1.0" xmlns="http://www.w3.org/2000/svg"
 width="1024.000000pt" height="1024.000000pt" viewBox="0 0 1024.000000 1024.000000"
 preserveAspectRatio="xMidYMid meet">
<metadata>
Created by potrace 1.16, written by Peter Selinger 2001-2019
</metadata>
<g transform="translate(0.000000,1024.000000) scale(0.100000,-0.100000)"
fill="#000000" stroke="none">
<path d="M4910 6825 c-633 -87 -1181 -473 -1417 -1000 -79 -175 -108 -313
-101 -474 6 -125 28 -191 96 -294 118 -180 350 -294 717 -353 94 -15 172 -29
174 -30 1 -2 -15 -47 -37 -101 -65 -160 -87 -259 -86 -398 0 -86 5 -137 18
-180 89 -299 386 -465 831 -465 292 0 538 79 692 223 202 189 240 453 115 805
-20 55 -26 85 -18 87 6 1 67 8 136 14 236 22 445 80 584 163 139 82 245 223
291 388 22 78 25 264 6 355 -140 647 -751 1162 -1494 1260 -140 18 -374 18
-507 0z m485 -150 c258 -36 472 -110 671 -231 144 -87 213 -141 330 -260 236
-240 377 -533 377 -789 1 -274 -164 -461 -475 -540 -231 -58 -674 -82 -1222
-65 -726 22 -1040 68 -1271 188 -84 43 -182 137 -218 208 -78 154 -56 367 62
609 67 136 116 211 216 322 268 301 639 498 1046 557 125 18 360 19 484 1z
m-400 -2036 c154 -6 379 -9 499 -7 l220 3 33 -76 c156 -363 91 -648 -178 -785
-206 -104 -565 -123 -815 -43 -319 102 -421 342 -300 704 19 57 49 131 66 165
l31 62 82 -6 c45 -3 208 -11 362 -17z"/>
<path d="M4511 5854 c-43 -55 -11 -134 55 -134 47 0 70 14 82 50 13 36 -1 86
-28 100 -36 20 -87 12 -109 -16z"/>
<path d="M5332 5787 c-50 -53 -13 -137 60 -137 69 0 105 91 55 138 -32 30 -87
29 -115 -1z"/>
<path d="M4785 5538 c-31 -17 -35 -28 -35 -96 0 -74 22 -124 74 -170 85 -74
195 -67 278 18 38 39 48 59 58 106 16 75 5 123 -32 144 -25 13 -31 13 -55 0
-24 -14 -29 -24 -34 -73 -8 -71 -36 -107 -84 -107 -45 0 -71 33 -78 99 -9 79
-42 107 -92 79z"/>
</g>
</svg>
