<?xml version="1.0" standalone="no"?>
<!DOCTYPE svg PUBLIC "-//W3C//DTD SVG 20010904//EN"
 "http://www.w3.org/TR/2001/REC-SVG-20010904/DTD/svg10.dtd">
<svg version="1.0" xmlns="http://www.w3.org/2000/svg"
 width="2048.000000pt" height="2048.000000pt" viewBox="0 0 2048.000000 2048.000000"
 preserveAspectRatio="xMidYMid meet">
<metadata>
Created by potrace 1.16, written by Peter Selinger 2001-2019
</metadata>
<g transform="translate(0.000000,2048.000000) scale(0.100000,-0.100000)"
fill="#000000" stroke="none">
<path d="M8510 18388 c-67 -46 -76 -68 -70 -176 13 -253 4 -470 -28 -697 -45
-314 -51 -368 -58 -536 l-7 -151 -26 6 c-82 18 -118 18 -164 -2 -25 -11 -53
-31 -61 -45 -41 -62 -39 -255 5 -471 27 -131 98 -344 154 -464 25 -52 44 -97
42 -99 -2 -1 -26 4 -54 12 -310 92 -792 113 -1113 49 -162 -32 -277 -69 -425
-133 -169 -75 -191 -182 -64 -316 29 -30 50 -57 47 -60 -3 -3 -59 -21 -124
-39 -202 -58 -428 -156 -614 -266 -124 -73 -365 -239 -575 -395 -82 -61 -179
-130 -215 -154 -117 -78 -150 -120 -150 -186 0 -49 25 -99 63 -128 204 -154
759 -391 1135 -486 269 -67 407 -84 699 -85 139 -1 253 -3 253 -6 0 -3 -19
-48 -42 -100 -53 -121 -61 -189 -26 -240 49 -73 119 -84 378 -55 885 98 1564
429 2200 1070 l154 156 69 -69 68 -68 -37 -85 c-20 -46 -100 -244 -178 -439
-79 -195 -154 -376 -167 -402 -19 -37 -50 -66 -154 -144 -183 -136 -304 -243
-408 -359 -93 -105 -202 -251 -261 -353 l-35 -59 -61 -7 c-33 -3 -86 -9 -117
-12 l-58 -6 -62 94 c-216 329 -587 534 -1045 579 -133 13 -299 1 -458 -31
-385 -79 -709 -292 -908 -598 -152 -233 -213 -441 -218 -741 l-3 -184 -108
-27 c-413 -105 -709 -332 -870 -670 -82 -173 -116 -320 -116 -515 0 -363 139
-687 409 -952 176 -172 401 -310 592 -365 28 -8 33 -13 28 -31 -42 -156 -46
-488 -7 -642 95 -382 309 -648 664 -827 100 -50 289 -113 385 -129 60 -10 72
-15 66 -28 -100 -237 -120 -545 -53 -815 48 -197 142 -365 291 -520 109 -115
215 -196 341 -260 130 -66 367 -136 463 -136 19 0 34 -4 34 -9 0 -5 -20 -69
-44 -142 -64 -194 -80 -303 -73 -513 6 -186 25 -289 86 -455 104 -284 315
-516 601 -661 100 -51 272 -104 403 -125 l38 -6 -8 -62 c-22 -173 -1 -396 53
-570 100 -314 329 -594 638 -777 125 -75 222 -115 361 -150 444 -112 867 -6
1188 299 119 114 204 230 282 386 118 236 158 406 157 665 0 85 -5 176 -10
203 -9 46 -9 47 17 53 257 55 468 164 643 332 201 192 322 415 377 691 54 271
22 565 -90 839 -22 53 -42 102 -44 107 -2 6 37 29 86 53 448 216 729 635 755
1127 11 200 -25 415 -96 571 -16 37 -29 68 -28 70 2 1 44 23 93 49 303 159
506 357 637 620 173 346 176 824 7 1184 -21 46 -39 85 -39 87 0 1 16 8 37 15
155 51 333 166 468 303 117 118 182 209 258 361 73 147 101 221 136 356 90
352 87 620 -10 896 -38 108 -57 146 -125 249 -181 276 -475 461 -862 545 -123
26 -416 37 -545 20 -186 -25 -407 -98 -561 -186 -44 -25 -80 -44 -81 -42 -1 1
-24 36 -51 77 -26 41 -98 125 -159 185 -218 219 -472 351 -785 407 -151 27
-409 28 -555 3 -155 -27 -139 -33 -214 76 -157 227 -267 502 -335 831 l-26
127 55 153 c137 376 334 703 608 1008 160 179 323 302 534 407 145 71 185 105
204 175 34 128 -57 331 -230 511 -168 174 -342 244 -460 183 -16 -9 -53 -40
-82 -68 -294 -297 -736 -941 -932 -1358 -27 -58 -51 -107 -53 -109 -3 -3 -22
12 -43 33 l-39 38 23 47 c67 133 196 509 244 713 125 522 128 969 11 1368 -42
142 -110 282 -154 315 -71 54 -146 46 -231 -24 -33 -28 -63 -47 -66 -43 -3 4
-21 45 -39 92 -70 180 -174 365 -289 515 -113 149 -359 380 -587 552 -293 220
-373 256 -454 201z m363 -507 c443 -337 686 -710 778 -1194 18 -98 81 -146
165 -127 28 6 59 31 125 96 l87 87 25 -79 c108 -344 76 -849 -89 -1409 -39
-133 -145 -415 -155 -415 -17 0 -137 294 -207 510 -82 250 -120 415 -221 960
-91 482 -147 717 -212 878 -48 120 -90 175 -119 157 -17 -10 -11 -85 15 -200
69 -298 88 -392 135 -670 58 -345 125 -683 170 -870 38 -153 136 -469 179
-572 16 -40 27 -73 22 -73 -4 0 -52 35 -107 78 -115 89 -246 180 -424 292 -98
63 -134 92 -170 139 -25 32 -70 89 -101 127 -120 147 -228 333 -302 519 -57
142 -106 355 -79 343 4 -1 38 -18 75 -36 115 -56 189 -43 231 42 19 38 19 38
-10 170 -42 192 -40 374 10 751 20 154 39 330 42 390 7 157 13 197 27 188 7
-3 56 -40 110 -82z m2617 -2108 c56 -63 107 -141 116 -175 19 -79 -98 24 -159
140 -61 116 -42 131 43 35z m-215 -75 c36 -71 108 -170 159 -217 14 -14 26
-28 26 -32 0 -3 -30 -26 -67 -50 -360 -235 -679 -609 -937 -1102 -117 -224
-236 -540 -236 -627 0 -98 92 -464 159 -633 50 -126 156 -332 225 -437 36 -56
66 -104 66 -108 0 -8 -66 -52 -79 -52 -11 0 -121 164 -185 275 -59 102 -141
293 -200 465 -26 74 -52 140 -59 147 -19 19 -73 23 -96 7 -43 -30 -185 -295
-245 -455 -84 -227 -115 -380 -123 -616 l-6 -162 -35 27 -35 26 6 186 c4 157
10 213 41 369 37 192 36 211 -6 211 -106 0 -458 -331 -544 -512 -15 -33 -22
-38 -50 -38 -18 0 -35 3 -37 8 -6 9 103 159 196 270 105 126 289 283 462 395
39 25 78 54 89 66 10 11 69 145 131 298 379 941 642 1445 1028 1978 120 165
299 385 314 385 1 0 18 -32 38 -72z m-3335 -168 c447 -75 931 -281 1305 -553
109 -80 325 -258 325 -269 0 -2 -60 4 -132 14 -729 96 -1473 76 -2266 -62
-472 -83 -862 -202 -862 -265 0 -35 79 -26 499 55 168 32 394 72 501 89 702
108 1424 123 2060 41 85 -11 163 -20 173 -20 9 0 17 -5 17 -10 0 -17 -167
-186 -285 -288 -441 -380 -907 -621 -1415 -730 -116 -26 -366 -64 -385 -60 -9
2 16 52 77 153 53 88 92 165 95 186 9 64 -44 132 -113 145 -23 4 -64 -3 -136
-25 -157 -48 -239 -61 -414 -68 -446 -17 -902 92 -1406 334 -76 37 -138 71
-138 77 0 6 96 82 213 170 578 432 916 578 1402 604 83 5 160 14 173 21 55 29
83 146 48 197 -8 11 -73 60 -145 109 -72 48 -131 91 -131 95 0 18 194 64 350
84 19 2 132 3 250 1 160 -3 247 -9 340 -25z m2170 -2803 c42 -98 153 -291 215
-378 l33 -46 -75 -74 c-94 -93 -180 -199 -235 -290 -37 -63 -43 -69 -54 -54
-17 23 -43 140 -56 250 -17 149 23 429 85 600 28 75 38 98 41 94 2 -2 22 -48
46 -102z m-2720 -47 c309 -38 573 -182 713 -389 46 -68 49 -76 33 -85 -376
-226 -612 -494 -751 -854 -38 -100 -80 -261 -91 -355 -3 -32 -12 -60 -18 -62
-6 -2 -38 -6 -71 -9 l-60 -6 -45 61 c-152 209 -449 385 -741 440 -174 32 -161
25 -176 94 -20 97 -16 298 7 391 55 220 173 404 347 545 218 175 555 265 853
229z m1987 -335 c0 -30 -3 -55 -7 -55 -14 0 -60 23 -60 29 0 11 50 81 58 81 4
0 8 -25 9 -55z m2118 -35 c331 -61 610 -244 795 -522 151 -227 220 -465 207
-712 -24 -467 -295 -874 -690 -1036 -56 -23 -59 -24 -85 -6 -108 71 -330 154
-512 193 -122 26 -453 26 -563 0 -74 -18 -79 -18 -105 -1 -50 32 -182 173
-228 244 l-45 71 13 77 c7 46 12 156 12 272 0 162 -4 213 -23 300 -22 101 -70
258 -97 310 -11 22 -9 35 15 97 57 146 130 256 253 381 179 183 427 305 693
341 82 12 274 6 360 -9z m-2428 -254 c109 -23 186 -51 308 -111 325 -159 560
-486 626 -874 18 -102 15 -331 -5 -436 -39 -200 -126 -403 -232 -542 -31 -40
-60 -76 -64 -78 -5 -3 -47 6 -94 19 -220 64 -531 73 -746 23 -237 -56 -456
-158 -609 -284 -30 -24 -60 -42 -67 -39 -45 17 -212 142 -282 210 -140 135
-243 317 -294 516 -40 154 -50 374 -23 530 67 403 323 757 682 942 156 81 262
115 438 142 58 9 291 -3 362 -18z m4633 -242 c414 -78 676 -305 761 -661 42
-171 25 -418 -42 -618 -64 -191 -157 -358 -266 -475 -121 -131 -234 -198 -433
-255 -67 -19 -126 -38 -132 -41 -5 -3 -28 10 -51 28 -227 185 -514 300 -827
333 l-56 6 -63 80 -62 81 24 37 c124 187 214 478 233 751 9 140 -22 402 -60
500 -5 11 21 32 96 77 153 91 314 148 493 172 91 13 279 6 385 -15z m-7465
-664 c253 -36 477 -152 623 -323 128 -149 202 -350 202 -547 0 -69 -14 -177
-24 -187 -2 -2 -47 -13 -99 -24 -109 -22 -274 -77 -357 -119 -232 -117 -472
-342 -600 -562 -52 -89 -33 -86 -201 -31 -170 55 -329 158 -443 287 -83 94
-119 148 -172 260 -63 134 -87 243 -87 396 0 106 4 138 27 213 46 154 116 268
228 373 210 196 593 308 903 264z m4912 -1219 c444 -87 777 -409 870 -841 25
-118 25 -371 -1 -490 -58 -268 -170 -476 -351 -648 -145 -140 -294 -222 -505
-279 -85 -24 -114 -26 -275 -27 -185 -1 -237 6 -365 46 -77 24 -200 78 -200
88 0 4 22 44 50 89 99 165 187 449 211 676 40 398 -89 820 -336 1092 l-53 59
76 51 c144 96 295 157 461 187 114 21 302 20 418 -3z m1570 -101 c406 -42 737
-281 889 -641 66 -157 79 -224 78 -414 0 -191 -14 -261 -78 -399 -183 -396
-634 -637 -1099 -587 -166 18 -357 76 -424 129 l-22 17 46 70 c91 139 176 353
220 555 26 121 26 458 0 580 -40 186 -109 357 -200 493 l-46 67 70 35 c116 59
277 97 435 104 18 0 77 -4 131 -9z m-5292 -29 c189 -39 346 -121 473 -246 l82
-83 -44 -72 c-203 -329 -266 -772 -165 -1170 16 -63 29 -117 29 -120 0 -3 -28
-14 -62 -25 -88 -27 -251 -112 -345 -178 -43 -30 -116 -92 -161 -136 l-81 -80
-123 10 c-274 22 -482 95 -646 227 -69 55 -153 149 -189 210 -161 273 -164
680 -8 1007 160 335 496 595 852 659 114 21 280 19 388 -3z m1992 -30 c148
-29 275 -81 395 -162 305 -207 488 -602 464 -1004 -36 -601 -408 -1054 -937
-1140 -562 -91 -1113 273 -1263 834 -182 681 201 1327 874 1471 120 26 337 26
467 1z m-1444 -1998 c134 -196 332 -370 538 -473 149 -75 393 -150 488 -150
16 0 32 -3 34 -7 3 -5 -4 -48 -15 -98 -26 -123 -34 -371 -15 -489 l13 -89 -57
-73 c-98 -123 -230 -222 -414 -310 -292 -141 -637 -158 -906 -45 -262 110
-469 381 -508 665 -66 473 214 920 694 1107 39 15 77 27 86 28 9 1 36 -29 62
-66z m3986 -117 c105 -54 292 -120 409 -143 62 -12 136 -17 255 -18 l169 0 49
-100 c74 -150 101 -267 102 -440 1 -266 -71 -457 -242 -637 -87 -93 -166 -150
-286 -208 -158 -77 -239 -95 -430 -95 -137 0 -171 3 -240 23 -85 25 -195 70
-195 81 0 4 15 43 34 88 82 194 116 353 123 568 4 132 2 181 -15 280 -24 137
-59 258 -107 362 l-33 71 83 51 c46 28 117 76 157 106 40 30 75 55 77 55 3 0
43 -20 90 -44z m-1791 -139 c52 -32 143 -71 237 -101 246 -79 515 -95 755 -46
121 25 110 31 164 -101 58 -143 78 -237 84 -396 6 -172 -8 -272 -54 -413 -136
-408 -469 -678 -899 -730 -236 -28 -498 35 -704 171 -376 248 -546 695 -435
1144 27 110 28 111 97 125 149 29 333 101 462 180 76 47 213 148 234 174 17
20 14 20 59 -7z m-975 -1470 c14 -24 55 -80 90 -124 199 -245 495 -419 819
-481 l87 -16 7 -44 c4 -24 4 -114 1 -201 -10 -273 -77 -467 -237 -680 -108
-143 -237 -247 -410 -330 -130 -63 -246 -96 -375 -109 -414 -41 -765 152 -922
506 -42 95 -73 237 -80 362 -13 255 47 468 201 717 56 90 57 92 113 108 182
53 395 172 528 296 31 28 53 35 117 38 33 1 39 -3 61 -42z m2229 -198 c138
-70 370 -129 511 -129 l84 0 36 -54 c55 -82 132 -242 160 -331 37 -119 50
-228 44 -373 -6 -159 -31 -255 -97 -387 -145 -288 -409 -463 -740 -489 -371
-30 -794 195 -1000 532 l-33 54 32 101 c50 163 65 270 65 469 l0 177 66 11
c174 29 351 93 496 179 101 61 232 161 293 225 19 20 36 36 38 36 2 0 22 -9
45 -21z m-1098 -1585 c48 -52 119 -120 157 -150 163 -132 395 -245 591 -288
l97 -21 16 -67 c64 -284 33 -549 -94 -784 -181 -335 -501 -524 -848 -500 -242
17 -475 124 -654 300 -256 251 -356 585 -280 927 l23 107 38 6 c59 9 188 55
287 101 181 85 429 280 529 416 20 27 39 49 42 49 4 0 47 -43 96 -96z"/>
<path d="M6890 12460 c-58 -10 -160 -51 -221 -91 -64 -41 -160 -145 -187 -203
-12 -25 -27 -68 -33 -95 -34 -160 121 -261 234 -153 15 14 27 36 27 49 0 22
-3 23 -48 17 -60 -8 -88 16 -77 65 10 48 79 143 129 179 74 53 169 94 213 90
l38 -3 -2 -67 c-2 -62 -1 -68 18 -68 36 0 78 30 99 70 64 126 -35 235 -190
210z"/>
<path d="M11387 12017 c-51 -16 -106 -62 -123 -103 -21 -50 -18 -147 6 -193
38 -75 130 -131 215 -131 98 0 98 35 0 104 -61 43 -105 96 -105 126 0 10 9 28
19 41 17 21 28 24 84 24 168 -1 398 -191 444 -368 32 -125 -30 -171 -144 -107
-43 24 -57 28 -73 20 -23 -12 -23 -13 -10 -62 18 -64 110 -128 185 -128 39 0
95 21 126 47 69 58 88 171 49 294 -85 275 -443 507 -673 436z"/>
<path d="M8567 11780 c-330 -59 -598 -286 -615 -520 -2 -39 1 -82 8 -104 35
-106 154 -164 254 -122 67 28 136 106 136 156 0 29 -37 26 -105 -10 -66 -35
-94 -37 -126 -11 -35 28 -32 99 6 170 63 116 249 244 411 285 92 24 195 21
228 -5 58 -46 18 -129 -91 -191 -53 -30 -64 -47 -40 -65 42 -34 146 -18 209
30 64 49 90 107 86 188 -5 87 -36 137 -110 173 -60 29 -170 41 -251 26z"/>
<path d="M13685 11527 c-17 -8 -43 -29 -58 -46 -38 -45 -39 -129 -2 -184 25
-36 63 -55 84 -42 6 3 11 32 11 64 0 90 27 101 127 51 34 -17 81 -53 107 -80
95 -102 150 -274 112 -348 -17 -32 -32 -39 -96 -44 -47 -4 -50 -28 -8 -73 43
-46 88 -55 151 -27 166 74 132 407 -63 601 -86 86 -177 132 -269 138 -43 2
-77 -1 -96 -10z"/>
<path d="M5633 10865 c-193 -60 -343 -268 -343 -475 0 -79 11 -114 47 -152 51
-53 144 -43 172 18 19 42 14 53 -26 56 -55 4 -69 39 -53 122 23 119 101 226
204 280 83 44 108 31 110 -56 1 -47 4 -53 24 -56 30 -5 79 48 88 94 16 86 -23
151 -103 173 -48 14 -67 13 -120 -4z"/>
<path d="M11225 9535 c-5 -2 -27 -6 -48 -10 -116 -19 -184 -181 -124 -296 30
-57 105 -109 157 -109 81 0 92 28 33 82 -85 76 -104 127 -62 169 18 18 30 21
78 17 72 -5 124 -31 182 -88 90 -90 145 -254 105 -315 -21 -33 -43 -32 -98 5
-58 38 -78 32 -78 -24 0 -83 58 -136 150 -136 59 0 97 17 133 59 39 46 50 93
45 185 -14 229 -199 435 -413 459 -27 3 -54 4 -60 2z"/>
<path d="M12963 9400 c-56 -34 -70 -93 -32 -131 19 -19 22 -19 44 -5 32 21 58
20 104 -3 49 -25 98 -81 127 -146 80 -175 24 -331 -91 -255 -62 41 -100 12
-75 -55 53 -141 250 -134 317 11 86 189 -19 478 -209 573 -73 37 -137 41 -185
11z"/>
<path d="M6579 9317 c-46 -23 -79 -51 -121 -101 -101 -120 -152 -257 -152
-407 0 -108 28 -171 90 -206 95 -55 210 -2 221 101 7 61 -14 70 -62 27 -43
-37 -46 -37 -81 -8 -71 61 -22 275 93 406 71 81 136 104 167 59 21 -30 20 -66
-5 -138 -22 -66 -20 -80 16 -80 33 0 79 42 105 96 29 59 26 168 -6 211 -61 82
-156 97 -265 40z"/>
<path d="M8823 9395 c-95 -21 -179 -70 -258 -150 -105 -106 -155 -217 -155
-345 0 -78 16 -125 57 -171 87 -96 203 -102 289 -15 44 43 70 110 59 146 -9
28 -32 25 -73 -11 -52 -46 -98 -63 -131 -49 -39 16 -53 46 -53 112 0 162 170
336 339 346 77 5 109 -12 118 -62 8 -43 -4 -67 -67 -132 -46 -47 -48 -52 -33
-68 49 -48 184 17 226 109 48 105 -3 234 -113 279 -54 23 -135 27 -205 11z"/>
<path d="M7629 7325 c-135 -43 -241 -239 -243 -450 -1 -192 86 -331 221 -351
169 -25 295 179 192 310 -11 14 -27 26 -35 26 -17 0 -34 -39 -34 -78 0 -15 -9
-46 -20 -69 -22 -49 -53 -62 -96 -41 -125 60 -114 375 17 493 66 60 99 40 109
-65 7 -71 28 -78 66 -20 93 140 -19 295 -177 245z"/>
<path d="M12525 6915 c-32 -31 -32 -62 -1 -76 32 -15 39 -46 25 -111 -22 -101
-87 -192 -170 -233 -61 -31 -77 -31 -89 1 -8 20 -16 25 -37 22 -38 -4 -67 -56
-59 -104 27 -141 259 -104 390 62 63 81 95 153 108 242 13 93 1 151 -42 194
-37 37 -90 39 -125 3z"/>
<path d="M10910 6613 c-24 -9 -60 -45 -60 -61 0 -8 11 -25 24 -37 22 -21 24
-26 15 -66 -31 -136 -185 -274 -321 -287 -58 -6 -70 5 -57 52 12 43 12 45 -15
57 -55 25 -126 -49 -126 -133 0 -99 95 -153 225 -129 195 35 392 224 435 416
19 86 -7 165 -61 184 -35 12 -37 12 -59 4z"/>
<path d="M8535 5255 c-46 -23 -94 -83 -110 -139 -18 -59 -20 -193 -4 -268 25
-120 112 -244 203 -288 50 -24 134 -27 175 -5 50 25 81 71 81 119 0 29 -6 48
-18 59 -27 25 -44 20 -67 -16 -16 -25 -28 -33 -57 -35 -32 -3 -43 3 -86 45
-34 33 -56 67 -72 108 -42 110 -28 278 23 298 8 3 32 -5 53 -18 51 -31 74 -20
74 34 0 89 -110 149 -195 106z"/>
<path d="M11827 4988 c-15 -12 -30 -37 -33 -54 -5 -26 -2 -32 21 -42 25 -12
27 -16 21 -54 -22 -138 -142 -276 -270 -310 -46 -12 -47 -12 -71 17 l-23 30
-29 -21 c-21 -16 -29 -31 -31 -62 -6 -82 41 -117 147 -110 192 14 401 231 418
434 9 111 -23 176 -93 190 -24 4 -37 0 -57 -18z"/>
<path d="M10700 3250 c-22 -22 -26 -55 -9 -66 20 -12 2 -84 -36 -140 -58 -88
-174 -148 -272 -142 -45 3 -49 6 -66 41 -20 43 -44 48 -82 14 -58 -50 -37
-145 41 -182 200 -95 539 111 570 346 8 56 -9 113 -39 134 -31 21 -83 19 -107
-5z"/>
</g>
</svg>
