<?xml version="1.0" standalone="no"?>
<!DOCTYPE svg PUBLIC "-//W3C//DTD SVG 20010904//EN"
 "http://www.w3.org/TR/2001/REC-SVG-20010904/DTD/svg10.dtd">
<svg version="1.0" xmlns="http://www.w3.org/2000/svg"
 width="1024.000000pt" height="1024.000000pt" viewBox="0 0 1024.000000 1024.000000"
 preserveAspectRatio="xMidYMid meet">
<metadata>
Created by potrace 1.16, written by Peter Selinger 2001-2019
</metadata>
<g transform="translate(0.000000,1024.000000) scale(0.100000,-0.100000)"
fill="#000000" stroke="none">
<path d="M4805 7571 c-495 -172 -939 -385 -1405 -675 -332 -206 -643 -442
-779 -591 l-44 -48 6 -246 c14 -518 51 -1478 72 -1851 7 -135 12 -247 10 -248
-2 -2 -131 -6 -287 -9 -312 -6 -328 -9 -328 -63 0 -15 8 -36 17 -46 16 -15 43
-16 358 -8 187 4 1116 9 2065 9 1124 1 1864 5 2125 14 264 8 575 10 917 5 411
-5 521 -4 533 6 18 15 20 74 3 88 -8 5 -130 13 -290 17 l-278 7 5 397 c3 218
7 452 10 521 3 69 2 433 -2 809 l-6 683 -90 77 c-370 316 -1081 718 -1722 973
-298 119 -648 238 -700 238 -11 0 -97 -26 -190 -59z m347 -102 c559 -171 1317
-532 1813 -862 144 -96 337 -238 331 -244 -6 -6 -229 -12 -746 -18 -261 -3
-702 -10 -980 -15 -278 -5 -743 -14 -1035 -20 -291 -5 -806 -15 -1143 -21
-337 -7 -615 -9 -618 -6 -12 11 166 160 355 297 424 306 1038 634 1546 825
147 56 297 104 322 105 12 0 81 -18 155 -41z m2246 -1413 l3 -179 -23 6 c-13
3 -48 13 -78 21 -138 40 -300 -6 -370 -104 -12 -16 -41 -43 -64 -59 -117 -81
-226 -62 -446 73 -218 135 -453 130 -645 -15 -143 -108 -255 -114 -475 -24
-141 57 -197 69 -290 62 -92 -6 -164 -35 -239 -95 -92 -75 -187 -104 -272 -82
-24 6 -100 39 -168 73 l-123 62 -97 0 c-104 0 -88 5 -274 -93 -92 -48 -188
-34 -377 56 -63 30 -140 63 -170 73 -179 63 -366 36 -523 -77 -27 -19 -52 -33
-55 -29 -7 7 -22 416 -16 426 5 8 313 16 1289 34 435 8 1060 20 1390 26 1071
20 1515 26 1770 25 l250 -1 3 -179z m-63 -279 l60 -25 3 -666 c2 -530 0 -666
-10 -666 -7 0 -47 7 -88 15 -104 22 -423 30 -595 16 -77 -7 -243 -25 -368 -41
-505 -65 -732 -63 -1072 7 -177 37 -183 37 -405 37 -217 -1 -232 -2 -435 -39
-192 -36 -225 -39 -385 -39 -138 0 -200 5 -294 22 -268 50 -548 50 -846 1 -71
-12 -132 -20 -135 -17 -6 5 -21 312 -40 808 l-14 375 36 30 c151 126 196 147
320 153 119 6 157 -4 324 -84 266 -126 351 -131 544 -34 166 84 188 83 362 -5
138 -70 215 -91 294 -81 91 12 148 36 227 95 141 107 240 117 412 44 168 -71
195 -78 310 -77 126 0 170 15 299 103 106 73 159 91 259 91 99 0 173 -26 312
-108 186 -110 288 -133 420 -93 64 20 80 30 154 102 47 44 100 86 122 94 56
21 155 14 229 -18z m-2081 -1468 c344 -69 571 -70 1101 -4 516 65 733 68 987
14 l48 -11 0 -107 c0 -60 -3 -142 -6 -183 l-7 -74 -556 -13 c-1111 -25 -1948
-31 -2771 -20 -443 5 -908 9 -1035 7 l-230 -2 -6 94 c-4 52 -7 131 -8 176 l-1
81 113 21 c271 52 575 55 842 6 210 -38 408 -38 620 0 83 15 177 32 210 37
228 39 426 33 699 -22z"/>
<path d="M4923 7306 c-82 -37 -67 -158 26 -206 96 -48 201 -5 201 83 0 83
-142 160 -227 123z m97 -96 c22 -11 40 -25 40 -30 0 -18 -66 -11 -88 10 -45
42 -17 53 48 20z"/>
<path d="M3714 6821 c-55 -25 -95 -79 -101 -136 -5 -39 -2 -47 25 -75 38 -38
97 -41 156 -7 77 44 109 158 58 209 -28 28 -89 32 -138 9z m86 -84 c0 -26 -81
-84 -100 -72 -16 10 7 43 43 65 37 23 57 25 57 7z"/>
<path d="M6198 6805 c-17 -10 -32 -30 -39 -55 -38 -128 122 -252 221 -172 31
25 38 97 15 146 -34 72 -138 114 -197 81z m100 -110 c37 -38 34 -63 -8 -50
-19 6 -60 58 -60 78 0 18 35 4 68 -28z"/>
<path d="M5469 6777 c-31 -17 -50 -37 -68 -70 -22 -43 -23 -51 -12 -88 10 -34
20 -44 56 -60 71 -32 148 0 184 75 24 48 26 74 9 111 -25 56 -97 70 -169 32z
m91 -81 c0 -17 -56 -66 -76 -66 -24 0 -16 27 17 54 34 29 59 34 59 12z"/>
<path d="M4470 6712 c-45 -23 -72 -71 -73 -131 -1 -58 20 -95 68 -118 30 -14
38 -15 72 -2 22 9 48 29 61 49 20 29 23 44 20 93 -4 48 -9 63 -34 86 -38 38
-72 44 -114 23z m58 -113 c3 -42 -10 -64 -33 -55 -14 5 -16 13 -10 44 4 20 9
40 12 45 11 18 28 -1 31 -34z"/>
<path d="M5950 5225 c-29 -35 10 -288 54 -351 41 -58 126 -29 197 64 57 76 63
115 18 120 -22 3 -35 -8 -78 -62 -28 -37 -58 -66 -66 -66 -19 0 -42 80 -56
194 -7 50 -16 97 -22 104 -13 16 -32 15 -47 -3z"/>
<path d="M4162 5203 c-5 -10 -12 -56 -15 -103 -8 -117 -25 -190 -44 -190 -8 0
-40 27 -71 60 -39 43 -62 60 -76 58 -35 -5 -32 -45 10 -105 68 -99 167 -131
209 -67 35 54 70 319 45 349 -17 20 -47 19 -58 -2z"/>
<path d="M5044 4879 c-98 -79 -194 -90 -260 -28 -36 33 -74 2 -53 -44 16 -36
78 -70 137 -75 58 -5 121 14 184 56 l37 24 72 -36 c81 -41 144 -47 207 -20 77
32 120 104 71 119 -14 5 -28 0 -42 -13 -35 -31 -63 -42 -107 -42 -50 0 -93 17
-144 59 -21 17 -44 31 -51 31 -7 0 -30 -14 -51 -31z"/>
</g>
</svg>
