<?xml version="1.0" standalone="no"?>
<!DOCTYPE svg PUBLIC "-//W3C//DTD SVG 20010904//EN"
 "http://www.w3.org/TR/2001/REC-SVG-20010904/DTD/svg10.dtd">
<svg version="1.0" xmlns="http://www.w3.org/2000/svg"
 width="1024.000000pt" height="1024.000000pt" viewBox="0 0 1024.000000 1024.000000"
 preserveAspectRatio="xMidYMid meet">
<metadata>
Created by potrace 1.16, written by Peter Selinger 2001-2019
</metadata>
<g transform="translate(0.000000,1024.000000) scale(0.100000,-0.100000)"
fill="#000000" stroke="none">
<path d="M4711 8109 c-120 -36 -203 -163 -237 -362 -28 -158 -7 -460 42 -610
9 -27 14 -50 12 -53 -3 -2 -25 16 -51 40 -181 174 -414 250 -559 184 -90 -42
-132 -116 -131 -233 3 -241 235 -553 583 -786 59 -39 70 -50 54 -55 -109 -37
-246 -124 -312 -199 -56 -63 -108 -168 -133 -266 -27 -108 -37 -403 -19 -588
37 -394 151 -982 330 -1706 230 -929 469 -1605 672 -1907 45 -67 62 -78 120
-78 57 0 74 13 157 124 311 414 647 1222 884 2132 275 1050 308 1811 99 2244
-44 90 -147 200 -234 249 -65 37 -170 74 -255 91 -32 6 -64 13 -71 15 -8 3 21
46 74 112 176 218 315 461 370 648 51 173 32 333 -49 401 -101 85 -249 75
-408 -28 -84 -54 -212 -183 -285 -288 l-59 -85 -7 100 c-31 436 -174 768 -379
879 -58 32 -150 43 -208 25z m155 -160 c51 -31 108 -108 159 -213 114 -236
156 -536 120 -858 -16 -143 -16 -160 -2 -182 18 -26 53 -37 85 -25 14 5 44 56
95 162 107 223 204 360 330 467 174 148 303 162 338 36 19 -69 -22 -218 -108
-390 -76 -155 -210 -345 -352 -504 l-66 -74 -100 7 c-160 11 -460 -17 -662
-61 l-72 -15 -91 57 c-258 159 -471 368 -564 552 -40 80 -60 165 -46 206 18
56 51 79 114 79 148 0 366 -170 569 -444 83 -112 101 -129 133 -129 23 0 64
46 64 71 0 12 -23 78 -50 146 -153 375 -200 771 -118 992 52 140 127 180 224
120z m719 -1735 c380 -55 529 -199 600 -578 36 -193 36 -554 0 -844 -17 -137
-83 -534 -90 -540 -2 -3 -36 3 -76 12 -39 9 -81 16 -92 16 -32 0 -57 -29 -57
-66 0 -41 22 -57 106 -74 94 -19 91 -12 64 -139 -14 -61 -29 -111 -35 -111 -5
0 -41 9 -80 19 -38 10 -116 27 -172 36 -95 17 -103 17 -127 1 -20 -12 -26 -25
-26 -51 0 -40 23 -59 85 -69 66 -11 259 -58 276 -67 15 -8 13 -21 -17 -131
-189 -677 -446 -1326 -679 -1717 -79 -132 -170 -261 -185 -261 -16 0 -188 364
-253 535 -95 251 -244 712 -233 722 2 2 68 10 147 18 124 13 146 18 162 36 29
35 20 85 -19 99 -13 5 -83 3 -175 -6 -83 -8 -154 -12 -156 -10 -5 4 -113 415
-113 427 0 3 45 14 101 24 110 20 149 42 149 81 0 31 -33 64 -65 64 -14 0 -66
-9 -117 -20 -50 -12 -95 -17 -99 -13 -7 8 -51 193 -124 518 -43 193 -115 578
-109 584 2 2 74 18 160 35 139 27 159 34 176 57 14 18 17 33 12 53 -12 49 -38
52 -201 22 -82 -16 -155 -29 -162 -29 -10 -1 -18 13 -23 43 -18 100 -48 400
-48 476 l0 81 43 13 c23 7 98 27 166 45 129 34 151 48 151 92 0 28 -33 63 -59
63 -11 0 -81 -16 -157 -35 -76 -19 -139 -33 -140 -32 -6 7 19 136 37 189 72
216 246 324 646 402 118 23 251 40 378 50 86 6 326 -4 430 -20z"/>
<path d="M5435 5518 c-32 -17 -45 -39 -45 -75 0 -41 27 -70 74 -78 100 -19
176 76 111 140 -19 20 -34 25 -72 25 -26 0 -57 -6 -68 -12z"/>
<path d="M4642 5480 c-48 -11 -72 -37 -72 -77 0 -48 14 -70 56 -83 69 -23 139
7 150 64 13 71 -50 115 -134 96z"/>
<path d="M5298 5163 c-8 -10 -20 -38 -27 -63 -17 -58 -73 -114 -130 -130 -89
-24 -171 15 -222 105 -43 76 -76 92 -119 57 -66 -53 18 -210 146 -273 128 -63
276 -39 373 62 76 79 114 197 76 239 -23 25 -77 26 -97 3z"/>
</g>
</svg>
