<?xml version="1.0" standalone="no"?>
<!DOCTYPE svg PUBLIC "-//W3C//DTD SVG 20010904//EN"
 "http://www.w3.org/TR/2001/REC-SVG-20010904/DTD/svg10.dtd">
<svg version="1.0" xmlns="http://www.w3.org/2000/svg"
 width="1024.000000pt" height="1024.000000pt" viewBox="0 0 1024.000000 1024.000000"
 preserveAspectRatio="xMidYMid meet">
<metadata>
Created by potrace 1.16, written by Peter Selinger 2001-2019
</metadata>
<g transform="translate(0.000000,1024.000000) scale(0.100000,-0.100000)"
fill="#000000" stroke="none">
<path d="M4373 7020 c-94 -25 -209 -79 -288 -135 -126 -90 -246 -248 -301
-398 l-22 -62 -12 30 c-31 79 -70 318 -70 426 0 33 -247 -27 -467 -113 -38
-14 -38 -11 -18 -143 41 -278 126 -518 256 -727 l48 -78 -32 -13 c-18 -8 -49
-19 -69 -26 -55 -18 -176 -100 -240 -163 -110 -107 -193 -264 -224 -426 -52
-269 60 -575 271 -742 44 -34 55 -49 51 -65 -3 -11 -17 -58 -31 -105 -141
-459 101 -903 552 -1011 117 -28 267 -28 378 0 101 26 244 97 324 162 l61 49
68 -51 c213 -161 471 -201 712 -108 42 16 98 43 124 59 27 17 49 30 51 28 1
-2 17 -32 36 -68 52 -99 173 -217 276 -268 112 -55 210 -76 332 -70 177 9 323
78 445 209 112 121 166 261 166 429 0 162 -42 287 -139 413 l-52 68 50 55
c243 266 234 691 -21 961 -52 54 -160 133 -211 153 -15 5 -38 14 -52 20 l-25
10 45 55 c169 208 196 514 67 758 -45 87 -155 201 -241 251 -198 115 -438 127
-639 31 -40 -19 -86 -44 -102 -55 -15 -11 -30 -20 -33 -20 -3 0 -13 33 -23 72
-78 318 -300 537 -624 613 -93 21 -285 19 -377 -5z m392 -184 c204 -65 360
-217 425 -416 27 -83 37 -227 21 -311 l-12 -64 -132 -1 c-156 -1 -246 -21
-374 -84 -142 -70 -277 -196 -359 -336 -14 -24 -28 -44 -31 -44 -2 0 -30 22
-61 49 -31 27 -83 65 -114 85 -64 40 -92 74 -136 161 -57 115 -77 198 -76 325
0 102 4 125 31 203 42 119 85 188 169 272 96 97 236 168 369 189 68 10 201 -3
280 -28z m-1193 -178 c13 -149 65 -322 133 -446 25 -44 35 -75 35 -106 0 -36
25 -149 56 -253 6 -22 5 -22 -62 -17 -77 7 -82 11 -154 115 -109 158 -197 376
-241 597 -20 98 -21 115 -8 123 26 17 194 69 214 66 17 -2 21 -12 27 -79z
m2413 -379 c359 -133 450 -582 173 -849 -47 -45 -165 -108 -212 -112 -28 -3
-29 -1 -43 63 -50 244 -216 457 -447 573 -53 27 -96 51 -96 55 0 21 70 122
114 163 56 55 164 111 241 127 75 15 201 6 270 -20z m-730 -437 c215 -68 376
-222 453 -434 24 -66 26 -86 26 -213 0 -128 -2 -146 -27 -212 -103 -272 -317
-435 -599 -459 -213 -18 -467 105 -587 285 -169 253 -160 556 23 798 95 125
232 213 390 249 80 18 241 11 321 -14z m-1410 -187 c132 -34 256 -111 337
-208 l42 -50 0 -186 c1 -184 1 -187 34 -279 l32 -94 -32 -61 c-41 -77 -145
-188 -222 -239 -145 -93 -346 -119 -512 -65 -146 48 -267 145 -343 275 -63
109 -76 159 -76 302 0 153 23 236 97 347 117 174 295 270 503 272 45 1 108 -6
140 -14z m2366 -491 c302 -89 466 -396 370 -694 -67 -212 -288 -370 -516 -370
-125 0 -303 66 -334 123 -9 16 -43 71 -77 122 -34 52 -67 108 -74 125 -12 29
-11 32 11 47 13 9 56 48 94 88 124 128 202 290 229 473 11 78 14 87 36 93 49
14 205 9 261 -7z m-1796 -669 c40 -33 74 -63 74 -66 1 -4 -15 -33 -34 -65
-123 -203 -139 -467 -41 -680 l24 -52 -37 -34 c-258 -242 -648 -233 -883 21
-147 158 -192 365 -128 590 33 116 29 113 102 88 53 -17 87 -21 213 -21 137 0
157 2 235 28 133 43 249 116 345 215 21 23 43 40 47 39 5 -2 42 -30 83 -63z
m425 -120 c153 -48 334 -44 493 9 l69 23 53 -51 c58 -57 116 -166 134 -254 25
-119 6 -252 -50 -365 -39 -76 -154 -194 -224 -230 -159 -80 -333 -81 -495 -3
-88 42 -196 149 -238 236 -34 69 -62 179 -62 245 0 66 28 175 63 250 43 89
122 179 151 171 12 -2 59 -17 106 -31z m1596 -392 c122 -112 174 -310 125
-471 -103 -341 -538 -454 -788 -204 -56 55 -84 102 -114 191 l-19 54 50 101
c48 99 80 214 80 290 0 19 3 37 8 39 4 3 41 -6 82 -20 143 -49 330 -41 476 20
32 14 61 25 64 26 3 0 19 -11 36 -26z"/>
</g>
</svg>
