<?xml version="1.0" standalone="no"?>
<!DOCTYPE svg PUBLIC "-//W3C//DTD SVG 20010904//EN"
 "http://www.w3.org/TR/2001/REC-SVG-20010904/DTD/svg10.dtd">
<svg version="1.0" xmlns="http://www.w3.org/2000/svg"
 width="1024.000000pt" height="1024.000000pt" viewBox="0 0 1024.000000 1024.000000"
 preserveAspectRatio="xMidYMid meet">
<metadata>
Created by potrace 1.16, written by Peter Selinger 2001-2019
</metadata>
<g transform="translate(0.000000,1024.000000) scale(0.100000,-0.100000)"
fill="#000000" stroke="none">
<path d="M4765 5934 c-16 -2 -73 -9 -125 -15 -430 -48 -887 -214 -1189 -432
-109 -79 -276 -239 -347 -334 -158 -209 -237 -446 -233 -692 l2 -113 -47 -23
c-64 -31 -102 -69 -122 -122 -35 -91 1 -167 108 -223 34 -18 65 -34 66 -36 2
-1 -11 -33 -29 -70 -56 -114 -52 -238 10 -326 33 -47 123 -106 172 -114 30 -5
43 -15 65 -48 44 -67 137 -177 200 -237 311 -293 733 -480 1284 -566 145 -22
701 -26 845 -5 391 56 749 176 1005 335 171 107 355 271 446 397 21 29 54 60
77 72 22 11 64 42 93 70 110 104 131 246 59 402 -15 32 -23 61 -18 65 4 4 33
15 63 24 65 20 143 75 170 120 24 38 26 116 6 156 -19 35 -80 89 -119 106
l-31 13 -1 153 c-2 130 -6 169 -28 254 -156 590 -796 1036 -1682 1171 -95 15
-625 28 -700 18z m700 -153 c828 -124 1437 -555 1561 -1106 120 -533 -324
-990 -1151 -1184 -283 -66 -515 -92 -845 -92 -564 -1 -1023 93 -1413 287 -196
98 -379 246 -478 387 -96 136 -147 313 -135 466 40 518 502 959 1224 1165 129
37 296 69 478 91 175 21 575 14 759 -14z m-2545 -1582 c0 -5 13 -36 28 -69 16
-33 27 -62 25 -64 -8 -7 -77 15 -111 36 -26 16 -32 26 -30 46 5 41 88 89 88
51z m4248 -5 c40 -28 47 -53 21 -80 -22 -24 -100 -59 -117 -53 -9 4 55 149 67
149 4 0 17 -7 29 -16z m-4057 -304 c86 -102 270 -236 449 -325 277 -139 642
-239 1020 -282 216 -24 680 -24 875 0 630 78 1111 262 1397 536 43 40 80 72
82 70 16 -18 67 -123 76 -158 18 -68 -2 -134 -56 -187 -74 -71 -106 -79 -354
-79 -142 0 -222 -4 -235 -12 -34 -19 -51 -45 -79 -120 -31 -82 -96 -162 -156
-193 -20 -10 -66 -24 -102 -30 -92 -16 -162 -1 -283 60 -138 69 -147 68 -252
-32 -37 -35 -89 -71 -130 -91 -61 -29 -77 -32 -163 -32 -121 0 -177 17 -307
95 -166 99 -224 101 -463 14 -86 -31 -118 -38 -180 -38 -50 0 -85 5 -106 16
-36 20 -99 89 -134 148 -14 23 -37 48 -53 56 -32 17 -47 14 -182 -42 -71 -30
-107 -38 -171 -42 -143 -8 -202 37 -243 184 -36 132 -41 136 -185 144 -127 7
-181 29 -216 86 -28 45 -27 127 3 186 27 54 77 116 94 117 6 1 31 -21 54 -49z
m3508 -567 l92 -6 -63 -64 c-271 -276 -666 -454 -1188 -535 -195 -30 -643 -32
-845 -5 -379 52 -732 173 -969 333 l-49 33 39 6 c72 11 129 28 193 57 36 15
68 25 71 21 4 -5 24 -32 45 -62 108 -151 287 -188 517 -106 169 60 202 67 250
55 22 -7 69 -29 103 -50 136 -87 242 -120 381 -120 146 0 279 53 379 151 23
21 46 39 53 39 7 0 43 -16 80 -35 274 -139 562 -51 682 210 l40 85 48 0 c27 0
90 -3 141 -7z"/>
<path d="M4575 5627 c-49 -27 -61 -67 -21 -67 14 0 28 5 32 11 3 6 22 17 40
25 23 9 34 21 34 34 0 27 -34 26 -85 -3z"/>
<path d="M5568 5623 c-41 -5 -67 -28 -51 -44 6 -6 66 -11 134 -13 101 -2 135
-6 184 -25 79 -30 111 -35 120 -21 12 20 -24 47 -93 68 -113 36 -195 45 -294
35z"/>
<path d="M4920 5440 c0 -33 77 -54 87 -24 6 19 -27 44 -58 44 -22 0 -29 -5
-29 -20z"/>
<path d="M6053 5384 c-3 -8 2 -23 11 -32 14 -15 18 -15 31 -1 9 9 13 23 9 32
-8 21 -43 22 -51 1z"/>
<path d="M3895 5355 c-64 -63 5 -161 84 -121 38 20 53 62 36 103 -21 50 -80
59 -120 18z"/>
<path d="M4404 5248 c-25 -12 -44 -48 -44 -83 0 -65 91 -91 138 -39 35 40 23
101 -25 123 -29 13 -41 13 -69 -1z"/>
<path d="M5393 5250 c-46 -19 -59 -95 -21 -130 67 -62 170 38 111 108 -21 25
-60 35 -90 22z"/>
<path d="M6290 5212 c-28 -23 -31 -83 -5 -112 28 -31 88 -27 114 6 12 15 21
37 21 49 0 12 -9 34 -21 49 -25 31 -75 35 -109 8z"/>
<path d="M3426 5041 c-23 -25 -27 -86 -6 -86 22 0 62 76 48 92 -14 18 -22 16
-42 -6z"/>
<path d="M3938 5028 c-17 -6 -28 -17 -28 -28 0 -28 12 -31 61 -17 33 10 45 18
47 35 3 18 -1 22 -25 21 -15 0 -40 -5 -55 -11z"/>
<path d="M6610 5007 c0 -27 28 -57 53 -57 23 0 22 42 -1 63 -27 25 -52 22 -52
-6z"/>
<path d="M5850 4996 c-23 -26 -22 -56 3 -56 21 0 60 47 54 64 -9 23 -30 20
-57 -8z"/>
<path d="M4830 4920 c-247 -24 -434 -87 -481 -163 -27 -45 -25 -103 6 -143 76
-100 398 -165 745 -151 376 16 582 87 605 211 28 145 -206 239 -625 250 -85 3
-198 1 -250 -4z m546 -158 c100 -22 184 -55 184 -72 0 -16 -59 -38 -163 -61
-116 -26 -482 -38 -633 -20 -153 18 -284 56 -284 82 0 14 75 46 152 64 122 28
203 34 428 30 177 -3 244 -7 316 -23z"/>
<path d="M3600 4800 c-12 -12 -20 -33 -20 -55 0 -47 29 -75 78 -75 72 0 110
83 60 130 -29 27 -91 27 -118 0z"/>
<path d="M6210 4737 c-55 -28 -62 -108 -13 -147 72 -57 171 26 137 115 -7 18
-55 45 -81 45 -10 0 -29 -6 -43 -13z"/>
<path d="M4063 4724 c-8 -22 9 -48 36 -52 16 -3 21 2 21 20 0 42 -44 66 -57
32z"/>
<path d="M6845 4690 c-4 -6 -2 -34 4 -63 6 -28 12 -68 14 -87 1 -28 6 -35 22
-35 17 0 20 8 23 57 4 77 -13 138 -38 138 -10 0 -22 -5 -25 -10z"/>
<path d="M3178 4608 c-9 -15 -13 -61 -13 -138 1 -122 17 -186 68 -261 25 -37
36 -43 56 -30 12 8 6 25 -30 96 -44 87 -44 88 -43 189 1 55 3 114 5 131 5 38
-24 47 -43 13z"/>
<path d="M5802 4334 c-21 -38 17 -79 46 -50 20 20 8 66 -18 66 -10 0 -23 -7
-28 -16z"/>
<path d="M3910 4323 c-52 -19 -69 -94 -30 -133 28 -28 81 -26 108 3 57 61 -2
158 -78 130z"/>
<path d="M6353 4270 c-72 -30 -45 -140 34 -140 36 0 73 38 73 75 0 49 -59 85
-107 65z"/>
<path d="M4484 4246 c-10 -26 4 -48 28 -44 17 2 23 10 23 28 0 18 -6 26 -23
28 -13 2 -25 -3 -28 -12z"/>
<path d="M5320 4183 c-62 -23 -81 -103 -35 -148 77 -77 206 38 133 119 -23 25
-71 39 -98 29z"/>
<path d="M6581 4079 c-50 -52 -62 -81 -39 -95 15 -9 119 104 116 125 -6 29
-26 21 -77 -30z"/>
<path d="M4640 3995 c-12 -31 -3 -55 20 -55 19 0 46 52 35 69 -12 20 -45 12
-55 -14z"/>
<path d="M3610 3964 c0 -27 59 -104 80 -104 33 0 22 49 -23 98 -24 25 -57 29
-57 6z"/>
<path d="M5942 3830 c-30 -12 -25 -44 7 -48 43 -7 73 7 69 31 -3 25 -38 32
-76 17z"/>
<path d="M4382 3661 c-9 -25 29 -41 97 -41 74 0 95 9 89 36 -3 16 -14 18 -92
19 -67 0 -90 -3 -94 -14z"/>
<path d="M5210 3651 c-56 -5 -65 -9 -65 -26 0 -18 7 -20 82 -20 89 0 116 12
93 40 -7 8 -20 14 -29 13 -9 -1 -45 -4 -81 -7z"/>
<path d="M7257 3892 c-58 -64 33 -151 91 -89 12 13 22 33 22 45 0 52 -79 82
-113 44z m85 -9 c47 -42 -15 -113 -69 -77 -20 12 -23 21 -18 42 13 53 50 68
87 35z"/>
<path d="M7292 3868 c-16 -16 -15 -48 1 -48 25 0 39 17 32 39 -7 24 -16 26
-33 9z m23 -28 c-5 -8 -11 -8 -17 -2 -6 6 -7 16 -3 22 5 8 11 8 17 2 6 -6 7
-16 3 -22z"/>
</g>
</svg>
