<?xml version="1.0" standalone="no"?>
<!DOCTYPE svg PUBLIC "-//W3C//DTD SVG 20010904//EN"
 "http://www.w3.org/TR/2001/REC-SVG-20010904/DTD/svg10.dtd">
<svg version="1.0" xmlns="http://www.w3.org/2000/svg"
 width="1024.000000pt" height="1024.000000pt" viewBox="0 0 1024.000000 1024.000000"
 preserveAspectRatio="xMidYMid meet">
<metadata>
Created by potrace 1.16, written by Peter Selinger 2001-2019
</metadata>
<g transform="translate(0.000000,1024.000000) scale(0.100000,-0.100000)"
fill="#000000" stroke="none">
<path d="M4845 8854 c-275 -28 -367 -72 -410 -195 -18 -50 -20 -201 -4 -316
10 -78 10 -81 -15 -118 -21 -30 -26 -50 -26 -97 0 -90 19 -124 84 -153 54 -24
55 -25 49 -57 -15 -78 -57 -185 -97 -247 -23 -36 -111 -138 -195 -226 -351
-367 -499 -606 -594 -954 l-31 -116 0 -270 c0 -173 8 -379 22 -575 33 -465 42
-707 42 -1155 0 -445 -7 -644 -45 -1240 -37 -575 -33 -810 15 -1097 63 -368
189 -527 467 -588 406 -88 1399 -95 1938 -14 189 29 282 71 372 168 101 109
153 248 194 515 33 224 35 452 5 951 -43 719 -47 827 -47 1290 0 480 7 677 47
1295 37 569 28 726 -52 957 -59 170 -148 335 -264 493 -79 107 -119 153 -296
340 -166 175 -187 203 -229 290 -31 65 -65 174 -65 206 0 8 22 24 49 35 68 30
86 61 86 149 0 58 -4 76 -24 104 -24 33 -24 35 -12 140 23 215 9 301 -60 376
-45 49 -113 77 -234 96 -69 11 -591 21 -670 13z m600 -185 c123 -12 168 -27
186 -60 13 -24 14 -144 3 -237 l-7 -54 -36 5 c-20 3 -129 11 -243 18 -169 10
-248 10 -435 -1 -125 -7 -246 -13 -268 -14 l-40 -1 -9 109 c-9 123 1 177 37
200 70 46 506 64 812 35z m120 -519 c93 -15 105 -19 85 -29 -85 -47 -989 -50
-1063 -4 -24 15 33 26 248 47 82 8 663 -3 730 -14z m-29 -260 c27 -127 82
-254 154 -360 21 -30 106 -126 189 -213 83 -87 177 -191 210 -230 241 -296
371 -618 371 -922 0 -56 -7 -200 -15 -321 -79 -1159 -80 -1669 -10 -2788 14
-213 25 -449 25 -522 0 -245 -50 -581 -104 -699 -31 -69 -97 -140 -158 -171
-145 -74 -584 -110 -1228 -101 -405 5 -587 18 -780 53 -214 39 -301 129 -355
369 -59 266 -67 519 -35 1030 10 171 25 405 32 520 8 135 13 438 13 845 -1
640 -4 742 -50 1420 -19 280 -19 455 0 566 31 178 120 393 231 559 77 115 157
211 329 392 221 232 272 310 321 485 14 51 27 98 29 103 1 6 148 10 414 10
l412 0 5 -25z"/>
<path d="M4247 6802 c-57 -63 -197 -450 -197 -545 0 -30 42 -67 75 -67 36 0
54 32 85 147 30 117 81 257 124 341 31 60 33 102 8 125 -24 22 -75 22 -95 -1z"/>
<path d="M4065 6070 c-21 -23 -23 -138 -2 -171 27 -43 98 -33 118 18 14 38 1
131 -22 154 -25 25 -71 24 -94 -1z"/>
<path d="M4075 5740 c-31 -35 -18 -167 19 -192 21 -15 63 -8 82 13 25 28 26
135 1 173 -22 33 -75 36 -102 6z"/>
<path d="M4094 5399 c-28 -31 -26 -151 3 -181 26 -25 67 -27 93 -3 29 26 29
156 0 185 -26 26 -72 26 -96 -1z"/>
<path d="M4074 3019 c-22 -24 -31 -124 -33 -350 -1 -129 0 -136 22 -157 44
-42 101 -16 111 50 3 18 7 122 9 231 4 184 3 200 -15 223 -24 30 -68 32 -94 3z"/>
<path d="M4072 2380 c-27 -25 -28 -68 -7 -172 46 -221 90 -276 249 -313 90
-21 306 -45 403 -45 73 0 83 2 97 22 22 32 20 65 -7 92 -21 20 -36 24 -147 30
-150 8 -322 37 -373 61 -21 10 -44 30 -52 44 -12 25 -34 120 -50 220 -12 75
-66 104 -113 61z"/>
<path d="M5015 1982 c-34 -7 -55 -33 -55 -69 0 -68 76 -98 125 -48 55 55 9
132 -70 117z"/>
</g>
</svg>
