<?xml version="1.0" standalone="no"?>
<!DOCTYPE svg PUBLIC "-//W3C//DTD SVG 20010904//EN"
 "http://www.w3.org/TR/2001/REC-SVG-20010904/DTD/svg10.dtd">
<svg version="1.0" xmlns="http://www.w3.org/2000/svg"
 width="1024.000000pt" height="1024.000000pt" viewBox="0 0 1024.000000 1024.000000"
 preserveAspectRatio="xMidYMid meet">
<metadata>
Created by potrace 1.16, written by Peter Selinger 2001-2019
</metadata>
<g transform="translate(0.000000,1024.000000) scale(0.100000,-0.100000)"
fill="#000000" stroke="none">
<path d="M4832 7564 c-561 -81 -1043 -394 -1305 -846 -84 -147 -167 -400 -167
-515 0 -24 -7 -31 -47 -47 -102 -42 -173 -142 -173 -243 0 -121 73 -193 196
-193 l42 0 4 -46 c2 -25 0 -48 -4 -50 -4 -3 -17 -36 -29 -75 -18 -58 -21 -89
-17 -182 3 -100 7 -119 34 -177 31 -65 111 -155 166 -188 27 -16 28 -19 28
-104 0 -85 -1 -89 -25 -98 -46 -18 -111 -88 -141 -153 -48 -107 -45 -274 8
-415 49 -132 173 -269 308 -341 90 -48 280 -107 456 -140 825 -158 1992 -77
2368 163 125 80 226 212 277 361 20 59 24 89 24 195 0 118 -2 129 -29 184 -33
68 -93 130 -143 148 l-35 13 7 85 c5 64 11 87 23 95 9 6 46 39 82 75 104 103
136 194 128 359 -4 62 -13 115 -25 147 l-20 52 41 6 c130 21 210 149 177 283
-22 87 -84 153 -171 181 -35 12 -35 12 -31 63 8 118 -47 336 -123 486 -251
500 -787 852 -1405 923 -119 14 -367 11 -479 -6z m433 -134 c552 -52 1037
-351 1294 -795 75 -132 141 -337 141 -443 0 -53 -25 -121 -56 -153 -81 -84
-345 -147 -824 -195 -220 -22 -940 -31 -1204 -15 -468 29 -857 91 -989 157
-87 44 -120 101 -119 205 2 146 54 302 157 474 263 439 725 713 1295 768 77 8
201 6 305 -3z m-1861 -1429 c9 -16 26 -42 40 -58 l25 -30 -37 -18 c-91 -44
-152 -38 -152 15 0 42 14 65 58 95 46 31 48 31 66 -4z m3438 -50 c26 -16 51
-39 57 -50 17 -31 13 -79 -9 -101 -27 -27 -60 -33 -143 -27 -98 7 -129 -8
-179 -89 -44 -70 -61 -81 -93 -60 -22 14 -80 144 -70 155 3 3 42 15 88 28 116
34 203 79 251 128 23 24 43 44 47 44 3 1 26 -12 51 -28z m-3127 -145 c50 -14
151 -36 225 -49 155 -27 146 -16 110 -138 -33 -110 -77 -161 -127 -144 -23 9
-31 22 -50 85 -38 122 -84 144 -213 99 -76 -26 -111 -23 -128 14 -17 35 -9 72
26 126 21 32 32 41 47 37 11 -3 61 -16 110 -30z m2526 -86 c11 -39 10 -99 -1
-120 -23 -43 -44 -43 -127 1 -66 35 -84 40 -122 36 -54 -6 -86 -29 -131 -95
-46 -66 -71 -80 -104 -59 -29 19 -73 106 -82 163 l-6 40 194 18 c106 10 227
24 268 31 95 16 103 15 111 -15z m-1753 -27 c116 -7 115 -6 59 -80 -57 -75
-133 -101 -197 -68 -42 22 -81 78 -87 126 l-6 42 64 -7 c35 -3 110 -9 167 -13z
m987 -45 c-12 -61 -68 -169 -102 -198 -20 -18 -45 -30 -61 -30 -57 0 -106 85
-113 196 l-3 49 119 5 c66 4 130 7 143 8 22 2 23 -1 17 -30z m-439 -35 c-10
-88 -27 -132 -59 -159 -34 -29 -34 -29 -75 -4 -36 22 -88 119 -99 184 l-6 36
123 0 123 0 -7 -57z m1666 -70 c28 -66 35 -183 14 -255 -23 -79 -83 -143 -171
-184 -132 -60 -433 -143 -440 -121 -2 7 -6 33 -10 58 -7 58 -57 164 -84 178
-47 26 -101 0 -101 -47 0 -13 14 -65 31 -115 26 -77 30 -101 27 -168 -4 -87
-22 -119 -68 -119 -38 0 -57 26 -91 126 -88 257 -199 298 -804 298 -363 0
-459 -10 -550 -54 -78 -38 -98 -60 -155 -172 -50 -101 -72 -117 -112 -81 -28
25 -22 125 11 171 58 82 42 151 -35 152 -52 0 -111 -83 -129 -182 -4 -21 -9
-38 -12 -38 -15 0 -140 35 -223 62 -242 79 -319 151 -328 308 -2 41 0 91 5
110 l9 35 75 -3 c49 -2 89 2 118 12 24 9 45 16 47 16 2 0 8 -17 13 -37 15 -54
43 -96 86 -129 30 -22 51 -29 100 -32 96 -6 166 38 216 138 12 25 24 47 25 48
1 2 20 -15 41 -39 110 -122 291 -119 417 8 48 47 57 52 62 37 51 -147 143
-227 260 -227 57 0 124 31 149 70 20 30 27 29 48 -6 24 -41 108 -81 171 -81
91 0 179 64 228 165 12 25 25 45 29 45 4 0 19 -20 33 -45 32 -54 77 -89 134
-105 96 -25 187 27 258 148 1 2 29 -10 62 -27 115 -58 197 -51 268 24 l41 42
39 -23 c77 -47 192 -21 239 53 11 18 24 32 28 33 4 0 17 -21 29 -47z m-1331
-503 c138 -14 203 -35 245 -79 19 -19 33 -39 31 -45 -5 -17 -107 -24 -422 -32
-188 -4 -346 -2 -450 5 -200 14 -335 31 -335 42 0 4 11 21 25 38 32 38 93 61
186 71 112 11 603 11 720 0z m-1551 -145 c42 -12 110 -30 150 -40 64 -14 78
-21 95 -48 54 -84 209 -104 282 -35 21 19 24 19 120 4 184 -29 368 -40 658
-38 160 0 355 7 434 14 127 12 144 12 149 -2 23 -67 104 -119 185 -120 104 0
185 65 210 171 6 22 16 27 84 43 81 19 255 68 286 81 15 6 17 0 17 -66 0 -41
-3 -91 -7 -113 -6 -36 -11 -41 -69 -68 -75 -35 -282 -88 -454 -117 -556 -92
-1171 -91 -1725 5 -240 42 -450 101 -502 142 -19 15 -22 27 -23 112 -2 119 -3
113 18 105 9 -4 51 -17 92 -30z m-135 -327 c155 -78 486 -151 875 -195 197
-22 856 -25 1050 -5 504 52 887 153 987 259 l33 34 30 -47 c36 -58 44 -96 38
-182 -14 -179 -127 -342 -293 -425 -334 -165 -1173 -236 -1894 -162 -345 36
-642 112 -779 199 -58 37 -145 135 -176 197 -71 147 -75 284 -11 381 l26 39
32 -34 c18 -19 55 -46 82 -59z"/>
<path d="M4493 6775 c-77 -33 -98 -153 -38 -215 59 -62 141 -61 200 0 39 40
46 120 15 168 -35 56 -111 76 -177 47z"/>
<path d="M5473 6770 c-59 -36 -82 -125 -48 -190 18 -34 81 -70 122 -70 64 0
133 73 133 140 0 107 -117 175 -207 120z"/>
<path d="M4811 6414 c-37 -47 -19 -119 47 -187 54 -56 105 -79 188 -85 110 -7
197 30 254 110 57 78 60 155 6 179 -43 20 -71 4 -99 -54 -14 -29 -37 -61 -52
-71 -37 -24 -95 -31 -139 -16 -40 13 -86 62 -86 91 0 56 -83 79 -119 33z"/>
</g>
</svg>
