<?xml version="1.0" standalone="no"?>
<!DOCTYPE svg PUBLIC "-//W3C//DTD SVG 20010904//EN"
 "http://www.w3.org/TR/2001/REC-SVG-20010904/DTD/svg10.dtd">
<svg version="1.0" xmlns="http://www.w3.org/2000/svg"
 width="2048.000000pt" height="2048.000000pt" viewBox="0 0 2048.000000 2048.000000"
 preserveAspectRatio="xMidYMid meet">
<metadata>
Created by potrace 1.16, written by Peter Selinger 2001-2019
</metadata>
<g transform="translate(0.000000,2048.000000) scale(0.100000,-0.100000)"
fill="#000000" stroke="none">
<path d="M10160 17764 c-525 -47 -949 -167 -1377 -389 -412 -214 -752 -487
-1058 -850 -341 -405 -572 -876 -683 -1395 -156 -724 -32 -1566 339 -2300 73
-146 196 -353 276 -464 19 -26 31 -52 26 -56 -26 -23 -564 -166 -1015 -270
-722 -167 -935 -228 -1140 -330 -400 -198 -663 -534 -764 -975 -24 -108 -30
-425 -10 -542 30 -173 106 -372 189 -492 85 -125 254 -271 410 -355 280 -151
553 -198 1307 -226 314 -11 628 -27 733 -36 l67 -6 0 -57 c0 -32 -7 -129 -15
-217 -59 -610 -239 -1317 -626 -2444 -416 -1215 -491 -1485 -530 -1893 -15
-159 -7 -460 15 -580 76 -406 261 -682 585 -871 141 -82 385 -166 586 -202
136 -24 389 -24 500 0 332 72 597 238 888 556 225 245 500 667 922 1415 296
525 409 698 505 774 87 69 130 67 231 -9 132 -99 278 -329 634 -995 275 -516
429 -779 573 -980 298 -416 631 -681 998 -794 176 -54 260 -65 469 -65 141 0
212 4 278 17 405 81 736 327 912 676 117 234 176 562 161 906 -27 598 -204
1281 -785 3010 -190 565 -337 1041 -396 1279 -35 145 -96 458 -89 465 1 2 205
-2 451 -8 603 -16 879 -3 1156 55 322 68 547 184 741 384 226 233 336 509 336
844 0 388 -154 734 -456 1026 -274 265 -603 421 -1349 639 -467 137 -931 271
-997 288 -38 10 -68 21 -68 25 0 4 15 28 34 52 66 87 185 284 253 421 147 294
255 619 317 955 51 281 61 394 60 725 0 339 -11 448 -74 730 -146 652 -503
1272 -984 1707 -504 455 -1160 746 -1881 834 -123 15 -556 27 -655 18z m683
-484 c692 -105 1334 -436 1740 -895 284 -322 528 -783 632 -1195 175 -693 74
-1539 -263 -2205 -111 -219 -266 -436 -452 -630 -31 -33 -63 -71 -70 -85 -38
-70 -28 -178 20 -234 43 -49 101 -70 410 -146 561 -139 1203 -320 1230 -346 9
-9 15 -33 15 -58 0 -39 -6 -49 -68 -116 -119 -129 -170 -269 -147 -412 13 -88
35 -140 109 -268 63 -109 78 -152 66 -191 -4 -13 -50 -67 -102 -122 -126 -132
-155 -190 -161 -332 -4 -98 -3 -105 37 -221 22 -66 41 -134 41 -150 -1 -33
-56 -114 -96 -140 -24 -16 -46 -16 -365 0 -350 18 -416 17 -484 -14 -178 -79
-189 -295 -44 -930 65 -285 231 -826 479 -1565 155 -461 298 -908 365 -1139
l64 -221 -27 -28 c-15 -16 -45 -58 -67 -95 -31 -52 -50 -72 -85 -90 -42 -21
-53 -22 -175 -16 -145 7 -212 -4 -307 -52 -77 -39 -165 -134 -217 -234 -60
-117 -84 -146 -133 -165 -40 -15 -51 -15 -132 0 -268 46 -440 -20 -586 -225
-56 -79 -78 -102 -116 -121 -45 -21 -50 -22 -123 -9 -42 7 -105 19 -141 25
l-65 11 -78 145 c-378 695 -494 877 -669 1045 -150 145 -307 214 -493 214
-141 0 -262 -46 -386 -146 -149 -119 -284 -316 -571 -829 -193 -345 -316 -557
-332 -574 -12 -11 -21 0 -57 70 -51 99 -158 213 -232 247 -110 51 -203 62
-370 41 -146 -18 -175 1 -232 151 -74 193 -168 290 -325 333 -95 27 -145 29
-271 11 -145 -19 -200 -15 -236 17 -14 13 -48 70 -75 127 -48 101 -106 175
-167 213 l-24 15 161 490 c316 964 431 1359 531 1841 126 599 170 1104 115
1301 -20 71 -75 126 -146 146 -55 16 -446 36 -703 36 -71 0 -140 3 -152 6 -15
4 -33 27 -54 70 -38 77 -36 105 16 216 68 148 82 270 45 389 -25 80 -69 146
-171 255 l-81 86 4 53 c4 42 15 68 57 134 68 107 102 197 108 292 10 143 -32
248 -151 378 -42 46 -76 91 -76 101 0 20 7 22 252 75 200 44 472 112 678 170
246 69 672 212 707 237 54 39 83 94 83 158 -1 77 -22 117 -133 248 -332 394
-546 823 -681 1367 -121 487 -106 1012 44 1500 195 639 682 1241 1293 1600
369 216 833 363 1272 404 168 16 559 6 718 -19z m-4364 -5802 c7 -21 45 -72
88 -120 98 -107 127 -169 126 -263 0 -85 -17 -133 -88 -250 -126 -209 -117
-286 54 -468 115 -122 136 -164 135 -272 0 -71 -5 -91 -41 -175 -22 -52 -46
-112 -53 -133 -12 -38 -9 -141 5 -198 l7 -26 -124 5 c-67 2 -127 8 -131 11 -4
4 -13 36 -19 70 -15 79 -2 145 49 262 29 66 37 97 37 144 0 83 -22 122 -132
237 -106 111 -139 172 -149 271 -8 89 20 179 87 277 82 119 94 147 94 220 0
78 -12 104 -94 197 -59 67 -110 152 -110 183 0 11 30 23 118 46 64 17 120 28
123 25 4 -3 12 -23 18 -43z m7896 -16 c89 -30 111 -41 113 -58 5 -38 -37 -128
-94 -199 -79 -98 -98 -143 -92 -220 6 -67 26 -113 98 -220 74 -112 85 -145 85
-260 0 -89 -3 -105 -28 -152 -15 -30 -68 -94 -125 -150 -138 -138 -149 -187
-85 -372 46 -132 49 -204 12 -272 l-24 -44 -133 -3 c-72 -1 -132 0 -132 3 0 3
12 29 26 57 36 71 31 159 -16 273 -29 68 -34 93 -34 165 -1 114 17 151 136
277 106 112 128 156 128 252 0 63 -29 133 -105 255 -60 98 -78 159 -73 248 5
92 24 131 111 232 80 93 93 115 102 179 4 26 10 47 14 46 3 0 56 -17 116 -37z
m-8280 -94 c14 -56 42 -100 124 -192 79 -90 81 -115 14 -213 -109 -159 -149
-303 -125 -445 20 -115 61 -187 173 -304 117 -122 119 -130 65 -266 -44 -106
-61 -201 -52 -285 l7 -65 -83 6 c-292 24 -488 65 -623 130 -203 99 -335 283
-382 531 -23 121 -13 332 21 448 82 276 262 479 534 604 96 44 271 103 296
100 14 -1 22 -15 31 -49z m8726 -81 c314 -150 553 -399 641 -669 27 -81 31
-111 35 -233 4 -118 2 -154 -15 -226 -37 -154 -100 -265 -209 -371 -159 -154
-386 -230 -786 -263 l-78 -7 8 39 c18 87 8 193 -31 307 -25 75 -35 118 -31
137 4 18 39 60 91 111 144 140 185 229 186 398 0 126 -23 198 -107 328 -96
149 -97 179 -14 283 52 64 109 170 109 201 0 9 3 23 6 32 7 18 41 6 195 -67z
m-7724 -5714 c14 -16 50 -77 79 -138 30 -60 69 -124 86 -142 71 -73 160 -93
310 -69 54 9 126 16 161 16 169 0 282 -90 343 -272 33 -101 77 -165 138 -203
54 -33 76 -34 341 -25 119 4 186 -17 257 -79 42 -37 98 -134 113 -194 4 -14
22 -43 41 -65 l34 -40 -38 -58 c-21 -33 -55 -85 -76 -118 -51 -79 -48 -82
-166 167 -38 81 -85 120 -166 138 -45 10 -74 9 -172 -4 -141 -20 -209 -12
-298 37 -70 39 -121 101 -160 195 -64 157 -79 183 -116 215 -68 59 -143 68
-303 40 -234 -42 -372 26 -479 236 -26 52 -52 100 -57 106 -10 13 78 284 92
284 6 0 22 -12 36 -27z m6796 -239 l38 -146 -38 -34 c-21 -19 -67 -48 -103
-66 l-65 -33 -160 0 c-155 0 -162 -1 -217 -28 -70 -34 -102 -74 -161 -197
-100 -211 -240 -276 -507 -236 -58 8 -124 13 -148 9 -74 -10 -140 -59 -212
-155 -87 -117 -125 -154 -188 -185 -64 -31 -164 -40 -236 -21 -48 13 -49 13
-112 128 -35 63 -64 119 -64 124 0 5 17 6 38 2 153 -27 255 -14 324 44 21 17
66 72 99 121 69 100 97 125 184 165 50 23 72 27 144 27 48 -1 106 -6 131 -12
74 -17 169 -13 220 10 71 32 117 84 175 200 41 82 66 117 109 156 83 76 128
89 306 86 104 -2 159 1 196 12 57 16 132 77 170 137 13 21 28 38 32 38 4 0 24
-66 45 -146z m-6949 -272 c44 -73 127 -152 194 -186 112 -57 220 -68 405 -42
106 15 152 10 181 -23 10 -11 38 -68 62 -126 85 -207 178 -293 364 -341 66
-17 83 -16 313 2 l77 7 35 -37 c19 -21 35 -42 35 -48 0 -24 89 -196 120 -231
l33 -38 -34 -47 c-84 -120 -231 -296 -319 -383 -200 -199 -359 -283 -589 -309
-250 -29 -590 61 -784 208 -103 78 -200 229 -250 387 -70 223 -61 563 23 948
28 125 83 317 92 317 3 0 22 -26 42 -58z m7045 -79 c20 -76 61 -304 77 -429
26 -198 24 -507 -4 -650 -66 -331 -200 -528 -438 -641 -157 -74 -220 -87 -434
-87 -204 -1 -266 11 -420 74 -268 111 -500 332 -739 707 -39 62 -71 115 -71
118 0 3 20 5 44 5 56 0 157 31 221 69 77 45 131 97 185 176 54 80 98 122 138
132 15 3 82 -2 150 -11 185 -27 293 -6 426 81 77 52 137 126 196 244 21 42 55
90 75 107 39 35 35 34 203 32 131 -1 192 13 289 66 43 24 81 43 85 43 4 1 12
-16 17 -36z"/>
<path d="M9083 15026 c-108 -35 -203 -122 -256 -234 -30 -63 -32 -73 -32 -183
0 -113 1 -116 38 -191 105 -214 353 -296 567 -188 164 83 262 276 231 456 -16
87 -70 191 -128 245 -24 22 -74 55 -111 72 -59 28 -79 32 -167 34 -64 2 -115
-2 -142 -11z"/>
<path d="M11425 15027 c-115 -38 -203 -116 -257 -224 -32 -65 -33 -72 -33
-188 0 -114 2 -123 32 -188 81 -171 262 -268 441 -239 290 48 448 353 321 620
-41 85 -107 150 -195 193 -62 30 -79 33 -169 36 -63 2 -115 -2 -140 -10z"/>
<path d="M9460 13740 c-80 -10 -144 -61 -177 -137 -17 -42 -17 -130 1 -181 51
-143 244 -338 459 -464 212 -124 509 -191 746 -168 331 31 593 158 821 396
151 157 204 276 178 399 -21 102 -141 178 -251 161 -81 -13 -124 -43 -202
-141 -189 -238 -390 -346 -645 -347 -131 -1 -215 18 -335 77 -107 52 -189 116
-263 205 -29 36 -72 86 -93 113 -22 26 -54 54 -71 63 -40 21 -112 31 -168 24z
m71 -140 c5 0 42 -42 83 -92 122 -153 214 -232 345 -297 146 -73 264 -101 426
-101 301 0 548 124 755 380 89 110 124 133 165 106 37 -25 47 -59 31 -105 -63
-184 -330 -409 -588 -495 -135 -46 -214 -58 -358 -59 -150 0 -275 24 -427 83
-197 75 -409 243 -510 403 -35 56 -44 92 -31 128 11 32 61 63 86 54 8 -3 18
-5 23 -5z"/>
<path d="M10287 11175 c-227 -58 -367 -237 -367 -470 0 -231 139 -407 362
-460 166 -39 326 4 448 121 214 204 178 585 -69 743 -105 68 -259 95 -374 66z
m227 -157 c79 -29 139 -86 178 -166 28 -57 33 -76 33 -142 -1 -165 -113 -298
-275 -328 -148 -27 -292 50 -356 191 -68 150 -13 334 123 414 101 59 199 69
297 31z"/>
<path d="M10266 9709 c-96 -23 -193 -91 -255 -179 -136 -194 -117 -464 44
-625 104 -104 268 -158 411 -135 244 39 404 226 404 469 0 229 -146 423 -351
470 -53 13 -200 12 -253 0z m282 -170 c47 -24 77 -48 104 -84 40 -53 78 -154
78 -210 0 -56 -38 -157 -78 -210 -46 -61 -140 -112 -224 -121 -134 -15 -275
68 -333 197 -38 85 -39 182 -3 260 86 188 278 258 456 168z"/>
<path d="M10293 8255 c-219 -48 -373 -244 -373 -475 0 -188 97 -343 267 -427
77 -38 77 -38 202 -38 108 0 134 4 183 23 187 75 298 243 298 451 -1 230 -153
419 -377 466 -82 18 -119 18 -200 0z m251 -174 c76 -37 108 -72 150 -161 75
-161 10 -349 -148 -430 -62 -32 -77 -35 -150 -35 -66 1 -91 5 -138 27 -136 63
-216 217 -187 358 47 227 270 341 473 241z"/>
</g>
</svg>
