<?xml version="1.0" standalone="no"?>
<!DOCTYPE svg PUBLIC "-//W3C//DTD SVG 20010904//EN"
 "http://www.w3.org/TR/2001/REC-SVG-20010904/DTD/svg10.dtd">
<svg version="1.0" xmlns="http://www.w3.org/2000/svg"
 width="1024.000000pt" height="1024.000000pt" viewBox="0 0 1024.000000 1024.000000"
 preserveAspectRatio="xMidYMid meet">
<metadata>
Created by potrace 1.16, written by Peter Selinger 2001-2019
</metadata>
<g transform="translate(0.000000,1024.000000) scale(0.100000,-0.100000)"
fill="#000000" stroke="none">
<path d="M3980 7243 c-150 -20 -335 -80 -444 -145 -177 -104 -280 -211 -443
-458 -143 -217 -185 -272 -293 -384 -106 -110 -201 -185 -417 -328 -223 -148
-333 -260 -333 -341 0 -13 -12 -39 -26 -58 -82 -109 -148 -302 -159 -466 -14
-196 53 -381 168 -464 l39 -28 -65 -29 c-123 -56 -197 -164 -205 -301 -7 -138
50 -235 193 -327 56 -35 57 -37 51 -73 -15 -83 -18 -220 -7 -287 59 -333 292
-521 716 -575 74 -9 199 -10 475 -5 688 12 930 -13 1665 -174 501 -110 686
-135 990 -135 245 0 269 4 430 68 334 132 858 419 1309 717 508 336 691 501
757 685 58 160 23 463 -65 580 -13 17 -27 46 -31 65 -16 77 -70 147 -128 169
l-29 11 33 37 c54 63 83 138 83 218 0 44 -6 81 -15 99 -15 27 -15 30 22 85 80
119 121 323 99 488 -21 162 -75 278 -169 366 -57 54 -101 77 -201 108 -82 26
-131 27 -695 18 -287 -5 -381 6 -647 72 -272 68 -459 140 -1023 394 -431 194
-793 316 -1115 376 -113 21 -430 34 -520 22z m331 -153 c320 -32 749 -164
1229 -380 687 -308 863 -373 1200 -440 269 -53 446 -60 935 -34 90 5 141 2
204 -9 85 -17 171 -51 171 -69 0 -26 -71 -104 -130 -143 -36 -23 -267 -144
-515 -267 -593 -296 -765 -392 -1130 -633 -110 -73 -226 -155 -257 -184 -39
-36 -63 -51 -75 -47 -39 12 -449 77 -633 100 -527 67 -767 83 -1415 96 -269 5
-535 14 -590 20 -560 55 -1000 217 -1095 401 -19 35 -19 37 1 75 30 63 90 113
294 249 104 70 221 153 260 185 152 125 315 319 455 540 187 298 364 439 636
510 150 38 283 47 455 30z m3873 -1145 c33 -125 15 -318 -41 -428 -59 -118
-225 -238 -687 -497 -337 -189 -458 -260 -810 -474 -318 -194 -575 -338 -591
-332 -21 8 -47 119 -52 229 -9 178 25 297 105 367 50 45 326 229 506 339 226
138 463 265 881 472 432 214 543 278 617 353 24 24 46 41 50 37 4 -3 14 -33
22 -66z m-6045 -606 c73 -98 327 -227 581 -293 343 -90 564 -112 1266 -126
581 -11 859 -31 1349 -95 203 -27 534 -81 542 -89 3 -2 -3 -40 -13 -83 -27
-115 -23 -272 9 -390 l24 -93 -64 0 c-87 0 -377 31 -898 95 -671 82 -923 108
-1475 150 -364 28 -726 80 -945 136 -261 67 -404 149 -462 267 -25 51 -28 70
-32 173 -2 93 1 133 17 197 22 84 60 182 71 182 4 0 17 -14 30 -31z m5947
-173 c-21 -53 -75 -104 -171 -160 -127 -75 -194 -143 -265 -272 -52 -92 -81
-171 -136 -366 -24 -87 -59 -188 -76 -224 -40 -84 -110 -148 -186 -170 -76
-23 -137 -9 -289 67 -206 101 -315 128 -441 109 -118 -18 -201 -68 -327 -195
-172 -174 -218 -198 -413 -214 -174 -16 -213 -39 -338 -201 -110 -143 -205
-201 -330 -203 -93 -1 -166 31 -271 119 -164 138 -268 169 -424 125 -150 -42
-225 -24 -349 85 -122 107 -175 130 -360 153 -117 15 -198 57 -330 171 -158
138 -231 183 -375 231 -66 22 -85 24 -320 24 -269 1 -296 5 -354 58 -28 26
-71 113 -71 144 l0 23 48 -19 c195 -77 757 -167 1257 -201 400 -27 627 -50
1275 -130 787 -96 1015 -118 1120 -105 111 14 240 81 800 420 319 193 565 336
785 460 216 121 445 259 495 298 55 43 69 34 46 -27z m-42 -337 c57 -16 96
-58 96 -105 0 -33 -7 -45 -54 -89 -49 -45 -392 -252 -403 -242 -7 8 59 183 98
258 47 91 96 150 141 172 39 19 69 21 122 6z m200 -354 c9 -32 16 -91 16 -130
-1 -146 -33 -220 -149 -336 -268 -267 -1130 -810 -1681 -1057 -170 -76 -227
-98 -234 -91 -3 3 -13 34 -22 69 -12 48 -15 92 -12 170 9 178 47 245 196 343
107 71 317 198 494 301 l165 95 53 -16 c36 -11 80 -14 140 -11 167 8 283 93
367 270 l48 99 85 46 c262 143 436 250 479 297 14 14 28 23 32 19 5 -5 15 -35
23 -68z m-6130 -89 c11 -58 65 -152 112 -196 25 -23 71 -54 102 -68 57 -27 57
-27 312 -28 218 0 263 -3 310 -18 83 -28 182 -80 247 -132 64 -51 143 -125
143 -134 0 -10 -388 8 -527 25 -360 42 -634 128 -779 243 -85 67 -107 155 -61
237 23 40 98 105 122 105 7 0 16 -15 19 -34z m4628 -415 c31 -12 67 -30 79
-40 l22 -17 -53 -28 c-49 -26 -231 -135 -459 -277 -57 -35 -127 -85 -155 -110
l-51 -46 -239 33 c-131 18 -241 35 -243 38 -9 8 8 26 39 42 18 9 77 20 137 25
204 18 273 52 446 219 134 130 168 157 228 176 59 19 178 12 249 -15z m-4409
-201 c284 -85 620 -117 1377 -133 156 -3 157 -3 275 -102 157 -132 259 -157
448 -111 148 37 171 30 323 -100 81 -68 189 -122 278 -137 146 -25 313 31 429
142 62 59 63 60 102 51 22 -5 137 -23 255 -40 118 -18 216 -33 218 -35 1 -1
-5 -33 -14 -71 -10 -39 -17 -110 -17 -164 0 -84 5 -122 30 -234 l6 -29 -174 6
c-259 10 -557 51 -854 118 -425 97 -624 133 -928 171 -155 19 -228 22 -737 24
-611 2 -659 6 -812 59 -96 34 -153 68 -219 134 -97 97 -147 244 -135 395 8 90
11 100 35 91 9 -3 60 -19 114 -35z"/>
<path d="M4059 6701 c-23 -24 -29 -38 -29 -74 0 -49 11 -64 57 -73 59 -12 123
42 123 101 0 73 -95 102 -151 46z"/>
<path d="M5516 6477 c-12 -9 -17 -23 -14 -42 3 -28 6 -30 48 -30 38 0 45 -3
50 -24 13 -55 72 -52 78 3 9 70 -105 135 -162 93z"/>
<path d="M4843 6329 c-94 -27 -76 -159 22 -159 42 0 90 22 99 45 18 47 -11
115 -49 115 -7 0 -19 2 -27 4 -7 2 -27 0 -45 -5z"/>
<path d="M3769 6121 c-38 -38 -41 -101 -7 -125 42 -30 124 -11 148 33 18 35
12 88 -12 105 -38 27 -95 20 -129 -13z"/>
<path d="M6134 5836 c-37 -31 -38 -84 -4 -121 34 -36 101 -35 135 1 40 43 33
104 -16 129 -41 22 -84 18 -115 -9z"/>
<path d="M5177 5779 c-48 -28 -40 -117 13 -144 47 -24 95 -19 119 11 30 38 26
71 -13 110 -36 36 -82 45 -119 23z"/>
<path d="M4151 5614 c-37 -31 -41 -69 -11 -106 51 -65 170 -27 170 55 0 71
-98 103 -159 51z"/>
<path d="M2983 5485 c-86 -37 -62 -145 33 -145 67 0 111 45 99 102 -5 21 -16
34 -41 44 -41 17 -50 17 -91 -1z"/>
<path d="M7274 5327 c-61 -56 -57 -145 7 -135 16 2 25 14 33 43 11 37 15 40
51 45 35 4 40 8 43 34 4 35 -10 46 -61 46 -28 0 -46 -8 -73 -33z"/>
<path d="M6845 5006 c-16 -23 -11 -54 9 -68 22 -16 56 -7 72 17 15 23 15 27 0
50 -21 32 -60 33 -81 1z"/>
<path d="M2557 4806 c-27 -21 -19 -70 11 -74 13 -2 30 2 39 9 13 11 18 9 35
-14 23 -32 53 -35 68 -7 25 46 -26 100 -94 100 -22 0 -49 -7 -59 -14z"/>
<path d="M3862 4734 c-17 -12 -22 -24 -20 -47 4 -38 33 -47 71 -22 22 14 26
14 50 -5 32 -26 63 -26 77 0 13 24 1 51 -32 74 -30 21 -117 21 -146 0z"/>
<path d="M7239 3736 c-30 -14 -36 -51 -13 -77 35 -39 88 -11 82 44 -4 36 -34
51 -69 33z"/>
<path d="M6505 3316 c-12 -18 -13 -30 -6 -50 9 -21 17 -26 45 -26 51 0 75 50
40 84 -23 24 -61 20 -79 -8z"/>
<path d="M3622 3418 c-27 -27 -3 -88 34 -88 31 0 54 21 54 48 0 35 -16 52 -50
52 -14 0 -31 -5 -38 -12z"/>
</g>
</svg>
