<?xml version="1.0" standalone="no"?>
<!DOCTYPE svg PUBLIC "-//W3C//DTD SVG 20010904//EN"
 "http://www.w3.org/TR/2001/REC-SVG-20010904/DTD/svg10.dtd">
<svg version="1.0" xmlns="http://www.w3.org/2000/svg"
 width="1024.000000pt" height="1024.000000pt" viewBox="0 0 1024.000000 1024.000000"
 preserveAspectRatio="xMidYMid meet">
<metadata>
Created by potrace 1.16, written by Peter Selinger 2001-2019
</metadata>
<g transform="translate(0.000000,1024.000000) scale(0.100000,-0.100000)"
fill="#000000" stroke="none">
<path d="M4995 6649 c-361 -41 -615 -251 -695 -574 -27 -110 -163 -1113 -163
-1205 -1 -127 57 -221 168 -272 46 -21 68 -23 275 -28 l225 -5 5 -315 c5 -304
6 -317 28 -362 59 -119 215 -172 337 -114 62 29 107 76 136 141 22 48 22 60
20 326 -1 152 1 289 5 303 l6 26 182 0 c193 0 278 10 336 40 45 23 92 73 121
130 22 42 24 56 23 195 -1 151 -63 887 -89 1065 -8 52 -22 120 -31 150 -57
191 -203 356 -384 431 -137 58 -346 86 -505 68z m370 -169 c247 -79 375 -239
414 -515 18 -131 81 -839 88 -990 9 -211 -11 -240 -170 -256 -107 -10 -1133
-11 -1254 -1 -94 8 -127 26 -157 86 -18 37 -18 42 -2 174 35 275 128 930 146
1026 40 204 143 343 321 429 131 64 199 77 389 73 127 -3 168 -7 225 -26z
m-175 -2206 c0 -280 -1 -298 -20 -329 -49 -80 -173 -68 -210 19 -15 36 -16 74
-12 324 l4 282 119 0 119 0 0 -296z"/>
<path d="M5424 5546 c-88 -39 -81 -218 10 -250 63 -23 126 40 126 126 0 60
-21 103 -60 123 -35 18 -36 18 -76 1z"/>
<path d="M4627 5539 c-65 -38 -64 -203 2 -239 62 -33 135 15 147 96 8 52 -17
128 -46 144 -24 13 -80 12 -103 -1z"/>
<path d="M4916 5277 c-15 -11 -18 -22 -14 -59 10 -85 78 -142 169 -142 95 -1
169 67 169 153 0 34 -4 43 -24 53 -34 15 -52 5 -73 -39 -10 -20 -30 -44 -45
-52 -25 -14 -29 -14 -55 5 -24 18 -43 44 -55 76 -6 15 -54 18 -72 5z"/>
</g>
</svg>
