<?xml version="1.0" standalone="no"?>
<!DOCTYPE svg PUBLIC "-//W3C//DTD SVG 20010904//EN"
 "http://www.w3.org/TR/2001/REC-SVG-20010904/DTD/svg10.dtd">
<svg version="1.0" xmlns="http://www.w3.org/2000/svg"
 width="1024.000000pt" height="1024.000000pt" viewBox="0 0 1024.000000 1024.000000"
 preserveAspectRatio="xMidYMid meet">
<metadata>
Created by potrace 1.16, written by Peter Selinger 2001-2019
</metadata>
<g transform="translate(0.000000,1024.000000) scale(0.100000,-0.100000)"
fill="#000000" stroke="none">
<path d="M4935 7214 c-114 -19 -211 -58 -297 -121 -45 -33 -48 -33 -93 -22
-72 18 -202 6 -269 -24 -102 -47 -196 -156 -225 -262 -11 -39 -13 -41 -84 -63
-173 -55 -287 -209 -287 -388 l0 -65 -55 -54 c-78 -76 -117 -162 -119 -261
l-1 -74 -46 0 c-110 0 -205 -53 -254 -141 -26 -47 -30 -64 -29 -129 0 -84 22
-139 79 -200 29 -31 33 -43 39 -110 3 -41 17 -122 31 -178 96 -395 335 -726
698 -967 48 -32 86 -60 84 -61 -2 -2 -66 -8 -143 -14 -522 -39 -893 -129
-1003 -244 -41 -43 -53 -113 -27 -164 84 -162 652 -275 1571 -312 1027 -41
2104 50 2435 206 114 54 150 96 150 175 0 173 -293 267 -1079 347 l-74 7 109
71 c308 202 536 494 649 834 35 106 75 293 75 353 0 22 12 43 44 77 32 34 50
65 62 106 49 171 -58 325 -238 342 l-58 5 6 61 c12 123 -27 236 -112 324 -47
49 -52 59 -56 108 -10 124 -108 246 -234 293 -59 23 -161 30 -220 17 -30 -7
-33 -4 -61 46 -39 68 -119 143 -186 173 -29 13 -83 29 -122 35 -61 10 -73 15
-94 43 -73 96 -191 176 -311 211 -57 17 -202 28 -255 20z m168 -148 c133 -26
240 -98 299 -203 17 -29 33 -54 36 -54 4 -1 41 -3 83 -3 127 -3 222 -64 271
-175 53 -121 54 -122 142 -98 122 32 197 20 271 -44 52 -46 75 -100 75 -176 0
-58 2 -65 32 -90 97 -83 131 -141 132 -223 0 -34 -7 -68 -17 -87 l-18 -33
-998 0 -999 0 -4 99 c-3 80 -7 104 -22 120 -26 29 -89 28 -117 0 -20 -20 -21
-29 -17 -120 l5 -99 -302 0 -302 0 -7 39 c-13 83 40 183 118 219 24 12 48 27
53 34 4 7 8 63 8 123 0 89 4 118 19 149 42 84 120 137 234 161 73 16 89 29 98
84 23 146 118 239 252 248 52 4 79 0 122 -16 30 -12 64 -21 75 -21 12 0 41 21
65 46 25 25 70 58 100 74 48 24 77 33 185 54 37 7 53 6 128 -8z m1587 -1353
c16 -9 34 -27 42 -41 17 -33 14 -96 -6 -127 -39 -59 76 -55 -1711 -53 l-1637
3 -29 32 c-52 59 -51 113 6 170 l33 33 1637 0 c1511 0 1639 -1 1665 -17z m-70
-392 c0 -40 -32 -186 -60 -271 -29 -89 -100 -239 -148 -314 -175 -272 -431
-481 -731 -597 l-76 -30 -578 1 -578 0 -67 26 c-322 128 -572 333 -744 610
-92 149 -165 335 -188 481 -6 37 -13 78 -16 91 l-4 22 1595 0 c1557 0 1595 0
1595 -19z m-2251 -1429 c23 -76 52 -125 94 -156 28 -21 39 -21 535 -24 279 -2
521 0 539 3 18 3 47 18 64 33 33 27 81 120 94 181 l7 34 122 -7 c520 -29 993
-112 1092 -191 25 -20 27 -25 14 -40 -68 -82 -457 -156 -1043 -200 -815 -60
-1876 -27 -2417 76 -265 50 -420 109 -395 150 14 22 136 70 243 95 219 52 673
105 959 112 l71 2 21 -68z m1181 58 c0 -19 -31 -84 -43 -92 -7 -4 -224 -8
-483 -8 -436 0 -472 1 -486 18 -15 19 -38 67 -38 82 0 6 199 10 525 10 354 0
525 -3 525 -10z"/>
<path d="M4906 6849 c-28 -22 -35 -64 -16 -99 12 -23 152 -82 197 -83 45 -1
77 31 77 79 0 46 -22 63 -125 98 -94 31 -99 32 -133 5z"/>
<path d="M4341 6673 c-35 -33 -81 -155 -81 -213 0 -44 26 -70 70 -70 43 0 67
26 99 110 47 122 44 170 -11 189 -42 15 -44 15 -77 -16z"/>
<path d="M5384 6648 c-26 -30 -84 -158 -84 -187 0 -12 11 -33 25 -46 30 -31
77 -33 106 -4 28 28 89 160 89 193 0 61 -94 92 -136 44z"/>
<path d="M4666 6609 c-28 -22 -35 -64 -16 -99 10 -19 121 -60 161 -60 74 0
112 92 58 137 -16 13 -126 43 -157 43 -10 0 -31 -9 -46 -21z"/>
<path d="M5790 6377 c-30 -15 -90 -147 -92 -203 -2 -45 28 -74 77 -74 39 0 56
17 91 95 36 78 43 144 18 167 -27 24 -65 30 -94 15z"/>
<path d="M4818 6312 c-48 -24 -128 -134 -128 -176 0 -47 29 -79 70 -79 29 0
43 9 93 64 73 79 90 111 82 150 -7 32 -13 37 -55 49 -20 6 -38 3 -62 -8z"/>
<path d="M3975 6265 c-27 -26 -30 -50 -15 -107 13 -44 32 -66 66 -74 31 -8 81
13 95 38 14 25 -5 108 -33 143 -27 34 -80 34 -113 0z"/>
<path d="M6073 6178 c-28 -14 -44 -59 -33 -95 28 -93 87 -183 120 -183 48 0
90 41 90 88 0 30 -77 180 -99 191 -24 13 -49 13 -78 -1z"/>
<path d="M5285 6165 c-5 -2 -42 -13 -82 -24 -116 -34 -160 -88 -118 -148 24
-35 57 -35 158 -3 100 32 137 59 137 102 0 45 -55 87 -95 73z"/>
</g>
</svg>
