<svg width="384" height="520" viewBox="0 0 384 520" fill="none" xmlns="http://www.w3.org/2000/svg">
<path d="M193.915 355.954V377.135H189.509V355.954H193.915Z" fill="white"/>
<path d="M177.592 377.135V361.249H181.863V364.021H182.029C182.318 363.035 182.804 362.29 183.487 361.787C184.17 361.277 184.956 361.022 185.845 361.022C186.066 361.022 186.303 361.035 186.559 361.063C186.814 361.091 187.038 361.128 187.231 361.177V365.086C187.024 365.024 186.738 364.969 186.372 364.921C186.007 364.872 185.673 364.848 185.369 364.848C184.721 364.848 184.142 364.99 183.632 365.272C183.128 365.548 182.728 365.934 182.432 366.431C182.142 366.927 181.998 367.499 181.998 368.147V377.135H177.592Z" fill="white"/>
<path d="M169.662 370.371V361.249H174.068V377.135H169.838V374.249H169.672C169.314 375.18 168.717 375.928 167.883 376.494C167.056 377.059 166.045 377.342 164.853 377.342C163.791 377.342 162.857 377.1 162.05 376.618C161.243 376.135 160.612 375.449 160.157 374.56C159.709 373.67 159.482 372.605 159.475 371.364V361.249H163.88V370.578C163.887 371.516 164.139 372.257 164.635 372.801C165.132 373.346 165.797 373.618 166.632 373.618C167.162 373.618 167.659 373.498 168.121 373.256C168.583 373.008 168.955 372.643 169.238 372.16C169.527 371.678 169.669 371.081 169.662 370.371Z" fill="white"/>
<path d="M156.346 363.369H151.816C151.733 362.783 151.564 362.262 151.309 361.807C151.054 361.345 150.726 360.952 150.326 360.628C149.926 360.304 149.464 360.056 148.94 359.884C148.423 359.711 147.861 359.625 147.255 359.625C146.158 359.625 145.203 359.898 144.39 360.442C143.576 360.98 142.945 361.766 142.497 362.8C142.049 363.828 141.825 365.076 141.825 366.544C141.825 368.054 142.049 369.323 142.497 370.35C142.952 371.378 143.587 372.153 144.4 372.677C145.214 373.201 146.155 373.463 147.224 373.463C147.824 373.463 148.379 373.384 148.889 373.225C149.406 373.067 149.864 372.836 150.264 372.532C150.664 372.222 150.995 371.846 151.257 371.405C151.526 370.964 151.712 370.461 151.816 369.895L156.346 369.916C156.228 370.888 155.935 371.826 155.466 372.729C155.005 373.625 154.381 374.429 153.595 375.139C152.815 375.842 151.885 376.4 150.802 376.814C149.726 377.221 148.51 377.424 147.151 377.424C145.262 377.424 143.573 376.997 142.084 376.142C140.601 375.287 139.429 374.049 138.567 372.429C137.712 370.809 137.285 368.847 137.285 366.544C137.285 364.234 137.719 362.269 138.588 360.649C139.457 359.029 140.636 357.795 142.125 356.947C143.614 356.092 145.29 355.664 147.151 355.664C148.379 355.664 149.516 355.836 150.564 356.181C151.619 356.526 152.553 357.029 153.367 357.691C154.181 358.346 154.843 359.149 155.353 360.101C155.87 361.052 156.201 362.142 156.346 363.369Z" fill="white"/>
<path d="M112.404 383.092V361.249H116.748V363.917H116.945C117.138 363.49 117.417 363.055 117.782 362.614C118.155 362.166 118.637 361.794 119.23 361.497C119.83 361.194 120.575 361.042 121.464 361.042C122.623 361.042 123.691 361.345 124.67 361.952C125.649 362.552 126.432 363.459 127.018 364.672C127.604 365.879 127.897 367.392 127.897 369.213C127.897 370.985 127.611 372.481 127.039 373.701C126.473 374.915 125.701 375.835 124.722 376.463C123.75 377.083 122.66 377.393 121.454 377.393C120.599 377.393 119.871 377.252 119.272 376.969C118.679 376.687 118.193 376.332 117.813 375.904C117.434 375.47 117.145 375.032 116.945 374.591H116.81V383.092H112.404ZM116.717 369.192C116.717 370.136 116.848 370.96 117.11 371.664C117.372 372.367 117.751 372.915 118.248 373.308C118.744 373.694 119.347 373.887 120.058 373.887C120.775 373.887 121.381 373.691 121.878 373.298C122.374 372.898 122.75 372.346 123.005 371.643C123.267 370.933 123.398 370.116 123.398 369.192C123.398 368.275 123.271 367.468 123.016 366.772C122.76 366.075 122.385 365.531 121.888 365.138C121.392 364.745 120.782 364.548 120.058 364.548C119.341 364.548 118.734 364.738 118.237 365.117C117.748 365.496 117.372 366.034 117.11 366.73C116.848 367.427 116.717 368.247 116.717 369.192Z" fill="white"/>
<path d="M102.237 377.445C100.603 377.445 99.1967 377.114 98.0176 376.452C96.8455 375.783 95.9423 374.839 95.3079 373.618C94.6736 372.391 94.3564 370.94 94.3564 369.264C94.3564 367.63 94.6736 366.196 95.3079 364.962C95.9423 363.728 96.8352 362.766 97.9866 362.076C99.145 361.387 100.503 361.042 102.061 361.042C103.11 361.042 104.085 361.211 104.988 361.549C105.898 361.88 106.691 362.38 107.367 363.049C108.05 363.717 108.581 364.559 108.96 365.572C109.339 366.579 109.529 367.758 109.529 369.109V370.319H96.1146V367.589H105.381C105.381 366.954 105.243 366.393 104.968 365.903C104.692 365.413 104.309 365.031 103.82 364.755C103.337 364.472 102.775 364.331 102.134 364.331C101.465 364.331 100.872 364.486 100.355 364.796C99.8448 365.1 99.4449 365.51 99.1553 366.027C98.8657 366.537 98.7175 367.106 98.7106 367.734V370.33C98.7106 371.116 98.8554 371.795 99.1449 372.367C99.4414 372.939 99.8586 373.381 100.396 373.691C100.934 374.001 101.572 374.156 102.31 374.156C102.799 374.156 103.247 374.087 103.654 373.949C104.061 373.811 104.409 373.605 104.699 373.329C104.988 373.053 105.209 372.715 105.361 372.315L109.436 372.584C109.229 373.563 108.805 374.418 108.163 375.149C107.529 375.873 106.709 376.438 105.702 376.845C104.702 377.245 103.547 377.445 102.237 377.445Z" fill="white"/>
<path d="M85.082 377.445C83.4548 377.445 82.0551 377.1 80.883 376.411C79.7178 375.714 78.8214 374.749 78.194 373.515C77.5735 372.281 77.2632 370.86 77.2632 369.254C77.2632 367.627 77.5769 366.199 78.2043 364.972C78.8387 363.738 79.7384 362.776 80.9037 362.087C82.0689 361.39 83.4548 361.042 85.0613 361.042C86.4472 361.042 87.6607 361.294 88.7018 361.797C89.7429 362.3 90.5669 363.007 91.1736 363.917C91.7804 364.827 92.1148 365.896 92.1768 367.123H88.0192C87.902 366.33 87.5917 365.693 87.0884 365.21C86.592 364.721 85.9404 364.476 85.1337 364.476C84.4511 364.476 83.8547 364.662 83.3445 365.034C82.8412 365.4 82.4481 365.934 82.1655 366.637C81.8828 367.341 81.7414 368.192 81.7414 369.192C81.7414 370.205 81.8793 371.067 82.1551 371.777C82.4378 372.488 82.8343 373.029 83.3445 373.401C83.8547 373.774 84.4511 373.96 85.1337 373.96C85.637 373.96 86.0886 373.856 86.4885 373.649C86.8953 373.443 87.2298 373.143 87.4918 372.75C87.7607 372.35 87.9365 371.871 88.0192 371.312H92.1768C92.1079 372.526 91.7769 373.594 91.184 374.518C90.5979 375.435 89.7878 376.152 88.7535 376.669C87.7193 377.187 86.4954 377.445 85.082 377.445Z" fill="white"/>
<path d="M69.9692 377.135V361.249H74.375V377.135H69.9692ZM72.1824 359.201C71.5274 359.201 70.9655 358.984 70.4966 358.55C70.0347 358.108 69.8037 357.581 69.8037 356.967C69.8037 356.361 70.0347 355.84 70.4966 355.406C70.9655 354.964 71.5274 354.744 72.1824 354.744C72.8375 354.744 73.396 354.964 73.8579 355.406C74.3268 355.84 74.5612 356.361 74.5612 356.967C74.5612 357.581 74.3268 358.108 73.8579 358.55C73.396 358.984 72.8375 359.201 72.1824 359.201Z" fill="white"/>
<path d="M50.7969 377.135V355.954H59.2776C60.8358 355.954 62.1355 356.185 63.1767 356.647C64.2178 357.109 65.0004 357.75 65.5244 358.57C66.0484 359.384 66.3104 360.322 66.3104 361.384C66.3104 362.211 66.1449 362.938 65.814 363.566C65.483 364.186 65.0279 364.697 64.4488 365.096C63.8765 365.489 63.2215 365.769 62.4837 365.934V366.141C63.2904 366.176 64.0454 366.403 64.7487 366.824C65.4589 367.244 66.0346 367.834 66.4759 368.592C66.9171 369.344 67.1378 370.24 67.1378 371.281C67.1378 372.405 66.8585 373.408 66.3 374.291C65.7484 375.166 64.9314 375.859 63.8489 376.37C62.7664 376.88 61.4322 377.135 59.8464 377.135H50.7969ZM55.2751 373.474H58.926C60.1739 373.474 61.0841 373.236 61.6563 372.76C62.2286 372.278 62.5147 371.636 62.5147 370.836C62.5147 370.25 62.3734 369.733 62.0907 369.285C61.808 368.837 61.4047 368.485 60.8807 368.23C60.3635 367.975 59.7464 367.848 59.0294 367.848H55.2751V373.474ZM55.2751 364.817H58.595C59.2086 364.817 59.7533 364.71 60.2291 364.497C60.7117 364.276 61.091 363.966 61.3667 363.566C61.6494 363.166 61.7908 362.687 61.7908 362.128C61.7908 361.363 61.5184 360.746 60.9737 360.277C60.4359 359.808 59.6706 359.574 58.6777 359.574H55.2751V364.817Z" fill="white"/>
<path d="M212.605 509.799V520H32.0364V509.799H212.605ZM234.448 487.941V109.059C234.448 96.9871 224.669 87.2007 212.605 87.2007H32.0364C19.9729 87.2007 10.1934 96.9871 10.1934 109.059V487.941C10.1934 500.013 19.9729 509.799 32.0364 509.799V520L31.2102 519.99C13.8988 519.552 0 505.37 0 487.941V109.059C5.25408e-06 91.3534 14.3432 77 32.0364 77H212.605C230.299 77 244.642 91.3534 244.642 109.059V487.941L244.632 488.768C244.201 505.817 230.468 519.558 213.432 519.99L212.605 520V509.799C224.669 509.799 234.448 500.013 234.448 487.941Z" fill="white"/>
<path d="M76.0371 77H168.604V85.1823C168.604 92.9877 162.452 99.3153 154.864 99.3153H89.7775C82.1889 99.3153 76.0371 92.9877 76.0371 85.1823V77Z" fill="white"/>
<path d="M138.644 271.855C106.488 275.047 90.166 271.364 89.1916 271.364C89.1916 280.4 86.3495 306.395 85.0503 318.264H113.796V316.299C114.575 314.335 115.582 315.481 115.988 316.299V318.264L143.272 319C141.729 304.022 138.644 273.623 138.644 271.855Z" fill="#96A9C5"/>
<path d="M117.53 203.431C110.315 202.704 107.273 197.784 105.89 195.161C106.541 194.669 107.637 192.851 107.637 191.67C107.637 185.769 106.986 183.31 106.66 182.818C107.311 181.424 108.418 178.539 107.637 178.146C106.66 177.654 102.375 173.965 104.572 170.523C106.225 167.931 107.989 168.064 109.209 168.556C110.429 169.047 111.162 171.261 112.626 170.523C113.798 169.933 113.359 170.031 113.359 169.785C112.979 167.326 113.153 162.31 113.738 161.916C132.288 162.408 133.617 159.949 134.593 159.457C135.326 164.129 134.973 179.129 133.265 183.801C131.898 187.539 127.163 189.457 124.966 189.949V193.883C125.129 194.129 126.144 195.183 128.097 195.773C128.097 197.495 126.669 204.352 117.53 203.431Z" fill="#F8C195"/>
<path d="M108.572 178.907C108.572 179.492 107.421 181.913 106.845 183.05C104.954 180.938 100.974 176.079 100.184 173.544C99.4442 170.375 97.7171 159.65 102.898 152.825C108.079 146 114.493 146 117.454 146C120.415 146 127.569 146.244 131.763 146.488C135.957 146.731 140.892 146.975 140.892 150.388C140.645 156.969 136.204 159.65 132.257 161.356C128.309 163.063 117.207 162.575 115.48 162.331C114.099 162.136 113.753 163.388 113.753 164.038V170.375C113.753 171.838 112.52 171.838 112.026 171.35C107.832 166.963 106.845 168.669 106.105 169.157C105.365 169.644 103.885 173.057 104.872 174.763C105.859 176.469 108.572 178.175 108.572 178.907Z" fill="#4C4C4C"/>
<path d="M182.417 208.16C180.582 201.815 184.239 195.184 190.584 193.349L190.84 193.275C197.185 191.441 203.815 195.097 205.65 201.442C207.484 207.787 203.828 214.418 197.483 216.253L197.227 216.327C190.882 218.161 184.251 214.505 182.417 208.16Z" fill="#4059BD"/>
<path d="M141.197 224.68C142.773 212.672 140.212 202.407 138.735 198.776C139.556 198.776 141.788 199.405 144.152 201.923C146.86 204.828 154.247 222.501 155.724 229.038C156.315 233.493 157.776 232.831 158.433 231.943L160.402 229.764C162.044 227.666 165.425 223.47 165.819 223.47C166.312 223.47 169.02 222.501 171.236 220.565C176.555 215.335 174.109 206.926 172.221 203.376C172.385 203.214 173.108 202.698 174.683 201.923C176.653 200.955 181.578 200.955 183.301 202.892C187.241 207.733 185.271 215.077 183.794 218.144C178.131 228.312 166.164 249.471 163.603 252.763C160.402 256.879 153.016 259.3 148.584 256.637C145.038 254.507 140.869 246.55 139.227 242.837C139.227 241.788 139.621 236.688 141.197 224.68Z" fill="#F8C195"/>
<path d="M105.882 194.995C102.714 195.191 93.8364 197.031 89.7936 197.927C96.2291 202.325 96.4767 205.99 97.4667 216.251C98.4568 226.513 92.5163 230.667 89.051 232.132C88.556 236.042 87.8959 236.53 87.3184 237.263L87.5659 252.411C87.6484 256.483 87.9619 266.191 88.556 272.446C122.021 275.964 135.998 273.912 138.803 272.446C140.04 255.506 142.516 221.333 142.516 220.161C142.516 218.695 142.516 201.592 139.793 198.904C135.833 197.194 127.912 195.484 127.912 195.728C127.912 195.973 125.932 204.28 117.516 203.302C109.1 202.325 107.12 197.194 105.882 194.995Z" fill="#4D6589"/>
<path d="M48 296.316C48 290.052 53.1954 284.974 59.6042 284.974H60.5918C67.0007 284.974 72.1961 290.052 72.1961 296.316C72.1961 302.58 67.0007 307.658 60.5918 307.658H59.6042C53.1954 307.658 48 302.58 48 296.316Z" fill="#4059BD"/>
<path d="M98.6231 214.965C99.1871 203.544 93.2155 198.411 90.1897 197.264C81.7503 198.64 77.3608 203.902 76.0523 206.36C72.3723 215.456 65.2576 238.566 66.2389 258.234C67.4656 282.819 69.4283 284.048 68.9376 285.032C68.4469 286.015 67.4656 289.211 67.2202 295.357C67.024 300.274 69.7554 302.815 71.1456 303.47C71.7998 304.044 73.9915 305.044 77.5243 304.454C81.0571 303.864 81.7767 301.585 81.695 300.52C81.6132 299.045 81.4987 295.701 81.695 294.128C81.8912 292.555 82.7581 291.014 83.167 290.44L81.4497 287.244V279.623C80.9591 276.919 84.1484 253.317 84.6391 250.367C85.0316 248.007 88.4009 237.255 90.0364 232.174C92.5716 231.191 98.0404 226.765 98.6231 214.965Z" fill="#F8C195"/>
<path d="M153.23 215.482C151.783 209.307 155.616 203.127 161.792 201.68L162.743 201.457C168.919 200.01 175.098 203.843 176.546 210.018C177.993 216.194 174.16 222.373 167.984 223.821L167.033 224.044C160.857 225.491 154.678 221.658 153.23 215.482Z" fill="#4059BD"/>
<path d="M78.2451 297.072C78.2451 290.809 83.4405 285.731 89.8494 285.731H90.837C97.2458 285.731 102.441 290.809 102.441 297.072C102.441 303.336 97.2458 308.414 90.837 308.414H89.8493C83.4405 308.414 78.2451 303.336 78.2451 297.072Z" fill="#4059BD"/>
<path d="M117.564 297.631C116.448 293.204 115.779 297.139 115.556 297.877C115.556 301.321 113.845 314.185 114.862 314.746L114.862 314.746C115.308 314.992 115.754 315.238 115.977 315.976L116.423 315.238C116.869 311.302 117.385 301.764 117.564 297.631Z" fill="#1B2533" fill-opacity="0.51"/>
<path d="M80.1699 428.325C80.1699 421.899 85.3759 416.688 91.7978 416.688H152.844C159.266 416.688 164.472 421.899 164.472 428.325V477.783C164.472 484.21 159.266 489.42 152.844 489.42H91.7978C85.3759 489.42 80.1699 484.21 80.1699 477.783V428.325Z" fill="#202020"/>
<path d="M136.6 450.299L113.472 436.923C111.539 435.805 109.097 437.169 109.097 439.367V465.089C109.097 467.243 111.453 468.612 113.386 467.58L136.513 455.234C138.489 454.179 138.537 451.419 136.6 450.299Z" fill="#DB8854"/>
<path d="M167 20C167 8.9543 175.954 0 187 0H352C363.046 0 372 8.95431 372 20V132C372 143.046 363.046 152 352 152H187C175.954 152 167 143.046 167 132V20Z" fill="#171717"/>
<path d="M352 145V152H245.558C244.874 152 244.209 152.234 243.676 152.664L217.51 173.753C214.893 175.862 211 173.999 211 170.639V155C211 153.343 209.657 152 208 152H187V145H215C216.657 145 218 146.343 218 148V161.959C218 162.791 218.956 163.259 219.613 162.749L241.688 145.629C242.215 145.221 242.861 145 243.527 145H352ZM365 132V20C365 12.8203 359.18 7 352 7H187C179.82 7 174 12.8203 174 20V132C174 139.18 179.82 145 187 145V152C176.127 152 167.281 143.324 167.007 132.517L167 132V20C167 9.12703 175.676 0.280844 186.483 0.00683594L187 0H352L352.517 0.00683594C363.324 0.280847 372 9.12703 372 20V132C372 143.046 363.046 152 352 152V145C359.18 145 365 139.18 365 132Z" fill="white"/>
<path d="M211.232 39.752C211.083 39.752 210.944 39.7307 210.816 39.688C210.411 39.6027 210.123 39.3573 209.952 38.952C209.824 38.5893 209.856 38.184 210.048 37.736C210.261 37.288 210.539 36.7867 210.88 36.232C211.008 36.04 211.125 35.848 211.232 35.656C211.36 35.4427 211.467 35.2507 211.552 35.08C211.595 35.016 211.627 34.9627 211.648 34.92C211.669 34.856 211.691 34.8027 211.712 34.76C211.072 34.6533 210.325 34.632 209.472 34.696C208.64 34.7387 207.701 34.8987 206.656 35.176C205.739 35.4107 204.747 35.72 203.68 36.104C202.635 36.4667 201.525 36.904 200.352 37.416C200.117 37.5013 199.883 37.5013 199.648 37.416C199.413 37.3307 199.243 37.1707 199.136 36.936C199.008 36.7013 198.997 36.456 199.104 36.2C199.211 35.9227 199.381 35.7413 199.616 35.656C200.811 35.1227 201.952 34.664 203.04 34.28C204.149 33.8747 205.195 33.5547 206.176 33.32C208.8 32.6587 210.944 32.552 212.608 33C213.099 33.128 213.44 33.4267 213.632 33.896C213.824 34.3653 213.781 34.888 213.504 35.464C213.227 36.04 212.896 36.6373 212.512 37.256C212.491 37.2987 212.459 37.352 212.416 37.416C212.373 37.48 212.331 37.5547 212.288 37.64C212.779 37.5333 213.504 37.32 214.464 37C215.424 36.68 216.747 36.2107 218.432 35.592C218.667 35.5067 218.901 35.528 219.136 35.656C219.392 35.7627 219.563 35.944 219.648 36.2C219.755 36.4347 219.755 36.68 219.648 36.936C219.541 37.1707 219.349 37.3413 219.072 37.448C218.091 37.7893 217.195 38.0987 216.384 38.376C215.573 38.6533 214.848 38.888 214.208 39.08C213.355 39.336 212.704 39.5173 212.256 39.624C211.808 39.7093 211.467 39.752 211.232 39.752ZM226.14 40.072C225.884 40.072 225.67 39.9973 225.5 39.848C225.158 39.5707 225.062 39.2187 225.212 38.792C225.212 38.7707 225.286 38.5147 225.436 38.024C225.606 37.5333 225.798 36.9787 226.012 36.36C226.118 35.9973 226.214 35.688 226.3 35.432C226.385 35.1547 226.46 34.9093 226.524 34.696C225.948 34.9093 225.244 35.176 224.412 35.496C223.58 35.7947 222.705 36.1147 221.788 36.456C220.892 36.7973 220.017 37.128 219.164 37.448C218.929 37.5333 218.694 37.5227 218.46 37.416C218.204 37.288 218.022 37.096 217.916 36.84C217.83 36.6053 217.852 36.3707 217.98 36.136C218.086 35.88 218.268 35.6987 218.524 35.592C219.484 35.2507 220.476 34.8987 221.5 34.536C222.524 34.152 223.473 33.8 224.348 33.48C225.222 33.1387 225.937 32.8613 226.492 32.648C227.046 32.4347 227.324 32.328 227.324 32.328C227.43 32.3067 227.537 32.296 227.644 32.296C227.75 32.2747 227.846 32.2853 227.932 32.328C228.23 32.3707 228.444 32.5413 228.572 32.84C228.678 33.0107 228.721 33.2347 228.7 33.512C228.7 33.768 228.646 34.1413 228.54 34.632C228.476 34.9093 228.39 35.2187 228.284 35.56C228.198 35.88 228.081 36.2533 227.932 36.68C227.91 36.7653 227.889 36.84 227.868 36.904C227.846 36.968 227.825 37.0427 227.804 37.128C228.657 36.6587 229.702 36.168 230.94 35.656C231.174 35.5493 231.409 35.5493 231.644 35.656C231.9 35.7413 232.07 35.9013 232.156 36.136C232.284 36.3707 232.294 36.616 232.188 36.872C232.081 37.128 231.91 37.3093 231.676 37.416C230.716 37.8427 229.852 38.248 229.084 38.632C228.337 39.016 227.74 39.3253 227.292 39.56C226.844 39.7947 226.62 39.912 226.62 39.912C226.492 40.0187 226.332 40.072 226.14 40.072ZM233.841 41.896C233.692 41.896 233.543 41.8747 233.393 41.832C233.244 41.8107 233.095 41.7893 232.945 41.768C232.561 41.6613 232.295 41.4373 232.145 41.096C231.953 40.6693 231.953 40.1573 232.145 39.56C232.359 38.9413 232.7 38.152 233.169 37.192C233.255 37.0213 233.34 36.8293 233.425 36.616C233.532 36.4027 233.628 36.2 233.713 36.008C233.436 36.1147 233.137 36.296 232.817 36.552C232.519 36.7867 232.209 37.032 231.889 37.288C231.676 37.4373 231.441 37.5013 231.185 37.48C230.908 37.4373 230.684 37.32 230.513 37.128C230.364 36.9147 230.311 36.68 230.353 36.424C230.375 36.168 230.481 35.944 230.673 35.752C230.972 35.5387 231.281 35.304 231.601 35.048C231.943 34.792 232.284 34.5787 232.625 34.408C233.5 33.96 234.3 33.8427 235.025 34.056C235.367 34.12 235.623 34.3333 235.793 34.696C235.964 35.0373 235.953 35.464 235.761 35.976C235.591 36.488 235.292 37.1813 234.865 38.056C234.759 38.312 234.641 38.568 234.513 38.824C234.407 39.08 234.3 39.3253 234.193 39.56C234.172 39.6453 234.14 39.72 234.097 39.784C234.076 39.848 234.055 39.912 234.033 39.976C234.481 39.912 235.132 39.688 235.985 39.304C236.86 38.8987 238.033 38.1093 239.505 36.936C240.295 36.3173 241.009 35.72 241.649 35.144C242.289 34.5467 242.801 34.056 243.185 33.672C243.569 33.288 243.761 33.096 243.761 33.096C244.017 32.7973 244.327 32.7013 244.689 32.808C244.86 32.8293 244.999 32.904 245.105 33.032C245.212 33.1387 245.297 33.2453 245.361 33.352C245.511 33.6507 245.521 34.0027 245.393 34.408C245.287 34.792 245.052 35.4213 244.689 36.296C244.561 36.5733 244.433 36.8507 244.305 37.128C244.199 37.4053 244.092 37.6613 243.985 37.896C243.964 37.9813 243.943 38.056 243.921 38.12C243.921 38.1627 243.911 38.2053 243.889 38.248C244.295 38.184 244.721 38.0133 245.169 37.736C245.639 37.4373 246.087 37.1067 246.513 36.744C246.961 36.3813 247.335 36.072 247.633 35.816C247.847 35.624 248.081 35.5387 248.337 35.56C248.593 35.5813 248.817 35.688 249.009 35.88C249.18 36.0933 249.255 36.328 249.233 36.584C249.233 36.84 249.127 37.064 248.913 37.256C248.252 37.832 247.569 38.376 246.865 38.888C246.183 39.4 245.489 39.784 244.785 40.04C244.103 40.2747 243.409 40.3067 242.705 40.136C242.364 39.9867 242.119 39.7733 241.969 39.496C241.841 39.1973 241.799 38.8667 241.841 38.504C241.905 38.1413 242.033 37.6933 242.225 37.16C241.991 37.3733 241.745 37.576 241.489 37.768C241.255 37.96 240.999 38.1733 240.721 38.408C237.777 40.7333 235.484 41.896 233.841 41.896ZM255.609 40.072C255.353 40.072 255.139 39.9973 254.969 39.848C254.627 39.5707 254.531 39.2187 254.681 38.792C254.681 38.7707 254.755 38.5147 254.905 38.024C255.075 37.5333 255.267 36.9787 255.481 36.36C255.587 35.9973 255.683 35.688 255.769 35.432C255.854 35.1547 255.929 34.9093 255.993 34.696C255.417 34.9093 254.713 35.176 253.881 35.496C253.049 35.7947 252.174 36.1147 251.257 36.456C250.361 36.7973 249.486 37.128 248.633 37.448C248.398 37.5333 248.163 37.5227 247.928 37.416C247.672 37.288 247.491 37.096 247.384 36.84C247.299 36.6053 247.32 36.3707 247.448 36.136C247.555 35.88 247.736 35.6987 247.992 35.592C248.952 35.2507 249.945 34.8987 250.969 34.536C251.993 34.152 252.942 33.8 253.817 33.48C254.691 33.1387 255.406 32.8613 255.961 32.648C256.515 32.4347 256.793 32.328 256.793 32.328C256.899 32.3067 257.006 32.296 257.113 32.296C257.219 32.2747 257.315 32.2853 257.401 32.328C257.699 32.3707 257.913 32.5413 258.041 32.84C258.147 33.0107 258.19 33.2347 258.169 33.512C258.169 33.768 258.115 34.1413 258.009 34.632C257.945 34.9093 257.859 35.2187 257.753 35.56C257.667 35.88 257.55 36.2533 257.401 36.68C257.379 36.7653 257.358 36.84 257.337 36.904C257.315 36.968 257.294 37.0427 257.273 37.128C258.126 36.6587 259.171 36.168 260.409 35.656C260.643 35.5493 260.878 35.5493 261.113 35.656C261.369 35.7413 261.539 35.9013 261.625 36.136C261.753 36.3707 261.763 36.616 261.657 36.872C261.55 37.128 261.379 37.3093 261.145 37.416C260.185 37.8427 259.321 38.248 258.553 38.632C257.806 39.016 257.209 39.3253 256.76 39.56C256.313 39.7947 256.089 39.912 256.089 39.912C255.961 40.0187 255.801 40.072 255.609 40.072ZM264.782 41.96C264.675 41.96 264.569 41.9493 264.462 41.928C264.355 41.928 264.238 41.9173 264.11 41.896C263.854 41.8107 263.641 41.6293 263.47 41.352C263.385 41.1813 263.342 40.9467 263.342 40.648C263.342 40.3493 263.438 39.8587 263.63 39.176C263.822 38.4933 264.131 37.48 264.558 36.136C264.089 36.3067 263.545 36.5093 262.926 36.744C262.329 36.9787 261.71 37.2133 261.07 37.448C260.835 37.5333 260.601 37.5227 260.366 37.416C260.11 37.288 259.929 37.096 259.822 36.84C259.737 36.6053 259.758 36.3707 259.886 36.136C259.993 35.88 260.174 35.6987 260.43 35.592C261.347 35.2507 262.201 34.9307 262.99 34.632C263.801 34.3333 264.462 34.088 264.974 33.896C265.486 33.704 265.742 33.608 265.742 33.608C265.955 33.5227 266.158 33.512 266.35 33.576C266.627 33.64 266.83 33.8 266.958 34.056C267.065 34.248 267.097 34.4187 267.054 34.568C267.033 34.7173 267.001 34.8773 266.958 35.048C266.915 35.1333 266.883 35.2293 266.862 35.336C266.841 35.4213 266.809 35.528 266.766 35.656C266.617 36.0187 266.457 36.4667 266.286 37C266.137 37.512 265.977 38.0347 265.806 38.568C265.699 38.8667 265.614 39.1227 265.55 39.336C265.486 39.5493 265.433 39.7413 265.39 39.912C265.795 39.8267 266.382 39.5813 267.15 39.176C267.811 38.8133 268.515 38.3973 269.262 37.928C270.03 37.4373 270.809 36.9253 271.598 36.392C271.769 36.2853 271.939 36.1787 272.11 36.072C272.302 35.9653 272.473 35.848 272.622 35.72C272.857 35.5707 273.102 35.528 273.358 35.592C273.635 35.6347 273.849 35.7733 273.998 36.008C274.147 36.2213 274.19 36.456 274.126 36.712C274.083 36.968 273.945 37.1707 273.71 37.32C273.539 37.448 273.358 37.576 273.166 37.704C272.995 37.8107 272.814 37.928 272.622 38.056C271.811 38.5893 271.022 39.1013 270.254 39.592C269.486 40.0827 268.761 40.5093 268.078 40.872C266.691 41.5973 265.593 41.96 264.782 41.96ZM275.779 41.896C275.629 41.896 275.48 41.8747 275.331 41.832C275.181 41.8107 275.032 41.7893 274.883 41.768C274.499 41.6613 274.232 41.4373 274.083 41.096C273.891 40.6693 273.891 40.1573 274.083 39.56C274.296 38.9413 274.637 38.152 275.107 37.192C275.192 37.0213 275.277 36.8293 275.363 36.616C275.469 36.4027 275.565 36.2 275.651 36.008C275.373 36.1147 275.075 36.296 274.755 36.552C274.456 36.7867 274.147 37.032 273.827 37.288C273.613 37.4373 273.379 37.5013 273.123 37.48C272.845 37.4373 272.621 37.32 272.451 37.128C272.301 36.9147 272.248 36.68 272.291 36.424C272.312 36.168 272.419 35.944 272.611 35.752C272.909 35.5387 273.219 35.304 273.539 35.048C273.88 34.792 274.221 34.5787 274.563 34.408C275.437 33.96 276.237 33.8427 276.963 34.056C277.304 34.12 277.56 34.3333 277.731 34.696C277.901 35.0373 277.891 35.464 277.699 35.976C277.528 36.488 277.229 37.1813 276.803 38.056C276.696 38.312 276.579 38.568 276.451 38.824C276.344 39.08 276.237 39.3253 276.131 39.56C276.109 39.6453 276.077 39.72 276.035 39.784C276.013 39.848 275.992 39.912 275.971 39.976C276.419 39.912 277.069 39.688 277.923 39.304C278.797 38.8987 279.971 38.1093 281.443 36.936C282.232 36.3173 282.947 35.72 283.587 35.144C284.227 34.5467 284.739 34.056 285.123 33.672C285.507 33.288 285.699 33.096 285.699 33.096C285.955 32.7973 286.264 32.7013 286.627 32.808C286.797 32.8293 286.936 32.904 287.043 33.032C287.149 33.1387 287.235 33.2453 287.299 33.352C287.448 33.6507 287.459 34.0027 287.331 34.408C287.224 34.792 286.989 35.4213 286.627 36.296C286.499 36.5733 286.371 36.8507 286.243 37.128C286.136 37.4053 286.029 37.6613 285.923 37.896C285.901 37.9813 285.88 38.056 285.859 38.12C285.859 38.1627 285.848 38.2053 285.827 38.248C286.232 38.184 286.659 38.0133 287.107 37.736C287.576 37.4373 288.024 37.1067 288.451 36.744C288.899 36.3813 289.272 36.072 289.571 35.816C289.784 35.624 290.019 35.5387 290.275 35.56C290.531 35.5813 290.755 35.688 290.947 35.88C291.117 36.0933 291.192 36.328 291.171 36.584C291.171 36.84 291.064 37.064 290.851 37.256C290.189 37.832 289.507 38.376 288.803 38.888C288.12 39.4 287.427 39.784 286.723 40.04C286.04 40.2747 285.347 40.3067 284.643 40.136C284.301 39.9867 284.056 39.7733 283.907 39.496C283.779 39.1973 283.736 38.8667 283.779 38.504C283.843 38.1413 283.971 37.6933 284.163 37.16C283.928 37.3733 283.683 37.576 283.427 37.768C283.192 37.96 282.936 38.1733 282.659 38.408C279.715 40.7333 277.421 41.896 275.779 41.896ZM297.546 40.072C297.29 40.072 297.077 39.9973 296.906 39.848C296.565 39.5707 296.469 39.2187 296.618 38.792C296.618 38.7707 296.693 38.5147 296.842 38.024C297.013 37.5333 297.205 36.9787 297.418 36.36C297.525 35.9973 297.621 35.688 297.706 35.432C297.791 35.1547 297.866 34.9093 297.93 34.696C297.354 34.9093 296.65 35.176 295.818 35.496C294.986 35.7947 294.111 36.1147 293.194 36.456C292.298 36.7973 291.423 37.128 290.57 37.448C290.335 37.5333 290.101 37.5227 289.866 37.416C289.61 37.288 289.429 37.096 289.322 36.84C289.237 36.6053 289.258 36.3707 289.386 36.136C289.493 35.88 289.674 35.6987 289.93 35.592C290.89 35.2507 291.882 34.8987 292.906 34.536C293.93 34.152 294.879 33.8 295.754 33.48C296.629 33.1387 297.343 32.8613 297.898 32.648C298.453 32.4347 298.73 32.328 298.73 32.328C298.837 32.3067 298.943 32.296 299.05 32.296C299.157 32.2747 299.253 32.2853 299.338 32.328C299.637 32.3707 299.85 32.5413 299.978 32.84C300.085 33.0107 300.127 33.2347 300.106 33.512C300.106 33.768 300.053 34.1413 299.946 34.632C299.882 34.9093 299.797 35.2187 299.69 35.56C299.605 35.88 299.487 36.2533 299.338 36.68C299.317 36.7653 299.295 36.84 299.274 36.904C299.253 36.968 299.231 37.0427 299.21 37.128C300.063 36.6587 301.109 36.168 302.346 35.656C302.581 35.5493 302.815 35.5493 303.05 35.656C303.306 35.7413 303.477 35.9013 303.562 36.136C303.69 36.3707 303.701 36.616 303.594 36.872C303.487 37.128 303.317 37.3093 303.082 37.416C302.122 37.8427 301.258 38.248 300.49 38.632C299.743 39.016 299.146 39.3253 298.698 39.56C298.25 39.7947 298.026 39.912 298.026 39.912C297.898 40.0187 297.738 40.072 297.546 40.072ZM309.984 40.072C309.728 40.072 309.514 39.9973 309.344 39.848C309.002 39.5707 308.906 39.2187 309.056 38.792C309.056 38.7707 309.13 38.5147 309.28 38.024C309.45 37.5333 309.642 36.9787 309.856 36.36C309.962 35.9973 310.058 35.688 310.144 35.432C310.229 35.1547 310.304 34.9093 310.368 34.696C309.792 34.9093 309.088 35.176 308.256 35.496C307.424 35.7947 306.549 36.1147 305.632 36.456C304.736 36.7973 303.861 37.128 303.008 37.448C302.773 37.5333 302.538 37.5227 302.303 37.416C302.047 37.288 301.866 37.096 301.759 36.84C301.674 36.6053 301.695 36.3707 301.823 36.136C301.93 35.88 302.111 35.6987 302.367 35.592C303.327 35.2507 304.32 34.8987 305.344 34.536C306.368 34.152 307.317 33.8 308.192 33.48C309.066 33.1387 309.781 32.8613 310.336 32.648C310.89 32.4347 311.168 32.328 311.168 32.328C311.274 32.3067 311.381 32.296 311.488 32.296C311.594 32.2747 311.69 32.2853 311.776 32.328C312.074 32.3707 312.288 32.5413 312.416 32.84C312.522 33.0107 312.565 33.2347 312.544 33.512C312.544 33.768 312.49 34.1413 312.384 34.632C312.32 34.9093 312.234 35.2187 312.128 35.56C312.042 35.88 311.925 36.2533 311.776 36.68C311.754 36.7653 311.733 36.84 311.712 36.904C311.69 36.968 311.669 37.0427 311.648 37.128C312.501 36.6587 313.546 36.168 314.784 35.656C315.018 35.5493 315.253 35.5493 315.488 35.656C315.744 35.7413 315.914 35.9013 316 36.136C316.128 36.3707 316.138 36.616 316.032 36.872C315.925 37.128 315.754 37.3093 315.52 37.416C314.56 37.8427 313.696 38.248 312.928 38.632C312.181 39.016 311.584 39.3253 311.135 39.56C310.688 39.7947 310.464 39.912 310.464 39.912C310.336 40.0187 310.176 40.072 309.984 40.072Z" fill="white"/>
<path d="M211.232 78.752C211.083 78.752 210.944 78.7307 210.816 78.688C210.411 78.6027 210.123 78.3573 209.952 77.952C209.824 77.5893 209.856 77.184 210.048 76.736C210.261 76.288 210.539 75.7867 210.88 75.232C211.008 75.04 211.125 74.848 211.232 74.656C211.36 74.4427 211.467 74.2507 211.552 74.08C211.595 74.016 211.627 73.9627 211.648 73.92C211.669 73.856 211.691 73.8027 211.712 73.76C211.072 73.6533 210.325 73.632 209.472 73.696C208.64 73.7387 207.701 73.8987 206.656 74.176C205.739 74.4107 204.747 74.72 203.68 75.104C202.635 75.4667 201.525 75.904 200.352 76.416C200.117 76.5013 199.883 76.5013 199.648 76.416C199.413 76.3307 199.243 76.1707 199.136 75.936C199.008 75.7013 198.997 75.456 199.104 75.2C199.211 74.9227 199.381 74.7413 199.616 74.656C200.811 74.1227 201.952 73.664 203.04 73.28C204.149 72.8747 205.195 72.5547 206.176 72.32C208.8 71.6587 210.944 71.552 212.608 72C213.099 72.128 213.44 72.4267 213.632 72.896C213.824 73.3653 213.781 73.888 213.504 74.464C213.227 75.04 212.896 75.6373 212.512 76.256C212.491 76.2987 212.459 76.352 212.416 76.416C212.373 76.48 212.331 76.5547 212.288 76.64C212.779 76.5333 213.504 76.32 214.464 76C215.424 75.68 216.747 75.2107 218.432 74.592C218.667 74.5067 218.901 74.528 219.136 74.656C219.392 74.7627 219.563 74.944 219.648 75.2C219.755 75.4347 219.755 75.68 219.648 75.936C219.541 76.1707 219.349 76.3413 219.072 76.448C218.091 76.7893 217.195 77.0987 216.384 77.376C215.573 77.6533 214.848 77.888 214.208 78.08C213.355 78.336 212.704 78.5173 212.256 78.624C211.808 78.7093 211.467 78.752 211.232 78.752ZM226.14 79.072C225.884 79.072 225.67 78.9973 225.5 78.848C225.158 78.5707 225.062 78.2187 225.212 77.792C225.212 77.7707 225.286 77.5147 225.436 77.024C225.606 76.5333 225.798 75.9787 226.012 75.36C226.118 74.9973 226.214 74.688 226.3 74.432C226.385 74.1547 226.46 73.9093 226.524 73.696C225.948 73.9093 225.244 74.176 224.412 74.496C223.58 74.7947 222.705 75.1147 221.788 75.456C220.892 75.7973 220.017 76.128 219.164 76.448C218.929 76.5333 218.694 76.5227 218.46 76.416C218.204 76.288 218.022 76.096 217.916 75.84C217.83 75.6053 217.852 75.3707 217.98 75.136C218.086 74.88 218.268 74.6987 218.524 74.592C219.484 74.2507 220.476 73.8987 221.5 73.536C222.524 73.152 223.473 72.8 224.348 72.48C225.222 72.1387 225.937 71.8613 226.492 71.648C227.046 71.4347 227.324 71.328 227.324 71.328C227.43 71.3067 227.537 71.296 227.644 71.296C227.75 71.2747 227.846 71.2853 227.932 71.328C228.23 71.3707 228.444 71.5413 228.572 71.84C228.678 72.0107 228.721 72.2347 228.7 72.512C228.7 72.768 228.646 73.1413 228.54 73.632C228.476 73.9093 228.39 74.2187 228.284 74.56C228.198 74.88 228.081 75.2533 227.932 75.68C227.91 75.7653 227.889 75.84 227.868 75.904C227.846 75.968 227.825 76.0427 227.804 76.128C228.657 75.6587 229.702 75.168 230.94 74.656C231.174 74.5493 231.409 74.5493 231.644 74.656C231.9 74.7413 232.07 74.9013 232.156 75.136C232.284 75.3707 232.294 75.616 232.188 75.872C232.081 76.128 231.91 76.3093 231.676 76.416C230.716 76.8427 229.852 77.248 229.084 77.632C228.337 78.016 227.74 78.3253 227.292 78.56C226.844 78.7947 226.62 78.912 226.62 78.912C226.492 79.0187 226.332 79.072 226.14 79.072ZM258.076 78.752C257.926 78.752 257.788 78.7307 257.66 78.688C257.254 78.6027 256.966 78.3573 256.796 77.952C256.668 77.5893 256.7 77.184 256.892 76.736C257.105 76.288 257.382 75.7867 257.724 75.232C257.852 75.04 257.969 74.848 258.076 74.656C258.204 74.4427 258.31 74.2507 258.396 74.08C258.438 74.016 258.47 73.9627 258.492 73.92C258.513 73.856 258.534 73.8027 258.556 73.76C257.916 73.6533 257.169 73.632 256.316 73.696C255.484 73.7387 254.545 73.8987 253.5 74.176C252.582 74.4107 251.59 74.72 250.524 75.104C249.478 75.4667 248.369 75.904 247.196 76.416C246.961 76.5013 246.726 76.5013 246.492 76.416C246.257 76.3307 246.086 76.1707 245.98 75.936C245.852 75.7013 245.841 75.456 245.948 75.2C246.054 74.9227 246.225 74.7413 246.46 74.656C247.654 74.1227 248.796 73.664 249.884 73.28C250.993 72.8747 252.038 72.5547 253.02 72.32C255.644 71.6587 257.788 71.552 259.452 72C259.942 72.128 260.284 72.4267 260.476 72.896C260.668 73.3653 260.625 73.888 260.348 74.464C260.07 75.04 259.74 75.6373 259.356 76.256C259.334 76.2987 259.302 76.352 259.26 76.416C259.217 76.48 259.174 76.5547 259.132 76.64C259.622 76.5333 260.348 76.32 261.308 76C262.268 75.68 263.59 75.2107 265.276 74.592C265.51 74.5067 265.745 74.528 265.98 74.656C266.236 74.7627 266.406 74.944 266.492 75.2C266.598 75.4347 266.598 75.68 266.492 75.936C266.385 76.1707 266.193 76.3413 265.916 76.448C264.934 76.7893 264.038 77.0987 263.228 77.376C262.417 77.6533 261.692 77.888 261.052 78.08C260.198 78.336 259.548 78.5173 259.1 78.624C258.652 78.7093 258.31 78.752 258.076 78.752ZM269.944 78.112C269.837 78.112 269.752 78.1013 269.688 78.08C269.346 77.9947 269.101 77.8667 268.952 77.696C268.824 77.504 268.738 77.3547 268.696 77.248C268.546 76.7787 268.6 76.2987 268.856 75.808C269.112 75.296 269.442 74.7627 269.848 74.208C269.976 74.0373 270.093 73.856 270.2 73.664C270.328 73.4507 270.434 73.2693 270.52 73.12C270.541 73.0987 270.573 73.056 270.616 72.992C270.488 73.0347 270.328 73.0987 270.136 73.184C269.965 73.2693 269.762 73.3973 269.528 73.568C269.144 73.8027 268.738 74.112 268.312 74.496C267.885 74.8587 267.448 75.2427 267 75.648C266.893 75.7333 266.776 75.8293 266.648 75.936C266.541 76.0427 266.434 76.1493 266.328 76.256C266.136 76.4267 265.912 76.512 265.655 76.512C265.378 76.4907 265.154 76.3733 264.983 76.16C264.791 75.968 264.706 75.744 264.727 75.488C264.749 75.2107 264.855 74.9867 265.047 74.816C265.154 74.7093 265.271 74.6027 265.399 74.496C265.506 74.3893 265.613 74.2933 265.72 74.208C266.402 73.5893 267.074 73.024 267.736 72.512C268.397 71.9787 269.048 71.5733 269.688 71.296C270.328 71.0187 270.946 70.9653 271.544 71.136C271.906 71.2213 272.162 71.3707 272.312 71.584C272.482 71.776 272.578 71.9467 272.6 72.096C272.792 72.5653 272.749 73.0667 272.472 73.6C272.194 74.112 271.842 74.6773 271.416 75.296C271.373 75.3387 271.32 75.4133 271.256 75.52C271.213 75.6053 271.16 75.6907 271.096 75.776C271.416 75.648 271.832 75.488 272.344 75.296C272.856 75.104 273.474 74.8693 274.2 74.592C274.477 74.5067 274.733 74.528 274.968 74.656C275.202 74.7627 275.362 74.944 275.448 75.2C275.554 75.4347 275.544 75.68 275.416 75.936C275.309 76.1707 275.138 76.3413 274.904 76.448C274.221 76.6827 273.602 76.896 273.048 77.088C272.493 77.28 272.024 77.4507 271.64 77.6C271.426 77.6853 271.234 77.76 271.064 77.824C270.914 77.8667 270.776 77.9093 270.648 77.952C270.498 77.9947 270.37 78.0373 270.264 78.08C270.157 78.1013 270.05 78.112 269.944 78.112ZM285.732 78.752C285.583 78.752 285.444 78.7307 285.316 78.688C284.911 78.6027 284.623 78.3573 284.452 77.952C284.324 77.5893 284.356 77.184 284.548 76.736C284.761 76.288 285.039 75.7867 285.38 75.232C285.508 75.04 285.625 74.848 285.732 74.656C285.86 74.4427 285.967 74.2507 286.052 74.08C286.095 74.016 286.127 73.9627 286.148 73.92C286.169 73.856 286.191 73.8027 286.212 73.76C285.572 73.6533 284.825 73.632 283.972 73.696C283.14 73.7387 282.201 73.8987 281.156 74.176C280.239 74.4107 279.247 74.72 278.18 75.104C277.135 75.4667 276.025 75.904 274.852 76.416C274.617 76.5013 274.383 76.5013 274.148 76.416C273.913 76.3307 273.743 76.1707 273.636 75.936C273.508 75.7013 273.497 75.456 273.604 75.2C273.711 74.9227 273.881 74.7413 274.116 74.656C275.311 74.1227 276.452 73.664 277.54 73.28C278.649 72.8747 279.695 72.5547 280.676 72.32C283.3 71.6587 285.444 71.552 287.108 72C287.599 72.128 287.94 72.4267 288.132 72.896C288.324 73.3653 288.281 73.888 288.004 74.464C287.727 75.04 287.396 75.6373 287.012 76.256C286.991 76.2987 286.959 76.352 286.916 76.416C286.873 76.48 286.831 76.5547 286.788 76.64C287.279 76.5333 288.004 76.32 288.964 76C289.924 75.68 291.247 75.2107 292.932 74.592C293.167 74.5067 293.401 74.528 293.636 74.656C293.892 74.7627 294.063 74.944 294.148 75.2C294.255 75.4347 294.255 75.68 294.148 75.936C294.041 76.1707 293.849 76.3413 293.572 76.448C292.591 76.7893 291.695 77.0987 290.884 77.376C290.073 77.6533 289.348 77.888 288.708 78.08C287.855 78.336 287.204 78.5173 286.756 78.624C286.308 78.7093 285.967 78.752 285.732 78.752ZM295.904 80.896C295.754 80.896 295.605 80.8747 295.456 80.832C295.306 80.8107 295.157 80.7893 295.008 80.768C294.624 80.6613 294.357 80.4373 294.208 80.096C294.016 79.6693 294.016 79.1573 294.208 78.56C294.421 77.9413 294.762 77.152 295.232 76.192C295.317 76.0213 295.402 75.8293 295.488 75.616C295.594 75.4027 295.69 75.2 295.776 75.008C295.498 75.1147 295.2 75.296 294.88 75.552C294.581 75.7867 294.272 76.032 293.952 76.288C293.738 76.4373 293.504 76.5013 293.248 76.48C292.97 76.4373 292.746 76.32 292.576 76.128C292.426 75.9147 292.373 75.68 292.416 75.424C292.437 75.168 292.544 74.944 292.736 74.752C293.034 74.5387 293.344 74.304 293.664 74.048C294.005 73.792 294.346 73.5787 294.688 73.408C295.562 72.96 296.362 72.8427 297.088 73.056C297.429 73.12 297.685 73.3333 297.856 73.696C298.026 74.0373 298.016 74.464 297.824 74.976C297.653 75.488 297.354 76.1813 296.928 77.056C296.821 77.312 296.704 77.568 296.576 77.824C296.469 78.08 296.362 78.3253 296.256 78.56C296.234 78.6453 296.202 78.72 296.16 78.784C296.138 78.848 296.117 78.912 296.096 78.976C296.544 78.912 297.194 78.688 298.048 78.304C298.922 77.8987 300.096 77.1093 301.568 75.936C302.357 75.3173 303.072 74.72 303.712 74.144C304.352 73.5467 304.864 73.056 305.248 72.672C305.632 72.288 305.824 72.096 305.824 72.096C306.08 71.7973 306.389 71.7013 306.752 71.808C306.922 71.8293 307.061 71.904 307.168 72.032C307.274 72.1387 307.36 72.2453 307.424 72.352C307.573 72.6507 307.584 73.0027 307.456 73.408C307.349 73.792 307.114 74.4213 306.752 75.296C306.624 75.5733 306.496 75.8507 306.368 76.128C306.261 76.4053 306.154 76.6613 306.048 76.896C306.026 76.9813 306.005 77.056 305.984 77.12C305.984 77.1627 305.973 77.2053 305.952 77.248C306.357 77.184 306.784 77.0133 307.232 76.736C307.701 76.4373 308.149 76.1067 308.576 75.744C309.024 75.3813 309.397 75.072 309.696 74.816C309.909 74.624 310.144 74.5387 310.4 74.56C310.656 74.5813 310.88 74.688 311.072 74.88C311.242 75.0933 311.317 75.328 311.296 75.584C311.296 75.84 311.189 76.064 310.976 76.256C310.314 76.832 309.632 77.376 308.928 77.888C308.245 78.4 307.552 78.784 306.848 79.04C306.165 79.2747 305.472 79.3067 304.768 79.136C304.426 78.9867 304.181 78.7733 304.032 78.496C303.904 78.1973 303.861 77.8667 303.904 77.504C303.968 77.1413 304.096 76.6933 304.288 76.16C304.053 76.3733 303.808 76.576 303.552 76.768C303.317 76.96 303.061 77.1733 302.784 77.408C299.84 79.7333 297.546 80.896 295.904 80.896ZM321.607 78.752C321.458 78.752 321.319 78.7307 321.191 78.688C320.786 78.6027 320.498 78.3573 320.327 77.952C320.199 77.5893 320.231 77.184 320.423 76.736C320.636 76.288 320.914 75.7867 321.255 75.232C321.383 75.04 321.5 74.848 321.607 74.656C321.735 74.4427 321.842 74.2507 321.927 74.08C321.97 74.016 322.002 73.9627 322.023 73.92C322.044 73.856 322.066 73.8027 322.087 73.76C321.447 73.6533 320.7 73.632 319.847 73.696C319.015 73.7387 318.076 73.8987 317.031 74.176C316.114 74.4107 315.122 74.72 314.055 75.104C313.01 75.4667 311.9 75.904 310.727 76.416C310.492 76.5013 310.258 76.5013 310.023 76.416C309.788 76.3307 309.618 76.1707 309.511 75.936C309.383 75.7013 309.372 75.456 309.479 75.2C309.586 74.9227 309.756 74.7413 309.991 74.656C311.186 74.1227 312.327 73.664 313.415 73.28C314.524 72.8747 315.57 72.5547 316.551 72.32C319.175 71.6587 321.319 71.552 322.983 72C323.474 72.128 323.815 72.4267 324.007 72.896C324.199 73.3653 324.156 73.888 323.879 74.464C323.602 75.04 323.271 75.6373 322.887 76.256C322.866 76.2987 322.834 76.352 322.791 76.416C322.748 76.48 322.706 76.5547 322.663 76.64C323.154 76.5333 323.879 76.32 324.839 76C325.799 75.68 327.122 75.2107 328.807 74.592C329.042 74.5067 329.276 74.528 329.511 74.656C329.767 74.7627 329.938 74.944 330.023 75.2C330.13 75.4347 330.13 75.68 330.023 75.936C329.916 76.1707 329.724 76.3413 329.447 76.448C328.466 76.7893 327.57 77.0987 326.759 77.376C325.948 77.6533 325.223 77.888 324.583 78.08C323.73 78.336 323.079 78.5173 322.631 78.624C322.183 78.7093 321.842 78.752 321.607 78.752Z" fill="white"/>
<path d="M202.56 119.896C202.411 119.896 202.261 119.875 202.112 119.832C201.963 119.811 201.813 119.789 201.664 119.768C201.28 119.661 201.013 119.437 200.864 119.096C200.672 118.669 200.672 118.157 200.864 117.56C201.077 116.941 201.419 116.152 201.888 115.192C201.973 115.021 202.059 114.829 202.144 114.616C202.251 114.403 202.347 114.2 202.432 114.008C202.155 114.115 201.856 114.296 201.536 114.552C201.237 114.787 200.928 115.032 200.608 115.288C200.395 115.437 200.16 115.501 199.904 115.48C199.627 115.437 199.403 115.32 199.232 115.128C199.083 114.915 199.029 114.68 199.072 114.424C199.093 114.168 199.2 113.944 199.392 113.752C199.691 113.539 200 113.304 200.32 113.048C200.661 112.792 201.003 112.579 201.344 112.408C202.219 111.96 203.019 111.843 203.744 112.056C204.085 112.12 204.341 112.333 204.512 112.696C204.683 113.037 204.672 113.464 204.48 113.976C204.309 114.488 204.011 115.181 203.584 116.056C203.477 116.312 203.36 116.568 203.232 116.824C203.125 117.08 203.019 117.325 202.912 117.56C202.891 117.645 202.859 117.72 202.816 117.784C202.795 117.848 202.773 117.912 202.752 117.976C203.2 117.912 203.851 117.688 204.704 117.304C205.579 116.899 206.752 116.109 208.224 114.936C209.013 114.317 209.728 113.72 210.368 113.144C211.008 112.547 211.52 112.056 211.904 111.672C212.288 111.288 212.48 111.096 212.48 111.096C212.736 110.797 213.045 110.701 213.408 110.808C213.579 110.829 213.717 110.904 213.824 111.032C213.931 111.139 214.016 111.245 214.08 111.352C214.229 111.651 214.24 112.003 214.112 112.408C214.005 112.792 213.771 113.421 213.408 114.296C213.28 114.573 213.152 114.851 213.024 115.128C212.917 115.405 212.811 115.661 212.704 115.896C212.683 115.981 212.661 116.056 212.64 116.12C212.64 116.163 212.629 116.205 212.608 116.248C213.013 116.184 213.44 116.013 213.888 115.736C214.357 115.437 214.805 115.107 215.232 114.744C215.68 114.381 216.053 114.072 216.352 113.816C216.565 113.624 216.8 113.539 217.056 113.56C217.312 113.581 217.536 113.688 217.728 113.88C217.899 114.093 217.973 114.328 217.952 114.584C217.952 114.84 217.845 115.064 217.632 115.256C216.971 115.832 216.288 116.376 215.584 116.888C214.901 117.4 214.208 117.784 213.504 118.04C212.821 118.275 212.128 118.307 211.424 118.136C211.083 117.987 210.837 117.773 210.688 117.496C210.56 117.197 210.517 116.867 210.56 116.504C210.624 116.141 210.752 115.693 210.944 115.16C210.709 115.373 210.464 115.576 210.208 115.768C209.973 115.96 209.717 116.173 209.44 116.408C206.496 118.733 204.203 119.896 202.56 119.896ZM219.591 119.896C219.442 119.896 219.293 119.875 219.143 119.832C218.994 119.811 218.845 119.789 218.695 119.768C218.311 119.661 218.045 119.437 217.895 119.096C217.703 118.669 217.703 118.157 217.895 117.56C218.109 116.941 218.45 116.152 218.919 115.192C219.005 115.021 219.09 114.829 219.175 114.616C219.282 114.403 219.378 114.2 219.463 114.008C219.186 114.115 218.887 114.296 218.567 114.552C218.269 114.787 217.959 115.032 217.639 115.288C217.426 115.437 217.191 115.501 216.935 115.48C216.658 115.437 216.434 115.32 216.263 115.128C216.114 114.915 216.061 114.68 216.103 114.424C216.125 114.168 216.231 113.944 216.423 113.752C216.722 113.539 217.031 113.304 217.351 113.048C217.693 112.792 218.034 112.579 218.375 112.408C219.25 111.96 220.05 111.843 220.775 112.056C221.117 112.12 221.373 112.333 221.543 112.696C221.714 113.037 221.703 113.464 221.511 113.976C221.341 114.488 221.042 115.181 220.615 116.056C220.509 116.312 220.391 116.568 220.263 116.824C220.157 117.08 220.05 117.325 219.943 117.56C219.922 117.645 219.89 117.72 219.847 117.784C219.826 117.848 219.805 117.912 219.783 117.976C220.231 117.912 220.882 117.688 221.735 117.304C222.61 116.899 223.783 116.109 225.255 114.936C226.045 114.317 226.759 113.72 227.399 113.144C228.039 112.547 228.551 112.056 228.935 111.672C229.319 111.288 229.511 111.096 229.511 111.096C229.767 110.797 230.077 110.701 230.439 110.808C230.61 110.829 230.749 110.904 230.855 111.032C230.962 111.139 231.047 111.245 231.111 111.352C231.261 111.651 231.271 112.003 231.143 112.408C231.037 112.792 230.802 113.421 230.439 114.296C230.311 114.573 230.183 114.851 230.055 115.128C229.949 115.405 229.842 115.661 229.735 115.896C229.714 115.981 229.693 116.056 229.671 116.12C229.671 116.163 229.661 116.205 229.639 116.248C230.045 116.184 230.471 116.013 230.919 115.736C231.389 115.437 231.837 115.107 232.263 114.744C232.711 114.381 233.085 114.072 233.383 113.816C233.597 113.624 233.831 113.539 234.087 113.56C234.343 113.581 234.567 113.688 234.759 113.88C234.93 114.093 235.005 114.328 234.983 114.584C234.983 114.84 234.877 115.064 234.663 115.256C234.002 115.832 233.319 116.376 232.615 116.888C231.933 117.4 231.239 117.784 230.535 118.04C229.853 118.275 229.159 118.307 228.455 118.136C228.114 117.987 227.869 117.773 227.719 117.496C227.591 117.197 227.549 116.867 227.591 116.504C227.655 116.141 227.783 115.693 227.975 115.16C227.741 115.373 227.495 115.576 227.239 115.768C227.005 115.96 226.749 116.173 226.471 116.408C223.527 118.733 221.234 119.896 219.591 119.896ZM236.623 119.896C236.473 119.896 236.324 119.875 236.174 119.832C236.025 119.811 235.876 119.789 235.727 119.768C235.343 119.661 235.076 119.437 234.927 119.096C234.735 118.669 234.735 118.157 234.927 117.56C235.14 116.941 235.481 116.152 235.951 115.192C236.036 115.021 236.121 114.829 236.207 114.616C236.313 114.403 236.409 114.2 236.495 114.008C236.217 114.115 235.919 114.296 235.599 114.552C235.3 114.787 234.991 115.032 234.671 115.288C234.457 115.437 234.223 115.501 233.966 115.48C233.689 115.437 233.465 115.32 233.294 115.128C233.145 114.915 233.092 114.68 233.134 114.424C233.156 114.168 233.262 113.944 233.454 113.752C233.753 113.539 234.062 113.304 234.383 113.048C234.724 112.792 235.065 112.579 235.407 112.408C236.281 111.96 237.081 111.843 237.807 112.056C238.148 112.12 238.404 112.333 238.575 112.696C238.745 113.037 238.735 113.464 238.543 113.976C238.372 114.488 238.073 115.181 237.647 116.056C237.54 116.312 237.423 116.568 237.295 116.824C237.188 117.08 237.081 117.325 236.975 117.56C236.953 117.645 236.921 117.72 236.879 117.784C236.857 117.848 236.836 117.912 236.815 117.976C237.263 117.912 237.913 117.688 238.766 117.304C239.641 116.899 240.815 116.109 242.286 114.936C243.076 114.317 243.791 113.72 244.431 113.144C245.071 112.547 245.583 112.056 245.967 111.672C246.351 111.288 246.543 111.096 246.543 111.096C246.799 110.797 247.108 110.701 247.471 110.808C247.641 110.829 247.78 110.904 247.887 111.032C247.993 111.139 248.079 111.245 248.143 111.352C248.292 111.651 248.303 112.003 248.175 112.408C248.068 112.792 247.833 113.421 247.471 114.296C247.343 114.573 247.215 114.851 247.087 115.128C246.98 115.405 246.873 115.661 246.767 115.896C246.745 115.981 246.724 116.056 246.703 116.12C246.703 116.163 246.692 116.205 246.671 116.248C247.076 116.184 247.503 116.013 247.951 115.736C248.42 115.437 248.868 115.107 249.295 114.744C249.743 114.381 250.116 114.072 250.415 113.816C250.628 113.624 250.863 113.539 251.119 113.56C251.375 113.581 251.599 113.688 251.791 113.88C251.961 114.093 252.036 114.328 252.015 114.584C252.015 114.84 251.908 115.064 251.694 115.256C251.033 115.832 250.351 116.376 249.647 116.888C248.964 117.4 248.271 117.784 247.567 118.04C246.884 118.275 246.191 118.307 245.487 118.136C245.145 117.987 244.9 117.773 244.751 117.496C244.623 117.197 244.58 116.867 244.623 116.504C244.687 116.141 244.815 115.693 245.007 115.16C244.772 115.373 244.527 115.576 244.271 115.768C244.036 115.96 243.78 116.173 243.503 116.408C240.559 118.733 238.265 119.896 236.623 119.896ZM258.39 118.072C258.134 118.072 257.92 117.997 257.75 117.848C257.408 117.571 257.312 117.219 257.462 116.792C257.462 116.771 257.536 116.515 257.686 116.024C257.856 115.533 258.048 114.979 258.262 114.36C258.368 113.997 258.464 113.688 258.55 113.432C258.635 113.155 258.71 112.909 258.774 112.696C258.198 112.909 257.494 113.176 256.662 113.496C255.83 113.795 254.955 114.115 254.038 114.456C253.142 114.797 252.267 115.128 251.414 115.448C251.179 115.533 250.944 115.523 250.71 115.416C250.454 115.288 250.272 115.096 250.166 114.84C250.08 114.605 250.102 114.371 250.23 114.136C250.336 113.88 250.518 113.699 250.774 113.592C251.734 113.251 252.726 112.899 253.75 112.536C254.774 112.152 255.723 111.8 256.598 111.48C257.472 111.139 258.187 110.861 258.742 110.648C259.296 110.435 259.574 110.328 259.574 110.328C259.68 110.307 259.787 110.296 259.894 110.296C260 110.275 260.096 110.285 260.182 110.328C260.48 110.371 260.694 110.541 260.822 110.84C260.928 111.011 260.971 111.235 260.95 111.512C260.95 111.768 260.896 112.141 260.79 112.632C260.726 112.909 260.64 113.219 260.534 113.56C260.448 113.88 260.331 114.253 260.182 114.68C260.16 114.765 260.139 114.84 260.118 114.904C260.096 114.968 260.075 115.043 260.054 115.128C260.907 114.659 261.952 114.168 263.19 113.656C263.424 113.549 263.659 113.549 263.894 113.656C264.15 113.741 264.32 113.901 264.406 114.136C264.534 114.371 264.544 114.616 264.438 114.872C264.331 115.128 264.16 115.309 263.926 115.416C262.966 115.843 262.102 116.248 261.334 116.632C260.587 117.016 259.99 117.325 259.542 117.56C259.094 117.795 258.87 117.912 258.87 117.912C258.742 118.019 258.582 118.072 258.39 118.072ZM283.35 117.112C283.243 117.112 283.158 117.101 283.094 117.08C282.752 116.995 282.507 116.867 282.358 116.696C282.23 116.504 282.144 116.355 282.102 116.248C281.952 115.779 282.006 115.299 282.262 114.808C282.518 114.296 282.848 113.763 283.254 113.208C283.382 113.037 283.499 112.856 283.606 112.664C283.734 112.451 283.84 112.269 283.926 112.12C283.947 112.099 283.979 112.056 284.022 111.992C283.894 112.035 283.734 112.099 283.542 112.184C283.371 112.269 283.168 112.397 282.934 112.568C282.55 112.803 282.144 113.112 281.718 113.496C281.291 113.859 280.854 114.243 280.406 114.648C280.299 114.733 280.182 114.829 280.054 114.936C279.947 115.043 279.84 115.149 279.734 115.256C279.542 115.427 279.318 115.512 279.062 115.512C278.784 115.491 278.56 115.373 278.39 115.16C278.198 114.968 278.112 114.744 278.134 114.488C278.155 114.211 278.262 113.987 278.454 113.816C278.56 113.709 278.678 113.603 278.806 113.496C278.912 113.389 279.019 113.293 279.126 113.208C279.808 112.589 280.48 112.024 281.142 111.512C281.803 110.979 282.454 110.573 283.094 110.296C283.734 110.019 284.352 109.965 284.95 110.136C285.312 110.221 285.568 110.371 285.718 110.584C285.888 110.776 285.984 110.947 286.006 111.096C286.198 111.565 286.155 112.067 285.878 112.6C285.6 113.112 285.248 113.677 284.822 114.296C284.779 114.339 284.726 114.413 284.662 114.52C284.619 114.605 284.566 114.691 284.502 114.776C284.822 114.648 285.238 114.488 285.75 114.296C286.262 114.104 286.88 113.869 287.606 113.592C287.883 113.507 288.139 113.528 288.374 113.656C288.608 113.763 288.768 113.944 288.854 114.2C288.96 114.435 288.95 114.68 288.822 114.936C288.715 115.171 288.544 115.341 288.31 115.448C287.627 115.683 287.008 115.896 286.454 116.088C285.899 116.28 285.43 116.451 285.046 116.6C284.832 116.685 284.64 116.76 284.47 116.824C284.32 116.867 284.182 116.909 284.054 116.952C283.904 116.995 283.776 117.037 283.67 117.08C283.563 117.101 283.456 117.112 283.35 117.112ZM290.466 119.896C290.317 119.896 290.168 119.875 290.018 119.832C289.869 119.811 289.72 119.789 289.57 119.768C289.186 119.661 288.92 119.437 288.77 119.096C288.578 118.669 288.578 118.157 288.77 117.56C288.984 116.941 289.325 116.152 289.794 115.192C289.88 115.021 289.965 114.829 290.05 114.616C290.157 114.403 290.253 114.2 290.338 114.008C290.061 114.115 289.762 114.296 289.442 114.552C289.144 114.787 288.834 115.032 288.514 115.288C288.301 115.437 288.066 115.501 287.81 115.48C287.533 115.437 287.309 115.32 287.138 115.128C286.989 114.915 286.936 114.68 286.978 114.424C287 114.168 287.106 113.944 287.298 113.752C287.597 113.539 287.906 113.304 288.226 113.048C288.568 112.792 288.909 112.579 289.25 112.408C290.125 111.96 290.925 111.843 291.65 112.056C291.992 112.12 292.248 112.333 292.418 112.696C292.589 113.037 292.578 113.464 292.386 113.976C292.216 114.488 291.917 115.181 291.49 116.056C291.384 116.312 291.266 116.568 291.138 116.824C291.032 117.08 290.925 117.325 290.818 117.56C290.797 117.645 290.765 117.72 290.722 117.784C290.701 117.848 290.68 117.912 290.658 117.976C291.106 117.912 291.757 117.688 292.61 117.304C293.485 116.899 294.658 116.109 296.13 114.936C296.92 114.317 297.634 113.72 298.274 113.144C298.914 112.547 299.426 112.056 299.81 111.672C300.194 111.288 300.386 111.096 300.386 111.096C300.642 110.797 300.952 110.701 301.314 110.808C301.485 110.829 301.624 110.904 301.73 111.032C301.837 111.139 301.922 111.245 301.986 111.352C302.136 111.651 302.146 112.003 302.018 112.408C301.912 112.792 301.677 113.421 301.314 114.296C301.186 114.573 301.058 114.851 300.93 115.128C300.824 115.405 300.717 115.661 300.61 115.896C300.589 115.981 300.568 116.056 300.546 116.12C300.546 116.163 300.536 116.205 300.514 116.248C300.92 116.184 301.346 116.013 301.794 115.736C302.264 115.437 302.712 115.107 303.138 114.744C303.586 114.381 303.96 114.072 304.258 113.816C304.472 113.624 304.706 113.539 304.962 113.56C305.218 113.581 305.442 113.688 305.634 113.88C305.805 114.093 305.88 114.328 305.858 114.584C305.858 114.84 305.752 115.064 305.538 115.256C304.877 115.832 304.194 116.376 303.49 116.888C302.808 117.4 302.114 117.784 301.41 118.04C300.728 118.275 300.034 118.307 299.33 118.136C298.989 117.987 298.744 117.773 298.594 117.496C298.466 117.197 298.424 116.867 298.466 116.504C298.53 116.141 298.658 115.693 298.85 115.16C298.616 115.373 298.37 115.576 298.114 115.768C297.88 115.96 297.624 116.173 297.346 116.408C294.402 118.733 292.109 119.896 290.466 119.896ZM316.17 117.752C316.02 117.752 315.882 117.731 315.754 117.688C315.348 117.603 315.06 117.357 314.89 116.952C314.762 116.589 314.794 116.184 314.986 115.736C315.199 115.288 315.476 114.787 315.818 114.232C315.946 114.04 316.063 113.848 316.17 113.656C316.298 113.443 316.404 113.251 316.49 113.08C316.532 113.016 316.564 112.963 316.586 112.92C316.607 112.856 316.628 112.803 316.65 112.76C316.01 112.653 315.263 112.632 314.41 112.696C313.578 112.739 312.639 112.899 311.594 113.176C310.676 113.411 309.684 113.72 308.618 114.104C307.572 114.467 306.463 114.904 305.29 115.416C305.055 115.501 304.82 115.501 304.585 115.416C304.351 115.331 304.18 115.171 304.073 114.936C303.945 114.701 303.935 114.456 304.041 114.2C304.148 113.923 304.319 113.741 304.553 113.656C305.748 113.123 306.89 112.664 307.978 112.28C309.087 111.875 310.132 111.555 311.114 111.32C313.738 110.659 315.882 110.552 317.546 111C318.036 111.128 318.378 111.427 318.57 111.896C318.762 112.365 318.719 112.888 318.442 113.464C318.164 114.04 317.834 114.637 317.45 115.256C317.428 115.299 317.396 115.352 317.354 115.416C317.311 115.48 317.268 115.555 317.226 115.64C317.716 115.533 318.442 115.32 319.402 115C320.362 114.68 321.684 114.211 323.37 113.592C323.604 113.507 323.839 113.528 324.074 113.656C324.33 113.763 324.5 113.944 324.586 114.2C324.692 114.435 324.692 114.68 324.586 114.936C324.479 115.171 324.287 115.341 324.01 115.448C323.028 115.789 322.132 116.099 321.322 116.376C320.511 116.653 319.786 116.888 319.146 117.08C318.292 117.336 317.642 117.517 317.194 117.624C316.746 117.709 316.404 117.752 316.17 117.752ZM326.341 119.896C326.192 119.896 326.043 119.875 325.893 119.832C325.744 119.811 325.595 119.789 325.445 119.768C325.061 119.661 324.795 119.437 324.645 119.096C324.453 118.669 324.453 118.157 324.645 117.56C324.859 116.941 325.2 116.152 325.669 115.192C325.755 115.021 325.84 114.829 325.925 114.616C326.032 114.403 326.128 114.2 326.213 114.008C325.936 114.115 325.637 114.296 325.317 114.552C325.019 114.787 324.709 115.032 324.389 115.288C324.176 115.437 323.941 115.501 323.685 115.48C323.408 115.437 323.184 115.32 323.013 115.128C322.864 114.915 322.811 114.68 322.853 114.424C322.875 114.168 322.981 113.944 323.173 113.752C323.472 113.539 323.781 113.304 324.101 113.048C324.443 112.792 324.784 112.579 325.125 112.408C326 111.96 326.8 111.843 327.525 112.056C327.867 112.12 328.123 112.333 328.293 112.696C328.464 113.037 328.453 113.464 328.261 113.976C328.091 114.488 327.792 115.181 327.365 116.056C327.259 116.312 327.141 116.568 327.013 116.824C326.907 117.08 326.8 117.325 326.693 117.56C326.672 117.645 326.64 117.72 326.597 117.784C326.576 117.848 326.555 117.912 326.533 117.976C326.981 117.912 327.632 117.688 328.485 117.304C329.36 116.899 330.533 116.109 332.005 114.936C332.795 114.317 333.509 113.72 334.149 113.144C334.789 112.547 335.301 112.056 335.685 111.672C336.069 111.288 336.261 111.096 336.261 111.096C336.517 110.797 336.827 110.701 337.189 110.808C337.36 110.829 337.499 110.904 337.605 111.032C337.712 111.139 337.797 111.245 337.861 111.352C338.011 111.651 338.021 112.003 337.893 112.408C337.787 112.792 337.552 113.421 337.189 114.296C337.061 114.573 336.933 114.851 336.805 115.128C336.699 115.405 336.592 115.661 336.485 115.896C336.464 115.981 336.443 116.056 336.421 116.12C336.421 116.163 336.411 116.205 336.389 116.248C336.795 116.184 337.221 116.013 337.669 115.736C338.139 115.437 338.587 115.107 339.013 114.744C339.461 114.381 339.835 114.072 340.133 113.816C340.347 113.624 340.581 113.539 340.837 113.56C341.093 113.581 341.317 113.688 341.509 113.88C341.68 114.093 341.755 114.328 341.733 114.584C341.733 114.84 341.627 115.064 341.413 115.256C340.752 115.832 340.069 116.376 339.365 116.888C338.683 117.4 337.989 117.784 337.285 118.04C336.603 118.275 335.909 118.307 335.205 118.136C334.864 117.987 334.619 117.773 334.469 117.496C334.341 117.197 334.299 116.867 334.341 116.504C334.405 116.141 334.533 115.693 334.725 115.16C334.491 115.373 334.245 115.576 333.989 115.768C333.755 115.96 333.499 116.173 333.221 116.408C330.277 118.733 327.984 119.896 326.341 119.896Z" fill="white"/>
</svg>
