<svg width="1405" height="1575" viewBox="0 0 1405 1575" fill="none" xmlns="http://www.w3.org/2000/svg">
<path d="M1404.82 324.918C1404.82 434.369 1347.54 523.096 1276.88 523.096C1206.23 523.096 1106.28 554.453 1108.81 324.918C1113.81 96.6377 1206.23 126.74 1276.88 126.74C1347.54 126.74 1404.82 215.467 1404.82 324.918Z" fill="#2B2C2B"/>
<ellipse cx="1204.12" cy="327.427" rx="127.938" ry="198.178" fill="#393C3E"/>
<path d="M1192.83 351.201H282.215V311.064H1192.83C1203.91 311.064 1212.9 320.049 1212.9 331.133C1212.9 342.216 1203.91 351.201 1192.83 351.201Z" fill="#D9D9D9"/>
<path d="M878.002 347.438L831.594 341.167L876.748 560.668C903.506 595.788 963.545 664.523 989.634 658.502C1022.25 650.977 1031.03 607.076 1034.79 592.025C1037.8 579.984 1043.57 525.13 1046.08 499.208V395.101C1049.42 384.649 1051.6 353.961 1053.6 344.93C1056.11 333.641 1061.13 306.047 1052.35 293.504C1043.57 280.961 1032.28 284.724 1028.52 285.978C1024.75 287.233 1027.26 287.233 1024.75 289.741L1019.74 284.724C1017.23 282.215 1007.19 280.961 1003.43 280.961C999.669 280.961 997.16 284.724 995.906 285.978C994.651 287.233 987.126 283.47 980.854 283.47C960.786 283.47 953.26 303.538 952.006 309.81C951.24 313.64 983.363 302.284 983.363 329.878C980.854 361.236 940.888 346.441 943.226 349.947C948.243 357.473 957.023 367.507 987.126 396.356C985.119 417.428 970.402 467.014 963.294 489.173C950.751 460.743 922.906 398.864 911.868 378.796C900.831 358.727 884.692 349.529 878.002 347.438Z" fill="#F8C195"/>
<path d="M990.89 343.675C993.399 343.675 998.918 338.909 1000.92 319.844C1003.43 296.012 990.89 289.741 989.636 288.487C992.563 287.651 998.667 285.978 999.669 285.978C1000.92 285.978 1005.94 294.758 1007.19 296.012C1008.45 297.267 1008.45 326.115 1008.45 332.387C1008.45 338.658 1012.21 343.675 1019.74 343.675C1025.76 343.675 1028.94 338.658 1029.77 336.15V298.521C1029.77 294.507 1026.43 290.995 1024.75 289.741L1027.26 285.978C1028.1 287.232 1030.52 290.243 1033.54 292.25C1037.3 294.758 1034.79 334.895 1036.04 338.658C1037.3 342.421 1039.81 342.421 1046.08 341.167C1051.1 340.163 1053.6 335.732 1056.11 331.133V334.895C1056.11 339.913 1048.59 346.184 1044.82 347.438C1041.06 348.693 1032.28 342.421 1031.03 343.675C1029.77 344.93 1027.26 348.693 1020.99 348.693C1014.72 348.693 1005.94 343.675 998.416 347.438C990.89 351.201 982.11 341.167 984.619 342.421C986.626 343.425 989.636 343.675 990.89 343.675Z" fill="#E2A676"/>
<path d="M965.803 563.176L964.549 489.173C964.967 487.501 967.308 483.153 973.329 479.139C976.339 507.235 969.566 546.871 965.803 563.176Z" fill="#E2A676"/>
<path d="M535.079 362.651C568.193 327.531 579.984 329.717 590.77 327.37L600.805 322.353L655.489 397.771L629.149 538.252L561.417 534.489C550.965 548.704 526.799 581.148 513.754 597.203C497.448 617.272 437.242 687.512 404.631 662.426C372.019 637.341 378.291 603.475 374.528 583.406C371.518 567.351 378.291 517.347 382.054 494.351L398.361 383.974C396.27 383.556 391.588 378.706 389.581 362.651C387.574 346.596 388.745 317.497 389.581 304.954C389.581 303.281 391.337 297.93 398.361 289.902C405.385 281.875 418.011 279.032 423.447 278.614C425.955 278.614 430.972 278.363 430.972 277.359C430.972 276.105 447.278 272.342 451.041 271.088C454.051 270.084 464.002 274.014 468.601 276.105C469.437 274.851 474.622 273.095 488.67 276.105C506.23 279.868 508.738 301.191 515.01 314.988C521.281 328.785 518.773 343.837 515.01 352.617C511.999 359.641 481.145 378.121 466.093 386.482C466.093 383.974 464.839 384.726 459.822 407.805C454.805 430.884 461.912 464.248 466.093 478.046L481.145 450.451C485.326 435.818 501.966 397.771 535.079 362.651Z" fill="#F8C195"/>
<path d="M405.135 1468.77C410.152 1452.72 416.423 1446.2 418.932 1444.94L436.492 1431.15C448.199 1428.64 473.368 1424.87 480.392 1429.89C489.172 1436.16 501.715 1457.49 504.224 1461.25C506.732 1465.01 509.241 1487.59 509.241 1493.86C509.241 1500.13 536.835 1526.47 543.107 1531.49C549.378 1536.51 561.921 1565.35 536.835 1571.63C516.767 1576.64 462.414 1573.72 437.746 1571.63C421.859 1569.12 389.582 1560.59 387.575 1546.54C385.066 1528.98 398.863 1488.84 405.135 1468.77Z" fill="#3E5FC1"/>
<path d="M513.005 1117.57C523.039 1098.51 523.039 1034.37 521.785 1004.69L681.079 1019.74L673.554 1042.32C661.847 1076.18 637.932 1145.67 635.925 1152.69C633.918 1159.72 620.873 1177.36 614.602 1185.3L492.936 1443.69C491.264 1441.18 483.905 1436.16 467.85 1436.16C447.781 1436.16 427.713 1458.74 426.459 1458.74C425.455 1458.74 418.515 1451.21 415.17 1447.45C415.588 1446.61 417.177 1443.19 420.187 1436.16C427.713 1414.84 439.001 1354.63 445.273 1311.99C451.544 1269.34 464.087 1229.2 469.104 1212.9C474.122 1196.59 500.462 1141.4 513.005 1117.57Z" fill="#FFC392"/>
<path fill-rule="evenodd" clip-rule="evenodd" d="M776.405 1041.06C793.965 1067.4 829.587 1123.09 831.594 1135.13C834.102 1150.18 832.848 1155.2 830.339 1160.22C827.831 1165.24 817.796 1204.12 817.796 1225.44C817.796 1232.14 817.302 1237.35 816.778 1242.86C815.635 1254.91 814.355 1268.4 817.796 1301.95C822.814 1350.87 826.576 1412.33 826.576 1421.11V1431.82V1432.4C827.413 1432.4 829.336 1434.16 830.339 1441.18C831.594 1449.96 835.356 1461.25 851.662 1459.99C861.799 1459.21 862.726 1457.95 867.099 1451.98C869.76 1448.35 873.698 1442.98 881.765 1434.91C886.982 1429.69 898.071 1428.64 908.105 1429.89C910.196 1412.33 914.628 1377.21 915.631 1372.19C916.634 1367.18 924.411 1330.8 928.174 1313.24L936.954 1265.58L954.514 1177.78C957.023 1163.98 962.04 1135.13 962.04 1130.12C962.04 1126.27 954.482 1095.97 948.063 1070.23C944.022 1054.03 940.432 1039.64 939.463 1034.79C937.456 1024.76 932.773 1011.38 930.683 1005.94L859.188 990.889L771.388 1005.94L776.405 1041.06Z" fill="#FFC392"/>
<path d="M826.576 1432.4V1431.82C822.64 1432.63 818.413 1434.3 816.542 1437.42C812.779 1443.69 811.525 1443.69 803.999 1495.11C796.473 1546.54 800.236 1532.74 805.254 1542.78C810.271 1552.81 852.917 1549.05 856.679 1549.05C860.442 1549.05 880.511 1546.54 900.58 1551.56C920.648 1556.57 980.854 1569.12 998.414 1566.61C1015.97 1564.1 1042.31 1560.34 1042.31 1539.01C1042.31 1521.96 1023.08 1511.84 1013.47 1508.91C994.651 1500.97 955.517 1482.57 949.497 1472.54C941.971 1459.99 915.631 1433.65 908.105 1429.89C898.071 1428.64 886.982 1429.69 881.765 1434.91C873.698 1442.98 869.76 1448.35 867.099 1451.98C862.726 1457.95 861.799 1459.21 851.662 1459.99C835.356 1461.25 831.594 1449.96 830.339 1441.18C829.336 1434.16 827.413 1432.4 826.576 1432.4Z" fill="#3E5FC1"/>
<path d="M516.769 939.463C519.779 904.343 547.29 788.53 560.669 735.014C610.841 751.069 775.57 755.083 851.663 755.083C875.494 822.396 926.168 966.305 938.209 1003.43C920.147 1014.47 812.78 1034.79 761.354 1043.57L716.2 934.446C709.928 961.204 695.378 1020.49 687.351 1043.57C626.141 1039.56 548.125 1022.66 516.769 1014.72C515.514 1004.27 513.758 974.583 516.769 939.463Z" fill="#9CB5D0"/>
<path d="M599.551 322.353L649.721 301.03L787.694 302.284C787.694 301.866 788.698 301.03 792.711 301.03C807.763 301.03 834.103 322.353 846.646 333.641C859.189 344.93 885.529 392.593 888.037 445.273C890.044 487.417 879.675 537.254 874.24 556.905C867.551 589.098 853.67 658.251 851.663 677.317C849.154 701.148 850.409 741.285 851.663 755.083C836.611 757.591 802.746 766.371 711.182 765.117C619.619 763.863 593.279 750.065 556.905 740.031C569.448 687.351 566.939 694.877 566.939 645.959C566.939 597.042 556.904 569.448 556.904 568.193C556.904 566.939 551.887 550.633 560.667 536.836C604.567 525.548 619.618 485.41 627.144 469.105C634.67 452.799 634.67 412.661 632.161 392.593C630.154 376.538 617.111 345.348 608.331 334.895L599.551 322.353Z" fill="#4D6589"/>
<path d="M480.393 538.091C481.396 553.142 474.958 569.448 471.613 575.719L466.596 477.885L471.613 471.613C474.121 487.501 479.389 523.039 480.393 538.091Z" fill="#E2A676"/>
<path d="M425.204 344.93C423.197 344.93 418.514 342.421 416.424 341.167C417.26 340.331 419.477 339.368 420.187 338.658C421.185 337.66 421.406 333.958 421.445 332.481C421.442 332.45 421.441 332.418 421.441 332.387C421.441 331.584 421.463 331.787 421.445 332.481C421.629 334.958 428.982 337.404 430.221 337.404C431.475 337.404 444.018 339.912 445.273 332.387C446.527 324.861 442.764 309.809 441.51 299.775C440.506 291.748 431.057 282.215 426.458 278.452L433.984 275.944C436.492 280.125 442.262 289.239 445.273 292.249C448.283 295.26 450.708 317.753 451.544 328.624C452.798 332.387 451.544 337.404 462.833 338.658C471.863 339.662 474.121 336.568 474.121 334.895C474.121 329.042 473.87 315.328 472.867 307.301C471.863 299.273 464.505 282.215 461.578 275.944C461.578 275.108 464.839 277.95 467.85 275.944C476.63 284.724 481.647 317.335 480.393 329.878C479.389 339.912 469.94 344.093 465.341 344.93H425.204Z" fill="#E2A676"/>
<path d="M570.701 534.328C576.722 526.3 579.063 496.699 579.481 484.156C574.464 508.238 564.848 530.147 560.667 535.582C562.339 536.418 566.688 535.331 570.701 534.328Z" fill="#E2A676"/>
<path d="M668.537 262.147C674.557 237.061 670.627 217.828 667.282 211.975L664.774 204.449L657.248 186.889L649.722 176.855L644.705 159.295L649.722 127.938L661.011 97.8347L699.894 55.1889L752.574 32.6116L814.034 27.5945L840.374 75.2575C842.465 100.343 845.391 160.549 840.374 200.686C834.103 250.858 830.34 244.587 824.069 254.621C819.051 262.648 796.056 265.491 785.186 265.91V306.047C786.858 305.211 791.457 304.793 796.474 309.81C801.491 314.827 800.237 330.296 798.983 337.404C790.203 353.71 766.622 385.067 742.54 380.05C712.437 373.779 693.622 362.49 676.062 348.693C662.014 337.655 650.977 312.318 647.214 301.03C651.813 298.521 662.516 287.233 668.537 262.147Z" fill="#FFC392"/>
<path d="M665.221 213.229L679.003 196.295C666.281 188.533 643.595 167.718 654.62 146.55C665.645 125.382 685.363 131.38 693.844 137.024L712.926 146.55C719.287 139.847 731.796 124.535 730.948 116.915C729.888 107.389 729.888 80.929 733.068 76.6954C736.249 72.4618 739.429 66.1113 743.67 66.1113C747.91 66.1113 746.85 65.0529 773.353 73.5202C799.856 81.9874 838.02 74.5786 841.201 71.4034C844.381 68.2282 870.884 50.2354 867.704 32.2425C864.523 14.2497 851.802 2.60726 843.321 0.490459C834.84 -1.62635 814.698 3.66567 806.217 5.78247C797.736 7.89927 757.451 6.84085 733.068 1.54884C713.562 -2.68477 688.19 11.0745 677.942 18.4833C675.822 20.6001 670.733 26.3155 667.341 32.2425C663.1 39.6513 647.199 51.2937 639.778 57.6442C632.357 63.9946 622.816 91.513 624.936 108.447C627.056 125.382 624.936 130.674 634.477 155.017C642.11 174.492 658.153 201.94 665.221 213.229Z" fill="#515251"/>
<path d="M328.641 326.115C328.641 435.566 271.362 524.293 200.704 524.293C130.046 524.293 30.1029 555.65 32.629 326.115C37.6286 97.8347 130.046 127.937 200.704 127.937C271.362 127.937 328.641 216.664 328.641 326.115Z" fill="#2B2C2B"/>
<ellipse cx="127.938" cy="328.624" rx="127.938" ry="198.178" fill="#393C3E"/>
<rect x="44" y="309" width="101" height="40" rx="20" fill="#D9D9D9"/>
</svg>
