<svg width="344" height="332" viewBox="0 0 344 332" fill="none" xmlns="http://www.w3.org/2000/svg">
<path d="M248.227 97.6638C251.192 79.8745 248.392 67.4658 254.651 64.3911C229.45 60.9321 232.085 62.2498 199.8 64.3911C173.973 66.1042 133.145 92.5576 115.96 105.57C116.893 108.37 121.692 115.947 133.42 123.854C145.148 131.76 184.098 141.272 200.459 144.621C197.11 133.365 191.071 109.293 191.071 104.417C191.729 85.8042 199.965 81.1922 208.86 79.8745C217.755 78.5567 221.214 78.392 229.449 92.2282C237.685 106.064 237.52 139.337 238.509 138.513C243.944 136.866 262.557 133.914 266.181 125.678C271.723 113.082 276.558 106.571 274.746 106.736C272.934 106.901 261.404 107.724 258.11 106.077C254.816 104.43 250.368 101.782 248.227 97.6638Z" fill="#4B678B"/>
<path d="M267.738 62.8078C264.773 67.914 261.479 70.8789 260.985 71.2083C251.102 58.031 249.455 49.7952 248.467 37.9356C247.478 26.0761 256.538 11.9105 259.338 9.27502C273.503 -0.443238 278.939 -0.113806 288.328 0.0509101C297.717 0.215626 307.106 2.68637 311.059 3.67467C315.012 4.66296 332.472 7.29842 333.954 7.29842C335.437 7.29842 342.19 9.1103 343.343 13.0635C344.924 21.8923 337.743 29.2606 333.954 31.8411C329.946 33.3236 322.655 38.3309 319.624 37.9356C301.34 37.9356 298.046 37.7709 293.599 37.9356C290.041 38.0674 286.132 36.5081 286.187 37.9356L283.716 51.9365C282.178 52.7601 275.48 56.2191 275.48 53.9131C271.527 47.4892 270.044 46.5009 266.915 46.3362C263.785 46.1714 262.797 48.6422 262.303 51.9365C261.314 62.3136 267.738 61.6548 267.738 62.8078Z" fill="#515251"/>
<path d="M254.295 64.404H256.931L260.06 68.3572L263.355 62.4274C259.127 58.9683 252.549 50.6996 260.06 45.2969C267.572 39.8942 273.622 47.548 275.708 52.0503C277.465 52.1052 280.979 51.8197 280.979 50.2384C281.144 42.1673 283.615 31.296 286.744 31.296C299.098 33.7668 317.546 35.7434 326.77 34.4256C327.594 76.0988 312.275 91.9116 306.346 95.5353C301.602 98.4343 291.302 95.0961 286.744 93.0646C286.305 92.9548 284.175 93.7234 279.168 97.6766C288.227 108.054 285.427 159.116 285.427 179.211C294.519 191.466 302.832 245.043 305.852 270.299C308.597 273.374 315.57 281.006 321.5 286.936C342.748 299.454 333.689 304.066 319.688 294.677C336.028 318.528 320.456 305.384 310.628 295.83C322.488 320.604 310.628 312.631 307.334 304.066C305.742 299.015 301.503 290.065 297.286 294.677C292.015 300.442 283.615 305.548 283.615 301.266C289.94 288.352 290.094 282.378 289.38 281.006C288.611 278.81 284.208 266.873 272.744 236.697C261.279 206.521 255.668 175.587 254.295 163.893C252.703 156.755 249.519 141.03 249.519 135.232C257.919 135.397 273.732 115.301 272.744 108.054C253.637 113.16 246.718 100.642 245.236 85.6524C244.05 73.661 250.781 66.4904 254.295 64.404Z" fill="#FFC392"/>
<path d="M233.672 272.159C236.327 276.78 238.8 280.991 240.937 284.557C240.662 288.295 239.851 297.637 238.804 305.102C229.481 324.401 239.804 324.668 245.219 310.978C247.125 337.964 251.424 320.431 253.335 308.292C259.479 334.25 264.054 322.637 261.273 313.989C259.348 309.031 257.091 299.672 263.468 301.901C271.44 304.687 281.541 305.643 278.809 301.987C265.417 293.524 261.481 288.485 261.187 287.024C260.671 285.568 258.712 279.769 254.532 267.074L251.65 263.216L233.672 272.159Z" fill="#FFC392"/>
<path d="M31.7523 249.692L32.0964 230.579C32.1093 229.86 31.6231 229.109 30.9353 228.901C29.9796 228.613 28.3718 228.119 25.8225 227.29C19.2338 225.149 10.998 223.502 9.02143 224.161C2.5975 226.796 1.2798 233.879 1.2798 235.526C1.2798 237.173 1.93866 257.104 1.2798 262.704C0.620933 268.305 -0.696797 280.988 0.456216 286.424C1.60923 291.859 7.3743 296.307 12.8099 297.954C18.2456 299.601 28.458 297.624 29.2815 297.624C30.1051 297.624 36.0349 291.365 34.8819 288.565C32.7735 283.558 29.7208 280.988 28.458 280.329L26.6461 277.858L35.376 257.763L31.7523 249.692Z" fill="#3E5FC1"/>
<path d="M117.089 245.592V239.662C127.631 230.306 157.28 239.717 170.787 245.592L162.057 267.664L122.878 288.747C110.799 284.3 80.6211 273.956 65.2037 268.817C45.9319 262.393 45.7672 262.887 35.2253 260.581C17.1065 246.086 28.9661 233.568 31.7662 230.932C35.39 233.073 44.6141 233.897 66.1919 235.709C87.7697 237.521 90.8993 237.685 100.947 239.662C108.985 241.243 115.058 244.274 117.089 245.592Z" fill="#FFC392"/>
<path d="M116.948 239.827L117.772 187.118C135.451 190.302 171.799 197.099 175.752 198.812C177.07 202.107 173.281 246.745 173.281 247.898C173.281 249.051 165.21 246.086 155.821 243.45C140.667 239.893 123.592 239.552 116.948 239.827Z" fill="#6D8EBB"/>
<path d="M172.293 274.094C161.62 261.575 146.652 260.011 142.15 260.725C136.879 263.196 123.208 283.621 121.89 288.562C126.832 293.504 159.775 314.093 165.375 315.905C170.976 317.717 187.447 316.729 192.059 314.752C200.789 308.493 197.33 304.704 195.189 301.245C193.476 298.478 182.286 292.296 176.905 289.55C175.588 286.915 175.456 280.023 172.293 274.094Z" fill="#3E5FC1"/>
<path d="M215.825 148.574C205.228 164.661 183.936 197.033 183.54 197.824H192.435C174.481 212.978 150.762 255.804 146.644 261.24C146.15 266.675 149.609 270.629 155.703 273.264C164.005 276.69 168.935 274.692 170.363 273.264C216.22 227.671 239.214 214.625 242.838 212.154C248.603 209.025 258.854 197.824 260.133 194.859C267.381 178.058 256.015 168.01 252.886 165.54C250.382 163.563 227.135 153.406 215.825 148.574Z" fill="#FAAC78"/>
<path d="M85.997 154.504C85.3381 131.575 105.818 112.227 116.14 105.418C124.705 118.266 134.259 124.031 144.142 128.643C152.048 132.333 185.65 140.173 201.463 143.632L206.899 168.505L203.275 172.787C198.059 180.364 187.166 195.946 185.321 197.659C183.476 199.372 179.72 199.801 178.073 199.801L128.988 189.424C114.932 187.337 86.6558 177.432 85.997 154.504Z" fill="#9CB5D0"/>
<path d="M207.684 78.714C182.317 89.7499 192.53 116.928 192.036 118.411C210.978 186.109 210.319 209.169 210.319 211.805C210.319 213.913 219.323 243.54 223.826 258.09C229.371 271.651 249.908 302.626 247.569 308.678L251.687 307.031L258.662 288.377C258.732 288.187 258.76 287.994 258.739 287.793C257.7 277.793 253.675 251.692 250.674 227.947C247.644 203.964 243.372 192.917 241.615 190.392V172.602C241.67 158.382 241.747 127.635 241.615 118.411C241.45 106.88 238.485 92.7148 232.72 86.1262C226.955 79.5375 216.578 75.0902 207.684 78.714Z" fill="#FFC392"/>
<path d="M114.972 244.439L115.96 244.933L117.113 245.592L117.008 269.476H114.478L114.972 244.439Z" fill="black" fill-opacity="0.54"/>
</svg>
