<svg width="521" height="495" viewBox="0 0 521 495" fill="none" xmlns="http://www.w3.org/2000/svg">
<path d="M179.882 169.452C174.098 171.68 158.302 172.348 157.412 172.348C160.453 175.467 165.937 183.386 165.937 190.501C165.937 199.597 166.012 213.726 165.937 220.262C172.834 217.143 197.503 206.215 212.809 197.303C231.942 186.162 235.279 181.038 239.506 173.239C242.888 167.001 245.81 159.499 246.848 156.529L258.862 120.21L272.433 109.07L280.665 99.7119C284.595 95.9984 291.522 88.2149 287.784 86.7889C283.112 85.0064 283.335 85.6748 282 85.6748C279.33 85.8531 274.51 91.0965 272.433 93.696V88.5714C274.287 82.3327 278.04 69.6325 278.218 68.7412C278.44 67.6272 279.553 61.1657 278.663 60.0516C277.773 58.9376 276.215 58.4919 274.213 60.0516C272.611 61.2993 269.986 66.3646 268.874 68.7412L268.206 58.4919C268.132 57.0065 267.45 53.9912 265.314 53.8129C263.178 53.6347 261.309 56.1153 260.642 57.3779L259.085 61.8341C259.01 61.2399 258.862 59.8733 258.862 59.1603C258.862 58.2691 257.75 52.0304 255.525 53.1445C249.518 55.8182 248.406 70.0781 248.183 78.0993C246.848 66.7359 243.734 64.0622 241.509 64.9534C239.729 65.6664 239.432 67.3301 239.506 68.0728L241.954 104.837C241.657 105.431 240.53 107.911 238.394 113.081C235.724 119.542 219.706 146.279 215.701 152.518C212.498 157.509 209.027 159.351 207.692 159.648C200.35 162.173 184.51 167.669 179.882 169.452Z" fill="#FFC392"/>
<path d="M347.828 165.839C353.858 168.069 370.325 168.738 371.252 168.738C368.083 171.86 362.365 179.786 362.365 186.908C362.365 196.012 362.288 210.155 362.365 216.697C355.176 213.574 329.46 202.637 313.504 193.716C293.558 182.565 288.546 178.621 284.14 170.815C280.614 164.571 276.077 157.049 274.994 154.075L254.224 113.774L267.399 100.133L274.994 104.318C275.304 104.913 278.871 109.977 281.097 115.151C283.88 121.619 306.314 142.645 310.489 148.89C313.828 153.885 317.446 155.729 318.838 156.026C326.491 158.554 343.004 164.055 347.828 165.839Z" fill="#FFC392"/>
<path d="M178.787 395.573C164.289 404.633 139.024 409.661 128.205 411.042C128.565 411.779 130.152 415.407 133.615 424.025C139.024 436.18 141.459 441.152 139.836 450.544C138.538 458.058 136.229 482.956 135.237 494.466H178.787C181.763 479.918 187.93 449.384 188.796 443.638C189.878 436.456 188.796 431.208 188.796 429.55C188.796 427.893 183.115 407.727 178.787 395.573Z" fill="#FFC392"/>
<path d="M351.981 392.783C366.479 401.843 391.744 406.871 402.563 408.252C402.203 408.989 400.616 412.617 397.154 421.235C391.744 433.39 389.309 438.362 390.932 447.754C392.231 455.268 394.539 480.166 395.531 491.676H351.981C349.005 477.128 342.838 446.594 341.972 440.848C340.89 433.666 341.972 428.418 341.972 426.76C341.972 425.103 347.653 404.937 351.981 392.783Z" fill="#FFC392"/>
<path d="M106.814 411.656C82.3292 411.938 52.2153 402.338 50.5266 401.773C50.5266 403.467 48.5565 428.597 46.305 433.115C34.2031 456.269 22.9133 494.388 24.3529 494.388H71.3182C78.3542 480.928 92.7424 451.808 94.9939 448.645C97.8083 444.692 104.563 421.538 106.814 411.656Z" fill="#FFC392"/>
<path d="M423.954 408.874C448.403 409.157 478.472 399.548 480.158 398.983C480.158 400.679 482.125 425.83 484.373 430.352C496.457 453.525 507.73 491.676 506.293 491.676H459.398C452.372 478.205 438.005 449.06 435.757 445.895C432.947 441.938 426.202 418.765 423.954 408.874Z" fill="#FFC392"/>
<path d="M159.726 317.387C110.206 327.8 71.264 318.255 57.9828 312.18C55.8483 330.561 51.4371 368.506 50.8679 373.24C50.1564 379.156 47.5476 393.593 46.3618 403.77C69.841 415.366 109.21 415.366 110.159 414.42C110.918 413.662 114.744 398.484 116.562 390.99C118.222 396.039 122.301 407.367 125.337 412.29C152.279 412.1 173.402 401.482 180.596 396.196C177.829 386.02 171.774 364.436 169.687 359.513C167.078 353.36 162.572 333.007 159.726 317.387Z" fill="#9CB5D0"/>
<path d="M371.042 314.597C420.562 325.01 459.504 315.465 472.785 309.39C474.92 327.771 479.331 365.716 479.9 370.45C480.612 376.366 483.22 390.803 484.406 400.98C460.927 412.576 421.558 412.576 420.609 411.63C419.85 410.872 416.024 395.694 414.206 388.2C412.546 393.249 408.467 404.577 405.431 409.5C378.489 409.31 357.366 398.692 350.172 393.406C352.939 383.23 358.994 361.646 361.081 356.723C363.69 350.57 368.196 330.217 371.042 314.597Z" fill="#9CB5D0"/>
<path d="M93.0226 162.221C86.6092 162.617 68.6384 166.343 60.4547 168.156C73.4819 177.058 73.9829 184.477 75.9871 205.249C77.9913 226.021 65.9662 234.429 58.9516 237.396C55.1082 239.022 55.2166 242.384 55.4443 247.782L55.9454 278.445C56.1124 286.688 56.0096 307.424 57.2121 320.085C124.953 327.207 153.983 321.968 159.661 319C162.167 284.71 167.177 215.536 167.177 213.162C167.177 210.195 167.177 175.575 161.666 170.134C153.649 166.672 136.284 163.457 136.284 163.951C136.284 164.446 133.607 181.015 116.572 179.037C99.5362 177.058 95.5278 166.672 93.0226 162.221Z" fill="#4D6589"/>
<path d="M127.708 358.581C126.835 349.38 124.288 357.049 123.616 358.457C122.559 365.347 115.026 390.263 116.889 391.698C117.199 392.783 117.354 393.248 117.974 394.953L120.023 393.458C122.123 385.721 126.083 366.794 127.708 358.581Z" fill="#1B2533" fill-opacity="0.51"/>
<path d="M438.082 158.501C444.755 158.897 463.452 162.623 471.967 164.436C458.413 173.338 457.892 180.757 455.806 201.529C453.721 222.301 466.233 230.709 473.531 233.676C477.53 235.302 477.417 238.664 477.18 244.062L476.659 274.725C476.485 282.968 475.825 302.619 474.573 315.28C404.093 322.402 374.657 318.248 368.749 315.28C366.142 280.99 360.929 211.816 360.929 209.442C360.929 206.475 360.929 171.855 366.664 166.414C375.005 162.952 393.071 159.737 393.071 160.231C393.071 160.726 395.857 177.295 413.581 175.317C431.305 173.338 435.476 162.952 438.082 158.501Z" fill="#4D6589"/>
<path d="M398.405 357.122C398.191 347.859 401.743 355.128 402.607 356.434C404.529 363.134 414.088 387.235 413.834 388.598L413.524 389.683C413.059 391.078 413.059 390.923 412.594 392.318L410.544 390.716C407.443 383.318 401.074 365.058 398.405 357.122Z" fill="#1B2533" fill-opacity="0.51"/>
<path d="M99.1643 156.697C98.7767 164.061 94.9652 165.579 93.1079 165.418C98.1952 173.655 106.674 179.226 107.401 179.469C108.128 179.711 125.57 186.736 133.08 180.922C140.59 175.108 139.621 170.505 139.621 169.779C139.621 169.197 138.49 166.629 137.925 165.418V156.697C145.677 156.697 149.553 155.485 154.883 148.46C161.666 138.77 161.181 126.899 161.666 125.446C162.151 123.992 160.455 106.308 159.001 95.164C157.838 86.2491 153.349 82.4053 151.249 81.5978L103.04 82.5668L102.071 107.519L94.3192 104.127L84.3867 112.606L87.0515 125.204L91.6544 130.049C94.1577 132.229 99.1643 136.783 99.1643 137.559C99.1643 138.528 99.6488 147.491 99.1643 156.697Z" fill="#FFC392"/>
<path d="M98.9123 132.083V141.047C94.148 136.444 83.7472 124.816 80.2588 115.125C75.8982 103.013 77.3517 94.5338 77.3517 87.5084C77.3517 80.483 84.8616 76.3646 87.7687 75.3956C91.1602 67.159 98.9123 61.3448 107.876 58.4378C116.839 55.5307 146.394 56.9842 151.482 55.0462C156.569 53.1082 159.961 51.6546 163.837 55.0462C167.713 58.4378 168.44 66.1899 163.837 72.9731C156.569 84.6013 144.214 85.5703 141.549 86.7816C138.884 87.9929 120.715 86.7816 114.417 86.7816C108.118 86.7816 106.422 91.1422 107.876 96.9563C109.572 113.187 105.211 115.852 103.273 115.852C102.546 111.976 97.4588 108.585 95.763 108.827C94.0673 109.069 86.0728 107.615 86.7996 118.032C87.381 126.366 95.117 130.872 98.9123 132.083Z" fill="#515251"/>
<path d="M431.693 152.977C432.096 160.341 436.062 161.859 437.994 161.698C432.701 169.934 423.879 175.506 423.123 175.749C422.367 175.991 404.219 183.016 396.406 177.202C388.592 171.388 389.6 166.785 389.6 166.058C389.6 165.477 390.777 162.909 391.365 161.698V152.977C383.299 152.977 379.266 151.765 373.721 144.74C366.664 135.05 367.168 123.179 366.664 121.726C366.16 120.272 367.924 102.588 369.436 91.4438C370.646 82.5289 375.318 78.6851 377.502 77.8776L427.66 78.8466L428.668 103.799L436.734 100.407L447.068 108.886L444.295 121.483L439.506 126.329C436.902 128.509 431.693 133.063 431.693 133.838C431.693 134.807 431.189 143.771 431.693 152.977Z" fill="#FFC392"/>
<path d="M431.955 128.363V137.326C436.911 132.724 447.733 121.095 451.362 111.405C455.899 99.2925 454.387 90.8135 454.387 83.7882C454.387 76.7628 446.573 72.6444 443.549 71.6754C440.02 63.4387 431.955 57.6246 422.629 54.7176C413.303 51.8105 382.553 53.264 377.26 51.326C371.967 49.388 368.438 47.9344 364.405 51.326C360.372 54.7176 359.616 62.4697 364.405 69.2528C371.967 80.8811 384.821 81.8501 387.594 83.0614C390.366 84.2726 409.27 83.0614 415.823 83.0614C422.377 83.0614 424.141 87.422 422.629 93.2361C420.864 109.467 425.401 112.132 427.418 112.132C428.174 108.256 433.467 104.864 435.231 105.107C436.996 105.349 445.313 103.895 444.557 114.312C443.952 122.646 435.903 127.152 431.955 128.363Z" fill="#515251"/>
<path d="M199.157 30.0347C198.188 29.0662 198.188 27.4959 199.157 26.5273C200.125 25.5588 201.695 25.5588 202.664 26.5273L216.474 40.3376C217.443 41.3061 217.443 42.8764 216.474 43.8449C215.506 44.8135 213.935 44.8135 212.967 43.8449L199.157 30.0347Z" fill="#D9D9D9"/>
<path d="M331.749 29.8747C332.799 28.9945 332.799 27.5675 331.749 26.6873L331.368 26.3673C330.318 25.4872 328.617 25.4872 327.567 26.3673L310.719 40.4975C309.67 41.3777 309.67 42.8048 310.719 43.685L311.101 44.0049C312.15 44.8851 313.852 44.8851 314.901 44.0049L331.749 29.8747Z" fill="#D9D9D9"/>
<path d="M238.529 7.39948C238.174 6.07644 238.959 4.71652 240.282 4.36201C241.605 4.00751 242.965 4.79266 243.32 6.1157L248.375 24.9808C248.729 26.3039 247.944 27.6638 246.621 28.0183C245.298 28.3728 243.938 27.5877 243.584 26.2646L238.529 7.39948Z" fill="#D9D9D9"/>
<path d="M288.534 7.36635C288.951 6.06161 288.205 4.76045 286.869 4.46013L285.996 4.2639C284.659 3.96358 283.238 4.77782 282.821 6.08256L276.773 25.014C276.356 26.3187 277.101 27.6199 278.438 27.9202L279.311 28.1164C280.647 28.4167 282.069 27.6025 282.485 26.2978L288.534 7.36635Z" fill="#D9D9D9"/>
<path d="M327.694 26.2794C328.681 25.3302 328.681 23.7914 327.694 22.8422L327.621 22.772C326.633 21.8229 325.032 21.8229 324.045 22.772L309.603 36.6524C308.615 37.6016 308.615 39.1405 309.603 40.0896L309.676 40.1598C310.664 41.109 312.265 41.109 313.252 40.1598L327.694 26.2794Z" fill="#D9D9D9"/>
<path d="M189.657 26.1173C188.591 25.2576 188.591 23.8639 189.657 23.0043L190.147 22.6099C191.213 21.7503 192.942 21.7503 194.008 22.6099L211.63 36.8146C212.696 37.6742 212.696 39.0679 211.63 39.9275L211.141 40.3219C210.074 41.1816 208.345 41.1816 207.279 40.3219L189.657 26.1173Z" fill="#D9D9D9"/>
<path d="M286.695 3.67267C287.063 2.35327 286.286 1.00677 284.96 0.665164L284.778 0.618434C283.452 0.276831 282.078 1.06949 281.71 2.38889L276.447 21.2672C276.08 22.5866 276.857 23.9331 278.183 24.2747L278.365 24.3215C279.691 24.6631 281.065 23.8704 281.432 22.551L286.695 3.67267Z" fill="#D9D9D9"/>
<path d="M234.664 3.63716C234.232 2.33738 234.967 1.04927 236.306 0.760087L237.401 0.523512C238.74 0.234333 240.175 1.05359 240.607 2.35337L246.906 21.3027C247.338 22.6025 246.603 23.8906 245.264 24.1798L244.169 24.4164C242.83 24.7056 241.395 23.8863 240.962 22.5865L234.664 3.63716Z" fill="#D9D9D9"/>
<path d="M78.6198 204.167C79.7613 181.049 67.6735 170.658 61.5485 168.335C44.465 171.122 35.5797 181.772 32.931 186.749C25.4817 205.162 -0.727025 270.949 0.0154629 285.829C2.49861 335.595 11.7414 343.262 10.7482 345.253C9.75492 347.243 7.7684 353.713 7.27179 366.154C6.87449 376.107 13.0118 377.195 15.826 378.522C17.1503 379.684 20.0111 379.452 27.4513 379.452C34.7017 379.452 36.7377 378.762 36.5721 376.605C36.4066 373.619 39.9195 371.012 40.3168 367.827C40.7141 364.642 39.4891 363.253 40.3168 362.092L36.0758 349.732V334.304C35.0825 328.83 33.7432 296.98 34.7364 291.008C35.531 286.23 57.9275 249.288 61.2382 239.003C66.3699 237.012 77.4402 228.054 78.6198 204.167Z" fill="#F8C195"/>
<path d="M454.411 200.132C453.269 177.017 465.357 166.627 471.482 164.305C488.566 167.092 497.451 177.74 500.1 182.716C507.549 201.128 521.951 247.902 519.964 287.709C517.481 337.469 513.508 339.957 514.501 341.948C515.495 343.938 517.481 350.407 517.978 362.847C518.375 372.799 512.846 377.941 510.032 379.267C508.708 380.428 504.271 382.452 497.12 381.258C489.969 380.064 488.512 375.453 488.677 373.296C488.843 370.311 489.075 363.543 488.677 360.359C488.28 357.174 486.525 354.056 485.698 352.895L489.174 346.426V331C490.167 325.527 483.711 277.758 482.718 271.786C481.923 267.009 475.103 245.248 471.792 234.964C466.661 232.974 455.59 224.017 454.411 200.132Z" fill="#F8C195"/>
</svg>
