<svg width="62" height="90" viewBox="0 0 62 90" fill="none" xmlns="http://www.w3.org/2000/svg">
<path d="M39.5402 8.75C39.5402 3.92188 35.5847 0 30.7153 0C25.8458 0 21.8904 3.92188 21.8904 8.75C21.8904 13.5781 25.8458 17.5 30.7153 17.5C35.5847 17.5 39.5402 13.5781 39.5402 8.75ZM44.3223 40.9844L51.6186 50.7344C53.2733 52.9531 56.4408 53.4219 58.6785 51.7656C60.9163 50.1094 62.389 45.9844 60.7186 43.7656L48.6087 29.9219C44.6375 24.625 37.3812 22.5 30.7153 22.5C24.0493 22.5 16.7931 24.625 12.8219 29.9219L0.711988 43.7656C-0.942681 45.9844 0.514322 50.1094 2.75206 51.7656C4.98981 53.4219 8.14156 52.9531 9.81199 50.7344L17.1083 40.9844L17.0574 41.083C14.4768 46.083 13.3543 51.7079 13.8181 57.3155L16.1083 85C16.1083 87.7656 20.3618 90 23.1511 90C25.9404 90 28.1939 87.7656 28.1939 85V60C28.1939 58.625 29.3285 57.5 30.7153 57.5C32.1021 57.5 33.2367 58.625 33.2367 60V85C33.2367 87.7656 35.4902 90 38.2795 90C41.0688 90 45.3223 87.7656 45.3223 85L47.6124 57.3155C48.0763 51.7079 46.9538 46.083 44.3732 41.083L44.3223 40.9844Z" fill="#A6A6A6"/>
</svg>
