<svg width="58" height="90" viewBox="0 0 58 90" fill="none" xmlns="http://www.w3.org/2000/svg">
<path d="M37.8215 8.75C37.8215 3.92188 33.8661 0 28.9966 0C24.1272 0 20.1717 3.92188 20.1717 8.75C20.1717 13.5781 24.1272 17.5 28.9966 17.5C33.8661 17.5 37.8215 13.5781 37.8215 8.75ZM41.6036 41.9844L48.8999 51.7344C50.5546 53.9531 53.7221 54.4219 55.9598 52.7656C58.1976 51.1094 58.6703 47.9844 56.9999 45.7656L45.89 30.9219C41.9188 25.625 35.6626 22.5 28.9966 22.5C22.3307 22.5 16.0744 25.625 12.1032 30.9219L0.993307 45.7656C-0.661362 47.9844 -0.20436 51.1094 2.03338 52.7656C4.27113 54.4219 7.42288 53.9531 9.0933 51.7344L16.3896 41.9844L15.3896 51.7344L16.3896 85C16.3896 87.7656 18.6431 90 21.4324 90C24.2217 90 26.4752 87.7656 26.4752 85V60C26.4752 58.625 27.6098 57.5 28.9966 57.5C30.3834 57.5 31.518 58.625 31.518 60V85C31.518 87.7656 33.7715 90 36.5608 90C39.3501 90 41.6036 87.7656 41.6036 85L42.6036 51.7344L41.6036 41.9844Z" fill="#A6A6A6"/>
</svg>
