<svg width="57" height="90" viewBox="0 0 57 90" fill="none" xmlns="http://www.w3.org/2000/svg">
<path d="M37.2739 8.75C37.2739 3.92188 33.3184 0 28.449 0C23.5795 0 19.6241 3.92188 19.6241 8.75C19.6241 13.5781 23.5795 17.5 28.449 17.5C33.3184 17.5 37.2739 13.5781 37.2739 8.75ZM38.056 36.9844L49.3523 50.7344C51.0069 52.9531 53.1744 54.4219 55.4122 52.7656C57.6499 51.1094 57.1227 48.9844 55.4523 46.7656L44.3423 31.9219C40.3711 26.625 35.1149 22.5 28.449 22.5C21.783 22.5 16.5268 26.625 12.5556 31.9219L1.44565 46.7656C-0.209016 48.9844 -0.752013 51.1094 1.48573 52.7656C3.72347 54.4219 5.87522 52.9531 7.54565 50.7344L18.842 36.9844L19.4523 49L15.842 85C15.842 87.7656 18.0955 90 20.8848 90C23.6741 90 25.9276 87.7656 25.9276 85L26.9276 60C26.9276 58.625 27.0622 57.5 28.449 57.5C29.8357 57.5 29.9704 58.625 29.9704 60L30.9704 85C30.9704 87.7656 33.2239 90 36.0132 90C38.8025 90 41.056 87.7656 41.056 85L37.4523 49L38.056 36.9844Z" fill="#A6A6A6"/>
</svg>
