<svg width="347" height="314" viewBox="0 0 347 314" fill="none" xmlns="http://www.w3.org/2000/svg">
<path d="M140.452 313.952C177.703 313.952 213.427 299.154 239.767 272.814C266.107 246.475 280.905 210.75 280.905 173.5C280.905 136.249 266.107 100.525 239.767 74.1849C213.427 47.845 177.703 33.0474 140.452 33.0474C103.202 33.0474 67.4775 47.845 41.1375 74.1849C14.7976 100.525 0 136.249 0 173.5C0 210.75 14.7976 246.475 41.1375 272.814C67.4775 299.154 103.202 313.952 140.452 313.952ZM90.0321 211.63C99.8528 222.987 116.641 234.948 140.452 234.948C164.263 234.948 181.052 222.987 190.873 211.63C194.055 207.954 199.596 207.57 203.272 210.752C206.948 213.935 207.332 219.476 204.15 223.152C191.915 237.197 170.682 252.504 140.452 252.504C110.222 252.504 88.9897 237.197 76.755 223.152C73.5729 219.476 73.9569 213.935 77.6328 210.752C81.3087 207.57 86.85 207.954 90.0321 211.63ZM79.2239 147.165C79.2239 142.509 81.0736 138.043 84.3661 134.751C87.6586 131.458 92.1241 129.608 96.7804 129.608C101.437 129.608 105.902 131.458 109.195 134.751C112.487 138.043 114.337 142.509 114.337 147.165C114.337 151.821 112.487 156.287 109.195 159.579C105.902 162.872 101.437 164.721 96.7804 164.721C92.1241 164.721 87.6586 162.872 84.3661 159.579C81.0736 156.287 79.2239 151.821 79.2239 147.165ZM184.563 129.608C189.219 129.608 193.685 131.458 196.977 134.751C200.27 138.043 202.12 142.509 202.12 147.165C202.12 151.821 200.27 156.287 196.977 159.579C193.685 162.872 189.219 164.721 184.563 164.721C179.907 164.721 175.441 162.872 172.149 159.579C168.856 156.287 167.007 151.821 167.007 147.165C167.007 142.509 168.856 138.043 172.149 134.751C175.441 131.458 179.907 129.608 184.563 129.608Z" fill="white"/>
<rect x="280.905" width="33.0476" height="99.1428" rx="16.5238" fill="white"/>
<rect x="347.001" y="33.0474" width="33.0476" height="99.1428" rx="16.5238" transform="rotate(90 347.001 33.0474)" fill="white"/>
</svg>
