<svg width="300" height="364" viewBox="0 0 300 364" fill="none" xmlns="http://www.w3.org/2000/svg">
<path d="M63.5417 0.0494245C62.6447 38.1703 78.491 59.6601 86.5263 65.6398C106.708 85.8215 138.662 87.877 152.117 86.3821C151.93 84.7003 151.332 79.4306 150.435 71.8064C149.314 62.2762 142.587 30.8825 120.723 14.6251C98.8596 -1.63238 79.7991 0.0494245 63.5417 0.0494245Z" fill="#4FA129"/>
<path d="M216.586 20.7915C156.041 30.6581 143.147 80.2153 144.269 103.761C146.137 103.387 153.126 102.415 166.132 101.518C167.253 64.5184 198.086 46.5792 218.829 42.655C239.571 38.7307 234.525 17.9885 216.586 20.7915Z" fill="#8C6A50"/>
<path d="M57.936 87.5035C5.79982 103.2 -4.10382 179.629 1.31533 214.76C0.731752 251.087 32.8394 305.391 48.9662 328.001C53.8247 333.794 68.1387 347.398 86.5265 355.471C109.511 365.562 121.284 362.759 125.769 361.638C130.253 360.516 130.253 359.956 144.268 358.835C158.283 357.713 159.405 359.956 165.571 361.638C171.738 363.319 197.526 367.804 219.389 352.668C241.253 337.532 256.949 320.153 270.404 297.729C283.858 275.305 305.161 242.79 297.873 174.957C292.043 120.691 265.545 97.4073 253.025 92.5488C244.99 88.8115 227.013 81.8974 219.389 84.1398C209.859 86.9428 189.677 95.9124 159.405 95.9124C129.132 95.9124 122.405 93.1095 108.951 89.7459C95.4961 86.3823 80.3598 82.458 57.936 87.5035Z" fill="#FF4D4D"/>
<path d="M297.873 174.957C292.043 120.691 265.545 97.4072 253.025 92.5487C226.116 271.493 105.774 324.077 48.966 328.001C53.8246 333.794 68.1386 347.398 86.5264 355.471C109.511 365.562 121.284 362.759 125.768 361.637C130.253 360.516 130.253 359.956 144.268 358.834C158.283 357.713 159.405 359.956 165.571 361.637C171.738 363.319 197.525 367.804 219.389 352.668C241.252 337.532 256.949 320.153 270.404 297.729C283.858 275.305 305.161 242.79 297.873 174.957Z" fill="black" fill-opacity="0.1"/>
</svg>
