<svg width="290" height="257" viewBox="0 0 290 257" fill="none" xmlns="http://www.w3.org/2000/svg">
<path d="M144.5 0C159.105 0 170.657 12.3664 169.663 26.9374L159.987 168.82C159.431 176.964 152.663 183.287 144.5 183.287C136.337 183.287 129.569 176.964 129.013 168.82L119.337 26.9375C118.343 12.3664 129.895 0 144.5 0ZM144.5 257C138.333 257 133.042 254.8 128.625 250.401C124.208 246.001 122 240.73 122 234.587C122 228.444 124.208 223.173 128.625 218.774C133.042 214.374 138.333 212.174 144.5 212.174C150.667 212.174 155.958 214.374 160.375 218.774C164.792 223.173 167 228.444 167 234.587C167 238.655 165.958 242.39 163.875 245.794C161.875 249.197 159.167 251.936 155.75 254.012C152.417 256.004 148.667 257 144.5 257Z" fill="white"/>
<path d="M145.076 212.181C150.997 212.314 156.097 214.511 160.375 218.773C164.792 223.173 167 228.444 167 234.587C167 238.654 165.959 242.391 163.875 245.794C161.876 249.197 159.167 251.937 155.75 254.012L155.121 254.373C151.947 256.124 148.407 257 144.5 257C138.334 257 133.042 254.8 128.625 250.4C124.347 246.138 122.141 241.058 122.007 235.16L122 234.587C122.001 228.444 124.209 223.173 128.625 218.773C133.042 214.374 138.334 212.175 144.5 212.175L145.076 212.181ZM104.688 164.867C97.1131 169.261 90.3139 174.862 84.5405 181.413C78.6491 188.122 68.4769 188.728 61.7798 182.826C55.0827 176.924 54.4792 166.734 60.3706 160.024C71.7695 147.101 86.1006 136.793 102.321 130.15L104.688 164.867ZM186.705 129.782C203.297 136.409 217.95 146.86 229.561 160.024C235.452 166.734 234.798 176.924 228.151 182.826C221.504 188.728 211.282 188.072 205.39 181.413C199.39 174.605 192.282 168.823 184.346 164.355L186.705 129.782ZM144.965 121.786C151.136 121.786 157.192 122.285 163.095 123.242L160.885 155.646C155.74 154.614 150.418 154.071 144.965 154.071C139.188 154.071 133.557 154.68 128.128 155.836L125.916 123.396C132.109 122.339 138.473 121.786 144.965 121.786ZM98.3413 71.7979C71.2663 79.5526 46.9826 93.8965 27.2876 113.008C20.8926 119.213 10.6701 119.062 4.52686 112.655C-1.61618 106.249 -1.51517 96.008 4.87939 89.8535C29.8789 65.5397 61.1937 47.6975 96.103 38.9814L98.3413 71.7979ZM192.913 38.7559C228.194 47.3869 259.848 65.3272 285.101 89.8535C291.496 96.0584 291.647 106.299 285.454 112.655C279.26 119.011 269.038 119.213 262.694 113.008C242.744 93.6815 218.124 79.2299 190.677 71.5381L192.913 38.7559ZM144.965 33C153.149 33 161.22 33.4895 169.151 34.4404L166.951 66.7041C159.756 65.7703 152.418 65.2861 144.965 65.2861C137.194 65.2861 129.547 65.8102 122.057 66.8242L119.856 34.5527C128.083 33.5276 136.463 33 144.965 33Z" fill="white"/>
</svg>
