<svg width="48" height="47" viewBox="0 0 48 47" fill="none" xmlns="http://www.w3.org/2000/svg">
<ellipse cx="23.7527" cy="23.1876" rx="6.68041" ry="6.45427" fill="white"/>
<rect x="21.5264" width="4.94845" height="11.9523" rx="2.47423" fill="white"/>
<rect x="21.5264" y="34.4228" width="4.94845" height="11.9523" rx="2.47423" fill="white"/>
<rect y="25.578" width="4.78094" height="12.3711" rx="2.39047" transform="rotate(-90 0 25.578)" fill="white"/>
<rect x="35.6289" y="25.578" width="4.78094" height="12.3711" rx="2.39047" transform="rotate(-90 35.6289 25.578)" fill="white"/>
<rect width="4.86542" height="12.1635" rx="2.43271" transform="matrix(-0.719175 0.694829 -0.719175 -0.694829 42.7197 37.8933)" fill="white"/>
<rect width="4.86542" height="12.1635" rx="2.43271" transform="matrix(-0.719175 0.694829 -0.719175 -0.694829 17.5264 13.5527)" fill="white"/>
<rect width="4.86542" height="12.1635" rx="2.43271" transform="matrix(0.719175 0.694829 -0.719175 0.694829 39.2207 5.10142)" fill="white"/>
<rect width="4.86542" height="12.1635" rx="2.43271" transform="matrix(0.719175 0.694829 -0.719175 0.694829 14.0273 29.442)" fill="white"/>
</svg>
